<svg id="Livello_1" data-name="Livello 1" xmlns="http://www.w3.org/2000/svg" xmlns:xlink="http://www.w3.org/1999/xlink" viewBox="0 0 1190.6 1190.6"><defs><style>.cls-1{fill:#4cc6cc;}.cls-2,.cls-3,.cls-4{fill:none;stroke-miterlimit:10;}.cls-2{stroke:red;}.cls-3{stroke:blue;}.cls-4{stroke:#39b54a;}.cls-5{isolation:isolate;}</style></defs><title>886457_04</title><rect class="cls-1" x="1.5" y="-4.8" width="1186.8" height="1196.7"/><g id="Livello_2" data-name="Livello 2"><rect class="cls-2" x="62.3" y="63" width="239.5" height="239.5"/><rect class="cls-2" x="338.7" y="63" width="239.5" height="239.5"/><rect class="cls-2" x="615.1" y="63" width="239.5" height="239.5"/><rect class="cls-2" x="891.5" y="63" width="239.5" height="239.5"/><rect class="cls-2" x="62.3" y="339.4" width="239.5" height="239.5"/><rect class="cls-2" x="338.7" y="339.4" width="239.5" height="239.5"/><rect class="cls-2" x="615.1" y="339.4" width="239.5" height="239.5"/><rect class="cls-2" x="891.5" y="339.4" width="239.5" height="239.5"/><rect class="cls-2" x="62.3" y="615.7" width="239.5" height="239.5"/><rect class="cls-2" x="338.7" y="615.7" width="239.5" height="239.5"/><rect class="cls-2" x="615.1" y="615.7" width="239.5" height="239.5"/><rect class="cls-2" x="891.5" y="615.7" width="239.5" height="239.5"/><rect class="cls-2" x="62.3" y="892.1" width="239.5" height="239.5"/><rect class="cls-2" x="338.7" y="892.1" width="239.5" height="239.5"/><rect class="cls-2" x="615.1" y="892.1" width="239.5" height="239.5"/><rect class="cls-2" x="891.5" y="892.1" width="239.5" height="239.5"/></g><g id="Livello_3" data-name="Livello 3"><rect class="cls-3" x="62.3" y="63" width="184.2" height="184.2"/><rect class="cls-3" x="283.4" y="63" width="184.2" height="184.2"/><rect class="cls-3" x="504.5" y="63" width="184.3" height="184.2"/><rect class="cls-3" x="725.6" y="63" width="184.2" height="184.2"/><rect class="cls-3" x="946.7" y="63" width="184.2" height="184.2"/><rect class="cls-3" x="62.3" y="284.1" width="184.2" height="184.2"/><rect class="cls-3" x="283.4" y="284.1" width="184.2" height="184.2"/><rect class="cls-3" x="504.5" y="284.1" width="184.3" height="184.2"/><rect class="cls-3" x="725.6" y="284.1" width="184.2" height="184.2"/><rect class="cls-3" x="946.7" y="284.1" width="184.2" height="184.2"/><rect class="cls-3" x="62.3" y="505.2" width="184.2" height="184.2"/><rect class="cls-3" x="283.4" y="505.2" width="184.2" height="184.2"/><rect class="cls-3" x="504.5" y="505.2" width="184.3" height="184.2"/><rect class="cls-3" x="725.6" y="505.2" width="184.2" height="184.2"/><rect class="cls-3" x="946.7" y="505.2" width="184.2" height="184.2"/><rect class="cls-3" x="62.3" y="726.3" width="184.2" height="184.2"/><rect class="cls-3" x="283.4" y="726.3" width="184.2" height="184.2"/><rect class="cls-3" x="504.5" y="726.3" width="184.3" height="184.2"/><rect class="cls-3" x="725.6" y="726.3" width="184.2" height="184.2"/><rect class="cls-3" x="946.7" y="726.3" width="184.2" height="184.2"/><rect class="cls-3" x="62.3" y="947.4" width="184.2" height="184.2"/><rect class="cls-3" x="283.4" y="947.4" width="184.2" height="184.2"/><rect class="cls-3" x="504.5" y="947.4" width="184.3" height="184.2"/><rect class="cls-3" x="725.6" y="947.4" width="184.2" height="184.2"/><rect class="cls-3" x="946.7" y="947.4" width="184.2" height="184.2"/></g><g id="Livello_4" data-name="Livello 4"><rect class="cls-4" x="64.3" y="63" width="147.4" height="147.4"/><rect class="cls-4" x="248.6" y="63" width="147.4" height="147.4"/><rect class="cls-4" x="432.8" y="63" width="147.4" height="147.4"/><rect class="cls-4" x="617.1" y="63" width="147.4" height="147.4"/><rect class="cls-4" x="801.3" y="63" width="147.4" height="147.4"/><rect class="cls-4" x="985.6" y="63" width="147.4" height="147.4"/><rect class="cls-4" x="64.3" y="247.2" width="147.4" height="147.4"/><rect class="cls-4" x="248.6" y="247.2" width="147.4" height="147.4"/><rect class="cls-4" x="432.8" y="247.2" width="147.4" height="147.4"/><rect class="cls-4" x="617.1" y="247.2" width="147.4" height="147.4"/><rect class="cls-4" x="801.3" y="247.2" width="147.4" height="147.4"/><rect class="cls-4" x="985.6" y="247.2" width="147.4" height="147.4"/><rect class="cls-4" x="64.3" y="431.5" width="147.4" height="147.4"/><rect class="cls-4" x="248.6" y="431.5" width="147.4" height="147.4"/><rect class="cls-4" x="432.8" y="431.5" width="147.4" height="147.4"/><rect class="cls-4" x="617.1" y="431.5" width="147.4" height="147.4"/><rect class="cls-4" x="801.3" y="431.5" width="147.4" height="147.4"/><rect class="cls-4" x="985.6" y="431.5" width="147.4" height="147.4"/><rect class="cls-4" x="64.3" y="615.7" width="147.4" height="147.4"/><rect class="cls-4" x="248.6" y="615.7" width="147.4" height="147.4"/><rect class="cls-4" x="432.8" y="615.7" width="147.4" height="147.4"/><rect class="cls-4" x="617.1" y="615.7" width="147.4" height="147.4"/><rect class="cls-4" x="801.3" y="615.7" width="147.4" height="147.4"/><rect class="cls-4" x="985.6" y="615.7" width="147.4" height="147.4"/><rect class="cls-4" x="60.3" y="800" width="147.4" height="147.4"/><rect class="cls-4" x="244.6" y="800" width="147.4" height="147.4"/><rect class="cls-4" x="428.8" y="800" width="147.4" height="147.4"/><rect class="cls-4" x="613.1" y="800" width="147.4" height="147.4"/><rect class="cls-4" x="797.3" y="800" width="147.4" height="147.4"/><rect class="cls-4" x="981.6" y="800" width="147.4" height="147.4"/><rect class="cls-4" x="60.3" y="984.2" width="147.4" height="147.4"/><rect class="cls-4" x="244.6" y="984.2" width="147.4" height="147.4"/><rect class="cls-4" x="428.8" y="984.2" width="147.4" height="147.4"/><rect class="cls-4" x="613.1" y="984.2" width="147.4" height="147.4"/><rect class="cls-4" x="797.3" y="984.2" width="147.4" height="147.4"/><rect class="cls-4" x="981.6" y="984.2" width="147.4" height="147.4"/></g><image class="cls-5" width="4032" height="3024" transform="matrix(0, -0.27, 0.27, 0, 193.47, 1130.46)" xlink:href="886457_01.JPG"/></svg>