<?xml version="1.0" encoding="utf-8"?>
<!-- Generator: Adobe Illustrator 22.1.0, SVG Export Plug-In . SVG Version: 6.00 Build 0)  -->
<svg version="1.1" id="Livello_1" xmlns="http://www.w3.org/2000/svg" xmlns:xlink="http://www.w3.org/1999/xlink" x="0px" y="0px"
	 viewBox="0 0 1190.6 1190.6" style="enable-background:new 0 0 1190.6 1190.6;" xml:space="preserve">
<style type="text/css">
	.st0{fill:#C89664;}
	.st1{fill:none;stroke:#6496C8;stroke-miterlimit:10;}
	.st2{fill:none;stroke:#96C864;stroke-miterlimit:10;}
	.st3{fill:none;stroke:#9664C8;stroke-miterlimit:10;}
	.st4{clip-path:url(#SVGID_2_);}
	.st5{clip-path:url(#SVGID_4_);}
	.st6{fill:none;}
	.st7{font-family:'OpenSansCondensed-Bold';}
	.st8{font-size:60px;}
	.st9{font-family:'OpenSans-Light';}
	.st10{font-size:16px;}
	.st11{font-family:'EBGaramond-Italic';}
	.st12{font-size:10px;}
</style>
<title>Tavola disegno 1</title>
<g id="Livello_1-2">
	<rect y="0" class="st0" width="1190.6" height="1190.6"/>
</g>
<g id="Livello_2_1_">
	<rect x="60.9" y="60.9" class="st1" width="239.5" height="239.5"/>
	<rect x="337.3" y="60.9" class="st1" width="239.5" height="239.5"/>
	<rect x="337.3" y="337.3" class="st1" width="239.5" height="239.5"/>
	<rect x="60.9" y="337.3" class="st1" width="239.5" height="239.5"/>
	<rect x="60.9" y="613.7" class="st1" width="239.5" height="239.5"/>
	<rect x="337.3" y="613.7" class="st1" width="239.5" height="239.5"/>
	<rect x="337.3" y="890.1" class="st1" width="239.5" height="239.5"/>
	<rect x="60.9" y="890.1" class="st1" width="239.5" height="239.5"/>
	<rect x="613.7" y="60.9" class="st1" width="239.5" height="239.5"/>
	<rect x="890.1" y="60.9" class="st1" width="239.5" height="239.5"/>
	<rect x="890.1" y="337.3" class="st1" width="239.5" height="239.5"/>
	<rect x="613.7" y="337.3" class="st1" width="239.5" height="239.5"/>
	<rect x="613.7" y="613.7" class="st1" width="239.5" height="239.5"/>
	<rect x="890.1" y="613.7" class="st1" width="239.5" height="239.5"/>
	<rect x="890.1" y="890.1" class="st1" width="239.5" height="239.5"/>
	<rect x="613.7" y="890.1" class="st1" width="239.5" height="239.5"/>
</g>
<g id="Livello_3">
	<rect x="60.9" y="60.9" class="st2" width="184.3" height="184.3"/>
	<rect x="282" y="60.9" class="st2" width="184.3" height="184.3"/>
	<rect x="60.9" y="282.1" class="st2" width="184.3" height="184.3"/>
	<rect x="282" y="282.1" class="st2" width="184.3" height="184.3"/>
	<rect x="503.1" y="60.9" class="st2" width="184.3" height="184.3"/>
	<rect x="724.3" y="60.9" class="st2" width="184.3" height="184.3"/>
	<rect x="503.1" y="282.1" class="st2" width="184.3" height="184.3"/>
	<rect x="724.3" y="282.1" class="st2" width="184.3" height="184.3"/>
	<rect x="60.9" y="503.2" class="st2" width="184.3" height="184.3"/>
	<rect x="282" y="503.2" class="st2" width="184.3" height="184.3"/>
	<rect x="60.9" y="724.3" class="st2" width="184.3" height="184.3"/>
	<rect x="282" y="724.3" class="st2" width="184.3" height="184.3"/>
	<rect x="503.1" y="503.2" class="st2" width="184.3" height="184.3"/>
	<rect x="724.3" y="503.2" class="st2" width="184.3" height="184.3"/>
	<rect x="503.1" y="724.3" class="st2" width="184.3" height="184.3"/>
	<rect x="724.3" y="724.3" class="st2" width="184.3" height="184.3"/>
	<rect x="945.3" y="60.9" class="st2" width="184.3" height="184.3"/>
	<rect x="945.3" y="282.1" class="st2" width="184.3" height="184.3"/>
	<rect x="945.4" y="503.2" class="st2" width="184.3" height="184.3"/>
	<rect x="945.3" y="724.3" class="st2" width="184.3" height="184.3"/>
	<rect x="60.9" y="945.4" class="st2" width="184.3" height="184.3"/>
	<rect x="282" y="945.4" class="st2" width="184.3" height="184.3"/>
	<rect x="503.1" y="945.4" class="st2" width="184.3" height="184.3"/>
	<rect x="724.3" y="945.4" class="st2" width="184.3" height="184.3"/>
	<rect x="945.3" y="945.4" class="st2" width="184.3" height="184.3"/>
</g>
<g id="Livello_4">
	<rect x="60.9" y="60.9" class="st3" width="147.4" height="147.4"/>
	<rect x="245.2" y="60.9" class="st3" width="147.4" height="147.4"/>
	<rect x="60.9" y="245.2" class="st3" width="147.4" height="147.4"/>
	<rect x="245.2" y="245.2" class="st3" width="147.4" height="147.4"/>
	<rect x="429.5" y="60.9" class="st3" width="147.4" height="147.4"/>
	<rect x="613.7" y="60.9" class="st3" width="147.4" height="147.4"/>
	<rect x="429.5" y="245.2" class="st3" width="147.4" height="147.4"/>
	<rect x="613.7" y="245.2" class="st3" width="147.4" height="147.4"/>
	<rect x="61" y="429.5" class="st3" width="147.4" height="147.4"/>
	<rect x="245.2" y="429.5" class="st3" width="147.4" height="147.4"/>
	<rect x="60.9" y="613.7" class="st3" width="147.4" height="147.4"/>
	<rect x="245.2" y="613.7" class="st3" width="147.4" height="147.4"/>
	<rect x="429.5" y="429.5" class="st3" width="147.4" height="147.4"/>
	<rect x="613.7" y="429.5" class="st3" width="147.4" height="147.4"/>
	<rect x="429.5" y="613.7" class="st3" width="147.4" height="147.4"/>
	<rect x="613.7" y="613.7" class="st3" width="147.4" height="147.4"/>
	<rect x="60.9" y="798" class="st3" width="147.4" height="147.4"/>
	<rect x="245.2" y="798" class="st3" width="147.4" height="147.4"/>
	<rect x="60.9" y="982.2" class="st3" width="147.4" height="147.4"/>
	<rect x="245.2" y="982.2" class="st3" width="147.4" height="147.4"/>
	<rect x="429.5" y="798" class="st3" width="147.4" height="147.4"/>
	<rect x="613.7" y="798" class="st3" width="147.4" height="147.4"/>
	<rect x="429.5" y="982.2" class="st3" width="147.4" height="147.4"/>
	<rect x="613.7" y="982.2" class="st3" width="147.4" height="147.4"/>
	<rect x="798" y="60.9" class="st3" width="147.4" height="147.4"/>
	<rect x="982.2" y="60.9" class="st3" width="147.4" height="147.4"/>
	<rect x="798" y="245.2" class="st3" width="147.4" height="147.4"/>
	<rect x="982.2" y="245.2" class="st3" width="147.4" height="147.4"/>
	<rect x="798" y="429.5" class="st3" width="147.4" height="147.4"/>
	<rect x="982.2" y="429.5" class="st3" width="147.4" height="147.4"/>
	<rect x="798" y="613.7" class="st3" width="147.4" height="147.4"/>
	<rect x="982.2" y="613.7" class="st3" width="147.4" height="147.4"/>
	<rect x="798" y="798" class="st3" width="147.4" height="147.4"/>
	<rect x="982.2" y="798" class="st3" width="147.4" height="147.4"/>
	<rect x="798" y="982.2" class="st3" width="147.4" height="147.4"/>
	<rect x="982.2" y="982.2" class="st3" width="147.4" height="147.4"/>
</g>
<g>
	<g>
		<defs>
			<rect id="SVGID_1_" x="60.9" y="337.3" width="239.5" height="239.5"/>
		</defs>
		<clipPath id="SVGID_2_">
			<use xlink:href="#SVGID_1_"  style="overflow:visible;"/>
		</clipPath>
		<g class="st4">
			
				<image style="overflow:visible;enable-background:new    ;" width="1919" height="1079" xlink:href="869987_03.png"  transform="matrix(1 0 0 1 -1157.9 -133.65)">
			</image>
		</g>
	</g>
</g>
<g>
	<g>
		<defs>
			<circle id="SVGID_3_" cx="180.7" cy="733.5" r="119.8"/>
		</defs>
		<clipPath id="SVGID_4_">
			<use xlink:href="#SVGID_3_"  style="overflow:visible;"/>
		</clipPath>
		<g class="st5">
			
				<image style="overflow:visible;enable-background:new    ;" width="1920" height="1080" xlink:href="869987_05.png"  transform="matrix(1 0 0 1 0 208.34)">
			</image>
		</g>
	</g>
</g>
<rect x="429.4" y="153.1" class="st6" width="331.7" height="147.4"/>
<text transform="matrix(1 0 0 1 429.4451 198.6646)" class="st7 st8">No Man’s Sky</text>
<rect x="337.3" y="337.3" class="st6" width="608" height="239.5"/>
<text transform="matrix(1 0 0 1 337.32 349.4803)" class="st9 st10">Lorem ipsum dolor sit amet, consectetuer adipiscing elit, sed diam nonummy nibh </text>
<text transform="matrix(1 0 0 1 337.32 373.4803)" class="st9 st10">euismod tincidunt ut laoreet dolore magna aliquam erat volutpat. Ut wisi enim ad </text>
<text transform="matrix(1 0 0 1 337.32 397.4803)" class="st9 st10">minim veniam, quis nostrud exerci tation ullamcorper suscipit lobortis nisl ut aliquip </text>
<text transform="matrix(1 0 0 1 337.32 421.4803)" class="st9 st10">ex ea commodo consequat. Duis autem vel eum iriure dolor in hendrerit in vulputate </text>
<text transform="matrix(1 0 0 1 337.32 445.4803)" class="st9 st10">velit esse molestie consequat, vel illum dolore eu feugiat nulla facilisis at vero eros et </text>
<text transform="matrix(1 0 0 1 337.32 469.4803)" class="st9 st10">accumsan et iusto odio dignissim qui blandit praesent luptatum zzril delenit augue </text>
<text transform="matrix(1 0 0 1 337.32 493.4803)" class="st9 st10">duis dolore te feugait nulla facilisi.</text>
<text transform="matrix(1 0 0 1 337.32 517.4803)" class="st9 st10">Lorem ipsum dolor sit amet, cons ectetuer adipiscing elit, sed diam nonummy nibh </text>
<text transform="matrix(1 0 0 1 337.32 541.4803)" class="st9 st10">euismod tincidunt ut laoreet dolore magna aliquam erat volutpat. Ut wisi enim ad </text>
<text transform="matrix(1 0 0 1 337.32 565.4803)" class="st9 st10">minim veniam, quis nostrud exerci tation ullamcorper suscipit lobortis nisl ut aliquip </text>
<rect x="300.5" y="687.4" class="st6" width="92.1" height="36.8"/>
<text transform="matrix(1 0 0 1 300.47 694.45)" class="st11 st12">No Man’s Sky</text>
<ellipse class="st6" cx="180.6" cy="1009.9" rx="119.8" ry="119.8"/>
<text transform="matrix(1 0 0 1 107.1528 926.2602)"><tspan x="0" y="0" class="st9 st10">Lorem ipsum dolor </tspan><tspan x="-23.3" y="24" class="st9 st10">sit amet, consectetuer </tspan><tspan x="-36.9" y="48" class="st9 st10">adipiscing elit, sed diam no</tspan><tspan x="156.1" y="48" class="st9 st10">-</tspan><tspan x="-44.1" y="72" class="st9 st10">nummy nibh euismod tincidunt </tspan><tspan x="-45.6" y="96" class="st9 st10">ut laoreet dolore magna aliquam </tspan><tspan x="-40.6" y="120" class="st9 st10">erat volutpat. Ut wisi enim ad </tspan><tspan x="-30" y="144" class="st9 st10">minim veniam, quis nostrud </tspan><tspan x="-11.5" y="168" class="st9 st10">exerci tation ullamcor</tspan><tspan x="143.9" y="168" class="st9 st10">-</tspan><tspan x="22.4" y="192" class="st9 st10">per suscipit </tspan></text>
</svg>
