<svg xmlns="http://www.w3.org/2000/svg" xmlns:xlink="http://www.w3.org/1999/xlink" viewBox="0 0 1190.55 1190.55"><defs><style>.cls-1,.cls-3,.cls-4,.cls-5,.cls-6{fill:none;}.cls-2{fill:#36a9e1;}.cls-3{stroke:#312783;}.cls-3,.cls-4,.cls-5,.cls-6{stroke-miterlimit:10;}.cls-4{stroke:#be1622;}.cls-5,.cls-6{stroke:#063;}.cls-6{stroke-width:1px;}.cls-7{clip-path:url(#clip-path);}.cls-8{clip-path:url(#clip-path-2);}.cls-9{font-size:60px;font-family:OpenSansCondensed-Bold, Open Sans Condensed;font-weight:700;}.cls-10,.cls-11,.cls-9{fill:#1d1d1b;}.cls-10{font-size:16px;font-family:OpenSans-Light, Open Sans;}.cls-11{font-size:10px;font-family:EBGaramond-Italic, EB Garamond;font-style:italic;}.cls-12{letter-spacing:-0.01em;}.cls-13{letter-spacing:-0.04em;}.cls-14{letter-spacing:-0.03em;}.cls-15{letter-spacing:-0.02em;}.cls-16{letter-spacing:-0.02em;}.cls-17{letter-spacing:-0.02em;}.cls-18{letter-spacing:-0.02em;}.cls-19{letter-spacing:0em;}.cls-20{letter-spacing:-0.05em;}.cls-21{letter-spacing:-0.04em;}</style><clipPath id="clip-path"><rect class="cls-1" x="950" y="283" width="182" height="183"/></clipPath><clipPath id="clip-path-2"><circle class="cls-1" cx="379.19" cy="822.61" r="120.5"/></clipPath></defs><title>Tavola disegno 1</title><g id="Livello_1" data-name="Livello 1"><rect class="cls-2" width="1190.55" height="1190.55"/></g><g id="Livello_2" data-name="Livello 2"><rect class="cls-3" x="64.7" y="337.55" width="239.53" height="239.53"/><rect class="cls-3" x="64.7" y="613.92" width="239.53" height="239.53"/><rect class="cls-3" x="64.7" y="890.08" width="239.53" height="239.53"/><rect class="cls-3" x="64.7" y="61.17" width="239.53" height="239.53"/><rect class="cls-3" x="341.08" y="337.55" width="239.53" height="239.53"/><rect class="cls-3" x="341.08" y="613.92" width="239.53" height="239.53"/><rect class="cls-3" x="341.08" y="890.08" width="239.53" height="239.53"/><rect class="cls-3" x="341.08" y="61.17" width="239.53" height="239.53"/><rect class="cls-3" x="617.46" y="337.55" width="239.53" height="239.53"/><rect class="cls-3" x="617.46" y="613.92" width="239.53" height="239.53"/><rect class="cls-3" x="617.46" y="890.08" width="239.53" height="239.53"/><rect class="cls-3" x="617.46" y="61.17" width="239.53" height="239.53"/><rect class="cls-3" x="893.84" y="337.55" width="239.53" height="239.53"/><rect class="cls-3" x="893.84" y="613.92" width="239.53" height="239.53"/><rect class="cls-3" x="893.84" y="890.08" width="239.53" height="239.53"/><rect class="cls-3" x="893.84" y="61.17" width="239.53" height="239.53"/></g><g id="Livello_3" data-name="Livello 3"><rect class="cls-4" x="64.7" y="60.95" width="184.25" height="184.25"/><rect class="cls-4" x="285.81" y="60.95" width="184.25" height="184.25"/><rect class="cls-4" x="506.91" y="60.95" width="184.25" height="184.25"/><rect class="cls-4" x="728.01" y="60.95" width="184.25" height="184.25"/><rect class="cls-4" x="949.11" y="60.95" width="184.25" height="184.25"/><rect class="cls-4" x="64.7" y="282.05" width="184.25" height="184.25"/><rect class="cls-4" x="285.8" y="282.05" width="184.25" height="184.25"/><rect class="cls-4" x="506.91" y="282.05" width="184.25" height="184.25"/><rect class="cls-4" x="728.01" y="282.05" width="184.25" height="184.25"/><rect class="cls-4" x="949.11" y="282.05" width="184.25" height="184.25"/><rect class="cls-4" x="64.7" y="724.25" width="184.25" height="184.25"/><rect class="cls-4" x="285.8" y="724.25" width="184.25" height="184.25"/><rect class="cls-4" x="506.91" y="724.25" width="184.25" height="184.25"/><rect class="cls-4" x="728.01" y="724.25" width="184.25" height="184.25"/><rect class="cls-4" x="949.11" y="724.25" width="184.25" height="184.25"/><rect class="cls-4" x="64.7" y="503.15" width="184.25" height="184.25"/><rect class="cls-4" x="285.8" y="503.15" width="184.25" height="184.25"/><rect class="cls-4" x="506.91" y="503.15" width="184.25" height="184.25"/><rect class="cls-4" x="728.01" y="503.15" width="184.25" height="184.25"/><rect class="cls-4" x="949.11" y="503.15" width="184.25" height="184.25"/><rect class="cls-4" x="64.7" y="945.35" width="184.25" height="184.25"/><rect class="cls-4" x="285.8" y="945.35" width="184.25" height="184.25"/><rect class="cls-4" x="506.91" y="945.35" width="184.25" height="184.25"/><rect class="cls-4" x="728.01" y="945.35" width="184.25" height="184.25"/><rect class="cls-4" x="949.11" y="945.35" width="184.25" height="184.25"/></g><g id="Livello_4" data-name="Livello 4"><rect class="cls-5" x="64.7" y="60.94" width="147.4" height="147.4"/><rect class="cls-5" x="248.9" y="60.94" width="147.4" height="147.4"/><rect class="cls-5" x="433.1" y="60.94" width="147.4" height="147.4"/><rect class="cls-5" x="617.46" y="60.94" width="147.4" height="147.4"/><rect class="cls-5" x="801.71" y="60.94" width="147.4" height="147.4"/><rect class="cls-5" x="985.96" y="60.94" width="147.4" height="147.4"/><rect class="cls-5" x="64.7" y="245.2" width="147.4" height="147.4"/><rect class="cls-5" x="248.9" y="245.2" width="147.4" height="147.4"/><rect class="cls-5" x="433.1" y="245.2" width="147.4" height="147.4"/><rect class="cls-5" x="617.46" y="245.2" width="147.4" height="147.4"/><rect class="cls-5" x="801.71" y="245.2" width="147.4" height="147.4"/><rect class="cls-5" x="985.96" y="245.2" width="147.4" height="147.4"/><rect class="cls-5" x="64.7" y="429.45" width="147.4" height="147.4"/><rect class="cls-5" x="248.9" y="429.45" width="147.4" height="147.4"/><rect class="cls-5" x="433.1" y="429.45" width="147.4" height="147.4"/><rect class="cls-5" x="617.46" y="429.45" width="147.4" height="147.4"/><rect class="cls-5" x="801.71" y="429.45" width="147.4" height="147.4"/><rect class="cls-5" x="985.96" y="429.45" width="147.4" height="147.4"/><rect class="cls-5" x="64.7" y="613.7" width="147.4" height="147.4"/><rect class="cls-5" x="248.9" y="613.7" width="147.4" height="147.4"/><rect class="cls-5" x="433.1" y="613.7" width="147.4" height="147.4"/><rect class="cls-5" x="617.46" y="613.7" width="147.4" height="147.4"/><rect class="cls-5" x="801.71" y="613.7" width="147.4" height="147.4"/><rect class="cls-5" x="985.96" y="613.7" width="147.4" height="147.4"/><rect class="cls-6" x="64.7" y="797.95" width="147.4" height="147.4"/><rect class="cls-5" x="248.96" y="797.95" width="147.4" height="147.4"/><rect class="cls-5" x="433.1" y="797.95" width="147.4" height="147.4"/><rect class="cls-5" x="617.46" y="797.95" width="147.4" height="147.4"/><rect class="cls-5" x="801.71" y="797.95" width="147.4" height="147.4"/><rect class="cls-5" x="985.96" y="797.95" width="147.4" height="147.4"/><rect class="cls-5" x="64.7" y="982.2" width="147.4" height="147.4"/><rect class="cls-5" x="248.96" y="982.2" width="147.4" height="147.4"/><rect class="cls-5" x="433.1" y="982.2" width="147.4" height="147.4"/><rect class="cls-5" x="617.46" y="982.2" width="147.4" height="147.4"/><rect class="cls-5" x="801.71" y="982.2" width="147.4" height="147.4"/><rect class="cls-5" x="985.96" y="982.21" width="147.4" height="147.4"/></g><g id="Livello_5" data-name="Livello 5"><g class="cls-7"><image width="4032" height="3024" transform="translate(734 208.55) scale(0.1 0.1)" xlink:href="../../../Pictures/snapseed/20170308_161135-01.jpeg"/></g><g class="cls-8"><image width="4032" height="2142" transform="translate(174.61 685.13) scale(0.12 0.12)" xlink:href="../../../Pictures/snapseed/20171228_115058-01.jpeg"/></g><text class="cls-9" transform="translate(68 109.6)">esercizi grafica</text><text class="cls-10" transform="translate(64.19 221.29)">Lorem ipsum dolor sit amet, consectetuer adi<tspan x="326.35" y="0">-</tspan><tspan x="0" y="24">piscing elit, sed diam nonummy nibh euismod </tspan><tspan x="0" y="48">tincidunt ut laoreet dolore magna aliquam erat </tspan><tspan x="0" y="72">volutpat. Ut wisi enim ad minim veniam, quis </tspan><tspan x="0" y="96">nostrud exerci tation ullamcorper suscipit </tspan><tspan x="0" y="120">lobortis nisl ut aliquip ex ea commodo conse</tspan><tspan x="320.53" y="120">-</tspan><tspan x="0" y="144">quat. Duis autem vel eum iriure dolor in hen</tspan><tspan x="316.66" y="144">-</tspan><tspan x="0" y="168">drerit in vulputate velit esse molestie conse</tspan><tspan x="310.01" y="168">-</tspan><tspan x="0" y="192">quat, vel illum dolore eu feugiat nulla facilisis at </tspan></text><text class="cls-11" transform="translate(507 899.05)"><tspan class="cls-12">a</tspan><tspan x="4.76" y="0">utost</tspan><tspan class="cls-13" x="22.25" y="0">r</tspan><tspan x="25.64" y="0">ada d</tspan><tspan class="cls-14" x="47.78" y="0">e</tspan><tspan class="cls-12" x="50.94" y="0">l</tspan><tspan x="53.65" y="0">la cisa </tspan><tspan class="cls-15" x="79.16" y="0">i</tspan><tspan class="cls-16" x="81.95" y="0">n</tspan><tspan x="87.02" y="0">nevata. </tspan></text><text class="cls-11" transform="translate(194.13 473.05)">Lorem <tspan class="cls-12" x="-43.95" y="14">i</tspan><tspan x="-41.16" y="14">ps</tspan><tspan class="cls-12" x="-34.01" y="14">u</tspan><tspan x="-29.07" y="14">m d</tspan><tspan class="cls-17" x="-14.02" y="14">o</tspan><tspan x="-10.43" y="14">lor sit </tspan><tspan class="cls-16" x="12.64" y="14">a</tspan><tspan x="17.35" y="14">met, </tspan><tspan class="cls-12" x="-63.9" y="28">c</tspan><tspan x="-60.92" y="28">onsectet</tspan><tspan class="cls-17" x="-33.3" y="28">u</tspan><tspan x="-28.41" y="28">er ad</tspan><tspan class="cls-12" x="-9.14" y="28">i</tspan><tspan x="-6.35" y="28">pisc</tspan><tspan class="cls-12" x="6.87" y="28">i</tspan><tspan x="9.66" y="28">ng </tspan><tspan class="cls-14" x="21.08" y="28">e</tspan><tspan x="24.24" y="28">lit, sed di</tspan><tspan class="cls-16" x="58.54" y="28">a</tspan><tspan x="63.25" y="28">m </tspan><tspan x="-77.52" y="42">non</tspan><tspan class="cls-12" x="-63.18" y="42">u</tspan><tspan class="cls-17" x="-58.24" y="42">mm</tspan><tspan x="-42.86" y="42">y n</tspan><tspan class="cls-14" x="-31.54" y="42">i</tspan><tspan class="cls-16" x="-28.85" y="42">b</tspan><tspan x="-24.56" y="42">h euismod t</tspan><tspan class="cls-12" x="18.29" y="42">i</tspan><tspan x="21.08" y="42">nc</tspan><tspan class="cls-17" x="29.48" y="42">i</tspan><tspan x="32.22" y="42">d</tspan><tspan class="cls-12" x="37.38" y="42">u</tspan><tspan x="42.32" y="42">nt ut laoreet </tspan><tspan x="-87.42" y="56">d</tspan><tspan class="cls-16" x="-82.26" y="56">o</tspan><tspan x="-78.66" y="56">lore magna </tspan><tspan class="cls-17" x="-33.67" y="56">a</tspan><tspan x="-28.96" y="56">l</tspan><tspan class="cls-16" x="-26.1" y="56">i</tspan><tspan x="-23.36" y="56">qu</tspan><tspan class="cls-16" x="-13.54" y="56">a</tspan><tspan x="-8.83" y="56">m e</tspan><tspan class="cls-13" x="4.47" y="56">r</tspan><tspan x="7.86" y="56">at v</tspan><tspan class="cls-16" x="21.79" y="56">o</tspan><tspan x="25.39" y="56">lutpat. Ut wisi en</tspan><tspan class="cls-12" x="90.1" y="56">i</tspan><tspan x="92.89" y="56">m ad </tspan><tspan x="-94.61" y="70">m</tspan><tspan class="cls-12" x="-86.72" y="70">i</tspan><tspan x="-83.93" y="70">n</tspan><tspan class="cls-12" x="-78.66" y="70">i</tspan><tspan x="-75.87" y="70">m veni</tspan><tspan class="cls-17" x="-50.26" y="70">a</tspan><tspan x="-45.55" y="70">m, quis nostr</tspan><tspan class="cls-16" x="2.54" y="70">u</tspan><tspan x="7.43" y="70">d exerci tat</tspan><tspan class="cls-16" x="48.4" y="70">i</tspan><tspan x="51.14" y="70">on </tspan><tspan class="cls-18" x="62.21" y="70">u</tspan><tspan class="cls-15" x="67.05" y="70">l</tspan><tspan x="69.76" y="70">l</tspan><tspan class="cls-16" x="72.62" y="70">a</tspan><tspan x="77.33" y="70">m</tspan><tspan class="cls-12" x="85.22" y="70">c</tspan><tspan x="88.2" y="70">orper </tspan><tspan x="-99.62" y="84">susc</tspan><tspan class="cls-12" x="-85.88" y="84">i</tspan><tspan x="-83.09" y="84">pit l</tspan><tspan class="cls-17" x="-67.98" y="84">o</tspan><tspan x="-64.38" y="84">bortis ni</tspan><tspan class="cls-12" x="-33.47" y="84">s</tspan><tspan x="-30.86" y="84">l ut </tspan><tspan class="cls-16" x="-15.99" y="84">a</tspan><tspan x="-11.28" y="84">l</tspan><tspan class="cls-16" x="-8.42" y="84">i</tspan><tspan class="cls-19" x="-5.68" y="84">qu</tspan><tspan class="cls-12" x="4.14" y="84">i</tspan><tspan x="6.93" y="84">p ex ea </tspan><tspan class="cls-12" x="33.43" y="84">c</tspan><tspan x="36.41" y="84">o</tspan><tspan class="cls-16" x="40.21" y="84">m</tspan><tspan x="47.9" y="84">modo </tspan><tspan class="cls-12" x="70.55" y="84">c</tspan><tspan x="73.53" y="84">onsequat. </tspan><tspan x="-102.71" y="98">Duis </tspan><tspan class="cls-12" x="-82.4" y="98">a</tspan><tspan x="-77.64" y="98">utem v</tspan><tspan class="cls-14" x="-52.23" y="98">e</tspan><tspan x="-49.07" y="98">l e</tspan><tspan class="cls-12" x="-40.8" y="98">u</tspan><tspan x="-35.86" y="98">m </tspan><tspan class="cls-12" x="-25.97" y="98">i</tspan><tspan x="-23.18" y="98">ri</tspan><tspan class="cls-15" x="-16.45" y="98">u</tspan><tspan x="-11.51" y="98">re d</tspan><tspan class="cls-16" x="2.85" y="98">o</tspan><tspan x="6.45" y="98">lor </tspan><tspan class="cls-12" x="18.9" y="98">i</tspan><tspan x="21.69" y="98">n hendrerit </tspan><tspan class="cls-12" x="66.53" y="98">i</tspan><tspan x="69.32" y="98">n v</tspan><tspan class="cls-14" x="80.69" y="98">u</tspan><tspan x="85.53" y="98">lputate </tspan><tspan x="-104.05" y="112">v</tspan><tspan class="cls-14" x="-99.95" y="112">e</tspan><tspan x="-96.79" y="112">lit esse m</tspan><tspan class="cls-16" x="-63.85" y="112">o</tspan><tspan x="-60.25" y="112">lest</tspan><tspan class="cls-17" x="-48.3" y="112">i</tspan><tspan x="-45.56" y="112">e </tspan><tspan class="cls-12" x="-40.15" y="112">c</tspan><tspan x="-37.17" y="112">onsequat, v</tspan><tspan class="cls-14" x="3.97" y="112">e</tspan><tspan x="7.13" y="112">l </tspan><tspan class="cls-14" x="11.99" y="112">i</tspan><tspan class="cls-12" x="14.68" y="112">l</tspan><tspan x="17.39" y="112">l</tspan><tspan class="cls-12" x="20.25" y="112">u</tspan><tspan x="25.19" y="112">m d</tspan><tspan class="cls-16" x="40.24" y="112">o</tspan><tspan x="43.84" y="112">lore eu feugiat n</tspan><tspan class="cls-14" x="104.1" y="112">u</tspan><tspan class="cls-12" x="108.94" y="112">l</tspan><tspan x="111.65" y="112">la </tspan><tspan class="cls-20" x="-103.04" y="126">f</tspan><tspan x="-100.28" y="126">ac</tspan><tspan class="cls-18" x="-92.24" y="126">i</tspan><tspan x="-89.55" y="126">lisis at vero eros et a</tspan><tspan class="cls-15" x="-17.36" y="126">c</tspan><tspan x="-14.38" y="126">c</tspan><tspan class="cls-12" x="-11.25" y="126">u</tspan><tspan x="-6.31" y="126">ms</tspan><tspan class="cls-16" x="4.34" y="126">a</tspan><tspan x="9.05" y="126">n et iusto od</tspan><tspan class="cls-17" x="53.11" y="126">i</tspan><tspan x="55.85" y="126">o digniss</tspan><tspan class="cls-12" x="87.63" y="126">i</tspan><tspan x="90.42" y="126">m qui </tspan><tspan class="cls-16" x="-100.24" y="140">b</tspan><tspan x="-95.95" y="140">l</tspan><tspan class="cls-17" x="-93.09" y="140">a</tspan><tspan x="-88.38" y="140">ndit p</tspan><tspan class="cls-13" x="-65.7" y="140">r</tspan><tspan x="-62.31" y="140">aesent l</tspan><tspan class="cls-12" x="-34.77" y="140">u</tspan><tspan x="-29.83" y="140">ptat</tspan><tspan class="cls-12" x="-14.69" y="140">u</tspan><tspan x="-9.75" y="140">m zzr</tspan><tspan class="cls-14" x="12.07" y="140">i</tspan><tspan x="14.76" y="140">l d</tspan><tspan class="cls-14" x="24.78" y="140">e</tspan><tspan x="27.94" y="140">lenit </tspan><tspan class="cls-12" x="47.34" y="140">a</tspan><tspan x="52.1" y="140">ug</tspan><tspan class="cls-16" x="61.34" y="140">u</tspan><tspan class="cls-19" x="66.23" y="140">e duis d</tspan><tspan class="cls-17" x="94.75" y="140">o</tspan><tspan x="98.35" y="140">lore te </tspan><tspan x="-95.56" y="154">feu</tspan><tspan class="cls-16" x="-83.85" y="154">ga</tspan><tspan x="-75.19" y="154">it n</tspan><tspan class="cls-14" x="-62.06" y="154">u</tspan><tspan class="cls-12" x="-57.22" y="154">l</tspan><tspan x="-54.51" y="154">la </tspan><tspan class="cls-21" x="-44.74" y="154">f</tspan><tspan x="-41.98" y="154">ac</tspan><tspan class="cls-14" x="-33.94" y="154">i</tspan><tspan x="-31.25" y="154">lisi.</tspan><tspan x="-88.74" y="168">Lorem </tspan><tspan class="cls-12" x="-62.02" y="168">i</tspan><tspan x="-59.23" y="168">ps</tspan><tspan class="cls-12" x="-52.08" y="168">u</tspan><tspan x="-47.14" y="168">m d</tspan><tspan class="cls-17" x="-32.09" y="168">o</tspan><tspan x="-28.49" y="168">lor sit </tspan><tspan class="cls-16" x="-5.42" y="168">a</tspan><tspan x="-0.71" y="168">met, </tspan><tspan class="cls-12" x="17.66" y="168">c</tspan><tspan x="20.64" y="168">ons ectet</tspan><tspan class="cls-17" x="50.25" y="168">u</tspan><tspan x="55.14" y="168">er ad</tspan><tspan class="cls-12" x="74.41" y="168">i</tspan><tspan x="77.2" y="168">pisc</tspan><tspan class="cls-12" x="90.42" y="168">i</tspan><tspan x="93.21" y="168">ng </tspan><tspan class="cls-14" x="-79.33" y="182">e</tspan><tspan x="-76.17" y="182">lit, sed di</tspan><tspan class="cls-16" x="-41.87" y="182">a</tspan><tspan x="-37.16" y="182">m non</tspan><tspan class="cls-12" x="-12.93" y="182">u</tspan><tspan class="cls-17" x="-7.99" y="182">mm</tspan><tspan x="7.39" y="182">y n</tspan><tspan class="cls-14" x="18.71" y="182">i</tspan><tspan class="cls-16" x="21.4" y="182">b</tspan><tspan x="25.69" y="182">h euismod t</tspan><tspan class="cls-15" x="68.54" y="182">i</tspan><tspan x="71.33" y="182">nc</tspan><tspan class="cls-16" x="79.73" y="182">i</tspan><tspan x="82.47" y="182">d</tspan><tspan class="cls-12" x="87.63" y="182">u</tspan><tspan x="92.57" y="182">nt </tspan><tspan x="-66.42" y="196">ut laoreet d</tspan><tspan class="cls-16" x="-24.15" y="196">o</tspan><tspan x="-20.55" y="196">lore magna </tspan><tspan class="cls-17" x="24.44" y="196">a</tspan><tspan x="29.15" y="196">l</tspan><tspan class="cls-16" x="32.01" y="196">i</tspan><tspan x="34.75" y="196">qu</tspan><tspan class="cls-16" x="44.57" y="196">a</tspan><tspan x="49.28" y="196">m e</tspan><tspan class="cls-13" x="62.58" y="196">r</tspan><tspan x="65.97" y="196">at </tspan><tspan x="-47.83" y="210">v</tspan><tspan class="cls-16" x="-43.73" y="210">o</tspan><tspan x="-40.13" y="210">lutpat. Ut wisi en</tspan><tspan class="cls-15" x="24.58" y="210">i</tspan><tspan x="27.37" y="210">m ad </tspan><tspan x="-13.38" y="224">m</tspan><tspan class="cls-12" x="-5.49" y="224">i</tspan><tspan x="-2.7" y="224">n</tspan><tspan class="cls-12" x="2.57" y="224">i</tspan><tspan x="5.36" y="224">m </tspan></text></g></svg>