<svg xmlns="http://www.w3.org/2000/svg" xmlns:xlink="http://www.w3.org/1999/xlink" viewBox="0 0 1190.55 1190.55"><defs><style>.cls-1,.cls-3{fill:none;}.cls-2{fill:#36a9e1;}.cls-3{stroke:#be1622;stroke-miterlimit:10;}.cls-4{clip-path:url(#clip-path);}</style><clipPath id="clip-path"><rect class="cls-1" x="950" y="283" width="182" height="183"/></clipPath></defs><title>Tavola disegno 1</title><g id="Livello_1" data-name="Livello 1"><rect class="cls-2" width="1190.55" height="1190.55"/></g><g id="Livello_3" data-name="Livello 3"><rect class="cls-3" x="64.7" y="60.95" width="184.25" height="184.25"/><rect class="cls-3" x="285.81" y="60.95" width="184.25" height="184.25"/><rect class="cls-3" x="506.91" y="60.95" width="184.25" height="184.25"/><rect class="cls-3" x="728.01" y="60.95" width="184.25" height="184.25"/><rect class="cls-3" x="949.11" y="60.95" width="184.25" height="184.25"/><rect class="cls-3" x="64.7" y="282.05" width="184.25" height="184.25"/><rect class="cls-3" x="285.8" y="282.05" width="184.25" height="184.25"/><rect class="cls-3" x="506.91" y="282.05" width="184.25" height="184.25"/><rect class="cls-3" x="728.01" y="282.05" width="184.25" height="184.25"/><rect class="cls-3" x="949.11" y="282.05" width="184.25" height="184.25"/><rect class="cls-3" x="64.7" y="724.25" width="184.25" height="184.25"/><rect class="cls-3" x="285.8" y="724.25" width="184.25" height="184.25"/><rect class="cls-3" x="506.91" y="724.25" width="184.25" height="184.25"/><rect class="cls-3" x="728.01" y="724.25" width="184.25" height="184.25"/><rect class="cls-3" x="949.11" y="724.25" width="184.25" height="184.25"/><rect class="cls-3" x="64.7" y="503.15" width="184.25" height="184.25"/><rect class="cls-3" x="285.8" y="503.15" width="184.25" height="184.25"/><rect class="cls-3" x="506.91" y="503.15" width="184.25" height="184.25"/><rect class="cls-3" x="728.01" y="503.15" width="184.25" height="184.25"/><rect class="cls-3" x="949.11" y="503.15" width="184.25" height="184.25"/><rect class="cls-3" x="64.7" y="945.35" width="184.25" height="184.25"/><rect class="cls-3" x="285.8" y="945.35" width="184.25" height="184.25"/><rect class="cls-3" x="506.91" y="945.35" width="184.25" height="184.25"/><rect class="cls-3" x="728.01" y="945.35" width="184.25" height="184.25"/><rect class="cls-3" x="949.11" y="945.35" width="184.25" height="184.25"/></g><g id="Livello_5" data-name="Livello 5"><g class="cls-4"><image width="4032" height="3024" transform="translate(734 208.55) scale(0.1 0.1)" xlink:href="../../../Pictures/snapseed/20170308_161135-01.jpeg"/></g></g></svg>