<svg xmlns="http://www.w3.org/2000/svg" xmlns:xlink="http://www.w3.org/1999/xlink" viewBox="0 0 1190.55 1190.55"><defs><style>.cls-1,.cls-3,.cls-4,.cls-5,.cls-6{fill:none;}.cls-2{fill:#36a9e1;}.cls-3{stroke:#312783;}.cls-3,.cls-4,.cls-5,.cls-6{stroke-miterlimit:10;}.cls-4{stroke:#be1622;}.cls-5,.cls-6{stroke:#063;}.cls-6{stroke-width:1px;}.cls-7{clip-path:url(#clip-path);}.cls-8{clip-path:url(#clip-path-2);}.cls-9{font-size:60px;font-family:OpenSansCondensed-Bold, Open Sans Condensed;font-weight:700;}.cls-10,.cls-11,.cls-9{fill:#1d1d1b;}.cls-10{font-size:16px;font-family:OpenSans-Light, Open Sans;}.cls-11{font-size:10px;font-family:EBGaramond-Italic, EB Garamond;font-style:italic;}.cls-12{letter-spacing:-0.01em;}.cls-13{letter-spacing:-0.04em;}.cls-14{letter-spacing:-0.03em;}.cls-15{letter-spacing:-0.02em;}.cls-16{letter-spacing:-0.02em;}</style><clipPath id="clip-path"><rect class="cls-1" x="950" y="283" width="182" height="183"/></clipPath><clipPath id="clip-path-2"><circle class="cls-1" cx="379.19" cy="822.61" r="120.5"/></clipPath></defs><title>Tavola disegno 1</title><g id="Livello_1" data-name="Livello 1"><rect class="cls-2" width="1190.55" height="1190.55"/></g><g id="Livello_2" data-name="Livello 2"><rect class="cls-3" x="64.7" y="337.55" width="239.53" height="239.53"/><rect class="cls-3" x="64.7" y="613.92" width="239.53" height="239.53"/><rect class="cls-3" x="64.7" y="890.08" width="239.53" height="239.53"/><rect class="cls-3" x="64.7" y="61.17" width="239.53" height="239.53"/><rect class="cls-3" x="341.08" y="337.55" width="239.53" height="239.53"/><rect class="cls-3" x="341.08" y="613.92" width="239.53" height="239.53"/><rect class="cls-3" x="341.08" y="890.08" width="239.53" height="239.53"/><rect class="cls-3" x="341.08" y="61.17" width="239.53" height="239.53"/><rect class="cls-3" x="617.46" y="337.55" width="239.53" height="239.53"/><rect class="cls-3" x="617.46" y="613.92" width="239.53" height="239.53"/><rect class="cls-3" x="617.46" y="890.08" width="239.53" height="239.53"/><rect class="cls-3" x="617.46" y="61.17" width="239.53" height="239.53"/><rect class="cls-3" x="893.84" y="337.55" width="239.53" height="239.53"/><rect class="cls-3" x="893.84" y="613.92" width="239.53" height="239.53"/><rect class="cls-3" x="893.84" y="890.08" width="239.53" height="239.53"/><rect class="cls-3" x="893.84" y="61.17" width="239.53" height="239.53"/></g><g id="Livello_3" data-name="Livello 3"><rect class="cls-4" x="64.7" y="60.95" width="184.25" height="184.25"/><rect class="cls-4" x="285.81" y="60.95" width="184.25" height="184.25"/><rect class="cls-4" x="506.91" y="60.95" width="184.25" height="184.25"/><rect class="cls-4" x="728.01" y="60.95" width="184.25" height="184.25"/><rect class="cls-4" x="949.11" y="60.95" width="184.25" height="184.25"/><rect class="cls-4" x="64.7" y="282.05" width="184.25" height="184.25"/><rect class="cls-4" x="285.8" y="282.05" width="184.25" height="184.25"/><rect class="cls-4" x="506.91" y="282.05" width="184.25" height="184.25"/><rect class="cls-4" x="728.01" y="282.05" width="184.25" height="184.25"/><rect class="cls-4" x="949.11" y="282.05" width="184.25" height="184.25"/><rect class="cls-4" x="64.7" y="724.25" width="184.25" height="184.25"/><rect class="cls-4" x="285.8" y="724.25" width="184.25" height="184.25"/><rect class="cls-4" x="506.91" y="724.25" width="184.25" height="184.25"/><rect class="cls-4" x="728.01" y="724.25" width="184.25" height="184.25"/><rect class="cls-4" x="949.11" y="724.25" width="184.25" height="184.25"/><rect class="cls-4" x="64.7" y="503.15" width="184.25" height="184.25"/><rect class="cls-4" x="285.8" y="503.15" width="184.25" height="184.25"/><rect class="cls-4" x="506.91" y="503.15" width="184.25" height="184.25"/><rect class="cls-4" x="728.01" y="503.15" width="184.25" height="184.25"/><rect class="cls-4" x="949.11" y="503.15" width="184.25" height="184.25"/><rect class="cls-4" x="64.7" y="945.35" width="184.25" height="184.25"/><rect class="cls-4" x="285.8" y="945.35" width="184.25" height="184.25"/><rect class="cls-4" x="506.91" y="945.35" width="184.25" height="184.25"/><rect class="cls-4" x="728.01" y="945.35" width="184.25" height="184.25"/><rect class="cls-4" x="949.11" y="945.35" width="184.25" height="184.25"/></g><g id="Livello_4" data-name="Livello 4"><rect class="cls-5" x="64.7" y="60.94" width="147.4" height="147.4"/><rect class="cls-5" x="248.9" y="60.94" width="147.4" height="147.4"/><rect class="cls-5" x="433.1" y="60.94" width="147.4" height="147.4"/><rect class="cls-5" x="617.46" y="60.94" width="147.4" height="147.4"/><rect class="cls-5" x="801.71" y="60.94" width="147.4" height="147.4"/><rect class="cls-5" x="985.96" y="60.94" width="147.4" height="147.4"/><rect class="cls-5" x="64.7" y="245.2" width="147.4" height="147.4"/><rect class="cls-5" x="248.9" y="245.2" width="147.4" height="147.4"/><rect class="cls-5" x="433.1" y="245.2" width="147.4" height="147.4"/><rect class="cls-5" x="617.46" y="245.2" width="147.4" height="147.4"/><rect class="cls-5" x="801.71" y="245.2" width="147.4" height="147.4"/><rect class="cls-5" x="985.96" y="245.2" width="147.4" height="147.4"/><rect class="cls-5" x="64.7" y="429.45" width="147.4" height="147.4"/><rect class="cls-5" x="248.9" y="429.45" width="147.4" height="147.4"/><rect class="cls-5" x="433.1" y="429.45" width="147.4" height="147.4"/><rect class="cls-5" x="617.46" y="429.45" width="147.4" height="147.4"/><rect class="cls-5" x="801.71" y="429.45" width="147.4" height="147.4"/><rect class="cls-5" x="985.96" y="429.45" width="147.4" height="147.4"/><rect class="cls-5" x="64.7" y="613.7" width="147.4" height="147.4"/><rect class="cls-5" x="248.9" y="613.7" width="147.4" height="147.4"/><rect class="cls-5" x="433.1" y="613.7" width="147.4" height="147.4"/><rect class="cls-5" x="617.46" y="613.7" width="147.4" height="147.4"/><rect class="cls-5" x="801.71" y="613.7" width="147.4" height="147.4"/><rect class="cls-5" x="985.96" y="613.7" width="147.4" height="147.4"/><rect class="cls-6" x="64.7" y="797.95" width="147.4" height="147.4"/><rect class="cls-5" x="248.96" y="797.95" width="147.4" height="147.4"/><rect class="cls-5" x="433.1" y="797.95" width="147.4" height="147.4"/><rect class="cls-5" x="617.46" y="797.95" width="147.4" height="147.4"/><rect class="cls-5" x="801.71" y="797.95" width="147.4" height="147.4"/><rect class="cls-5" x="985.96" y="797.95" width="147.4" height="147.4"/><rect class="cls-5" x="64.7" y="982.2" width="147.4" height="147.4"/><rect class="cls-5" x="248.96" y="982.2" width="147.4" height="147.4"/><rect class="cls-5" x="433.1" y="982.2" width="147.4" height="147.4"/><rect class="cls-5" x="617.46" y="982.2" width="147.4" height="147.4"/><rect class="cls-5" x="801.71" y="982.2" width="147.4" height="147.4"/><rect class="cls-5" x="985.96" y="982.21" width="147.4" height="147.4"/></g><g id="Livello_5" data-name="Livello 5"><g class="cls-7"><image width="4032" height="3024" transform="translate(734 208.55) scale(0.1 0.1)" xlink:href="../../../Pictures/snapseed/20170308_161135-01.jpeg"/></g><g class="cls-8"><image width="4032" height="2142" transform="translate(174.61 685.13) scale(0.12 0.12)" xlink:href="../../../Pictures/snapseed/20171228_115058-01.jpeg"/></g><text class="cls-9" transform="translate(68 109.6)">esercizi grafica</text><text class="cls-10" transform="translate(64.19 221.29)">Lorem ipsum dolor sit amet, consectetuer adi<tspan x="326.35" y="0">-</tspan><tspan x="0" y="24">piscing elit, sed diam nonummy nibh euismod </tspan><tspan x="0" y="48">tincidunt ut laoreet dolore magna aliquam erat </tspan><tspan x="0" y="72">volutpat. Ut wisi enim ad minim veniam, quis </tspan><tspan x="0" y="96">nostrud exerci tation ullamcorper suscipit </tspan><tspan x="0" y="120">lobortis nisl ut aliquip ex ea commodo conse</tspan><tspan x="320.53" y="120">-</tspan><tspan x="0" y="144">quat. Duis autem vel eum iriure dolor in hen</tspan><tspan x="316.66" y="144">-</tspan><tspan x="0" y="168">drerit in vulputate velit esse molestie conse</tspan><tspan x="310.01" y="168">-</tspan><tspan x="0" y="192">quat, vel illum dolore eu feugiat nulla facilisis at </tspan></text><text class="cls-11" transform="translate(507 899.05)"><tspan class="cls-12">a</tspan><tspan x="4.76" y="0">utost</tspan><tspan class="cls-13" x="22.25" y="0">r</tspan><tspan x="25.64" y="0">ada d</tspan><tspan class="cls-14" x="47.78" y="0">e</tspan><tspan class="cls-12" x="50.94" y="0">l</tspan><tspan x="53.65" y="0">la cisa </tspan><tspan class="cls-15" x="79.16" y="0">i</tspan><tspan class="cls-16" x="81.95" y="0">n</tspan><tspan x="87.02" y="0">nevata. </tspan></text></g></svg>