<svg xmlns="http://www.w3.org/2000/svg" xmlns:xlink="http://www.w3.org/1999/xlink" viewBox="0 0 1190.55 1190.55"><defs><style>.cls-1,.cls-3,.cls-4,.cls-5,.cls-6{fill:none;}.cls-2{fill:#7bc5b3;}.cls-3{stroke:#312783;}.cls-3,.cls-4,.cls-5,.cls-6{stroke-miterlimit:10;}.cls-4{stroke:#be1622;}.cls-5,.cls-6{stroke:#063;}.cls-6{stroke-width:1px;}.cls-7{clip-path:url(#clip-path);}.cls-8{clip-path:url(#clip-path-2);}.cls-9{font-size:10px;font-family:EBGaramond-Italic, EB Garamond;font-style:italic;}.cls-21,.cls-23,.cls-9{fill:#1d1d1b;}.cls-10{letter-spacing:-0.02em;}.cls-11{letter-spacing:-0.01em;}.cls-12{letter-spacing:-0.03em;}.cls-13{letter-spacing:-0.07em;}.cls-14{letter-spacing:-0.04em;}.cls-15{letter-spacing:-0.02em;}.cls-16{letter-spacing:-0.02em;}.cls-17{letter-spacing:-0.04em;}.cls-18{letter-spacing:-0.02em;}.cls-19{letter-spacing:0em;}.cls-20{letter-spacing:-0.05em;}.cls-21{font-size:60px;font-family:OpenSansCondensed-Bold, Open Sans Condensed;font-weight:700;}.cls-22{letter-spacing:-0.01em;}.cls-23{font-size:16px;font-family:OpenSans-Light, Open Sans;}</style><clipPath id="clip-path"><rect class="cls-1" x="893.84" y="61.17" width="239.53" height="239.53"/></clipPath><clipPath id="clip-path-2"><ellipse class="cls-1" cx="230.37" cy="595.27" rx="165.66" ry="165.55"/></clipPath></defs><title>Tavola disegno 1</title><g id="Livello_1" data-name="Livello 1"><rect class="cls-2" width="1190.55" height="1190.55"/></g><g id="Livello_2" data-name="Livello 2"><rect class="cls-3" x="64.7" y="337.55" width="239.53" height="239.53"/><rect class="cls-3" x="64.7" y="613.92" width="239.53" height="239.53"/><rect class="cls-3" x="64.7" y="890.08" width="239.53" height="239.53"/><rect class="cls-3" x="64.7" y="61.17" width="239.53" height="239.53"/><rect class="cls-3" x="341.08" y="337.55" width="239.53" height="239.53"/><rect class="cls-3" x="341.08" y="613.92" width="239.53" height="239.53"/><rect class="cls-3" x="341.08" y="890.08" width="239.53" height="239.53"/><rect class="cls-3" x="341.08" y="61.17" width="239.53" height="239.53"/><rect class="cls-3" x="617.46" y="337.55" width="239.53" height="239.53"/><rect class="cls-3" x="617.46" y="613.92" width="239.53" height="239.53"/><rect class="cls-3" x="617.46" y="890.08" width="239.53" height="239.53"/><rect class="cls-3" x="617.46" y="61.17" width="239.53" height="239.53"/><rect class="cls-3" x="893.84" y="337.55" width="239.53" height="239.53"/><rect class="cls-3" x="893.84" y="613.92" width="239.53" height="239.53"/><rect class="cls-3" x="893.84" y="890.08" width="239.53" height="239.53"/><rect class="cls-3" x="893.84" y="61.17" width="239.53" height="239.53"/></g><g id="Livello_3" data-name="Livello 3"><rect class="cls-4" x="64.7" y="60.95" width="184.25" height="184.25"/><rect class="cls-4" x="285.81" y="60.95" width="184.25" height="184.25"/><rect class="cls-4" x="506.91" y="60.95" width="184.25" height="184.25"/><rect class="cls-4" x="728.01" y="60.95" width="184.25" height="184.25"/><rect class="cls-4" x="949.11" y="60.95" width="184.25" height="184.25"/><rect class="cls-4" x="64.7" y="282.05" width="184.25" height="184.25"/><rect class="cls-4" x="285.8" y="282.05" width="184.25" height="184.25"/><rect class="cls-4" x="506.91" y="282.05" width="184.25" height="184.25"/><rect class="cls-4" x="728.01" y="282.05" width="184.25" height="184.25"/><rect class="cls-4" x="949.11" y="282.05" width="184.25" height="184.25"/><rect class="cls-4" x="64.7" y="724.25" width="184.25" height="184.25"/><rect class="cls-4" x="285.8" y="724.25" width="184.25" height="184.25"/><rect class="cls-4" x="506.91" y="724.25" width="184.25" height="184.25"/><rect class="cls-4" x="728.01" y="724.25" width="184.25" height="184.25"/><rect class="cls-4" x="949.11" y="724.25" width="184.25" height="184.25"/><rect class="cls-4" x="64.7" y="503.15" width="184.25" height="184.25"/><rect class="cls-4" x="285.8" y="503.15" width="184.25" height="184.25"/><rect class="cls-4" x="506.91" y="503.15" width="184.25" height="184.25"/><rect class="cls-4" x="728.01" y="503.15" width="184.25" height="184.25"/><rect class="cls-4" x="949.11" y="503.15" width="184.25" height="184.25"/><rect class="cls-4" x="64.7" y="945.35" width="184.25" height="184.25"/><rect class="cls-4" x="285.8" y="945.35" width="184.25" height="184.25"/><rect class="cls-4" x="506.91" y="945.35" width="184.25" height="184.25"/><rect class="cls-4" x="728.01" y="945.35" width="184.25" height="184.25"/><rect class="cls-4" x="949.11" y="945.35" width="184.25" height="184.25"/></g><g id="Livello_4" data-name="Livello 4"><rect class="cls-5" x="64.7" y="60.94" width="147.4" height="147.4"/><rect class="cls-5" x="248.9" y="60.94" width="147.4" height="147.4"/><rect class="cls-5" x="433.1" y="60.94" width="147.4" height="147.4"/><rect class="cls-5" x="617.46" y="60.94" width="147.4" height="147.4"/><rect class="cls-5" x="801.71" y="60.94" width="147.4" height="147.4"/><rect class="cls-5" x="985.96" y="60.94" width="147.4" height="147.4"/><rect class="cls-5" x="64.7" y="245.2" width="147.4" height="147.4"/><rect class="cls-5" x="248.9" y="245.2" width="147.4" height="147.4"/><rect class="cls-5" x="433.1" y="245.2" width="147.4" height="147.4"/><rect class="cls-5" x="617.46" y="245.2" width="147.4" height="147.4"/><rect class="cls-5" x="801.71" y="245.2" width="147.4" height="147.4"/><rect class="cls-5" x="985.96" y="245.2" width="147.4" height="147.4"/><rect class="cls-5" x="64.7" y="429.45" width="147.4" height="147.4"/><rect class="cls-5" x="248.9" y="429.45" width="147.4" height="147.4"/><rect class="cls-5" x="433.1" y="429.45" width="147.4" height="147.4"/><rect class="cls-5" x="617.46" y="429.45" width="147.4" height="147.4"/><rect class="cls-5" x="801.71" y="429.45" width="147.4" height="147.4"/><rect class="cls-5" x="985.96" y="429.45" width="147.4" height="147.4"/><rect class="cls-5" x="64.7" y="613.7" width="147.4" height="147.4"/><rect class="cls-5" x="248.9" y="613.7" width="147.4" height="147.4"/><rect class="cls-5" x="433.1" y="613.7" width="147.4" height="147.4"/><rect class="cls-5" x="617.46" y="613.7" width="147.4" height="147.4"/><rect class="cls-5" x="801.71" y="613.7" width="147.4" height="147.4"/><rect class="cls-5" x="985.96" y="613.7" width="147.4" height="147.4"/><rect class="cls-6" x="64.7" y="797.95" width="147.4" height="147.4"/><rect class="cls-5" x="248.96" y="797.95" width="147.4" height="147.4"/><rect class="cls-5" x="433.1" y="797.95" width="147.4" height="147.4"/><rect class="cls-5" x="617.46" y="797.95" width="147.4" height="147.4"/><rect class="cls-5" x="801.71" y="797.95" width="147.4" height="147.4"/><rect class="cls-5" x="985.96" y="797.95" width="147.4" height="147.4"/><rect class="cls-5" x="64.7" y="982.2" width="147.4" height="147.4"/><rect class="cls-5" x="248.96" y="982.2" width="147.4" height="147.4"/><rect class="cls-5" x="433.1" y="982.2" width="147.4" height="147.4"/><rect class="cls-5" x="617.46" y="982.2" width="147.4" height="147.4"/><rect class="cls-5" x="801.71" y="982.2" width="147.4" height="147.4"/><rect class="cls-5" x="985.96" y="982.21" width="147.4" height="147.4"/></g><g id="Livello_5" data-name="Livello 5"><g class="cls-7"><image width="1600" height="1200" transform="translate(0 -4.73) scale(0.74 1)" xlink:href="872488_03.jpg"/></g></g><g id="Livello_8" data-name="Livello 8"><g class="cls-8"><image width="1024" height="1024" transform="translate(-69.16 375.17) scale(0.46 0.46)" xlink:href="872488_05.jpg"/></g></g><g id="Livello_6" data-name="Livello 6"><text class="cls-9" transform="translate(433.1 436.5)">Una notte la L<tspan class="cls-10" x="55.1" y="0">u</tspan><tspan x="60.04" y="0">na s</tspan><tspan class="cls-11" x="74.98" y="0">c</tspan><tspan x="77.96" y="0">ese s</tspan><tspan class="cls-12" x="92.3" y="0">u</tspan><tspan class="cls-10" x="97.14" y="0">l</tspan><tspan x="99.85" y="0">la </tspan><tspan class="cls-13" x="109.62" y="0">T</tspan><tspan x="115.14" y="0">er</tspan><tspan class="cls-14" x="122.34" y="0">r</tspan><tspan x="125.73" y="0">a per sv</tspan><tspan class="cls-12" x="153.09" y="0">e</tspan><tspan x="156.25" y="0">l</tspan><tspan class="cls-15" x="159.11" y="0">a</tspan><tspan x="163.82" y="0">re i s</tspan><tspan class="cls-16" x="180.72" y="0">u</tspan><tspan x="185.61" y="0">oi misteri, ma </tspan><tspan x="0" y="14">mentre si m</tspan><tspan class="cls-15" x="44.28" y="14">u</tspan><tspan x="49.17" y="14">oveva t</tspan><tspan class="cls-17" x="74.41" y="14">r</tspan><tspan x="77.8" y="14">a </tspan><tspan class="cls-12" x="84.71" y="14">g</tspan><tspan x="88.61" y="14">li </tspan><tspan class="cls-15" x="96.41" y="14">a</tspan><tspan class="cls-11" x="101.12" y="14">l</tspan><tspan x="103.83" y="14">beri, r</tspan><tspan class="cls-10" x="126.4" y="14">i</tspan><tspan x="129.19" y="14">mase </tspan><tspan class="cls-10" x="150.16" y="14">i</tspan><tspan x="152.95" y="14">mpi</tspan><tspan class="cls-12" x="168.17" y="14">g</tspan><tspan x="172.07" y="14">liata t</tspan><tspan class="cls-17" x="195.53" y="14">r</tspan><tspan x="198.92" y="14">a i </tspan><tspan class="cls-14" x="210.77" y="14">r</tspan><tspan class="cls-16" x="214.16" y="14">a</tspan><tspan x="218.87" y="14">mi. La </tspan><tspan x="0" y="28">storia n</tspan><tspan class="cls-15" x="28.39" y="28">a</tspan><tspan x="33.1" y="28">r</tspan><tspan class="cls-17" x="36.89" y="28">r</tspan><tspan x="40.28" y="28">a </tspan><tspan class="cls-15" x="47.19" y="28">c</tspan><tspan x="50.12" y="28">he fu </tspan><tspan class="cls-10" x="70.71" y="28">u</tspan><tspan x="75.65" y="28">n l</tspan><tspan class="cls-10" x="85.78" y="28">u</tspan><tspan x="90.72" y="28">po a l</tspan><tspan class="cls-12" x="110.68" y="28">i</tspan><tspan x="113.37" y="28">be</tspan><tspan class="cls-14" x="121.27" y="28">r</tspan><tspan class="cls-16" x="124.66" y="28">a</tspan><tspan x="129.37" y="28">rla e, d</tspan><tspan class="cls-10" x="155.65" y="28">u</tspan><tspan class="cls-17" x="160.59" y="28">r</tspan><tspan class="cls-15" x="163.98" y="28">a</tspan><tspan x="168.69" y="28">nte tutta la notte, la </tspan><tspan x="0" y="42">L</tspan><tspan class="cls-10" x="5.83" y="42">u</tspan><tspan x="10.77" y="42">na e </tspan><tspan class="cls-12" x="28.36" y="42">i</tspan><tspan x="31.05" y="42">l l</tspan><tspan class="cls-11" x="38.77" y="42">u</tspan><tspan x="43.71" y="42">po si </tspan><tspan class="cls-14" x="61.6" y="42">r</tspan><tspan x="64.99" y="42">a</tspan><tspan class="cls-11" x="69.9" y="42">cc</tspan><tspan x="75.86" y="42">ont</tspan><tspan class="cls-15" x="87.85" y="42">a</tspan><tspan x="92.56" y="42">rono stor</tspan><tspan class="cls-16" x="124.49" y="42">i</tspan><tspan x="127.23" y="42">e, s</tspan><tspan class="cls-15" x="137.55" y="42">c</tspan><tspan x="140.48" y="42">herz</tspan><tspan class="cls-15" x="156.63" y="42">a</tspan><tspan x="161.34" y="42">rono e si divert</tspan><tspan class="cls-11" x="215.42" y="42">i</tspan><tspan x="218.21" y="42">rono </tspan><tspan class="cls-10" x="0" y="56">i</tspan><tspan x="2.79" y="56">ns</tspan><tspan class="cls-16" x="10.82" y="56">i</tspan><tspan x="13.56" y="56">eme.</tspan><tspan x="0" y="70">La L</tspan><tspan class="cls-10" x="18.57" y="70">u</tspan><tspan x="23.51" y="70">na si </tspan><tspan class="cls-11" x="43.39" y="70">i</tspan><tspan class="cls-15" x="46.18" y="70">n</tspan><tspan x="51.25" y="70">n</tspan><tspan class="cls-15" x="56.52" y="70">a</tspan><tspan x="61.23" y="70">morò d</tspan><tspan class="cls-18" x="87.67" y="70">e</tspan><tspan class="cls-10" x="90.83" y="70">l</tspan><tspan x="93.54" y="70">lo sp</tspan><tspan class="cls-10" x="109.35" y="70">i</tspan><tspan x="112.14" y="70">rito d</tspan><tspan class="cls-12" x="132.75" y="70">e</tspan><tspan x="135.91" y="70">l l</tspan><tspan class="cls-11" x="143.63" y="70">u</tspan><tspan x="148.57" y="70">po e </tspan><tspan class="cls-10" x="164.17" y="70">i</tspan><tspan x="166.96" y="70">n preda a </tspan><tspan class="cls-11" x="204.8" y="70">u</tspan><tspan x="209.74" y="70">n atta</tspan><tspan class="cls-10" x="232.67" y="70">cc</tspan><tspan x="238.63" y="70">o di </tspan><tspan x="0" y="84">egoismo, pr</tspan><tspan class="cls-10" x="41.08" y="84">i</tspan><tspan x="43.87" y="84">ma di ritorn</tspan><tspan class="cls-16" x="91.28" y="84">a</tspan><tspan x="95.99" y="84">re </tspan><tspan class="cls-15" x="105.19" y="84">a</tspan><tspan x="109.9" y="84">l s</tspan><tspan class="cls-15" x="117.52" y="84">u</tspan><tspan x="122.41" y="84">o posto n</tspan><tspan class="cls-12" x="153.15" y="84">e</tspan><tspan class="cls-11" x="156.31" y="84">l</tspan><tspan x="159.02" y="84">la </tspan><tspan class="cls-15" x="168.79" y="84">ga</tspan><tspan x="177.45" y="84">lassia, r</tspan><tspan class="cls-12" x="206.53" y="84">u</tspan><tspan x="211.37" y="84">bò l&apos;o</tspan><tspan class="cls-15" x="230.32" y="84">m</tspan><tspan x="238.01" y="84">b</tspan><tspan class="cls-14" x="242.5" y="84">r</tspan><tspan x="245.89" y="84">a </tspan><tspan x="0" y="98">d</tspan><tspan class="cls-12" x="5.16" y="98">e</tspan><tspan class="cls-10" x="8.32" y="98">l</tspan><tspan x="11.03" y="98">l&apos;</tspan><tspan class="cls-16" x="15.89" y="98">a</tspan><tspan x="20.6" y="98">n</tspan><tspan class="cls-10" x="25.87" y="98">i</tspan><tspan x="28.66" y="98">m</tspan><tspan class="cls-15" x="36.55" y="98">a</tspan><tspan class="cls-19" x="41.26" y="98">le </tspan><tspan class="cls-10" x="49.53" y="98">i</tspan><tspan x="52.32" y="98">n modo da non d</tspan><tspan class="cls-10" x="115.81" y="98">i</tspan><tspan x="118.6" y="98">ment</tspan><tspan class="cls-16" x="138.09" y="98">i</tspan><tspan x="140.83" y="98">c</tspan><tspan class="cls-15" x="143.96" y="98">a</tspan><tspan x="148.67" y="98">re m</tspan><tspan class="cls-15" x="165.76" y="98">a</tspan><tspan x="170.47" y="98">i q</tspan><tspan class="cls-16" x="180.14" y="98">u</tspan><tspan class="cls-12" x="185.03" y="98">e</tspan><tspan class="cls-10" x="188.19" y="98">l</tspan><tspan x="190.9" y="98">la </tspan><tspan class="cls-20" x="200.67" y="98">f</tspan><tspan class="cls-16" x="203.43" y="98">a</tspan><tspan x="208.14" y="98">ntast</tspan><tspan class="cls-15" x="226.92" y="98">i</tspan><tspan x="229.66" y="98">ca </tspan><tspan x="0" y="112">notte. Pert</tspan><tspan class="cls-15" x="38.25" y="112">a</tspan><tspan x="42.96" y="112">nto, da </tspan><tspan class="cls-16" x="71.17" y="112">a</tspan><tspan class="cls-10" x="75.88" y="112">l</tspan><tspan x="78.59" y="112">lo</tspan><tspan class="cls-14" x="85.25" y="112">r</tspan><tspan x="88.64" y="112">a, </tspan><tspan class="cls-18" x="97.7" y="112">i</tspan><tspan x="100.39" y="112">l l</tspan><tspan class="cls-10" x="108.11" y="112">u</tspan><tspan x="113.05" y="112">po </tspan><tspan class="cls-12" x="123.24" y="112">u</tspan><tspan x="128.08" y="112">l</tspan><tspan class="cls-12" x="130.94" y="112">u</tspan><tspan x="135.78" y="112">la </tspan><tspan class="cls-15" x="145.55" y="112">a</tspan><tspan class="cls-11" x="150.26" y="112">l</tspan><tspan x="152.97" y="112">la L</tspan><tspan class="cls-10" x="168.57" y="112">u</tspan><tspan x="173.51" y="112">na per</tspan><tspan class="cls-16" x="197.28" y="112">c</tspan><tspan x="200.21" y="112">hé rivend</tspan><tspan class="cls-15" x="235.17" y="112">i</tspan><tspan x="237.91" y="112">ca la </tspan><tspan x="0" y="126">sua o</tspan><tspan class="cls-15" x="18.56" y="126">m</tspan><tspan x="26.25" y="126">b</tspan><tspan class="cls-17" x="30.74" y="126">r</tspan><tspan x="34.13" y="126">a.</tspan></text><text class="cls-21" transform="translate(64.7 106.54)">ESERIZI GRAFICA VET<tspan class="cls-22" x="475.9" y="0">T</tspan><tspan x="501.04" y="0">ORIALE</tspan></text><text class="cls-23" transform="translate(64.7 220.51)">Lorem ipsum dolor sit amet, consectetuer adipiscing elit, sed diam nonummy nibh euismod tincidunt ut laore<tspan x="781.96" y="0">-</tspan><tspan x="0" y="24">et dolore magna aliquam erat volutpat. Ut wisi enim ad minim veniam, quis nostrud exerci tation ullamcorper </tspan><tspan x="0" y="48">suscipit lobortis nisl ut aliquip ex ea commodo consequat. Duis autem vel eum iriure dolor in hendrerit in vul</tspan><tspan x="776.91" y="48">-</tspan><tspan x="0" y="72">putate velit esse molestie consequat, vel illum dolore eu feugiat nulla facilisis at vero eros et accumsan et iusto </tspan><tspan x="0" y="96">odio dignissim qui blandit praesent luptatum zzril delenit augue duis dolore te feugait nulla facilisi.</tspan></text></g><g id="Livello_11" data-name="Livello 11"><text class="cls-23" transform="translate(1009.78 349.71)">Il <tspan x="-68.55" y="24">colore è la percezio</tspan><tspan x="71.05" y="24">-</tspan><tspan x="-84.91" y="48">ne che avvertono i nostri </tspan><tspan x="-105.84" y="72">occhi della luce riflessa dall&apos;o</tspan><tspan x="108.34" y="72">-</tspan><tspan x="-101.77" y="96">getto che stiamo osservando. </tspan><tspan x="-111.5" y="120">Esistono due grandi categorie di </tspan><tspan x="-104.18" y="144">colori: i colori primari e i colori </tspan><tspan x="-94.01" y="168">secondari. I primi sono, per </tspan><tspan x="-77.21" y="192">gli scienziati, il Rosso, il </tspan><tspan x="-45.14" y="216">Verde e il Blu.</tspan></text></g></svg>