<?xml version="1.0" encoding="utf-8"?>
<!-- Generator: Adobe Illustrator 22.0.1, SVG Export Plug-In . SVG Version: 6.00 Build 0)  -->
<svg version="1.1" id="Livello_1" xmlns="http://www.w3.org/2000/svg" xmlns:xlink="http://www.w3.org/1999/xlink" x="0px" y="0px"
	 viewBox="0 0 1190.6 1190.6" style="enable-background:new 0 0 1190.6 1190.6;" xml:space="preserve">
<style type="text/css">
	.st0{fill:#C4005C;stroke:#000000;stroke-miterlimit:10;}
	.st1{fill:none;stroke:#F7EA3A;stroke-miterlimit:10;}
	.st2{fill:none;stroke:#D9D9D9;stroke-width:0.7714;stroke-miterlimit:10;}
	.st3{fill:none;stroke:#68A8DE;stroke-width:0.5599;stroke-miterlimit:10;}
</style>
<g id="Livello_1_1_">
	<rect y="0" class="st0" width="1190.6" height="1190.6"/>
</g>
<g id="Livello_2_1_">
	<rect x="60" y="59.8" class="st1" width="239.5" height="239.5"/>
	<rect x="338.3" y="59.8" class="st1" width="239.5" height="239.5"/>
	<rect x="615.7" y="59.8" class="st1" width="239.5" height="239.5"/>
	<rect x="891.7" y="59.8" class="st1" width="239.5" height="239.5"/>
	<rect x="60" y="337.8" class="st1" width="239.5" height="239.5"/>
	<rect x="338.8" y="337.8" class="st1" width="239.5" height="239.5"/>
	<rect x="615.7" y="337.8" class="st1" width="239.5" height="239.5"/>
	<rect x="891.7" y="335.8" class="st1" width="239.5" height="241.5"/>
	<rect x="60" y="613.8" class="st1" width="239.5" height="239.5"/>
	<rect x="339.3" y="613.8" class="st1" width="239.5" height="239.5"/>
	<rect x="613.7" y="615.8" class="st1" width="239.5" height="239.5"/>
	<rect x="891.7" y="615.8" class="st1" width="239.5" height="237.5"/>
	<rect x="891.7" y="895.8" class="st1" width="239.5" height="239.5"/>
	<rect x="613.7" y="894.8" class="st1" width="239.5" height="239.5"/>
	<rect x="338.8" y="895.8" class="st1" width="239.5" height="239.5"/>
	<rect x="60" y="895.8" class="st1" width="239.5" height="239.5"/>
</g>
<g id="Livello_3">
	<rect x="60.9" y="60.2" class="st2" width="184.4" height="185.1"/>
	<rect x="282.2" y="60.2" class="st2" width="184.4" height="185.1"/>
	<rect x="503.6" y="60.2" class="st2" width="184.4" height="185.1"/>
	<rect x="724.9" y="60.2" class="st2" width="184.4" height="185.1"/>
	<rect x="946.8" y="60.2" class="st2" width="184.4" height="185.1"/>
	<rect x="60.9" y="282.3" class="st2" width="184.4" height="185.1"/>
	<rect x="282.2" y="282.3" class="st2" width="184.4" height="185.1"/>
	<rect x="503.6" y="282.3" class="st2" width="184.4" height="185.1"/>
	<rect x="724.9" y="282.3" class="st2" width="184.4" height="185.1"/>
	<rect x="946.8" y="282.3" class="st2" width="184.4" height="185.1"/>
	<rect x="60.9" y="504.4" class="st2" width="184.4" height="185.1"/>
	<rect x="282.2" y="504.4" class="st2" width="184.4" height="185.1"/>
	<rect x="503.6" y="504.4" class="st2" width="184.4" height="185.1"/>
	<rect x="724.9" y="504.4" class="st2" width="184.4" height="185.1"/>
	<rect x="946.8" y="504.4" class="st2" width="184.4" height="185.1"/>
	<rect x="60.9" y="950.2" class="st2" width="184.4" height="185.1"/>
	<rect x="282.2" y="950.2" class="st2" width="184.4" height="185.1"/>
	<rect x="503.6" y="949.2" class="st2" width="184.4" height="185.1"/>
	<rect x="724.9" y="949.2" class="st2" width="184.4" height="185.1"/>
	<rect x="946.8" y="950.2" class="st2" width="184.4" height="185.1"/>
	<rect x="60.9" y="727.1" class="st2" width="184.4" height="185.1"/>
	<rect x="282.2" y="727.1" class="st2" width="184.4" height="185.1"/>
	<rect x="503.6" y="727.1" class="st2" width="184.4" height="185.1"/>
	<rect x="724.9" y="727.1" class="st2" width="184.4" height="185.1"/>
	<rect x="946.8" y="727.1" class="st2" width="184.4" height="185.1"/>
</g>
<g id="Livello_4">
	<rect x="60.9" y="59.8" class="st3" width="149.5" height="147.5"/>
	<rect x="245.1" y="59.8" class="st3" width="149.5" height="147.5"/>
	<rect x="428.2" y="59.8" class="st3" width="149.5" height="147.5"/>
	<rect x="615.4" y="59.8" class="st3" width="149.5" height="147.5"/>
	<rect x="797.5" y="59.8" class="st3" width="149.5" height="147.5"/>
	<rect x="981.7" y="59.8" class="st3" width="149.5" height="147.5"/>
	<rect x="60.9" y="244.9" class="st3" width="149.5" height="147.5"/>
	<rect x="245.1" y="244.9" class="st3" width="149.5" height="147.5"/>
	<rect x="429.2" y="244.9" class="st3" width="149.5" height="147.5"/>
	<rect x="615.4" y="245.9" class="st3" width="149.5" height="147.5"/>
	<rect x="797.5" y="244.9" class="st3" width="149.5" height="147.5"/>
	<rect x="981.7" y="244.9" class="st3" width="149.5" height="147.5"/>
	<rect x="60.9" y="430" class="st3" width="149.5" height="147.5"/>
	<rect x="245.1" y="430" class="st3" width="149.5" height="147.5"/>
	<rect x="429.2" y="430" class="st3" width="149.5" height="147.5"/>
	<rect x="615.4" y="430" class="st3" width="149.5" height="147.5"/>
	<rect x="797.5" y="430" class="st3" width="149.5" height="147.5"/>
	<rect x="981.7" y="430" class="st3" width="149.5" height="147.5"/>
	<rect x="60.9" y="613.9" class="st3" width="149.5" height="147.5"/>
	<rect x="245.1" y="613.9" class="st3" width="149.5" height="147.5"/>
	<rect x="429.2" y="613.9" class="st3" width="149.5" height="147.5"/>
	<rect x="613.4" y="615.9" class="st3" width="149.5" height="147.5"/>
	<rect x="797.5" y="615.9" class="st3" width="149.5" height="147.5"/>
	<rect x="981.7" y="615.9" class="st3" width="149.5" height="147.5"/>
	<rect x="60.9" y="801.8" class="st3" width="149.5" height="147.5"/>
	<rect x="245.1" y="802.8" class="st3" width="149.5" height="147.5"/>
	<rect x="429.2" y="802.8" class="st3" width="149.5" height="147.5"/>
	<rect x="613.4" y="801.8" class="st3" width="149.5" height="147.5"/>
	<rect x="797.5" y="801.8" class="st3" width="149.5" height="147.5"/>
	<rect x="981.7" y="801.8" class="st3" width="149.5" height="147.5"/>
	<rect x="60.9" y="987.7" class="st3" width="149.5" height="147.5"/>
	<rect x="245.1" y="987.7" class="st3" width="149.5" height="147.5"/>
	<rect x="429.2" y="987.7" class="st3" width="149.5" height="147.5"/>
	<rect x="613.4" y="987.7" class="st3" width="149.5" height="147.5"/>
	<rect x="797.5" y="987.7" class="st3" width="149.5" height="147.5"/>
	<rect x="981.7" y="987.7" class="st3" width="149.5" height="147.5"/>
</g>
<g id="Livello_5">
	
		<image style="overflow:visible;enable-background:new    ;" width="1786" height="560" xlink:href="C4C63DF1.png"  transform="matrix(0.3 0 0 0.3 327.3756 494.2596)">
	</image>
</g>
</svg>
