<?xml version="1.0" encoding="utf-8"?>
<!-- Generator: Adobe Illustrator 22.0.1, SVG Export Plug-In . SVG Version: 6.00 Build 0)  -->
<svg version="1.1" id="one1" xmlns="http://www.w3.org/2000/svg" xmlns:xlink="http://www.w3.org/1999/xlink" x="0px" y="0px"
	 viewBox="0 0 1192 1192" style="enable-background:new 0 0 1192 1192;" xml:space="preserve">
<style type="text/css">
	.st0{fill:#FCB072;}
	.st1{fill:none;stroke:#8441EF;stroke-miterlimit:10;}
	.st2{fill:none;stroke:#356825;stroke-miterlimit:10;}
	.st3{fill:none;stroke:#F25B19;stroke-miterlimit:10;}
	.st4{clip-path:url(#SVGID_2_);enable-background:new    ;}
	.st5{clip-path:url(#SVGID_4_);}
	.st6{fill:none;}
	.st7{font-family:'OpenSansCondensed-Bold';}
	.st8{font-size:60px;}
	.st9{font-family:'OpenSansCondensed-LightItalic';}
	.st10{font-size:24px;}
	.st11{font-family:'EBGaramond-Italic';}
	.st12{font-size:10px;}
</style>
<title>f2Tavola disegno 1</title>
<rect y="0" class="st0" width="1192" height="1192"/>
<g id="dssdcd">
	<rect x="60.9" y="61.7" class="st1" width="239.5" height="239.5"/>
	<rect x="337.3" y="338" class="st1" width="239.5" height="239.5"/>
	<rect x="890.1" y="61.7" class="st1" width="239.5" height="239.5"/>
	<rect x="613.7" y="61.7" class="st1" width="239.5" height="239.5"/>
	<rect x="60.9" y="338" class="st1" width="239.5" height="239.5"/>
	<rect x="337.3" y="61.7" class="st1" width="239.5" height="239.5"/>
	<rect x="613.7" y="338" class="st1" width="239.5" height="239.5"/>
	<rect x="890.1" y="338" class="st1" width="239.5" height="239.5"/>
	<rect x="60.9" y="614.4" class="st1" width="239.5" height="239.5"/>
	<rect x="337.3" y="614.4" class="st1" width="239.5" height="239.5"/>
	<rect x="613.7" y="614.4" class="st1" width="239.5" height="239.5"/>
	<rect x="890.1" y="614.4" class="st1" width="239.5" height="239.5"/>
	<rect x="60.9" y="890.8" class="st1" width="239.5" height="239.5"/>
	<rect x="890.1" y="890.8" class="st1" width="239.5" height="239.5"/>
	<rect x="613.7" y="890.8" class="st1" width="239.5" height="239.5"/>
	<rect x="337.3" y="890.8" class="st1" width="239.5" height="239.5"/>
</g>
<g id="assdws">
	<rect x="60.9" y="61.7" class="st2" width="184.3" height="184.3"/>
	<rect x="282.1" y="61.7" class="st2" width="184.3" height="184.3"/>
	<rect x="503.2" y="61.7" class="st2" width="184.3" height="184.3"/>
	<rect x="503.2" y="503.9" class="st2" width="184.3" height="184.3"/>
	<rect x="724.3" y="503.9" class="st2" width="184.3" height="184.3"/>
	<rect x="282.1" y="503.9" class="st2" width="184.3" height="184.3"/>
	<rect x="60.9" y="503.9" class="st2" width="184.3" height="184.3"/>
	<rect x="945.4" y="282.8" class="st2" width="184.3" height="184.3"/>
	<rect x="724.3" y="282.8" class="st2" width="184.3" height="184.3"/>
	<rect x="503.2" y="282.8" class="st2" width="184.3" height="184.3"/>
	<rect x="282.1" y="282.8" class="st2" width="184.3" height="184.3"/>
	<rect x="60.9" y="282.8" class="st2" width="184.3" height="184.3"/>
	<rect x="945.4" y="61.7" class="st2" width="184.3" height="184.3"/>
	<rect x="724.3" y="61.7" class="st2" width="184.3" height="184.3"/>
	<rect x="945.4" y="503.9" class="st2" width="184.3" height="184.3"/>
	<rect x="503.2" y="725" class="st2" width="184.3" height="184.3"/>
	<rect x="282.1" y="946.1" class="st2" width="184.3" height="184.3"/>
	<rect x="724.3" y="946.1" class="st2" width="184.3" height="184.3"/>
	<rect x="503.2" y="946.1" class="st2" width="184.3" height="184.3"/>
	<rect x="724.3" y="725" class="st2" width="184.3" height="184.3"/>
	<rect x="282.1" y="725" class="st2" width="184.3" height="184.3"/>
	<rect x="60.9" y="946.1" class="st2" width="184.3" height="184.3"/>
	<rect x="60.9" y="725" class="st2" width="184.3" height="184.3"/>
	<rect x="945.4" y="725" class="st2" width="184.3" height="184.3"/>
	<rect x="945.4" y="946.1" class="st2" width="184.3" height="184.3"/>
</g>
<g id="a">
	<rect x="60.9" y="60.9" class="st3" width="147.4" height="147.4"/>
	<rect x="245.2" y="60.9" class="st3" width="147.4" height="147.4"/>
	<rect x="60.9" y="245.2" class="st3" width="147.4" height="147.4"/>
	<rect x="60.9" y="429.5" class="st3" width="147.4" height="147.4"/>
	<rect x="60.9" y="613.7" class="st3" width="147.4" height="147.4"/>
	<rect x="60.9" y="798" class="st3" width="147.4" height="147.4"/>
	<rect x="60.9" y="982.2" class="st3" width="147.4" height="147.4"/>
	<rect x="429.5" y="60.9" class="st3" width="147.4" height="147.4"/>
	<rect x="613.7" y="60.9" class="st3" width="147.4" height="147.4"/>
	<rect x="982.2" y="60.9" class="st3" width="147.4" height="147.4"/>
	<rect x="245.2" y="245.2" class="st3" width="147.4" height="147.4"/>
	<rect x="245.2" y="429.5" class="st3" width="147.4" height="147.4"/>
	<rect x="429.5" y="245.2" class="st3" width="147.4" height="147.4"/>
	<rect x="613.7" y="245.2" class="st3" width="147.4" height="147.4"/>
	<rect x="798" y="245.2" class="st3" width="147.4" height="147.4"/>
	<rect x="982.2" y="245.2" class="st3" width="147.4" height="147.4"/>
	<rect x="429.5" y="429.5" class="st3" width="147.4" height="147.4"/>
	<rect x="613.7" y="429.5" class="st3" width="147.4" height="147.4"/>
	<rect x="798" y="429.5" class="st3" width="147.4" height="147.4"/>
	<rect x="982.2" y="429.5" class="st3" width="147.4" height="147.4"/>
	<rect x="245.2" y="613.7" class="st3" width="147.4" height="147.4"/>
	<rect x="245.2" y="798" class="st3" width="147.4" height="147.4"/>
	<rect x="245.2" y="982.2" class="st3" width="147.4" height="147.4"/>
	<rect x="429.5" y="613.7" class="st3" width="147.4" height="147.4"/>
	<rect x="429.5" y="798" class="st3" width="147.4" height="147.4"/>
	<rect x="429.5" y="982.2" class="st3" width="147.4" height="147.4"/>
	<rect x="613.7" y="613.7" class="st3" width="147.4" height="147.4"/>
	<rect x="613.7" y="798" class="st3" width="147.4" height="147.4"/>
	<rect x="798" y="613.7" class="st3" width="147.4" height="147.4"/>
	<rect x="982.2" y="613.7" class="st3" width="147.4" height="147.4"/>
	<rect x="798" y="798" class="st3" width="147.4" height="147.4"/>
	<rect x="982.2" y="798" class="st3" width="147.4" height="147.4"/>
	<rect x="613.7" y="982.2" class="st3" width="147.4" height="147.4"/>
	<rect x="798" y="982.2" class="st3" width="147.4" height="147.4"/>
	<rect x="982.2" y="982.2" class="st3" width="147.4" height="147.4"/>
</g>
<g>
	<g>
		<defs>
			<rect id="SVGID_1_" x="429.5" y="798" width="147.4" height="147.4"/>
		</defs>
		<clipPath id="SVGID_2_">
			<use xlink:href="#SVGID_1_"  style="overflow:visible;"/>
		</clipPath>
		<g class="st4">
			
				<image style="overflow:visible;enable-background:new    ;" width="3888" height="2592" xlink:href="../../../../../../../Documents/cazzeggio/fotoritocco/IMG_2916.jpg"  transform="matrix(0.27 0 0 0.27 79.8399 430.495)">
			</image>
		</g>
	</g>
</g>
<g>
	<g>
		<defs>
			<ellipse id="SVGID_3_" cx="556.1" cy="308.2" rx="141" ry="136.5"/>
		</defs>
		<clipPath id="SVGID_4_">
			<use xlink:href="#SVGID_3_"  style="overflow:visible;"/>
		</clipPath>
		<g transform="matrix(1 0 0 1 -3.051758e-05 0)" class="st5">
			
				<image style="overflow:visible;enable-background:new    ;" width="896" height="1024" xlink:href="../../../../../../../Documents/cazzeggio/disegno/Logo_della_Lamborghini.svg.png"  transform="matrix(0.5583 0 0 0.5583 352.9797 143.5899)">
			</image>
		</g>
	</g>
</g>
<rect x="60.9" y="60.9" class="st6" width="516" height="65.8"/>
<text transform="matrix(1 0 0 1 60.9001 106.4995)" class="st7 st8">Clipping mask</text>
<rect x="60.9" y="503.2" class="st6" width="552.8" height="93"/>
<text transform="matrix(1 0 0 1 60.8997 521.44)"><tspan x="0" y="0" class="st9 st10">Lorem ipsum dolor sit amet, consectetuer adipiscing elit, sed diam nonummy </tspan><tspan x="0" y="28.8" class="st9 st10">nibh euismod tincidunt ut laoreet dolore magna aliquam erat volutpat. Ut wisi </tspan><tspan x="0" y="57.6" class="st9 st10">enim ad minim veniam, quis nostrud exerci tation ullamcor</tspan></text>
<rect x="433.1" y="963.6" class="st6" width="240" height="64.5"/>
<text transform="matrix(1 0 0 1 433.0986 970.6733)"><tspan x="0" y="0" class="st11 st12">Lorem ipsum dolor sit amet, consectetuer adipiscing elit, sed </tspan><tspan x="0" y="12" class="st11 st12">diam </tspan></text>
<circle class="st6" cx="877.5" cy="702.2" r="169.5"/>
<text transform="matrix(1 0 0 1 852.5508 550.9142)"><tspan x="0" y="0" class="st9 st10">Lorem </tspan><tspan x="-72.3" y="28.8" class="st9 st10">ipsum dolor sit amet, con</tspan><tspan x="107" y="28.8" class="st9 st10">-</tspan><tspan x="-104" y="57.6" class="st9 st10">sectetuer adipiscing elit, sed diam </tspan><tspan x="-123.9" y="86.4" class="st9 st10">nonummy nibh euismod tincidunt ut lao</tspan><tspan x="158.7" y="86.4" class="st9 st10">-</tspan><tspan x="-136.3" y="115.2" class="st9 st10">reet dolore magna aliquam erat volutpat. Ut </tspan><tspan x="-142.9" y="144" class="st9 st10">wisi enim ad minim veniam, quis nostrud </tspan><tspan x="-143.2" y="172.8" class="st9 st10">exerci tation ullamcorper suscipit lobortis nisl </tspan><tspan x="-137" y="201.6" class="st9 st10">ut aliquip ex ea commodo consequat. Duis </tspan><tspan x="-125" y="230.4" class="st9 st10">autem vel eum iriure dolor in hendrerit in </tspan><tspan x="-105.8" y="259.2" class="st9 st10">vulputate velit esse molestie conse</tspan><tspan x="136" y="259.2" class="st9 st10">-</tspan><tspan x="-75.3" y="288" class="st9 st10">quat, vel illum dolore eu </tspan><tspan x="-11.8" y="316.8" class="st9 st10">feugiat </tspan></text>
</svg>
