<svg id="Livello_1" data-name="Livello 1" xmlns="http://www.w3.org/2000/svg" xmlns:xlink="http://www.w3.org/1999/xlink" viewBox="0 0 1190.6 1190.6"><defs><style>.cls-1,.cls-3,.cls-4,.cls-7{fill:none;}.cls-2{fill:#c4005c;stroke:#000;}.cls-2,.cls-3,.cls-4,.cls-7{stroke-miterlimit:10;}.cls-3{stroke:#f7ea3a;}.cls-4{stroke:#d9d9d9;stroke-width:0.77px;}.cls-5{clip-path:url(#clip-path);}.cls-10,.cls-11,.cls-12,.cls-16,.cls-6,.cls-9{isolation:isolate;}.cls-7{stroke:#68a8de;stroke-width:0.56px;}.cls-8{clip-path:url(#clip-path-2);}.cls-9{font-size:60px;font-family:OpenSansCondensed-Bold, Open Sans Condensed;font-weight:700;}.cls-10,.cls-11{font-size:24px;}.cls-10,.cls-16{font-family:OpenSans-Light, Open Sans;}.cls-11{font-family:OpenSansCondensed-Light, Open Sans Condensed;}.cls-12,.cls-16{font-size:10px;}.cls-12{font-family:EBGaramond-Italic, EB Garamond;font-style:italic;}.cls-13{letter-spacing:-0.02em;}.cls-14{letter-spacing:-0.01em;}.cls-15{letter-spacing:-0.02em;}</style><clipPath id="clip-path"><rect class="cls-1" x="503.6" y="504.4" width="184.4" height="185.1"/></clipPath><clipPath id="clip-path-2"><circle class="cls-1" cx="438.7" cy="299.3" r="110"/></clipPath></defs><title>07Tavola disegno 1</title><g id="Livello_1-2" data-name="Livello 1"><rect class="cls-2" width="1190.6" height="1190.6"/></g><g id="Livello_2" data-name="Livello 2"><rect class="cls-3" x="60" y="59.8" width="239.5" height="239.5"/><rect class="cls-3" x="338.3" y="59.8" width="239.5" height="239.5"/><rect class="cls-3" x="615.7" y="59.8" width="239.5" height="239.5"/><rect class="cls-3" x="891.7" y="59.8" width="239.5" height="239.5"/><rect class="cls-3" x="60" y="337.8" width="239.5" height="239.5"/><rect class="cls-3" x="338.8" y="337.8" width="239.5" height="239.5"/><rect class="cls-3" x="615.7" y="337.8" width="239.5" height="239.5"/><rect class="cls-3" x="891.7" y="335.8" width="239.5" height="241.5"/><rect class="cls-3" x="60" y="613.8" width="239.5" height="239.5"/><rect class="cls-3" x="339.3" y="613.8" width="239.5" height="239.5"/><rect class="cls-3" x="613.7" y="615.8" width="239.5" height="239.5"/><rect class="cls-3" x="891.7" y="615.8" width="239.5" height="237.5"/><rect class="cls-3" x="891.7" y="895.8" width="239.5" height="239.5"/><rect class="cls-3" x="613.7" y="894.8" width="239.5" height="239.5"/><rect class="cls-3" x="338.8" y="895.8" width="239.5" height="239.5"/><rect class="cls-3" x="60" y="895.8" width="239.5" height="239.5"/></g><g id="Livello_3" data-name="Livello 3"><rect class="cls-4" x="60.9" y="60.2" width="184.4" height="185.1"/><rect class="cls-4" x="282.2" y="60.2" width="184.4" height="185.1"/><rect class="cls-4" x="503.6" y="60.2" width="184.4" height="185.1"/><rect class="cls-4" x="724.9" y="60.2" width="184.4" height="185.1"/><rect class="cls-4" x="946.8" y="60.2" width="184.4" height="185.1"/><rect class="cls-4" x="60.9" y="282.3" width="184.4" height="185.1"/><rect class="cls-4" x="282.2" y="282.3" width="184.4" height="185.1"/><rect class="cls-4" x="503.6" y="282.3" width="184.4" height="185.1"/><rect class="cls-4" x="724.9" y="282.3" width="184.4" height="185.1"/><rect class="cls-4" x="946.8" y="282.3" width="184.4" height="185.1"/><rect class="cls-4" x="60.9" y="504.4" width="184.4" height="185.1"/><rect class="cls-4" x="282.2" y="504.4" width="184.4" height="185.1"/><g class="cls-5"><image class="cls-6" width="3888" height="2592" transform="translate(241.83 363.41) scale(0.19)" xlink:href="873065_03.jpg"/></g><rect class="cls-4" x="724.9" y="504.4" width="184.4" height="185.1"/><rect class="cls-4" x="946.8" y="504.4" width="184.4" height="185.1"/><rect class="cls-4" x="60.9" y="950.2" width="184.4" height="185.1"/><rect class="cls-4" x="282.2" y="950.2" width="184.4" height="185.1"/><rect class="cls-4" x="503.6" y="949.2" width="184.4" height="185.1"/><rect class="cls-4" x="724.9" y="949.2" width="184.4" height="185.1"/><rect class="cls-4" x="946.8" y="950.2" width="184.4" height="185.1"/><rect class="cls-4" x="60.9" y="727.1" width="184.4" height="185.1"/><rect class="cls-4" x="282.2" y="727.1" width="184.4" height="185.1"/><rect class="cls-4" x="503.6" y="727.1" width="184.4" height="185.1"/><rect class="cls-4" x="724.9" y="727.1" width="184.4" height="185.1"/><rect class="cls-4" x="946.8" y="727.1" width="184.4" height="185.1"/></g><g id="Livello_4" data-name="Livello 4"><rect class="cls-7" x="60.9" y="59.8" width="149.5" height="147.5"/><rect class="cls-7" x="245.1" y="59.8" width="149.5" height="147.5"/><rect class="cls-7" x="428.2" y="59.8" width="149.5" height="147.5"/><rect class="cls-7" x="615.4" y="59.8" width="149.5" height="147.5"/><rect class="cls-7" x="797.5" y="59.8" width="149.5" height="147.5"/><rect class="cls-7" x="981.7" y="59.8" width="149.5" height="147.5"/><rect class="cls-7" x="60.9" y="244.9" width="149.5" height="147.5"/><rect class="cls-7" x="245.1" y="244.9" width="149.5" height="147.5"/><rect class="cls-7" x="429.2" y="244.9" width="149.5" height="147.5"/><rect class="cls-7" x="615.4" y="245.9" width="149.5" height="147.5"/><rect class="cls-7" x="797.5" y="244.9" width="149.5" height="147.5"/><rect class="cls-7" x="981.7" y="244.9" width="149.5" height="147.5"/><rect class="cls-7" x="60.9" y="430" width="149.5" height="147.5"/><rect class="cls-7" x="245.1" y="430" width="149.5" height="147.5"/><rect class="cls-7" x="429.2" y="430" width="149.5" height="147.5"/><rect class="cls-7" x="615.4" y="430" width="149.5" height="147.5"/><rect class="cls-7" x="797.5" y="430" width="149.5" height="147.5"/><rect class="cls-7" x="981.7" y="430" width="149.5" height="147.5"/><rect class="cls-7" x="60.9" y="613.9" width="149.5" height="147.5"/><rect class="cls-7" x="245.1" y="613.9" width="149.5" height="147.5"/><rect class="cls-7" x="429.2" y="613.9" width="149.5" height="147.5"/><rect class="cls-7" x="613.4" y="615.9" width="149.5" height="147.5"/><rect class="cls-7" x="797.5" y="615.9" width="149.5" height="147.5"/><rect class="cls-7" x="981.7" y="615.9" width="149.5" height="147.5"/><rect class="cls-7" x="60.9" y="801.8" width="149.5" height="147.5"/><rect class="cls-7" x="245.1" y="802.8" width="149.5" height="147.5"/><rect class="cls-7" x="429.2" y="802.8" width="149.5" height="147.5"/><rect class="cls-7" x="613.4" y="801.8" width="149.5" height="147.5"/><rect class="cls-7" x="797.5" y="801.8" width="149.5" height="147.5"/><rect class="cls-7" x="981.7" y="801.8" width="149.5" height="147.5"/><rect class="cls-7" x="60.9" y="987.7" width="149.5" height="147.5"/><rect class="cls-7" x="245.1" y="987.7" width="149.5" height="147.5"/><rect class="cls-7" x="429.2" y="987.7" width="149.5" height="147.5"/><rect class="cls-7" x="613.4" y="987.7" width="149.5" height="147.5"/><rect class="cls-7" x="797.5" y="987.7" width="149.5" height="147.5"/><rect class="cls-7" x="981.7" y="987.7" width="149.5" height="147.5"/><g class="cls-8"><image class="cls-6" width="960" height="640" transform="translate(172.73 86.37) scale(0.59)" xlink:href="873065_05.jpg"/></g></g><g id="Livello_6" data-name="Livello 6"><rect class="cls-1" x="60.9" y="58.8" width="710" height="241.5"/><text class="cls-9" transform="translate(60.89 104.36)">Esercitazioni sui vettori:</text><rect class="cls-1" x="67.7" y="908.8" width="594.1" height="226.6"/><text class="cls-10" transform="translate(67.67 944.94)">pit lobortis nisl ut aliquip ex ea commodo consequat.</text><text class="cls-10" transform="translate(67.67 968.94)">Lorem ipsum dolor sit amet, consectetuer adipiscing elit, sed diam nonum</text><text class="cls-11" transform="translate(640.07 968.94)">-</text><text class="cls-10" transform="translate(67.67 992.94)">my nibh euismod tincidunt ut laoreet dolore magna aliquam erat volutpat. </text><text class="cls-10" transform="translate(67.67 1016.94)">Ut wisi enim ad minim veniam, quis nostrud exerci tation ullamcorper susci</text><text class="cls-11" transform="translate(647.97 1016.94)">-</text><text class="cls-10" transform="translate(67.67 1040.94)">pit lobortis nisl ut aliquip ex ea commodo consequat. Duis autem vel eum </text><text class="cls-10" transform="translate(67.67 1064.94)">iriure dolor in hendrerit in vulputate velit esse molestie consequat, vel illum </text><text class="cls-10" transform="translate(67.67 1088.94)">dolore eu feugiat nulla facilisis at vero eros et accumsan et iusto odio dignis</text><text class="cls-11" transform="translate(648.67 1088.94)">-</text><text class="cls-10" transform="translate(67.67 1112.94)">sim qui blandit praesent luptatum zzril delenit augue duis dolore te feugait </text><rect class="cls-1" x="696" y="654.7" width="392" height="34.8"/><text class="cls-12" transform="translate(696 661.72)"><tspan xml:space="preserve"> p</tspan><tspan class="cls-13" x="6.39" y="0">a</tspan><tspan x="11.1" y="0">rt</tspan><tspan class="cls-13" x="17.81" y="0">i</tspan><tspan class="cls-14" x="20.55" y="0">c</tspan><tspan class="cls-15" x="23.53" y="0">o</tspan><tspan x="27.13" y="0">l</tspan><tspan class="cls-13" x="29.99" y="0">a</tspan><tspan x="34.7" y="0">re o</tspan><tspan class="cls-14" x="47.7" y="0">c</tspan><tspan class="cls-13" x="50.68" y="0">c</tspan><tspan x="53.61" y="0">h</tspan><tspan class="cls-15" x="58.49" y="0">i</tspan><tspan x="61.23" y="0">o.</tspan></text><circle class="cls-1" cx="263.1" cy="577.3" r="110"/><text class="cls-16" transform="translate(250.2 474.84)">Lorem </text><text class="cls-16" transform="translate(203.2 491.84)">ipsum dolor sit amet, conse</text><text class="cls-16" transform="translate(182.9 508.84)">adipiscing elit, sed diam nonummy n</text><text class="cls-16" transform="translate(169.8 525.84)">tincidunt ut laoreet dolore magna aliquam </text><text class="cls-16" transform="translate(161.1 542.84)">Ut wisi enim ad minim veniam, quis nostrud e </text><text class="cls-16" transform="translate(155.8 559.84)"><tspan xml:space="preserve">ullamcorper suscipit lobortis nisl ut aliquip ex ea  </tspan></text><text class="cls-16" transform="translate(153.4 576.84)">consequat. Duis autem vel eum iriure dolor in he</text><text class="cls-16" transform="translate(154.4 593.84)">velit esse molestie consequat, vel illum dolore eu</text><text class="cls-16" transform="translate(158.3 610.84)"><tspan xml:space="preserve">facilisis at vero eros et accumsan et iusto odio  </tspan></text><text class="cls-16" transform="translate(165.4 627.84)"><tspan xml:space="preserve">blandit praesent luptatum zzril delenit augu  </tspan></text><text class="cls-16" transform="translate(176.3 644.84)">feugait nulla facilisi.</text><text class="cls-16" transform="translate(192.7 661.84)">Lorem ipsum dolor sit amet, co </text><text class="cls-16" transform="translate(220.7 678.84)">adipiscing elit, sed </text></g></svg>
