<svg xmlns="http://www.w3.org/2000/svg" xmlns:xlink="http://www.w3.org/1999/xlink" viewBox="0 0 1190.55 1190.55"><defs><style>.cls-1,.cls-3,.cls-4,.cls-5{fill:none;}.cls-2{fill:#5a287f;}.cls-3{stroke:#c4007a;}.cls-3,.cls-4,.cls-5{stroke-miterlimit:10;}.cls-4{stroke:#68a8de;}.cls-5{stroke:#f7ea3a;}.cls-6{clip-path:url(#clip-path);}.cls-7{clip-path:url(#clip-path-2);}.cls-8{font-size:60px;font-family:OpenSansCondensed-Bold, Open Sans Condensed;font-weight:700;}.cls-8,.cls-9{fill:#f6f6f6;}.cls-9{font-size:24px;font-family:OpenSans-Light, Open Sans;}.cls-10{font-size:10px;fill:#fff;font-family:EBGaramond-Italic, EB Garamond;font-style:italic;}.cls-11{letter-spacing:-0.02em;}.cls-12{letter-spacing:-0.03em;}.cls-13{letter-spacing:-0.01em;}.cls-14{letter-spacing:-0.04em;}</style><clipPath id="clip-path"><rect class="cls-1" x="245.2" y="429.45" width="147.4" height="147.4"/></clipPath><clipPath id="clip-path-2"><circle class="cls-1" cx="265.25" cy="781.16" r="164.2"/></clipPath></defs><title>Tavola disegno 1</title><g id="Livello_1" data-name="Livello 1"><rect class="cls-2" width="1190.55" height="1190.55"/></g><g id="Livello_2" data-name="Livello 2"><rect class="cls-3" x="60.94" y="60.94" width="239.53" height="239.53"/><rect class="cls-3" x="337.32" y="60.94" width="239.53" height="239.53"/><rect class="cls-3" x="613.7" y="60.94" width="239.53" height="239.53"/><rect class="cls-3" x="890.08" y="60.94" width="239.53" height="239.53"/><rect class="cls-3" x="60.94" y="337.32" width="239.53" height="239.53"/><rect class="cls-3" x="337.32" y="337.32" width="239.53" height="239.53"/><rect class="cls-3" x="613.7" y="337.32" width="239.53" height="239.53"/><rect class="cls-3" x="890.08" y="337.32" width="239.53" height="239.53"/><rect class="cls-3" x="60.94" y="613.7" width="239.53" height="239.53"/><rect class="cls-3" x="337.32" y="613.7" width="239.53" height="239.53"/><rect class="cls-3" x="613.7" y="613.7" width="239.53" height="239.53"/><rect class="cls-3" x="890.08" y="613.7" width="239.53" height="239.53"/><rect class="cls-3" x="60.94" y="890.08" width="239.53" height="239.53"/><rect class="cls-3" x="337.32" y="890.08" width="239.53" height="239.53"/><rect class="cls-3" x="613.7" y="890.08" width="239.53" height="239.53"/><rect class="cls-3" x="890.08" y="890.08" width="239.53" height="239.53"/></g><g id="Livello_3" data-name="Livello 3"><rect class="cls-4" x="282.05" y="60.94" width="184.25" height="184.25"/><rect class="cls-4" x="503.15" y="60.94" width="184.25" height="184.25"/><rect class="cls-4" x="725.62" y="60.94" width="184.25" height="184.25"/><rect class="cls-4" x="945.35" y="60.94" width="184.25" height="184.25"/><rect class="cls-4" x="60.94" y="60.94" width="184.25" height="184.25"/><rect class="cls-4" x="282.05" y="282.05" width="184.25" height="184.25"/><rect class="cls-4" x="503.15" y="282.05" width="184.25" height="184.25"/><rect class="cls-4" x="725.62" y="282.05" width="184.25" height="184.25"/><rect class="cls-4" x="945.35" y="282.05" width="184.25" height="184.25"/><rect class="cls-4" x="60.94" y="282.05" width="184.25" height="184.25"/><rect class="cls-4" x="282.05" y="503.15" width="184.25" height="184.25"/><rect class="cls-4" x="503.15" y="503.15" width="184.25" height="184.25"/><rect class="cls-4" x="725.62" y="503.15" width="184.25" height="184.25"/><rect class="cls-4" x="945.35" y="503.15" width="184.25" height="184.25"/><rect class="cls-4" x="60.94" y="503.15" width="184.25" height="184.25"/><rect class="cls-4" x="282.05" y="724.25" width="184.25" height="184.25"/><rect class="cls-4" x="503.15" y="724.25" width="184.25" height="184.25"/><rect class="cls-4" x="725.62" y="724.25" width="184.25" height="184.25"/><rect class="cls-4" x="945.35" y="724.25" width="184.25" height="184.25"/><rect class="cls-4" x="60.94" y="724.25" width="184.25" height="184.25"/><rect class="cls-4" x="282.05" y="945.35" width="184.25" height="184.25"/><rect class="cls-4" x="503.15" y="945.35" width="184.25" height="184.25"/><rect class="cls-4" x="725.62" y="945.35" width="184.25" height="184.25"/><rect class="cls-4" x="945.35" y="945.35" width="184.25" height="184.25"/><rect class="cls-4" x="60.94" y="945.35" width="184.25" height="184.25"/></g><g id="Livello_4" data-name="Livello 4"><rect class="cls-5" x="429.45" y="60.94" width="147.4" height="147.4"/><rect class="cls-5" x="613.7" y="60.94" width="147.4" height="147.4"/><rect class="cls-5" x="797.95" y="60.94" width="147.4" height="147.4"/><rect class="cls-5" x="982.2" y="60.94" width="147.4" height="147.4"/><rect class="cls-5" x="245.2" y="60.94" width="147.4" height="147.4"/><rect class="cls-5" x="60.94" y="60.94" width="147.4" height="147.4"/><rect class="cls-5" x="429.45" y="245.2" width="147.4" height="147.4"/><rect class="cls-5" x="613.7" y="245.2" width="147.4" height="147.4"/><rect class="cls-5" x="797.95" y="245.2" width="147.4" height="147.4"/><rect class="cls-5" x="982.2" y="245.2" width="147.4" height="147.4"/><rect class="cls-5" x="245.2" y="245.2" width="147.4" height="147.4"/><rect class="cls-5" x="60.94" y="245.2" width="147.4" height="147.4"/><rect class="cls-5" x="429.45" y="429.45" width="147.4" height="147.4"/><rect class="cls-5" x="613.7" y="429.45" width="147.4" height="147.4"/><rect class="cls-5" x="797.95" y="429.45" width="147.4" height="147.4"/><rect class="cls-5" x="982.2" y="429.45" width="147.4" height="147.4"/><rect class="cls-5" x="245.2" y="429.45" width="147.4" height="147.4"/><rect class="cls-5" x="60.94" y="429.45" width="147.4" height="147.4"/><rect class="cls-5" x="429.45" y="613.7" width="147.4" height="147.4"/><rect class="cls-5" x="613.7" y="613.7" width="147.4" height="147.4"/><rect class="cls-5" x="797.95" y="613.7" width="147.4" height="147.4"/><rect class="cls-5" x="982.2" y="613.7" width="147.4" height="147.4"/><rect class="cls-5" x="245.2" y="613.7" width="147.4" height="147.4"/><rect class="cls-5" x="60.94" y="613.7" width="147.4" height="147.4"/><rect class="cls-5" x="429.45" y="797.95" width="147.4" height="147.4"/><rect class="cls-5" x="613.7" y="797.95" width="147.4" height="147.4"/><rect class="cls-5" x="797.95" y="797.95" width="147.4" height="147.4"/><rect class="cls-5" x="982.2" y="797.95" width="147.4" height="147.4"/><rect class="cls-5" x="245.2" y="797.95" width="147.4" height="147.4"/><rect class="cls-5" x="60.94" y="797.95" width="147.4" height="147.4"/><rect class="cls-5" x="613.7" y="982.2" width="147.4" height="147.4"/><rect class="cls-5" x="797.95" y="982.2" width="147.4" height="147.4"/><rect class="cls-5" x="982.2" y="982.2" width="147.4" height="147.4"/><rect class="cls-5" x="245.2" y="982.2" width="147.4" height="147.4"/><rect class="cls-5" x="60.94" y="982.2" width="147.4" height="147.4"/></g><g id="Livello_5" data-name="Livello 5"><g class="cls-6"><image width="896" height="1024" transform="translate(100.31 263.62) scale(0.45 0.45)" xlink:href="873065_03.png"/></g></g><g id="Livello_7" data-name="Livello 7"><g class="cls-7"><image width="1764" height="1004" transform="translate(-116.14 468.14) scale(0.48)" xlink:href="873065_05.png"/></g><text class="cls-8" transform="translate(60.95 106.54)">Lamborghini</text><text class="cls-9" transform="translate(429.45 447.69)">Lorem ipsum dolor sit amet, consectetuer adi<tspan x="489.53" y="0">-</tspan><tspan x="0" y="28.8">piscing elit, sed diam nonummy nibh euismod </tspan><tspan x="0" y="57.6">tincidunt ut laoreet dolore magna aliquam erat </tspan><tspan x="0" y="86.4">volutpat. Ut wisi enim ad minim veniam, quis </tspan><tspan x="0" y="115.2">nostrud exerci tation ullamcorper suscipit lo </tspan></text><text class="cls-10" transform="translate(435 851.07)">L<tspan class="cls-11" x="5.83" y="0">am</tspan><tspan x="18.23" y="0">bor</tspan><tspan class="cls-12" x="30.31" y="0">g</tspan><tspan x="34.21" y="0">h</tspan><tspan class="cls-13" x="39.09" y="0">i</tspan><tspan x="41.88" y="0">ni H</tspan><tspan class="cls-13" x="59.6" y="0">u</tspan><tspan class="cls-14" x="64.54" y="0">r</tspan><tspan x="67.93" y="0">ac</tspan><tspan class="cls-11" x="75.97" y="0">a</tspan><tspan x="80.68" y="0">n.</tspan></text></g></svg>