<?xml version="1.0" encoding="utf-8"?>
<!-- Generator: Adobe Illustrator 22.0.1, SVG Export Plug-In . SVG Version: 6.00 Build 0)  -->
<svg version="1.1" id="one1" xmlns="http://www.w3.org/2000/svg" xmlns:xlink="http://www.w3.org/1999/xlink" x="0px" y="0px"
	 viewBox="0 0 1192 1192" style="enable-background:new 0 0 1192 1192;" xml:space="preserve">
<style type="text/css">
	.st0{fill:#FCB072;}
	.st1{fill:none;stroke:#8441EF;stroke-miterlimit:10;}
	.st2{fill:none;stroke:#356825;stroke-miterlimit:10;}
	.st3{fill:none;stroke:#F25B19;stroke-miterlimit:10;}
</style>
<title>f2Tavola disegno 1</title>
<rect y="0" class="st0" width="1192" height="1192"/>
<g id="dssdcd">
	<rect x="60.9" y="61.7" class="st1" width="239.5" height="239.5"/>
	<rect x="337.3" y="338" class="st1" width="239.5" height="239.5"/>
	<rect x="890.1" y="61.7" class="st1" width="239.5" height="239.5"/>
	<rect x="613.7" y="61.7" class="st1" width="239.5" height="239.5"/>
	<rect x="60.9" y="338" class="st1" width="239.5" height="239.5"/>
	<rect x="337.3" y="61.7" class="st1" width="239.5" height="239.5"/>
	<rect x="613.7" y="338" class="st1" width="239.5" height="239.5"/>
	<rect x="890.1" y="338" class="st1" width="239.5" height="239.5"/>
	<rect x="60.9" y="614.4" class="st1" width="239.5" height="239.5"/>
	<rect x="337.3" y="614.4" class="st1" width="239.5" height="239.5"/>
	<rect x="613.7" y="614.4" class="st1" width="239.5" height="239.5"/>
	<rect x="890.1" y="614.4" class="st1" width="239.5" height="239.5"/>
	<rect x="60.9" y="890.8" class="st1" width="239.5" height="239.5"/>
	<rect x="890.1" y="890.8" class="st1" width="239.5" height="239.5"/>
	<rect x="613.7" y="890.8" class="st1" width="239.5" height="239.5"/>
	<rect x="337.3" y="890.8" class="st1" width="239.5" height="239.5"/>
</g>
<g id="assdws">
	<rect x="60.9" y="61.7" class="st2" width="184.3" height="184.3"/>
	<rect x="282.1" y="61.7" class="st2" width="184.3" height="184.3"/>
	<rect x="503.2" y="61.7" class="st2" width="184.3" height="184.3"/>
	<rect x="503.2" y="503.9" class="st2" width="184.3" height="184.3"/>
	<rect x="724.3" y="503.9" class="st2" width="184.3" height="184.3"/>
	<rect x="282.1" y="503.9" class="st2" width="184.3" height="184.3"/>
	<rect x="60.9" y="503.9" class="st2" width="184.3" height="184.3"/>
	<rect x="945.4" y="282.8" class="st2" width="184.3" height="184.3"/>
	<rect x="724.3" y="282.8" class="st2" width="184.3" height="184.3"/>
	<rect x="503.2" y="282.8" class="st2" width="184.3" height="184.3"/>
	<rect x="282.1" y="282.8" class="st2" width="184.3" height="184.3"/>
	<rect x="60.9" y="282.8" class="st2" width="184.3" height="184.3"/>
	<rect x="945.4" y="61.7" class="st2" width="184.3" height="184.3"/>
	<rect x="724.3" y="61.7" class="st2" width="184.3" height="184.3"/>
	<rect x="945.4" y="503.9" class="st2" width="184.3" height="184.3"/>
	<rect x="503.2" y="725" class="st2" width="184.3" height="184.3"/>
	<rect x="282.1" y="946.1" class="st2" width="184.3" height="184.3"/>
	<rect x="724.3" y="946.1" class="st2" width="184.3" height="184.3"/>
	<rect x="503.2" y="946.1" class="st2" width="184.3" height="184.3"/>
	<rect x="724.3" y="725" class="st2" width="184.3" height="184.3"/>
	<rect x="282.1" y="725" class="st2" width="184.3" height="184.3"/>
	<rect x="60.9" y="946.1" class="st2" width="184.3" height="184.3"/>
	<rect x="60.9" y="725" class="st2" width="184.3" height="184.3"/>
	<rect x="945.4" y="725" class="st2" width="184.3" height="184.3"/>
	<rect x="945.4" y="946.1" class="st2" width="184.3" height="184.3"/>
</g>
<g id="a">
	<rect x="60.9" y="60.9" class="st3" width="147.4" height="147.4"/>
	<rect x="245.2" y="60.9" class="st3" width="147.4" height="147.4"/>
	<rect x="60.9" y="245.2" class="st3" width="147.4" height="147.4"/>
	<rect x="60.9" y="429.5" class="st3" width="147.4" height="147.4"/>
	<rect x="60.9" y="613.7" class="st3" width="147.4" height="147.4"/>
	<rect x="60.9" y="798" class="st3" width="147.4" height="147.4"/>
	<rect x="60.9" y="982.2" class="st3" width="147.4" height="147.4"/>
	<rect x="429.5" y="60.9" class="st3" width="147.4" height="147.4"/>
	<rect x="613.7" y="60.9" class="st3" width="147.4" height="147.4"/>
	<rect x="798" y="60.9" class="st3" width="147.4" height="147.4"/>
	<rect x="982.2" y="60.9" class="st3" width="147.4" height="147.4"/>
	<rect x="245.2" y="245.2" class="st3" width="147.4" height="147.4"/>
	<rect x="245.2" y="429.5" class="st3" width="147.4" height="147.4"/>
	<rect x="429.5" y="245.2" class="st3" width="147.4" height="147.4"/>
	<rect x="613.7" y="245.2" class="st3" width="147.4" height="147.4"/>
	<rect x="798" y="245.2" class="st3" width="147.4" height="147.4"/>
	<rect x="982.2" y="245.2" class="st3" width="147.4" height="147.4"/>
	<rect x="429.5" y="429.5" class="st3" width="147.4" height="147.4"/>
	<rect x="613.7" y="429.5" class="st3" width="147.4" height="147.4"/>
	<rect x="798" y="429.5" class="st3" width="147.4" height="147.4"/>
	<rect x="982.2" y="429.5" class="st3" width="147.4" height="147.4"/>
	<rect x="245.2" y="613.7" class="st3" width="147.4" height="147.4"/>
	<rect x="245.2" y="798" class="st3" width="147.4" height="147.4"/>
	<rect x="245.2" y="982.2" class="st3" width="147.4" height="147.4"/>
	<rect x="429.5" y="613.7" class="st3" width="147.4" height="147.4"/>
	<rect x="429.5" y="798" class="st3" width="147.4" height="147.4"/>
	<rect x="429.5" y="982.2" class="st3" width="147.4" height="147.4"/>
	<rect x="613.7" y="613.7" class="st3" width="147.4" height="147.4"/>
	<rect x="613.7" y="798" class="st3" width="147.4" height="147.4"/>
	<rect x="798" y="613.7" class="st3" width="147.4" height="147.4"/>
	<rect x="982.2" y="613.7" class="st3" width="147.4" height="147.4"/>
	<rect x="798" y="798" class="st3" width="147.4" height="147.4"/>
	<rect x="982.2" y="798" class="st3" width="147.4" height="147.4"/>
	<rect x="613.7" y="982.2" class="st3" width="147.4" height="147.4"/>
	<rect x="798" y="982.2" class="st3" width="147.4" height="147.4"/>
	<rect x="982.2" y="982.2" class="st3" width="147.4" height="147.4"/>
</g>
<g>
	<defs>
		<rect id="SVGID_1_" x="429.5" y="798" width="147.4" height="147.4"/>
	</defs>
	<clipPath id="SVGID_2_">
		<use xlink:href="#SVGID_1_"  style="overflow:visible;"/>
	</clipPath>
	<g style="clip-path:url(#SVGID_2_);enable-background:new    ;">
		
			<image style="overflow:visible;" width="3888" height="2592" xlink:href="../../../../../../../Documents/cazzeggio/fotoritocco/IMG_2916.jpg"  transform="matrix(0.27 0 0 0.27 79.8399 430.495)">
		</image>
	</g>
</g>
<g>
	<defs>
		<ellipse id="SVGID_3_" cx="556.1" cy="308.2" rx="141" ry="136.5"/>
	</defs>
	<clipPath id="SVGID_4_">
		<use xlink:href="#SVGID_3_"  style="overflow:visible;"/>
	</clipPath>
	<g transform="matrix(1 0 0 1 -3.051758e-05 0)" style="clip-path:url(#SVGID_4_);">
		
			<image style="overflow:visible;" width="896" height="1024" xlink:href="../../../../../../../Documents/cazzeggio/disegno/Logo_della_Lamborghini.svg.png"  transform="matrix(0.5583 0 0 0.5583 352.9797 143.5899)">
		</image>
	</g>
</g>
</svg>
