<?xml version="1.0" encoding="utf-8"?>
<!-- Generator: Adobe Illustrator 22.0.1, SVG Export Plug-In . SVG Version: 6.00 Build 0)  -->
<svg version="1.1" xmlns="http://www.w3.org/2000/svg" xmlns:xlink="http://www.w3.org/1999/xlink" x="0px" y="0px"
	 viewBox="0 0 1190.6 1190.6" style="enable-background:new 0 0 1190.6 1190.6;" xml:space="preserve">
<style type="text/css">
	.st0{fill:#C4005C;stroke:#000000;stroke-miterlimit:10;}
	.st1{fill:none;stroke:#F7EA3A;stroke-miterlimit:10;}
	.st2{fill:none;stroke:#D9D9D9;stroke-width:0.7714;stroke-miterlimit:10;}
	.st3{fill:none;stroke:#68A8DE;stroke-width:0.5599;stroke-miterlimit:10;}
	.st4{fill:none;}
	.st5{font-family:'OpenSansCondensed-Bold';}
	.st6{font-size:60px;}
	.st7{font-family:'OpenSansCondensed-Light';}
	.st8{font-size:24px;}
	.st9{font-family:'EBGaramond-Italic';}
	.st10{font-size:10px;}
</style>
<g id="Livello_1">
	<rect class="st0" width="1190.6" height="1190.6"/>
</g>
<g id="Livello_5">
</g>
<g id="Livello_2">
	<rect x="60" y="59.8" class="st1" width="239.5" height="239.5"/>
	<rect x="338.3" y="59.8" class="st1" width="239.5" height="239.5"/>
	<rect x="615.7" y="59.8" class="st1" width="239.5" height="239.5"/>
	<rect x="891.7" y="59.8" class="st1" width="239.5" height="239.5"/>
	<rect x="60" y="337.8" class="st1" width="239.5" height="239.5"/>
	<rect x="338.8" y="337.8" class="st1" width="239.5" height="239.5"/>
	<rect x="615.7" y="337.8" class="st1" width="239.5" height="239.5"/>
	<rect x="891.7" y="335.8" class="st1" width="239.5" height="239.5"/>
	<rect x="60" y="613.8" class="st1" width="239.5" height="239.5"/>
	<rect x="339.3" y="613.8" class="st1" width="239.5" height="239.5"/>
	<rect x="613.7" y="615.8" class="st1" width="239.5" height="239.5"/>
	<rect x="891.7" y="613.8" class="st1" width="239.5" height="239.5"/>
	<rect x="891.7" y="895.8" class="st1" width="239.5" height="239.5"/>
	<rect x="613.7" y="894.8" class="st1" width="239.5" height="239.5"/>
	<rect x="338.8" y="895.8" class="st1" width="239.5" height="239.5"/>
	<rect x="60" y="895.8" class="st1" width="239.5" height="239.5"/>
</g>
<g id="Livello_3">
	<rect x="60.9" y="60.2" class="st2" width="184.4" height="185.1"/>
	<rect x="282.2" y="60.2" class="st2" width="184.4" height="185.1"/>
	<rect x="503.6" y="60.2" class="st2" width="184.4" height="185.1"/>
	<rect x="724.9" y="60.2" class="st2" width="184.4" height="185.1"/>
	<rect x="946.8" y="60.2" class="st2" width="184.4" height="185.1"/>
	<rect x="60.9" y="282.3" class="st2" width="184.4" height="185.1"/>
	<rect x="282.2" y="282.3" class="st2" width="184.4" height="185.1"/>
	<rect x="503.6" y="282.3" class="st2" width="184.4" height="185.1"/>
	<rect x="724.9" y="282.3" class="st2" width="184.4" height="185.1"/>
	<rect x="946.8" y="282.3" class="st2" width="184.4" height="185.1"/>
	<rect x="60.9" y="504.4" class="st2" width="184.4" height="185.1"/>
	<rect x="282.2" y="504.4" class="st2" width="184.4" height="185.1"/>
	<g>
		<defs>
			<rect id="SVGID_1_" x="503.6" y="504.4" width="184.4" height="185.1"/>
		</defs>
		<clipPath id="SVGID_2_">
			<use xlink:href="#SVGID_1_"  style="overflow:visible;"/>
		</clipPath>
		<g style="clip-path:url(#SVGID_2_);">
			
				<image style="overflow:visible;" width="3888" height="2592" xlink:href="873065_03.jpg"  transform="matrix(0.1907 0 0 0.1907 241.8349 363.4094)">
			</image>
		</g>
	</g>
	<rect x="724.9" y="504.4" class="st2" width="184.4" height="185.1"/>
	<rect x="946.8" y="504.4" class="st2" width="184.4" height="185.1"/>
	<rect x="60.9" y="950.2" class="st2" width="184.4" height="185.1"/>
	<rect x="282.2" y="950.2" class="st2" width="184.4" height="185.1"/>
	<rect x="503.6" y="949.2" class="st2" width="184.4" height="185.1"/>
	<rect x="724.9" y="949.2" class="st2" width="184.4" height="185.1"/>
	<rect x="946.8" y="950.2" class="st2" width="184.4" height="185.1"/>
	<rect x="60.9" y="727.1" class="st2" width="184.4" height="185.1"/>
	<rect x="282.2" y="727.1" class="st2" width="184.4" height="185.1"/>
	<rect x="503.6" y="727.1" class="st2" width="184.4" height="185.1"/>
	<rect x="724.9" y="727.1" class="st2" width="184.4" height="185.1"/>
	<rect x="946.8" y="727.1" class="st2" width="184.4" height="185.1"/>
</g>
<g id="Livello_4">
	<rect x="60.9" y="59.8" class="st3" width="149.5" height="147.5"/>
	<rect x="245.1" y="59.8" class="st3" width="149.5" height="147.5"/>
	<rect x="428.2" y="59.8" class="st3" width="149.5" height="147.5"/>
	<rect x="615.4" y="59.8" class="st3" width="149.5" height="147.5"/>
	<rect x="797.5" y="59.8" class="st3" width="149.5" height="147.5"/>
	<rect x="981.7" y="59.8" class="st3" width="149.5" height="147.5"/>
	<rect x="60.9" y="244.9" class="st3" width="149.5" height="147.5"/>
	<rect x="245.1" y="244.9" class="st3" width="149.5" height="147.5"/>
	<rect x="429.2" y="244.9" class="st3" width="149.5" height="147.5"/>
	<rect x="615.4" y="245.9" class="st3" width="149.5" height="147.5"/>
	<rect x="797.5" y="244.9" class="st3" width="149.5" height="147.5"/>
	<rect x="981.7" y="244.9" class="st3" width="149.5" height="147.5"/>
	<rect x="60.9" y="430" class="st3" width="149.5" height="147.5"/>
	<rect x="245.1" y="430" class="st3" width="149.5" height="147.5"/>
	<rect x="429.2" y="430" class="st3" width="149.5" height="147.5"/>
	<rect x="615.4" y="430" class="st3" width="149.5" height="147.5"/>
	<rect x="797.5" y="430" class="st3" width="149.5" height="147.5"/>
	<rect x="981.7" y="430" class="st3" width="149.5" height="147.5"/>
	<rect x="60.9" y="613.9" class="st3" width="149.5" height="147.5"/>
	<rect x="245.1" y="613.9" class="st3" width="149.5" height="147.5"/>
	<rect x="429.2" y="613.9" class="st3" width="149.5" height="147.5"/>
	<rect x="613.4" y="615.9" class="st3" width="149.5" height="147.5"/>
	<rect x="797.5" y="615.9" class="st3" width="149.5" height="147.5"/>
	<rect x="981.7" y="615.9" class="st3" width="149.5" height="147.5"/>
	<rect x="60.9" y="801.8" class="st3" width="149.5" height="147.5"/>
	<rect x="245.1" y="802.8" class="st3" width="149.5" height="147.5"/>
	<rect x="429.2" y="802.8" class="st3" width="149.5" height="147.5"/>
	<rect x="613.4" y="801.8" class="st3" width="149.5" height="147.5"/>
	<rect x="797.5" y="801.8" class="st3" width="149.5" height="147.5"/>
	<rect x="981.7" y="801.8" class="st3" width="149.5" height="147.5"/>
	<rect x="60.9" y="987.7" class="st3" width="149.5" height="147.5"/>
	<rect x="245.1" y="987.7" class="st3" width="149.5" height="147.5"/>
	<rect x="429.2" y="987.7" class="st3" width="149.5" height="147.5"/>
	<rect x="613.4" y="987.7" class="st3" width="149.5" height="147.5"/>
	<rect x="797.5" y="987.7" class="st3" width="149.5" height="147.5"/>
	<rect x="981.7" y="987.7" class="st3" width="149.5" height="147.5"/>
	<g>
		<defs>
			<circle id="SVGID_3_" cx="438.7" cy="299.3" r="110"/>
		</defs>
		<clipPath id="SVGID_4_">
			<use xlink:href="#SVGID_3_"  style="overflow:visible;"/>
		</clipPath>
		<g transform="matrix(1 0 0 1 0 0)" style="clip-path:url(#SVGID_4_);">
			
				<image style="overflow:visible;" width="960" height="640" xlink:href="873065_05.jpg"  transform="matrix(0.5945 0 0 0.5945 172.7345 86.3727)">
			</image>
		</g>
	</g>
</g>
<g id="Livello_6">
	<rect x="60.9" y="58.8" class="st4" width="710" height="241.5"/>
	<text transform="matrix(1 0 0 1 60.8872 104.3631)" class="st5 st6">Esercitazioni sui vettori:</text>
	<rect x="67.7" y="908.8" class="st4" width="594.1" height="226.6"/>
	<text transform="matrix(1 0 0 1 67.6726 944.9372)"><tspan x="0" y="0" class="st7 st8">pit lobortis nisl ut aliquip ex ea commodo consequat.</tspan><tspan x="0" y="24" class="st7 st8">Lorem ipsum dolor sit amet, consectetuer adipiscing elit, sed diam nonum</tspan><tspan x="572.4" y="24" class="st7 st8">-</tspan><tspan x="0" y="48" class="st7 st8">my nibh euismod tincidunt ut laoreet dolore magna aliquam erat volutpat. </tspan><tspan x="0" y="72" class="st7 st8">Ut wisi enim ad minim veniam, quis nostrud exerci tation ullamcorper susci</tspan><tspan x="580.3" y="72" class="st7 st8">-</tspan><tspan x="0" y="96" class="st7 st8">pit lobortis nisl ut aliquip ex ea commodo consequat. Duis autem vel eum </tspan><tspan x="0" y="120" class="st7 st8">iriure dolor in hendrerit in vulputate velit esse molestie consequat, vel illum </tspan><tspan x="0" y="144" class="st7 st8">dolore eu feugiat nulla facilisis at vero eros et accumsan et iusto odio dignis</tspan><tspan x="581" y="144" class="st7 st8">-</tspan><tspan x="0" y="168" class="st7 st8">sim qui blandit praesent luptatum zzril delenit augue duis dolore te feugait </tspan></text>
	<rect x="696" y="654.7" class="st4" width="392" height="34.8"/>
	<text transform="matrix(1 0 0 1 696 661.7168)" class="st9 st10"> particolare occhio.</text>
</g>
</svg>
