<?xml version="1.0" encoding="utf-8"?>
<!-- Generator: Adobe Illustrator 22.0.1, SVG Export Plug-In . SVG Version: 6.00 Build 0)  -->
<svg version="1.1" id="Livello_1" xmlns="http://www.w3.org/2000/svg" xmlns:xlink="http://www.w3.org/1999/xlink" x="0px" y="0px"
	 viewBox="0 0 1190.6 1190.6" style="enable-background:new 0 0 1190.6 1190.6;" xml:space="preserve">
<style type="text/css">
	.st0{fill:#C4005C;stroke:#000000;stroke-miterlimit:10;}
	.st1{fill:none;stroke:#F7EA3A;stroke-miterlimit:10;}
	.st2{fill:none;stroke:#D9D9D9;stroke-width:0.7714;stroke-miterlimit:10;}
	.st3{clip-path:url(#SVGID_2_);}
	.st4{fill:none;stroke:#68A8DE;stroke-width:0.5599;stroke-miterlimit:10;}
	.st5{clip-path:url(#SVGID_4_);}
	.st6{fill:none;}
	.st7{font-family:'OpenSansCondensed-Bold';}
	.st8{font-size:60px;}
	.st9{font-family:'OpenSansCondensed-Light';}
	.st10{font-size:24px;}
	.st11{font-family:'EBGaramond-Italic';}
	.st12{font-size:10px;}
</style>
<g id="Livello_1_1_">
	<rect y="0" class="st0" width="1190.6" height="1190.6"/>
</g>
<g id="Livello_5">
</g>
<g id="Livello_2_1_">
	<rect x="60" y="59.8" class="st1" width="239.5" height="239.5"/>
	<rect x="338.3" y="59.8" class="st1" width="239.5" height="239.5"/>
	<rect x="615.7" y="59.8" class="st1" width="239.5" height="239.5"/>
	<rect x="891.7" y="59.8" class="st1" width="239.5" height="239.5"/>
	<rect x="60" y="337.8" class="st1" width="239.5" height="239.5"/>
	<rect x="338.8" y="337.8" class="st1" width="239.5" height="239.5"/>
	<rect x="615.7" y="337.8" class="st1" width="239.5" height="239.5"/>
	<rect x="891.7" y="335.8" class="st1" width="239.5" height="241.5"/>
	<rect x="60" y="613.8" class="st1" width="239.5" height="239.5"/>
	<rect x="339.3" y="613.8" class="st1" width="239.5" height="239.5"/>
	<rect x="613.7" y="615.8" class="st1" width="239.5" height="239.5"/>
	<rect x="891.7" y="615.8" class="st1" width="239.5" height="237.5"/>
	<rect x="891.7" y="895.8" class="st1" width="239.5" height="239.5"/>
	<rect x="613.7" y="894.8" class="st1" width="239.5" height="239.5"/>
	<rect x="338.8" y="895.8" class="st1" width="239.5" height="239.5"/>
	<rect x="60" y="895.8" class="st1" width="239.5" height="239.5"/>
</g>
<g id="Livello_3">
	<rect x="60.9" y="60.2" class="st2" width="184.4" height="185.1"/>
	<rect x="282.2" y="60.2" class="st2" width="184.4" height="185.1"/>
	<rect x="503.6" y="60.2" class="st2" width="184.4" height="185.1"/>
	<rect x="724.9" y="60.2" class="st2" width="184.4" height="185.1"/>
	<rect x="946.8" y="60.2" class="st2" width="184.4" height="185.1"/>
	<rect x="60.9" y="282.3" class="st2" width="184.4" height="185.1"/>
	<rect x="282.2" y="282.3" class="st2" width="184.4" height="185.1"/>
	<rect x="503.6" y="282.3" class="st2" width="184.4" height="185.1"/>
	<rect x="724.9" y="282.3" class="st2" width="184.4" height="185.1"/>
	<rect x="946.8" y="282.3" class="st2" width="184.4" height="185.1"/>
	<rect x="60.9" y="504.4" class="st2" width="184.4" height="185.1"/>
	<rect x="282.2" y="504.4" class="st2" width="184.4" height="185.1"/>
	<g>
		<g>
			<defs>
				<rect id="SVGID_1_" x="503.6" y="504.4" width="184.4" height="185.1"/>
			</defs>
			<clipPath id="SVGID_2_">
				<use xlink:href="#SVGID_1_"  style="overflow:visible;"/>
			</clipPath>
			<g class="st3">
				
					<image style="overflow:visible;enable-background:new    ;" width="3888" height="2592" xlink:href="873065_03.jpg"  transform="matrix(0.1907 0 0 0.1907 241.8349 363.4094)">
				</image>
			</g>
		</g>
	</g>
	<rect x="724.9" y="504.4" class="st2" width="184.4" height="185.1"/>
	<rect x="946.8" y="504.4" class="st2" width="184.4" height="185.1"/>
	<rect x="60.9" y="950.2" class="st2" width="184.4" height="185.1"/>
	<rect x="282.2" y="950.2" class="st2" width="184.4" height="185.1"/>
	<rect x="503.6" y="949.2" class="st2" width="184.4" height="185.1"/>
	<rect x="724.9" y="949.2" class="st2" width="184.4" height="185.1"/>
	<rect x="946.8" y="950.2" class="st2" width="184.4" height="185.1"/>
	<rect x="60.9" y="727.1" class="st2" width="184.4" height="185.1"/>
	<rect x="282.2" y="727.1" class="st2" width="184.4" height="185.1"/>
	<rect x="503.6" y="727.1" class="st2" width="184.4" height="185.1"/>
	<rect x="724.9" y="727.1" class="st2" width="184.4" height="185.1"/>
	<rect x="946.8" y="727.1" class="st2" width="184.4" height="185.1"/>
</g>
<g id="Livello_4">
	<rect x="60.9" y="59.8" class="st4" width="149.5" height="147.5"/>
	<rect x="245.1" y="59.8" class="st4" width="149.5" height="147.5"/>
	<rect x="428.2" y="59.8" class="st4" width="149.5" height="147.5"/>
	<rect x="615.4" y="59.8" class="st4" width="149.5" height="147.5"/>
	<rect x="797.5" y="59.8" class="st4" width="149.5" height="147.5"/>
	<rect x="981.7" y="59.8" class="st4" width="149.5" height="147.5"/>
	<rect x="60.9" y="244.9" class="st4" width="149.5" height="147.5"/>
	<rect x="245.1" y="244.9" class="st4" width="149.5" height="147.5"/>
	<rect x="429.2" y="244.9" class="st4" width="149.5" height="147.5"/>
	<rect x="615.4" y="245.9" class="st4" width="149.5" height="147.5"/>
	<rect x="797.5" y="244.9" class="st4" width="149.5" height="147.5"/>
	<rect x="981.7" y="244.9" class="st4" width="149.5" height="147.5"/>
	<rect x="60.9" y="430" class="st4" width="149.5" height="147.5"/>
	<rect x="245.1" y="430" class="st4" width="149.5" height="147.5"/>
	<rect x="429.2" y="430" class="st4" width="149.5" height="147.5"/>
	<rect x="615.4" y="430" class="st4" width="149.5" height="147.5"/>
	<rect x="797.5" y="430" class="st4" width="149.5" height="147.5"/>
	<rect x="981.7" y="430" class="st4" width="149.5" height="147.5"/>
	<rect x="60.9" y="613.9" class="st4" width="149.5" height="147.5"/>
	<rect x="245.1" y="613.9" class="st4" width="149.5" height="147.5"/>
	<rect x="429.2" y="613.9" class="st4" width="149.5" height="147.5"/>
	<rect x="613.4" y="615.9" class="st4" width="149.5" height="147.5"/>
	<rect x="797.5" y="615.9" class="st4" width="149.5" height="147.5"/>
	<rect x="981.7" y="615.9" class="st4" width="149.5" height="147.5"/>
	<rect x="60.9" y="801.8" class="st4" width="149.5" height="147.5"/>
	<rect x="245.1" y="802.8" class="st4" width="149.5" height="147.5"/>
	<rect x="429.2" y="802.8" class="st4" width="149.5" height="147.5"/>
	<rect x="613.4" y="801.8" class="st4" width="149.5" height="147.5"/>
	<rect x="797.5" y="801.8" class="st4" width="149.5" height="147.5"/>
	<rect x="981.7" y="801.8" class="st4" width="149.5" height="147.5"/>
	<rect x="60.9" y="987.7" class="st4" width="149.5" height="147.5"/>
	<rect x="245.1" y="987.7" class="st4" width="149.5" height="147.5"/>
	<rect x="429.2" y="987.7" class="st4" width="149.5" height="147.5"/>
	<rect x="613.4" y="987.7" class="st4" width="149.5" height="147.5"/>
	<rect x="797.5" y="987.7" class="st4" width="149.5" height="147.5"/>
	<rect x="981.7" y="987.7" class="st4" width="149.5" height="147.5"/>
	<g>
		<g>
			<defs>
				<circle id="SVGID_3_" cx="438.7" cy="299.3" r="110"/>
			</defs>
			<clipPath id="SVGID_4_">
				<use xlink:href="#SVGID_3_"  style="overflow:visible;"/>
			</clipPath>
			<g transform="matrix(1 0 0 1 0 0)" class="st5">
				
					<image style="overflow:visible;enable-background:new    ;" width="960" height="640" xlink:href="873065_05.jpg"  transform="matrix(0.5945 0 0 0.5945 172.7345 86.3727)">
				</image>
			</g>
		</g>
	</g>
</g>
<g id="Livello_6">
	<rect x="60.9" y="58.8" class="st6" width="710" height="241.5"/>
	<text transform="matrix(1 0 0 1 60.8872 104.3631)" class="st7 st8">Esercitazioni sui vettori:</text>
	<rect x="67.7" y="908.8" class="st6" width="594.1" height="226.6"/>
	<text transform="matrix(1 0 0 1 67.6726 944.9372)" class="st9 st10">pit lobortis nisl ut aliquip ex ea commodo consequat.</text>
	<text transform="matrix(1 0 0 1 67.6726 968.9372)" class="st9 st10">Lorem ipsum dolor sit amet, consectetuer adipiscing elit, sed diam nonum</text>
	<text transform="matrix(1 0 0 1 640.0726 968.9372)" class="st9 st10">-</text>
	<text transform="matrix(1 0 0 1 67.6726 992.9372)" class="st9 st10">my nibh euismod tincidunt ut laoreet dolore magna aliquam erat volutpat. </text>
	<text transform="matrix(1 0 0 1 67.6726 1016.9372)" class="st9 st10">Ut wisi enim ad minim veniam, quis nostrud exerci tation ullamcorper susci</text>
	<text transform="matrix(1 0 0 1 647.9726 1016.9372)" class="st9 st10">-</text>
	<text transform="matrix(1 0 0 1 67.6726 1040.9371)" class="st9 st10">pit lobortis nisl ut aliquip ex ea commodo consequat. Duis autem vel eum </text>
	<text transform="matrix(1 0 0 1 67.6726 1064.9371)" class="st9 st10">iriure dolor in hendrerit in vulputate velit esse molestie consequat, vel illum </text>
	<text transform="matrix(1 0 0 1 67.6726 1088.9371)" class="st9 st10">dolore eu feugiat nulla facilisis at vero eros et accumsan et iusto odio dignis</text>
	<text transform="matrix(1 0 0 1 648.6726 1088.9371)" class="st9 st10">-</text>
	<text transform="matrix(1 0 0 1 67.6726 1112.9371)" class="st9 st10">sim qui blandit praesent luptatum zzril delenit augue duis dolore te feugait </text>
	<rect x="696" y="654.7" class="st6" width="392" height="34.8"/>
	<text transform="matrix(1 0 0 1 696 661.7168)" class="st11 st12"> particolare occhio.</text>
	<circle class="st6" cx="263.1" cy="577.3" r="110"/>
	<text transform="matrix(1 0 0 1 250.1975 474.8391)" class="st9 st12">Lorem </text>
	<text transform="matrix(1 0 0 1 203.1975 491.8391)" class="st9 st12">ipsum dolor sit amet, consectetuer </text>
	<text transform="matrix(1 0 0 1 182.8975 508.8391)" class="st9 st12">adipiscing elit, sed diam nonummy nibh euismod </text>
	<text transform="matrix(1 0 0 1 169.7975 525.8391)" class="st9 st12">tincidunt ut laoreet dolore magna aliquam erat volutpat. </text>
	<text transform="matrix(1 0 0 1 161.0975 542.8391)" class="st9 st12">Ut wisi enim ad minim veniam, quis nostrud exerci tation </text>
	<text transform="matrix(1 0 0 1 155.7975 559.8391)" class="st9 st12">ullamcorper suscipit lobortis nisl ut aliquip ex ea commodo </text>
	<text transform="matrix(1 0 0 1 153.3975 576.8391)" class="st9 st12">consequat. Duis autem vel eum iriure dolor in hendrerit in vulputate </text>
	<text transform="matrix(1 0 0 1 154.3975 593.8391)" class="st9 st12">velit esse molestie consequat, vel illum dolore eu feugiat nulla </text>
	<text transform="matrix(1 0 0 1 158.2975 610.8391)" class="st9 st12">facilisis at vero eros et accumsan et iusto odio dignissim qui </text>
	<text transform="matrix(1 0 0 1 165.3975 627.8391)" class="st9 st12">blandit praesent luptatum zzril delenit augue duis dolore te </text>
	<text transform="matrix(1 0 0 1 176.2975 644.8391)" class="st9 st12">feugait nulla facilisi.</text>
	<text transform="matrix(1 0 0 1 192.6975 661.8391)" class="st9 st12">Lorem ipsum dolor sit amet, cons ectetuer </text>
	<text transform="matrix(1 0 0 1 220.6975 678.8391)" class="st9 st12">adipiscing elit, sed diam </text>
</g>
</svg>
