<svg id="Livello_1" data-name="Livello 1" xmlns="http://www.w3.org/2000/svg" xmlns:xlink="http://www.w3.org/1999/xlink" viewBox="0 0 1190.6 1190.6"><defs><style>.cls-1,.cls-3{fill:none;}.cls-2{fill:#878787;}.cls-3{stroke:#e30613;}.cls-4{font-size:10px;font-family:EBGaramond-Italic, EB Garamond;font-style:italic;}.cls-5{letter-spacing:-0.02em;}.cls-6{letter-spacing:-0.01em;}.cls-7{letter-spacing:-0.02em;}.cls-8{letter-spacing:-0.03em;}.cls-9{letter-spacing:-0.02em;}.cls-10{letter-spacing:-0.04em;}.cls-11{letter-spacing:-0.05em;}.cls-12{letter-spacing:-0.04em;}.cls-13{clip-path:url(#clip-path);}.cls-14{clip-path:url(#clip-path-2);}.cls-15{isolation:isolate;font-size:60px;font-family:OpenSansCondensed-Bold, Open Sans Condensed;font-weight:700;}.cls-16{font-size:16px;font-family:OpenSansCondensed-Light, Open Sans Condensed;}</style><clipPath id="clip-path"><rect class="cls-1" x="337.3" y="613.7" width="239.5" height="239.5"/></clipPath><clipPath id="clip-path-2"><circle class="cls-1" cx="733.45" cy="733.45" r="119.75"/></clipPath></defs><title>Tavola disegno 1</title><g id="Background"><g id="Livello_1-2" data-name="Livello 1-2"><rect class="cls-2" width="1190.6" height="1190.6"/></g></g><rect class="cls-3" x="60.9" y="60.9" width="239.5" height="239.5"/><rect class="cls-3" x="337.3" y="60.9" width="239.5" height="239.5"/><rect class="cls-3" x="613.7" y="60.9" width="239.5" height="239.5"/><rect class="cls-3" x="890.1" y="60.9" width="239.5" height="239.5"/><rect class="cls-3" x="60.9" y="337.3" width="239.5" height="239.5"/><rect class="cls-3" x="337.3" y="337.3" width="239.5" height="239.5"/><rect class="cls-3" x="613.7" y="337.3" width="239.5" height="239.5"/><rect class="cls-3" x="890.1" y="337.3" width="239.5" height="239.5"/><rect class="cls-3" x="60.9" y="613.7" width="239.5" height="239.5"/><rect class="cls-3" x="613.7" y="613.7" width="239.5" height="239.5"/><text class="cls-4" transform="translate(890.1 620.75)">Lorem <tspan class="cls-5" x="26.72" y="0">i</tspan><tspan x="29.51" y="0">ps</tspan><tspan class="cls-6" x="36.66" y="0">u</tspan><tspan x="41.6" y="0">m d</tspan><tspan class="cls-7" x="56.65" y="0">o</tspan><tspan x="60.25" y="0">lor sit </tspan><tspan class="cls-7" x="83.32" y="0">a</tspan><tspan x="88.03" y="0">met, </tspan><tspan class="cls-6" x="106.4" y="0">c</tspan><tspan x="109.38" y="0">onsectet</tspan><tspan class="cls-7" x="137" y="0">u</tspan><tspan x="141.89" y="0">er ad</tspan><tspan class="cls-6" x="161.16" y="0">i</tspan><tspan x="163.95" y="0">pisc</tspan><tspan class="cls-5" x="177.17" y="0">i</tspan><tspan x="179.96" y="0">ng </tspan><tspan class="cls-8" x="191.38" y="0">e</tspan><tspan x="194.54" y="0">lit, sed </tspan><tspan x="0" y="24">di</tspan><tspan class="cls-7" x="8.1" y="24">a</tspan><tspan x="12.81" y="24">m non</tspan><tspan class="cls-6" x="37.04" y="24">u</tspan><tspan class="cls-7" x="41.98" y="24">mm</tspan><tspan x="57.36" y="24">y n</tspan><tspan class="cls-8" x="68.68" y="24">i</tspan><tspan class="cls-9" x="71.37" y="24">b</tspan><tspan x="75.66" y="24">h euismod t</tspan><tspan class="cls-5" x="118.51" y="24">i</tspan><tspan x="121.29" y="24">nc</tspan><tspan class="cls-7" x="129.69" y="24">i</tspan><tspan x="132.43" y="24">d</tspan><tspan class="cls-6" x="137.59" y="24">u</tspan><tspan x="142.53" y="24">nt ut laoreet d</tspan><tspan class="cls-7" x="194.99" y="24">o</tspan><tspan x="198.59" y="24">lore </tspan><tspan x="0" y="48">magna </tspan><tspan class="cls-7" x="29.13" y="48">a</tspan><tspan x="33.84" y="48">l</tspan><tspan class="cls-9" x="36.7" y="48">i</tspan><tspan x="39.44" y="48">qu</tspan><tspan class="cls-7" x="49.26" y="48">a</tspan><tspan x="53.97" y="48">m e</tspan><tspan class="cls-10" x="67.27" y="48">r</tspan><tspan x="70.66" y="48">at v</tspan><tspan class="cls-9" x="84.59" y="48">o</tspan><tspan x="88.19" y="48">lutpat. Ut wisi en</tspan><tspan class="cls-5" x="152.9" y="48">i</tspan><tspan x="155.69" y="48">m ad m</tspan><tspan class="cls-6" x="185.54" y="48">i</tspan><tspan x="188.33" y="48">n</tspan><tspan class="cls-5" x="193.6" y="48">i</tspan><tspan x="196.38" y="48">m veni</tspan><tspan class="cls-7" x="221.99" y="48">a</tspan><tspan x="226.7" y="48">m, </tspan><tspan x="0" y="72">quis nostr</tspan><tspan class="cls-7" x="36.06" y="72">u</tspan><tspan x="40.95" y="72">d exerci tat</tspan><tspan class="cls-9" x="81.92" y="72">i</tspan><tspan x="84.66" y="72">on </tspan><tspan class="cls-8" x="95.73" y="72">u</tspan><tspan class="cls-5" x="100.57" y="72">l</tspan><tspan x="103.28" y="72">l</tspan><tspan class="cls-7" x="106.14" y="72">a</tspan><tspan x="110.85" y="72">m</tspan><tspan class="cls-6" x="118.74" y="72">c</tspan><tspan x="121.72" y="72">orper susc</tspan><tspan class="cls-5" x="156.64" y="72">i</tspan><tspan x="159.42" y="72">pit l</tspan><tspan class="cls-9" x="174.53" y="72">o</tspan><tspan x="178.13" y="72">bortis ni</tspan><tspan class="cls-5" x="209.04" y="72">s</tspan><tspan x="211.65" y="72">l ut </tspan><tspan class="cls-7" x="0" y="96">a</tspan><tspan x="4.71" y="96">l</tspan><tspan class="cls-9" x="7.57" y="96">i</tspan><tspan x="10.31" y="96">qu</tspan><tspan class="cls-5" x="20.13" y="96">i</tspan><tspan x="22.92" y="96">p ex ea </tspan><tspan class="cls-5" x="49.42" y="96">c</tspan><tspan x="52.4" y="96">o</tspan><tspan class="cls-9" x="56.2" y="96">m</tspan><tspan x="63.89" y="96">modo </tspan><tspan class="cls-5" x="86.54" y="96">c</tspan><tspan x="89.52" y="96">onsequat. Duis </tspan><tspan class="cls-6" x="146.87" y="96">a</tspan><tspan x="151.63" y="96">utem v</tspan><tspan class="cls-8" x="177.04" y="96">e</tspan><tspan x="180.2" y="96">l e</tspan><tspan class="cls-5" x="188.47" y="96">u</tspan><tspan x="193.41" y="96">m </tspan><tspan class="cls-5" x="203.29" y="96">i</tspan><tspan x="206.08" y="96">ri</tspan><tspan class="cls-6" x="212.81" y="96">u</tspan><tspan x="217.75" y="96">re </tspan><tspan x="0" y="120">d</tspan><tspan class="cls-7" x="5.16" y="120">o</tspan><tspan x="8.76" y="120">lor </tspan><tspan class="cls-6" x="21.21" y="120">i</tspan><tspan x="24" y="120">n hendrerit </tspan><tspan class="cls-5" x="68.84" y="120">i</tspan><tspan x="71.63" y="120">n v</tspan><tspan class="cls-8" x="83" y="120">u</tspan><tspan x="87.84" y="120">lputate v</tspan><tspan class="cls-8" x="120.44" y="120">e</tspan><tspan x="123.6" y="120">lit esse m</tspan><tspan class="cls-9" x="156.55" y="120">o</tspan><tspan x="160.15" y="120">lest</tspan><tspan class="cls-7" x="172.1" y="120">i</tspan><tspan x="174.84" y="120">e </tspan><tspan class="cls-5" x="180.25" y="120">c</tspan><tspan x="183.23" y="120">onsequat, v</tspan><tspan class="cls-8" x="224.36" y="120">e</tspan><tspan x="227.52" y="120">l </tspan><tspan class="cls-8" x="0" y="144">i</tspan><tspan class="cls-5" x="2.69" y="144">l</tspan><tspan x="5.4" y="144">l</tspan><tspan class="cls-6" x="8.26" y="144">u</tspan><tspan x="13.2" y="144">m d</tspan><tspan class="cls-7" x="28.25" y="144">o</tspan><tspan x="31.85" y="144">lore eu feugiat n</tspan><tspan class="cls-8" x="92.11" y="144">u</tspan><tspan class="cls-6" x="96.95" y="144">l</tspan><tspan x="99.66" y="144">la </tspan><tspan class="cls-11" x="109.43" y="144">f</tspan><tspan x="112.19" y="144">ac</tspan><tspan class="cls-8" x="120.23" y="144">i</tspan><tspan x="122.92" y="144">lisis at vero eros et a</tspan><tspan class="cls-5" x="195.11" y="144">c</tspan><tspan x="198.09" y="144">c</tspan><tspan class="cls-6" x="201.22" y="144">u</tspan><tspan x="206.16" y="144">ms</tspan><tspan class="cls-7" x="216.81" y="144">a</tspan><tspan x="221.52" y="144">n et </tspan><tspan x="0" y="168">iusto od</tspan><tspan class="cls-7" x="28.47" y="168">i</tspan><tspan x="31.21" y="168">o digniss</tspan><tspan class="cls-6" x="62.99" y="168">i</tspan><tspan x="65.78" y="168">m qui </tspan><tspan class="cls-7" x="90.42" y="168">b</tspan><tspan x="94.71" y="168">l</tspan><tspan class="cls-7" x="97.58" y="168">a</tspan><tspan x="102.29" y="168">ndit p</tspan><tspan class="cls-12" x="124.96" y="168">r</tspan><tspan x="128.35" y="168">aesent l</tspan><tspan class="cls-5" x="155.89" y="168">u</tspan><tspan x="160.83" y="168">ptat</tspan><tspan class="cls-6" x="175.97" y="168">u</tspan><tspan x="180.91" y="168">m zzr</tspan><tspan class="cls-8" x="202.73" y="168">i</tspan><tspan x="205.42" y="168">l d</tspan><tspan class="cls-8" x="215.44" y="168">e</tspan><tspan x="218.6" y="168">lenit </tspan><tspan class="cls-5" x="0" y="192">a</tspan><tspan x="4.76" y="192">ug</tspan><tspan class="cls-9" x="14" y="192">u</tspan><tspan x="18.89" y="192">e duis d</tspan><tspan class="cls-7" x="47.41" y="192">o</tspan><tspan x="51.01" y="192">lore te feu</tspan><tspan class="cls-7" x="86.91" y="192">ga</tspan><tspan x="95.57" y="192">it n</tspan><tspan class="cls-8" x="108.7" y="192">u</tspan><tspan class="cls-5" x="113.54" y="192">l</tspan><tspan x="116.25" y="192">la </tspan><tspan class="cls-11" x="126.02" y="192">f</tspan><tspan x="128.78" y="192">ac</tspan><tspan class="cls-8" x="136.82" y="192">i</tspan><tspan x="139.51" y="192">lisi.</tspan><tspan x="0" y="216">Lorem </tspan><tspan class="cls-5" x="26.72" y="216">i</tspan><tspan x="29.51" y="216">ps</tspan><tspan class="cls-6" x="36.66" y="216">u</tspan><tspan x="41.6" y="216">m d</tspan><tspan class="cls-7" x="56.65" y="216">o</tspan><tspan x="60.25" y="216">lor sit </tspan><tspan class="cls-7" x="83.32" y="216">a</tspan><tspan x="88.03" y="216">met, </tspan><tspan class="cls-6" x="106.4" y="216">c</tspan><tspan x="109.38" y="216">ons ectet</tspan><tspan class="cls-7" x="139" y="216">u</tspan><tspan x="143.89" y="216">er ad</tspan><tspan class="cls-6" x="163.16" y="216">i</tspan><tspan x="165.95" y="216">pisc</tspan><tspan class="cls-5" x="179.17" y="216">i</tspan><tspan x="181.96" y="216">ng </tspan><tspan class="cls-8" x="193.38" y="216">e</tspan><tspan x="196.54" y="216">lit, sed </tspan></text><rect class="cls-3" x="60.9" y="890.1" width="239.5" height="239.5"/><rect class="cls-3" x="337.3" y="890.1" width="239.5" height="239.5"/><rect class="cls-3" x="613.7" y="890.1" width="239.5" height="239.5"/><rect class="cls-3" x="890.1" y="890.1" width="239.5" height="239.5"/><g class="cls-13"><image width="1032" height="774" transform="translate(88.22 300.43)" xlink:href="../../Documents/GitHub/strumet.github.io/ex/vectors/886378_03.jpg"/></g><g class="cls-14"><image width="480" height="360" transform="translate(530.55 595.3) scale(0.81)" xlink:href="../../Documents/GitHub/strumet.github.io/ex/vectors/886378_05.jpg"/></g><text class="cls-15" transform="translate(60.9 1129.6)">Architectural Sketches</text><text class="cls-16" transform="translate(60.9 73.06)">Lorem ipsum dolor sit amet, consectetuer <tspan x="0" y="24">adipiscing elit, sed diam nonummy nibh </tspan><tspan x="0" y="48">euismod tincidunt ut laoreet dolore magna </tspan><tspan x="0" y="72">aliquam erat volutpat. Ut wisi enim ad minim </tspan><tspan x="0" y="96">veniam, quis nostrud exerci tation ullamcor</tspan><tspan x="222.6" y="96">-</tspan><tspan x="0" y="120">per suscipit lobortis nisl ut aliquip ex ea </tspan><tspan x="0" y="144">commodo consequat. Duis autem vel eum </tspan><tspan x="0" y="168">iriure dolor in hendrerit in vulputate velit esse </tspan><tspan x="0" y="192">molestie consequat, vel illum dolore eu </tspan><tspan x="0" y="216">feugiat nulla facilisis at vero eros et accumsan </tspan><tspan x="0" y="240">et iusto odio dignissim qui blandit praesent </tspan><tspan x="0" y="264">luptatum zzril delenit augue duis dolore te </tspan><tspan x="0" y="288">feugait nulla facilisi.</tspan><tspan x="0" y="312">Lorem ipsum dolor sit amet, cons ectetuer </tspan><tspan x="0" y="336">adipiscing elit, sed diam nonummy nibh </tspan><tspan x="0" y="360">euismod tincidunt ut laoreet dolore magna </tspan><tspan x="0" y="384">aliquam erat volutpat. Ut wisi enim ad minim </tspan><tspan x="0" y="408">veniam, quis nostrud exerci tation ullamcor</tspan><tspan x="222.6" y="408">-</tspan><tspan x="0" y="432">per suscipit lobortis nisl ut aliquip ex ea </tspan><tspan x="0" y="456">commodo consequat.</tspan><tspan x="0" y="480">Lorem ipsum dolor sit amet, consectetuer </tspan></text><text class="cls-16" transform="translate(163.55 625.86)">Lorem <tspan x="-56.41" y="24">ipsum dolor sit amet, con</tspan><tspan x="74.59" y="24">-</tspan><tspan x="-79.68" y="48">sectetuer adipiscing elit, sed diam </tspan><tspan x="-93.27" y="72">nonummy nibh euismod tincidunt ut </tspan><tspan x="-100.54" y="96">laoreet dolore magna aliquam erat volutpat. </tspan><tspan x="-102.02" y="120">Ut wisi enim ad minim veniam, quis nostrud </tspan><tspan x="-97.02" y="144">exerci tation ullamcorper suscipit lobortis </tspan><tspan x="-86.33" y="168">nisl ut aliquip ex ea commodo conse</tspan><tspan x="101.66" y="168">-</tspan><tspan x="-67.85" y="192">quat. Duis autem vel eum iriure </tspan><tspan x="-33.85" y="216">dolor in hendrerit </tspan></text></svg>