<svg id="Livello_1" data-name="Livello 1" xmlns="http://www.w3.org/2000/svg" xmlns:xlink="http://www.w3.org/1999/xlink" viewBox="0 0 1190.6 1190.6"><defs><style>.cls-1,.cls-18,.cls-19,.cls-3{fill:none;}.cls-2{fill:#878787;}.cls-3{stroke:#e30613;}.cls-4{clip-path:url(#clip-path);}.cls-10,.cls-11,.cls-12,.cls-13,.cls-14,.cls-15,.cls-16,.cls-17,.cls-5,.cls-7,.cls-8,.cls-9{isolation:isolate;}.cls-6{clip-path:url(#clip-path-2);}.cls-7{font-size:60px;font-family:OpenSansCondensed-Bold, Open Sans Condensed;font-weight:700;}.cls-8{font-size:16px;font-family:OpenSansCondensed-Light, Open Sans Condensed;}.cls-10,.cls-11,.cls-12,.cls-13,.cls-14,.cls-15,.cls-16,.cls-17,.cls-9{font-size:10px;font-family:EBGaramond-Italic, EB Garamond;font-style:italic;}.cls-10{letter-spacing:-0.02em;}.cls-11{letter-spacing:-0.01em;}.cls-12{letter-spacing:-0.03em;}.cls-13{letter-spacing:-0.04em;}.cls-14{letter-spacing:-0.03em;}.cls-15{letter-spacing:-0.04em;}.cls-16{letter-spacing:-0.01em;}.cls-17{letter-spacing:-0.05em;}.cls-18{stroke:#42c0f0;}.cls-19{stroke:#00a343;}</style><clipPath id="clip-path"><rect class="cls-1" x="337.3" y="613.7" width="239.5" height="239.5"/></clipPath><clipPath id="clip-path-2"><circle class="cls-1" cx="733.45" cy="733.45" r="119.75"/></clipPath></defs><title>Tavola disegno 1</title><g id="Livello_1-2" data-name="Livello 1-2"><g id="Background"><g id="Livello_1-2-2" data-name="Livello 1-2-2"><rect class="cls-2" width="1190.6" height="1190.6"/></g></g><rect class="cls-3" x="60.9" y="60.9" width="239.5" height="239.5"/><rect class="cls-3" x="337.3" y="60.9" width="239.5" height="239.5"/><rect class="cls-3" x="613.7" y="60.9" width="239.5" height="239.5"/><rect class="cls-3" x="890.1" y="60.9" width="239.5" height="239.5"/><rect class="cls-3" x="60.9" y="337.3" width="239.5" height="239.5"/><rect class="cls-3" x="337.3" y="337.3" width="239.5" height="239.5"/><rect class="cls-3" x="613.7" y="337.3" width="239.5" height="239.5"/><rect class="cls-3" x="890.1" y="337.3" width="239.5" height="239.5"/><rect class="cls-3" x="60.9" y="613.7" width="239.5" height="239.5"/><g class="cls-4"><image class="cls-5" width="1032" height="774" transform="translate(60.9 337.3)" xlink:href="../886378_03.jpg"/></g><rect class="cls-3" x="613.7" y="613.7" width="239.5" height="239.5"/><rect class="cls-3" x="890.1" y="613.7" width="239.5" height="239.5"/><rect class="cls-3" x="60.9" y="890.1" width="239.5" height="239.5"/><rect class="cls-3" x="337.3" y="890.1" width="239.5" height="239.5"/><rect class="cls-3" x="613.7" y="890.1" width="239.5" height="239.5"/><rect class="cls-3" x="890.1" y="890.1" width="239.5" height="239.5"/><g class="cls-6"><image class="cls-5" width="480" height="360" transform="translate(493.45 553.45)" xlink:href="../886378_05.jpg"/></g><text class="cls-7" transform="translate(60.9 1122.17)">Architectural Sketches</text><text class="cls-8" transform="translate(60.9 73.06)">Lorem ipsum dolor sit amet, consectetuer</text><text class="cls-8" transform="translate(60.9 97.06)">adipiscing elit, sed Lorem ipsum dolor sit</text><text class="cls-8" transform="translate(60.9 121.06)">amet, consectetuer adipiscing elit, sed diam</text><text class="cls-8" transform="translate(60.9 145.06)">nonummy nibh euismod tincidunt ut laoreet</text><text class="cls-8" transform="translate(60.9 169.06)">dolore magna aliquam erat volutpat. Ut wisi</text><text class="cls-8" transform="translate(60.9 193.06)">enim ad minim veniam, quis nostrud exerci</text><text class="cls-8" transform="translate(60.9 217.06)">tation ullamcorper Lorem ipsum dolor sit</text><text class="cls-8" transform="translate(60.9 241.06)">amet, consectetuer adipiscing elit, sed diam</text><text class="cls-8" transform="translate(60.9 265.06)">nonummy nibh euismod tincidunt ut laoreet</text><text class="cls-8" transform="translate(60.9 289.06)">dolore magna aliquam erat volutpat. Ut wisi</text><text class="cls-8" transform="translate(60.9 313.06)">enim ad minim veniam, quis nostrud exerci</text><text class="cls-8" transform="translate(60.9 337.06)">tation ullamcorper suscipit lobortis nisl ut</text><text class="cls-8" transform="translate(60.9 361.06)">aliquip ex ea commodo consequat. Duis</text><text class="cls-8" transform="translate(60.9 385.06)">autem vel eum iriure dolor in hendrerit in</text><text class="cls-8" transform="translate(60.9 409.06)">vulputate velit esse molestie consequat, vel</text><text class="cls-8" transform="translate(60.9 433.06)">illum dolore eu feugiat nulla facilisis at vero</text><text class="cls-8" transform="translate(60.9 457.06)">eros et accumsan et iusto odio dignissim qui</text><text class="cls-8" transform="translate(60.9 481.06)">blandit praesent luptatum zzril deleLorem</text><text class="cls-8" transform="translate(60.9 505.06)">ipsum dolor sit amet, consectetuer adipiscing</text><text class="cls-8" transform="translate(60.9 529.06)">elit, sed diam nonummy nibh euismod tinci</text><text class="cls-8" transform="translate(284.88 529.06)">-</text><text class="cls-8" transform="translate(60.9 553.06)">dunt ut laoreet dolore magna aliquam erat</text><text class="cls-9" transform="translate(890.1 620.75)">Lorem</text><text class="cls-10" transform="translate(916.82 620.75)">i</text><text class="cls-9" transform="translate(919.61 620.75)">ps</text><text class="cls-11" transform="translate(926.76 620.75)">u</text><text class="cls-9" transform="translate(931.7 620.75)">m d</text><text class="cls-10" transform="translate(946.75 620.75)">o</text><text class="cls-9" transform="translate(950.35 620.75)">lor sit</text><text class="cls-10" transform="translate(973.42 620.75)">a</text><text class="cls-9" transform="translate(978.13 620.75)">met,</text><text class="cls-11" transform="translate(996.5 620.75)">c</text><text class="cls-9" transform="translate(999.48 620.75)">onsectet</text><text class="cls-10" transform="translate(1027.1 620.75)">u</text><text class="cls-9" transform="translate(1031.99 620.75)">er ad</text><text class="cls-11" transform="translate(1051.26 620.75)">i</text><text class="cls-9" transform="translate(1054.05 620.75)">pisc</text><text class="cls-10" transform="translate(1067.27 620.75)">i</text><text class="cls-9" transform="translate(1070.06 620.75)">ng</text><text class="cls-12" transform="translate(1081.48 620.75)">e</text><text class="cls-9" transform="translate(1084.64 620.75)">lit, sed</text><text class="cls-9" transform="translate(890.1 644.75)">di</text><text class="cls-10" transform="translate(898.2 644.75)">a</text><text class="cls-9" transform="translate(902.91 644.75)">m non</text><text class="cls-11" transform="translate(927.14 644.75)">u</text><g class="cls-5"><text class="cls-13" transform="translate(932.08 644.75)">m</text><text class="cls-10" transform="translate(939.58 644.75)">m</text></g><text class="cls-9" transform="translate(947.46 644.75)">y n</text><text class="cls-14" transform="translate(958.78 644.75)">i</text><text class="cls-10" transform="translate(961.47 644.75)">b</text><text class="cls-9" transform="translate(965.76 644.75)">h euismod t</text><text class="cls-10" transform="translate(1008.61 644.75)">i</text><text class="cls-9" transform="translate(1011.39 644.75)">nc</text><text class="cls-10" transform="translate(1019.79 644.75)">i</text><text class="cls-9" transform="translate(1022.53 644.75)">d</text><text class="cls-11" transform="translate(1027.69 644.75)">u</text><text class="cls-9" transform="translate(1032.63 644.75)">nt ut laoreet d</text><text class="cls-10" transform="translate(1085.09 644.75)">o</text><text class="cls-9" transform="translate(1088.69 644.75)">lore</text><text class="cls-9" transform="translate(890.1 668.75)">magna</text><text class="cls-10" transform="translate(919.23 668.75)">a</text><text class="cls-9" transform="translate(923.94 668.75)">l</text><text class="cls-10" transform="translate(926.8 668.75)">i</text><text class="cls-9" transform="translate(929.54 668.75)">qu</text><text class="cls-10" transform="translate(939.36 668.75)">a</text><text class="cls-9" transform="translate(944.07 668.75)">m e</text><text class="cls-15" transform="translate(957.37 668.75)">r</text><text class="cls-9" transform="translate(960.76 668.75)">at v</text><text class="cls-10" transform="translate(974.69 668.75)">o</text><text class="cls-9" transform="translate(978.29 668.75)">lutpat. Ut wisi en</text><text class="cls-10" transform="translate(1043 668.75)">i</text><text class="cls-9" transform="translate(1045.79 668.75)">m ad m</text><text class="cls-11" transform="translate(1075.64 668.75)">i</text><text class="cls-9" transform="translate(1078.43 668.75)">n</text><text class="cls-10" transform="translate(1083.7 668.75)">i</text><text class="cls-9" transform="translate(1086.48 668.75)">m veni</text><text class="cls-10" transform="translate(1112.09 668.75)">a</text><text class="cls-9" transform="translate(1116.8 668.75)">m,</text><text class="cls-9" transform="translate(890.1 692.75)">quis nostr</text><text class="cls-10" transform="translate(926.16 692.75)">u</text><text class="cls-9" transform="translate(931.05 692.75)">d exerci tat</text><text class="cls-10" transform="translate(972.02 692.75)">i</text><text class="cls-9" transform="translate(974.76 692.75)">on</text><text class="cls-14" transform="translate(985.83 692.75)">u</text><text class="cls-10" transform="translate(990.67 692.75)">l</text><text class="cls-9" transform="translate(993.38 692.75)">l</text><text class="cls-10" transform="translate(996.24 692.75)">a</text><text class="cls-9" transform="translate(1000.95 692.75)">m</text><text class="cls-11" transform="translate(1008.84 692.75)">c</text><text class="cls-9" transform="translate(1011.82 692.75)">orper susc</text><text class="cls-10" transform="translate(1046.74 692.75)">i</text><text class="cls-9" transform="translate(1049.52 692.75)">pit l</text><text class="cls-10" transform="translate(1064.63 692.75)">o</text><text class="cls-9" transform="translate(1068.23 692.75)">bortis ni</text><text class="cls-10" transform="translate(1099.14 692.75)">s</text><text class="cls-9" transform="translate(1101.75 692.75)">l ut</text><text class="cls-10" transform="translate(890.1 716.75)">a</text><text class="cls-9" transform="translate(894.81 716.75)">l</text><text class="cls-10" transform="translate(897.67 716.75)">i</text><text class="cls-9" transform="translate(900.41 716.75)">qu</text><text class="cls-10" transform="translate(910.23 716.75)">i</text><text class="cls-9" transform="translate(913.02 716.75)">p ex ea</text><text class="cls-10" transform="translate(939.52 716.75)">c</text><text class="cls-9" transform="translate(942.5 716.75)">o</text><text class="cls-10" transform="translate(946.3 716.75)">m</text><text class="cls-9" transform="translate(953.99 716.75)">modo</text><text class="cls-10" transform="translate(976.64 716.75)">c</text><text class="cls-9" transform="translate(979.62 716.75)">onsequat. Duis</text><text class="cls-16" transform="translate(1036.97 716.75)">a</text><text class="cls-9" transform="translate(1041.73 716.75)">utem v</text><text class="cls-12" transform="translate(1067.14 716.75)">e</text><text class="cls-9" transform="translate(1070.3 716.75)">l e</text><text class="cls-10" transform="translate(1078.57 716.75)">u</text><text class="cls-9" transform="translate(1083.51 716.75)">m</text><text class="cls-10" transform="translate(1093.39 716.75)">i</text><text class="cls-9" transform="translate(1096.18 716.75)">ri</text><text class="cls-11" transform="translate(1102.91 716.75)">u</text><text class="cls-9" transform="translate(1107.85 716.75)">re</text><text class="cls-9" transform="translate(890.1 740.75)">d</text><text class="cls-10" transform="translate(895.26 740.75)">o</text><text class="cls-9" transform="translate(898.86 740.75)">lor</text><text class="cls-11" transform="translate(911.31 740.75)">i</text><text class="cls-9" transform="translate(914.1 740.75)">n hendrerit</text><text class="cls-10" transform="translate(958.94 740.75)">i</text><text class="cls-9" transform="translate(961.73 740.75)">n v</text><text class="cls-14" transform="translate(973.1 740.75)">u</text><text class="cls-9" transform="translate(977.94 740.75)">lputate v</text><text class="cls-12" transform="translate(1010.54 740.75)">e</text><text class="cls-9" transform="translate(1013.7 740.75)">lit esse m</text><text class="cls-10" transform="translate(1046.65 740.75)">o</text><text class="cls-9" transform="translate(1050.25 740.75)">lest</text><text class="cls-10" transform="translate(1062.2 740.75)">i</text><text class="cls-9" transform="translate(1064.94 740.75)">e</text><text class="cls-10" transform="translate(1070.35 740.75)">c</text><text class="cls-9" transform="translate(1073.33 740.75)">onsequat, v</text><text class="cls-12" transform="translate(1114.46 740.75)">e</text><text class="cls-9" transform="translate(1117.62 740.75)">l</text><text class="cls-14" transform="translate(890.1 764.75)">i</text><text class="cls-10" transform="translate(892.79 764.75)">l</text><text class="cls-9" transform="translate(895.5 764.75)">l</text><text class="cls-11" transform="translate(898.36 764.75)">u</text><text class="cls-9" transform="translate(903.3 764.75)">m d</text><text class="cls-10" transform="translate(918.35 764.75)">o</text><text class="cls-9" transform="translate(921.95 764.75)">lore eu feugiat n</text><text class="cls-14" transform="translate(982.21 764.75)">u</text><text class="cls-11" transform="translate(987.05 764.75)">l</text><text class="cls-9" transform="translate(989.76 764.75)">la</text><text class="cls-17" transform="translate(999.53 764.75)">f</text><text class="cls-9" transform="translate(1002.29 764.75)">ac</text><text class="cls-14" transform="translate(1010.33 764.75)">i</text><text class="cls-9" transform="translate(1013.02 764.75)">lisis at vero eros Lorem</text><text class="cls-10" transform="translate(1098.69 764.75)">i</text><text class="cls-9" transform="translate(1101.48 764.75)">ps</text><text class="cls-11" transform="translate(1108.63 764.75)">u</text><text class="cls-9" transform="translate(1113.57 764.75)">m</text><text class="cls-9" transform="translate(890.1 788.75)">d</text><text class="cls-10" transform="translate(895.26 788.75)">o</text><text class="cls-9" transform="translate(898.86 788.75)">lor sit</text><text class="cls-10" transform="translate(921.93 788.75)">a</text><text class="cls-9" transform="translate(926.64 788.75)">met,</text><text class="cls-10" transform="translate(945.01 788.75)">c</text><text class="cls-9" transform="translate(947.99 788.75)">onsectet</text><text class="cls-10" transform="translate(975.61 788.75)">u</text><text class="cls-9" transform="translate(980.5 788.75)">er ad</text><text class="cls-11" transform="translate(999.77 788.75)">i</text><text class="cls-9" transform="translate(1002.56 788.75)">pisc</text><text class="cls-10" transform="translate(1015.78 788.75)">i</text><text class="cls-9" transform="translate(1018.57 788.75)">ng</text><text class="cls-12" transform="translate(1029.99 788.75)">e</text><text class="cls-9" transform="translate(1033.15 788.75)">lit, sed di</text><text class="cls-10" transform="translate(1067.45 788.75)">a</text><text class="cls-9" transform="translate(1072.16 788.75)">m non</text><text class="cls-10" transform="translate(1096.39 788.75)">u</text><g class="cls-5"><text class="cls-13" transform="translate(1101.33 788.75)">m</text><text class="cls-10" transform="translate(1108.83 788.75)">m</text></g><text class="cls-9" transform="translate(1116.71 788.75)">y</text><text class="cls-9" transform="translate(890.1 812.75)">n</text><text class="cls-14" transform="translate(895.37 812.75)">i</text><text class="cls-10" transform="translate(898.06 812.75)">b</text><text class="cls-9" transform="translate(902.35 812.75)">h euismod t</text><text class="cls-11" transform="translate(945.2 812.75)">i</text><text class="cls-9" transform="translate(947.99 812.75)">nc</text><text class="cls-10" transform="translate(956.39 812.75)">i</text><text class="cls-9" transform="translate(959.13 812.75)">d</text><text class="cls-11" transform="translate(964.29 812.75)">u</text><text class="cls-9" transform="translate(969.23 812.75)">nt ut laoreet d</text><text class="cls-10" transform="translate(1021.69 812.75)">o</text><text class="cls-9" transform="translate(1025.29 812.75)">lore magna</text><text class="cls-10" transform="translate(1070.28 812.75)">a</text><text class="cls-9" transform="translate(1074.99 812.75)">l</text><text class="cls-10" transform="translate(1077.85 812.75)">i</text><text class="cls-9" transform="translate(1080.59 812.75)">qu</text><text class="cls-10" transform="translate(1090.41 812.75)">a</text><text class="cls-9" transform="translate(1095.12 812.75)">m e</text><text class="cls-15" transform="translate(1108.42 812.75)">r</text><text class="cls-9" transform="translate(1111.81 812.75)">at</text><text class="cls-9" transform="translate(890.1 836.75)">v</text><text class="cls-10" transform="translate(894.2 836.75)">o</text><text class="cls-9" transform="translate(897.8 836.75)">lutpat. Ut wisi en</text><text class="cls-11" transform="translate(962.51 836.75)">i</text><text class="cls-9" transform="translate(965.3 836.75)">m ad m</text><text class="cls-10" transform="translate(995.15 836.75)">i</text><text class="cls-9" transform="translate(997.94 836.75)">n</text><text class="cls-11" transform="translate(1003.21 836.75)">i</text><text class="cls-9" transform="translate(1006 836.75)">m veni</text><text class="cls-10" transform="translate(1031.6 836.75)">a</text><text class="cls-9" transform="translate(1036.31 836.75)">m, quis nostr</text><text class="cls-10" transform="translate(1084.41 836.75)">u</text><text class="cls-9" transform="translate(1089.3 836.75)">d exerci</text><text class="cls-8" transform="translate(163.57 625.86)">Lorem</text><text class="cls-8" transform="translate(107.14 649.86)">ipsum dolor sit amet, con</text><text class="cls-8" transform="translate(238.14 649.86)">-</text><text class="cls-8" transform="translate(83.87 673.86)">sectetuer adipiscing elit, sed diam</text><text class="cls-8" transform="translate(70.28 697.86)">nonummy nibh euismod tincidunt ut</text><text class="cls-8" transform="translate(63.02 721.86)">laoreet dolore magna aliquam erat volutpat.</text><text class="cls-8" transform="translate(61.54 745.86)">Ut wisi enim ad minim veniam, quis nostrud</text><text class="cls-8" transform="translate(66.53 769.86)">exerci tation ullamcorper suscipit lobortis</text><text class="cls-8" transform="translate(77.23 793.86)">nisl ut aliquip ex ea commodo conse</text><text class="cls-8" transform="translate(265.21 793.86)">-</text><text class="cls-8" transform="translate(95.71 817.86)">quat. Duis autem vel eum iriure</text><text class="cls-8" transform="translate(129.71 841.86)">dolor in hendrerit</text></g><g id="_6x6" data-name=" 6x6"><rect class="cls-18" x="60.97" y="60.97" width="147.4" height="147.4"/><rect class="cls-18" x="245.23" y="60.97" width="147.4" height="147.4"/><rect class="cls-18" x="429.48" y="60.97" width="147.4" height="147.4"/><rect class="cls-18" x="613.73" y="60.97" width="147.4" height="147.4"/><rect class="cls-18" x="797.98" y="60.97" width="147.4" height="147.4"/><rect class="cls-18" x="982.23" y="60.97" width="147.4" height="147.4"/><rect class="cls-18" x="60.97" y="245.23" width="147.4" height="147.4"/><rect class="cls-18" x="245.23" y="245.23" width="147.4" height="147.4"/><rect class="cls-18" x="429.48" y="245.23" width="147.4" height="147.4"/><rect class="cls-18" x="613.73" y="245.23" width="147.4" height="147.4"/><rect class="cls-18" x="797.98" y="245.23" width="147.4" height="147.4"/><rect class="cls-18" x="982.23" y="245.23" width="147.4" height="147.4"/><rect class="cls-18" x="60.97" y="429.48" width="147.4" height="147.4"/><rect class="cls-18" x="245.23" y="429.48" width="147.4" height="147.4"/><rect class="cls-18" x="429.48" y="429.48" width="147.4" height="147.4"/><rect class="cls-18" x="613.73" y="429.48" width="147.4" height="147.4"/><rect class="cls-18" x="797.98" y="429.48" width="147.4" height="147.4"/><rect class="cls-18" x="982.23" y="429.48" width="147.4" height="147.4"/><rect class="cls-18" x="60.97" y="613.73" width="147.4" height="147.4"/><rect class="cls-18" x="245.23" y="613.73" width="147.4" height="147.4"/><rect class="cls-18" x="429.48" y="613.73" width="147.4" height="147.4"/><rect class="cls-18" x="613.73" y="613.73" width="147.4" height="147.4"/><rect class="cls-18" x="797.98" y="613.73" width="147.4" height="147.4"/><rect class="cls-18" x="982.23" y="613.73" width="147.4" height="147.4"/><rect class="cls-18" x="60.97" y="797.98" width="147.4" height="147.4"/><rect class="cls-18" x="245.23" y="797.98" width="147.4" height="147.4"/><rect class="cls-18" x="429.48" y="797.98" width="147.4" height="147.4"/><rect class="cls-18" x="613.73" y="797.98" width="147.4" height="147.4"/><rect class="cls-18" x="797.98" y="797.98" width="147.4" height="147.4"/><rect class="cls-18" x="982.23" y="797.98" width="147.4" height="147.4"/><rect class="cls-18" x="60.97" y="982.23" width="147.4" height="147.4"/><rect class="cls-18" x="245.23" y="982.23" width="147.4" height="147.4"/><rect class="cls-18" x="429.48" y="982.23" width="147.4" height="147.4"/><rect class="cls-18" x="613.73" y="982.23" width="147.4" height="147.4"/><rect class="cls-18" x="797.98" y="982.23" width="147.4" height="147.4"/><rect class="cls-18" x="982.23" y="982.23" width="147.4" height="147.4"/></g><g id="_5x5" data-name=" 5x5"><rect class="cls-19" x="60.97" y="60.97" width="184.25" height="184.25"/><rect class="cls-19" x="282.08" y="60.97" width="184.25" height="184.25"/><rect class="cls-19" x="503.18" y="60.97" width="184.25" height="184.25"/><rect class="cls-19" x="724.28" y="60.97" width="184.25" height="184.25"/><rect class="cls-19" x="945.38" y="60.97" width="184.25" height="184.25"/><rect class="cls-19" x="60.97" y="282.08" width="184.25" height="184.25"/><rect class="cls-19" x="282.08" y="282.08" width="184.25" height="184.25"/><rect class="cls-19" x="503.18" y="282.08" width="184.25" height="184.25"/><rect class="cls-19" x="724.28" y="282.08" width="184.25" height="184.25"/><rect class="cls-19" x="945.38" y="282.08" width="184.25" height="184.25"/><rect class="cls-19" x="60.97" y="503.18" width="184.25" height="184.25"/><rect class="cls-19" x="282.08" y="503.18" width="184.25" height="184.25"/><rect class="cls-19" x="503.18" y="503.18" width="184.25" height="184.25"/><rect class="cls-19" x="724.28" y="503.18" width="184.25" height="184.25"/><rect class="cls-19" x="945.38" y="503.18" width="184.25" height="184.25"/><rect class="cls-19" x="60.97" y="724.28" width="184.25" height="184.25"/><rect class="cls-19" x="282.08" y="724.28" width="184.25" height="184.25"/><rect class="cls-19" x="503.18" y="724.28" width="184.25" height="184.25"/><rect class="cls-19" x="724.28" y="724.28" width="184.25" height="184.25"/><rect class="cls-19" x="945.38" y="724.28" width="184.25" height="184.25"/><rect class="cls-19" x="60.97" y="945.38" width="184.25" height="184.25"/><rect class="cls-19" x="282.08" y="945.38" width="184.25" height="184.25"/><rect class="cls-19" x="503.18" y="945.38" width="184.25" height="184.25"/><rect class="cls-19" x="724.28" y="945.38" width="184.25" height="184.25"/><rect class="cls-19" x="945.38" y="945.38" width="184.25" height="184.25"/></g></svg>