<svg xmlns="http://www.w3.org/2000/svg" xmlns:xlink="http://www.w3.org/1999/xlink" viewBox="0 0 1190.55 1190.55"><defs><style>.cls-1,.cls-3{fill:none;}.cls-2{fill:#878787;}.cls-3{stroke:#e30613;}.cls-4{font-size:10px;font-family:EBGaramond-Italic, EB Garamond;font-style:italic;}.cls-5{letter-spacing:-0.02em;}.cls-6{letter-spacing:-0.01em;}.cls-7{letter-spacing:-0.02em;}.cls-8{letter-spacing:-0.02em;}.cls-9{letter-spacing:-0.02em;}.cls-10{letter-spacing:-0.03em;}.cls-11{letter-spacing:0.29em;}.cls-12{letter-spacing:0.29em;}.cls-13{letter-spacing:0.16em;}.cls-14{letter-spacing:-0.04em;}.cls-15{letter-spacing:0.16em;}.cls-16{letter-spacing:0em;}.cls-17{letter-spacing:0.04em;}.cls-18{letter-spacing:0.04em;}.cls-19{letter-spacing:-0.02em;}.cls-20{letter-spacing:0.13em;}.cls-21{letter-spacing:0.13em;}.cls-22{letter-spacing:0.22em;}.cls-23{letter-spacing:0.22em;}.cls-24{letter-spacing:-0.02em;}.cls-25{letter-spacing:0em;}.cls-26{letter-spacing:-0.01em;}.cls-27{letter-spacing:0.07em;}.cls-28{letter-spacing:0.07em;}.cls-29{letter-spacing:-0.05em;}.cls-30{letter-spacing:-0.02em;}.cls-31{letter-spacing:-0.02em;}.cls-32{letter-spacing:-0.02em;}.cls-33{clip-path:url(#clip-path);}.cls-34{clip-path:url(#clip-path-2);}.cls-35{font-size:16px;font-family:OpenSansCondensed-Light, Open Sans Condensed;}.cls-36{letter-spacing:0.02em;}.cls-37{letter-spacing:0.02em;}.cls-38{letter-spacing:0.02em;}.cls-39{letter-spacing:0.02em;}.cls-40{letter-spacing:0.02em;}.cls-41{letter-spacing:0.02em;}.cls-42{font-size:60px;fill:#fff;font-family:OpenSansCondensed-Bold, Open Sans Condensed;font-weight:700;}.cls-43{letter-spacing:0.03em;}.cls-44{letter-spacing:0.58em;}.cls-45{letter-spacing:0.16em;}.cls-46{letter-spacing:0.11em;}.cls-47{letter-spacing:-0.04em;}.cls-48{letter-spacing:0.2em;}.cls-49{letter-spacing:0.3em;}.cls-50{letter-spacing:0.3em;}.cls-51{letter-spacing:0em;}.cls-52{letter-spacing:0em;}.cls-53{letter-spacing:0.16em;}.cls-54{letter-spacing:0.16em;}.cls-55{letter-spacing:0.04em;}.cls-56{letter-spacing:0.04em;}.cls-57{letter-spacing:0.03em;}.cls-58{letter-spacing:0.03em;}.cls-59{letter-spacing:-0.04em;}</style><clipPath id="clip-path"><rect class="cls-1" x="337.32" y="337.32" width="239.53" height="239.53"/></clipPath><clipPath id="clip-path-2"><circle class="cls-1" cx="1009.84" cy="457.09" r="119.76"/></clipPath></defs><title>Tavola disegno 1</title><g id="Background"><g id="Livello_1" data-name="Livello 1"><rect class="cls-2" width="1190.55" height="1190.55"/></g></g><g id="_4x4" data-name="4x4"><rect class="cls-3" x="60.94" y="60.94" width="239.53" height="239.53"/><rect class="cls-3" x="337.32" y="60.94" width="239.53" height="239.53"/><rect class="cls-3" x="613.7" y="60.94" width="239.53" height="239.53"/><rect class="cls-3" x="890.08" y="60.94" width="239.53" height="239.53"/><text class="cls-4" transform="translate(60.94 344.37)">Lorem<tspan class="cls-5" x="24.72" y="0"> </tspan><tspan class="cls-6" x="26.51" y="0">i</tspan><tspan x="29.3" y="0">ps</tspan><tspan class="cls-6" x="36.45" y="0">u</tspan><tspan x="41.39" y="0">m</tspan><tspan class="cls-5" x="49.28" y="0"> </tspan><tspan x="51.06" y="0">d</tspan><tspan class="cls-7" x="56.22" y="0">o</tspan><tspan x="59.82" y="0">lor</tspan><tspan class="cls-5" x="70.27" y="0"> </tspan><tspan x="72.06" y="0">sit</tspan><tspan class="cls-5" x="80.68" y="0"> </tspan><tspan class="cls-8" x="82.47" y="0">a</tspan><tspan x="87.18" y="0">met,</tspan><tspan class="cls-9" x="103.55" y="0"> </tspan><tspan class="cls-6" x="105.34" y="0">c</tspan><tspan x="108.32" y="0">onsectet</tspan><tspan class="cls-7" x="135.94" y="0">u</tspan><tspan x="140.83" y="0">er</tspan><tspan class="cls-5" x="148.02" y="0"> </tspan><tspan x="149.81" y="0">ad</tspan><tspan class="cls-6" x="159.88" y="0">i</tspan><tspan x="162.67" y="0">pisc</tspan><tspan class="cls-6" x="175.89" y="0">i</tspan><tspan x="178.68" y="0">ng</tspan><tspan class="cls-5" x="188.1" y="0"> </tspan><tspan class="cls-10" x="189.89" y="0">e</tspan><tspan x="193.05" y="0">lit,</tspan><tspan class="cls-5" x="203.92" y="0"> </tspan><tspan x="205.71" y="0">sed</tspan><tspan class="cls-5" x="217.04" y="0"> </tspan><tspan x="218.83" y="0">di</tspan><tspan class="cls-8" x="226.93" y="0">a</tspan><tspan x="231.64" y="0">m </tspan><tspan x="0" y="24">non</tspan><tspan class="cls-6" x="14.34" y="24">u</tspan><tspan class="cls-7" x="19.28" y="24">mm</tspan><tspan x="34.66" y="24">y</tspan><tspan class="cls-11" x="38.71" y="24"> </tspan><tspan x="43.66" y="24">n</tspan><tspan class="cls-10" x="48.93" y="24">i</tspan><tspan class="cls-8" x="51.62" y="24">b</tspan><tspan x="55.91" y="24">h</tspan><tspan class="cls-11" x="60.79" y="24"> </tspan><tspan x="65.74" y="24">euismod</tspan><tspan class="cls-11" x="96.78" y="24"> </tspan><tspan x="101.73" y="24">t</tspan><tspan class="cls-6" x="104.65" y="24">i</tspan><tspan x="107.44" y="24">nc</tspan><tspan class="cls-7" x="115.84" y="24">i</tspan><tspan x="118.58" y="24">d</tspan><tspan class="cls-6" x="123.74" y="24">u</tspan><tspan x="128.68" y="24">nt</tspan><tspan class="cls-11" x="136.87" y="24"> </tspan><tspan x="141.82" y="24">ut</tspan><tspan class="cls-11" x="149.83" y="24"> </tspan><tspan x="154.78" y="24">laoreet</tspan><tspan class="cls-11" x="179.88" y="24"> </tspan><tspan x="184.83" y="24">d</tspan><tspan class="cls-8" x="189.99" y="24">o</tspan><tspan x="193.59" y="24">lore</tspan><tspan class="cls-12" x="207.45" y="24"> </tspan><tspan x="212.4" y="24">magna </tspan><tspan class="cls-8" x="0" y="48">a</tspan><tspan x="4.71" y="48">l</tspan><tspan class="cls-7" x="7.57" y="48">i</tspan><tspan x="10.31" y="48">qu</tspan><tspan class="cls-8" x="20.13" y="48">a</tspan><tspan x="24.84" y="48">m</tspan><tspan class="cls-13" x="32.73" y="48"> </tspan><tspan x="36.33" y="48">e</tspan><tspan class="cls-14" x="39.74" y="48">r</tspan><tspan x="43.13" y="48">at</tspan><tspan class="cls-15" x="50.96" y="48"> </tspan><tspan x="54.56" y="48">v</tspan><tspan class="cls-7" x="58.66" y="48">o</tspan><tspan x="62.26" y="48">lutpat.</tspan><tspan class="cls-13" x="87.5" y="48"> </tspan><tspan x="91.1" y="48">Ut</tspan><tspan class="cls-13" x="101.02" y="48"> </tspan><tspan x="104.62" y="48">wisi</tspan><tspan class="cls-13" x="119.48" y="48"> </tspan><tspan x="123.08" y="48">en</tspan><tspan class="cls-6" x="131.76" y="48">i</tspan><tspan x="134.55" y="48">m</tspan><tspan class="cls-15" x="142.44" y="48"> </tspan><tspan x="146.04" y="48">ad</tspan><tspan class="cls-13" x="156.11" y="48"> </tspan><tspan x="159.71" y="48">m</tspan><tspan class="cls-6" x="167.6" y="48">i</tspan><tspan x="170.39" y="48">n</tspan><tspan class="cls-6" x="175.66" y="48">i</tspan><tspan x="178.45" y="48">m</tspan><tspan class="cls-13" x="186.34" y="48"> </tspan><tspan x="189.94" y="48">veni</tspan><tspan class="cls-8" x="205.66" y="48">a</tspan><tspan x="210.37" y="48">m,</tspan><tspan class="cls-15" x="220.41" y="48"> </tspan><tspan class="cls-16" x="224.01" y="48">quis </tspan><tspan x="0" y="72">nostr</tspan><tspan class="cls-8" x="18.54" y="72">u</tspan><tspan x="23.43" y="72">d</tspan><tspan class="cls-17" x="28.59" y="72"> </tspan><tspan x="30.99" y="72">exerci</tspan><tspan class="cls-17" x="52.05" y="72"> </tspan><tspan x="54.45" y="72">tat</tspan><tspan class="cls-7" x="65.2" y="72">i</tspan><tspan x="67.94" y="72">on</tspan><tspan class="cls-17" x="77.01" y="72"> </tspan><tspan class="cls-10" x="79.41" y="72">u</tspan><tspan class="cls-6" x="84.25" y="72">l</tspan><tspan x="86.96" y="72">l</tspan><tspan class="cls-8" x="89.82" y="72">a</tspan><tspan x="94.53" y="72">m</tspan><tspan class="cls-6" x="102.42" y="72">c</tspan><tspan x="105.4" y="72">orper</tspan><tspan class="cls-18" x="124.58" y="72"> </tspan><tspan x="126.98" y="72">susc</tspan><tspan class="cls-19" x="140.72" y="72">i</tspan><tspan class="cls-16" x="143.51" y="72">pit</tspan><tspan class="cls-18" x="153.76" y="72"> </tspan><tspan x="156.16" y="72">l</tspan><tspan class="cls-8" x="159.02" y="72">o</tspan><tspan x="162.62" y="72">bortis</tspan><tspan class="cls-17" x="183.32" y="72"> </tspan><tspan x="185.72" y="72">ni</tspan><tspan class="cls-6" x="193.93" y="72">s</tspan><tspan x="196.54" y="72">l</tspan><tspan class="cls-17" x="199.4" y="72"> </tspan><tspan x="201.81" y="72">ut</tspan><tspan class="cls-17" x="209.81" y="72"> </tspan><tspan class="cls-7" x="212.22" y="72">a</tspan><tspan class="cls-16" x="216.93" y="72">l</tspan><tspan class="cls-7" x="219.79" y="72">i</tspan><tspan x="222.53" y="72">qu</tspan><tspan class="cls-6" x="232.35" y="72">i</tspan><tspan x="235.14" y="72">p </tspan><tspan x="0" y="96">ex</tspan><tspan class="cls-20" x="7.79" y="96"> </tspan><tspan x="11.05" y="96">ea</tspan><tspan class="cls-20" x="19.37" y="96"> </tspan><tspan class="cls-6" x="22.63" y="96">c</tspan><tspan x="25.61" y="96">o</tspan><tspan class="cls-7" x="29.41" y="96">m</tspan><tspan x="37.1" y="96">modo</tspan><tspan class="cls-21" x="57.75" y="96"> </tspan><tspan class="cls-6" x="61.01" y="96">c</tspan><tspan x="63.99" y="96">onsequat.</tspan><tspan class="cls-20" x="99.03" y="96"> </tspan><tspan x="102.29" y="96">Duis</tspan><tspan class="cls-20" x="120.6" y="96"> </tspan><tspan class="cls-6" x="123.86" y="96">a</tspan><tspan x="128.62" y="96">utem</tspan><tspan class="cls-20" x="147.93" y="96"> </tspan><tspan x="151.19" y="96">v</tspan><tspan class="cls-10" x="155.29" y="96">e</tspan><tspan x="158.45" y="96">l</tspan><tspan class="cls-21" x="161.31" y="96"> </tspan><tspan x="164.57" y="96">e</tspan><tspan class="cls-6" x="167.98" y="96">u</tspan><tspan x="172.92" y="96">m</tspan><tspan class="cls-20" x="180.81" y="96"> </tspan><tspan class="cls-6" x="184.07" y="96">i</tspan><tspan x="186.86" y="96">ri</tspan><tspan class="cls-6" x="193.59" y="96">u</tspan><tspan x="198.53" y="96">re</tspan><tspan class="cls-20" x="205.73" y="96"> </tspan><tspan x="208.99" y="96">d</tspan><tspan class="cls-7" x="214.15" y="96">o</tspan><tspan x="217.75" y="96">lor</tspan><tspan class="cls-20" x="228.2" y="96"> </tspan><tspan class="cls-6" x="231.47" y="96">i</tspan><tspan x="234.26" y="96">n </tspan><tspan x="0" y="120">hendrerit</tspan><tspan class="cls-22" x="35.57" y="120"> </tspan><tspan class="cls-6" x="39.73" y="120">i</tspan><tspan x="42.52" y="120">n</tspan><tspan class="cls-23" x="47.79" y="120"> </tspan><tspan x="51.96" y="120">v</tspan><tspan class="cls-10" x="56.06" y="120">u</tspan><tspan x="60.9" y="120">lputate</tspan><tspan class="cls-22" x="87.4" y="120"> </tspan><tspan x="91.56" y="120">v</tspan><tspan class="cls-10" x="95.66" y="120">e</tspan><tspan x="98.82" y="120">lit</tspan><tspan class="cls-22" x="107.54" y="120"> </tspan><tspan x="111.71" y="120">esse</tspan><tspan class="cls-23" x="124.05" y="120"> </tspan><tspan x="128.21" y="120">m</tspan><tspan class="cls-8" x="136.1" y="120">o</tspan><tspan x="139.7" y="120">lest</tspan><tspan class="cls-7" x="151.65" y="120">i</tspan><tspan x="154.39" y="120">e</tspan><tspan class="cls-22" x="157.8" y="120"> </tspan><tspan class="cls-6" x="161.97" y="120">c</tspan><tspan x="164.95" y="120">onsequat,</tspan><tspan class="cls-22" x="199.99" y="120"> </tspan><tspan x="204.15" y="120">v</tspan><tspan class="cls-10" x="208.25" y="120">e</tspan><tspan x="211.41" y="120">l</tspan><tspan class="cls-22" x="214.27" y="120"> </tspan><tspan class="cls-24" x="218.44" y="120">i</tspan><tspan class="cls-6" x="221.13" y="120">l</tspan><tspan class="cls-25" x="223.84" y="120">l</tspan><tspan class="cls-26" x="226.7" y="120">u</tspan><tspan x="231.64" y="120">m </tspan><tspan x="0" y="144">d</tspan><tspan class="cls-8" x="5.16" y="144">o</tspan><tspan x="8.76" y="144">lore</tspan><tspan class="cls-27" x="22.62" y="144"> </tspan><tspan x="25.35" y="144">eu</tspan><tspan class="cls-27" x="33.85" y="144"> </tspan><tspan x="36.57" y="144">feugiat</tspan><tspan class="cls-27" x="63.2" y="144"> </tspan><tspan x="65.93" y="144">n</tspan><tspan class="cls-10" x="71.2" y="144">u</tspan><tspan class="cls-6" x="76.04" y="144">l</tspan><tspan x="78.75" y="144">la</tspan><tspan class="cls-28" x="86.52" y="144"> </tspan><tspan class="cls-29" x="89.24" y="144">f</tspan><tspan x="92" y="144">ac</tspan><tspan class="cls-10" x="100.04" y="144">i</tspan><tspan x="102.73" y="144">lisis</tspan><tspan class="cls-27" x="116.99" y="144"> </tspan><tspan x="119.72" y="144">at</tspan><tspan class="cls-27" x="127.55" y="144"> </tspan><tspan x="130.28" y="144">vero</tspan><tspan class="cls-27" x="145.38" y="144"> </tspan><tspan x="148.1" y="144">eros</tspan><tspan class="cls-27" x="161.86" y="144"> </tspan><tspan x="164.59" y="144">et</tspan><tspan class="cls-27" x="170.92" y="144"> </tspan><tspan x="173.64" y="144">a</tspan><tspan class="cls-6" x="178.55" y="144">c</tspan><tspan x="181.53" y="144">c</tspan><tspan class="cls-6" x="184.66" y="144">u</tspan><tspan x="189.6" y="144">ms</tspan><tspan class="cls-7" x="200.25" y="144">a</tspan><tspan x="204.96" y="144">n</tspan><tspan class="cls-28" x="210.23" y="144"> </tspan><tspan x="212.96" y="144">et</tspan><tspan class="cls-27" x="219.29" y="144"> </tspan><tspan x="222.02" y="144">iusto </tspan><tspan x="0" y="168">od</tspan><tspan class="cls-8" x="8.96" y="168">i</tspan><tspan x="11.7" y="168">o</tspan><tspan class="cls-30" x="15.5" y="168"> </tspan><tspan x="17.34" y="168">digniss</tspan><tspan class="cls-31" x="43.32" y="168">i</tspan><tspan x="46.11" y="168">m</tspan><tspan class="cls-30" x="54" y="168"> </tspan><tspan x="55.84" y="168">qui</tspan><tspan class="cls-30" x="68.6" y="168"> </tspan><tspan class="cls-8" x="70.44" y="168">b</tspan><tspan x="74.73" y="168">l</tspan><tspan class="cls-8" x="77.59" y="168">a</tspan><tspan x="82.3" y="168">ndit</tspan><tspan class="cls-30" x="98.59" y="168"> </tspan><tspan x="100.43" y="168">p</tspan><tspan class="cls-14" x="104.82" y="168">r</tspan><tspan x="108.21" y="168">aesent</tspan><tspan class="cls-30" x="130.89" y="168"> </tspan><tspan x="132.73" y="168">l</tspan><tspan class="cls-31" x="135.59" y="168">u</tspan><tspan x="140.53" y="168">ptat</tspan><tspan class="cls-6" x="155.67" y="168">u</tspan><tspan x="160.61" y="168">m</tspan><tspan class="cls-30" x="168.5" y="168"> </tspan><tspan x="170.34" y="168">zzr</tspan><tspan class="cls-10" x="182.27" y="168">i</tspan><tspan x="184.96" y="168">l</tspan><tspan class="cls-30" x="187.82" y="168"> </tspan><tspan x="189.67" y="168">d</tspan><tspan class="cls-10" x="194.83" y="168">e</tspan><tspan class="cls-16" x="197.98" y="168">lenit</tspan><tspan class="cls-30" x="215.38" y="168"> </tspan><tspan class="cls-26" x="217.23" y="168">a</tspan><tspan x="221.99" y="168">ug</tspan><tspan class="cls-32" x="231.23" y="168">u</tspan><tspan class="cls-25" x="236.12" y="168">e </tspan><tspan x="0" y="192">duis d</tspan><tspan class="cls-8" x="23.11" y="192">o</tspan><tspan x="26.71" y="192">lore te feu</tspan><tspan class="cls-7" x="62.61" y="192">ga</tspan><tspan x="71.27" y="192">it n</tspan><tspan class="cls-10" x="84.4" y="192">u</tspan><tspan class="cls-6" x="89.24" y="192">l</tspan><tspan x="91.95" y="192">la </tspan><tspan class="cls-29" x="101.72" y="192">f</tspan><tspan x="104.48" y="192">ac</tspan><tspan class="cls-10" x="112.52" y="192">i</tspan><tspan x="115.21" y="192">lisi.</tspan><tspan x="0" y="216">Lorem </tspan><tspan class="cls-6" x="26.72" y="216">i</tspan><tspan x="29.51" y="216">ps</tspan><tspan class="cls-6" x="36.66" y="216">u</tspan><tspan x="41.6" y="216">m d</tspan><tspan class="cls-7" x="56.65" y="216">o</tspan><tspan x="60.25" y="216">lor sit </tspan><tspan class="cls-8" x="83.32" y="216">a</tspan><tspan x="88.03" y="216">met, </tspan><tspan class="cls-6" x="106.4" y="216">c</tspan><tspan x="109.38" y="216">ons ectet</tspan><tspan class="cls-7" x="139" y="216">u</tspan><tspan x="143.89" y="216">er ad</tspan><tspan class="cls-6" x="163.16" y="216">i</tspan><tspan x="165.95" y="216">pisc</tspan><tspan class="cls-6" x="179.17" y="216">i</tspan><tspan x="181.96" y="216">ng </tspan><tspan class="cls-10" x="193.38" y="216">e</tspan><tspan x="196.53" y="216">lit, sed </tspan></text><g class="cls-33"><image width="612" height="422" transform="translate(-16.72 164.16)" xlink:href="../886378_03.jpg"/></g><rect class="cls-3" x="613.7" y="337.32" width="239.53" height="239.53"/><rect class="cls-3" x="890.08" y="337.32" width="239.53" height="239.53"/><rect class="cls-3" x="60.94" y="613.7" width="239.53" height="239.53"/><rect class="cls-3" x="337.32" y="613.7" width="239.53" height="239.53"/><rect class="cls-3" x="613.7" y="613.7" width="239.53" height="239.53"/><rect class="cls-3" x="890.08" y="613.7" width="239.53" height="239.53"/><rect class="cls-3" x="60.94" y="890.08" width="239.53" height="239.53"/><rect class="cls-3" x="337.32" y="890.08" width="239.53" height="239.53"/><rect class="cls-3" x="613.7" y="890.08" width="239.53" height="239.53"/><rect class="cls-3" x="890.08" y="890.08" width="239.53" height="239.53"/></g><g id="Circle_mask" data-name="Circle mask"><g class="cls-34"><image width="736" height="736" transform="translate(763.98 250.37) scale(0.6)" xlink:href="../886378_05.jpg"/></g></g><g id="Text"><text class="cls-35" transform="translate(60.94 219.26)">Lorem<tspan class="cls-36" x="33.02" y="0"> </tspan><tspan x="36.31" y="0">ipsum</tspan><tspan class="cls-37" x="68.31" y="0"> </tspan><tspan x="71.6" y="0">dolor</tspan><tspan class="cls-36" x="99.24" y="0"> </tspan><tspan x="102.53" y="0">sit</tspan><tspan class="cls-37" x="114.09" y="0"> </tspan><tspan x="117.38" y="0">amet,</tspan><tspan class="cls-36" x="146.76" y="0"> </tspan><tspan x="150.06" y="0">consectetuer</tspan><tspan class="cls-37" x="215.46" y="0"> </tspan><tspan x="218.75" y="0">adipiscing</tspan><tspan class="cls-36" x="270.44" y="0"> </tspan><tspan x="273.73" y="0">elit,</tspan><tspan class="cls-37" x="292.83" y="0"> </tspan><tspan x="296.12" y="0">sed</tspan><tspan class="cls-36" x="314.41" y="0"> </tspan><tspan x="317.71" y="0">diam</tspan><tspan class="cls-37" x="344" y="0"> </tspan><tspan x="347.29" y="0">nonummy</tspan><tspan class="cls-36" x="399.78" y="0"> </tspan><tspan x="403.08" y="0">nibh</tspan><tspan class="cls-37" x="426.66" y="0"> </tspan><tspan x="429.95" y="0">euismod</tspan><tspan class="cls-36" x="474.86" y="0"> </tspan><tspan x="478.16" y="0">tincidunt</tspan><tspan class="cls-37" x="523.52" y="0"> </tspan><tspan x="526.81" y="0">ut</tspan><tspan class="cls-38" x="537.12" y="0"> </tspan><tspan x="540.41" y="0">laoreet</tspan><tspan class="cls-36" x="576.61" y="0"> </tspan><tspan x="579.9" y="0">dolore</tspan><tspan class="cls-36" x="613.81" y="0"> </tspan><tspan x="617.1" y="0">magna</tspan><tspan class="cls-36" x="652.12" y="0"> </tspan><tspan x="655.41" y="0">aliquam</tspan><tspan class="cls-36" x="697.63" y="0"> </tspan><tspan x="700.93" y="0">erat</tspan><tspan class="cls-38" x="721.2" y="0"> </tspan><tspan x="724.5" y="0">volutpat.</tspan><tspan class="cls-36" x="769.46" y="0"> </tspan><tspan x="772.75" y="0">Ut</tspan><tspan class="cls-36" x="784.17" y="0"> </tspan><tspan x="787.46" y="0">wisi</tspan><tspan class="cls-36" x="807.3" y="0"> </tspan><tspan x="810.59" y="0">enim</tspan><tspan class="cls-38" x="836.85" y="0"> </tspan><tspan x="840.14" y="0">ad</tspan><tspan class="cls-36" x="853.24" y="0"> </tspan><tspan x="856.54" y="0">minim</tspan><tspan class="cls-36" x="889.71" y="0"> </tspan><tspan x="893.01" y="0">veniam,</tspan><tspan class="cls-36" x="933.79" y="0"> </tspan><tspan x="937.08" y="0">quis</tspan><tspan class="cls-38" x="958.9" y="0"> </tspan><tspan x="962.2" y="0">nostrud</tspan><tspan class="cls-36" x="1002.32" y="0"> </tspan><tspan x="1005.62" y="0">exerci</tspan><tspan class="cls-36" x="1035.78" y="0"> </tspan><tspan x="1039.08" y="0">tation </tspan><tspan x="0" y="24">ullamcorper</tspan><tspan class="cls-39" x="62.7" y="24"> </tspan><tspan x="66.03" y="24">suscipit</tspan><tspan class="cls-39" x="104.36" y="24"> </tspan><tspan x="107.69" y="24">lobortis</tspan><tspan class="cls-40" x="146.88" y="24"> </tspan><tspan x="150.2" y="24">nisl</tspan><tspan class="cls-39" x="168.05" y="24"> </tspan><tspan x="171.38" y="24">ut</tspan><tspan class="cls-39" x="181.68" y="24"> </tspan><tspan x="185.01" y="24">aliquip</tspan><tspan class="cls-39" x="220.9" y="24"> </tspan><tspan x="224.23" y="24">ex</tspan><tspan class="cls-39" x="235.78" y="24"> </tspan><tspan x="239.11" y="24">ea</tspan><tspan class="cls-40" x="251.51" y="24"> </tspan><tspan x="254.83" y="24">commodo</tspan><tspan class="cls-39" x="307.05" y="24"> </tspan><tspan x="310.37" y="24">consequat.</tspan><tspan class="cls-39" x="366.79" y="24"> </tspan><tspan x="370.11" y="24">Duis</tspan><tspan class="cls-39" x="392.73" y="24"> </tspan><tspan x="396.06" y="24">autem</tspan><tspan class="cls-39" x="428.94" y="24"> </tspan><tspan x="432.26" y="24">vel</tspan><tspan class="cls-39" x="446.65" y="24"> </tspan><tspan x="449.97" y="24">eum</tspan><tspan class="cls-40" x="473.22" y="24"> </tspan><tspan x="476.54" y="24">iriure</tspan><tspan class="cls-39" x="504.36" y="24"> </tspan><tspan x="507.69" y="24">dolor</tspan><tspan class="cls-40" x="535.32" y="24"> </tspan><tspan x="538.65" y="24">in</tspan><tspan class="cls-41" x="548.45" y="24"> </tspan><tspan x="551.78" y="24">hendrerit</tspan><tspan class="cls-40" x="600.14" y="24"> </tspan><tspan x="603.47" y="24">in</tspan><tspan class="cls-41" x="613.27" y="24"> </tspan><tspan x="616.6" y="24">vulputate</tspan><tspan class="cls-40" x="664.69" y="24"> </tspan><tspan x="668.02" y="24">velit</tspan><tspan class="cls-41" x="688.91" y="24"> </tspan><tspan x="692.24" y="24">esse</tspan><tspan class="cls-40" x="714.86" y="24"> </tspan><tspan x="718.19" y="24">molestie</tspan><tspan class="cls-40" x="762.12" y="24"> </tspan><tspan x="765.44" y="24">consequat,</tspan><tspan class="cls-41" x="821.86" y="24"> </tspan><tspan x="825.18" y="24">vel</tspan><tspan class="cls-40" x="839.56" y="24"> </tspan><tspan x="842.89" y="24">illum</tspan><tspan class="cls-41" x="868.89" y="24"> </tspan><tspan x="872.21" y="24">dolore</tspan><tspan class="cls-40" x="906.12" y="24"> </tspan><tspan x="909.44" y="24">eu</tspan><tspan class="cls-40" x="922.51" y="24"> </tspan><tspan x="925.84" y="24">feugiat</tspan><tspan class="cls-41" x="960.88" y="24"> </tspan><tspan x="964.2" y="24">nulla</tspan><tspan class="cls-40" x="989.94" y="24"> </tspan><tspan x="993.26" y="24">facilisis</tspan><tspan class="cls-41" x="1030" y="24"> </tspan><tspan x="1033.32" y="24">at</tspan><tspan class="cls-40" x="1042.95" y="24"> </tspan><tspan x="1046.28" y="24">vero </tspan><tspan x="0" y="48">eros et accumsan et iusto odio dignissim qui blandit praesent luptatum zzril delenit augue duis dolore te feugait nulla facilisi.</tspan></text><text class="cls-42" transform="translate(337.32 153.01)">Architectural Sketches</text><text class="cls-4" transform="translate(720.44 344.37)"><tspan class="cls-43">Lore</tspan><tspan x="18.15" y="0">m </tspan><tspan class="cls-31" x="-59.83" y="24">i</tspan><tspan x="-57.04" y="24">ps</tspan><tspan class="cls-26" x="-49.89" y="24">u</tspan><tspan x="-44.95" y="24">m</tspan><tspan class="cls-44" x="-37.06" y="24"> </tspan><tspan x="-29.23" y="24">d</tspan><tspan class="cls-7" x="-24.07" y="24">o</tspan><tspan x="-20.47" y="24">lor</tspan><tspan class="cls-44" x="-10.02" y="24"> </tspan><tspan x="-2.19" y="24">sit</tspan><tspan class="cls-44" x="6.43" y="24"> </tspan><tspan class="cls-7" x="14.27" y="24">a</tspan><tspan x="18.98" y="24">met,</tspan><tspan class="cls-44" x="35.35" y="24"> </tspan><tspan class="cls-26" x="43.18" y="24">c</tspan><tspan x="46.16" y="24">onsectet</tspan><tspan class="cls-7" x="73.78" y="24">u</tspan><tspan x="78.67" y="24">er </tspan><tspan x="-83.39" y="48">ad</tspan><tspan class="cls-31" x="-73.32" y="48">i</tspan><tspan x="-70.53" y="48">pisc</tspan><tspan class="cls-26" x="-57.31" y="48">i</tspan><tspan x="-54.52" y="48">ng</tspan><tspan class="cls-45" x="-45.1" y="48"> </tspan><tspan class="cls-10" x="-41.51" y="48">e</tspan><tspan x="-38.35" y="48">lit,</tspan><tspan class="cls-45" x="-27.48" y="48"> </tspan><tspan x="-23.88" y="48">sed</tspan><tspan class="cls-45" x="-12.55" y="48"> </tspan><tspan x="-8.95" y="48">di</tspan><tspan class="cls-7" x="-0.85" y="48">a</tspan><tspan x="3.86" y="48">m</tspan><tspan class="cls-45" x="11.75" y="48"> </tspan><tspan x="15.35" y="48">non</tspan><tspan class="cls-26" x="29.69" y="48">u</tspan><tspan class="cls-7" x="34.63" y="48">mm</tspan><tspan x="50" y="48">y</tspan><tspan class="cls-45" x="54.05" y="48"> </tspan><tspan x="57.65" y="48">n</tspan><tspan class="cls-10" x="62.92" y="48">i</tspan><tspan class="cls-32" x="65.61" y="48">b</tspan><tspan x="69.9" y="48">h</tspan><tspan class="cls-45" x="74.78" y="48"> </tspan><tspan x="78.38" y="48">euismod </tspan><tspan x="-97.14" y="72">t</tspan><tspan class="cls-31" x="-94.22" y="72">i</tspan><tspan x="-91.43" y="72">nc</tspan><tspan class="cls-32" x="-83.03" y="72">i</tspan><tspan x="-80.29" y="72">d</tspan><tspan class="cls-31" x="-75.13" y="72">u</tspan><tspan x="-70.19" y="72">nt</tspan><tspan class="cls-46" x="-62" y="72"> </tspan><tspan x="-58.86" y="72">ut</tspan><tspan class="cls-46" x="-50.85" y="72"> </tspan><tspan x="-47.7" y="72">laoreet</tspan><tspan class="cls-46" x="-22.6" y="72"> </tspan><tspan x="-19.45" y="72">d</tspan><tspan class="cls-7" x="-14.29" y="72">o</tspan><tspan x="-10.69" y="72">lore</tspan><tspan class="cls-46" x="3.17" y="72"> </tspan><tspan x="6.31" y="72">magna</tspan><tspan class="cls-46" x="33.44" y="72"> </tspan><tspan class="cls-32" x="36.59" y="72">a</tspan><tspan x="41.3" y="72">l</tspan><tspan class="cls-7" x="44.16" y="72">i</tspan><tspan x="46.9" y="72">qu</tspan><tspan class="cls-7" x="56.72" y="72">a</tspan><tspan x="61.43" y="72">m</tspan><tspan class="cls-46" x="69.32" y="72"> </tspan><tspan x="72.46" y="72">e</tspan><tspan class="cls-47" x="75.88" y="72">r</tspan><tspan x="79.27" y="72">at</tspan><tspan class="cls-46" x="87.1" y="72"> </tspan><tspan x="90.24" y="72">v</tspan><tspan class="cls-7" x="94.34" y="72">o</tspan><tspan x="97.94" y="72">lutpat. </tspan><tspan x="-104.53" y="96">Ut</tspan><tspan class="cls-48" x="-94.61" y="96"> </tspan><tspan x="-90.6" y="96">wisi</tspan><tspan class="cls-48" x="-75.73" y="96"> </tspan><tspan x="-71.73" y="96">en</tspan><tspan class="cls-31" x="-63.05" y="96">i</tspan><tspan x="-60.26" y="96">m</tspan><tspan class="cls-48" x="-52.37" y="96"> </tspan><tspan x="-48.36" y="96">ad</tspan><tspan class="cls-48" x="-38.29" y="96"> </tspan><tspan x="-34.29" y="96">m</tspan><tspan class="cls-26" x="-26.4" y="96">i</tspan><tspan x="-23.61" y="96">n</tspan><tspan class="cls-31" x="-18.34" y="96">i</tspan><tspan x="-15.55" y="96">m</tspan><tspan class="cls-48" x="-7.66" y="96"> </tspan><tspan x="-3.66" y="96">veni</tspan><tspan class="cls-32" x="12.06" y="96">a</tspan><tspan x="16.77" y="96">m,</tspan><tspan class="cls-48" x="26.81" y="96"> </tspan><tspan x="30.82" y="96">quis</tspan><tspan class="cls-48" x="46.34" y="96"> </tspan><tspan x="50.34" y="96">nostr</tspan><tspan class="cls-7" x="68.88" y="96">u</tspan><tspan x="73.77" y="96">d</tspan><tspan class="cls-48" x="78.93" y="96"> </tspan><tspan x="82.94" y="96">exerci</tspan><tspan class="cls-48" x="104" y="96"> </tspan><tspan x="108" y="96">tat</tspan><tspan class="cls-7" x="118.75" y="96">i</tspan><tspan x="121.49" y="96">on </tspan><tspan class="cls-10" x="-106.53" y="120">u</tspan><tspan class="cls-31" x="-101.69" y="120">l</tspan><tspan x="-98.98" y="120">l</tspan><tspan class="cls-32" x="-96.12" y="120">a</tspan><tspan x="-91.41" y="120">m</tspan><tspan class="cls-31" x="-83.52" y="120">c</tspan><tspan x="-80.54" y="120">orper</tspan><tspan class="cls-49" x="-61.36" y="120"> </tspan><tspan x="-56.39" y="120">susc</tspan><tspan class="cls-26" x="-42.65" y="120">i</tspan><tspan x="-39.86" y="120">pit</tspan><tspan class="cls-50" x="-29.61" y="120"> </tspan><tspan x="-24.64" y="120">l</tspan><tspan class="cls-7" x="-21.78" y="120">o</tspan><tspan x="-18.18" y="120">bortis</tspan><tspan class="cls-49" x="2.52" y="120"> </tspan><tspan x="7.49" y="120">ni</tspan><tspan class="cls-31" x="15.7" y="120">s</tspan><tspan x="18.31" y="120">l</tspan><tspan class="cls-49" x="21.17" y="120"> </tspan><tspan x="26.14" y="120">ut</tspan><tspan class="cls-50" x="34.15" y="120"> </tspan><tspan class="cls-32" x="39.12" y="120">a</tspan><tspan x="43.83" y="120">l</tspan><tspan class="cls-7" x="46.69" y="120">i</tspan><tspan x="49.43" y="120">qu</tspan><tspan class="cls-31" x="59.25" y="120">i</tspan><tspan x="62.04" y="120">p</tspan><tspan class="cls-49" x="66.42" y="120"> </tspan><tspan x="71.39" y="120">ex</tspan><tspan class="cls-49" x="79.18" y="120"> </tspan><tspan x="84.15" y="120">ea</tspan><tspan class="cls-49" x="92.47" y="120"> </tspan><tspan class="cls-26" x="97.44" y="120">c</tspan><tspan class="cls-51" x="100.42" y="120">o</tspan><tspan class="cls-7" x="104.22" y="120">m</tspan><tspan class="cls-52" x="111.91" y="120">modo </tspan><tspan class="cls-31" x="-102.62" y="144">c</tspan><tspan x="-99.64" y="144">onsequat.</tspan><tspan class="cls-53" x="-64.6" y="144"> </tspan><tspan x="-61.05" y="144">Duis</tspan><tspan class="cls-53" x="-42.74" y="144"> </tspan><tspan class="cls-26" x="-39.19" y="144">a</tspan><tspan x="-34.43" y="144">utem</tspan><tspan class="cls-54" x="-15.12" y="144"> </tspan><tspan x="-11.57" y="144">v</tspan><tspan class="cls-10" x="-7.47" y="144">e</tspan><tspan x="-4.31" y="144">l</tspan><tspan class="cls-53" x="-1.45" y="144"> </tspan><tspan x="2.1" y="144">e</tspan><tspan class="cls-31" x="5.51" y="144">u</tspan><tspan x="10.45" y="144">m</tspan><tspan class="cls-53" x="18.34" y="144"> </tspan><tspan class="cls-26" x="21.89" y="144">i</tspan><tspan x="24.68" y="144">ri</tspan><tspan class="cls-31" x="31.41" y="144">u</tspan><tspan x="36.35" y="144">re</tspan><tspan class="cls-53" x="43.55" y="144"> </tspan><tspan x="47.1" y="144">d</tspan><tspan class="cls-7" x="52.26" y="144">o</tspan><tspan x="55.86" y="144">lor</tspan><tspan class="cls-54" x="66.31" y="144"> </tspan><tspan class="cls-26" x="69.87" y="144">i</tspan><tspan x="72.66" y="144">n</tspan><tspan class="cls-53" x="77.92" y="144"> </tspan><tspan x="81.48" y="144">hendrerit</tspan><tspan class="cls-53" x="117.04" y="144"> </tspan><tspan class="cls-31" x="120.6" y="144">i</tspan><tspan x="123.38" y="144">n </tspan><tspan x="-93.25" y="168">v</tspan><tspan class="cls-10" x="-89.15" y="168">u</tspan><tspan x="-84.31" y="168">lputate</tspan><tspan class="cls-55" x="-57.81" y="168"> </tspan><tspan x="-55.46" y="168">v</tspan><tspan class="cls-10" x="-51.36" y="168">e</tspan><tspan x="-48.2" y="168">lit</tspan><tspan class="cls-55" x="-39.48" y="168"> </tspan><tspan x="-37.12" y="168">esse</tspan><tspan class="cls-55" x="-24.78" y="168"> </tspan><tspan x="-22.43" y="168">m</tspan><tspan class="cls-7" x="-14.54" y="168">o</tspan><tspan x="-10.94" y="168">lest</tspan><tspan class="cls-32" x="1.01" y="168">i</tspan><tspan x="3.75" y="168">e</tspan><tspan class="cls-56" x="7.16" y="168"> </tspan><tspan class="cls-31" x="9.52" y="168">c</tspan><tspan x="12.5" y="168">onsequat,</tspan><tspan class="cls-55" x="47.54" y="168"> </tspan><tspan x="49.89" y="168">v</tspan><tspan class="cls-10" x="53.99" y="168">e</tspan><tspan x="57.15" y="168">l</tspan><tspan class="cls-55" x="60.01" y="168"> </tspan><tspan class="cls-10" x="62.37" y="168">i</tspan><tspan class="cls-26" x="65.06" y="168">l</tspan><tspan x="67.77" y="168">l</tspan><tspan class="cls-31" x="70.63" y="168">u</tspan><tspan x="75.57" y="168">m</tspan><tspan class="cls-55" x="83.46" y="168"> </tspan><tspan x="85.82" y="168">d</tspan><tspan class="cls-7" x="90.98" y="168">o</tspan><tspan x="94.58" y="168">lore</tspan><tspan class="cls-55" x="108.44" y="168"> </tspan><tspan x="110.79" y="168">eu </tspan><tspan x="-76.75" y="192">feugiat</tspan><tspan class="cls-57" x="-50.12" y="192"> </tspan><tspan x="-47.79" y="192">n</tspan><tspan class="cls-10" x="-42.52" y="192">u</tspan><tspan class="cls-31" x="-37.68" y="192">l</tspan><tspan x="-34.97" y="192">la</tspan><tspan class="cls-58" x="-27.2" y="192"> </tspan><tspan class="cls-59" x="-24.87" y="192">f</tspan><tspan x="-22.11" y="192">ac</tspan><tspan class="cls-10" x="-14.07" y="192">i</tspan><tspan x="-11.38" y="192">lisis</tspan><tspan class="cls-57" x="2.88" y="192"> </tspan><tspan x="5.21" y="192">at</tspan><tspan class="cls-58" x="13.04" y="192"> </tspan><tspan x="15.37" y="192">vero</tspan><tspan class="cls-57" x="30.46" y="192"> </tspan><tspan x="32.79" y="192">eros</tspan><tspan class="cls-58" x="46.55" y="192"> </tspan><tspan x="48.88" y="192">et</tspan><tspan class="cls-57" x="55.21" y="192"> </tspan><tspan x="57.54" y="192">a</tspan><tspan class="cls-31" x="62.45" y="192">c</tspan><tspan x="65.43" y="192">c</tspan><tspan class="cls-26" x="68.56" y="192">u</tspan><tspan x="73.5" y="192">ms</tspan><tspan class="cls-7" x="84.15" y="192">a</tspan><tspan x="88.86" y="192">n</tspan><tspan class="cls-57" x="94.13" y="192"> </tspan><tspan x="96.46" y="192">et </tspan><tspan x="-47.65" y="216">iusto od</tspan><tspan class="cls-7" x="-19.18" y="216">i</tspan><tspan x="-16.44" y="216">o digniss</tspan><tspan class="cls-26" x="15.34" y="216">i</tspan><tspan x="18.13" y="216">m qui </tspan><tspan class="cls-7" x="42.77" y="216">b</tspan><tspan x="47.06" y="216">l</tspan><tspan class="cls-7" x="49.92" y="216">a</tspan><tspan x="54.63" y="216">ndit </tspan></text></g></svg>