<svg id="Livello_1" data-name="Livello 1" xmlns="http://www.w3.org/2000/svg" xmlns:xlink="http://www.w3.org/1999/xlink" viewBox="0 0 1190.6 1190.6"><defs><style>.cls-1{fill:#878787;}.cls-2{isolation:isolate;}.cls-3,.cls-4,.cls-5{fill:none;}.cls-3{stroke:#e30613;}.cls-4{stroke:#42c0f0;}.cls-5{stroke:#00a343;}</style></defs><title>Tavola disegno 1</title><g id="Background"><g id="Livello_1-2" data-name="Livello 1-2"><rect class="cls-1" width="1190.6" height="1190.6"/></g></g><image class="cls-2" width="1032" height="774" transform="translate(60.9 337.3)" xlink:href="../886378_03.jpg"/><rect class="cls-3" x="60.9" y="60.9" width="239.5" height="239.5"/><rect class="cls-3" x="337.3" y="60.9" width="239.5" height="239.5"/><rect class="cls-3" x="613.7" y="60.9" width="239.5" height="239.5"/><rect class="cls-3" x="890.1" y="60.9" width="239.5" height="239.5"/><rect class="cls-3" x="60.9" y="337.3" width="239.5" height="239.5"/><rect class="cls-3" x="337.3" y="337.3" width="239.5" height="239.5"/><rect class="cls-3" x="613.7" y="337.3" width="239.5" height="239.5"/><rect class="cls-3" x="890.1" y="337.3" width="239.5" height="239.5"/><rect class="cls-3" x="60.9" y="613.7" width="239.5" height="239.5"/><rect class="cls-3" x="337.3" y="613.7" width="239.5" height="239.5"/><rect class="cls-3" x="613.7" y="613.7" width="239.5" height="239.5"/><rect class="cls-3" x="890.1" y="613.7" width="239.5" height="239.5"/><rect class="cls-3" x="60.9" y="890.1" width="239.5" height="239.5"/><rect class="cls-3" x="337.3" y="890.1" width="239.5" height="239.5"/><rect class="cls-3" x="613.7" y="890.1" width="239.5" height="239.5"/><rect class="cls-3" x="890.1" y="890.1" width="239.5" height="239.5"/><g id="_6x6" data-name=" 6x6"><rect class="cls-4" x="60.97" y="60.97" width="147.4" height="147.4"/><rect class="cls-4" x="245.23" y="60.97" width="147.4" height="147.4"/><rect class="cls-4" x="429.48" y="60.97" width="147.4" height="147.4"/><rect class="cls-4" x="613.73" y="60.97" width="147.4" height="147.4"/><rect class="cls-4" x="797.98" y="60.97" width="147.4" height="147.4"/><rect class="cls-4" x="982.23" y="60.97" width="147.4" height="147.4"/><rect class="cls-4" x="60.97" y="245.23" width="147.4" height="147.4"/><rect class="cls-4" x="245.23" y="245.23" width="147.4" height="147.4"/><rect class="cls-4" x="429.48" y="245.23" width="147.4" height="147.4"/><rect class="cls-4" x="613.73" y="245.23" width="147.4" height="147.4"/><rect class="cls-4" x="797.98" y="245.23" width="147.4" height="147.4"/><rect class="cls-4" x="982.23" y="245.23" width="147.4" height="147.4"/><rect class="cls-4" x="60.97" y="429.48" width="147.4" height="147.4"/><rect class="cls-4" x="245.23" y="429.48" width="147.4" height="147.4"/><rect class="cls-4" x="429.48" y="429.48" width="147.4" height="147.4"/><rect class="cls-4" x="613.73" y="429.48" width="147.4" height="147.4"/><rect class="cls-4" x="797.98" y="429.48" width="147.4" height="147.4"/><rect class="cls-4" x="982.23" y="429.48" width="147.4" height="147.4"/><rect class="cls-4" x="60.97" y="613.73" width="147.4" height="147.4"/><rect class="cls-4" x="245.23" y="613.73" width="147.4" height="147.4"/><rect class="cls-4" x="429.48" y="613.73" width="147.4" height="147.4"/><rect class="cls-4" x="613.73" y="613.73" width="147.4" height="147.4"/><rect class="cls-4" x="797.98" y="613.73" width="147.4" height="147.4"/><rect class="cls-4" x="982.23" y="613.73" width="147.4" height="147.4"/><rect class="cls-4" x="60.97" y="797.98" width="147.4" height="147.4"/><rect class="cls-4" x="245.23" y="797.98" width="147.4" height="147.4"/><rect class="cls-4" x="429.48" y="797.98" width="147.4" height="147.4"/><rect class="cls-4" x="613.73" y="797.98" width="147.4" height="147.4"/><rect class="cls-4" x="797.98" y="797.98" width="147.4" height="147.4"/><rect class="cls-4" x="982.23" y="797.98" width="147.4" height="147.4"/><rect class="cls-4" x="60.97" y="982.23" width="147.4" height="147.4"/><rect class="cls-4" x="245.23" y="982.23" width="147.4" height="147.4"/><rect class="cls-4" x="429.48" y="982.23" width="147.4" height="147.4"/><rect class="cls-4" x="613.73" y="982.23" width="147.4" height="147.4"/><rect class="cls-4" x="797.98" y="982.23" width="147.4" height="147.4"/><rect class="cls-4" x="982.23" y="982.23" width="147.4" height="147.4"/></g><g id="_5x5" data-name=" 5x5"><rect class="cls-5" x="60.97" y="60.97" width="184.25" height="184.25"/><rect class="cls-5" x="282.08" y="60.97" width="184.25" height="184.25"/><rect class="cls-5" x="503.18" y="60.97" width="184.25" height="184.25"/><rect class="cls-5" x="724.28" y="60.97" width="184.25" height="184.25"/><rect class="cls-5" x="945.38" y="60.97" width="184.25" height="184.25"/><rect class="cls-5" x="60.97" y="282.08" width="184.25" height="184.25"/><rect class="cls-5" x="282.08" y="282.08" width="184.25" height="184.25"/><rect class="cls-5" x="503.18" y="282.08" width="184.25" height="184.25"/><rect class="cls-5" x="724.28" y="282.08" width="184.25" height="184.25"/><rect class="cls-5" x="945.38" y="282.08" width="184.25" height="184.25"/><rect class="cls-5" x="60.97" y="503.18" width="184.25" height="184.25"/><rect class="cls-5" x="282.08" y="503.18" width="184.25" height="184.25"/><rect class="cls-5" x="503.18" y="503.18" width="184.25" height="184.25"/><rect class="cls-5" x="724.28" y="503.18" width="184.25" height="184.25"/><rect class="cls-5" x="945.38" y="503.18" width="184.25" height="184.25"/><rect class="cls-5" x="60.97" y="724.28" width="184.25" height="184.25"/><rect class="cls-5" x="282.08" y="724.28" width="184.25" height="184.25"/><rect class="cls-5" x="503.18" y="724.28" width="184.25" height="184.25"/><rect class="cls-5" x="724.28" y="724.28" width="184.25" height="184.25"/><rect class="cls-5" x="945.38" y="724.28" width="184.25" height="184.25"/><rect class="cls-5" x="60.97" y="945.38" width="184.25" height="184.25"/><rect class="cls-5" x="282.08" y="945.38" width="184.25" height="184.25"/><rect class="cls-5" x="503.18" y="945.38" width="184.25" height="184.25"/><rect class="cls-5" x="724.28" y="945.38" width="184.25" height="184.25"/><rect class="cls-5" x="945.38" y="945.38" width="184.25" height="184.25"/></g></svg>