<svg id="Livello_1" data-name="Livello 1" xmlns="http://www.w3.org/2000/svg" xmlns:xlink="http://www.w3.org/1999/xlink" viewBox="0 0 1190.6 1190.6"><defs><style>.cls-1,.cls-3,.cls-4,.cls-5{fill:none;}.cls-2{fill:#878787;}.cls-3{stroke:#e30613;}.cls-4{stroke:#42c0f0;}.cls-5{stroke:#00a343;}.cls-6{clip-path:url(#clip-path);}.cls-7{isolation:isolate;}.cls-8{clip-path:url(#clip-path-2);}</style><clipPath id="clip-path"><rect class="cls-1" x="337.3" y="613.7" width="239.5" height="239.5"/></clipPath><clipPath id="clip-path-2"><circle class="cls-1" cx="733.45" cy="733.45" r="119.75"/></clipPath></defs><title>Tavola disegno 1</title><g id="Background"><g id="Livello_1-2" data-name="Livello 1-2"><rect class="cls-2" width="1190.6" height="1190.6"/></g></g><rect class="cls-3" x="60.9" y="60.9" width="239.5" height="239.5"/><rect class="cls-3" x="337.3" y="60.9" width="239.5" height="239.5"/><rect class="cls-3" x="613.7" y="60.9" width="239.5" height="239.5"/><rect class="cls-3" x="890.1" y="60.9" width="239.5" height="239.5"/><rect class="cls-3" x="60.9" y="337.3" width="239.5" height="239.5"/><rect class="cls-3" x="337.3" y="337.3" width="239.5" height="239.5"/><rect class="cls-3" x="613.7" y="337.3" width="239.5" height="239.5"/><rect class="cls-3" x="890.1" y="337.3" width="239.5" height="239.5"/><rect class="cls-3" x="60.9" y="613.7" width="239.5" height="239.5"/><rect class="cls-3" x="613.7" y="613.7" width="239.5" height="239.5"/><rect class="cls-3" x="890.1" y="613.7" width="239.5" height="239.5"/><rect class="cls-3" x="60.9" y="890.1" width="239.5" height="239.5"/><rect class="cls-3" x="337.3" y="890.1" width="239.5" height="239.5"/><rect class="cls-3" x="613.7" y="890.1" width="239.5" height="239.5"/><rect class="cls-3" x="890.1" y="890.1" width="239.5" height="239.5"/><g id="_6x6" data-name=" 6x6"><rect class="cls-4" x="61" y="61" width="147.4" height="147.4"/><rect class="cls-4" x="245.2" y="61" width="147.4" height="147.4"/><rect class="cls-4" x="429.5" y="61" width="147.4" height="147.4"/><rect class="cls-4" x="613.7" y="61" width="147.4" height="147.4"/><rect class="cls-4" x="798" y="61" width="147.4" height="147.4"/><rect class="cls-4" x="982.2" y="61" width="147.4" height="147.4"/><rect class="cls-4" x="61" y="245.2" width="147.4" height="147.4"/><rect class="cls-4" x="245.2" y="245.2" width="147.4" height="147.4"/><rect class="cls-4" x="429.5" y="245.2" width="147.4" height="147.4"/><rect class="cls-4" x="613.7" y="245.2" width="147.4" height="147.4"/><rect class="cls-4" x="798" y="245.2" width="147.4" height="147.4"/><rect class="cls-4" x="982.2" y="245.2" width="147.4" height="147.4"/><rect class="cls-4" x="61" y="429.5" width="147.4" height="147.4"/><rect class="cls-4" x="245.2" y="429.5" width="147.4" height="147.4"/><rect class="cls-4" x="429.5" y="429.5" width="147.4" height="147.4"/><rect class="cls-4" x="613.7" y="429.5" width="147.4" height="147.4"/><rect class="cls-4" x="798" y="429.5" width="147.4" height="147.4"/><rect class="cls-4" x="982.2" y="429.5" width="147.4" height="147.4"/><rect class="cls-4" x="61" y="613.7" width="147.4" height="147.4"/><rect class="cls-4" x="245.2" y="613.7" width="147.4" height="147.4"/><rect class="cls-4" x="429.5" y="613.7" width="147.4" height="147.4"/><rect class="cls-4" x="613.7" y="613.7" width="147.4" height="147.4"/><rect class="cls-4" x="798" y="613.7" width="147.4" height="147.4"/><rect class="cls-4" x="982.2" y="613.7" width="147.4" height="147.4"/><rect class="cls-4" x="61" y="798" width="147.4" height="147.4"/><rect class="cls-4" x="245.2" y="798" width="147.4" height="147.4"/><rect class="cls-4" x="429.5" y="798" width="147.4" height="147.4"/><rect class="cls-4" x="613.7" y="798" width="147.4" height="147.4"/><rect class="cls-4" x="798" y="798" width="147.4" height="147.4"/><rect class="cls-4" x="982.2" y="798" width="147.4" height="147.4"/><rect class="cls-4" x="61" y="982.2" width="147.4" height="147.4"/><rect class="cls-4" x="245.2" y="982.2" width="147.4" height="147.4"/><rect class="cls-4" x="429.5" y="982.2" width="147.4" height="147.4"/><rect class="cls-4" x="613.7" y="982.2" width="147.4" height="147.4"/><rect class="cls-4" x="798" y="982.2" width="147.4" height="147.4"/><rect class="cls-4" x="982.2" y="982.2" width="147.4" height="147.4"/></g><g id="_5x5" data-name=" 5x5"><rect class="cls-5" x="61" y="61" width="184.2" height="184.2"/><rect class="cls-5" x="282.1" y="61" width="184.2" height="184.2"/><rect class="cls-5" x="503.2" y="61" width="184.2" height="184.2"/><rect class="cls-5" x="724.3" y="61" width="184.2" height="184.2"/><rect class="cls-5" x="945.4" y="61" width="184.2" height="184.2"/><rect class="cls-5" x="61" y="282.1" width="184.2" height="184.2"/><rect class="cls-5" x="282.1" y="282.1" width="184.2" height="184.2"/><rect class="cls-5" x="503.2" y="282.1" width="184.2" height="184.2"/><rect class="cls-5" x="724.3" y="282.1" width="184.2" height="184.2"/><rect class="cls-5" x="945.4" y="282.1" width="184.2" height="184.2"/><rect class="cls-5" x="61" y="503.2" width="184.2" height="184.2"/><rect class="cls-5" x="282.1" y="503.2" width="184.2" height="184.2"/><rect class="cls-5" x="503.2" y="503.2" width="184.2" height="184.2"/><rect class="cls-5" x="724.3" y="503.2" width="184.2" height="184.2"/><rect class="cls-5" x="945.4" y="503.2" width="184.2" height="184.2"/><rect class="cls-5" x="61" y="724.3" width="184.2" height="184.2"/><rect class="cls-5" x="282.1" y="724.3" width="184.2" height="184.2"/><rect class="cls-5" x="503.2" y="724.3" width="184.2" height="184.2"/><rect class="cls-5" x="724.3" y="724.3" width="184.2" height="184.2"/><rect class="cls-5" x="945.4" y="724.3" width="184.2" height="184.2"/><rect class="cls-5" x="61" y="945.4" width="184.2" height="184.2"/><rect class="cls-5" x="282.1" y="945.4" width="184.2" height="184.2"/><rect class="cls-5" x="503.2" y="945.4" width="184.2" height="184.2"/><rect class="cls-5" x="724.3" y="945.4" width="184.2" height="184.2"/><rect class="cls-5" x="945.4" y="945.4" width="184.2" height="184.2"/></g><g class="cls-6"><image class="cls-7" width="1032" height="774" transform="translate(88.22 300.43)" xlink:href="886378_03.jpg"/></g><g class="cls-8"><image width="480" height="360" transform="translate(530.55 595.3) scale(0.81)" xlink:href="886378_05.jpg"/></g></svg>
