<?xml version="1.0" encoding="utf-8"?>
<!-- Generator: Adobe Illustrator 21.0.2, SVG Export Plug-In . SVG Version: 6.00 Build 0)  -->
<svg version="1.1" id="Livello_1" xmlns="http://www.w3.org/2000/svg" xmlns:xlink="http://www.w3.org/1999/xlink" x="0px" y="0px"
	 viewBox="0 0 1190.6 1190.6" style="enable-background:new 0 0 1190.6 1190.6;" xml:space="preserve">
<style type="text/css">
	.st0{fill:#4CC6CC;}
	.st1{fill:none;stroke:#FF0000;stroke-miterlimit:10;}
	.st2{fill:none;stroke:#0000FF;stroke-miterlimit:10;}
	.st3{fill:none;stroke:#39B54A;stroke-miterlimit:10;}
</style>
<title>Tavola disegno 4</title>
<rect x="1.5" y="-4.8" class="st0" width="1186.8" height="1196.7"/>
<g id="Livello_2">
	<rect x="62.3" y="63" class="st1" width="239.5" height="239.5"/>
	<rect x="338.7" y="63" class="st1" width="239.5" height="239.5"/>
	<rect x="615.1" y="63" class="st1" width="239.5" height="239.5"/>
	<rect x="891.5" y="63" class="st1" width="239.5" height="239.5"/>
	<rect x="62.3" y="339.4" class="st1" width="239.5" height="239.5"/>
	<rect x="338.7" y="339.4" class="st1" width="239.5" height="239.5"/>
	<rect x="615.1" y="339.4" class="st1" width="239.5" height="239.5"/>
	<rect x="891.5" y="339.4" class="st1" width="239.5" height="239.5"/>
	<rect x="62.3" y="615.7" class="st1" width="239.5" height="239.5"/>
	<rect x="338.7" y="615.7" class="st1" width="239.5" height="239.5"/>
	<rect x="615.1" y="615.7" class="st1" width="239.5" height="239.5"/>
	<rect x="891.5" y="615.7" class="st1" width="239.5" height="239.5"/>
	<rect x="62.3" y="892.1" class="st1" width="239.5" height="239.5"/>
	<rect x="338.7" y="892.1" class="st1" width="239.5" height="239.5"/>
	<rect x="615.1" y="892.1" class="st1" width="239.5" height="239.5"/>
	<rect x="891.5" y="892.1" class="st1" width="239.5" height="239.5"/>
</g>
<g id="Livello_3">
	<rect x="62.3" y="63" class="st2" width="184.2" height="184.2"/>
	<rect x="283.4" y="63" class="st2" width="184.2" height="184.2"/>
	<rect x="504.5" y="63" class="st2" width="184.3" height="184.2"/>
	<rect x="725.6" y="63" class="st2" width="184.2" height="184.2"/>
	<rect x="946.7" y="63" class="st2" width="184.2" height="184.2"/>
	<rect x="62.3" y="284.1" class="st2" width="184.2" height="184.2"/>
	<rect x="283.4" y="284.1" class="st2" width="184.2" height="184.2"/>
	<rect x="504.5" y="284.1" class="st2" width="184.3" height="184.2"/>
	<rect x="725.6" y="284.1" class="st2" width="184.2" height="184.2"/>
	<rect x="946.7" y="284.1" class="st2" width="184.2" height="184.2"/>
	<rect x="62.3" y="505.2" class="st2" width="184.2" height="184.2"/>
	<rect x="283.4" y="505.2" class="st2" width="184.2" height="184.2"/>
	<rect x="504.5" y="505.2" class="st2" width="184.3" height="184.2"/>
	<rect x="725.6" y="505.2" class="st2" width="184.2" height="184.2"/>
	<rect x="946.7" y="505.2" class="st2" width="184.2" height="184.2"/>
	<rect x="62.3" y="726.3" class="st2" width="184.2" height="184.2"/>
	<rect x="283.4" y="726.3" class="st2" width="184.2" height="184.2"/>
	<rect x="504.5" y="726.3" class="st2" width="184.3" height="184.2"/>
	<rect x="725.6" y="726.3" class="st2" width="184.2" height="184.2"/>
	<rect x="946.7" y="726.3" class="st2" width="184.2" height="184.2"/>
	<rect x="62.3" y="947.4" class="st2" width="184.2" height="184.2"/>
	<rect x="283.4" y="947.4" class="st2" width="184.2" height="184.2"/>
	<rect x="504.5" y="947.4" class="st2" width="184.3" height="184.2"/>
	<rect x="725.6" y="947.4" class="st2" width="184.2" height="184.2"/>
	<rect x="946.7" y="947.4" class="st2" width="184.2" height="184.2"/>
</g>
<g id="Livello_4">
	<rect x="64.3" y="63" class="st3" width="147.4" height="147.4"/>
	<rect x="248.6" y="63" class="st3" width="147.4" height="147.4"/>
	<rect x="432.8" y="63" class="st3" width="147.4" height="147.4"/>
	<rect x="617.1" y="63" class="st3" width="147.4" height="147.4"/>
	<rect x="801.3" y="63" class="st3" width="147.4" height="147.4"/>
	<rect x="985.6" y="63" class="st3" width="147.4" height="147.4"/>
	<rect x="64.3" y="247.2" class="st3" width="147.4" height="147.4"/>
	<rect x="248.6" y="247.2" class="st3" width="147.4" height="147.4"/>
	<rect x="432.8" y="247.2" class="st3" width="147.4" height="147.4"/>
	<rect x="617.1" y="247.2" class="st3" width="147.4" height="147.4"/>
	<rect x="801.3" y="247.2" class="st3" width="147.4" height="147.4"/>
	<rect x="985.6" y="247.2" class="st3" width="147.4" height="147.4"/>
	<rect x="64.3" y="431.5" class="st3" width="147.4" height="147.4"/>
	<rect x="248.6" y="431.5" class="st3" width="147.4" height="147.4"/>
	<rect x="432.8" y="431.5" class="st3" width="147.4" height="147.4"/>
	<rect x="617.1" y="431.5" class="st3" width="147.4" height="147.4"/>
	<rect x="801.3" y="431.5" class="st3" width="147.4" height="147.4"/>
	<rect x="985.6" y="431.5" class="st3" width="147.4" height="147.4"/>
	<rect x="64.3" y="615.7" class="st3" width="147.4" height="147.4"/>
	<rect x="248.6" y="615.7" class="st3" width="147.4" height="147.4"/>
	<rect x="432.8" y="615.7" class="st3" width="147.4" height="147.4"/>
	<rect x="617.1" y="615.7" class="st3" width="147.4" height="147.4"/>
	<rect x="801.3" y="615.7" class="st3" width="147.4" height="147.4"/>
	<rect x="985.6" y="615.7" class="st3" width="147.4" height="147.4"/>
	<rect x="60.3" y="800" class="st3" width="147.4" height="147.4"/>
	<rect x="244.6" y="800" class="st3" width="147.4" height="147.4"/>
	<rect x="428.8" y="800" class="st3" width="147.4" height="147.4"/>
	<rect x="613.1" y="800" class="st3" width="147.4" height="147.4"/>
	<rect x="797.3" y="800" class="st3" width="147.4" height="147.4"/>
	<rect x="981.6" y="800" class="st3" width="147.4" height="147.4"/>
	<rect x="60.3" y="984.2" class="st3" width="147.4" height="147.4"/>
	<rect x="244.6" y="984.2" class="st3" width="147.4" height="147.4"/>
	<rect x="428.8" y="984.2" class="st3" width="147.4" height="147.4"/>
	<rect x="613.1" y="984.2" class="st3" width="147.4" height="147.4"/>
	<rect x="797.3" y="984.2" class="st3" width="147.4" height="147.4"/>
	<rect x="981.6" y="984.2" class="st3" width="147.4" height="147.4"/>
</g>
<image style="overflow:visible;enable-background:new    ;" width="4032" height="3024" xlink:href="IMG_0676 3.JPG"  transform="matrix(-0.2652 0 0 -0.2652 1129.0922 866.7964)">
</image>
</svg>
