<svg id="Livello_1" data-name="Livello 1" xmlns="http://www.w3.org/2000/svg" xmlns:xlink="http://www.w3.org/1999/xlink" viewBox="0 0 1190.55 1190.55"><defs><style>.cls-1,.cls-3,.cls-4,.cls-5{fill:none;}.cls-2{fill:#4cc6cc;}.cls-3{stroke:red;}.cls-3,.cls-4,.cls-5{stroke-miterlimit:10;}.cls-4{stroke:blue;}.cls-5{stroke:#39b54a;}.cls-6{clip-path:url(#clip-path);}</style><clipPath id="clip-path"><rect class="cls-1" x="62.98" y="894.72" width="237.54" height="236.57"/></clipPath></defs><title>Tavola disegno 5</title><rect class="cls-2" x="1.46" y="-4.78" width="1186.83" height="1196.72"/><g id="Livello_2" data-name="Livello 2"><rect class="cls-3" x="62.31" y="62.98" width="239.53" height="239.53"/><rect class="cls-3" x="338.69" y="62.98" width="239.53" height="239.53"/><rect class="cls-3" x="615.07" y="62.98" width="239.53" height="239.53"/><rect class="cls-3" x="891.45" y="62.98" width="239.53" height="239.53"/><rect class="cls-3" x="62.31" y="339.36" width="239.53" height="239.53"/><rect class="cls-3" x="338.69" y="339.36" width="239.53" height="239.53"/><rect class="cls-3" x="615.07" y="339.36" width="239.53" height="239.53"/><rect class="cls-3" x="891.45" y="339.36" width="239.53" height="239.53"/><rect class="cls-3" x="62.31" y="615.74" width="239.53" height="239.53"/><rect class="cls-3" x="338.69" y="615.74" width="239.53" height="239.53"/><rect class="cls-3" x="615.07" y="615.74" width="239.53" height="239.53"/><rect class="cls-3" x="891.45" y="615.74" width="239.53" height="239.53"/><rect class="cls-3" x="62.31" y="892.12" width="239.53" height="239.53"/><rect class="cls-3" x="338.69" y="892.12" width="239.53" height="239.53"/><rect class="cls-3" x="615.07" y="892.12" width="239.53" height="239.53"/><rect class="cls-3" x="891.45" y="892.12" width="239.53" height="239.53"/></g><g id="Livello_3" data-name="Livello 3"><rect class="cls-4" x="62.31" y="62.98" width="184.25" height="184.25"/><rect class="cls-4" x="283.42" y="62.98" width="184.25" height="184.25"/><rect class="cls-4" x="504.52" y="62.98" width="184.25" height="184.25"/><rect class="cls-4" x="725.62" y="62.98" width="184.25" height="184.25"/><rect class="cls-4" x="946.72" y="62.98" width="184.25" height="184.25"/><rect class="cls-4" x="62.31" y="284.09" width="184.25" height="184.25"/><rect class="cls-4" x="283.42" y="284.09" width="184.25" height="184.25"/><rect class="cls-4" x="504.52" y="284.09" width="184.25" height="184.25"/><rect class="cls-4" x="725.62" y="284.09" width="184.25" height="184.25"/><rect class="cls-4" x="946.72" y="284.09" width="184.25" height="184.25"/><rect class="cls-4" x="62.31" y="505.19" width="184.25" height="184.25"/><rect class="cls-4" x="283.42" y="505.19" width="184.25" height="184.25"/><rect class="cls-4" x="504.52" y="505.19" width="184.25" height="184.25"/><rect class="cls-4" x="725.62" y="505.19" width="184.25" height="184.25"/><rect class="cls-4" x="946.72" y="505.19" width="184.25" height="184.25"/><rect class="cls-4" x="62.31" y="726.29" width="184.25" height="184.25"/><rect class="cls-4" x="283.42" y="726.29" width="184.25" height="184.25"/><rect class="cls-4" x="504.52" y="726.29" width="184.25" height="184.25"/><rect class="cls-4" x="725.62" y="726.29" width="184.25" height="184.25"/><rect class="cls-4" x="946.72" y="726.29" width="184.25" height="184.25"/><rect class="cls-4" x="62.31" y="947.39" width="184.25" height="184.25"/><rect class="cls-4" x="283.42" y="947.39" width="184.25" height="184.25"/><rect class="cls-4" x="504.52" y="947.39" width="184.25" height="184.25"/><rect class="cls-4" x="725.62" y="947.39" width="184.25" height="184.25"/><rect class="cls-4" x="946.72" y="947.39" width="184.25" height="184.25"/></g><g id="Livello_4" data-name="Livello 4"><rect class="cls-5" x="64.31" y="62.98" width="147.4" height="147.4"/><rect class="cls-5" x="248.57" y="62.98" width="147.4" height="147.4"/><rect class="cls-5" x="432.82" y="62.98" width="147.4" height="147.4"/><rect class="cls-5" x="617.07" y="62.98" width="147.4" height="147.4"/><rect class="cls-5" x="801.32" y="62.98" width="147.4" height="147.4"/><rect class="cls-5" x="985.57" y="62.98" width="147.4" height="147.4"/><rect class="cls-5" x="64.31" y="247.24" width="147.4" height="147.4"/><rect class="cls-5" x="248.57" y="247.24" width="147.4" height="147.4"/><rect class="cls-5" x="432.82" y="247.24" width="147.4" height="147.4"/><rect class="cls-5" x="617.07" y="247.24" width="147.4" height="147.4"/><rect class="cls-5" x="801.32" y="247.24" width="147.4" height="147.4"/><rect class="cls-5" x="985.57" y="247.24" width="147.4" height="147.4"/><rect class="cls-5" x="64.31" y="431.49" width="147.4" height="147.4"/><rect class="cls-5" x="248.57" y="431.49" width="147.4" height="147.4"/><rect class="cls-5" x="432.82" y="431.49" width="147.4" height="147.4"/><rect class="cls-5" x="617.07" y="431.49" width="147.4" height="147.4"/><rect class="cls-5" x="801.32" y="431.49" width="147.4" height="147.4"/><rect class="cls-5" x="985.57" y="431.49" width="147.4" height="147.4"/><rect class="cls-5" x="64.31" y="615.74" width="147.4" height="147.4"/><rect class="cls-5" x="248.57" y="615.74" width="147.4" height="147.4"/><rect class="cls-5" x="432.82" y="615.74" width="147.4" height="147.4"/><rect class="cls-5" x="617.07" y="615.74" width="147.4" height="147.4"/><rect class="cls-5" x="801.32" y="615.74" width="147.4" height="147.4"/><rect class="cls-5" x="985.57" y="615.74" width="147.4" height="147.4"/><rect class="cls-5" x="60.31" y="799.99" width="147.4" height="147.4"/><rect class="cls-5" x="244.57" y="799.99" width="147.4" height="147.4"/><rect class="cls-5" x="428.82" y="799.99" width="147.4" height="147.4"/><rect class="cls-5" x="613.07" y="799.99" width="147.4" height="147.4"/><rect class="cls-5" x="797.32" y="799.99" width="147.4" height="147.4"/><rect class="cls-5" x="981.57" y="799.99" width="147.4" height="147.4"/><rect class="cls-5" x="60.31" y="984.24" width="147.4" height="147.4"/><rect class="cls-5" x="244.57" y="984.24" width="147.4" height="147.4"/><rect class="cls-5" x="428.82" y="984.24" width="147.4" height="147.4"/><rect class="cls-5" x="613.07" y="984.24" width="147.4" height="147.4"/><rect class="cls-5" x="797.32" y="984.24" width="147.4" height="147.4"/><rect class="cls-5" x="981.57" y="984.24" width="147.4" height="147.4"/></g><g class="cls-6"><image width="4032" height="3024" transform="matrix(0, 0.26, -0.26, 0, 863.23, 64.3)" xlink:href="IMG_0676 3.JPG"/></g></svg>