<svg id="Livello_1" data-name="Livello 1" xmlns="http://www.w3.org/2000/svg" xmlns:xlink="http://www.w3.org/1999/xlink" viewBox="0 0 1190.6 1190.6"><defs><style>.cls-1,.cls-3,.cls-6,.cls-7{fill:none;}.cls-2{fill:#4cc6cc;}.cls-3{stroke:red;}.cls-3,.cls-6,.cls-7{stroke-miterlimit:10;}.cls-10,.cls-4,.cls-5,.cls-8{isolation:isolate;}.cls-4{font-size:15px;font-family:OpenSansCondensed-Light, Open Sans Condensed;}.cls-5{font-size:10px;font-family:EBGaramond-Italic, EB Garamond;font-style:italic;}.cls-6{stroke:blue;}.cls-7{stroke:#39b54a;}.cls-8{font-size:60px;font-family:OpenSansCondensed-Bold, Open Sans Condensed;font-weight:700;}.cls-9{clip-path:url(#clip-path);}.cls-11{clip-path:url(#clip-path-2);}</style><clipPath id="clip-path"><circle class="cls-1" cx="182.84" cy="182.57" r="121.08"/></clipPath><clipPath id="clip-path-2"><rect class="cls-1" x="63.95" y="894.19" width="237.54" height="236.57"/></clipPath></defs><title>886457_07</title><rect class="cls-2" x="1.5" y="-4.8" width="1186.8" height="1196.7"/><g id="Livello_2" data-name="Livello 2"><rect class="cls-3" x="62.3" y="63" width="239.5" height="239.5"/><rect class="cls-3" x="338.7" y="63" width="239.5" height="239.5"/><rect class="cls-3" x="615.1" y="63" width="239.5" height="239.5"/><rect class="cls-3" x="891.5" y="63" width="239.5" height="239.5"/><rect class="cls-3" x="62.3" y="339.4" width="239.5" height="239.5"/><text class="cls-4" transform="translate(338.69 350.76)">Lorem ipsum dolor sit amet, consectetuer adipi</text><text class="cls-4" transform="translate(566.62 350.76)">-</text><text class="cls-4" transform="translate(338.69 374.76)">scing elit, sed diam nonummy nibh euismod </text><text class="cls-4" transform="translate(338.69 398.76)">tincidunt ut laoreet dolore magna aliquam erat </text><text class="cls-4" transform="translate(338.69 422.76)">volutpat. Ut wisi enim ad minim veniam, quis </text><text class="cls-4" transform="translate(338.69 446.76)">nostrud exerci tation ullamcorper suscipit lobortis </text><text class="cls-4" transform="translate(338.69 470.76)">nisl ut aliquip ex ea commodo consequat. Duis </text><text class="cls-4" transform="translate(338.69 494.76)">autem vel eum iriure dolor in hendrerit in vulpu</text><text class="cls-4" transform="translate(569.96 494.76)">-</text><text class="cls-4" transform="translate(338.69 518.76)">tate velit esse molestie consequat, vel illum </text><text class="cls-4" transform="translate(338.69 542.76)">dolore eu feugiat nulla facilisis at vero eros et </text><text class="cls-4" transform="translate(338.69 566.76)">accumsan et iusto odio dignissim qui blandit</text><rect class="cls-3" x="615.1" y="339.4" width="239.5" height="239.5"/><rect class="cls-3" x="891.5" y="339.4" width="239.5" height="239.5"/><rect class="cls-3" x="62.3" y="615.7" width="239.5" height="239.5"/><rect class="cls-3" x="338.7" y="615.7" width="239.5" height="239.5"/><rect class="cls-3" x="615.1" y="615.7" width="239.5" height="239.5"/><rect class="cls-3" x="891.5" y="615.7" width="239.5" height="239.5"/><rect class="cls-3" x="62.3" y="892.1" width="239.5" height="239.5"/><text class="cls-5" transform="translate(338.69 899.17)">F</text><text class="cls-5" transform="translate(343.78 899.17)">r</text><text class="cls-5" transform="translate(347.17 899.17)">a</text><text class="cls-5" transform="translate(351.88 899.17)"><tspan xml:space="preserve">mes of  a bu</tspan></text><text class="cls-5" transform="translate(395.44 899.17)">i</text><text class="cls-5" transform="translate(398.13 899.17)">ld</text><text class="cls-5" transform="translate(406.15 899.17)">i</text><text class="cls-5" transform="translate(408.94 899.17)">ng </text><text class="cls-5" transform="translate(420.36 899.17)">i</text><text class="cls-5" transform="translate(423.15 899.17)">n N</text><text class="cls-5" transform="translate(438.13 899.17)">Y</text><text class="cls-5" transform="translate(443.68 899.17)">C</text><rect class="cls-3" x="615.1" y="892.1" width="239.5" height="239.5"/><rect class="cls-3" x="891.5" y="892.1" width="239.5" height="239.5"/></g><g id="Livello_3" data-name="Livello 3"><rect class="cls-6" x="62.3" y="63" width="184.2" height="184.2"/><rect class="cls-6" x="283.4" y="63" width="184.2" height="184.2"/><rect class="cls-6" x="504.5" y="63" width="184.3" height="184.2"/><rect class="cls-6" x="725.6" y="63" width="184.2" height="184.2"/><rect class="cls-6" x="946.7" y="63" width="184.2" height="184.2"/><rect class="cls-6" x="62.3" y="284.1" width="184.2" height="184.2"/><rect class="cls-6" x="283.4" y="284.1" width="184.2" height="184.2"/><rect class="cls-6" x="504.5" y="284.1" width="184.3" height="184.2"/><rect class="cls-6" x="725.6" y="284.1" width="184.2" height="184.2"/><rect class="cls-6" x="946.7" y="284.1" width="184.2" height="184.2"/><rect class="cls-6" x="62.3" y="505.2" width="184.2" height="184.2"/><rect class="cls-6" x="283.4" y="505.2" width="184.2" height="184.2"/><rect class="cls-6" x="504.5" y="505.2" width="184.3" height="184.2"/><rect class="cls-6" x="725.6" y="505.2" width="184.2" height="184.2"/><rect class="cls-6" x="946.7" y="505.2" width="184.2" height="184.2"/><rect class="cls-6" x="62.3" y="726.3" width="184.2" height="184.2"/><rect class="cls-6" x="283.4" y="726.3" width="184.2" height="184.2"/><rect class="cls-6" x="504.5" y="726.3" width="184.3" height="184.2"/><rect class="cls-6" x="725.6" y="726.3" width="184.2" height="184.2"/><rect class="cls-6" x="946.7" y="726.3" width="184.2" height="184.2"/><rect class="cls-6" x="62.3" y="947.4" width="184.2" height="184.2"/><rect class="cls-6" x="283.4" y="947.4" width="184.2" height="184.2"/><rect class="cls-6" x="504.5" y="947.4" width="184.3" height="184.2"/><rect class="cls-6" x="725.6" y="947.4" width="184.2" height="184.2"/><rect class="cls-6" x="946.7" y="947.4" width="184.2" height="184.2"/></g><g id="Livello_4" data-name="Livello 4"><rect class="cls-7" x="64.3" y="63" width="147.4" height="147.4"/><rect class="cls-7" x="248.6" y="63" width="147.4" height="147.4"/><text class="cls-8" transform="translate(446.57 108.58)">FRAM</text><text class="cls-8" transform="translate(529.89 168.58)">ES</text><rect class="cls-7" x="617.1" y="63" width="147.4" height="147.4"/><rect class="cls-7" x="801.3" y="63" width="147.4" height="147.4"/><rect class="cls-7" x="985.6" y="63" width="147.4" height="147.4"/><rect class="cls-7" x="64.3" y="247.2" width="147.4" height="147.4"/><rect class="cls-7" x="248.6" y="247.2" width="147.4" height="147.4"/><rect class="cls-7" x="432.8" y="247.2" width="147.4" height="147.4"/><rect class="cls-7" x="617.1" y="247.2" width="147.4" height="147.4"/><rect class="cls-7" x="801.3" y="247.2" width="147.4" height="147.4"/><rect class="cls-7" x="985.6" y="247.2" width="147.4" height="147.4"/><rect class="cls-7" x="64.3" y="431.5" width="147.4" height="147.4"/><rect class="cls-7" x="248.6" y="431.5" width="147.4" height="147.4"/><rect class="cls-7" x="432.8" y="431.5" width="147.4" height="147.4"/><rect class="cls-7" x="617.1" y="431.5" width="147.4" height="147.4"/><rect class="cls-7" x="801.3" y="431.5" width="147.4" height="147.4"/><rect class="cls-7" x="985.6" y="431.5" width="147.4" height="147.4"/><rect class="cls-7" x="64.3" y="615.7" width="147.4" height="147.4"/><rect class="cls-7" x="248.6" y="615.7" width="147.4" height="147.4"/><rect class="cls-7" x="432.8" y="615.7" width="147.4" height="147.4"/><rect class="cls-7" x="617.1" y="615.7" width="147.4" height="147.4"/><rect class="cls-7" x="801.3" y="615.7" width="147.4" height="147.4"/><rect class="cls-7" x="985.6" y="615.7" width="147.4" height="147.4"/><rect class="cls-7" x="60.3" y="800" width="147.4" height="147.4"/><rect class="cls-7" x="244.6" y="800" width="147.4" height="147.4"/><rect class="cls-7" x="428.8" y="800" width="147.4" height="147.4"/><rect class="cls-7" x="613.1" y="800" width="147.4" height="147.4"/><rect class="cls-7" x="797.3" y="800" width="147.4" height="147.4"/><rect class="cls-7" x="981.6" y="800" width="147.4" height="147.4"/><rect class="cls-7" x="60.3" y="984.2" width="147.4" height="147.4"/><rect class="cls-7" x="244.6" y="984.2" width="147.4" height="147.4"/><rect class="cls-7" x="428.8" y="984.2" width="147.4" height="147.4"/><rect class="cls-7" x="613.1" y="984.2" width="147.4" height="147.4"/><rect class="cls-7" x="797.3" y="984.2" width="147.4" height="147.4"/><rect class="cls-7" x="981.6" y="984.2" width="147.4" height="147.4"/></g><g class="cls-9"><image class="cls-10" width="4032" height="3024" transform="translate(340.09 303.76) rotate(180) scale(0.08)" xlink:href="886457_01.JPG"/></g><g class="cls-11"><image class="cls-10" width="4032" height="3024" transform="translate(995.24 1221.05) rotate(180) scale(0.26)" xlink:href="886457_02.JPG"/></g></svg>