<?xml version="1.0" encoding="utf-8"?>
<!-- Generator: Adobe Illustrator 21.0.2, SVG Export Plug-In . SVG Version: 6.00 Build 0)  -->
<svg version="1.1" id="Livello_1" xmlns="http://www.w3.org/2000/svg" xmlns:xlink="http://www.w3.org/1999/xlink" x="0px" y="0px"
	 viewBox="0 0 1190.6 1190.6" style="enable-background:new 0 0 1190.6 1190.6;" xml:space="preserve">
<style type="text/css">
	.st0{fill:#4CC6CC;}
	.st1{fill:none;stroke:#FF0000;stroke-miterlimit:10;}
	.st2{font-family:'OpenSansCondensed-Light';}
	.st3{font-size:15px;}
	.st4{font-family:'EBGaramond-Italic';}
	.st5{font-size:10px;}
	.st6{fill:none;stroke:#0000FF;stroke-miterlimit:10;}
	.st7{fill:none;stroke:#39B54A;stroke-miterlimit:10;}
	.st8{font-family:'OpenSansCondensed-Bold';}
	.st9{font-size:60px;}
	.st10{clip-path:url(#SVGID_2_);}
	.st11{clip-path:url(#SVGID_4_);}
</style>
<title>Tavola disegno 7</title>
<rect x="1.5" y="-4.8" class="st0" width="1186.8" height="1196.7"/>
<g id="Livello_2">
	<rect x="62.3" y="63" class="st1" width="239.5" height="239.5"/>
	<rect x="338.7" y="63" class="st1" width="239.5" height="239.5"/>
	<rect x="615.1" y="63" class="st1" width="239.5" height="239.5"/>
	<rect x="891.5" y="63" class="st1" width="239.5" height="239.5"/>
	<rect x="62.3" y="339.4" class="st1" width="239.5" height="239.5"/>
	<text transform="matrix(1 0 0 1 338.69 350.76)" class="st2 st3">Lorem ipsum dolor sit amet, consectetuer adipi</text>
	<text transform="matrix(1 0 0 1 566.62 350.76)" class="st2 st3">-</text>
	<text transform="matrix(1 0 0 1 338.69 374.76)" class="st2 st3">scing elit, sed diam nonummy nibh euismod </text>
	<text transform="matrix(1 0 0 1 338.69 398.76)" class="st2 st3">tincidunt ut laoreet dolore magna aliquam erat </text>
	<text transform="matrix(1 0 0 1 338.69 422.76)" class="st2 st3">volutpat. Ut wisi enim ad minim veniam, quis </text>
	<text transform="matrix(1 0 0 1 338.69 446.76)" class="st2 st3">nostrud exerci tation ullamcorper suscipit lobortis </text>
	<text transform="matrix(1 0 0 1 338.69 470.76)" class="st2 st3">nisl ut aliquip ex ea commodo consequat. Duis </text>
	<text transform="matrix(1 0 0 1 338.69 494.76)" class="st2 st3">autem vel eum iriure dolor in hendrerit in vulpu</text>
	<text transform="matrix(1 0 0 1 569.96 494.76)" class="st2 st3">-</text>
	<text transform="matrix(1 0 0 1 338.69 518.76)" class="st2 st3">tate velit esse molestie consequat, vel illum </text>
	<text transform="matrix(1 0 0 1 338.69 542.76)" class="st2 st3">dolore eu feugiat nulla facilisis at vero eros et </text>
	<text transform="matrix(1 0 0 1 338.69 566.76)" class="st2 st3">accumsan et iusto odio dignissim qui blandit</text>
	<rect x="615.1" y="339.4" class="st1" width="239.5" height="239.5"/>
	<rect x="891.5" y="339.4" class="st1" width="239.5" height="239.5"/>
	<rect x="62.3" y="615.7" class="st1" width="239.5" height="239.5"/>
	<rect x="338.7" y="615.7" class="st1" width="239.5" height="239.5"/>
	<rect x="615.1" y="615.7" class="st1" width="239.5" height="239.5"/>
	<rect x="891.5" y="615.7" class="st1" width="239.5" height="239.5"/>
	<rect x="62.3" y="892.1" class="st1" width="239.5" height="239.5"/>
	<text transform="matrix(1 0 0 1 338.69 899.17)" class="st4 st5">F</text>
	<text transform="matrix(1 0 0 1 343.78 899.17)" class="st4 st5">r</text>
	<text transform="matrix(1 0 0 1 347.17 899.17)" class="st4 st5">a</text>
	<text transform="matrix(1 0 0 1 351.88 899.17)" class="st4 st5">mes of  a bu</text>
	<text transform="matrix(1 0 0 1 395.44 899.17)" class="st4 st5">i</text>
	<text transform="matrix(1 0 0 1 398.13 899.17)" class="st4 st5">ld</text>
	<text transform="matrix(1 0 0 1 406.15 899.17)" class="st4 st5">i</text>
	<text transform="matrix(1 0 0 1 408.94 899.17)" class="st4 st5">ng </text>
	<text transform="matrix(1 0 0 1 420.36 899.17)" class="st4 st5">i</text>
	<text transform="matrix(1 0 0 1 423.15 899.17)" class="st4 st5">n N</text>
	<text transform="matrix(1 0 0 1 438.13 899.17)" class="st4 st5">Y</text>
	<text transform="matrix(1 0 0 1 443.68 899.17)" class="st4 st5">C</text>
	<rect x="615.1" y="892.1" class="st1" width="239.5" height="239.5"/>
	<rect x="891.5" y="892.1" class="st1" width="239.5" height="239.5"/>
</g>
<g id="Livello_3">
	<rect x="62.3" y="63" class="st6" width="184.2" height="184.2"/>
	<rect x="283.4" y="63" class="st6" width="184.2" height="184.2"/>
	<rect x="504.5" y="63" class="st6" width="184.3" height="184.2"/>
	<rect x="725.6" y="63" class="st6" width="184.2" height="184.2"/>
	<rect x="946.7" y="63" class="st6" width="184.2" height="184.2"/>
	<rect x="62.3" y="284.1" class="st6" width="184.2" height="184.2"/>
	<rect x="283.4" y="284.1" class="st6" width="184.2" height="184.2"/>
	<rect x="504.5" y="284.1" class="st6" width="184.3" height="184.2"/>
	<rect x="725.6" y="284.1" class="st6" width="184.2" height="184.2"/>
	<rect x="946.7" y="284.1" class="st6" width="184.2" height="184.2"/>
	<rect x="62.3" y="505.2" class="st6" width="184.2" height="184.2"/>
	<rect x="283.4" y="505.2" class="st6" width="184.2" height="184.2"/>
	<rect x="504.5" y="505.2" class="st6" width="184.3" height="184.2"/>
	<rect x="725.6" y="505.2" class="st6" width="184.2" height="184.2"/>
	<rect x="946.7" y="505.2" class="st6" width="184.2" height="184.2"/>
	<rect x="62.3" y="726.3" class="st6" width="184.2" height="184.2"/>
	<rect x="283.4" y="726.3" class="st6" width="184.2" height="184.2"/>
	<rect x="504.5" y="726.3" class="st6" width="184.3" height="184.2"/>
	<rect x="725.6" y="726.3" class="st6" width="184.2" height="184.2"/>
	<rect x="946.7" y="726.3" class="st6" width="184.2" height="184.2"/>
	<rect x="62.3" y="947.4" class="st6" width="184.2" height="184.2"/>
	<rect x="283.4" y="947.4" class="st6" width="184.2" height="184.2"/>
	<rect x="504.5" y="947.4" class="st6" width="184.3" height="184.2"/>
	<rect x="725.6" y="947.4" class="st6" width="184.2" height="184.2"/>
	<rect x="946.7" y="947.4" class="st6" width="184.2" height="184.2"/>
</g>
<g id="Livello_4">
	<rect x="64.3" y="63" class="st7" width="147.4" height="147.4"/>
	<rect x="248.6" y="63" class="st7" width="147.4" height="147.4"/>
	<text transform="matrix(1 0 0 1 446.57 108.58)" class="st8 st9">FRAM</text>
	<text transform="matrix(1 0 0 1 529.89 168.58)" class="st8 st9">ES</text>
	<rect x="617.1" y="63" class="st7" width="147.4" height="147.4"/>
	<rect x="801.3" y="63" class="st7" width="147.4" height="147.4"/>
	<rect x="985.6" y="63" class="st7" width="147.4" height="147.4"/>
	<rect x="64.3" y="247.2" class="st7" width="147.4" height="147.4"/>
	<rect x="248.6" y="247.2" class="st7" width="147.4" height="147.4"/>
	<rect x="432.8" y="247.2" class="st7" width="147.4" height="147.4"/>
	<rect x="617.1" y="247.2" class="st7" width="147.4" height="147.4"/>
	<rect x="801.3" y="247.2" class="st7" width="147.4" height="147.4"/>
	<rect x="985.6" y="247.2" class="st7" width="147.4" height="147.4"/>
	<rect x="64.3" y="431.5" class="st7" width="147.4" height="147.4"/>
	<rect x="248.6" y="431.5" class="st7" width="147.4" height="147.4"/>
	<rect x="432.8" y="431.5" class="st7" width="147.4" height="147.4"/>
	<rect x="617.1" y="431.5" class="st7" width="147.4" height="147.4"/>
	<rect x="801.3" y="431.5" class="st7" width="147.4" height="147.4"/>
	<rect x="985.6" y="431.5" class="st7" width="147.4" height="147.4"/>
	<rect x="64.3" y="615.7" class="st7" width="147.4" height="147.4"/>
	<rect x="248.6" y="615.7" class="st7" width="147.4" height="147.4"/>
	<rect x="432.8" y="615.7" class="st7" width="147.4" height="147.4"/>
	<rect x="617.1" y="615.7" class="st7" width="147.4" height="147.4"/>
	<rect x="801.3" y="615.7" class="st7" width="147.4" height="147.4"/>
	<rect x="985.6" y="615.7" class="st7" width="147.4" height="147.4"/>
	<rect x="60.3" y="800" class="st7" width="147.4" height="147.4"/>
	<rect x="244.6" y="800" class="st7" width="147.4" height="147.4"/>
	<rect x="428.8" y="800" class="st7" width="147.4" height="147.4"/>
	<rect x="613.1" y="800" class="st7" width="147.4" height="147.4"/>
	<rect x="797.3" y="800" class="st7" width="147.4" height="147.4"/>
	<rect x="981.6" y="800" class="st7" width="147.4" height="147.4"/>
	<rect x="60.3" y="984.2" class="st7" width="147.4" height="147.4"/>
	<rect x="244.6" y="984.2" class="st7" width="147.4" height="147.4"/>
	<rect x="428.8" y="984.2" class="st7" width="147.4" height="147.4"/>
	<rect x="613.1" y="984.2" class="st7" width="147.4" height="147.4"/>
	<rect x="797.3" y="984.2" class="st7" width="147.4" height="147.4"/>
	<rect x="981.6" y="984.2" class="st7" width="147.4" height="147.4"/>
</g>
<g>
	<defs>
		<rect id="SVGID_1_" x="63" y="894.7" width="237.5" height="236.6"/>
	</defs>
	<clipPath id="SVGID_2_">
		<use xlink:href="#SVGID_1_"  style="overflow:visible;"/>
	</clipPath>
	<g class="st10">
		
			<image style="overflow:visible;enable-background:new    ;" width="4032" height="3024" xlink:href="IMG_0676 3.JPG"  transform="matrix(3.100469e-09 0.26 -0.26 3.100469e-09 841.1143 292.8284)">
		</image>
	</g>
</g>
<g>
	<defs>
		<circle id="SVGID_3_" cx="184.1" cy="184" r="121.1"/>
	</defs>
	<clipPath id="SVGID_4_">
		<use xlink:href="#SVGID_3_"  style="overflow:visible;"/>
	</clipPath>
	<g class="st11">
		
			<image style="overflow:visible;enable-background:new    ;" width="4032" height="3024" xlink:href="IMG_2859 3.JPG"  transform="matrix(1.652105e-09 0.1385 -0.1385 1.652105e-09 301.0099 22.98)">
		</image>
	</g>
</g>
</svg>
