<svg xmlns="http://www.w3.org/2000/svg" viewBox="0 0 1191.55 1191.55"><defs><style>.cls-1{fill:#fecc26;stroke:#f09131;}.cls-1,.cls-2,.cls-3,.cls-4,.cls-5{stroke-miterlimit:10;}.cls-2{fill:#323e99;stroke:#323e99;}.cls-3,.cls-4,.cls-5{fill:none;}.cls-3{stroke:#00ab50;}.cls-4{stroke:#b3273f;}.cls-5{stroke:#313996;}</style></defs><title>886430_01</title><g id="Sfondo"><rect class="cls-1" x="0.5" y="0.5" width="1190.55" height="1190.55"/></g><g id="_4x4" data-name="4x4"><path class="cls-2" d="M46.49,2" transform="translate(0.5 0.5)"/><path class="cls-2" d="M0,2" transform="translate(0.5 0.5)"/><path class="cls-2" d="M0,48.49" transform="translate(0.5 0.5)"/><path class="cls-2" d="M0,2" transform="translate(0.5 0.5)"/><rect class="cls-3" x="61.21" y="61.53" width="239.53" height="239.53"/><path class="cls-2" d="M619.47,49.08" transform="translate(0.5 0.5)"/><path class="cls-2" d="M572.38,50.26" transform="translate(0.5 0.5)"/><rect class="cls-3" x="337.71" y="61.53" width="239.53" height="239.53"/><path class="cls-2" d="M46.37,572.48" transform="translate(0.5 0.5)"/><rect class="cls-3" x="61.21" y="337.5" width="239.53" height="239.53"/><rect class="cls-3" x="337.95" y="337.5" width="239.53" height="239.53"/><rect class="cls-3" x="613.71" y="61.53" width="239.53" height="239.53"/><path class="cls-2" d="M1192.68,49.67" transform="translate(0.5 0.5)"/><path class="cls-2" d="M1146.2,49.67" transform="translate(0.5 0.5)"/><rect class="cls-3" x="889.61" y="61.53" width="239.53" height="239.53"/><path class="cls-2" d="M620.18,571.89" transform="translate(0.5 0.5)"/><rect class="cls-3" x="614.71" y="337.5" width="239.53" height="239.53"/><rect class="cls-3" x="890.61" y="337.21" width="239.53" height="239.53"/><rect class="cls-3" x="60.43" y="614.94" width="239.53" height="239.53"/><path class="cls-2" d="M618.68,602.48" transform="translate(0.5 0.5)"/><path class="cls-2" d="M571.6,603.66" transform="translate(0.5 0.5)"/><rect class="cls-3" x="337.92" y="614.94" width="239.53" height="239.53"/><path class="cls-2" d="M45.59,1125.89" transform="translate(0.5 0.5)"/><rect class="cls-3" x="60.43" y="889.91" width="239.53" height="239.53"/><rect class="cls-3" x="338.16" y="890.91" width="239.53" height="239.53"/><rect class="cls-3" x="612.93" y="614.94" width="239.53" height="239.53"/><path class="cls-2" d="M1145.41,603.07" transform="translate(0.5 0.5)"/><rect class="cls-3" x="890.83" y="614.94" width="239.53" height="239.53"/><path class="cls-2" d="M619.4,1125.3" transform="translate(0.5 0.5)"/><rect class="cls-3" x="614.93" y="890.91" width="239.53" height="239.53"/><rect class="cls-3" x="890.83" y="890.61" width="239.53" height="239.53"/></g><g id="_5x5" data-name="5x5"><rect class="cls-4" x="61.82" y="61.26" width="184.25" height="184.25"/><rect class="cls-4" x="282.82" y="61.26" width="184.25" height="184.25"/><rect class="cls-4" x="503.51" y="61.61" width="184.25" height="184.25"/><rect class="cls-4" x="724.87" y="61.26" width="184.25" height="184.25"/><rect class="cls-4" x="945.82" y="61.26" width="184.25" height="184.25"/><rect class="cls-4" x="61.65" y="282.65" width="184.25" height="184.25"/><rect class="cls-4" x="503.33" y="283" width="184.25" height="184.25"/><rect class="cls-4" x="724.69" y="282.65" width="184.25" height="184.25"/><rect class="cls-4" x="945.65" y="282.65" width="184.25" height="184.25"/><rect class="cls-4" x="61.65" y="503.32" width="184.25" height="184.25"/><rect class="cls-4" x="282.65" y="503.32" width="184.25" height="184.25"/><rect class="cls-4" x="503.33" y="503.68" width="184.25" height="184.25"/><rect class="cls-4" x="724.69" y="503.32" width="184.25" height="184.25"/><rect class="cls-4" x="945.65" y="503.32" width="184.25" height="184.25"/><rect class="cls-4" x="282.33" y="724.35" width="184.25" height="184.25"/><rect class="cls-4" x="503.02" y="724.7" width="184.25" height="184.25"/><rect class="cls-4" x="724.38" y="724.35" width="184.25" height="184.25"/><rect class="cls-4" x="945.33" y="724.35" width="184.25" height="184.25"/><rect class="cls-4" x="61.33" y="945.02" width="184.25" height="184.25"/><rect class="cls-4" x="282.33" y="945.02" width="184.25" height="184.25"/><rect class="cls-4" x="503.02" y="945.38" width="184.25" height="184.25"/><rect class="cls-4" x="724.38" y="945.02" width="184.25" height="184.25"/><rect class="cls-4" x="945.33" y="945.02" width="184.25" height="184.25"/><rect class="cls-4" x="282.82" y="282.29" width="184.25" height="184.25"/></g><g id="_6x6" data-name="6x6"><rect class="cls-5" x="61.35" y="61.62" width="147.4" height="147.4"/><rect class="cls-5" x="245.08" y="61.62" width="147.4" height="147.4"/><rect class="cls-5" x="429.83" y="61.62" width="147.4" height="147.4"/><rect class="cls-5" x="61.84" y="245.02" width="147.4" height="147.4"/><rect class="cls-5" x="245.57" y="245.02" width="147.4" height="147.4"/><rect class="cls-5" x="430.32" y="245.02" width="147.4" height="147.4"/><rect class="cls-5" x="61.33" y="429.41" width="147.4" height="147.4"/><rect class="cls-5" x="245.05" y="429.41" width="147.4" height="147.4"/><rect class="cls-5" x="429.8" y="429.41" width="147.4" height="147.4"/><rect class="cls-5" x="60.93" y="614.14" width="147.4" height="147.4"/><rect class="cls-5" x="244.65" y="614.14" width="147.4" height="147.4"/><rect class="cls-5" x="429.4" y="614.14" width="147.4" height="147.4"/><rect class="cls-5" x="61.41" y="797.53" width="147.4" height="147.4"/><rect class="cls-5" x="245.14" y="797.53" width="147.4" height="147.4"/><rect class="cls-5" x="429.89" y="797.53" width="147.4" height="147.4"/><rect class="cls-5" x="60.9" y="981.93" width="147.4" height="147.4"/><rect class="cls-5" x="244.62" y="981.93" width="147.4" height="147.4"/><rect class="cls-5" x="429.38" y="981.93" width="147.4" height="147.4"/><rect class="cls-5" x="614.67" y="61.77" width="147.4" height="147.4"/><rect class="cls-5" x="798.39" y="61.77" width="147.4" height="147.4"/><rect class="cls-5" x="983.14" y="61.77" width="147.4" height="147.4"/><rect class="cls-5" x="615.15" y="245.17" width="147.4" height="147.4"/><rect class="cls-5" x="798.88" y="245.17" width="147.4" height="147.4"/><rect class="cls-5" x="983.63" y="245.17" width="147.4" height="147.4"/><rect class="cls-5" x="614.64" y="429.56" width="147.4" height="147.4"/><rect class="cls-5" x="798.36" y="429.56" width="147.4" height="147.4"/><rect class="cls-5" x="983.12" y="429.56" width="147.4" height="147.4"/><rect class="cls-5" x="614.24" y="614.29" width="147.4" height="147.4"/><rect class="cls-5" x="797.96" y="614.29" width="147.4" height="147.4"/><rect class="cls-5" x="982.72" y="614.29" width="147.4" height="147.4"/><rect class="cls-5" x="614.73" y="797.68" width="147.4" height="147.4"/><rect class="cls-5" x="798.45" y="797.68" width="147.4" height="147.4"/><rect class="cls-5" x="983.2" y="797.68" width="147.4" height="147.4"/><rect class="cls-5" x="614.21" y="982.08" width="147.4" height="147.4"/><rect class="cls-5" x="797.94" y="982.08" width="147.4" height="147.4"/><rect class="cls-5" x="982.69" y="982.08" width="147.4" height="147.4"/></g></svg>