<svg xmlns="http://www.w3.org/2000/svg" viewBox="0 0 1191.55 1191.55"><defs><style>.cls-1{fill:#fecc26;stroke:#f09131;}.cls-1,.cls-2,.cls-3,.cls-4{stroke-miterlimit:10;}.cls-2,.cls-3,.cls-4{fill:none;}.cls-2{stroke:#00ab50;}.cls-3{stroke:#b3273f;}.cls-4{stroke:#313996;}</style></defs><title>886430_01</title><g id="Sfondo"><rect class="cls-1" x="0.5" y="0.5" width="1190.55" height="1190.55"/></g><g id="_4x4" data-name="4x4"><rect class="cls-2" x="61.44" y="61.44" width="239.53" height="239.53"/><rect class="cls-2" x="337.82" y="61.2" width="239.53" height="239.53"/><rect class="cls-2" x="614.2" y="61.44" width="239.53" height="239.53"/><rect class="cls-2" x="890.58" y="61.44" width="239.53" height="239.53"/><rect class="cls-2" x="61.44" y="337.44" width="239.53" height="239.53"/><rect class="cls-2" x="337.82" y="337.2" width="239.53" height="239.53"/><rect class="cls-2" x="614.2" y="337.44" width="239.53" height="239.53"/><rect class="cls-2" x="890.58" y="337.2" width="239.53" height="239.53"/><rect class="cls-2" x="61.44" y="614.2" width="239.53" height="239.53"/><rect class="cls-2" x="337.82" y="613.96" width="239.53" height="239.53"/><rect class="cls-2" x="614.2" y="614.2" width="239.53" height="239.53"/><rect class="cls-2" x="890.58" y="613.96" width="239.53" height="239.53"/><rect class="cls-2" x="61.44" y="890.2" width="239.53" height="239.53"/><rect class="cls-2" x="337.82" y="889.96" width="239.53" height="239.53"/><rect class="cls-2" x="614.2" y="889.96" width="239.53" height="239.53"/><rect class="cls-2" x="890.58" y="889.96" width="239.53" height="239.53"/></g><g id="_5x5" data-name="5x5"><rect class="cls-3" x="61.44" y="61.44" width="184.25" height="184.25"/><rect class="cls-3" x="61.44" y="282.55" width="184.25" height="184.25"/><rect class="cls-3" x="61.44" y="503.66" width="184.25" height="184.25"/><rect class="cls-3" x="61.44" y="724.75" width="184.25" height="184.25"/><rect class="cls-3" x="61.44" y="945.48" width="184.25" height="184.25"/><rect class="cls-3" x="282.55" y="61.45" width="184.25" height="184.25"/><rect class="cls-3" x="282.55" y="282.56" width="184.25" height="184.25"/><rect class="cls-3" x="282.55" y="503.67" width="184.25" height="184.25"/><rect class="cls-3" x="282.55" y="724.76" width="184.25" height="184.25"/><rect class="cls-3" x="282.55" y="945.23" width="184.25" height="184.25"/><rect class="cls-3" x="504.37" y="61.45" width="184.25" height="184.25"/><rect class="cls-3" x="504.37" y="282.56" width="184.25" height="184.25"/><rect class="cls-3" x="504.37" y="503.67" width="184.25" height="184.25"/><rect class="cls-3" x="504.37" y="724.76" width="184.25" height="184.25"/><rect class="cls-3" x="504.37" y="945.23" width="184.25" height="184.25"/><rect class="cls-3" x="724.75" y="61.45" width="184.25" height="184.25"/><rect class="cls-3" x="724.75" y="282.56" width="184.25" height="184.25"/><rect class="cls-3" x="724.75" y="503.67" width="184.25" height="184.25"/><rect class="cls-3" x="724.75" y="724.76" width="184.25" height="184.25"/><rect class="cls-3" x="724.75" y="945.23" width="184.25" height="184.25"/><rect class="cls-3" x="945.85" y="61.45" width="184.25" height="184.25"/><rect class="cls-3" x="945.85" y="282.56" width="184.25" height="184.25"/><rect class="cls-3" x="945.85" y="503.67" width="184.25" height="184.25"/><rect class="cls-3" x="945.85" y="724.76" width="184.25" height="184.25"/><rect class="cls-3" x="945.85" y="945.23" width="184.25" height="184.25"/></g><g id="_6x6" data-name="6x6"><rect class="cls-4" x="61.44" y="61.44" width="147.4" height="147.4"/><rect class="cls-4" x="245.7" y="61.44" width="147.4" height="147.4"/><rect class="cls-4" x="429.95" y="61.44" width="147.4" height="147.4"/><rect class="cls-4" x="614.2" y="61.44" width="147.4" height="147.4"/><rect class="cls-4" x="798.45" y="61.44" width="147.4" height="147.4"/><rect class="cls-4" x="982.7" y="61.44" width="147.4" height="147.4"/><rect class="cls-4" x="61.44" y="245.7" width="147.4" height="147.4"/><rect class="cls-4" x="245.7" y="245.7" width="147.4" height="147.4"/><rect class="cls-4" x="429.95" y="245.7" width="147.4" height="147.4"/><rect class="cls-4" x="614.2" y="245.7" width="147.4" height="147.4"/><rect class="cls-4" x="798.45" y="245.69" width="147.4" height="147.4"/><rect class="cls-4" x="982.7" y="245.7" width="147.4" height="147.4"/><rect class="cls-4" x="61.44" y="429.95" width="147.4" height="147.4"/><rect class="cls-4" x="245.7" y="429.95" width="147.4" height="147.4"/><rect class="cls-4" x="429.95" y="429.95" width="147.4" height="147.4"/><rect class="cls-4" x="614.2" y="429.32" width="147.4" height="147.4"/><rect class="cls-4" x="798.45" y="429.32" width="147.4" height="147.4"/><rect class="cls-4" x="982.7" y="429.32" width="147.4" height="147.4"/><rect class="cls-4" x="61.44" y="614.2" width="147.4" height="147.4"/><rect class="cls-4" x="245.7" y="614.2" width="147.4" height="147.4"/><rect class="cls-4" x="429.95" y="614.2" width="147.4" height="147.4"/><rect class="cls-4" x="614.2" y="614.2" width="147.4" height="147.4"/><rect class="cls-4" x="798.45" y="614.2" width="147.4" height="147.4"/><rect class="cls-4" x="982.7" y="614.2" width="147.4" height="147.4"/><rect class="cls-4" x="61.44" y="797.83" width="147.4" height="147.4"/><rect class="cls-4" x="245.7" y="797.83" width="147.4" height="147.4"/><rect class="cls-4" x="429.95" y="797.83" width="147.4" height="147.4"/><rect class="cls-4" x="614.2" y="797.83" width="147.4" height="147.4"/><rect class="cls-4" x="798.45" y="797.83" width="147.4" height="147.4"/><rect class="cls-4" x="982.7" y="797.83" width="147.4" height="147.4"/><rect class="cls-4" x="61.44" y="982.7" width="147.4" height="147.4"/><rect class="cls-4" x="245.7" y="982.08" width="147.4" height="147.4"/><rect class="cls-4" x="429.95" y="982.08" width="147.4" height="147.4"/><rect class="cls-4" x="614.2" y="982.08" width="147.4" height="147.4"/><rect class="cls-4" x="798.45" y="982.08" width="147.4" height="147.4"/><rect class="cls-4" x="982.7" y="982.08" width="147.4" height="147.4"/></g></svg>