<svg xmlns="http://www.w3.org/2000/svg" xmlns:xlink="http://www.w3.org/1999/xlink" viewBox="0 0 1190.55 1190.55"><defs><style>.cls-1,.cls-3,.cls-4,.cls-5{fill:none;}.cls-2{fill:#cbbba0;}.cls-3{stroke:#e52521;}.cls-3,.cls-4,.cls-5{stroke-miterlimit:10;}.cls-4{stroke:#2b4b9b;}.cls-5{stroke:#48ae4d;}.cls-6{clip-path:url(#clip-path);}.cls-7{clip-path:url(#clip-path-2);}</style><clipPath id="clip-path"><rect class="cls-1" x="884.3" y="892.42" width="239.53" height="239.53"/></clipPath><clipPath id="clip-path-2"><circle class="cls-1" cx="262.54" cy="340.16" r="203"/></clipPath></defs><title>886457_05</title><g id="Livello_2" data-name="Livello 2"><rect class="cls-2" x="2.55" y="2.47" width="1190.38" height="1190.38"/></g><g id="Livello_1" data-name="Livello 1"><g id="Livello_2-2" data-name="Livello 2"><rect class="cls-3" x="58.98" y="62.67" width="239.53" height="239.53"/><rect class="cls-3" x="335.36" y="62.67" width="239.53" height="239.53"/><rect class="cls-3" x="611.74" y="62.67" width="239.53" height="239.53"/><rect class="cls-3" x="888.12" y="62.67" width="239.53" height="239.53"/><rect class="cls-3" x="58.98" y="339.05" width="239.53" height="239.53"/><rect class="cls-3" x="335.36" y="339.05" width="239.53" height="239.53"/><rect class="cls-3" x="611.74" y="339.05" width="239.53" height="239.53"/><rect class="cls-3" x="888.12" y="339.05" width="239.53" height="239.53"/><rect class="cls-3" x="58.98" y="615.43" width="239.53" height="239.53"/><rect class="cls-3" x="335.36" y="615.43" width="239.53" height="239.53"/><rect class="cls-3" x="611.74" y="615.43" width="239.53" height="239.53"/><rect class="cls-3" x="888.12" y="615.43" width="239.53" height="239.53"/><rect class="cls-3" x="58.98" y="891.81" width="239.53" height="239.53"/><rect class="cls-3" x="335.36" y="891.81" width="239.53" height="239.53"/><rect class="cls-3" x="611.74" y="891.81" width="239.53" height="239.53"/><rect class="cls-3" x="888.12" y="891.81" width="239.53" height="239.53"/></g><g id="Livello_3" data-name="Livello 3"><rect class="cls-4" x="58.98" y="62.67" width="184.25" height="184.25"/><rect class="cls-4" x="280.09" y="62.67" width="184.25" height="184.25"/><rect class="cls-4" x="501.19" y="62.67" width="184.25" height="184.25"/><rect class="cls-4" x="722.29" y="62.67" width="184.25" height="184.25"/><rect class="cls-4" x="943.39" y="62.67" width="184.25" height="184.25"/><rect class="cls-4" x="58.98" y="283.78" width="184.25" height="184.25"/><rect class="cls-4" x="280.09" y="283.78" width="184.25" height="184.25"/><rect class="cls-4" x="501.19" y="283.78" width="184.25" height="184.25"/><rect class="cls-4" x="722.29" y="283.78" width="184.25" height="184.25"/><rect class="cls-4" x="943.39" y="283.78" width="184.25" height="184.25"/><rect class="cls-4" x="58.98" y="504.88" width="184.25" height="184.25"/><rect class="cls-4" x="280.09" y="504.88" width="184.25" height="184.25"/><rect class="cls-4" x="501.19" y="504.88" width="184.25" height="184.25"/><rect class="cls-4" x="722.29" y="504.88" width="184.25" height="184.25"/><rect class="cls-4" x="943.39" y="504.88" width="184.25" height="184.25"/><rect class="cls-4" x="58.98" y="725.98" width="184.25" height="184.25"/><rect class="cls-4" x="280.09" y="725.98" width="184.25" height="184.25"/><rect class="cls-4" x="501.19" y="725.98" width="184.25" height="184.25"/><rect class="cls-4" x="722.29" y="725.98" width="184.25" height="184.25"/><rect class="cls-4" x="943.39" y="725.98" width="184.25" height="184.25"/><rect class="cls-4" x="58.98" y="947.08" width="184.25" height="184.25"/><rect class="cls-4" x="280.09" y="947.08" width="184.25" height="184.25"/><rect class="cls-4" x="501.19" y="947.08" width="184.25" height="184.25"/><rect class="cls-4" x="722.29" y="947.08" width="184.25" height="184.25"/><rect class="cls-4" x="943.39" y="947.08" width="184.25" height="184.25"/></g><g id="Livello_4" data-name="Livello 4"><rect class="cls-5" x="60.98" y="62.67" width="147.4" height="147.4"/><rect class="cls-5" x="245.24" y="62.67" width="147.4" height="147.4"/><rect class="cls-5" x="429.49" y="62.67" width="147.4" height="147.4"/><rect class="cls-5" x="613.74" y="62.67" width="147.4" height="147.4"/><rect class="cls-5" x="797.99" y="62.67" width="147.4" height="147.4"/><rect class="cls-5" x="982.24" y="62.67" width="147.4" height="147.4"/><rect class="cls-5" x="60.98" y="246.93" width="147.4" height="147.4"/><rect class="cls-5" x="245.24" y="246.93" width="147.4" height="147.4"/><rect class="cls-5" x="429.49" y="246.93" width="147.4" height="147.4"/><rect class="cls-5" x="613.74" y="246.93" width="147.4" height="147.4"/><rect class="cls-5" x="797.99" y="246.93" width="147.4" height="147.4"/><rect class="cls-5" x="982.24" y="246.93" width="147.4" height="147.4"/><rect class="cls-5" x="60.98" y="431.18" width="147.4" height="147.4"/><rect class="cls-5" x="245.24" y="431.18" width="147.4" height="147.4"/><rect class="cls-5" x="429.49" y="431.18" width="147.4" height="147.4"/><rect class="cls-5" x="613.74" y="431.18" width="147.4" height="147.4"/><rect class="cls-5" x="797.99" y="431.18" width="147.4" height="147.4"/><rect class="cls-5" x="982.24" y="431.18" width="147.4" height="147.4"/><rect class="cls-5" x="60.98" y="615.43" width="147.4" height="147.4"/><rect class="cls-5" x="245.24" y="615.43" width="147.4" height="147.4"/><rect class="cls-5" x="429.49" y="615.43" width="147.4" height="147.4"/><rect class="cls-5" x="613.74" y="615.43" width="147.4" height="147.4"/><rect class="cls-5" x="797.99" y="615.43" width="147.4" height="147.4"/><rect class="cls-5" x="982.24" y="615.43" width="147.4" height="147.4"/><rect class="cls-5" x="56.98" y="799.68" width="147.4" height="147.4"/><rect class="cls-5" x="241.24" y="799.68" width="147.4" height="147.4"/><rect class="cls-5" x="425.49" y="799.68" width="147.4" height="147.4"/><rect class="cls-5" x="609.74" y="799.68" width="147.4" height="147.4"/><rect class="cls-5" x="793.99" y="799.68" width="147.4" height="147.4"/><rect class="cls-5" x="978.24" y="799.68" width="147.4" height="147.4"/><rect class="cls-5" x="56.98" y="983.93" width="147.4" height="147.4"/><rect class="cls-5" x="241.24" y="983.93" width="147.4" height="147.4"/><rect class="cls-5" x="425.49" y="983.93" width="147.4" height="147.4"/><rect class="cls-5" x="609.74" y="983.93" width="147.4" height="147.4"/><rect class="cls-5" x="793.99" y="983.93" width="147.4" height="147.4"/><rect class="cls-5" x="978.24" y="983.93" width="147.4" height="147.4"/></g><g class="cls-6"><image width="4032" height="3024" transform="translate(1124.83 596.63) rotate(90) scale(0.13)" xlink:href="../Documents/GitHub/strumet.github.io/ex/vectors/886457_02.JPG"/></g></g><g id="Livello_3-2" data-name="Livello 3"><g class="cls-7"><image width="4032" height="3024" transform="translate(464.67 62.67) rotate(90) scale(0.13)" xlink:href="../Documents/GitHub/strumet.github.io/ex/vectors/886457_01.JPG"/></g></g></svg>