<svg xmlns="http://www.w3.org/2000/svg" xmlns:xlink="http://www.w3.org/1999/xlink" viewBox="0 0 1190.55 1190.55"><defs><style>.cls-1,.cls-3,.cls-4,.cls-5{fill:none;}.cls-2{fill:#cbbba0;}.cls-3{stroke:#e52521;}.cls-3,.cls-4,.cls-5{stroke-miterlimit:10;}.cls-4{stroke:#2b4b9b;}.cls-5{stroke:#48ae4d;}.cls-6{clip-path:url(#clip-path);}.cls-7{font-size:10px;font-family:EBGaramond-Italic, EB Garamond;font-style:italic;}.cls-40,.cls-41,.cls-7{fill:#1d1d1b;}.cls-8{letter-spacing:0.04em;}.cls-9{letter-spacing:-0.01em;}.cls-10{letter-spacing:0.26em;}.cls-11{letter-spacing:-0.02em;}.cls-12{letter-spacing:0.26em;}.cls-13{letter-spacing:-0.02em;}.cls-14{letter-spacing:0.56em;}.cls-15{letter-spacing:-0.03em;}.cls-16{letter-spacing:-0.02em;}.cls-17{letter-spacing:0.22em;}.cls-18{letter-spacing:0.22em;}.cls-19{letter-spacing:0em;}.cls-20{letter-spacing:-0.04em;}.cls-21{letter-spacing:0.05em;}.cls-22{letter-spacing:0.05em;}.cls-23{letter-spacing:-0.02em;}.cls-24{letter-spacing:0.12em;}.cls-25{letter-spacing:0em;}.cls-26{letter-spacing:-0.03em;}.cls-27{letter-spacing:-0.03em;}.cls-28{letter-spacing:0.2em;}.cls-29{letter-spacing:0.2em;}.cls-30{letter-spacing:0.14em;}.cls-31{letter-spacing:-0.05em;}.cls-32{letter-spacing:0.14em;}.cls-33{letter-spacing:0.2em;}.cls-34{letter-spacing:0.2em;}.cls-35{letter-spacing:-0.04em;}.cls-36{letter-spacing:-0.04em;}.cls-37{letter-spacing:0.43em;}.cls-38{letter-spacing:0.43em;}.cls-39{clip-path:url(#clip-path-2);}.cls-40{font-size:60px;font-family:OpenSansCondensed-Bold, Open Sans Condensed;font-weight:700;}.cls-41{font-size:16px;font-family:OpenSansCondensed-Light, Open Sans Condensed;}.cls-42{letter-spacing:0.06em;}.cls-43{letter-spacing:0.06em;}.cls-44{letter-spacing:0.03em;}.cls-45{letter-spacing:0.03em;}.cls-46{letter-spacing:0em;}.cls-47{letter-spacing:0em;}.cls-48{letter-spacing:0.06em;}.cls-49{letter-spacing:0.06em;}.cls-50{letter-spacing:0em;}.cls-51{letter-spacing:0em;}.cls-52{letter-spacing:0.01em;}.cls-53{letter-spacing:0.01em;}.cls-54{letter-spacing:0.03em;}.cls-55{letter-spacing:0.03em;}</style><clipPath id="clip-path"><rect class="cls-1" x="884.3" y="892.42" width="239.53" height="239.53"/></clipPath><clipPath id="clip-path-2"><circle class="cls-1" cx="262.54" cy="340.16" r="203"/></clipPath></defs><title>886457_07</title><g id="Livello_2" data-name="Livello 2"><rect class="cls-2" x="2.55" y="2.47" width="1190.38" height="1190.38"/></g><g id="Livello_1" data-name="Livello 1"><g id="Livello_2-2" data-name="Livello 2"><rect class="cls-3" x="58.98" y="62.67" width="239.53" height="239.53"/><rect class="cls-3" x="335.36" y="62.67" width="239.53" height="239.53"/><rect class="cls-3" x="611.74" y="62.67" width="239.53" height="239.53"/><rect class="cls-3" x="888.12" y="62.67" width="239.53" height="239.53"/><rect class="cls-3" x="58.98" y="339.05" width="239.53" height="239.53"/><rect class="cls-3" x="335.36" y="339.05" width="239.53" height="239.53"/><rect class="cls-3" x="611.74" y="339.05" width="239.53" height="239.53"/><rect class="cls-3" x="888.12" y="339.05" width="239.53" height="239.53"/><rect class="cls-3" x="58.98" y="615.43" width="239.53" height="239.53"/><rect class="cls-3" x="335.36" y="615.43" width="239.53" height="239.53"/><rect class="cls-3" x="611.74" y="615.43" width="239.53" height="239.53"/><rect class="cls-3" x="888.12" y="615.43" width="239.53" height="239.53"/><rect class="cls-3" x="58.98" y="891.81" width="239.53" height="239.53"/><rect class="cls-3" x="335.36" y="891.81" width="239.53" height="239.53"/><rect class="cls-3" x="611.74" y="891.81" width="239.53" height="239.53"/><rect class="cls-3" x="888.12" y="891.81" width="239.53" height="239.53"/></g><g id="Livello_3" data-name="Livello 3"><rect class="cls-4" x="58.98" y="62.67" width="184.25" height="184.25"/><rect class="cls-4" x="280.09" y="62.67" width="184.25" height="184.25"/><rect class="cls-4" x="501.19" y="62.67" width="184.25" height="184.25"/><rect class="cls-4" x="722.29" y="62.67" width="184.25" height="184.25"/><rect class="cls-4" x="943.39" y="62.67" width="184.25" height="184.25"/><rect class="cls-4" x="58.98" y="283.78" width="184.25" height="184.25"/><rect class="cls-4" x="280.09" y="283.78" width="184.25" height="184.25"/><rect class="cls-4" x="501.19" y="283.78" width="184.25" height="184.25"/><rect class="cls-4" x="722.29" y="283.78" width="184.25" height="184.25"/><rect class="cls-4" x="943.39" y="283.78" width="184.25" height="184.25"/><rect class="cls-4" x="58.98" y="504.88" width="184.25" height="184.25"/><rect class="cls-4" x="280.09" y="504.88" width="184.25" height="184.25"/><rect class="cls-4" x="501.19" y="504.88" width="184.25" height="184.25"/><rect class="cls-4" x="722.29" y="504.88" width="184.25" height="184.25"/><rect class="cls-4" x="943.39" y="504.88" width="184.25" height="184.25"/><rect class="cls-4" x="58.98" y="725.98" width="184.25" height="184.25"/><rect class="cls-4" x="280.09" y="725.98" width="184.25" height="184.25"/><rect class="cls-4" x="501.19" y="725.98" width="184.25" height="184.25"/><rect class="cls-4" x="722.29" y="725.98" width="184.25" height="184.25"/><rect class="cls-4" x="943.39" y="725.98" width="184.25" height="184.25"/><rect class="cls-4" x="58.98" y="947.08" width="184.25" height="184.25"/><rect class="cls-4" x="280.09" y="947.08" width="184.25" height="184.25"/><rect class="cls-4" x="501.19" y="947.08" width="184.25" height="184.25"/><rect class="cls-4" x="722.29" y="947.08" width="184.25" height="184.25"/><rect class="cls-4" x="943.39" y="947.08" width="184.25" height="184.25"/></g><g id="Livello_4" data-name="Livello 4"><rect class="cls-5" x="60.98" y="62.67" width="147.4" height="147.4"/><rect class="cls-5" x="245.24" y="62.67" width="147.4" height="147.4"/><rect class="cls-5" x="429.49" y="62.67" width="147.4" height="147.4"/><rect class="cls-5" x="613.74" y="62.67" width="147.4" height="147.4"/><rect class="cls-5" x="797.99" y="62.67" width="147.4" height="147.4"/><rect class="cls-5" x="982.24" y="62.67" width="147.4" height="147.4"/><rect class="cls-5" x="60.98" y="246.93" width="147.4" height="147.4"/><rect class="cls-5" x="245.24" y="246.93" width="147.4" height="147.4"/><rect class="cls-5" x="429.49" y="246.93" width="147.4" height="147.4"/><rect class="cls-5" x="613.74" y="246.93" width="147.4" height="147.4"/><rect class="cls-5" x="797.99" y="246.93" width="147.4" height="147.4"/><rect class="cls-5" x="982.24" y="246.93" width="147.4" height="147.4"/><rect class="cls-5" x="60.98" y="431.18" width="147.4" height="147.4"/><rect class="cls-5" x="245.24" y="431.18" width="147.4" height="147.4"/><rect class="cls-5" x="429.49" y="431.18" width="147.4" height="147.4"/><rect class="cls-5" x="613.74" y="431.18" width="147.4" height="147.4"/><rect class="cls-5" x="797.99" y="431.18" width="147.4" height="147.4"/><rect class="cls-5" x="982.24" y="431.18" width="147.4" height="147.4"/><rect class="cls-5" x="60.98" y="615.43" width="147.4" height="147.4"/><rect class="cls-5" x="245.24" y="615.43" width="147.4" height="147.4"/><rect class="cls-5" x="429.49" y="615.43" width="147.4" height="147.4"/><rect class="cls-5" x="613.74" y="615.43" width="147.4" height="147.4"/><rect class="cls-5" x="797.99" y="615.43" width="147.4" height="147.4"/><rect class="cls-5" x="982.24" y="615.43" width="147.4" height="147.4"/><rect class="cls-5" x="56.98" y="799.68" width="147.4" height="147.4"/><rect class="cls-5" x="241.24" y="799.68" width="147.4" height="147.4"/><rect class="cls-5" x="425.49" y="799.68" width="147.4" height="147.4"/><rect class="cls-5" x="609.74" y="799.68" width="147.4" height="147.4"/><rect class="cls-5" x="793.99" y="799.68" width="147.4" height="147.4"/><rect class="cls-5" x="978.24" y="799.68" width="147.4" height="147.4"/><rect class="cls-5" x="56.98" y="983.93" width="147.4" height="147.4"/><rect class="cls-5" x="241.24" y="983.93" width="147.4" height="147.4"/><rect class="cls-5" x="425.49" y="983.93" width="147.4" height="147.4"/><rect class="cls-5" x="609.74" y="983.93" width="147.4" height="147.4"/><rect class="cls-5" x="793.99" y="983.93" width="147.4" height="147.4"/><rect class="cls-5" x="978.24" y="983.93" width="147.4" height="147.4"/></g><g class="cls-6"><image width="4032" height="3024" transform="translate(1124.83 596.63) rotate(90) scale(0.13)" xlink:href="../Documents/GitHub/strumet.github.io/ex/vectors/886457_02.JPG"/></g><text class="cls-7" transform="translate(169.38 620.46)"><tspan class="cls-8">Lore</tspan><tspan x="18.25" y="0">m </tspan><tspan class="cls-9" x="-53.37" y="19.2">i</tspan><tspan x="-50.58" y="19.2">ps</tspan><tspan class="cls-9" x="-43.43" y="19.2">u</tspan><tspan x="-38.49" y="19.2">m</tspan><tspan class="cls-10" x="-30.6" y="19.2"> </tspan><tspan x="-25.97" y="19.2">d</tspan><tspan class="cls-11" x="-20.81" y="19.2">o</tspan><tspan x="-17.21" y="19.2">lor</tspan><tspan class="cls-12" x="-6.76" y="19.2"> </tspan><tspan x="-2.14" y="19.2">sit</tspan><tspan class="cls-10" x="6.48" y="19.2"> </tspan><tspan class="cls-13" x="11.11" y="19.2">a</tspan><tspan x="15.82" y="19.2">met,</tspan><tspan class="cls-12" x="32.19" y="19.2"> </tspan><tspan class="cls-9" x="36.82" y="19.2">c</tspan><tspan x="39.8" y="19.2">onsectet</tspan><tspan class="cls-11" x="67.42" y="19.2">u</tspan><tspan x="72.31" y="19.2">er </tspan><tspan x="-75.9" y="38.4">ad</tspan><tspan class="cls-9" x="-65.83" y="38.4">i</tspan><tspan x="-63.04" y="38.4">pisc</tspan><tspan class="cls-9" x="-49.82" y="38.4">i</tspan><tspan x="-47.03" y="38.4">ng</tspan><tspan class="cls-14" x="-37.61" y="38.4"> </tspan><tspan class="cls-15" x="-30.06" y="38.4">e</tspan><tspan x="-26.9" y="38.4">lit,</tspan><tspan class="cls-14" x="-16.03" y="38.4"> </tspan><tspan x="-8.48" y="38.4">sed</tspan><tspan class="cls-14" x="2.85" y="38.4"> </tspan><tspan x="10.4" y="38.4">di</tspan><tspan class="cls-11" x="18.5" y="38.4">a</tspan><tspan x="23.21" y="38.4">m</tspan><tspan class="cls-14" x="31.1" y="38.4"> </tspan><tspan x="38.65" y="38.4">non</tspan><tspan class="cls-9" x="52.99" y="38.4">u</tspan><tspan class="cls-13" x="57.93" y="38.4">mm</tspan><tspan x="73.31" y="38.4">y</tspan><tspan class="cls-14" x="77.36" y="38.4"> </tspan><tspan x="84.91" y="38.4">n</tspan><tspan class="cls-16" x="90.18" y="38.4">i</tspan><tspan class="cls-11" x="92.87" y="38.4">b</tspan><tspan x="97.16" y="38.4">h </tspan><tspan x="-90.31" y="57.6">euismod</tspan><tspan class="cls-17" x="-59.26" y="57.6"> </tspan><tspan x="-55.1" y="57.6">t</tspan><tspan class="cls-9" x="-52.18" y="57.6">i</tspan><tspan x="-49.39" y="57.6">nc</tspan><tspan class="cls-11" x="-40.99" y="57.6">i</tspan><tspan x="-38.25" y="57.6">d</tspan><tspan class="cls-9" x="-33.09" y="57.6">u</tspan><tspan x="-28.15" y="57.6">nt</tspan><tspan class="cls-17" x="-19.96" y="57.6"> </tspan><tspan x="-15.79" y="57.6">ut</tspan><tspan class="cls-18" x="-7.79" y="57.6"> </tspan><tspan x="-3.62" y="57.6">laoreet</tspan><tspan class="cls-17" x="21.48" y="57.6"> </tspan><tspan x="25.64" y="57.6">d</tspan><tspan class="cls-13" x="30.8" y="57.6">o</tspan><tspan x="34.4" y="57.6">lore</tspan><tspan class="cls-17" x="48.26" y="57.6"> </tspan><tspan x="52.43" y="57.6">magna</tspan><tspan class="cls-17" x="79.56" y="57.6"> </tspan><tspan class="cls-13" x="83.72" y="57.6">a</tspan><tspan class="cls-19" x="88.43" y="57.6">l</tspan><tspan class="cls-13" x="91.29" y="57.6">i</tspan><tspan x="94.03" y="57.6">qu</tspan><tspan class="cls-13" x="103.85" y="57.6">a</tspan><tspan x="108.56" y="57.6">m </tspan><tspan x="-99.72" y="76.8">e</tspan><tspan class="cls-20" x="-96.31" y="76.8">r</tspan><tspan x="-92.92" y="76.8">at</tspan><tspan class="cls-21" x="-85.09" y="76.8"> </tspan><tspan x="-82.58" y="76.8">v</tspan><tspan class="cls-13" x="-78.48" y="76.8">o</tspan><tspan x="-74.88" y="76.8">lutpat.</tspan><tspan class="cls-22" x="-49.64" y="76.8"> </tspan><tspan x="-47.13" y="76.8">Ut</tspan><tspan class="cls-21" x="-37.21" y="76.8"> </tspan><tspan x="-34.7" y="76.8">wisi</tspan><tspan class="cls-21" x="-19.83" y="76.8"> </tspan><tspan x="-17.32" y="76.8">en</tspan><tspan class="cls-23" x="-8.64" y="76.8">i</tspan><tspan x="-5.85" y="76.8">m</tspan><tspan class="cls-21" x="2.04" y="76.8"> </tspan><tspan x="4.55" y="76.8">ad</tspan><tspan class="cls-22" x="14.62" y="76.8"> </tspan><tspan x="17.13" y="76.8">m</tspan><tspan class="cls-9" x="25.02" y="76.8">i</tspan><tspan x="27.81" y="76.8">n</tspan><tspan class="cls-9" x="33.08" y="76.8">i</tspan><tspan x="35.87" y="76.8">m</tspan><tspan class="cls-21" x="43.75" y="76.8"> </tspan><tspan x="46.27" y="76.8">veni</tspan><tspan class="cls-13" x="61.98" y="76.8">a</tspan><tspan x="66.7" y="76.8">m,</tspan><tspan class="cls-21" x="76.73" y="76.8"> </tspan><tspan x="79.25" y="76.8">quis</tspan><tspan class="cls-22" x="94.76" y="76.8"> </tspan><tspan x="97.27" y="76.8">nostr</tspan><tspan class="cls-11" x="115.81" y="76.8">u</tspan><tspan x="120.7" y="76.8">d </tspan><tspan x="-105.31" y="96">exerci</tspan><tspan class="cls-24" x="-84.25" y="96"> </tspan><tspan x="-81.04" y="96">tat</tspan><tspan class="cls-13" x="-70.29" y="96">i</tspan><tspan x="-67.55" y="96">on</tspan><tspan class="cls-24" x="-58.48" y="96"> </tspan><tspan class="cls-15" x="-55.26" y="96">u</tspan><tspan class="cls-9" x="-50.42" y="96">l</tspan><tspan x="-47.71" y="96">l</tspan><tspan class="cls-11" x="-44.85" y="96">a</tspan><tspan x="-40.14" y="96">m</tspan><tspan class="cls-9" x="-32.25" y="96">c</tspan><tspan x="-29.27" y="96">orper</tspan><tspan class="cls-24" x="-10.09" y="96"> </tspan><tspan x="-6.88" y="96">susc</tspan><tspan class="cls-9" x="6.86" y="96">i</tspan><tspan x="9.65" y="96">pit</tspan><tspan class="cls-24" x="19.9" y="96"> </tspan><tspan x="23.11" y="96">l</tspan><tspan class="cls-11" x="25.97" y="96">o</tspan><tspan x="29.57" y="96">bortis</tspan><tspan class="cls-24" x="50.27" y="96"> </tspan><tspan x="53.48" y="96">ni</tspan><tspan class="cls-9" x="61.69" y="96">s</tspan><tspan x="64.3" y="96">l</tspan><tspan class="cls-24" x="67.16" y="96"> </tspan><tspan x="70.38" y="96">ut</tspan><tspan class="cls-24" x="78.39" y="96"> </tspan><tspan class="cls-13" x="81.6" y="96">a</tspan><tspan x="86.31" y="96">l</tspan><tspan class="cls-11" x="89.17" y="96">i</tspan><tspan class="cls-25" x="91.91" y="96">qu</tspan><tspan class="cls-23" x="101.73" y="96">i</tspan><tspan x="104.52" y="96">p</tspan><tspan class="cls-24" x="108.91" y="96"> </tspan><tspan x="112.12" y="96">ex</tspan><tspan class="cls-24" x="119.91" y="96"> </tspan><tspan x="123.13" y="96">ea </tspan><tspan class="cls-9" x="-107.61" y="115.2">c</tspan><tspan x="-104.63" y="115.2">o</tspan><tspan class="cls-11" x="-100.83" y="115.2">m</tspan><tspan x="-93.14" y="115.2">modo</tspan><tspan class="cls-26" x="-72.49" y="115.2"> </tspan><tspan class="cls-9" x="-70.83" y="115.2">c</tspan><tspan x="-67.85" y="115.2">onsequat.</tspan><tspan class="cls-27" x="-32.81" y="115.2"> </tspan><tspan x="-31.14" y="115.2">Duis</tspan><tspan class="cls-26" x="-12.83" y="115.2"> </tspan><tspan class="cls-9" x="-11.17" y="115.2">a</tspan><tspan x="-6.41" y="115.2">utem</tspan><tspan class="cls-27" x="12.9" y="115.2"> </tspan><tspan x="14.57" y="115.2">v</tspan><tspan class="cls-15" x="18.67" y="115.2">e</tspan><tspan x="21.83" y="115.2">l</tspan><tspan class="cls-26" x="24.69" y="115.2"> </tspan><tspan x="26.35" y="115.2">e</tspan><tspan class="cls-9" x="29.76" y="115.2">u</tspan><tspan x="34.7" y="115.2">m</tspan><tspan class="cls-27" x="42.59" y="115.2"> </tspan><tspan class="cls-9" x="44.26" y="115.2">i</tspan><tspan x="47.05" y="115.2">ri</tspan><tspan class="cls-9" x="53.78" y="115.2">u</tspan><tspan x="58.72" y="115.2">re</tspan><tspan class="cls-26" x="65.92" y="115.2"> </tspan><tspan x="67.58" y="115.2">d</tspan><tspan class="cls-11" x="72.74" y="115.2">o</tspan><tspan x="76.34" y="115.2">lor</tspan><tspan class="cls-27" x="86.79" y="115.2"> </tspan><tspan class="cls-9" x="88.46" y="115.2">i</tspan><tspan x="91.25" y="115.2">n</tspan><tspan class="cls-26" x="96.52" y="115.2"> </tspan><tspan x="98.18" y="115.2">hendrerit </tspan><tspan class="cls-9" x="-105.95" y="134.4">i</tspan><tspan x="-103.16" y="134.4">n</tspan><tspan class="cls-28" x="-97.89" y="134.4"> </tspan><tspan x="-93.86" y="134.4">v</tspan><tspan class="cls-15" x="-89.76" y="134.4">u</tspan><tspan x="-84.92" y="134.4">lputate</tspan><tspan class="cls-29" x="-58.42" y="134.4"> </tspan><tspan x="-54.39" y="134.4">v</tspan><tspan class="cls-15" x="-50.29" y="134.4">e</tspan><tspan x="-47.13" y="134.4">lit</tspan><tspan class="cls-28" x="-38.41" y="134.4"> </tspan><tspan x="-34.38" y="134.4">esse</tspan><tspan class="cls-28" x="-22.04" y="134.4"> </tspan><tspan x="-18.01" y="134.4">m</tspan><tspan class="cls-13" x="-10.12" y="134.4">o</tspan><tspan x="-6.52" y="134.4">lest</tspan><tspan class="cls-11" x="5.43" y="134.4">i</tspan><tspan x="8.17" y="134.4">e</tspan><tspan class="cls-29" x="11.58" y="134.4"> </tspan><tspan class="cls-9" x="15.61" y="134.4">c</tspan><tspan x="18.59" y="134.4">onsequat,</tspan><tspan class="cls-28" x="53.63" y="134.4"> </tspan><tspan x="57.66" y="134.4">v</tspan><tspan class="cls-15" x="61.76" y="134.4">e</tspan><tspan x="64.92" y="134.4">l</tspan><tspan class="cls-28" x="67.78" y="134.4"> </tspan><tspan class="cls-15" x="71.81" y="134.4">i</tspan><tspan class="cls-9" x="74.5" y="134.4">l</tspan><tspan x="77.21" y="134.4">l</tspan><tspan class="cls-9" x="80.07" y="134.4">u</tspan><tspan x="85.01" y="134.4">m</tspan><tspan class="cls-29" x="92.9" y="134.4"> </tspan><tspan x="96.94" y="134.4">d</tspan><tspan class="cls-13" x="102.1" y="134.4">o</tspan><tspan x="105.7" y="134.4">lore</tspan><tspan class="cls-28" x="119.55" y="134.4"> </tspan><tspan x="123.59" y="134.4">eu </tspan><tspan x="-100.97" y="153.6">feugiat</tspan><tspan class="cls-30" x="-74.34" y="153.6"> </tspan><tspan x="-70.93" y="153.6">n</tspan><tspan class="cls-15" x="-65.66" y="153.6">u</tspan><tspan class="cls-9" x="-60.82" y="153.6">l</tspan><tspan x="-58.11" y="153.6">la</tspan><tspan class="cls-30" x="-50.34" y="153.6"> </tspan><tspan class="cls-31" x="-46.92" y="153.6">f</tspan><tspan x="-44.16" y="153.6">ac</tspan><tspan class="cls-16" x="-36.12" y="153.6">i</tspan><tspan class="cls-19" x="-33.43" y="153.6">lisis</tspan><tspan class="cls-30" x="-19.17" y="153.6"> </tspan><tspan x="-15.75" y="153.6">at</tspan><tspan class="cls-32" x="-7.92" y="153.6"> </tspan><tspan class="cls-25" x="-4.51" y="153.6">vero</tspan><tspan class="cls-30" x="10.59" y="153.6"> </tspan><tspan class="cls-25" x="14.01" y="153.6">eros</tspan><tspan class="cls-30" x="27.77" y="153.6"> </tspan><tspan class="cls-19" x="31.19" y="153.6">et</tspan><tspan class="cls-30" x="37.52" y="153.6"> </tspan><tspan x="40.93" y="153.6">a</tspan><tspan class="cls-9" x="45.84" y="153.6">c</tspan><tspan x="48.82" y="153.6">c</tspan><tspan class="cls-9" x="51.95" y="153.6">u</tspan><tspan x="56.89" y="153.6">ms</tspan><tspan class="cls-13" x="67.54" y="153.6">a</tspan><tspan x="72.25" y="153.6">n</tspan><tspan class="cls-30" x="77.52" y="153.6"> </tspan><tspan x="80.94" y="153.6">et</tspan><tspan class="cls-30" x="87.27" y="153.6"> </tspan><tspan x="90.69" y="153.6">iusto</tspan><tspan class="cls-32" x="108.2" y="153.6"> </tspan><tspan x="111.61" y="153.6">od</tspan><tspan class="cls-11" x="120.57" y="153.6">i</tspan><tspan x="123.31" y="153.6">o </tspan><tspan x="-92.31" y="172.8">digniss</tspan><tspan class="cls-9" x="-66.33" y="172.8">i</tspan><tspan x="-63.54" y="172.8">m</tspan><tspan class="cls-33" x="-55.65" y="172.8"> </tspan><tspan x="-51.69" y="172.8">qui</tspan><tspan class="cls-33" x="-38.93" y="172.8"> </tspan><tspan class="cls-11" x="-34.97" y="172.8">b</tspan><tspan x="-30.68" y="172.8">l</tspan><tspan class="cls-13" x="-27.82" y="172.8">a</tspan><tspan x="-23.11" y="172.8">ndit</tspan><tspan class="cls-34" x="-6.82" y="172.8"> </tspan><tspan class="cls-25" x="-2.86" y="172.8">p</tspan><tspan class="cls-35" x="1.53" y="172.8">r</tspan><tspan x="4.92" y="172.8">aesent</tspan><tspan class="cls-34" x="27.6" y="172.8"> </tspan><tspan x="31.56" y="172.8">l</tspan><tspan class="cls-9" x="34.42" y="172.8">u</tspan><tspan x="39.36" y="172.8">ptat</tspan><tspan class="cls-9" x="54.5" y="172.8">u</tspan><tspan x="59.44" y="172.8">m</tspan><tspan class="cls-33" x="67.33" y="172.8"> </tspan><tspan x="71.29" y="172.8">zzr</tspan><tspan class="cls-15" x="83.22" y="172.8">i</tspan><tspan x="85.91" y="172.8">l</tspan><tspan class="cls-33" x="88.77" y="172.8"> </tspan><tspan x="92.73" y="172.8">d</tspan><tspan class="cls-15" x="97.89" y="172.8">e</tspan><tspan x="101.04" y="172.8">lenit </tspan><tspan class="cls-9" x="-48.1" y="192">a</tspan><tspan x="-43.34" y="192">ug</tspan><tspan class="cls-11" x="-34.1" y="192">u</tspan><tspan x="-29.21" y="192">e duis d</tspan><tspan class="cls-13" x="-0.69" y="192">o</tspan><tspan x="2.91" y="192">lore te feu</tspan><tspan class="cls-13" x="38.81" y="192">ga</tspan><tspan x="47.47" y="192">it n</tspan><tspan class="cls-15" x="60.6" y="192">u</tspan><tspan class="cls-9" x="65.44" y="192">l</tspan><tspan x="68.15" y="192">la </tspan><tspan class="cls-36" x="77.92" y="192">f</tspan><tspan x="80.68" y="192">ac</tspan><tspan class="cls-15" x="88.72" y="192">i</tspan><tspan x="91.41" y="192">lisi.</tspan><tspan x="-58.27" y="211.2">Lorem</tspan><tspan class="cls-37" x="-33.56" y="211.2"> </tspan><tspan class="cls-9" x="-27.26" y="211.2">i</tspan><tspan x="-24.47" y="211.2">ps</tspan><tspan class="cls-9" x="-17.32" y="211.2">u</tspan><tspan x="-12.38" y="211.2">m</tspan><tspan class="cls-37" x="-4.49" y="211.2"> </tspan><tspan x="1.81" y="211.2">d</tspan><tspan class="cls-11" x="6.97" y="211.2">o</tspan><tspan x="10.57" y="211.2">lor</tspan><tspan class="cls-37" x="21.02" y="211.2"> </tspan><tspan x="27.31" y="211.2">sit</tspan><tspan class="cls-37" x="35.93" y="211.2"> </tspan><tspan class="cls-13" x="42.23" y="211.2">a</tspan><tspan x="46.94" y="211.2">met,</tspan><tspan class="cls-38" x="63.31" y="211.2"> </tspan><tspan class="cls-9" x="69.6" y="211.2">c</tspan><tspan x="72.58" y="211.2">ons </tspan><tspan x="16.54" y="230.4">ectet</tspan><tspan class="cls-13" x="32.33" y="230.4">u</tspan><tspan x="37.22" y="230.4">er </tspan></text></g><g id="Livello_3-2" data-name="Livello 3"><g class="cls-39"><image width="4032" height="3024" transform="translate(464.67 62.67) rotate(90) scale(0.13)" xlink:href="../Documents/GitHub/strumet.github.io/ex/vectors/886457_01.JPG"/></g></g><g id="Livello_4-2" data-name="Livello 4"><text class="cls-40" transform="translate(941.34 108.87)">FRAMES</text><text class="cls-41" transform="translate(720.87 296.77)">Lorem<tspan class="cls-42" x="33.02" y="0"> </tspan><tspan x="36.91" y="0">ipsum</tspan><tspan class="cls-43" x="68.91" y="0"> </tspan><tspan x="72.81" y="0">dolor</tspan><tspan class="cls-43" x="100.44" y="0"> </tspan><tspan x="104.33" y="0">sit</tspan><tspan class="cls-42" x="115.89" y="0"> </tspan><tspan x="119.78" y="0">amet,</tspan><tspan class="cls-42" x="149.17" y="0"> </tspan><tspan x="153.06" y="0">consectetuer</tspan><tspan class="cls-43" x="218.46" y="0"> </tspan><tspan x="222.35" y="0">adipiscing</tspan><tspan class="cls-43" x="274.04" y="0"> </tspan><tspan x="277.94" y="0">elit,</tspan><tspan class="cls-42" x="297.03" y="0"> </tspan><tspan x="300.93" y="0">sed</tspan><tspan class="cls-42" x="319.21" y="0"> </tspan><tspan x="323.11" y="0">diam</tspan><tspan class="cls-43" x="349.4" y="0"> </tspan><tspan x="353.29" y="0">nonummy </tspan><tspan x="0" y="19.2">nibh</tspan><tspan class="cls-44" x="23.58" y="19.2"> </tspan><tspan x="27.02" y="19.2">euismod</tspan><tspan class="cls-45" x="71.93" y="19.2"> </tspan><tspan x="75.37" y="19.2">tincidunt</tspan><tspan class="cls-44" x="120.73" y="19.2"> </tspan><tspan x="124.16" y="19.2">ut</tspan><tspan class="cls-44" x="134.47" y="19.2"> </tspan><tspan x="137.91" y="19.2">laoreet</tspan><tspan class="cls-44" x="174.1" y="19.2"> </tspan><tspan x="177.54" y="19.2">dolore</tspan><tspan class="cls-45" x="211.44" y="19.2"> </tspan><tspan x="214.88" y="19.2">magna</tspan><tspan class="cls-44" x="249.9" y="19.2"> </tspan><tspan x="253.33" y="19.2">aliquam</tspan><tspan class="cls-44" x="295.55" y="19.2"> </tspan><tspan x="298.99" y="19.2">erat</tspan><tspan class="cls-44" x="319.26" y="19.2"> </tspan><tspan x="322.7" y="19.2">volutpat.</tspan><tspan class="cls-45" x="367.66" y="19.2"> </tspan><tspan x="371.1" y="19.2">Ut</tspan><tspan class="cls-44" x="382.51" y="19.2"> </tspan><tspan x="385.95" y="19.2">wisi </tspan><tspan x="0" y="38.4">enim</tspan><tspan class="cls-46" x="26.26" y="38.4"> </tspan><tspan x="29.31" y="38.4">ad</tspan><tspan class="cls-47" x="42.41" y="38.4"> </tspan><tspan x="45.47" y="38.4">minim</tspan><tspan class="cls-46" x="78.64" y="38.4"> </tspan><tspan x="81.7" y="38.4">veniam,</tspan><tspan class="cls-47" x="122.48" y="38.4"> </tspan><tspan x="125.53" y="38.4">quis</tspan><tspan class="cls-46" x="147.35" y="38.4"> </tspan><tspan x="150.41" y="38.4">nostrud</tspan><tspan class="cls-47" x="190.53" y="38.4"> </tspan><tspan x="193.59" y="38.4">exerci</tspan><tspan class="cls-46" x="223.75" y="38.4"> </tspan><tspan x="226.81" y="38.4">tation</tspan><tspan class="cls-47" x="256.39" y="38.4"> </tspan><tspan x="259.45" y="38.4">ullamcorper</tspan><tspan class="cls-46" x="322.15" y="38.4"> </tspan><tspan x="325.21" y="38.4">suscipit</tspan><tspan class="cls-47" x="363.54" y="38.4"> </tspan><tspan x="366.6" y="38.4">lobortis </tspan><tspan x="0" y="57.6">nisl</tspan><tspan class="cls-48" x="17.85" y="57.6"> </tspan><tspan x="21.76" y="57.6">ut</tspan><tspan class="cls-48" x="32.06" y="57.6"> </tspan><tspan x="35.96" y="57.6">aliquip</tspan><tspan class="cls-48" x="71.86" y="57.6"> </tspan><tspan x="75.77" y="57.6">ex</tspan><tspan class="cls-48" x="87.32" y="57.6"> </tspan><tspan x="91.23" y="57.6">ea</tspan><tspan class="cls-48" x="103.63" y="57.6"> </tspan><tspan x="107.53" y="57.6">commodo</tspan><tspan class="cls-48" x="159.75" y="57.6"> </tspan><tspan x="163.65" y="57.6">consequat.</tspan><tspan class="cls-49" x="220.07" y="57.6"> </tspan><tspan x="223.97" y="57.6">Duis</tspan><tspan class="cls-48" x="246.59" y="57.6"> </tspan><tspan x="250.49" y="57.6">autem</tspan><tspan class="cls-48" x="283.37" y="57.6"> </tspan><tspan x="287.28" y="57.6">vel</tspan><tspan class="cls-48" x="301.66" y="57.6"> </tspan><tspan x="305.57" y="57.6">eum</tspan><tspan class="cls-48" x="328.82" y="57.6"> </tspan><tspan x="332.72" y="57.6">iriure</tspan><tspan class="cls-48" x="360.54" y="57.6"> </tspan><tspan x="364.44" y="57.6">dolor</tspan><tspan class="cls-48" x="392.08" y="57.6"> </tspan><tspan x="395.98" y="57.6">in </tspan><tspan x="0" y="76.8">hendrerit</tspan><tspan class="cls-50" x="48.37" y="76.8"> </tspan><tspan x="51.39" y="76.8">in</tspan><tspan class="cls-51" x="61.2" y="76.8"> </tspan><tspan x="64.22" y="76.8">vulputate</tspan><tspan class="cls-50" x="112.31" y="76.8"> </tspan><tspan x="115.33" y="76.8">velit</tspan><tspan class="cls-50" x="136.23" y="76.8"> </tspan><tspan x="139.26" y="76.8">esse</tspan><tspan class="cls-50" x="161.88" y="76.8"> </tspan><tspan x="164.91" y="76.8">molestie</tspan><tspan class="cls-51" x="208.83" y="76.8"> </tspan><tspan x="211.86" y="76.8">consequat,</tspan><tspan class="cls-50" x="268.27" y="76.8"> </tspan><tspan x="271.29" y="76.8">vel</tspan><tspan class="cls-50" x="285.68" y="76.8"> </tspan><tspan x="288.7" y="76.8">illum</tspan><tspan class="cls-50" x="314.7" y="76.8"> </tspan><tspan x="317.72" y="76.8">dolore</tspan><tspan class="cls-51" x="351.63" y="76.8"> </tspan><tspan x="354.65" y="76.8">eu</tspan><tspan class="cls-50" x="367.72" y="76.8"> </tspan><tspan x="370.75" y="76.8">feugiat </tspan><tspan x="0" y="96">nulla</tspan><tspan class="cls-52" x="25.73" y="96"> </tspan><tspan x="28.84" y="96">facilisis</tspan><tspan class="cls-53" x="65.58" y="96"> </tspan><tspan x="68.68" y="96">at</tspan><tspan class="cls-52" x="78.31" y="96"> </tspan><tspan x="81.42" y="96">vero</tspan><tspan class="cls-52" x="103.8" y="96"> </tspan><tspan x="106.91" y="96">eros</tspan><tspan class="cls-53" x="129.23" y="96"> </tspan><tspan x="132.33" y="96">et</tspan><tspan class="cls-52" x="142.12" y="96"> </tspan><tspan x="145.22" y="96">accumsan</tspan><tspan class="cls-52" x="196.21" y="96"> </tspan><tspan x="199.31" y="96">et</tspan><tspan class="cls-52" x="209.09" y="96"> </tspan><tspan x="212.2" y="96">iusto</tspan><tspan class="cls-53" x="237.19" y="96"> </tspan><tspan x="240.3" y="96">odio</tspan><tspan class="cls-52" x="263.56" y="96"> </tspan><tspan x="266.67" y="96">dignissim</tspan><tspan class="cls-52" x="315.51" y="96"> </tspan><tspan x="318.62" y="96">qui</tspan><tspan class="cls-53" x="335.4" y="96"> </tspan><tspan x="338.51" y="96">blandit</tspan><tspan class="cls-52" x="374.91" y="96"> </tspan><tspan x="378.01" y="96">prae</tspan><tspan x="401.75" y="96">-</tspan><tspan x="59.46" y="115.2">sent luptatum zzril delenit augue duis dolore te feugait nulla facilisi.</tspan><tspan x="0" y="134.4">Lorem</tspan><tspan class="cls-54" x="33.02" y="134.4"> </tspan><tspan x="36.56" y="134.4">ipsum</tspan><tspan class="cls-54" x="68.56" y="134.4"> </tspan><tspan x="72.1" y="134.4">dolor</tspan><tspan class="cls-54" x="99.73" y="134.4"> </tspan><tspan x="103.27" y="134.4">sit</tspan><tspan class="cls-54" x="114.83" y="134.4"> </tspan><tspan x="118.37" y="134.4">amet,</tspan><tspan class="cls-54" x="147.75" y="134.4"> </tspan><tspan x="151.29" y="134.4">cons</tspan><tspan class="cls-55" x="174.73" y="134.4"> </tspan><tspan x="178.27" y="134.4">ectetuer</tspan><tspan class="cls-54" x="220.23" y="134.4"> </tspan><tspan x="223.77" y="134.4">adipiscing</tspan><tspan class="cls-54" x="275.46" y="134.4"> </tspan><tspan x="279" y="134.4">elit,</tspan><tspan class="cls-54" x="298.09" y="134.4"> </tspan><tspan x="301.63" y="134.4">sed</tspan><tspan class="cls-54" x="319.92" y="134.4"> </tspan><tspan x="323.46" y="134.4">diam</tspan><tspan class="cls-54" x="349.75" y="134.4"> </tspan><tspan x="353.29" y="134.4">nonummy </tspan><tspan x="0" y="153.6">nibh</tspan><tspan class="cls-44" x="23.58" y="153.6"> </tspan><tspan x="27.02" y="153.6">euismod</tspan><tspan class="cls-45" x="71.93" y="153.6"> </tspan><tspan x="75.37" y="153.6">tincidunt</tspan><tspan class="cls-44" x="120.73" y="153.6"> </tspan><tspan x="124.16" y="153.6">ut</tspan><tspan class="cls-44" x="134.47" y="153.6"> </tspan><tspan x="137.91" y="153.6">laoreet</tspan><tspan class="cls-44" x="174.1" y="153.6"> </tspan><tspan x="177.54" y="153.6">dolore</tspan><tspan class="cls-45" x="211.44" y="153.6"> </tspan><tspan x="214.88" y="153.6">magna</tspan><tspan class="cls-44" x="249.9" y="153.6"> </tspan><tspan x="253.33" y="153.6">aliquam</tspan><tspan class="cls-44" x="295.55" y="153.6"> </tspan><tspan x="298.99" y="153.6">erat</tspan><tspan class="cls-44" x="319.26" y="153.6"> </tspan><tspan x="322.7" y="153.6">volutpat.</tspan><tspan class="cls-45" x="367.66" y="153.6"> </tspan><tspan x="371.1" y="153.6">Ut</tspan><tspan class="cls-44" x="382.51" y="153.6"> </tspan><tspan x="385.95" y="153.6">wisi </tspan><tspan x="0" y="172.8">enim</tspan><tspan class="cls-46" x="26.26" y="172.8"> </tspan><tspan x="29.31" y="172.8">ad</tspan><tspan class="cls-47" x="42.41" y="172.8"> </tspan><tspan x="45.47" y="172.8">minim</tspan><tspan class="cls-46" x="78.64" y="172.8"> </tspan><tspan x="81.7" y="172.8">veniam,</tspan><tspan class="cls-47" x="122.48" y="172.8"> </tspan><tspan x="125.53" y="172.8">quis</tspan><tspan class="cls-46" x="147.35" y="172.8"> </tspan><tspan x="150.41" y="172.8">nostrud</tspan><tspan class="cls-47" x="190.53" y="172.8"> </tspan><tspan x="193.59" y="172.8">exerci</tspan><tspan class="cls-46" x="223.75" y="172.8"> </tspan><tspan x="226.81" y="172.8">tation</tspan><tspan class="cls-47" x="256.39" y="172.8"> </tspan><tspan x="259.45" y="172.8">ullamcorper</tspan><tspan class="cls-46" x="322.15" y="172.8"> </tspan><tspan x="325.21" y="172.8">suscipit</tspan><tspan class="cls-47" x="363.54" y="172.8"> </tspan><tspan x="366.6" y="172.8">lobortis </tspan><tspan x="191.1" y="192">nisl ut aliquip ex ea commodo consequat.</tspan><tspan x="0" y="211.2">Lorem</tspan><tspan class="cls-42" x="33.02" y="211.2"> </tspan><tspan x="36.91" y="211.2">ipsum</tspan><tspan class="cls-43" x="68.91" y="211.2"> </tspan><tspan x="72.81" y="211.2">dolor</tspan><tspan class="cls-43" x="100.44" y="211.2"> </tspan><tspan x="104.33" y="211.2">sit</tspan><tspan class="cls-42" x="115.89" y="211.2"> </tspan><tspan x="119.78" y="211.2">amet,</tspan><tspan class="cls-42" x="149.17" y="211.2"> </tspan><tspan x="153.06" y="211.2">consectetuer</tspan><tspan class="cls-43" x="218.46" y="211.2"> </tspan><tspan x="222.35" y="211.2">adipiscing</tspan><tspan class="cls-43" x="274.04" y="211.2"> </tspan><tspan x="277.94" y="211.2">elit,</tspan><tspan class="cls-42" x="297.03" y="211.2"> </tspan><tspan x="300.93" y="211.2">sed</tspan><tspan class="cls-42" x="319.21" y="211.2"> </tspan><tspan x="323.11" y="211.2">diam</tspan><tspan class="cls-43" x="349.4" y="211.2"> </tspan><tspan x="353.29" y="211.2">nonummy </tspan><tspan x="0" y="230.4">nibh</tspan><tspan class="cls-44" x="23.58" y="230.4"> </tspan><tspan x="27.02" y="230.4">euismod</tspan><tspan class="cls-45" x="71.93" y="230.4"> </tspan><tspan x="75.37" y="230.4">tincidunt</tspan><tspan class="cls-44" x="120.73" y="230.4"> </tspan><tspan x="124.16" y="230.4">ut</tspan><tspan class="cls-44" x="134.47" y="230.4"> </tspan><tspan x="137.91" y="230.4">laoreet</tspan><tspan class="cls-44" x="174.1" y="230.4"> </tspan><tspan x="177.54" y="230.4">dolore</tspan><tspan class="cls-45" x="211.44" y="230.4"> </tspan><tspan x="214.88" y="230.4">magna</tspan><tspan class="cls-44" x="249.9" y="230.4"> </tspan><tspan x="253.33" y="230.4">aliquam</tspan><tspan class="cls-44" x="295.55" y="230.4"> </tspan><tspan x="298.99" y="230.4">erat</tspan><tspan class="cls-44" x="319.26" y="230.4"> </tspan><tspan x="322.7" y="230.4">volutpat.</tspan><tspan class="cls-45" x="367.66" y="230.4"> </tspan><tspan x="371.1" y="230.4">Ut</tspan><tspan class="cls-44" x="382.51" y="230.4"> </tspan><tspan x="385.95" y="230.4">wisi </tspan><tspan x="0" y="249.6">enim</tspan><tspan class="cls-46" x="26.26" y="249.6"> </tspan><tspan x="29.31" y="249.6">ad</tspan><tspan class="cls-47" x="42.41" y="249.6"> </tspan><tspan x="45.47" y="249.6">minim</tspan><tspan class="cls-46" x="78.64" y="249.6"> </tspan><tspan x="81.7" y="249.6">veniam,</tspan><tspan class="cls-47" x="122.48" y="249.6"> </tspan><tspan x="125.53" y="249.6">quis</tspan><tspan class="cls-46" x="147.35" y="249.6"> </tspan><tspan x="150.41" y="249.6">nostrud</tspan><tspan class="cls-47" x="190.53" y="249.6"> </tspan><tspan x="193.59" y="249.6">exerci</tspan><tspan class="cls-46" x="223.75" y="249.6"> </tspan><tspan x="226.81" y="249.6">tation</tspan><tspan class="cls-47" x="256.39" y="249.6"> </tspan><tspan x="259.45" y="249.6">ullamcorper</tspan><tspan class="cls-46" x="322.15" y="249.6"> </tspan><tspan x="325.21" y="249.6">suscipit</tspan><tspan class="cls-47" x="363.54" y="249.6"> </tspan><tspan x="366.6" y="249.6">lobortis </tspan><tspan x="0" y="268.8">nisl</tspan><tspan class="cls-48" x="17.85" y="268.8"> </tspan><tspan x="21.76" y="268.8">ut</tspan><tspan class="cls-48" x="32.06" y="268.8"> </tspan><tspan x="35.96" y="268.8">aliquip</tspan><tspan class="cls-48" x="71.86" y="268.8"> </tspan><tspan x="75.77" y="268.8">ex</tspan><tspan class="cls-48" x="87.32" y="268.8"> </tspan><tspan x="91.23" y="268.8">ea</tspan><tspan class="cls-48" x="103.63" y="268.8"> </tspan><tspan x="107.53" y="268.8">commodo</tspan><tspan class="cls-48" x="159.75" y="268.8"> </tspan><tspan x="163.65" y="268.8">consequat.</tspan><tspan class="cls-49" x="220.07" y="268.8"> </tspan><tspan x="223.97" y="268.8">Duis</tspan><tspan class="cls-48" x="246.59" y="268.8"> </tspan><tspan x="250.49" y="268.8">autem</tspan><tspan class="cls-48" x="283.37" y="268.8"> </tspan><tspan x="287.28" y="268.8">vel</tspan><tspan class="cls-48" x="301.66" y="268.8"> </tspan><tspan x="305.57" y="268.8">eum</tspan><tspan class="cls-48" x="328.82" y="268.8"> </tspan><tspan x="332.72" y="268.8">iriure</tspan><tspan class="cls-48" x="360.54" y="268.8"> </tspan><tspan x="364.44" y="268.8">dolor</tspan><tspan class="cls-48" x="392.08" y="268.8"> </tspan><tspan x="395.98" y="268.8">in </tspan><tspan x="0" y="288">hendrerit</tspan><tspan class="cls-50" x="48.37" y="288"> </tspan><tspan x="51.39" y="288">in</tspan><tspan class="cls-51" x="61.2" y="288"> </tspan><tspan x="64.22" y="288">vulputate</tspan><tspan class="cls-50" x="112.31" y="288"> </tspan><tspan x="115.33" y="288">velit</tspan><tspan class="cls-50" x="136.23" y="288"> </tspan><tspan x="139.26" y="288">esse</tspan><tspan class="cls-50" x="161.88" y="288"> </tspan><tspan x="164.91" y="288">molestie</tspan><tspan class="cls-51" x="208.83" y="288"> </tspan><tspan x="211.86" y="288">consequat,</tspan><tspan class="cls-50" x="268.27" y="288"> </tspan><tspan x="271.29" y="288">vel</tspan><tspan class="cls-50" x="285.68" y="288"> </tspan><tspan x="288.7" y="288">illum</tspan><tspan class="cls-50" x="314.7" y="288"> </tspan><tspan x="317.72" y="288">dolore</tspan><tspan class="cls-51" x="351.63" y="288"> </tspan><tspan x="354.65" y="288">eu</tspan><tspan class="cls-50" x="367.72" y="288"> </tspan><tspan x="370.75" y="288">feugiat </tspan><tspan x="0" y="307.2">nulla</tspan><tspan class="cls-52" x="25.73" y="307.2"> </tspan><tspan x="28.84" y="307.2">facilisis</tspan><tspan class="cls-53" x="65.58" y="307.2"> </tspan><tspan x="68.68" y="307.2">at</tspan><tspan class="cls-52" x="78.31" y="307.2"> </tspan><tspan x="81.42" y="307.2">vero</tspan><tspan class="cls-52" x="103.8" y="307.2"> </tspan><tspan x="106.91" y="307.2">eros</tspan><tspan class="cls-53" x="129.23" y="307.2"> </tspan><tspan x="132.33" y="307.2">et</tspan><tspan class="cls-52" x="142.12" y="307.2"> </tspan><tspan x="145.22" y="307.2">accumsan</tspan><tspan class="cls-52" x="196.21" y="307.2"> </tspan><tspan x="199.31" y="307.2">et</tspan><tspan class="cls-52" x="209.09" y="307.2"> </tspan><tspan x="212.2" y="307.2">iusto</tspan><tspan class="cls-53" x="237.19" y="307.2"> </tspan><tspan x="240.3" y="307.2">odio</tspan><tspan class="cls-52" x="263.56" y="307.2"> </tspan><tspan x="266.67" y="307.2">dignissim</tspan><tspan class="cls-52" x="315.51" y="307.2"> </tspan><tspan x="318.62" y="307.2">qui</tspan><tspan class="cls-53" x="335.4" y="307.2"> </tspan><tspan x="338.51" y="307.2">blandit</tspan><tspan class="cls-52" x="374.91" y="307.2"> </tspan><tspan x="378.01" y="307.2">prae</tspan><tspan x="401.75" y="307.2">-</tspan><tspan x="59.46" y="326.4">sent luptatum zzril delenit augue duis dolore te feugait nulla facilisi.</tspan><tspan x="0" y="345.6">Lorem</tspan><tspan class="cls-54" x="33.02" y="345.6"> </tspan><tspan x="36.56" y="345.6">ipsum</tspan><tspan class="cls-54" x="68.56" y="345.6"> </tspan><tspan x="72.1" y="345.6">dolor</tspan><tspan class="cls-54" x="99.73" y="345.6"> </tspan><tspan x="103.27" y="345.6">sit</tspan><tspan class="cls-54" x="114.83" y="345.6"> </tspan><tspan x="118.37" y="345.6">amet,</tspan><tspan class="cls-54" x="147.75" y="345.6"> </tspan><tspan x="151.29" y="345.6">cons</tspan><tspan class="cls-55" x="174.73" y="345.6"> </tspan><tspan x="178.27" y="345.6">ectetuer</tspan><tspan class="cls-54" x="220.23" y="345.6"> </tspan><tspan x="223.77" y="345.6">adipiscing</tspan><tspan class="cls-54" x="275.46" y="345.6"> </tspan><tspan x="279" y="345.6">elit,</tspan><tspan class="cls-54" x="298.09" y="345.6"> </tspan><tspan x="301.63" y="345.6">sed</tspan><tspan class="cls-54" x="319.92" y="345.6"> </tspan><tspan x="323.46" y="345.6">diam</tspan><tspan class="cls-54" x="349.75" y="345.6"> </tspan><tspan x="353.29" y="345.6">nonummy </tspan><tspan x="0" y="364.8">nibh</tspan><tspan class="cls-44" x="23.58" y="364.8"> </tspan><tspan x="27.02" y="364.8">euismod</tspan><tspan class="cls-45" x="71.93" y="364.8"> </tspan><tspan x="75.37" y="364.8">tincidunt</tspan><tspan class="cls-44" x="120.73" y="364.8"> </tspan><tspan x="124.16" y="364.8">ut</tspan><tspan class="cls-44" x="134.47" y="364.8"> </tspan><tspan x="137.91" y="364.8">laoreet</tspan><tspan class="cls-44" x="174.1" y="364.8"> </tspan><tspan x="177.54" y="364.8">dolore</tspan><tspan class="cls-45" x="211.44" y="364.8"> </tspan><tspan x="214.88" y="364.8">magna</tspan><tspan class="cls-44" x="249.9" y="364.8"> </tspan><tspan x="253.33" y="364.8">aliquam</tspan><tspan class="cls-44" x="295.55" y="364.8"> </tspan><tspan x="298.99" y="364.8">erat</tspan><tspan class="cls-44" x="319.26" y="364.8"> </tspan><tspan x="322.7" y="364.8">volutpat.</tspan><tspan class="cls-45" x="367.66" y="364.8"> </tspan><tspan x="371.1" y="364.8">Ut</tspan><tspan class="cls-44" x="382.51" y="364.8"> </tspan><tspan x="385.95" y="364.8">wisi </tspan><tspan x="0.47" y="384">enim ad minim veniam, quis nostrud exerci tation ullamcorper suscipit lobortis </tspan></text><text class="cls-7" transform="translate(62.26 586.77)">Perspective f<tspan class="cls-20" x="45.13" y="0">r</tspan><tspan class="cls-13" x="48.52" y="0">a</tspan><tspan x="53.23" y="0">mes of one of t</tspan><tspan class="cls-11" x="104.71" y="0">a</tspan><tspan class="cls-9" x="109.42" y="0">l</tspan><tspan x="112.13" y="0">lest bu</tspan><tspan class="cls-15" x="135.66" y="0">i</tspan><tspan x="138.35" y="0">ld</tspan><tspan class="cls-9" x="146.37" y="0">i</tspan><tspan x="149.16" y="0">ng </tspan><tspan class="cls-9" x="160.58" y="0">i</tspan><tspan x="163.37" y="0">n M</tspan><tspan class="cls-11" x="180.55" y="0">an</tspan><tspan x="190.33" y="0">hatt</tspan><tspan class="cls-13" x="205.96" y="0">a</tspan><tspan x="210.67" y="0">n</tspan></text></g></svg>