<svg xmlns="http://www.w3.org/2000/svg" xmlns:xlink="http://www.w3.org/1999/xlink" viewBox="0 0 1190.55 1190.55"><defs><style>.cls-1,.cls-3,.cls-4,.cls-5,.cls-6{fill:none;}.cls-2{fill:#72d6f2;}.cls-3{stroke:blue;}.cls-3,.cls-4,.cls-5,.cls-6{stroke-miterlimit:10;}.cls-4{stroke:#2ff233;}.cls-5,.cls-6{stroke:#f93d8a;}.cls-5{stroke-width:0.99px;}.cls-7{clip-path:url(#clip-path);}.cls-10,.cls-11,.cls-12,.cls-13,.cls-14,.cls-8{isolation:isolate;}.cls-9{clip-path:url(#clip-path-2);}.cls-10{font-size:60px;font-family:OpenSansCondensed-Bold, Open Sans Condensed;font-weight:700;}.cls-11,.cls-15{font-size:16px;font-family:OpenSans-Light, Open Sans;}.cls-12,.cls-13,.cls-14{font-size:10px;font-family:EBGaramond-Italic, EB Garamond;font-style:italic;}.cls-13{letter-spacing:-0.02em;}.cls-14{letter-spacing:-0.01em;}</style><clipPath id="clip-path"><rect class="cls-1" x="61.5" y="888.26" width="237.38" height="238.8"/></clipPath><clipPath id="clip-path-2"><circle class="cls-1" cx="945.03" cy="227.62" r="165.27"/></clipPath></defs><title>pdf886859_07</title><g id="Livello_1" data-name="Livello 1"><g id="Livello_1-2" data-name="Livello 1"><rect class="cls-2" width="1190.55" height="1190.55"/><rect class="cls-3" x="60.95" y="60.67" width="238.49" height="238.49"/><rect class="cls-3" x="338.46" y="60.67" width="238.49" height="238.49"/><rect class="cls-3" x="614.95" y="60.67" width="238.49" height="238.49"/><rect class="cls-3" x="890.43" y="60.67" width="238.49" height="238.49"/><rect class="cls-3" x="61.29" y="338.6" width="238.49" height="238.49"/><rect class="cls-3" x="338.8" y="338.6" width="238.49" height="238.49"/><rect class="cls-3" x="615.29" y="338.6" width="238.49" height="238.49"/><rect class="cls-3" x="890.77" y="338.6" width="238.49" height="238.49"/><rect class="cls-3" x="61.29" y="616.54" width="238.49" height="238.49"/><rect class="cls-3" x="338.8" y="616.54" width="238.49" height="238.49"/><rect class="cls-3" x="615.29" y="616.54" width="238.49" height="238.49"/><rect class="cls-3" x="890.77" y="616.54" width="238.49" height="238.49"/><rect class="cls-3" x="61.29" y="888.41" width="238.49" height="238.49"/><rect class="cls-3" x="338.8" y="888.41" width="238.49" height="238.49"/><rect class="cls-3" x="615.29" y="888.41" width="238.49" height="238.49"/><rect class="cls-3" x="890.77" y="888.41" width="238.49" height="238.49"/><rect class="cls-4" x="60.95" y="60.67" width="183.86" height="183.86"/><rect class="cls-4" x="282.94" y="60.67" width="183.86" height="183.86"/><rect class="cls-4" x="503.35" y="60.67" width="183.86" height="183.86"/><rect class="cls-4" x="723.22" y="60.67" width="183.86" height="183.86"/><rect class="cls-4" x="945.4" y="60.67" width="183.86" height="183.86"/><rect class="cls-4" x="61.12" y="281.33" width="183.86" height="183.86"/><rect class="cls-4" x="283.11" y="281.33" width="183.86" height="183.86"/><rect class="cls-4" x="503.52" y="281.33" width="183.86" height="183.86"/><rect class="cls-4" x="723.39" y="281.33" width="183.86" height="183.86"/><rect class="cls-4" x="945.57" y="281.33" width="183.86" height="183.86"/><rect class="cls-4" x="61.46" y="503.35" width="183.86" height="183.86"/><rect class="cls-4" x="283.45" y="503.35" width="183.86" height="183.86"/><rect class="cls-4" x="503.86" y="503.35" width="183.86" height="183.86"/><rect class="cls-4" x="723.73" y="503.35" width="183.86" height="183.86"/><rect class="cls-4" x="945.91" y="503.35" width="183.86" height="183.86"/><rect class="cls-4" x="61.97" y="725.48" width="183.86" height="183.86"/><rect class="cls-4" x="283.96" y="725.48" width="183.86" height="183.86"/><rect class="cls-4" x="504.37" y="725.48" width="183.86" height="183.86"/><rect class="cls-4" x="724.24" y="725.48" width="183.86" height="183.86"/><rect class="cls-4" x="946.43" y="725.48" width="183.86" height="183.86"/><rect class="cls-4" x="61.12" y="945" width="183.86" height="183.86"/><rect class="cls-4" x="283.11" y="945" width="183.86" height="183.86"/><rect class="cls-4" x="503.52" y="945" width="183.86" height="183.86"/><rect class="cls-4" x="723.39" y="945" width="183.86" height="183.86"/><rect class="cls-4" x="945.57" y="943.04" width="183.86" height="183.86"/><rect class="cls-5" x="798" y="616.54" width="148.68" height="144.7"/><rect class="cls-5" x="797.88" y="981.52" width="148.68" height="144.7"/><rect class="cls-6" x="62.06" y="60.36" width="148.68" height="148.68"/><rect class="cls-6" x="245.92" y="60.36" width="148.68" height="148.68"/><rect class="cls-6" x="429.1" y="60.36" width="148.68" height="148.68"/><rect class="cls-6" x="613.12" y="60.36" width="148.68" height="148.68"/><rect class="cls-6" x="797.84" y="60.36" width="148.68" height="148.68"/><rect class="cls-6" x="981.68" y="60.36" width="148.68" height="148.68"/><rect class="cls-6" x="62.24" y="244.21" width="148.68" height="148.68"/><rect class="cls-6" x="246.09" y="244.21" width="148.68" height="148.68"/><rect class="cls-6" x="429.26" y="244.21" width="148.68" height="148.68"/><rect class="cls-6" x="613.3" y="244.21" width="148.68" height="148.68"/><rect class="cls-6" x="798" y="244.21" width="148.68" height="148.68"/><rect class="cls-6" x="981.87" y="244.21" width="148.68" height="148.68"/><rect class="cls-6" x="62.24" y="428.07" width="148.68" height="148.68"/><rect class="cls-6" x="246.09" y="428.07" width="148.68" height="148.68"/><rect class="cls-6" x="429.26" y="428.07" width="148.68" height="148.68"/><rect class="cls-6" x="613.3" y="428.07" width="148.68" height="148.68"/><rect class="cls-6" x="798" y="428.07" width="148.68" height="148.68"/><rect class="cls-6" x="981.87" y="428.07" width="148.68" height="148.68"/><rect class="cls-6" x="62.24" y="616.54" width="148.68" height="148.68"/><rect class="cls-6" x="245.71" y="616.54" width="148.68" height="148.68"/><rect class="cls-6" x="429.18" y="616.54" width="148.68" height="148.68"/><rect class="cls-6" x="613.89" y="616.54" width="148.68" height="148.68"/><rect class="cls-6" x="981.87" y="616.54" width="148.68" height="148.68"/><rect class="cls-6" x="62.24" y="797.04" width="148.68" height="148.68"/><rect class="cls-6" x="246.09" y="797.04" width="148.68" height="148.68"/><rect class="cls-6" x="429.26" y="797.04" width="148.68" height="148.68"/><rect class="cls-6" x="613.3" y="797.04" width="148.68" height="148.68"/><rect class="cls-6" x="798" y="797.04" width="148.68" height="148.68"/><rect class="cls-6" x="981.87" y="794.36" width="148.68" height="148.68"/><rect class="cls-6" x="62.24" y="979.53" width="148.68" height="148.68"/><rect class="cls-6" x="246.09" y="979.53" width="148.68" height="148.68"/><rect class="cls-6" x="429.26" y="977.54" width="148.68" height="148.68"/><rect class="cls-6" x="613.89" y="977.54" width="148.68" height="148.68"/><rect class="cls-6" x="981.87" y="977.54" width="148.68" height="148.68"/></g><g id="Livello_2" data-name="Livello 2"><g class="cls-7"><image class="cls-8" width="1000" height="667" transform="translate(62.24 460.86)" xlink:href="886859_03.jpg"/></g></g><g id="Livello_3" data-name="Livello 3"><g class="cls-9"><image class="cls-8" width="426" height="333" transform="translate(704.54 59.89)" xlink:href="886859_05.jpg"/></g><text class="cls-10" transform="translate(62.06 105.96)">WINTER SPORTS</text><g class="cls-8"><text class="cls-11" transform="translate(64.43 154.25)">Lorem ipsum dolor sit amet, consectetuer adipiscing elit, sed diam </text><text class="cls-11" transform="translate(64.43 178.25)">nonummy nibh euismod tincidunt ut laoreet dolore magna aliquam </text><text class="cls-11" transform="translate(64.43 202.25)">erat volutpat. Ut wisi enim ad minim veniam, quis nostrud exerci tation </text><text class="cls-11" transform="translate(64.43 226.25)">ullamcorper suscipit lobortis nisl ut aliquip ex ea commodo consequat. </text><text class="cls-11" transform="translate(64.43 250.25)">Duis autem vel eum iriure dolor in hendrerit in vulputate velit esse </text><text class="cls-11" transform="translate(64.43 274.25)">molestie consequat, vel illum dolore eu feugiat nulla facilisis at vero </text><text class="cls-11" transform="translate(64.43 298.25)">eros et accumsan et iusto odio dignissim qui blandit praesent lupta</text><text class="cls-11" transform="translate(545.65 298.25)">-</text><text class="cls-11" transform="translate(64.43 322.25)">tum zzril delenit augue duis dolore te feugait nulla facilisi.</text><text class="cls-11" transform="translate(64.43 346.25)">Lorem ipsum dolor sit amet, cons ectetuer adipiscing elit, sed diam </text><text class="cls-11" transform="translate(64.43 370.25)">nonummy nibh euismod tincidunt ut laoreet dolore magna aliquam </text><text class="cls-11" transform="translate(64.43 394.25)">erat volutpat. Ut wisi enim ad minim veniam, quis nostrud exerci tation </text><text class="cls-11" transform="translate(64.43 418.25)">ullamcorper suscipit lobortis nisl ut aliquip ex ea commodo consequat.</text><text class="cls-11" transform="translate(64.43 442.25)">Lorem ipsum dolor sit amet, consectetuer adipiscing elit, sed diam </text><text class="cls-11" transform="translate(64.43 466.25)">nonummy nibh euismod tincidunt ut laoreet dolore magna aliquam </text><text class="cls-11" transform="translate(64.43 490.25)">erat volutpat. Ut wisi enim ad minim veniam, quis nostrud exerci tation </text><text class="cls-11" transform="translate(64.43 514.25)">ullamcorper suscipit lobortis nisl ut aliquip ex ea commodo consequat. </text><text class="cls-11" transform="translate(64.43 538.25)">Duis autem vel eum iriure dolor in hendrerit in vulputate velit esse </text><text class="cls-11" transform="translate(64.43 562.25)">molestie consequat, vel illum dolore eu feugiat nulla facilisis at vero </text><text class="cls-11" transform="translate(64.43 586.25)">eros et accumsan et iusto odio dignissim qui blandit praesent lupta</text><text class="cls-11" transform="translate(545.65 586.25)">-</text><text class="cls-11" transform="translate(64.43 610.25)">tum zzril delenit augue duis dolore te feugait nulla facilisi.</text></g><g class="cls-8"><text class="cls-12" transform="translate(803.58 406.7)">Lorem </text><text class="cls-13" transform="translate(830.3 406.7)">i</text><text class="cls-12" transform="translate(833.09 406.7)">ps</text><text class="cls-14" transform="translate(840.24 406.7)">u</text><text class="cls-12" transform="translate(845.18 406.7)">m d</text><text class="cls-13" transform="translate(860.23 406.7)">o</text><text class="cls-12" transform="translate(863.83 406.7)">lor sit</text></g></g></g><g id="Livello_2-2" data-name="Livello 2"><text class="cls-15" transform="translate(384.71 924.57)">Lorem ipsum dolor <tspan x="-23.19" y="24">sit amet, consectetuer </tspan><tspan x="-36.7" y="48">adipiscing elit, sed diam no</tspan><tspan x="156.29" y="48">-</tspan><tspan x="-43.88" y="72">nummy nibh euismod tincidunt </tspan><tspan x="-45.22" y="96">ut laoreet dolore magna aliquam </tspan><tspan x="-40.09" y="120">erat volutpat. Ut wisi enim ad </tspan><tspan x="-29.2" y="144">minim veniam, quis nostrud </tspan><tspan x="-10.39" y="168">exerci tation ullamcor</tspan><tspan x="145" y="168">-</tspan><tspan x="24.7" y="192">per suscipit </tspan></text></g></svg>