<?xml version="1.0" encoding="utf-8"?>
<!-- Generator: Adobe Illustrator 22.1.0, SVG Export Plug-In . SVG Version: 6.00 Build 0)  -->
<svg version="1.1" id="Livello_1" xmlns="http://www.w3.org/2000/svg" xmlns:xlink="http://www.w3.org/1999/xlink" x="0px" y="0px"
	 viewBox="0 0 1190.6 1190.6" style="enable-background:new 0 0 1190.6 1190.6;" xml:space="preserve">
<style type="text/css">
	.st0{fill:#94C351;stroke:#01A8BA;stroke-miterlimit:10;}
	.st1{fill:none;stroke:#22244F;stroke-miterlimit:10;}
	.st2{fill:none;stroke:#29235C;stroke-miterlimit:10;}
	.st3{fill:none;stroke:#9C3838;stroke-miterlimit:10;}
	.st4{fill:none;stroke:#00A2D5;stroke-miterlimit:10;}
	.st5{clip-path:url(#SVGID_2_);}
</style>
<title>887082_04</title>
<g id="Livello_1_1_">
	<rect y="0.2" class="st0" width="1190.6" height="1190.6"/>
</g>
<g id="Livello_2_1_">
	<rect x="618.5" y="332.5" class="st1" width="239.5" height="239.5"/>
	<rect x="332.5" y="332.5" class="st1" width="239.5" height="239.5"/>
	<rect x="46.5" y="332.5" class="st1" width="239.5" height="239.5"/>
	<rect x="904.5" y="46.5" class="st1" width="239.5" height="239.5"/>
	<rect x="904.5" y="332.5" class="st1" width="239.5" height="239.5"/>
	<rect x="46.5" y="618.5" class="st1" width="239.5" height="239.5"/>
	<rect x="332.5" y="618.5" class="st1" width="239.5" height="239.5"/>
	<rect x="618.5" y="618.5" class="st1" width="239.5" height="239.5"/>
	<rect x="904.5" y="618.5" class="st1" width="239.5" height="239.5"/>
	<rect x="46.5" y="904.5" class="st1" width="239.5" height="239.5"/>
	<rect x="332.5" y="904" class="st1" width="239.5" height="239.5"/>
	<rect x="618.5" y="904" class="st1" width="239.5" height="239.5"/>
	<rect x="904.5" y="904" class="st1" width="239.5" height="239.5"/>
</g>
<g id="Livello_3">
	<rect x="618.5" y="46.5" class="st1" width="239.5" height="239.5"/>
	<rect x="332.5" y="46.5" class="st1" width="239.5" height="239.5"/>
	<rect x="44.4" y="46.5" class="st2" width="239.5" height="239.5"/>
</g>
<g id="Livello_4">
	<rect x="44.9" y="44.9" class="st3" width="184.3" height="184.3"/>
	<rect x="503.4" y="44.9" class="st3" width="184.3" height="184.3"/>
	<rect x="274" y="44.9" class="st3" width="184.3" height="184.3"/>
	<rect x="732.4" y="44.9" class="st3" width="184.3" height="184.3"/>
	<rect x="961.4" y="44.9" class="st3" width="184.2" height="184.3"/>
	<rect x="44.9" y="274" class="st3" width="184.3" height="184.3"/>
	<rect x="274" y="274" class="st3" width="184.3" height="184.3"/>
	<rect x="503.4" y="274" class="st3" width="184.3" height="184.3"/>
	<rect x="732.4" y="274" class="st3" width="184.3" height="184.3"/>
	<rect x="961.4" y="274" class="st3" width="184.2" height="184.3"/>
	<rect x="44.9" y="503.4" class="st3" width="184.3" height="184.3"/>
	<rect x="274" y="503.1" class="st3" width="184.3" height="184.3"/>
	<rect x="503.1" y="503.1" class="st3" width="184.3" height="184.3"/>
	<rect x="732.4" y="503.4" class="st3" width="184.3" height="184.3"/>
	<rect x="961.4" y="503.4" class="st3" width="184.2" height="184.3"/>
	<rect x="44.9" y="732.3" class="st3" width="184.3" height="184.3"/>
	<rect x="274" y="732.3" class="st3" width="184.3" height="184.3"/>
	<rect x="503.4" y="732.3" class="st3" width="184.3" height="184.3"/>
	<rect x="732.4" y="732.4" class="st3" width="184.3" height="184.3"/>
	<rect x="961.4" y="732.4" class="st3" width="184.2" height="184.3"/>
	<rect x="44.9" y="961.4" class="st3" width="184.3" height="184.3"/>
	<rect x="274" y="961.4" class="st3" width="184.3" height="184.3"/>
	<rect x="503.4" y="961.4" class="st3" width="184.3" height="184.3"/>
	<rect x="732.4" y="961.4" class="st3" width="184.3" height="184.3"/>
	<rect x="961.4" y="961.4" class="st3" width="184.2" height="184.3"/>
</g>
<g id="Livello_5">
	<rect x="234.9" y="44" class="st4" width="147.4" height="147.4"/>
	<rect x="43.7" y="44" class="st4" width="147.4" height="147.4"/>
	<rect x="426" y="44" class="st4" width="147.4" height="147.4"/>
	<rect x="617.2" y="44" class="st4" width="147.4" height="147.4"/>
	<rect x="808.3" y="44" class="st4" width="147.4" height="147.4"/>
	<rect x="999.4" y="44" class="st4" width="147.4" height="147.4"/>
	<rect x="234.9" y="235.1" class="st4" width="147.4" height="147.4"/>
	<rect x="426" y="235.1" class="st4" width="147.4" height="147.4"/>
	<rect x="617.2" y="235.1" class="st4" width="147.4" height="147.4"/>
	<rect x="808.3" y="235.1" class="st4" width="147.4" height="147.4"/>
	<rect x="999.4" y="240" class="st4" width="147.4" height="147.4"/>
	<rect x="999.4" y="426.2" class="st4" width="147.4" height="147.4"/>
	<rect x="617.2" y="426.2" class="st4" width="147.4" height="147.4"/>
	<rect x="234.9" y="44" class="st4" width="147.4" height="147.4"/>
	<rect x="808.3" y="426.2" class="st4" width="147.4" height="147.4"/>
	<rect x="426" y="426.2" class="st4" width="147.4" height="147.4"/>
	<rect x="234.9" y="426.2" class="st4" width="147.4" height="147.4"/>
	<rect x="43.7" y="426.2" class="st4" width="147.4" height="147.4"/>
	<rect x="43.7" y="999.6" class="st4" width="147.4" height="147.4"/>
	<rect x="234.9" y="999.6" class="st4" width="147.4" height="147.4"/>
	<rect x="426" y="999.6" class="st4" width="147.4" height="147.4"/>
	<rect x="617.2" y="999.6" class="st4" width="147.4" height="147.4"/>
	<rect x="808.3" y="999.6" class="st4" width="147.4" height="147.4"/>
	<rect x="43.7" y="808.5" class="st4" width="147.4" height="147.4"/>
	<rect x="999.4" y="999.6" class="st4" width="147.4" height="147.4"/>
	<rect x="234.9" y="808.5" class="st4" width="147.4" height="147.4"/>
	<rect x="426" y="617.4" class="st4" width="147.4" height="147.4"/>
	<rect x="234.9" y="617.4" class="st4" width="147.4" height="147.4"/>
	<rect x="43.7" y="617.4" class="st4" width="147.4" height="147.4"/>
	<rect x="426" y="808.5" class="st4" width="147.4" height="147.4"/>
	<rect x="617.2" y="617.4" class="st4" width="147.4" height="147.4"/>
	<rect x="999.4" y="617.4" class="st4" width="147.4" height="147.4"/>
	<rect x="808.3" y="617.4" class="st4" width="147.4" height="147.4"/>
	<rect x="617.2" y="808.5" class="st4" width="147.4" height="147.4"/>
	<rect x="808.3" y="808.5" class="st4" width="147.4" height="147.4"/>
	<rect x="999.4" y="808.5" class="st4" width="147.4" height="147.4"/>
	<rect x="43.7" y="235.1" class="st4" width="147.4" height="147.4"/>
</g>
<g id="mask">
	<g>
		<g>
			<defs>
				<rect id="SVGID_1_" x="331.8" y="617.4" width="239.5" height="239.5"/>
			</defs>
			<clipPath id="SVGID_2_">
				<use xlink:href="#SVGID_1_"  style="overflow:visible;"/>
			</clipPath>
			<g class="st5">
				
					<image style="overflow:visible;enable-background:new    ;" width="1920" height="1080" xlink:href="887082-00.jpg"  transform="matrix(0.27 0 0 0.27 243.57 596.2101)">
				</image>
			</g>
		</g>
	</g>
</g>
</svg>
