<svg id="Livello_1" data-name="Livello 1" xmlns="http://www.w3.org/2000/svg" xmlns:xlink="http://www.w3.org/1999/xlink" viewBox="0 0 1190.55 1190.55"><defs><style>.cls-1,.cls-3,.cls-5,.cls-6{fill:none;}.cls-2{fill:#94c351;}.cls-2,.cls-3{stroke:#01a8ba;}.cls-2,.cls-3,.cls-5,.cls-6{stroke-miterlimit:10;}.cls-4{clip-path:url(#clip-path);}.cls-5{stroke:#8b1812;}.cls-6{stroke:#f206ec;}.cls-7{clip-path:url(#clip-path-2);}</style><clipPath id="clip-path"><rect class="cls-1" x="61.11" y="614.75" width="239.53" height="239.53"/></clipPath><clipPath id="clip-path-2"><circle class="cls-1" cx="174.61" cy="1010.9" r="98.25"/></clipPath></defs><title>887082_05</title><g id="Livello_1-2" data-name="Livello 1"><rect class="cls-2" x="0.17" y="1.05" width="1190.55" height="1190.55"/></g><rect class="cls-3" x="61.11" y="62" width="239.53" height="239.53"/><rect class="cls-3" x="337.49" y="62" width="239.53" height="239.53"/><rect class="cls-3" x="613.87" y="62" width="239.53" height="239.53"/><rect class="cls-3" x="890.25" y="62" width="239.53" height="239.53"/><rect class="cls-3" x="61.11" y="338.38" width="239.53" height="239.53"/><rect class="cls-3" x="337.49" y="338.38" width="239.53" height="239.53"/><rect class="cls-3" x="613.87" y="338.38" width="239.53" height="239.53"/><rect class="cls-3" x="890.25" y="338.38" width="239.53" height="239.53"/><g class="cls-4"><image width="639" height="960" transform="translate(45.6 572.37) scale(0.46)" xlink:href="../../Desktop/mood/74921df8-35d2-418c-81f9-26cf55dd6798.jpg"/></g><rect class="cls-3" x="337.49" y="614.75" width="239.53" height="239.53"/><rect class="cls-3" x="613.87" y="614.75" width="239.53" height="239.53"/><rect class="cls-3" x="890.25" y="614.75" width="239.53" height="239.53"/><rect class="cls-3" x="61.11" y="891.13" width="239.53" height="239.53"/><rect class="cls-3" x="337.49" y="891.13" width="239.53" height="239.53"/><rect class="cls-3" x="613.87" y="891.13" width="239.53" height="239.53"/><rect class="cls-3" x="890.25" y="891.13" width="239.53" height="239.53"/><rect class="cls-5" x="61.11" y="62" width="184.25" height="184.25"/><rect class="cls-5" x="282.21" y="62" width="184.25" height="184.25"/><rect class="cls-5" x="503.32" y="62" width="184.25" height="184.25"/><rect class="cls-5" x="724.42" y="62" width="184.25" height="184.25"/><rect class="cls-5" x="945.52" y="62" width="184.25" height="184.25"/><rect class="cls-5" x="61.11" y="283.1" width="184.25" height="184.25"/><rect class="cls-5" x="282.21" y="283.1" width="184.25" height="184.25"/><rect class="cls-5" x="503.32" y="283.1" width="184.25" height="184.25"/><rect class="cls-5" x="724.42" y="283.1" width="184.25" height="184.25"/><rect class="cls-5" x="945.52" y="283.1" width="184.25" height="184.25"/><rect class="cls-5" x="61.11" y="504.2" width="184.25" height="184.25"/><rect class="cls-5" x="282.21" y="504.2" width="184.25" height="184.25"/><rect class="cls-5" x="503.32" y="504.2" width="184.25" height="184.25"/><rect class="cls-5" x="724.42" y="504.2" width="184.25" height="184.25"/><rect class="cls-5" x="945.52" y="504.2" width="184.25" height="184.25"/><rect class="cls-5" x="61.11" y="725.31" width="184.25" height="184.25"/><rect class="cls-5" x="282.21" y="725.31" width="184.25" height="184.25"/><rect class="cls-5" x="503.32" y="725.31" width="184.25" height="184.25"/><rect class="cls-5" x="724.42" y="725.31" width="184.25" height="184.25"/><rect class="cls-5" x="945.52" y="725.31" width="184.25" height="184.25"/><rect class="cls-5" x="61.11" y="946.41" width="184.25" height="184.25"/><rect class="cls-5" x="282.21" y="946.41" width="184.25" height="184.25"/><rect class="cls-5" x="503.32" y="946.41" width="184.25" height="184.25"/><rect class="cls-5" x="724.42" y="946.41" width="184.25" height="184.25"/><rect class="cls-5" x="945.52" y="946.41" width="184.25" height="184.25"/><rect class="cls-6" x="60.94" y="60.94" width="147.4" height="147.4"/><rect class="cls-6" x="245.2" y="60.94" width="147.4" height="147.4"/><rect class="cls-6" x="429.45" y="60.94" width="147.4" height="147.4"/><rect class="cls-6" x="613.7" y="60.94" width="147.4" height="147.4"/><rect class="cls-6" x="797.95" y="60.94" width="147.4" height="147.4"/><rect class="cls-6" x="982.2" y="60.94" width="147.4" height="147.4"/><rect class="cls-6" x="60.94" y="245.2" width="147.4" height="147.4"/><rect class="cls-6" x="245.2" y="245.2" width="147.4" height="147.4"/><rect class="cls-6" x="429.45" y="245.2" width="147.4" height="147.4"/><rect class="cls-6" x="613.7" y="245.2" width="147.4" height="147.4"/><rect class="cls-6" x="797.95" y="245.2" width="147.4" height="147.4"/><rect class="cls-6" x="982.2" y="245.2" width="147.4" height="147.4"/><rect class="cls-6" x="60.94" y="429.45" width="147.4" height="147.4"/><rect class="cls-6" x="245.2" y="429.45" width="147.4" height="147.4"/><rect class="cls-6" x="429.45" y="429.45" width="147.4" height="147.4"/><rect class="cls-6" x="613.7" y="429.45" width="147.4" height="147.4"/><rect class="cls-6" x="797.95" y="429.45" width="147.4" height="147.4"/><rect class="cls-6" x="982.2" y="429.45" width="147.4" height="147.4"/><rect class="cls-6" x="60.94" y="613.7" width="147.4" height="147.4"/><rect class="cls-6" x="245.2" y="613.7" width="147.4" height="147.4"/><rect class="cls-6" x="429.45" y="613.7" width="147.4" height="147.4"/><rect class="cls-6" x="613.7" y="613.7" width="147.4" height="147.4"/><rect class="cls-6" x="797.95" y="613.7" width="147.4" height="147.4"/><rect class="cls-6" x="982.2" y="613.7" width="147.4" height="147.4"/><rect class="cls-6" x="60.94" y="797.95" width="147.4" height="147.4"/><rect class="cls-6" x="245.2" y="797.95" width="147.4" height="147.4"/><rect class="cls-6" x="429.45" y="797.95" width="147.4" height="147.4"/><rect class="cls-6" x="613.7" y="797.95" width="147.4" height="147.4"/><rect class="cls-6" x="797.95" y="797.95" width="147.4" height="147.4"/><rect class="cls-6" x="982.2" y="797.95" width="147.4" height="147.4"/><rect class="cls-6" x="60.94" y="982.2" width="147.4" height="147.4"/><rect class="cls-6" x="245.2" y="982.2" width="147.4" height="147.4"/><rect class="cls-6" x="429.45" y="982.2" width="147.4" height="147.4"/><rect class="cls-6" x="613.7" y="982.2" width="147.4" height="147.4"/><rect class="cls-6" x="797.95" y="982.2" width="147.4" height="147.4"/><rect class="cls-6" x="982.2" y="982.2" width="147.4" height="147.4"/><g class="cls-7"><image width="684" height="1000" transform="translate(5.49 751.11) scale(0.43)" xlink:href="../../Desktop/mood/divanof.jpg"/></g></svg>