<svg id="Livello_1" data-name="Livello 1" xmlns="http://www.w3.org/2000/svg" xmlns:xlink="http://www.w3.org/1999/xlink" viewBox="0 0 1190.6 1190.6"><defs><style>.cls-1,.cls-3,.cls-4,.cls-5{fill:none;}.cls-2{fill:#76b830;}.cls-3{stroke:#ffda40;}.cls-4{stroke:#ff00ed;}.cls-5{stroke:blue;}.cls-6{clip-path:url(#clip-path);}.cls-10,.cls-11,.cls-12,.cls-13,.cls-14,.cls-7,.cls-9{isolation:isolate;}.cls-8{clip-path:url(#clip-path-2);}.cls-10,.cls-11,.cls-12,.cls-9{font-size:10px;font-family:EBGaramond-Italic, EB Garamond;font-style:italic;}.cls-10{letter-spacing:-0.03em;}.cls-11{letter-spacing:-0.02em;}.cls-12{letter-spacing:-0.01em;}.cls-13,.cls-15{font-size:16px;font-family:OpenSans-Light, Open Sans;}.cls-14{font-size:60px;font-family:OpenSans-Bold, Open Sans;font-weight:700;}</style><clipPath id="clip-path"><rect class="cls-1" x="60.9" y="798" width="147.4" height="147.4"/></clipPath><clipPath id="clip-path-2"><circle class="cls-1" cx="231.9" cy="595.25" r="171"/></clipPath></defs><title>887082_07</title><g id="Livello_1-2" data-name="Livello 1-2"><rect class="cls-2" width="1190.6" height="1190.6"/></g><g id="tabella_1" data-name="tabella 1"><rect class="cls-3" x="60.9" y="60.9" width="239.5" height="239.5"/><rect class="cls-3" x="337.3" y="60.9" width="239.5" height="239.5"/><rect class="cls-3" x="613.7" y="60.9" width="239.5" height="239.5"/><rect class="cls-3" x="890.1" y="60.9" width="239.5" height="239.5"/><rect class="cls-3" x="60.9" y="337.3" width="239.5" height="239.5"/><rect class="cls-3" x="337.3" y="337.3" width="239.5" height="239.5"/><rect class="cls-3" x="613.7" y="337.3" width="239.5" height="239.5"/><rect class="cls-3" x="890.1" y="337.3" width="239.5" height="239.5"/><rect class="cls-3" x="60.9" y="613.7" width="239.5" height="239.5"/><rect class="cls-3" x="337.3" y="613.7" width="239.5" height="239.5"/><rect class="cls-3" x="613.7" y="613.7" width="239.5" height="239.5"/><rect class="cls-3" x="890.1" y="613.7" width="239.5" height="239.5"/><rect class="cls-3" x="60.9" y="890.1" width="239.5" height="239.5"/><rect class="cls-3" x="337.3" y="890.1" width="239.5" height="239.5"/><rect class="cls-3" x="613.7" y="890.1" width="239.5" height="239.5"/><rect class="cls-3" x="890.1" y="890.1" width="239.5" height="239.5"/></g><g id="tabella_2" data-name="tabella 2"><rect class="cls-4" x="60.9" y="60.9" width="184.3" height="184.3"/><rect class="cls-4" x="282" y="60.9" width="184.3" height="184.3"/><rect class="cls-4" x="503.1" y="60.9" width="184.3" height="184.3"/><rect class="cls-4" x="724.3" y="60.9" width="184.3" height="184.3"/><rect class="cls-4" x="945.4" y="60.9" width="184.3" height="184.3"/><rect class="cls-4" x="60.9" y="282" width="184.3" height="184.3"/><rect class="cls-4" x="282" y="282" width="184.3" height="184.3"/><rect class="cls-4" x="503.1" y="282" width="184.3" height="184.3"/><rect class="cls-4" x="724.3" y="282" width="184.3" height="184.3"/><rect class="cls-4" x="945.4" y="282" width="184.3" height="184.3"/><rect class="cls-4" x="60.9" y="503.1" width="184.3" height="184.3"/><rect class="cls-4" x="282" y="503.1" width="184.3" height="184.3"/><rect class="cls-4" x="503.1" y="503.1" width="184.3" height="184.3"/><rect class="cls-4" x="724.3" y="503.1" width="184.3" height="184.3"/><rect class="cls-4" x="945.4" y="503.1" width="184.3" height="184.3"/><rect class="cls-4" x="60.9" y="724.3" width="184.3" height="184.3"/><rect class="cls-4" x="282" y="724.3" width="184.3" height="184.3"/><rect class="cls-4" x="503.1" y="724.3" width="184.3" height="184.3"/><rect class="cls-4" x="724.3" y="724.3" width="184.3" height="184.3"/><rect class="cls-4" x="945.4" y="724.3" width="184.3" height="184.3"/><rect class="cls-4" x="60.9" y="945.4" width="184.3" height="184.3"/><rect class="cls-4" x="282" y="945.4" width="184.3" height="184.3"/><rect class="cls-4" x="503.1" y="945.4" width="184.3" height="184.3"/><rect class="cls-4" x="724.3" y="945.4" width="184.3" height="184.3"/><rect class="cls-4" x="945.4" y="945.4" width="184.3" height="184.3"/></g><g id="tabella_3" data-name="tabella 3"><rect class="cls-5" x="60.9" y="60.9" width="147.4" height="147.4"/><rect class="cls-5" x="245.2" y="60.9" width="147.4" height="147.4"/><rect class="cls-5" x="429.4" y="60.9" width="147.4" height="147.4"/><rect class="cls-5" x="613.7" y="60.9" width="147.4" height="147.4"/><rect class="cls-5" x="798" y="60.9" width="147.4" height="147.4"/><rect class="cls-5" x="982.2" y="60.9" width="147.4" height="147.4"/><rect class="cls-5" x="60.9" y="245.2" width="147.4" height="147.4"/><rect class="cls-5" x="245.2" y="245.2" width="147.4" height="147.4"/><rect class="cls-5" x="429.4" y="245.2" width="147.4" height="147.4"/><rect class="cls-5" x="613.7" y="245.2" width="147.4" height="147.4"/><rect class="cls-5" x="798" y="245.2" width="147.4" height="147.4"/><rect class="cls-5" x="982.2" y="245.2" width="147.4" height="147.4"/><rect class="cls-5" x="60.9" y="429.4" width="147.4" height="147.4"/><rect class="cls-5" x="245.2" y="429.4" width="147.4" height="147.4"/><rect class="cls-5" x="429.4" y="429.4" width="147.4" height="147.4"/><rect class="cls-5" x="613.7" y="429.4" width="147.4" height="147.4"/><rect class="cls-5" x="798" y="429.4" width="147.4" height="147.4"/><rect class="cls-5" x="982.2" y="429.4" width="147.4" height="147.4"/><rect class="cls-5" x="60.9" y="613.7" width="147.4" height="147.4"/><rect class="cls-5" x="245.2" y="613.7" width="147.4" height="147.4"/><rect class="cls-5" x="429.4" y="613.7" width="147.4" height="147.4"/><rect class="cls-5" x="613.7" y="613.7" width="147.4" height="147.4"/><rect class="cls-5" x="798" y="613.7" width="147.4" height="147.4"/><rect class="cls-5" x="982.2" y="613.7" width="147.4" height="147.4"/><g class="cls-6"><image class="cls-7" width="540" height="809" transform="translate(60.9 522.95) scale(0.75)" xlink:href="887082_03.jpg"/></g><rect class="cls-5" x="245.2" y="798" width="147.4" height="147.4"/><rect class="cls-5" x="429.4" y="798" width="147.4" height="147.4"/><rect class="cls-5" x="613.7" y="798" width="147.4" height="147.4"/><rect class="cls-5" x="798" y="798" width="147.4" height="147.4"/><rect class="cls-5" x="982.2" y="798" width="147.4" height="147.4"/><rect class="cls-5" x="60.9" y="982.2" width="147.4" height="147.4"/><rect class="cls-5" x="245.2" y="982.2" width="147.4" height="147.4"/><rect class="cls-5" x="429.4" y="982.2" width="147.4" height="147.4"/><rect class="cls-5" x="613.7" y="982.2" width="147.4" height="147.4"/><rect class="cls-5" x="798" y="982.2" width="147.4" height="147.4"/><rect class="cls-5" x="982.2" y="982.2" width="147.4" height="147.4"/></g><g class="cls-8"><image class="cls-7" width="960" height="1432" transform="translate(25.8 267.38) scale(0.41)" xlink:href="887082_05.jpg"/></g><g class="cls-7"><text class="cls-9" transform="translate(218.2 805.6)">detta</text><text class="cls-10" transform="translate(237.52 805.6)">g</text><text class="cls-9" transform="translate(241.42 805.6)">l</text><text class="cls-11" transform="translate(244.28 805.6)">i</text><text class="cls-9" transform="translate(247.02 805.6)">o di </text><text class="cls-12" transform="translate(262.92 805.6)">u</text><text class="cls-9" transform="translate(267.86 805.6)">no st</text><text class="cls-11" transform="translate(284.61 805.6)">u</text><text class="cls-9" transform="translate(289.5 805.6)">d</text><text class="cls-11" transform="translate(294.66 805.6)">i</text><text class="cls-9" transform="translate(297.4 805.6)">o</text></g><g class="cls-7"><text class="cls-13" transform="translate(613.7 257.36)">Lorem ipsum dolor sit amet, consectetuer adipiscing elit, sed diam no</text><text class="cls-13" transform="translate(1111.42 257.36)">-</text><text class="cls-13" transform="translate(613.7 281.36)">nummy nibh euismod tincidunt ut laoreet dolore magna aliquam erat </text><text class="cls-13" transform="translate(613.7 305.36)">volutpat. Ut wisi enim ad minim veniam, quis nostrud exerci tation </text><text class="cls-13" transform="translate(613.7 329.36)">ullamcorper suscipit lobortis nisl ut aliquip ex ea commodo consequat. </text><text class="cls-13" transform="translate(613.7 353.36)">Duis autem vel eum iriure dolor in hendrerit in vulputate velit esse mo</text><text class="cls-13" transform="translate(1115.19 353.36)">-</text><text class="cls-13" transform="translate(613.7 377.36)">lestie consequat, vel illum dolore eu feugiat nulla facilisis at vero eros et </text><text class="cls-13" transform="translate(613.7 401.36)">accumsan et iusto odio dignissim qui blandit praesent luptatum zzril </text><text class="cls-13" transform="translate(613.7 425.36)">delenit augue duis dolore te feugait nulla facilisi.</text><text class="cls-13" transform="translate(613.7 449.36)">Lorem ipsum dolor sit amet, cons ectetuer adipiscing elit, sed diam no</text><text class="cls-13" transform="translate(1115.58 449.36)">-</text><text class="cls-13" transform="translate(613.7 473.36)">nummy nibh euismod tincidunt ut laoreet dolore magna aliquam erat </text><text class="cls-13" transform="translate(613.7 497.36)">volutpat. Ut wisi enim ad minim veniam, quis nostrud exerci tation </text><text class="cls-13" transform="translate(613.7 521.36)">ullamcorper suscipit lobortis nisl ut aliquip ex ea commodo consequat.</text><text class="cls-13" transform="translate(613.7 545.36)">Lorem ipsum dolor sit amet, consectetuer adipiscing elit, sed diam no</text><text class="cls-13" transform="translate(1111.42 545.36)">-</text><text class="cls-13" transform="translate(613.7 569.36)">nummy nibh euismod tincidunt ut laoreet dolore magna aliquam erat</text></g><text class="cls-14" transform="translate(399.9 106.5)">vectors exercises</text><text class="cls-15" transform="translate(388.4 269.77)">Lorem ipsum dolor <tspan x="-10.91" y="24">sit amet, consectetuer </tspan><tspan x="-30.41" y="48">adipiscing elit, sed diam no</tspan><tspan x="162.57" y="48">-</tspan><tspan x="-43.68" y="72">nummy nibh euismod tincidunt </tspan><tspan x="-48.89" y="96">ut laoreet dolore magna aliquam </tspan><tspan x="-35.85" y="120">erat volutpat. Ut wisi enim ad </tspan><tspan x="-31.07" y="144">minim veniam, quis nostrud </tspan><tspan x="-11.62" y="168">exerci tation ullamcor</tspan><tspan x="143.77" y="168">-</tspan><tspan x="27.28" y="192">per suscipit </tspan></text></svg>