<?xml version="1.0" encoding="utf-8"?>
<!-- Generator: Adobe Illustrator 22.1.0, SVG Export Plug-In . SVG Version: 6.00 Build 0)  -->
<svg version="1.1" id="Livello_1" xmlns="http://www.w3.org/2000/svg" xmlns:xlink="http://www.w3.org/1999/xlink" x="0px" y="0px"
	 viewBox="0 0 1190.6 1190.6" style="enable-background:new 0 0 1190.6 1190.6;" xml:space="preserve">
<style type="text/css">
	.st0{fill:#94C351;stroke:#01A8BA;stroke-miterlimit:10;}
	.st1{fill:none;stroke:#22244F;stroke-miterlimit:10;}
	.st2{fill:none;stroke:#29235C;stroke-miterlimit:10;}
	.st3{fill:none;stroke:#9C3838;stroke-miterlimit:10;}
	.st4{fill:none;stroke:#00A2D5;stroke-miterlimit:10;}
	.st5{clip-path:url(#SVGID_2_);}
	.st6{clip-path:url(#SVGID_4_);}
	.st7{fill:#1D1D1B;}
	.st8{font-family:'OpenSans-Bold';}
	.st9{font-size:60px;}
	.st10{font-family:'OpenSans-Light';}
	.st11{font-size:16px;}
	.st12{font-family:'EBGaramond-Medium';}
	.st13{font-size:10px;}
</style>
<title>887082_07</title>
<g id="Livello_1-2">
	<rect y="0.2" class="st0" width="1190.6" height="1190.6"/>
</g>
<g id="Livello_2_1_">
	<rect x="618.5" y="332.5" class="st1" width="239.5" height="239.5"/>
	<rect x="332.5" y="332.5" class="st1" width="239.5" height="239.5"/>
	<rect x="46.5" y="332.5" class="st1" width="239.5" height="239.5"/>
	<rect x="904.5" y="46.5" class="st1" width="239.5" height="239.5"/>
	<rect x="904.5" y="332.5" class="st1" width="239.5" height="239.5"/>
	<rect x="46.5" y="618.5" class="st1" width="239.5" height="239.5"/>
	<rect x="332.5" y="618.5" class="st1" width="239.5" height="239.5"/>
	<rect x="618.5" y="618.5" class="st1" width="239.5" height="239.5"/>
	<rect x="904.5" y="618.5" class="st1" width="239.5" height="239.5"/>
	<rect x="46.5" y="904.5" class="st1" width="239.5" height="239.5"/>
	<rect x="332.5" y="904" class="st1" width="239.5" height="239.5"/>
	<rect x="618.5" y="904" class="st1" width="239.5" height="239.5"/>
	<rect x="904.5" y="904" class="st1" width="239.5" height="239.5"/>
</g>
<g id="Livello_3">
	<rect x="618.5" y="46.5" class="st1" width="239.5" height="239.5"/>
	<rect x="332.5" y="46.5" class="st1" width="239.5" height="239.5"/>
	<rect x="44.4" y="46.5" class="st2" width="239.5" height="239.5"/>
</g>
<g id="Livello_4">
	<rect x="44.9" y="44.9" class="st3" width="184.3" height="184.3"/>
	<rect x="503.4" y="44.9" class="st3" width="184.3" height="184.3"/>
	<rect x="274" y="44.9" class="st3" width="184.3" height="184.3"/>
	<rect x="732.4" y="44.9" class="st3" width="184.3" height="184.3"/>
	<rect x="961.4" y="44.9" class="st3" width="184.2" height="184.3"/>
	<rect x="44.9" y="274" class="st3" width="184.3" height="184.3"/>
	<rect x="274" y="274" class="st3" width="184.3" height="184.3"/>
	<rect x="503.4" y="274" class="st3" width="184.3" height="184.3"/>
	<rect x="732.4" y="274" class="st3" width="184.3" height="184.3"/>
	<rect x="961.4" y="274" class="st3" width="184.2" height="184.3"/>
	<rect x="44.9" y="503.4" class="st3" width="184.3" height="184.3"/>
	<rect x="274" y="503.1" class="st3" width="184.3" height="184.3"/>
	<rect x="503.1" y="503.1" class="st3" width="184.3" height="184.3"/>
	<rect x="732.4" y="503.4" class="st3" width="184.3" height="184.3"/>
	<rect x="961.4" y="503.4" class="st3" width="184.2" height="184.3"/>
	<rect x="44.9" y="732.3" class="st3" width="184.3" height="184.3"/>
	<rect x="274" y="732.3" class="st3" width="184.3" height="184.3"/>
	<rect x="503.4" y="732.3" class="st3" width="184.3" height="184.3"/>
	<rect x="732.4" y="732.4" class="st3" width="184.3" height="184.3"/>
	<rect x="961.4" y="732.4" class="st3" width="184.2" height="184.3"/>
	<rect x="44.9" y="961.4" class="st3" width="184.3" height="184.3"/>
	<rect x="274" y="961.4" class="st3" width="184.3" height="184.3"/>
	<rect x="503.4" y="961.4" class="st3" width="184.3" height="184.3"/>
	<rect x="732.4" y="961.4" class="st3" width="184.3" height="184.3"/>
	<rect x="961.4" y="961.4" class="st3" width="184.2" height="184.3"/>
</g>
<g id="Livello_5">
	<rect x="234.9" y="44" class="st4" width="147.4" height="147.4"/>
	<rect x="43.7" y="44" class="st4" width="147.4" height="147.4"/>
	<rect x="426" y="44" class="st4" width="147.4" height="147.4"/>
	<rect x="617.2" y="44" class="st4" width="147.4" height="147.4"/>
	<rect x="808.3" y="44" class="st4" width="147.4" height="147.4"/>
	<rect x="999.4" y="44" class="st4" width="147.4" height="147.4"/>
	<rect x="234.9" y="235.1" class="st4" width="147.4" height="147.4"/>
	<rect x="426" y="235.1" class="st4" width="147.4" height="147.4"/>
	<rect x="617.2" y="235.1" class="st4" width="147.4" height="147.4"/>
	<rect x="808.3" y="235.1" class="st4" width="147.4" height="147.4"/>
	<rect x="999.4" y="240" class="st4" width="147.4" height="147.4"/>
	<rect x="999.4" y="426.2" class="st4" width="147.4" height="147.4"/>
	<rect x="617.2" y="426.2" class="st4" width="147.4" height="147.4"/>
	<rect x="234.9" y="44" class="st4" width="147.4" height="147.4"/>
	<rect x="808.3" y="426.2" class="st4" width="147.4" height="147.4"/>
	<rect x="426" y="426.2" class="st4" width="147.4" height="147.4"/>
	<rect x="234.9" y="426.2" class="st4" width="147.4" height="147.4"/>
	<rect x="43.7" y="426.2" class="st4" width="147.4" height="147.4"/>
	<rect x="43.7" y="999.6" class="st4" width="147.4" height="147.4"/>
	<rect x="234.9" y="999.6" class="st4" width="147.4" height="147.4"/>
	<rect x="426" y="999.6" class="st4" width="147.4" height="147.4"/>
	<rect x="617.2" y="999.6" class="st4" width="147.4" height="147.4"/>
	<rect x="808.3" y="999.6" class="st4" width="147.4" height="147.4"/>
	<rect x="43.7" y="808.5" class="st4" width="147.4" height="147.4"/>
	<rect x="999.4" y="999.6" class="st4" width="147.4" height="147.4"/>
	<rect x="234.9" y="808.5" class="st4" width="147.4" height="147.4"/>
	<rect x="426" y="617.4" class="st4" width="147.4" height="147.4"/>
	<rect x="234.9" y="617.4" class="st4" width="147.4" height="147.4"/>
	<rect x="43.7" y="617.4" class="st4" width="147.4" height="147.4"/>
	<rect x="426" y="808.5" class="st4" width="147.4" height="147.4"/>
	<rect x="617.2" y="617.4" class="st4" width="147.4" height="147.4"/>
	<rect x="999.4" y="617.4" class="st4" width="147.4" height="147.4"/>
	<rect x="808.3" y="617.4" class="st4" width="147.4" height="147.4"/>
	<rect x="617.2" y="808.5" class="st4" width="147.4" height="147.4"/>
	<rect x="808.3" y="808.5" class="st4" width="147.4" height="147.4"/>
	<rect x="999.4" y="808.5" class="st4" width="147.4" height="147.4"/>
	<rect x="43.7" y="235.1" class="st4" width="147.4" height="147.4"/>
</g>
<g id="mask">
	<g>
		<defs>
			<rect id="SVGID_1_" x="332.5" y="617.4" width="239.5" height="239.5"/>
		</defs>
		<clipPath id="SVGID_2_">
			<use xlink:href="#SVGID_1_"  style="overflow:visible;"/>
		</clipPath>
		<g class="st5">
			
				<image style="overflow:visible;enable-background:new    ;" width="1920" height="1080" xlink:href="887082-00.jpg"  transform="matrix(0.27 0 0 0.27 244.25 596.2101)">
			</image>
		</g>
	</g>
</g>
<g id="mask2">
	<g>
		<defs>
			<circle id="SVGID_3_" cx="882" cy="693.5" r="100.7"/>
		</defs>
		<clipPath id="SVGID_4_">
			<use xlink:href="#SVGID_3_"  style="overflow:visible;"/>
		</clipPath>
		<g class="st6">
			
				<image style="overflow:visible;enable-background:new    ;" width="960" height="639" xlink:href="887082-01.jpg"  transform="matrix(0.46 0 0 0.46 620.57 504.69)">
			</image>
		</g>
	</g>
	<text transform="matrix(1 0 0 1 74.62 74.62)" class="st7 st8 st9">Paesaggi naturali</text>
	<g>
		<text transform="matrix(1 0 0 1 44.87 358.36)" class="st7 st10 st11">Lorem ipsum dolor sit</text>
		<text transform="matrix(1 0 0 1 44.87 382.36)" class="st7 st10 st11">amet, consectetuer</text>
		<text transform="matrix(1 0 0 1 44.87 406.36)" class="st7 st10 st11">adipiscing elit, sed</text>
		<text transform="matrix(1 0 0 1 44.87 430.36)" class="st7 st10 st11">diam nonummy nibh</text>
		<text transform="matrix(1 0 0 1 44.87 454.36)" class="st7 st10 st11">euismod tincidunt ut</text>
		<text transform="matrix(1 0 0 1 44.87 478.36)" class="st7 st10 st11">laoreet dolore magna</text>
		<text transform="matrix(1 0 0 1 44.87 502.36)" class="st7 st10 st11">aliquam erat volutpat.</text>
		<text transform="matrix(1 0 0 1 44.87 526.36)" class="st7 st10 st11">Ut wisi enim ad minim</text>
		<text transform="matrix(1 0 0 1 44.87 550.36)" class="st7 st10 st11">veniam, quis nostrud</text>
	</g>
	<g>
		<text transform="matrix(1 0 0 1 581.02 670.0901)" class="st7 st12 st13">Sug</text>
		<text transform="matrix(1 0 0 1 595.7 670.0901)" class="st7 st12 st13">g</text>
		<text transform="matrix(1 0 0 1 600.25 670.0901)" class="st7 st12 st13">esti</text>
		<text transform="matrix(1 0 0 1 613.59 670.0901)" class="st7 st12 st13">v</text>
		<text transform="matrix(1 0 0 1 617.95 670.0901)" class="st7 st12 st13">a vista ma</text>
		<text transform="matrix(1 0 0 1 656.36 670.0901)" class="st7 st12 st13">r</text>
		<text transform="matrix(1 0 0 1 659.94 670.0901)" class="st7 st12 st13">e nei p</text>
		<text transform="matrix(1 0 0 1 685.54 670.0901)" class="st7 st12 st13">r</text>
		<text transform="matrix(1 0 0 1 689.12 670.0901)" class="st7 st12 st13">essi</text>
		<text transform="matrix(1 0 0 1 704.6 670.0901)" class="st7 st12 st13">d</text>
		<text transform="matrix(1 0 0 1 709.77 670.0901)" class="st7 st12 st13">ella Sa</text>
		<text transform="matrix(1 0 0 1 734.03 670.0901)" class="st7 st12 st13">r</text>
		<text transform="matrix(1 0 0 1 737.61 670.0901)" class="st7 st12 st13">d</text>
		<text transform="matrix(1 0 0 1 742.78 670.0901)" class="st7 st12 st13">egna</text>
	</g>
</g>
<text transform="matrix(1 0 0 1 96.01 662.8401)" class="st10 st11">Lorem ipsum dolor </text>
<text transform="matrix(1 0 0 1 74.32 686.8401)" class="st10 st11">sit amet, consectetuer </text>
<text transform="matrix(1 0 0 1 62.24 710.8401)" class="st10 st11">adipiscing elit, sed diam no</text>
<text transform="matrix(1 0 0 1 255.23 710.8401)" class="st10 st11">-</text>
<text transform="matrix(1 0 0 1 56.59 734.8401)" class="st10 st11">nummy nibh euismod tinci</text>
<text transform="matrix(1 0 0 1 247.49 734.8401)" class="st10 st11">-</text>
<text transform="matrix(1 0 0 1 57.94 758.8401)" class="st10 st11">dunt ut laoreet dolore magna </text>
<text transform="matrix(1 0 0 1 65.68 782.8401)" class="st10 st11">aliquam erat volutpat. Ut </text>
<text transform="matrix(1 0 0 1 80.58 806.8401)" class="st10 st11">wisi enim ad minim </text>
<text transform="matrix(1 0 0 1 107.78 830.8401)" class="st10 st11">veniam, quis</text>
</svg>
