<svg id="Livello_1" data-name="Livello 1" xmlns="http://www.w3.org/2000/svg" xmlns:xlink="http://www.w3.org/1999/xlink" viewBox="0 0 1190.6 1190.6"><defs><style>.cls-1,.cls-3,.cls-4,.cls-5{fill:none;}.cls-2{fill:#76b830;}.cls-3{stroke:#ffda40;}.cls-4{stroke:#ff00ed;}.cls-5{stroke:blue;}.cls-6{clip-path:url(#clip-path);}.cls-10,.cls-11,.cls-12,.cls-7,.cls-9{isolation:isolate;}.cls-8{clip-path:url(#clip-path-2);}.cls-10,.cls-11,.cls-12,.cls-9{font-size:10px;font-family:EBGaramond-Italic, EB Garamond;font-style:italic;}.cls-10{letter-spacing:-0.03em;}.cls-11{letter-spacing:-0.02em;}.cls-12{letter-spacing:-0.01em;}.cls-13{font-size:60px;font-family:OpenSansCondensed-Bold, Open Sans Condensed;font-weight:700;}.cls-14{letter-spacing:-0.01em;}.cls-15{font-size:16px;font-family:OpenSans-Light, Open Sans;}</style><clipPath id="clip-path"><rect class="cls-1" x="60.9" y="613.7" width="239.5" height="239.5"/></clipPath><clipPath id="clip-path-2"><circle class="cls-1" cx="192.11" cy="998.39" r="131.21"/></clipPath></defs><title>887082_07</title><g id="Livello_1-2" data-name="Livello 1-2"><rect class="cls-2" width="1190.6" height="1190.6"/></g><g id="tabella_1" data-name="tabella 1"><rect class="cls-3" x="60.9" y="60.9" width="239.5" height="239.5"/><rect class="cls-3" x="337.3" y="60.9" width="239.5" height="239.5"/><rect class="cls-3" x="613.7" y="60.9" width="239.5" height="239.5"/><rect class="cls-3" x="890.1" y="60.9" width="239.5" height="239.5"/><rect class="cls-3" x="60.9" y="337.3" width="239.5" height="239.5"/><rect class="cls-3" x="337.3" y="337.3" width="239.5" height="239.5"/><rect class="cls-3" x="613.7" y="337.3" width="239.5" height="239.5"/><rect class="cls-3" x="890.1" y="337.3" width="239.5" height="239.5"/><rect class="cls-3" x="337.3" y="613.7" width="239.5" height="239.5"/><rect class="cls-3" x="613.7" y="613.7" width="239.5" height="239.5"/><rect class="cls-3" x="890.1" y="613.7" width="239.5" height="239.5"/><rect class="cls-3" x="60.9" y="890.1" width="239.5" height="239.5"/><rect class="cls-3" x="337.3" y="890.1" width="239.5" height="239.5"/><rect class="cls-3" x="613.7" y="890.1" width="239.5" height="239.5"/><rect class="cls-3" x="890.1" y="890.1" width="239.5" height="239.5"/></g><g id="tabella_2" data-name="tabella 2"><rect class="cls-4" x="60.9" y="60.9" width="184.3" height="184.3"/><rect class="cls-4" x="282" y="60.9" width="184.3" height="184.3"/><rect class="cls-4" x="503.1" y="60.9" width="184.3" height="184.3"/><rect class="cls-4" x="724.3" y="60.9" width="184.3" height="184.3"/><rect class="cls-4" x="945.4" y="60.9" width="184.3" height="184.3"/><rect class="cls-4" x="60.9" y="282" width="184.3" height="184.3"/><rect class="cls-4" x="282" y="282" width="184.3" height="184.3"/><rect class="cls-4" x="503.1" y="282" width="184.3" height="184.3"/><rect class="cls-4" x="724.3" y="282" width="184.3" height="184.3"/><rect class="cls-4" x="945.4" y="282" width="184.3" height="184.3"/><rect class="cls-4" x="60.9" y="503.1" width="184.3" height="184.3"/><rect class="cls-4" x="282" y="503.1" width="184.3" height="184.3"/><rect class="cls-4" x="503.1" y="503.1" width="184.3" height="184.3"/><rect class="cls-4" x="724.3" y="503.1" width="184.3" height="184.3"/><rect class="cls-4" x="945.4" y="503.1" width="184.3" height="184.3"/><rect class="cls-4" x="60.9" y="724.3" width="184.3" height="184.3"/><rect class="cls-4" x="282" y="724.3" width="184.3" height="184.3"/><rect class="cls-4" x="503.1" y="724.3" width="184.3" height="184.3"/><rect class="cls-4" x="724.3" y="724.3" width="184.3" height="184.3"/><rect class="cls-4" x="945.4" y="724.3" width="184.3" height="184.3"/><rect class="cls-4" x="60.9" y="945.4" width="184.3" height="184.3"/><rect class="cls-4" x="282" y="945.4" width="184.3" height="184.3"/><rect class="cls-4" x="503.1" y="945.4" width="184.3" height="184.3"/><rect class="cls-4" x="724.3" y="945.4" width="184.3" height="184.3"/><rect class="cls-4" x="945.4" y="945.4" width="184.3" height="184.3"/></g><g id="tabella_3" data-name="tabella 3"><rect class="cls-5" x="60.9" y="60.9" width="147.4" height="147.4"/><rect class="cls-5" x="245.2" y="60.9" width="147.4" height="147.4"/><rect class="cls-5" x="429.4" y="60.9" width="147.4" height="147.4"/><rect class="cls-5" x="613.7" y="60.9" width="147.4" height="147.4"/><rect class="cls-5" x="798" y="60.9" width="147.4" height="147.4"/><rect class="cls-5" x="982.2" y="60.9" width="147.4" height="147.4"/><text></text><rect class="cls-5" x="245.2" y="245.2" width="147.4" height="147.4"/><rect class="cls-5" x="429.4" y="245.2" width="147.4" height="147.4"/><rect class="cls-5" x="613.7" y="245.2" width="147.4" height="147.4"/><rect class="cls-5" x="798" y="245.2" width="147.4" height="147.4"/><rect class="cls-5" x="982.2" y="245.2" width="147.4" height="147.4"/><rect class="cls-5" x="60.9" y="429.4" width="147.4" height="147.4"/><rect class="cls-5" x="245.2" y="429.4" width="147.4" height="147.4"/><rect class="cls-5" x="429.4" y="429.4" width="147.4" height="147.4"/><rect class="cls-5" x="613.7" y="429.4" width="147.4" height="147.4"/><rect class="cls-5" x="798" y="429.4" width="147.4" height="147.4"/><rect class="cls-5" x="982.2" y="429.4" width="147.4" height="147.4"/><rect class="cls-5" x="60.9" y="613.7" width="147.4" height="147.4"/><rect class="cls-5" x="245.2" y="613.7" width="147.4" height="147.4"/><rect class="cls-5" x="429.4" y="613.7" width="147.4" height="147.4"/><rect class="cls-5" x="613.7" y="613.7" width="147.4" height="147.4"/><rect class="cls-5" x="798" y="613.7" width="147.4" height="147.4"/><rect class="cls-5" x="982.2" y="613.7" width="147.4" height="147.4"/><rect class="cls-5" x="60.9" y="798" width="147.4" height="147.4"/><rect class="cls-5" x="245.2" y="798" width="147.4" height="147.4"/><rect class="cls-5" x="429.4" y="798" width="147.4" height="147.4"/><rect class="cls-5" x="613.7" y="798" width="147.4" height="147.4"/><rect class="cls-5" x="798" y="798" width="147.4" height="147.4"/><rect class="cls-5" x="982.2" y="798" width="147.4" height="147.4"/><rect class="cls-5" x="60.9" y="982.2" width="147.4" height="147.4"/><rect class="cls-5" x="245.2" y="982.2" width="147.4" height="147.4"/><rect class="cls-5" x="429.4" y="982.2" width="147.4" height="147.4"/><rect class="cls-5" x="613.7" y="982.2" width="147.4" height="147.4"/><rect class="cls-5" x="798" y="982.2" width="147.4" height="147.4"/><rect class="cls-5" x="982.2" y="982.2" width="147.4" height="147.4"/></g><g class="cls-6"><image class="cls-7" width="540" height="809" transform="translate(60.9 424.05) scale(0.87)" xlink:href="../../Desktop/mood/887082_01.jpg"/></g><g class="cls-8"><image class="cls-7" width="611" height="900" transform="translate(49.45 756.9) scale(0.47)" xlink:href="../../Desktop/mood/b51e9eda-f773-4db5-b391-df4cba626ea2.jpg"/></g><g class="cls-7"><text class="cls-9" transform="translate(304 620.75)">detta</text><text class="cls-10" transform="translate(323.32 620.75)">g</text><text class="cls-9" transform="translate(327.22 620.75)">l</text><text class="cls-11" transform="translate(330.08 620.75)">i</text><text class="cls-9" transform="translate(332.82 620.75)">o di </text><text class="cls-12" transform="translate(348.72 620.75)">u</text><text class="cls-9" transform="translate(353.66 620.75)">no st</text><text class="cls-11" transform="translate(370.41 620.75)">u</text><text class="cls-9" transform="translate(375.3 620.75)">d</text><text class="cls-11" transform="translate(380.46 620.75)">i</text><text class="cls-9" transform="translate(383.2 620.75)">o</text></g><text class="cls-13" transform="translate(368.22 107.15)">VEC<tspan class="cls-14" x="83.55" y="0">T</tspan><tspan x="108.69" y="0">ORS EXERCISES</tspan></text><text class="cls-15" transform="translate(60.9 257.36)">Lorem ipsum dolor sit amet, consectetuer adipiscing elit, sed diam no<tspan x="497.72" y="0">-</tspan><tspan x="0" y="24">nummy nibh euismod tincidunt ut laoreet dolore magna aliquam erat </tspan><tspan x="0" y="48">volutpat. Ut wisi enim ad minim veniam, quis nostrud exerci tation </tspan><tspan x="0" y="72">ullamcorper suscipit lobortis nisl ut aliquip ex ea commodo consequat. </tspan><tspan x="0" y="96">Duis autem vel eum iriure dolor in hendrerit in vulputate velit esse mo</tspan><tspan x="501.49" y="96">-</tspan><tspan x="0" y="120">lestie consequat, vel illum dolore eu feugiat nulla facilisis at vero eros et </tspan><tspan x="0" y="144">accumsan et iusto odio dignissim qui blandit praesent luptatum zzril </tspan><tspan x="0" y="168">delenit augue duis dolore te feugait nulla facilisi.</tspan><tspan x="0" y="192">Lorem ipsum dolor sit amet, cons ectetuer adipiscing elit, sed diam no</tspan><tspan x="501.88" y="192">-</tspan><tspan x="0" y="216">nummy nibh euismod tincidunt ut laoreet dolore magna aliquam erat </tspan><tspan x="0" y="240">volutpat. Ut wisi enim ad minim veniam, quis nostrud exerci tation </tspan><tspan x="0" y="264">ullamcorper suscipit lobortis nisl ut aliquip ex ea commodo consequat.</tspan><tspan x="0" y="288">Lorem ipsum dolor sit amet, consectetuer adipiscing elit, sed diam no</tspan></text><text class="cls-15" transform="translate(804.51 281.36)">Lorem ipsum dolor sit <tspan x="-29.64" y="24">amet, consectetuer adipiscing </tspan><tspan x="-49.1" y="48">elit, sed diam nonummy nibh eui</tspan><tspan x="185.13" y="48">-</tspan><tspan x="-62.39" y="72">smod tincidunt ut laoreet dolore magna </tspan><tspan x="-71.04" y="96">aliquam erat volutpat. Ut wisi enim ad </tspan><tspan x="-75.79" y="120">minim veniam, quis nostrud exerci tation </tspan><tspan x="-76.44" y="144">ullamcorper suscipit lobortis nisl ut aliquip ex </tspan><tspan x="-72.63" y="168">ea commodo consequat. Duis autem vel </tspan><tspan x="-65.05" y="192">eum iriure dolor in hendrerit in vulputate </tspan><tspan x="-53.07" y="216">velit esse molestie consequat, vel illum </tspan><tspan x="-35.43" y="240">dolore eu feugiat nulla facilisis at </tspan><tspan x="-9.15" y="264">vero eros et accumsan et </tspan><tspan x="38.24" y="288">iusto odio </tspan></text></svg>