<svg id="Livello_1" data-name="Livello 1" xmlns="http://www.w3.org/2000/svg" xmlns:xlink="http://www.w3.org/1999/xlink" viewBox="0 0 1190.55 1190.55"><defs><style>.cls-1,.cls-3,.cls-6,.cls-7{fill:none;}.cls-2{fill:#94c351;}.cls-2,.cls-3{stroke:#01a8ba;}.cls-2,.cls-3,.cls-6,.cls-7{stroke-miterlimit:10;}.cls-4{clip-path:url(#clip-path);}.cls-10,.cls-11,.cls-12,.cls-13,.cls-5,.cls-9{isolation:isolate;}.cls-6{stroke:#8b1812;}.cls-7{stroke:#f206ec;}.cls-8{clip-path:url(#clip-path-2);}.cls-9{font-size:60px;font-family:OpenSans-Bold, Open Sans;font-weight:700;}.cls-10{font-size:16px;font-family:OpenSans-Light, Open Sans;}.cls-11,.cls-12,.cls-13{font-size:10px;font-family:EBGaramond-Italic, EB Garamond;font-style:italic;}.cls-12{letter-spacing:-0.02em;}.cls-13{letter-spacing:-0.01em;}</style><clipPath id="clip-path"><rect class="cls-1" x="61.11" y="614.75" width="239.53" height="239.53"/></clipPath><clipPath id="clip-path-2"><circle class="cls-1" cx="174.61" cy="1010.9" r="98.25"/></clipPath></defs><title>887082_06</title><g id="Livello_1-2" data-name="Livello 1-2"><rect class="cls-2" x="0.17" y="1.05" width="1190.55" height="1190.55"/></g><rect class="cls-3" x="61.11" y="62" width="239.53" height="239.53"/><rect class="cls-3" x="337.49" y="62" width="239.53" height="239.53"/><rect class="cls-3" x="613.87" y="62" width="239.53" height="239.53"/><rect class="cls-3" x="890.25" y="62" width="239.53" height="239.53"/><rect class="cls-3" x="61.11" y="338.38" width="239.53" height="239.53"/><rect class="cls-3" x="337.49" y="338.38" width="239.53" height="239.53"/><rect class="cls-3" x="613.87" y="338.38" width="239.53" height="239.53"/><rect class="cls-3" x="890.25" y="338.38" width="239.53" height="239.53"/><g class="cls-4"><image class="cls-5" width="639" height="960" transform="translate(45.6 572.37) scale(0.46)" xlink:href="../../Desktop/mood/74921df8-35d2-418c-81f9-26cf55dd6798.jpg"/></g><rect class="cls-3" x="337.49" y="614.75" width="239.53" height="239.53"/><rect class="cls-3" x="613.87" y="614.75" width="239.53" height="239.53"/><rect class="cls-3" x="890.25" y="614.75" width="239.53" height="239.53"/><rect class="cls-3" x="61.11" y="891.13" width="239.53" height="239.53"/><rect class="cls-3" x="337.49" y="891.13" width="239.53" height="239.53"/><rect class="cls-3" x="613.87" y="891.13" width="239.53" height="239.53"/><rect class="cls-3" x="890.25" y="891.13" width="239.53" height="239.53"/><rect class="cls-6" x="61.11" y="62" width="184.25" height="184.25"/><rect class="cls-6" x="282.21" y="62" width="184.25" height="184.25"/><rect class="cls-6" x="503.32" y="62" width="184.25" height="184.25"/><rect class="cls-6" x="724.42" y="62" width="184.25" height="184.25"/><rect class="cls-6" x="945.52" y="62" width="184.25" height="184.25"/><rect class="cls-6" x="61.11" y="283.1" width="184.25" height="184.25"/><rect class="cls-6" x="282.21" y="283.1" width="184.25" height="184.25"/><rect class="cls-6" x="503.32" y="283.1" width="184.25" height="184.25"/><rect class="cls-6" x="724.42" y="283.1" width="184.25" height="184.25"/><rect class="cls-6" x="945.52" y="283.1" width="184.25" height="184.25"/><rect class="cls-6" x="61.11" y="504.2" width="184.25" height="184.25"/><rect class="cls-6" x="282.21" y="504.2" width="184.25" height="184.25"/><rect class="cls-6" x="503.32" y="504.2" width="184.25" height="184.25"/><rect class="cls-6" x="724.42" y="504.2" width="184.25" height="184.25"/><rect class="cls-6" x="945.52" y="504.2" width="184.25" height="184.25"/><rect class="cls-6" x="61.11" y="725.31" width="184.25" height="184.25"/><rect class="cls-6" x="282.21" y="725.31" width="184.25" height="184.25"/><rect class="cls-6" x="503.32" y="725.31" width="184.25" height="184.25"/><rect class="cls-6" x="724.42" y="725.31" width="184.25" height="184.25"/><rect class="cls-6" x="945.52" y="725.31" width="184.25" height="184.25"/><rect class="cls-6" x="61.11" y="946.41" width="184.25" height="184.25"/><rect class="cls-6" x="282.21" y="946.41" width="184.25" height="184.25"/><rect class="cls-6" x="503.32" y="946.41" width="184.25" height="184.25"/><rect class="cls-6" x="724.42" y="946.41" width="184.25" height="184.25"/><rect class="cls-6" x="945.52" y="946.41" width="184.25" height="184.25"/><rect class="cls-7" x="60.94" y="60.94" width="147.4" height="147.4"/><rect class="cls-7" x="429.45" y="60.94" width="147.4" height="147.4"/><rect class="cls-7" x="613.7" y="60.94" width="147.4" height="147.4"/><rect class="cls-7" x="797.95" y="60.94" width="147.4" height="147.4"/><rect class="cls-7" x="982.2" y="60.94" width="147.4" height="147.4"/><rect class="cls-7" x="60.94" y="245.2" width="147.4" height="147.4"/><rect class="cls-7" x="245.2" y="245.2" width="147.4" height="147.4"/><rect class="cls-7" x="429.45" y="245.2" width="147.4" height="147.4"/><rect class="cls-7" x="613.7" y="245.2" width="147.4" height="147.4"/><rect class="cls-7" x="797.95" y="245.2" width="147.4" height="147.4"/><rect class="cls-7" x="982.2" y="245.2" width="147.4" height="147.4"/><rect class="cls-7" x="60.94" y="429.45" width="147.4" height="147.4"/><rect class="cls-7" x="245.2" y="429.45" width="147.4" height="147.4"/><rect class="cls-7" x="429.45" y="429.45" width="147.4" height="147.4"/><rect class="cls-7" x="613.7" y="429.45" width="147.4" height="147.4"/><rect class="cls-7" x="797.95" y="429.45" width="147.4" height="147.4"/><rect class="cls-7" x="982.2" y="429.45" width="147.4" height="147.4"/><rect class="cls-7" x="60.94" y="613.7" width="147.4" height="147.4"/><rect class="cls-7" x="429.45" y="613.7" width="147.4" height="147.4"/><rect class="cls-7" x="613.7" y="613.7" width="147.4" height="147.4"/><rect class="cls-7" x="797.95" y="613.7" width="147.4" height="147.4"/><rect class="cls-7" x="982.2" y="613.7" width="147.4" height="147.4"/><rect class="cls-7" x="60.94" y="797.95" width="147.4" height="147.4"/><rect class="cls-7" x="245.2" y="797.95" width="147.4" height="147.4"/><rect class="cls-7" x="429.45" y="797.95" width="147.4" height="147.4"/><rect class="cls-7" x="613.7" y="797.95" width="147.4" height="147.4"/><rect class="cls-7" x="797.95" y="797.95" width="147.4" height="147.4"/><rect class="cls-7" x="982.2" y="797.95" width="147.4" height="147.4"/><rect class="cls-7" x="60.94" y="982.2" width="147.4" height="147.4"/><rect class="cls-7" x="245.2" y="982.2" width="147.4" height="147.4"/><rect class="cls-7" x="429.45" y="982.2" width="147.4" height="147.4"/><rect class="cls-7" x="613.7" y="982.2" width="147.4" height="147.4"/><rect class="cls-7" x="797.95" y="982.2" width="147.4" height="147.4"/><rect class="cls-7" x="982.2" y="982.2" width="147.4" height="147.4"/><g class="cls-8"><image class="cls-5" width="684" height="1000" transform="translate(5.49 751.11) scale(0.43)" xlink:href="../../Desktop/mood/divanof.jpg"/></g><text class="cls-9" transform="translate(367 105.77)">ESERCIZI VECTORS</text><g class="cls-5"><text class="cls-10" transform="translate(60.94 295.26)">Lorem ipsum dolor sit </text><text class="cls-10" transform="translate(60.94 319.26)">amet, consectetuer adipi</text><text class="cls-10" transform="translate(238.39 319.26)">-</text><text class="cls-10" transform="translate(60.94 343.26)">scing elit, sed diam no</text><text class="cls-10" transform="translate(219.17 343.26)">-</text><text class="cls-10" transform="translate(60.94 367.26)">nummy nibh euismod </text><text class="cls-10" transform="translate(60.94 391.26)">tincidunt ut laoreet </text><text class="cls-10" transform="translate(60.94 415.26)">dolore magna aliquam </text><text class="cls-10" transform="translate(60.94 439.26)">erat volutpat. Ut wisi </text><text class="cls-10" transform="translate(60.94 463.26)">enim ad minim veniam,</text></g><g class="cls-5"><text class="cls-11" transform="translate(313.49 623.66)">p</text><text class="cls-12" transform="translate(317.88 623.66)">a</text><text class="cls-11" transform="translate(322.59 623.66)">rete </text><text class="cls-12" transform="translate(338.12 623.66)">c</text><text class="cls-11" transform="translate(341.1 623.66)">on quadri </text><text class="cls-13" transform="translate(313.49 647.66)">a</text><text class="cls-11" transform="translate(318.3 647.66)">ppesi</text></g></svg>