<svg id="Livello_1" data-name="Livello 1" xmlns="http://www.w3.org/2000/svg" xmlns:xlink="http://www.w3.org/1999/xlink" viewBox="0 0 1190.6 1190.6"><defs><style>.cls-1,.cls-3,.cls-4,.cls-5{fill:none;}.cls-2{fill:#76b830;}.cls-3{stroke:#ffda40;}.cls-4{stroke:#ff00ed;}.cls-5{stroke:blue;}.cls-6{clip-path:url(#clip-path);}</style><clipPath id="clip-path"><rect class="cls-1" x="60.9" y="613.7" width="239.5" height="239.5"/></clipPath></defs><title>887082_04</title><g id="Livello_1-2" data-name="Livello 1"><rect class="cls-2" width="1190.6" height="1190.6"/></g><g id="tabella_1" data-name="tabella 1"><rect class="cls-3" x="60.9" y="60.9" width="239.5" height="239.5"/><rect class="cls-3" x="337.3" y="60.9" width="239.5" height="239.5"/><rect class="cls-3" x="613.7" y="60.9" width="239.5" height="239.5"/><rect class="cls-3" x="890.1" y="60.9" width="239.5" height="239.5"/><rect class="cls-3" x="60.9" y="337.3" width="239.5" height="239.5"/><rect class="cls-3" x="337.3" y="337.3" width="239.5" height="239.5"/><rect class="cls-3" x="613.7" y="337.3" width="239.5" height="239.5"/><rect class="cls-3" x="890.1" y="337.3" width="239.5" height="239.5"/><rect class="cls-3" x="337.3" y="613.7" width="239.5" height="239.5"/><rect class="cls-3" x="613.7" y="613.7" width="239.5" height="239.5"/><rect class="cls-3" x="890.1" y="613.7" width="239.5" height="239.5"/><rect class="cls-3" x="60.9" y="890.1" width="239.5" height="239.5"/><rect class="cls-3" x="337.3" y="890.1" width="239.5" height="239.5"/><rect class="cls-3" x="613.7" y="890.1" width="239.5" height="239.5"/><rect class="cls-3" x="890.1" y="890.1" width="239.5" height="239.5"/></g><g id="tabella_2" data-name="tabella 2"><rect class="cls-4" x="60.9" y="60.9" width="184.3" height="184.3"/><rect class="cls-4" x="282" y="60.9" width="184.3" height="184.3"/><rect class="cls-4" x="503.1" y="60.9" width="184.3" height="184.3"/><rect class="cls-4" x="724.3" y="60.9" width="184.3" height="184.3"/><rect class="cls-4" x="945.4" y="60.9" width="184.3" height="184.3"/><rect class="cls-4" x="60.9" y="282" width="184.3" height="184.3"/><rect class="cls-4" x="282" y="282" width="184.3" height="184.3"/><rect class="cls-4" x="503.1" y="282" width="184.3" height="184.3"/><rect class="cls-4" x="724.3" y="282" width="184.3" height="184.3"/><rect class="cls-4" x="945.4" y="282" width="184.3" height="184.3"/><rect class="cls-4" x="60.9" y="503.1" width="184.3" height="184.3"/><rect class="cls-4" x="282" y="503.1" width="184.3" height="184.3"/><rect class="cls-4" x="503.1" y="503.1" width="184.3" height="184.3"/><rect class="cls-4" x="724.3" y="503.1" width="184.3" height="184.3"/><rect class="cls-4" x="945.4" y="503.1" width="184.3" height="184.3"/><rect class="cls-4" x="60.9" y="724.3" width="184.3" height="184.3"/><rect class="cls-4" x="282" y="724.3" width="184.3" height="184.3"/><rect class="cls-4" x="503.1" y="724.3" width="184.3" height="184.3"/><rect class="cls-4" x="724.3" y="724.3" width="184.3" height="184.3"/><rect class="cls-4" x="945.4" y="724.3" width="184.3" height="184.3"/><rect class="cls-4" x="60.9" y="945.4" width="184.3" height="184.3"/><rect class="cls-4" x="282" y="945.4" width="184.3" height="184.3"/><rect class="cls-4" x="503.1" y="945.4" width="184.3" height="184.3"/><rect class="cls-4" x="724.3" y="945.4" width="184.3" height="184.3"/><rect class="cls-4" x="945.4" y="945.4" width="184.3" height="184.3"/></g><g id="tabella_3" data-name="tabella 3"><rect class="cls-5" x="60.9" y="60.9" width="147.4" height="147.4"/><rect class="cls-5" x="245.2" y="60.9" width="147.4" height="147.4"/><rect class="cls-5" x="429.4" y="60.9" width="147.4" height="147.4"/><rect class="cls-5" x="613.7" y="60.9" width="147.4" height="147.4"/><rect class="cls-5" x="798" y="60.9" width="147.4" height="147.4"/><rect class="cls-5" x="982.2" y="60.9" width="147.4" height="147.4"/><rect class="cls-5" x="60.9" y="245.2" width="147.4" height="147.4"/><rect class="cls-5" x="245.2" y="245.2" width="147.4" height="147.4"/><rect class="cls-5" x="429.4" y="245.2" width="147.4" height="147.4"/><rect class="cls-5" x="613.7" y="245.2" width="147.4" height="147.4"/><rect class="cls-5" x="798" y="245.2" width="147.4" height="147.4"/><rect class="cls-5" x="982.2" y="245.2" width="147.4" height="147.4"/><rect class="cls-5" x="60.9" y="429.4" width="147.4" height="147.4"/><rect class="cls-5" x="245.2" y="429.4" width="147.4" height="147.4"/><rect class="cls-5" x="429.4" y="429.4" width="147.4" height="147.4"/><rect class="cls-5" x="613.7" y="429.4" width="147.4" height="147.4"/><rect class="cls-5" x="798" y="429.4" width="147.4" height="147.4"/><rect class="cls-5" x="982.2" y="429.4" width="147.4" height="147.4"/><rect class="cls-5" x="60.9" y="613.7" width="147.4" height="147.4"/><rect class="cls-5" x="245.2" y="613.7" width="147.4" height="147.4"/><rect class="cls-5" x="429.4" y="613.7" width="147.4" height="147.4"/><rect class="cls-5" x="613.7" y="613.7" width="147.4" height="147.4"/><rect class="cls-5" x="798" y="613.7" width="147.4" height="147.4"/><rect class="cls-5" x="982.2" y="613.7" width="147.4" height="147.4"/><rect class="cls-5" x="60.9" y="798" width="147.4" height="147.4"/><rect class="cls-5" x="245.2" y="798" width="147.4" height="147.4"/><rect class="cls-5" x="429.4" y="798" width="147.4" height="147.4"/><rect class="cls-5" x="613.7" y="798" width="147.4" height="147.4"/><rect class="cls-5" x="798" y="798" width="147.4" height="147.4"/><rect class="cls-5" x="982.2" y="798" width="147.4" height="147.4"/><rect class="cls-5" x="60.9" y="982.2" width="147.4" height="147.4"/><rect class="cls-5" x="245.2" y="982.2" width="147.4" height="147.4"/><rect class="cls-5" x="429.4" y="982.2" width="147.4" height="147.4"/><rect class="cls-5" x="613.7" y="982.2" width="147.4" height="147.4"/><rect class="cls-5" x="798" y="982.2" width="147.4" height="147.4"/><rect class="cls-5" x="982.2" y="982.2" width="147.4" height="147.4"/></g><g class="cls-6"><image width="540" height="809" transform="translate(60.9 424.05) scale(0.87)" xlink:href="../../Desktop/mood/6f6a19b1-7333-4ef4-807e-777cf6267d54.jpg"/></g></svg>