<svg id="Livello_1" data-name="Livello 1" xmlns="http://www.w3.org/2000/svg" xmlns:xlink="http://www.w3.org/1999/xlink" viewBox="0 0 1190.6 1190.6"><defs><style>.cls-1,.cls-3,.cls-4,.cls-5{fill:none;}.cls-2{fill:#76b830;}.cls-3{stroke:#ffda40;}.cls-4{stroke:#ff00ed;}.cls-5{stroke:blue;}.cls-6{clip-path:url(#clip-path);}.cls-10,.cls-11,.cls-12,.cls-13,.cls-7,.cls-9{isolation:isolate;}.cls-8{clip-path:url(#clip-path-2);}.cls-10,.cls-11,.cls-12,.cls-9{font-size:10px;font-family:EBGaramond-Italic, EB Garamond;font-style:italic;}.cls-10{letter-spacing:-0.03em;}.cls-11{letter-spacing:-0.02em;}.cls-12{letter-spacing:-0.01em;}.cls-13{font-size:16px;font-family:OpenSans-Light, Open Sans;}.cls-14{font-size:60px;font-family:OpenSansCondensed-Bold, Open Sans Condensed;font-weight:700;}.cls-15{letter-spacing:-0.01em;}</style><clipPath id="clip-path"><rect class="cls-1" x="60.9" y="613.7" width="239.5" height="239.5"/></clipPath><clipPath id="clip-path-2"><circle class="cls-1" cx="192.11" cy="998.39" r="131.21"/></clipPath></defs><title>887082_06</title><g id="Livello_1-2" data-name="Livello 1-2"><rect class="cls-2" width="1190.6" height="1190.6"/></g><g id="tabella_1" data-name="tabella 1"><rect class="cls-3" x="60.9" y="60.9" width="239.5" height="239.5"/><rect class="cls-3" x="337.3" y="60.9" width="239.5" height="239.5"/><rect class="cls-3" x="613.7" y="60.9" width="239.5" height="239.5"/><rect class="cls-3" x="890.1" y="60.9" width="239.5" height="239.5"/><rect class="cls-3" x="60.9" y="337.3" width="239.5" height="239.5"/><rect class="cls-3" x="337.3" y="337.3" width="239.5" height="239.5"/><rect class="cls-3" x="613.7" y="337.3" width="239.5" height="239.5"/><rect class="cls-3" x="890.1" y="337.3" width="239.5" height="239.5"/><rect class="cls-3" x="337.3" y="613.7" width="239.5" height="239.5"/><rect class="cls-3" x="613.7" y="613.7" width="239.5" height="239.5"/><rect class="cls-3" x="890.1" y="613.7" width="239.5" height="239.5"/><rect class="cls-3" x="60.9" y="890.1" width="239.5" height="239.5"/><rect class="cls-3" x="337.3" y="890.1" width="239.5" height="239.5"/><rect class="cls-3" x="613.7" y="890.1" width="239.5" height="239.5"/><rect class="cls-3" x="890.1" y="890.1" width="239.5" height="239.5"/></g><g id="tabella_2" data-name="tabella 2"><rect class="cls-4" x="60.9" y="60.9" width="184.3" height="184.3"/><rect class="cls-4" x="282" y="60.9" width="184.3" height="184.3"/><rect class="cls-4" x="503.1" y="60.9" width="184.3" height="184.3"/><rect class="cls-4" x="724.3" y="60.9" width="184.3" height="184.3"/><rect class="cls-4" x="945.4" y="60.9" width="184.3" height="184.3"/><rect class="cls-4" x="60.9" y="282" width="184.3" height="184.3"/><rect class="cls-4" x="282" y="282" width="184.3" height="184.3"/><rect class="cls-4" x="503.1" y="282" width="184.3" height="184.3"/><rect class="cls-4" x="724.3" y="282" width="184.3" height="184.3"/><rect class="cls-4" x="945.4" y="282" width="184.3" height="184.3"/><rect class="cls-4" x="60.9" y="503.1" width="184.3" height="184.3"/><rect class="cls-4" x="282" y="503.1" width="184.3" height="184.3"/><rect class="cls-4" x="503.1" y="503.1" width="184.3" height="184.3"/><rect class="cls-4" x="724.3" y="503.1" width="184.3" height="184.3"/><rect class="cls-4" x="945.4" y="503.1" width="184.3" height="184.3"/><rect class="cls-4" x="60.9" y="724.3" width="184.3" height="184.3"/><rect class="cls-4" x="282" y="724.3" width="184.3" height="184.3"/><rect class="cls-4" x="503.1" y="724.3" width="184.3" height="184.3"/><rect class="cls-4" x="724.3" y="724.3" width="184.3" height="184.3"/><rect class="cls-4" x="945.4" y="724.3" width="184.3" height="184.3"/><rect class="cls-4" x="60.9" y="945.4" width="184.3" height="184.3"/><rect class="cls-4" x="282" y="945.4" width="184.3" height="184.3"/><rect class="cls-4" x="503.1" y="945.4" width="184.3" height="184.3"/><rect class="cls-4" x="724.3" y="945.4" width="184.3" height="184.3"/><rect class="cls-4" x="945.4" y="945.4" width="184.3" height="184.3"/></g><g id="tabella_3" data-name="tabella 3"><rect class="cls-5" x="60.9" y="60.9" width="147.4" height="147.4"/><rect class="cls-5" x="245.2" y="60.9" width="147.4" height="147.4"/><rect class="cls-5" x="429.4" y="60.9" width="147.4" height="147.4"/><rect class="cls-5" x="613.7" y="60.9" width="147.4" height="147.4"/><rect class="cls-5" x="798" y="60.9" width="147.4" height="147.4"/><rect class="cls-5" x="982.2" y="60.9" width="147.4" height="147.4"/><rect class="cls-5" x="60.9" y="245.2" width="147.4" height="147.4"/><rect class="cls-5" x="245.2" y="245.2" width="147.4" height="147.4"/><rect class="cls-5" x="429.4" y="245.2" width="147.4" height="147.4"/><rect class="cls-5" x="613.7" y="245.2" width="147.4" height="147.4"/><rect class="cls-5" x="798" y="245.2" width="147.4" height="147.4"/><rect class="cls-5" x="982.2" y="245.2" width="147.4" height="147.4"/><rect class="cls-5" x="60.9" y="429.4" width="147.4" height="147.4"/><rect class="cls-5" x="245.2" y="429.4" width="147.4" height="147.4"/><rect class="cls-5" x="429.4" y="429.4" width="147.4" height="147.4"/><rect class="cls-5" x="613.7" y="429.4" width="147.4" height="147.4"/><rect class="cls-5" x="798" y="429.4" width="147.4" height="147.4"/><rect class="cls-5" x="982.2" y="429.4" width="147.4" height="147.4"/><rect class="cls-5" x="60.9" y="613.7" width="147.4" height="147.4"/><rect class="cls-5" x="245.2" y="613.7" width="147.4" height="147.4"/><rect class="cls-5" x="429.4" y="613.7" width="147.4" height="147.4"/><rect class="cls-5" x="613.7" y="613.7" width="147.4" height="147.4"/><rect class="cls-5" x="798" y="613.7" width="147.4" height="147.4"/><rect class="cls-5" x="982.2" y="613.7" width="147.4" height="147.4"/><rect class="cls-5" x="60.9" y="798" width="147.4" height="147.4"/><rect class="cls-5" x="245.2" y="798" width="147.4" height="147.4"/><rect class="cls-5" x="429.4" y="798" width="147.4" height="147.4"/><rect class="cls-5" x="613.7" y="798" width="147.4" height="147.4"/><rect class="cls-5" x="798" y="798" width="147.4" height="147.4"/><rect class="cls-5" x="982.2" y="798" width="147.4" height="147.4"/><rect class="cls-5" x="60.9" y="982.2" width="147.4" height="147.4"/><rect class="cls-5" x="245.2" y="982.2" width="147.4" height="147.4"/><rect class="cls-5" x="429.4" y="982.2" width="147.4" height="147.4"/><rect class="cls-5" x="613.7" y="982.2" width="147.4" height="147.4"/><rect class="cls-5" x="798" y="982.2" width="147.4" height="147.4"/><rect class="cls-5" x="982.2" y="982.2" width="147.4" height="147.4"/></g><g class="cls-6"><image class="cls-7" width="540" height="809" transform="translate(60.9 424.05) scale(0.87)" xlink:href="../../Desktop/mood/887082_01.jpg"/></g><g class="cls-8"><image class="cls-7" width="611" height="900" transform="translate(49.45 756.9) scale(0.47)" xlink:href="../../Desktop/mood/b51e9eda-f773-4db5-b391-df4cba626ea2.jpg"/></g><g class="cls-7"><text class="cls-9" transform="translate(304 620.75)">detta</text><text class="cls-10" transform="translate(323.32 620.75)">g</text><text class="cls-9" transform="translate(327.22 620.75)">l</text><text class="cls-11" transform="translate(330.08 620.75)">i</text><text class="cls-9" transform="translate(332.82 620.75)">o di </text><text class="cls-12" transform="translate(348.72 620.75)">u</text><text class="cls-9" transform="translate(353.66 620.75)">no st</text><text class="cls-11" transform="translate(370.41 620.75)">u</text><text class="cls-9" transform="translate(375.3 620.75)">d</text><text class="cls-11" transform="translate(380.46 620.75)">i</text><text class="cls-9" transform="translate(383.2 620.75)">o</text></g><g class="cls-7"><text class="cls-13" transform="translate(60.9 257.36)">Lorem ipsum dolor sit amet, consectetuer adipiscing elit, sed diam no</text><text class="cls-13" transform="translate(558.62 257.36)">-</text><text class="cls-13" transform="translate(60.9 281.36)">nummy nibh euismod tincidunt ut laoreet dolore magna aliquam erat </text><text class="cls-13" transform="translate(60.9 305.36)">volutpat. Ut wisi enim ad minim veniam, quis nostrud exerci tation </text><text class="cls-13" transform="translate(60.9 329.36)">ullamcorper suscipit lobortis nisl ut aliquip ex ea commodo consequat. </text><text class="cls-13" transform="translate(60.9 353.36)">Duis autem vel eum iriure dolor in hendrerit in vulputate velit esse mo</text><text class="cls-13" transform="translate(562.39 353.36)">-</text><text class="cls-13" transform="translate(60.9 377.36)">lestie consequat, vel illum dolore eu feugiat nulla facilisis at vero eros et </text><text class="cls-13" transform="translate(60.9 401.36)">accumsan et iusto odio dignissim qui blandit praesent luptatum zzril </text><text class="cls-13" transform="translate(60.9 425.36)">delenit augue duis dolore te feugait nulla facilisi.</text><text class="cls-13" transform="translate(60.9 449.36)">Lorem ipsum dolor sit amet, cons ectetuer adipiscing elit, sed diam no</text><text class="cls-13" transform="translate(562.78 449.36)">-</text><text class="cls-13" transform="translate(60.9 473.36)">nummy nibh euismod tincidunt ut laoreet dolore magna aliquam erat </text><text class="cls-13" transform="translate(60.9 497.36)">volutpat. Ut wisi enim ad minim veniam, quis nostrud exerci tation </text><text class="cls-13" transform="translate(60.9 521.36)">ullamcorper suscipit lobortis nisl ut aliquip ex ea commodo consequat.</text><text class="cls-13" transform="translate(60.9 545.36)">Lorem ipsum dolor sit amet, consectetuer adipiscing elit, sed diam no</text><text class="cls-13" transform="translate(558.62 545.36)">-</text><text class="cls-13" transform="translate(60.9 569.36)">nummy nibh euismod tincidunt ut laoreet dolore magna aliquam erat</text></g><text class="cls-14" transform="translate(368.22 107.15)">VEC<tspan class="cls-15" x="83.55" y="0">T</tspan><tspan x="108.69" y="0">ORS EXERCISES</tspan></text></svg>