<?xml version="1.0" encoding="utf-8"?>
<!-- Generator: Adobe Illustrator 22.1.0, SVG Export Plug-In . SVG Version: 6.00 Build 0)  -->
<svg version="1.1" id="Livello_1" xmlns="http://www.w3.org/2000/svg" xmlns:xlink="http://www.w3.org/1999/xlink" x="0px" y="0px"
	 viewBox="0 0 1190.6 1190.6" style="enable-background:new 0 0 1190.6 1190.6;" xml:space="preserve">
<style type="text/css">
	.st0{fill:#809DFF;}
	.st1{fill:none;stroke:#EF6C8B;stroke-width:2;stroke-miterlimit:10;}
	.st2{fill:none;stroke:#1205C1;stroke-width:2;stroke-miterlimit:10;}
	.st3{fill:none;stroke:#2CFF36;stroke-width:2;stroke-miterlimit:10;}
	.st4{fill:none;}
	.st5{font-family:'OpenSansCondensed-Bold';}
	.st6{font-size:60px;}
	.st7{font-family:'OpenSansCondensed-Light';}
	.st8{font-size:16px;}
	.st9{font-family:'EBGaramond-Italic';}
	.st10{font-size:10px;}
</style>
<g id="Livello_1_1_">
	<rect id="XMLID_1_" y="0" class="st0" width="1190.6" height="1190.6"/>
</g>
<g id="Livello_2_1_">
	<rect id="XMLID_2_" x="60.4" y="61.9" class="st1" width="239.5" height="239.5"/>
	<rect id="XMLID_3_" x="60.4" y="889.1" class="st1" width="239.5" height="239.5"/>
	<rect id="XMLID_4_" x="60.4" y="613.4" class="st1" width="239.5" height="239.5"/>
	<rect id="XMLID_5_" x="60.4" y="337.6" class="st1" width="239.5" height="239.5"/>
	<rect id="XMLID_30_" x="889.3" y="61.9" class="st1" width="239.5" height="239.5"/>
	<rect id="XMLID_29_" x="889.3" y="889.1" class="st1" width="239.5" height="239.5"/>
	<rect id="XMLID_28_" x="889.3" y="613.4" class="st1" width="239.5" height="239.5"/>
	<rect id="XMLID_27_" x="889.3" y="337.6" class="st1" width="239.5" height="239.5"/>
	<rect id="XMLID_18_" x="336.7" y="61.9" class="st1" width="239.5" height="239.5"/>
	<rect id="XMLID_17_" x="336.7" y="889.1" class="st1" width="239.5" height="239.5"/>
	<rect id="XMLID_16_" x="336.7" y="613.4" class="st1" width="239.5" height="239.5"/>
	<rect id="XMLID_7_" x="336.7" y="337.6" class="st1" width="239.5" height="239.5"/>
	<rect id="XMLID_23_" x="613" y="61.9" class="st1" width="239.5" height="239.5"/>
	<rect id="XMLID_22_" x="613" y="889.1" class="st1" width="239.5" height="239.5"/>
	<rect id="XMLID_21_" x="613" y="613.4" class="st1" width="239.5" height="239.5"/>
	<rect id="XMLID_20_" x="613" y="337.6" class="st1" width="239.5" height="239.5"/>
</g>
<g id="Livello_3">
	<rect id="XMLID_6_" x="60.4" y="61.9" class="st2" width="184.3" height="184.3"/>
	<rect id="XMLID_8_" x="944.6" y="61.9" class="st2" width="184.3" height="184.3"/>
	<rect id="XMLID_9_" x="723.6" y="61.9" class="st2" width="184.3" height="184.3"/>
	<rect id="XMLID_10_" x="502.5" y="61.9" class="st2" width="184.3" height="184.3"/>
	<rect id="XMLID_11_" x="281.5" y="61.9" class="st2" width="184.3" height="184.3"/>
	<rect id="XMLID_39_" x="60.4" y="503.1" class="st2" width="184.3" height="184.3"/>
	<rect id="XMLID_38_" x="944.6" y="503.1" class="st2" width="184.3" height="184.3"/>
	<rect id="XMLID_37_" x="723.6" y="503.1" class="st2" width="184.3" height="184.3"/>
	<rect id="XMLID_36_" x="502.5" y="503.1" class="st2" width="184.3" height="184.3"/>
	<rect id="XMLID_35_" x="281.5" y="503.1" class="st2" width="184.3" height="184.3"/>
	<rect id="XMLID_46_" x="60.4" y="724.6" class="st2" width="184.3" height="184.3"/>
	<rect id="XMLID_45_" x="944.6" y="724.6" class="st2" width="184.3" height="184.3"/>
	<rect id="XMLID_44_" x="723.6" y="724.6" class="st2" width="184.3" height="184.3"/>
	<rect id="XMLID_43_" x="502.5" y="724.6" class="st2" width="184.3" height="184.3"/>
	<rect id="XMLID_42_" x="281.5" y="724.6" class="st2" width="184.3" height="184.3"/>
	<rect id="XMLID_53_" x="60.4" y="944.4" class="st2" width="184.3" height="184.3"/>
	<rect id="XMLID_52_" x="944.6" y="944.4" class="st2" width="184.3" height="184.3"/>
	<rect id="XMLID_51_" x="723.6" y="944.4" class="st2" width="184.3" height="184.3"/>
	<rect id="XMLID_50_" x="502.5" y="944.4" class="st2" width="184.3" height="184.3"/>
	<rect id="XMLID_49_" x="281.5" y="944.4" class="st2" width="184.3" height="184.3"/>
	<rect id="XMLID_32_" x="60.4" y="283.3" class="st2" width="184.3" height="184.3"/>
	<rect id="XMLID_31_" x="944.6" y="283.3" class="st2" width="184.3" height="184.3"/>
	<rect id="XMLID_26_" x="723.6" y="283.3" class="st2" width="184.3" height="184.3"/>
	<rect id="XMLID_25_" x="502.5" y="283.3" class="st2" width="184.3" height="184.3"/>
	<rect id="XMLID_24_" x="281.5" y="283.3" class="st2" width="184.3" height="184.3"/>
</g>
<rect id="XMLID_12_" x="60.4" y="61.9" class="st3" width="147.4" height="147.4"/>
<rect id="XMLID_13_" x="797.3" y="61.9" class="st3" width="147.4" height="147.4"/>
<rect id="XMLID_14_" x="613.1" y="61.9" class="st3" width="147.4" height="147.4"/>
<rect id="XMLID_15_" x="428.9" y="61.9" class="st3" width="147.4" height="147.4"/>
<rect id="XMLID_19_" x="244.7" y="61.9" class="st3" width="147.4" height="147.4"/>
<rect id="XMLID_33_" x="981.5" y="61.9" class="st3" width="147.4" height="147.4"/>
<rect id="XMLID_55_" x="60.4" y="246" class="st3" width="147.4" height="147.4"/>
<rect id="XMLID_54_" x="797.3" y="246" class="st3" width="147.4" height="147.4"/>
<rect id="XMLID_48_" x="613.1" y="246" class="st3" width="147.4" height="147.4"/>
<rect id="XMLID_47_" x="428.9" y="246" class="st3" width="147.4" height="147.4"/>
<rect id="XMLID_41_" x="244.7" y="246" class="st3" width="147.4" height="147.4"/>
<rect id="XMLID_40_" x="981.5" y="246" class="st3" width="147.4" height="147.4"/>
<rect id="XMLID_61_" x="60.4" y="430.2" class="st3" width="147.4" height="147.4"/>
<rect id="XMLID_60_" x="797.3" y="430.2" class="st3" width="147.4" height="147.4"/>
<rect id="XMLID_59_" x="613.1" y="430.2" class="st3" width="147.4" height="147.4"/>
<rect id="XMLID_58_" x="428.9" y="430.2" class="st3" width="147.4" height="147.4"/>
<rect id="XMLID_57_" x="244.7" y="430.2" class="st3" width="147.4" height="147.4"/>
<rect id="XMLID_56_" x="981.5" y="430.2" class="st3" width="147.4" height="147.4"/>
<rect id="XMLID_67_" x="60.4" y="614.3" class="st3" width="147.4" height="147.4"/>
<rect id="XMLID_66_" x="797.3" y="614.3" class="st3" width="147.4" height="147.4"/>
<rect id="XMLID_64_" x="428.9" y="614.3" class="st3" width="147.4" height="147.4"/>
<rect id="XMLID_63_" x="244.7" y="614.3" class="st3" width="147.4" height="147.4"/>
<rect id="XMLID_62_" x="981.5" y="614.3" class="st3" width="147.4" height="147.4"/>
<rect id="XMLID_73_" x="60.4" y="798.4" class="st3" width="147.4" height="147.4"/>
<rect id="XMLID_72_" x="797.3" y="798.4" class="st3" width="147.4" height="147.4"/>
<rect id="XMLID_71_" x="613.1" y="798.4" class="st3" width="147.4" height="147.4"/>
<rect id="XMLID_70_" x="428.9" y="798.4" class="st3" width="147.4" height="147.4"/>
<rect id="XMLID_69_" x="244.7" y="798.4" class="st3" width="147.4" height="147.4"/>
<rect id="XMLID_68_" x="981.5" y="798.4" class="st3" width="147.4" height="147.4"/>
<rect id="XMLID_79_" x="60.4" y="982.5" class="st3" width="147.4" height="147.4"/>
<rect id="XMLID_78_" x="797.3" y="982.5" class="st3" width="147.4" height="147.4"/>
<rect id="XMLID_77_" x="613.1" y="982.5" class="st3" width="147.4" height="147.4"/>
<rect id="XMLID_76_" x="428.9" y="982.5" class="st3" width="147.4" height="147.4"/>
<rect id="XMLID_75_" x="244.7" y="982.5" class="st3" width="147.4" height="147.4"/>
<rect id="XMLID_74_" x="981.5" y="982.5" class="st3" width="147.4" height="147.4"/>
<image style="overflow:visible;" width="960" height="639" xlink:href="888243_02.jpg"  transform="matrix(0.2883 0 0 0.2883 241.0545 246)">
</image>
<g>
	<defs>
		<rect id="XMLID_65_" x="613.1" y="614.3" width="147.4" height="147.4"/>
	</defs>
	<clipPath id="XMLID_80_">
		<use xlink:href="#XMLID_65_"  style="overflow:visible;"/>
	</clipPath>
	<g style="clip-path:url(#XMLID_80_);">
		
			<image style="overflow:visible;" width="960" height="639" xlink:href="888243_03.png"  transform="matrix(0.4219 0 0 0.4219 569.0206 614.4)">
		</image>
	</g>
</g>
<g>
	<defs>
		<circle id="SVGID_1_" cx="318.4" cy="872.1" r="95.2"/>
	</defs>
	<clipPath id="SVGID_2_">
		<use xlink:href="#SVGID_1_"  style="overflow:visible;"/>
	</clipPath>
	<g transform="matrix(1 0 0 1 0 -6.103516e-05)" style="clip-path:url(#SVGID_2_);">
		
			<image style="overflow:visible;" width="2048" height="1361" xlink:href="888243_05.png"  transform="matrix(0.1617 0 0 0.1617 142.8483 769.8159)">
		</image>
	</g>
</g>
<rect x="437" y="68.9" class="st4" width="283" height="108"/>
<text transform="matrix(1 0 0 1 437 114.4894)" class="st5 st6">Margherita</text>
<rect x="805" y="254.3" class="st4" width="260" height="315"/>
<text transform="matrix(1 0 0 1 805 266.4601)"><tspan x="0" y="0" class="st7 st8">Lorem ipsum dolor sit amet, consectetuer adipi</tspan><tspan x="243.1" y="0" class="st7 st8">-</tspan><tspan x="0" y="24" class="st7 st8">scing elit, sed diam nonummy nibh euismod </tspan><tspan x="0" y="48" class="st7 st8">tincidunt ut laoreet dolore magna aliquam erat </tspan><tspan x="0" y="72" class="st7 st8">volutpat. Ut wisi enim ad minim veniam, quis </tspan><tspan x="0" y="96" class="st7 st8">nostrud exerci tation ullamcorper suscipit lobortis </tspan><tspan x="0" y="120" class="st7 st8">nisl ut aliquip ex ea commodo consequat. Duis </tspan><tspan x="0" y="144" class="st7 st8">autem vel eum iriure dolor in hendrerit in vulpu</tspan><tspan x="246.7" y="144" class="st7 st8">-</tspan><tspan x="0" y="168" class="st7 st8">tate velit esse molestie consequat, vel illum dolore </tspan><tspan x="0" y="192" class="st7 st8">eu feugiat nulla facilisis at vero eros et accumsan </tspan><tspan x="0" y="216" class="st7 st8">et iusto odio dignissim qui blandit praesent lupta</tspan><tspan x="252.9" y="216" class="st7 st8">-</tspan><tspan x="0" y="240" class="st7 st8">tum zzril delenit augue duis dolore te feugait nulla </tspan><tspan x="0" y="264" class="st7 st8">facilisi.</tspan><tspan x="0" y="288" class="st7 st8">Lorem ipsum dolor sit amet, cons ectetuer adipi</tspan></text>
<rect x="319" y="443.9" class="st4" width="67" height="13.5"/>
<text transform="matrix(1 0 0 1 319 450.9396)" class="st9 st10">Paesaggio estivo</text>
</svg>
