<svg xmlns="http://www.w3.org/2000/svg" xmlns:xlink="http://www.w3.org/1999/xlink" viewBox="0 0 1190.55 1190.55"><defs><style>.cls-1,.cls-3,.cls-4,.cls-5{fill:none;}.cls-2{fill:#809dff;}.cls-3{stroke:#00ff13;}.cls-3,.cls-4,.cls-5{stroke-miterlimit:10;}.cls-4{stroke:#e8a1a4;}.cls-5{stroke:#00e4e7;}.cls-6{clip-path:url(#clip-path);}</style><clipPath id="clip-path" transform="translate(0 0)"><rect class="cls-1" x="609.35" y="614.66" width="147.4" height="147.4"/></clipPath></defs><title>888243_04</title><g id="Livello_1" data-name="Livello 1"><rect class="cls-2" width="1190.55" height="1190.55"/></g><g id="Livello_2" data-name="Livello 2"><rect class="cls-3" x="60.97" y="61.1" width="239.53" height="239.53"/><rect class="cls-3" x="890.05" y="61.1" width="239.53" height="239.53"/><rect class="cls-3" x="337.33" y="61.1" width="239.53" height="239.53"/><rect class="cls-3" x="613.69" y="61.1" width="239.53" height="239.53"/><rect class="cls-3" x="613.69" y="337.37" width="239.53" height="239.53"/><rect class="cls-3" x="60.97" y="337.37" width="239.53" height="239.53"/><rect class="cls-3" x="337.33" y="337.37" width="239.53" height="239.53"/><rect class="cls-3" x="890.05" y="337.37" width="239.53" height="239.53"/><rect class="cls-3" x="337.33" y="613.65" width="239.53" height="239.53"/><rect class="cls-3" x="60.97" y="613.65" width="239.53" height="239.53"/><rect class="cls-3" x="613.69" y="613.65" width="239.53" height="239.53"/><rect class="cls-3" x="890.05" y="613.65" width="239.53" height="239.53"/><rect class="cls-3" x="337.33" y="889.93" width="239.53" height="239.53"/><rect class="cls-3" x="60.97" y="889.93" width="239.53" height="239.53"/><rect class="cls-3" x="613.69" y="889.93" width="239.53" height="239.53"/><rect class="cls-3" x="890.05" y="889.93" width="239.53" height="239.53"/></g><g id="Livello_3" data-name="Livello 3"><rect class="cls-4" x="62.62" y="61.1" width="184.25" height="184.25"/><rect class="cls-4" x="724.65" y="61.1" width="184.25" height="184.25"/><rect class="cls-4" x="503.97" y="61.1" width="184.25" height="184.25"/><rect class="cls-4" x="283.29" y="61.1" width="184.25" height="184.25"/><rect class="cls-4" x="945.33" y="61.1" width="184.25" height="184.25"/><rect class="cls-4" x="59.17" y="282.1" width="184.25" height="184.25"/><rect class="cls-4" x="721.2" y="282.1" width="184.25" height="184.25"/><rect class="cls-4" x="500.52" y="282.1" width="184.25" height="184.25"/><rect class="cls-4" x="279.85" y="282.1" width="184.25" height="184.25"/><rect class="cls-4" x="941.88" y="282.1" width="184.25" height="184.25"/><rect class="cls-4" x="61.79" y="503.37" width="184.25" height="184.25"/><rect class="cls-4" x="723.83" y="503.37" width="184.25" height="184.25"/><rect class="cls-4" x="503.15" y="503.37" width="184.25" height="184.25"/><rect class="cls-4" x="282.47" y="503.37" width="184.25" height="184.25"/><rect class="cls-4" x="944.51" y="503.37" width="184.25" height="184.25"/><rect class="cls-4" x="59.17" y="724.65" width="184.25" height="184.25"/><rect class="cls-4" x="721.2" y="724.65" width="184.25" height="184.25"/><rect class="cls-4" x="500.52" y="724.65" width="184.25" height="184.25"/><rect class="cls-4" x="279.85" y="724.65" width="184.25" height="184.25"/><rect class="cls-4" x="941.88" y="724.65" width="184.25" height="184.25"/><rect class="cls-4" x="59.17" y="946.21" width="184.25" height="184.25"/><rect class="cls-4" x="721.2" y="946.21" width="184.25" height="184.25"/><rect class="cls-4" x="500.52" y="946.21" width="184.25" height="184.25"/><rect class="cls-4" x="279.85" y="946.21" width="184.25" height="184.25"/><rect class="cls-4" x="941.88" y="946.21" width="184.25" height="184.25"/></g><g id="Livello_4" data-name="Livello 4"><rect class="cls-5" x="59.17" y="61.1" width="147.4" height="147.4"/><rect class="cls-5" x="237.7" y="59.63" width="147.4" height="147.4"/><rect class="cls-5" x="797.58" y="59.63" width="147.4" height="147.4"/><rect class="cls-5" x="982.18" y="61.1" width="147.4" height="147.4"/><rect class="cls-5" x="611.08" y="61.1" width="147.4" height="147.4"/><rect class="cls-5" x="430.27" y="59.63" width="147.4" height="147.4"/><rect class="cls-5" x="57.44" y="244.79" width="147.4" height="147.4"/><rect class="cls-5" x="235.97" y="243.32" width="147.4" height="147.4"/><rect class="cls-5" x="795.85" y="243.32" width="147.4" height="147.4"/><rect class="cls-5" x="980.45" y="244.79" width="147.4" height="147.4"/><rect class="cls-5" x="609.35" y="244.79" width="147.4" height="147.4"/><rect class="cls-5" x="428.55" y="243.32" width="147.4" height="147.4"/><rect class="cls-5" x="57.44" y="428.49" width="147.4" height="147.4"/><rect class="cls-5" x="235.97" y="427.02" width="147.4" height="147.4"/><rect class="cls-5" x="795.85" y="427.02" width="147.4" height="147.4"/><rect class="cls-5" x="980.45" y="428.49" width="147.4" height="147.4"/><rect class="cls-5" x="609.35" y="428.49" width="147.4" height="147.4"/><rect class="cls-5" x="428.55" y="427.02" width="147.4" height="147.4"/><rect class="cls-5" x="57.44" y="614.66" width="147.4" height="147.4"/><rect class="cls-5" x="235.97" y="613.19" width="147.4" height="147.4"/><rect class="cls-5" x="795.85" y="613.19" width="147.4" height="147.4"/><rect class="cls-5" x="980.45" y="614.66" width="147.4" height="147.4"/><g class="cls-6"><image width="960" height="639" transform="translate(138.82 293.42) scale(0.95)" xlink:href="888243_03.png"/></g><rect class="cls-5" x="428.55" y="613.19" width="147.4" height="147.4"/><rect class="cls-5" x="57.44" y="799.83" width="147.4" height="147.4"/><rect class="cls-5" x="235.97" y="798.36" width="147.4" height="147.4"/><rect class="cls-5" x="795.85" y="798.36" width="147.4" height="147.4"/><rect class="cls-5" x="980.45" y="799.83" width="147.4" height="147.4"/><rect class="cls-5" x="609.35" y="799.83" width="147.4" height="147.4"/><rect class="cls-5" x="428.55" y="798.36" width="147.4" height="147.4"/><rect class="cls-5" x="60.07" y="982.05" width="147.4" height="147.4"/><rect class="cls-5" x="238.6" y="980.58" width="147.4" height="147.4"/><rect class="cls-5" x="798.48" y="980.58" width="147.4" height="147.4"/><rect class="cls-5" x="983.08" y="982.05" width="147.4" height="147.4"/><rect class="cls-5" x="611.98" y="982.05" width="147.4" height="147.4"/><rect class="cls-5" x="431.17" y="980.58" width="147.4" height="147.4"/></g></svg>