<?xml version="1.0" encoding="utf-8"?>
<!-- Generator: Adobe Illustrator 22.1.0, SVG Export Plug-In . SVG Version: 6.00 Build 0)  -->
<svg version="1.1" id="Livello_1" xmlns="http://www.w3.org/2000/svg" xmlns:xlink="http://www.w3.org/1999/xlink" x="0px" y="0px"
	 viewBox="0 0 1190.6 1190.6" style="enable-background:new 0 0 1190.6 1190.6;" xml:space="preserve">
<style type="text/css">
	.st0{fill:#809DFF;}
	.st1{fill:none;stroke:#00FF13;stroke-miterlimit:10;}
	.st2{fill:none;stroke:#E8A1A4;stroke-miterlimit:10;}
	.st3{fill:none;stroke:#00E4E7;stroke-miterlimit:10;}
</style>
<title>888243_03</title>
<g id="Livello_1_1_">
	<rect y="0" class="st0" width="1190.6" height="1190.6"/>
</g>
<g id="Livello_2_1_">
	<rect x="61" y="61.1" class="st1" width="239.5" height="239.5"/>
	<rect x="890" y="61.1" class="st1" width="239.5" height="239.5"/>
	<rect x="337.3" y="61.1" class="st1" width="239.5" height="239.5"/>
	<rect x="613.7" y="61.1" class="st1" width="239.5" height="239.5"/>
	<rect x="613.7" y="337.4" class="st1" width="239.5" height="239.5"/>
	<rect x="61" y="337.4" class="st1" width="239.5" height="239.5"/>
	<rect x="337.3" y="337.4" class="st1" width="239.5" height="239.5"/>
	<rect x="890" y="337.4" class="st1" width="239.5" height="239.5"/>
	<rect x="337.3" y="613.7" class="st1" width="239.5" height="239.5"/>
	<rect x="61" y="613.7" class="st1" width="239.5" height="239.5"/>
	<rect x="613.7" y="613.7" class="st1" width="239.5" height="239.5"/>
	<rect x="890" y="613.7" class="st1" width="239.5" height="239.5"/>
	<rect x="337.3" y="889.9" class="st1" width="239.5" height="239.5"/>
	<rect x="61" y="889.9" class="st1" width="239.5" height="239.5"/>
	<rect x="613.7" y="889.9" class="st1" width="239.5" height="239.5"/>
	<rect x="890" y="889.9" class="st1" width="239.5" height="239.5"/>
</g>
<g id="Livello_3">
	<rect x="62.6" y="61.1" class="st2" width="184.3" height="184.3"/>
	<rect x="724.7" y="61.1" class="st2" width="184.3" height="184.3"/>
	<rect x="504" y="61.1" class="st2" width="184.2" height="184.3"/>
	<rect x="283.3" y="61.1" class="st2" width="184.3" height="184.3"/>
	<rect x="945.3" y="61.1" class="st2" width="184.3" height="184.3"/>
	<rect x="59.2" y="282.1" class="st2" width="184.3" height="184.3"/>
	<rect x="721.2" y="282.1" class="st2" width="184.3" height="184.3"/>
	<rect x="500.5" y="282.1" class="st2" width="184.3" height="184.3"/>
	<rect x="279.9" y="282.1" class="st2" width="184.3" height="184.3"/>
	<rect x="941.9" y="282.1" class="st2" width="184.3" height="184.3"/>
	<rect x="61.8" y="503.4" class="st2" width="184.3" height="184.3"/>
	<rect x="723.8" y="503.4" class="st2" width="184.3" height="184.3"/>
	<rect x="503.1" y="503.4" class="st2" width="184.3" height="184.3"/>
	<rect x="282.5" y="503.4" class="st2" width="184.3" height="184.3"/>
	<rect x="944.5" y="503.4" class="st2" width="184.3" height="184.3"/>
	<rect x="59.2" y="724.7" class="st2" width="184.3" height="184.3"/>
	<rect x="721.2" y="724.7" class="st2" width="184.3" height="184.3"/>
	<rect x="500.5" y="724.7" class="st2" width="184.3" height="184.3"/>
	<rect x="279.9" y="724.7" class="st2" width="184.3" height="184.3"/>
	<rect x="941.9" y="724.7" class="st2" width="184.3" height="184.3"/>
	<rect x="59.2" y="946.2" class="st2" width="184.3" height="184.2"/>
	<rect x="721.2" y="946.2" class="st2" width="184.3" height="184.2"/>
	<rect x="500.5" y="946.2" class="st2" width="184.3" height="184.2"/>
	<rect x="279.9" y="946.2" class="st2" width="184.3" height="184.2"/>
	<rect x="941.9" y="946.2" class="st2" width="184.3" height="184.2"/>
</g>
<g id="Livello_4">
	<rect x="59.2" y="61.1" class="st3" width="147.4" height="147.4"/>
	<rect x="237.7" y="59.6" class="st3" width="147.4" height="147.4"/>
	<rect x="797.6" y="59.6" class="st3" width="147.4" height="147.4"/>
	<rect x="982.2" y="61.1" class="st3" width="147.4" height="147.4"/>
	<rect x="611.1" y="61.1" class="st3" width="147.4" height="147.4"/>
	<rect x="430.3" y="59.6" class="st3" width="147.4" height="147.4"/>
	<rect x="57.4" y="244.8" class="st3" width="147.4" height="147.4"/>
	<rect x="236" y="243.3" class="st3" width="147.4" height="147.4"/>
	<rect x="795.8" y="243.3" class="st3" width="147.4" height="147.4"/>
	<rect x="980.5" y="244.8" class="st3" width="147.4" height="147.4"/>
	<rect x="609.3" y="244.8" class="st3" width="147.4" height="147.4"/>
	<rect x="428.5" y="243.3" class="st3" width="147.4" height="147.4"/>
	<rect x="57.4" y="428.5" class="st3" width="147.4" height="147.4"/>
	<rect x="236" y="427" class="st3" width="147.4" height="147.4"/>
	<rect x="795.8" y="427" class="st3" width="147.4" height="147.4"/>
	<rect x="980.5" y="428.5" class="st3" width="147.4" height="147.4"/>
	<rect x="609.3" y="428.5" class="st3" width="147.4" height="147.4"/>
	<rect x="428.5" y="427" class="st3" width="147.4" height="147.4"/>
	<rect x="57.4" y="614.7" class="st3" width="147.4" height="147.4"/>
	<rect x="236" y="613.2" class="st3" width="147.4" height="147.4"/>
	<rect x="795.8" y="613.2" class="st3" width="147.4" height="147.4"/>
	<rect x="980.5" y="614.7" class="st3" width="147.4" height="147.4"/>
	<rect x="609.3" y="614.7" class="st3" width="147.4" height="147.4"/>
	<rect x="428.5" y="613.2" class="st3" width="147.4" height="147.4"/>
	<rect x="57.4" y="799.8" class="st3" width="147.4" height="147.4"/>
	<rect x="236" y="798.4" class="st3" width="147.4" height="147.4"/>
	<rect x="795.8" y="798.4" class="st3" width="147.4" height="147.4"/>
	<rect x="980.5" y="799.8" class="st3" width="147.4" height="147.4"/>
	<rect x="609.3" y="799.8" class="st3" width="147.4" height="147.4"/>
	<rect x="428.5" y="798.4" class="st3" width="147.4" height="147.4"/>
	<rect x="60.1" y="982.1" class="st3" width="147.4" height="147.4"/>
	<rect x="238.6" y="980.6" class="st3" width="147.4" height="147.4"/>
	<rect x="798.5" y="980.6" class="st3" width="147.4" height="147.4"/>
	<rect x="983.1" y="982.1" class="st3" width="147.4" height="147.4"/>
	<rect x="612" y="982.1" class="st3" width="147.4" height="147.4"/>
	<rect x="431.2" y="980.6" class="st3" width="147.4" height="147.4"/>
	
		<image style="overflow:visible;enable-background:new    ;" width="960" height="639" xlink:href="888243_03.png"  transform="matrix(0.57 0 0 0.57 320.38 397.96)">
	</image>
</g>
</svg>
