<?xml version="1.0" encoding="utf-8"?>
<!-- Generator: Adobe Illustrator 22.1.0, SVG Export Plug-In . SVG Version: 6.00 Build 0)  -->
<svg version="1.1" id="Livello_1" xmlns="http://www.w3.org/2000/svg" xmlns:xlink="http://www.w3.org/1999/xlink" x="0px" y="0px"
	 viewBox="0 0 1190.6 1190.6" style="enable-background:new 0 0 1190.6 1190.6;" xml:space="preserve">
<style type="text/css">
	.st0{fill:#809DFF;}
	.st1{fill:none;stroke:#00FF13;stroke-miterlimit:10;}
	.st2{fill:none;stroke:#E8A1A4;stroke-miterlimit:10;}
	.st3{fill:none;stroke:#00E4E7;stroke-miterlimit:10;}
	.st4{clip-path:url(#SVGID_2_);}
	.st5{clip-path:url(#SVGID_4_);}
	.st6{fill:none;}
	.st7{font-family:'OpenSansCondensed-Bold';}
	.st8{font-size:60px;}
	.st9{font-family:'OpenSansCondensed-Light';}
	.st10{font-size:16px;}
	.st11{font-family:'EBGaramond-Italic';}
	.st12{font-size:10px;}
</style>
<g id="Livello_1_1_">
	<rect y="0" class="st0" width="1190.6" height="1190.6"/>
</g>
<g id="Livello_2_1_">
	<rect x="61" y="61.1" class="st1" width="239.5" height="239.5"/>
	<rect x="890.1" y="61.1" class="st1" width="239.5" height="239.5"/>
	<rect x="337.3" y="61.1" class="st1" width="239.5" height="239.5"/>
	<rect x="613.7" y="61.1" class="st1" width="239.5" height="239.5"/>
	<rect x="613.7" y="337.4" class="st1" width="239.5" height="239.5"/>
	<rect x="61" y="337.4" class="st1" width="239.5" height="239.5"/>
	<rect x="337.3" y="337.4" class="st1" width="239.5" height="239.5"/>
	<rect x="890.1" y="337.4" class="st1" width="239.5" height="239.5"/>
	<rect x="337.3" y="613.7" class="st1" width="239.5" height="239.5"/>
	<rect x="61" y="613.7" class="st1" width="239.5" height="239.5"/>
	<rect x="613.7" y="613.7" class="st1" width="239.5" height="239.5"/>
	<rect x="890.1" y="613.7" class="st1" width="239.5" height="239.5"/>
	<rect x="337.3" y="889.9" class="st1" width="239.5" height="239.5"/>
	<rect x="61" y="889.9" class="st1" width="239.5" height="239.5"/>
	<rect x="613.7" y="889.9" class="st1" width="239.5" height="239.5"/>
	<rect x="890.1" y="889.9" class="st1" width="239.5" height="239.5"/>
</g>
<g id="Livello_3">
	<rect x="62.6" y="61.1" class="st2" width="184.3" height="184.3"/>
	<rect x="724.7" y="61.1" class="st2" width="184.3" height="184.3"/>
	<rect x="504" y="61.1" class="st2" width="184.3" height="184.3"/>
	<rect x="283.3" y="61.1" class="st2" width="184.3" height="184.3"/>
	<rect x="945.3" y="61.1" class="st2" width="184.3" height="184.3"/>
	<rect x="59.2" y="282.1" class="st2" width="184.3" height="184.3"/>
	<rect x="721.2" y="282.1" class="st2" width="184.3" height="184.3"/>
	<rect x="500.5" y="282.1" class="st2" width="184.3" height="184.3"/>
	<rect x="279.8" y="282.1" class="st2" width="184.3" height="184.3"/>
	<rect x="941.9" y="282.1" class="st2" width="184.3" height="184.3"/>
	<rect x="61.8" y="503.4" class="st2" width="184.3" height="184.3"/>
	<rect x="723.8" y="503.4" class="st2" width="184.3" height="184.3"/>
	<rect x="503.1" y="503.4" class="st2" width="184.3" height="184.3"/>
	<rect x="282.5" y="503.4" class="st2" width="184.3" height="184.3"/>
	<rect x="944.5" y="503.4" class="st2" width="184.3" height="184.3"/>
	<rect x="59.2" y="724.7" class="st2" width="184.3" height="184.3"/>
	<rect x="721.2" y="724.7" class="st2" width="184.3" height="184.3"/>
	<rect x="500.5" y="724.7" class="st2" width="184.3" height="184.3"/>
	<rect x="279.8" y="724.7" class="st2" width="184.3" height="184.3"/>
	<rect x="941.9" y="724.7" class="st2" width="184.3" height="184.3"/>
	<rect x="59.2" y="946.2" class="st2" width="184.3" height="184.3"/>
	<rect x="721.2" y="946.2" class="st2" width="184.3" height="184.3"/>
	<rect x="500.5" y="946.2" class="st2" width="184.3" height="184.3"/>
	<rect x="279.8" y="946.2" class="st2" width="184.3" height="184.3"/>
	<rect x="941.9" y="946.2" class="st2" width="184.3" height="184.3"/>
</g>
<g id="Livello_4">
	<g>
		<rect x="57.4" y="59.6" class="st3" width="147.4" height="147.4"/>
		<rect x="236" y="58.2" class="st3" width="147.4" height="147.4"/>
		<rect x="795.9" y="58.2" class="st3" width="147.4" height="147.4"/>
		<rect x="980.5" y="59.6" class="st3" width="147.4" height="147.4"/>
		<rect x="609.4" y="59.6" class="st3" width="147.4" height="147.4"/>
		<rect x="428.5" y="58.2" class="st3" width="147.4" height="147.4"/>
	</g>
	<g>
		<rect x="57.4" y="244.8" class="st3" width="147.4" height="147.4"/>
		<rect x="236" y="243.3" class="st3" width="147.4" height="147.4"/>
		<rect x="795.9" y="243.3" class="st3" width="147.4" height="147.4"/>
		<rect x="980.5" y="244.8" class="st3" width="147.4" height="147.4"/>
		<rect x="609.4" y="244.8" class="st3" width="147.4" height="147.4"/>
		<rect x="428.5" y="243.3" class="st3" width="147.4" height="147.4"/>
	</g>
	<rect x="57.4" y="428.5" class="st3" width="147.4" height="147.4"/>
	<rect x="236" y="427" class="st3" width="147.4" height="147.4"/>
	<rect x="795.9" y="427" class="st3" width="147.4" height="147.4"/>
	<rect x="980.5" y="428.5" class="st3" width="147.4" height="147.4"/>
	<rect x="609.4" y="428.5" class="st3" width="147.4" height="147.4"/>
	<rect x="428.5" y="427" class="st3" width="147.4" height="147.4"/>
	<rect x="57.4" y="614.7" class="st3" width="147.4" height="147.4"/>
	<rect x="236" y="613.2" class="st3" width="147.4" height="147.4"/>
	<rect x="795.9" y="613.2" class="st3" width="147.4" height="147.4"/>
	<rect x="980.5" y="614.7" class="st3" width="147.4" height="147.4"/>
	<g>
		<g>
			<g>
				<g>
					<defs>
						<rect id="SVGID_1_" x="609.4" y="614.7" width="147.4" height="147.4"/>
					</defs>
					<clipPath id="SVGID_2_">
						<use xlink:href="#SVGID_1_"  style="overflow:visible;"/>
					</clipPath>
					<g class="st4">
						
							<image style="overflow:visible;enable-background:new    ;" width="960" height="639" xlink:href="888243_03.png"  transform="matrix(0.9455 0 0 0.9455 138.8152 293.4156)">
						</image>
					</g>
				</g>
			</g>
		</g>
	</g>
	<rect x="428.5" y="613.2" class="st3" width="147.4" height="147.4"/>
	<g>
		<rect x="57.4" y="799.8" class="st3" width="147.4" height="147.4"/>
		<rect x="236" y="798.4" class="st3" width="147.4" height="147.4"/>
		<rect x="795.9" y="798.4" class="st3" width="147.4" height="147.4"/>
		<rect x="980.5" y="799.8" class="st3" width="147.4" height="147.4"/>
		<rect x="609.4" y="799.8" class="st3" width="147.4" height="147.4"/>
		<rect x="428.5" y="798.4" class="st3" width="147.4" height="147.4"/>
	</g>
	<g>
		<rect x="60.1" y="982.1" class="st3" width="147.4" height="147.4"/>
		<rect x="238.6" y="980.6" class="st3" width="147.4" height="147.4"/>
		<rect x="798.5" y="980.6" class="st3" width="147.4" height="147.4"/>
		<rect x="983.1" y="982.1" class="st3" width="147.4" height="147.4"/>
		<rect x="612" y="982.1" class="st3" width="147.4" height="147.4"/>
		<rect x="431.2" y="980.6" class="st3" width="147.4" height="147.4"/>
	</g>
	<g>
		<g>
			<g>
				<g>
					<defs>
						<circle id="SVGID_3_" cx="398.9" cy="392.2" r="178.1"/>
					</defs>
					<clipPath id="SVGID_4_">
						<use xlink:href="#SVGID_3_"  style="overflow:visible;"/>
					</clipPath>
					<g class="st5">
						
							<image style="overflow:visible;enable-background:new    ;" width="2048" height="1361" xlink:href="888243_05.png"  transform="matrix(0.2694 0 0 0.2694 122.9428 208.8362)">
						</image>
					</g>
				</g>
			</g>
		</g>
	</g>
</g>
<rect x="351" y="62.3" class="st6" width="624" height="142"/>
<text transform="matrix(1 0 0 1 351 107.8996)" class="st7 st8">MARGHERITA  BOCCUCCI</text>
<rect x="644" y="145.9" class="st6" width="423" height="396"/>
<text transform="matrix(1 0 0 1 644 158.0499)" class="st9 st10">Lorem ipsum dolor sit amet, consectetuer adipiscing elit, sed diam nonummy </text>
<text transform="matrix(1 0 0 1 644 182.0499)" class="st9 st10">nibh euismod tincidunt ut laoreet dolore magna aliquam erat volutpat. Ut wisi </text>
<text transform="matrix(1 0 0 1 644 206.0499)" class="st9 st10">enim ad minim veniam, quis nostrud exerci tation ullamcorper suscipit lobortis </text>
<text transform="matrix(1 0 0 1 644 230.0499)" class="st9 st10">nisl ut aliquip ex ea commodo consequat. Duis autem vel eum iriure dolor in </text>
<text transform="matrix(1 0 0 1 644 254.0499)" class="st9 st10">hendrerit in vulputate velit esse molestie consequat, vel illum dolore eu feugiat </text>
<text transform="matrix(1 0 0 1 644 278.0499)" class="st9 st10">nulla facilisis at vero eros et accumsan et iusto odio dignissim qui blandit praesent </text>
<text transform="matrix(1 0 0 1 644 302.0499)" class="st9 st10">luptatum zzril delenit augue duis dolore te feugait nulla facilisi.</text>
<text transform="matrix(1 0 0 1 644 326.0499)" class="st9 st10">Lorem ipsum dolor sit amet, cons ectetuer adipiscing elit, sed diam nonummy </text>
<text transform="matrix(1 0 0 1 644 350.0499)" class="st9 st10">nibh euismod tincidunt ut laoreet dolore magna aliquam erat volutpat. Ut wisi </text>
<text transform="matrix(1 0 0 1 644 374.0499)" class="st9 st10">enim ad minim veniam, quis nostrud exerci tation ullamcorper suscipit lobortis </text>
<text transform="matrix(1 0 0 1 644 398.0499)" class="st9 st10">nisl ut aliquip ex ea commodo consequat.</text>
<text transform="matrix(1 0 0 1 644 422.0499)" class="st9 st10">Lorem ipsum dolor sit amet, consectetuer adipiscing elit, sed diam nonummy </text>
<text transform="matrix(1 0 0 1 644 446.0499)" class="st9 st10">nibh euismod tincidunt ut laoreet dolore magna </text>
<rect x="385.1" y="581.8" class="st6" width="117.1" height="27"/>
<text transform="matrix(1 0 0 1 385.1 588.8498)" class="st11 st12">Tramonto   duoemilatredici</text>
<circle class="st6" cx="333.8" cy="853.2" r="129"/>
<text transform="matrix(1 0 0 1 316.0607 736.3602)"><tspan x="0" y="0" class="st9 st10">Lorem </tspan><tspan x="-58.9" y="24" class="st9 st10">ipsum dolor sit amet, con</tspan><tspan x="72.1" y="24" class="st9 st10">-</tspan><tspan x="-83.6" y="48" class="st9 st10">sectetuer adipiscing elit, sed diam </tspan><tspan x="-98.6" y="72" class="st9 st10">nonummy nibh euismod tincidunt ut laoreet </tspan><tspan x="-107.3" y="96" class="st9 st10">dolore magna aliquam erat volutpat. Ut wisi </tspan><tspan x="-111" y="120" class="st9 st10">enim ad minim veniam, quis nostrud exerci tation </tspan><tspan x="-108.4" y="144" class="st9 st10">ullamcorper suscipit lobortis nisl ut aliquip ex ea </tspan><tspan x="-100.7" y="168" class="st9 st10">commodo consequat. Duis autem vel eum </tspan><tspan x="-87.1" y="192" class="st9 st10">iriure dolor in hendrerit in vulputate </tspan><tspan x="-64.8" y="216" class="st9 st10">velit esse molestie consequat, </tspan><tspan x="-20.8" y="240" class="st9 st10">vel illum </tspan></text>
</svg>
