<?xml version="1.0" encoding="utf-8"?>
<!-- Generator: Adobe Illustrator 22.0.0, SVG Export Plug-In . SVG Version: 6.00 Build 0)  -->
<svg version="1.1" xmlns="http://www.w3.org/2000/svg" xmlns:xlink="http://www.w3.org/1999/xlink" x="0px" y="0px"
	 viewBox="0 0 1190.6 1190.6" style="enable-background:new 0 0 1190.6 1190.6;" xml:space="preserve">
<style type="text/css">
	.st0{fill:none;}
	.st1{display:none;}
	.st2{display:inline;fill:none;stroke:#FAB722;stroke-miterlimit:10;}
	.st3{fill:#FFFFFF;stroke:#3E388D;stroke-miterlimit:10;}
	.st4{clip-path:url(#SVGID_2_);}
	.st5{display:inline;fill:none;stroke:#B21543;stroke-miterlimit:10;}
</style>
<g id="Livello_1">
	<g id="Livello_1_1_">
		<rect x="-1" y="0" class="st0" width="1190.6" height="1190.6"/>
	</g>
	<g id="Livello_3" class="st1">
		<rect x="61" y="60.9" class="st2" width="184.3" height="184.3"/>
		<rect x="282.1" y="60.9" class="st2" width="184.3" height="184.3"/>
		<rect x="503.2" y="60.9" class="st2" width="184.3" height="184.3"/>
		<rect x="724.3" y="60.9" class="st2" width="184.3" height="184.3"/>
		<rect x="945.4" y="60.9" class="st2" width="184.3" height="184.3"/>
		<rect x="61" y="282" class="st2" width="184.3" height="184.3"/>
		<rect x="282.1" y="282" class="st2" width="184.3" height="184.3"/>
		<rect x="503.2" y="282" class="st2" width="184.3" height="184.3"/>
		<rect x="724.3" y="282" class="st2" width="184.3" height="184.3"/>
		<rect x="945.4" y="282" class="st2" width="184.3" height="184.3"/>
		<rect x="61" y="503.1" class="st2" width="184.3" height="184.3"/>
		<rect x="282.1" y="503.1" class="st2" width="184.3" height="184.3"/>
		<rect x="503.2" y="503.1" class="st2" width="184.3" height="184.3"/>
		<rect x="724.3" y="503.1" class="st2" width="184.3" height="184.3"/>
		<rect x="945.4" y="503.1" class="st2" width="184.3" height="184.3"/>
		<rect x="61" y="724.2" class="st2" width="184.3" height="184.3"/>
		<rect x="282.1" y="724.2" class="st2" width="184.3" height="184.3"/>
		<rect x="503.2" y="724.2" class="st2" width="184.3" height="184.3"/>
		<rect x="724.3" y="724.2" class="st2" width="184.3" height="184.3"/>
		<rect x="945.4" y="724.2" class="st2" width="184.3" height="184.3"/>
		<rect x="61" y="945.3" class="st2" width="184.3" height="184.3"/>
		<rect x="282.1" y="945.3" class="st2" width="184.3" height="184.3"/>
		<rect x="503.2" y="945.3" class="st2" width="184.3" height="184.3"/>
		<rect x="724.3" y="945.3" class="st2" width="184.3" height="184.3"/>
		<rect x="945.4" y="945.3" class="st2" width="184.3" height="184.3"/>
	</g>
	<rect x="60" y="61" class="st3" width="239.5" height="239.5"/>
	<rect x="336.3" y="61" class="st3" width="239.5" height="239.5"/>
	<rect x="612.7" y="61" class="st3" width="239.5" height="239.5"/>
	<g>
		<defs>
			<rect id="SVGID_1_" x="889.1" y="61" width="239.5" height="239.5"/>
		</defs>
		<clipPath id="SVGID_2_">
			<use xlink:href="#SVGID_1_"  style="overflow:visible;"/>
		</clipPath>
		<g class="st4">
			<defs>
				<rect id="SVGID_3_" x="888.8" y="44.8" width="240.2" height="261.6"/>
			</defs>
			<clipPath id="SVGID_4_">
				<use xlink:href="#SVGID_3_"  style="overflow:visible;"/>
			</clipPath>
			<g style="clip-path:url(#SVGID_4_);">
				
					<image style="overflow:visible;" width="862" height="500" xlink:href="../../IDEE MAGLIA/photo-1506666486876-fec82d6e1efc.jpg"  transform="matrix(0.2787 0 0 0.5232 888.75 44.7977)">
				</image>
			</g>
		</g>
	</g>
	<rect x="60" y="337.3" class="st3" width="239.5" height="239.5"/>
	<rect x="336.3" y="337.3" class="st3" width="239.5" height="239.5"/>
	<rect x="612.7" y="337.3" class="st3" width="239.5" height="239.5"/>
	<rect x="889.1" y="337.3" class="st3" width="239.5" height="239.5"/>
	<rect x="60" y="613.7" class="st3" width="239.5" height="239.5"/>
	<rect x="336.3" y="613.7" class="st3" width="239.5" height="239.5"/>
	<rect x="612.7" y="613.7" class="st3" width="239.5" height="239.5"/>
	<rect x="889.1" y="613.7" class="st3" width="239.5" height="239.5"/>
	<rect x="60" y="890.1" class="st3" width="239.5" height="239.5"/>
	<rect x="336.3" y="890.1" class="st3" width="239.5" height="239.5"/>
	<rect x="612.7" y="890.1" class="st3" width="239.5" height="239.5"/>
	<rect x="889.1" y="890.1" class="st3" width="239.5" height="239.5"/>
	<g id="Livello_4" class="st1">
		<rect x="61" y="60.9" class="st5" width="147.4" height="147.4"/>
		<rect x="245.2" y="60.9" class="st5" width="147.4" height="147.4"/>
		<rect x="429.5" y="60.9" class="st5" width="147.4" height="147.4"/>
		<rect x="613.7" y="60.9" class="st5" width="147.4" height="147.4"/>
		<rect x="798" y="60.9" class="st5" width="147.4" height="147.4"/>
		<rect x="982.2" y="60.9" class="st5" width="147.4" height="147.4"/>
		<rect x="61" y="245.1" class="st5" width="147.4" height="147.4"/>
		<rect x="245.2" y="245.1" class="st5" width="147.4" height="147.4"/>
		<rect x="429.5" y="245.1" class="st5" width="147.4" height="147.4"/>
		<rect x="613.7" y="245.1" class="st5" width="147.4" height="147.4"/>
		<rect x="798" y="245.1" class="st5" width="147.4" height="147.4"/>
		<rect x="982.2" y="245.1" class="st5" width="147.4" height="147.4"/>
		<rect x="61" y="429.4" class="st5" width="147.4" height="147.4"/>
		<rect x="245.2" y="429.4" class="st5" width="147.4" height="147.4"/>
		<rect x="429.5" y="429.4" class="st5" width="147.4" height="147.4"/>
		<rect x="613.7" y="429.4" class="st5" width="147.4" height="147.4"/>
		<rect x="798" y="429.4" class="st5" width="147.4" height="147.4"/>
		<rect x="982.2" y="429.4" class="st5" width="147.4" height="147.4"/>
		<rect x="61" y="613.6" class="st5" width="147.4" height="147.4"/>
		<rect x="245.2" y="613.6" class="st5" width="147.4" height="147.4"/>
		<rect x="429.5" y="613.6" class="st5" width="147.4" height="147.4"/>
		<rect x="613.7" y="613.6" class="st5" width="147.4" height="147.4"/>
		<rect x="798" y="613.6" class="st5" width="147.4" height="147.4"/>
		<rect x="982.2" y="613.6" class="st5" width="147.4" height="147.4"/>
		<rect x="61" y="797.9" class="st5" width="147.4" height="147.4"/>
		<rect x="245.2" y="797.9" class="st5" width="147.4" height="147.4"/>
		<rect x="429.5" y="797.9" class="st5" width="147.4" height="147.4"/>
		<rect x="613.7" y="797.9" class="st5" width="147.4" height="147.4"/>
		<rect x="798" y="797.9" class="st5" width="147.4" height="147.4"/>
		<rect x="982.2" y="797.9" class="st5" width="147.4" height="147.4"/>
		<rect x="61" y="982.1" class="st5" width="147.4" height="147.4"/>
		<rect x="245.2" y="982.1" class="st5" width="147.4" height="147.4"/>
		<rect x="429.5" y="982.1" class="st5" width="147.4" height="147.4"/>
		<rect x="613.7" y="982.1" class="st5" width="147.4" height="147.4"/>
		<rect x="798" y="982.1" class="st5" width="147.4" height="147.4"/>
		<rect x="982.2" y="982.1" class="st5" width="147.4" height="147.4"/>
	</g>
</g>
<g id="Livello_3_1_">
</g>
<g id="Livello_2" class="st1">
</g>
</svg>
