<svg id="Livello_1" data-name="Livello 1" xmlns="http://www.w3.org/2000/svg" xmlns:xlink="http://www.w3.org/1999/xlink" viewBox="0 0 1190.6 1190.6"><defs><style>.cls-1{fill:none;}.cls-11,.cls-2,.cls-3,.cls-7{isolation:isolate;}.cls-3{font-size:60px;font-family:OpenSansCondensed-Bold, Open Sans Condensed;font-weight:700;}.cls-4,.cls-7{font-size:16px;}.cls-4{font-family:OpenSans-Light, Open Sans;}.cls-5{clip-path:url(#clip-path);}.cls-6{clip-path:url(#clip-path-2);}.cls-11,.cls-7{font-family:ArialMT, Arial;}.cls-8{letter-spacing:-0.06em;}.cls-9{fill:#fff;stroke:#3e388d;stroke-miterlimit:10;}.cls-10{clip-path:url(#clip-path-3);}.cls-11,.cls-13{font-size:10px;}.cls-12{clip-path:url(#clip-path-5);}.cls-13{font-family:EBGaramond-Italic, EB Garamond;font-style:italic;}.cls-14{letter-spacing:-0.01em;}.cls-15{letter-spacing:-0.02em;}.cls-16{letter-spacing:-0.02em;}.cls-17{letter-spacing:-0.01em;}.cls-18{letter-spacing:-0.02em;}.cls-19{letter-spacing:-0.03em;}</style><clipPath id="clip-path" transform="translate(0 0)"><rect class="cls-1" x="890.1" y="61" width="239.5" height="239.5"/></clipPath><clipPath id="clip-path-2" transform="translate(0 0)"><rect class="cls-1" x="889.8" y="44.8" width="240.2" height="261.6"/></clipPath><clipPath id="clip-path-3" transform="translate(0 0)"><circle class="cls-1" cx="457" cy="180.8" r="119.8"/></clipPath><clipPath id="clip-path-5" transform="translate(0 0)"><circle class="cls-1" cx="195.24" cy="526.4" r="134.24"/></clipPath></defs><title>888701_06</title><rect class="cls-1" x="61" y="61" width="239.5" height="239.5"/><g class="cls-2"><text class="cls-3" transform="translate(61 103.6)">Parte 2. </text><text class="cls-3" transform="translate(61 175.6)">Cuba</text></g><g id="Livello_1-2" data-name="Livello 1"><rect class="cls-1" width="1190.6" height="1190.6"/></g><text class="cls-4" transform="translate(589.03 87.16)">Lorem ipsum dolor sit amet, con<tspan x="232.8" y="0">-</tspan><tspan x="0" y="24">sectetuer adipiscing elit, sed </tspan><tspan x="0" y="48">diam nonummy nibh euismod </tspan><tspan x="0" y="72">tincidunt ut laoreet dolore </tspan><tspan x="0" y="96">magna aliquam erat volutpat. Ut </tspan><tspan x="0" y="120">wisi enim ad minim veniam, quis </tspan><tspan x="0" y="144">nostrud exerci tation ullamcor</tspan><tspan x="216.36" y="144">-</tspan><tspan x="0" y="168">per suscipit lobortis nisl ut ali</tspan><tspan x="208.55" y="168">-</tspan><tspan x="0" y="192">quip ex ea commodo consequat. </tspan><tspan x="0" y="216">Duis autem vel eum iriure dolor </tspan></text><g id="Livello_1-3" data-name="Livello 1"><g class="cls-5"><rect class="cls-1" x="61" y="337.3" width="239.5" height="239.5"/><g class="cls-2"><text class="cls-7" transform="translate(61 348.66)">« Lorem ipsum dolor sit amet, con</text><text class="cls-7" transform="translate(285.8 348.66)">-</text><text class="cls-7" transform="translate(61 367.86)">sectetur adipisci elit, sed eiusmod </text><text class="cls-7" transform="translate(61 387.06)">tempor incidunt ut labore et dolore </text><text class="cls-7" transform="translate(61 406.26)">magna aliqua. Ut enim ad minim </text><text class="cls-7" transform="translate(61 425.46)">veniam, quis nostrum exercitatio</text><text class="cls-7" transform="translate(278.9 425.46)">-</text><text class="cls-7" transform="translate(61 444.66)">nem ullam corporis suscipit laborio</text><text class="cls-7" transform="translate(294.3 444.66)">-</text><text class="cls-7" transform="translate(61 463.86)">sam, nisi ut aliquid ex ea commodi </text><text class="cls-7" transform="translate(61 483.06)">consequatu<tspan class="cls-8" x="82.73" y="0">r</tspan><tspan x="87.18" y="0">. Quis aute iure </tspan></text><text class="cls-7" transform="translate(61 502.26)">reprehenderit in voluptate velit </text><text class="cls-7" transform="translate(61 521.46)">esse cillum dolore eu fugiat nulla </text><text class="cls-7" transform="translate(61 540.66)">pariatu<tspan class="cls-8" x="48.92" y="0">r</tspan><tspan x="53.37" y="0">. Excepteur sint obcaecat </tspan></text><text class="cls-7" transform="translate(61 559.86)">cupiditat non proident, sunt in </text></g><rect class="cls-9" x="337.3" y="337.3" width="239.5" height="239.5"/><rect class="cls-9" x="613.7" y="337.3" width="239.5" height="239.5"/><rect class="cls-9" x="890.1" y="337.3" width="239.5" height="239.5"/><rect class="cls-9" x="61" y="613.7" width="239.5" height="239.5"/><rect class="cls-9" x="337.3" y="613.7" width="239.5" height="239.5"/><rect class="cls-9" x="613.7" y="613.7" width="239.5" height="239.5"/><rect class="cls-9" x="890.1" y="613.7" width="239.5" height="239.5"/><rect class="cls-9" x="61" y="890.1" width="239.5" height="239.5"/><rect class="cls-9" x="337.3" y="890.1" width="239.5" height="239.5"/><rect class="cls-9" x="613.7" y="890.1" width="239.5" height="239.5"/><rect class="cls-9" x="890.1" y="890.1" width="239.5" height="239.5"/><g class="cls-10"><rect class="cls-9" x="337.3" y="61" width="239.5" height="239.5"/></g><rect class="cls-1" x="89" y="97.6" width="190" height="136"/><text class="cls-11" transform="translate(671 111.55)">Capo vaticano al tramonto</text><text class="cls-11" transform="translate(729 239.55)">Megattere </text></g></g><text></text><g class="cls-12"><image width="320" height="240" transform="translate(328.92 331.73) rotate(86.03) scale(1.23)" xlink:href="../../../../../../Pictures/Nicotera Franco/IMG_4550.JPG"/></g><text class="cls-13" transform="translate(451.1 585.19)">Lorem <tspan class="cls-14" x="26.72" y="0">i</tspan><tspan x="29.51" y="0">ps</tspan><tspan class="cls-14" x="36.66" y="0">u</tspan><tspan x="41.6" y="0">m d</tspan><tspan class="cls-15" x="56.65" y="0">o</tspan><tspan x="60.25" y="0">lor sit </tspan><tspan class="cls-16" x="83.32" y="0">a</tspan><tspan x="88.03" y="0">met, </tspan><tspan class="cls-14" x="106.4" y="0">c</tspan><tspan x="109.38" y="0">onsectet</tspan><tspan class="cls-15" x="137" y="0">u</tspan><tspan x="141.89" y="0">er ad</tspan><tspan class="cls-17" x="161.16" y="0">i</tspan><tspan x="163.95" y="0">pisc</tspan><tspan class="cls-18" x="177.16" y="0">i</tspan><tspan x="179.95" y="0">ng </tspan><tspan class="cls-19" x="191.37" y="0">e</tspan><tspan x="194.53" y="0">lit, sed </tspan></text><text class="cls-13" transform="translate(190.11 485.15)">Lorem <tspan class="cls-18" x="26.72" y="0">i</tspan><tspan x="29.51" y="0">ps</tspan><tspan class="cls-14" x="36.66" y="0">u</tspan><tspan x="41.6" y="0">m</tspan></text></svg>