<?xml version="1.0" encoding="utf-8"?>
<!-- Generator: Adobe Illustrator 21.1.0, SVG Export Plug-In . SVG Version: 6.00 Build 0)  -->
<svg version="1.1" id="Livello_1" xmlns="http://www.w3.org/2000/svg" xmlns:xlink="http://www.w3.org/1999/xlink" x="0px" y="0px"
	 viewBox="0 0 1190.6 1190.6" style="enable-background:new 0 0 1190.6 1190.6;" xml:space="preserve">
<style type="text/css">
	.st0{fill:#BE1622;stroke:#1D1D1B;stroke-miterlimit:10;}
	.st1{fill:none;stroke:#1D1D1B;stroke-width:4;stroke-miterlimit:10;}
	.st2{fill:none;stroke:#2D2E83;stroke-width:4;stroke-miterlimit:10;}
	.st3{fill:none;stroke:#008D36;stroke-width:4;stroke-miterlimit:10;}
</style>
<title>Tavola disegno 1</title>
<g id="Livello_1_1_">
	<rect x="1.8" y="1.8" class="st0" width="1190.6" height="1190.6"/>
	<rect y="0" class="st1" width="1190.6" height="1190.6"/>
	<rect x="63" y="63" class="st1" width="239.4" height="239.4"/>
	<rect x="339.3" y="63" class="st1" width="239.4" height="239.4"/>
	<rect x="615.5" y="63" class="st1" width="239.4" height="239.4"/>
	<rect x="891.7" y="63" class="st1" width="239.4" height="239.4"/>
	<rect x="63" y="339.3" class="st1" width="239.4" height="239.4"/>
	<rect x="339.3" y="339.3" class="st1" width="239.4" height="239.4"/>
	<rect x="615.5" y="339.3" class="st1" width="239.4" height="239.4"/>
	<rect x="891.7" y="339.3" class="st1" width="239.4" height="239.4"/>
	<rect x="63" y="615.5" class="st1" width="239.4" height="239.4"/>
	<rect x="339.3" y="615.5" class="st1" width="239.4" height="239.4"/>
	<rect x="615.5" y="615.5" class="st1" width="239.4" height="239.4"/>
	<rect x="891.7" y="615.5" class="st1" width="239.4" height="239.4"/>
	<rect x="63" y="891.7" class="st1" width="239.4" height="239.4"/>
	<rect x="339.3" y="891.7" class="st1" width="239.4" height="239.4"/>
	<rect x="615.5" y="891.7" class="st1" width="239.4" height="239.4"/>
	<rect x="891.7" y="891.7" class="st1" width="239.4" height="239.4"/>
</g>
<g id="Livello_2">
	<rect x="63" y="63" class="st2" width="184.1" height="184.1"/>
	<rect x="284" y="63" class="st2" width="184.1" height="184.1"/>
	<rect x="505" y="63" class="st2" width="184.1" height="184.1"/>
	<rect x="726" y="63" class="st2" width="184.1" height="184.1"/>
	<rect x="947" y="63" class="st2" width="184.1" height="184.1"/>
	<rect x="63" y="284" class="st2" width="184.1" height="184.1"/>
	<rect x="284" y="284" class="st2" width="184.1" height="184.1"/>
	<rect x="505" y="284" class="st2" width="184.1" height="184.1"/>
	<rect x="726" y="284" class="st2" width="184.1" height="184.1"/>
	<rect x="947" y="284" class="st2" width="184.1" height="184.1"/>
	<rect x="63" y="505" class="st2" width="184.1" height="184.1"/>
	<rect x="284" y="505" class="st2" width="184.1" height="184.1"/>
	<rect x="505" y="505" class="st2" width="184.1" height="184.1"/>
	<rect x="726" y="505" class="st2" width="184.1" height="184.1"/>
	<rect x="947" y="505" class="st2" width="184.1" height="184.1"/>
	<rect x="63" y="726" class="st2" width="184.1" height="184.1"/>
	<rect x="284" y="726" class="st2" width="184.1" height="184.1"/>
	<rect x="505" y="726" class="st2" width="184.1" height="184.1"/>
	<rect x="726" y="726" class="st2" width="184.1" height="184.1"/>
	<rect x="947" y="726" class="st2" width="184.1" height="184.1"/>
	<rect x="63" y="947" class="st2" width="184.1" height="184.1"/>
	<rect x="284" y="947" class="st2" width="184.1" height="184.1"/>
	<rect x="505" y="947" class="st2" width="184.1" height="184.1"/>
	<rect x="726" y="947" class="st2" width="184.1" height="184.1"/>
	<rect x="947" y="947" class="st2" width="184.1" height="184.1"/>
</g>
<g id="Livello_3">
	<rect x="63" y="63" class="st3" width="147.3" height="147.3"/>
	<rect x="247.2" y="63" class="st3" width="147.3" height="147.3"/>
	<rect x="431.3" y="63" class="st3" width="147.3" height="147.3"/>
	<rect x="615.5" y="63" class="st3" width="147.3" height="147.3"/>
	<rect x="799.7" y="63" class="st3" width="147.3" height="147.3"/>
	<rect x="983.8" y="63" class="st3" width="147.3" height="147.3"/>
	<rect x="63" y="247.2" class="st3" width="147.3" height="147.3"/>
	<rect x="247.2" y="247.2" class="st3" width="147.3" height="147.3"/>
	<rect x="431.3" y="247.2" class="st3" width="147.3" height="147.3"/>
	<rect x="615.5" y="247.2" class="st3" width="147.3" height="147.3"/>
	<rect x="799.7" y="247.2" class="st3" width="147.3" height="147.3"/>
	<rect x="983.8" y="247.2" class="st3" width="147.3" height="147.3"/>
	<rect x="63" y="431.3" class="st3" width="147.3" height="147.3"/>
	<rect x="247.2" y="431.3" class="st3" width="147.3" height="147.3"/>
	<rect x="431.3" y="431.3" class="st3" width="147.3" height="147.3"/>
	<rect x="615.5" y="431.3" class="st3" width="147.3" height="147.3"/>
	<rect x="799.7" y="431.3" class="st3" width="147.3" height="147.3"/>
	<rect x="983.8" y="431.3" class="st3" width="147.3" height="147.3"/>
	<rect x="63" y="615.5" class="st3" width="147.3" height="147.3"/>
	<rect x="247.2" y="615.5" class="st3" width="147.3" height="147.3"/>
	<rect x="431.3" y="615.5" class="st3" width="147.3" height="147.3"/>
	<rect x="615.5" y="615.5" class="st3" width="147.3" height="147.3"/>
	<rect x="799.7" y="615.5" class="st3" width="147.3" height="147.3"/>
	<rect x="983.8" y="615.5" class="st3" width="147.3" height="147.3"/>
	<rect x="63" y="799.6" class="st3" width="147.3" height="147.3"/>
	<rect x="247.2" y="799.6" class="st3" width="147.3" height="147.3"/>
	<rect x="431.3" y="799.6" class="st3" width="147.3" height="147.3"/>
	<rect x="615.5" y="799.6" class="st3" width="147.3" height="147.3"/>
	<rect x="799.7" y="799.6" class="st3" width="147.3" height="147.3"/>
	<rect x="983.8" y="799.6" class="st3" width="147.3" height="147.3"/>
	<rect x="63" y="983.8" class="st3" width="147.3" height="147.3"/>
	<rect x="247.2" y="983.8" class="st3" width="147.3" height="147.3"/>
	<rect x="431.3" y="983.8" class="st3" width="147.3" height="147.3"/>
	<rect x="615.5" y="983.8" class="st3" width="147.3" height="147.3"/>
	<rect x="799.7" y="983.8" class="st3" width="147.3" height="147.3"/>
	<rect x="983.8" y="983.8" class="st3" width="147.3" height="147.3"/>
	<g>
		<defs>
			<rect id="SVGID_1_" x="431.3" y="247.2" width="147.3" height="147.3"/>
		</defs>
		<clipPath id="SVGID_2_">
			<use xlink:href="#SVGID_1_"  style="overflow:visible;"/>
		</clipPath>
		<g transform="matrix(1 0 0 1 0 0)" style="clip-path:url(#SVGID_2_);enable-background:new    ;">
			
				<image style="overflow:visible;" width="1922" height="1075" xlink:href="C74E8CFD.jpg"  transform="matrix(0.2136 0 0 0.2136 299.726 205.969)">
			</image>
		</g>
	</g>
</g>
</svg>
