<?xml version="1.0" encoding="utf-8"?>
<!-- Generator: Adobe Illustrator 21.1.0, SVG Export Plug-In . SVG Version: 6.00 Build 0)  -->
<svg version="1.1" id="Livello_1" xmlns="http://www.w3.org/2000/svg" xmlns:xlink="http://www.w3.org/1999/xlink" x="0px" y="0px"
	 viewBox="0 0 1190.6 1190.6" style="enable-background:new 0 0 1190.6 1190.6;" xml:space="preserve">
<style type="text/css">
	.st0{fill:#BE1622;stroke:#1D1D1B;stroke-miterlimit:10;}
	.st1{fill:none;stroke:#1D1D1B;stroke-width:4;stroke-miterlimit:10;}
	.st2{fill:none;stroke:#2D2E83;stroke-width:4;stroke-miterlimit:10;}
	.st3{fill:none;stroke:#008D36;stroke-width:4;stroke-miterlimit:10;}
	.st4{fill:none;}
	.st5{font-family:'OpenSans-Light';}
	.st6{font-size:16px;}
	.st7{clip-path:url(#SVGID_2_);}
	.st8{font-family:'OpenSansCondensed-Bold';}
	.st9{font-size:60px;}
	.st10{font-family:'EBGaramond-Italic';}
	.st11{font-size:9px;}
</style>
<title>Tavola disegno 1</title>
<g id="Livello_1_1_">
	<rect x="1.8" y="1.8" class="st0" width="1190.6" height="1190.6"/>
	<rect y="0" class="st1" width="1190.6" height="1190.6"/>
	<rect x="63" y="63" class="st1" width="239.4" height="239.4"/>
	<rect x="339.3" y="63" class="st1" width="239.4" height="239.4"/>
	<rect x="615.5" y="63" class="st1" width="239.4" height="239.4"/>
	<rect x="891.7" y="63" class="st1" width="239.4" height="239.4"/>
	<rect x="63" y="339.3" class="st1" width="239.4" height="239.4"/>
	<rect x="339.3" y="339.3" class="st1" width="239.4" height="239.4"/>
	<rect x="615.5" y="339.3" class="st1" width="239.4" height="239.4"/>
	<rect x="891.7" y="339.3" class="st1" width="239.4" height="239.4"/>
	<rect x="63" y="615.5" class="st1" width="239.4" height="239.4"/>
	<rect x="339.3" y="615.5" class="st1" width="239.4" height="239.4"/>
	<rect x="615.5" y="615.5" class="st1" width="239.4" height="239.4"/>
	<rect x="891.7" y="615.5" class="st1" width="239.4" height="239.4"/>
	<rect x="63" y="891.7" class="st1" width="239.4" height="239.4"/>
	<rect x="339.3" y="891.7" class="st1" width="239.4" height="239.4"/>
	<rect x="615.5" y="891.7" class="st1" width="239.4" height="239.4"/>
	<rect x="891.7" y="891.7" class="st1" width="239.4" height="239.4"/>
</g>
<g id="Livello_2">
	<rect x="63" y="63" class="st2" width="184.1" height="184.1"/>
	<rect x="284" y="63" class="st2" width="184.1" height="184.1"/>
	<rect x="505" y="63" class="st2" width="184.1" height="184.1"/>
	<rect x="726" y="63" class="st2" width="184.1" height="184.1"/>
	<rect x="947" y="63" class="st2" width="184.1" height="184.1"/>
	<rect x="63" y="284" class="st2" width="184.1" height="184.1"/>
	<rect x="284" y="284" class="st2" width="184.1" height="184.1"/>
	<rect x="505" y="284" class="st2" width="184.1" height="184.1"/>
	<rect x="726" y="284" class="st2" width="184.1" height="184.1"/>
	<rect x="947" y="284" class="st2" width="184.1" height="184.1"/>
	<rect x="63" y="505" class="st2" width="184.1" height="184.1"/>
	<rect x="284" y="505" class="st2" width="184.1" height="184.1"/>
	<rect x="505" y="505" class="st2" width="184.1" height="184.1"/>
	<rect x="726" y="505" class="st2" width="184.1" height="184.1"/>
	<rect x="947" y="505" class="st2" width="184.1" height="184.1"/>
	<rect x="63" y="726" class="st2" width="184.1" height="184.1"/>
	<rect x="284" y="726" class="st2" width="184.1" height="184.1"/>
	<rect x="505" y="726" class="st2" width="184.1" height="184.1"/>
	<rect x="726" y="726" class="st2" width="184.1" height="184.1"/>
	<rect x="947" y="726" class="st2" width="184.1" height="184.1"/>
	<rect x="63" y="947" class="st2" width="184.1" height="184.1"/>
	<rect x="284" y="947" class="st2" width="184.1" height="184.1"/>
	<rect x="505" y="947" class="st2" width="184.1" height="184.1"/>
	<rect x="726" y="947" class="st2" width="184.1" height="184.1"/>
	<rect x="947" y="947" class="st2" width="184.1" height="184.1"/>
</g>
<g id="Livello_3">
	<rect x="62" y="63" class="st3" width="147.3" height="147.3"/>
	<rect x="246.2" y="63" class="st3" width="147.3" height="147.3"/>
	<rect x="430.3" y="63" class="st3" width="147.3" height="147.3"/>
	<rect x="614.5" y="63" class="st3" width="147.3" height="147.3"/>
	<rect x="798.7" y="63" class="st3" width="147.3" height="147.3"/>
	<rect x="982.8" y="63" class="st3" width="147.3" height="147.3"/>
	<rect x="64" y="247.2" class="st4" width="147.3" height="147.3"/>
	<text transform="matrix(1 0 0 1 64 259.3596)" class="st5 st6">Lorem ipsum dolor </text>
	<text transform="matrix(1 0 0 1 64 283.3596)" class="st5 st6">sit amet, consecte</text>
	<text transform="matrix(1 0 0 1 193.3 283.3596)" class="st5 st6">-</text>
	<text transform="matrix(1 0 0 1 64 307.3596)" class="st5 st6">tuer adipiscing elit, </text>
	<text transform="matrix(1 0 0 1 64 331.3596)" class="st5 st6">sed diam nonummy </text>
	<text transform="matrix(1 0 0 1 64 355.3596)" class="st5 st6">nibh euismod tinci</text>
	<text transform="matrix(1 0 0 1 196.3 355.3596)" class="st5 st6">-</text>
	<text transform="matrix(1 0 0 1 64 379.3596)" class="st5 st6">dunt ut laoreet </text>
	<circle class="st4" cx="227.8" cy="597" r="165.8"/>
	<text transform="matrix(1 0 0 1 148.0029 462.6599)"><tspan x="0" y="0" class="st5 st6">Lorem ipsum dolor sit </tspan><tspan x="-27.8" y="19.2" class="st5 st6">amet, consectetuer adipiscing </tspan><tspan x="-46.9" y="38.4" class="st5 st6">elit, sed diam nonummy nibh eui</tspan><tspan x="187.3" y="38.4" class="st5 st6">-</tspan><tspan x="-60.9" y="57.6" class="st5 st6">smod tincidunt ut laoreet dolore </tspan><tspan x="-71.2" y="76.8" class="st5 st6">magna aliquam erat volutpat. Ut wisi enim </tspan><tspan x="-78.5" y="96" class="st5 st6">ad minim veniam, quis nostrud exerci tation </tspan><tspan x="-83.3" y="115.2" class="st5 st6">ullamcorper suscipit lobortis nisl ut aliquip ex </tspan><tspan x="-85.6" y="134.4" class="st5 st6">ea commodo consequat. Duis autem vel eum </tspan><tspan x="-84.9" y="153.6" class="st5 st6">iriure dolor in hendrerit in vulputate velit esse </tspan><tspan x="-81.5" y="172.8" class="st5 st6">molestie consequat, vel illum dolore eu feu</tspan><tspan x="225.7" y="172.8" class="st5 st6">-</tspan><tspan x="-75.7" y="192" class="st5 st6">giat nulla facilisis at vero eros et accumsan </tspan><tspan x="-67.2" y="211.2" class="st5 st6">et iusto odio dignissim qui blandit prae</tspan><tspan x="211.4" y="211.2" class="st5 st6">-</tspan><tspan x="-55.4" y="230.4" class="st5 st6">sent luptatum zzril delenit augue duis </tspan><tspan x="-39.4" y="249.6" class="st5 st6">dolore te feugait nulla facilisi.</tspan><tspan x="-17.3" y="268.8" class="st5 st6">Lorem ipsum dolor sit </tspan><tspan x="17.4" y="288" class="st5 st6">amet, cons ecte</tspan></text>
	<rect x="246.2" y="247.2" class="st3" width="147.3" height="147.3"/>
	<rect x="430.3" y="247.2" class="st3" width="147.3" height="147.3"/>
	<rect x="614.5" y="247.2" class="st3" width="147.3" height="147.3"/>
	<rect x="798.7" y="247.2" class="st3" width="147.3" height="147.3"/>
	<rect x="982.8" y="247.2" class="st3" width="147.3" height="147.3"/>
	<rect x="62" y="431.3" class="st3" width="147.3" height="147.3"/>
	<rect x="246.2" y="431.3" class="st3" width="147.3" height="147.3"/>
	<rect x="430.3" y="431.3" class="st3" width="147.3" height="147.3"/>
	<rect x="614.5" y="431.3" class="st3" width="147.3" height="147.3"/>
	<rect x="798.7" y="431.3" class="st3" width="147.3" height="147.3"/>
	<rect x="982.8" y="431.3" class="st3" width="147.3" height="147.3"/>
	<rect x="62" y="615.5" class="st3" width="147.3" height="147.3"/>
	<rect x="246.2" y="615.5" class="st3" width="147.3" height="147.3"/>
	<rect x="430.3" y="615.5" class="st3" width="147.3" height="147.3"/>
	<rect x="614.5" y="615.5" class="st3" width="147.3" height="147.3"/>
	<rect x="798.7" y="615.5" class="st3" width="147.3" height="147.3"/>
	<rect x="982.8" y="615.5" class="st3" width="147.3" height="147.3"/>
	<rect x="62" y="799.6" class="st3" width="147.3" height="147.3"/>
	<rect x="246.2" y="799.6" class="st3" width="147.3" height="147.3"/>
	<rect x="430.3" y="799.6" class="st3" width="147.3" height="147.3"/>
	<rect x="614.5" y="799.6" class="st3" width="147.3" height="147.3"/>
	<rect x="798.7" y="799.6" class="st3" width="147.3" height="147.3"/>
	<rect x="982.8" y="799.6" class="st3" width="147.3" height="147.3"/>
	<rect x="62" y="983.8" class="st3" width="147.3" height="147.3"/>
	<rect x="246.2" y="983.8" class="st3" width="147.3" height="147.3"/>
	<rect x="430.3" y="983.8" class="st3" width="147.3" height="147.3"/>
	<rect x="614.5" y="983.8" class="st3" width="147.3" height="147.3"/>
	<rect x="798.7" y="983.8" class="st3" width="147.3" height="147.3"/>
	<rect x="982.8" y="983.8" class="st3" width="147.3" height="147.3"/>
	<g>
		<g>
			<g>
				<defs>
					<circle id="SVGID_1_" cx="688.2" cy="320.8" r="188.4"/>
				</defs>
				<clipPath id="SVGID_2_">
					<use xlink:href="#SVGID_1_"  style="overflow:visible;"/>
				</clipPath>
				<g class="st7">
					
						<image style="overflow:visible;enable-background:new    ;" width="1920" height="1280" xlink:href="888904_05.estensione.jpg"  transform="matrix(0.6 0 0 0.6 244.26 104.91)">
					</image>
				</g>
			</g>
		</g>
	</g>
	<rect x="62" y="247.1" class="st3" width="147.3" height="147.3"/>
</g>
<text transform="matrix(1 0 0 1 63 111.55)" class="st8 st9">Cristalli di ghiacchio</text>
<text transform="matrix(1 0 0 1 918 259.5499)" class="st10 st11">Cristalli di ghiaccio in maschera rotonda</text>
</svg>
