<svg xmlns="http://www.w3.org/2000/svg" viewBox="0 0 1190.55 1190.55"><defs><style>.cls-1{fill:#81adcd;}.cls-2,.cls-3,.cls-4{fill:none;stroke-miterlimit:10;}.cls-2{stroke:#009640;}.cls-3{stroke:#e5087e;}.cls-4{stroke:#ffed00;}</style></defs><title>889229_01</title><g id="Sfondo"><rect class="cls-1" width="1190.55" height="1190.55"/></g><g id="Griglia_verde" data-name="Griglia verde"><rect class="cls-2" x="60.94" y="60.94" width="239.53" height="239.53"/><rect class="cls-2" x="337.32" y="60.94" width="239.53" height="239.53"/><rect class="cls-2" x="613.7" y="60.94" width="239.53" height="239.53"/><rect class="cls-2" x="890.08" y="60.94" width="239.53" height="239.53"/><rect class="cls-2" x="60.94" y="337.32" width="239.53" height="239.53"/><rect class="cls-2" x="337.32" y="337.32" width="239.53" height="239.53"/><rect class="cls-2" x="613.7" y="337.32" width="239.53" height="239.53"/><rect class="cls-2" x="890.08" y="337.32" width="239.53" height="239.53"/><rect class="cls-2" x="60.94" y="613.7" width="239.53" height="239.53"/><rect class="cls-2" x="337.32" y="613.7" width="239.53" height="239.53"/><rect class="cls-2" x="613.7" y="613.7" width="239.53" height="239.53"/><rect class="cls-2" x="890.08" y="613.7" width="239.53" height="239.53"/><rect class="cls-2" x="60.94" y="890.08" width="239.53" height="239.53"/><rect class="cls-2" x="337.32" y="890.08" width="239.53" height="239.53"/><rect class="cls-2" x="613.7" y="890.08" width="239.53" height="239.53"/><rect class="cls-2" x="890.08" y="890.08" width="239.53" height="239.53"/></g><g id="Griglia_rosa" data-name="Griglia rosa"><rect class="cls-3" x="60.94" y="60.94" width="184.25" height="184.25"/><rect class="cls-3" x="945.36" y="60.94" width="184.25" height="184.25"/><rect class="cls-3" x="503.15" y="60.94" width="184.25" height="184.25"/><rect class="cls-3" x="724.26" y="60.94" width="184.25" height="184.25"/><rect class="cls-3" x="282.04" y="60.94" width="184.25" height="184.25"/><rect class="cls-3" x="60.94" y="945.36" width="184.25" height="184.25"/><rect class="cls-3" x="945.36" y="945.36" width="184.25" height="184.25"/><rect class="cls-3" x="503.15" y="945.36" width="184.25" height="184.25"/><rect class="cls-3" x="724.26" y="945.36" width="184.25" height="184.25"/><rect class="cls-3" x="282.04" y="945.36" width="184.25" height="184.25"/><rect class="cls-3" x="60.94" y="503.15" width="184.25" height="184.25"/><rect class="cls-3" x="945.36" y="503.15" width="184.25" height="184.25"/><rect class="cls-3" x="503.15" y="503.15" width="184.25" height="184.25"/><rect class="cls-3" x="724.26" y="503.15" width="184.25" height="184.25"/><rect class="cls-3" x="282.04" y="503.15" width="184.25" height="184.25"/><rect class="cls-3" x="60.94" y="724.26" width="184.25" height="184.25"/><rect class="cls-3" x="945.36" y="724.26" width="184.25" height="184.25"/><rect class="cls-3" x="503.15" y="724.26" width="184.25" height="184.25"/><rect class="cls-3" x="724.26" y="724.26" width="184.25" height="184.25"/><rect class="cls-3" x="282.04" y="724.26" width="184.25" height="184.25"/><rect class="cls-3" x="60.94" y="282.04" width="184.25" height="184.25"/><rect class="cls-3" x="945.36" y="282.04" width="184.25" height="184.25"/><rect class="cls-3" x="503.15" y="282.04" width="184.25" height="184.25"/><rect class="cls-3" x="724.26" y="282.04" width="184.25" height="184.25"/><rect class="cls-3" x="282.04" y="282.04" width="184.25" height="184.25"/></g><g id="Griglia_gialla" data-name="Griglia gialla"><rect class="cls-4" x="60.94" y="60.94" width="147.4" height="147.4"/><rect class="cls-4" x="982.21" y="60.94" width="147.4" height="147.4"/><rect class="cls-4" x="245.19" y="60.94" width="147.4" height="147.4"/><rect class="cls-4" x="797.96" y="60.94" width="147.4" height="147.4"/><rect class="cls-4" x="613.7" y="60.94" width="147.4" height="147.4"/><rect class="cls-4" x="429.45" y="60.94" width="147.4" height="147.4"/><rect class="cls-4" x="60.94" y="982.21" width="147.4" height="147.4"/><rect class="cls-4" x="982.21" y="982.21" width="147.4" height="147.4"/><rect class="cls-4" x="245.19" y="982.21" width="147.4" height="147.4"/><rect class="cls-4" x="797.96" y="982.21" width="147.4" height="147.4"/><rect class="cls-4" x="613.7" y="982.21" width="147.4" height="147.4"/><rect class="cls-4" x="429.45" y="982.21" width="147.4" height="147.4"/><rect class="cls-4" x="60.94" y="245.19" width="147.4" height="147.4"/><rect class="cls-4" x="982.21" y="245.19" width="147.4" height="147.4"/><rect class="cls-4" x="245.19" y="245.19" width="147.4" height="147.4"/><rect class="cls-4" x="797.96" y="245.19" width="147.4" height="147.4"/><rect class="cls-4" x="613.7" y="245.19" width="147.4" height="147.4"/><rect class="cls-4" x="429.45" y="245.19" width="147.4" height="147.4"/><rect class="cls-4" x="60.94" y="797.96" width="147.4" height="147.4"/><rect class="cls-4" x="982.21" y="797.96" width="147.4" height="147.4"/><rect class="cls-4" x="245.19" y="797.96" width="147.4" height="147.4"/><rect class="cls-4" x="797.96" y="797.96" width="147.4" height="147.4"/><rect class="cls-4" x="613.7" y="797.96" width="147.4" height="147.4"/><rect class="cls-4" x="429.45" y="797.96" width="147.4" height="147.4"/><rect class="cls-4" x="60.94" y="429.45" width="147.4" height="147.4"/><rect class="cls-4" x="982.21" y="429.45" width="147.4" height="147.4"/><rect class="cls-4" x="245.19" y="429.45" width="147.4" height="147.4"/><rect class="cls-4" x="797.96" y="429.45" width="147.4" height="147.4"/><rect class="cls-4" x="613.7" y="429.45" width="147.4" height="147.4"/><rect class="cls-4" x="429.45" y="429.45" width="147.4" height="147.4"/><rect class="cls-4" x="60.94" y="613.7" width="147.4" height="147.4"/><rect class="cls-4" x="982.21" y="613.7" width="147.4" height="147.4"/><rect class="cls-4" x="245.19" y="613.7" width="147.4" height="147.4"/><rect class="cls-4" x="797.96" y="613.7" width="147.4" height="147.4"/><rect class="cls-4" x="613.7" y="613.7" width="147.4" height="147.4"/><rect class="cls-4" x="429.45" y="613.7" width="147.4" height="147.4"/></g></svg>