<svg xmlns="http://www.w3.org/2000/svg" xmlns:xlink="http://www.w3.org/1999/xlink" viewBox="0 0 1190.55 1190.55"><defs><style>.cls-1,.cls-3,.cls-4,.cls-5{fill:none;}.cls-2{fill:#81adcd;}.cls-3{stroke:#009640;}.cls-3,.cls-4,.cls-5{stroke-miterlimit:10;}.cls-4{stroke:#e5087e;}.cls-5{stroke:#ffed00;}.cls-6{clip-path:url(#clip-path);}.cls-7{clip-path:url(#clip-path-2);}.cls-8{clip-path:url(#clip-path-3);}</style><clipPath id="clip-path"><rect class="cls-1" x="60.94" y="337.32" width="239.53" height="239.53"/></clipPath><clipPath id="clip-path-2"><rect class="cls-1" x="-43.58" y="316.81" width="448.56" height="280.55"/></clipPath><clipPath id="clip-path-3"><circle class="cls-1" cx="963.79" cy="226.76" r="165.83"/></clipPath></defs><title>889229_05</title><g id="Sfondo"><rect class="cls-2" width="1190.55" height="1190.55"/></g><g id="Griglia_verde" data-name="Griglia verde"><rect class="cls-3" x="60.94" y="60.94" width="239.53" height="239.53"/><rect class="cls-3" x="337.32" y="60.94" width="239.53" height="239.53"/><rect class="cls-3" x="613.7" y="60.94" width="239.53" height="239.53"/><rect class="cls-3" x="890.08" y="60.94" width="239.53" height="239.53"/><rect class="cls-3" x="337.32" y="337.32" width="239.53" height="239.53"/><rect class="cls-3" x="613.7" y="337.32" width="239.53" height="239.53"/><rect class="cls-3" x="890.08" y="337.32" width="239.53" height="239.53"/><rect class="cls-3" x="60.94" y="613.7" width="239.53" height="239.53"/><rect class="cls-3" x="337.32" y="613.7" width="239.53" height="239.53"/><rect class="cls-3" x="613.7" y="613.7" width="239.53" height="239.53"/><rect class="cls-3" x="890.08" y="613.7" width="239.53" height="239.53"/><rect class="cls-3" x="60.94" y="890.08" width="239.53" height="239.53"/><rect class="cls-3" x="337.32" y="890.08" width="239.53" height="239.53"/><rect class="cls-3" x="613.7" y="890.08" width="239.53" height="239.53"/><rect class="cls-3" x="890.08" y="890.08" width="239.53" height="239.53"/></g><g id="Griglia_rosa" data-name="Griglia rosa"><rect class="cls-4" x="60.94" y="60.94" width="184.25" height="184.25"/><rect class="cls-4" x="945.36" y="60.94" width="184.25" height="184.25"/><rect class="cls-4" x="503.15" y="60.94" width="184.25" height="184.25"/><rect class="cls-4" x="724.26" y="60.94" width="184.25" height="184.25"/><rect class="cls-4" x="282.04" y="60.94" width="184.25" height="184.25"/><rect class="cls-4" x="60.94" y="945.36" width="184.25" height="184.25"/><rect class="cls-4" x="945.36" y="945.36" width="184.25" height="184.25"/><rect class="cls-4" x="503.15" y="945.36" width="184.25" height="184.25"/><rect class="cls-4" x="724.26" y="945.36" width="184.25" height="184.25"/><rect class="cls-4" x="282.04" y="945.36" width="184.25" height="184.25"/><rect class="cls-4" x="60.94" y="503.15" width="184.25" height="184.25"/><rect class="cls-4" x="945.36" y="503.15" width="184.25" height="184.25"/><rect class="cls-4" x="503.15" y="503.15" width="184.25" height="184.25"/><rect class="cls-4" x="724.26" y="503.15" width="184.25" height="184.25"/><rect class="cls-4" x="282.04" y="503.15" width="184.25" height="184.25"/><rect class="cls-4" x="60.94" y="724.26" width="184.25" height="184.25"/><rect class="cls-4" x="945.36" y="724.26" width="184.25" height="184.25"/><rect class="cls-4" x="503.15" y="724.26" width="184.25" height="184.25"/><rect class="cls-4" x="724.26" y="724.26" width="184.25" height="184.25"/><rect class="cls-4" x="282.04" y="724.26" width="184.25" height="184.25"/><rect class="cls-4" x="60.94" y="282.04" width="184.25" height="184.25"/><rect class="cls-4" x="945.36" y="282.04" width="184.25" height="184.25"/><rect class="cls-4" x="503.15" y="282.04" width="184.25" height="184.25"/><rect class="cls-4" x="724.26" y="282.04" width="184.25" height="184.25"/><rect class="cls-4" x="282.04" y="282.04" width="184.25" height="184.25"/></g><g id="Griglia_gialla" data-name="Griglia gialla"><rect class="cls-5" x="60.94" y="60.94" width="147.4" height="147.4"/><rect class="cls-5" x="982.21" y="60.94" width="147.4" height="147.4"/><rect class="cls-5" x="245.19" y="60.94" width="147.4" height="147.4"/><rect class="cls-5" x="797.96" y="60.94" width="147.4" height="147.4"/><rect class="cls-5" x="613.7" y="60.94" width="147.4" height="147.4"/><rect class="cls-5" x="429.45" y="60.94" width="147.4" height="147.4"/><rect class="cls-5" x="60.94" y="982.21" width="147.4" height="147.4"/><rect class="cls-5" x="982.21" y="982.21" width="147.4" height="147.4"/><rect class="cls-5" x="245.19" y="982.21" width="147.4" height="147.4"/><rect class="cls-5" x="797.96" y="982.21" width="147.4" height="147.4"/><rect class="cls-5" x="613.7" y="982.21" width="147.4" height="147.4"/><rect class="cls-5" x="429.45" y="982.21" width="147.4" height="147.4"/><rect class="cls-5" x="60.94" y="245.19" width="147.4" height="147.4"/><rect class="cls-5" x="982.21" y="245.19" width="147.4" height="147.4"/><rect class="cls-5" x="245.19" y="245.19" width="147.4" height="147.4"/><rect class="cls-5" x="797.96" y="245.19" width="147.4" height="147.4"/><rect class="cls-5" x="613.7" y="245.19" width="147.4" height="147.4"/><rect class="cls-5" x="429.45" y="245.19" width="147.4" height="147.4"/><rect class="cls-5" x="60.94" y="797.96" width="147.4" height="147.4"/><rect class="cls-5" x="982.21" y="797.96" width="147.4" height="147.4"/><rect class="cls-5" x="245.19" y="797.96" width="147.4" height="147.4"/><rect class="cls-5" x="797.96" y="797.96" width="147.4" height="147.4"/><rect class="cls-5" x="613.7" y="797.96" width="147.4" height="147.4"/><rect class="cls-5" x="429.45" y="797.96" width="147.4" height="147.4"/><rect class="cls-5" x="60.94" y="429.45" width="147.4" height="147.4"/><rect class="cls-5" x="982.21" y="429.45" width="147.4" height="147.4"/><rect class="cls-5" x="245.19" y="429.45" width="147.4" height="147.4"/><rect class="cls-5" x="797.96" y="429.45" width="147.4" height="147.4"/><rect class="cls-5" x="613.7" y="429.45" width="147.4" height="147.4"/><rect class="cls-5" x="429.45" y="429.45" width="147.4" height="147.4"/><rect class="cls-5" x="60.94" y="613.7" width="147.4" height="147.4"/><rect class="cls-5" x="982.21" y="613.7" width="147.4" height="147.4"/><rect class="cls-5" x="245.19" y="613.7" width="147.4" height="147.4"/><rect class="cls-5" x="797.96" y="613.7" width="147.4" height="147.4"/><rect class="cls-5" x="613.7" y="613.7" width="147.4" height="147.4"/><rect class="cls-5" x="429.45" y="613.7" width="147.4" height="147.4"/></g><g id="Immagine_1" data-name="Immagine 1"><g class="cls-6"><g class="cls-7"><image width="1925" height="1204" transform="translate(-43.58 316.81) scale(0.23)" xlink:href="889229_03.png"/></g></g></g><g id="Livello_7" data-name="Livello 7"><g class="cls-8"><image width="1024" height="504" transform="translate(544.02 60.94) scale(0.66)" xlink:href="889229_05.jpg"/></g></g></svg>