<?xml version="1.0" encoding="utf-8"?>
<!-- Generator: Adobe Illustrator 22.1.0, SVG Export Plug-In . SVG Version: 6.00 Build 0)  -->
<svg version="1.1" xmlns:x="&ns_extend;" xmlns:i="&ns_ai;" xmlns:graph="&ns_graphs;"
	 xmlns="http://www.w3.org/2000/svg" xmlns:xlink="http://www.w3.org/1999/xlink" x="0px" y="0px" viewBox="0 0 1190.6 1190.6"
	 style="enable-background:new 0 0 1190.6 1190.6;" xml:space="preserve">
<style type="text/css">
	.st0{fill:#81ADCD;}
	.st1{fill:none;stroke:#009640;stroke-miterlimit:10;}
	.st2{fill:none;stroke:#E6007E;stroke-miterlimit:10;}
	.st3{fill:none;stroke:#FFED00;stroke-miterlimit:10;}
	.st4{font-family:'OpenSansCondensed-Bold';}
	.st5{font-size:60px;}
	.st6{fill:none;}
	.st7{font-family:'OpenSans-Light';}
	.st8{font-size:16px;}
	.st9{letter-spacing:5;}
	.st10{letter-spacing:8;}
	.st11{letter-spacing:2;}
	.st12{letter-spacing:4;}
	.st13{letter-spacing:1;}
	.st14{letter-spacing:3;}
	.st15{font-family:'EBGaramond-Italic';}
	.st16{font-size:10px;}
</style>
<metadata>
	<sfw  xmlns="&ns_sfw;">
		<slices></slices>
		<sliceSourceBounds  bottomLeftOrigin="true" height="1190.6" width="1301.3" x="-82.2" y="0"></sliceSourceBounds>
	</sfw>
</metadata>
<g id="Sfondo">
	<title>889229_01</title>
	<rect y="0" class="st0" width="1190.6" height="1190.6"/>
</g>
<g id="Griglia_e_imm2">
	<rect x="57.4" y="56.7" class="st1" width="239.5" height="239.5"/>
	<rect x="336.6" y="56.7" class="st1" width="239.5" height="239.5"/>
	<rect x="336.6" y="335.9" class="st1" width="239.5" height="239.5"/>
	<rect x="614.4" y="56.7" class="st1" width="239.5" height="239.5"/>
	<rect x="614.4" y="335.9" class="st1" width="239.5" height="239.5"/>
	<rect x="893.6" y="56.7" class="st1" width="239.5" height="239.5"/>
	<rect x="893.6" y="335.9" class="st1" width="239.5" height="239.5"/>
	<rect x="57.4" y="615.1" class="st1" width="239.5" height="239.5"/>
	<rect x="57.4" y="894.3" class="st1" width="239.5" height="239.5"/>
	<rect x="336.6" y="615.1" class="st1" width="239.5" height="239.5"/>
	<rect x="336.6" y="894.3" class="st1" width="239.5" height="239.5"/>
	<rect x="614.4" y="615.1" class="st1" width="239.5" height="239.5"/>
	<rect x="614.4" y="894.3" class="st1" width="239.5" height="239.5"/>
	<rect x="893.6" y="615.1" class="st1" width="239.5" height="239.5"/>
	<rect x="893.6" y="894.3" class="st1" width="239.5" height="239.5"/>
	<rect x="503.1" y="503.1" class="st2" width="184.3" height="184.3"/>
	<rect x="734.2" y="503.1" class="st2" width="184.3" height="184.3"/>
	<rect x="948.9" y="503.1" class="st2" width="184.3" height="184.3"/>
	<rect x="57.4" y="503.1" class="st2" width="184.3" height="184.3"/>
	<rect x="272.1" y="503.1" class="st2" width="184.3" height="184.3"/>
	<rect x="503.1" y="271.4" class="st2" width="184.3" height="184.3"/>
	<rect x="734.2" y="271.4" class="st2" width="184.3" height="184.3"/>
	<rect x="948.9" y="271.4" class="st2" width="184.3" height="184.3"/>
	<rect x="57.4" y="271.4" class="st2" width="184.3" height="184.3"/>
	<rect x="272.1" y="271.4" class="st2" width="184.3" height="184.3"/>
	<rect x="503.1" y="56.7" class="st2" width="184.3" height="184.3"/>
	<rect x="734.2" y="56.7" class="st2" width="184.3" height="184.3"/>
	<rect x="948.9" y="56.7" class="st2" width="184.3" height="184.3"/>
	<rect x="57.4" y="56.7" class="st2" width="184.3" height="184.3"/>
	<rect x="272.1" y="56.7" class="st2" width="184.3" height="184.3"/>
	<rect x="503.1" y="949.6" class="st2" width="184.3" height="184.3"/>
	<rect x="734.2" y="949.6" class="st2" width="184.3" height="184.3"/>
	<rect x="948.9" y="949.6" class="st2" width="184.3" height="184.3"/>
	<rect x="57.4" y="949.6" class="st2" width="184.3" height="184.3"/>
	<rect x="272.1" y="949.6" class="st2" width="184.3" height="184.3"/>
	<rect x="503.1" y="726.4" class="st2" width="184.3" height="184.3"/>
	<rect x="734.2" y="726.4" class="st2" width="184.3" height="184.3"/>
	<rect x="948.9" y="726.4" class="st2" width="184.3" height="184.3"/>
	<rect x="57.4" y="726.4" class="st2" width="184.3" height="184.3"/>
	<rect x="272.1" y="726.4" class="st2" width="184.3" height="184.3"/>
	<rect x="57.4" y="56.7" class="st3" width="147.4" height="147.4"/>
	<rect x="985.8" y="56.7" class="st3" width="147.4" height="147.4"/>
	<rect x="985.8" y="986.5" class="st3" width="147.4" height="147.4"/>
	<rect x="57.4" y="986.5" class="st3" width="147.4" height="147.4"/>
	<rect x="241.6" y="986.5" class="st3" width="147.4" height="147.4"/>
	<rect x="801.5" y="986.5" class="st3" width="147.4" height="147.4"/>
	<rect x="428.7" y="986.5" class="st3" width="147.4" height="147.4"/>
	<rect x="614.4" y="986.5" class="st3" width="147.4" height="147.4"/>
	<rect x="985.8" y="802.2" class="st3" width="147.4" height="147.4"/>
	<rect x="57.4" y="802.2" class="st3" width="147.4" height="147.4"/>
	<rect x="241.6" y="802.2" class="st3" width="147.4" height="147.4"/>
	<rect x="801.5" y="802.2" class="st3" width="147.4" height="147.4"/>
	<rect x="428.7" y="802.2" class="st3" width="147.4" height="147.4"/>
	<rect x="614.4" y="802.2" class="st3" width="147.4" height="147.4"/>
	<rect x="985.8" y="615.1" class="st3" width="147.4" height="147.4"/>
	<rect x="57.4" y="615.1" class="st3" width="147.4" height="147.4"/>
	<rect x="241.6" y="615.1" class="st3" width="147.4" height="147.4"/>
	<rect x="801.5" y="615.1" class="st3" width="147.4" height="147.4"/>
	<rect x="428.7" y="615.1" class="st3" width="147.4" height="147.4"/>
	<rect x="614.4" y="615.1" class="st3" width="147.4" height="147.4"/>
	<rect x="985.8" y="240.9" class="st3" width="147.4" height="147.4"/>
	<rect x="57.4" y="240.9" class="st3" width="147.4" height="147.4"/>
	<rect x="241.6" y="240.9" class="st3" width="147.4" height="147.4"/>
	<rect x="801.5" y="240.9" class="st3" width="147.4" height="147.4"/>
	<rect x="428.7" y="240.9" class="st3" width="147.4" height="147.4"/>
	<rect x="614.4" y="240.9" class="st3" width="147.4" height="147.4"/>
	<rect x="985.8" y="428" class="st3" width="147.4" height="147.4"/>
	<rect x="57.4" y="428" class="st3" width="147.4" height="147.4"/>
	<rect x="241.6" y="428" class="st3" width="147.4" height="147.4"/>
	<rect x="801.5" y="428" class="st3" width="147.4" height="147.4"/>
	<rect x="428.7" y="428" class="st3" width="147.4" height="147.4"/>
	<rect x="614.4" y="428" class="st3" width="147.4" height="147.4"/>
	<rect x="241.6" y="56.7" class="st3" width="147.4" height="147.4"/>
	<rect x="801.5" y="56.7" class="st3" width="147.4" height="147.4"/>
	<rect x="428.7" y="56.7" class="st3" width="147.4" height="147.4"/>
	<rect x="614.4" y="56.7" class="st3" width="147.4" height="147.4"/>
	<g>
		<defs>
			<rect id="SVGID_1_" x="57.4" y="335.9" width="239.5" height="239.5"/>
		</defs>
		<clipPath id="SVGID_2_">
			<use xlink:href="#SVGID_1_"  style="overflow:visible;"/>
		</clipPath>
		<g style="clip-path:url(#SVGID_2_);">
			
				<image style="overflow:visible;" width="1925" height="1204" xlink:href="889229_03.png"  transform="matrix(0.2695 0 0 0.2695 -82.205 285.3239)">
			</image>
		</g>
	</g>
</g>
<g id="Immagine_2">
	<g>
		<defs>
			<circle id="SVGID_3_" cx="967.3" cy="222.5" r="165.8"/>
		</defs>
		<clipPath id="SVGID_4_">
			<use xlink:href="#SVGID_3_"  style="overflow:visible;"/>
		</clipPath>
		<g style="clip-path:url(#SVGID_4_);">
			
				<image style="overflow:visible;" width="1024" height="504" xlink:href="889229_05.jpg"  transform="matrix(0.7198 0 0 0.7198 482 54.7211)">
			</image>
		</g>
	</g>
</g>
<g id="Scritte">
	<text transform="matrix(0.9024 0 0 1 57.4003 108.4876)" class="st4 st5">Giulia Dipinto</text>
	<rect x="57.4" y="802.2" class="st6" width="239.5" height="331.7"/>
	<text transform="matrix(1 0 0 1 57.4149 814.3597)"><tspan x="0" y="0" class="st7 st8">Lorem</tspan><tspan x="46.7" y="0" class="st7 st8"> </tspan><tspan x="51.2" y="0" class="st7 st8">ipsum</tspan><tspan x="95.3" y="0" class="st7 st8"> </tspan><tspan x="99.8" y="0" class="st7 st8">dolor</tspan><tspan x="137.9" y="0" class="st7 st8"> </tspan><tspan x="142.4" y="0" class="st7 st8">sit</tspan><tspan x="158.8" y="0" class="st7 st8"> </tspan><tspan x="163.3" y="0" class="st7 st8">amet,</tspan><tspan x="203.5" y="0" class="st7 st8"> </tspan><tspan x="207.9" y="0" class="st7 st8">con</tspan><tspan x="234.4" y="0" class="st7 st8">-</tspan><tspan x="0" y="24" class="st7 st8">sectetur</tspan><tspan x="59" y="24" class="st7 st8 st9"> </tspan><tspan x="68.9" y="24" class="st7 st8">adipiscing</tspan><tspan x="140.2" y="24" class="st7 st8 st9"> </tspan><tspan x="150.1" y="24" class="st7 st8">elit,</tspan><tspan x="174.9" y="24" class="st7 st8 st9"> </tspan><tspan x="184.9" y="24" class="st7 st8">sed</tspan><tspan x="210.7" y="24" class="st7 st8 st9"> </tspan><tspan x="220.6" y="24" class="st7 st8">do </tspan><tspan x="0" y="48" class="st7 st8">eiusmod</tspan><tspan x="62.3" y="48" class="st7 st8 st10"> </tspan><tspan x="74.9" y="48" class="st7 st8">tempor</tspan><tspan x="128.3" y="48" class="st7 st8 st10"> </tspan><tspan x="140.9" y="48" class="st7 st8">incididunt</tspan><tspan x="212.1" y="48" class="st7 st8 st10"> </tspan><tspan x="224.7" y="48" class="st7 st8">ut </tspan><tspan x="0" y="72" class="st7 st8">labore</tspan><tspan x="46" y="72" class="st7 st8"> </tspan><tspan x="50" y="72" class="st7 st8">et</tspan><tspan x="64.1" y="72" class="st7 st8"> </tspan><tspan x="68" y="72" class="st7 st8">dolore</tspan><tspan x="114.9" y="72" class="st7 st8"> </tspan><tspan x="118.9" y="72" class="st7 st8">magna</tspan><tspan x="167.8" y="72" class="st7 st8"> </tspan><tspan x="171.7" y="72" class="st7 st8">aliqua.</tspan><tspan x="218.7" y="72" class="st7 st8"> </tspan><tspan x="222.6" y="72" class="st7 st8">Ut </tspan><tspan x="0" y="96" class="st7 st8">enim</tspan><tspan x="36" y="96" class="st7 st8 st11"> </tspan><tspan x="42.2" y="96" class="st7 st8">ad</tspan><tspan x="60.2" y="96" class="st7 st8 st11"> </tspan><tspan x="66.5" y="96" class="st7 st8">minim</tspan><tspan x="111.4" y="96" class="st7 st8 st11"> </tspan><tspan x="117.7" y="96" class="st7 st8">veniam,</tspan><tspan x="172.9" y="96" class="st7 st8 st11"> </tspan><tspan x="179.2" y="96" class="st7 st8">quis</tspan><tspan x="209.3" y="96" class="st7 st8 st11"> </tspan><tspan x="215.5" y="96" class="st7 st8">no</tspan><tspan x="234.4" y="96" class="st7 st8">-</tspan><tspan x="0" y="120" class="st7 st8">strud</tspan><tspan x="38" y="120" class="st7 st8"> </tspan><tspan x="42.1" y="120" class="st7 st8">exercitation</tspan><tspan x="126.7" y="120" class="st7 st8"> </tspan><tspan x="130.8" y="120" class="st7 st8">ullamco</tspan><tspan x="187.1" y="120" class="st7 st8"> </tspan><tspan x="191.2" y="120" class="st7 st8">laboris </tspan><tspan x="0" y="144" class="st7 st8">nisi</tspan><tspan x="24.1" y="144" class="st7 st8 st12"> </tspan><tspan x="33.2" y="144" class="st7 st8">ut</tspan><tspan x="48" y="144" class="st7 st8 st12"> </tspan><tspan x="57" y="144" class="st7 st8">aliquip</tspan><tspan x="104.8" y="144" class="st7 st8 st12"> </tspan><tspan x="113.9" y="144" class="st7 st8">ex</tspan><tspan x="130.6" y="144" class="st7 st8 st12"> </tspan><tspan x="139.7" y="144" class="st7 st8">ea</tspan><tspan x="156.9" y="144" class="st7 st8 st12"> </tspan><tspan x="166" y="144" class="st7 st8">commodo </tspan><tspan x="0" y="168" class="st7 st8">consequat.</tspan><tspan x="79.3" y="168" class="st7 st8 st13"> </tspan><tspan x="85.2" y="168" class="st7 st8">Duis</tspan><tspan x="117.1" y="168" class="st7 st8 st13"> </tspan><tspan x="123" y="168" class="st7 st8">aute</tspan><tspan x="155.1" y="168" class="st7 st8 st13"> </tspan><tspan x="161.1" y="168" class="st7 st8">irure</tspan><tspan x="195.4" y="168" class="st7 st8 st13"> </tspan><tspan x="201.4" y="168" class="st7 st8">dolor </tspan><tspan x="0" y="192" class="st7 st8">in reprehenderit in voluptate velit </tspan><tspan x="0" y="216" class="st7 st8">esse</tspan><tspan x="32.5" y="216" class="st7 st8"> </tspan><tspan x="37.5" y="216" class="st7 st8">cillum</tspan><tspan x="79.5" y="216" class="st7 st8"> </tspan><tspan x="84.6" y="216" class="st7 st8">dolore</tspan><tspan x="131.5" y="216" class="st7 st8"> </tspan><tspan x="136.5" y="216" class="st7 st8">eu</tspan><tspan x="154.8" y="216" class="st7 st8"> </tspan><tspan x="159.8" y="216" class="st7 st8">fugiat</tspan><tspan x="199.9" y="216" class="st7 st8"> </tspan><tspan x="204.9" y="216" class="st7 st8">nulla </tspan><tspan x="0" y="240" class="st7 st8">pariatur.</tspan><tspan x="61.1" y="240" class="st7 st8 st13"> </tspan><tspan x="66.7" y="240" class="st7 st8">Excepteur</tspan><tspan x="139.2" y="240" class="st7 st8 st13"> </tspan><tspan x="144.8" y="240" class="st7 st8">sint</tspan><tspan x="170.7" y="240" class="st7 st8 st13"> </tspan><tspan x="176.2" y="240" class="st7 st8">occaecat </tspan><tspan x="0" y="264" class="st7 st8">cupidatat</tspan><tspan x="67.4" y="264" class="st7 st8 st12"> </tspan><tspan x="75.8" y="264" class="st7 st8">non</tspan><tspan x="104.1" y="264" class="st7 st8 st12"> </tspan><tspan x="112.6" y="264" class="st7 st8">proident,</tspan><tspan x="177.8" y="264" class="st7 st8 st12"> </tspan><tspan x="186.3" y="264" class="st7 st8">sunt</tspan><tspan x="218" y="264" class="st7 st8 st12"> </tspan><tspan x="226.4" y="264" class="st7 st8">in </tspan><tspan x="0" y="288" class="st7 st8">culpa</tspan><tspan x="38.7" y="288" class="st7 st8 st14"> </tspan><tspan x="46.5" y="288" class="st7 st8">qui</tspan><tspan x="69.1" y="288" class="st7 st8 st14"> </tspan><tspan x="76.9" y="288" class="st7 st8">officia</tspan><tspan x="119.2" y="288" class="st7 st8 st14"> </tspan><tspan x="127" y="288" class="st7 st8">deserunt</tspan><tspan x="192" y="288" class="st7 st8 st14"> </tspan><tspan x="199.8" y="288" class="st7 st8">mollit </tspan><tspan x="0" y="312" class="st7 st8">anim id est laborum.</tspan></text>
	<text transform="matrix(0.9617 0 0 1 1045.5427 383.967)" class="st15 st16">Lago di Braies, Bolzano.</text>
</g>
</svg>
