<svg xmlns="http://www.w3.org/2000/svg" xmlns:xlink="http://www.w3.org/1999/xlink" viewBox="0 0 1190.55 1190.55"><defs><style>.cls-1,.cls-3,.cls-4,.cls-5{fill:none;}.cls-2{fill:#81adcd;}.cls-3{stroke:#009640;}.cls-3,.cls-4,.cls-5{stroke-miterlimit:10;}.cls-4{stroke:#e5087e;}.cls-5{stroke:#ffed00;}.cls-6{clip-path:url(#clip-path);}.cls-7{clip-path:url(#clip-path-2);}.cls-8{clip-path:url(#clip-path-3);}.cls-9{font-size:60px;font-family:OpenSansCondensed-Bold, Open Sans Condensed;font-weight:700;}.cls-10{font-size:16px;}.cls-10,.cls-46{font-family:OpenSans-Light, Open Sans;}.cls-11{letter-spacing:0.58em;}.cls-12{letter-spacing:0.58em;}.cls-13{letter-spacing:0.23em;}.cls-14{letter-spacing:0.49em;}.cls-15{letter-spacing:0.49em;}.cls-16{letter-spacing:-0.03em;}.cls-17{letter-spacing:-0.03em;}.cls-18{letter-spacing:0.49em;}.cls-19{letter-spacing:0.49em;}.cls-20{letter-spacing:0.61em;}.cls-21{letter-spacing:0.61em;}.cls-22{letter-spacing:-0.03em;}.cls-23{letter-spacing:0.08em;}.cls-24{letter-spacing:0.08em;}.cls-25{letter-spacing:0.53em;}.cls-26{letter-spacing:0.53em;}.cls-27{letter-spacing:0.39em;}.cls-28{letter-spacing:0.39em;}.cls-29{letter-spacing:0.22em;}.cls-30{letter-spacing:0.22em;}.cls-31{letter-spacing:0.69em;}.cls-32{letter-spacing:0.69em;}.cls-33{letter-spacing:0.08em;}.cls-34{letter-spacing:0.08em;}.cls-35{letter-spacing:0.24em;}.cls-36{letter-spacing:0.24em;}.cls-37{letter-spacing:1.16em;}.cls-38{letter-spacing:0.42em;}.cls-39{letter-spacing:0.42em;}.cls-40{letter-spacing:0em;}.cls-41{letter-spacing:0em;}.cls-42,.cls-46{font-size:10px;}.cls-42{font-family:EBGaramond-Italic, EB Garamond;font-style:italic;}.cls-43{letter-spacing:-0.04em;}.cls-44{letter-spacing:-0.02em;}.cls-45{letter-spacing:-0.02em;}.cls-47{letter-spacing:0.02em;}.cls-48{letter-spacing:0.19em;}.cls-49{letter-spacing:0em;}.cls-50{letter-spacing:0em;}.cls-51{letter-spacing:0.04em;}.cls-52{letter-spacing:0.26em;}.cls-53{letter-spacing:0.26em;}.cls-54{letter-spacing:0.32em;}.cls-55{letter-spacing:0em;}.cls-56{letter-spacing:0.32em;}.cls-57{letter-spacing:0.38em;}.cls-58{letter-spacing:0.38em;}.cls-59{letter-spacing:0.33em;}.cls-60{letter-spacing:0.33em;}.cls-61{letter-spacing:0em;}.cls-62{letter-spacing:0.13em;}.cls-63{letter-spacing:0.34em;}.cls-64{letter-spacing:0.17em;}.cls-65{letter-spacing:0.17em;}</style><clipPath id="clip-path"><rect class="cls-1" x="60.94" y="337.32" width="239.53" height="239.53"/></clipPath><clipPath id="clip-path-2"><rect class="cls-1" x="-43.58" y="316.81" width="448.56" height="280.55"/></clipPath><clipPath id="clip-path-3"><circle class="cls-1" cx="963.79" cy="226.76" r="165.83"/></clipPath></defs><title>889229_07</title><g id="Sfondo"><rect class="cls-2" width="1190.55" height="1190.55"/></g><g id="Griglia_verde" data-name="Griglia verde"><rect class="cls-3" x="60.94" y="60.94" width="239.53" height="239.53"/><rect class="cls-3" x="337.32" y="60.94" width="239.53" height="239.53"/><rect class="cls-3" x="613.7" y="60.94" width="239.53" height="239.53"/><rect class="cls-3" x="890.08" y="60.94" width="239.53" height="239.53"/><rect class="cls-3" x="337.32" y="337.32" width="239.53" height="239.53"/><rect class="cls-3" x="613.7" y="337.32" width="239.53" height="239.53"/><rect class="cls-3" x="890.08" y="337.32" width="239.53" height="239.53"/><rect class="cls-3" x="60.94" y="613.7" width="239.53" height="239.53"/><rect class="cls-3" x="337.32" y="613.7" width="239.53" height="239.53"/><rect class="cls-3" x="613.7" y="613.7" width="239.53" height="239.53"/><rect class="cls-3" x="890.08" y="613.7" width="239.53" height="239.53"/><rect class="cls-3" x="60.94" y="890.08" width="239.53" height="239.53"/><rect class="cls-3" x="337.32" y="890.08" width="239.53" height="239.53"/><rect class="cls-3" x="613.7" y="890.08" width="239.53" height="239.53"/><rect class="cls-3" x="890.08" y="890.08" width="239.53" height="239.53"/></g><g id="Griglia_rosa" data-name="Griglia rosa"><rect class="cls-4" x="60.94" y="60.94" width="184.25" height="184.25"/><rect class="cls-4" x="945.36" y="60.94" width="184.25" height="184.25"/><rect class="cls-4" x="503.15" y="60.94" width="184.25" height="184.25"/><rect class="cls-4" x="724.26" y="60.94" width="184.25" height="184.25"/><rect class="cls-4" x="282.04" y="60.94" width="184.25" height="184.25"/><rect class="cls-4" x="60.94" y="945.36" width="184.25" height="184.25"/><rect class="cls-4" x="945.36" y="945.36" width="184.25" height="184.25"/><rect class="cls-4" x="503.15" y="945.36" width="184.25" height="184.25"/><rect class="cls-4" x="724.26" y="945.36" width="184.25" height="184.25"/><rect class="cls-4" x="282.04" y="945.36" width="184.25" height="184.25"/><rect class="cls-4" x="60.94" y="503.15" width="184.25" height="184.25"/><rect class="cls-4" x="945.36" y="503.15" width="184.25" height="184.25"/><rect class="cls-4" x="503.15" y="503.15" width="184.25" height="184.25"/><rect class="cls-4" x="724.26" y="503.15" width="184.25" height="184.25"/><rect class="cls-4" x="282.04" y="503.15" width="184.25" height="184.25"/><rect class="cls-4" x="60.94" y="724.26" width="184.25" height="184.25"/><rect class="cls-4" x="945.36" y="724.26" width="184.25" height="184.25"/><rect class="cls-4" x="503.15" y="724.26" width="184.25" height="184.25"/><rect class="cls-4" x="724.26" y="724.26" width="184.25" height="184.25"/><rect class="cls-4" x="282.04" y="724.26" width="184.25" height="184.25"/><rect class="cls-4" x="60.94" y="282.04" width="184.25" height="184.25"/><rect class="cls-4" x="945.36" y="282.04" width="184.25" height="184.25"/><rect class="cls-4" x="503.15" y="282.04" width="184.25" height="184.25"/><rect class="cls-4" x="724.26" y="282.04" width="184.25" height="184.25"/><rect class="cls-4" x="282.04" y="282.04" width="184.25" height="184.25"/></g><g id="Griglia_gialla" data-name="Griglia gialla"><rect class="cls-5" x="60.94" y="60.94" width="147.4" height="147.4"/><rect class="cls-5" x="982.21" y="60.94" width="147.4" height="147.4"/><rect class="cls-5" x="245.19" y="60.94" width="147.4" height="147.4"/><rect class="cls-5" x="797.96" y="60.94" width="147.4" height="147.4"/><rect class="cls-5" x="613.7" y="60.94" width="147.4" height="147.4"/><rect class="cls-5" x="429.45" y="60.94" width="147.4" height="147.4"/><rect class="cls-5" x="60.94" y="982.21" width="147.4" height="147.4"/><rect class="cls-5" x="982.21" y="982.21" width="147.4" height="147.4"/><rect class="cls-5" x="245.19" y="982.21" width="147.4" height="147.4"/><rect class="cls-5" x="797.96" y="982.21" width="147.4" height="147.4"/><rect class="cls-5" x="613.7" y="982.21" width="147.4" height="147.4"/><rect class="cls-5" x="429.45" y="982.21" width="147.4" height="147.4"/><rect class="cls-5" x="60.94" y="245.19" width="147.4" height="147.4"/><rect class="cls-5" x="982.21" y="245.19" width="147.4" height="147.4"/><rect class="cls-5" x="245.19" y="245.19" width="147.4" height="147.4"/><rect class="cls-5" x="797.96" y="245.19" width="147.4" height="147.4"/><rect class="cls-5" x="613.7" y="245.19" width="147.4" height="147.4"/><rect class="cls-5" x="429.45" y="245.19" width="147.4" height="147.4"/><rect class="cls-5" x="60.94" y="797.96" width="147.4" height="147.4"/><rect class="cls-5" x="982.21" y="797.96" width="147.4" height="147.4"/><rect class="cls-5" x="245.19" y="797.96" width="147.4" height="147.4"/><rect class="cls-5" x="797.96" y="797.96" width="147.4" height="147.4"/><rect class="cls-5" x="613.7" y="797.96" width="147.4" height="147.4"/><rect class="cls-5" x="429.45" y="797.96" width="147.4" height="147.4"/><rect class="cls-5" x="60.94" y="429.45" width="147.4" height="147.4"/><rect class="cls-5" x="982.21" y="429.45" width="147.4" height="147.4"/><rect class="cls-5" x="245.19" y="429.45" width="147.4" height="147.4"/><rect class="cls-5" x="797.96" y="429.45" width="147.4" height="147.4"/><rect class="cls-5" x="613.7" y="429.45" width="147.4" height="147.4"/><rect class="cls-5" x="429.45" y="429.45" width="147.4" height="147.4"/><rect class="cls-5" x="60.94" y="613.7" width="147.4" height="147.4"/><rect class="cls-5" x="982.21" y="613.7" width="147.4" height="147.4"/><rect class="cls-5" x="245.19" y="613.7" width="147.4" height="147.4"/><rect class="cls-5" x="797.96" y="613.7" width="147.4" height="147.4"/><rect class="cls-5" x="613.7" y="613.7" width="147.4" height="147.4"/><rect class="cls-5" x="429.45" y="613.7" width="147.4" height="147.4"/></g><g id="Immagine_2" data-name="Immagine 2"><g class="cls-6"><g class="cls-7"><image width="1925" height="1204" transform="translate(-43.58 316.81) scale(0.23)" xlink:href="889229_03.png"/></g></g></g><g id="Immagine_cerchio" data-name="Immagine cerchio"><g class="cls-8"><image width="1024" height="504" transform="translate(544.02 60.94) scale(0.66)" xlink:href="889229_05.jpg"/></g></g><g id="Testi"><text class="cls-9" transform="translate(60.94 111.64)">Giulia Dipinto</text><text class="cls-10" transform="translate(60.94 736.42)">Lorem<tspan class="cls-11" x="46.72" y="0"> </tspan><tspan x="60.2" y="0">ipsum</tspan><tspan class="cls-11" x="104.36" y="0"> </tspan><tspan x="117.84" y="0">dolor</tspan><tspan class="cls-12" x="155.96" y="0"> </tspan><tspan x="169.44" y="0">sit</tspan><tspan class="cls-11" x="185.87" y="0"> </tspan><tspan x="199.35" y="0">amet, </tspan><tspan x="0" y="24">consectetuer</tspan><tspan class="cls-13" x="94.2" y="24"> </tspan><tspan x="102.04" y="24">adipiscing</tspan><tspan class="cls-13" x="173.27" y="24"> </tspan><tspan x="181.12" y="24">elit,</tspan><tspan class="cls-13" x="205.93" y="24"> </tspan><tspan x="213.77" y="24">sed </tspan><tspan x="0" y="48">diam</tspan><tspan class="cls-14" x="35.74" y="48"> </tspan><tspan x="47.8" y="48">nonummy</tspan><tspan class="cls-15" x="121.08" y="48"> </tspan><tspan x="133.14" y="48">nibh</tspan><tspan class="cls-14" x="165.16" y="48"> </tspan><tspan x="177.22" y="48">euismod </tspan><tspan x="0" y="72">tincidunt</tspan><tspan class="cls-16" x="63.39" y="72"> </tspan><tspan x="67.13" y="72">ut</tspan><tspan class="cls-16" x="81.92" y="72"> </tspan><tspan x="85.66" y="72">laoreet</tspan><tspan class="cls-17" x="136.28" y="72"> </tspan><tspan x="140.01" y="72">dolore</tspan><tspan class="cls-16" x="186.91" y="72"> </tspan><tspan x="190.65" y="72">magna </tspan><tspan x="0" y="96">aliquam</tspan><tspan class="cls-18" x="57.27" y="96"> </tspan><tspan x="69.27" y="96">erat</tspan><tspan class="cls-18" x="98.11" y="96"> </tspan><tspan x="110.11" y="96">volutpat.</tspan><tspan class="cls-19" x="172.41" y="96"> </tspan><tspan x="184.41" y="96">Ut</tspan><tspan class="cls-18" x="201.27" y="96"> </tspan><tspan x="213.27" y="96">wisi </tspan><tspan x="0" y="120">enim</tspan><tspan class="cls-20" x="35.96" y="120"> </tspan><tspan x="49.81" y="120">ad</tspan><tspan class="cls-20" x="67.81" y="120"> </tspan><tspan x="81.66" y="120">minim</tspan><tspan class="cls-21" x="126.58" y="120"> </tspan><tspan x="140.43" y="120">veniam,</tspan><tspan class="cls-20" x="195.65" y="120"> </tspan><tspan x="209.5" y="120">quis </tspan><tspan x="0" y="144">nostrud</tspan><tspan class="cls-22" x="56.81" y="144"> </tspan><tspan x="60.52" y="144">exerci</tspan><tspan class="cls-22" x="103.49" y="144"> </tspan><tspan x="107.19" y="144">tation</tspan><tspan class="cls-22" x="148.82" y="144"> </tspan><tspan x="152.52" y="144">ullamcorper </tspan><tspan x="0" y="168">suscipit</tspan><tspan class="cls-23" x="54.06" y="168"> </tspan><tspan x="59.55" y="168">lobortis</tspan><tspan class="cls-23" x="114.1" y="168"> </tspan><tspan x="119.58" y="168">nisl</tspan><tspan class="cls-24" x="143.71" y="168"> </tspan><tspan x="149.2" y="168">ut</tspan><tspan class="cls-23" x="163.99" y="168"> </tspan><tspan x="169.48" y="168">aliquip</tspan><tspan class="cls-23" x="217.29" y="168"> </tspan><tspan x="222.78" y="168">ex </tspan><tspan x="0" y="192">ea</tspan><tspan class="cls-25" x="17.26" y="192"> </tspan><tspan x="29.83" y="192">commodo</tspan><tspan class="cls-26" x="103.33" y="192"> </tspan><tspan x="115.9" y="192">consequat.</tspan><tspan class="cls-25" x="195.15" y="192"> </tspan><tspan x="207.73" y="192">Duis </tspan><tspan x="0" y="216">autem</tspan><tspan class="cls-27" x="46.18" y="216"> </tspan><tspan x="56.62" y="216">vel</tspan><tspan class="cls-28" x="76.36" y="216"> </tspan><tspan x="86.8" y="216">eum</tspan><tspan class="cls-27" x="119.14" y="216"> </tspan><tspan x="129.58" y="216">iriure</tspan><tspan class="cls-28" x="167.48" y="216"> </tspan><tspan x="177.92" y="216">dolor</tspan><tspan class="cls-27" x="216.04" y="216"> </tspan><tspan x="226.48" y="216">in </tspan><tspan x="0" y="240">hendrerit</tspan><tspan class="cls-29" x="67.39" y="240"> </tspan><tspan x="75.03" y="240">in</tspan><tspan class="cls-29" x="88.09" y="240"> </tspan><tspan x="95.73" y="240">vulputate</tspan><tspan class="cls-30" x="163.06" y="240"> </tspan><tspan x="170.7" y="240">velit</tspan><tspan class="cls-29" x="199.42" y="240"> </tspan><tspan x="207.06" y="240">esse </tspan><tspan x="0" y="264">molestie</tspan><tspan class="cls-31" x="61.11" y="264"> </tspan><tspan x="76.24" y="264">consequat,</tspan><tspan class="cls-32" x="155.12" y="264"> </tspan><tspan x="170.25" y="264">vel</tspan><tspan class="cls-31" x="189.99" y="264"> </tspan><tspan x="205.12" y="264">illum </tspan><tspan x="0" y="288">dolore</tspan><tspan class="cls-33" x="46.9" y="288"> </tspan><tspan x="52.28" y="288">eu</tspan><tspan class="cls-33" x="70.5" y="288"> </tspan><tspan x="75.88" y="288">feugiat</tspan><tspan class="cls-34" x="124.71" y="288"> </tspan><tspan x="130.1" y="288">nulla</tspan><tspan class="cls-33" x="164.68" y="288"> </tspan><tspan x="170.06" y="288">facilisis</tspan><tspan class="cls-33" x="220.31" y="288"> </tspan><tspan x="225.69" y="288">at </tspan><tspan x="0" y="312">vero</tspan><tspan class="cls-35" x="31.73" y="312"> </tspan><tspan x="39.69" y="312">eros</tspan><tspan class="cls-35" x="71.53" y="312"> </tspan><tspan x="79.5" y="312">et</tspan><tspan class="cls-36" x="93.64" y="312"> </tspan><tspan x="101.6" y="312">accumsan</tspan><tspan class="cls-35" x="174.21" y="312"> </tspan><tspan x="182.18" y="312">et</tspan><tspan class="cls-35" x="196.32" y="312"> </tspan><tspan x="204.29" y="312">iusto </tspan><tspan x="0" y="336">odio</tspan><tspan class="cls-37" x="31.89" y="336"> </tspan><tspan x="54.66" y="336">dignissim</tspan><tspan class="cls-37" x="121.87" y="336"> </tspan><tspan x="144.63" y="336">qui</tspan><tspan class="cls-37" x="167.21" y="336"> </tspan><tspan x="189.98" y="336">blandit </tspan><tspan x="0" y="360">praesent</tspan><tspan class="cls-38" x="64.04" y="360"> </tspan><tspan x="74.98" y="360">luptatum</tspan><tspan class="cls-39" x="140.32" y="360"> </tspan><tspan x="151.26" y="360">zzril</tspan><tspan class="cls-38" x="179.47" y="360"> </tspan><tspan x="190.41" y="360">delenit </tspan><tspan x="0" y="384">augue</tspan><tspan class="cls-40" x="44.5" y="384"> </tspan><tspan x="48.61" y="384">duis</tspan><tspan class="cls-40" x="78.64" y="384"> </tspan><tspan x="82.75" y="384">dolore</tspan><tspan class="cls-41" x="129.64" y="384"> </tspan><tspan x="133.75" y="384">te</tspan><tspan class="cls-40" x="147.89" y="384"> </tspan><tspan x="152" y="384">feugait</tspan><tspan class="cls-40" x="200.84" y="384"> </tspan><tspan x="204.94" y="384">nulla </tspan></text><text class="cls-42" transform="translate(1040.45 389.18) scale(0.99 1)">Lago di B<tspan class="cls-43" x="36.51" y="0">r</tspan><tspan class="cls-44" x="39.9" y="0">ai</tspan><tspan x="47.35" y="0">es, B</tspan><tspan class="cls-45" x="63.39" y="0">o</tspan><tspan x="66.99" y="0">lz</tspan><tspan class="cls-45" x="73.92" y="0">a</tspan><tspan x="78.63" y="0">no </tspan></text></g><g id="Livello_9" data-name="Livello 9"><text class="cls-46" transform="translate(554.34 289.64)"><tspan class="cls-47">Lore</tspan><tspan x="21.21" y="0">m </tspan><tspan x="-66.77" y="24">ipsum</tspan><tspan class="cls-48" x="-39.18" y="24"> </tspan><tspan x="-34.7" y="24">dolor</tspan><tspan class="cls-48" x="-10.88" y="24"> </tspan><tspan x="-6.4" y="24">sit</tspan><tspan class="cls-48" x="3.87" y="24"> </tspan><tspan x="8.35" y="24">amet,</tspan><tspan class="cls-48" x="33.46" y="24"> </tspan><tspan x="37.93" y="24">consectetuer </tspan><tspan x="-94.51" y="48">adipiscing</tspan><tspan class="cls-49" x="-49.99" y="48"> </tspan><tspan x="-47.35" y="48">elit,</tspan><tspan class="cls-50" x="-31.84" y="48"> </tspan><tspan x="-29.2" y="48">sed</tspan><tspan class="cls-49" x="-13.11" y="48"> </tspan><tspan x="-10.47" y="48">diam</tspan><tspan class="cls-49" x="11.87" y="48"> </tspan><tspan x="14.51" y="48">nonummy</tspan><tspan class="cls-50" x="60.31" y="48"> </tspan><tspan x="62.95" y="48">nibh</tspan><tspan class="cls-49" x="82.96" y="48"> </tspan><tspan x="85.6" y="48">euismod </tspan><tspan x="-112.11" y="72">tincidunt</tspan><tspan class="cls-51" x="-72.5" y="72"> </tspan><tspan x="-69.48" y="72">ut</tspan><tspan class="cls-51" x="-60.23" y="72"> </tspan><tspan x="-57.21" y="72">laoreet</tspan><tspan class="cls-51" x="-25.57" y="72"> </tspan><tspan x="-22.55" y="72">dolore</tspan><tspan class="cls-51" x="6.76" y="72"> </tspan><tspan x="9.78" y="72">magna</tspan><tspan class="cls-51" x="40.33" y="72"> </tspan><tspan x="43.35" y="72">aliquam</tspan><tspan class="cls-51" x="79.15" y="72"> </tspan><tspan x="82.17" y="72">erat</tspan><tspan class="cls-51" x="100.19" y="72"> </tspan><tspan x="103.21" y="72">volutpat. </tspan><tspan x="-123.45" y="96">Ut</tspan><tspan class="cls-52" x="-112.91" y="96"> </tspan><tspan x="-107.74" y="96">wisi</tspan><tspan class="cls-52" x="-91.33" y="96"> </tspan><tspan x="-86.16" y="96">enim</tspan><tspan class="cls-52" x="-63.69" y="96"> </tspan><tspan x="-58.52" y="96">ad</tspan><tspan class="cls-52" x="-47.27" y="96"> </tspan><tspan x="-42.1" y="96">minim</tspan><tspan class="cls-53" x="-14.02" y="96"> </tspan><tspan x="-8.85" y="96">veniam,</tspan><tspan class="cls-52" x="25.66" y="96"> </tspan><tspan x="30.83" y="96">quis</tspan><tspan class="cls-52" x="49.6" y="96"> </tspan><tspan x="54.77" y="96">nostrud</tspan><tspan class="cls-52" x="90.27" y="96"> </tspan><tspan x="95.44" y="96">exerci</tspan><tspan class="cls-52" x="122.3" y="96"> </tspan><tspan x="127.47" y="96">tation </tspan><tspan x="-129.98" y="120">ullamcorper</tspan><tspan class="cls-54" x="-75.6" y="120"> </tspan><tspan x="-69.81" y="120">suscipit</tspan><tspan class="cls-54" x="-36.02" y="120"> </tspan><tspan class="cls-55" x="-30.23" y="120">lobortis</tspan><tspan class="cls-56" x="3.86" y="120"> </tspan><tspan x="9.65" y="120">nisl</tspan><tspan class="cls-54" x="24.73" y="120"> </tspan><tspan x="30.52" y="120">ut</tspan><tspan class="cls-54" x="39.77" y="120"> </tspan><tspan x="45.56" y="120">aliquip</tspan><tspan class="cls-56" x="75.45" y="120"> </tspan><tspan x="81.24" y="120">ex</tspan><tspan class="cls-54" x="91.71" y="120"> </tspan><tspan x="97.5" y="120">ea</tspan><tspan class="cls-54" x="108.29" y="120"> </tspan><tspan x="114.08" y="120">commodo </tspan><tspan x="-132.33" y="144">consequat.</tspan><tspan class="cls-57" x="-82.8" y="144"> </tspan><tspan x="-76.36" y="144">Duis</tspan><tspan class="cls-57" x="-56.48" y="144"> </tspan><tspan x="-50.05" y="144">autem</tspan><tspan class="cls-57" x="-21.19" y="144"> </tspan><tspan x="-14.75" y="144">vel</tspan><tspan class="cls-57" x="-2.41" y="144"> </tspan><tspan x="4.02" y="144">eum</tspan><tspan class="cls-58" x="24.24" y="144"> </tspan><tspan x="30.67" y="144">iriure</tspan><tspan class="cls-57" x="54.36" y="144"> </tspan><tspan x="60.8" y="144">dolor</tspan><tspan class="cls-57" x="84.62" y="144"> </tspan><tspan x="91.05" y="144">in</tspan><tspan class="cls-57" x="99.21" y="144"> </tspan><tspan x="105.65" y="144">hendrerit</tspan><tspan class="cls-57" x="147.77" y="144"> </tspan><tspan x="154.2" y="144">in </tspan><tspan x="-129.69" y="168">vulputate</tspan><tspan class="cls-59" x="-87.61" y="168"> </tspan><tspan x="-81.73" y="168">velit</tspan><tspan class="cls-60" x="-63.78" y="168"> </tspan><tspan x="-57.9" y="168">esse</tspan><tspan class="cls-59" x="-37.6" y="168"> </tspan><tspan x="-31.72" y="168">molestie</tspan><tspan class="cls-59" x="6.47" y="168"> </tspan><tspan class="cls-61" x="12.35" y="168">consequat,</tspan><tspan class="cls-59" x="61.65" y="168"> </tspan><tspan x="67.54" y="168">vel</tspan><tspan class="cls-59" x="79.88" y="168"> </tspan><tspan x="85.76" y="168">illum</tspan><tspan class="cls-60" x="107.27" y="168"> </tspan><tspan x="113.15" y="168">dolore</tspan><tspan class="cls-59" x="142.46" y="168"> </tspan><tspan x="148.34" y="168">eu </tspan><tspan x="-122.88" y="192">feugiat</tspan><tspan class="cls-62" x="-92.36" y="192"> </tspan><tspan x="-88.47" y="192">nulla</tspan><tspan class="cls-62" x="-66.85" y="192"> </tspan><tspan x="-62.97" y="192">facilisis</tspan><tspan class="cls-62" x="-31.56" y="192"> </tspan><tspan x="-27.68" y="192">at</tspan><tspan class="cls-62" x="-19.03" y="192"> </tspan><tspan x="-15.14" y="192">vero</tspan><tspan class="cls-62" x="4.69" y="192"> </tspan><tspan x="8.57" y="192">eros</tspan><tspan class="cls-62" x="28.47" y="192"> </tspan><tspan x="32.35" y="192">et</tspan><tspan class="cls-62" x="41.19" y="192"> </tspan><tspan x="45.08" y="192">accumsan</tspan><tspan class="cls-62" x="90.46" y="192"> </tspan><tspan x="94.34" y="192">et</tspan><tspan class="cls-62" x="103.18" y="192"> </tspan><tspan x="107.07" y="192">iusto</tspan><tspan class="cls-62" x="129.09" y="192"> </tspan><tspan x="132.98" y="192">odio </tspan><tspan x="-111.19" y="216">dignissim</tspan><tspan class="cls-63" x="-69.19" y="216"> </tspan><tspan x="-63.16" y="216">qui</tspan><tspan class="cls-63" x="-49.05" y="216"> </tspan><tspan x="-43.03" y="216">blandit</tspan><tspan class="cls-63" x="-12.06" y="216"> </tspan><tspan class="cls-61" x="-6.03" y="216">praesent</tspan><tspan class="cls-63" x="33.99" y="216"> </tspan><tspan x="40.01" y="216">luptatum</tspan><tspan class="cls-63" x="80.85" y="216"> </tspan><tspan x="86.87" y="216">zzril</tspan><tspan class="cls-63" x="104.5" y="216"> </tspan><tspan x="110.53" y="216">delenit </tspan><tspan x="-93.1" y="240">augue duis dolore te feugait nulla facilisi.</tspan><tspan x="-64.41" y="264">Lorem</tspan><tspan class="cls-64" x="-35.21" y="264"> </tspan><tspan x="-30.88" y="264">ipsum</tspan><tspan class="cls-64" x="-3.28" y="264"> </tspan><tspan x="1.06" y="264">dolor</tspan><tspan class="cls-65" x="24.88" y="264"> </tspan><tspan x="29.22" y="264">sit</tspan><tspan class="cls-64" x="39.49" y="264"> </tspan><tspan x="43.83" y="264">amet,</tspan><tspan class="cls-64" x="68.94" y="264"> </tspan><tspan x="73.28" y="264">cons </tspan></text></g></svg>