<svg xmlns="http://www.w3.org/2000/svg" xmlns:xlink="http://www.w3.org/1999/xlink" viewBox="0 0 1190.55 1190.55"><defs><style>.cls-1,.cls-3,.cls-4,.cls-5{fill:none;}.cls-2{fill:#81adcd;}.cls-3{stroke:#009640;}.cls-3,.cls-4,.cls-5{stroke-miterlimit:10;}.cls-4{stroke:#e6007e;}.cls-5{stroke:#ffed00;}.cls-6{clip-path:url(#clip-path);}</style><clipPath id="clip-path"><rect class="cls-1" x="57.4" y="335.91" width="239.53" height="239.53"/></clipPath></defs><title>889229_04b</title><g id="Sfondo"><rect class="cls-2" width="1190.55" height="1190.55"/></g><g id="Griglia_verde" data-name="Griglia verde"><rect class="cls-3" x="57.4" y="56.69" width="239.53" height="239.53"/><rect class="cls-3" x="336.61" y="56.69" width="239.53" height="239.53"/><rect class="cls-3" x="336.61" y="335.91" width="239.53" height="239.53"/><rect class="cls-3" x="614.41" y="56.69" width="239.53" height="239.53"/><rect class="cls-3" x="614.41" y="335.91" width="239.53" height="239.53"/><rect class="cls-3" x="893.62" y="56.69" width="239.53" height="239.53"/><rect class="cls-3" x="893.62" y="335.91" width="239.53" height="239.53"/><rect class="cls-3" x="57.4" y="615.12" width="239.53" height="239.53"/><rect class="cls-3" x="57.4" y="894.33" width="239.53" height="239.53"/><rect class="cls-3" x="336.61" y="615.12" width="239.53" height="239.53"/><rect class="cls-3" x="336.61" y="894.33" width="239.53" height="239.53"/><rect class="cls-3" x="614.41" y="615.12" width="239.53" height="239.53"/><rect class="cls-3" x="614.41" y="894.33" width="239.53" height="239.53"/><rect class="cls-3" x="893.62" y="615.12" width="239.53" height="239.53"/><rect class="cls-3" x="893.62" y="894.33" width="239.53" height="239.53"/><rect class="cls-4" x="503.15" y="503.15" width="184.25" height="184.25"/><rect class="cls-4" x="734.17" y="503.15" width="184.25" height="184.25"/><rect class="cls-4" x="948.9" y="503.15" width="184.25" height="184.25"/><rect class="cls-4" x="57.4" y="503.15" width="184.25" height="184.25"/><rect class="cls-4" x="272.13" y="503.15" width="184.25" height="184.25"/><rect class="cls-4" x="503.15" y="271.42" width="184.25" height="184.25"/><rect class="cls-4" x="734.17" y="271.42" width="184.25" height="184.25"/><rect class="cls-4" x="948.9" y="271.42" width="184.25" height="184.25"/><rect class="cls-4" x="57.4" y="271.42" width="184.25" height="184.25"/><rect class="cls-4" x="272.13" y="271.42" width="184.25" height="184.25"/><rect class="cls-4" x="503.15" y="56.69" width="184.25" height="184.25"/><rect class="cls-4" x="734.17" y="56.69" width="184.25" height="184.25"/><rect class="cls-4" x="948.9" y="56.69" width="184.25" height="184.25"/><rect class="cls-4" x="57.4" y="56.69" width="184.25" height="184.25"/><rect class="cls-4" x="272.13" y="56.69" width="184.25" height="184.25"/><rect class="cls-4" x="503.15" y="949.61" width="184.25" height="184.25"/><rect class="cls-4" x="734.17" y="949.61" width="184.25" height="184.25"/><rect class="cls-4" x="948.9" y="949.61" width="184.25" height="184.25"/><rect class="cls-4" x="57.4" y="949.61" width="184.25" height="184.25"/><rect class="cls-4" x="272.13" y="949.61" width="184.25" height="184.25"/><rect class="cls-4" x="503.15" y="726.38" width="184.25" height="184.25"/><rect class="cls-4" x="734.17" y="726.38" width="184.25" height="184.25"/><rect class="cls-4" x="948.9" y="726.38" width="184.25" height="184.25"/><rect class="cls-4" x="57.4" y="726.38" width="184.25" height="184.25"/><rect class="cls-4" x="272.13" y="726.38" width="184.25" height="184.25"/><rect class="cls-5" x="57.4" y="56.69" width="147.4" height="147.4"/><rect class="cls-5" x="985.75" y="56.69" width="147.4" height="147.4"/><rect class="cls-5" x="985.75" y="986.46" width="147.4" height="147.4"/><rect class="cls-5" x="57.4" y="986.46" width="147.4" height="147.4"/><rect class="cls-5" x="241.65" y="986.46" width="147.4" height="147.4"/><rect class="cls-5" x="801.5" y="986.46" width="147.4" height="147.4"/><rect class="cls-5" x="428.74" y="986.46" width="147.4" height="147.4"/><rect class="cls-5" x="614.41" y="986.46" width="147.4" height="147.4"/><rect class="cls-5" x="985.75" y="802.2" width="147.4" height="147.4"/><rect class="cls-5" x="57.4" y="802.2" width="147.4" height="147.4"/><rect class="cls-5" x="241.65" y="802.2" width="147.4" height="147.4"/><rect class="cls-5" x="801.5" y="802.2" width="147.4" height="147.4"/><rect class="cls-5" x="428.74" y="802.2" width="147.4" height="147.4"/><rect class="cls-5" x="614.41" y="802.2" width="147.4" height="147.4"/><rect class="cls-5" x="985.75" y="615.12" width="147.4" height="147.4"/><rect class="cls-5" x="57.4" y="615.12" width="147.4" height="147.4"/><rect class="cls-5" x="241.65" y="615.12" width="147.4" height="147.4"/><rect class="cls-5" x="801.5" y="615.12" width="147.4" height="147.4"/><rect class="cls-5" x="428.74" y="615.12" width="147.4" height="147.4"/><rect class="cls-5" x="614.41" y="615.12" width="147.4" height="147.4"/><rect class="cls-5" x="985.75" y="240.94" width="147.4" height="147.4"/><rect class="cls-5" x="57.4" y="240.94" width="147.4" height="147.4"/><rect class="cls-5" x="241.65" y="240.94" width="147.4" height="147.4"/><rect class="cls-5" x="801.5" y="240.94" width="147.4" height="147.4"/><rect class="cls-5" x="428.74" y="240.94" width="147.4" height="147.4"/><rect class="cls-5" x="614.41" y="240.94" width="147.4" height="147.4"/><rect class="cls-5" x="985.75" y="428.03" width="147.4" height="147.4"/><rect class="cls-5" x="57.4" y="428.03" width="147.4" height="147.4"/><rect class="cls-5" x="241.65" y="428.03" width="147.4" height="147.4"/><rect class="cls-5" x="801.5" y="428.03" width="147.4" height="147.4"/><rect class="cls-5" x="428.74" y="428.03" width="147.4" height="147.4"/><rect class="cls-5" x="614.41" y="428.03" width="147.4" height="147.4"/><rect class="cls-5" x="241.65" y="56.69" width="147.4" height="147.4"/><rect class="cls-5" x="801.5" y="56.69" width="147.4" height="147.4"/><rect class="cls-5" x="428.74" y="56.69" width="147.4" height="147.4"/><rect class="cls-5" x="614.41" y="56.69" width="147.4" height="147.4"/><g class="cls-6"><image width="1925" height="1204" transform="translate(-82.21 285.32) scale(0.27)" xlink:href="889229_03.png"/></g></g></svg>