<svg xmlns="http://www.w3.org/2000/svg" xmlns:xlink="http://www.w3.org/1999/xlink" viewBox="0 0 1190.55 1190.55"><defs><style>.cls-1{fill:#81adcd;}.cls-2,.cls-3,.cls-4{fill:none;stroke-miterlimit:10;}.cls-2{stroke:#009640;}.cls-3{stroke:#e6007e;}.cls-4{stroke:#ffed00;}</style></defs><title>889229_03b</title><g id="Sfondo"><rect class="cls-1" width="1190.55" height="1190.55"/></g><g id="Griglia_verde" data-name="Griglia verde"><rect class="cls-2" x="57.4" y="56.69" width="239.53" height="239.53"/><rect class="cls-2" x="57.4" y="335.91" width="239.53" height="239.53"/><rect class="cls-2" x="336.61" y="56.69" width="239.53" height="239.53"/><rect class="cls-2" x="336.61" y="335.91" width="239.53" height="239.53"/><rect class="cls-2" x="614.41" y="56.69" width="239.53" height="239.53"/><rect class="cls-2" x="614.41" y="335.91" width="239.53" height="239.53"/><rect class="cls-2" x="893.62" y="56.69" width="239.53" height="239.53"/><rect class="cls-2" x="893.62" y="335.91" width="239.53" height="239.53"/><rect class="cls-2" x="57.4" y="615.12" width="239.53" height="239.53"/><rect class="cls-2" x="57.4" y="894.33" width="239.53" height="239.53"/><rect class="cls-2" x="336.61" y="615.12" width="239.53" height="239.53"/><rect class="cls-2" x="336.61" y="894.33" width="239.53" height="239.53"/><rect class="cls-2" x="614.41" y="615.12" width="239.53" height="239.53"/><rect class="cls-2" x="614.41" y="894.33" width="239.53" height="239.53"/><rect class="cls-2" x="893.62" y="615.12" width="239.53" height="239.53"/><rect class="cls-2" x="893.62" y="894.33" width="239.53" height="239.53"/></g><g id="Griglia_rosa" data-name="Griglia rosa"><rect class="cls-3" x="503.15" y="503.15" width="184.25" height="184.25"/><rect class="cls-3" x="734.17" y="503.15" width="184.25" height="184.25"/><rect class="cls-3" x="948.9" y="503.15" width="184.25" height="184.25"/><rect class="cls-3" x="57.4" y="503.15" width="184.25" height="184.25"/><rect class="cls-3" x="272.13" y="503.15" width="184.25" height="184.25"/><rect class="cls-3" x="503.15" y="271.42" width="184.25" height="184.25"/><rect class="cls-3" x="734.17" y="271.42" width="184.25" height="184.25"/><rect class="cls-3" x="948.9" y="271.42" width="184.25" height="184.25"/><rect class="cls-3" x="57.4" y="271.42" width="184.25" height="184.25"/><rect class="cls-3" x="272.13" y="271.42" width="184.25" height="184.25"/><rect class="cls-3" x="503.15" y="56.69" width="184.25" height="184.25"/><rect class="cls-3" x="734.17" y="56.69" width="184.25" height="184.25"/><rect class="cls-3" x="948.9" y="56.69" width="184.25" height="184.25"/><rect class="cls-3" x="57.4" y="56.69" width="184.25" height="184.25"/><rect class="cls-3" x="272.13" y="56.69" width="184.25" height="184.25"/><rect class="cls-3" x="503.15" y="949.61" width="184.25" height="184.25"/><rect class="cls-3" x="734.17" y="949.61" width="184.25" height="184.25"/><rect class="cls-3" x="948.9" y="949.61" width="184.25" height="184.25"/><rect class="cls-3" x="57.4" y="949.61" width="184.25" height="184.25"/><rect class="cls-3" x="272.13" y="949.61" width="184.25" height="184.25"/><rect class="cls-3" x="503.15" y="726.38" width="184.25" height="184.25"/><rect class="cls-3" x="734.17" y="726.38" width="184.25" height="184.25"/><rect class="cls-3" x="948.9" y="726.38" width="184.25" height="184.25"/><rect class="cls-3" x="57.4" y="726.38" width="184.25" height="184.25"/><rect class="cls-3" x="272.13" y="726.38" width="184.25" height="184.25"/></g><g id="Griglia_gialla" data-name="Griglia gialla"><rect class="cls-4" x="57.4" y="56.69" width="147.4" height="147.4"/><rect class="cls-4" x="985.75" y="56.69" width="147.4" height="147.4"/><rect class="cls-4" x="985.75" y="986.46" width="147.4" height="147.4"/><rect class="cls-4" x="57.4" y="986.46" width="147.4" height="147.4"/><rect class="cls-4" x="241.65" y="986.46" width="147.4" height="147.4"/><rect class="cls-4" x="801.5" y="986.46" width="147.4" height="147.4"/><rect class="cls-4" x="428.74" y="986.46" width="147.4" height="147.4"/><rect class="cls-4" x="614.41" y="986.46" width="147.4" height="147.4"/><rect class="cls-4" x="985.75" y="802.2" width="147.4" height="147.4"/><rect class="cls-4" x="57.4" y="802.2" width="147.4" height="147.4"/><rect class="cls-4" x="241.65" y="802.2" width="147.4" height="147.4"/><rect class="cls-4" x="801.5" y="802.2" width="147.4" height="147.4"/><rect class="cls-4" x="428.74" y="802.2" width="147.4" height="147.4"/><rect class="cls-4" x="614.41" y="802.2" width="147.4" height="147.4"/><rect class="cls-4" x="985.75" y="615.12" width="147.4" height="147.4"/><rect class="cls-4" x="57.4" y="615.12" width="147.4" height="147.4"/><rect class="cls-4" x="241.65" y="615.12" width="147.4" height="147.4"/><rect class="cls-4" x="801.5" y="615.12" width="147.4" height="147.4"/><rect class="cls-4" x="428.74" y="615.12" width="147.4" height="147.4"/><rect class="cls-4" x="614.41" y="615.12" width="147.4" height="147.4"/><rect class="cls-4" x="985.75" y="240.94" width="147.4" height="147.4"/><rect class="cls-4" x="57.4" y="240.94" width="147.4" height="147.4"/><rect class="cls-4" x="241.65" y="240.94" width="147.4" height="147.4"/><rect class="cls-4" x="801.5" y="240.94" width="147.4" height="147.4"/><rect class="cls-4" x="428.74" y="240.94" width="147.4" height="147.4"/><rect class="cls-4" x="614.41" y="240.94" width="147.4" height="147.4"/><rect class="cls-4" x="985.75" y="428.03" width="147.4" height="147.4"/><rect class="cls-4" x="57.4" y="428.03" width="147.4" height="147.4"/><rect class="cls-4" x="241.65" y="428.03" width="147.4" height="147.4"/><rect class="cls-4" x="801.5" y="428.03" width="147.4" height="147.4"/><rect class="cls-4" x="428.74" y="428.03" width="147.4" height="147.4"/><rect class="cls-4" x="614.41" y="428.03" width="147.4" height="147.4"/><rect class="cls-4" x="241.65" y="56.69" width="147.4" height="147.4"/><rect class="cls-4" x="801.5" y="56.69" width="147.4" height="147.4"/><rect class="cls-4" x="428.74" y="56.69" width="147.4" height="147.4"/><rect class="cls-4" x="614.41" y="56.69" width="147.4" height="147.4"/></g><g id="Immagine_1" data-name="Immagine 1"><image width="1925" height="1204" transform="translate(57.4 428.03) scale(0.27)" xlink:href="889229_03.png"/></g></svg>