<svg xmlns="http://www.w3.org/2000/svg" xmlns:xlink="http://www.w3.org/1999/xlink" viewBox="0 0 1190.55 1190.55"><defs><style>.cls-1,.cls-3,.cls-4,.cls-5,.cls-6{fill:none;}.cls-2{fill:#396;}.cls-3{stroke:#000;}.cls-3,.cls-4,.cls-5,.cls-6{stroke-miterlimit:10;}.cls-4{stroke:#d00b00;}.cls-5{stroke:#c3e700;}.cls-6{stroke:#5cfffc;}.cls-7{clip-path:url(#clip-path);}.cls-8{clip-path:url(#clip-path-2);}.cls-9{font-size:60px;font-family:OpenSansCondensed-Bold, Open Sans Condensed;font-weight:700;}.cls-10{font-size:16px;font-family:OpenSans-Light, Open Sans;}.cls-11{letter-spacing:0.54em;}.cls-12{letter-spacing:0.54em;}.cls-13{letter-spacing:0.04em;}.cls-14{letter-spacing:0.32em;}.cls-15{letter-spacing:0.32em;}.cls-16{letter-spacing:-0.02em;}.cls-17{letter-spacing:-0.02em;}.cls-18{letter-spacing:0.29em;}.cls-19{letter-spacing:0.29em;}.cls-20{letter-spacing:0.3em;}.cls-21{letter-spacing:0.3em;}.cls-22{letter-spacing:0.38em;}.cls-23{letter-spacing:0.38em;}.cls-24{letter-spacing:0.01em;}.cls-25{letter-spacing:0.01em;}.cls-26{font-size:10px;font-family:EBGaramond-Italic, EB Garamond;font-style:italic;}.cls-27{letter-spacing:0.72em;}.cls-28{letter-spacing:-0.01em;}.cls-29{letter-spacing:-0.02em;}.cls-30{letter-spacing:0.72em;}.cls-31{letter-spacing:-0.02em;}.cls-32{letter-spacing:0.03em;}.cls-33{letter-spacing:-0.03em;}.cls-34{letter-spacing:0.03em;}.cls-35{letter-spacing:-0.02em;}.cls-36{letter-spacing:0.13em;}.cls-37{letter-spacing:0.13em;}.cls-38{letter-spacing:0em;}.cls-39{letter-spacing:-0.04em;}.cls-40{letter-spacing:0.16em;}.cls-41{letter-spacing:0.16em;}.cls-42{letter-spacing:-0.02em;}.cls-43{letter-spacing:2.05em;}.cls-44{letter-spacing:2.05em;}.cls-45{letter-spacing:0.02em;}.cls-46{letter-spacing:0.4em;}.cls-47{letter-spacing:0.4em;}.cls-48{letter-spacing:0.11em;}.cls-49{letter-spacing:0.2em;}.cls-50{letter-spacing:0.2em;}.cls-51{letter-spacing:0.15em;}.cls-52{letter-spacing:0.86em;}.cls-53{letter-spacing:0.18em;}.cls-54{letter-spacing:0.16em;}</style><clipPath id="clip-path"><rect class="cls-1" x="282" y="503" width="185" height="185"/></clipPath><clipPath id="clip-path-2"><circle class="cls-1" cx="595.5" cy="595.5" r="92.5"/></clipPath></defs><title>889639_07</title><g id="Livello_1" data-name="Livello 1"><rect class="cls-2" width="1191" height="1191"/><rect class="cls-3" width="1191" height="1191"/></g><g id="Livello_2" data-name="Livello 2"><rect class="cls-4" x="58.5" y="58.5" width="242" height="240"/><rect class="cls-4" x="335.5" y="58.5" width="239.53" height="239.53"/><rect class="cls-4" x="614.5" y="58.5" width="239.53" height="239.53"/><rect class="cls-4" x="889.5" y="58.5" width="239.53" height="239.53"/><rect class="cls-4" x="58.5" y="336.5" width="239.53" height="239.53"/><rect class="cls-4" x="336.5" y="336.5" width="239.53" height="239.53"/><rect class="cls-4" x="613.5" y="337.5" width="239.53" height="239.53"/><rect class="cls-4" x="890.5" y="336.5" width="239.53" height="239.53"/><rect class="cls-4" x="890.5" y="613.5" width="239.53" height="239.53"/><rect class="cls-4" x="613.5" y="613.5" width="239.53" height="239.53"/><rect class="cls-4" x="336.5" y="613.5" width="239.53" height="239.53"/><rect class="cls-4" x="58.5" y="613.5" width="239.53" height="239.53"/><rect class="cls-4" x="58.5" y="889.5" width="239.53" height="239.53"/><rect class="cls-4" x="336.5" y="889.5" width="239.53" height="239.53"/><rect class="cls-4" x="613.5" y="889.5" width="239.53" height="239.53"/><rect class="cls-4" x="890.5" y="889.5" width="239.53" height="239.53"/></g><g id="Livello_3" data-name="Livello 3"><rect class="cls-5" x="58.5" y="58.5" width="184.25" height="184.25"/><rect class="cls-5" x="282.5" y="58.5" width="184.25" height="184.25"/><rect class="cls-5" x="503.5" y="58.5" width="184.25" height="184.25"/><rect class="cls-5" x="723.5" y="58.5" width="184.25" height="184.25"/><rect class="cls-5" x="945.5" y="58.5" width="184.25" height="184.25"/><rect class="cls-5" x="945.5" y="282.5" width="184.25" height="184.25"/><rect class="cls-5" x="723.5" y="282.5" width="184.25" height="184.25"/><rect class="cls-5" x="945.5" y="503.5" width="184.25" height="184.25"/><rect class="cls-5" x="723.5" y="503.5" width="184.25" height="184.25"/><rect class="cls-5" x="503.5" y="282.5" width="184.25" height="184.25"/><rect class="cls-5" x="503.5" y="503.5" width="184.25" height="184.25"/><rect class="cls-5" x="282.5" y="282.5" width="184.25" height="184.25"/><rect class="cls-5" x="282.5" y="503.5" width="184.25" height="184.25"/><rect class="cls-5" x="58.5" y="282.5" width="184.25" height="184.25"/><rect class="cls-5" x="58.5" y="503.5" width="184.25" height="184.25"/><rect class="cls-5" x="58.5" y="723.5" width="184.25" height="184.25"/><rect class="cls-5" x="58.5" y="944.5" width="184.25" height="184.25"/><rect class="cls-5" x="282.5" y="723.5" width="184.25" height="184.25"/><rect class="cls-5" x="503.5" y="723.5" width="184.25" height="184.25"/><rect class="cls-5" x="282.5" y="944.5" width="184.25" height="184.25"/><rect class="cls-5" x="503.5" y="944.5" width="184.25" height="184.25"/><rect class="cls-5" x="945.5" y="723.5" width="184.25" height="184.25"/><rect class="cls-5" x="945.5" y="944.5" width="184.25" height="184.25"/><rect class="cls-5" x="723.5" y="723.5" width="184.25" height="184.25"/><rect class="cls-5" x="723.5" y="944.5" width="184.25" height="184.25"/></g><g id="Livello_4" data-name="Livello 4"><rect class="cls-6" x="58.5" y="58.5" width="147.4" height="147.4"/><rect class="cls-6" x="242.5" y="58.5" width="147.4" height="147.4"/><rect class="cls-6" x="58.5" y="242.5" width="147.4" height="147.4"/><rect class="cls-6" x="242.5" y="242.5" width="147.4" height="147.4"/><rect class="cls-6" x="429.5" y="58.5" width="147.4" height="147.4"/><rect class="cls-6" x="613.5" y="58.5" width="147.4" height="147.4"/><rect class="cls-6" x="797.5" y="58.5" width="147.4" height="147.4"/><rect class="cls-6" x="613.5" y="242.5" width="147.4" height="147.4"/><rect class="cls-6" x="429.5" y="242.5" width="147.4" height="147.4"/><rect class="cls-6" x="797.5" y="242.5" width="147.4" height="147.4"/><rect class="cls-6" x="613.5" y="429.5" width="147.4" height="147.4"/><g id="Livello_5" data-name="Livello 5"><g class="cls-7"><image width="4096" height="2304" transform="matrix(0, 0.15, -0.18, 0, 610, 321)" xlink:href="../../../../../Pictures/PePsy/PePsy/P_20180324_163146.jpg"/></g></g><rect class="cls-6" x="429.5" y="429.5" width="147.4" height="147.4"/><rect class="cls-6" x="797.5" y="429.5" width="147.4" height="147.4"/><rect class="cls-6" x="980.5" y="429.5" width="147.4" height="147.4"/><rect class="cls-6" x="980.5" y="58.5" width="147.4" height="147.4"/><rect class="cls-6" x="980.5" y="242.5" width="147.4" height="147.4"/><rect class="cls-6" x="980.5" y="613.5" width="147.4" height="147.4"/><rect class="cls-6" x="980.5" y="797.5" width="147.4" height="147.4"/><rect class="cls-6" x="980.5" y="980.5" width="147.4" height="147.4"/><rect class="cls-6" x="613.5" y="980.5" width="147.4" height="147.4"/><rect class="cls-6" x="797.5" y="980.5" width="147.4" height="147.4"/><rect class="cls-6" x="429.5" y="980.5" width="147.4" height="147.4"/><rect class="cls-6" x="242.5" y="980.5" width="147.4" height="147.4"/><rect class="cls-6" x="242.5" y="797.5" width="147.4" height="147.4"/><rect class="cls-6" x="429.5" y="797.5" width="147.4" height="147.4"/><rect class="cls-6" x="613.5" y="797.5" width="147.4" height="147.4"/><rect class="cls-6" x="797.5" y="797.5" width="147.4" height="147.4"/><rect class="cls-6" x="797.5" y="613.5" width="147.4" height="147.4"/><rect class="cls-6" x="613.5" y="613.5" width="147.4" height="147.4"/><rect class="cls-6" x="429.5" y="613.5" width="147.4" height="147.4"/><rect class="cls-6" x="242.5" y="429.5" width="147.4" height="147.4"/><rect class="cls-6" x="242.5" y="613.5" width="147.4" height="147.4"/><rect class="cls-6" x="58.5" y="429.5" width="147.4" height="147.4"/><rect class="cls-6" x="58.5" y="613.5" width="147.4" height="147.4"/><rect class="cls-6" x="58.5" y="797.5" width="147.4" height="147.4"/><rect class="cls-6" x="58.5" y="980.5" width="147.4" height="147.4"/></g><g id="Livello_7" data-name="Livello 7"><g id="Livello_6" data-name="Livello 6"><rect class="cls-1" x="484" y="430" width="379" height="532"/></g><g class="cls-8"><image width="500" height="750" transform="translate(503 503) scale(0.37 0.25)" xlink:href="../../../../../Pictures/PePsy/069832413b727c396014e5b308ab5ce7.jpg"/><rect class="cls-1" x="483" y="503" width="229" height="688"/></g><text class="cls-9" transform="translate(718 546)">Linea 54</text></g><g id="Livello_8" data-name="Livello 8"><text></text></g><g id="Livello_9" data-name="Livello 9"><text class="cls-10" transform="translate(946 515.16)">Lorem<tspan class="cls-11" x="46.72" y="0"> </tspan><tspan x="59.5" y="0">ipsum</tspan><tspan class="cls-12" x="103.65" y="0"> </tspan><tspan x="116.43" y="0">dolor</tspan><tspan class="cls-11" x="154.55" y="0"> </tspan><tspan x="167.32" y="0">sit </tspan><tspan x="0" y="24">amet,</tspan><tspan class="cls-13" x="40.18" y="24"> </tspan><tspan x="44.92" y="24">consectetuer</tspan><tspan class="cls-13" x="139.11" y="24"> </tspan><tspan x="143.85" y="24">adipi</tspan><tspan x="178.6" y="24">-</tspan><tspan x="0" y="48">scing</tspan><tspan class="cls-14" x="36.48" y="48"> </tspan><tspan x="45.73" y="48">elit,</tspan><tspan class="cls-15" x="70.54" y="48"> </tspan><tspan x="79.79" y="48">sed</tspan><tspan class="cls-15" x="105.55" y="48"> </tspan><tspan x="114.8" y="48">diam</tspan><tspan class="cls-14" x="150.54" y="48"> </tspan><tspan x="159.79" y="48">no</tspan><tspan x="178.6" y="48">-</tspan><tspan x="0" y="72">nummy</tspan><tspan class="cls-16" x="54.47" y="72"> </tspan><tspan x="58.27" y="72">nibh</tspan><tspan class="cls-17" x="90.28" y="72"> </tspan><tspan x="94.08" y="72">euismod</tspan><tspan class="cls-16" x="156.39" y="72"> </tspan><tspan x="160.19" y="72">tin</tspan><tspan x="178.6" y="72">-</tspan><tspan x="0" y="96">cidunt</tspan><tspan class="cls-18" x="44.98" y="96"> </tspan><tspan x="53.8" y="96">ut</tspan><tspan class="cls-19" x="68.59" y="96"> </tspan><tspan x="77.42" y="96">laoreet</tspan><tspan class="cls-18" x="128.03" y="96"> </tspan><tspan x="136.85" y="96">dolore </tspan><tspan x="0" y="120">magna</tspan><tspan class="cls-20" x="48.88" y="120"> </tspan><tspan x="57.84" y="120">aliquam</tspan><tspan class="cls-21" x="115.12" y="120"> </tspan><tspan x="124.08" y="120">erat</tspan><tspan class="cls-20" x="152.92" y="120"> </tspan><tspan x="161.88" y="120">vo</tspan><tspan x="178.6" y="120">-</tspan><tspan x="0" y="144">lutpat.</tspan><tspan class="cls-22" x="45.58" y="144"> </tspan><tspan x="55.85" y="144">Ut</tspan><tspan class="cls-23" x="72.72" y="144"> </tspan><tspan x="82.99" y="144">wisi</tspan><tspan class="cls-23" x="109.25" y="144"> </tspan><tspan x="119.52" y="144">enim</tspan><tspan class="cls-22" x="155.48" y="144"> </tspan><tspan x="165.75" y="144">ad </tspan><tspan x="0" y="168">minim</tspan><tspan class="cls-24" x="44.92" y="168"> </tspan><tspan x="49.29" y="168">veniam,</tspan><tspan class="cls-25" x="104.51" y="168"> </tspan><tspan x="108.88" y="168">quis</tspan><tspan class="cls-24" x="138.91" y="168"> </tspan><tspan x="143.28" y="168">smod </tspan></text><text class="cls-26" transform="translate(58 636.05)">Lorem<tspan class="cls-27" x="24.72" y="0"> </tspan><tspan class="cls-28" x="33.9" y="0">i</tspan><tspan x="36.69" y="0">ps</tspan><tspan class="cls-28" x="43.84" y="0">u</tspan><tspan x="48.78" y="0">m</tspan><tspan class="cls-27" x="56.67" y="0"> </tspan><tspan x="65.85" y="0">d</tspan><tspan class="cls-29" x="71.01" y="0">o</tspan><tspan x="74.61" y="0">lor</tspan><tspan class="cls-30" x="85.06" y="0"> </tspan><tspan x="94.25" y="0">sit</tspan><tspan class="cls-27" x="102.87" y="0"> </tspan><tspan class="cls-31" x="112.05" y="0">a</tspan><tspan x="116.76" y="0">met,</tspan><tspan class="cls-27" x="133.13" y="0"> </tspan><tspan class="cls-28" x="142.31" y="0">c</tspan><tspan x="145.29" y="0">onsectet</tspan><tspan class="cls-29" x="172.91" y="0">u</tspan><tspan x="177.8" y="0">er </tspan><tspan x="0" y="12">ad</tspan><tspan class="cls-28" x="10.07" y="12">i</tspan><tspan x="12.86" y="12">pisc</tspan><tspan class="cls-28" x="26.08" y="12">i</tspan><tspan x="28.87" y="12">ng</tspan><tspan class="cls-32" x="38.29" y="12"> </tspan><tspan class="cls-33" x="40.58" y="12">e</tspan><tspan x="43.74" y="12">lit,</tspan><tspan class="cls-32" x="54.61" y="12"> </tspan><tspan x="56.91" y="12">sed</tspan><tspan class="cls-32" x="68.24" y="12"> </tspan><tspan x="70.53" y="12">di</tspan><tspan class="cls-29" x="78.63" y="12">a</tspan><tspan x="83.34" y="12">m</tspan><tspan class="cls-32" x="91.23" y="12"> </tspan><tspan x="93.52" y="12">non</tspan><tspan class="cls-28" x="107.86" y="12">u</tspan><tspan class="cls-31" x="112.8" y="12">mm</tspan><tspan x="128.18" y="12">y</tspan><tspan class="cls-34" x="132.23" y="12"> </tspan><tspan x="134.53" y="12">n</tspan><tspan class="cls-35" x="139.8" y="12">i</tspan><tspan class="cls-29" x="142.49" y="12">b</tspan><tspan x="146.78" y="12">h</tspan><tspan class="cls-32" x="151.66" y="12"> </tspan><tspan x="153.95" y="12">euismod </tspan><tspan x="0" y="24">t</tspan><tspan class="cls-28" x="2.92" y="24">i</tspan><tspan x="5.71" y="24">nc</tspan><tspan class="cls-29" x="14.11" y="24">i</tspan><tspan x="16.85" y="24">d</tspan><tspan class="cls-28" x="22.01" y="24">u</tspan><tspan x="26.95" y="24">nt</tspan><tspan class="cls-36" x="35.14" y="24"> </tspan><tspan x="38.41" y="24">ut</tspan><tspan class="cls-37" x="46.42" y="24"> </tspan><tspan x="49.7" y="24">laoreet</tspan><tspan class="cls-36" x="74.8" y="24"> </tspan><tspan x="78.07" y="24">d</tspan><tspan class="cls-31" x="83.23" y="24">o</tspan><tspan x="86.83" y="24">lore</tspan><tspan class="cls-36" x="100.69" y="24"> </tspan><tspan x="103.96" y="24">magna</tspan><tspan class="cls-36" x="131.09" y="24"> </tspan><tspan class="cls-31" x="134.37" y="24">a</tspan><tspan class="cls-38" x="139.08" y="24">l</tspan><tspan class="cls-31" x="141.94" y="24">i</tspan><tspan x="144.68" y="24">qu</tspan><tspan class="cls-31" x="154.5" y="24">a</tspan><tspan x="159.21" y="24">m</tspan><tspan class="cls-37" x="167.1" y="24"> </tspan><tspan x="170.37" y="24">e</tspan><tspan class="cls-39" x="173.78" y="24">r</tspan><tspan x="177.17" y="24">at </tspan><tspan x="0" y="36">v</tspan><tspan class="cls-31" x="4.1" y="36">o</tspan><tspan x="7.7" y="36">lutpat.</tspan><tspan class="cls-40" x="32.94" y="36"> </tspan><tspan x="36.54" y="36">Ut</tspan><tspan class="cls-41" x="46.46" y="36"> </tspan><tspan x="50.07" y="36">wisi</tspan><tspan class="cls-40" x="64.94" y="36"> </tspan><tspan x="68.54" y="36">en</tspan><tspan class="cls-42" x="77.22" y="36">i</tspan><tspan x="80.01" y="36">m</tspan><tspan class="cls-41" x="87.9" y="36"> </tspan><tspan x="91.5" y="36">ad</tspan><tspan class="cls-40" x="101.57" y="36"> </tspan><tspan x="105.18" y="36">m</tspan><tspan class="cls-28" x="113.06" y="36">i</tspan><tspan x="115.85" y="36">n</tspan><tspan class="cls-28" x="121.13" y="36">i</tspan><tspan x="123.92" y="36">m</tspan><tspan class="cls-41" x="131.8" y="36"> </tspan><tspan x="135.41" y="36">veni</tspan><tspan class="cls-31" x="151.13" y="36">a</tspan><tspan x="155.84" y="36">m,</tspan><tspan class="cls-40" x="165.88" y="36"> </tspan><tspan x="169.48" y="36">quis </tspan><tspan x="0" y="48">nostr</tspan><tspan class="cls-31" x="18.54" y="48">u</tspan><tspan x="23.43" y="48">d</tspan><tspan class="cls-43" x="28.59" y="48"> </tspan><tspan x="51.13" y="48">exerci</tspan><tspan class="cls-43" x="72.19" y="48"> </tspan><tspan x="94.73" y="48">tat</tspan><tspan class="cls-31" x="105.48" y="48">i</tspan><tspan x="108.22" y="48">on</tspan><tspan class="cls-44" x="117.29" y="48"> </tspan><tspan class="cls-33" x="139.83" y="48">u</tspan><tspan class="cls-28" x="144.67" y="48">l</tspan><tspan x="147.38" y="48">l</tspan><tspan class="cls-31" x="150.24" y="48">a</tspan><tspan x="154.95" y="48">m</tspan><tspan class="cls-28" x="162.84" y="48">c</tspan><tspan x="165.82" y="48">orper </tspan></text></g><g id="Livello_10" data-name="Livello 10"><text class="cls-10" transform="translate(580.31 735.66)"><tspan class="cls-45">Lor</tspan><tspan x="24.73" y="0">-</tspan><tspan x="-48.23" y="24">em</tspan><tspan class="cls-46" x="-25.33" y="24"> </tspan><tspan x="-14.75" y="24">ipsum</tspan><tspan class="cls-47" x="29.41" y="24"> </tspan><tspan x="39.99" y="24">dolor </tspan><tspan x="-66.38" y="48">sit</tspan><tspan class="cls-48" x="-49.95" y="48"> </tspan><tspan x="-44.04" y="48">amet,</tspan><tspan class="cls-48" x="-3.86" y="48"> </tspan><tspan x="2.05" y="48">consectetuer </tspan><tspan x="-74.94" y="72">adipiscing</tspan><tspan class="cls-49" x="-3.7" y="72"> </tspan><tspan x="3.7" y="72">elit,</tspan><tspan class="cls-49" x="28.51" y="72"> </tspan><tspan x="35.91" y="72">sed</tspan><tspan class="cls-50" x="61.67" y="72"> </tspan><tspan x="69.07" y="72">diam </tspan><tspan x="-75.35" y="96">nonummy</tspan><tspan class="cls-51" x="-2.07" y="96"> </tspan><tspan x="4.41" y="96">nibh</tspan><tspan class="cls-51" x="36.43" y="96"> </tspan><tspan x="42.91" y="96">euismod </tspan><tspan x="-67.46" y="120">tincidunt</tspan><tspan class="cls-52" x="-4.07" y="120"> </tspan><tspan x="13.93" y="120">ut</tspan><tspan class="cls-52" x="28.72" y="120"> </tspan><tspan x="46.72" y="120">laoreet </tspan><tspan x="-50.41" y="144">dolore</tspan><tspan class="cls-53" x="-3.51" y="144"> </tspan><tspan x="3.52" y="144">magna</tspan><tspan class="cls-53" x="52.4" y="144"> </tspan><tspan x="59.42" y="144">ali</tspan><tspan x="75.13" y="144">-</tspan><tspan class="cls-54" x="-9.7" y="168">qua</tspan><tspan x="25.45" y="168">m </tspan></text></g></svg>