<svg xmlns="http://www.w3.org/2000/svg" viewBox="0 0 1190.55 1190.55"><defs><style>.cls-1{fill:#396;}.cls-2,.cls-3,.cls-4,.cls-5{fill:none;stroke-miterlimit:10;}.cls-2{stroke:#000;}.cls-3{stroke:#fffdfd;}.cls-4{stroke:#ddfc00;}.cls-5{stroke:#b52828;}</style></defs><title>Tavola disegno 1</title><g id="Livello_1" data-name="Livello 1"><rect class="cls-1" width="1191" height="1191"/><rect class="cls-2" width="1191" height="1191"/></g><g id="Livello_2" data-name="Livello 2"><rect class="cls-3" x="60.5" y="60.5" width="239.53" height="239.53"/><rect class="cls-3" x="337.5" y="60.5" width="239.53" height="239.53"/><rect class="cls-3" x="60.5" y="337.5" width="239.53" height="239.53"/><rect class="cls-3" x="337.5" y="337.5" width="239.53" height="239.53"/><rect class="cls-3" x="614.5" y="60.5" width="239.53" height="239.53"/><rect class="cls-3" x="614.5" y="337.5" width="239.53" height="239.53"/><rect class="cls-3" x="891.5" y="60.5" width="239.53" height="239.53"/><rect class="cls-3" x="891.5" y="337.5" width="239.53" height="239.53"/><rect class="cls-3" x="60.5" y="614.5" width="239.53" height="239.53"/><rect class="cls-3" x="337.5" y="614.5" width="239.53" height="239.53"/><rect class="cls-3" x="614.5" y="614.5" width="239.53" height="239.53"/><rect class="cls-3" x="891.5" y="614.5" width="239.53" height="239.53"/><rect class="cls-3" x="60.5" y="891.5" width="239.53" height="239.53"/><rect class="cls-3" x="337.5" y="891.5" width="239.53" height="239.53"/><rect class="cls-3" x="614.5" y="891.5" width="239.53" height="239.53"/><rect class="cls-3" x="891.5" y="891.5" width="239.53" height="239.53"/></g><g id="Livello_3" data-name="Livello 3"><rect class="cls-4" x="60.5" y="60.5" width="184.25" height="184.25"/><rect class="cls-4" x="281.5" y="60.5" width="184.25" height="184.25"/><rect class="cls-4" x="281.5" y="281.5" width="184.25" height="184.25"/><rect class="cls-4" x="60.5" y="281.5" width="184.25" height="184.25"/><rect class="cls-4" x="502.5" y="60.5" width="184.25" height="184.25"/><rect class="cls-4" x="502.5" y="281.5" width="184.25" height="184.25"/><rect class="cls-4" x="60.5" y="502.5" width="184.25" height="184.25"/><rect class="cls-4" x="281.5" y="502.5" width="184.25" height="184.25"/><rect class="cls-4" x="502.5" y="502.5" width="184.25" height="184.25"/><rect class="cls-4" x="60.5" y="723.5" width="184.25" height="184.25"/><rect class="cls-4" x="281.5" y="723.5" width="184.25" height="184.25"/><rect class="cls-4" x="502.5" y="723.5" width="184.25" height="184.25"/><rect class="cls-4" x="60.5" y="944.5" width="184.25" height="184.25"/><rect class="cls-4" x="281.5" y="944.5" width="184.25" height="184.25"/><rect class="cls-4" x="502.5" y="944.5" width="184.25" height="184.25"/><rect class="cls-4" x="723.5" y="281.5" width="184.25" height="184.25"/><rect class="cls-4" x="723.5" y="502.5" width="184.25" height="184.25"/><rect class="cls-4" x="723.5" y="723.5" width="184.25" height="184.25"/><rect class="cls-4" x="723.5" y="944.5" width="184.25" height="184.25"/><rect class="cls-4" x="723.5" y="60.5" width="184.25" height="184.25"/><rect class="cls-4" x="944.5" y="60.5" width="184.25" height="184.25"/><rect class="cls-4" x="944.5" y="281.5" width="184.25" height="184.25"/><rect class="cls-4" x="944.5" y="944.5" width="184.25" height="184.25"/><rect class="cls-4" x="944.5" y="723.5" width="184.25" height="184.25"/><rect class="cls-4" x="944.5" y="502.5" width="184.25" height="184.25"/></g><g id="Livello_4" data-name="Livello 4"><rect class="cls-5" x="60.5" y="60.5" width="147.4" height="147.4"/><rect class="cls-5" x="244.5" y="60.5" width="147.4" height="147.4"/><rect class="cls-5" x="60.5" y="244.5" width="147.4" height="147.4"/><rect class="cls-5" x="60.5" y="428.5" width="147.4" height="147.4"/><rect class="cls-5" x="244.5" y="428.5" width="147.4" height="147.4"/><rect class="cls-5" x="428.5" y="428.5" width="147.4" height="147.4"/><rect class="cls-5" x="428.5" y="244.5" width="147.4" height="147.4"/><rect class="cls-5" x="428.5" y="60.5" width="147.4" height="147.4"/><rect class="cls-5" x="60.5" y="614.5" width="147.4" height="147.4"/><rect class="cls-5" x="244.5" y="614.5" width="147.4" height="147.4"/><rect class="cls-5" x="428.5" y="614.5" width="147.4" height="147.4"/><rect class="cls-5" x="614.5" y="614.5" width="147.4" height="147.4"/><rect class="cls-5" x="614.5" y="428.5" width="147.4" height="147.4"/><rect class="cls-5" x="614.5" y="59.5" width="147.4" height="147.4"/><rect class="cls-5" x="614.5" y="244.5" width="147.4" height="147.4"/><rect class="cls-5" x="60.5" y="798.5" width="147.4" height="147.4"/><rect class="cls-5" x="244.5" y="798.5" width="147.4" height="147.4"/><rect class="cls-5" x="428.5" y="798.5" width="147.4" height="147.4"/><rect class="cls-5" x="614.5" y="798.5" width="147.4" height="147.4"/><rect class="cls-5" x="798.5" y="798.5" width="147.4" height="147.4"/><rect class="cls-5" x="798.5" y="614.5" width="147.4" height="147.4"/><rect class="cls-5" x="798.5" y="428.5" width="147.4" height="147.4"/><rect class="cls-5" x="798.5" y="244.5" width="147.4" height="147.4"/><rect class="cls-5" x="798.5" y="60.5" width="147.4" height="147.4"/><rect class="cls-5" x="60.5" y="982.5" width="147.4" height="147.4"/><rect class="cls-5" x="244.5" y="982.5" width="147.4" height="147.4"/><rect class="cls-5" x="428.5" y="982.5" width="147.4" height="147.4"/><rect class="cls-5" x="614.5" y="982.5" width="147.4" height="147.4"/><rect class="cls-5" x="798.5" y="982.5" width="147.4" height="147.4"/><rect class="cls-5" x="982.5" y="982.5" width="147.4" height="147.4"/><rect class="cls-5" x="982.5" y="798.5" width="147.4" height="147.4"/><rect class="cls-5" x="982.5" y="614.5" width="147.4" height="147.4"/><rect class="cls-5" x="982.5" y="428.5" width="147.4" height="147.4"/><rect class="cls-5" x="982.5" y="244.5" width="147.4" height="147.4"/><rect class="cls-5" x="982.5" y="59.5" width="147.4" height="147.4"/><rect class="cls-5" x="244.5" y="244.5" width="147.4" height="147.4"/></g></svg>