<svg xmlns="http://www.w3.org/2000/svg" xmlns:xlink="http://www.w3.org/1999/xlink" viewBox="0 0 1190.55 1190.55"><defs><style>.cls-1,.cls-3,.cls-4,.cls-5,.cls-7{fill:none;}.cls-2{fill:#396;}.cls-3{stroke:#000;}.cls-3,.cls-4,.cls-5,.cls-7{stroke-miterlimit:10;}.cls-4{stroke:#fff;}.cls-5{stroke:#a8ff00;}.cls-6{clip-path:url(#clip-path);}.cls-7{stroke:#af0000;}</style><clipPath id="clip-path"><rect class="cls-1" x="61.5" y="60.5" width="147.4" height="147.4"/></clipPath></defs><title>889639_04</title><g id="Livello_1" data-name="Livello 1"><rect class="cls-2" width="1191" height="1191"/><rect class="cls-3" width="1191" height="1191"/></g><g id="Livello_2" data-name="Livello 2"><rect class="cls-4" x="61" y="61" width="239.53" height="239.53"/><rect class="cls-4" x="337.38" y="61" width="239.53" height="239.53"/><rect class="cls-4" x="613.76" y="61" width="239.53" height="239.53"/><rect class="cls-4" x="890.13" y="61" width="239.53" height="239.53"/><rect class="cls-4" x="61" y="337.38" width="239.53" height="239.53"/><rect class="cls-4" x="337.38" y="337.38" width="239.53" height="239.53"/><rect class="cls-4" x="613.76" y="337.38" width="239.53" height="239.53"/><rect class="cls-4" x="890.13" y="337.38" width="239.53" height="239.53"/><rect class="cls-4" x="61" y="613.76" width="239.53" height="239.53"/><rect class="cls-4" x="337.38" y="613.76" width="239.53" height="239.53"/><rect class="cls-4" x="613.76" y="613.76" width="239.53" height="239.53"/><rect class="cls-4" x="890.13" y="613.76" width="239.53" height="239.53"/><rect class="cls-4" x="61" y="890.13" width="239.53" height="239.53"/><rect class="cls-4" x="337.38" y="890.13" width="239.53" height="239.53"/><rect class="cls-4" x="613.76" y="890.13" width="239.53" height="239.53"/><rect class="cls-4" x="890.13" y="890.13" width="239.53" height="239.53"/></g><g id="Livello_3" data-name="Livello 3"><rect class="cls-5" x="60.5" y="60.5" width="184.25" height="184.25"/><rect class="cls-5" x="281.6" y="60.5" width="184.25" height="184.25"/><rect class="cls-5" x="502.7" y="60.5" width="184.25" height="184.25"/><rect class="cls-5" x="723.81" y="60.5" width="184.25" height="184.25"/><rect class="cls-5" x="944.91" y="60.5" width="184.25" height="184.25"/><rect class="cls-5" x="60.5" y="281.6" width="184.25" height="184.25"/><rect class="cls-5" x="281.6" y="281.6" width="184.25" height="184.25"/><rect class="cls-5" x="502.7" y="281.6" width="184.25" height="184.25"/><rect class="cls-5" x="723.81" y="281.6" width="184.25" height="184.25"/><rect class="cls-5" x="944.91" y="281.6" width="184.25" height="184.25"/><rect class="cls-5" x="60.5" y="502.7" width="184.25" height="184.25"/><rect class="cls-5" x="281.6" y="502.7" width="184.25" height="184.25"/><rect class="cls-5" x="502.7" y="502.7" width="184.25" height="184.25"/><rect class="cls-5" x="723.81" y="502.7" width="184.25" height="184.25"/><rect class="cls-5" x="944.91" y="502.7" width="184.25" height="184.25"/><rect class="cls-5" x="60.5" y="723.81" width="184.25" height="184.25"/><rect class="cls-5" x="281.6" y="723.81" width="184.25" height="184.25"/><rect class="cls-5" x="502.7" y="723.81" width="184.25" height="184.25"/><rect class="cls-5" x="723.81" y="723.81" width="184.25" height="184.25"/><rect class="cls-5" x="944.91" y="723.81" width="184.25" height="184.25"/><rect class="cls-5" x="60.5" y="944.91" width="184.25" height="184.25"/><rect class="cls-5" x="281.6" y="944.91" width="184.25" height="184.25"/><rect class="cls-5" x="502.7" y="944.91" width="184.25" height="184.25"/><rect class="cls-5" x="723.81" y="944.91" width="184.25" height="184.25"/><rect class="cls-5" x="944.91" y="944.91" width="184.25" height="184.25"/></g><g id="Livello_4" data-name="Livello 4"><g class="cls-6"><image width="567" height="300" transform="translate(-103 58)" xlink:href="../Revisiao2/IMG_20180324_162914.jpg"/></g><rect class="cls-7" x="245.75" y="60.5" width="147.4" height="147.4"/><rect class="cls-7" x="430" y="60.5" width="147.4" height="147.4"/><rect class="cls-7" x="614.26" y="60.5" width="147.4" height="147.4"/><rect class="cls-7" x="798.51" y="60.5" width="147.4" height="147.4"/><rect class="cls-7" x="982.76" y="60.5" width="147.4" height="147.4"/><rect class="cls-7" x="61.5" y="244.75" width="147.4" height="147.4"/><rect class="cls-7" x="245.75" y="244.75" width="147.4" height="147.4"/><rect class="cls-7" x="430" y="244.75" width="147.4" height="147.4"/><rect class="cls-7" x="614.26" y="244.75" width="147.4" height="147.4"/><rect class="cls-7" x="798.51" y="244.75" width="147.4" height="147.4"/><rect class="cls-7" x="982.76" y="244.75" width="147.4" height="147.4"/><rect class="cls-7" x="61.5" y="429" width="147.4" height="147.4"/><rect class="cls-7" x="245.75" y="429" width="147.4" height="147.4"/><rect class="cls-7" x="430" y="429" width="147.4" height="147.4"/><rect class="cls-7" x="614.26" y="429" width="147.4" height="147.4"/><rect class="cls-7" x="798.51" y="429" width="147.4" height="147.4"/><rect class="cls-7" x="982.76" y="429" width="147.4" height="147.4"/><rect class="cls-7" x="61.5" y="613.26" width="147.4" height="147.4"/><rect class="cls-7" x="245.75" y="613.26" width="147.4" height="147.4"/><rect class="cls-7" x="430" y="613.26" width="147.4" height="147.4"/><rect class="cls-7" x="614.26" y="613.26" width="147.4" height="147.4"/><rect class="cls-7" x="798.51" y="613.26" width="147.4" height="147.4"/><rect class="cls-7" x="982.76" y="613.26" width="147.4" height="147.4"/><rect class="cls-7" x="61.5" y="797.51" width="147.4" height="147.4"/><rect class="cls-7" x="245.75" y="797.51" width="147.4" height="147.4"/><rect class="cls-7" x="430" y="797.51" width="147.4" height="147.4"/><rect class="cls-7" x="614.26" y="797.51" width="147.4" height="147.4"/><rect class="cls-7" x="798.51" y="797.51" width="147.4" height="147.4"/><rect class="cls-7" x="982.76" y="797.51" width="147.4" height="147.4"/><rect class="cls-7" x="61.5" y="981.76" width="147.4" height="147.4"/><rect class="cls-7" x="245.75" y="981.76" width="147.4" height="147.4"/><rect class="cls-7" x="430" y="981.76" width="147.4" height="147.4"/><rect class="cls-7" x="614.26" y="981.76" width="147.4" height="147.4"/><rect class="cls-7" x="798.51" y="981.76" width="147.4" height="147.4"/><rect class="cls-7" x="982.76" y="981.76" width="147.4" height="147.4"/></g></svg>