<svg xmlns="http://www.w3.org/2000/svg" xmlns:xlink="http://www.w3.org/1999/xlink" viewBox="0 0 1190.55 1190.55"><defs><style>.cls-1{fill:#396;}.cls-2,.cls-3,.cls-4,.cls-5{fill:none;stroke-miterlimit:10;}.cls-2{stroke:#000;}.cls-3{stroke:#cff;}.cls-4{stroke:#ff0;}.cls-5{stroke:#900;}</style></defs><title>889639_03</title><g id="Livello_1" data-name="Livello 1"><rect class="cls-1" width="1191" height="1191"/><rect class="cls-2" width="1191" height="1191"/></g><g id="Livello_2" data-name="Livello 2"><rect class="cls-3" x="60.5" y="60.5" width="239.53" height="239.53"/><line class="cls-3" x1="336.5" y1="854.5" x2="336.5" y2="891.35"/><rect class="cls-3" x="60.5" y="336.5" width="239.53" height="239.53"/><rect class="cls-3" x="336.5" y="60.5" width="239.53" height="239.53"/><rect class="cls-3" x="336.5" y="335.5" width="239.53" height="239.53"/><rect class="cls-3" x="60.5" y="614.5" width="239.53" height="239.53"/><rect class="cls-3" x="336.5" y="614.5" width="239.53" height="239.53"/><rect class="cls-3" x="613.5" y="335.5" width="239.53" height="239.53"/><rect class="cls-3" x="613.5" y="614.5" width="239.53" height="239.53"/><rect class="cls-3" x="336.5" y="891.5" width="239.53" height="239.53"/><rect class="cls-3" x="60.5" y="891.5" width="239.53" height="239.53"/><rect class="cls-3" x="613.5" y="891.5" width="239.53" height="239.53"/><rect class="cls-3" x="613.5" y="60.5" width="239.53" height="239.53"/><rect class="cls-3" x="889.5" y="60.5" width="239.53" height="239.53"/><rect class="cls-3" x="889.5" y="335.5" width="239.53" height="239.53"/><rect class="cls-3" x="889.5" y="614.5" width="239.53" height="239.53"/><rect class="cls-3" x="889.5" y="891.5" width="239.53" height="239.53"/></g><g id="Livello_3" data-name="Livello 3"><rect class="cls-4" x="60.5" y="60.5" width="184.25" height="184.25"/><rect class="cls-4" x="281.5" y="60.5" width="184.25" height="184.25"/><rect class="cls-4" x="60.5" y="281.5" width="184.25" height="184.25"/><rect class="cls-4" x="281.5" y="281.5" width="184.25" height="184.25"/><rect class="cls-4" x="502.5" y="60.5" width="184.25" height="184.25"/><rect class="cls-4" x="502.5" y="281.5" width="184.25" height="184.25"/><rect class="cls-4" x="281.5" y="502.5" width="184.25" height="184.25"/><rect class="cls-4" x="60.5" y="502.5" width="184.25" height="184.25"/><rect class="cls-4" x="502.5" y="502.5" width="184.25" height="184.25"/><rect class="cls-4" x="502.5" y="723.5" width="184.25" height="184.25"/><rect class="cls-4" x="281.5" y="723.5" width="184.25" height="184.25"/><rect class="cls-4" x="60.5" y="723.5" width="184.25" height="184.25"/><rect class="cls-4" x="723.5" y="60.5" width="184.25" height="184.25"/><rect class="cls-4" x="723.5" y="281.5" width="184.25" height="184.25"/><rect class="cls-4" x="723.5" y="502.5" width="184.25" height="184.25"/><rect class="cls-4" x="723.5" y="723.5" width="184.25" height="184.25"/><rect class="cls-4" x="944.5" y="60.5" width="184.25" height="184.25"/><rect class="cls-4" x="944.5" y="281.5" width="184.25" height="184.25"/><rect class="cls-4" x="944.5" y="502.5" width="184.25" height="184.25"/><rect class="cls-4" x="944.5" y="723.5" width="184.25" height="184.25"/><rect class="cls-4" x="723.5" y="944.5" width="184.25" height="184.25"/><rect class="cls-4" x="944.5" y="944.5" width="184.25" height="184.25"/><rect class="cls-4" x="502.5" y="944.5" width="184.25" height="184.25"/><rect class="cls-4" x="281.5" y="944.5" width="184.25" height="184.25"/><rect class="cls-4" x="60.5" y="944.5" width="184.25" height="184.25"/></g><g id="Livello_4" data-name="Livello 4"><rect class="cls-5" x="60.5" y="60.5" width="147.4" height="147.4"/><rect class="cls-5" x="244.5" y="60.5" width="147.4" height="147.4"/><rect class="cls-5" x="60.5" y="244.5" width="147.4" height="147.4"/><rect class="cls-5" x="244.5" y="244.5" width="147.4" height="147.4"/><rect class="cls-5" x="60.5" y="428.5" width="147.4" height="147.4"/><rect class="cls-5" x="244.5" y="428.5" width="147.4" height="147.4"/><rect class="cls-5" x="428.5" y="60.5" width="147.4" height="147.4"/><rect class="cls-5" x="428.5" y="244.5" width="147.4" height="147.4"/><rect class="cls-5" x="428.5" y="428.5" width="147.4" height="147.4"/><rect class="cls-5" x="60.5" y="614.5" width="147.4" height="147.4"/><rect class="cls-5" x="244.5" y="614.5" width="147.4" height="147.4"/><rect class="cls-5" x="428.5" y="614.5" width="147.4" height="147.4"/><rect class="cls-5" x="612.5" y="60.5" width="147.4" height="147.4"/><rect class="cls-5" x="612.5" y="244.5" width="147.4" height="147.4"/><rect class="cls-5" x="612.5" y="428.5" width="147.4" height="147.4"/><rect class="cls-5" x="612.5" y="614.5" width="147.4" height="147.4"/><rect class="cls-5" x="60.5" y="798.5" width="147.4" height="147.4"/><rect class="cls-5" x="244.5" y="798.5" width="147.4" height="147.4"/><rect class="cls-5" x="428.5" y="798.5" width="147.4" height="147.4"/><rect class="cls-5" x="612.5" y="798.5" width="147.4" height="147.4"/><rect class="cls-5" x="796.5" y="60.5" width="147.4" height="147.4"/><rect class="cls-5" x="796.5" y="244.5" width="147.4" height="147.4"/><rect class="cls-5" x="796.5" y="428.5" width="147.4" height="147.4"/><rect class="cls-5" x="796.5" y="614.5" width="147.4" height="147.4"/><rect class="cls-5" x="796.5" y="798.5" width="147.4" height="147.4"/><rect class="cls-5" x="980.5" y="60.5" width="147.4" height="147.4"/><rect class="cls-5" x="980.5" y="244.5" width="147.4" height="147.4"/><rect class="cls-5" x="980.5" y="428.5" width="147.4" height="147.4"/><rect class="cls-5" x="980.5" y="614.5" width="147.4" height="147.4"/><rect class="cls-5" x="980.5" y="798.5" width="147.4" height="147.4"/><rect class="cls-5" x="60.5" y="982.5" width="147.4" height="147.4"/><rect class="cls-5" x="244.5" y="982.5" width="147.4" height="147.4"/><rect class="cls-5" x="428.5" y="982.5" width="147.4" height="147.4"/><rect class="cls-5" x="612.5" y="982.5" width="147.4" height="147.4"/><rect class="cls-5" x="796.5" y="982.5" width="147.4" height="147.4"/><rect class="cls-5" x="980.5" y="982.5" width="147.4" height="147.4"/></g><g id="Livello_5" data-name="Livello 5"><image width="4096" height="2304" transform="translate(83 60) scale(0.25)" xlink:href="../../../../PePsy/PePsy/P_20180325_164148.jpg"/></g></svg>