<svg xmlns="http://www.w3.org/2000/svg" xmlns:xlink="http://www.w3.org/1999/xlink" viewBox="0 0 1190.55 1190.55"><defs><style>.cls-1,.cls-3,.cls-4,.cls-5,.cls-6{fill:none;}.cls-2{fill:#396;}.cls-3{stroke:#000;}.cls-3,.cls-4,.cls-5,.cls-6{stroke-miterlimit:10;}.cls-4{stroke:#d00b00;}.cls-5{stroke:#c3e700;}.cls-6{stroke:#5cfffc;}.cls-7{clip-path:url(#clip-path);}</style><clipPath id="clip-path"><rect class="cls-1" x="282" y="503" width="185" height="185"/></clipPath></defs><title>889639_04</title><g id="Livello_1" data-name="Livello 1"><rect class="cls-2" width="1191" height="1191"/><rect class="cls-3" width="1191" height="1191"/></g><g id="Livello_2" data-name="Livello 2"><rect class="cls-4" x="58.5" y="58.5" width="242" height="240"/><rect class="cls-4" x="335.5" y="58.5" width="239.53" height="239.53"/><rect class="cls-4" x="614.5" y="58.5" width="239.53" height="239.53"/><rect class="cls-4" x="889.5" y="58.5" width="239.53" height="239.53"/><rect class="cls-4" x="58.5" y="336.5" width="239.53" height="239.53"/><rect class="cls-4" x="336.5" y="336.5" width="239.53" height="239.53"/><rect class="cls-4" x="613.5" y="337.5" width="239.53" height="239.53"/><rect class="cls-4" x="890.5" y="336.5" width="239.53" height="239.53"/><rect class="cls-4" x="890.5" y="613.5" width="239.53" height="239.53"/><rect class="cls-4" x="613.5" y="613.5" width="239.53" height="239.53"/><rect class="cls-4" x="336.5" y="613.5" width="239.53" height="239.53"/><rect class="cls-4" x="58.5" y="613.5" width="239.53" height="239.53"/><rect class="cls-4" x="58.5" y="889.5" width="239.53" height="239.53"/><rect class="cls-4" x="336.5" y="889.5" width="239.53" height="239.53"/><rect class="cls-4" x="613.5" y="889.5" width="239.53" height="239.53"/><rect class="cls-4" x="890.5" y="889.5" width="239.53" height="239.53"/></g><g id="Livello_3" data-name="Livello 3"><rect class="cls-5" x="58.5" y="58.5" width="184.25" height="184.25"/><rect class="cls-5" x="282.5" y="58.5" width="184.25" height="184.25"/><rect class="cls-5" x="503.5" y="58.5" width="184.25" height="184.25"/><rect class="cls-5" x="723.5" y="58.5" width="184.25" height="184.25"/><rect class="cls-5" x="945.5" y="58.5" width="184.25" height="184.25"/><rect class="cls-5" x="945.5" y="282.5" width="184.25" height="184.25"/><rect class="cls-5" x="723.5" y="282.5" width="184.25" height="184.25"/><rect class="cls-5" x="945.5" y="503.5" width="184.25" height="184.25"/><rect class="cls-5" x="723.5" y="503.5" width="184.25" height="184.25"/><rect class="cls-5" x="503.5" y="282.5" width="184.25" height="184.25"/><rect class="cls-5" x="503.5" y="503.5" width="184.25" height="184.25"/><rect class="cls-5" x="282.5" y="282.5" width="184.25" height="184.25"/><rect class="cls-5" x="282.5" y="503.5" width="184.25" height="184.25"/><rect class="cls-5" x="58.5" y="282.5" width="184.25" height="184.25"/><rect class="cls-5" x="58.5" y="503.5" width="184.25" height="184.25"/><rect class="cls-5" x="58.5" y="723.5" width="184.25" height="184.25"/><rect class="cls-5" x="58.5" y="944.5" width="184.25" height="184.25"/><rect class="cls-5" x="282.5" y="723.5" width="184.25" height="184.25"/><rect class="cls-5" x="503.5" y="723.5" width="184.25" height="184.25"/><rect class="cls-5" x="282.5" y="944.5" width="184.25" height="184.25"/><rect class="cls-5" x="503.5" y="944.5" width="184.25" height="184.25"/><rect class="cls-5" x="945.5" y="723.5" width="184.25" height="184.25"/><rect class="cls-5" x="945.5" y="944.5" width="184.25" height="184.25"/><rect class="cls-5" x="723.5" y="723.5" width="184.25" height="184.25"/><rect class="cls-5" x="723.5" y="944.5" width="184.25" height="184.25"/></g><g id="Livello_4" data-name="Livello 4"><rect class="cls-6" x="58.5" y="58.5" width="147.4" height="147.4"/><rect class="cls-6" x="242.5" y="58.5" width="147.4" height="147.4"/><rect class="cls-6" x="58.5" y="242.5" width="147.4" height="147.4"/><rect class="cls-6" x="242.5" y="242.5" width="147.4" height="147.4"/><rect class="cls-6" x="429.5" y="58.5" width="147.4" height="147.4"/><rect class="cls-6" x="613.5" y="58.5" width="147.4" height="147.4"/><rect class="cls-6" x="797.5" y="58.5" width="147.4" height="147.4"/><rect class="cls-6" x="613.5" y="242.5" width="147.4" height="147.4"/><rect class="cls-6" x="429.5" y="242.5" width="147.4" height="147.4"/><rect class="cls-6" x="797.5" y="242.5" width="147.4" height="147.4"/><rect class="cls-6" x="613.5" y="429.5" width="147.4" height="147.4"/><g id="Livello_5" data-name="Livello 5"><g class="cls-7"><image width="4096" height="2304" transform="matrix(0, 0.15, -0.18, 0, 610, 321)" xlink:href="../../../../../Pictures/PePsy/PePsy/P_20180324_163146.jpg"/></g></g><rect class="cls-6" x="429.5" y="429.5" width="147.4" height="147.4"/><rect class="cls-6" x="797.5" y="429.5" width="147.4" height="147.4"/><rect class="cls-6" x="980.5" y="429.5" width="147.4" height="147.4"/><rect class="cls-6" x="980.5" y="58.5" width="147.4" height="147.4"/><rect class="cls-6" x="980.5" y="242.5" width="147.4" height="147.4"/><rect class="cls-6" x="980.5" y="613.5" width="147.4" height="147.4"/><rect class="cls-6" x="980.5" y="797.5" width="147.4" height="147.4"/><rect class="cls-6" x="980.5" y="980.5" width="147.4" height="147.4"/><rect class="cls-6" x="613.5" y="980.5" width="147.4" height="147.4"/><rect class="cls-6" x="797.5" y="980.5" width="147.4" height="147.4"/><rect class="cls-6" x="429.5" y="980.5" width="147.4" height="147.4"/><rect class="cls-6" x="242.5" y="980.5" width="147.4" height="147.4"/><rect class="cls-6" x="242.5" y="797.5" width="147.4" height="147.4"/><rect class="cls-6" x="429.5" y="797.5" width="147.4" height="147.4"/><rect class="cls-6" x="613.5" y="797.5" width="147.4" height="147.4"/><rect class="cls-6" x="797.5" y="797.5" width="147.4" height="147.4"/><rect class="cls-6" x="797.5" y="613.5" width="147.4" height="147.4"/><rect class="cls-6" x="613.5" y="613.5" width="147.4" height="147.4"/><rect class="cls-6" x="429.5" y="613.5" width="147.4" height="147.4"/><rect class="cls-6" x="242.5" y="429.5" width="147.4" height="147.4"/><rect class="cls-6" x="242.5" y="613.5" width="147.4" height="147.4"/><rect class="cls-6" x="58.5" y="429.5" width="147.4" height="147.4"/><rect class="cls-6" x="58.5" y="613.5" width="147.4" height="147.4"/><rect class="cls-6" x="58.5" y="797.5" width="147.4" height="147.4"/><rect class="cls-6" x="58.5" y="980.5" width="147.4" height="147.4"/></g></svg>