<?xml version="1.0" encoding="utf-8"?>
<!-- Generator: Adobe Illustrator 22.0.1, SVG Export Plug-In . SVG Version: 6.00 Build 0)  -->
<svg version="1.1" xmlns="http://www.w3.org/2000/svg" xmlns:xlink="http://www.w3.org/1999/xlink" x="0px" y="0px"
	 viewBox="0 0 1190.6 1190.6" style="enable-background:new 0 0 1190.6 1190.6;" xml:space="preserve">
<style type="text/css">
	.st0{fill:#FFD366;}
	.st1{fill:none;stroke:#8441EF;stroke-miterlimit:10;}
	.st2{fill:none;stroke:#356825;stroke-miterlimit:10;}
	.st3{fill:none;stroke:#F25B19;stroke-miterlimit:10;}
</style>
<g id="Livello_1">
	<rect x="0.1" y="-0.7" class="st0" width="1192" height="1192"/>
	<g id="图层_1-2">
		<rect x="61" y="60.2" class="st1" width="239.5" height="239.5"/>
		<rect x="337.4" y="336.6" class="st1" width="239.5" height="239.5"/>
		<rect x="890.2" y="60.2" class="st1" width="239.5" height="239.5"/>
		<rect x="613.8" y="60.2" class="st1" width="239.5" height="239.5"/>
		<rect x="61" y="336.6" class="st1" width="239.5" height="239.5"/>
		<rect x="337.4" y="60.2" class="st1" width="239.5" height="239.5"/>
		<rect x="613.8" y="336.6" class="st1" width="239.5" height="239.5"/>
		<rect x="890.2" y="336.6" class="st1" width="239.5" height="239.5"/>
		<rect x="61" y="613" class="st1" width="239.5" height="239.5"/>
		<rect x="337.4" y="613" class="st1" width="239.5" height="239.5"/>
		<rect x="613.8" y="613" class="st1" width="239.5" height="239.5"/>
		<rect x="890.2" y="613" class="st1" width="239.5" height="239.5"/>
		<rect x="61" y="889.4" class="st1" width="239.5" height="239.5"/>
		<rect x="890.2" y="889.4" class="st1" width="239.5" height="239.5"/>
		<rect x="613.8" y="889.4" class="st1" width="239.5" height="239.5"/>
		<rect x="337.4" y="889.4" class="st1" width="239.5" height="239.5"/>
	</g>
	<g id="图层_2">
		<rect x="61" y="60.2" class="st2" width="184.3" height="184.3"/>
		<rect x="282.1" y="60.2" class="st2" width="184.3" height="184.3"/>
		<rect x="503.2" y="60.2" class="st2" width="184.3" height="184.3"/>
		<rect x="503.2" y="502.4" class="st2" width="184.3" height="184.3"/>
		<rect x="724.3" y="502.4" class="st2" width="184.3" height="184.3"/>
		<rect x="282.1" y="502.4" class="st2" width="184.3" height="184.3"/>
		<rect x="61" y="502.4" class="st2" width="184.3" height="184.3"/>
		<rect x="945.4" y="281.3" class="st2" width="184.3" height="184.3"/>
		<rect x="724.3" y="281.3" class="st2" width="184.3" height="184.3"/>
		<rect x="503.2" y="281.3" class="st2" width="184.3" height="184.3"/>
		<rect x="282.1" y="281.3" class="st2" width="184.3" height="184.3"/>
		<rect x="61" y="281.3" class="st2" width="184.3" height="184.3"/>
		<rect x="945.4" y="60.2" class="st2" width="184.3" height="184.3"/>
		<rect x="724.3" y="60.2" class="st2" width="184.3" height="184.3"/>
		<rect x="945.4" y="502.4" class="st2" width="184.3" height="184.3"/>
		<rect x="503.2" y="723.5" class="st2" width="184.3" height="184.3"/>
		<rect x="282.1" y="944.6" class="st2" width="184.3" height="184.3"/>
		<rect x="724.3" y="944.6" class="st2" width="184.3" height="184.3"/>
		<rect x="503.2" y="944.6" class="st2" width="184.3" height="184.3"/>
		<rect x="724.3" y="723.5" class="st2" width="184.3" height="184.3"/>
		<rect x="282.1" y="723.5" class="st2" width="184.3" height="184.3"/>
		<rect x="61" y="944.6" class="st2" width="184.3" height="184.3"/>
		<rect x="61" y="723.5" class="st2" width="184.3" height="184.3"/>
		<rect x="945.4" y="723.5" class="st2" width="184.3" height="184.3"/>
		<rect x="945.4" y="944.6" class="st2" width="184.3" height="184.3"/>
	</g>
	<g id="图层_3">
		<rect x="61" y="60.2" class="st3" width="147.4" height="147.4"/>
		<rect x="245.3" y="60.2" class="st3" width="147.4" height="147.4"/>
		<rect x="61" y="244.5" class="st3" width="147.4" height="147.4"/>
		<rect x="61" y="428.7" class="st3" width="147.4" height="147.4"/>
		<rect x="61" y="613" class="st3" width="147.4" height="147.4"/>
		<rect x="61" y="797.2" class="st3" width="147.4" height="147.4"/>
		<rect x="61" y="981.5" class="st3" width="147.4" height="147.4"/>
		<rect x="429.5" y="60.2" class="st3" width="147.4" height="147.4"/>
		<rect x="613.8" y="60.2" class="st3" width="147.4" height="147.4"/>
		<rect x="798" y="60.2" class="st3" width="147.4" height="147.4"/>
		<rect x="982.3" y="60.2" class="st3" width="147.4" height="147.4"/>
		<rect x="245.3" y="244.5" class="st3" width="147.4" height="147.4"/>
		<rect x="245.3" y="428.7" class="st3" width="147.4" height="147.4"/>
		<rect x="429.5" y="244.5" class="st3" width="147.4" height="147.4"/>
		<rect x="613.8" y="244.5" class="st3" width="147.4" height="147.4"/>
		<rect x="798" y="244.5" class="st3" width="147.4" height="147.4"/>
		<rect x="982.3" y="244.5" class="st3" width="147.4" height="147.4"/>
		<rect x="429.5" y="428.7" class="st3" width="147.4" height="147.4"/>
		<rect x="613.8" y="428.7" class="st3" width="147.4" height="147.4"/>
		<rect x="798" y="428.7" class="st3" width="147.4" height="147.4"/>
		<rect x="982.3" y="428.7" class="st3" width="147.4" height="147.4"/>
		<rect x="245.3" y="613" class="st3" width="147.4" height="147.4"/>
		<rect x="245.3" y="797.2" class="st3" width="147.4" height="147.4"/>
		<rect x="245.3" y="981.5" class="st3" width="147.4" height="147.4"/>
		<rect x="429.5" y="613" class="st3" width="147.4" height="147.4"/>
		<rect x="429.5" y="797.2" class="st3" width="147.4" height="147.4"/>
		<rect x="429.5" y="981.5" class="st3" width="147.4" height="147.4"/>
		<rect x="613.8" y="613" class="st3" width="147.4" height="147.4"/>
		<rect x="613.8" y="797.2" class="st3" width="147.4" height="147.4"/>
		<rect x="798" y="613" class="st3" width="147.4" height="147.4"/>
		<rect x="982.3" y="613" class="st3" width="147.4" height="147.4"/>
		<rect x="798" y="797.2" class="st3" width="147.4" height="147.4"/>
		<rect x="982.3" y="797.2" class="st3" width="147.4" height="147.4"/>
		<rect x="613.8" y="981.5" class="st3" width="147.4" height="147.4"/>
		<rect x="798" y="981.5" class="st3" width="147.4" height="147.4"/>
		<rect x="982.3" y="981.5" class="st3" width="147.4" height="147.4"/>
	</g>
</g>
<g id="Livello_5">
</g>
<g id="Livello_6">
	
		<image style="overflow:visible;" width="2976" height="3968" xlink:href="../889969_03.jpg"  transform="matrix(0.1238 0 0 0.13 761.1011 61.1849)">
	</image>
</g>
</svg>
