<svg id="Livello_1" data-name="Livello 1" xmlns="http://www.w3.org/2000/svg" xmlns:xlink="http://www.w3.org/1999/xlink" viewBox="0 0 1190.55 1190.55"><defs><style>.cls-1,.cls-3,.cls-4,.cls-7{fill:none;}.cls-2{fill:#f9b233;stroke:#1d1d1b;stroke-miterlimit:10;}.cls-3{stroke:#008d36;}.cls-4{stroke:#2d2e83;}.cls-5{clip-path:url(#clip-path);}.cls-6{isolation:isolate;}.cls-7{stroke:#e30613;}.cls-8{clip-path:url(#clip-path-2);}.cls-9{font-size:60px;}.cls-10,.cls-17,.cls-9{font-family:OpenSansCondensed-Bold, Open Sans Condensed;font-weight:700;}.cls-10,.cls-17{font-size:16px;}.cls-11{font-size:10px;font-family:EBGaramond-Italic, EB Garamond;font-style:italic;}.cls-12{letter-spacing:-0.01em;}.cls-13{letter-spacing:-0.02em;}.cls-14{letter-spacing:-0.02em;}.cls-15{letter-spacing:-0.03em;}.cls-16{letter-spacing:-0.02em;}.cls-17{opacity:0.98;}.cls-18{letter-spacing:0.09em;}.cls-19{letter-spacing:0.08em;}.cls-20{letter-spacing:0.02em;}.cls-21{letter-spacing:0.02em;}.cls-22{letter-spacing:0.02em;}.cls-23{letter-spacing:0.02em;}.cls-24{letter-spacing:0.43em;}.cls-25{letter-spacing:0.43em;}.cls-26{letter-spacing:0.04em;}.cls-27{letter-spacing:0.04em;}.cls-28{letter-spacing:0.02em;}.cls-29{letter-spacing:0.02em;}.cls-30{letter-spacing:0.25em;}.cls-31{letter-spacing:0.25em;}.cls-32{letter-spacing:0.27em;}.cls-33{letter-spacing:1.4em;}.cls-34{letter-spacing:0.71em;}</style><clipPath id="clip-path"><rect class="cls-1" x="60.93" y="60.93" width="147.4" height="147.4"/></clipPath><clipPath id="clip-path-2"><circle class="cls-1" cx="1009.87" cy="180.68" r="119.75"/></clipPath></defs><title>889969_07</title><rect class="cls-2" width="1190.55" height="1190.55"/><g id="griglia3"><rect class="cls-3" x="60.93" y="60.93" width="239.5" height="239.5"/><rect class="cls-3" x="337.32" y="60.93" width="239.5" height="239.5"/><rect class="cls-3" x="613.73" y="60.93" width="239.5" height="239.5"/><rect class="cls-3" x="890.12" y="60.93" width="239.5" height="239.5"/><rect class="cls-3" x="60.93" y="337.32" width="239.5" height="239.5"/><rect class="cls-3" x="337.32" y="337.32" width="239.5" height="239.5"/><rect class="cls-3" x="613.73" y="337.32" width="239.5" height="239.5"/><rect class="cls-3" x="890.12" y="337.32" width="239.5" height="239.5"/><rect class="cls-3" x="60.93" y="613.73" width="239.5" height="239.5"/><rect class="cls-3" x="337.32" y="613.73" width="239.5" height="239.5"/><rect class="cls-3" x="613.73" y="613.73" width="239.5" height="239.5"/><rect class="cls-3" x="890.12" y="613.73" width="239.5" height="239.5"/><rect class="cls-3" x="60.93" y="890.12" width="239.5" height="239.5"/><rect class="cls-3" x="337.32" y="890.12" width="239.5" height="239.5"/><rect class="cls-3" x="613.73" y="890.12" width="239.5" height="239.5"/><rect class="cls-3" x="890.12" y="890.12" width="239.5" height="239.5"/></g><g id="griglia2"><rect class="cls-4" x="60.87" y="60.87" width="184.3" height="184.3"/><rect class="cls-4" x="281.97" y="60.87" width="184.3" height="184.3"/><rect class="cls-4" x="503.07" y="60.87" width="184.3" height="184.3"/><rect class="cls-4" x="724.27" y="60.87" width="184.3" height="184.3"/><rect class="cls-4" x="945.37" y="60.87" width="184.3" height="184.3"/><rect class="cls-4" x="60.87" y="281.97" width="184.3" height="184.3"/><rect class="cls-4" x="281.97" y="281.97" width="184.3" height="184.3"/><rect class="cls-4" x="503.07" y="281.97" width="184.3" height="184.3"/><rect class="cls-4" x="724.27" y="281.97" width="184.3" height="184.3"/><rect class="cls-4" x="945.37" y="281.97" width="184.3" height="184.3"/><rect class="cls-4" x="60.87" y="503.07" width="184.3" height="184.3"/><rect class="cls-4" x="281.97" y="503.07" width="184.3" height="184.3"/><rect class="cls-4" x="503.07" y="503.07" width="184.3" height="184.3"/><rect class="cls-4" x="724.27" y="503.07" width="184.3" height="184.3"/><rect class="cls-4" x="945.37" y="503.07" width="184.3" height="184.3"/><rect class="cls-4" x="60.87" y="724.27" width="184.3" height="184.3"/><rect class="cls-4" x="281.97" y="724.27" width="184.3" height="184.3"/><rect class="cls-4" x="503.07" y="724.27" width="184.3" height="184.3"/><rect class="cls-4" x="724.27" y="724.27" width="184.3" height="184.3"/><rect class="cls-4" x="945.37" y="724.27" width="184.3" height="184.3"/><rect class="cls-4" x="60.87" y="945.37" width="184.3" height="184.3"/><rect class="cls-4" x="281.97" y="945.37" width="184.3" height="184.3"/><rect class="cls-4" x="503.07" y="945.37" width="184.3" height="184.3"/><rect class="cls-4" x="724.27" y="945.37" width="184.3" height="184.3"/><rect class="cls-4" x="945.37" y="945.37" width="184.3" height="184.3"/></g><g id="griglia1"><g class="cls-5"><image class="cls-6" width="971" height="486" transform="translate(59.52 60.93) scale(0.46)" xlink:href="889969_03.png"/></g><rect class="cls-7" x="429.43" y="60.93" width="147.4" height="147.4"/><rect class="cls-7" x="613.73" y="60.93" width="147.4" height="147.4"/><rect class="cls-7" x="798.03" y="60.93" width="147.4" height="147.4"/><rect class="cls-7" x="982.23" y="60.93" width="147.4" height="147.4"/><rect class="cls-7" x="60.93" y="245.23" width="147.4" height="147.4"/><rect class="cls-7" x="245.23" y="245.23" width="147.4" height="147.4"/><rect class="cls-7" x="429.43" y="245.23" width="147.4" height="147.4"/><rect class="cls-7" x="613.73" y="245.23" width="147.4" height="147.4"/><rect class="cls-7" x="798.03" y="245.23" width="147.4" height="147.4"/><rect class="cls-7" x="982.23" y="245.23" width="147.4" height="147.4"/><rect class="cls-7" x="60.93" y="429.43" width="147.4" height="147.4"/><rect class="cls-7" x="245.23" y="429.43" width="147.4" height="147.4"/><rect class="cls-7" x="429.43" y="429.43" width="147.4" height="147.4"/><rect class="cls-7" x="613.73" y="429.43" width="147.4" height="147.4"/><rect class="cls-7" x="798.03" y="429.43" width="147.4" height="147.4"/><rect class="cls-7" x="982.23" y="429.43" width="147.4" height="147.4"/><rect class="cls-7" x="60.93" y="613.73" width="147.4" height="147.4"/><rect class="cls-7" x="245.23" y="613.73" width="147.4" height="147.4"/><rect class="cls-7" x="429.43" y="613.73" width="147.4" height="147.4"/><rect class="cls-7" x="613.73" y="613.73" width="147.4" height="147.4"/><rect class="cls-7" x="798.03" y="613.73" width="147.4" height="147.4"/><rect class="cls-7" x="982.23" y="613.73" width="147.4" height="147.4"/><rect class="cls-7" x="60.93" y="798.03" width="147.4" height="147.4"/><rect class="cls-7" x="245.23" y="798.03" width="147.4" height="147.4"/><rect class="cls-7" x="429.43" y="798.03" width="147.4" height="147.4"/><rect class="cls-7" x="613.73" y="798.03" width="147.4" height="147.4"/><rect class="cls-7" x="798.03" y="798.03" width="147.4" height="147.4"/><rect class="cls-7" x="982.23" y="798.03" width="147.4" height="147.4"/><rect class="cls-7" x="60.93" y="982.23" width="147.4" height="147.4"/><rect class="cls-7" x="245.23" y="982.23" width="147.4" height="147.4"/><rect class="cls-7" x="429.43" y="982.23" width="147.4" height="147.4"/><rect class="cls-7" x="613.73" y="982.23" width="147.4" height="147.4"/><rect class="cls-7" x="798.03" y="982.23" width="147.4" height="147.4"/><rect class="cls-7" x="982.23" y="982.23" width="147.4" height="147.4"/></g><g class="cls-8"><image class="cls-6" width="3968" height="2976" transform="translate(777.43 0.49) scale(0.12)" xlink:href="889969_05.png"/></g><text class="cls-9" transform="translate(281.97 111.81)">Strumenti e metodi</text><text class="cls-10" transform="translate(724.27 515.23)">Lorem ipsum dolor sit amet, consectetuer adipiscing elit, sed <tspan x="0" y="24">diam nonummy nibh euismod tincidunt ut laoreet dolore </tspan><tspan x="0" y="48">magna aliquam erat volutpat. Ut wisi enim ad minim veniam, </tspan><tspan x="0" y="72">quis nostrud exerci tation ullamcorper suscipit lobortis nisl ut </tspan><tspan x="0" y="96">aliquip ex ea commodo consequat. Duis autem vel eum iriure </tspan><tspan x="0" y="120">dolor in hendrerit in vulputate velit esse molestie consequat, </tspan><tspan x="0" y="144">vel illum dolore eu feugiat nulla facilisis at vero eros et accum</tspan><tspan x="390.15" y="144">-</tspan><tspan x="0" y="168">san et iusto odio dignissim qui blandit praesent luptatum zzril </tspan><tspan x="0" y="192">delenit augue duis dolore te feugait nulla facilisi.</tspan><tspan x="0" y="216">Lorem ipsum dolor sit amet, cons ectetuer adipiscing elit, sed </tspan><tspan x="0" y="240">diam nonummy nibh euismod tincidunt ut laoreet dolore </tspan><tspan x="0" y="264">magna aliquam erat volutpat. Ut wisi enim ad minim veniam, </tspan><tspan x="0" y="288">quis nostrud exerci tation ullamcorper suscipit lobortis nisl ut </tspan><tspan x="0" y="312">aliquip ex ea commodo consequat.</tspan><tspan x="0" y="336">Lorem ipsum dolor sit amet, consectetuer adipiscing elit, sed </tspan><tspan x="0" y="360">diam nonummy nibh euismod tincidunt ut laoreet dolore </tspan><tspan x="0" y="384">magna aliquam erat volutpat. Ut wisi enim ad minim veniam, </tspan><tspan x="0" y="408">quis nostrud exerci tation ullamcorper suscipit lobortis nisl ut </tspan><tspan x="0" y="432">aliquip ex ea commodo consequat. Duis autem vel eum iriure </tspan><tspan x="0" y="456">dolor in hendrerit in vulputate velit esse molestie consequat, </tspan><tspan x="0" y="480">vel illum dolore eu feugiat nulla facilisis at vero eros et accum</tspan><tspan x="390.15" y="480">-</tspan><tspan x="0" y="504">san et iusto odio dignissim qui blandit praesent luptatum zzril </tspan><tspan x="0" y="528">delenit augue duis dolore te feugait nulla facilisi.</tspan><tspan x="0" y="552">Lorem ipsum dolor sit amet, cons ectetuer adipiscing elit, sed </tspan><tspan x="0" y="576">diam nonummy nibh euismod tincidunt ut laoreet dolore </tspan><tspan x="0" y="600">magna aliquam erat volutpat. Ut wisi enim ad minim veniam, </tspan></text><text class="cls-11" transform="translate(890.12 349.59)">Lorem <tspan class="cls-12" x="26.72" y="0">i</tspan><tspan x="29.51" y="0">ps</tspan><tspan class="cls-12" x="36.66" y="0">u</tspan><tspan x="41.6" y="0">m d</tspan><tspan class="cls-13" x="56.65" y="0">o</tspan><tspan x="60.25" y="0">lor sit </tspan><tspan class="cls-14" x="83.32" y="0">a</tspan><tspan x="88.03" y="0">met, </tspan><tspan class="cls-12" x="106.4" y="0">c</tspan><tspan x="109.38" y="0">onsectet</tspan><tspan class="cls-13" x="137" y="0">u</tspan><tspan x="141.89" y="0">er ad</tspan><tspan class="cls-12" x="161.16" y="0">i</tspan><tspan x="163.95" y="0">pisc</tspan><tspan class="cls-12" x="177.17" y="0">i</tspan><tspan x="179.96" y="0">ng </tspan><tspan class="cls-15" x="191.38" y="0">e</tspan><tspan x="194.53" y="0">lit, sed di</tspan><tspan class="cls-14" x="228.83" y="0">a</tspan><tspan x="233.54" y="0">m </tspan><tspan x="0" y="24">non</tspan><tspan class="cls-12" x="14.34" y="24">u</tspan><tspan class="cls-13" x="19.28" y="24">mm</tspan><tspan x="34.66" y="24">y n</tspan><tspan class="cls-15" x="45.98" y="24">i</tspan><tspan class="cls-14" x="48.67" y="24">b</tspan><tspan x="52.96" y="24">h euismod t</tspan><tspan class="cls-12" x="95.81" y="24">i</tspan><tspan x="98.6" y="24">nc</tspan><tspan class="cls-13" x="107" y="24">i</tspan><tspan x="109.74" y="24">d</tspan><tspan class="cls-12" x="114.9" y="24">u</tspan><tspan x="119.84" y="24">nt ut laoreet d</tspan><tspan class="cls-14" x="172.3" y="24">o</tspan><tspan x="175.9" y="24">lore magna </tspan></text><text class="cls-11" transform="translate(60.93 248.21)">Lorem <tspan class="cls-12" x="26.72" y="0">i</tspan><tspan x="29.51" y="0">ps</tspan><tspan class="cls-12" x="36.66" y="0">u</tspan><tspan x="41.6" y="0">m d</tspan><tspan class="cls-13" x="56.65" y="0">o</tspan><tspan x="60.25" y="0">lor sit </tspan><tspan class="cls-14" x="83.32" y="0">a</tspan><tspan x="88.03" y="0">met, </tspan><tspan class="cls-12" x="106.4" y="0">c</tspan><tspan x="109.38" y="0">onsecte</tspan><tspan x="134.08" y="0">-</tspan><tspan x="0" y="24">t</tspan><tspan class="cls-14" x="2.92" y="24">u</tspan><tspan x="7.81" y="24">er ad</tspan><tspan class="cls-16" x="27.08" y="24">i</tspan><tspan x="29.87" y="24">pisc</tspan><tspan class="cls-12" x="43.09" y="24">i</tspan><tspan x="45.88" y="24">ng </tspan><tspan class="cls-15" x="57.3" y="24">e</tspan><tspan x="60.46" y="24">lit, sed di</tspan><tspan class="cls-14" x="94.76" y="24">a</tspan><tspan x="99.47" y="24">m non</tspan><tspan class="cls-12" x="123.7" y="24">u</tspan><tspan x="128.64" y="24">m</tspan><tspan x="136.53" y="24">-</tspan></text><text class="cls-17" transform="translate(386.19 369.16)">Lorem<tspan class="cls-18" x="39.5" y="0"> </tspan><tspan x="44.81" y="0">ipsum</tspan><tspan class="cls-19" x="83.13" y="0"> </tspan><tspan x="88.45" y="0">dolor</tspan><tspan class="cls-18" x="121.41" y="0"> </tspan><tspan x="126.72" y="0">sit </tspan><tspan x="-22.87" y="22">amet,</tspan><tspan class="cls-20" x="13.88" y="22"> </tspan><tspan x="18.19" y="22">consectetuer</tspan><tspan class="cls-21" x="98.02" y="22"> </tspan><tspan x="102.32" y="22">adipiscing </tspan><tspan x="-36.78" y="44">elit,</tspan><tspan class="cls-22" x="-12.22" y="44"> </tspan><tspan x="-7.99" y="44">sed</tspan><tspan class="cls-23" x="13.3" y="44"> </tspan><tspan x="17.53" y="44">diam</tspan><tspan class="cls-22" x="49.22" y="44"> </tspan><tspan x="53.46" y="44">nonummy</tspan><tspan class="cls-23" x="117.65" y="44"> </tspan><tspan x="121.89" y="44">nibh</tspan><tspan class="cls-22" x="149.92" y="44"> </tspan><tspan x="154.15" y="44">eui</tspan><tspan x="173.5" y="44">-</tspan><tspan x="-44.97" y="66">smod</tspan><tspan class="cls-24" x="-10.72" y="66"> </tspan><tspan x="0.03" y="66">tincidunt</tspan><tspan class="cls-25" x="56.36" y="66"> </tspan><tspan x="67.11" y="66">ut</tspan><tspan class="cls-24" x="80.41" y="66"> </tspan><tspan x="91.17" y="66">laoreet</tspan><tspan class="cls-24" x="135.66" y="66"> </tspan><tspan x="146.41" y="66">dolore </tspan><tspan x="-48.6" y="88">magna</tspan><tspan class="cls-26" x="-5.82" y="88"> </tspan><tspan x="-1.19" y="88">aliquam</tspan><tspan class="cls-27" x="49.9" y="88"> </tspan><tspan x="54.53" y="88">erat</tspan><tspan class="cls-26" x="79.94" y="88"> </tspan><tspan x="84.57" y="88">volutpat.</tspan><tspan class="cls-27" x="141.64" y="88"> </tspan><tspan x="146.27" y="88">Ut</tspan><tspan class="cls-26" x="160.45" y="88"> </tspan><tspan x="165.08" y="88">wisi </tspan><tspan x="-46.41" y="110">enim</tspan><tspan class="cls-28" x="-14.65" y="110"> </tspan><tspan x="-10.35" y="110">ad</tspan><tspan class="cls-28" x="5.06" y="110"> </tspan><tspan x="9.36" y="110">minim</tspan><tspan class="cls-29" x="50.05" y="110"> </tspan><tspan x="54.36" y="110">veniam,</tspan><tspan class="cls-28" x="105.04" y="110"> </tspan><tspan x="109.34" y="110">quis</tspan><tspan class="cls-28" x="135.25" y="110"> </tspan><tspan x="139.55" y="110">nostrud </tspan><tspan x="-39.57" y="132">exerci</tspan><tspan class="cls-30" x="-2.7" y="132"> </tspan><tspan x="5.25" y="132">tation</tspan><tspan class="cls-31" x="42.98" y="132"> </tspan><tspan x="50.94" y="132">ullamcorper</tspan><tspan class="cls-30" x="126.49" y="132"> </tspan><tspan x="134.45" y="132">suscipit </tspan><tspan x="-27.44" y="154">lobortis</tspan><tspan class="cls-32" x="20.56" y="154"> </tspan><tspan x="28.85" y="154">nisl</tspan><tspan class="cls-32" x="50.63" y="154"> </tspan><tspan x="58.92" y="154">ut</tspan><tspan class="cls-32" x="72.21" y="154"> </tspan><tspan x="80.49" y="154">aliquip</tspan><tspan class="cls-32" x="123.52" y="154"> </tspan><tspan x="131.8" y="154">ex</tspan><tspan class="cls-32" x="146.1" y="154"> </tspan><tspan x="154.38" y="154">ea </tspan><tspan x="-7.67" y="176">commodo</tspan><tspan class="cls-33" x="54.75" y="176"> </tspan><tspan x="81.12" y="176">consequat. </tspan><tspan x="29.48" y="198">Duis</tspan><tspan class="cls-34" x="56.38" y="198"> </tspan><tspan x="71.75" y="198">autem </tspan></text></svg>