<?xml version="1.0" encoding="utf-8"?>
<!-- Generator: Adobe Illustrator 22.0.1, SVG Export Plug-In . SVG Version: 6.00 Build 0)  -->
<svg version="1.1" xmlns="http://www.w3.org/2000/svg" xmlns:xlink="http://www.w3.org/1999/xlink" x="0px" y="0px"
	 viewBox="0 0 1190.6 1190.6" style="enable-background:new 0 0 1190.6 1190.6;" xml:space="preserve">
<style type="text/css">
	.st0{fill:url(#SVGID_1_);}
	.st1{fill:none;stroke:#FF0000;stroke-miterlimit:10;}
	.st2{fill:none;stroke:#006837;stroke-miterlimit:10;}
	.st3{fill:none;stroke:#1B1464;stroke-miterlimit:10;}
</style>
<g id="Livello_1">
	<linearGradient id="SVGID_1_" gradientUnits="userSpaceOnUse" x1="595.2756" y1="0" x2="595.2756" y2="1190.5511">
		<stop  offset="9.914436e-08" style="stop-color:#FBB081"/>
		<stop  offset="1" style="stop-color:#FBB081;stop-opacity:0"/>
	</linearGradient>
	<rect class="st0" width="1190.6" height="1190.6"/>
</g>
<g id="Livello_2">
	<rect x="60.9" y="61.6" class="st1" width="239.5" height="239.5"/>
	<rect x="337.3" y="60.9" class="st1" width="239.5" height="239.5"/>
	<rect x="60.9" y="338" class="st1" width="239.5" height="239.5"/>
	<rect x="60.9" y="614.3" class="st1" width="239.5" height="239.5"/>
	<rect x="60.9" y="890.1" class="st1" width="239.5" height="239.5"/>
	<rect x="337.3" y="614.6" class="st1" width="239.5" height="239.5"/>
	<rect x="337.3" y="338.6" class="st1" width="239.5" height="239.5"/>
	<rect x="337.3" y="890.1" class="st1" width="239.5" height="239.5"/>
	<rect x="613.7" y="60.9" class="st1" width="239.5" height="239.5"/>
	<rect x="613.7" y="338" class="st1" width="239.5" height="239.5"/>
	<rect x="613.7" y="614.3" class="st1" width="239.5" height="239.5"/>
	<rect x="613.7" y="890.1" class="st1" width="239.5" height="239.5"/>
	<rect x="890.1" y="60.9" class="st1" width="239.5" height="239.5"/>
	<rect x="890.1" y="338" class="st1" width="239.5" height="239.5"/>
	<rect x="890.1" y="614.3" class="st1" width="239.5" height="239.5"/>
	<rect x="890.1" y="890.7" class="st1" width="239.5" height="239.5"/>
</g>
<g id="Livello_3">
	<rect x="60.9" y="60.9" class="st2" width="184.3" height="184.3"/>
	<rect x="60.9" y="282" class="st2" width="184.3" height="184.3"/>
	<rect x="282" y="60.9" class="st2" width="184.3" height="184.3"/>
	<rect x="282" y="282" class="st2" width="184.3" height="184.3"/>
	<rect x="282" y="503.4" class="st2" width="184.3" height="184.3"/>
	<rect x="60.9" y="503.4" class="st2" width="184.3" height="184.3"/>
	<rect x="503.9" y="60.9" class="st2" width="184.3" height="184.3"/>
	<rect x="503.9" y="282" class="st2" width="184.3" height="184.3"/>
	<rect x="503.9" y="503.4" class="st2" width="184.3" height="184.3"/>
	<rect x="60.9" y="724.7" class="st2" width="184.3" height="184.3"/>
	<rect x="282" y="724.7" class="st2" width="184.3" height="184.3"/>
	<rect x="503.9" y="724.7" class="st2" width="184.3" height="184.3"/>
	<rect x="724.2" y="60.9" class="st2" width="184.3" height="184.3"/>
	<rect x="725" y="282" class="st2" width="184.3" height="184.3"/>
	
		<rect x="725" y="503.1" transform="matrix(-1.836970e-16 1 -1 -1.836970e-16 1412.4463 -221.8951)" class="st2" width="184.3" height="184.3"/>
	<rect x="725" y="724.5" class="st2" width="184.3" height="184.3"/>
	<rect x="946.1" y="60.9" class="st2" width="184.3" height="184.3"/>
	<rect x="946.1" y="282" class="st2" width="184.3" height="184.3"/>
	<rect x="946.1" y="503.4" class="st2" width="184.3" height="184.3"/>
	<rect x="946.1" y="724.7" class="st2" width="184.3" height="184.3"/>
	<rect x="60.9" y="945.4" class="st2" width="184.3" height="184.3"/>
	<rect x="282" y="945.4" class="st2" width="184.3" height="184.3"/>
	<rect x="503.1" y="945.4" class="st2" width="184.3" height="184.3"/>
	<rect x="725" y="945.4" class="st2" width="184.3" height="184.3"/>
	<rect x="946.1" y="945.4" class="st2" width="184.3" height="184.3"/>
</g>
<g id="Livello_4">
	<rect x="60.9" y="60.9" class="st3" width="147.4" height="147.4"/>
	<rect x="60.9" y="245.2" class="st3" width="147.4" height="147.4"/>
	<rect x="60.9" y="429.4" class="st3" width="147.4" height="147.4"/>
	<rect x="60.9" y="613.7" class="st3" width="147.4" height="147.4"/>
	
		<rect x="60.9" y="798" transform="matrix(6.123234e-17 -1 1 6.123234e-17 -737.0092 1006.298)" class="st3" width="147.4" height="147.4"/>
	<rect x="60.9" y="982.2" class="st3" width="147.4" height="147.4"/>
	<rect x="245.2" y="60.9" class="st3" width="147.4" height="147.4"/>
	<rect x="245.2" y="245.2" class="st3" width="147.4" height="147.4"/>
	<rect x="245.2" y="429.4" class="st3" width="147.4" height="147.4"/>
	<rect x="245.2" y="613.7" class="st3" width="147.4" height="147.4"/>
	<rect x="245.2" y="798" class="st3" width="147.4" height="147.4"/>
	<rect x="245.2" y="982.2" class="st3" width="147.4" height="147.4"/>
	<rect x="429.4" y="60.9" class="st3" width="147.4" height="147.4"/>
	<rect x="429.4" y="245.2" class="st3" width="147.4" height="147.4"/>
	<rect x="429.4" y="429.4" class="st3" width="147.4" height="147.4"/>
	<rect x="429.4" y="982.2" class="st3" width="147.4" height="147.4"/>
	<rect x="429.4" y="613.7" class="st3" width="147.4" height="147.4"/>
	<rect x="429.4" y="798" class="st3" width="147.4" height="147.4"/>
	<rect x="982.2" y="60.9" class="st3" width="147.4" height="147.4"/>
	<rect x="613.7" y="60.9" class="st3" width="147.4" height="147.4"/>
	<rect x="613.7" y="245.2" class="st3" width="147.4" height="147.4"/>
	<rect x="613.7" y="429.5" class="st3" width="147.4" height="147.4"/>
	<rect x="613.7" y="613.7" class="st3" width="147.4" height="147.4"/>
	<rect x="613.7" y="798" class="st3" width="147.4" height="147.4"/>
	<rect x="613.7" y="982.2" class="st3" width="147.4" height="147.4"/>
	<rect x="797.9" y="982.2" class="st3" width="147.4" height="147.4"/>
	<rect x="797.9" y="245.2" class="st3" width="147.4" height="147.4"/>
	<rect x="797.9" y="60.9" class="st3" width="147.4" height="147.4"/>
	<rect x="982.2" y="245.2" class="st3" width="147.4" height="147.4"/>
	<rect x="797.9" y="429.5" class="st3" width="147.4" height="147.4"/>
	<rect x="797.9" y="613.7" class="st3" width="147.4" height="147.4"/>
	<rect x="797.9" y="798" class="st3" width="147.4" height="147.4"/>
	<rect x="982.2" y="429.4" class="st3" width="147.4" height="147.4"/>
	<rect x="982.2" y="613.7" class="st3" width="147.4" height="147.4"/>
	<rect x="982.2" y="798" class="st3" width="147.4" height="147.4"/>
	<rect x="982.2" y="982.2" class="st3" width="147.4" height="147.4"/>
</g>
<g id="Livello_5">
</g>
<g id="Livello_6">
	
		<image style="overflow:visible;" width="2976" height="3968" xlink:href="../889969_03.jpg"  transform="matrix(0.1238 0 0 0.13 761.1011 61.1849)">
	</image>
</g>
</svg>
