<?xml version="1.0" encoding="utf-8"?>
<!-- Generator: Adobe Illustrator 22.0.1, SVG Export Plug-In . SVG Version: 6.00 Build 0)  -->
<svg version="1.1" xmlns="http://www.w3.org/2000/svg" xmlns:xlink="http://www.w3.org/1999/xlink" x="0px" y="0px"
	 viewBox="0 0 1190.6 1190.6" style="enable-background:new 0 0 1190.6 1190.6;" xml:space="preserve">
<style type="text/css">
	.st0{fill:#FFD366;}
	.st1{fill:none;stroke:#8441EF;stroke-miterlimit:10;}
	.st2{fill:none;stroke:#356825;stroke-miterlimit:10;}
	.st3{fill:none;stroke:#F25B19;stroke-miterlimit:10;}
	.st4{clip-path:url(#SVGID_2_);}
</style>
<g id="Livello_1">
	<rect x="-0.7" y="-0.7" class="st0" width="1192" height="1192"/>
	<g id="图层_1-2">
		<rect x="60.2" y="60.2" class="st1" width="239.5" height="239.5"/>
		<rect x="336.6" y="336.6" class="st1" width="239.5" height="239.5"/>
		<rect x="889.4" y="60.2" class="st1" width="239.5" height="239.5"/>
		<rect x="613" y="60.2" class="st1" width="239.5" height="239.5"/>
		<rect x="60.2" y="336.6" class="st1" width="239.5" height="239.5"/>
		<rect x="336.6" y="60.2" class="st1" width="239.5" height="239.5"/>
		<rect x="613" y="336.6" class="st1" width="239.5" height="239.5"/>
		<rect x="889.4" y="336.6" class="st1" width="239.5" height="239.5"/>
		<rect x="60.2" y="613" class="st1" width="239.5" height="239.5"/>
		<rect x="336.6" y="613" class="st1" width="239.5" height="239.5"/>
		<rect x="613" y="613" class="st1" width="239.5" height="239.5"/>
		<rect x="889.4" y="613" class="st1" width="239.5" height="239.5"/>
		<rect x="60.2" y="889.4" class="st1" width="239.5" height="239.5"/>
		<rect x="889.4" y="889.4" class="st1" width="239.5" height="239.5"/>
		<rect x="613" y="889.4" class="st1" width="239.5" height="239.5"/>
		<rect x="336.6" y="889.4" class="st1" width="239.5" height="239.5"/>
	</g>
	<g id="图层_2">
		<rect x="60.2" y="60.2" class="st2" width="184.3" height="184.3"/>
		<rect x="281.3" y="60.2" class="st2" width="184.3" height="184.3"/>
		<rect x="502.4" y="60.2" class="st2" width="184.3" height="184.3"/>
		<rect x="502.4" y="502.4" class="st2" width="184.3" height="184.3"/>
		<rect x="723.5" y="502.4" class="st2" width="184.3" height="184.3"/>
		<rect x="281.3" y="502.4" class="st2" width="184.3" height="184.3"/>
		<rect x="60.2" y="502.4" class="st2" width="184.3" height="184.3"/>
		<rect x="944.6" y="281.3" class="st2" width="184.3" height="184.3"/>
		<rect x="723.5" y="281.3" class="st2" width="184.3" height="184.3"/>
		<rect x="502.4" y="281.3" class="st2" width="184.3" height="184.3"/>
		<rect x="281.3" y="281.3" class="st2" width="184.3" height="184.3"/>
		<rect x="60.2" y="281.3" class="st2" width="184.3" height="184.3"/>
		<rect x="944.6" y="60.2" class="st2" width="184.3" height="184.3"/>
		<rect x="723.5" y="60.2" class="st2" width="184.3" height="184.3"/>
		<rect x="944.6" y="502.4" class="st2" width="184.3" height="184.3"/>
		<rect x="502.4" y="723.5" class="st2" width="184.3" height="184.3"/>
		<rect x="281.3" y="944.6" class="st2" width="184.3" height="184.3"/>
		<rect x="723.5" y="944.6" class="st2" width="184.3" height="184.3"/>
		<rect x="502.4" y="944.6" class="st2" width="184.3" height="184.3"/>
		<rect x="723.5" y="723.5" class="st2" width="184.3" height="184.3"/>
		<rect x="281.3" y="723.5" class="st2" width="184.3" height="184.3"/>
		<rect x="60.2" y="944.6" class="st2" width="184.3" height="184.3"/>
		<rect x="60.2" y="723.5" class="st2" width="184.3" height="184.3"/>
		<rect x="944.6" y="723.5" class="st2" width="184.3" height="184.3"/>
		<rect x="944.6" y="944.6" class="st2" width="184.3" height="184.3"/>
	</g>
	<g id="图层_3">
		<rect x="60.2" y="60.2" class="st3" width="147.4" height="147.4"/>
		<rect x="244.5" y="60.2" class="st3" width="147.4" height="147.4"/>
		<rect x="60.2" y="244.5" class="st3" width="147.4" height="147.4"/>
		<rect x="60.2" y="428.7" class="st3" width="147.4" height="147.4"/>
		<rect x="60.2" y="613" class="st3" width="147.4" height="147.4"/>
		<rect x="60.2" y="797.2" class="st3" width="147.4" height="147.4"/>
		<rect x="60.2" y="981.5" class="st3" width="147.4" height="147.4"/>
		<rect x="428.7" y="60.2" class="st3" width="147.4" height="147.4"/>
		<rect x="613" y="60.2" class="st3" width="147.4" height="147.4"/>
		<rect x="797.2" y="60.2" class="st3" width="147.4" height="147.4"/>
		<rect x="981.5" y="60.2" class="st3" width="147.4" height="147.4"/>
		<rect x="244.5" y="244.5" class="st3" width="147.4" height="147.4"/>
		<rect x="244.5" y="428.7" class="st3" width="147.4" height="147.4"/>
		<rect x="428.7" y="244.5" class="st3" width="147.4" height="147.4"/>
		<rect x="613" y="244.5" class="st3" width="147.4" height="147.4"/>
		<rect x="797.2" y="244.5" class="st3" width="147.4" height="147.4"/>
		<rect x="981.5" y="244.5" class="st3" width="147.4" height="147.4"/>
		<rect x="428.7" y="428.7" class="st3" width="147.4" height="147.4"/>
		<rect x="613" y="428.7" class="st3" width="147.4" height="147.4"/>
		<rect x="797.2" y="428.7" class="st3" width="147.4" height="147.4"/>
		<rect x="981.5" y="428.7" class="st3" width="147.4" height="147.4"/>
		<rect x="244.5" y="613" class="st3" width="147.4" height="147.4"/>
		<rect x="244.5" y="797.2" class="st3" width="147.4" height="147.4"/>
		<rect x="244.5" y="981.5" class="st3" width="147.4" height="147.4"/>
		<rect x="428.7" y="613" class="st3" width="147.4" height="147.4"/>
		<rect x="428.7" y="797.2" class="st3" width="147.4" height="147.4"/>
		<rect x="428.7" y="981.5" class="st3" width="147.4" height="147.4"/>
		<rect x="613" y="613" class="st3" width="147.4" height="147.4"/>
		<rect x="613" y="797.2" class="st3" width="147.4" height="147.4"/>
		<rect x="797.2" y="613" class="st3" width="147.4" height="147.4"/>
		<rect x="981.5" y="613" class="st3" width="147.4" height="147.4"/>
		<rect x="797.2" y="797.2" class="st3" width="147.4" height="147.4"/>
		<rect x="981.5" y="797.2" class="st3" width="147.4" height="147.4"/>
		<rect x="613" y="981.5" class="st3" width="147.4" height="147.4"/>
		<rect x="797.2" y="981.5" class="st3" width="147.4" height="147.4"/>
		<rect x="981.5" y="981.5" class="st3" width="147.4" height="147.4"/>
	</g>
</g>
<g id="Livello_5">
</g>
<g id="Livello_6">
</g>
<g id="Livello_7">
	<g>
		<defs>
			<rect id="SVGID_1_" x="890.1" y="890.1" width="239.5" height="239.5"/>
		</defs>
		<clipPath id="SVGID_2_">
			<use xlink:href="#SVGID_1_"  style="overflow:visible;"/>
		</clipPath>
		<g class="st4">
			<defs>
				<rect id="SVGID_3_" x="863" y="816.4" width="386.9" height="515.9"/>
			</defs>
			<clipPath id="SVGID_4_">
				<use xlink:href="#SVGID_3_"  style="overflow:visible;"/>
			</clipPath>
			<g style="clip-path:url(#SVGID_4_);">
				
					<image style="overflow:visible;" width="2976" height="3968" xlink:href="../889969_03.jpg"  transform="matrix(0.13 0 0 0.13 862.9883 816.3824)">
				</image>
			</g>
		</g>
	</g>
</g>
<g id="Livello_8">
</g>
<g id="Livello_9">
	<g>
		<defs>
			<circle id="SVGID_5_" cx="752.1" cy="200.1" r="137.9"/>
		</defs>
		<clipPath id="SVGID_6_">
			<use xlink:href="#SVGID_5_"  style="overflow:visible;"/>
		</clipPath>
		<g style="clip-path:url(#SVGID_6_);">
			
				<image style="overflow:visible;" width="6000" height="4000" xlink:href="../889969_05.JPG"  transform="matrix(6.944698e-02 0 0 6.944698e-02 613.618 60.747)">
			</image>
		</g>
	</g>
</g>
</svg>
