<?xml version="1.0" encoding="utf-8"?>
<!-- Generator: Adobe Illustrator 21.0.0, SVG Export Plug-In . SVG Version: 6.00 Build 0)  -->
<svg version="1.1" id="Livello_1" xmlns="http://www.w3.org/2000/svg" xmlns:xlink="http://www.w3.org/1999/xlink" x="0px" y="0px"
	 viewBox="0 0 1190.6 1190.6" style="enable-background:new 0 0 1190.6 1190.6;" xml:space="preserve">
<style type="text/css">
	.st0{fill:#967550;}
	.st1{fill:none;stroke:#01010A;stroke-miterlimit:10;}
	.st2{fill:none;}
	.st3{font-family:'OpenSans-Light';}
	.st4{font-size:12px;}
	.st5{fill:none;stroke:#A8C4D3;stroke-miterlimit:10;}
	.st6{font-family:'OpenSans-Bold';}
	.st7{font-size:60px;}
	.st8{fill:none;stroke:#E5EEE1;stroke-miterlimit:10;}
	.st9{clip-path:url(#SVGID_2_);}
	.st10{clip-path:url(#SVGID_4_);}
	.st11{font-family:'EBGaramond-Italic';}
	.st12{font-size:10px;}
</style>
<rect x="-0.1" y="-0.6" class="st0" width="1191.2" height="1191.8"/>
<rect x="57.8" y="64.5" class="st1" width="239.5" height="239.5"/>
<rect x="612.7" y="64.5" class="st1" width="239.5" height="239.5"/>
<rect x="334.9" y="64.6" class="st1" width="239.5" height="239.5"/>
<rect x="889.4" y="64.5" class="st1" width="239.5" height="239.5"/>
<rect x="57.8" y="341.8" class="st1" width="239.5" height="239.5"/>
<rect x="278.9" y="213.1" class="st2" width="182.6" height="258.1"/>
<text transform="matrix(1 0 0 1 278.89 222.2021)"><tspan x="0" y="0" class="st3 st4">Lorem ipsum dolor sit amet, </tspan><tspan x="0" y="24" class="st3 st4">consectetuer adipiscing elit, sed </tspan><tspan x="0" y="48" class="st3 st4">diam nonummy nibh euismod </tspan><tspan x="0" y="72" class="st3 st4">tincidunt ut laoreet dolore magna </tspan><tspan x="0" y="96" class="st3 st4">aliquam erat volutpat. Ut wisi </tspan><tspan x="0" y="120" class="st3 st4">enim ad minim veniam, quis </tspan><tspan x="0" y="144" class="st3 st4">nostrud exerci tation ullamcorper </tspan><tspan x="0" y="168" class="st3 st4">suscipit lobortis nisl ut aliquip ex </tspan><tspan x="0" y="192" class="st3 st4">ea commodo consequat. Donse</tspan><tspan x="171.6" y="192" class="st3 st4">-</tspan><tspan x="0" y="216" class="st3 st4">quat, vel illum dolore eu feugiat </tspan><tspan x="0" y="240" class="st3 st4">nulla facilisis at vero eros </tspan></text>
<rect x="334.9" y="342" class="st1" width="239.5" height="239.5"/>
<rect x="889.4" y="342.2" class="st1" width="239.5" height="239.5"/>
<rect x="57.8" y="618.1" class="st1" width="239.5" height="239.5"/>
<rect x="612.7" y="618.1" class="st1" width="239.5" height="239.5"/>
<rect x="334.9" y="618.3" class="st1" width="239.5" height="239.5"/>
<rect x="889.4" y="618.1" class="st1" width="239.5" height="239.5"/>
<rect x="57.8" y="894.5" class="st1" width="239.5" height="239.5"/>
<rect x="612.7" y="894.5" class="st1" width="239.5" height="239.5"/>
<rect x="334.9" y="894.5" class="st1" width="239.5" height="239.5"/>
<rect x="889.4" y="894.4" class="st1" width="239.5" height="239.5"/>
<rect x="57.8" y="64.5" class="st5" width="147.4" height="147.4"/>
<rect x="242" y="64.5" class="st5" width="147.4" height="147.4"/>
<rect x="427.8" y="64.5" class="st5" width="147.4" height="147.4"/>
<rect x="276.3" y="66.7" class="st2" width="465.2" height="67.6"/>
<text transform="matrix(1 0 0 1 276.3392 112.33)" class="st6 st7">Lorem ipsum </text>
<rect x="797.3" y="64.5" class="st5" width="147.4" height="147.4"/>
<rect x="981.5" y="64.5" class="st5" width="147.4" height="147.4"/>
<rect x="57.8" y="248.8" class="st5" width="147.4" height="147.4"/>
<rect x="242" y="248.8" class="st5" width="147.4" height="147.4"/>
<rect x="427.8" y="248.8" class="st5" width="147.4" height="147.4"/>
<rect x="613.1" y="248.8" class="st5" width="147.4" height="147.4"/>
<rect x="797.3" y="248.8" class="st5" width="147.4" height="147.4"/>
<rect x="981.5" y="248.8" class="st5" width="147.4" height="147.4"/>
<rect x="57.8" y="433.9" class="st5" width="147.4" height="147.4"/>
<rect x="242" y="434.1" class="st5" width="147.4" height="147.4"/>
<rect x="427.8" y="434.1" class="st5" width="147.4" height="147.4"/>
<rect x="613.1" y="434.3" class="st5" width="147.4" height="147.4"/>
<rect x="797.3" y="434.3" class="st5" width="147.4" height="147.4"/>
<rect x="981.5" y="434.3" class="st5" width="147.4" height="147.4"/>
<rect x="57.8" y="618.1" class="st5" width="147.4" height="147.4"/>
<rect x="242" y="618.4" class="st5" width="147.4" height="147.4"/>
<rect x="427.1" y="618.4" class="st5" width="147.4" height="147.4"/>
<rect x="612.7" y="618.1" class="st5" width="147.4" height="147.4"/>
<rect x="797.3" y="618.1" class="st5" width="147.4" height="147.4"/>
<rect x="981.5" y="618.1" class="st5" width="147.4" height="147.4"/>
<rect x="57.8" y="802.3" class="st5" width="147.4" height="147.4"/>
<rect x="242" y="802.3" class="st5" width="147.4" height="147.4"/>
<rect x="427.1" y="802.3" class="st5" width="147.4" height="147.4"/>
<rect x="612.7" y="802.3" class="st5" width="147.4" height="147.4"/>
<rect x="797.3" y="802.3" class="st5" width="147.4" height="147.4"/>
<rect x="981.5" y="802.3" class="st5" width="147.4" height="147.4"/>
<rect x="57.8" y="986.6" class="st5" width="147.4" height="147.4"/>
<rect x="242" y="986.6" class="st5" width="147.4" height="147.4"/>
<rect x="427.1" y="986.6" class="st5" width="147.4" height="147.4"/>
<rect x="612.7" y="986.6" class="st5" width="147.4" height="147.4"/>
<rect x="797.3" y="986.6" class="st5" width="147.4" height="147.4"/>
<rect x="981.5" y="986.6" class="st5" width="147.4" height="147.4"/>
<rect x="57.8" y="64.5" class="st8" width="184.3" height="184.3"/>
<rect x="944.7" y="64.5" class="st8" width="184.3" height="184.3"/>
<rect x="724.2" y="64.5" class="st8" width="184.3" height="184.3"/>
<rect x="502.2" y="64.5" transform="matrix(1.889512e-02 -0.9998 0.9998 1.889512e-02 426.4977 747.934)" class="st8" width="184.3" height="184.3"/>
<polygon class="st8" points="463.5,248.8 280,248.8 279.2,64.5 463.5,64.5 "/>
<rect x="57.8" y="286.6" class="st8" width="184.3" height="184.3"/>
<rect x="944.7" y="286.6" class="st8" width="184.3" height="184.3"/>
<rect x="724.9" y="286.5" class="st8" width="184.3" height="184.3"/>
<rect x="279.2" y="286.5" class="st8" width="184.3" height="184.3"/>
<rect x="57.8" y="508.3" class="st8" width="184.3" height="184.3"/>
<rect x="944.7" y="508.2" class="st8" width="184.3" height="184.3"/>
<rect x="724.7" y="508.3" class="st8" width="184.3" height="184.3"/>
<rect x="501.4" y="508.3" class="st8" width="184.3" height="184.3"/>
<rect x="277.7" y="508.3" class="st8" width="184.3" height="184.3"/>
<rect x="57.8" y="728.8" class="st8" width="184.3" height="184.3"/>
<rect x="944.7" y="728.7" class="st8" width="184.3" height="184.3"/>
<rect x="724.9" y="728.8" class="st8" width="184.3" height="184.3"/>
<rect x="502.8" y="728.8" class="st8" width="184.3" height="184.3"/>
<rect x="275.2" y="728.8" class="st8" width="184.3" height="184.3"/>
<rect x="57.8" y="949.7" class="st8" width="184.3" height="184.3"/>
<rect x="944.7" y="949.7" class="st8" width="184.3" height="184.3"/>
<rect x="724.9" y="949.7" class="st8" width="184.3" height="184.3"/>
<rect x="502.7" y="949.7" class="st8" width="184.3" height="184.3"/>
<rect x="279.2" y="949.7" class="st8" width="184.3" height="184.3"/>
<g>
	<g>
		<defs>
			<rect id="SVGID_1_" x="888.1" y="63.9" width="241.4" height="240.5"/>
		</defs>
		<clipPath id="SVGID_2_">
			<use xlink:href="#SVGID_1_"  style="overflow:visible;"/>
		</clipPath>
		<g class="st9">
			
				<image style="overflow:visible;enable-background:new    ;" width="1061" height="1600" xlink:href="../../../../../../Documents/20180317-143742/vv/DSC_0207.png"  transform="matrix(0.3176 0 0 0.3254 832.5273 -137.9758)">
			</image>
		</g>
	</g>
</g>
<g>
	<g>
		<defs>
			<circle id="SVGID_3_" cx="367.4" cy="823.2" r="117"/>
		</defs>
		<clipPath id="SVGID_4_">
			<use xlink:href="#SVGID_3_"  style="overflow:visible;"/>
		</clipPath>
		<g class="st10">
			
				<image style="overflow:visible;enable-background:new    ;" width="1005" height="1600" xlink:href="../../../../../../Documents/20180317-143742/vv/DSC_0254.png"  transform="matrix(0.24 0 0 0.24 247.4144 561.009)">
			</image>
		</g>
	</g>
</g>
<rect x="505" y="801.4" class="st2" width="185.4" height="69.1"/>
<text transform="matrix(1 0 0 1 504.9525 808.41)"><tspan x="0" y="0" class="st11 st12">Lorem ipsum dolor sit amet, consectetuer </tspan><tspan x="0" y="24" class="st11 st12">adipiscing elit, sed diam nonummy nibh euismod </tspan><tspan x="0" y="48" class="st11 st12">tincidunt ut laoreet dolore magna aliquam erat </tspan></text>
</svg>
