<?xml version="1.0" encoding="utf-8"?>
<!-- Generator: Adobe Illustrator 22.1.0, SVG Export Plug-In . SVG Version: 6.00 Build 0)  -->
<svg version="1.1" id="Livello_1" xmlns="http://www.w3.org/2000/svg" xmlns:xlink="http://www.w3.org/1999/xlink" x="0px" y="0px"
	 viewBox="0 0 1190.6 1190.6" style="enable-background:new 0 0 1190.6 1190.6;" xml:space="preserve">
<style type="text/css">
	.st0{fill:#8DC63F;}
	.st1{fill:none;}
	.st2{fill:none;stroke:#048040;stroke-width:0.75;stroke-miterlimit:10;}
	.st3{fill:none;stroke:#3C51A3;stroke-width:0.75;stroke-miterlimit:10;}
	.st4{fill:none;stroke:#AB1E34;stroke-width:0.75;stroke-miterlimit:10;}
</style>
<title>Tavola disegno 1</title>
<rect class="st0" width="1190.6" height="1190.6"/>
<rect x="318.9" y="224.3" class="st1" width="169.3" height="169.3"/>
<rect x="890.1" y="60.9" class="st2" width="239.5" height="239.5"/>
<rect x="613.7" y="60.9" class="st2" width="239.5" height="239.5"/>
<rect x="337.3" y="60.9" class="st2" width="239.5" height="239.5"/>
<rect x="60.9" y="60.9" class="st2" width="239.5" height="239.5"/>
<rect x="890.1" y="337.3" class="st2" width="239.5" height="239.5"/>
<rect x="613.7" y="337.3" class="st2" width="239.5" height="239.5"/>
<rect x="337.3" y="337.3" class="st2" width="239.5" height="239.5"/>
<rect x="60.9" y="337.3" class="st2" width="239.5" height="239.5"/>
<rect x="890.1" y="613.7" class="st2" width="239.5" height="239.5"/>
<rect x="613.7" y="613.7" class="st2" width="239.5" height="239.5"/>
<rect x="337.3" y="613.7" class="st2" width="239.5" height="239.5"/>
<rect x="60.9" y="613.7" class="st2" width="239.5" height="239.5"/>
<rect x="890.1" y="890.1" class="st2" width="239.5" height="239.5"/>
<rect x="613.7" y="890.1" class="st2" width="239.5" height="239.5"/>
<rect x="337.3" y="890.1" class="st2" width="239.5" height="239.5"/>
<rect x="60.9" y="890.1" class="st2" width="239.5" height="239.5"/>
<rect x="945.3" y="60.9" class="st3" width="184.3" height="184.3"/>
<rect x="724.3" y="60.9" class="st3" width="184.3" height="184.3"/>
<rect x="503.1" y="60.9" class="st3" width="184.3" height="184.3"/>
<rect x="282" y="60.9" class="st3" width="184.3" height="184.3"/>
<rect x="60.9" y="60.9" class="st3" width="184.3" height="184.3"/>
<rect x="945.3" y="282.1" class="st3" width="184.3" height="184.3"/>
<rect x="724.3" y="282.1" class="st3" width="184.3" height="184.3"/>
<rect x="503.1" y="282.1" class="st3" width="184.3" height="184.3"/>
<rect x="282" y="282.1" class="st3" width="184.3" height="184.3"/>
<rect x="60.9" y="282.1" class="st3" width="184.3" height="184.3"/>
<rect x="945.3" y="503.2" class="st3" width="184.3" height="184.3"/>
<rect x="724.3" y="503.2" class="st3" width="184.3" height="184.3"/>
<rect x="503.1" y="503.2" class="st3" width="184.3" height="184.3"/>
<rect x="282" y="503.2" class="st3" width="184.3" height="184.3"/>
<rect x="60.9" y="503.2" class="st3" width="184.3" height="184.3"/>
<rect x="945.3" y="724.3" class="st3" width="184.3" height="184.3"/>
<rect x="724.3" y="724.3" class="st3" width="184.3" height="184.3"/>
<rect x="503.1" y="724.3" class="st3" width="184.3" height="184.3"/>
<rect x="282" y="724.3" class="st3" width="184.3" height="184.3"/>
<rect x="60.9" y="724.3" class="st3" width="184.3" height="184.3"/>
<rect x="945.3" y="945.3" class="st3" width="184.3" height="184.3"/>
<rect x="724.3" y="945.3" class="st3" width="184.3" height="184.3"/>
<rect x="503.1" y="945.3" class="st3" width="184.3" height="184.3"/>
<rect x="282" y="945.3" class="st3" width="184.3" height="184.3"/>
<rect x="60.9" y="945.3" class="st3" width="184.3" height="184.3"/>
<rect x="60.9" y="60.9" class="st4" width="147.4" height="147.4"/>
<rect x="245.2" y="60.9" class="st4" width="147.4" height="147.4"/>
<rect x="429.5" y="60.9" class="st4" width="147.4" height="147.4"/>
<rect x="613.7" y="60.9" class="st4" width="147.4" height="147.4"/>
<rect x="798" y="60.9" class="st4" width="147.4" height="147.4"/>
<rect x="982.2" y="60.9" class="st4" width="147.4" height="147.4"/>
<rect x="60.9" y="245.2" class="st4" width="147.4" height="147.4"/>
<rect x="245.2" y="245.2" class="st4" width="147.4" height="147.4"/>
<rect x="429.5" y="245.2" class="st4" width="147.4" height="147.4"/>
<rect x="613.7" y="245.2" class="st4" width="147.4" height="147.4"/>
<rect x="798" y="245.2" class="st4" width="147.4" height="147.4"/>
<rect x="982.2" y="245.2" class="st4" width="147.4" height="147.4"/>
<rect x="60.9" y="429.5" class="st4" width="147.4" height="147.4"/>
<rect x="245.2" y="429.5" class="st4" width="147.4" height="147.4"/>
<rect x="429.5" y="429.5" class="st4" width="147.4" height="147.4"/>
<rect x="613.7" y="429.5" class="st4" width="147.4" height="147.4"/>
<rect x="798" y="429.5" class="st4" width="147.4" height="147.4"/>
<rect x="982.2" y="429.5" class="st4" width="147.4" height="147.4"/>
<rect x="60.9" y="613.7" class="st4" width="147.4" height="147.4"/>
<rect x="245.2" y="613.7" class="st4" width="147.4" height="147.4"/>
<rect x="429.5" y="613.7" class="st4" width="147.4" height="147.4"/>
<rect x="613.7" y="613.7" class="st4" width="147.4" height="147.4"/>
<rect x="798" y="613.7" class="st4" width="147.4" height="147.4"/>
<rect x="982.2" y="613.7" class="st4" width="147.4" height="147.4"/>
<rect x="60.9" y="798" class="st4" width="147.4" height="147.4"/>
<rect x="245.2" y="798" class="st4" width="147.4" height="147.4"/>
<rect x="429.5" y="798" class="st4" width="147.4" height="147.4"/>
<rect x="613.7" y="798" class="st4" width="147.4" height="147.4"/>
<rect x="798" y="798" class="st4" width="147.4" height="147.4"/>
<rect x="982.2" y="798" class="st4" width="147.4" height="147.4"/>
<rect x="60.9" y="982.2" class="st4" width="147.4" height="147.4"/>
<rect x="245.2" y="982.2" class="st4" width="147.4" height="147.4"/>
<rect x="429.5" y="982.2" class="st4" width="147.4" height="147.4"/>
<rect x="613.7" y="982.2" class="st4" width="147.4" height="147.4"/>
<rect x="798" y="982.2" class="st4" width="147.4" height="147.4"/>
<rect x="982.2" y="982.2" class="st4" width="147.4" height="147.4"/>
<rect x="318.9" y="223.3" class="st1" width="169.3" height="169.3"/>
<rect x="60.9" y="245.8" class="st1" width="147.4" height="146.8"/>
<image style="overflow:visible;" width="960" height="540" xlink:href="890231_03.jpg"  transform="matrix(0.6334 0 0 0.6334 282.05 245.19)">
</image>
</svg>
