<?xml version="1.0" encoding="utf-8"?>
<!-- Generator: Adobe Illustrator 21.0.0, SVG Export Plug-In . SVG Version: 6.00 Build 0)  -->
<svg version="1.1" id="Livello_1" xmlns="http://www.w3.org/2000/svg" xmlns:xlink="http://www.w3.org/1999/xlink" x="0px" y="0px"
	 viewBox="0 0 1190.6 1190.6" style="enable-background:new 0 0 1190.6 1190.6;" xml:space="preserve">
<style type="text/css">
	.st0{fill:#967550;}
	.st1{fill:none;stroke:#775B46;stroke-miterlimit:10;}
	.st2{fill:none;stroke:#B4BFC1;stroke-miterlimit:10;}
	.st3{fill:none;stroke:#F4EFDC;stroke-miterlimit:10;}
	.st4{fill:none;}
	.st5{font-family:'OpenSans-Light';}
	.st6{font-size:16px;}
	.st7{clip-path:url(#SVGID_2_);enable-background:new    ;}
	.st8{clip-path:url(#SVGID_4_);}
	.st9{font-family:'OpenSansCondensed-Bold';}
	.st10{font-size:60px;}
	.st11{font-family:'EBGaramond-Italic';}
	.st12{font-size:10px;}
	.st13{font-family:'MyriadPro-Regular';}
	.st14{font-size:12px;}
</style>
<g id="Livello_1_1_">
	<title>Tavola disegno 1</title>
	<rect x="0.8" y="1.2" class="st0" width="1190.6" height="1190.6"/>
</g>
<g id="Livello_2_1_">
	<g>
		<rect x="60.9" y="60.9" class="st1" width="239.5" height="239.5"/>
		<rect x="337.3" y="60.9" class="st1" width="239.5" height="239.5"/>
		<rect x="613.7" y="60.9" class="st1" width="239.5" height="239.5"/>
		<rect x="890.1" y="60.9" class="st1" width="239.5" height="239.5"/>
		<rect x="60.9" y="337.3" class="st1" width="239.5" height="239.5"/>
		<rect x="337.3" y="337.3" class="st1" width="239.5" height="239.5"/>
		<rect x="613.7" y="337.3" class="st1" width="239.5" height="239.5"/>
		<rect x="890.1" y="337.3" class="st1" width="239.5" height="239.5"/>
		<rect x="60.9" y="613.7" class="st1" width="239.5" height="239.5"/>
		<rect x="337.3" y="613.7" class="st1" width="239.5" height="239.5"/>
		<rect x="613.7" y="613.7" class="st1" width="239.5" height="239.5"/>
		<rect x="890.1" y="613.7" class="st1" width="239.5" height="239.5"/>
		<rect x="60.9" y="890.1" class="st1" width="239.5" height="239.5"/>
		<rect x="337.3" y="890.1" class="st1" width="239.5" height="239.5"/>
		<rect x="613.7" y="890.1" class="st1" width="239.5" height="239.5"/>
		<rect x="890.1" y="890.1" class="st1" width="239.5" height="239.5"/>
	</g>
</g>
<g id="Livello_4">
	<g>
		<rect x="60.9" y="60.9" class="st2" width="147.4" height="147.4"/>
		<rect x="245.2" y="60.9" class="st2" width="147.4" height="147.4"/>
		<rect x="429.4" y="60.9" class="st2" width="147.4" height="147.4"/>
		<rect x="613.7" y="60.9" class="st2" width="147.4" height="147.4"/>
		<rect x="798" y="60.9" class="st2" width="147.4" height="147.4"/>
		<rect x="982.2" y="60.9" class="st2" width="147.4" height="147.4"/>
		<rect x="60.9" y="245.2" class="st2" width="147.4" height="147.4"/>
		<rect x="245.2" y="245.2" class="st2" width="147.4" height="147.4"/>
		<rect x="429.4" y="245.2" class="st2" width="147.4" height="147.4"/>
		<rect x="613.7" y="245.2" class="st2" width="147.4" height="147.4"/>
		<rect x="798" y="245.2" class="st2" width="147.4" height="147.4"/>
		<rect x="982.2" y="245.2" class="st2" width="147.4" height="147.4"/>
		<rect x="60.9" y="429.4" class="st2" width="147.4" height="147.4"/>
		<rect x="245.2" y="429.4" class="st2" width="147.4" height="147.4"/>
		<rect x="429.4" y="429.4" class="st2" width="147.4" height="147.4"/>
		<rect x="613.7" y="429.4" class="st2" width="147.4" height="147.4"/>
		<rect x="798" y="429.4" class="st2" width="147.4" height="147.4"/>
		<rect x="982.2" y="429.4" class="st2" width="147.4" height="147.4"/>
		<rect x="60.9" y="613.7" class="st2" width="147.4" height="147.4"/>
		<rect x="245.2" y="613.7" class="st2" width="147.4" height="147.4"/>
		<rect x="429.4" y="613.7" class="st2" width="147.4" height="147.4"/>
		<rect x="613.7" y="613.7" class="st2" width="147.4" height="147.4"/>
		<rect x="798" y="613.7" class="st2" width="147.4" height="147.4"/>
		<rect x="982.2" y="613.7" class="st2" width="147.4" height="147.4"/>
		<rect x="60.9" y="798" class="st2" width="147.4" height="147.4"/>
		<rect x="245.2" y="798" class="st2" width="147.4" height="147.4"/>
		<rect x="429.4" y="798" class="st2" width="147.4" height="147.4"/>
		<rect x="613.7" y="798" class="st2" width="147.4" height="147.4"/>
		<rect x="798" y="798" class="st2" width="147.4" height="147.4"/>
		<rect x="982.2" y="798" class="st2" width="147.4" height="147.4"/>
		<rect x="60.9" y="982.2" class="st2" width="147.4" height="147.4"/>
		<rect x="245.2" y="982.2" class="st2" width="147.4" height="147.4"/>
		<rect x="429.4" y="982.2" class="st2" width="147.4" height="147.4"/>
		<rect x="613.7" y="982.2" class="st2" width="147.4" height="147.4"/>
		<rect x="798" y="982.2" class="st2" width="147.4" height="147.4"/>
		<rect x="982.2" y="982.2" class="st2" width="147.4" height="147.4"/>
	</g>
</g>
<g id="Livello_3">
	<g>
		<rect x="60.9" y="60.9" class="st3" width="184.3" height="184.3"/>
		<rect x="282" y="60.9" class="st3" width="184.3" height="184.3"/>
		<rect x="503.1" y="60.9" class="st3" width="184.3" height="184.3"/>
		<rect x="724.3" y="60.9" class="st3" width="184.3" height="184.3"/>
		<rect x="945.4" y="60.9" class="st3" width="184.3" height="184.3"/>
		<rect x="60.9" y="282" class="st4" width="184.3" height="184.3"/>
		<text transform="matrix(1 0 0 1 60.8999 294.1602)" class="st5 st6">Lorem ipsum dolor sit </text>
		<text transform="matrix(1 0 0 1 60.8999 318.1602)" class="st5 st6">amet, consectetuer adipi</text>
		<text transform="matrix(1 0 0 1 238.2999 318.1602)" class="st5 st6">-</text>
		<text transform="matrix(1 0 0 1 60.8999 342.1602)" class="st5 st6">scing elit, sed diam no</text>
		<text transform="matrix(1 0 0 1 219.0999 342.1602)" class="st5 st6">-</text>
		<text transform="matrix(1 0 0 1 60.8999 366.1602)" class="st5 st6">nummy nibh euismod </text>
		<text transform="matrix(1 0 0 1 60.8999 390.1602)" class="st5 st6">tincidunt ut laoreet </text>
		<text transform="matrix(1 0 0 1 60.8999 414.1602)" class="st5 st6">dolore magna aliquam </text>
		<text transform="matrix(1 0 0 1 60.8999 438.1602)" class="st5 st6">erat volutpat. Ut wisi </text>
		<text transform="matrix(1 0 0 1 60.8999 462.1602)" class="st5 st6">enim ad minim veniam, </text>
		<rect x="282" y="282" class="st3" width="184.3" height="184.3"/>
		<rect x="503.1" y="282" class="st3" width="184.3" height="184.3"/>
		<rect x="724.3" y="282" class="st3" width="184.3" height="184.3"/>
		<rect x="945.4" y="282" class="st3" width="184.3" height="184.3"/>
		<rect x="60.9" y="503.1" class="st3" width="184.3" height="184.3"/>
		<rect x="282" y="503.1" class="st3" width="184.3" height="184.3"/>
		<rect x="503.1" y="503.1" class="st3" width="184.3" height="184.3"/>
		<rect x="724.3" y="503.1" class="st3" width="184.3" height="184.3"/>
		<rect x="945.4" y="503.1" class="st3" width="184.3" height="184.3"/>
		<rect x="60.9" y="724.3" class="st3" width="184.3" height="184.3"/>
		<rect x="282" y="724.3" class="st3" width="184.3" height="184.3"/>
		<rect x="503.1" y="724.3" class="st3" width="184.3" height="184.3"/>
		<rect x="724.3" y="724.3" class="st3" width="184.3" height="184.3"/>
		<rect x="945.4" y="724.3" class="st3" width="184.3" height="184.3"/>
		<rect x="60.9" y="945.4" class="st3" width="184.3" height="184.3"/>
		<rect x="282" y="945.4" class="st3" width="184.3" height="184.3"/>
		<rect x="503.1" y="945.4" class="st3" width="184.3" height="184.3"/>
		<rect x="724.3" y="945.4" class="st3" width="184.3" height="184.3"/>
		<rect x="945.4" y="945.4" class="st3" width="184.3" height="184.3"/>
	</g>
</g>
<g>
	<g>
		<g>
			<g>
				<defs>
					<rect id="SVGID_1_" x="503.1" y="282" width="184.3" height="184.3"/>
				</defs>
				<clipPath id="SVGID_2_">
					<use xlink:href="#SVGID_1_"  style="overflow:visible;"/>
				</clipPath>
				<g transform="matrix(1 0 0 1 0 -3.814697e-06)" class="st7">
					
						<image style="overflow:visible;enable-background:new    ;" width="1061" height="1600" xlink:href="../accepted_works/vectors/890234_03.jpg"  transform="matrix(0.2723 0 0 0.2978 444.7895 58.1727)">
					</image>
				</g>
			</g>
		</g>
	</g>
</g>
<g>
	<g>
		<g>
			<g>
				<defs>
					<circle id="SVGID_3_" cx="604.2" cy="817.9" r="118"/>
				</defs>
				<clipPath id="SVGID_4_">
					<use xlink:href="#SVGID_3_"  style="overflow:visible;"/>
				</clipPath>
				<g class="st8">
					
						<image style="overflow:visible;enable-background:new    ;" width="1061" height="1600" xlink:href="../accepted_works/vectors/890234_05.jpg"  transform="matrix(0.24 0 0 0.24 479.5413 634.3707)">
					</image>
				</g>
			</g>
		</g>
	</g>
</g>
<rect x="279.6" y="24.1" class="st4" width="476.7" height="182.8"/>
<text transform="matrix(1 0 0 1 279.5967 141.6619)" class="st9 st10">Ex Illustrator</text>
<rect x="725" y="920.4" class="st4" width="194.4" height="19"/>
<text transform="matrix(1 0 0 1 725.0092 927.4697)" class="st11 st12">Lorem ipsum dolor sit amet, consectetuer adipiscing </text>
<circle class="st4" cx="817.3" cy="374.7" r="92.1"/>
<text transform="matrix(1 0 0 1 804.7451 291.1144)"><tspan x="0" y="0" class="st13 st14">Il </tspan><tspan x="-38.2" y="14.4" class="st13 st14">Campidoglio, detto </tspan><tspan x="-55.2" y="28.8" class="st13 st14">anche Monte Capitolino </tspan><tspan x="-66.1" y="43.2" class="st13 st14">(Mons Capitolinus), è uno dei </tspan><tspan x="-73.2" y="57.6" class="st13 st14">sette colli su cui venne fondata </tspan><tspan x="-77.6" y="72" class="st13 st14">Roma. La sua altezza è di 48 m s.l.m. </tspan><tspan x="-79.5" y="86.4" class="st13 st14">sull&apos; Arx (attuale Basilica di S. Maria </tspan><tspan x="-78" y="100.8" class="st13 st14">in Aracoeli)[senza fonte], di 35,9 m </tspan><tspan x="-74" y="115.2" class="st13 st14">s.l.m. nell&apos; Asylum (attuale Piazza </tspan><tspan x="-67.3" y="129.6" class="st13 st14">del Campidoglio) e di 44,7 m </tspan><tspan x="-57" y="144" class="st13 st14">s.l.m. sul Capitolium li).[1]</tspan><tspan x="-41.3" y="158.4" class="st13 st14">doglio è anche la </tspan><tspan x="-10.7" y="172.8" class="st13 st14">sede di </tspan></text>
</svg>
