<?xml version="1.0" encoding="utf-8"?>
<!-- Generator: Adobe Illustrator 21.0.0, SVG Export Plug-In . SVG Version: 6.00 Build 0)  -->
<svg version="1.1" id="Livello_1" xmlns="http://www.w3.org/2000/svg" xmlns:xlink="http://www.w3.org/1999/xlink" x="0px" y="0px"
	 viewBox="0 0 1190.6 1190.6" style="enable-background:new 0 0 1190.6 1190.6;" xml:space="preserve">
<style type="text/css">
	.st0{fill:#967550;}
	.st1{fill:none;stroke:#01010A;stroke-miterlimit:10;}
	.st2{fill:none;stroke:#A8C4D3;stroke-miterlimit:10;}
	.st3{fill:none;stroke:#BE1622;stroke-miterlimit:10;}
	.st4{fill:none;stroke:#E5EEE1;stroke-miterlimit:10;}
</style>
<rect x="-0.1" y="-0.6" class="st0" width="1191.2" height="1191.8"/>
<rect x="57.8" y="64.5" class="st1" width="239.5" height="239.5"/>
<rect x="613.1" y="64.5" class="st1" width="239.5" height="239.5"/>
<rect x="335.6" y="64.6" class="st1" width="239.5" height="239.5"/>
<rect x="889.4" y="64.5" class="st1" width="239.5" height="239.5"/>
<rect x="57.8" y="341.8" class="st1" width="239.5" height="239.5"/>
<rect x="613.3" y="342.2" class="st1" width="239.5" height="239.5"/>
<rect x="335.6" y="342" class="st1" width="239.5" height="239.5"/>
<rect x="889.4" y="342.2" class="st1" width="239.5" height="239.5"/>
<rect x="57.8" y="618.1" class="st1" width="239.5" height="239.5"/>
<rect x="612.7" y="618.1" class="st1" width="239.5" height="239.5"/>
<rect x="334.9" y="618.3" class="st1" width="239.5" height="239.5"/>
<rect x="889.4" y="618.1" class="st1" width="239.5" height="239.5"/>
<rect x="57.8" y="894.5" class="st1" width="239.5" height="239.5"/>
<rect x="612.7" y="894.5" class="st1" width="239.5" height="239.5"/>
<rect x="334.9" y="894.5" class="st1" width="239.5" height="239.5"/>
<rect x="889.4" y="894.4" class="st1" width="239.5" height="239.5"/>
<rect x="57.8" y="64.5" class="st2" width="147.4" height="147.4"/>
<rect x="242" y="64.5" class="st3" width="147.4" height="147.4"/>
<rect x="427.8" y="64.5" class="st2" width="147.4" height="147.4"/>
<rect x="613.1" y="64.5" class="st2" width="147.4" height="147.4"/>
<rect x="797.3" y="64.5" class="st2" width="147.4" height="147.4"/>
<rect x="981.5" y="64.5" class="st2" width="147.4" height="147.4"/>
<rect x="57.8" y="248.8" class="st2" width="147.4" height="147.4"/>
<rect x="242" y="248.8" class="st3" width="147.4" height="147.4"/>
<rect x="427.8" y="248.8" class="st2" width="147.4" height="147.4"/>
<rect x="613.1" y="248.8" class="st2" width="147.4" height="147.4"/>
<rect x="797.3" y="248.8" class="st2" width="147.4" height="147.4"/>
<rect x="981.5" y="248.8" class="st2" width="147.4" height="147.4"/>
<rect x="57.8" y="433.9" class="st2" width="147.4" height="147.4"/>
<rect x="242" y="434.1" class="st2" width="147.4" height="147.4"/>
<rect x="427.8" y="434.1" class="st2" width="147.4" height="147.4"/>
<rect x="613.1" y="434.3" class="st2" width="147.4" height="147.4"/>
<rect x="797.3" y="434.3" class="st2" width="147.4" height="147.4"/>
<rect x="981.5" y="434.3" class="st2" width="147.4" height="147.4"/>
<rect x="57.8" y="618.1" class="st2" width="147.4" height="147.4"/>
<rect x="242" y="618.4" class="st2" width="147.4" height="147.4"/>
<rect x="427.1" y="618.4" class="st2" width="147.4" height="147.4"/>
<rect x="612.7" y="618.1" class="st2" width="147.4" height="147.4"/>
<rect x="797.3" y="618.1" class="st2" width="147.4" height="147.4"/>
<rect x="981.5" y="618.1" class="st2" width="147.4" height="147.4"/>
<rect x="57.8" y="802.3" class="st2" width="147.4" height="147.4"/>
<rect x="242" y="802.3" class="st2" width="147.4" height="147.4"/>
<rect x="427.1" y="802.3" class="st2" width="147.4" height="147.4"/>
<rect x="612.7" y="802.3" class="st2" width="147.4" height="147.4"/>
<rect x="797.3" y="802.3" class="st2" width="147.4" height="147.4"/>
<rect x="981.5" y="802.3" class="st2" width="147.4" height="147.4"/>
<rect x="57.8" y="986.6" class="st2" width="147.4" height="147.4"/>
<rect x="242" y="986.6" class="st2" width="147.4" height="147.4"/>
<rect x="427.1" y="986.6" class="st2" width="147.4" height="147.4"/>
<rect x="612.7" y="986.6" class="st2" width="147.4" height="147.4"/>
<rect x="797.3" y="986.6" class="st2" width="147.4" height="147.4"/>
<rect x="981.5" y="986.6" class="st2" width="147.4" height="147.4"/>
<rect x="57.8" y="64.5" class="st4" width="184.3" height="184.3"/>
<rect x="944.7" y="64.5" class="st4" width="184.3" height="184.3"/>
<rect x="724.2" y="64.5" class="st4" width="184.3" height="184.3"/>
<rect x="502.2" y="64.5" class="st4" width="184.3" height="184.3"/>
<polygon class="st4" points="463.5,248.8 280,248.8 279.2,64.5 463.5,64.5 "/>
<rect x="57.8" y="286.6" class="st4" width="184.3" height="184.3"/>
<rect x="944.7" y="286.6" class="st4" width="184.3" height="184.3"/>
<rect x="724.9" y="286.5" class="st4" width="184.3" height="184.3"/>
<rect x="502.1" y="286.5" class="st4" width="184.3" height="184.3"/>
<rect x="280.6" y="286.5" class="st4" width="184.3" height="184.3"/>
<rect x="57.8" y="508.3" class="st4" width="184.3" height="184.3"/>
<rect x="944.7" y="508.2" class="st4" width="184.3" height="184.3"/>
<rect x="724.7" y="508.3" class="st4" width="184.3" height="184.3"/>
<rect x="502.6" y="508.3" class="st4" width="184.3" height="184.3"/>
<rect x="280.4" y="508.3" class="st4" width="184.3" height="184.3"/>
<rect x="57.8" y="728.8" class="st4" width="184.3" height="184.3"/>
<rect x="944.7" y="728.7" class="st4" width="184.3" height="184.3"/>
<rect x="724.9" y="728.8" class="st4" width="184.3" height="184.3"/>
<rect x="502.8" y="728.8" class="st4" width="184.3" height="184.3"/>
<rect x="280.6" y="728.8" class="st4" width="184.3" height="184.3"/>
<rect x="57.8" y="949.7" class="st4" width="184.3" height="184.3"/>
<rect x="944.7" y="949.7" class="st4" width="184.3" height="184.3"/>
<rect x="724.9" y="949.7" class="st4" width="184.3" height="184.3"/>
<rect x="502.7" y="949.7" class="st4" width="184.3" height="184.3"/>
<rect x="280.5" y="949.7" class="st4" width="184.3" height="184.3"/>
<image style="overflow:visible;" width="1061" height="1600" xlink:href="../../../../../../Documents/20180317-143742/vv/DSC_0207.png"  transform="matrix(0.2468 0 0 0.244 241.0912 63.8527)">
</image>
</svg>
