<?xml version="1.0" encoding="utf-8"?>
<!-- Generator: Adobe Illustrator 21.0.0, SVG Export Plug-In . SVG Version: 6.00 Build 0)  -->
<svg version="1.1" id="Livello_1" xmlns="http://www.w3.org/2000/svg" xmlns:xlink="http://www.w3.org/1999/xlink" x="0px" y="0px"
	 viewBox="0 0 1190.6 1190.6" style="enable-background:new 0 0 1190.6 1190.6;" xml:space="preserve">
<style type="text/css">
	.st0{fill:#967550;}
	.st1{fill:none;stroke:#775B46;stroke-miterlimit:10;}
	.st2{fill:none;stroke:#B4BFC1;stroke-miterlimit:10;}
	.st3{fill:none;stroke:#F4EFDC;stroke-miterlimit:10;}
	.st4{font-family:'OpenSansCondensed-Bold';}
	.st5{font-size:95.1282px;}
	.st6{fill:none;}
	.st7{font-family:'OpenSans-Light';}
	.st8{font-size:16px;}
	.st9{clip-path:url(#SVGID_6_);}
</style>
<g id="Livello_1_1_">
	<title>Tavola disegno 1</title>
	<rect y="0" class="st0" width="1190.6" height="1190.6"/>
</g>
<g id="Livello_2_1_">
	<g>
		<rect x="60.9" y="60.9" class="st1" width="239.5" height="239.5"/>
		<rect x="337.3" y="60.9" class="st1" width="239.5" height="239.5"/>
		<rect x="613.7" y="60.9" class="st1" width="239.5" height="239.5"/>
		<rect x="890.1" y="60.9" class="st1" width="239.5" height="239.5"/>
		<rect x="60.9" y="337.3" class="st1" width="239.5" height="239.5"/>
		<rect x="337.3" y="337.3" class="st1" width="239.5" height="239.5"/>
		<rect x="613.7" y="337.3" class="st1" width="239.5" height="239.5"/>
		<rect x="890.1" y="337.3" class="st1" width="239.5" height="239.5"/>
		<rect x="60.9" y="613.7" class="st1" width="239.5" height="239.5"/>
		<rect x="337.3" y="613.7" class="st1" width="239.5" height="239.5"/>
		<rect x="613.7" y="613.7" class="st1" width="239.5" height="239.5"/>
		<rect x="890.1" y="613.7" class="st1" width="239.5" height="239.5"/>
		<rect x="60.9" y="890.1" class="st1" width="239.5" height="239.5"/>
		<rect x="337.3" y="890.1" class="st1" width="239.5" height="239.5"/>
		<rect x="613.7" y="890.1" class="st1" width="239.5" height="239.5"/>
		<rect x="890.1" y="890.1" class="st1" width="239.5" height="239.5"/>
	</g>
</g>
<g id="Livello_4">
	<g>
		<rect x="60.9" y="60.9" class="st2" width="147.4" height="147.4"/>
		<rect x="245.2" y="60.9" class="st2" width="147.4" height="147.4"/>
		<rect x="429.4" y="60.9" class="st2" width="147.4" height="147.4"/>
		<rect x="613.7" y="60.9" class="st2" width="147.4" height="147.4"/>
		<rect x="798" y="60.9" class="st2" width="147.4" height="147.4"/>
		<rect x="982.2" y="60.9" class="st2" width="147.4" height="147.4"/>
		<rect x="60.9" y="245.2" class="st2" width="147.4" height="147.4"/>
		<rect x="245.2" y="245.2" class="st2" width="147.4" height="147.4"/>
		<rect x="429.4" y="245.2" class="st2" width="147.4" height="147.4"/>
		<rect x="613.7" y="245.2" class="st2" width="147.4" height="147.4"/>
		<rect x="798" y="245.2" class="st2" width="147.4" height="147.4"/>
		<rect x="982.2" y="245.2" class="st2" width="147.4" height="147.4"/>
		<rect x="60.9" y="429.4" class="st2" width="147.4" height="147.4"/>
		<rect x="245.2" y="429.4" class="st2" width="147.4" height="147.4"/>
		<rect x="429.4" y="429.4" class="st2" width="147.4" height="147.4"/>
		<rect x="613.7" y="429.4" class="st2" width="147.4" height="147.4"/>
		<rect x="798" y="429.4" class="st2" width="147.4" height="147.4"/>
		<rect x="982.2" y="429.4" class="st2" width="147.4" height="147.4"/>
		<rect x="60.9" y="613.7" class="st2" width="147.4" height="147.4"/>
		<rect x="245.2" y="613.7" class="st2" width="147.4" height="147.4"/>
		<rect x="429.4" y="613.7" class="st2" width="147.4" height="147.4"/>
		<rect x="613.7" y="613.7" class="st2" width="147.4" height="147.4"/>
		<rect x="798" y="613.7" class="st2" width="147.4" height="147.4"/>
		<rect x="982.2" y="613.7" class="st2" width="147.4" height="147.4"/>
		<rect x="60.9" y="798" class="st2" width="147.4" height="147.4"/>
		<rect x="245.2" y="798" class="st2" width="147.4" height="147.4"/>
		<rect x="429.4" y="798" class="st2" width="147.4" height="147.4"/>
		<rect x="613.7" y="798" class="st2" width="147.4" height="147.4"/>
		<rect x="798" y="798" class="st2" width="147.4" height="147.4"/>
		<rect x="982.2" y="798" class="st2" width="147.4" height="147.4"/>
		<rect x="60.9" y="982.2" class="st2" width="147.4" height="147.4"/>
		<rect x="245.2" y="982.2" class="st2" width="147.4" height="147.4"/>
		<rect x="429.4" y="982.2" class="st2" width="147.4" height="147.4"/>
		<rect x="613.7" y="982.2" class="st2" width="147.4" height="147.4"/>
		<rect x="798" y="982.2" class="st2" width="147.4" height="147.4"/>
		<rect x="982.2" y="982.2" class="st2" width="147.4" height="147.4"/>
	</g>
</g>
<g id="Livello_3">
	<g>
		<rect x="60.9" y="60.9" class="st3" width="184.3" height="184.3"/>
		<rect x="282" y="60.9" class="st3" width="184.3" height="184.3"/>
		<rect x="503.1" y="60.9" class="st3" width="184.3" height="184.3"/>
		<rect x="724.3" y="60.9" class="st3" width="184.3" height="184.3"/>
		<rect x="945.4" y="60.9" class="st3" width="184.3" height="184.3"/>
		<rect x="60.9" y="282" class="st3" width="184.3" height="184.3"/>
		<rect x="282" y="282" class="st3" width="184.3" height="184.3"/>
		<rect x="503.1" y="282" class="st3" width="184.3" height="184.3"/>
		<rect x="724.3" y="282" class="st3" width="184.3" height="184.3"/>
		<rect x="945.4" y="282" class="st3" width="184.3" height="184.3"/>
		<rect x="60.9" y="503.1" class="st3" width="184.3" height="184.3"/>
		<rect x="282" y="503.1" class="st3" width="184.3" height="184.3"/>
		<rect x="503.1" y="503.1" class="st3" width="184.3" height="184.3"/>
		<rect x="724.3" y="503.1" class="st3" width="184.3" height="184.3"/>
		<rect x="945.4" y="503.1" class="st3" width="184.3" height="184.3"/>
		<rect x="60.9" y="724.3" class="st3" width="184.3" height="184.3"/>
		<rect x="282" y="724.3" class="st3" width="184.3" height="184.3"/>
		<rect x="503.1" y="724.3" class="st3" width="184.3" height="184.3"/>
		<rect x="724.3" y="724.3" class="st3" width="184.3" height="184.3"/>
		<rect x="945.4" y="724.3" class="st3" width="184.3" height="184.3"/>
		<rect x="60.9" y="945.4" class="st3" width="184.3" height="184.3"/>
		<rect x="282" y="945.4" class="st3" width="184.3" height="184.3"/>
		<rect x="503.1" y="945.4" class="st3" width="184.3" height="184.3"/>
		<rect x="724.3" y="945.4" class="st3" width="184.3" height="184.3"/>
		<rect x="945.4" y="945.4" class="st3" width="184.3" height="184.3"/>
	</g>
</g>
<g>
	<defs>
		<rect id="SVGID_1_" x="503.1" y="282" width="184.3" height="184.3"/>
	</defs>
	<clipPath id="SVGID_2_">
		<use xlink:href="#SVGID_1_"  style="overflow:visible;"/>
	</clipPath>
	<g transform="matrix(1 0 0 1 0 -3.814697e-06)" style="clip-path:url(#SVGID_2_);enable-background:new    ;">
		
			<image style="overflow:visible;" width="1061" height="1640" xlink:href="890234_03.jpg"  transform="matrix(0.2676 0 0 0.2927 447.2638 56.4001)">
		</image>
	</g>
</g>
<g>
	<defs>
		<circle id="SVGID_3_" cx="604.2" cy="817.9" r="118"/>
	</defs>
	<clipPath id="SVGID_4_">
		<use xlink:href="#SVGID_3_"  style="overflow:visible;"/>
	</clipPath>
	<g style="clip-path:url(#SVGID_4_);">
		
			<image style="overflow:visible;" width="1061" height="1600" xlink:href="890234_05.estensione.jpg"  transform="matrix(0.24 0 0 0.24 479.5413 634.371)">
		</image>
	</g>
</g>
<text transform="matrix(0.3835 0 0 1 281.8416 181.4775)" class="st4 st5">Lorem ipsum</text>
<rect x="62.3" y="282.1" class="st6" width="234.2" height="446.5"/>
<text transform="matrix(0.3835 0 0 1 62.2568 294.2465)"><tspan x="0" y="0" class="st7 st8">Lorem ipsum dolor sit amet, consectetuer adipiscing elit, sed diam nonummy nibh </tspan><tspan x="0" y="24" class="st7 st8">euismod tincidunt ut laoreet dolore magna aliquam erat volutpat. Ut wisi enim ad </tspan><tspan x="0" y="48" class="st7 st8">minim veniam, quis nostrud exerci tation ullamcorper suscipit lobortis nisl ut aliquip </tspan><tspan x="0" y="72" class="st7 st8">ex ea commodo consequat. Duis autem vel eum iriure dolor in hendrerit in vulputate </tspan><tspan x="0" y="96" class="st7 st8">velit esse molestie consequat, vel illum dolore eu feugiat nulla facilisis at vero eros et </tspan><tspan x="0" y="120" class="st7 st8">accumsan et iusto odio dignissim qui blandit praesent luptatum zzril delenit augue </tspan><tspan x="0" y="144" class="st7 st8">duis dolore te feugait nulla facilisi.</tspan><tspan x="0" y="168" class="st7 st8">Lorem ipsum dolor sit amet, cons ectetuer adipiscing elit, sed diam nonummy nibh </tspan><tspan x="0" y="192" class="st7 st8">euismod tincidunt ut laoreet dolore magna aliquam erat volutpat. Ut wisi enim ad </tspan><tspan x="0" y="216" class="st7 st8">minim veniam, quis nostrud exerci tation ullamcorper suscipit lobortis nisl ut aliquip </tspan><tspan x="0" y="240" class="st7 st8">ex ea commodo consequat.</tspan><tspan x="0" y="264" class="st7 st8">Lorem ipsum dolor sit amet, consectetuer adipiscing elit, sed diam nonummy nibh </tspan><tspan x="0" y="288" class="st7 st8">euismod tincidunt ut laoreet dolore magna aliquam erat volutpat. Ut wisi enim ad </tspan><tspan x="0" y="312" class="st7 st8">minim veniam, quis nostrud exerci tation ullamcorper suscipit lobortis nisl ut aliquip </tspan><tspan x="0" y="336" class="st7 st8">ex ea commodo consequat. Duis autem vel eum iriure dolor in hendrerit in vulputate </tspan><tspan x="0" y="360" class="st7 st8">velit esse molestie consequat, vel illum dolore eu feugiat nulla facilisis at vero eros et </tspan><tspan x="0" y="384" class="st7 st8">accumsan et iusto odio dignissim qui blandit praesent luptatum zzril delenit augue </tspan><tspan x="0" y="408" class="st7 st8">duis dolore te feugait nulla facilisi.</tspan><tspan x="0" y="432" class="st7 st8">Lorem ipsum dolor sit amet, cons ectetuer adipiscing elit, sed diam nonummy nibh </tspan></text>
<g>
	<defs>
		<circle id="SVGID_5_" cx="937" cy="640.8" r="129.9"/>
	</defs>
	<clipPath id="SVGID_6_">
		<use xlink:href="#SVGID_5_"  style="overflow:visible;"/>
	</clipPath>
	<g class="st9">
		<rect x="803.4" y="503.5" class="st6" width="280" height="444.7"/>
		<text transform="matrix(0.3835 0 0 1 803.4069 515.6763)"><tspan x="0" y="0" class="st7 st8">Lorem ipsum dolor sit amet, consectetuer adipiscing elit, sed diam nonummy nibh euismod tincidunt </tspan><tspan x="0" y="24" class="st7 st8">ut laoreet dolore magna aliquam erat volutpat. Ut wisi enim ad minim veniam, quis nostrud exerci </tspan><tspan x="0" y="48" class="st7 st8">tation ullamcorper suscipit lobortis nisl ut aliquip ex ea commodo consequat. Duis autem vel eum </tspan><tspan x="0" y="72" class="st7 st8">iriure dolor in hendrerit in vulputate velit esse molestie consequat, vel illum dolore eu feugiat nulla </tspan><tspan x="0" y="96" class="st7 st8">facilisis at vero eros et accumsan et iusto odio dignissim qui blandit praesent luptatum zzril delenit </tspan><tspan x="0" y="120" class="st7 st8">augue duis dolore te feugait nulla facilisi.</tspan><tspan x="0" y="144" class="st7 st8">Lorem ipsum dolor sit amet, cons ectetuer adipiscing elit, sed diam nonummy nibh euismod tincidunt </tspan><tspan x="0" y="168" class="st7 st8">ut laoreet dolore magna aliquam erat volutpat. Ut wisi enim ad minim veniam, quis nostrud exerci </tspan><tspan x="0" y="192" class="st7 st8">tation ullamcorper suscipit lobortis nisl ut aliquip ex ea commodo consequat.</tspan><tspan x="0" y="216" class="st7 st8">Lorem ipsum dolor sit amet, consectetuer adipiscing elit, sed diam nonummy nibh euismod tincidunt </tspan><tspan x="0" y="240" class="st7 st8">ut laoreet dolore magna aliquam erat volutpat. Ut wisi enim ad minim veniam, quis nostrud exerci </tspan><tspan x="0" y="264" class="st7 st8">tation ullamcorper suscipit lobortis nisl ut aliquip ex ea commodo consequat. Duis autem vel eum </tspan><tspan x="0" y="288" class="st7 st8">iriure dolor in hendrerit in vulputate velit esse molestie consequat, vel illum dolore eu feugiat nulla </tspan><tspan x="0" y="312" class="st7 st8">facilisis at vero eros et accumsan et iusto odio dignissim qui bland</tspan></text>
	</g>
</g>
</svg>
