<?xml version="1.0" encoding="utf-8"?>
<!-- Generator: Adobe Illustrator 21.0.0, SVG Export Plug-In . SVG Version: 6.00 Build 0)  -->
<svg version="1.1" id="Livello_1" xmlns="http://www.w3.org/2000/svg" xmlns:xlink="http://www.w3.org/1999/xlink" x="0px" y="0px"
	 viewBox="0 0 1190.6 1190.6" style="enable-background:new 0 0 1190.6 1190.6;" xml:space="preserve">
<style type="text/css">
	.st0{fill:#967550;}
	.st1{fill:none;stroke:#775B46;stroke-miterlimit:10;}
	.st2{fill:none;stroke:#B4BFC1;stroke-miterlimit:10;}
	.st3{fill:none;stroke:#F4EFDC;stroke-miterlimit:10;}
</style>
<g id="Livello_1_1_">
	<title>Tavola disegno 1</title>
	<rect y="0" class="st0" width="1190.6" height="1190.6"/>
</g>
<g id="Livello_2_1_">
	<g>
		<rect x="60.9" y="60.9" class="st1" width="239.5" height="239.5"/>
		<rect x="337.3" y="60.9" class="st1" width="239.5" height="239.5"/>
		<rect x="613.7" y="60.9" class="st1" width="239.5" height="239.5"/>
		<rect x="890.1" y="60.9" class="st1" width="239.5" height="239.5"/>
		<rect x="60.9" y="337.3" class="st1" width="239.5" height="239.5"/>
		<rect x="337.3" y="337.3" class="st1" width="239.5" height="239.5"/>
		<rect x="613.7" y="337.3" class="st1" width="239.5" height="239.5"/>
		<rect x="890.1" y="337.3" class="st1" width="239.5" height="239.5"/>
		<rect x="60.9" y="613.7" class="st1" width="239.5" height="239.5"/>
		<rect x="337.3" y="613.7" class="st1" width="239.5" height="239.5"/>
		<rect x="613.7" y="613.7" class="st1" width="239.5" height="239.5"/>
		<rect x="890.1" y="613.7" class="st1" width="239.5" height="239.5"/>
		<rect x="60.9" y="890.1" class="st1" width="239.5" height="239.5"/>
		<rect x="337.3" y="890.1" class="st1" width="239.5" height="239.5"/>
		<rect x="613.7" y="890.1" class="st1" width="239.5" height="239.5"/>
		<rect x="890.1" y="890.1" class="st1" width="239.5" height="239.5"/>
	</g>
</g>
<g id="Livello_4">
	<g>
		<rect x="60.9" y="60.9" class="st2" width="147.4" height="147.4"/>
		<rect x="245.2" y="60.9" class="st2" width="147.4" height="147.4"/>
		<rect x="429.4" y="60.9" class="st2" width="147.4" height="147.4"/>
		<rect x="613.7" y="60.9" class="st2" width="147.4" height="147.4"/>
		<rect x="798" y="60.9" class="st2" width="147.4" height="147.4"/>
		<rect x="982.2" y="60.9" class="st2" width="147.4" height="147.4"/>
		<rect x="60.9" y="245.2" class="st2" width="147.4" height="147.4"/>
		<rect x="245.2" y="245.2" class="st2" width="147.4" height="147.4"/>
		<rect x="429.4" y="245.2" class="st2" width="147.4" height="147.4"/>
		<rect x="613.7" y="245.2" class="st2" width="147.4" height="147.4"/>
		<rect x="798" y="245.2" class="st2" width="147.4" height="147.4"/>
		<rect x="982.2" y="245.2" class="st2" width="147.4" height="147.4"/>
		<rect x="60.9" y="429.4" class="st2" width="147.4" height="147.4"/>
		<rect x="245.2" y="429.4" class="st2" width="147.4" height="147.4"/>
		<rect x="429.4" y="429.4" class="st2" width="147.4" height="147.4"/>
		<rect x="613.7" y="429.4" class="st2" width="147.4" height="147.4"/>
		<rect x="798" y="429.4" class="st2" width="147.4" height="147.4"/>
		<rect x="982.2" y="429.4" class="st2" width="147.4" height="147.4"/>
		<rect x="60.9" y="613.7" class="st2" width="147.4" height="147.4"/>
		<rect x="245.2" y="613.7" class="st2" width="147.4" height="147.4"/>
		<rect x="429.4" y="613.7" class="st2" width="147.4" height="147.4"/>
		<rect x="613.7" y="613.7" class="st2" width="147.4" height="147.4"/>
		<rect x="798" y="613.7" class="st2" width="147.4" height="147.4"/>
		<rect x="982.2" y="613.7" class="st2" width="147.4" height="147.4"/>
		<rect x="60.9" y="798" class="st2" width="147.4" height="147.4"/>
		<rect x="245.2" y="798" class="st2" width="147.4" height="147.4"/>
		<rect x="429.4" y="798" class="st2" width="147.4" height="147.4"/>
		<rect x="613.7" y="798" class="st2" width="147.4" height="147.4"/>
		<rect x="798" y="798" class="st2" width="147.4" height="147.4"/>
		<rect x="982.2" y="798" class="st2" width="147.4" height="147.4"/>
		<rect x="60.9" y="982.2" class="st2" width="147.4" height="147.4"/>
		<rect x="245.2" y="982.2" class="st2" width="147.4" height="147.4"/>
		<rect x="429.4" y="982.2" class="st2" width="147.4" height="147.4"/>
		<rect x="613.7" y="982.2" class="st2" width="147.4" height="147.4"/>
		<rect x="798" y="982.2" class="st2" width="147.4" height="147.4"/>
		<rect x="982.2" y="982.2" class="st2" width="147.4" height="147.4"/>
	</g>
</g>
<g id="Livello_3">
	<g>
		<rect x="60.9" y="60.9" class="st3" width="184.3" height="184.3"/>
		<rect x="282" y="60.9" class="st3" width="184.3" height="184.3"/>
		<rect x="503.1" y="60.9" class="st3" width="184.3" height="184.3"/>
		<rect x="724.3" y="60.9" class="st3" width="184.3" height="184.3"/>
		<rect x="945.4" y="60.9" class="st3" width="184.3" height="184.3"/>
		<rect x="60.9" y="282" class="st3" width="184.3" height="184.3"/>
		<rect x="282" y="282" class="st3" width="184.3" height="184.3"/>
		<rect x="503.1" y="282" class="st3" width="184.3" height="184.3"/>
		<rect x="724.3" y="282" class="st3" width="184.3" height="184.3"/>
		<rect x="945.4" y="282" class="st3" width="184.3" height="184.3"/>
		<rect x="60.9" y="503.1" class="st3" width="184.3" height="184.3"/>
		<rect x="282" y="503.1" class="st3" width="184.3" height="184.3"/>
		<rect x="503.1" y="503.1" class="st3" width="184.3" height="184.3"/>
		<rect x="724.3" y="503.1" class="st3" width="184.3" height="184.3"/>
		<rect x="945.4" y="503.1" class="st3" width="184.3" height="184.3"/>
		<rect x="60.9" y="724.3" class="st3" width="184.3" height="184.3"/>
		<rect x="282" y="724.3" class="st3" width="184.3" height="184.3"/>
		<rect x="503.1" y="724.3" class="st3" width="184.3" height="184.3"/>
		<rect x="724.3" y="724.3" class="st3" width="184.3" height="184.3"/>
		<rect x="945.4" y="724.3" class="st3" width="184.3" height="184.3"/>
		<rect x="60.9" y="945.4" class="st3" width="184.3" height="184.3"/>
		<rect x="282" y="945.4" class="st3" width="184.3" height="184.3"/>
		<rect x="503.1" y="945.4" class="st3" width="184.3" height="184.3"/>
		<rect x="724.3" y="945.4" class="st3" width="184.3" height="184.3"/>
		<rect x="945.4" y="945.4" class="st3" width="184.3" height="184.3"/>
	</g>
</g>
<g>
	<defs>
		<rect id="SVGID_1_" x="503.1" y="282" width="184.3" height="184.3"/>
	</defs>
	<clipPath id="SVGID_2_">
		<use xlink:href="#SVGID_1_"  style="overflow:visible;"/>
	</clipPath>
	<g transform="matrix(1 0 0 1 0 -3.814697e-06)" style="clip-path:url(#SVGID_2_);enable-background:new    ;">
		
			<image style="overflow:visible;" width="1061" height="1640" xlink:href="890234_03.jpg"  transform="matrix(0.2676 0 0 0.2927 447.2638 56.4001)">
		</image>
	</g>
</g>
<g>
	<defs>
		<circle id="SVGID_3_" cx="604.2" cy="817.9" r="118"/>
	</defs>
	<clipPath id="SVGID_4_">
		<use xlink:href="#SVGID_3_"  style="overflow:visible;"/>
	</clipPath>
	<g style="clip-path:url(#SVGID_4_);">
		
			<image style="overflow:visible;" width="1061" height="1600" xlink:href="890234_05.estensione.jpg"  transform="matrix(0.24 0 0 0.24 479.5413 634.371)">
		</image>
	</g>
</g>
</svg>
