<svg id="Livello_1" data-name="Livello 1" xmlns="http://www.w3.org/2000/svg" xmlns:xlink="http://www.w3.org/1999/xlink" viewBox="0 0 1190.55 1190.55"><defs><style>.cls-1,.cls-3,.cls-4,.cls-5{fill:none;}.cls-2{fill:#8dc63f;}.cls-3{stroke:#048040;}.cls-3,.cls-4,.cls-5{stroke-miterlimit:10;stroke-width:0.75px;}.cls-4{stroke:#3c51a3;}.cls-5{stroke:#ab1e34;}.cls-6{clip-path:url(#clip-path);}.cls-7{clip-path:url(#clip-path-2);}.cls-8{clip-path:url(#clip-path-3);}.cls-9{font-size:60px;font-family:OpenSansCondensed-Bold, Open Sans Condensed;font-weight:700;}.cls-10,.cls-11,.cls-9{fill:#231f20;}.cls-10{font-size:16px;font-family:OpenSans-Light, Open Sans;}.cls-11{font-size:10px;font-family:EBGaramond-Italic, EB Garamond;font-style:italic;}.cls-12{letter-spacing:-0.01em;}.cls-13{letter-spacing:-0.02em;}.cls-14{letter-spacing:-0.02em;}.cls-15{letter-spacing:-0.03em;}.cls-16{letter-spacing:-0.02em;}.cls-17{letter-spacing:-0.04em;}</style><clipPath id="clip-path"><rect class="cls-1" x="60.94" y="245.76" width="147.41" height="146.84"/></clipPath><clipPath id="clip-path-2"><rect class="cls-1" x="-83.72" y="153.23" width="683.24" height="382.85"/></clipPath><clipPath id="clip-path-3"><circle class="cls-1" cx="595.28" cy="595.28" r="283.46"/></clipPath></defs><title>Tavola disegno 7</title><rect class="cls-2" width="1190.55" height="1190.55"/><rect class="cls-1" x="318.9" y="224.28" width="169.32" height="169.32"/><rect class="cls-3" x="890.08" y="60.94" width="239.53" height="239.53"/><rect class="cls-3" x="613.7" y="60.94" width="239.53" height="239.53"/><rect class="cls-3" x="337.32" y="60.94" width="239.53" height="239.53"/><rect class="cls-3" x="60.94" y="60.94" width="239.53" height="239.53"/><rect class="cls-3" x="890.08" y="337.32" width="239.53" height="239.53"/><rect class="cls-3" x="613.7" y="337.32" width="239.53" height="239.53"/><rect class="cls-3" x="337.32" y="337.32" width="239.53" height="239.53"/><rect class="cls-3" x="60.94" y="337.32" width="239.53" height="239.53"/><rect class="cls-3" x="890.08" y="613.7" width="239.53" height="239.53"/><rect class="cls-3" x="613.7" y="613.7" width="239.53" height="239.53"/><rect class="cls-3" x="337.32" y="613.7" width="239.53" height="239.53"/><rect class="cls-3" x="60.94" y="613.7" width="239.53" height="239.53"/><rect class="cls-3" x="890.08" y="890.08" width="239.53" height="239.53"/><rect class="cls-3" x="613.7" y="890.08" width="239.53" height="239.53"/><rect class="cls-3" x="337.32" y="890.08" width="239.53" height="239.53"/><rect class="cls-3" x="60.94" y="890.08" width="239.53" height="239.53"/><rect class="cls-4" x="945.35" y="60.94" width="184.25" height="184.25"/><rect class="cls-4" x="724.25" y="60.94" width="184.25" height="184.25"/><rect class="cls-4" x="503.15" y="60.94" width="184.25" height="184.25"/><rect class="cls-4" x="282.05" y="60.94" width="184.25" height="184.25"/><rect class="cls-4" x="60.94" y="60.94" width="184.25" height="184.25"/><rect class="cls-4" x="945.35" y="282.05" width="184.25" height="184.25"/><rect class="cls-4" x="724.25" y="282.05" width="184.25" height="184.25"/><rect class="cls-4" x="503.15" y="282.05" width="184.25" height="184.25"/><rect class="cls-4" x="282.05" y="282.05" width="184.25" height="184.25"/><rect class="cls-4" x="60.94" y="282.05" width="184.25" height="184.25"/><rect class="cls-4" x="945.35" y="503.15" width="184.25" height="184.25"/><rect class="cls-4" x="724.25" y="503.15" width="184.25" height="184.25"/><rect class="cls-4" x="503.15" y="503.15" width="184.25" height="184.25"/><rect class="cls-4" x="282.05" y="503.15" width="184.25" height="184.25"/><rect class="cls-4" x="60.94" y="503.15" width="184.25" height="184.25"/><rect class="cls-4" x="945.35" y="724.25" width="184.25" height="184.25"/><rect class="cls-4" x="724.25" y="724.25" width="184.25" height="184.25"/><rect class="cls-4" x="503.15" y="724.25" width="184.25" height="184.25"/><rect class="cls-4" x="282.05" y="724.25" width="184.25" height="184.25"/><rect class="cls-4" x="60.94" y="724.25" width="184.25" height="184.25"/><rect class="cls-4" x="945.35" y="945.35" width="184.25" height="184.25"/><rect class="cls-4" x="724.25" y="945.35" width="184.25" height="184.25"/><rect class="cls-4" x="503.15" y="945.35" width="184.25" height="184.25"/><rect class="cls-4" x="282.05" y="945.35" width="184.25" height="184.25"/><rect class="cls-4" x="60.94" y="945.35" width="184.25" height="184.25"/><rect class="cls-5" x="60.94" y="60.94" width="147.4" height="147.4"/><rect class="cls-5" x="245.2" y="60.94" width="147.4" height="147.4"/><rect class="cls-5" x="429.45" y="60.94" width="147.4" height="147.4"/><rect class="cls-5" x="613.7" y="60.94" width="147.4" height="147.4"/><rect class="cls-5" x="797.95" y="60.94" width="147.4" height="147.4"/><rect class="cls-5" x="982.2" y="60.94" width="147.4" height="147.4"/><rect class="cls-5" x="60.94" y="245.2" width="147.4" height="147.4"/><rect class="cls-5" x="245.2" y="245.2" width="147.4" height="147.4"/><rect class="cls-5" x="429.45" y="245.2" width="147.4" height="147.4"/><rect class="cls-5" x="613.7" y="245.2" width="147.4" height="147.4"/><rect class="cls-5" x="797.95" y="245.2" width="147.4" height="147.4"/><rect class="cls-5" x="982.2" y="245.2" width="147.4" height="147.4"/><rect class="cls-5" x="60.94" y="429.45" width="147.4" height="147.4"/><rect class="cls-5" x="245.2" y="429.45" width="147.4" height="147.4"/><rect class="cls-5" x="429.45" y="429.45" width="147.4" height="147.4"/><rect class="cls-5" x="613.7" y="429.45" width="147.4" height="147.4"/><rect class="cls-5" x="797.95" y="429.45" width="147.4" height="147.4"/><rect class="cls-5" x="982.2" y="429.45" width="147.4" height="147.4"/><rect class="cls-5" x="60.94" y="613.7" width="147.4" height="147.4"/><rect class="cls-5" x="245.2" y="613.7" width="147.4" height="147.4"/><rect class="cls-5" x="429.45" y="613.7" width="147.4" height="147.4"/><rect class="cls-5" x="613.7" y="613.7" width="147.4" height="147.4"/><rect class="cls-5" x="797.95" y="613.7" width="147.4" height="147.4"/><rect class="cls-5" x="982.2" y="613.7" width="147.4" height="147.4"/><rect class="cls-5" x="60.94" y="797.95" width="147.4" height="147.4"/><rect class="cls-5" x="245.2" y="797.95" width="147.4" height="147.4"/><rect class="cls-5" x="429.45" y="797.95" width="147.4" height="147.4"/><rect class="cls-5" x="613.7" y="797.95" width="147.4" height="147.4"/><rect class="cls-5" x="797.95" y="797.95" width="147.4" height="147.4"/><rect class="cls-5" x="982.2" y="797.95" width="147.4" height="147.4"/><rect class="cls-5" x="60.94" y="982.2" width="147.4" height="147.4"/><rect class="cls-5" x="245.2" y="982.2" width="147.4" height="147.4"/><rect class="cls-5" x="429.45" y="982.2" width="147.4" height="147.4"/><rect class="cls-5" x="613.7" y="982.2" width="147.4" height="147.4"/><rect class="cls-5" x="797.95" y="982.2" width="147.4" height="147.4"/><rect class="cls-5" x="982.2" y="982.2" width="147.4" height="147.4"/><rect class="cls-1" x="318.9" y="223.28" width="169.32" height="169.32"/><g class="cls-6"><g class="cls-7"><image width="960" height="540" transform="translate(-83.72 153.23) scale(0.71 0.71)" xlink:href="890231_03.jpg"/></g></g><g class="cls-8"><image width="1024" height="690" transform="translate(240.9 282.98) scale(0.92)" xlink:href="890231_05.jpg"/></g><text></text><text class="cls-9" transform="translate(466.3 208.35)">Natura viva </text><text class="cls-10" transform="translate(60.94 902.58)">Lorem ipsum dolor sit amet, con<tspan x="232.8" y="0">-</tspan><tspan x="0" y="24">sectetuer adipiscing elit, sed </tspan><tspan x="0" y="48">diam nonummy nibh euismod </tspan><tspan x="0" y="72">tincidunt ut laoreet dolore </tspan><tspan x="0" y="96">magna aliquam erat volutpat. Ut </tspan><tspan x="0" y="120">wisi enim ad minim veniam, quis </tspan><tspan x="0" y="144">nostrud exerci tation ullamcor</tspan><tspan x="216.36" y="144">-</tspan><tspan x="0" y="168">per suscipit lobortis nisl ut ali</tspan><tspan x="208.55" y="168">-</tspan><tspan x="0" y="192">quip ex ea commodo consequat. </tspan><tspan x="0" y="216">Duis autem vel eum iriure dolor </tspan></text><text class="cls-11" transform="translate(890.08 620.75)">Lorem <tspan class="cls-12" x="26.72" y="0">i</tspan><tspan x="29.51" y="0">ps</tspan><tspan class="cls-12" x="36.66" y="0">u</tspan><tspan x="41.6" y="0">m d</tspan><tspan class="cls-13" x="56.65" y="0">o</tspan><tspan x="60.25" y="0">lor sit </tspan><tspan class="cls-14" x="83.32" y="0">a</tspan><tspan x="88.03" y="0">met, </tspan><tspan class="cls-12" x="106.4" y="0">c</tspan><tspan x="109.38" y="0">onsectet</tspan><tspan class="cls-13" x="137" y="0">u</tspan><tspan x="141.89" y="0">er ad</tspan><tspan class="cls-12" x="161.16" y="0">i</tspan><tspan x="163.95" y="0">pisc</tspan><tspan class="cls-12" x="177.17" y="0">i</tspan><tspan x="179.96" y="0">ng </tspan><tspan class="cls-15" x="191.38" y="0">e</tspan><tspan x="194.54" y="0">lit, sed </tspan><tspan x="0" y="12">di</tspan><tspan class="cls-14" x="8.1" y="12">a</tspan><tspan x="12.81" y="12">m non</tspan><tspan class="cls-16" x="37.04" y="12">u</tspan><tspan class="cls-14" x="41.98" y="12">mm</tspan><tspan x="57.36" y="12">y n</tspan><tspan class="cls-15" x="68.68" y="12">i</tspan><tspan class="cls-13" x="71.37" y="12">b</tspan><tspan x="75.66" y="12">h euismod t</tspan><tspan class="cls-12" x="118.51" y="12">i</tspan><tspan x="121.3" y="12">nc</tspan><tspan class="cls-14" x="129.7" y="12">i</tspan><tspan x="132.44" y="12">d</tspan><tspan class="cls-12" x="137.6" y="12">u</tspan><tspan x="142.54" y="12">nt ut laoreet d</tspan><tspan class="cls-13" x="195" y="12">o</tspan><tspan x="198.6" y="12">lore </tspan><tspan x="0" y="24">magna </tspan><tspan class="cls-14" x="29.13" y="24">a</tspan><tspan x="33.84" y="24">l</tspan><tspan class="cls-13" x="36.7" y="24">i</tspan><tspan x="39.44" y="24">qu</tspan><tspan class="cls-14" x="49.26" y="24">a</tspan><tspan x="53.97" y="24">m e</tspan><tspan class="cls-17" x="67.27" y="24">r</tspan><tspan x="70.66" y="24">at v</tspan><tspan class="cls-13" x="84.59" y="24">o</tspan><tspan x="88.19" y="24">lutpat. Ut wisi en</tspan><tspan class="cls-12" x="152.9" y="24">i</tspan><tspan x="155.69" y="24">m ad m</tspan><tspan class="cls-12" x="185.54" y="24">i</tspan><tspan x="188.33" y="24">n</tspan><tspan class="cls-12" x="193.6" y="24">i</tspan><tspan x="196.39" y="24">m veni</tspan><tspan class="cls-14" x="222" y="24">a</tspan><tspan x="226.71" y="24">m, </tspan><tspan x="0" y="36">quis nostr</tspan><tspan class="cls-14" x="36.06" y="36">u</tspan><tspan x="40.95" y="36">d exerci tat</tspan><tspan class="cls-13" x="81.92" y="36">i</tspan><tspan x="84.66" y="36">on </tspan></text><text class="cls-10" transform="translate(839.9 791.56)">Lorem ipsum dolor sit <tspan x="-33.97" y="24">amet, consectetuer adipiscing elit, </tspan><tspan x="-56.88" y="48">sed diam nonummy nibh euismod tinci</tspan><tspan x="222.64" y="48">-</tspan><tspan x="-73.21" y="72">dunt ut laoreet dolore magna aliquam erat vo</tspan><tspan x="253.67" y="72">-</tspan><tspan x="-84.7" y="96">lutpat. Ut wisi enim ad minim veniam, quis nostrud </tspan><tspan x="-92.21" y="120">exerci tation ullamcorper suscipit lobortis nisl ut </tspan><tspan x="-96.22" y="144">aliquip ex ea commodo consequat. Duis autem vel </tspan><tspan x="-96.27" y="168">eum iriure dolor in hendrerit in vulputate velit esse </tspan><tspan x="-92.33" y="192">molestie consequat, vel illum dolore eu feugiat nulla </tspan><tspan x="-84.89" y="216">facilisis at vero eros et accumsan et iusto odio </tspan><tspan x="-73.5" y="240">dignissim qui blandit praesent luptatum zzril </tspan><tspan x="-57.28" y="264">delenit augue duis dolore te feugait nulla </tspan><tspan x="-34.54" y="288">facilisi.</tspan><tspan x="-0.89" y="312">Lorem ipsum dolor sit </tspan><tspan x="71.33" y="336">amet, </tspan></text></svg>