<?xml version="1.0" encoding="utf-8"?>
<!-- Generator: Adobe Illustrator 22.1.0, SVG Export Plug-In . SVG Version: 6.00 Build 0)  -->
<svg version="1.1" xmlns="http://www.w3.org/2000/svg" xmlns:xlink="http://www.w3.org/1999/xlink" x="0px" y="0px"
	 viewBox="0 0 1190.6 1190.6" style="enable-background:new 0 0 1190.6 1190.6;" xml:space="preserve">
<style type="text/css">
	.st0{fill:#9CCBEE;stroke:#1D1D1B;stroke-miterlimit:10;}
	.st1{clip-path:url(#SVGID_2_);enable-background:new    ;}
	.st2{fill:none;stroke:#DD1717;stroke-miterlimit:10;}
	.st3{fill:none;stroke:#15159B;stroke-miterlimit:10;}
	.st4{fill:none;}
	.st5{font-family:'OpenSans-Light';}
	.st6{font-size:16px;}
	.st7{fill:none;stroke:#218921;stroke-miterlimit:10;}
	.st8{font-family:'EBGaramond-Regular';}
	.st9{font-size:10px;}
	.st10{font-family:'OpenSansCondensed-Bold';}
	.st11{font-size:60px;}
	.st12{clip-path:url(#SVGID_4_);}
</style>
<g id="Livello_1">
	<g id="Livello_1_1_">
		<title>Tavola disegno 1</title>
		<rect x="0.1" y="18.4" class="st0" width="1190.6" height="1190.6"/>
	</g>
	<g>
		<g>
			<defs>
				<rect id="SVGID_1_" x="429.4" y="613.7" width="147.4" height="147.4"/>
			</defs>
			<clipPath id="SVGID_2_">
				<use xlink:href="#SVGID_1_"  style="overflow:visible;"/>
			</clipPath>
			<g class="st1">
				
					<image style="overflow:visible;enable-background:new    ;" width="300" height="250" xlink:href="../../Documents/890492-1.jpg"  transform="matrix(0.7372 0 0 0.7372 387.9 595.2501)">
				</image>
			</g>
		</g>
	</g>
	<g id="Livello_2_1_">
		<rect x="60.9" y="60.9" class="st2" width="239.5" height="239.5"/>
		<rect x="60.9" y="337.3" class="st2" width="239.5" height="239.5"/>
		<rect x="60.9" y="613.7" class="st2" width="239.5" height="239.5"/>
		<rect x="60.9" y="890.1" class="st2" width="239.5" height="239.5"/>
		<rect x="337.3" y="890.1" class="st2" width="239.5" height="239.5"/>
		<rect x="337.3" y="613.7" class="st2" width="239.5" height="239.5"/>
		<rect x="337.3" y="337.3" class="st2" width="239.5" height="239.5"/>
		<rect x="337.3" y="60.9" class="st2" width="239.5" height="239.5"/>
		<rect x="613.7" y="60.9" class="st2" width="239.5" height="239.5"/>
		<rect x="613.7" y="337.3" class="st2" width="239.5" height="239.5"/>
		<rect x="613.7" y="613.7" class="st2" width="239.5" height="239.5"/>
		<rect x="613.7" y="890.1" class="st2" width="239.5" height="239.5"/>
		<rect x="890.1" y="890.1" class="st2" width="239.5" height="239.5"/>
		<rect x="890.1" y="613.7" class="st2" width="239.5" height="239.5"/>
		<rect x="890.1" y="337.3" class="st2" width="239.5" height="239.5"/>
		<rect x="890.1" y="60.9" class="st2" width="239.5" height="239.5"/>
	</g>
	<g id="Livello_4">
		<rect x="982.3" y="61" class="st3" width="147.4" height="147.4"/>
		<rect x="982.3" y="245.2" class="st3" width="147.4" height="147.4"/>
		<rect x="982.3" y="429.4" class="st3" width="147.4" height="147.4"/>
		<rect x="982.3" y="613.8" class="st3" width="147.4" height="147.4"/>
		<rect x="982.3" y="798" class="st3" width="147.4" height="147.4"/>
		<rect x="982.3" y="982.2" class="st3" width="147.4" height="147.4"/>
		<rect x="798" y="982.2" class="st3" width="147.4" height="147.4"/>
		<rect x="798" y="798" class="st3" width="147.4" height="147.4"/>
		<rect x="798" y="613.8" class="st3" width="147.4" height="147.4"/>
		<rect x="798" y="429.4" class="st3" width="147.4" height="147.4"/>
		<rect x="798" y="245.2" class="st3" width="147.4" height="147.4"/>
		<rect x="798" y="61" class="st3" width="147.4" height="147.4"/>
		<rect x="613.8" y="61" class="st3" width="147.4" height="147.4"/>
		<rect x="613.8" y="245.2" class="st3" width="147.4" height="147.4"/>
		<rect x="613.8" y="429.4" class="st3" width="147.4" height="147.4"/>
		<rect x="613.8" y="613.8" class="st3" width="147.4" height="147.4"/>
		<rect x="613.8" y="798" class="st3" width="147.4" height="147.4"/>
		<rect x="613.8" y="982.2" class="st3" width="147.4" height="147.4"/>
		<rect x="429.5" y="61" class="st3" width="147.4" height="147.4"/>
		<rect x="429.5" y="245.2" class="st3" width="147.4" height="147.4"/>
		<rect x="429.5" y="429.4" class="st3" width="147.4" height="147.4"/>
		<rect x="429.5" y="613.8" class="st3" width="147.4" height="147.4"/>
		<rect x="429.5" y="798" class="st3" width="147.4" height="147.4"/>
		<rect x="429.5" y="982.2" class="st3" width="147.4" height="147.4"/>
		<rect x="245.3" y="61" class="st3" width="147.4" height="147.4"/>
		<rect x="245.3" y="245.2" class="st3" width="147.4" height="147.4"/>
		<rect x="245.3" y="429.4" class="st3" width="147.4" height="147.4"/>
		<rect x="245.3" y="613.8" class="st3" width="147.4" height="147.4"/>
		<rect x="245.3" y="798" class="st3" width="147.4" height="147.4"/>
		<rect x="245.3" y="982.2" class="st3" width="147.4" height="147.4"/>
		<rect x="61" y="61" class="st3" width="147.4" height="147.4"/>
		<rect x="61" y="245.2" class="st4" width="147.4" height="331.6"/>
		<text transform="matrix(1 0 0 1 60.9999 257.4097)"><tspan x="0" y="0" class="st5 st6">Lorem ipsum dolor </tspan><tspan x="0" y="24" class="st5 st6">sit amet, consecte</tspan><tspan x="129.3" y="24" class="st5 st6">-</tspan><tspan x="0" y="48" class="st5 st6">tuer adipiscing elit, </tspan><tspan x="0" y="72" class="st5 st6">sed diam nonummy </tspan><tspan x="0" y="96" class="st5 st6">nibh euismod tinci</tspan><tspan x="132.3" y="96" class="st5 st6">-</tspan><tspan x="0" y="120" class="st5 st6">dunt ut laoreet </tspan><tspan x="0" y="144" class="st5 st6">dolore magna ali</tspan><tspan x="119.8" y="144" class="st5 st6">-</tspan><tspan x="0" y="168" class="st5 st6">quam erat volutpat. </tspan></text>
		<rect x="61" y="429.4" class="st3" width="147.4" height="147.4"/>
		<rect x="61" y="613.8" class="st3" width="147.4" height="147.4"/>
		<rect x="61" y="798" class="st3" width="147.4" height="147.4"/>
		<rect x="61" y="982.2" class="st3" width="147.4" height="147.4"/>
	</g>
	<g id="Livello_3">
		<rect x="60.9" y="282" class="st7" width="184.3" height="184.3"/>
		<rect x="60.9" y="503.2" class="st7" width="184.3" height="184.3"/>
		<rect x="60.9" y="724.3" class="st7" width="184.3" height="184.3"/>
		<rect x="60.9" y="945.4" class="st7" width="184.3" height="184.3"/>
		<rect x="282" y="945.4" class="st7" width="184.3" height="184.3"/>
		<rect x="282" y="503.2" class="st7" width="184.3" height="184.3"/>
		<rect x="282" y="282" class="st7" width="184.3" height="184.3"/>
		<rect x="282" y="60.9" class="st7" width="184.3" height="184.3"/>
		<rect x="503.2" y="60.9" class="st7" width="184.3" height="184.3"/>
		<rect x="503.2" y="282" class="st7" width="184.3" height="184.3"/>
		<rect x="503.2" y="503.2" class="st7" width="184.3" height="184.3"/>
		<rect x="503.2" y="724.3" class="st7" width="184.3" height="184.3"/>
		<rect x="503.2" y="945.4" class="st7" width="184.3" height="184.3"/>
		<rect x="724.3" y="945.4" class="st7" width="184.3" height="184.3"/>
		<rect x="724.3" y="724.3" class="st7" width="184.3" height="184.3"/>
		<rect x="724.3" y="503.2" class="st7" width="184.3" height="184.3"/>
		<rect x="724.3" y="282.1" class="st7" width="184.3" height="184.3"/>
		<rect x="724.3" y="60.9" class="st7" width="184.3" height="184.3"/>
		<rect x="945.4" y="60.9" class="st7" width="184.3" height="184.3"/>
		<rect x="945.4" y="282" class="st7" width="184.3" height="184.3"/>
		<rect x="945.4" y="503.2" class="st7" width="184.3" height="184.3"/>
		<rect x="945.4" y="724.3" class="st4" width="184.3" height="184.3"/>
		<text transform="matrix(1 0 0 1 945.4004 731.3403)" class="st8 st9">Una strada di Londra </text>
		<rect x="945.4" y="945.4" class="st7" width="184.3" height="184.3"/>
		<rect x="282" y="724.3" class="st7" width="184.3" height="184.3"/>
	</g>
	<rect x="60.9" y="61.3" class="st4" width="491" height="99.6"/>
	<text transform="matrix(1 0 0 1 60.9 106.9144)" class="st10 st11">Esercizi sui vettori</text>
	<circle class="st4" cx="647.5" cy="340.5" r="159.9"/>
	<text transform="matrix(1 0 0 1 561.2529 216.81)"><tspan x="0" y="0" class="st5 st6">Lorem ipsum dolor sit </tspan><tspan x="-29.2" y="24" class="st5 st6">amet, consectetuer adipiscing </tspan><tspan x="-48.2" y="48" class="st5 st6">elit, sed diam nonummy nibh eui</tspan><tspan x="186.1" y="48" class="st5 st6">-</tspan><tspan x="-60.9" y="72" class="st5 st6">smod tincidunt ut laoreet dolore magna </tspan><tspan x="-69" y="96" class="st5 st6">aliquam erat volutpat. Ut wisi enim ad </tspan><tspan x="-73" y="120" class="st5 st6">minim veniam, quis nostrud exerci tation </tspan><tspan x="-72.4" y="144" class="st5 st6">ullamcorper suscipit lobortis nisl ut aliquip </tspan><tspan x="-67.5" y="168" class="st5 st6">ex ea commodo consequat. Duis autem </tspan><tspan x="-58.4" y="192" class="st5 st6">vel eum iriure dolor in hendrerit in vul</tspan><tspan x="212.7" y="192" class="st5 st6">-</tspan><tspan x="-44.4" y="216" class="st5 st6">putate velit esse molestie conse</tspan><tspan x="184.2" y="216" class="st5 st6">-</tspan><tspan x="-23.5" y="240" class="st5 st6">quat, vel illum dolore eu feu</tspan><tspan x="175.8" y="240" class="st5 st6">-</tspan><tspan x="9.5" y="264" class="st5 st6">giat nulla facilisis at </tspan></text>
</g>
<g id="Livello_3_1_">
	<g id="Livello_2">
		<g>
			<defs>
				<ellipse id="SVGID_3_" cx="836.4" cy="658.6" rx="86.5" ry="144.2"/>
			</defs>
			<clipPath id="SVGID_4_">
				<use xlink:href="#SVGID_3_"  style="overflow:visible;"/>
			</clipPath>
			<g class="st12">
				<defs>
					<rect id="SVGID_5_" x="711.8" y="482.4" width="224.3" height="334.1"/>
				</defs>
				<clipPath id="SVGID_6_">
					<use xlink:href="#SVGID_5_"  style="overflow:visible;"/>
				</clipPath>
				<g transform="matrix(1 0 0 1 0 0)" style="clip-path:url(#SVGID_6_);">
					
						<image style="overflow:visible;" width="472" height="703" xlink:href="890492_05.jpg"  transform="matrix(0.4752 0 0 0.4752 711.7959 482.3523)">
					</image>
				</g>
			</g>
		</g>
	</g>
</g>
</svg>
