<?xml version="1.0" encoding="utf-8"?>
<!-- Generator: Adobe Illustrator 22.1.0, SVG Export Plug-In . SVG Version: 6.00 Build 0)  -->
<svg version="1.1" xmlns="http://www.w3.org/2000/svg" xmlns:xlink="http://www.w3.org/1999/xlink" x="0px" y="0px"
	 viewBox="0 0 1190.6 1190.6" style="enable-background:new 0 0 1190.6 1190.6;" xml:space="preserve">
<style type="text/css">
	.st0{fill:#9CCBEE;stroke:#1D1D1B;stroke-miterlimit:10;}
	.st1{clip-path:url(#SVGID_2_);enable-background:new    ;}
	.st2{fill:none;stroke:#DD1717;stroke-miterlimit:10;}
	.st3{fill:none;stroke:#15159B;stroke-miterlimit:10;}
	.st4{fill:none;stroke:#218921;stroke-miterlimit:10;}
	.st5{clip-path:url(#SVGID_4_);}
</style>
<g id="Livello_1">
	<g id="Livello_1_1_">
		<title>Tavola disegno 1</title>
		<rect y="0" class="st0" width="1190.6" height="1190.6"/>
	</g>
	<g>
		<g>
			<defs>
				<rect id="SVGID_1_" x="429.4" y="613.7" width="147.4" height="147.4"/>
			</defs>
			<clipPath id="SVGID_2_">
				<use xlink:href="#SVGID_1_"  style="overflow:visible;"/>
			</clipPath>
			<g class="st1">
				
					<image style="overflow:visible;enable-background:new    ;" width="300" height="250" xlink:href="../../Documents/890492-1.jpg"  transform="matrix(0.7372 0 0 0.7372 387.9 595.2501)">
				</image>
			</g>
		</g>
	</g>
	<g id="Livello_2_1_">
		<rect x="60.9" y="60.9" class="st2" width="239.5" height="239.5"/>
		<rect x="60.9" y="337.3" class="st2" width="239.5" height="239.5"/>
		<rect x="60.9" y="613.7" class="st2" width="239.5" height="239.5"/>
		<rect x="60.9" y="890.1" class="st2" width="239.5" height="239.5"/>
		<rect x="337.3" y="890.1" class="st2" width="239.5" height="239.5"/>
		<rect x="337.3" y="613.7" class="st2" width="239.5" height="239.5"/>
		<rect x="337.3" y="337.3" class="st2" width="239.5" height="239.5"/>
		<rect x="337.3" y="60.9" class="st2" width="239.5" height="239.5"/>
		<rect x="613.7" y="60.9" class="st2" width="239.5" height="239.5"/>
		<rect x="613.7" y="337.3" class="st2" width="239.5" height="239.5"/>
		<rect x="613.7" y="613.7" class="st2" width="239.5" height="239.5"/>
		<rect x="613.7" y="890.1" class="st2" width="239.5" height="239.5"/>
		<rect x="890.1" y="890.1" class="st2" width="239.5" height="239.5"/>
		<rect x="890.1" y="613.7" class="st2" width="239.5" height="239.5"/>
		<rect x="890.1" y="337.3" class="st2" width="239.5" height="239.5"/>
		<rect x="890.1" y="60.9" class="st2" width="239.5" height="239.5"/>
	</g>
	<g id="Livello_4">
		<rect x="982.2" y="60.9" class="st3" width="147.4" height="147.4"/>
		<rect x="982.2" y="245.2" class="st3" width="147.4" height="147.4"/>
		<rect x="982.2" y="429.4" class="st3" width="147.4" height="147.4"/>
		<rect x="982.2" y="613.7" class="st3" width="147.4" height="147.4"/>
		<rect x="982.2" y="797.9" class="st3" width="147.4" height="147.4"/>
		<rect x="982.2" y="982.2" class="st3" width="147.4" height="147.4"/>
		<rect x="797.9" y="982.2" class="st3" width="147.4" height="147.4"/>
		<rect x="797.9" y="797.9" class="st3" width="147.4" height="147.4"/>
		<rect x="797.9" y="613.7" class="st3" width="147.4" height="147.4"/>
		<rect x="797.9" y="429.4" class="st3" width="147.4" height="147.4"/>
		<rect x="797.9" y="245.2" class="st3" width="147.4" height="147.4"/>
		<rect x="797.9" y="60.9" class="st3" width="147.4" height="147.4"/>
		<rect x="613.7" y="60.9" class="st3" width="147.4" height="147.4"/>
		<rect x="613.7" y="245.2" class="st3" width="147.4" height="147.4"/>
		<rect x="613.7" y="429.4" class="st3" width="147.4" height="147.4"/>
		<rect x="613.7" y="613.7" class="st3" width="147.4" height="147.4"/>
		<rect x="613.7" y="797.9" class="st3" width="147.4" height="147.4"/>
		<rect x="613.7" y="982.2" class="st3" width="147.4" height="147.4"/>
		<rect x="429.4" y="60.9" class="st3" width="147.4" height="147.4"/>
		<rect x="429.4" y="245.2" class="st3" width="147.4" height="147.4"/>
		<rect x="429.4" y="429.4" class="st3" width="147.4" height="147.4"/>
		<rect x="429.4" y="613.7" class="st3" width="147.4" height="147.4"/>
		<rect x="429.4" y="797.9" class="st3" width="147.4" height="147.4"/>
		<rect x="429.4" y="982.2" class="st3" width="147.4" height="147.4"/>
		<rect x="245.2" y="60.9" class="st3" width="147.4" height="147.4"/>
		<rect x="245.2" y="245.2" class="st3" width="147.4" height="147.4"/>
		<rect x="245.2" y="429.4" class="st3" width="147.4" height="147.4"/>
		<rect x="245.2" y="613.7" class="st3" width="147.4" height="147.4"/>
		<rect x="245.2" y="797.9" class="st3" width="147.4" height="147.4"/>
		<rect x="245.2" y="982.2" class="st3" width="147.4" height="147.4"/>
		<rect x="60.9" y="60.9" class="st3" width="147.4" height="147.4"/>
		<rect x="60.9" y="245.2" class="st3" width="147.4" height="147.4"/>
		<rect x="60.9" y="429.4" class="st3" width="147.4" height="147.4"/>
		<rect x="60.9" y="613.7" class="st3" width="147.4" height="147.4"/>
		<rect x="60.9" y="797.9" class="st3" width="147.4" height="147.4"/>
		<rect x="60.9" y="982.2" class="st3" width="147.4" height="147.4"/>
	</g>
	<g id="Livello_3">
		<rect x="60.9" y="60.9" class="st4" width="184.3" height="184.3"/>
		<rect x="60.9" y="282" class="st4" width="184.3" height="184.3"/>
		<rect x="60.9" y="503.2" class="st4" width="184.3" height="184.3"/>
		<rect x="60.9" y="724.3" class="st4" width="184.3" height="184.3"/>
		<rect x="60.9" y="945.4" class="st4" width="184.3" height="184.3"/>
		<rect x="282" y="945.4" class="st4" width="184.3" height="184.3"/>
		<rect x="282" y="503.2" class="st4" width="184.3" height="184.3"/>
		<rect x="282" y="282" class="st4" width="184.3" height="184.3"/>
		<rect x="282" y="60.9" class="st4" width="184.3" height="184.3"/>
		<rect x="503.2" y="60.9" class="st4" width="184.3" height="184.3"/>
		<rect x="503.2" y="282" class="st4" width="184.3" height="184.3"/>
		<rect x="503.2" y="503.2" class="st4" width="184.3" height="184.3"/>
		<rect x="503.2" y="724.3" class="st4" width="184.3" height="184.3"/>
		<rect x="503.2" y="945.4" class="st4" width="184.3" height="184.3"/>
		<rect x="724.3" y="945.4" class="st4" width="184.3" height="184.3"/>
		<rect x="724.3" y="724.3" class="st4" width="184.3" height="184.3"/>
		<rect x="724.3" y="503.2" class="st4" width="184.3" height="184.3"/>
		<rect x="724.3" y="282.1" class="st4" width="184.3" height="184.3"/>
		<rect x="724.3" y="60.9" class="st4" width="184.3" height="184.3"/>
		<rect x="945.4" y="60.9" class="st4" width="184.3" height="184.3"/>
		<rect x="945.4" y="282" class="st4" width="184.3" height="184.3"/>
		<rect x="945.4" y="503.2" class="st4" width="184.3" height="184.3"/>
		<rect x="945.4" y="724.3" class="st4" width="184.3" height="184.3"/>
		<rect x="945.4" y="945.4" class="st4" width="184.3" height="184.3"/>
		<rect x="282" y="724.3" class="st4" width="184.3" height="184.3"/>
	</g>
</g>
<g id="Livello_3_1_">
	<g id="Livello_2">
		<g>
			<defs>
				<ellipse id="SVGID_3_" cx="836.4" cy="658.6" rx="86.5" ry="144.2"/>
			</defs>
			<clipPath id="SVGID_4_">
				<use xlink:href="#SVGID_3_"  style="overflow:visible;"/>
			</clipPath>
			<g class="st5">
				<defs>
					<rect id="SVGID_5_" x="711.8" y="482.4" width="224.3" height="334.1"/>
				</defs>
				<clipPath id="SVGID_6_">
					<use xlink:href="#SVGID_5_"  style="overflow:visible;"/>
				</clipPath>
				<g transform="matrix(1 0 0 1 0 0)" style="clip-path:url(#SVGID_6_);">
					
						<image style="overflow:visible;" width="472" height="703" xlink:href="890492_05.jpg"  transform="matrix(0.4752 0 0 0.4752 711.7959 482.3523)">
					</image>
				</g>
			</g>
		</g>
	</g>
</g>
</svg>
