<?xml version="1.0" encoding="utf-8"?>
<!-- Generator: Adobe Illustrator 22.1.0, SVG Export Plug-In . SVG Version: 6.00 Build 0)  -->
<svg version="1.1" id="Livello_1" xmlns="http://www.w3.org/2000/svg" xmlns:xlink="http://www.w3.org/1999/xlink" x="0px" y="0px"
	 viewBox="0 0 1190.6 1190.6" style="enable-background:new 0 0 1190.6 1190.6;" xml:space="preserve">
<style type="text/css">
	.st0{fill:#4FBCBD;}
	.st1{fill:none;stroke:#182C93;stroke-miterlimit:10;}
	.st2{fill:none;stroke:#EDED6E;stroke-miterlimit:10;}
	.st3{fill:none;stroke:#CE1194;stroke-miterlimit:10;}
	.st4{clip-path:url(#SVGID_2_);}
	.st5{clip-path:url(#SVGID_4_);}
</style>
<title>890725_05</title>
<g id="Livello_1_1_">
	<g id="Livello_1-3">
		<rect y="0" class="st0" width="1190.6" height="1190.6"/>
	</g>
</g>
<g id="Livello_4">
	<g id="Livello_3">
		<rect x="503.2" y="503.2" class="st1" width="184.3" height="184.3"/>
		<rect x="724.3" y="503.2" class="st1" width="184.3" height="184.3"/>
		<rect x="61" y="503.2" class="st1" width="184.3" height="184.3"/>
		<rect x="282.1" y="503.2" class="st1" width="184.3" height="184.3"/>
		<rect x="945.4" y="503.2" class="st1" width="184.3" height="184.3"/>
		<rect x="503.2" y="282.1" class="st1" width="184.3" height="184.3"/>
		<rect x="724.3" y="282.1" class="st1" width="184.3" height="184.3"/>
		<rect x="61" y="282.1" class="st1" width="184.3" height="184.3"/>
		<rect x="282.1" y="282.1" class="st1" width="184.3" height="184.3"/>
		<rect x="945.4" y="282.1" class="st1" width="184.3" height="184.3"/>
		<rect x="503.2" y="945.4" class="st1" width="184.3" height="184.3"/>
		<rect x="724.3" y="945.4" class="st1" width="184.3" height="184.3"/>
		<rect x="61" y="945.4" class="st1" width="184.3" height="184.3"/>
		<rect x="282.1" y="945.4" class="st1" width="184.3" height="184.3"/>
		<rect x="945.4" y="945.4" class="st1" width="184.3" height="184.3"/>
		<rect x="503.2" y="724.3" class="st1" width="184.3" height="184.3"/>
		<rect x="724.3" y="724.3" class="st1" width="184.3" height="184.3"/>
		<rect x="61" y="724.3" class="st1" width="184.3" height="184.3"/>
		<rect x="282.1" y="724.3" class="st1" width="184.3" height="184.3"/>
		<rect x="945.4" y="724.3" class="st1" width="184.3" height="184.3"/>
		<rect x="503.2" y="61" class="st1" width="184.3" height="184.3"/>
		<rect x="724.3" y="61" class="st1" width="184.3" height="184.3"/>
		<rect x="61" y="61" class="st1" width="184.3" height="184.3"/>
		<rect x="282.1" y="61" class="st1" width="184.3" height="184.3"/>
		<rect x="945.4" y="61" class="st1" width="184.3" height="184.3"/>
	</g>
</g>
<g id="Livello_3-2">
	<g id="Livello_4-2">
		<rect x="429.5" y="429.5" class="st2" width="147.4" height="147.4"/>
		<rect x="613.7" y="429.5" class="st2" width="147.4" height="147.4"/>
		<rect x="429.5" y="613.7" class="st2" width="147.4" height="147.4"/>
		<rect x="613.7" y="613.7" class="st2" width="147.4" height="147.4"/>
		<rect x="429.5" y="798" class="st2" width="147.4" height="147.4"/>
		<rect x="613.7" y="798" class="st2" width="147.4" height="147.4"/>
		<rect x="429.5" y="982.2" class="st2" width="147.4" height="147.4"/>
		<rect x="613.7" y="982.2" class="st2" width="147.4" height="147.4"/>
		<rect x="429.5" y="61" class="st2" width="147.4" height="147.4"/>
		<rect x="613.7" y="61" class="st2" width="147.4" height="147.4"/>
		<rect x="429.5" y="245.2" class="st2" width="147.4" height="147.4"/>
		<rect x="613.7" y="245.2" class="st2" width="147.4" height="147.4"/>
		<rect x="61" y="429.5" class="st2" width="147.4" height="147.4"/>
		<rect x="245.2" y="429.5" class="st2" width="147.4" height="147.4"/>
		<rect x="61" y="613.7" class="st2" width="147.4" height="147.4"/>
		<rect x="245.2" y="613.7" class="st2" width="147.4" height="147.4"/>
		<rect x="61" y="798" class="st2" width="147.4" height="147.4"/>
		<rect x="245.2" y="798" class="st2" width="147.4" height="147.4"/>
		<rect x="61" y="982.2" class="st2" width="147.4" height="147.4"/>
		<rect x="245.2" y="982.2" class="st2" width="147.4" height="147.4"/>
		<rect x="61" y="61" class="st2" width="147.4" height="147.4"/>
		<rect x="245.2" y="61" class="st2" width="147.4" height="147.4"/>
		<rect x="61" y="245.2" class="st2" width="147.4" height="147.4"/>
		<rect x="245.2" y="245.2" class="st2" width="147.4" height="147.4"/>
		<rect x="798" y="429.5" class="st2" width="147.4" height="147.4"/>
		<rect x="982.2" y="429.5" class="st2" width="147.4" height="147.4"/>
		<rect x="798" y="613.7" class="st2" width="147.4" height="147.4"/>
		<rect x="982.2" y="613.7" class="st2" width="147.4" height="147.4"/>
		<rect x="798" y="798" class="st2" width="147.4" height="147.4"/>
		<rect x="982.2" y="798" class="st2" width="147.4" height="147.4"/>
		<rect x="798" y="982.2" class="st2" width="147.4" height="147.4"/>
		<rect x="982.2" y="982.2" class="st2" width="147.4" height="147.4"/>
		<rect x="798" y="61" class="st2" width="147.4" height="147.4"/>
		<rect x="982.2" y="61" class="st2" width="147.4" height="147.4"/>
		<rect x="798" y="245.2" class="st2" width="147.4" height="147.4"/>
		<rect x="982.2" y="245.2" class="st2" width="147.4" height="147.4"/>
	</g>
</g>
<g id="Livello_5">
	<rect x="337.4" y="337.4" class="st3" width="239.5" height="239.5"/>
	<g>
		<defs>
			<rect id="SVGID_1_" x="613.7" y="337.4" width="239.5" height="239.5"/>
		</defs>
		<clipPath id="SVGID_2_">
			<use xlink:href="#SVGID_1_"  style="overflow:visible;"/>
		</clipPath>
		<g class="st4">
			<g id="Livello_2-2">
				<g id="_890725_03.psd">
					
						<image style="overflow:visible;" width="1900" height="1424" id="_890725_03" xlink:href="890725_03.png"  transform="matrix(0.37 0 0 0.37 392.4446 234.0572)">
					</image>
				</g>
			</g>
		</g>
	</g>
	<rect x="337.4" y="61" class="st3" width="239.5" height="239.5"/>
	<rect x="613.7" y="61" class="st3" width="239.5" height="239.5"/>
	<rect x="337.4" y="613.7" class="st3" width="239.5" height="239.5"/>
	<rect x="613.7" y="613.7" class="st3" width="239.5" height="239.5"/>
	<rect x="337.4" y="890.1" class="st3" width="239.5" height="239.5"/>
	<rect x="61" y="337.4" class="st3" width="239.5" height="239.5"/>
	<rect x="61" y="61" class="st3" width="239.5" height="239.5"/>
	<rect x="61" y="613.7" class="st3" width="239.5" height="239.5"/>
	<rect x="61" y="890.1" class="st3" width="239.5" height="239.5"/>
	<rect x="613.7" y="890.1" class="st3" width="239.5" height="239.5"/>
	<rect x="890.1" y="337.4" class="st3" width="239.5" height="239.5"/>
	<rect x="890.1" y="61" class="st3" width="239.5" height="239.5"/>
	<rect x="890.1" y="613.7" class="st3" width="239.5" height="239.5"/>
	<rect x="890.1" y="890.1" class="st3" width="239.5" height="239.5"/>
</g>
<g id="Livello_6">
	<g>
		<defs>
			<circle id="SVGID_3_" cx="337.4" cy="945.4" r="158.8"/>
		</defs>
		<clipPath id="SVGID_4_">
			<use xlink:href="#SVGID_3_"  style="overflow:visible;"/>
		</clipPath>
		<g class="st5">
			<g id="foto.psd">
				
					<image style="overflow:visible;enable-background:new    ;" width="1184" height="802" id="foto" xlink:href="2CBB0400.png"  transform="matrix(0.538 0 0 0.538 34.1158 733.4501)">
				</image>
			</g>
		</g>
	</g>
</g>
</svg>
