<svg id="Livello_1" data-name="Livello 1" xmlns="http://www.w3.org/2000/svg" xmlns:xlink="http://www.w3.org/1999/xlink" viewBox="0 0 1190.6 1190.6"><defs><style>.cls-1,.cls-3,.cls-4,.cls-5{fill:none;}.cls-2{fill:#ff0;}.cls-3{stroke:#1bd715;}.cls-3,.cls-4,.cls-5{stroke-miterlimit:10;}.cls-4{stroke:red;}.cls-5{stroke:#2c0fd6;}.cls-6{clip-path:url(#clip-path);}.cls-7{isolation:isolate;}.cls-8{clip-path:url(#clip-path-2);}.cls-9{font-size:60px;font-family:OpenSansCondensed-Bold, Open Sans Condensed;font-weight:700;}.cls-10{font-size:16px;font-family:OpenSansCondensed-Light, Open Sans Condensed;}.cls-11{font-size:10px;font-family:EBGaramond-Italic, EB Garamond;font-style:italic;}.cls-12{letter-spacing:-0.05em;}.cls-13{letter-spacing:-0.02em;}.cls-14{letter-spacing:-0.01em;}.cls-15{letter-spacing:-0.02em;}</style><clipPath id="clip-path"><rect class="cls-1" x="889.47" y="59.92" width="240.52" height="240.8"/></clipPath><clipPath id="clip-path-2"><circle class="cls-1" cx="688.62" cy="207.05" r="141.73"/></clipPath></defs><title>Tavola disegno 1</title><g id="Livello_2" data-name="Livello 2"><g id="Colore"><rect class="cls-2" width="1190.6" height="1190.6"/></g><rect class="cls-3" x="889.9" y="889.66" width="239.53" height="239.53"/><rect class="cls-3" x="613.52" y="889.66" width="239.53" height="239.53"/><rect class="cls-3" x="337.14" y="889.66" width="239.53" height="239.53"/><rect class="cls-3" x="60.77" y="889.66" width="239.53" height="239.53"/><rect class="cls-3" x="889.9" y="613.28" width="239.53" height="239.53"/><rect class="cls-3" x="613.52" y="613.28" width="239.53" height="239.53"/><rect class="cls-3" x="337.14" y="613.28" width="239.53" height="239.53"/><rect class="cls-3" x="60.77" y="613.28" width="239.53" height="239.53"/><rect class="cls-3" x="889.9" y="336.9" width="239.53" height="239.53"/><rect class="cls-3" x="613.52" y="336.9" width="239.53" height="239.53"/><rect class="cls-3" x="337.14" y="336.9" width="239.53" height="239.53"/><rect class="cls-3" x="60.77" y="336.9" width="239.53" height="239.53"/><rect class="cls-3" x="889.9" y="60.52" width="239.53" height="239.53"/><rect class="cls-3" x="613.52" y="60.52" width="239.53" height="239.53"/><rect class="cls-3" x="337.14" y="60.52" width="239.53" height="239.53"/><rect class="cls-3" x="60.77" y="60.52" width="239.53" height="239.53"/></g><g id="Livello_3" data-name="Livello 3"><rect class="cls-4" x="945.17" y="944.93" width="184.25" height="184.25"/><rect class="cls-4" x="724.07" y="944.93" width="184.25" height="184.25"/><rect class="cls-4" x="502.97" y="944.93" width="184.25" height="184.25"/><rect class="cls-4" x="281.86" y="944.93" width="184.25" height="184.25"/><rect class="cls-4" x="60.76" y="944.93" width="184.25" height="184.25"/><rect class="cls-4" x="945.17" y="723.83" width="184.25" height="184.25"/><rect class="cls-4" x="724.07" y="723.83" width="184.25" height="184.25"/><rect class="cls-4" x="502.97" y="723.83" width="184.25" height="184.25"/><rect class="cls-4" x="281.86" y="723.83" width="184.25" height="184.25"/><rect class="cls-4" x="60.76" y="723.83" width="184.25" height="184.25"/><rect class="cls-4" x="945.17" y="502.73" width="184.25" height="184.25"/><rect class="cls-4" x="724.07" y="502.73" width="184.25" height="184.25"/><rect class="cls-4" x="502.97" y="502.73" width="184.25" height="184.25"/><rect class="cls-4" x="281.86" y="502.73" width="184.25" height="184.25"/><rect class="cls-4" x="60.76" y="502.73" width="184.25" height="184.25"/><rect class="cls-4" x="945.17" y="281.63" width="184.25" height="184.25"/><rect class="cls-4" x="724.07" y="281.63" width="184.25" height="184.25"/><rect class="cls-4" x="502.97" y="281.63" width="184.25" height="184.25"/><rect class="cls-4" x="281.86" y="281.63" width="184.25" height="184.25"/><rect class="cls-4" x="60.76" y="281.63" width="184.25" height="184.25"/><rect class="cls-4" x="945.17" y="60.52" width="184.25" height="184.25"/><rect class="cls-4" x="724.07" y="60.52" width="184.25" height="184.25"/><rect class="cls-4" x="502.97" y="60.52" width="184.25" height="184.25"/><rect class="cls-4" x="281.86" y="60.52" width="184.25" height="184.25"/><rect class="cls-4" x="60.76" y="60.52" width="184.25" height="184.25"/></g><g id="Livello_4" data-name="Livello 4"><rect class="cls-5" x="982.02" y="981.78" width="147.4" height="147.4"/><rect class="cls-5" x="797.77" y="981.78" width="147.4" height="147.4"/><rect class="cls-5" x="613.51" y="981.78" width="147.4" height="147.4"/><rect class="cls-5" x="429.26" y="981.78" width="147.4" height="147.4"/><rect class="cls-5" x="245.01" y="981.78" width="147.4" height="147.4"/><rect class="cls-5" x="60.76" y="981.78" width="147.4" height="147.4"/><rect class="cls-5" x="982.02" y="797.53" width="147.4" height="147.4"/><rect class="cls-5" x="797.77" y="797.53" width="147.4" height="147.4"/><rect class="cls-5" x="613.51" y="797.53" width="147.4" height="147.4"/><rect class="cls-5" x="429.26" y="797.53" width="147.4" height="147.4"/><rect class="cls-5" x="245.01" y="797.53" width="147.4" height="147.4"/><rect class="cls-5" x="60.76" y="797.53" width="147.4" height="147.4"/><rect class="cls-5" x="982.02" y="613.28" width="147.4" height="147.4"/><rect class="cls-5" x="797.77" y="613.28" width="147.4" height="147.4"/><rect class="cls-5" x="613.51" y="613.28" width="147.4" height="147.4"/><rect class="cls-5" x="429.26" y="613.28" width="147.4" height="147.4"/><rect class="cls-5" x="245.01" y="613.28" width="147.4" height="147.4"/><rect class="cls-5" x="60.76" y="613.28" width="147.4" height="147.4"/><rect class="cls-5" x="982.02" y="429.02" width="147.4" height="147.4"/><rect class="cls-5" x="797.77" y="429.02" width="147.4" height="147.4"/><rect class="cls-5" x="613.51" y="429.02" width="147.4" height="147.4"/><rect class="cls-5" x="429.26" y="429.02" width="147.4" height="147.4"/><rect class="cls-5" x="245.01" y="429.02" width="147.4" height="147.4"/><rect class="cls-5" x="60.76" y="429.02" width="147.4" height="147.4"/><rect class="cls-5" x="982.02" y="244.77" width="147.4" height="147.4"/><rect class="cls-5" x="797.77" y="244.77" width="147.4" height="147.4"/><text></text><rect class="cls-5" x="429.26" y="244.77" width="147.4" height="147.4"/><rect class="cls-5" x="245.01" y="244.77" width="147.4" height="147.4"/><rect class="cls-5" x="60.76" y="244.77" width="147.4" height="147.4"/><rect class="cls-5" x="982.02" y="60.52" width="147.4" height="147.4"/><rect class="cls-5" x="797.77" y="60.52" width="147.4" height="147.4"/><rect class="cls-5" x="613.51" y="60.52" width="147.4" height="147.4"/><rect class="cls-5" x="429.26" y="60.52" width="147.4" height="147.4"/><rect class="cls-5" x="245.01" y="60.52" width="147.4" height="147.4"/><rect class="cls-5" x="60.76" y="60.52" width="147.4" height="147.4"/></g><g class="cls-6"><image class="cls-7" width="2448" height="3264" transform="translate(794.48 27.44) scale(0.15)" xlink:href="890840_03.jpg"/></g><g class="cls-8"><image class="cls-7" width="2448" height="3264" transform="translate(494.5 -89.88) scale(0.16)" xlink:href="890840_05.jpg"/></g><text class="cls-9" transform="translate(62.49 113.77)">Alessandro Leone</text><text class="cls-10" transform="translate(61.53 258.25)">Lorem ipsum dolor sit amet, consectetuer <tspan x="0" y="24">adipiscing elit, sed diam nonummy nibh </tspan><tspan x="0" y="48">euismod tincidunt ut laoreet dolore magna </tspan><tspan x="0" y="72">aliquam erat volutpat. Ut wisi enim ad </tspan><tspan x="0" y="96">minim veniam, quis nostrud exerci tation </tspan><tspan x="0" y="120">ullamcorper suscipit lobortis nisl ut aliquip </tspan><tspan x="0" y="144">ex ea commodo consequat. Duis autem vel </tspan><tspan x="0" y="168">eum iriure dolor in hendrerit in vulputate </tspan><tspan x="0" y="192">velit esse molestie consequat, vel illum </tspan><tspan x="0" y="216">dolore eu feugiat nulla facilisis at vero eros </tspan><tspan x="0" y="240">et accumsan et iusto odio dignissim qui </tspan><tspan x="0" y="264">blandit praesent luptatum zzril delenit </tspan><tspan x="0" y="288">augue duis dolore te feugait nulla facilisi.</tspan></text><text class="cls-11" transform="translate(778.23 330.85)">L<tspan class="cls-12" x="5.83" y="0">’</tspan><tspan class="cls-13" x="7.53" y="0">a</tspan><tspan class="cls-14" x="12.24" y="0">l</tspan><tspan x="14.95" y="0">ba </tspan><tspan class="cls-14" x="26.35" y="0">i</tspan><tspan x="29.14" y="0">n C</tspan><tspan class="cls-15" x="42.72" y="0">a</tspan><tspan x="47.43" y="0">l</tspan><tspan class="cls-13" x="50.29" y="0">a</tspan><tspan x="55" y="0">bria</tspan></text></svg>