<svg id="Livello_1" data-name="Livello 1" xmlns="http://www.w3.org/2000/svg" xmlns:xlink="http://www.w3.org/1999/xlink" viewBox="0 0 1190.6 1190.6"><defs><style>.cls-1{fill:#ff0;}.cls-2,.cls-3,.cls-4{fill:none;stroke-miterlimit:10;}.cls-2{stroke:#1bd715;}.cls-3{stroke:red;}.cls-4{stroke:#2c0fd6;}</style></defs><title>Tavola disegno 1</title><g id="Livello_2" data-name="Livello 2"><g id="Colore"><rect class="cls-1" width="1190.6" height="1190.6"/></g><rect class="cls-2" x="889.9" y="889.66" width="239.53" height="239.53"/><rect class="cls-2" x="613.52" y="889.66" width="239.53" height="239.53"/><rect class="cls-2" x="337.14" y="889.66" width="239.53" height="239.53"/><rect class="cls-2" x="60.77" y="889.66" width="239.53" height="239.53"/><rect class="cls-2" x="889.9" y="613.28" width="239.53" height="239.53"/><rect class="cls-2" x="613.52" y="613.28" width="239.53" height="239.53"/><rect class="cls-2" x="337.14" y="613.28" width="239.53" height="239.53"/><rect class="cls-2" x="60.77" y="613.28" width="239.53" height="239.53"/><rect class="cls-2" x="889.9" y="336.9" width="239.53" height="239.53"/><rect class="cls-2" x="613.52" y="336.9" width="239.53" height="239.53"/><rect class="cls-2" x="337.14" y="336.9" width="239.53" height="239.53"/><rect class="cls-2" x="60.77" y="336.9" width="239.53" height="239.53"/><rect class="cls-2" x="889.9" y="60.52" width="239.53" height="239.53"/><rect class="cls-2" x="613.52" y="60.52" width="239.53" height="239.53"/><rect class="cls-2" x="337.14" y="60.52" width="239.53" height="239.53"/><rect class="cls-2" x="60.77" y="60.52" width="239.53" height="239.53"/></g><g id="Livello_3" data-name="Livello 3"><rect class="cls-3" x="945.17" y="944.93" width="184.25" height="184.25"/><rect class="cls-3" x="724.07" y="944.93" width="184.25" height="184.25"/><rect class="cls-3" x="502.97" y="944.93" width="184.25" height="184.25"/><rect class="cls-3" x="281.86" y="944.93" width="184.25" height="184.25"/><rect class="cls-3" x="60.76" y="944.93" width="184.25" height="184.25"/><rect class="cls-3" x="945.17" y="723.83" width="184.25" height="184.25"/><rect class="cls-3" x="724.07" y="723.83" width="184.25" height="184.25"/><rect class="cls-3" x="502.97" y="723.83" width="184.25" height="184.25"/><rect class="cls-3" x="281.86" y="723.83" width="184.25" height="184.25"/><rect class="cls-3" x="60.76" y="723.83" width="184.25" height="184.25"/><rect class="cls-3" x="945.17" y="502.73" width="184.25" height="184.25"/><rect class="cls-3" x="724.07" y="502.73" width="184.25" height="184.25"/><rect class="cls-3" x="502.97" y="502.73" width="184.25" height="184.25"/><rect class="cls-3" x="281.86" y="502.73" width="184.25" height="184.25"/><rect class="cls-3" x="60.76" y="502.73" width="184.25" height="184.25"/><rect class="cls-3" x="945.17" y="281.63" width="184.25" height="184.25"/><rect class="cls-3" x="724.07" y="281.63" width="184.25" height="184.25"/><rect class="cls-3" x="502.97" y="281.63" width="184.25" height="184.25"/><rect class="cls-3" x="281.86" y="281.63" width="184.25" height="184.25"/><rect class="cls-3" x="60.76" y="281.63" width="184.25" height="184.25"/><rect class="cls-3" x="945.17" y="60.52" width="184.25" height="184.25"/><rect class="cls-3" x="724.07" y="60.52" width="184.25" height="184.25"/><rect class="cls-3" x="502.97" y="60.52" width="184.25" height="184.25"/><rect class="cls-3" x="281.86" y="60.52" width="184.25" height="184.25"/><rect class="cls-3" x="60.76" y="60.52" width="184.25" height="184.25"/></g><g id="Livello_4" data-name="Livello 4"><rect class="cls-4" x="982.02" y="981.78" width="147.4" height="147.4"/><rect class="cls-4" x="797.77" y="981.78" width="147.4" height="147.4"/><rect class="cls-4" x="613.51" y="981.78" width="147.4" height="147.4"/><rect class="cls-4" x="429.26" y="981.78" width="147.4" height="147.4"/><rect class="cls-4" x="245.01" y="981.78" width="147.4" height="147.4"/><rect class="cls-4" x="60.76" y="981.78" width="147.4" height="147.4"/><rect class="cls-4" x="982.02" y="797.53" width="147.4" height="147.4"/><rect class="cls-4" x="797.77" y="797.53" width="147.4" height="147.4"/><rect class="cls-4" x="613.51" y="797.53" width="147.4" height="147.4"/><rect class="cls-4" x="429.26" y="797.53" width="147.4" height="147.4"/><rect class="cls-4" x="245.01" y="797.53" width="147.4" height="147.4"/><rect class="cls-4" x="60.76" y="797.53" width="147.4" height="147.4"/><rect class="cls-4" x="982.02" y="613.28" width="147.4" height="147.4"/><rect class="cls-4" x="797.77" y="613.28" width="147.4" height="147.4"/><rect class="cls-4" x="613.51" y="613.28" width="147.4" height="147.4"/><rect class="cls-4" x="429.26" y="613.28" width="147.4" height="147.4"/><rect class="cls-4" x="245.01" y="613.28" width="147.4" height="147.4"/><rect class="cls-4" x="60.76" y="613.28" width="147.4" height="147.4"/><rect class="cls-4" x="982.02" y="429.02" width="147.4" height="147.4"/><rect class="cls-4" x="797.77" y="429.02" width="147.4" height="147.4"/><rect class="cls-4" x="613.51" y="429.02" width="147.4" height="147.4"/><rect class="cls-4" x="429.26" y="429.02" width="147.4" height="147.4"/><rect class="cls-4" x="245.01" y="429.02" width="147.4" height="147.4"/><rect class="cls-4" x="60.76" y="429.02" width="147.4" height="147.4"/><rect class="cls-4" x="982.02" y="244.77" width="147.4" height="147.4"/><rect class="cls-4" x="797.77" y="244.77" width="147.4" height="147.4"/><rect class="cls-4" x="613.51" y="244.77" width="147.4" height="147.4"/><rect class="cls-4" x="429.26" y="244.77" width="147.4" height="147.4"/><rect class="cls-4" x="245.01" y="244.77" width="147.4" height="147.4"/><rect class="cls-4" x="60.76" y="244.77" width="147.4" height="147.4"/><rect class="cls-4" x="982.02" y="60.52" width="147.4" height="147.4"/><rect class="cls-4" x="797.77" y="60.52" width="147.4" height="147.4"/><rect class="cls-4" x="613.51" y="60.52" width="147.4" height="147.4"/><rect class="cls-4" x="429.26" y="60.52" width="147.4" height="147.4"/><rect class="cls-4" x="245.01" y="60.52" width="147.4" height="147.4"/><rect class="cls-4" x="60.76" y="60.52" width="147.4" height="147.4"/></g><image width="2448" height="3264" transform="translate(657.15 58.85) scale(0.19 0.16)" xlink:href="../foto/IMG_5121.jpg"/></svg>