<?xml version="1.0" encoding="utf-8"?>
<!-- Generator: Adobe Illustrator 22.1.0, SVG Export Plug-In . SVG Version: 6.00 Build 0)  -->
<svg version="1.1" id="Livello_1" xmlns="http://www.w3.org/2000/svg" xmlns:xlink="http://www.w3.org/1999/xlink" x="0px" y="0px"
	 viewBox="0 0 1190.6 1190.6" style="enable-background:new 0 0 1190.6 1190.6;" xml:space="preserve">
<style type="text/css">
	.st0{fill:#FFFF00;}
	.st1{fill:none;stroke:#1BD715;stroke-miterlimit:10;}
	.st2{fill:none;stroke:#FF0000;stroke-miterlimit:10;}
	.st3{fill:none;stroke:#2C0FD6;stroke-miterlimit:10;}
	.st4{clip-path:url(#SVGID_2_);}
	.st5{clip-path:url(#SVGID_4_);}
	.st6{font-family:'OpenSansCondensed-Bold';}
	.st7{font-size:60px;}
	.st8{font-family:'OpenSansCondensed-Light';}
	.st9{font-size:16px;}
	.st10{font-family:'EBGaramond-Italic';}
	.st11{font-size:10px;}
	.st12{fill:none;}
</style>
<title>Tavola disegno 1</title>
<g id="Livello_2_1_">
	<g id="Colore">
		<rect y="0" class="st0" width="1190.6" height="1190.6"/>
	</g>
	<rect x="889.9" y="889.7" class="st1" width="239.5" height="239.5"/>
	<rect x="613.5" y="889.7" class="st1" width="239.5" height="239.5"/>
	<rect x="337.1" y="889.7" class="st1" width="239.5" height="239.5"/>
	<rect x="60.8" y="889.7" class="st1" width="239.5" height="239.5"/>
	<rect x="889.9" y="613.3" class="st1" width="239.5" height="239.5"/>
	<rect x="613.5" y="613.3" class="st1" width="239.5" height="239.5"/>
	<rect x="337.1" y="613.3" class="st1" width="239.5" height="239.5"/>
	<rect x="60.8" y="613.3" class="st1" width="239.5" height="239.5"/>
	<rect x="889.9" y="336.9" class="st1" width="239.5" height="239.5"/>
	<rect x="613.5" y="336.9" class="st1" width="239.5" height="239.5"/>
	<rect x="337.1" y="336.9" class="st1" width="239.5" height="239.5"/>
	<rect x="60.8" y="336.9" class="st1" width="239.5" height="239.5"/>
	<rect x="889.9" y="60.5" class="st1" width="239.5" height="239.5"/>
	<rect x="613.5" y="60.5" class="st1" width="239.5" height="239.5"/>
	<rect x="337.1" y="60.5" class="st1" width="239.5" height="239.5"/>
	<rect x="60.8" y="60.5" class="st1" width="239.5" height="239.5"/>
</g>
<g id="Livello_3">
	<rect x="945.2" y="944.9" class="st2" width="184.2" height="184.2"/>
	<rect x="724.1" y="944.9" class="st2" width="184.2" height="184.2"/>
	<rect x="503" y="944.9" class="st2" width="184.2" height="184.2"/>
	<rect x="281.9" y="944.9" class="st2" width="184.2" height="184.2"/>
	<rect x="60.8" y="944.9" class="st2" width="184.2" height="184.2"/>
	<rect x="945.2" y="723.8" class="st2" width="184.2" height="184.2"/>
	<rect x="724.1" y="723.8" class="st2" width="184.2" height="184.2"/>
	<rect x="503" y="723.8" class="st2" width="184.2" height="184.2"/>
	<rect x="281.9" y="723.8" class="st2" width="184.2" height="184.2"/>
	<rect x="60.8" y="723.8" class="st2" width="184.2" height="184.2"/>
	<rect x="945.2" y="502.7" class="st2" width="184.2" height="184.2"/>
	<rect x="724.1" y="502.7" class="st2" width="184.2" height="184.2"/>
	<rect x="503" y="502.7" class="st2" width="184.2" height="184.2"/>
	<rect x="281.9" y="502.7" class="st2" width="184.2" height="184.2"/>
	<rect x="60.8" y="502.7" class="st2" width="184.2" height="184.2"/>
	<rect x="945.2" y="281.6" class="st2" width="184.2" height="184.2"/>
	<rect x="724.1" y="281.6" class="st2" width="184.2" height="184.2"/>
	<rect x="503" y="281.6" class="st2" width="184.2" height="184.2"/>
	<rect x="281.9" y="281.6" class="st2" width="184.2" height="184.2"/>
	<rect x="60.8" y="281.6" class="st2" width="184.2" height="184.2"/>
	<rect x="945.2" y="60.5" class="st2" width="184.2" height="184.2"/>
	<rect x="724.1" y="60.5" class="st2" width="184.2" height="184.2"/>
	<rect x="503" y="60.5" class="st2" width="184.2" height="184.2"/>
	<rect x="281.9" y="60.5" class="st2" width="184.2" height="184.2"/>
	<rect x="60.8" y="60.5" class="st2" width="184.2" height="184.2"/>
</g>
<g id="Livello_4">
	<rect x="982" y="981.8" class="st3" width="147.4" height="147.4"/>
	<rect x="797.8" y="981.8" class="st3" width="147.4" height="147.4"/>
	<rect x="613.5" y="981.8" class="st3" width="147.4" height="147.4"/>
	<rect x="429.3" y="981.8" class="st3" width="147.4" height="147.4"/>
	<rect x="245" y="981.8" class="st3" width="147.4" height="147.4"/>
	<rect x="60.8" y="981.8" class="st3" width="147.4" height="147.4"/>
	<rect x="982" y="797.5" class="st3" width="147.4" height="147.4"/>
	<rect x="797.8" y="797.5" class="st3" width="147.4" height="147.4"/>
	<rect x="613.5" y="797.5" class="st3" width="147.4" height="147.4"/>
	<rect x="429.3" y="797.5" class="st3" width="147.4" height="147.4"/>
	<rect x="245" y="797.5" class="st3" width="147.4" height="147.4"/>
	<rect x="60.8" y="797.5" class="st3" width="147.4" height="147.4"/>
	<rect x="982" y="613.3" class="st3" width="147.4" height="147.4"/>
	<rect x="797.8" y="613.3" class="st3" width="147.4" height="147.4"/>
	<rect x="613.5" y="613.3" class="st3" width="147.4" height="147.4"/>
	<rect x="429.3" y="613.3" class="st3" width="147.4" height="147.4"/>
	<rect x="245" y="613.3" class="st3" width="147.4" height="147.4"/>
	<rect x="60.8" y="613.3" class="st3" width="147.4" height="147.4"/>
	<rect x="982" y="429" class="st3" width="147.4" height="147.4"/>
	<rect x="797.8" y="429" class="st3" width="147.4" height="147.4"/>
	<rect x="613.5" y="429" class="st3" width="147.4" height="147.4"/>
	<rect x="429.3" y="429" class="st3" width="147.4" height="147.4"/>
	<rect x="245" y="429" class="st3" width="147.4" height="147.4"/>
	<rect x="60.8" y="429" class="st3" width="147.4" height="147.4"/>
	<rect x="982" y="244.8" class="st3" width="147.4" height="147.4"/>
	<rect x="797.8" y="244.8" class="st3" width="147.4" height="147.4"/>
	<rect x="429.3" y="244.8" class="st3" width="147.4" height="147.4"/>
	<rect x="245" y="244.8" class="st3" width="147.4" height="147.4"/>
	<rect x="60.8" y="244.8" class="st3" width="147.4" height="147.4"/>
	<rect x="982" y="60.5" class="st3" width="147.4" height="147.4"/>
	<rect x="797.8" y="60.5" class="st3" width="147.4" height="147.4"/>
	<rect x="613.5" y="60.5" class="st3" width="147.4" height="147.4"/>
	<rect x="429.3" y="60.5" class="st3" width="147.4" height="147.4"/>
	<rect x="245" y="60.5" class="st3" width="147.4" height="147.4"/>
	<rect x="60.8" y="60.5" class="st3" width="147.4" height="147.4"/>
</g>
<g>
	<defs>
		<rect id="SVGID_1_" x="889.5" y="59.9" width="240.5" height="240.8"/>
	</defs>
	<clipPath id="SVGID_2_">
		<use xlink:href="#SVGID_1_"  style="overflow:visible;"/>
	</clipPath>
	<g class="st4">
		
			<image style="overflow:visible;enable-background:new    ;" width="2448" height="3264" xlink:href="890840_03.jpg"  transform="matrix(0.15 0 0 0.15 794.48 27.44)">
		</image>
	</g>
</g>
<g>
	<defs>
		<circle id="SVGID_3_" cx="688.6" cy="207.1" r="141.7"/>
	</defs>
	<clipPath id="SVGID_4_">
		<use xlink:href="#SVGID_3_"  style="overflow:visible;"/>
	</clipPath>
	<g class="st5">
		
			<image style="overflow:visible;enable-background:new    ;" width="2448" height="3264" xlink:href="890840_05.jpg"  transform="matrix(0.16 0 0 0.16 494.5 -89.88)">
		</image>
	</g>
</g>
<text transform="matrix(1 0 0 1 62.49 113.7701)" class="st6 st7">Alessandro Leone</text>
<text transform="matrix(1 0 0 1 61.53 258.25)" class="st8 st9">Lorem ipsum dolor sit amet, consectetuer </text>
<text transform="matrix(1 0 0 1 61.53 282.25)" class="st8 st9">adipiscing elit, sed diam nonummy nibh </text>
<text transform="matrix(1 0 0 1 61.53 306.25)" class="st8 st9">euismod tincidunt ut laoreet dolore magna </text>
<text transform="matrix(1 0 0 1 61.53 330.25)" class="st8 st9">aliquam erat volutpat. Ut wisi enim ad </text>
<text transform="matrix(1 0 0 1 61.53 354.25)" class="st8 st9">minim veniam, quis nostrud exerci tation </text>
<text transform="matrix(1 0 0 1 61.53 378.25)" class="st8 st9">ullamcorper suscipit lobortis nisl ut aliquip </text>
<text transform="matrix(1 0 0 1 61.53 402.25)" class="st8 st9">ex ea commodo consequat. Duis autem vel </text>
<text transform="matrix(1 0 0 1 61.53 426.25)" class="st8 st9">eum iriure dolor in hendrerit in vulputate </text>
<text transform="matrix(1 0 0 1 61.53 450.25)" class="st8 st9">velit esse molestie consequat, vel illum </text>
<text transform="matrix(1 0 0 1 61.53 474.25)" class="st8 st9">dolore eu feugiat nulla facilisis at vero eros </text>
<text transform="matrix(1 0 0 1 61.53 498.25)" class="st8 st9">et accumsan et iusto odio dignissim qui </text>
<text transform="matrix(1 0 0 1 61.53 522.2501)" class="st8 st9">blandit praesent luptatum zzril delenit </text>
<text transform="matrix(1 0 0 1 61.53 546.2501)" class="st8 st9">augue duis dolore te feugait nulla facilisi.</text>
<text transform="matrix(1 0 0 1 778.23 330.85)" class="st10 st11">L</text>
<text transform="matrix(1 0 0 1 784.06 330.85)" class="st10 st11">’</text>
<text transform="matrix(1 0 0 1 785.76 330.85)" class="st10 st11">a</text>
<text transform="matrix(1 0 0 1 790.47 330.85)" class="st10 st11">l</text>
<text transform="matrix(1 0 0 1 793.18 330.85)" class="st10 st11">ba </text>
<text transform="matrix(1 0 0 1 804.58 330.85)" class="st10 st11">i</text>
<text transform="matrix(1 0 0 1 807.37 330.85)" class="st10 st11">n C</text>
<text transform="matrix(1 0 0 1 820.95 330.85)" class="st10 st11">a</text>
<text transform="matrix(1 0 0 1 825.66 330.85)" class="st10 st11">l</text>
<text transform="matrix(1 0 0 1 828.52 330.85)" class="st10 st11">a</text>
<text transform="matrix(1 0 0 1 833.23 330.85)" class="st10 st11">bria</text>
<circle class="st12" cx="908.3" cy="509.5" r="187"/>
<text transform="matrix(1 0 0 1 886.9175 334.6276)"><tspan x="0" y="0" class="st8 st9">Lorem </tspan><tspan x="-72.4" y="24" class="st8 st9">ipsum dolor sit amet, consectetuer </tspan><tspan x="-105" y="48" class="st8 st9">adipiscing elit, sed diam nonummy nibh </tspan><tspan x="-127" y="72" class="st8 st9">euismod tincidunt ut laoreet dolore magna aliquam erat </tspan><tspan x="-142.7" y="96" class="st8 st9">volutpat. Ut wisi enim ad minim veniam, quis nostrud exerci </tspan><tspan x="-153.7" y="120" class="st8 st9">tation ullamcorper suscipit lobortis nisl ut aliquip ex ea commodo </tspan><tspan x="-160.9" y="144" class="st8 st9">consequat. Duis autem vel eum iriure dolor in hendrerit in vulputate </tspan><tspan x="-164.8" y="168" class="st8 st9">velit esse molestie consequat, vel illum dolore eu feugiat nulla facilisis at </tspan><tspan x="-164.8" y="192" class="st8 st9">vero eros et accumsan et iusto odio dignissim qui blandit praesent </tspan><tspan x="-161.1" y="216" class="st8 st9">luptatum zzril delenit augue duis dolore te feugait nulla facilisi.</tspan><tspan x="-153.9" y="240" class="st8 st9">Lorem ipsum dolor sit amet, cons ectetuer adipiscing elit, sed diam </tspan><tspan x="-143" y="264" class="st8 st9">nonummy nibh euismod tincidunt ut laoreet dolore magna </tspan><tspan x="-127.5" y="288" class="st8 st9">aliquam erat volutpat. Ut wisi enim ad minim veniam, </tspan><tspan x="-105.7" y="312" class="st8 st9">quis nostrud exerci tation ullamcorper suscipit </tspan><tspan x="-73.5" y="336" class="st8 st9">lobortis </tspan></text>
</svg>
