<svg xmlns="http://www.w3.org/2000/svg" xmlns:xlink="http://www.w3.org/1999/xlink" viewBox="0 0 1190.6 1190.6"><defs><style>.cls-1,.cls-3,.cls-4,.cls-5{fill:none;}.cls-2{fill:#ff0;}.cls-3{stroke:#1bd715;}.cls-3,.cls-4,.cls-5{stroke-miterlimit:10;}.cls-4{stroke:red;}.cls-5{stroke:#2c0fd6;}.cls-6{font-size:60px;fill:#18a311;font-family:OpenSansCondensed-Bold, Open Sans Condensed;font-weight:700;}.cls-7{font-size:16px;font-family:OpenSansCondensed-Light, Open Sans Condensed;}.cls-8{font-size:10px;font-family:EBGaramond-Italic, EB Garamond;font-style:italic;}.cls-9{letter-spacing:-0.05em;}.cls-10{letter-spacing:-0.02em;}.cls-11{letter-spacing:-0.02em;}.cls-12{letter-spacing:-0.02em;}.cls-13{clip-path:url(#clip-path);}.cls-14{clip-path:url(#clip-path-2);}</style><clipPath id="clip-path"><rect class="cls-1" x="60.76" y="60.52" width="239.53" height="239.53"/></clipPath><clipPath id="clip-path-2"><circle class="cls-1" cx="971.32" cy="206.28" r="141.73" transform="translate(138.63 747.24) rotate(-45)"/></clipPath></defs><title>Tavola disegno 1</title><g id="Livello_1" data-name="Livello 1"><g id="Livello_1-2" data-name="Livello 1"><g id="Livello_2" data-name="Livello 2"><g id="Colore"><rect class="cls-2" width="1190.6" height="1190.6"/></g><rect class="cls-3" x="889.9" y="889.66" width="239.53" height="239.53"/><rect class="cls-3" x="613.52" y="889.66" width="239.53" height="239.53"/><rect class="cls-3" x="337.14" y="889.66" width="239.53" height="239.53"/><rect class="cls-3" x="60.77" y="889.66" width="239.53" height="239.53"/><rect class="cls-3" x="889.9" y="613.28" width="239.53" height="239.53"/><rect class="cls-3" x="613.52" y="613.28" width="239.53" height="239.53"/><rect class="cls-3" x="337.14" y="613.28" width="239.53" height="239.53"/><rect class="cls-3" x="60.77" y="613.28" width="239.53" height="239.53"/><rect class="cls-3" x="889.9" y="336.9" width="239.53" height="239.53"/><rect class="cls-3" x="613.52" y="336.9" width="239.53" height="239.53"/><rect class="cls-3" x="337.14" y="336.9" width="239.53" height="239.53"/><rect class="cls-3" x="60.77" y="336.9" width="239.53" height="239.53"/><rect class="cls-3" x="889.9" y="60.52" width="239.53" height="239.53"/><rect class="cls-3" x="613.52" y="60.52" width="239.53" height="239.53"/><rect class="cls-3" x="337.14" y="60.52" width="239.53" height="239.53"/><rect class="cls-3" x="60.77" y="60.52" width="239.53" height="239.53"/></g><g id="Livello_3" data-name="Livello 3"><rect class="cls-4" x="945.17" y="944.93" width="184.25" height="184.25"/><rect class="cls-4" x="724.07" y="944.93" width="184.25" height="184.25"/><rect class="cls-4" x="502.97" y="944.93" width="184.25" height="184.25"/><rect class="cls-4" x="281.86" y="944.93" width="184.25" height="184.25"/><rect class="cls-4" x="60.76" y="944.93" width="184.25" height="184.25"/><rect class="cls-4" x="945.17" y="723.83" width="184.25" height="184.25"/><rect class="cls-4" x="724.07" y="723.83" width="184.25" height="184.25"/><rect class="cls-4" x="502.97" y="723.83" width="184.25" height="184.25"/><rect class="cls-4" x="281.86" y="723.83" width="184.25" height="184.25"/><rect class="cls-4" x="60.76" y="723.83" width="184.25" height="184.25"/><rect class="cls-4" x="945.17" y="502.73" width="184.25" height="184.25"/><rect class="cls-4" x="724.07" y="502.73" width="184.25" height="184.25"/><rect class="cls-4" x="502.97" y="502.73" width="184.25" height="184.25"/><rect class="cls-4" x="281.86" y="502.73" width="184.25" height="184.25"/><rect class="cls-4" x="60.76" y="502.73" width="184.25" height="184.25"/><rect class="cls-4" x="945.17" y="281.63" width="184.25" height="184.25"/><rect class="cls-4" x="724.07" y="281.63" width="184.25" height="184.25"/><rect class="cls-4" x="502.97" y="281.63" width="184.25" height="184.25"/><rect class="cls-4" x="281.86" y="281.63" width="184.25" height="184.25"/><rect class="cls-4" x="60.76" y="281.63" width="184.25" height="184.25"/><rect class="cls-4" x="945.17" y="60.52" width="184.25" height="184.25"/><rect class="cls-4" x="724.07" y="60.52" width="184.25" height="184.25"/><rect class="cls-4" x="502.97" y="60.52" width="184.25" height="184.25"/><rect class="cls-4" x="281.86" y="60.52" width="184.25" height="184.25"/><rect class="cls-4" x="60.76" y="60.52" width="184.25" height="184.25"/></g><g id="Livello_4" data-name="Livello 4"><rect class="cls-5" x="982.02" y="981.78" width="147.4" height="147.4"/><rect class="cls-5" x="797.77" y="981.78" width="147.4" height="147.4"/><rect class="cls-5" x="613.51" y="981.78" width="147.4" height="147.4"/><rect class="cls-5" x="429.26" y="981.78" width="147.4" height="147.4"/><rect class="cls-5" x="245.01" y="981.78" width="147.4" height="147.4"/><rect class="cls-5" x="60.76" y="981.78" width="147.4" height="147.4"/><rect class="cls-5" x="982.02" y="797.53" width="147.4" height="147.4"/><rect class="cls-5" x="797.77" y="797.53" width="147.4" height="147.4"/><rect class="cls-5" x="613.51" y="797.53" width="147.4" height="147.4"/><rect class="cls-5" x="429.26" y="797.53" width="147.4" height="147.4"/><rect class="cls-5" x="245.01" y="797.53" width="147.4" height="147.4"/><rect class="cls-5" x="60.76" y="797.53" width="147.4" height="147.4"/><rect class="cls-5" x="982.02" y="613.28" width="147.4" height="147.4"/><rect class="cls-5" x="797.77" y="613.28" width="147.4" height="147.4"/><rect class="cls-5" x="613.51" y="613.28" width="147.4" height="147.4"/><rect class="cls-5" x="429.26" y="613.28" width="147.4" height="147.4"/><rect class="cls-5" x="245.01" y="613.28" width="147.4" height="147.4"/><rect class="cls-5" x="60.76" y="613.28" width="147.4" height="147.4"/><rect class="cls-5" x="982.02" y="429.02" width="147.4" height="147.4"/><rect class="cls-5" x="797.77" y="429.02" width="147.4" height="147.4"/><rect class="cls-5" x="613.51" y="429.02" width="147.4" height="147.4"/><rect class="cls-5" x="429.26" y="429.02" width="147.4" height="147.4"/><rect class="cls-5" x="245.01" y="429.02" width="147.4" height="147.4"/><rect class="cls-5" x="60.76" y="429.02" width="147.4" height="147.4"/><rect class="cls-5" x="982.02" y="244.77" width="147.4" height="147.4"/><rect class="cls-5" x="797.77" y="244.77" width="147.4" height="147.4"/><rect class="cls-5" x="613.51" y="244.77" width="147.4" height="147.4"/><rect class="cls-5" x="429.26" y="244.77" width="147.4" height="147.4"/><rect class="cls-5" x="245.01" y="244.77" width="147.4" height="147.4"/><rect class="cls-5" x="60.76" y="244.77" width="147.4" height="147.4"/><rect class="cls-5" x="982.02" y="60.52" width="147.4" height="147.4"/><rect class="cls-5" x="797.77" y="60.52" width="147.4" height="147.4"/><rect class="cls-5" x="613.51" y="60.52" width="147.4" height="147.4"/><rect class="cls-5" x="429.26" y="60.52" width="147.4" height="147.4"/><rect class="cls-5" x="245.01" y="60.52" width="147.4" height="147.4"/><rect class="cls-5" x="60.76" y="60.52" width="147.4" height="147.4"/></g></g></g><g id="Livello_2-2" data-name="Livello 2"><text class="cls-6" transform="translate(316.33 117.58)">Alessandro Leone</text><text class="cls-7" transform="translate(311.21 207.59)">Lorem ipsum dolor sit amet, consectetuer adipiscing elit, sed diam nonummy nibh <tspan x="0" y="24">euismod tincidunt ut laoreet dolore magna aliquam erat volutpat. Ut wisi enim ad </tspan><tspan x="0" y="48">minim veniam, quis nostrud exerci tation ullamcorper suscipit lobortis nisl ut aliquip </tspan><tspan x="0" y="72">ex ea commodo consequat. Duis autem vel eum iriure dolor in hendrerit in vulputa</tspan><tspan x="426.56" y="72">-</tspan><tspan x="0" y="96">te velit esse molestie consequat, vel illum dolore eu feugiat nulla facilisis at vero </tspan><tspan x="0" y="120">eros et accumsan et iusto odio dignissim qui blandit praesent luptatum zzril delenit </tspan><tspan x="0" y="144">augue duis dolore te feugait nulla facilisi.</tspan><tspan x="0" y="168">Lorem ipsum dolor sit amet, cons ectetuer adipiscing elit, sed diam nonummy nibh </tspan><tspan x="0" y="192">euismod tincidunt ut laoreet dolore magna aliquam erat volutpat. Ut wisi enim ad </tspan><tspan x="0" y="216">minim veniam, quis nostrud exerci tation ullamcorper suscipit lobortis nisl ut aliquip </tspan><tspan x="0" y="240">ex ea commodo consequat.</tspan></text><text class="cls-8" transform="translate(983.22 389.53)">L<tspan class="cls-9" x="5.83" y="0">’</tspan><tspan class="cls-10" x="7.53" y="0">a</tspan><tspan class="cls-11" x="12.24" y="0">l</tspan><tspan x="14.95" y="0">ba </tspan><tspan class="cls-11" x="26.35" y="0">i</tspan><tspan x="29.14" y="0">n C</tspan><tspan class="cls-10" x="42.72" y="0">a</tspan><tspan x="47.43" y="0">l</tspan><tspan class="cls-12" x="50.29" y="0">a</tspan><tspan x="55" y="0">bria</tspan></text><text class="cls-7" transform="translate(109.44 383.01)">Lorem ipsum dolor sit <tspan x="-19.63" y="24">amet, consectetuer adipiscing </tspan><tspan x="-29.69" y="48">elit, sed diam nonummy nibh </tspan><tspan x="-32.73" y="72">euismod tincidunt ut laoreet dolore </tspan><tspan x="-27.53" y="96">magna aliquam erat volutpat. Ut </tspan><tspan x="-15.17" y="120">wisi enim ad minim veniam, </tspan><tspan x="8.7" y="144">quis nostrud exerci </tspan></text><g id="Livello_2-2-2" data-name="Livello 2-2"><ellipse class="cls-1" cx="879.37" cy="470.29" rx="160.75" ry="164.34"/></g></g></svg>