<svg id="Livello_1" data-name="Livello 1" xmlns="http://www.w3.org/2000/svg" xmlns:xlink="http://www.w3.org/1999/xlink" viewBox="0 0 1190.6 1190.6"><defs><style>.cls-1,.cls-3,.cls-4,.cls-5{fill:none;}.cls-2{fill:#ff0;}.cls-3{stroke:#1bd715;}.cls-3,.cls-4,.cls-5{stroke-miterlimit:10;}.cls-4{stroke:red;}.cls-5{stroke:#2c0fd6;}.cls-6{clip-path:url(#clip-path);}.cls-10,.cls-11,.cls-7,.cls-9{isolation:isolate;}.cls-8{clip-path:url(#clip-path-2);}.cls-9{font-size:60px;font-family:OpenSansCondensed-Bold, Open Sans Condensed;font-weight:700;}.cls-10,.cls-17{font-size:16px;font-family:OpenSansCondensed-Light, Open Sans Condensed;}.cls-11{font-size:10px;font-family:EBGaramond-Italic, EB Garamond;font-style:italic;}.cls-12{letter-spacing:-0.05em;}.cls-13{letter-spacing:-0.02em;}.cls-14{letter-spacing:-0.01em;}.cls-15{letter-spacing:-0.02em;}.cls-16{letter-spacing:0em;}</style><clipPath id="clip-path"><rect class="cls-1" x="613.5" y="60.5" width="239.5" height="239.5"/></clipPath><clipPath id="clip-path-2"><circle class="cls-1" cx="254.9" cy="348.6" r="141.7"/></clipPath></defs><title>Tavola disegno 1</title><g id="Livello_2" data-name="Livello 2"><g id="Colore"><rect class="cls-2" width="1190.6" height="1190.6"/></g><rect class="cls-3" x="889.9" y="889.7" width="239.5" height="239.5"/><rect class="cls-3" x="613.5" y="889.7" width="239.5" height="239.5"/><rect class="cls-3" x="337.1" y="889.7" width="239.5" height="239.5"/><rect class="cls-3" x="60.8" y="889.7" width="239.5" height="239.5"/><rect class="cls-3" x="889.9" y="613.3" width="239.5" height="239.5"/><rect class="cls-3" x="613.5" y="613.3" width="239.5" height="239.5"/><rect class="cls-3" x="337.1" y="613.3" width="239.5" height="239.5"/><rect class="cls-3" x="60.8" y="613.3" width="239.5" height="239.5"/><rect class="cls-3" x="889.9" y="336.9" width="239.5" height="239.5"/><rect class="cls-3" x="613.5" y="336.9" width="239.5" height="239.5"/><rect class="cls-3" x="337.1" y="336.9" width="239.5" height="239.5"/><rect class="cls-3" x="60.8" y="336.9" width="239.5" height="239.5"/><rect class="cls-3" x="889.9" y="60.5" width="239.5" height="239.5"/><rect class="cls-3" x="613.5" y="60.5" width="239.5" height="239.5"/><rect class="cls-3" x="337.1" y="60.5" width="239.5" height="239.5"/><rect class="cls-3" x="60.8" y="60.5" width="239.5" height="239.5"/></g><g id="Livello_3" data-name="Livello 3"><rect class="cls-4" x="945.2" y="944.9" width="184.2" height="184.2"/><rect class="cls-4" x="724.1" y="944.9" width="184.2" height="184.2"/><rect class="cls-4" x="503" y="944.9" width="184.2" height="184.2"/><rect class="cls-4" x="281.9" y="944.9" width="184.2" height="184.2"/><rect class="cls-4" x="60.8" y="944.9" width="184.2" height="184.2"/><rect class="cls-4" x="945.2" y="723.8" width="184.2" height="184.2"/><rect class="cls-4" x="724.1" y="723.8" width="184.2" height="184.2"/><rect class="cls-4" x="503" y="723.8" width="184.2" height="184.2"/><rect class="cls-4" x="281.9" y="723.8" width="184.2" height="184.2"/><rect class="cls-4" x="60.8" y="723.8" width="184.2" height="184.2"/><rect class="cls-4" x="945.2" y="502.7" width="184.2" height="184.2"/><rect class="cls-4" x="724.1" y="502.7" width="184.2" height="184.2"/><rect class="cls-4" x="503" y="502.7" width="184.2" height="184.2"/><rect class="cls-4" x="281.9" y="502.7" width="184.2" height="184.2"/><rect class="cls-4" x="60.8" y="502.7" width="184.2" height="184.2"/><rect class="cls-4" x="945.2" y="281.6" width="184.2" height="184.2"/><rect class="cls-4" x="724.1" y="281.6" width="184.2" height="184.2"/><rect class="cls-4" x="503" y="281.6" width="184.2" height="184.2"/><rect class="cls-4" x="281.9" y="281.6" width="184.2" height="184.2"/><rect class="cls-4" x="60.8" y="281.6" width="184.2" height="184.2"/><rect class="cls-4" x="945.2" y="60.5" width="184.2" height="184.2"/><rect class="cls-4" x="724.1" y="60.5" width="184.2" height="184.2"/><rect class="cls-4" x="503" y="60.5" width="184.2" height="184.2"/><rect class="cls-4" x="281.9" y="60.5" width="184.2" height="184.2"/><rect class="cls-4" x="60.8" y="60.5" width="184.2" height="184.2"/></g><g id="Livello_4" data-name="Livello 4"><rect class="cls-5" x="982" y="981.8" width="147.4" height="147.4"/><rect class="cls-5" x="797.8" y="981.8" width="147.4" height="147.4"/><rect class="cls-5" x="613.5" y="981.8" width="147.4" height="147.4"/><rect class="cls-5" x="429.3" y="981.8" width="147.4" height="147.4"/><rect class="cls-5" x="245" y="981.8" width="147.4" height="147.4"/><rect class="cls-5" x="60.8" y="981.8" width="147.4" height="147.4"/><rect class="cls-5" x="982" y="797.5" width="147.4" height="147.4"/><rect class="cls-5" x="797.8" y="797.5" width="147.4" height="147.4"/><rect class="cls-5" x="613.5" y="797.5" width="147.4" height="147.4"/><rect class="cls-5" x="429.3" y="797.5" width="147.4" height="147.4"/><rect class="cls-5" x="245" y="797.5" width="147.4" height="147.4"/><rect class="cls-5" x="60.8" y="797.5" width="147.4" height="147.4"/><rect class="cls-5" x="982" y="613.3" width="147.4" height="147.4"/><rect class="cls-5" x="797.8" y="613.3" width="147.4" height="147.4"/><rect class="cls-5" x="613.5" y="613.3" width="147.4" height="147.4"/><rect class="cls-5" x="429.3" y="613.3" width="147.4" height="147.4"/><rect class="cls-5" x="245" y="613.3" width="147.4" height="147.4"/><rect class="cls-5" x="60.8" y="613.3" width="147.4" height="147.4"/><rect class="cls-5" x="982" y="429" width="147.4" height="147.4"/><rect class="cls-5" x="797.8" y="429" width="147.4" height="147.4"/><rect class="cls-5" x="613.5" y="429" width="147.4" height="147.4"/><rect class="cls-5" x="429.3" y="429" width="147.4" height="147.4"/><rect class="cls-5" x="245" y="429" width="147.4" height="147.4"/><rect class="cls-5" x="60.8" y="429" width="147.4" height="147.4"/><rect class="cls-5" x="982" y="244.8" width="147.4" height="147.4"/><rect class="cls-5" x="797.8" y="244.8" width="147.4" height="147.4"/><rect class="cls-5" x="613.5" y="244.8" width="147.4" height="147.4"/><rect class="cls-5" x="429.3" y="244.8" width="147.4" height="147.4"/><rect class="cls-5" x="245" y="244.8" width="147.4" height="147.4"/><rect class="cls-5" x="60.8" y="244.8" width="147.4" height="147.4"/><rect class="cls-5" x="982" y="60.5" width="147.4" height="147.4"/><rect class="cls-5" x="797.8" y="60.5" width="147.4" height="147.4"/><rect class="cls-5" x="613.5" y="60.5" width="147.4" height="147.4"/><rect class="cls-5" x="429.3" y="60.5" width="147.4" height="147.4"/><rect class="cls-5" x="245" y="60.5" width="147.4" height="147.4"/><rect class="cls-5" x="60.8" y="60.5" width="147.4" height="147.4"/></g><g class="cls-6"><image class="cls-7" width="2448" height="3264" transform="translate(565.08 62.24) scale(0.13 0.15)" xlink:href="../../Documents/GitHub/strumet.github.io/ex/vectors/890840_03.jpg"/></g><g class="cls-8"><image class="cls-7" width="2448" height="3264" transform="translate(62.77 61.55) scale(0.15)" xlink:href="../../Documents/GitHub/strumet.github.io/ex/vectors/890840_05.jpg"/></g><rect class="cls-1" x="63.6" y="110.2" width="478.4" height="81.6"/><text class="cls-9" transform="translate(63.61 155.82)">Alessandro Leone</text><rect class="cls-1" x="60.5" y="503.9" width="180.4" height="282.4"/><g class="cls-7"><text class="cls-10" transform="translate(60.47 516.1)">Lorem ipsum dolor sit amet, </text><text class="cls-10" transform="translate(60.47 540.1)">consectetuer adipiscing elit, sed </text><text class="cls-10" transform="translate(60.47 564.1)">diam nonummy nibh euismod </text><text class="cls-10" transform="translate(60.47 588.1)">tincidunt ut laoreet dolore magna </text><text class="cls-10" transform="translate(60.47 612.1)">aliquam erat volutpat. Ut wisi enim </text><text class="cls-10" transform="translate(60.47 636.1)">ad minim veniam, quis nostrud </text><text class="cls-10" transform="translate(60.47 660.1)">exerci tation ullamcorper suscipit </text><text class="cls-10" transform="translate(60.47 684.1)">lobortis nisl ut aliquip ex ea com</text><text class="cls-10" transform="translate(227.47 684.1)">-</text><text class="cls-10" transform="translate(60.47 708.1)">modo consequat. Duis autem vel </text><text class="cls-10" transform="translate(60.47 732.1)">eum iriure dolor in hendrerit in </text><text class="cls-10" transform="translate(60.47 756.1)">vulputate velit esse molestie </text><text class="cls-10" transform="translate(60.47 780.1)">consequat, vel illum dolore eu </text></g><rect class="cls-1" x="366.4" y="450.6" width="99.8" height="15.3"/><text class="cls-11" transform="translate(366.35 457.66)">L<tspan class="cls-12" x="5.83" y="0">’</tspan><tspan class="cls-13" x="7.53" y="0">a</tspan><tspan class="cls-14" x="12.24" y="0">l</tspan><tspan x="14.95" y="0">ba </tspan><tspan class="cls-14" x="26.35" y="0">i</tspan><tspan x="29.14" y="0">n C</tspan><tspan class="cls-15" x="42.72" y="0">a</tspan><tspan x="47.43" y="0">l</tspan><tspan class="cls-15" x="50.29" y="0">a</tspan><tspan class="cls-16" x="55" y="0">bria</tspan></text><text class="cls-17" transform="translate(327.46 574.31)">Lorem ipsum dolor sit <tspan x="-19.63" y="24">amet, consectetuer adipiscing </tspan><tspan x="-29.69" y="48">elit, sed diam nonummy nibh </tspan><tspan x="-32.73" y="72">euismod tincidunt ut laoreet dolore </tspan><tspan x="-27.53" y="96">magna aliquam erat volutpat. Ut </tspan><tspan x="-15.17" y="120">wisi enim ad minim veniam, </tspan><tspan x="8.7" y="144">quis nostrud exerci </tspan></text></svg>