<svg xmlns="http://www.w3.org/2000/svg" xmlns:xlink="http://www.w3.org/1999/xlink" viewBox="0 0 1190.6 1190.6"><defs><style>.cls-1,.cls-3,.cls-4,.cls-5{fill:none;}.cls-2{fill:#ff0;}.cls-3{stroke:#1bd715;}.cls-3,.cls-4,.cls-5{stroke-miterlimit:10;}.cls-4{stroke:red;}.cls-5{stroke:#2c0fd6;}.cls-6{clip-path:url(#clip-path);}.cls-7{isolation:isolate;}.cls-8{clip-path:url(#clip-path-2);}</style><clipPath id="clip-path"><rect class="cls-1" x="60.76" y="60.52" width="239.53" height="239.53"/></clipPath><clipPath id="clip-path-2"><circle class="cls-1" cx="971.32" cy="206.28" r="141.73"/></clipPath></defs><title>Tavola disegno 1</title><g id="Livello_1" data-name="Livello 1"><g id="Livello_2" data-name="Livello 2"><g id="Colore"><rect class="cls-2" width="1190.6" height="1190.6"/></g><rect class="cls-3" x="889.9" y="889.66" width="239.53" height="239.53"/><rect class="cls-3" x="613.52" y="889.66" width="239.53" height="239.53"/><rect class="cls-3" x="337.14" y="889.66" width="239.53" height="239.53"/><rect class="cls-3" x="60.77" y="889.66" width="239.53" height="239.53"/><rect class="cls-3" x="889.9" y="613.28" width="239.53" height="239.53"/><rect class="cls-3" x="613.52" y="613.28" width="239.53" height="239.53"/><rect class="cls-3" x="337.14" y="613.28" width="239.53" height="239.53"/><rect class="cls-3" x="60.77" y="613.28" width="239.53" height="239.53"/><rect class="cls-3" x="889.9" y="336.9" width="239.53" height="239.53"/><rect class="cls-3" x="613.52" y="336.9" width="239.53" height="239.53"/><rect class="cls-3" x="337.14" y="336.9" width="239.53" height="239.53"/><rect class="cls-3" x="60.77" y="336.9" width="239.53" height="239.53"/><rect class="cls-3" x="889.9" y="60.52" width="239.53" height="239.53"/><rect class="cls-3" x="613.52" y="60.52" width="239.53" height="239.53"/><rect class="cls-3" x="337.14" y="60.52" width="239.53" height="239.53"/><rect class="cls-3" x="60.77" y="60.52" width="239.53" height="239.53"/></g><g id="Livello_3" data-name="Livello 3"><rect class="cls-4" x="945.17" y="944.93" width="184.25" height="184.25"/><rect class="cls-4" x="724.07" y="944.93" width="184.25" height="184.25"/><rect class="cls-4" x="502.97" y="944.93" width="184.25" height="184.25"/><rect class="cls-4" x="281.86" y="944.93" width="184.25" height="184.25"/><rect class="cls-4" x="60.76" y="944.93" width="184.25" height="184.25"/><rect class="cls-4" x="945.17" y="723.83" width="184.25" height="184.25"/><rect class="cls-4" x="724.07" y="723.83" width="184.25" height="184.25"/><rect class="cls-4" x="502.97" y="723.83" width="184.25" height="184.25"/><rect class="cls-4" x="281.86" y="723.83" width="184.25" height="184.25"/><rect class="cls-4" x="60.76" y="723.83" width="184.25" height="184.25"/><rect class="cls-4" x="945.17" y="502.73" width="184.25" height="184.25"/><rect class="cls-4" x="724.07" y="502.73" width="184.25" height="184.25"/><rect class="cls-4" x="502.97" y="502.73" width="184.25" height="184.25"/><rect class="cls-4" x="281.86" y="502.73" width="184.25" height="184.25"/><rect class="cls-4" x="60.76" y="502.73" width="184.25" height="184.25"/><rect class="cls-4" x="945.17" y="281.63" width="184.25" height="184.25"/><rect class="cls-4" x="724.07" y="281.63" width="184.25" height="184.25"/><rect class="cls-4" x="502.97" y="281.63" width="184.25" height="184.25"/><rect class="cls-4" x="281.86" y="281.63" width="184.25" height="184.25"/><rect class="cls-4" x="60.76" y="281.63" width="184.25" height="184.25"/><rect class="cls-4" x="945.17" y="60.52" width="184.25" height="184.25"/><rect class="cls-4" x="724.07" y="60.52" width="184.25" height="184.25"/><rect class="cls-4" x="502.97" y="60.52" width="184.25" height="184.25"/><rect class="cls-4" x="281.86" y="60.52" width="184.25" height="184.25"/><rect class="cls-4" x="60.76" y="60.52" width="184.25" height="184.25"/></g><g id="Livello_4" data-name="Livello 4"><rect class="cls-5" x="982.02" y="981.78" width="147.4" height="147.4"/><rect class="cls-5" x="797.77" y="981.78" width="147.4" height="147.4"/><rect class="cls-5" x="613.51" y="981.78" width="147.4" height="147.4"/><rect class="cls-5" x="429.26" y="981.78" width="147.4" height="147.4"/><rect class="cls-5" x="245.01" y="981.78" width="147.4" height="147.4"/><rect class="cls-5" x="60.76" y="981.78" width="147.4" height="147.4"/><rect class="cls-5" x="982.02" y="797.53" width="147.4" height="147.4"/><rect class="cls-5" x="797.77" y="797.53" width="147.4" height="147.4"/><rect class="cls-5" x="613.51" y="797.53" width="147.4" height="147.4"/><rect class="cls-5" x="429.26" y="797.53" width="147.4" height="147.4"/><rect class="cls-5" x="245.01" y="797.53" width="147.4" height="147.4"/><rect class="cls-5" x="60.76" y="797.53" width="147.4" height="147.4"/><rect class="cls-5" x="982.02" y="613.28" width="147.4" height="147.4"/><rect class="cls-5" x="797.77" y="613.28" width="147.4" height="147.4"/><rect class="cls-5" x="613.51" y="613.28" width="147.4" height="147.4"/><rect class="cls-5" x="429.26" y="613.28" width="147.4" height="147.4"/><rect class="cls-5" x="245.01" y="613.28" width="147.4" height="147.4"/><rect class="cls-5" x="60.76" y="613.28" width="147.4" height="147.4"/><rect class="cls-5" x="982.02" y="429.02" width="147.4" height="147.4"/><rect class="cls-5" x="797.77" y="429.02" width="147.4" height="147.4"/><rect class="cls-5" x="613.51" y="429.02" width="147.4" height="147.4"/><rect class="cls-5" x="429.26" y="429.02" width="147.4" height="147.4"/><rect class="cls-5" x="245.01" y="429.02" width="147.4" height="147.4"/><rect class="cls-5" x="60.76" y="429.02" width="147.4" height="147.4"/><rect class="cls-5" x="982.02" y="244.77" width="147.4" height="147.4"/><rect class="cls-5" x="797.77" y="244.77" width="147.4" height="147.4"/><rect class="cls-5" x="613.51" y="244.77" width="147.4" height="147.4"/><rect class="cls-5" x="429.26" y="244.77" width="147.4" height="147.4"/><rect class="cls-5" x="245.01" y="244.77" width="147.4" height="147.4"/><rect class="cls-5" x="60.76" y="244.77" width="147.4" height="147.4"/><rect class="cls-5" x="982.02" y="60.52" width="147.4" height="147.4"/><rect class="cls-5" x="797.77" y="60.52" width="147.4" height="147.4"/><rect class="cls-5" x="613.51" y="60.52" width="147.4" height="147.4"/><rect class="cls-5" x="429.26" y="60.52" width="147.4" height="147.4"/><rect class="cls-5" x="245.01" y="60.52" width="147.4" height="147.4"/><rect class="cls-5" x="60.76" y="60.52" width="147.4" height="147.4"/></g></g><g id="Livello_2-2" data-name="Livello 2"><g class="cls-6"><image class="cls-7" width="2448" height="3264" transform="translate(60.19 58.82) scale(0.19 0.16)" xlink:href="IMG_5121.jpg"/></g><ellipse class="cls-1" cx="879.37" cy="470.29" rx="160.75" ry="164.34"/><g class="cls-8"><image width="2448" height="3264" transform="translate(726.21 -202.52) scale(0.2 0.22)" xlink:href="../foto/IMG_3172.jpg"/></g></g></svg>