<svg id="Livello_1" data-name="Livello 1" xmlns="http://www.w3.org/2000/svg" xmlns:xlink="http://www.w3.org/1999/xlink" viewBox="0 0 1190.6 1190.6"><defs><style>.cls-1,.cls-14,.cls-15,.cls-16,.cls-17,.cls-23,.cls-3,.cls-4,.cls-5{fill:none;}.cls-2{fill:#ff0;}.cls-3{stroke:#10eeff;}.cls-23,.cls-3,.cls-4,.cls-5{stroke-miterlimit:10;}.cls-4{stroke:blue;}.cls-5{stroke:red;}.cls-6{clip-path:url(#clip-path);}.cls-10,.cls-11,.cls-7,.cls-9{isolation:isolate;}.cls-8{clip-path:url(#clip-path-2);}.cls-9{font-size:60px;fill:#148e39;font-family:OpenSansCondensed-Bold, Open Sans Condensed;font-weight:700;}.cls-10{font-size:16px;font-family:OpenSansCondensed-Light, Open Sans Condensed;}.cls-11{font-size:10px;font-family:EBGaramond-Italic, EB Garamond;font-style:italic;}.cls-12{clip-path:url(#clip-path-3);}.cls-13{clip-path:url(#clip-path-4);}.cls-14,.cls-15,.cls-16,.cls-17,.cls-23{stroke:#000;}.cls-14,.cls-15,.cls-16,.cls-17{stroke-linecap:round;stroke-linejoin:round;}.cls-14{stroke-width:0.24px;}.cls-15{stroke-width:0.96px;}.cls-16{stroke-width:0.6px;}.cls-17,.cls-23{stroke-width:0.12px;}.cls-18{clip-path:url(#clip-path-5);}.cls-19{font-size:29.96px;}.cls-19,.cls-20,.cls-22,.cls-24{font-family:ArialMT, Arial;}.cls-20{font-size:18.05px;}.cls-21{clip-path:url(#clip-path-11);}.cls-22{font-size:7.92px;}.cls-24{font-size:7.13px;}</style><clipPath id="clip-path"><rect class="cls-1" x="61" y="61.5" width="239.6" height="239.5"/></clipPath><clipPath id="clip-path-2"><circle class="cls-1" cx="193.5" cy="987.1" r="133.6"/></clipPath><clipPath id="clip-path-3"><rect class="cls-1" x="500.92" y="472.29" width="629.87" height="658.53"/></clipPath><clipPath id="clip-path-4"><rect class="cls-1" x="376.6" y="244.24" width="1678.08" height="1184.88"/></clipPath><clipPath id="clip-path-5"><rect class="cls-1" x="498.04" y="375.04" width="1404.84" height="887.88"/></clipPath><clipPath id="clip-path-11"><rect class="cls-1" x="376.6" y="244.36" width="1677.96" height="1184.76"/></clipPath></defs><title>Tavola disegno 1</title><g id="Livello_1-2" data-name="Livello 1"><g id="Livello_1-2-2" data-name="Livello 1-2"><g id="Livello_1-2-2-2" data-name="Livello 1-2-2"><g id="Livello_1-2-2-2-2" data-name="Livello 1-2-2-2"><g id="Colore"><rect class="cls-2" width="1190.6" height="1190.6"/></g></g><g id="_4x4" data-name=" 4x4"><g id="_4x4-2" data-name=" 4x4-2"><rect class="cls-1" width="1190.6" height="1190.6"/><rect class="cls-3" x="60.6" y="61" width="240" height="240"/><rect class="cls-3" x="337.5" y="61" width="240" height="240"/><rect class="cls-3" x="613.6" y="61" width="240" height="240"/><rect class="cls-3" x="889.4" y="61" width="240" height="240"/><rect class="cls-3" x="60.6" y="338.3" width="240" height="240"/><rect class="cls-3" x="337.5" y="337.3" width="240" height="240"/><rect class="cls-3" x="613.6" y="337.3" width="240" height="240"/><rect class="cls-3" x="890.4" y="336.3" width="240" height="240"/><rect class="cls-3" x="337.5" y="613.5" width="240" height="240"/><rect class="cls-3" x="60.6" y="613.5" width="240" height="240"/><rect class="cls-3" x="613.6" y="613.5" width="240" height="240"/><rect class="cls-3" x="890.4" y="613.5" width="240" height="240"/><rect class="cls-3" x="60.6" y="889.8" width="240" height="240"/><rect class="cls-3" x="337.5" y="889.8" width="240" height="240"/><rect class="cls-3" x="612.6" y="889.8" width="240" height="240"/><rect class="cls-3" x="890.4" y="889.8" width="240" height="240"/></g></g><g id="_5x5" data-name=" 5x5"><g id="_5x5-2" data-name=" 5x5-2"><line class="cls-1" x1="60.9" y1="60.8" x2="245.3" y2="61.6"/><rect class="cls-4" x="60.9" y="60.8" width="185.1" height="185.1"/><rect class="cls-4" x="281.4" y="60.8" width="185.1" height="185.1"/><rect class="cls-4" x="502.7" y="60.8" width="185.1" height="185.1"/><rect class="cls-4" x="724.3" y="60.8" width="185.1" height="185.1"/><rect class="cls-4" x="945.3" y="60.8" width="185.1" height="185.1"/><rect class="cls-4" x="60.9" y="281.9" width="185.1" height="185.1"/><rect class="cls-4" x="281.4" y="281.9" width="185.1" height="185.1"/><rect class="cls-4" x="502.7" y="281.9" width="185.1" height="185.1"/><rect class="cls-4" x="724.3" y="281.9" width="185.1" height="185.1"/><rect class="cls-4" x="945.3" y="281.9" width="185.1" height="185.1"/><rect class="cls-4" x="60.9" y="502.7" width="185.1" height="185.1"/><rect class="cls-4" x="281.4" y="502.7" width="185.1" height="185.1"/><rect class="cls-4" x="502.7" y="502.7" width="185.1" height="185.1"/><rect class="cls-4" x="724.3" y="502.7" width="185.1" height="185.1"/><rect class="cls-4" x="945.3" y="502.7" width="185.1" height="185.1"/><rect class="cls-4" x="60.9" y="723.6" width="185.1" height="185.1"/><rect class="cls-4" x="281.4" y="723.6" width="185.1" height="185.1"/><rect class="cls-4" x="502.7" y="723.6" width="185.1" height="185.1"/><rect class="cls-4" x="724.3" y="723.6" width="185.1" height="185.1"/><rect class="cls-4" x="945.3" y="723.6" width="185.1" height="185.1"/><rect class="cls-4" x="59.9" y="944.6" width="185.1" height="185.1"/><rect class="cls-4" x="281.4" y="944.6" width="185.1" height="185.1"/><rect class="cls-4" x="502.7" y="944.6" width="185.1" height="185.1"/><rect class="cls-4" x="723.3" y="944.6" width="185.1" height="185.1"/><rect class="cls-4" x="944.3" y="944.6" width="185.1" height="185.1"/></g></g><g id="_6x6" data-name=" 6x6"><rect class="cls-5" x="61" y="61.5" width="147.4" height="147.4"/><rect class="cls-5" x="245.6" y="61.5" width="147.4" height="147.4"/><rect class="cls-5" x="430" y="61.5" width="147.4" height="147.4"/><rect class="cls-5" x="614.5" y="61.5" width="147.4" height="147.4"/><rect class="cls-5" x="798" y="61.5" width="147.4" height="147.4"/><rect class="cls-5" x="982.4" y="61.5" width="147.4" height="147.4"/><rect class="cls-5" x="60.9" y="245.9" width="147.4" height="147.4"/><rect class="cls-5" x="245.4" y="245.9" width="147.4" height="147.4"/><rect class="cls-5" x="429.9" y="245.9" width="147.4" height="147.4"/><rect class="cls-5" x="614.3" y="245.9" width="147.4" height="147.4"/><rect class="cls-5" x="797.9" y="245.9" width="147.4" height="147.4"/><rect class="cls-5" x="982.3" y="245.9" width="147.4" height="147.4"/><rect class="cls-5" x="61" y="429.4" width="147.4" height="147.4"/><rect class="cls-5" x="245.5" y="429.4" width="147.4" height="147.4"/><rect class="cls-5" x="429.9" y="429.4" width="147.4" height="147.4"/><rect class="cls-5" x="614.4" y="429.4" width="147.4" height="147.4"/><rect class="cls-5" x="798" y="429.4" width="147.4" height="147.4"/><rect class="cls-5" x="982.4" y="429.4" width="147.4" height="147.4"/><rect class="cls-5" x="60.8" y="613.8" width="147.4" height="147.4"/><rect class="cls-5" x="245.4" y="613.8" width="147.4" height="147.4"/><rect class="cls-5" x="429.8" y="613.8" width="147.4" height="147.4"/><rect class="cls-5" x="614.3" y="613.8" width="147.4" height="147.4"/><rect class="cls-5" x="797.8" y="613.8" width="147.4" height="147.4"/><rect class="cls-5" x="982.2" y="613.8" width="147.4" height="147.4"/><rect class="cls-5" x="61" y="798.2" width="147.4" height="147.4"/><rect class="cls-5" x="245.5" y="798.2" width="147.4" height="147.4"/><rect class="cls-5" x="429.9" y="798.2" width="147.4" height="147.4"/><rect class="cls-5" x="614.4" y="798.2" width="147.4" height="147.4"/><rect class="cls-5" x="798" y="798.2" width="147.4" height="147.4"/><rect class="cls-5" x="982.4" y="798.2" width="147.4" height="147.4"/><rect class="cls-5" x="60.8" y="982.6" width="147.4" height="147.4"/><rect class="cls-5" x="245.4" y="982.6" width="147.4" height="147.4"/><rect class="cls-5" x="429.8" y="982.6" width="147.4" height="147.4"/><rect class="cls-5" x="614.3" y="982.6" width="147.4" height="147.4"/><rect class="cls-5" x="797.8" y="982.6" width="147.4" height="147.4"/><rect class="cls-5" x="982.2" y="982.6" width="147.4" height="147.4"/></g></g><g class="cls-6"><g id="Livello_2" data-name="Livello 2"><image class="cls-7" width="3264" height="2448" transform="translate(61.49 60.8) scale(0.22 0.17)" xlink:href="../foto/IMG_6851.jpg"/></g></g><g class="cls-8"><image class="cls-7" width="960" height="717" transform="translate(-87.77 786.15) scale(0.67 0.52)" xlink:href="../foto/IMG_2780.JPG"/></g></g><g id="Livello_2-2" data-name="Livello 2-2"><text class="cls-9" transform="translate(353.05 141.32)">Alessandro Leone</text><text class="cls-10" transform="translate(343.1 258.06)">Lorem ipsum dolor sit amet, consectetuer adipiscing elit, sed diam nonummy nibh euismod tincidunt ut</text><text class="cls-10" transform="translate(343.1 282.06)">laoreet dolore magna aliquam erat volutpat. Ut wisi enim ad minim veniam, quis nostrud exerci tation</text><text class="cls-10" transform="translate(343.1 306.06)">ullamcorper suscipit lobortis nisl ut aliquip ex ea commodo consequat. Duis autem vel eum iriure dolor</text><text class="cls-10" transform="translate(343.1 330.06)">in hendrerit in vulputate velit esse molestie consequat, vel illum dolore eu feugiat nulla facilisis at vero</text><text class="cls-10" transform="translate(343.1 354.06)">eros et accumsan et iusto odio dignissim qui blandit praesent luptatum zzril delenit augue duis dolore te</text><text class="cls-10" transform="translate(343.1 378.06)">feugait nulla facilisi.</text><text class="cls-10" transform="translate(343.1 402.06)">Lorem ipsum dolor sit amet, cons ectetuer adipiscing elit, sed diam nonummy nibh euismod tincidunt ut</text><text class="cls-10" transform="translate(343.1 426.06)">laoreet dolore magna aliquam erat volutpat. Ut wisi enim ad minim veniam, quis nostrud exerci tation</text><text class="cls-11" transform="translate(61.02 322.27)">L</text><text class="cls-11" transform="translate(66.85 322.27)">’</text><text class="cls-11" transform="translate(68.55 322.27)">a</text><text class="cls-11" transform="translate(73.26 322.27)">l</text><text class="cls-11" transform="translate(75.97 322.27)">ba</text><text class="cls-11" transform="translate(87.37 322.27)">i</text><text class="cls-11" transform="translate(90.16 322.27)">n C</text><text class="cls-11" transform="translate(103.74 322.27)">a</text><text class="cls-11" transform="translate(108.45 322.27)">l</text><text class="cls-11" transform="translate(111.31 322.27)">a</text><text class="cls-11" transform="translate(116.02 322.27)">bria</text></g></g><g id="Livello_2-2-2" data-name="Livello 2-2-2"><g class="cls-7"><text class="cls-10" transform="translate(236.27 441.56)">Lorem </text><text class="cls-10" transform="translate(161.69 465.56)">ipsum dolor sit amet, consectetuer </text><text class="cls-10" transform="translate(127.9 489.56)">adipiscing elit, sed diam nonummy nibh euismod </text><text class="cls-10" transform="translate(104.88 513.56)">tincidunt ut laoreet dolore magna aliquam erat volutpat. Ut </text><text class="cls-10" transform="translate(88.22 537.56)">wisi enim ad minim veniam, quis nostrud exerci tation ullamcor</text><text class="cls-10" transform="translate(415.22 537.56)">-</text><text class="cls-10" transform="translate(76.2 561.56)">per suscipit lobortis nisl ut aliquip ex ea commodo consequat. Duis </text><text class="cls-10" transform="translate(67.95 585.56)">autem vel eum iriure dolor in hendrerit in vulputate velit esse molestie </text><text class="cls-10" transform="translate(62.99 609.56)">consequat, vel illum dolore eu feugiat nulla facilisis at vero eros et accum</text><text class="cls-10" transform="translate(437.51 609.56)">-</text><text class="cls-10" transform="translate(61.14 633.56)">san et iusto odio dignissim qui blandit praesent luptatum zzril delenit augue </text><text class="cls-10" transform="translate(63.43 657.56)">duis dolore te feugait nulla facilisi.</text><text class="cls-10" transform="translate(68.77 681.56)">Lorem ipsum dolor sit amet, cons ectetuer adipiscing elit, sed diam </text><text class="cls-10" transform="translate(77.44 705.56)">nonummy nibh euismod tincidunt ut laoreet dolore magna aliquam </text><text class="cls-10" transform="translate(89.97 729.56)">erat volutpat. Ut wisi enim ad minim veniam, quis nostrud exerci </text><text class="cls-10" transform="translate(107.28 753.56)">tation ullamcorper suscipit lobortis nisl ut aliquip ex ea </text><text class="cls-10" transform="translate(131.27 777.56)">commodo consequat.</text><text class="cls-10" transform="translate(167.06 801.56)">Lorem ipsum dolor sit amet, con</text></g></g><g class="cls-12"><g class="cls-13"><line class="cls-14" x1="536.2" y1="593.8" x2="537.88" y2="592.12"/><line class="cls-14" x1="536.2" y1="603.76" x2="547.96" y2="592.12"/><line class="cls-14" x1="536.2" y1="613.84" x2="557.92" y2="592.12"/><line class="cls-14" x1="545.44" y1="614.56" x2="568" y2="592.12"/><line class="cls-14" x1="555.52" y1="614.56" x2="577.96" y2="592.12"/><line class="cls-14" x1="557.44" y1="622.72" x2="588.04" y2="592.12"/><line class="cls-14" x1="557.44" y1="632.68" x2="598" y2="592.12"/><line class="cls-14" x1="557.44" y1="642.76" x2="579.04" y2="621.04"/><line class="cls-14" x1="585.52" y1="614.56" x2="608.08" y2="592.12"/><line class="cls-14" x1="557.44" y1="652.72" x2="579.04" y2="631.12"/><line class="cls-14" x1="595.6" y1="614.56" x2="618.04" y2="592.12"/><line class="cls-14" x1="557.44" y1="662.8" x2="579.04" y2="641.08"/><line class="cls-14" x1="605.68" y1="614.56" x2="628.12" y2="592.12"/><line class="cls-14" x1="557.44" y1="672.88" x2="579.04" y2="651.16"/><line class="cls-14" x1="615.64" y1="614.56" x2="638.08" y2="592.12"/><line class="cls-14" x1="557.44" y1="682.84" x2="579.04" y2="661.12"/><line class="cls-14" x1="625.72" y1="614.56" x2="648.16" y2="592.12"/><line class="cls-14" x1="557.44" y1="692.92" x2="579.04" y2="671.2"/><line class="cls-14" x1="635.68" y1="614.56" x2="658.12" y2="592.12"/><line class="cls-14" x1="557.44" y1="702.88" x2="579.04" y2="681.16"/><line class="cls-14" x1="645.76" y1="614.56" x2="668.2" y2="592.12"/><line class="cls-14" x1="557.44" y1="712.96" x2="579.04" y2="691.24"/><line class="cls-14" x1="655.72" y1="614.56" x2="678.16" y2="592.12"/><line class="cls-14" x1="557.44" y1="722.92" x2="579.04" y2="701.2"/><line class="cls-14" x1="665.8" y1="614.56" x2="688.24" y2="592.12"/><line class="cls-14" x1="557.44" y1="733" x2="579.04" y2="711.28"/><line class="cls-14" x1="675.76" y1="614.56" x2="698.2" y2="592.12"/><line class="cls-14" x1="557.44" y1="742.96" x2="579.04" y2="721.36"/><line class="cls-14" x1="685.84" y1="614.56" x2="708.28" y2="592.12"/><line class="cls-14" x1="557.44" y1="753.04" x2="579.04" y2="731.32"/><line class="cls-14" x1="695.8" y1="614.56" x2="718.24" y2="592.12"/><line class="cls-14" x1="557.44" y1="763" x2="579.04" y2="741.4"/><line class="cls-14" x1="705.88" y1="614.56" x2="728.32" y2="592.12"/><line class="cls-14" x1="557.44" y1="773.08" x2="579.04" y2="751.36"/><line class="cls-14" x1="715.84" y1="614.56" x2="738.4" y2="592.12"/><line class="cls-14" x1="557.44" y1="783.04" x2="579.04" y2="761.44"/><line class="cls-14" x1="725.92" y1="614.56" x2="748.36" y2="592.12"/><line class="cls-14" x1="557.44" y1="793.12" x2="579.04" y2="771.4"/><line class="cls-14" x1="735.88" y1="614.56" x2="758.44" y2="592.12"/><line class="cls-14" x1="557.44" y1="803.08" x2="579.04" y2="781.48"/><line class="cls-14" x1="745.96" y1="614.56" x2="768.4" y2="592.12"/><line class="cls-14" x1="557.44" y1="813.16" x2="579.04" y2="791.44"/><line class="cls-14" x1="755.92" y1="614.56" x2="778.48" y2="592.12"/><line class="cls-14" x1="557.44" y1="823.12" x2="579.04" y2="801.52"/><line class="cls-14" x1="766" y1="614.56" x2="788.44" y2="592.12"/><line class="cls-14" x1="557.44" y1="833.2" x2="579.04" y2="811.48"/><line class="cls-14" x1="775.96" y1="614.56" x2="798.52" y2="592.12"/><line class="cls-14" x1="557.44" y1="843.28" x2="579.04" y2="821.56"/><line class="cls-14" x1="786.04" y1="614.56" x2="808.48" y2="592.12"/><line class="cls-14" x1="557.44" y1="853.24" x2="579.04" y2="831.52"/><line class="cls-14" x1="796" y1="614.56" x2="818.56" y2="592.12"/><line class="cls-14" x1="557.44" y1="863.32" x2="579.04" y2="841.6"/><line class="cls-14" x1="806.08" y1="614.56" x2="828.52" y2="592.12"/><line class="cls-14" x1="557.44" y1="873.28" x2="579.04" y2="851.56"/><line class="cls-14" x1="816.04" y1="614.56" x2="838.6" y2="592.12"/><line class="cls-14" x1="557.44" y1="883.36" x2="579.04" y2="861.64"/><line class="cls-14" x1="826.12" y1="614.56" x2="848.56" y2="592.12"/><line class="cls-14" x1="557.44" y1="893.32" x2="579.04" y2="871.72"/><line class="cls-14" x1="836.08" y1="614.56" x2="858.64" y2="592.12"/><line class="cls-14" x1="557.44" y1="903.4" x2="579.04" y2="881.68"/><line class="cls-14" x1="846.16" y1="614.56" x2="868.6" y2="592.12"/><line class="cls-14" x1="557.44" y1="913.36" x2="579.04" y2="891.76"/><line class="cls-14" x1="856.24" y1="614.56" x2="878.68" y2="592.12"/><line class="cls-14" x1="557.44" y1="923.44" x2="579.04" y2="901.72"/><line class="cls-14" x1="866.2" y1="614.56" x2="888.64" y2="592.12"/><line class="cls-14" x1="557.44" y1="933.4" x2="579.04" y2="911.8"/><line class="cls-14" x1="876.28" y1="614.56" x2="898.72" y2="592.12"/><line class="cls-14" x1="557.44" y1="943.48" x2="579.04" y2="921.76"/><line class="cls-14" x1="886.24" y1="614.56" x2="908.68" y2="592.12"/><line class="cls-14" x1="557.44" y1="953.44" x2="579.04" y2="931.84"/><line class="cls-14" x1="896.32" y1="614.56" x2="918.76" y2="592.12"/><line class="cls-14" x1="557.44" y1="963.52" x2="579.04" y2="941.8"/><line class="cls-14" x1="906.28" y1="614.56" x2="928.72" y2="592.12"/><line class="cls-14" x1="536.2" y1="994.72" x2="544" y2="987.04"/><line class="cls-14" x1="916.36" y1="614.56" x2="938.8" y2="592.12"/><line class="cls-14" x1="557.44" y1="973.48" x2="579.04" y2="951.88"/><line class="cls-14" x1="539.08" y1="1001.92" x2="553.96" y2="987.04"/><line class="cls-14" x1="926.32" y1="614.56" x2="948.76" y2="592.12"/><line class="cls-14" x1="557.44" y1="983.56" x2="579.04" y2="961.84"/><line class="cls-14" x1="549.16" y1="1001.92" x2="579.04" y2="971.92"/><line class="cls-14" x1="936.4" y1="614.56" x2="958.84" y2="592.12"/><line class="cls-14" x1="559.12" y1="1001.92" x2="579.04" y2="981.88"/><line class="cls-14" x1="946.36" y1="614.56" x2="968.92" y2="592.12"/><line class="cls-14" x1="569.2" y1="1001.92" x2="584.08" y2="987.04"/><line class="cls-14" x1="956.44" y1="614.56" x2="978.88" y2="592.12"/><line class="cls-14" x1="579.16" y1="1001.92" x2="594.04" y2="987.04"/><line class="cls-14" x1="966.4" y1="614.56" x2="988.96" y2="592.12"/><line class="cls-14" x1="589.24" y1="1001.92" x2="604.12" y2="987.04"/><line class="cls-14" x1="976.48" y1="614.56" x2="998.92" y2="592.12"/><line class="cls-14" x1="599.2" y1="1001.92" x2="614.08" y2="987.04"/><line class="cls-14" x1="986.44" y1="614.56" x2="1009" y2="592.12"/><line class="cls-14" x1="609.28" y1="1001.92" x2="624.16" y2="987.04"/><line class="cls-14" x1="996.52" y1="614.56" x2="1018.96" y2="592.12"/><line class="cls-14" x1="619.24" y1="1001.92" x2="634.12" y2="987.04"/><line class="cls-14" x1="1006.48" y1="614.56" x2="1029.04" y2="592.12"/><line class="cls-14" x1="629.32" y1="1001.92" x2="644.2" y2="987.04"/><line class="cls-14" x1="1016.56" y1="614.56" x2="1039" y2="592.12"/><line class="cls-14" x1="639.28" y1="1001.92" x2="654.16" y2="987.04"/><line class="cls-14" x1="1019.92" y1="621.28" x2="1041.64" y2="599.56"/><line class="cls-14" x1="649.36" y1="1001.92" x2="664.24" y2="987.04"/><line class="cls-14" x1="1019.92" y1="631.24" x2="1041.64" y2="609.52"/><line class="cls-14" x1="659.32" y1="1001.92" x2="674.2" y2="987.04"/><line class="cls-14" x1="1019.92" y1="641.32" x2="1041.64" y2="619.6"/><line class="cls-14" x1="669.4" y1="1001.92" x2="684.28" y2="987.04"/><line class="cls-14" x1="1019.92" y1="651.28" x2="1041.64" y2="629.56"/><line class="cls-14" x1="679.36" y1="1001.92" x2="694.24" y2="987.04"/><line class="cls-14" x1="1019.92" y1="661.36" x2="1041.64" y2="639.64"/><line class="cls-14" x1="689.44" y1="1001.92" x2="704.32" y2="987.04"/><line class="cls-14" x1="1019.92" y1="671.32" x2="1041.64" y2="649.6"/><line class="cls-14" x1="699.4" y1="1001.92" x2="714.28" y2="987.04"/><line class="cls-14" x1="1019.92" y1="681.4" x2="1041.64" y2="659.68"/><line class="cls-14" x1="709.48" y1="1001.92" x2="724.36" y2="987.04"/><line class="cls-14" x1="1019.92" y1="691.36" x2="1041.64" y2="669.76"/><line class="cls-14" x1="719.56" y1="1001.92" x2="734.32" y2="987.04"/><line class="cls-14" x1="1019.92" y1="701.44" x2="1041.64" y2="679.72"/><line class="cls-14" x1="729.52" y1="1001.92" x2="744.4" y2="987.04"/><line class="cls-14" x1="1019.92" y1="711.4" x2="1041.64" y2="689.8"/><line class="cls-14" x1="739.6" y1="1001.92" x2="754.48" y2="987.04"/><line class="cls-14" x1="1019.92" y1="721.48" x2="1041.64" y2="699.76"/><line class="cls-14" x1="749.56" y1="1001.92" x2="764.44" y2="987.04"/><line class="cls-14" x1="1019.92" y1="731.44" x2="1041.64" y2="709.84"/><line class="cls-14" x1="759.64" y1="1001.92" x2="774.52" y2="987.04"/><line class="cls-14" x1="1019.92" y1="741.52" x2="1041.64" y2="719.8"/><line class="cls-14" x1="769.6" y1="1001.92" x2="784.48" y2="987.04"/><line class="cls-14" x1="1019.92" y1="751.48" x2="1041.64" y2="729.88"/><line class="cls-14" x1="779.68" y1="1001.92" x2="794.56" y2="987.04"/><line class="cls-14" x1="1019.92" y1="761.56" x2="1041.64" y2="739.84"/><line class="cls-14" x1="789.64" y1="1001.92" x2="804.52" y2="987.04"/><line class="cls-14" x1="1019.92" y1="771.52" x2="1041.64" y2="749.92"/><line class="cls-14" x1="799.72" y1="1001.92" x2="814.6" y2="987.04"/><line class="cls-14" x1="1019.92" y1="781.6" x2="1041.64" y2="759.88"/><line class="cls-14" x1="809.68" y1="1001.92" x2="824.56" y2="987.04"/><line class="cls-14" x1="1019.92" y1="791.68" x2="1041.64" y2="769.96"/><line class="cls-14" x1="819.76" y1="1001.92" x2="834.64" y2="987.04"/><line class="cls-14" x1="1019.92" y1="801.64" x2="1041.64" y2="779.92"/><line class="cls-14" x1="829.72" y1="1001.92" x2="844.6" y2="987.04"/><line class="cls-14" x1="1019.92" y1="811.72" x2="1041.64" y2="790"/><line class="cls-14" x1="839.8" y1="1001.92" x2="854.68" y2="987.04"/><line class="cls-14" x1="1019.92" y1="821.68" x2="1041.64" y2="799.96"/><line class="cls-14" x1="849.76" y1="1001.92" x2="864.64" y2="987.04"/><line class="cls-14" x1="1019.92" y1="831.76" x2="1041.64" y2="810.04"/><line class="cls-14" x1="859.84" y1="1001.92" x2="874.72" y2="987.04"/><line class="cls-14" x1="1019.92" y1="841.72" x2="1041.64" y2="820.12"/><line class="cls-14" x1="869.8" y1="1001.92" x2="884.68" y2="987.04"/><line class="cls-14" x1="1019.92" y1="851.8" x2="1041.64" y2="830.08"/><line class="cls-14" x1="879.88" y1="1001.92" x2="894.76" y2="987.04"/><line class="cls-14" x1="1019.92" y1="861.76" x2="1041.64" y2="840.16"/><line class="cls-14" x1="889.84" y1="1001.92" x2="904.72" y2="987.04"/><line class="cls-14" x1="1019.92" y1="871.84" x2="1041.64" y2="850.12"/><line class="cls-14" x1="899.92" y1="1001.92" x2="914.8" y2="987.04"/><line class="cls-14" x1="1019.92" y1="881.8" x2="1041.64" y2="860.2"/><line class="cls-14" x1="909.88" y1="1001.92" x2="924.76" y2="987.04"/><line class="cls-14" x1="1019.92" y1="891.88" x2="1041.64" y2="870.16"/><line class="cls-14" x1="919.96" y1="1001.92" x2="934.84" y2="987.04"/><line class="cls-14" x1="1019.92" y1="901.84" x2="1041.64" y2="880.24"/><line class="cls-14" x1="929.92" y1="1001.92" x2="944.8" y2="987.04"/><line class="cls-14" x1="1019.92" y1="911.92" x2="1041.64" y2="890.2"/><line class="cls-14" x1="940" y1="1001.92" x2="954.88" y2="987.04"/><line class="cls-14" x1="1019.92" y1="921.88" x2="1041.64" y2="900.28"/><line class="cls-14" x1="949.96" y1="1001.92" x2="964.84" y2="987.04"/><line class="cls-14" x1="1019.92" y1="931.96" x2="1041.64" y2="910.24"/><line class="cls-14" x1="960.04" y1="1001.92" x2="974.92" y2="987.04"/><line class="cls-14" x1="1019.92" y1="942.04" x2="1041.64" y2="920.32"/><line class="cls-14" x1="970.12" y1="1001.92" x2="984.88" y2="987.04"/><line class="cls-14" x1="1019.92" y1="952" x2="1041.64" y2="930.28"/><line class="cls-14" x1="980.08" y1="1001.92" x2="994.96" y2="987.04"/><line class="cls-14" x1="1019.92" y1="962.08" x2="1041.64" y2="940.36"/><line class="cls-14" x1="990.16" y1="1001.92" x2="1005.04" y2="987.04"/><line class="cls-14" x1="1019.92" y1="972.04" x2="1041.64" y2="950.32"/><line class="cls-14" x1="1000.12" y1="1001.92" x2="1015" y2="987.04"/><line class="cls-14" x1="1019.92" y1="982.12" x2="1041.64" y2="960.4"/><line class="cls-14" x1="1010.2" y1="1001.92" x2="1041.64" y2="970.36"/><line class="cls-14" x1="1020.16" y1="1001.92" x2="1041.64" y2="980.44"/><line class="cls-14" x1="1030.24" y1="1001.92" x2="1041.64" y2="990.52"/><line class="cls-14" x1="1040.2" y1="1001.92" x2="1041.64" y2="1000.48"/><line class="cls-15" x1="1019.92" y1="614.56" x2="579.04" y2="614.56"/><line class="cls-15" x1="557.44" y1="614.56" x2="536.2" y2="614.56"/><polyline class="cls-15" points="536.2 592.13 1041.64 592.13 1041.64 614.57"/><line class="cls-15" x1="1041.64" y1="987.04" x2="1041.64" y2="1001.92"/><line class="cls-15" x1="533.92" y1="987.04" x2="557.44" y2="987.04"/><polyline class="cls-15" points="1019.92 987.04 579.04 987.04 579.04 614.57"/><line class="cls-15" x1="557.44" y1="614.56" x2="557.44" y2="987.04"/><line class="cls-15" x1="1019.92" y1="614.56" x2="1019.92" y2="987.04"/><line class="cls-15" x1="1041.64" y1="987.04" x2="1041.64" y2="614.56"/><line class="cls-16" x1="684.4" y1="946.36" x2="684.4" y2="914.56"/><polyline class="cls-16" points="645.76 911.68 645.76 909.04 579.04 909.04 579.04 987.04 643.12 987.04"/><polyline class="cls-16" points="579.04 909.04 645.76 909.04 645.76 911.68 579.04 911.68 579.04 909.04"/><polyline class="cls-16" points="643.12 987.04 643.12 911.68 645.76 911.68"/><polyline class="cls-16" points="684.4 946.37 684.4 914.57 681.76 917.45"/><line class="cls-16" x1="684.4" y1="946.36" x2="681.76" y2="946.36"/><line class="cls-16" x1="681.76" y1="917.44" x2="643.12" y2="917.44"/><polyline class="cls-16" points="643.12 946.37 681.76 946.37 681.76 917.45"/><polyline class="cls-16" points="667.84 981.04 667.84 949.25 667.84 981.04"/><line class="cls-16" x1="665.2" y1="952.12" x2="667.84" y2="949.24"/><line class="cls-16" x1="667.84" y1="981.04" x2="665.2" y2="981.04"/><line class="cls-16" x1="665.2" y1="952.12" x2="643.12" y2="952.12"/><polyline class="cls-16" points="643.12 981.04 665.2 981.04 665.2 952.13"/><polyline class="cls-16" points="649.96 917.45 649.96 717.64 579.04 717.64 579.04 987.04 649.96 987.04 649.96 981.04"/><line class="cls-16" x1="649.96" y1="952.12" x2="649.96" y2="946.36"/><polyline class="cls-16" points="579.04 717.64 649.96 717.64 649.96 723.64 579.04 723.64 579.04 717.64"/><line class="cls-14" x1="1011.04" y1="846.64" x2="1012.48" y2="845.2"/><line class="cls-14" x1="1011.04" y1="848.92" x2="1014.76" y2="845.2"/><line class="cls-14" x1="1011.04" y1="851.2" x2="1017.04" y2="845.2"/><line class="cls-14" x1="1011.04" y1="853.48" x2="1017.4" y2="847.12"/><line class="cls-14" x1="1011.04" y1="855.76" x2="1017.4" y2="849.4"/><line class="cls-14" x1="1011.04" y1="858.16" x2="1017.4" y2="851.8"/><line class="cls-14" x1="1011.04" y1="860.44" x2="1017.4" y2="854.08"/><line class="cls-14" x1="1011.04" y1="862.72" x2="1017.4" y2="856.36"/><line class="cls-14" x1="1011.04" y1="865" x2="1017.4" y2="858.64"/><line class="cls-14" x1="1011.04" y1="867.4" x2="1017.4" y2="860.92"/><line class="cls-14" x1="1011.04" y1="869.68" x2="1017.4" y2="863.32"/><line class="cls-14" x1="1011.04" y1="871.96" x2="1017.4" y2="865.6"/><line class="cls-14" x1="1011.04" y1="874.24" x2="1017.4" y2="867.88"/><line class="cls-14" x1="1011.04" y1="876.52" x2="1017.4" y2="870.16"/><line class="cls-14" x1="1011.04" y1="878.92" x2="1017.4" y2="872.44"/><line class="cls-14" x1="1011.04" y1="881.2" x2="1017.4" y2="874.84"/><line class="cls-14" x1="1011.04" y1="883.48" x2="1017.4" y2="877.12"/><line class="cls-14" x1="1011.04" y1="885.76" x2="1017.4" y2="879.4"/><line class="cls-14" x1="1011.04" y1="888.04" x2="1017.4" y2="881.68"/><line class="cls-14" x1="1011.04" y1="890.44" x2="1017.4" y2="883.96"/><line class="cls-14" x1="1011.04" y1="892.72" x2="1017.4" y2="886.36"/><line class="cls-14" x1="1011.04" y1="895" x2="1017.4" y2="888.64"/><line class="cls-14" x1="1011.04" y1="897.28" x2="1017.4" y2="890.92"/><line class="cls-14" x1="1011.04" y1="899.56" x2="1017.4" y2="893.2"/><line class="cls-14" x1="1011.04" y1="901.96" x2="1017.4" y2="895.6"/><line class="cls-14" x1="1011.04" y1="904.24" x2="1017.4" y2="897.88"/><line class="cls-14" x1="1011.04" y1="906.52" x2="1017.4" y2="900.16"/><line class="cls-14" x1="1011.04" y1="908.8" x2="1017.4" y2="902.44"/><line class="cls-14" x1="1011.04" y1="911.2" x2="1017.4" y2="904.72"/><line class="cls-14" x1="1011.04" y1="913.48" x2="1017.4" y2="907.12"/><line class="cls-14" x1="1011.04" y1="915.76" x2="1017.4" y2="909.4"/><line class="cls-14" x1="1011.04" y1="918.04" x2="1017.4" y2="911.68"/><line class="cls-14" x1="1011.04" y1="920.32" x2="1017.4" y2="913.96"/><line class="cls-14" x1="1011.04" y1="922.72" x2="1017.4" y2="916.24"/><line class="cls-14" x1="1011.04" y1="925" x2="1017.4" y2="918.64"/><line class="cls-14" x1="1011.04" y1="927.28" x2="1017.4" y2="920.92"/><line class="cls-14" x1="1011.04" y1="929.56" x2="1017.4" y2="923.2"/><line class="cls-14" x1="1011.04" y1="931.84" x2="1017.4" y2="925.48"/><polyline class="cls-14" points="1011.04 934.25 1012.12 933.16 1017.4 927.88"/><polyline class="cls-14" points="1011.04 936.52 1014.4 933.16 1017.4 930.16"/><polyline class="cls-14" points="1011.04 938.8 1016.8 933.16 1017.4 932.45"/><line class="cls-14" x1="1011.04" y1="941.08" x2="1017.4" y2="934.72"/><line class="cls-14" x1="1011.04" y1="943.48" x2="1017.4" y2="937"/><line class="cls-14" x1="1011.04" y1="945.76" x2="1017.4" y2="939.4"/><line class="cls-14" x1="1011.04" y1="948.04" x2="1017.4" y2="941.68"/><line class="cls-14" x1="1011.04" y1="950.32" x2="1017.4" y2="943.96"/><line class="cls-14" x1="1011.04" y1="952.6" x2="1017.4" y2="946.24"/><line class="cls-14" x1="1011.04" y1="955" x2="1017.4" y2="948.52"/><line class="cls-14" x1="1011.04" y1="957.28" x2="1017.4" y2="950.92"/><line class="cls-14" x1="1011.04" y1="959.56" x2="1017.4" y2="953.2"/><line class="cls-14" x1="1011.04" y1="961.84" x2="1017.4" y2="955.48"/><line class="cls-14" x1="1011.04" y1="964.12" x2="1017.4" y2="957.76"/><line class="cls-14" x1="1011.04" y1="966.52" x2="1017.4" y2="960.04"/><line class="cls-14" x1="1011.04" y1="968.8" x2="1017.4" y2="962.44"/><line class="cls-14" x1="1011.04" y1="971.08" x2="1017.4" y2="964.72"/><line class="cls-14" x1="1011.04" y1="973.36" x2="1017.4" y2="967"/><line class="cls-14" x1="1011.04" y1="975.64" x2="1017.4" y2="969.28"/><line class="cls-14" x1="1011.04" y1="978.04" x2="1017.4" y2="971.68"/><line class="cls-14" x1="1011.04" y1="980.32" x2="1017.4" y2="973.96"/><line class="cls-14" x1="1011.04" y1="982.6" x2="1017.4" y2="976.24"/><line class="cls-14" x1="1011.04" y1="984.88" x2="1017.4" y2="978.52"/><line class="cls-14" x1="1011.28" y1="987.04" x2="1017.4" y2="980.8"/><line class="cls-14" x1="1013.56" y1="987.04" x2="1017.4" y2="983.2"/><line class="cls-14" x1="1015.96" y1="987.04" x2="1017.4" y2="985.48"/><polyline class="cls-16" points="1017.4 933.16 1017.4 987.04 1011.04 987.04 1011.04 933.16 1017.4 933.16"/><line class="cls-14" x1="721.24" y1="938.2" x2="721.48" y2="937.96"/><line class="cls-14" x1="721.24" y1="940.48" x2="725.08" y2="936.64"/><line class="cls-14" x1="721.24" y1="942.88" x2="727.24" y2="936.76"/><line class="cls-14" x1="721.24" y1="945.16" x2="727.36" y2="939.04"/><line class="cls-14" x1="721.24" y1="947.44" x2="727.36" y2="941.32"/><line class="cls-14" x1="721.24" y1="949.72" x2="727.36" y2="943.6"/><line class="cls-14" x1="721.24" y1="952" x2="727.36" y2="945.88"/><line class="cls-14" x1="721.24" y1="954.4" x2="727.36" y2="948.16"/><line class="cls-14" x1="721.24" y1="956.68" x2="727.48" y2="950.44"/><line class="cls-14" x1="721.24" y1="958.96" x2="727.48" y2="952.72"/><line class="cls-14" x1="721.24" y1="961.24" x2="727.48" y2="955"/><line class="cls-14" x1="721.24" y1="963.52" x2="727.48" y2="957.28"/><line class="cls-14" x1="721.24" y1="965.92" x2="727.48" y2="959.56"/><line class="cls-14" x1="721.24" y1="968.2" x2="727.6" y2="961.84"/><line class="cls-14" x1="721.24" y1="970.48" x2="727.6" y2="964.12"/><line class="cls-14" x1="721.24" y1="972.76" x2="727.6" y2="966.4"/><line class="cls-14" x1="721.24" y1="975.16" x2="727.6" y2="968.68"/><line class="cls-14" x1="721.24" y1="977.44" x2="727.6" y2="971.08"/><line class="cls-14" x1="721.24" y1="979.72" x2="727.6" y2="973.36"/><line class="cls-14" x1="721.24" y1="982" x2="727.6" y2="975.64"/><line class="cls-14" x1="721.24" y1="984.28" x2="727.6" y2="977.92"/><line class="cls-14" x1="721.24" y1="986.68" x2="727.6" y2="980.2"/><line class="cls-14" x1="723.16" y1="987.04" x2="727.6" y2="982.6"/><line class="cls-14" x1="725.44" y1="987.04" x2="727.6" y2="984.88"/><polyline class="cls-16" points="721.24 937.73 721.24 987.04 727.6 987.04 727.48 941.33"/><polyline class="cls-16" points="1017.4 845.21 1017.4 933.16 1011.04 933.16 1011.04 845.21 1017.4 845.21"/><line class="cls-14" x1="990.88" y1="948.04" x2="991.96" y2="946.96"/><line class="cls-14" x1="990.88" y1="950.32" x2="994.24" y2="946.96"/><line class="cls-14" x1="991.96" y1="951.52" x2="995.92" y2="947.56"/><line class="cls-14" x1="994.36" y1="951.52" x2="995.92" y2="949.84"/><polyline class="cls-16" points="995.92 946.97 990.88 946.97 990.88 951.52 995.92 951.52 995.92 946.97"/><line class="cls-14" x1="746.68" y1="947.68" x2="747.28" y2="946.96"/><line class="cls-14" x1="746.68" y1="948.88" x2="748.6" y2="946.96"/><line class="cls-14" x1="746.68" y1="950.2" x2="749.8" y2="946.96"/><line class="cls-14" x1="746.68" y1="951.4" x2="751.12" y2="946.96"/><line class="cls-14" x1="747.76" y1="951.52" x2="751.72" y2="947.56"/><line class="cls-14" x1="749.08" y1="951.52" x2="751.72" y2="948.88"/><line class="cls-14" x1="750.28" y1="951.52" x2="751.72" y2="950.08"/><line class="cls-14" x1="751.6" y1="951.52" x2="751.72" y2="951.4"/><line class="cls-16" x1="995.92" y1="946.96" x2="993.28" y2="946.72"/><line class="cls-16" x1="990.88" y1="946.96" x2="988.36" y2="946.72"/><line class="cls-16" x1="963.16" y1="946.72" x2="990.88" y2="951.52"/><polyline class="cls-16" points="746.68 946.97 751.72 946.97 751.72 951.52 746.68 951.52 746.68 946.97 749.68 946.73"/><line class="cls-16" x1="751.72" y1="946.96" x2="754.6" y2="946.72"/><line class="cls-16" x1="779.56" y1="946.72" x2="751.72" y2="951.52"/><line class="cls-16" x1="1011.04" y1="946.6" x2="727.6" y2="946.6"/><line class="cls-16" x1="727.96" y1="915.4" x2="1011.52" y2="915.52"/><polyline class="cls-16" points="1011.04 939.04 727.48 939.04 727.48 941.33 1011.04 941.33 1011.04 939.04"/><polyline class="cls-16" points="1008.28 875.68 1009.84 880.49 1010.68 885.88 1009.84 890.68 1008.52 897.64 1006.24 902.21 1003 908.21 999.52 911.45 993.64 914.45 990.88 915.52 983.68 915.88 984.04 911.33 986.08 904.61 988.12 894.52 992.8 888.16 997.24 883 1001.68 877.37 1008.52 875.68"/><polyline class="cls-16" points="1007.44 878.8 1003.12 880.25 997.72 887.92 994.48 893.09"/><polyline class="cls-16" points="1004.8 892 1002.88 898.25 999.4 903.16 997 906.04 989.68 907.49"/><polyline class="cls-16" points="933.88 911.21 920.56 911.21 900.88 910.73 892.72 911.8 874.12 911.21 866.56 910.13 858.04 910.49 850.84 911.21 843.04 910.13 824.44 909.16 809.8 909.76 799.48 910.49 785.44 910.49 773.92 910.13 761.2 911.57 743.08 910.85 722.44 909.88"/><line class="cls-16" x1="967" y1="909.28" x2="967.84" y2="915.52"/><polyline class="cls-16" points="932.92 915.52 933.64 911.45 936.4 909.28 945.16 908.68 955 908.21 964.84 909.28 967 909.28"/><line class="cls-17" x1="805.36" y1="631" x2="805.36" y2="665.2"/><polyline class="cls-17" points="805.36 719.68 805.36 852.28 747.4 852.28"/><line class="cls-17" x1="747.04" y1="631" x2="805.36" y2="631"/><line class="cls-17" x1="747.4" y1="635.2" x2="801.28" y2="635.2"/><line class="cls-17" x1="747.4" y1="848.2" x2="801.28" y2="848.2"/><line class="cls-17" x1="801.28" y1="741.64" x2="747.4" y2="741.64"/><line class="cls-17" x1="801.28" y1="745.84" x2="747.4" y2="745.84"/><line class="cls-17" x1="801.28" y1="635.2" x2="801.28" y2="666.76"/><line class="cls-17" x1="801.28" y1="718.24" x2="801.28" y2="848.2"/><line class="cls-14" x1="747.4" y1="715.24" x2="777.88" y2="666.16"/><line class="cls-14" x1="747.4" y1="770.44" x2="751.48" y2="765.76"/><line class="cls-14" x1="744.52" y1="836.08" x2="789.76" y2="785.32"/><polyline class="cls-14" points="941.32 720.88 878.44 720.88 878.44 764.8 941.32 764.8 941.32 720.88"/><polyline class="cls-14" points="940 722.33 879.88 722.33 879.88 763.37 940 763.37 940 722.33"/><polyline class="cls-14" points="889.12 757 887.2 752.68 892.84 752.45 893.08 745.97"/><polyline class="cls-14" points="926.56 749.45 917.32 746.8 912.28 750.04 903.88 746.33 895.24 734.68"/><polyline class="cls-14" points="907.72 734.68 921.4 734.45 924.4 732.04"/><polyline class="cls-14" points="909.04 720.88 910.6 720.88 910.6 718.97 909.04 718.97 909.04 720.88"/><line class="cls-16" x1="1011.04" y1="877.84" x2="1009" y2="877.84"/><line class="cls-16" x1="1001.2" y1="877.84" x2="973.48" y2="877.84"/><line class="cls-16" x1="973.48" y1="881.2" x2="973.48" y2="915.52"/><line class="cls-16" x1="973.48" y1="948.52" x2="973.48" y2="987.04"/><line class="cls-16" x1="976.36" y1="987.04" x2="977.44" y2="949.12"/><line class="cls-16" x1="978.4" y1="915.52" x2="979.36" y2="881.2"/><line class="cls-16" x1="998.56" y1="881.2" x2="970.72" y2="881.2"/><line class="cls-16" x1="1012.36" y1="906.52" x2="1003.84" y2="906.52"/><line class="cls-16" x1="985.48" y1="906.52" x2="978.64" y2="906.52"/><line class="cls-16" x1="1011.04" y1="956.08" x2="977.2" y2="956.08"/><line class="cls-16" x1="1011.04" y1="958.84" x2="977.2" y2="958.84"/><line class="cls-16" x1="973.48" y1="881.2" x2="973.48" y2="890.8"/><line class="cls-15" x1="976.36" y1="987.04" x2="973.48" y2="987.04"/><polyline class="cls-16" points="1001.2 877.85 970.72 877.85 970.72 881.21"/><polyline class="cls-16" points="970.72 906.52 970.72 881.21 973.48 881.21 973.48 906.52 970.72 906.52 970.72 881.21"/><line class="cls-16" x1="727.48" y1="939.04" x2="727.48" y2="915.4"/><polyline class="cls-16" points="720.16 935.68 721.48 937.25 726.04 936.04"/><polyline class="cls-16" points="720.16 935.57 719.8 932.33 720.16 927.88 721 920.33 720.28 916.61 721.12 911.57 722.44 909.88"/><line class="cls-14" x1="991.72" y1="792.16" x2="993.16" y2="790.72"/><line class="cls-14" x1="991.72" y1="794.44" x2="995.44" y2="790.72"/><line class="cls-14" x1="991.72" y1="796.72" x2="997.72" y2="790.72"/><line class="cls-14" x1="992.92" y1="797.92" x2="1000" y2="790.72"/><line class="cls-14" x1="995.2" y1="797.92" x2="1002.4" y2="790.72"/><line class="cls-14" x1="997.6" y1="797.92" x2="1004.68" y2="790.72"/><line class="cls-14" x1="999.88" y1="797.92" x2="1006.96" y2="790.72"/><line class="cls-14" x1="1002.16" y1="797.92" x2="1009.24" y2="790.72"/><line class="cls-14" x1="1004.44" y1="797.92" x2="1011.52" y2="790.72"/><line class="cls-14" x1="1006.72" y1="797.92" x2="1013.92" y2="790.72"/><line class="cls-14" x1="1009.12" y1="797.92" x2="1016.2" y2="790.72"/><line class="cls-14" x1="1011.4" y1="797.92" x2="1018.48" y2="790.72"/><line class="cls-14" x1="1013.68" y1="797.92" x2="1019.92" y2="791.68"/><line class="cls-14" x1="1015.96" y1="797.92" x2="1019.92" y2="793.96"/><line class="cls-14" x1="1018.36" y1="797.92" x2="1019.92" y2="796.24"/><polyline class="cls-16" points="1019.92 790.73 1019.92 797.92 991.72 797.92 991.72 790.73 1019.92 790.73"/><polyline class="cls-14" points="1001.56 753.28 1007.32 753.28 1007.32 755.21 1007.32 756.76 1007.56 761.57 1009.12 765.16 1011.64 768.52 1013.68 773.8 1013.68 776.45 1013.32 778.97 1012.84 781.13 1011.4 785.68 1009 788.57"/><polyline class="cls-14" points="1001.44 753.28 1001.44 755.21 1001.44 756.76 1001.32 761.57 999.64 765.16 997.24 768.52 995.08 773.8 995.08 776.45 995.56 778.97 995.92 781.13 997.36 785.68 999.88 788.57"/><polyline class="cls-14" points="1003.12 753.52 1002.28 745.13 1001.08 735.04 997.6 729.88 993.28 727.37 987.04 725.45 988.36 726.28 988.12 724.85 986.8 724.85 987.04 727 988.12 726.52 983.56 727.37 975.52 730 979.24 729.4 979.48 728.21 983.56 728.45 985.84 729.16 986.2 727 987.88 725.92 987.04 724.85 980.44 723.4 976.6 725.68 971.8 721.85 976.12 722.57 979 725.92 980.08 725.09 979 723.28 980.92 723.64 981.52 724.85 981.52 722.57 985 725.45 986.44 724.85 986.8 724.85 983.92 721.85 987.04 718.49 986.8 714.76 986.44 713.33 982.36 713.92 985.6 713.8 986.68 714.76 987.28 713.8 985.24 713.33 987.04 710.8 989.08 713.09 986.8 713.33 988.96 715 988.48 715.85 983.56 715.85 986.8 713.92 979.48 712.97 984.4 709.85 984.4 712.97"/><polyline class="cls-14" points="1002.76 752.92 1001.92 746.57 1000 737.45 1001.68 731.09 1001.08 724.49 1002.76 725.33 1001.32 723.4 1000.72 724.49 1002.16 724.73 1003 722.8 1005.16 721.61 1007.32 723.4 1008.52 725.92 1004.2 725.45 1003.36 723.28 1001.56 723.28 1000.84 722.57 1000.84 719.09 999.4 719.09 998.56 718.97 997.36 721.97 1001.56 723.04 1000 721 996.16 723.04 1001.32 725.09 1000.48 727.61 995.08 729.88 998.2 727 1001.32 728.21 998.8 730.61 999.4 724.85 1002.76 724.73 1004.2 727.97 999.4 727.73"/><polyline class="cls-14" points="1002.28 753.16 1008.16 740.57 1012.24 735.04 1014.76 728.45 1018.6 722.8 1020.04 720.76 1018.24 720.4 1019.8 721"/><polyline class="cls-14" points="1019.92 710.09 1018 709.85 1014.88 712.49 1019.68 715.25 1019.44 712.49 1019.92 712.61"/><polyline class="cls-14" points="1019.92 715.73 1016.2 716.68 1019.68 719.68"/><line class="cls-15" x1="1019.68" y1="719.68" x2="1019.92" y2="719.68"/><polyline class="cls-14" points="1019.92 719.57 1018.6 720.16 1019.92 721.37"/><polyline class="cls-14" points="1019.68 719.09 1015.96 723.28 1014.04 726.76 1019.8 727.97 1015.12 722.57 1019.44 721.13"/><polyline class="cls-14" points="1003 753.76 1007.08 748.61 1009.36 745.49 1012.24 742.85 1016.32 740.92 1018.6 736.49 1019.92 736"/><polyline class="cls-14" points="1019.92 733.73 1017.76 731.68 1013.92 733.37 1017.76 734.21 1016.56 730.85 1019.92 735.28"/><polyline class="cls-14" points="1019.92 736 1014.52 735.64 1019.92 735.76"/><polyline class="cls-14" points="1010.44 786.76 1019.92 786.76 1019.92 790.73 998.56 790.73 998.56 787.13"/><line class="cls-15" x1="1019.92" y1="790.36" x2="1007.44" y2="790.36"/><polyline class="cls-14" points="1000.6 790.37 999.04 790.37 999.04 787.61"/><line class="cls-14" x1="1010.2" y1="787.12" x2="1019.92" y2="787.12"/><polyline class="cls-14" points="1012.36 782.68 1019.92 782.68 1019.92 786.76 1010.44 786.76"/><line class="cls-14" x1="1019.92" y1="786.28" x2="1010.8" y2="786.28"/><line class="cls-14" x1="1012.24" y1="783.16" x2="1019.92" y2="783.16"/><polyline class="cls-14" points="1013.32 778.73 1019.92 778.73 1019.92 782.68 1012.36 782.68"/><line class="cls-14" x1="1019.92" y1="782.32" x2="1012.48" y2="782.32"/><line class="cls-14" x1="1013.2" y1="779.08" x2="1019.92" y2="779.08"/><line class="cls-14" x1="1012.96" y1="780.52" x2="1017.88" y2="780.52"/><line class="cls-14" x1="1012.72" y1="781.48" x2="1019.8" y2="781.48"/><line class="cls-14" x1="1011.88" y1="784.12" x2="1018.24" y2="784.12"/><line class="cls-14" x1="1011.52" y1="785.32" x2="1019.44" y2="785.32"/><line class="cls-14" x1="1009.6" y1="787.72" x2="1019.44" y2="787.72"/><line class="cls-14" x1="1009.36" y1="788.08" x2="1018.84" y2="788.08"/><line class="cls-14" x1="1008.76" y1="788.8" x2="1018.12" y2="788.8"/><line class="cls-14" x1="1008.64" y1="789.16" x2="1018.96" y2="789.16"/><line class="cls-14" x1="1007.92" y1="790" x2="1019.2" y2="790"/><line class="cls-14" x1="1011.76" y1="784.6" x2="1018.72" y2="784.6"/><polyline class="cls-14" points="998.92 766.13 998.92 761.68 1001.2 761.68"/><polyline class="cls-14" points="1007.56 761.68 1019.92 761.68 1019.92 790.73 998.92 790.73"/><polyline class="cls-14" points="998.92 766.13 998.92 757.85 1001.44 757.85"/><polyline class="cls-14" points="1007.32 757.85 1019.92 757.85 1019.92 790.37 1007.44 790.37"/><polyline class="cls-14" points="1009 788.45 1008.52 789.4 1007.2 790.61"/><polyline class="cls-14" points="1000.84 790.85 1000.48 790 999.88 788.45"/><polyline class="cls-14" points="691.84 628.25 809.2 628.25 809.2 631.25 691.96 631.25 691.84 628.25"/><line class="cls-14" x1="691.96" y1="631.24" x2="691.96" y2="871"/><line class="cls-14" x1="708.88" y1="631.12" x2="708.88" y2="873.28"/><polyline class="cls-14" points="691.84 870.88 693.52 870.88 696.04 871.37 698.08 871.25 701.92 872.09 705.04 872.8 707.56 873.52 709 873.28"/><line class="cls-14" x1="699.64" y1="631.24" x2="699.64" y2="871.6"/><polyline class="cls-14" points="718.84 630.64 718.84 880.85 715.72 880 713.32 880 711.28 879.76 709.24 880.37 706.24 880 706.24 873.04"/><polyline class="cls-14" points="728.68 631.25 728.68 875.21 727.6 875.21 727 874.73 723.76 874.13 721.48 875.21 719.92 875.8 719.32 875.21"/><polyline class="cls-14" points="708.88 873.4 708.88 873.52 708.64 873.64 707.8 873.76 707.32 873.76 706.84 873.52 706.24 873.16"/><polyline class="cls-14" points="739.6 631.61 739.6 872.8 736.84 873.28 735.16 872.45 733.12 872.33 731.56 872.45 730.24 874.73 728.8 874.85"/><polyline class="cls-14" points="744.64 632.21 744.64 878.68 739.6 878.09 739.12 877.49 737.44 875.33 737.44 873.16 737.8 873.16 738.16 873.16 738.52 873.04 739 873.04 739.36 873.04 739.6 872.8 739.6 872.68"/><polyline class="cls-14" points="747.4 631.13 747.4 878.45 746.68 878.21 745.84 878.45 745.84 877.73 745.36 878.45 745 878.45 744.64 878.33"/><polyline class="cls-14" points="696.28 628.25 696.64 628.25 696.64 631.25 696.28 631.25 696.28 628.25"/><polyline class="cls-14" points="704.56 628.25 704.92 628.25 704.92 631.25 704.56 631.25 704.56 628.25"/><polyline class="cls-14" points="709.12 628.25 709.48 628.25 709.48 631.25 709.12 631.25 709.12 628.25"/><polyline class="cls-14" points="712.96 628.25 713.32 628.25 713.32 631.25 712.96 631.25 712.96 628.25"/><polyline class="cls-14" points="701.32 628.25 701.68 628.25 701.68 631.25 701.32 631.25 701.32 628.25"/><polyline class="cls-14" points="717.88 628.25 718.24 628.25 718.24 631.25 717.88 631.25 717.88 628.25"/><polyline class="cls-14" points="722.44 628.25 722.8 628.25 722.8 631.25 722.44 631.25 722.44 628.25"/><polyline class="cls-14" points="726.16 628.25 726.52 628.25 726.52 631.25 726.16 631.25 726.16 628.25"/><polyline class="cls-14" points="729.64 628.25 730 628.25 730 631.25 729.64 631.25 729.64 628.25"/><polyline class="cls-14" points="733.96 628.25 734.32 628.25 734.32 631.25 733.96 631.25 733.96 628.25"/><polyline class="cls-14" points="740.08 628.25 740.44 628.25 740.44 631.25 740.08 631.25 740.08 628.25"/><polyline class="cls-14" points="744.16 628.25 744.52 628.25 744.52 631.25 744.16 631.25 744.16 628.25"/><polyline class="cls-14" points="746.68 628.25 747.04 628.25 747.04 631.25 746.68 631.25 746.68 628.25"/><line class="cls-14" x1="566.92" y1="505.48" x2="566.92" y2="547.84"/><line class="cls-14" x1="566.92" y1="565.84" x2="566.92" y2="565.84"/><rect x="566.92" y="565.72" width="0.12" height="0.12"/><line class="cls-14" x1="566.92" y1="583.84" x2="566.92" y2="619.84"/><line class="cls-14" x1="566.92" y1="637.84" x2="566.92" y2="637.84"/><rect x="566.92" y="637.72" width="0.12" height="0.12"/><line class="cls-14" x1="566.92" y1="655.96" x2="566.92" y2="691.96"/><line class="cls-14" x1="566.92" y1="709.96" x2="566.92" y2="709.96"/><rect x="566.92" y="709.84" width="0.12" height="0.12"/><line class="cls-14" x1="566.92" y1="727.96" x2="566.92" y2="763.96"/><line class="cls-14" x1="566.92" y1="781.96" x2="566.92" y2="781.96"/><rect x="566.92" y="781.84" width="0.12" height="0.12"/><line class="cls-14" x1="566.92" y1="799.96" x2="566.92" y2="835.96"/><line class="cls-14" x1="566.92" y1="853.96" x2="566.92" y2="853.96"/><rect x="566.92" y="853.84" width="0.12" height="0.12"/><line class="cls-14" x1="566.92" y1="871.96" x2="566.92" y2="907.96"/><line class="cls-14" x1="566.92" y1="925.96" x2="566.92" y2="925.96"/><rect x="566.92" y="925.84" width="0.12" height="0.12"/><line class="cls-14" x1="566.92" y1="943.96" x2="566.92" y2="979.96"/><line class="cls-14" x1="566.92" y1="997.96" x2="566.92" y2="997.96"/><rect x="566.92" y="997.84" width="0.12" height="0.12"/><line class="cls-14" x1="566.92" y1="1015.96" x2="566.92" y2="1058.44"/><line class="cls-14" x1="1031.8" y1="505.48" x2="1031.8" y2="547.84"/><line class="cls-14" x1="1031.8" y1="565.84" x2="1031.8" y2="565.84"/><rect x="1031.8" y="565.72" width="0.12" height="0.12"/><line class="cls-14" x1="1031.8" y1="583.84" x2="1031.8" y2="619.84"/><line class="cls-14" x1="1031.8" y1="637.84" x2="1031.8" y2="637.84"/><rect x="1031.8" y="637.72" width="0.12" height="0.12"/><line class="cls-14" x1="1031.8" y1="655.96" x2="1031.8" y2="691.96"/><line class="cls-14" x1="1031.8" y1="709.96" x2="1031.8" y2="709.96"/><rect x="1031.8" y="709.84" width="0.12" height="0.12"/><line class="cls-14" x1="1031.8" y1="727.96" x2="1031.8" y2="763.96"/><line class="cls-14" x1="1031.8" y1="781.96" x2="1031.8" y2="781.96"/><rect x="1031.8" y="781.84" width="0.12" height="0.12"/><line class="cls-14" x1="1031.8" y1="799.96" x2="1031.8" y2="835.96"/><line class="cls-14" x1="1031.8" y1="853.96" x2="1031.8" y2="853.96"/><rect x="1031.8" y="853.84" width="0.12" height="0.12"/><line class="cls-14" x1="1031.8" y1="871.96" x2="1031.8" y2="907.96"/><line class="cls-14" x1="1031.8" y1="925.96" x2="1031.8" y2="925.96"/><rect x="1031.8" y="925.84" width="0.12" height="0.12"/><line class="cls-14" x1="1031.8" y1="943.96" x2="1031.8" y2="979.96"/><line class="cls-14" x1="1031.8" y1="997.96" x2="1031.8" y2="997.96"/><rect x="1031.8" y="997.84" width="0.12" height="0.12"/><line class="cls-14" x1="1031.8" y1="1015.96" x2="1031.8" y2="1058.44"/></g><g class="cls-18"><text class="cls-19" transform="translate(560.8 1169.32)">SEZIONE DD&apos;</text></g><g class="cls-13"><circle class="cls-17" cx="1032.52" cy="1095.04" r="14.28" transform="translate(-340.46 478.49) rotate(-22.5)"/></g><g class="cls-18"><text class="cls-20" transform="translate(1027.24 1100.8)">1</text></g><g class="cls-13"><circle class="cls-17" cx="569.56" cy="1092.64" r="14.28" transform="translate(-489.37 462.62) rotate(-31.72)"/></g><g class="cls-18"><text class="cls-20" transform="translate(565.84 1098.4)">2</text></g><g class="cls-13"><line class="cls-14" x1="1019.92" y1="975.64" x2="1017.4" y2="975.64"/><line class="cls-14" x1="1011.16" y1="975.64" x2="976.72" y2="975.64"/><line class="cls-14" x1="973.48" y1="975.64" x2="727.6" y2="975.64"/><line class="cls-14" x1="721.24" y1="975.64" x2="667.84" y2="975.64"/><line class="cls-14" x1="649.96" y1="985.6" x2="721.24" y2="985.6"/><line class="cls-14" x1="727.6" y1="985.6" x2="973.48" y2="985.6"/><line class="cls-14" x1="976.36" y1="985.6" x2="1011.04" y2="985.6"/><line class="cls-14" x1="1017.4" y1="985.6" x2="1019.92" y2="985.6"/><line class="cls-14" x1="656.56" y1="985.6" x2="656.56" y2="987.04"/><line class="cls-14" x1="734.08" y1="985.6" x2="734.08" y2="987.04"/><line class="cls-14" x1="811.6" y1="985.6" x2="811.6" y2="987.04"/><line class="cls-14" x1="889.12" y1="985.6" x2="889.12" y2="987.04"/><line class="cls-14" x1="966.52" y1="985.6" x2="966.52" y2="987.04"/><line class="cls-14" x1="983.32" y1="869.92" x2="983.32" y2="853.96"/><line class="cls-14" x1="983.32" y1="835.6" x2="983.32" y2="835.6"/><rect x="983.32" y="835.48" width="0.12" height="0.12"/><polyline class="cls-14" points="974.44 853.97 992.92 853.97 992.92 835.61 974.44 835.61 974.44 853.97"/><polyline class="cls-14" points="983.32 877.49 983.32 853.97 984.52 853.97 984.52 877.49"/><polyline class="cls-14" points="975.28 877.85 981.04 877.85 981.04 872.57 975.28 872.57 975.28 877.85"/><polyline class="cls-14" points="981.04 877.49 986.2 877.49 986.2 877.85"/><line class="cls-15" x1="536.2" y1="641.44" x2="536.2" y2="619"/><line class="cls-15" x1="536.2" y1="601" x2="536.2" y2="601"/><line class="cls-15" x1="536.2" y1="582.88" x2="536.2" y2="560.44"/><line class="cls-15" x1="536.2" y1="1038.04" x2="536.2" y2="1015.48"/><line class="cls-15" x1="536.2" y1="997.48" x2="536.2" y2="997.48"/><line class="cls-15" x1="536.2" y1="979.48" x2="536.2" y2="956.92"/><line class="cls-15" x1="526.12" y1="1001.92" x2="566.2" y2="1001.92"/><line class="cls-15" x1="584.2" y1="1001.92" x2="584.2" y2="1001.92"/><line class="cls-15" x1="602.2" y1="1001.92" x2="638.2" y2="1001.92"/><line class="cls-15" x1="656.2" y1="1001.92" x2="656.2" y2="1001.92"/><line class="cls-15" x1="674.2" y1="1001.92" x2="710.2" y2="1001.92"/><line class="cls-15" x1="728.2" y1="1001.92" x2="728.2" y2="1001.92"/><line class="cls-15" x1="746.2" y1="1001.92" x2="782.2" y2="1001.92"/><line class="cls-15" x1="800.2" y1="1001.92" x2="800.2" y2="1001.92"/><line class="cls-15" x1="818.2" y1="1001.92" x2="854.2" y2="1001.92"/><line class="cls-15" x1="872.2" y1="1001.92" x2="872.2" y2="1001.92"/><line class="cls-15" x1="890.2" y1="1001.92" x2="926.2" y2="1001.92"/><line class="cls-15" x1="944.2" y1="1001.92" x2="944.2" y2="1001.92"/><line class="cls-15" x1="962.2" y1="1001.92" x2="998.2" y2="1001.92"/><line class="cls-15" x1="1016.32" y1="1001.92" x2="1016.32" y2="1001.92"/><line class="cls-15" x1="1034.32" y1="1001.92" x2="1074.28" y2="1001.92"/><polyline class="cls-16" points="819.76 614.57 819.76 618.88 803.56 618.88 803.56 614.57"/><line class="cls-16" x1="811.36" y1="664.12" x2="811.36" y2="664.12"/><polyline class="cls-16" points="811.36 657.28 811.36 618.88 812.68 618.88 812.68 657.28"/><circle class="cls-16" cx="813.16" cy="692.44" r="28.32" transform="translate(-116.27 166.27) rotate(-10.9)"/><line class="cls-16" x1="811.36" y1="664.12" x2="811.36" y2="664.12"/><polyline class="cls-16" points="813.64 664.13 810.64 664.13 810.64 657.28 813.64 657.28 813.64 664.13"/><line class="cls-16" x1="803.2" y1="665.92" x2="823.12" y2="665.92"/><line class="cls-17" x1="579.16" y1="1012.36" x2="579.16" y2="1042.36"/><line class="cls-17" x1="1019.92" y1="1015.72" x2="1019.92" y2="1042.36"/><line class="cls-17" x1="576.28" y1="1039.48" x2="1022.8" y2="1039.48"/><line class="cls-17" x1="581.32" y1="1037.44" x2="577" y2="1041.64"/><line class="cls-17" x1="1017.88" y1="1041.64" x2="1022.08" y2="1037.44"/></g><g class="cls-21"><text class="cls-22" transform="translate(793 1036.6)">310</text></g><g class="cls-13"><line class="cls-17" x1="1044.52" y1="592.12" x2="1099.84" y2="592.12"/><line class="cls-17" x1="1044.52" y1="1001.8" x2="1099.84" y2="1001.8"/><line class="cls-17" x1="1096.96" y1="589.36" x2="1096.96" y2="1004.68"/><line class="cls-17" x1="1099.12" y1="594.28" x2="1094.92" y2="590.08"/><line class="cls-17" x1="1094.92" y1="999.76" x2="1099.12" y2="1003.96"/></g><g class="cls-21"><text class="cls-22" transform="translate(1099.96 790.49) rotate(90)">290</text></g><g class="cls-13"><line class="cls-17" x1="1044.52" y1="592.12" x2="1076.2" y2="592.12"/><line class="cls-17" x1="1044.52" y1="614.68" x2="1076.2" y2="614.68"/><line class="cls-17" x1="1073.32" y1="589.36" x2="1073.32" y2="617.44"/><line class="cls-17" x1="1075.48" y1="594.28" x2="1071.16" y2="590.08"/><line class="cls-17" x1="1071.16" y1="612.52" x2="1075.48" y2="616.72"/></g><g class="cls-21"><text class="cls-22" transform="translate(1076.2 598.72) rotate(90)">15</text></g><g class="cls-13"><line class="cls-17" x1="1044.52" y1="614.68" x2="1076.2" y2="614.68"/><line class="cls-17" x1="1044.52" y1="987.04" x2="1076.2" y2="987.04"/><line class="cls-17" x1="1073.32" y1="611.8" x2="1073.32" y2="989.8"/><line class="cls-17" x1="1075.48" y1="616.72" x2="1071.16" y2="612.52"/><line class="cls-17" x1="1071.16" y1="984.88" x2="1075.48" y2="989.08"/></g><g class="cls-21"><text class="cls-22" transform="translate(1076.2 794.32) rotate(90)">265</text></g><g class="cls-13"><path d="M447.64,549.88l-7.08.6v-.6h7.08m0,.6v-.6l-7.08.6h7.08"/><path class="cls-23" d="M447.64,549.88l-7.08.6v-.6h7.08m0,.6v-.6l-7.08.6h7.08"/></g><g class="cls-21"><text class="cls-24" transform="translate(439.84 481.84)">E</text></g><g class="cls-13"><path d="M448.36,1400.56,446.92,270.4h1.44V1400.56m-1.44,0h1.44L446.92,270.4V1400.56"/><path class="cls-23" d="M448.36,1400.56,446.92,270.4h1.44V1400.56m-1.44,0h1.44L446.92,270.4V1400.56"/><path d="M440.56,975.64l7.08-.48v.48h-7.08m0-.48v.48l7.08-.48h-7.08"/><path class="cls-23" d="M440.56,975.64l7.08-.48v.48h-7.08m0-.48v.48l7.08-.48h-7.08"/><path d="M440.56,833.92l7.08-.48v.48h-7.08m0-.48v.48l7.08-.48h-7.08"/><path class="cls-23" d="M440.56,833.92l7.08-.48v.48h-7.08m0-.48v.48l7.08-.48h-7.08"/><path d="M440.56,692.2l7.08-.48v.48h-7.08m0-.48v.48l7.08-.48h-7.08"/><path class="cls-23" d="M440.56,692.2l7.08-.48v.48h-7.08m0-.48v.48l7.08-.48h-7.08"/><path d="M440.56,550.48l7.08-.6v.6h-7.08m0-.6v.6l7.08-.6h-7.08"/><path class="cls-23" d="M440.56,550.48l7.08-.6v.6h-7.08m0-.6v.6l7.08-.6h-7.08"/><path d="M440.56,408.76l7.08-.6v.6h-7.08m0-.6v.6l7.08-.6h-7.08"/><path class="cls-23" d="M440.56,408.76l7.08-.6v.6h-7.08m0-.6v.6l7.08-.6h-7.08"/><path d="M440.56,1117.36l7.08-.48v.48h-7.08m0-.48v.48l7.08-.48h-7.08"/><path class="cls-23" d="M440.56,1117.36l7.08-.48v.48h-7.08m0-.48v.48l7.08-.48h-7.08"/></g><g class="cls-21"><text class="cls-24" transform="translate(439.6 1048.84)">F</text></g><g class="cls-21"><text class="cls-24" transform="translate(439.48 907.13)">E</text></g><g class="cls-21"><text class="cls-24" transform="translate(439.24 765.28)">D</text></g><g class="cls-21"><text class="cls-24" transform="translate(439.36 623.56)">C</text></g><g class="cls-21"><text class="cls-24" transform="translate(439.48 481.84)">B</text></g><g class="cls-21"><text class="cls-24" transform="translate(439.72 342.04)">A</text></g><g class="cls-21"><text class="cls-24" transform="translate(439.36 1190.56)">G</text></g><g class="cls-13"><path d="M447.64,271.12l1583.28-1.44v1.44H447.64m0-1.44v1.44l1583.28-1.44H447.64"/><path class="cls-23" d="M447.64,271.12l1583.28-1.44v1.44H447.64m0-1.44v1.44l1583.28-1.44H447.64"/><path d="M1173,262.72l.48,7.08H1173v-7.08m.48,0H1173l.48,7.08v-7.08"/><path class="cls-23" d="M1173,262.72l.48,7.08H1173v-7.08m.48,0H1173l.48,7.08v-7.08"/><path d="M1031.32,262.72l.48,7.08h-.48v-7.08m.48,0h-.48l.48,7.08v-7.08"/><path class="cls-23" d="M1031.32,262.72l.48,7.08h-.48v-7.08m.48,0h-.48l.48,7.08v-7.08"/><path d="M889.6,262.72l.48,7.08h-.48v-7.08m.48,0h-.48l.48,7.08v-7.08"/><path class="cls-23" d="M889.6,262.72l.48,7.08h-.48v-7.08m.48,0h-.48l.48,7.08v-7.08"/><path d="M747.88,262.72l.48,7.08h-.48v-7.08m.48,0h-.48l.48,7.08v-7.08"/><path class="cls-23" d="M747.88,262.72l.48,7.08h-.48v-7.08m.48,0h-.48l.48,7.08v-7.08"/><path d="M606.16,262.72l.48,7.08h-.48v-7.08m.48,0h-.48l.48,7.08v-7.08"/><path class="cls-23" d="M606.16,262.72l.48,7.08h-.48v-7.08m.48,0h-.48l.48,7.08v-7.08"/></g><g class="cls-21"><text class="cls-24" transform="translate(1100.44 266.44)">5</text></g><g class="cls-21"><text class="cls-24" transform="translate(958.72 266.44)">4</text></g><g class="cls-21"><text class="cls-24" transform="translate(817 266.44)">3</text></g><g class="cls-21"><text class="cls-24" transform="translate(675.28 266.44)">2</text></g><g class="cls-21"><text class="cls-24" transform="translate(520.36 266.44)">1</text></g></g></svg>