<svg id="Livello_1" data-name="Livello 1" xmlns="http://www.w3.org/2000/svg" xmlns:xlink="http://www.w3.org/1999/xlink" viewBox="0 0 1190.6 1190.6"><defs><style>.cls-1,.cls-2,.cls-21,.cls-22,.cls-23,.cls-24,.cls-28,.cls-3,.cls-4,.cls-5,.cls-7,.cls-8,.cls-9{fill:none;}.cls-2{clip-path:url(#clip-path);}.cls-3{clip-path:url(#clip-path-2);}.cls-4{clip-path:url(#clip-path-3);}.cls-20,.cls-5{clip-path:url(#clip-path-5);}.cls-6{fill:#ff0;}.cls-7{stroke:#1bd715;}.cls-28,.cls-31,.cls-32,.cls-33,.cls-34,.cls-7,.cls-8,.cls-9{stroke-miterlimit:10;}.cls-8{stroke:red;}.cls-9{stroke:#2c0fd6;}.cls-10{clip-path:url(#clip-path-40);}.cls-11,.cls-13,.cls-14,.cls-15,.cls-16,.cls-17,.cls-18,.cls-25,.cls-26,.cls-27,.cls-29,.cls-30{isolation:isolate;}.cls-12{clip-path:url(#clip-path-41);}.cls-13{font-size:60px;font-family:OpenSansCondensed-Bold, Open Sans Condensed;font-weight:700;}.cls-14{font-size:16px;font-family:OpenSansCondensed-Light, Open Sans Condensed;}.cls-15,.cls-16,.cls-17,.cls-18{font-size:10px;font-family:EBGaramond-Italic, EB Garamond;font-style:italic;}.cls-16{letter-spacing:-0.05em;}.cls-17{letter-spacing:-0.02em;}.cls-18{letter-spacing:-0.01em;}.cls-19{clip-path:url(#clip-path-42);}.cls-21,.cls-22,.cls-23,.cls-24,.cls-28,.cls-31,.cls-32,.cls-33,.cls-34{stroke:#000;}.cls-21,.cls-22,.cls-23,.cls-24{stroke-linecap:round;stroke-linejoin:round;}.cls-21{stroke-width:0.24px;}.cls-22{stroke-width:0.96px;}.cls-23{stroke-width:0.6px;}.cls-24,.cls-28{stroke-width:0.12px;}.cls-25{font-size:29.96px;}.cls-25,.cls-26,.cls-27,.cls-29,.cls-30{font-family:ArialMT, Arial;}.cls-26{font-size:18.05px;}.cls-27{font-size:7.92px;}.cls-29,.cls-30{font-size:7.13px;}.cls-30{letter-spacing:-0.06em;}.cls-31{fill:#8e90ad;}.cls-32{fill:red;}.cls-33{fill:#fff;}.cls-34{fill:#1212ff;}</style><clipPath id="clip-path"><rect class="cls-3" x="65.41" y="372.28" width="1404.84" height="887.88"/></clipPath><clipPath id="clip-path-2"><rect class="cls-2" x="-56.03" y="241.48" width="1678.08" height="1184.88"/></clipPath><clipPath id="clip-path-3"><rect class="cls-3" x="65.41" y="372.28" width="1404.84" height="887.88"/></clipPath><clipPath id="clip-path-5"><rect class="cls-3" x="-56.03" y="241.6" width="1677.96" height="1184.76"/></clipPath><clipPath id="clip-path-40"><rect class="cls-1" x="889.47" y="59.92" width="240.52" height="240.8"/></clipPath><clipPath id="clip-path-41"><circle class="cls-1" cx="688.62" cy="207.05" r="141.73"/></clipPath><clipPath id="clip-path-42"><rect class="cls-1" x="68.28" y="469.53" width="629.87" height="658.53"/></clipPath></defs><title>Tavola disegno 1</title><g id="Livello_2" data-name="Livello 2"><g id="Colore"><rect class="cls-6" width="1190.6" height="1190.6"/></g><rect class="cls-7" x="889.9" y="889.66" width="239.53" height="239.53"/><rect class="cls-7" x="613.52" y="889.66" width="239.53" height="239.53"/><rect class="cls-7" x="337.14" y="889.66" width="239.53" height="239.53"/><rect class="cls-7" x="60.77" y="889.66" width="239.53" height="239.53"/><rect class="cls-7" x="889.9" y="613.28" width="239.53" height="239.53"/><rect class="cls-7" x="613.52" y="613.28" width="239.53" height="239.53"/><rect class="cls-7" x="337.14" y="613.28" width="239.53" height="239.53"/><rect class="cls-7" x="60.77" y="613.28" width="239.53" height="239.53"/><rect class="cls-7" x="889.9" y="336.9" width="239.53" height="239.53"/><rect class="cls-7" x="613.52" y="336.9" width="239.53" height="239.53"/><rect class="cls-7" x="337.14" y="336.9" width="239.53" height="239.53"/><rect class="cls-7" x="60.77" y="336.9" width="239.53" height="239.53"/><rect class="cls-7" x="889.9" y="60.52" width="239.53" height="239.53"/><rect class="cls-7" x="613.52" y="60.52" width="239.53" height="239.53"/><rect class="cls-7" x="337.14" y="60.52" width="239.53" height="239.53"/><rect class="cls-7" x="60.77" y="60.52" width="239.53" height="239.53"/></g><g id="Livello_3" data-name="Livello 3"><rect class="cls-8" x="945.17" y="944.93" width="184.25" height="184.25"/><rect class="cls-8" x="724.07" y="944.93" width="184.25" height="184.25"/><rect class="cls-8" x="502.97" y="944.93" width="184.25" height="184.25"/><rect class="cls-8" x="281.86" y="944.93" width="184.25" height="184.25"/><rect class="cls-8" x="60.76" y="944.93" width="184.25" height="184.25"/><rect class="cls-8" x="945.17" y="723.83" width="184.25" height="184.25"/><rect class="cls-8" x="724.07" y="723.83" width="184.25" height="184.25"/><rect class="cls-8" x="502.97" y="723.83" width="184.25" height="184.25"/><rect class="cls-8" x="281.86" y="723.83" width="184.25" height="184.25"/><rect class="cls-8" x="60.76" y="723.83" width="184.25" height="184.25"/><rect class="cls-8" x="945.17" y="502.73" width="184.25" height="184.25"/><rect class="cls-8" x="724.07" y="502.73" width="184.25" height="184.25"/><rect class="cls-8" x="502.97" y="502.73" width="184.25" height="184.25"/><rect class="cls-8" x="281.86" y="502.73" width="184.25" height="184.25"/><rect class="cls-8" x="60.76" y="502.73" width="184.25" height="184.25"/><rect class="cls-8" x="945.17" y="281.63" width="184.25" height="184.25"/><rect class="cls-8" x="724.07" y="281.63" width="184.25" height="184.25"/><rect class="cls-8" x="502.97" y="281.63" width="184.25" height="184.25"/><rect class="cls-8" x="281.86" y="281.63" width="184.25" height="184.25"/><rect class="cls-8" x="60.76" y="281.63" width="184.25" height="184.25"/><rect class="cls-8" x="945.17" y="60.52" width="184.25" height="184.25"/><rect class="cls-8" x="724.07" y="60.52" width="184.25" height="184.25"/><rect class="cls-8" x="502.97" y="60.52" width="184.25" height="184.25"/><rect class="cls-8" x="281.86" y="60.52" width="184.25" height="184.25"/><rect class="cls-8" x="60.76" y="60.52" width="184.25" height="184.25"/></g><g id="Livello_4" data-name="Livello 4"><rect class="cls-9" x="982.02" y="981.78" width="147.4" height="147.4"/><rect class="cls-9" x="797.77" y="981.78" width="147.4" height="147.4"/><rect class="cls-9" x="613.51" y="981.78" width="147.4" height="147.4"/><rect class="cls-9" x="429.26" y="981.78" width="147.4" height="147.4"/><rect class="cls-9" x="245.01" y="981.78" width="147.4" height="147.4"/><rect class="cls-9" x="60.76" y="981.78" width="147.4" height="147.4"/><rect class="cls-9" x="982.02" y="797.53" width="147.4" height="147.4"/><rect class="cls-9" x="797.77" y="797.53" width="147.4" height="147.4"/><rect class="cls-9" x="613.51" y="797.53" width="147.4" height="147.4"/><rect class="cls-9" x="429.26" y="797.53" width="147.4" height="147.4"/><rect class="cls-9" x="245.01" y="797.53" width="147.4" height="147.4"/><rect class="cls-9" x="60.76" y="797.53" width="147.4" height="147.4"/><rect class="cls-9" x="982.02" y="613.28" width="147.4" height="147.4"/><rect class="cls-9" x="797.77" y="613.28" width="147.4" height="147.4"/><rect class="cls-9" x="613.51" y="613.28" width="147.4" height="147.4"/><rect class="cls-9" x="429.26" y="613.28" width="147.4" height="147.4"/><rect class="cls-9" x="245.01" y="613.28" width="147.4" height="147.4"/><rect class="cls-9" x="60.76" y="613.28" width="147.4" height="147.4"/><rect class="cls-9" x="982.02" y="429.02" width="147.4" height="147.4"/><rect class="cls-9" x="797.77" y="429.02" width="147.4" height="147.4"/><rect class="cls-9" x="613.51" y="429.02" width="147.4" height="147.4"/><rect class="cls-9" x="429.26" y="429.02" width="147.4" height="147.4"/><rect class="cls-9" x="245.01" y="429.02" width="147.4" height="147.4"/><rect class="cls-9" x="60.76" y="429.02" width="147.4" height="147.4"/><rect class="cls-9" x="982.02" y="244.77" width="147.4" height="147.4"/><rect class="cls-9" x="797.77" y="244.77" width="147.4" height="147.4"/><rect class="cls-9" x="429.26" y="244.77" width="147.4" height="147.4"/><rect class="cls-9" x="245.01" y="244.77" width="147.4" height="147.4"/><rect class="cls-9" x="60.76" y="244.77" width="147.4" height="147.4"/><rect class="cls-9" x="982.02" y="60.52" width="147.4" height="147.4"/><rect class="cls-9" x="797.77" y="60.52" width="147.4" height="147.4"/><rect class="cls-9" x="613.51" y="60.52" width="147.4" height="147.4"/><rect class="cls-9" x="429.26" y="60.52" width="147.4" height="147.4"/><rect class="cls-9" x="245.01" y="60.52" width="147.4" height="147.4"/><rect class="cls-9" x="60.76" y="60.52" width="147.4" height="147.4"/></g><g class="cls-10"><image class="cls-11" width="2448" height="3264" transform="translate(794.48 27.44) scale(0.15)" xlink:href="../../Documents/GitHub/ex/vectors/890840_03.jpg"/></g><g class="cls-12"><image class="cls-11" width="2448" height="3264" transform="translate(494.5 -89.88) scale(0.16)" xlink:href="../../Documents/GitHub/ex/vectors/890840_05.jpg"/></g><text class="cls-13" transform="translate(62.49 113.77)">Alessandro Leone</text><text class="cls-14" transform="translate(61.53 258.25)">Lorem ipsum dolor sit amet, consectetuer</text><text class="cls-14" transform="translate(61.53 282.25)">adipiscing elit, sed diam nonummy nibh</text><text class="cls-14" transform="translate(61.53 306.25)">euismod tincidunt ut laoreet dolore magna</text><text class="cls-14" transform="translate(61.53 330.25)">aliquam erat volutpat. Ut wisi enim ad</text><text class="cls-14" transform="translate(61.53 354.25)">minim veniam, quis nostrud exerci tation</text><text class="cls-14" transform="translate(61.53 378.25)">ullamcorper suscipit lobortis nisl ut aliquip</text><text class="cls-14" transform="translate(61.53 402.25)">ex ea commodo consequat. Duis autem vel</text><text class="cls-14" transform="translate(61.53 426.25)">eum iriure dolor in hendrerit in vulputate</text><text class="cls-14" transform="translate(61.53 450.25)">velit esse molestie consequat, vel illum</text><text class="cls-14" transform="translate(61.53 474.25)">dolore eu feugiat nulla facilisis at vero eros</text><text class="cls-14" transform="translate(61.53 498.25)">et accumsan et iusto odio dignissim qui</text><text class="cls-14" transform="translate(61.53 522.25)">blandit praesent luptatum zzril delenit</text><text class="cls-14" transform="translate(61.53 546.25)">augue duis dolore te feugait nulla facilisi.</text><text class="cls-15" transform="translate(778.23 330.85)">L</text><text class="cls-16" transform="translate(784.06 330.85)">’</text><text class="cls-17" transform="translate(785.76 330.85)">a</text><text class="cls-18" transform="translate(790.47 330.85)">l</text><text class="cls-15" transform="translate(793.18 330.85)">ba</text><text class="cls-18" transform="translate(804.58 330.85)">i</text><text class="cls-15" transform="translate(807.37 330.85)">n C</text><text class="cls-17" transform="translate(820.95 330.85)">a</text><text class="cls-15" transform="translate(825.66 330.85)">l</text><text class="cls-17" transform="translate(828.52 330.85)">a</text><text class="cls-15" transform="translate(833.23 330.85)">bria</text><g class="cls-11"><text class="cls-14" transform="translate(886.92 334.63)">Lorem </text><text class="cls-14" transform="translate(814.49 358.63)">ipsum dolor sit amet, consectetuer </text><text class="cls-14" transform="translate(781.9 382.63)">adipiscing elit, sed diam nonummy nibh </text><text class="cls-14" transform="translate(759.92 406.63)">euismod tincidunt ut laoreet dolore magna aliquam erat </text><text class="cls-14" transform="translate(744.25 430.63)">volutpat. Ut wisi enim ad minim veniam, quis nostrud exerci </text><text class="cls-14" transform="translate(733.22 454.63)">tation ullamcorper suscipit lobortis nisl ut aliquip ex ea commodo </text><text class="cls-14" transform="translate(726.01 478.63)">consequat. Duis autem vel eum iriure dolor in hendrerit in vulputate </text><text class="cls-14" transform="translate(722.16 502.63)">velit esse molestie consequat, vel illum dolore eu feugiat nulla facilisis at </text><text class="cls-14" transform="translate(722.1 526.63)">vero eros et accumsan et iusto odio dignissim qui blandit praesent </text><text class="cls-14" transform="translate(725.87 550.63)">luptatum zzril delenit augue duis dolore te feugait nulla facilisi.</text><text class="cls-14" transform="translate(732.98 574.63)">Lorem ipsum dolor sit amet, cons ectetuer adipiscing elit, sed diam </text><text class="cls-14" transform="translate(743.9 598.63)">nonummy nibh euismod tincidunt ut laoreet dolore magna </text><text class="cls-14" transform="translate(759.43 622.63)">aliquam erat volutpat. Ut wisi enim ad minim veniam, </text><text class="cls-14" transform="translate(781.21 646.63)">quis nostrud exerci tation ullamcorper suscipit </text><text class="cls-14" transform="translate(813.4 670.63)">lobortis</text></g><g class="cls-19"><g class="cls-20"><line class="cls-21" x1="103.57" y1="591.04" x2="105.25" y2="589.36"/><line class="cls-21" x1="103.57" y1="601" x2="115.33" y2="589.36"/><line class="cls-21" x1="103.57" y1="611.08" x2="125.29" y2="589.36"/><line class="cls-21" x1="112.81" y1="611.8" x2="135.37" y2="589.36"/><line class="cls-21" x1="122.89" y1="611.8" x2="145.33" y2="589.36"/><line class="cls-21" x1="124.81" y1="619.96" x2="155.41" y2="589.36"/><line class="cls-21" x1="124.81" y1="629.92" x2="165.37" y2="589.36"/><line class="cls-21" x1="124.81" y1="640" x2="146.41" y2="618.28"/><line class="cls-21" x1="152.89" y1="611.8" x2="175.45" y2="589.36"/><line class="cls-21" x1="124.81" y1="649.96" x2="146.41" y2="628.36"/><line class="cls-21" x1="162.97" y1="611.8" x2="185.41" y2="589.36"/><line class="cls-21" x1="124.81" y1="660.04" x2="146.41" y2="638.32"/><line class="cls-21" x1="173.05" y1="611.8" x2="195.49" y2="589.36"/><line class="cls-21" x1="124.81" y1="670.12" x2="146.41" y2="648.4"/><line class="cls-21" x1="183.01" y1="611.8" x2="205.45" y2="589.36"/><line class="cls-21" x1="124.81" y1="680.08" x2="146.41" y2="658.36"/><line class="cls-21" x1="193.09" y1="611.8" x2="215.53" y2="589.36"/><line class="cls-21" x1="124.81" y1="690.16" x2="146.41" y2="668.44"/><line class="cls-21" x1="203.05" y1="611.8" x2="225.49" y2="589.36"/><line class="cls-21" x1="124.81" y1="700.12" x2="146.41" y2="678.4"/><line class="cls-21" x1="213.13" y1="611.8" x2="235.57" y2="589.36"/><line class="cls-21" x1="124.81" y1="710.2" x2="146.41" y2="688.48"/><line class="cls-21" x1="223.09" y1="611.8" x2="245.53" y2="589.36"/><line class="cls-21" x1="124.81" y1="720.16" x2="146.41" y2="698.44"/><line class="cls-21" x1="233.17" y1="611.8" x2="255.61" y2="589.36"/><line class="cls-21" x1="124.81" y1="730.24" x2="146.41" y2="708.52"/><line class="cls-21" x1="243.13" y1="611.8" x2="265.57" y2="589.36"/><line class="cls-21" x1="124.81" y1="740.2" x2="146.41" y2="718.6"/><line class="cls-21" x1="253.21" y1="611.8" x2="275.65" y2="589.36"/><line class="cls-21" x1="124.81" y1="750.28" x2="146.41" y2="728.56"/><line class="cls-21" x1="263.17" y1="611.8" x2="285.61" y2="589.36"/><line class="cls-21" x1="124.81" y1="760.24" x2="146.41" y2="738.64"/><line class="cls-21" x1="273.25" y1="611.8" x2="295.69" y2="589.36"/><line class="cls-21" x1="124.81" y1="770.32" x2="146.41" y2="748.6"/><line class="cls-21" x1="283.21" y1="611.8" x2="305.77" y2="589.36"/><line class="cls-21" x1="124.81" y1="780.28" x2="146.41" y2="758.68"/><line class="cls-21" x1="293.29" y1="611.8" x2="315.73" y2="589.36"/><line class="cls-21" x1="124.81" y1="790.36" x2="146.41" y2="768.64"/><line class="cls-21" x1="303.25" y1="611.8" x2="325.81" y2="589.36"/><line class="cls-21" x1="124.81" y1="800.32" x2="146.41" y2="778.72"/><line class="cls-21" x1="313.33" y1="611.8" x2="335.77" y2="589.36"/><line class="cls-21" x1="124.81" y1="810.4" x2="146.41" y2="788.68"/><line class="cls-21" x1="323.29" y1="611.8" x2="345.85" y2="589.36"/><line class="cls-21" x1="124.81" y1="820.36" x2="146.41" y2="798.76"/><line class="cls-21" x1="333.37" y1="611.8" x2="355.81" y2="589.36"/><line class="cls-21" x1="124.81" y1="830.44" x2="146.41" y2="808.72"/><line class="cls-21" x1="343.33" y1="611.8" x2="365.89" y2="589.36"/><line class="cls-21" x1="124.81" y1="840.52" x2="146.41" y2="818.8"/><line class="cls-21" x1="353.41" y1="611.8" x2="375.85" y2="589.36"/><line class="cls-21" x1="124.81" y1="850.48" x2="146.41" y2="828.76"/><line class="cls-21" x1="363.37" y1="611.8" x2="385.93" y2="589.36"/><line class="cls-21" x1="124.81" y1="860.56" x2="146.41" y2="838.84"/><line class="cls-21" x1="373.45" y1="611.8" x2="395.89" y2="589.36"/><line class="cls-21" x1="124.81" y1="870.52" x2="146.41" y2="848.8"/><line class="cls-21" x1="383.41" y1="611.8" x2="405.97" y2="589.36"/><line class="cls-21" x1="124.81" y1="880.6" x2="146.41" y2="858.88"/><line class="cls-21" x1="393.49" y1="611.8" x2="415.93" y2="589.36"/><line class="cls-21" x1="124.81" y1="890.56" x2="146.41" y2="868.96"/><line class="cls-21" x1="403.45" y1="611.8" x2="426.01" y2="589.36"/><line class="cls-21" x1="124.81" y1="900.64" x2="146.41" y2="878.92"/><line class="cls-21" x1="413.53" y1="611.8" x2="435.97" y2="589.36"/><line class="cls-21" x1="124.81" y1="910.6" x2="146.41" y2="889"/><line class="cls-21" x1="423.61" y1="611.8" x2="446.05" y2="589.36"/><line class="cls-21" x1="124.81" y1="920.68" x2="146.41" y2="898.96"/><line class="cls-21" x1="433.57" y1="611.8" x2="456.01" y2="589.36"/><line class="cls-21" x1="124.81" y1="930.64" x2="146.41" y2="909.04"/><line class="cls-21" x1="443.65" y1="611.8" x2="466.09" y2="589.36"/><line class="cls-21" x1="124.81" y1="940.72" x2="146.41" y2="919"/><line class="cls-21" x1="453.61" y1="611.8" x2="476.05" y2="589.36"/><line class="cls-21" x1="124.81" y1="950.68" x2="146.41" y2="929.08"/><line class="cls-21" x1="463.69" y1="611.8" x2="486.13" y2="589.36"/><line class="cls-21" x1="124.81" y1="960.76" x2="146.41" y2="939.04"/><line class="cls-21" x1="473.65" y1="611.8" x2="496.09" y2="589.36"/><line class="cls-21" x1="103.57" y1="991.96" x2="111.37" y2="984.28"/><line class="cls-21" x1="483.73" y1="611.8" x2="506.17" y2="589.36"/><line class="cls-21" x1="124.81" y1="970.72" x2="146.41" y2="949.12"/><line class="cls-21" x1="106.45" y1="999.16" x2="121.33" y2="984.28"/><line class="cls-21" x1="493.69" y1="611.8" x2="516.13" y2="589.36"/><line class="cls-21" x1="124.81" y1="980.8" x2="146.41" y2="959.08"/><line class="cls-21" x1="116.53" y1="999.16" x2="146.41" y2="969.16"/><line class="cls-21" x1="503.77" y1="611.8" x2="526.21" y2="589.36"/><line class="cls-21" x1="126.49" y1="999.16" x2="146.41" y2="979.12"/><line class="cls-21" x1="513.73" y1="611.8" x2="536.29" y2="589.36"/><line class="cls-21" x1="136.57" y1="999.16" x2="151.45" y2="984.28"/><line class="cls-21" x1="523.81" y1="611.8" x2="546.25" y2="589.36"/><line class="cls-21" x1="146.53" y1="999.16" x2="161.41" y2="984.28"/><line class="cls-21" x1="533.77" y1="611.8" x2="556.33" y2="589.36"/><line class="cls-21" x1="156.61" y1="999.16" x2="171.49" y2="984.28"/><line class="cls-21" x1="543.85" y1="611.8" x2="566.29" y2="589.36"/><line class="cls-21" x1="166.57" y1="999.16" x2="181.45" y2="984.28"/><line class="cls-21" x1="553.81" y1="611.8" x2="576.37" y2="589.36"/><line class="cls-21" x1="176.65" y1="999.16" x2="191.53" y2="984.28"/><line class="cls-21" x1="563.89" y1="611.8" x2="586.33" y2="589.36"/><line class="cls-21" x1="186.61" y1="999.16" x2="201.49" y2="984.28"/><line class="cls-21" x1="573.85" y1="611.8" x2="596.41" y2="589.36"/><line class="cls-21" x1="196.69" y1="999.16" x2="211.57" y2="984.28"/><line class="cls-21" x1="583.93" y1="611.8" x2="606.37" y2="589.36"/><line class="cls-21" x1="206.65" y1="999.16" x2="221.53" y2="984.28"/><line class="cls-21" x1="587.29" y1="618.52" x2="609.01" y2="596.8"/><line class="cls-21" x1="216.73" y1="999.16" x2="231.61" y2="984.28"/><line class="cls-21" x1="587.29" y1="628.48" x2="609.01" y2="606.76"/><line class="cls-21" x1="226.69" y1="999.16" x2="241.57" y2="984.28"/><line class="cls-21" x1="587.29" y1="638.56" x2="609.01" y2="616.84"/><line class="cls-21" x1="236.77" y1="999.16" x2="251.65" y2="984.28"/><line class="cls-21" x1="587.29" y1="648.52" x2="609.01" y2="626.8"/><line class="cls-21" x1="246.73" y1="999.16" x2="261.61" y2="984.28"/><line class="cls-21" x1="587.29" y1="658.6" x2="609.01" y2="636.88"/><line class="cls-21" x1="256.81" y1="999.16" x2="271.69" y2="984.28"/><line class="cls-21" x1="587.29" y1="668.56" x2="609.01" y2="646.84"/><line class="cls-21" x1="266.77" y1="999.16" x2="281.65" y2="984.28"/><line class="cls-21" x1="587.29" y1="678.64" x2="609.01" y2="656.92"/><line class="cls-21" x1="276.85" y1="999.16" x2="291.73" y2="984.28"/><line class="cls-21" x1="587.29" y1="688.6" x2="609.01" y2="667"/><line class="cls-21" x1="286.93" y1="999.16" x2="301.69" y2="984.28"/><line class="cls-21" x1="587.29" y1="698.68" x2="609.01" y2="676.96"/><line class="cls-21" x1="296.89" y1="999.16" x2="311.77" y2="984.28"/><line class="cls-21" x1="587.29" y1="708.64" x2="609.01" y2="687.04"/><line class="cls-21" x1="306.97" y1="999.16" x2="321.85" y2="984.28"/><line class="cls-21" x1="587.29" y1="718.72" x2="609.01" y2="697"/><line class="cls-21" x1="316.93" y1="999.16" x2="331.81" y2="984.28"/><line class="cls-21" x1="587.29" y1="728.68" x2="609.01" y2="707.08"/><line class="cls-21" x1="327.01" y1="999.16" x2="341.89" y2="984.28"/><line class="cls-21" x1="587.29" y1="738.76" x2="609.01" y2="717.04"/><line class="cls-21" x1="336.97" y1="999.16" x2="351.85" y2="984.28"/><line class="cls-21" x1="587.29" y1="748.72" x2="609.01" y2="727.12"/><line class="cls-21" x1="347.05" y1="999.16" x2="361.93" y2="984.28"/><line class="cls-21" x1="587.29" y1="758.8" x2="609.01" y2="737.08"/><line class="cls-21" x1="357.01" y1="999.16" x2="371.89" y2="984.28"/><line class="cls-21" x1="587.29" y1="768.76" x2="609.01" y2="747.16"/><line class="cls-21" x1="367.09" y1="999.16" x2="381.97" y2="984.28"/><line class="cls-21" x1="587.29" y1="778.84" x2="609.01" y2="757.12"/><line class="cls-21" x1="377.05" y1="999.16" x2="391.93" y2="984.28"/><line class="cls-21" x1="587.29" y1="788.92" x2="609.01" y2="767.2"/><line class="cls-21" x1="387.13" y1="999.16" x2="402.01" y2="984.28"/><line class="cls-21" x1="587.29" y1="798.88" x2="609.01" y2="777.16"/><line class="cls-21" x1="397.09" y1="999.16" x2="411.97" y2="984.28"/><line class="cls-21" x1="587.29" y1="808.96" x2="609.01" y2="787.24"/><line class="cls-21" x1="407.17" y1="999.16" x2="422.05" y2="984.28"/><line class="cls-21" x1="587.29" y1="818.92" x2="609.01" y2="797.2"/><line class="cls-21" x1="417.13" y1="999.16" x2="432.01" y2="984.28"/><line class="cls-21" x1="587.29" y1="829" x2="609.01" y2="807.28"/><line class="cls-21" x1="427.21" y1="999.16" x2="442.09" y2="984.28"/><line class="cls-21" x1="587.29" y1="838.96" x2="609.01" y2="817.36"/><line class="cls-21" x1="437.17" y1="999.16" x2="452.05" y2="984.28"/><line class="cls-21" x1="587.29" y1="849.04" x2="609.01" y2="827.32"/><line class="cls-21" x1="447.25" y1="999.16" x2="462.13" y2="984.28"/><line class="cls-21" x1="587.29" y1="859" x2="609.01" y2="837.4"/><line class="cls-21" x1="457.21" y1="999.16" x2="472.09" y2="984.28"/><line class="cls-21" x1="587.29" y1="869.08" x2="609.01" y2="847.36"/><line class="cls-21" x1="467.29" y1="999.16" x2="482.17" y2="984.28"/><line class="cls-21" x1="587.29" y1="879.04" x2="609.01" y2="857.44"/><line class="cls-21" x1="477.25" y1="999.16" x2="492.13" y2="984.28"/><line class="cls-21" x1="587.29" y1="889.12" x2="609.01" y2="867.4"/><line class="cls-21" x1="487.33" y1="999.16" x2="502.21" y2="984.28"/><line class="cls-21" x1="587.29" y1="899.08" x2="609.01" y2="877.48"/><line class="cls-21" x1="497.29" y1="999.16" x2="512.17" y2="984.28"/><line class="cls-21" x1="587.29" y1="909.16" x2="609.01" y2="887.44"/><line class="cls-21" x1="507.37" y1="999.16" x2="522.25" y2="984.28"/><line class="cls-21" x1="587.29" y1="919.12" x2="609.01" y2="897.52"/><line class="cls-21" x1="517.33" y1="999.16" x2="532.21" y2="984.28"/><line class="cls-21" x1="587.29" y1="929.2" x2="609.01" y2="907.48"/><line class="cls-21" x1="527.41" y1="999.16" x2="542.29" y2="984.28"/><line class="cls-21" x1="587.29" y1="939.28" x2="609.01" y2="917.56"/><line class="cls-21" x1="537.49" y1="999.16" x2="552.25" y2="984.28"/><line class="cls-21" x1="587.29" y1="949.24" x2="609.01" y2="927.52"/><line class="cls-21" x1="547.45" y1="999.16" x2="562.33" y2="984.28"/><line class="cls-21" x1="587.29" y1="959.32" x2="609.01" y2="937.6"/><line class="cls-21" x1="557.53" y1="999.16" x2="572.41" y2="984.28"/><line class="cls-21" x1="587.29" y1="969.28" x2="609.01" y2="947.56"/><line class="cls-21" x1="567.49" y1="999.16" x2="582.37" y2="984.28"/><line class="cls-21" x1="587.29" y1="979.36" x2="609.01" y2="957.64"/><line class="cls-21" x1="577.57" y1="999.16" x2="609.01" y2="967.6"/><line class="cls-21" x1="587.53" y1="999.16" x2="609.01" y2="977.68"/><line class="cls-21" x1="597.61" y1="999.16" x2="609.01" y2="987.76"/><line class="cls-21" x1="607.57" y1="999.16" x2="609.01" y2="997.72"/><line class="cls-22" x1="587.29" y1="611.8" x2="146.41" y2="611.8"/><line class="cls-22" x1="124.81" y1="611.8" x2="103.57" y2="611.8"/><polyline class="cls-22" points="103.57 589.36 609.01 589.36 609.01 611.8"/><line class="cls-22" x1="609.01" y1="984.28" x2="609.01" y2="999.16"/><line class="cls-22" x1="101.29" y1="984.28" x2="124.81" y2="984.28"/><polyline class="cls-22" points="587.29 984.28 146.41 984.28 146.41 611.8"/><line class="cls-22" x1="124.81" y1="611.8" x2="124.81" y2="984.28"/><line class="cls-22" x1="587.29" y1="611.8" x2="587.29" y2="984.28"/><line class="cls-22" x1="609.01" y1="984.28" x2="609.01" y2="611.8"/><line class="cls-23" x1="251.77" y1="943.6" x2="251.77" y2="911.8"/><polyline class="cls-23" points="213.13 908.92 213.13 906.28 146.41 906.28 146.41 984.28 210.49 984.28"/><polyline class="cls-23" points="146.41 906.28 213.13 906.28 213.13 908.92 146.41 908.92 146.41 906.28"/><polyline class="cls-23" points="210.49 984.28 210.49 908.92 213.13 908.92"/><polyline class="cls-23" points="251.77 943.6 251.77 911.8 249.13 914.68"/><line class="cls-23" x1="251.77" y1="943.6" x2="249.13" y2="943.6"/><line class="cls-23" x1="249.13" y1="914.68" x2="210.49" y2="914.68"/><polyline class="cls-23" points="210.49 943.6 249.13 943.6 249.13 914.68"/><polyline class="cls-23" points="235.21 978.28 235.21 946.48 235.21 978.28"/><line class="cls-23" x1="232.57" y1="949.36" x2="235.21" y2="946.48"/><line class="cls-23" x1="235.21" y1="978.28" x2="232.57" y2="978.28"/><line class="cls-23" x1="232.57" y1="949.36" x2="210.49" y2="949.36"/><polyline class="cls-23" points="210.49 978.28 232.57 978.28 232.57 949.36"/><polyline class="cls-23" points="217.33 914.68 217.33 714.88 146.41 714.88 146.41 984.28 217.33 984.28 217.33 978.28"/><line class="cls-23" x1="217.33" y1="949.36" x2="217.33" y2="943.6"/><polyline class="cls-23" points="146.41 714.88 217.33 714.88 217.33 720.88 146.41 720.88 146.41 714.88"/><line class="cls-21" x1="578.41" y1="843.88" x2="579.85" y2="842.44"/><line class="cls-21" x1="578.41" y1="846.16" x2="582.13" y2="842.44"/><line class="cls-21" x1="578.41" y1="848.44" x2="584.41" y2="842.44"/><line class="cls-21" x1="578.41" y1="850.72" x2="584.77" y2="844.36"/><line class="cls-21" x1="578.41" y1="853" x2="584.77" y2="846.64"/><line class="cls-21" x1="578.41" y1="855.4" x2="584.77" y2="849.04"/><line class="cls-21" x1="578.41" y1="857.68" x2="584.77" y2="851.32"/><line class="cls-21" x1="578.41" y1="859.96" x2="584.77" y2="853.6"/><line class="cls-21" x1="578.41" y1="862.24" x2="584.77" y2="855.88"/><line class="cls-21" x1="578.41" y1="864.64" x2="584.77" y2="858.16"/><line class="cls-21" x1="578.41" y1="866.92" x2="584.77" y2="860.56"/><line class="cls-21" x1="578.41" y1="869.2" x2="584.77" y2="862.84"/><line class="cls-21" x1="578.41" y1="871.48" x2="584.77" y2="865.12"/><line class="cls-21" x1="578.41" y1="873.76" x2="584.77" y2="867.4"/><line class="cls-21" x1="578.41" y1="876.16" x2="584.77" y2="869.68"/><line class="cls-21" x1="578.41" y1="878.44" x2="584.77" y2="872.08"/><line class="cls-21" x1="578.41" y1="880.72" x2="584.77" y2="874.36"/><line class="cls-21" x1="578.41" y1="883" x2="584.77" y2="876.64"/><line class="cls-21" x1="578.41" y1="885.28" x2="584.77" y2="878.92"/><line class="cls-21" x1="578.41" y1="887.68" x2="584.77" y2="881.2"/><line class="cls-21" x1="578.41" y1="889.96" x2="584.77" y2="883.6"/><line class="cls-21" x1="578.41" y1="892.24" x2="584.77" y2="885.88"/><line class="cls-21" x1="578.41" y1="894.52" x2="584.77" y2="888.16"/><line class="cls-21" x1="578.41" y1="896.8" x2="584.77" y2="890.44"/><line class="cls-21" x1="578.41" y1="899.2" x2="584.77" y2="892.84"/><line class="cls-21" x1="578.41" y1="901.48" x2="584.77" y2="895.12"/><line class="cls-21" x1="578.41" y1="903.76" x2="584.77" y2="897.4"/><line class="cls-21" x1="578.41" y1="906.04" x2="584.77" y2="899.68"/><line class="cls-21" x1="578.41" y1="908.44" x2="584.77" y2="901.96"/><line class="cls-21" x1="578.41" y1="910.72" x2="584.77" y2="904.36"/><line class="cls-21" x1="578.41" y1="913" x2="584.77" y2="906.64"/><line class="cls-21" x1="578.41" y1="915.28" x2="584.77" y2="908.92"/><line class="cls-21" x1="578.41" y1="917.56" x2="584.77" y2="911.2"/><line class="cls-21" x1="578.41" y1="919.96" x2="584.77" y2="913.48"/><line class="cls-21" x1="578.41" y1="922.24" x2="584.77" y2="915.88"/><line class="cls-21" x1="578.41" y1="924.52" x2="584.77" y2="918.16"/><line class="cls-21" x1="578.41" y1="926.8" x2="584.77" y2="920.44"/><line class="cls-21" x1="578.41" y1="929.08" x2="584.77" y2="922.72"/><polyline class="cls-21" points="578.41 931.48 579.49 930.4 584.77 925.12"/><polyline class="cls-21" points="578.41 933.76 581.77 930.4 584.77 927.4"/><polyline class="cls-21" points="578.41 936.04 584.17 930.4 584.77 929.68"/><line class="cls-21" x1="578.41" y1="938.32" x2="584.77" y2="931.96"/><line class="cls-21" x1="578.41" y1="940.72" x2="584.77" y2="934.24"/><line class="cls-21" x1="578.41" y1="943" x2="584.77" y2="936.64"/><line class="cls-21" x1="578.41" y1="945.28" x2="584.77" y2="938.92"/><line class="cls-21" x1="578.41" y1="947.56" x2="584.77" y2="941.2"/><line class="cls-21" x1="578.41" y1="949.84" x2="584.77" y2="943.48"/><line class="cls-21" x1="578.41" y1="952.24" x2="584.77" y2="945.76"/><line class="cls-21" x1="578.41" y1="954.52" x2="584.77" y2="948.16"/><line class="cls-21" x1="578.41" y1="956.8" x2="584.77" y2="950.44"/><line class="cls-21" x1="578.41" y1="959.08" x2="584.77" y2="952.72"/><line class="cls-21" x1="578.41" y1="961.36" x2="584.77" y2="955"/><line class="cls-21" x1="578.41" y1="963.76" x2="584.77" y2="957.28"/><line class="cls-21" x1="578.41" y1="966.04" x2="584.77" y2="959.68"/><line class="cls-21" x1="578.41" y1="968.32" x2="584.77" y2="961.96"/><line class="cls-21" x1="578.41" y1="970.6" x2="584.77" y2="964.24"/><line class="cls-21" x1="578.41" y1="972.88" x2="584.77" y2="966.52"/><line class="cls-21" x1="578.41" y1="975.28" x2="584.77" y2="968.92"/><line class="cls-21" x1="578.41" y1="977.56" x2="584.77" y2="971.2"/><line class="cls-21" x1="578.41" y1="979.84" x2="584.77" y2="973.48"/><line class="cls-21" x1="578.41" y1="982.12" x2="584.77" y2="975.76"/><line class="cls-21" x1="578.65" y1="984.28" x2="584.77" y2="978.04"/><line class="cls-21" x1="580.93" y1="984.28" x2="584.77" y2="980.44"/><line class="cls-21" x1="583.33" y1="984.28" x2="584.77" y2="982.72"/><polyline class="cls-23" points="584.77 930.4 584.77 984.28 578.41 984.28 578.41 930.4 584.77 930.4"/><line class="cls-21" x1="288.61" y1="935.44" x2="288.85" y2="935.2"/><line class="cls-21" x1="288.61" y1="937.72" x2="292.45" y2="933.88"/><line class="cls-21" x1="288.61" y1="940.12" x2="294.61" y2="934"/><line class="cls-21" x1="288.61" y1="942.4" x2="294.73" y2="936.28"/><line class="cls-21" x1="288.61" y1="944.68" x2="294.73" y2="938.56"/><line class="cls-21" x1="288.61" y1="946.96" x2="294.73" y2="940.84"/><line class="cls-21" x1="288.61" y1="949.24" x2="294.73" y2="943.12"/><line class="cls-21" x1="288.61" y1="951.64" x2="294.73" y2="945.4"/><line class="cls-21" x1="288.61" y1="953.92" x2="294.85" y2="947.68"/><line class="cls-21" x1="288.61" y1="956.2" x2="294.85" y2="949.96"/><line class="cls-21" x1="288.61" y1="958.48" x2="294.85" y2="952.24"/><line class="cls-21" x1="288.61" y1="960.76" x2="294.85" y2="954.52"/><line class="cls-21" x1="288.61" y1="963.16" x2="294.85" y2="956.8"/><line class="cls-21" x1="288.61" y1="965.44" x2="294.97" y2="959.08"/><line class="cls-21" x1="288.61" y1="967.72" x2="294.97" y2="961.36"/><line class="cls-21" x1="288.61" y1="970" x2="294.97" y2="963.64"/><line class="cls-21" x1="288.61" y1="972.4" x2="294.97" y2="965.92"/><line class="cls-21" x1="288.61" y1="974.68" x2="294.97" y2="968.32"/><line class="cls-21" x1="288.61" y1="976.96" x2="294.97" y2="970.6"/><line class="cls-21" x1="288.61" y1="979.24" x2="294.97" y2="972.88"/><line class="cls-21" x1="288.61" y1="981.52" x2="294.97" y2="975.16"/><line class="cls-21" x1="288.61" y1="983.92" x2="294.97" y2="977.44"/><line class="cls-21" x1="290.53" y1="984.28" x2="294.97" y2="979.84"/><line class="cls-21" x1="292.81" y1="984.28" x2="294.97" y2="982.12"/><polyline class="cls-23" points="288.61 934.96 288.61 984.28 294.97 984.28 294.85 938.56"/><polyline class="cls-23" points="584.77 842.44 584.77 930.4 578.41 930.4 578.41 842.44 584.77 842.44"/><line class="cls-21" x1="558.25" y1="945.28" x2="559.33" y2="944.2"/><line class="cls-21" x1="558.25" y1="947.56" x2="561.61" y2="944.2"/><line class="cls-21" x1="559.33" y1="948.76" x2="563.29" y2="944.8"/><line class="cls-21" x1="561.73" y1="948.76" x2="563.29" y2="947.08"/><polyline class="cls-23" points="563.29 944.2 558.25 944.2 558.25 948.76 563.29 948.76 563.29 944.2"/><line class="cls-21" x1="314.05" y1="944.92" x2="314.65" y2="944.2"/><line class="cls-21" x1="314.05" y1="946.12" x2="315.97" y2="944.2"/><line class="cls-21" x1="314.05" y1="947.44" x2="317.17" y2="944.2"/><line class="cls-21" x1="314.05" y1="948.64" x2="318.49" y2="944.2"/><line class="cls-21" x1="315.13" y1="948.76" x2="319.09" y2="944.8"/><line class="cls-21" x1="316.45" y1="948.76" x2="319.09" y2="946.12"/><line class="cls-21" x1="317.65" y1="948.76" x2="319.09" y2="947.32"/><line class="cls-21" x1="318.97" y1="948.76" x2="319.09" y2="948.64"/><line class="cls-23" x1="563.29" y1="944.2" x2="560.65" y2="943.96"/><line class="cls-23" x1="558.25" y1="944.2" x2="555.73" y2="943.96"/><line class="cls-23" x1="530.53" y1="943.96" x2="558.25" y2="948.76"/><polyline class="cls-23" points="314.05 944.2 319.09 944.2 319.09 948.76 314.05 948.76 314.05 944.2 317.05 943.96"/><line class="cls-23" x1="319.09" y1="944.2" x2="321.97" y2="943.96"/><line class="cls-23" x1="346.93" y1="943.96" x2="319.09" y2="948.76"/><line class="cls-23" x1="578.41" y1="943.84" x2="294.97" y2="943.84"/><line class="cls-23" x1="295.33" y1="912.64" x2="578.89" y2="912.76"/><polyline class="cls-23" points="578.41 936.28 294.85 936.28 294.85 938.56 578.41 938.56 578.41 936.28"/><polyline class="cls-23" points="575.65 872.92 577.21 877.72 578.05 883.12 577.21 887.92 575.89 894.88 573.61 899.44 570.37 905.44 566.89 908.68 561.01 911.68 558.25 912.76 551.05 913.12 551.41 908.56 553.45 901.84 555.49 891.76 560.17 885.4 564.61 880.24 569.05 874.6 575.89 872.92"/><polyline class="cls-23" points="574.81 876.04 570.49 877.48 565.09 885.16 561.85 890.32"/><polyline class="cls-23" points="572.17 889.24 570.25 895.48 566.77 900.4 564.37 903.28 557.05 904.72"/><polyline class="cls-23" points="501.25 908.44 487.93 908.44 468.25 907.96 460.09 909.04 441.49 908.44 433.93 907.36 425.41 907.72 418.21 908.44 410.41 907.36 391.81 906.4 377.17 907 366.85 907.72 352.81 907.72 341.29 907.36 328.57 908.8 310.45 908.08 289.81 907.12"/><line class="cls-23" x1="534.37" y1="906.52" x2="535.21" y2="912.76"/><polyline class="cls-23" points="500.29 912.76 501.01 908.68 503.77 906.52 512.53 905.92 522.37 905.44 532.21 906.52 534.37 906.52"/><line class="cls-24" x1="372.73" y1="628.24" x2="372.73" y2="662.44"/><polyline class="cls-24" points="372.73 716.92 372.73 849.52 314.77 849.52"/><line class="cls-24" x1="314.41" y1="628.24" x2="372.73" y2="628.24"/><line class="cls-24" x1="314.77" y1="632.44" x2="368.65" y2="632.44"/><line class="cls-24" x1="314.77" y1="845.44" x2="368.65" y2="845.44"/><line class="cls-24" x1="368.65" y1="738.88" x2="314.77" y2="738.88"/><line class="cls-24" x1="368.65" y1="743.08" x2="314.77" y2="743.08"/><line class="cls-24" x1="368.65" y1="632.44" x2="368.65" y2="664"/><line class="cls-24" x1="368.65" y1="715.48" x2="368.65" y2="845.44"/><line class="cls-21" x1="314.77" y1="712.48" x2="345.25" y2="663.4"/><line class="cls-21" x1="314.77" y1="767.68" x2="318.85" y2="763"/><line class="cls-21" x1="311.89" y1="833.32" x2="357.13" y2="782.56"/><polyline class="cls-21" points="508.69 718.12 445.81 718.12 445.81 762.04 508.69 762.04 508.69 718.12"/><polyline class="cls-21" points="507.37 719.56 447.25 719.56 447.25 760.6 507.37 760.6 507.37 719.56"/><polyline class="cls-21" points="456.49 754.24 454.57 749.92 460.21 749.68 460.45 743.2"/><polyline class="cls-21" points="493.93 746.68 484.69 744.04 479.65 747.28 471.25 743.56 462.61 731.92"/><polyline class="cls-21" points="475.09 731.92 488.77 731.68 491.77 729.28"/><polyline class="cls-21" points="476.41 718.12 477.97 718.12 477.97 716.2 476.41 716.2 476.41 718.12"/><line class="cls-23" x1="578.41" y1="875.08" x2="576.37" y2="875.08"/><line class="cls-23" x1="568.57" y1="875.08" x2="540.85" y2="875.08"/><line class="cls-23" x1="540.85" y1="878.44" x2="540.85" y2="912.76"/><line class="cls-23" x1="540.85" y1="945.76" x2="540.85" y2="984.28"/><line class="cls-23" x1="543.73" y1="984.28" x2="544.81" y2="946.36"/><line class="cls-23" x1="545.77" y1="912.76" x2="546.73" y2="878.44"/><line class="cls-23" x1="565.93" y1="878.44" x2="538.09" y2="878.44"/><line class="cls-23" x1="579.73" y1="903.76" x2="571.21" y2="903.76"/><line class="cls-23" x1="552.85" y1="903.76" x2="546.01" y2="903.76"/><line class="cls-23" x1="578.41" y1="953.32" x2="544.57" y2="953.32"/><line class="cls-23" x1="578.41" y1="956.08" x2="544.57" y2="956.08"/><line class="cls-23" x1="540.85" y1="878.44" x2="540.85" y2="888.04"/><line class="cls-22" x1="543.73" y1="984.28" x2="540.85" y2="984.28"/><polyline class="cls-23" points="568.57 875.08 538.09 875.08 538.09 878.44"/><polyline class="cls-23" points="538.09 903.76 538.09 878.44 540.85 878.44 540.85 903.76 538.09 903.76 538.09 878.44"/><line class="cls-23" x1="294.85" y1="936.28" x2="294.85" y2="912.64"/><polyline class="cls-23" points="287.53 932.92 288.85 934.48 293.41 933.28"/><polyline class="cls-23" points="287.53 932.8 287.17 929.56 287.53 925.12 288.37 917.56 287.65 913.84 288.49 908.8 289.81 907.12"/><line class="cls-21" x1="559.09" y1="789.4" x2="560.53" y2="787.96"/><line class="cls-21" x1="559.09" y1="791.68" x2="562.81" y2="787.96"/><line class="cls-21" x1="559.09" y1="793.96" x2="565.09" y2="787.96"/><line class="cls-21" x1="560.29" y1="795.16" x2="567.37" y2="787.96"/><line class="cls-21" x1="562.57" y1="795.16" x2="569.77" y2="787.96"/><line class="cls-21" x1="564.97" y1="795.16" x2="572.05" y2="787.96"/><line class="cls-21" x1="567.25" y1="795.16" x2="574.33" y2="787.96"/><line class="cls-21" x1="569.53" y1="795.16" x2="576.61" y2="787.96"/><line class="cls-21" x1="571.81" y1="795.16" x2="578.89" y2="787.96"/><line class="cls-21" x1="574.09" y1="795.16" x2="581.29" y2="787.96"/><line class="cls-21" x1="576.49" y1="795.16" x2="583.57" y2="787.96"/><line class="cls-21" x1="578.77" y1="795.16" x2="585.85" y2="787.96"/><line class="cls-21" x1="581.05" y1="795.16" x2="587.29" y2="788.92"/><line class="cls-21" x1="583.33" y1="795.16" x2="587.29" y2="791.2"/><line class="cls-21" x1="585.73" y1="795.16" x2="587.29" y2="793.48"/><polyline class="cls-23" points="587.29 787.96 587.29 795.16 559.09 795.16 559.09 787.96 587.29 787.96"/><polyline class="cls-21" points="568.93 750.52 574.69 750.52 574.69 752.44 574.69 754 574.93 758.8 576.49 762.4 579.01 765.76 581.05 771.04 581.05 773.68 580.69 776.2 580.21 778.36 578.77 782.92 576.37 785.8"/><polyline class="cls-21" points="568.81 750.52 568.81 752.44 568.81 754 568.69 758.8 567.01 762.4 564.61 765.76 562.45 771.04 562.45 773.68 562.93 776.2 563.29 778.36 564.73 782.92 567.25 785.8"/><polyline class="cls-21" points="570.49 750.76 569.65 742.36 568.45 732.28 564.97 727.12 560.65 724.6 554.41 722.68 555.73 723.52 555.49 722.08 554.17 722.08 554.41 724.24 555.49 723.76 550.93 724.6 542.89 727.24 546.61 726.64 546.85 725.44 550.93 725.68 553.21 726.4 553.57 724.24 555.25 723.16 554.41 722.08 547.81 720.64 543.97 722.92 539.17 719.08 543.49 719.8 546.37 723.16 547.45 722.32 546.37 720.52 548.29 720.88 548.89 722.08 548.89 719.8 552.37 722.68 553.81 722.08 554.17 722.08 551.29 719.08 554.41 715.72 554.17 712 553.81 710.56 549.73 711.16 552.97 711.04 554.05 712 554.65 711.04 552.61 710.56 554.41 708.04 556.45 710.32 554.17 710.56 556.33 712.24 555.85 713.08 550.93 713.08 554.17 711.16 546.85 710.2 551.77 707.08 551.77 710.2"/><polyline class="cls-21" points="570.13 750.16 569.29 743.8 567.37 734.68 569.05 728.32 568.45 721.72 570.13 722.56 568.69 720.64 568.09 721.72 569.53 721.96 570.37 720.04 572.53 718.84 574.69 720.64 575.89 723.16 571.57 722.68 570.73 720.52 568.93 720.52 568.21 719.8 568.21 716.32 566.77 716.32 565.93 716.2 564.73 719.2 568.93 720.28 567.37 718.24 563.53 720.28 568.69 722.32 567.85 724.84 562.45 727.12 565.57 724.24 568.69 725.44 566.17 727.84 566.77 722.08 570.13 721.96 571.57 725.2 566.77 724.96"/><polyline class="cls-21" points="569.65 750.4 575.53 737.8 579.61 732.28 582.13 725.68 585.97 720.04 587.41 718 585.61 717.64 587.17 718.24"/><polyline class="cls-21" points="587.29 707.32 585.37 707.08 582.25 709.72 587.05 712.48 586.81 709.72 587.29 709.84"/><polyline class="cls-21" points="587.29 712.96 583.57 713.92 587.05 716.92"/><line class="cls-22" x1="587.05" y1="716.92" x2="587.29" y2="716.92"/><polyline class="cls-21" points="587.29 716.8 585.97 717.4 587.29 718.6"/><polyline class="cls-21" points="587.05 716.32 583.33 720.52 581.41 724 587.17 725.2 582.49 719.8 586.81 718.36"/><polyline class="cls-21" points="570.37 751 574.45 745.84 576.73 742.72 579.61 740.08 583.69 738.16 585.97 733.72 587.29 733.24"/><polyline class="cls-21" points="587.29 730.96 585.13 728.92 581.29 730.6 585.13 731.44 583.93 728.08 587.29 732.52"/><polyline class="cls-21" points="587.29 733.24 581.89 732.88 587.29 733"/><polyline class="cls-21" points="577.81 784 587.29 784 587.29 787.96 565.93 787.96 565.93 784.36"/><line class="cls-22" x1="587.29" y1="787.6" x2="574.81" y2="787.6"/><polyline class="cls-21" points="567.97 787.6 566.41 787.6 566.41 784.84"/><line class="cls-21" x1="577.57" y1="784.36" x2="587.29" y2="784.36"/><polyline class="cls-21" points="579.73 779.92 587.29 779.92 587.29 784 577.81 784"/><line class="cls-21" x1="587.29" y1="783.52" x2="578.17" y2="783.52"/><line class="cls-21" x1="579.61" y1="780.4" x2="587.29" y2="780.4"/><polyline class="cls-21" points="580.69 775.96 587.29 775.96 587.29 779.92 579.73 779.92"/><line class="cls-21" x1="587.29" y1="779.56" x2="579.85" y2="779.56"/><line class="cls-21" x1="580.57" y1="776.32" x2="587.29" y2="776.32"/><line class="cls-21" x1="580.33" y1="777.76" x2="585.25" y2="777.76"/><line class="cls-21" x1="580.09" y1="778.72" x2="587.17" y2="778.72"/><line class="cls-21" x1="579.25" y1="781.36" x2="585.61" y2="781.36"/><line class="cls-21" x1="578.89" y1="782.56" x2="586.81" y2="782.56"/><line class="cls-21" x1="576.97" y1="784.96" x2="586.81" y2="784.96"/><line class="cls-21" x1="576.73" y1="785.32" x2="586.21" y2="785.32"/><line class="cls-21" x1="576.13" y1="786.04" x2="585.49" y2="786.04"/><line class="cls-21" x1="576.01" y1="786.4" x2="586.33" y2="786.4"/><line class="cls-21" x1="575.29" y1="787.24" x2="586.57" y2="787.24"/><line class="cls-21" x1="579.13" y1="781.84" x2="586.09" y2="781.84"/><polyline class="cls-21" points="566.29 763.36 566.29 758.92 568.57 758.92"/><polyline class="cls-21" points="574.93 758.92 587.29 758.92 587.29 787.96 566.29 787.96"/><polyline class="cls-21" points="566.29 763.36 566.29 755.08 568.81 755.08"/><polyline class="cls-21" points="574.69 755.08 587.29 755.08 587.29 787.6 574.81 787.6"/><polyline class="cls-21" points="576.37 785.68 575.89 786.64 574.57 787.84"/><polyline class="cls-21" points="568.21 788.08 567.85 787.24 567.25 785.68"/><polyline class="cls-21" points="259.21 625.48 376.57 625.48 376.57 628.48 259.33 628.48 259.21 625.48"/><line class="cls-21" x1="259.33" y1="628.48" x2="259.33" y2="868.24"/><line class="cls-21" x1="276.25" y1="628.36" x2="276.25" y2="870.52"/><polyline class="cls-21" points="259.21 868.12 260.89 868.12 263.41 868.6 265.45 868.48 269.29 869.32 272.41 870.04 274.93 870.76 276.37 870.52"/><line class="cls-21" x1="267.01" y1="628.48" x2="267.01" y2="868.84"/><polyline class="cls-21" points="286.21 627.88 286.21 878.08 283.09 877.24 280.69 877.24 278.65 877 276.61 877.6 273.61 877.24 273.61 870.28"/><polyline class="cls-21" points="296.05 628.48 296.05 872.44 294.97 872.44 294.37 871.96 291.13 871.36 288.85 872.44 287.29 873.04 286.69 872.44"/><polyline class="cls-21" points="276.25 870.64 276.25 870.76 276.01 870.88 275.17 871 274.69 871 274.21 870.76 273.61 870.4"/><polyline class="cls-21" points="306.97 628.84 306.97 870.04 304.21 870.52 302.53 869.68 300.49 869.56 298.93 869.68 297.61 871.96 296.17 872.08"/><polyline class="cls-21" points="312.01 629.44 312.01 875.92 306.97 875.32 306.49 874.72 304.81 872.56 304.81 870.4 305.17 870.4 305.53 870.4 305.89 870.28 306.37 870.28 306.73 870.28 306.97 870.04 306.97 869.92"/><polyline class="cls-21" points="314.77 628.36 314.77 875.68 314.05 875.44 313.21 875.68 313.21 874.96 312.73 875.68 312.37 875.68 312.01 875.56"/><polyline class="cls-21" points="263.65 625.48 264.01 625.48 264.01 628.48 263.65 628.48 263.65 625.48"/><polyline class="cls-21" points="271.93 625.48 272.29 625.48 272.29 628.48 271.93 628.48 271.93 625.48"/><polyline class="cls-21" points="276.49 625.48 276.85 625.48 276.85 628.48 276.49 628.48 276.49 625.48"/><polyline class="cls-21" points="280.33 625.48 280.69 625.48 280.69 628.48 280.33 628.48 280.33 625.48"/><polyline class="cls-21" points="268.69 625.48 269.05 625.48 269.05 628.48 268.69 628.48 268.69 625.48"/><polyline class="cls-21" points="285.25 625.48 285.61 625.48 285.61 628.48 285.25 628.48 285.25 625.48"/><polyline class="cls-21" points="289.81 625.48 290.17 625.48 290.17 628.48 289.81 628.48 289.81 625.48"/><polyline class="cls-21" points="293.53 625.48 293.89 625.48 293.89 628.48 293.53 628.48 293.53 625.48"/><polyline class="cls-21" points="297.01 625.48 297.37 625.48 297.37 628.48 297.01 628.48 297.01 625.48"/><polyline class="cls-21" points="301.33 625.48 301.69 625.48 301.69 628.48 301.33 628.48 301.33 625.48"/><polyline class="cls-21" points="307.45 625.48 307.81 625.48 307.81 628.48 307.45 628.48 307.45 625.48"/><polyline class="cls-21" points="311.53 625.48 311.89 625.48 311.89 628.48 311.53 628.48 311.53 625.48"/><polyline class="cls-21" points="314.05 625.48 314.41 625.48 314.41 628.48 314.05 628.48 314.05 625.48"/><polyline class="cls-23" points="844.93 982.84 844.93 685.84 952.81 685.84 952.81 928.12"/><line class="cls-23" x1="952.81" y1="954.04" x2="952.81" y2="954.52"/><line class="cls-23" x1="1202.53" y1="714.88" x2="1097.17" y2="714.88"/><line class="cls-23" x1="1047.85" y1="714.88" x2="1047.85" y2="928.12"/><line class="cls-23" x1="1103.05" y1="720.88" x2="1103.05" y2="926.44"/><line class="cls-23" x1="1158.37" y1="972.16" x2="1158.37" y2="720.88"/><line class="cls-23" x1="1202.53" y1="720.88" x2="1047.85" y2="720.88"/><line class="cls-23" x1="1047.85" y1="714.88" x2="1057.69" y2="714.88"/><line class="cls-23" x1="1085.05" y1="714.88" x2="1202.53" y2="714.88"/><polyline class="cls-23" points="1103.05 926.44 1103.05 720.88 1103.89 720.88 1103.89 926.56"/><polyline class="cls-23" points="1158.37 972.16 1158.37 720.88 1159.09 720.88 1159.09 972.16"/><line class="cls-23" x1="1061.53" y1="746.68" x2="1061.53" y2="927.76"/><line class="cls-23" x1="1089.37" y1="928.12" x2="1089.37" y2="746.68"/><line class="cls-23" x1="1117.57" y1="720.88" x2="1117.57" y2="927.52"/><line class="cls-23" x1="1172.89" y1="720.88" x2="1172.89" y2="972.16"/><line class="cls-23" x1="1061.53" y1="927.76" x2="1061.53" y2="720.88"/><line class="cls-23" x1="1089.37" y1="720.88" x2="1089.37" y2="928.12"/><polyline class="cls-23" points="1117.57 927.52 1117.57 740.92 1145.41 740.92 1145.41 948.4 1131.73 948.4"/><polyline class="cls-23" points="1172.89 740.92 1200.61 740.92 1200.61 948.4 1172.89 948.4 1172.89 740.92"/><line class="cls-23" x1="1145.41" y1="720.88" x2="1145.41" y2="972.16"/><line class="cls-23" x1="1131.73" y1="972.16" x2="1213.69" y2="972.16"/><polyline class="cls-23" points="1096.21 835 1099.45 835 1099.45 858.28 1096.21 858.28 1096.21 835"/><polyline class="cls-23" points="1107.49 835 1110.73 835 1110.73 858.28 1107.49 858.28 1107.49 835"/><polyline class="cls-23" points="1163.53 835 1166.77 835 1166.77 858.28 1163.53 858.28 1163.53 835"/><line class="cls-21" x1="1138.81" y1="752.2" x2="1128.01" y2="766.72"/><line class="cls-21" x1="1140.61" y1="799.24" x2="1129.81" y2="813.76"/><line class="cls-21" x1="1140.61" y1="816.16" x2="1129.81" y2="830.56"/><line class="cls-21" x1="1140.01" y1="880" x2="1129.21" y2="894.52"/><line class="cls-21" x1="1137.61" y1="894.52" x2="1126.81" y2="909.04"/><line class="cls-21" x1="1137.61" y1="764.32" x2="1126.81" y2="778.72"/><polyline class="cls-23" points="1047.85 928.12 1047.85 906.28 991.09 906.28 991.09 928.48"/><polyline class="cls-23" points="991.09 906.28 991.09 909.16 991.09 906.28 1047.85 906.28 1047.85 909.16 991.09 909.16 991.09 906.28"/><polyline class="cls-23" points="991.09 909.16 1047.85 909.16 1047.85 912.04 991.09 912.04 991.09 909.16"/><line class="cls-22" x1="844.93" y1="983.56" x2="844.93" y2="685.84"/><polyline class="cls-23" points="952.81 685.84 844.93 685.84 844.93 982.84"/><line class="cls-23" x1="939.49" y1="839.56" x2="939.49" y2="928.6"/><polyline class="cls-23" points="882.25 967.96 859.09 967.96 859.09 700 939.49 700 939.49 837.4"/><line class="cls-23" x1="932.29" y1="839.56" x2="932.29" y2="928.36"/><polyline class="cls-23" points="882.25 960.88 866.17 960.88 866.17 707.08 932.29 707.08 932.29 837.4"/><polyline class="cls-21" points="943.33 837.4 943.33 835.72 947.89 835.72 947.89 850.12 943.33 850.12 943.33 839.56"/><polyline class="cls-21" points="943.57 837.4 943.57 835.96 947.77 835.96 947.77 849.76 943.57 849.76 943.57 839.56"/><path class="cls-21" d="M945.91,845.37a.72.72,0,0,0,.39-.94l0-.06a.74.74,0,0,0-1-.37h0a.73.73,0,0,0-.38,1l0,0a.68.68,0,0,0,.27.31"/><line class="cls-21" x1="945.25" y1="847.6" x2="945.25" y2="845.32"/><path class="cls-21" d="M929.17,837.4a1.08,1.08,0,1,0,0,2.16h0"/><line class="cls-21" x1="945.85" y1="845.44" x2="945.85" y2="847.6"/><path class="cls-21" d="M945.37,847.6a.24.24,0,0,0,.48,0h0"/><path class="cls-21" d="M944.89,839.56a1.08,1.08,0,1,0,0-2.16h0"/><path class="cls-21" d="M944.4,839.57a1.8,1.8,0,1,0-.12-2.54h0a2.43,2.43,0,0,0-.24.32"/><line class="cls-21" x1="944.89" y1="837.4" x2="929.05" y2="837.4"/><line class="cls-21" x1="928.93" y1="839.56" x2="944.89" y2="839.56"/><polyline class="cls-23" points="991.21 885.16 991.21 882.28 1046.29 882.28 1046.29 885.16 991.21 885.16"/><polyline class="cls-21" points="1043.77 733.72 993.97 733.72 993.97 845.56 1043.77 845.56 1043.77 733.72"/><polyline class="cls-21" points="1041.37 736.12 996.25 736.12 996.25 843.16 1041.49 843.16 1041.37 736.12"/><line class="cls-21" x1="1001.89" y1="761.56" x2="1017.97" y2="746.2"/><line class="cls-21" x1="1004.17" y1="782.68" x2="1032.13" y2="754.36"/><line class="cls-21" x1="1006.93" y1="809.56" x2="1035.37" y2="781.12"/><line class="cls-21" x1="1010.77" y1="828.16" x2="1035.61" y2="804.16"/><polyline class="cls-21" points="995.17 879.28 995.53 881.08 996.13 881.92 997.09 882.28 1006.21 882.28 1007.05 881.92 1007.53 881.56 1008.13 880.84 1008.37 879.88 1008.37 879.28 995.29 879.28"/><polyline class="cls-21" points="1014.01 873.4 1019.89 873.4 1019.89 882.28 1014.01 882.28 1014.01 873.4"/><polyline class="cls-21" points="1014.37 873.76 1019.53 873.76 1019.53 881.92 1014.37 881.92 1014.37 873.76"/><polyline class="cls-21" points="1021.33 877 1024.81 877 1024.81 882.28 1021.33 882.28 1021.33 877"/><polyline class="cls-21" points="1021.45 877.24 1024.57 877.24 1024.57 882.04 1021.45 882.04 1021.45 877.24"/><polyline class="cls-21" points="1016.41 880.6 1015.81 879.76 1015.33 879.04 1015.45 877.48"/><polyline class="cls-21" points="1018.81 878.56 1017.73 876.88 1016.17 875.68"/><polyline class="cls-21" points="1023.25 880.72 1022.77 880 1023.49 879.4"/><polyline class="cls-21" points="1023.97 879.16 1023.37 878.56 1022.41 878.08"/><polyline class="cls-21" points="1033.93 863.92 1041.25 863.92 1041.49 870.04 1041.13 874.12"/><polyline class="cls-21" points="1031.05 869.44 1031.29 864.52 1031.29 863.92 1033.93 863.92"/><line class="cls-21" x1="1037.77" y1="882.28" x2="1038.37" y2="881.68"/><polyline class="cls-21" points="1038.25 881.56 1039.09 879.88 1039.93 878.08 1040.77 875.68 1041.13 874.12"/><polyline class="cls-21" points="1031.05 869.44 1031.05 871 1031.41 873.04 1031.77 875.56 1032.25 878.68 1033.81 882.4"/><polyline class="cls-21" points="1036.09 863.68 1035.01 860.68 1030.57 854.2 1027.33 848.44 1017.01 845.44 1017.01 845.32 1017.25 845.32 1017.13 845.56 1016.89 845.32 1017.13 845.44 1016.89 845.44 1017.49 844.48 1017.49 842.68 1017.25 844 1017.49 844.48 1017.13 844.72 1017.13 845.44 1015.33 845.92 1015.33 845.32 1015.93 845.68 1015.21 845.92 1015.57 845.44 1016.89 845.56 1017.13 846.4 1017.97 846.76 1018.69 846.28 1017.01 846.28 1017.01 846.88 1018.69 847 1016.89 845.56"/><polyline class="cls-21" points="1023.37 847.48 1019.89 849.16 1020.25 848.44 1020.73 849.88 1019.77 849.52 1020.37 849.16 1015.09 850.48 1016.77 849.04 1017.49 851.2 1020.49 849.64 1025.41 850.72 1024.57 850.12 1020.13 850.24 1019.89 848.08 1020.13 842.44 1023.25 844 1019.89 847.48 1020.13 848.56 1020.01 844.84 1021.09 844.84 1020.13 843.04"/><polyline class="cls-21" points="1036.09 863.8 1033.09 858.28 1032.49 852.16 1032.25 843.88 1030.21 843.28 1030.33 842.68 1030.93 843.04 1030.33 843.64 1030.21 842.92 1030.81 843.16 1029.73 843.28 1023.25 840.28 1025.41 839.92 1025.41 841.72 1025.05 841 1024.33 840.16 1027.45 842.32 1031.17 842.92 1030.21 840.52 1027.21 839.68 1031.29 840.4 1029.85 841.48 1029.61 839.2 1030.45 843.64 1028.29 844.84 1026.01 845.8 1026.01 844.6 1029.73 846.28 1026.61 845.32 1028.17 845.56 1027.21 844.84 1029.25 844.84 1028.29 845.2 1029.01 843.88"/><polyline class="cls-21" points="1036.81 863.8 1038.25 857.08 1040.77 849.64 1039.33 847 1040.65 847.72 1039.45 847.6 1040.89 846.64 1038.85 847.24 1041.25 841.96 1044.37 845.68 1041.25 844.84 1043.77 844.24 1038.97 844.12 1039.21 848.56 1033.57 846.16 1036.45 845.08 1036.81 846.64 1034.77 846.76 1041.85 846.76 1035.97 851.68 1038.73 847.24"/><polyline class="cls-21" points="1036.69 863.68 1045.21 854.56 1046.17 848.08 1045.09 849.64 1046.65 848.68 1045.33 847.72 1046.77 850.48 1044.97 849.88 1046.53 847.6 1047.01 849.04 1045.69 850.72 1046.89 846.4 1047.85 843.52"/><polyline class="cls-21" points="1047.85 839.68 1046.53 840.52 1047.85 843.52"/><polyline class="cls-21" points="1047.85 847.24 1044.61 850 1039.93 851.68 1044.13 852.28 1046.41 848.8"/><polyline class="cls-21" points="1000.33 733.72 1000.93 733.72 1000.93 732.64 1000.33 732.64 1000.33 733.72"/><polyline class="cls-21" points="1036.93 733.72 1037.53 733.72 1037.53 732.64 1036.93 732.64 1036.93 733.72"/><line class="cls-21" x1="888.01" y1="935.8" x2="889.21" y2="934.48"/><line class="cls-21" x1="889.33" y1="934.48" x2="892.33" y2="931.36"/><polyline class="cls-21" points="888.01 937.96 891.49 934.48 894.61 931.36"/><polyline class="cls-21" points="888.01 940.24 893.77 934.48 894.61 933.64"/><line class="cls-21" x1="888.01" y1="942.52" x2="894.61" y2="935.92"/><line class="cls-21" x1="888.01" y1="944.8" x2="894.61" y2="938.2"/><line class="cls-21" x1="888.01" y1="947.08" x2="894.61" y2="940.36"/><line class="cls-21" x1="888.01" y1="949.24" x2="894.61" y2="942.64"/><line class="cls-21" x1="888.01" y1="951.52" x2="894.61" y2="944.92"/><line class="cls-21" x1="888.01" y1="953.8" x2="894.61" y2="947.2"/><line class="cls-21" x1="889.93" y1="954.04" x2="894.61" y2="949.36"/><line class="cls-21" x1="892.21" y1="954.04" x2="894.61" y2="951.64"/><line class="cls-21" x1="894.49" y1="954.04" x2="894.61" y2="953.92"/><polyline class="cls-23" points="894.61 934.48 894.61 954.04 888.01 954.04 888.01 934.48 894.61 934.48"/><line class="cls-21" x1="1119.49" y1="932.68" x2="1120.21" y2="931.96"/><polyline class="cls-21" points="1119.49 934.96 1119.97 934.48 1122.49 931.96"/><polyline class="cls-21" points="1119.49 937.24 1122.25 934.48 1124.65 931.96"/><polyline class="cls-21" points="1119.49 939.4 1124.53 934.48 1126.81 932.08"/><line class="cls-21" x1="1119.49" y1="941.68" x2="1126.09" y2="935.08"/><line class="cls-21" x1="1126.81" y1="934.48" x2="1128.37" y2="932.8"/><line class="cls-21" x1="1119.49" y1="943.96" x2="1126.09" y2="937.36"/><line class="cls-21" x1="1128.97" y1="934.48" x2="1129.93" y2="933.52"/><line class="cls-21" x1="1119.49" y1="946.24" x2="1126.09" y2="939.52"/><line class="cls-21" x1="1131.25" y1="934.48" x2="1131.37" y2="934.24"/><line class="cls-21" x1="1119.49" y1="948.52" x2="1126.09" y2="941.8"/><line class="cls-21" x1="1119.49" y1="950.68" x2="1126.09" y2="944.08"/><line class="cls-21" x1="1119.49" y1="952.96" x2="1126.09" y2="946.36"/><line class="cls-21" x1="1120.69" y1="954.04" x2="1126.09" y2="948.64"/><line class="cls-21" x1="1122.97" y1="954.04" x2="1126.09" y2="950.8"/><line class="cls-21" x1="1125.25" y1="954.04" x2="1126.09" y2="953.08"/><polyline class="cls-23" points="1119.49 934.48 1119.49 954.04 1126.09 954.04 1126.09 934.48 1119.49 934.48"/><polyline class="cls-23" points="1131.73 934.48 1131.73 982.84 882.25 982.84 882.25 935.92"/><path class="cls-22" d="M1011.75,954.89h0"/><line class="cls-23" x1="888.01" y1="954.04" x2="1011.85" y2="954.88"/><line class="cls-23" x1="888.01" y1="956.8" x2="1009.45" y2="956.92"/><line class="cls-23" x1="1126.09" y1="954.04" x2="1011.85" y2="954.88"/><polyline class="cls-23" points="1009.45 956.92 1126.09 956.8 1126.09 954.04"/><line class="cls-23" x1="888.01" y1="954.04" x2="888.01" y2="956.8"/><polyline class="cls-23" points="894.61 930.52 894.61 954.04 1119.49 954.04 1119.49 931.96"/><line class="cls-23" x1="894.61" y1="934.48" x2="886.33" y2="934.48"/><polyline class="cls-23" points="1119.49 934.48 1131.73 934.48 1119.49 934.48"/><polyline class="cls-23" points="886.57 928.12 901.21 928.12 906.49 928.12 913.21 928.72 926.77 928.12 938.05 928.72 946.69 928.12 966.01 928.36 980.65 927.4 988.57 928.72 1001.53 927.76 1020.85 928.12 1035.73 927.76 1055.05 928.36 1069.33 927.04 1086.85 928.36 1102.09 926.44 1124.65 928.12 1134.61 929.44 1137.97 935.32 1134.37 935.68 1126.69 932.08 1107.13 931.72 1088.17 931 1058.29 931 1041.73 931.36 1025.77 931.36 1012.81 931 999.61 932.08 977.53 930.76 959.29 930.4 944.41 930.76 934.09 931 914.77 930.04 903.25 931.36 892.57 930.4 885.97 934.72 878.05 937.36"/><line class="cls-21" x1="134.29" y1="502.72" x2="134.29" y2="545.08"/><line class="cls-21" x1="134.29" y1="563.08" x2="134.29" y2="563.08"/><rect x="134.29" y="562.96" width="0.12" height="0.12"/><line class="cls-21" x1="134.29" y1="581.08" x2="134.29" y2="617.08"/><line class="cls-21" x1="134.29" y1="635.08" x2="134.29" y2="635.08"/><rect x="134.29" y="634.96" width="0.12" height="0.12"/><line class="cls-21" x1="134.29" y1="653.2" x2="134.29" y2="689.2"/><line class="cls-21" x1="134.29" y1="707.2" x2="134.29" y2="707.2"/><rect x="134.29" y="707.08" width="0.12" height="0.12"/><line class="cls-21" x1="134.29" y1="725.2" x2="134.29" y2="761.2"/><line class="cls-21" x1="134.29" y1="779.2" x2="134.29" y2="779.2"/><rect x="134.29" y="779.08" width="0.12" height="0.12"/><line class="cls-21" x1="134.29" y1="797.2" x2="134.29" y2="833.2"/><line class="cls-21" x1="134.29" y1="851.2" x2="134.29" y2="851.2"/><rect x="134.29" y="851.08" width="0.12" height="0.12"/><line class="cls-21" x1="134.29" y1="869.2" x2="134.29" y2="905.2"/><line class="cls-21" x1="134.29" y1="923.2" x2="134.29" y2="923.2"/><rect x="134.29" y="923.08" width="0.12" height="0.12"/><line class="cls-21" x1="134.29" y1="941.2" x2="134.29" y2="977.2"/><line class="cls-21" x1="134.29" y1="995.2" x2="134.29" y2="995.2"/><rect x="134.29" y="995.08" width="0.12" height="0.12"/><line class="cls-21" x1="134.29" y1="1013.2" x2="134.29" y2="1055.68"/><line class="cls-21" x1="599.17" y1="502.72" x2="599.17" y2="545.08"/><line class="cls-21" x1="599.17" y1="563.08" x2="599.17" y2="563.08"/><rect x="599.17" y="562.96" width="0.12" height="0.12"/><line class="cls-21" x1="599.17" y1="581.08" x2="599.17" y2="617.08"/><line class="cls-21" x1="599.17" y1="635.08" x2="599.17" y2="635.08"/><rect x="599.17" y="634.96" width="0.12" height="0.12"/><line class="cls-21" x1="599.17" y1="653.2" x2="599.17" y2="689.2"/><line class="cls-21" x1="599.17" y1="707.2" x2="599.17" y2="707.2"/><rect x="599.17" y="707.08" width="0.12" height="0.12"/><line class="cls-21" x1="599.17" y1="725.2" x2="599.17" y2="761.2"/><line class="cls-21" x1="599.17" y1="779.2" x2="599.17" y2="779.2"/><rect x="599.17" y="779.08" width="0.12" height="0.12"/><line class="cls-21" x1="599.17" y1="797.2" x2="599.17" y2="833.2"/><line class="cls-21" x1="599.17" y1="851.2" x2="599.17" y2="851.2"/><rect x="599.17" y="851.08" width="0.12" height="0.12"/><line class="cls-21" x1="599.17" y1="869.2" x2="599.17" y2="905.2"/><line class="cls-21" x1="599.17" y1="923.2" x2="599.17" y2="923.2"/><rect x="599.17" y="923.08" width="0.12" height="0.12"/><line class="cls-21" x1="599.17" y1="941.2" x2="599.17" y2="977.2"/><line class="cls-21" x1="599.17" y1="995.2" x2="599.17" y2="995.2"/><rect x="599.17" y="995.08" width="0.12" height="0.12"/><line class="cls-21" x1="599.17" y1="1013.2" x2="599.17" y2="1055.68"/><line class="cls-21" x1="839.29" y1="502.72" x2="839.29" y2="545.08"/><line class="cls-21" x1="839.29" y1="563.08" x2="839.29" y2="563.08"/><rect x="839.29" y="562.96" width="0.12" height="0.12"/><line class="cls-21" x1="839.29" y1="581.08" x2="839.29" y2="617.08"/><line class="cls-21" x1="839.29" y1="635.08" x2="839.29" y2="635.08"/><rect x="839.29" y="634.96" width="0.12" height="0.12"/><line class="cls-21" x1="839.29" y1="653.2" x2="839.29" y2="689.2"/><line class="cls-21" x1="839.29" y1="707.2" x2="839.29" y2="707.2"/><rect x="839.29" y="707.08" width="0.12" height="0.12"/><line class="cls-21" x1="839.29" y1="725.2" x2="839.29" y2="761.2"/><line class="cls-21" x1="839.29" y1="779.2" x2="839.29" y2="779.2"/><rect x="839.29" y="779.08" width="0.12" height="0.12"/><line class="cls-21" x1="839.29" y1="797.2" x2="839.29" y2="833.2"/><line class="cls-21" x1="839.29" y1="851.2" x2="839.29" y2="851.2"/><rect x="839.29" y="851.08" width="0.12" height="0.12"/><line class="cls-21" x1="839.29" y1="869.2" x2="839.29" y2="905.2"/><line class="cls-21" x1="839.29" y1="923.2" x2="839.29" y2="923.2"/><rect x="839.29" y="923.08" width="0.12" height="0.12"/><line class="cls-21" x1="839.29" y1="941.2" x2="839.29" y2="977.2"/><line class="cls-21" x1="839.29" y1="995.2" x2="839.29" y2="995.2"/><rect x="839.29" y="995.08" width="0.12" height="0.12"/><line class="cls-21" x1="839.29" y1="1013.2" x2="839.29" y2="1055.68"/><text class="cls-25" transform="translate(128.17 1166.56)">SEZIONE DD&apos;</text><text class="cls-25" transform="translate(832.09 1166.56)">SEZIONE BB&apos;</text><circle class="cls-24" cx="599.89" cy="1092.28" r="14.28"/><text class="cls-26" transform="translate(594.61 1098.04)">1</text><circle class="cls-24" cx="136.97" cy="1089.85" r="14.28" transform="translate(-552.55 234.81) rotate(-31.72)"/><text class="cls-26" transform="translate(133.21 1095.64)">2</text><circle class="cls-24" cx="842.05" cy="1089.64" r="14.28"/><text class="cls-26" transform="translate(836.53 1095.28)">B</text><polyline class="cls-23" points="878.05 937.36 878.41 935.2 879.37 932.92 880.81 931.36 882.01 929.32 884.41 928 886.57 928.12"/><line class="cls-21" x1="844.93" y1="982.84" x2="1213.69" y2="982.84"/><polyline class="cls-21" points="904.69 984.28 904.69 982.84 904.69 984.28"/><line class="cls-21" x1="1083.25" y1="984.28" x2="1083.25" y2="982.84"/><line class="cls-21" x1="1113.01" y1="982.84" x2="1113.01" y2="984.28"/><line class="cls-21" x1="587.29" y1="972.88" x2="584.77" y2="972.88"/><line class="cls-21" x1="578.53" y1="972.88" x2="544.09" y2="972.88"/><line class="cls-21" x1="540.85" y1="972.88" x2="294.97" y2="972.88"/><line class="cls-21" x1="288.61" y1="972.88" x2="235.21" y2="972.88"/><line class="cls-21" x1="217.33" y1="982.84" x2="288.61" y2="982.84"/><line class="cls-21" x1="294.97" y1="982.84" x2="540.85" y2="982.84"/><line class="cls-21" x1="543.73" y1="982.84" x2="578.41" y2="982.84"/><line class="cls-21" x1="584.77" y1="982.84" x2="587.29" y2="982.84"/><line class="cls-21" x1="223.93" y1="982.84" x2="223.93" y2="984.28"/><line class="cls-21" x1="301.45" y1="982.84" x2="301.45" y2="984.28"/><line class="cls-21" x1="378.97" y1="982.84" x2="378.97" y2="984.28"/><line class="cls-21" x1="456.49" y1="982.84" x2="456.49" y2="984.28"/><line class="cls-21" x1="533.89" y1="982.84" x2="533.89" y2="984.28"/><line class="cls-21" x1="550.69" y1="867.16" x2="550.69" y2="851.2"/><line class="cls-21" x1="550.69" y1="832.84" x2="550.69" y2="832.84"/><rect x="550.69" y="832.72" width="0.12" height="0.12"/><polyline class="cls-21" points="541.81 851.2 560.29 851.2 560.29 832.84 541.81 832.84 541.81 851.2"/><polyline class="cls-21" points="550.69 874.72 550.69 851.2 551.89 851.2 551.89 874.72"/><polyline class="cls-21" points="542.65 875.08 548.41 875.08 548.41 869.8 542.65 869.8 542.65 875.08"/><polyline class="cls-21" points="548.41 874.72 553.57 874.72 553.57 875.08"/><line class="cls-21" x1="860.17" y1="982.84" x2="860.17" y2="984.28"/><line class="cls-21" x1="875.05" y1="982.84" x2="875.05" y2="984.28"/><line class="cls-21" x1="860.17" y1="984.28" x2="860.17" y2="982.84"/><line class="cls-21" x1="889.93" y1="982.84" x2="889.93" y2="984.28"/><line class="cls-21" x1="875.05" y1="984.28" x2="875.05" y2="982.84"/><line class="cls-21" x1="904.81" y1="982.84" x2="904.81" y2="984.28"/><line class="cls-21" x1="889.93" y1="984.28" x2="889.93" y2="982.84"/><line class="cls-21" x1="919.69" y1="982.84" x2="919.69" y2="984.28"/><line class="cls-21" x1="904.81" y1="984.28" x2="904.81" y2="982.84"/><line class="cls-21" x1="934.57" y1="982.84" x2="934.57" y2="984.28"/><line class="cls-21" x1="949.45" y1="982.84" x2="949.45" y2="984.28"/><line class="cls-21" x1="964.33" y1="982.84" x2="964.33" y2="984.28"/><line class="cls-21" x1="979.21" y1="982.84" x2="979.21" y2="984.28"/><line class="cls-21" x1="994.09" y1="982.84" x2="994.09" y2="984.28"/><line class="cls-21" x1="1008.97" y1="982.84" x2="1008.97" y2="984.28"/><line class="cls-21" x1="1023.85" y1="982.84" x2="1023.85" y2="984.28"/><line class="cls-21" x1="1038.73" y1="982.84" x2="1038.73" y2="984.28"/><line class="cls-21" x1="1053.61" y1="982.84" x2="1053.61" y2="984.28"/><line class="cls-21" x1="1068.49" y1="982.84" x2="1068.49" y2="984.28"/><line class="cls-21" x1="1083.37" y1="982.84" x2="1083.37" y2="984.28"/><line class="cls-21" x1="1098.25" y1="982.84" x2="1098.25" y2="984.28"/><line class="cls-21" x1="1113.13" y1="982.84" x2="1113.13" y2="984.28"/><line class="cls-21" x1="1128.01" y1="982.84" x2="1128.01" y2="984.28"/><line class="cls-21" x1="1142.89" y1="982.84" x2="1142.89" y2="984.28"/><line class="cls-21" x1="1157.77" y1="982.84" x2="1157.77" y2="984.28"/><line class="cls-21" x1="1172.65" y1="982.84" x2="1172.65" y2="984.28"/><line class="cls-21" x1="1187.53" y1="982.84" x2="1187.53" y2="984.28"/><line class="cls-22" x1="103.57" y1="638.68" x2="103.57" y2="616.24"/><line class="cls-22" x1="103.57" y1="598.24" x2="103.57" y2="598.24"/><line class="cls-22" x1="103.57" y1="580.12" x2="103.57" y2="557.68"/><line class="cls-22" x1="103.57" y1="1035.28" x2="103.57" y2="1012.72"/><line class="cls-22" x1="103.57" y1="994.72" x2="103.57" y2="994.72"/><line class="cls-22" x1="103.57" y1="976.72" x2="103.57" y2="954.16"/><line class="cls-22" x1="93.49" y1="999.16" x2="133.57" y2="999.16"/><line class="cls-22" x1="151.57" y1="999.16" x2="151.57" y2="999.16"/><line class="cls-22" x1="169.57" y1="999.16" x2="205.57" y2="999.16"/><line class="cls-22" x1="223.57" y1="999.16" x2="223.57" y2="999.16"/><line class="cls-22" x1="241.57" y1="999.16" x2="277.57" y2="999.16"/><line class="cls-22" x1="295.57" y1="999.16" x2="295.57" y2="999.16"/><line class="cls-22" x1="313.57" y1="999.16" x2="349.57" y2="999.16"/><line class="cls-22" x1="367.57" y1="999.16" x2="367.57" y2="999.16"/><line class="cls-22" x1="385.57" y1="999.16" x2="421.57" y2="999.16"/><line class="cls-22" x1="439.57" y1="999.16" x2="439.57" y2="999.16"/><line class="cls-22" x1="457.57" y1="999.16" x2="493.57" y2="999.16"/><line class="cls-22" x1="511.57" y1="999.16" x2="511.57" y2="999.16"/><line class="cls-22" x1="529.57" y1="999.16" x2="565.57" y2="999.16"/><line class="cls-22" x1="583.69" y1="999.16" x2="583.69" y2="999.16"/><line class="cls-22" x1="601.69" y1="999.16" x2="641.65" y2="999.16"/><polyline class="cls-23" points="387.13 611.8 387.13 616.12 370.93 616.12 370.93 611.8"/><line class="cls-23" x1="378.73" y1="661.36" x2="378.73" y2="661.36"/><polyline class="cls-23" points="378.73 654.52 378.73 616.12 380.05 616.12 380.05 654.52"/><circle class="cls-23" cx="380.52" cy="689.69" r="28.32"/><line class="cls-23" x1="378.73" y1="661.36" x2="378.73" y2="661.36"/><polyline class="cls-23" points="381.01 661.36 378.01 661.36 378.01 654.52 381.01 654.52 381.01 661.36"/><line class="cls-23" x1="370.57" y1="663.16" x2="390.49" y2="663.16"/><polyline class="cls-23" points="1077.97 612.16 1077.97 616.48 1061.77 616.48 1061.77 612.16"/><line class="cls-23" x1="1069.57" y1="661.72" x2="1069.57" y2="661.72"/><polyline class="cls-23" points="1069.57 654.88 1069.57 616.48 1070.89 616.48 1070.89 654.88"/><circle class="cls-23" cx="1071.32" cy="690.14" r="28.32" transform="translate(-62.74 108.83) rotate(-5.65)"/><line class="cls-23" x1="1069.57" y1="661.72" x2="1069.57" y2="661.72"/><polyline class="cls-23" points="1071.85 661.72 1068.85 661.72 1068.85 654.88 1071.85 654.88 1071.85 661.72"/><line class="cls-23" x1="1061.41" y1="663.52" x2="1081.33" y2="663.52"/><line class="cls-21" x1="818.89" y1="612.28" x2="820.33" y2="610.96"/><line class="cls-21" x1="818.89" y1="622.36" x2="831.25" y2="610"/><line class="cls-21" x1="819.01" y1="632.2" x2="842.29" y2="608.92"/><line class="cls-21" x1="829.93" y1="631.36" x2="853.33" y2="607.96"/><line class="cls-21" x1="831.61" y1="639.76" x2="864.25" y2="607"/><line class="cls-21" x1="831.61" y1="649.72" x2="844.93" y2="636.4"/><line class="cls-21" x1="851.77" y1="629.56" x2="875.29" y2="606.04"/><line class="cls-21" x1="831.61" y1="659.8" x2="844.93" y2="646.36"/><line class="cls-21" x1="862.69" y1="628.6" x2="886.33" y2="605.08"/><line class="cls-21" x1="831.61" y1="669.76" x2="844.93" y2="656.44"/><line class="cls-21" x1="873.61" y1="627.76" x2="897.25" y2="604.12"/><line class="cls-21" x1="831.61" y1="679.84" x2="844.93" y2="666.4"/><line class="cls-21" x1="884.53" y1="626.8" x2="908.29" y2="603.16"/><line class="cls-21" x1="831.61" y1="689.92" x2="844.93" y2="676.48"/><line class="cls-21" x1="895.45" y1="625.84" x2="919.33" y2="602.08"/><line class="cls-21" x1="831.61" y1="699.88" x2="844.93" y2="686.56"/><line class="cls-21" x1="906.49" y1="625" x2="930.25" y2="601.12"/><line class="cls-21" x1="831.61" y1="709.96" x2="844.93" y2="696.52"/><line class="cls-21" x1="917.41" y1="624.04" x2="941.29" y2="600.16"/><line class="cls-21" x1="831.61" y1="719.92" x2="844.93" y2="706.6"/><line class="cls-21" x1="928.33" y1="623.2" x2="952.33" y2="599.2"/><line class="cls-21" x1="831.61" y1="730" x2="844.93" y2="716.56"/><line class="cls-21" x1="939.25" y1="622.24" x2="963.25" y2="598.24"/><line class="cls-21" x1="831.61" y1="739.96" x2="844.93" y2="726.64"/><line class="cls-21" x1="950.17" y1="621.4" x2="974.29" y2="597.28"/><line class="cls-21" x1="831.61" y1="750.04" x2="844.93" y2="736.6"/><line class="cls-21" x1="961.09" y1="620.44" x2="985.33" y2="596.2"/><line class="cls-21" x1="831.61" y1="760" x2="844.93" y2="746.68"/><line class="cls-21" x1="972.01" y1="619.6" x2="996.25" y2="595.24"/><line class="cls-21" x1="831.61" y1="770.08" x2="844.93" y2="756.64"/><line class="cls-21" x1="982.93" y1="618.64" x2="1007.29" y2="594.28"/><line class="cls-21" x1="831.61" y1="780.04" x2="844.93" y2="766.72"/><line class="cls-21" x1="993.85" y1="617.8" x2="1018.33" y2="593.32"/><line class="cls-21" x1="831.61" y1="790.12" x2="844.93" y2="776.68"/><line class="cls-21" x1="1004.77" y1="616.84" x2="1029.25" y2="592.36"/><line class="cls-21" x1="831.61" y1="800.08" x2="844.93" y2="786.76"/><line class="cls-21" x1="1015.69" y1="616" x2="1040.29" y2="591.4"/><line class="cls-21" x1="831.61" y1="810.16" x2="844.93" y2="796.72"/><line class="cls-21" x1="1026.61" y1="615.04" x2="1051.33" y2="590.44"/><line class="cls-21" x1="831.61" y1="820.12" x2="844.93" y2="806.8"/><line class="cls-21" x1="1037.53" y1="614.2" x2="1062.25" y2="589.36"/><line class="cls-21" x1="831.61" y1="830.2" x2="844.93" y2="816.76"/><line class="cls-21" x1="1048.45" y1="613.24" x2="1072.69" y2="589"/><line class="cls-21" x1="831.61" y1="840.16" x2="844.93" y2="826.84"/><line class="cls-21" x1="1059.37" y1="612.4" x2="1082.65" y2="589"/><line class="cls-21" x1="831.61" y1="850.24" x2="844.93" y2="836.8"/><line class="cls-21" x1="1069.93" y1="611.8" x2="1092.73" y2="589"/><line class="cls-21" x1="831.61" y1="860.32" x2="844.93" y2="846.88"/><line class="cls-21" x1="1080.01" y1="611.8" x2="1102.69" y2="589.12"/><line class="cls-21" x1="831.61" y1="870.28" x2="844.93" y2="856.96"/><line class="cls-21" x1="1089.97" y1="611.8" x2="1112.77" y2="589.12"/><line class="cls-21" x1="831.61" y1="880.36" x2="844.93" y2="866.92"/><line class="cls-21" x1="1100.05" y1="611.8" x2="1122.73" y2="589.12"/><line class="cls-21" x1="831.61" y1="890.32" x2="844.93" y2="877"/><line class="cls-21" x1="1110.01" y1="611.8" x2="1132.69" y2="589.12"/><line class="cls-21" x1="831.61" y1="900.4" x2="844.93" y2="886.96"/><line class="cls-21" x1="1120.09" y1="611.8" x2="1142.77" y2="589.12"/><line class="cls-21" x1="831.61" y1="910.36" x2="844.93" y2="897.04"/><line class="cls-21" x1="1130.05" y1="611.8" x2="1152.73" y2="589.12"/><line class="cls-21" x1="831.61" y1="920.44" x2="844.93" y2="907"/><line class="cls-21" x1="1140.13" y1="611.8" x2="1162.69" y2="589.12"/><line class="cls-21" x1="831.61" y1="930.4" x2="844.93" y2="917.08"/><line class="cls-21" x1="1150.09" y1="611.8" x2="1172.77" y2="589.24"/><line class="cls-21" x1="831.61" y1="940.48" x2="844.93" y2="927.04"/><line class="cls-21" x1="1160.17" y1="611.8" x2="1182.73" y2="589.24"/><line class="cls-21" x1="831.61" y1="950.44" x2="844.93" y2="937.12"/><line class="cls-21" x1="1170.13" y1="611.8" x2="1192.81" y2="589.24"/><line class="cls-21" x1="831.61" y1="960.52" x2="844.93" y2="947.08"/><line class="cls-21" x1="1180.21" y1="611.8" x2="1202.77" y2="589.24"/><line class="cls-21" x1="831.61" y1="970.48" x2="844.93" y2="957.16"/><line class="cls-21" x1="1190.17" y1="611.8" x2="1212.73" y2="589.24"/><line class="cls-21" x1="818.89" y1="993.16" x2="827.89" y2="984.28"/><line class="cls-21" x1="831.61" y1="980.56" x2="844.93" y2="967.12"/><line class="cls-21" x1="820.93" y1="1001.2" x2="844.93" y2="977.2"/><line class="cls-21" x1="830.89" y1="1001.2" x2="847.93" y2="984.28"/><line class="cls-21" x1="840.97" y1="1001.2" x2="857.89" y2="984.28"/><line class="cls-21" x1="851.05" y1="1001.2" x2="867.97" y2="984.28"/><line class="cls-21" x1="861.01" y1="1001.2" x2="877.93" y2="984.28"/><line class="cls-21" x1="871.09" y1="1001.2" x2="888.01" y2="984.28"/><line class="cls-21" x1="881.05" y1="1001.2" x2="897.97" y2="984.28"/><line class="cls-21" x1="891.13" y1="1001.2" x2="908.05" y2="984.28"/><line class="cls-21" x1="901.09" y1="1001.2" x2="918.01" y2="984.28"/><line class="cls-21" x1="911.17" y1="1001.2" x2="928.09" y2="984.28"/><line class="cls-21" x1="921.13" y1="1001.2" x2="938.17" y2="984.28"/><line class="cls-21" x1="931.21" y1="1001.2" x2="948.13" y2="984.28"/><line class="cls-21" x1="941.17" y1="1001.2" x2="958.21" y2="984.28"/><line class="cls-21" x1="951.25" y1="1001.2" x2="968.17" y2="984.28"/><line class="cls-21" x1="961.21" y1="1001.2" x2="978.25" y2="984.28"/><line class="cls-21" x1="971.29" y1="1001.2" x2="988.21" y2="984.28"/><line class="cls-21" x1="981.25" y1="1001.2" x2="998.29" y2="984.28"/><line class="cls-21" x1="991.33" y1="1001.2" x2="1008.25" y2="984.28"/><line class="cls-21" x1="1001.29" y1="1001.2" x2="1018.33" y2="984.28"/><line class="cls-21" x1="1011.37" y1="1001.2" x2="1028.29" y2="984.28"/><line class="cls-21" x1="1021.33" y1="1001.2" x2="1038.37" y2="984.28"/><line class="cls-21" x1="1031.41" y1="1001.2" x2="1048.33" y2="984.28"/><line class="cls-21" x1="1041.37" y1="1001.2" x2="1058.41" y2="984.28"/><line class="cls-21" x1="1051.45" y1="1001.2" x2="1068.37" y2="984.28"/><line class="cls-21" x1="1061.41" y1="1001.2" x2="1078.45" y2="984.28"/><line class="cls-21" x1="1071.49" y1="1001.2" x2="1088.41" y2="984.28"/><line class="cls-21" x1="1081.45" y1="1001.2" x2="1098.49" y2="984.28"/><line class="cls-21" x1="1091.53" y1="1001.2" x2="1108.45" y2="984.28"/><line class="cls-21" x1="1101.61" y1="1001.2" x2="1118.53" y2="984.28"/><line class="cls-21" x1="1111.57" y1="1001.2" x2="1128.49" y2="984.28"/><line class="cls-21" x1="1121.65" y1="1001.2" x2="1138.57" y2="984.28"/><line class="cls-21" x1="1131.61" y1="1001.2" x2="1148.53" y2="984.28"/><line class="cls-21" x1="1141.69" y1="1001.2" x2="1158.61" y2="984.28"/><line class="cls-21" x1="1151.65" y1="1001.2" x2="1168.69" y2="984.28"/><line class="cls-21" x1="1161.73" y1="1001.2" x2="1178.65" y2="984.28"/><line class="cls-21" x1="1171.69" y1="1001.2" x2="1188.73" y2="984.28"/><line class="cls-21" x1="1181.77" y1="1001.2" x2="1198.69" y2="984.28"/><polyline class="cls-22" points="1236.13 628.6 1236.13 611.8 1256.89 611.8 1256.89 589.36 1066.93 589 818.89 611.08"/><line class="cls-22" x1="818.89" y1="580.24" x2="818.89" y2="645.64"/><polyline class="cls-22" points="818.89 632.2 831.61 631.12 831.61 984.28 818.89 984.28"/><line class="cls-22" x1="818.89" y1="971.68" x2="818.89" y2="1016.56"/><line class="cls-22" x1="795.25" y1="1001.2" x2="839.29" y2="1001.2"/><line class="cls-22" x1="857.29" y1="1001.2" x2="857.29" y2="1001.2"/><line class="cls-22" x1="875.29" y1="1001.2" x2="911.29" y2="1001.2"/><line class="cls-22" x1="929.29" y1="1001.2" x2="929.29" y2="1001.2"/><line class="cls-22" x1="947.29" y1="1001.2" x2="983.29" y2="1001.2"/><line class="cls-22" x1="1001.29" y1="1001.2" x2="1001.29" y2="1001.2"/><line class="cls-22" x1="1019.29" y1="1001.2" x2="1055.29" y2="1001.2"/><line class="cls-22" x1="1073.29" y1="1001.2" x2="1073.29" y2="1001.2"/><line class="cls-22" x1="1091.29" y1="1001.2" x2="1127.29" y2="1001.2"/><line class="cls-22" x1="1145.29" y1="1001.2" x2="1145.29" y2="1001.2"/><line class="cls-22" x1="1163.29" y1="1001.2" x2="1199.29" y2="1001.2"/><polyline class="cls-22" points="1236.13 1001.2 1236.13 849.52 1213.69 849.52 1213.69 984.28 844.93 984.28 844.93 630.04 1065.97 611.8 1213.69 611.8 1213.69 628.6 1236.13 628.6"/><line class="cls-24" x1="146.53" y1="1009.6" x2="146.53" y2="1039.6"/><line class="cls-24" x1="587.29" y1="1012.96" x2="587.29" y2="1039.6"/><line class="cls-24" x1="143.65" y1="1036.72" x2="590.17" y2="1036.72"/><line class="cls-24" x1="148.69" y1="1034.68" x2="144.37" y2="1038.88"/><line class="cls-24" x1="585.25" y1="1038.88" x2="589.45" y2="1034.68"/><text class="cls-27" transform="translate(360.37 1033.84)">310</text><line class="cls-24" x1="611.89" y1="589.36" x2="667.21" y2="589.36"/><line class="cls-24" x1="611.89" y1="999.04" x2="667.21" y2="999.04"/><line class="cls-24" x1="664.33" y1="586.6" x2="664.33" y2="1001.92"/><line class="cls-24" x1="666.49" y1="591.52" x2="662.29" y2="587.32"/><line class="cls-24" x1="662.29" y1="997" x2="666.49" y2="1001.2"/><text class="cls-27" transform="translate(667.33 787.72) rotate(90)">290</text><line class="cls-24" x1="611.89" y1="589.36" x2="643.57" y2="589.36"/><line class="cls-24" x1="611.89" y1="611.92" x2="643.57" y2="611.92"/><line class="cls-24" x1="640.69" y1="586.6" x2="640.69" y2="614.68"/><line class="cls-24" x1="642.85" y1="591.52" x2="638.53" y2="587.32"/><line class="cls-24" x1="638.53" y1="609.76" x2="642.85" y2="613.96"/><text class="cls-27" transform="translate(643.57 595.96) rotate(90)">15</text><line class="cls-24" x1="611.89" y1="611.92" x2="643.57" y2="611.92"/><line class="cls-24" x1="611.89" y1="984.28" x2="643.57" y2="984.28"/><line class="cls-24" x1="640.69" y1="609.04" x2="640.69" y2="987.04"/><line class="cls-24" x1="642.85" y1="613.96" x2="638.53" y2="609.76"/><line class="cls-24" x1="638.53" y1="982.12" x2="642.85" y2="986.32"/><text class="cls-27" transform="translate(643.57 791.56) rotate(90)">265</text><line class="cls-24" x1="802.33" y1="1003.96" x2="802.33" y2="1044.88"/><line class="cls-24" x1="1239.01" y1="1042" x2="799.45" y2="1042"/><line class="cls-24" x1="804.37" y1="1039.84" x2="800.17" y2="1044.16"/><text class="cls-27" transform="translate(1012.57 1039.12)">306</text><line class="cls-24" x1="844.93" y1="1006.12" x2="844.93" y2="1024.72"/><line class="cls-24" x1="1216.45" y1="1021.84" x2="842.17" y2="1021.84"/><line class="cls-24" x1="847.09" y1="1019.8" x2="842.89" y2="1024"/><text class="cls-27" transform="translate(1022.77 1018.96)">260</text><path d="M15,547.12l-7.08.6v-.6H15m0,.6v-.6l-7.08.6H15"/><path class="cls-28" d="M15,547.12l-7.08.6v-.6H15m0,.6v-.6l-7.08.6H15"/><text class="cls-29" transform="translate(7.21 479.08)">E</text><path d="M15.73,1397.8,14.29,267.64h1.44V1397.8m-1.44,0h1.44L14.29,267.64V1397.8"/><path class="cls-28" d="M15.73,1397.8,14.29,267.64h1.44V1397.8m-1.44,0h1.44L14.29,267.64V1397.8"/><path d="M7.93,972.88,15,972.4v.48H7.93m0-.48v.48L15,972.4H7.93"/><path class="cls-28" d="M7.93,972.88,15,972.4v.48H7.93m0-.48v.48L15,972.4H7.93"/><path d="M7.93,831.16l7.08-.48v.48H7.93m0-.48v.48l7.08-.48H7.93"/><path class="cls-28" d="M7.93,831.16l7.08-.48v.48H7.93m0-.48v.48l7.08-.48H7.93"/><path d="M7.93,689.44,15,689v.48H7.93m0-.48v.48L15,689H7.93"/><path class="cls-28" d="M7.93,689.44,15,689v.48H7.93m0-.48v.48L15,689H7.93"/><path d="M7.93,547.72l7.08-.6v.6H7.93m0-.6v.6l7.08-.6H7.93"/><path class="cls-28" d="M7.93,547.72l7.08-.6v.6H7.93m0-.6v.6l7.08-.6H7.93"/><path d="M7.93,406l7.08-.6v.6H7.93m0-.6v.6l7.08-.6H7.93"/><path class="cls-28" d="M7.93,406l7.08-.6v.6H7.93m0-.6v.6l7.08-.6H7.93"/><path d="M7.93,1114.6l7.08-.48v.48H7.93m0-.48v.48l7.08-.48H7.93"/><path class="cls-28" d="M7.93,1114.6l7.08-.48v.48H7.93m0-.48v.48l7.08-.48H7.93"/><text class="cls-29" transform="translate(6.97 1046.08)">F</text><text class="cls-29" transform="translate(6.85 904.36)">E</text><text class="cls-29" transform="translate(6.61 762.52)">D</text><text class="cls-29" transform="translate(6.73 620.8)">C</text><text class="cls-29" transform="translate(6.85 479.08)">B</text><text class="cls-30" transform="translate(7.09 339.28)">A</text><text class="cls-29" transform="translate(6.73 1187.8)">G</text><path d="M15,268.36l1583.28-1.44v1.44H15m0-1.44v1.44l1583.28-1.44H15"/><path class="cls-28" d="M15,268.36l1583.28-1.44v1.44H15m0-1.44v1.44l1583.28-1.44H15"/><path d="M1165.57,260l.6,7.08h-.6V260m.6,0h-.6l.6,7.08V260"/><path class="cls-28" d="M1165.57,260l.6,7.08h-.6V260m.6,0h-.6l.6,7.08V260"/><path d="M1023.85,260l.6,7.08h-.6V260m.6,0h-.6l.6,7.08V260"/><path class="cls-28" d="M1023.85,260l.6,7.08h-.6V260m.6,0h-.6l.6,7.08V260"/><path d="M882.13,260l.6,7.08h-.6V260m.6,0h-.6l.6,7.08V260"/><path class="cls-28" d="M882.13,260l.6,7.08h-.6V260m.6,0h-.6l.6,7.08V260"/><path d="M740.41,260l.48,7.08h-.48V260m.48,0h-.48l.48,7.08V260"/><path class="cls-28" d="M740.41,260l.48,7.08h-.48V260m.48,0h-.48l.48,7.08V260"/><path d="M598.69,260l.48,7.08h-.48V260m.48,0h-.48l.48,7.08V260"/><path class="cls-28" d="M598.69,260l.48,7.08h-.48V260m.48,0h-.48l.48,7.08V260"/><path d="M457,260l.48,7.08H457V260m.48,0H457l.48,7.08V260"/><path class="cls-28" d="M457,260l.48,7.08H457V260m.48,0H457l.48,7.08V260"/><path d="M315.25,260l.48,7.08h-.48V260m.48,0h-.48l.48,7.08V260"/><path class="cls-28" d="M315.25,260l.48,7.08h-.48V260m.48,0h-.48l.48,7.08V260"/><path d="M173.53,260l.47,7h-.48v-7m.48,0h-.48l.48,7v-7"/><path class="cls-28" d="M173.53,260l.47,7h-.48v-7m.48,0h-.48l.48,7v-7"/><text class="cls-29" transform="translate(1093.09 263.68)">8</text><text class="cls-29" transform="translate(951.25 263.68)">7</text><text class="cls-29" transform="translate(809.53 263.68)">6</text><text class="cls-29" transform="translate(667.81 263.68)">5</text><text class="cls-29" transform="translate(526.09 263.68)">4</text><text class="cls-29" transform="translate(384.37 263.68)">3</text><text class="cls-29" transform="translate(242.65 263.68)">2</text><text class="cls-29" transform="translate(87.73 263.68)">1</text></g></g><rect class="cls-31" x="103.57" y="589.36" width="505.44" height="22.44"/><rect class="cls-31" x="587.29" y="611.8" width="21.72" height="387.36"/><rect class="cls-31" x="93.49" y="984.28" width="493.8" height="14.88"/><rect class="cls-31" x="124.81" y="611.8" width="21.6" height="372.48"/><ellipse class="cls-32" cx="380.86" cy="689.33" rx="28.15" ry="27.59"/><rect class="cls-33" x="146.41" y="909.04" width="64.08" height="75.24"/><rect class="cls-33" x="146.41" y="906.28" width="66.72" height="2.64"/><rect class="cls-33" x="210.49" y="914.68" width="38.64" height="28.92"/><rect class="cls-33" x="210.49" y="949.36" width="22.08" height="28.92"/><rect class="cls-33" x="249.13" y="911.8" width="2.64" height="31.8"/><rect class="cls-33" x="232.57" y="946.48" width="2.64" height="31.8"/><rect class="cls-33" x="578.41" y="842.44" width="6.36" height="140.28"/><rect class="cls-33" x="288.61" y="933.88" width="6.24" height="50.04"/><rect class="cls-33" x="294.73" y="936.04" width="283.68" height="2.48"/><rect class="cls-33" x="294.73" y="938.52" width="283.68" height="4.48"/><rect class="cls-34" x="295.33" y="912.64" width="283.08" height="23.4"/></svg>