<svg id="Livello_1" data-name="Livello 1" xmlns="http://www.w3.org/2000/svg" xmlns:xlink="http://www.w3.org/1999/xlink" viewBox="0 0 1190.6 1190.6"><defs><style>.cls-1,.cls-20,.cls-21,.cls-22,.cls-23,.cls-29,.cls-3,.cls-4,.cls-5{fill:none;}.cls-2{fill:#ff0;}.cls-3{stroke:#1bd715;}.cls-29,.cls-3,.cls-4,.cls-5{stroke-miterlimit:10;}.cls-4{stroke:red;}.cls-5{stroke:#2c0fd6;}.cls-6{clip-path:url(#clip-path);}.cls-10,.cls-11,.cls-7,.cls-9{isolation:isolate;}.cls-8{clip-path:url(#clip-path-2);}.cls-9{font-size:60px;font-family:OpenSansCondensed-Bold, Open Sans Condensed;font-weight:700;}.cls-10,.cls-17{font-size:16px;font-family:OpenSansCondensed-Light, Open Sans Condensed;}.cls-11{font-size:10px;font-family:EBGaramond-Italic, EB Garamond;font-style:italic;}.cls-12{letter-spacing:-0.05em;}.cls-13{letter-spacing:-0.02em;}.cls-14{letter-spacing:-0.01em;}.cls-15{letter-spacing:-0.02em;}.cls-16{letter-spacing:0em;}.cls-18{clip-path:url(#clip-path-3);}.cls-19{clip-path:url(#clip-path-4);}.cls-20,.cls-21,.cls-22,.cls-23,.cls-29{stroke:#000;}.cls-20,.cls-21,.cls-22,.cls-23{stroke-linecap:round;stroke-linejoin:round;}.cls-20{stroke-width:0.24px;}.cls-21{stroke-width:0.96px;}.cls-22{stroke-width:0.6px;}.cls-23,.cls-29{stroke-width:0.12px;}.cls-24{clip-path:url(#clip-path-5);}.cls-25{font-size:29.96px;}.cls-25,.cls-26,.cls-28,.cls-30{font-family:ArialMT, Arial;}.cls-26{font-size:18.05px;}.cls-27{clip-path:url(#clip-path-11);}.cls-28{font-size:7.92px;}.cls-30{font-size:7.13px;}</style><clipPath id="clip-path"><rect class="cls-1" x="613.5" y="60.5" width="239.5" height="239.5"/></clipPath><clipPath id="clip-path-2"><circle class="cls-1" cx="254.9" cy="348.6" r="141.7"/></clipPath><clipPath id="clip-path-3"><rect class="cls-1" x="503.21" y="468.52" width="629.87" height="658.53"/></clipPath><clipPath id="clip-path-4"><rect class="cls-1" x="378.9" y="240.48" width="1678.08" height="1184.88"/></clipPath><clipPath id="clip-path-5"><rect class="cls-1" x="500.34" y="371.28" width="1404.84" height="887.88"/></clipPath><clipPath id="clip-path-11"><rect class="cls-1" x="378.9" y="240.6" width="1677.96" height="1184.76"/></clipPath></defs><title>Tavola disegno 1</title><g id="Livello_2" data-name="Livello 2"><g id="Colore"><rect class="cls-2" width="1190.6" height="1190.6"/></g><rect class="cls-3" x="889.9" y="889.7" width="239.5" height="239.5"/><rect class="cls-3" x="613.5" y="889.7" width="239.5" height="239.5"/><rect class="cls-3" x="337.1" y="889.7" width="239.5" height="239.5"/><rect class="cls-3" x="60.8" y="889.7" width="239.5" height="239.5"/><rect class="cls-3" x="889.9" y="613.3" width="239.5" height="239.5"/><rect class="cls-3" x="613.5" y="613.3" width="239.5" height="239.5"/><rect class="cls-3" x="337.1" y="613.3" width="239.5" height="239.5"/><rect class="cls-3" x="60.8" y="613.3" width="239.5" height="239.5"/><rect class="cls-3" x="889.9" y="336.9" width="239.5" height="239.5"/><rect class="cls-3" x="613.5" y="336.9" width="239.5" height="239.5"/><rect class="cls-3" x="337.1" y="336.9" width="239.5" height="239.5"/><rect class="cls-3" x="60.8" y="336.9" width="239.5" height="239.5"/><rect class="cls-3" x="889.9" y="60.5" width="239.5" height="239.5"/><rect class="cls-3" x="613.5" y="60.5" width="239.5" height="239.5"/><rect class="cls-3" x="337.1" y="60.5" width="239.5" height="239.5"/><rect class="cls-3" x="60.8" y="60.5" width="239.5" height="239.5"/></g><g id="Livello_3" data-name="Livello 3"><rect class="cls-4" x="945.2" y="944.9" width="184.2" height="184.2"/><rect class="cls-4" x="724.1" y="944.9" width="184.2" height="184.2"/><rect class="cls-4" x="503" y="944.9" width="184.2" height="184.2"/><rect class="cls-4" x="281.9" y="944.9" width="184.2" height="184.2"/><rect class="cls-4" x="60.8" y="944.9" width="184.2" height="184.2"/><rect class="cls-4" x="945.2" y="723.8" width="184.2" height="184.2"/><rect class="cls-4" x="724.1" y="723.8" width="184.2" height="184.2"/><rect class="cls-4" x="503" y="723.8" width="184.2" height="184.2"/><rect class="cls-4" x="281.9" y="723.8" width="184.2" height="184.2"/><rect class="cls-4" x="60.8" y="723.8" width="184.2" height="184.2"/><rect class="cls-4" x="945.2" y="502.7" width="184.2" height="184.2"/><rect class="cls-4" x="724.1" y="502.7" width="184.2" height="184.2"/><rect class="cls-4" x="503" y="502.7" width="184.2" height="184.2"/><rect class="cls-4" x="281.9" y="502.7" width="184.2" height="184.2"/><rect class="cls-4" x="60.8" y="502.7" width="184.2" height="184.2"/><rect class="cls-4" x="945.2" y="281.6" width="184.2" height="184.2"/><rect class="cls-4" x="724.1" y="281.6" width="184.2" height="184.2"/><rect class="cls-4" x="503" y="281.6" width="184.2" height="184.2"/><rect class="cls-4" x="281.9" y="281.6" width="184.2" height="184.2"/><rect class="cls-4" x="60.8" y="281.6" width="184.2" height="184.2"/><rect class="cls-4" x="945.2" y="60.5" width="184.2" height="184.2"/><rect class="cls-4" x="724.1" y="60.5" width="184.2" height="184.2"/><rect class="cls-4" x="503" y="60.5" width="184.2" height="184.2"/><rect class="cls-4" x="281.9" y="60.5" width="184.2" height="184.2"/><rect class="cls-4" x="60.8" y="60.5" width="184.2" height="184.2"/></g><g id="Livello_4" data-name="Livello 4"><rect class="cls-5" x="982" y="981.8" width="147.4" height="147.4"/><rect class="cls-5" x="797.8" y="981.8" width="147.4" height="147.4"/><rect class="cls-5" x="613.5" y="981.8" width="147.4" height="147.4"/><rect class="cls-5" x="429.3" y="981.8" width="147.4" height="147.4"/><rect class="cls-5" x="245" y="981.8" width="147.4" height="147.4"/><rect class="cls-5" x="60.8" y="981.8" width="147.4" height="147.4"/><rect class="cls-5" x="982" y="797.5" width="147.4" height="147.4"/><rect class="cls-5" x="797.8" y="797.5" width="147.4" height="147.4"/><rect class="cls-5" x="613.5" y="797.5" width="147.4" height="147.4"/><rect class="cls-5" x="429.3" y="797.5" width="147.4" height="147.4"/><rect class="cls-5" x="245" y="797.5" width="147.4" height="147.4"/><rect class="cls-5" x="60.8" y="797.5" width="147.4" height="147.4"/><rect class="cls-5" x="982" y="613.3" width="147.4" height="147.4"/><rect class="cls-5" x="797.8" y="613.3" width="147.4" height="147.4"/><rect class="cls-5" x="613.5" y="613.3" width="147.4" height="147.4"/><rect class="cls-5" x="429.3" y="613.3" width="147.4" height="147.4"/><rect class="cls-5" x="245" y="613.3" width="147.4" height="147.4"/><rect class="cls-5" x="60.8" y="613.3" width="147.4" height="147.4"/><rect class="cls-5" x="982" y="429" width="147.4" height="147.4"/><rect class="cls-5" x="797.8" y="429" width="147.4" height="147.4"/><rect class="cls-5" x="613.5" y="429" width="147.4" height="147.4"/><rect class="cls-5" x="429.3" y="429" width="147.4" height="147.4"/><rect class="cls-5" x="245" y="429" width="147.4" height="147.4"/><rect class="cls-5" x="60.8" y="429" width="147.4" height="147.4"/><rect class="cls-5" x="982" y="244.8" width="147.4" height="147.4"/><rect class="cls-5" x="797.8" y="244.8" width="147.4" height="147.4"/><rect class="cls-5" x="613.5" y="244.8" width="147.4" height="147.4"/><rect class="cls-5" x="429.3" y="244.8" width="147.4" height="147.4"/><rect class="cls-5" x="245" y="244.8" width="147.4" height="147.4"/><rect class="cls-5" x="60.8" y="244.8" width="147.4" height="147.4"/><rect class="cls-5" x="982" y="60.5" width="147.4" height="147.4"/><rect class="cls-5" x="797.8" y="60.5" width="147.4" height="147.4"/><rect class="cls-5" x="613.5" y="60.5" width="147.4" height="147.4"/><rect class="cls-5" x="429.3" y="60.5" width="147.4" height="147.4"/><rect class="cls-5" x="245" y="60.5" width="147.4" height="147.4"/><rect class="cls-5" x="60.8" y="60.5" width="147.4" height="147.4"/></g><g class="cls-6"><image class="cls-7" width="2448" height="3264" transform="translate(565.08 62.24) scale(0.13 0.15)" xlink:href="../../Documents/GitHub/strumet.github.io/ex/vectors/890840_03.jpg"/></g><g class="cls-8"><image class="cls-7" width="2448" height="3264" transform="translate(62.77 61.55) scale(0.15)" xlink:href="../../Documents/GitHub/strumet.github.io/ex/vectors/890840_05.jpg"/></g><rect class="cls-1" x="63.6" y="110.2" width="478.4" height="81.6"/><text class="cls-9" transform="translate(63.61 155.82)">Alessandro Leone</text><rect class="cls-1" x="60.5" y="503.9" width="180.4" height="282.4"/><g class="cls-7"><text class="cls-10" transform="translate(60.47 516.1)">Lorem ipsum dolor sit amet, </text><text class="cls-10" transform="translate(60.47 540.1)">consectetuer adipiscing elit, sed </text><text class="cls-10" transform="translate(60.47 564.1)">diam nonummy nibh euismod </text><text class="cls-10" transform="translate(60.47 588.1)">tincidunt ut laoreet dolore magna </text><text class="cls-10" transform="translate(60.47 612.1)">aliquam erat volutpat. Ut wisi enim </text><text class="cls-10" transform="translate(60.47 636.1)">ad minim veniam, quis nostrud </text><text class="cls-10" transform="translate(60.47 660.1)">exerci tation ullamcorper suscipit </text><text class="cls-10" transform="translate(60.47 684.1)">lobortis nisl ut aliquip ex ea com</text><text class="cls-10" transform="translate(227.47 684.1)">-</text><text class="cls-10" transform="translate(60.47 708.1)">modo consequat. Duis autem vel </text><text class="cls-10" transform="translate(60.47 732.1)">eum iriure dolor in hendrerit in </text><text class="cls-10" transform="translate(60.47 756.1)">vulputate velit esse molestie </text><text class="cls-10" transform="translate(60.47 780.1)">consequat, vel illum dolore eu </text></g><rect class="cls-1" x="366.4" y="450.6" width="99.8" height="15.3"/><text class="cls-11" transform="translate(366.35 457.66)">L<tspan class="cls-12" x="5.83" y="0">’</tspan><tspan class="cls-13" x="7.53" y="0">a</tspan><tspan class="cls-14" x="12.24" y="0">l</tspan><tspan x="14.95" y="0">ba </tspan><tspan class="cls-14" x="26.35" y="0">i</tspan><tspan x="29.14" y="0">n C</tspan><tspan class="cls-15" x="42.72" y="0">a</tspan><tspan x="47.43" y="0">l</tspan><tspan class="cls-15" x="50.29" y="0">a</tspan><tspan class="cls-16" x="55" y="0">bria</tspan></text><text class="cls-17" transform="translate(327.46 574.31)">Lorem ipsum dolor sit <tspan x="-19.63" y="24">amet, consectetuer adipiscing </tspan><tspan x="-29.69" y="48">elit, sed diam nonummy nibh </tspan><tspan x="-32.73" y="72">euismod tincidunt ut laoreet dolore </tspan><tspan x="-27.53" y="96">magna aliquam erat volutpat. Ut </tspan><tspan x="-15.17" y="120">wisi enim ad minim veniam, </tspan><tspan x="8.7" y="144">quis nostrud exerci </tspan></text><g class="cls-18"><g class="cls-19"><line class="cls-20" x1="538.5" y1="590.04" x2="540.18" y2="588.36"/><line class="cls-20" x1="538.5" y1="600" x2="550.26" y2="588.36"/><line class="cls-20" x1="538.5" y1="610.08" x2="560.22" y2="588.36"/><line class="cls-20" x1="547.74" y1="610.8" x2="570.3" y2="588.36"/><line class="cls-20" x1="557.82" y1="610.8" x2="580.26" y2="588.36"/><line class="cls-20" x1="559.74" y1="618.96" x2="590.34" y2="588.36"/><line class="cls-20" x1="559.74" y1="628.92" x2="600.3" y2="588.36"/><line class="cls-20" x1="559.74" y1="639" x2="581.34" y2="617.28"/><line class="cls-20" x1="587.82" y1="610.8" x2="610.38" y2="588.36"/><line class="cls-20" x1="559.74" y1="648.96" x2="581.34" y2="627.36"/><line class="cls-20" x1="597.9" y1="610.8" x2="620.34" y2="588.36"/><line class="cls-20" x1="559.74" y1="659.04" x2="581.34" y2="637.32"/><line class="cls-20" x1="607.98" y1="610.8" x2="630.42" y2="588.36"/><line class="cls-20" x1="559.74" y1="669.12" x2="581.34" y2="647.4"/><line class="cls-20" x1="617.94" y1="610.8" x2="640.38" y2="588.36"/><line class="cls-20" x1="559.74" y1="679.08" x2="581.34" y2="657.36"/><line class="cls-20" x1="628.02" y1="610.8" x2="650.46" y2="588.36"/><line class="cls-20" x1="559.74" y1="689.16" x2="581.34" y2="667.44"/><line class="cls-20" x1="637.98" y1="610.8" x2="660.42" y2="588.36"/><line class="cls-20" x1="559.74" y1="699.12" x2="581.34" y2="677.4"/><line class="cls-20" x1="648.06" y1="610.8" x2="670.5" y2="588.36"/><line class="cls-20" x1="559.74" y1="709.2" x2="581.34" y2="687.48"/><line class="cls-20" x1="658.02" y1="610.8" x2="680.46" y2="588.36"/><line class="cls-20" x1="559.74" y1="719.16" x2="581.34" y2="697.44"/><line class="cls-20" x1="668.1" y1="610.8" x2="690.54" y2="588.36"/><line class="cls-20" x1="559.74" y1="729.24" x2="581.34" y2="707.52"/><line class="cls-20" x1="678.06" y1="610.8" x2="700.5" y2="588.36"/><line class="cls-20" x1="559.74" y1="739.2" x2="581.34" y2="717.6"/><line class="cls-20" x1="688.14" y1="610.8" x2="710.58" y2="588.36"/><line class="cls-20" x1="559.74" y1="749.28" x2="581.34" y2="727.56"/><line class="cls-20" x1="698.1" y1="610.8" x2="720.54" y2="588.36"/><line class="cls-20" x1="559.74" y1="759.24" x2="581.34" y2="737.64"/><line class="cls-20" x1="708.18" y1="610.8" x2="730.62" y2="588.36"/><line class="cls-20" x1="559.74" y1="769.32" x2="581.34" y2="747.6"/><line class="cls-20" x1="718.14" y1="610.8" x2="740.7" y2="588.36"/><line class="cls-20" x1="559.74" y1="779.28" x2="581.34" y2="757.68"/><line class="cls-20" x1="728.22" y1="610.8" x2="750.66" y2="588.36"/><line class="cls-20" x1="559.74" y1="789.36" x2="581.34" y2="767.64"/><line class="cls-20" x1="738.18" y1="610.8" x2="760.74" y2="588.36"/><line class="cls-20" x1="559.74" y1="799.32" x2="581.34" y2="777.72"/><line class="cls-20" x1="748.26" y1="610.8" x2="770.7" y2="588.36"/><line class="cls-20" x1="559.74" y1="809.4" x2="581.34" y2="787.68"/><line class="cls-20" x1="758.22" y1="610.8" x2="780.78" y2="588.36"/><line class="cls-20" x1="559.74" y1="819.36" x2="581.34" y2="797.76"/><line class="cls-20" x1="768.3" y1="610.8" x2="790.74" y2="588.36"/><line class="cls-20" x1="559.74" y1="829.44" x2="581.34" y2="807.72"/><line class="cls-20" x1="778.26" y1="610.8" x2="800.82" y2="588.36"/><line class="cls-20" x1="559.74" y1="839.52" x2="581.34" y2="817.8"/><line class="cls-20" x1="788.34" y1="610.8" x2="810.78" y2="588.36"/><line class="cls-20" x1="559.74" y1="849.48" x2="581.34" y2="827.76"/><line class="cls-20" x1="798.3" y1="610.8" x2="820.86" y2="588.36"/><line class="cls-20" x1="559.74" y1="859.56" x2="581.34" y2="837.84"/><line class="cls-20" x1="808.38" y1="610.8" x2="830.82" y2="588.36"/><line class="cls-20" x1="559.74" y1="869.52" x2="581.34" y2="847.8"/><line class="cls-20" x1="818.34" y1="610.8" x2="840.9" y2="588.36"/><line class="cls-20" x1="559.74" y1="879.6" x2="581.34" y2="857.88"/><line class="cls-20" x1="828.42" y1="610.8" x2="850.86" y2="588.36"/><line class="cls-20" x1="559.74" y1="889.56" x2="581.34" y2="867.96"/><line class="cls-20" x1="838.38" y1="610.8" x2="860.94" y2="588.36"/><line class="cls-20" x1="559.74" y1="899.64" x2="581.34" y2="877.92"/><line class="cls-20" x1="848.46" y1="610.8" x2="870.9" y2="588.36"/><line class="cls-20" x1="559.74" y1="909.6" x2="581.34" y2="888"/><line class="cls-20" x1="858.54" y1="610.8" x2="880.98" y2="588.36"/><line class="cls-20" x1="559.74" y1="919.68" x2="581.34" y2="897.96"/><line class="cls-20" x1="868.5" y1="610.8" x2="890.94" y2="588.36"/><line class="cls-20" x1="559.74" y1="929.64" x2="581.34" y2="908.04"/><line class="cls-20" x1="878.58" y1="610.8" x2="901.02" y2="588.36"/><line class="cls-20" x1="559.74" y1="939.72" x2="581.34" y2="918"/><line class="cls-20" x1="888.54" y1="610.8" x2="910.98" y2="588.36"/><line class="cls-20" x1="559.74" y1="949.68" x2="581.34" y2="928.08"/><line class="cls-20" x1="898.62" y1="610.8" x2="921.06" y2="588.36"/><line class="cls-20" x1="559.74" y1="959.76" x2="581.34" y2="938.04"/><line class="cls-20" x1="908.58" y1="610.8" x2="931.02" y2="588.36"/><line class="cls-20" x1="538.5" y1="990.96" x2="546.3" y2="983.28"/><line class="cls-20" x1="918.66" y1="610.8" x2="941.1" y2="588.36"/><line class="cls-20" x1="559.74" y1="969.72" x2="581.34" y2="948.12"/><line class="cls-20" x1="541.38" y1="998.16" x2="556.26" y2="983.28"/><line class="cls-20" x1="928.62" y1="610.8" x2="951.06" y2="588.36"/><line class="cls-20" x1="559.74" y1="979.8" x2="581.34" y2="958.08"/><line class="cls-20" x1="551.46" y1="998.16" x2="581.34" y2="968.16"/><line class="cls-20" x1="938.7" y1="610.8" x2="961.14" y2="588.36"/><line class="cls-20" x1="561.42" y1="998.16" x2="581.34" y2="978.12"/><line class="cls-20" x1="948.66" y1="610.8" x2="971.22" y2="588.36"/><line class="cls-20" x1="571.5" y1="998.16" x2="586.38" y2="983.28"/><line class="cls-20" x1="958.74" y1="610.8" x2="981.18" y2="588.36"/><line class="cls-20" x1="581.46" y1="998.16" x2="596.34" y2="983.28"/><line class="cls-20" x1="968.7" y1="610.8" x2="991.26" y2="588.36"/><line class="cls-20" x1="591.54" y1="998.16" x2="606.42" y2="983.28"/><line class="cls-20" x1="978.78" y1="610.8" x2="1001.22" y2="588.36"/><line class="cls-20" x1="601.5" y1="998.16" x2="616.38" y2="983.28"/><line class="cls-20" x1="988.74" y1="610.8" x2="1011.3" y2="588.36"/><line class="cls-20" x1="611.58" y1="998.16" x2="626.46" y2="983.28"/><line class="cls-20" x1="998.82" y1="610.8" x2="1021.26" y2="588.36"/><line class="cls-20" x1="621.54" y1="998.16" x2="636.42" y2="983.28"/><line class="cls-20" x1="1008.78" y1="610.8" x2="1031.34" y2="588.36"/><line class="cls-20" x1="631.62" y1="998.16" x2="646.5" y2="983.28"/><line class="cls-20" x1="1018.86" y1="610.8" x2="1041.3" y2="588.36"/><line class="cls-20" x1="641.58" y1="998.16" x2="656.46" y2="983.28"/><line class="cls-20" x1="1022.22" y1="617.52" x2="1043.94" y2="595.8"/><line class="cls-20" x1="651.66" y1="998.16" x2="666.54" y2="983.28"/><line class="cls-20" x1="1022.22" y1="627.48" x2="1043.94" y2="605.76"/><line class="cls-20" x1="661.62" y1="998.16" x2="676.5" y2="983.28"/><line class="cls-20" x1="1022.22" y1="637.56" x2="1043.94" y2="615.84"/><line class="cls-20" x1="671.7" y1="998.16" x2="686.58" y2="983.28"/><line class="cls-20" x1="1022.22" y1="647.52" x2="1043.94" y2="625.8"/><line class="cls-20" x1="681.66" y1="998.16" x2="696.54" y2="983.28"/><line class="cls-20" x1="1022.22" y1="657.6" x2="1043.94" y2="635.88"/><line class="cls-20" x1="691.74" y1="998.16" x2="706.62" y2="983.28"/><line class="cls-20" x1="1022.22" y1="667.56" x2="1043.94" y2="645.84"/><line class="cls-20" x1="701.7" y1="998.16" x2="716.58" y2="983.28"/><line class="cls-20" x1="1022.22" y1="677.64" x2="1043.94" y2="655.92"/><line class="cls-20" x1="711.78" y1="998.16" x2="726.66" y2="983.28"/><line class="cls-20" x1="1022.22" y1="687.6" x2="1043.94" y2="666"/><line class="cls-20" x1="721.86" y1="998.16" x2="736.62" y2="983.28"/><line class="cls-20" x1="1022.22" y1="697.68" x2="1043.94" y2="675.96"/><line class="cls-20" x1="731.82" y1="998.16" x2="746.7" y2="983.28"/><line class="cls-20" x1="1022.22" y1="707.64" x2="1043.94" y2="686.04"/><line class="cls-20" x1="741.9" y1="998.16" x2="756.78" y2="983.28"/><line class="cls-20" x1="1022.22" y1="717.72" x2="1043.94" y2="696"/><line class="cls-20" x1="751.86" y1="998.16" x2="766.74" y2="983.28"/><line class="cls-20" x1="1022.22" y1="727.68" x2="1043.94" y2="706.08"/><line class="cls-20" x1="761.94" y1="998.16" x2="776.82" y2="983.28"/><line class="cls-20" x1="1022.22" y1="737.76" x2="1043.94" y2="716.04"/><line class="cls-20" x1="771.9" y1="998.16" x2="786.78" y2="983.28"/><line class="cls-20" x1="1022.22" y1="747.72" x2="1043.94" y2="726.12"/><line class="cls-20" x1="781.98" y1="998.16" x2="796.86" y2="983.28"/><line class="cls-20" x1="1022.22" y1="757.8" x2="1043.94" y2="736.08"/><line class="cls-20" x1="791.94" y1="998.16" x2="806.82" y2="983.28"/><line class="cls-20" x1="1022.22" y1="767.76" x2="1043.94" y2="746.16"/><line class="cls-20" x1="802.02" y1="998.16" x2="816.9" y2="983.28"/><line class="cls-20" x1="1022.22" y1="777.84" x2="1043.94" y2="756.12"/><line class="cls-20" x1="811.98" y1="998.16" x2="826.86" y2="983.28"/><line class="cls-20" x1="1022.22" y1="787.92" x2="1043.94" y2="766.2"/><line class="cls-20" x1="822.06" y1="998.16" x2="836.94" y2="983.28"/><line class="cls-20" x1="1022.22" y1="797.88" x2="1043.94" y2="776.16"/><line class="cls-20" x1="832.02" y1="998.16" x2="846.9" y2="983.28"/><line class="cls-20" x1="1022.22" y1="807.96" x2="1043.94" y2="786.24"/><line class="cls-20" x1="842.1" y1="998.16" x2="856.98" y2="983.28"/><line class="cls-20" x1="1022.22" y1="817.92" x2="1043.94" y2="796.2"/><line class="cls-20" x1="852.06" y1="998.16" x2="866.94" y2="983.28"/><line class="cls-20" x1="1022.22" y1="828" x2="1043.94" y2="806.28"/><line class="cls-20" x1="862.14" y1="998.16" x2="877.02" y2="983.28"/><line class="cls-20" x1="1022.22" y1="837.96" x2="1043.94" y2="816.36"/><line class="cls-20" x1="872.1" y1="998.16" x2="886.98" y2="983.28"/><line class="cls-20" x1="1022.22" y1="848.04" x2="1043.94" y2="826.32"/><line class="cls-20" x1="882.18" y1="998.16" x2="897.06" y2="983.28"/><line class="cls-20" x1="1022.22" y1="858" x2="1043.94" y2="836.4"/><line class="cls-20" x1="892.14" y1="998.16" x2="907.02" y2="983.28"/><line class="cls-20" x1="1022.22" y1="868.08" x2="1043.94" y2="846.36"/><line class="cls-20" x1="902.22" y1="998.16" x2="917.1" y2="983.28"/><line class="cls-20" x1="1022.22" y1="878.04" x2="1043.94" y2="856.44"/><line class="cls-20" x1="912.18" y1="998.16" x2="927.06" y2="983.28"/><line class="cls-20" x1="1022.22" y1="888.12" x2="1043.94" y2="866.4"/><line class="cls-20" x1="922.26" y1="998.16" x2="937.14" y2="983.28"/><line class="cls-20" x1="1022.22" y1="898.08" x2="1043.94" y2="876.48"/><line class="cls-20" x1="932.22" y1="998.16" x2="947.1" y2="983.28"/><line class="cls-20" x1="1022.22" y1="908.16" x2="1043.94" y2="886.44"/><line class="cls-20" x1="942.3" y1="998.16" x2="957.18" y2="983.28"/><line class="cls-20" x1="1022.22" y1="918.12" x2="1043.94" y2="896.52"/><line class="cls-20" x1="952.26" y1="998.16" x2="967.14" y2="983.28"/><line class="cls-20" x1="1022.22" y1="928.2" x2="1043.94" y2="906.48"/><line class="cls-20" x1="962.34" y1="998.16" x2="977.22" y2="983.28"/><line class="cls-20" x1="1022.22" y1="938.28" x2="1043.94" y2="916.56"/><line class="cls-20" x1="972.42" y1="998.16" x2="987.18" y2="983.28"/><line class="cls-20" x1="1022.22" y1="948.24" x2="1043.94" y2="926.52"/><line class="cls-20" x1="982.38" y1="998.16" x2="997.26" y2="983.28"/><line class="cls-20" x1="1022.22" y1="958.32" x2="1043.94" y2="936.6"/><line class="cls-20" x1="992.46" y1="998.16" x2="1007.34" y2="983.28"/><line class="cls-20" x1="1022.22" y1="968.28" x2="1043.94" y2="946.56"/><line class="cls-20" x1="1002.42" y1="998.16" x2="1017.3" y2="983.28"/><line class="cls-20" x1="1022.22" y1="978.36" x2="1043.94" y2="956.64"/><line class="cls-20" x1="1012.5" y1="998.16" x2="1043.94" y2="966.6"/><line class="cls-20" x1="1022.46" y1="998.16" x2="1043.94" y2="976.68"/><line class="cls-20" x1="1032.54" y1="998.16" x2="1043.94" y2="986.76"/><line class="cls-20" x1="1042.5" y1="998.16" x2="1043.94" y2="996.72"/><line class="cls-21" x1="1022.22" y1="610.8" x2="581.34" y2="610.8"/><line class="cls-21" x1="559.74" y1="610.8" x2="538.5" y2="610.8"/><polyline class="cls-21" points="538.5 588.36 1043.94 588.36 1043.94 610.8"/><line class="cls-21" x1="1043.94" y1="983.28" x2="1043.94" y2="998.16"/><line class="cls-21" x1="536.22" y1="983.28" x2="559.74" y2="983.28"/><polyline class="cls-21" points="1022.22 983.28 581.34 983.28 581.34 610.8"/><line class="cls-21" x1="559.74" y1="610.8" x2="559.74" y2="983.28"/><line class="cls-21" x1="1022.22" y1="610.8" x2="1022.22" y2="983.28"/><line class="cls-21" x1="1043.94" y1="983.28" x2="1043.94" y2="610.8"/><line class="cls-22" x1="686.7" y1="942.6" x2="686.7" y2="910.8"/><polyline class="cls-22" points="648.06 907.92 648.06 905.28 581.34 905.28 581.34 983.28 645.42 983.28"/><polyline class="cls-22" points="581.34 905.28 648.06 905.28 648.06 907.92 581.34 907.92 581.34 905.28"/><polyline class="cls-22" points="645.42 983.28 645.42 907.92 648.06 907.92"/><polyline class="cls-22" points="686.7 942.6 686.7 910.8 684.06 913.68"/><line class="cls-22" x1="686.7" y1="942.6" x2="684.06" y2="942.6"/><line class="cls-22" x1="684.06" y1="913.68" x2="645.42" y2="913.68"/><polyline class="cls-22" points="645.42 942.6 684.06 942.6 684.06 913.68"/><polyline class="cls-22" points="670.14 977.28 670.14 945.48 670.14 977.28"/><line class="cls-22" x1="667.5" y1="948.36" x2="670.14" y2="945.48"/><line class="cls-22" x1="670.14" y1="977.28" x2="667.5" y2="977.28"/><line class="cls-22" x1="667.5" y1="948.36" x2="645.42" y2="948.36"/><polyline class="cls-22" points="645.42 977.28 667.5 977.28 667.5 948.36"/><polyline class="cls-22" points="652.26 913.68 652.26 713.88 581.34 713.88 581.34 983.28 652.26 983.28 652.26 977.28"/><line class="cls-22" x1="652.26" y1="948.36" x2="652.26" y2="942.6"/><polyline class="cls-22" points="581.34 713.88 652.26 713.88 652.26 719.88 581.34 719.88 581.34 713.88"/><line class="cls-20" x1="1013.34" y1="842.88" x2="1014.78" y2="841.44"/><line class="cls-20" x1="1013.34" y1="845.16" x2="1017.06" y2="841.44"/><line class="cls-20" x1="1013.34" y1="847.44" x2="1019.34" y2="841.44"/><line class="cls-20" x1="1013.34" y1="849.72" x2="1019.7" y2="843.36"/><line class="cls-20" x1="1013.34" y1="852" x2="1019.7" y2="845.64"/><line class="cls-20" x1="1013.34" y1="854.4" x2="1019.7" y2="848.04"/><line class="cls-20" x1="1013.34" y1="856.68" x2="1019.7" y2="850.32"/><line class="cls-20" x1="1013.34" y1="858.96" x2="1019.7" y2="852.6"/><line class="cls-20" x1="1013.34" y1="861.24" x2="1019.7" y2="854.88"/><line class="cls-20" x1="1013.34" y1="863.64" x2="1019.7" y2="857.16"/><line class="cls-20" x1="1013.34" y1="865.92" x2="1019.7" y2="859.56"/><line class="cls-20" x1="1013.34" y1="868.2" x2="1019.7" y2="861.84"/><line class="cls-20" x1="1013.34" y1="870.48" x2="1019.7" y2="864.12"/><line class="cls-20" x1="1013.34" y1="872.76" x2="1019.7" y2="866.4"/><line class="cls-20" x1="1013.34" y1="875.16" x2="1019.7" y2="868.68"/><line class="cls-20" x1="1013.34" y1="877.44" x2="1019.7" y2="871.08"/><line class="cls-20" x1="1013.34" y1="879.72" x2="1019.7" y2="873.36"/><line class="cls-20" x1="1013.34" y1="882" x2="1019.7" y2="875.64"/><line class="cls-20" x1="1013.34" y1="884.28" x2="1019.7" y2="877.92"/><line class="cls-20" x1="1013.34" y1="886.68" x2="1019.7" y2="880.2"/><line class="cls-20" x1="1013.34" y1="888.96" x2="1019.7" y2="882.6"/><line class="cls-20" x1="1013.34" y1="891.24" x2="1019.7" y2="884.88"/><line class="cls-20" x1="1013.34" y1="893.52" x2="1019.7" y2="887.16"/><line class="cls-20" x1="1013.34" y1="895.8" x2="1019.7" y2="889.44"/><line class="cls-20" x1="1013.34" y1="898.2" x2="1019.7" y2="891.84"/><line class="cls-20" x1="1013.34" y1="900.48" x2="1019.7" y2="894.12"/><line class="cls-20" x1="1013.34" y1="902.76" x2="1019.7" y2="896.4"/><line class="cls-20" x1="1013.34" y1="905.04" x2="1019.7" y2="898.68"/><line class="cls-20" x1="1013.34" y1="907.44" x2="1019.7" y2="900.96"/><line class="cls-20" x1="1013.34" y1="909.72" x2="1019.7" y2="903.36"/><line class="cls-20" x1="1013.34" y1="912" x2="1019.7" y2="905.64"/><line class="cls-20" x1="1013.34" y1="914.28" x2="1019.7" y2="907.92"/><line class="cls-20" x1="1013.34" y1="916.56" x2="1019.7" y2="910.2"/><line class="cls-20" x1="1013.34" y1="918.96" x2="1019.7" y2="912.48"/><line class="cls-20" x1="1013.34" y1="921.24" x2="1019.7" y2="914.88"/><line class="cls-20" x1="1013.34" y1="923.52" x2="1019.7" y2="917.16"/><line class="cls-20" x1="1013.34" y1="925.8" x2="1019.7" y2="919.44"/><line class="cls-20" x1="1013.34" y1="928.08" x2="1019.7" y2="921.72"/><polyline class="cls-20" points="1013.34 930.48 1014.42 929.4 1019.7 924.12"/><polyline class="cls-20" points="1013.34 932.76 1016.7 929.4 1019.7 926.4"/><polyline class="cls-20" points="1013.34 935.04 1019.1 929.4 1019.7 928.68"/><line class="cls-20" x1="1013.34" y1="937.32" x2="1019.7" y2="930.96"/><line class="cls-20" x1="1013.34" y1="939.72" x2="1019.7" y2="933.24"/><line class="cls-20" x1="1013.34" y1="942" x2="1019.7" y2="935.64"/><line class="cls-20" x1="1013.34" y1="944.28" x2="1019.7" y2="937.92"/><line class="cls-20" x1="1013.34" y1="946.56" x2="1019.7" y2="940.2"/><line class="cls-20" x1="1013.34" y1="948.84" x2="1019.7" y2="942.48"/><line class="cls-20" x1="1013.34" y1="951.24" x2="1019.7" y2="944.76"/><line class="cls-20" x1="1013.34" y1="953.52" x2="1019.7" y2="947.16"/><line class="cls-20" x1="1013.34" y1="955.8" x2="1019.7" y2="949.44"/><line class="cls-20" x1="1013.34" y1="958.08" x2="1019.7" y2="951.72"/><line class="cls-20" x1="1013.34" y1="960.36" x2="1019.7" y2="954"/><line class="cls-20" x1="1013.34" y1="962.76" x2="1019.7" y2="956.28"/><line class="cls-20" x1="1013.34" y1="965.04" x2="1019.7" y2="958.68"/><line class="cls-20" x1="1013.34" y1="967.32" x2="1019.7" y2="960.96"/><line class="cls-20" x1="1013.34" y1="969.6" x2="1019.7" y2="963.24"/><line class="cls-20" x1="1013.34" y1="971.88" x2="1019.7" y2="965.52"/><line class="cls-20" x1="1013.34" y1="974.28" x2="1019.7" y2="967.92"/><line class="cls-20" x1="1013.34" y1="976.56" x2="1019.7" y2="970.2"/><line class="cls-20" x1="1013.34" y1="978.84" x2="1019.7" y2="972.48"/><line class="cls-20" x1="1013.34" y1="981.12" x2="1019.7" y2="974.76"/><line class="cls-20" x1="1013.58" y1="983.28" x2="1019.7" y2="977.04"/><line class="cls-20" x1="1015.86" y1="983.28" x2="1019.7" y2="979.44"/><line class="cls-20" x1="1018.26" y1="983.28" x2="1019.7" y2="981.72"/><polyline class="cls-22" points="1019.7 929.4 1019.7 983.28 1013.34 983.28 1013.34 929.4 1019.7 929.4"/><line class="cls-20" x1="723.54" y1="934.44" x2="723.78" y2="934.2"/><line class="cls-20" x1="723.54" y1="936.72" x2="727.38" y2="932.88"/><line class="cls-20" x1="723.54" y1="939.12" x2="729.54" y2="933"/><line class="cls-20" x1="723.54" y1="941.4" x2="729.66" y2="935.28"/><line class="cls-20" x1="723.54" y1="943.68" x2="729.66" y2="937.56"/><line class="cls-20" x1="723.54" y1="945.96" x2="729.66" y2="939.84"/><line class="cls-20" x1="723.54" y1="948.24" x2="729.66" y2="942.12"/><line class="cls-20" x1="723.54" y1="950.64" x2="729.66" y2="944.4"/><line class="cls-20" x1="723.54" y1="952.92" x2="729.78" y2="946.68"/><line class="cls-20" x1="723.54" y1="955.2" x2="729.78" y2="948.96"/><line class="cls-20" x1="723.54" y1="957.48" x2="729.78" y2="951.24"/><line class="cls-20" x1="723.54" y1="959.76" x2="729.78" y2="953.52"/><line class="cls-20" x1="723.54" y1="962.16" x2="729.78" y2="955.8"/><line class="cls-20" x1="723.54" y1="964.44" x2="729.9" y2="958.08"/><line class="cls-20" x1="723.54" y1="966.72" x2="729.9" y2="960.36"/><line class="cls-20" x1="723.54" y1="969" x2="729.9" y2="962.64"/><line class="cls-20" x1="723.54" y1="971.4" x2="729.9" y2="964.92"/><line class="cls-20" x1="723.54" y1="973.68" x2="729.9" y2="967.32"/><line class="cls-20" x1="723.54" y1="975.96" x2="729.9" y2="969.6"/><line class="cls-20" x1="723.54" y1="978.24" x2="729.9" y2="971.88"/><line class="cls-20" x1="723.54" y1="980.52" x2="729.9" y2="974.16"/><line class="cls-20" x1="723.54" y1="982.92" x2="729.9" y2="976.44"/><line class="cls-20" x1="725.46" y1="983.28" x2="729.9" y2="978.84"/><line class="cls-20" x1="727.74" y1="983.28" x2="729.9" y2="981.12"/><polyline class="cls-22" points="723.54 933.96 723.54 983.28 729.9 983.28 729.78 937.56"/><polyline class="cls-22" points="1019.7 841.44 1019.7 929.4 1013.34 929.4 1013.34 841.44 1019.7 841.44"/><line class="cls-20" x1="993.18" y1="944.28" x2="994.26" y2="943.2"/><line class="cls-20" x1="993.18" y1="946.56" x2="996.54" y2="943.2"/><line class="cls-20" x1="994.26" y1="947.76" x2="998.22" y2="943.8"/><line class="cls-20" x1="996.66" y1="947.76" x2="998.22" y2="946.08"/><polyline class="cls-22" points="998.22 943.2 993.18 943.2 993.18 947.76 998.22 947.76 998.22 943.2"/><line class="cls-20" x1="748.98" y1="943.92" x2="749.58" y2="943.2"/><line class="cls-20" x1="748.98" y1="945.12" x2="750.9" y2="943.2"/><line class="cls-20" x1="748.98" y1="946.44" x2="752.1" y2="943.2"/><line class="cls-20" x1="748.98" y1="947.64" x2="753.42" y2="943.2"/><line class="cls-20" x1="750.06" y1="947.76" x2="754.02" y2="943.8"/><line class="cls-20" x1="751.38" y1="947.76" x2="754.02" y2="945.12"/><line class="cls-20" x1="752.58" y1="947.76" x2="754.02" y2="946.32"/><line class="cls-20" x1="753.9" y1="947.76" x2="754.02" y2="947.64"/><line class="cls-22" x1="998.22" y1="943.2" x2="995.58" y2="942.96"/><line class="cls-22" x1="993.18" y1="943.2" x2="990.66" y2="942.96"/><line class="cls-22" x1="965.46" y1="942.96" x2="993.18" y2="947.76"/><polyline class="cls-22" points="748.98 943.2 754.02 943.2 754.02 947.76 748.98 947.76 748.98 943.2 751.98 942.96"/><line class="cls-22" x1="754.02" y1="943.2" x2="756.9" y2="942.96"/><line class="cls-22" x1="781.86" y1="942.96" x2="754.02" y2="947.76"/><line class="cls-22" x1="1013.34" y1="942.84" x2="729.9" y2="942.84"/><line class="cls-22" x1="730.26" y1="911.64" x2="1013.82" y2="911.76"/><polyline class="cls-22" points="1013.34 935.28 729.78 935.28 729.78 937.56 1013.34 937.56 1013.34 935.28"/><polyline class="cls-22" points="1010.58 871.92 1012.14 876.72 1012.98 882.12 1012.14 886.92 1010.82 893.88 1008.54 898.44 1005.3 904.44 1001.82 907.68 995.94 910.68 993.18 911.76 985.98 912.12 986.34 907.56 988.38 900.84 990.42 890.76 995.1 884.4 999.54 879.24 1003.98 873.6 1010.82 871.92"/><polyline class="cls-22" points="1009.74 875.04 1005.42 876.48 1000.02 884.16 996.78 889.32"/><polyline class="cls-22" points="1007.1 888.24 1005.18 894.48 1001.7 899.4 999.3 902.28 991.98 903.72"/><polyline class="cls-22" points="936.18 907.44 922.86 907.44 903.18 906.96 895.02 908.04 876.42 907.44 868.86 906.36 860.34 906.72 853.14 907.44 845.34 906.36 826.74 905.4 812.1 906 801.78 906.72 787.74 906.72 776.22 906.36 763.5 907.8 745.38 907.08 724.74 906.12"/><line class="cls-22" x1="969.3" y1="905.52" x2="970.14" y2="911.76"/><polyline class="cls-22" points="935.22 911.76 935.94 907.68 938.7 905.52 947.46 904.92 957.3 904.44 967.14 905.52 969.3 905.52"/><line class="cls-23" x1="807.66" y1="627.24" x2="807.66" y2="661.44"/><polyline class="cls-23" points="807.66 715.92 807.66 848.52 749.7 848.52"/><line class="cls-23" x1="749.34" y1="627.24" x2="807.66" y2="627.24"/><line class="cls-23" x1="749.7" y1="631.44" x2="803.58" y2="631.44"/><line class="cls-23" x1="749.7" y1="844.44" x2="803.58" y2="844.44"/><line class="cls-23" x1="803.58" y1="737.88" x2="749.7" y2="737.88"/><line class="cls-23" x1="803.58" y1="742.08" x2="749.7" y2="742.08"/><line class="cls-23" x1="803.58" y1="631.44" x2="803.58" y2="663"/><line class="cls-23" x1="803.58" y1="714.48" x2="803.58" y2="844.44"/><line class="cls-20" x1="749.7" y1="711.48" x2="780.18" y2="662.4"/><line class="cls-20" x1="749.7" y1="766.68" x2="753.78" y2="762"/><line class="cls-20" x1="746.82" y1="832.32" x2="792.06" y2="781.56"/><polyline class="cls-20" points="943.62 717.12 880.74 717.12 880.74 761.04 943.62 761.04 943.62 717.12"/><polyline class="cls-20" points="942.3 718.56 882.18 718.56 882.18 759.6 942.3 759.6 942.3 718.56"/><polyline class="cls-20" points="891.42 753.24 889.5 748.92 895.14 748.68 895.38 742.2"/><polyline class="cls-20" points="928.86 745.68 919.62 743.04 914.58 746.28 906.18 742.56 897.54 730.92"/><polyline class="cls-20" points="910.02 730.92 923.7 730.68 926.7 728.28"/><polyline class="cls-20" points="911.34 717.12 912.9 717.12 912.9 715.2 911.34 715.2 911.34 717.12"/><line class="cls-22" x1="1013.34" y1="874.08" x2="1011.3" y2="874.08"/><line class="cls-22" x1="1003.5" y1="874.08" x2="975.78" y2="874.08"/><line class="cls-22" x1="975.78" y1="877.44" x2="975.78" y2="911.76"/><line class="cls-22" x1="975.78" y1="944.76" x2="975.78" y2="983.28"/><line class="cls-22" x1="978.66" y1="983.28" x2="979.74" y2="945.36"/><line class="cls-22" x1="980.7" y1="911.76" x2="981.66" y2="877.44"/><line class="cls-22" x1="1000.86" y1="877.44" x2="973.02" y2="877.44"/><line class="cls-22" x1="1014.66" y1="902.76" x2="1006.14" y2="902.76"/><line class="cls-22" x1="987.78" y1="902.76" x2="980.94" y2="902.76"/><line class="cls-22" x1="1013.34" y1="952.32" x2="979.5" y2="952.32"/><line class="cls-22" x1="1013.34" y1="955.08" x2="979.5" y2="955.08"/><line class="cls-22" x1="975.78" y1="877.44" x2="975.78" y2="887.04"/><line class="cls-21" x1="978.66" y1="983.28" x2="975.78" y2="983.28"/><polyline class="cls-22" points="1003.5 874.08 973.02 874.08 973.02 877.44"/><polyline class="cls-22" points="973.02 902.76 973.02 877.44 975.78 877.44 975.78 902.76 973.02 902.76 973.02 877.44"/><line class="cls-22" x1="729.78" y1="935.28" x2="729.78" y2="911.64"/><polyline class="cls-22" points="722.46 931.92 723.78 933.48 728.34 932.28"/><polyline class="cls-22" points="722.46 931.8 722.1 928.56 722.46 924.12 723.3 916.56 722.58 912.84 723.42 907.8 724.74 906.12"/><line class="cls-20" x1="994.02" y1="788.4" x2="995.46" y2="786.96"/><line class="cls-20" x1="994.02" y1="790.68" x2="997.74" y2="786.96"/><line class="cls-20" x1="994.02" y1="792.96" x2="1000.02" y2="786.96"/><line class="cls-20" x1="995.22" y1="794.16" x2="1002.3" y2="786.96"/><line class="cls-20" x1="997.5" y1="794.16" x2="1004.7" y2="786.96"/><line class="cls-20" x1="999.9" y1="794.16" x2="1006.98" y2="786.96"/><line class="cls-20" x1="1002.18" y1="794.16" x2="1009.26" y2="786.96"/><line class="cls-20" x1="1004.46" y1="794.16" x2="1011.54" y2="786.96"/><line class="cls-20" x1="1006.74" y1="794.16" x2="1013.82" y2="786.96"/><line class="cls-20" x1="1009.02" y1="794.16" x2="1016.22" y2="786.96"/><line class="cls-20" x1="1011.42" y1="794.16" x2="1018.5" y2="786.96"/><line class="cls-20" x1="1013.7" y1="794.16" x2="1020.78" y2="786.96"/><line class="cls-20" x1="1015.98" y1="794.16" x2="1022.22" y2="787.92"/><line class="cls-20" x1="1018.26" y1="794.16" x2="1022.22" y2="790.2"/><line class="cls-20" x1="1020.66" y1="794.16" x2="1022.22" y2="792.48"/><polyline class="cls-22" points="1022.22 786.96 1022.22 794.16 994.02 794.16 994.02 786.96 1022.22 786.96"/><polyline class="cls-20" points="1003.86 749.52 1009.62 749.52 1009.62 751.44 1009.62 753 1009.86 757.8 1011.42 761.4 1013.94 764.76 1015.98 770.04 1015.98 772.68 1015.62 775.2 1015.14 777.36 1013.7 781.92 1011.3 784.8"/><polyline class="cls-20" points="1003.74 749.52 1003.74 751.44 1003.74 753 1003.62 757.8 1001.94 761.4 999.54 764.76 997.38 770.04 997.38 772.68 997.86 775.2 998.22 777.36 999.66 781.92 1002.18 784.8"/><polyline class="cls-20" points="1005.42 749.76 1004.58 741.36 1003.38 731.28 999.9 726.12 995.58 723.6 989.34 721.68 990.66 722.52 990.42 721.08 989.1 721.08 989.34 723.24 990.42 722.76 985.86 723.6 977.82 726.24 981.54 725.64 981.78 724.44 985.86 724.68 988.14 725.4 988.5 723.24 990.18 722.16 989.34 721.08 982.74 719.64 978.9 721.92 974.1 718.08 978.42 718.8 981.3 722.16 982.38 721.32 981.3 719.52 983.22 719.88 983.82 721.08 983.82 718.8 987.3 721.68 988.74 721.08 989.1 721.08 986.22 718.08 989.34 714.72 989.1 711 988.74 709.56 984.66 710.16 987.9 710.04 988.98 711 989.58 710.04 987.54 709.56 989.34 707.04 991.38 709.32 989.1 709.56 991.26 711.24 990.78 712.08 985.86 712.08 989.1 710.16 981.78 709.2 986.7 706.08 986.7 709.2"/><polyline class="cls-20" points="1005.06 749.16 1004.22 742.8 1002.3 733.68 1003.98 727.32 1003.38 720.72 1005.06 721.56 1003.62 719.64 1003.02 720.72 1004.46 720.96 1005.3 719.04 1007.46 717.84 1009.62 719.64 1010.82 722.16 1006.5 721.68 1005.66 719.52 1003.86 719.52 1003.14 718.8 1003.14 715.32 1001.7 715.32 1000.86 715.2 999.66 718.2 1003.86 719.28 1002.3 717.24 998.46 719.28 1003.62 721.32 1002.78 723.84 997.38 726.12 1000.5 723.24 1003.62 724.44 1001.1 726.84 1001.7 721.08 1005.06 720.96 1006.5 724.2 1001.7 723.96"/><polyline class="cls-20" points="1004.58 749.4 1010.46 736.8 1014.54 731.28 1017.06 724.68 1020.9 719.04 1022.34 717 1020.54 716.64 1022.1 717.24"/><polyline class="cls-20" points="1022.22 706.32 1020.3 706.08 1017.18 708.72 1021.98 711.48 1021.74 708.72 1022.22 708.84"/><polyline class="cls-20" points="1022.22 711.96 1018.5 712.92 1021.98 715.92"/><line class="cls-21" x1="1021.98" y1="715.92" x2="1022.22" y2="715.92"/><polyline class="cls-20" points="1022.22 715.8 1020.9 716.4 1022.22 717.6"/><polyline class="cls-20" points="1021.98 715.32 1018.26 719.52 1016.34 723 1022.1 724.2 1017.42 718.8 1021.74 717.36"/><polyline class="cls-20" points="1005.3 750 1009.38 744.84 1011.66 741.72 1014.54 739.08 1018.62 737.16 1020.9 732.72 1022.22 732.24"/><polyline class="cls-20" points="1022.22 729.96 1020.06 727.92 1016.22 729.6 1020.06 730.44 1018.86 727.08 1022.22 731.52"/><polyline class="cls-20" points="1022.22 732.24 1016.82 731.88 1022.22 732"/><polyline class="cls-20" points="1012.74 783 1022.22 783 1022.22 786.96 1000.86 786.96 1000.86 783.36"/><line class="cls-21" x1="1022.22" y1="786.6" x2="1009.74" y2="786.6"/><polyline class="cls-20" points="1002.9 786.6 1001.34 786.6 1001.34 783.84"/><line class="cls-20" x1="1012.5" y1="783.36" x2="1022.22" y2="783.36"/><polyline class="cls-20" points="1014.66 778.92 1022.22 778.92 1022.22 783 1012.74 783"/><line class="cls-20" x1="1022.22" y1="782.52" x2="1013.1" y2="782.52"/><line class="cls-20" x1="1014.54" y1="779.4" x2="1022.22" y2="779.4"/><polyline class="cls-20" points="1015.62 774.96 1022.22 774.96 1022.22 778.92 1014.66 778.92"/><line class="cls-20" x1="1022.22" y1="778.56" x2="1014.78" y2="778.56"/><line class="cls-20" x1="1015.5" y1="775.32" x2="1022.22" y2="775.32"/><line class="cls-20" x1="1015.26" y1="776.76" x2="1020.18" y2="776.76"/><line class="cls-20" x1="1015.02" y1="777.72" x2="1022.1" y2="777.72"/><line class="cls-20" x1="1014.18" y1="780.36" x2="1020.54" y2="780.36"/><line class="cls-20" x1="1013.82" y1="781.56" x2="1021.74" y2="781.56"/><line class="cls-20" x1="1011.9" y1="783.96" x2="1021.74" y2="783.96"/><line class="cls-20" x1="1011.66" y1="784.32" x2="1021.14" y2="784.32"/><line class="cls-20" x1="1011.06" y1="785.04" x2="1020.42" y2="785.04"/><line class="cls-20" x1="1010.94" y1="785.4" x2="1021.26" y2="785.4"/><line class="cls-20" x1="1010.22" y1="786.24" x2="1021.5" y2="786.24"/><line class="cls-20" x1="1014.06" y1="780.84" x2="1021.02" y2="780.84"/><polyline class="cls-20" points="1001.22 762.36 1001.22 757.92 1003.5 757.92"/><polyline class="cls-20" points="1009.86 757.92 1022.22 757.92 1022.22 786.96 1001.22 786.96"/><polyline class="cls-20" points="1001.22 762.36 1001.22 754.08 1003.74 754.08"/><polyline class="cls-20" points="1009.62 754.08 1022.22 754.08 1022.22 786.6 1009.74 786.6"/><polyline class="cls-20" points="1011.3 784.68 1010.82 785.64 1009.5 786.84"/><polyline class="cls-20" points="1003.14 787.08 1002.78 786.24 1002.18 784.68"/><polyline class="cls-20" points="694.14 624.48 811.5 624.48 811.5 627.48 694.26 627.48 694.14 624.48"/><line class="cls-20" x1="694.26" y1="627.48" x2="694.26" y2="867.24"/><line class="cls-20" x1="711.18" y1="627.36" x2="711.18" y2="869.52"/><polyline class="cls-20" points="694.14 867.12 695.82 867.12 698.34 867.6 700.38 867.48 704.22 868.32 707.34 869.04 709.86 869.76 711.3 869.52"/><line class="cls-20" x1="701.94" y1="627.48" x2="701.94" y2="867.84"/><polyline class="cls-20" points="721.14 626.88 721.14 877.08 718.02 876.24 715.62 876.24 713.58 876 711.54 876.6 708.54 876.24 708.54 869.28"/><polyline class="cls-20" points="730.98 627.48 730.98 871.44 729.9 871.44 729.3 870.96 726.06 870.36 723.78 871.44 722.22 872.04 721.62 871.44"/><polyline class="cls-20" points="711.18 869.64 711.18 869.76 710.94 869.88 710.1 870 709.62 870 709.14 869.76 708.54 869.4"/><polyline class="cls-20" points="741.9 627.84 741.9 869.04 739.14 869.52 737.46 868.68 735.42 868.56 733.86 868.68 732.54 870.96 731.1 871.08"/><polyline class="cls-20" points="746.94 628.44 746.94 874.92 741.9 874.32 741.42 873.72 739.74 871.56 739.74 869.4 740.1 869.4 740.46 869.4 740.82 869.28 741.3 869.28 741.66 869.28 741.9 869.04 741.9 868.92"/><polyline class="cls-20" points="749.7 627.36 749.7 874.68 748.98 874.44 748.14 874.68 748.14 873.96 747.66 874.68 747.3 874.68 746.94 874.56"/><polyline class="cls-20" points="698.58 624.48 698.94 624.48 698.94 627.48 698.58 627.48 698.58 624.48"/><polyline class="cls-20" points="706.86 624.48 707.22 624.48 707.22 627.48 706.86 627.48 706.86 624.48"/><polyline class="cls-20" points="711.42 624.48 711.78 624.48 711.78 627.48 711.42 627.48 711.42 624.48"/><polyline class="cls-20" points="715.26 624.48 715.62 624.48 715.62 627.48 715.26 627.48 715.26 624.48"/><polyline class="cls-20" points="703.62 624.48 703.98 624.48 703.98 627.48 703.62 627.48 703.62 624.48"/><polyline class="cls-20" points="720.18 624.48 720.54 624.48 720.54 627.48 720.18 627.48 720.18 624.48"/><polyline class="cls-20" points="724.74 624.48 725.1 624.48 725.1 627.48 724.74 627.48 724.74 624.48"/><polyline class="cls-20" points="728.46 624.48 728.82 624.48 728.82 627.48 728.46 627.48 728.46 624.48"/><polyline class="cls-20" points="731.94 624.48 732.3 624.48 732.3 627.48 731.94 627.48 731.94 624.48"/><polyline class="cls-20" points="736.26 624.48 736.62 624.48 736.62 627.48 736.26 627.48 736.26 624.48"/><polyline class="cls-20" points="742.38 624.48 742.74 624.48 742.74 627.48 742.38 627.48 742.38 624.48"/><polyline class="cls-20" points="746.46 624.48 746.82 624.48 746.82 627.48 746.46 627.48 746.46 624.48"/><polyline class="cls-20" points="748.98 624.48 749.34 624.48 749.34 627.48 748.98 627.48 748.98 624.48"/><line class="cls-20" x1="569.22" y1="501.72" x2="569.22" y2="544.08"/><line class="cls-20" x1="569.22" y1="562.08" x2="569.22" y2="562.08"/><rect x="569.22" y="561.96" width="0.12" height="0.12"/><line class="cls-20" x1="569.22" y1="580.08" x2="569.22" y2="616.08"/><line class="cls-20" x1="569.22" y1="634.08" x2="569.22" y2="634.08"/><rect x="569.22" y="633.96" width="0.12" height="0.12"/><line class="cls-20" x1="569.22" y1="652.2" x2="569.22" y2="688.2"/><line class="cls-20" x1="569.22" y1="706.2" x2="569.22" y2="706.2"/><rect x="569.22" y="706.08" width="0.12" height="0.12"/><line class="cls-20" x1="569.22" y1="724.2" x2="569.22" y2="760.2"/><line class="cls-20" x1="569.22" y1="778.2" x2="569.22" y2="778.2"/><rect x="569.22" y="778.08" width="0.12" height="0.12"/><line class="cls-20" x1="569.22" y1="796.2" x2="569.22" y2="832.2"/><line class="cls-20" x1="569.22" y1="850.2" x2="569.22" y2="850.2"/><rect x="569.22" y="850.08" width="0.12" height="0.12"/><line class="cls-20" x1="569.22" y1="868.2" x2="569.22" y2="904.2"/><line class="cls-20" x1="569.22" y1="922.2" x2="569.22" y2="922.2"/><rect x="569.22" y="922.08" width="0.12" height="0.12"/><line class="cls-20" x1="569.22" y1="940.2" x2="569.22" y2="976.2"/><line class="cls-20" x1="569.22" y1="994.2" x2="569.22" y2="994.2"/><rect x="569.22" y="994.08" width="0.12" height="0.12"/><line class="cls-20" x1="569.22" y1="1012.2" x2="569.22" y2="1054.68"/><line class="cls-20" x1="1034.1" y1="501.72" x2="1034.1" y2="544.08"/><line class="cls-20" x1="1034.1" y1="562.08" x2="1034.1" y2="562.08"/><rect x="1034.1" y="561.96" width="0.12" height="0.12"/><line class="cls-20" x1="1034.1" y1="580.08" x2="1034.1" y2="616.08"/><line class="cls-20" x1="1034.1" y1="634.08" x2="1034.1" y2="634.08"/><rect x="1034.1" y="633.96" width="0.12" height="0.12"/><line class="cls-20" x1="1034.1" y1="652.2" x2="1034.1" y2="688.2"/><line class="cls-20" x1="1034.1" y1="706.2" x2="1034.1" y2="706.2"/><rect x="1034.1" y="706.08" width="0.12" height="0.12"/><line class="cls-20" x1="1034.1" y1="724.2" x2="1034.1" y2="760.2"/><line class="cls-20" x1="1034.1" y1="778.2" x2="1034.1" y2="778.2"/><rect x="1034.1" y="778.08" width="0.12" height="0.12"/><line class="cls-20" x1="1034.1" y1="796.2" x2="1034.1" y2="832.2"/><line class="cls-20" x1="1034.1" y1="850.2" x2="1034.1" y2="850.2"/><rect x="1034.1" y="850.08" width="0.12" height="0.12"/><line class="cls-20" x1="1034.1" y1="868.2" x2="1034.1" y2="904.2"/><line class="cls-20" x1="1034.1" y1="922.2" x2="1034.1" y2="922.2"/><rect x="1034.1" y="922.08" width="0.12" height="0.12"/><line class="cls-20" x1="1034.1" y1="940.2" x2="1034.1" y2="976.2"/><line class="cls-20" x1="1034.1" y1="994.2" x2="1034.1" y2="994.2"/><rect x="1034.1" y="994.08" width="0.12" height="0.12"/><line class="cls-20" x1="1034.1" y1="1012.2" x2="1034.1" y2="1054.68"/></g><g class="cls-24"><text class="cls-25" transform="translate(563.1 1165.56)">SEZIONE DD&apos;</text></g><g class="cls-19"><circle class="cls-23" cx="1034.82" cy="1091.28" r="14.28" transform="translate(-338.84 479.08) rotate(-22.5)"/></g><g class="cls-24"><text class="cls-26" transform="translate(1029.54 1097.04)">1</text></g><g class="cls-19"><circle class="cls-23" cx="571.86" cy="1088.88" r="14.28" transform="translate(-487.05 463.27) rotate(-31.72)"/></g><g class="cls-24"><text class="cls-26" transform="translate(568.14 1094.64)">2</text></g><g class="cls-19"><line class="cls-20" x1="1022.22" y1="971.88" x2="1019.7" y2="971.88"/><line class="cls-20" x1="1013.46" y1="971.88" x2="979.02" y2="971.88"/><line class="cls-20" x1="975.78" y1="971.88" x2="729.9" y2="971.88"/><line class="cls-20" x1="723.54" y1="971.88" x2="670.14" y2="971.88"/><line class="cls-20" x1="652.26" y1="981.84" x2="723.54" y2="981.84"/><line class="cls-20" x1="729.9" y1="981.84" x2="975.78" y2="981.84"/><line class="cls-20" x1="978.66" y1="981.84" x2="1013.34" y2="981.84"/><line class="cls-20" x1="1019.7" y1="981.84" x2="1022.22" y2="981.84"/><line class="cls-20" x1="658.86" y1="981.84" x2="658.86" y2="983.28"/><line class="cls-20" x1="736.38" y1="981.84" x2="736.38" y2="983.28"/><line class="cls-20" x1="813.9" y1="981.84" x2="813.9" y2="983.28"/><line class="cls-20" x1="891.42" y1="981.84" x2="891.42" y2="983.28"/><line class="cls-20" x1="968.82" y1="981.84" x2="968.82" y2="983.28"/><line class="cls-20" x1="985.62" y1="866.16" x2="985.62" y2="850.2"/><line class="cls-20" x1="985.62" y1="831.84" x2="985.62" y2="831.84"/><rect x="985.62" y="831.72" width="0.12" height="0.12"/><polyline class="cls-20" points="976.74 850.2 995.22 850.2 995.22 831.84 976.74 831.84 976.74 850.2"/><polyline class="cls-20" points="985.62 873.72 985.62 850.2 986.82 850.2 986.82 873.72"/><polyline class="cls-20" points="977.58 874.08 983.34 874.08 983.34 868.8 977.58 868.8 977.58 874.08"/><polyline class="cls-20" points="983.34 873.72 988.5 873.72 988.5 874.08"/><line class="cls-21" x1="538.5" y1="637.68" x2="538.5" y2="615.24"/><line class="cls-21" x1="538.5" y1="597.24" x2="538.5" y2="597.24"/><line class="cls-21" x1="538.5" y1="579.12" x2="538.5" y2="556.68"/><line class="cls-21" x1="538.5" y1="1034.28" x2="538.5" y2="1011.72"/><line class="cls-21" x1="538.5" y1="993.72" x2="538.5" y2="993.72"/><line class="cls-21" x1="538.5" y1="975.72" x2="538.5" y2="953.16"/><line class="cls-21" x1="528.42" y1="998.16" x2="568.5" y2="998.16"/><line class="cls-21" x1="586.5" y1="998.16" x2="586.5" y2="998.16"/><line class="cls-21" x1="604.5" y1="998.16" x2="640.5" y2="998.16"/><line class="cls-21" x1="658.5" y1="998.16" x2="658.5" y2="998.16"/><line class="cls-21" x1="676.5" y1="998.16" x2="712.5" y2="998.16"/><line class="cls-21" x1="730.5" y1="998.16" x2="730.5" y2="998.16"/><line class="cls-21" x1="748.5" y1="998.16" x2="784.5" y2="998.16"/><line class="cls-21" x1="802.5" y1="998.16" x2="802.5" y2="998.16"/><line class="cls-21" x1="820.5" y1="998.16" x2="856.5" y2="998.16"/><line class="cls-21" x1="874.5" y1="998.16" x2="874.5" y2="998.16"/><line class="cls-21" x1="892.5" y1="998.16" x2="928.5" y2="998.16"/><line class="cls-21" x1="946.5" y1="998.16" x2="946.5" y2="998.16"/><line class="cls-21" x1="964.5" y1="998.16" x2="1000.5" y2="998.16"/><line class="cls-21" x1="1018.62" y1="998.16" x2="1018.62" y2="998.16"/><line class="cls-21" x1="1036.62" y1="998.16" x2="1076.58" y2="998.16"/><polyline class="cls-22" points="822.06 610.8 822.06 615.12 805.86 615.12 805.86 610.8"/><line class="cls-22" x1="813.66" y1="660.36" x2="813.66" y2="660.36"/><polyline class="cls-22" points="813.66 653.52 813.66 615.12 814.98 615.12 814.98 653.52"/><circle class="cls-22" cx="815.46" cy="688.68" r="28.32" transform="translate(-115.52 166.64) rotate(-10.9)"/><line class="cls-22" x1="813.66" y1="660.36" x2="813.66" y2="660.36"/><polyline class="cls-22" points="815.94 660.36 812.94 660.36 812.94 653.52 815.94 653.52 815.94 660.36"/><line class="cls-22" x1="805.5" y1="662.16" x2="825.42" y2="662.16"/><line class="cls-23" x1="581.46" y1="1008.6" x2="581.46" y2="1038.6"/><line class="cls-23" x1="1022.22" y1="1011.96" x2="1022.22" y2="1038.6"/><line class="cls-23" x1="578.58" y1="1035.72" x2="1025.1" y2="1035.72"/><line class="cls-23" x1="583.62" y1="1033.68" x2="579.3" y2="1037.88"/><line class="cls-23" x1="1020.18" y1="1037.88" x2="1024.38" y2="1033.68"/></g><g class="cls-27"><text class="cls-28" transform="translate(795.3 1032.84)">310</text></g><g class="cls-19"><line class="cls-23" x1="1046.82" y1="588.36" x2="1102.14" y2="588.36"/><line class="cls-23" x1="1046.82" y1="998.04" x2="1102.14" y2="998.04"/><line class="cls-23" x1="1099.26" y1="585.6" x2="1099.26" y2="1000.92"/><line class="cls-23" x1="1101.42" y1="590.52" x2="1097.22" y2="586.32"/><line class="cls-23" x1="1097.22" y1="996" x2="1101.42" y2="1000.2"/></g><g class="cls-27"><text class="cls-28" transform="translate(1102.26 786.72) rotate(90)">290</text></g><g class="cls-19"><line class="cls-23" x1="1046.82" y1="588.36" x2="1078.5" y2="588.36"/><line class="cls-23" x1="1046.82" y1="610.92" x2="1078.5" y2="610.92"/><line class="cls-23" x1="1075.62" y1="585.6" x2="1075.62" y2="613.68"/><line class="cls-23" x1="1077.78" y1="590.52" x2="1073.46" y2="586.32"/><line class="cls-23" x1="1073.46" y1="608.76" x2="1077.78" y2="612.96"/></g><g class="cls-27"><text class="cls-28" transform="translate(1078.5 594.96) rotate(90)">15</text></g><g class="cls-19"><line class="cls-23" x1="1046.82" y1="610.92" x2="1078.5" y2="610.92"/><line class="cls-23" x1="1046.82" y1="983.28" x2="1078.5" y2="983.28"/><line class="cls-23" x1="1075.62" y1="608.04" x2="1075.62" y2="986.04"/><line class="cls-23" x1="1077.78" y1="612.96" x2="1073.46" y2="608.76"/><line class="cls-23" x1="1073.46" y1="981.12" x2="1077.78" y2="985.32"/></g><g class="cls-27"><text class="cls-28" transform="translate(1078.5 790.56) rotate(90)">265</text></g><g class="cls-19"><path d="M449.94,546.12l-7.08.6v-.6h7.08m0,.6v-.6l-7.08.6h7.08"/><path class="cls-29" d="M449.94,546.12l-7.08.6v-.6h7.08m0,.6v-.6l-7.08.6h7.08"/></g><g class="cls-27"><text class="cls-30" transform="translate(442.14 478.08)">E</text></g><g class="cls-19"><path d="M450.66,1396.8,449.22,266.64h1.44V1396.8m-1.44,0h1.44L449.22,266.64V1396.8"/><path class="cls-29" d="M450.66,1396.8,449.22,266.64h1.44V1396.8m-1.44,0h1.44L449.22,266.64V1396.8"/><path d="M442.86,971.88l7.08-.48v.48h-7.08m0-.48v.48l7.08-.48h-7.08"/><path class="cls-29" d="M442.86,971.88l7.08-.48v.48h-7.08m0-.48v.48l7.08-.48h-7.08"/><path d="M442.86,830.16l7.08-.48v.48h-7.08m0-.48v.48l7.08-.48h-7.08"/><path class="cls-29" d="M442.86,830.16l7.08-.48v.48h-7.08m0-.48v.48l7.08-.48h-7.08"/><path d="M442.86,688.44l7.08-.48v.48h-7.08m0-.48v.48l7.08-.48h-7.08"/><path class="cls-29" d="M442.86,688.44l7.08-.48v.48h-7.08m0-.48v.48l7.08-.48h-7.08"/><path d="M442.86,546.72l7.08-.6v.6h-7.08m0-.6v.6l7.08-.6h-7.08"/><path class="cls-29" d="M442.86,546.72l7.08-.6v.6h-7.08m0-.6v.6l7.08-.6h-7.08"/><path d="M442.86,405l7.08-.6v.6h-7.08m0-.6v.6l7.08-.6h-7.08"/><path class="cls-29" d="M442.86,405l7.08-.6v.6h-7.08m0-.6v.6l7.08-.6h-7.08"/><path d="M442.86,1113.6l7.08-.48v.48h-7.08m0-.48v.48l7.08-.48h-7.08"/><path class="cls-29" d="M442.86,1113.6l7.08-.48v.48h-7.08m0-.48v.48l7.08-.48h-7.08"/></g><g class="cls-27"><text class="cls-30" transform="translate(441.9 1045.08)">F</text></g><g class="cls-27"><text class="cls-30" transform="translate(441.78 903.36)">E</text></g><g class="cls-27"><text class="cls-30" transform="translate(441.54 761.52)">D</text></g><g class="cls-27"><text class="cls-30" transform="translate(441.66 619.8)">C</text></g><g class="cls-27"><text class="cls-30" transform="translate(441.78 478.08)">B</text></g><g class="cls-27"><text class="cls-30" transform="translate(442.02 338.28)">A</text></g><g class="cls-27"><text class="cls-30" transform="translate(441.66 1186.8)">G</text></g><g class="cls-19"><path d="M449.94,267.36l1583.28-1.44v1.44H449.94m0-1.44v1.44l1583.28-1.44H449.94"/><path class="cls-29" d="M449.94,267.36l1583.28-1.44v1.44H449.94m0-1.44v1.44l1583.28-1.44H449.94"/><path d="M1175.34,259l.48,7.08h-.48V259m.48,0h-.48l.48,7.08V259"/><path class="cls-29" d="M1175.34,259l.48,7.08h-.48V259m.48,0h-.48l.48,7.08V259"/><path d="M1033.62,259l.48,7.08h-.48V259m.48,0h-.48l.48,7.08V259"/><path class="cls-29" d="M1033.62,259l.48,7.08h-.48V259m.48,0h-.48l.48,7.08V259"/><path d="M891.9,259l.48,7.08h-.48V259m.48,0h-.48l.48,7.08V259"/><path class="cls-29" d="M891.9,259l.48,7.08h-.48V259m.48,0h-.48l.48,7.08V259"/><path d="M750.18,259l.48,7.08h-.48V259m.48,0h-.48l.48,7.08V259"/><path class="cls-29" d="M750.18,259l.48,7.08h-.48V259m.48,0h-.48l.48,7.08V259"/><path d="M608.46,259l.48,7.08h-.48V259m.48,0h-.48l.48,7.08V259"/><path class="cls-29" d="M608.46,259l.48,7.08h-.48V259m.48,0h-.48l.48,7.08V259"/></g><g class="cls-27"><text class="cls-30" transform="translate(1102.74 262.68)">5</text></g><g class="cls-27"><text class="cls-30" transform="translate(961.02 262.68)">4</text></g><g class="cls-27"><text class="cls-30" transform="translate(819.3 262.68)">3</text></g><g class="cls-27"><text class="cls-30" transform="translate(677.58 262.68)">2</text></g><g class="cls-27"><text class="cls-30" transform="translate(522.66 262.68)">1</text></g></g></svg>