<svg xmlns="http://www.w3.org/2000/svg" xmlns:xlink="http://www.w3.org/1999/xlink" viewBox="0 0 1190.6 1190.6"><defs><style>.cls-1,.cls-17,.cls-18,.cls-19,.cls-20,.cls-26,.cls-3,.cls-4,.cls-5{fill:none;}.cls-2{fill:#ff0;}.cls-3{stroke:#1bd715;}.cls-26,.cls-3,.cls-4,.cls-5{stroke-miterlimit:10;}.cls-4{stroke:red;}.cls-5{stroke:#2c0fd6;}.cls-6{font-size:60px;fill:#18a311;font-family:OpenSansCondensed-Bold, Open Sans Condensed;font-weight:700;}.cls-7{font-size:16px;font-family:OpenSansCondensed-Light, Open Sans Condensed;}.cls-8{font-size:10px;font-family:EBGaramond-Italic, EB Garamond;font-style:italic;}.cls-9{letter-spacing:-0.05em;}.cls-10{letter-spacing:-0.02em;}.cls-11{letter-spacing:-0.02em;}.cls-12{letter-spacing:-0.02em;}.cls-13{clip-path:url(#clip-path);}.cls-14{clip-path:url(#clip-path-2);}.cls-15{clip-path:url(#clip-path-3);}.cls-16{clip-path:url(#clip-path-4);}.cls-17,.cls-18,.cls-19,.cls-20,.cls-26{stroke:#000;}.cls-17,.cls-18,.cls-19,.cls-20{stroke-linecap:round;stroke-linejoin:round;}.cls-17{stroke-width:0.24px;}.cls-18{stroke-width:0.96px;}.cls-19{stroke-width:0.6px;}.cls-20,.cls-26{stroke-width:0.12px;}.cls-21{clip-path:url(#clip-path-5);}.cls-22{font-size:29.96px;}.cls-22,.cls-23,.cls-25,.cls-27{font-family:ArialMT, Arial;}.cls-23{font-size:18.05px;}.cls-24{clip-path:url(#clip-path-11);}.cls-25{font-size:7.92px;}.cls-27{font-size:7.13px;}</style><clipPath id="clip-path"><rect class="cls-1" x="60.76" y="60.52" width="239.53" height="239.53"/></clipPath><clipPath id="clip-path-2"><circle class="cls-1" cx="971.32" cy="206.28" r="141.73" transform="translate(138.63 747.24) rotate(-45)"/></clipPath><clipPath id="clip-path-3"><rect class="cls-1" x="496.8" y="471.3" width="629.87" height="658.53"/></clipPath><clipPath id="clip-path-4"><rect class="cls-1" x="372.49" y="243.25" width="1678.08" height="1184.88"/></clipPath><clipPath id="clip-path-5"><rect class="cls-1" x="493.93" y="374.05" width="1404.84" height="887.88"/></clipPath><clipPath id="clip-path-11"><rect class="cls-1" x="372.49" y="243.37" width="1677.96" height="1184.76"/></clipPath></defs><title>Tavola disegno 1</title><g id="Livello_1" data-name="Livello 1"><g id="Livello_1-2" data-name="Livello 1"><g id="Livello_2" data-name="Livello 2"><g id="Colore"><rect class="cls-2" width="1190.6" height="1190.6"/></g><rect class="cls-3" x="889.9" y="889.66" width="239.53" height="239.53"/><rect class="cls-3" x="613.52" y="889.66" width="239.53" height="239.53"/><rect class="cls-3" x="337.14" y="889.66" width="239.53" height="239.53"/><rect class="cls-3" x="60.77" y="889.66" width="239.53" height="239.53"/><rect class="cls-3" x="889.9" y="613.28" width="239.53" height="239.53"/><rect class="cls-3" x="613.52" y="613.28" width="239.53" height="239.53"/><rect class="cls-3" x="337.14" y="613.28" width="239.53" height="239.53"/><rect class="cls-3" x="60.77" y="613.28" width="239.53" height="239.53"/><rect class="cls-3" x="889.9" y="336.9" width="239.53" height="239.53"/><rect class="cls-3" x="613.52" y="336.9" width="239.53" height="239.53"/><rect class="cls-3" x="337.14" y="336.9" width="239.53" height="239.53"/><rect class="cls-3" x="60.77" y="336.9" width="239.53" height="239.53"/><rect class="cls-3" x="889.9" y="60.52" width="239.53" height="239.53"/><rect class="cls-3" x="613.52" y="60.52" width="239.53" height="239.53"/><rect class="cls-3" x="337.14" y="60.52" width="239.53" height="239.53"/><rect class="cls-3" x="60.77" y="60.52" width="239.53" height="239.53"/></g><g id="Livello_3" data-name="Livello 3"><rect class="cls-4" x="945.17" y="944.93" width="184.25" height="184.25"/><rect class="cls-4" x="724.07" y="944.93" width="184.25" height="184.25"/><rect class="cls-4" x="502.97" y="944.93" width="184.25" height="184.25"/><rect class="cls-4" x="281.86" y="944.93" width="184.25" height="184.25"/><rect class="cls-4" x="60.76" y="944.93" width="184.25" height="184.25"/><rect class="cls-4" x="945.17" y="723.83" width="184.25" height="184.25"/><rect class="cls-4" x="724.07" y="723.83" width="184.25" height="184.25"/><rect class="cls-4" x="502.97" y="723.83" width="184.25" height="184.25"/><rect class="cls-4" x="281.86" y="723.83" width="184.25" height="184.25"/><rect class="cls-4" x="60.76" y="723.83" width="184.25" height="184.25"/><rect class="cls-4" x="945.17" y="502.73" width="184.25" height="184.25"/><rect class="cls-4" x="724.07" y="502.73" width="184.25" height="184.25"/><rect class="cls-4" x="502.97" y="502.73" width="184.25" height="184.25"/><rect class="cls-4" x="281.86" y="502.73" width="184.25" height="184.25"/><rect class="cls-4" x="60.76" y="502.73" width="184.25" height="184.25"/><rect class="cls-4" x="945.17" y="281.63" width="184.25" height="184.25"/><rect class="cls-4" x="724.07" y="281.63" width="184.25" height="184.25"/><rect class="cls-4" x="502.97" y="281.63" width="184.25" height="184.25"/><rect class="cls-4" x="281.86" y="281.63" width="184.25" height="184.25"/><rect class="cls-4" x="60.76" y="281.63" width="184.25" height="184.25"/><rect class="cls-4" x="945.17" y="60.52" width="184.25" height="184.25"/><rect class="cls-4" x="724.07" y="60.52" width="184.25" height="184.25"/><rect class="cls-4" x="502.97" y="60.52" width="184.25" height="184.25"/><rect class="cls-4" x="281.86" y="60.52" width="184.25" height="184.25"/><rect class="cls-4" x="60.76" y="60.52" width="184.25" height="184.25"/></g><g id="Livello_4" data-name="Livello 4"><rect class="cls-5" x="982.02" y="981.78" width="147.4" height="147.4"/><rect class="cls-5" x="797.77" y="981.78" width="147.4" height="147.4"/><rect class="cls-5" x="613.51" y="981.78" width="147.4" height="147.4"/><rect class="cls-5" x="429.26" y="981.78" width="147.4" height="147.4"/><rect class="cls-5" x="245.01" y="981.78" width="147.4" height="147.4"/><rect class="cls-5" x="60.76" y="981.78" width="147.4" height="147.4"/><rect class="cls-5" x="982.02" y="797.53" width="147.4" height="147.4"/><rect class="cls-5" x="797.77" y="797.53" width="147.4" height="147.4"/><rect class="cls-5" x="613.51" y="797.53" width="147.4" height="147.4"/><rect class="cls-5" x="429.26" y="797.53" width="147.4" height="147.4"/><rect class="cls-5" x="245.01" y="797.53" width="147.4" height="147.4"/><rect class="cls-5" x="60.76" y="797.53" width="147.4" height="147.4"/><rect class="cls-5" x="982.02" y="613.28" width="147.4" height="147.4"/><rect class="cls-5" x="797.77" y="613.28" width="147.4" height="147.4"/><rect class="cls-5" x="613.51" y="613.28" width="147.4" height="147.4"/><rect class="cls-5" x="429.26" y="613.28" width="147.4" height="147.4"/><rect class="cls-5" x="245.01" y="613.28" width="147.4" height="147.4"/><rect class="cls-5" x="60.76" y="613.28" width="147.4" height="147.4"/><rect class="cls-5" x="982.02" y="429.02" width="147.4" height="147.4"/><rect class="cls-5" x="797.77" y="429.02" width="147.4" height="147.4"/><rect class="cls-5" x="613.51" y="429.02" width="147.4" height="147.4"/><rect class="cls-5" x="429.26" y="429.02" width="147.4" height="147.4"/><rect class="cls-5" x="245.01" y="429.02" width="147.4" height="147.4"/><rect class="cls-5" x="60.76" y="429.02" width="147.4" height="147.4"/><rect class="cls-5" x="982.02" y="244.77" width="147.4" height="147.4"/><rect class="cls-5" x="797.77" y="244.77" width="147.4" height="147.4"/><rect class="cls-5" x="613.51" y="244.77" width="147.4" height="147.4"/><rect class="cls-5" x="429.26" y="244.77" width="147.4" height="147.4"/><rect class="cls-5" x="245.01" y="244.77" width="147.4" height="147.4"/><rect class="cls-5" x="60.76" y="244.77" width="147.4" height="147.4"/><rect class="cls-5" x="982.02" y="60.52" width="147.4" height="147.4"/><rect class="cls-5" x="797.77" y="60.52" width="147.4" height="147.4"/><rect class="cls-5" x="613.51" y="60.52" width="147.4" height="147.4"/><rect class="cls-5" x="429.26" y="60.52" width="147.4" height="147.4"/><rect class="cls-5" x="245.01" y="60.52" width="147.4" height="147.4"/><rect class="cls-5" x="60.76" y="60.52" width="147.4" height="147.4"/></g></g></g><g id="Livello_2-2" data-name="Livello 2"><text class="cls-6" transform="translate(316.33 117.58)">Alessandro Leone</text><text class="cls-7" transform="translate(311.21 207.59)">Lorem ipsum dolor sit amet, consectetuer adipiscing elit, sed diam nonummy nibh <tspan x="0" y="24">euismod tincidunt ut laoreet dolore magna aliquam erat volutpat. Ut wisi enim ad </tspan><tspan x="0" y="48">minim veniam, quis nostrud exerci tation ullamcorper suscipit lobortis nisl ut aliquip </tspan><tspan x="0" y="72">ex ea commodo consequat. Duis autem vel eum iriure dolor in hendrerit in vulputa</tspan><tspan x="426.56" y="72">-</tspan><tspan x="0" y="96">te velit esse molestie consequat, vel illum dolore eu feugiat nulla facilisis at vero </tspan><tspan x="0" y="120">eros et accumsan et iusto odio dignissim qui blandit praesent luptatum zzril delenit </tspan><tspan x="0" y="144">augue duis dolore te feugait nulla facilisi.</tspan><tspan x="0" y="168">Lorem ipsum dolor sit amet, cons ectetuer adipiscing elit, sed diam nonummy nibh </tspan><tspan x="0" y="192">euismod tincidunt ut laoreet dolore magna aliquam erat volutpat. Ut wisi enim ad </tspan><tspan x="0" y="216">minim veniam, quis nostrud exerci tation ullamcorper suscipit lobortis nisl ut aliquip </tspan><tspan x="0" y="240">ex ea commodo consequat.</tspan></text><text class="cls-8" transform="translate(983.22 389.53)">L<tspan class="cls-9" x="5.83" y="0">’</tspan><tspan class="cls-10" x="7.53" y="0">a</tspan><tspan class="cls-11" x="12.24" y="0">l</tspan><tspan x="14.95" y="0">ba </tspan><tspan class="cls-11" x="26.35" y="0">i</tspan><tspan x="29.14" y="0">n C</tspan><tspan class="cls-10" x="42.72" y="0">a</tspan><tspan x="47.43" y="0">l</tspan><tspan class="cls-12" x="50.29" y="0">a</tspan><tspan x="55" y="0">bria</tspan></text><text class="cls-7" transform="translate(109.44 383.01)">Lorem ipsum dolor sit <tspan x="-19.63" y="24">amet, consectetuer adipiscing </tspan><tspan x="-29.69" y="48">elit, sed diam nonummy nibh </tspan><tspan x="-32.73" y="72">euismod tincidunt ut laoreet dolore </tspan><tspan x="-27.53" y="96">magna aliquam erat volutpat. Ut </tspan><tspan x="-15.17" y="120">wisi enim ad minim veniam, </tspan><tspan x="8.7" y="144">quis nostrud exerci </tspan></text><g id="Livello_2-2-2" data-name="Livello 2-2"><ellipse class="cls-1" cx="879.37" cy="470.29" rx="160.75" ry="164.34"/></g><g class="cls-15"><g class="cls-16"><line class="cls-17" x1="532.09" y1="592.81" x2="533.77" y2="591.13"/><line class="cls-17" x1="532.09" y1="602.77" x2="543.85" y2="591.13"/><line class="cls-17" x1="532.09" y1="612.85" x2="553.81" y2="591.13"/><line class="cls-17" x1="541.33" y1="613.57" x2="563.89" y2="591.13"/><line class="cls-17" x1="551.41" y1="613.57" x2="573.85" y2="591.13"/><line class="cls-17" x1="553.33" y1="621.73" x2="583.93" y2="591.13"/><line class="cls-17" x1="553.33" y1="631.69" x2="593.89" y2="591.13"/><line class="cls-17" x1="553.33" y1="641.77" x2="574.93" y2="620.05"/><line class="cls-17" x1="581.41" y1="613.57" x2="603.97" y2="591.13"/><line class="cls-17" x1="553.33" y1="651.73" x2="574.93" y2="630.13"/><line class="cls-17" x1="591.49" y1="613.57" x2="613.93" y2="591.13"/><line class="cls-17" x1="553.33" y1="661.81" x2="574.93" y2="640.09"/><line class="cls-17" x1="601.57" y1="613.57" x2="624.01" y2="591.13"/><line class="cls-17" x1="553.33" y1="671.89" x2="574.93" y2="650.17"/><line class="cls-17" x1="611.53" y1="613.57" x2="633.97" y2="591.13"/><line class="cls-17" x1="553.33" y1="681.85" x2="574.93" y2="660.13"/><line class="cls-17" x1="621.61" y1="613.57" x2="644.04" y2="591.13"/><line class="cls-17" x1="553.33" y1="691.93" x2="574.93" y2="670.21"/><line class="cls-17" x1="631.57" y1="613.57" x2="654.01" y2="591.13"/><line class="cls-17" x1="553.33" y1="701.89" x2="574.93" y2="680.17"/><line class="cls-17" x1="641.65" y1="613.57" x2="664.09" y2="591.13"/><line class="cls-17" x1="553.33" y1="711.97" x2="574.93" y2="690.25"/><line class="cls-17" x1="651.6" y1="613.57" x2="674.04" y2="591.13"/><line class="cls-17" x1="553.33" y1="721.93" x2="574.93" y2="700.21"/><line class="cls-17" x1="661.69" y1="613.57" x2="684.13" y2="591.13"/><line class="cls-17" x1="553.33" y1="732.01" x2="574.93" y2="710.29"/><line class="cls-17" x1="671.65" y1="613.57" x2="694.09" y2="591.13"/><line class="cls-17" x1="553.33" y1="741.97" x2="574.93" y2="720.37"/><line class="cls-17" x1="681.73" y1="613.57" x2="704.16" y2="591.13"/><line class="cls-17" x1="553.33" y1="752.05" x2="574.93" y2="730.33"/><line class="cls-17" x1="691.69" y1="613.57" x2="714.13" y2="591.13"/><line class="cls-17" x1="553.33" y1="762.01" x2="574.93" y2="740.41"/><line class="cls-17" x1="701.77" y1="613.57" x2="724.21" y2="591.13"/><line class="cls-17" x1="553.33" y1="772.09" x2="574.93" y2="750.37"/><line class="cls-17" x1="711.73" y1="613.57" x2="734.29" y2="591.13"/><line class="cls-17" x1="553.33" y1="782.05" x2="574.93" y2="760.45"/><line class="cls-17" x1="721.81" y1="613.57" x2="744.25" y2="591.13"/><line class="cls-17" x1="553.33" y1="792.13" x2="574.93" y2="770.41"/><line class="cls-17" x1="731.77" y1="613.57" x2="754.32" y2="591.13"/><line class="cls-17" x1="553.33" y1="802.09" x2="574.93" y2="780.49"/><line class="cls-17" x1="741.85" y1="613.57" x2="764.29" y2="591.13"/><line class="cls-17" x1="553.33" y1="812.17" x2="574.93" y2="790.45"/><line class="cls-17" x1="751.81" y1="613.57" x2="774.37" y2="591.13"/><line class="cls-17" x1="553.33" y1="822.13" x2="574.93" y2="800.53"/><line class="cls-17" x1="761.88" y1="613.57" x2="784.32" y2="591.13"/><line class="cls-17" x1="553.33" y1="832.21" x2="574.93" y2="810.49"/><line class="cls-17" x1="771.85" y1="613.57" x2="794.41" y2="591.13"/><line class="cls-17" x1="553.33" y1="842.29" x2="574.93" y2="820.57"/><line class="cls-17" x1="781.93" y1="613.57" x2="804.37" y2="591.13"/><line class="cls-17" x1="553.33" y1="852.25" x2="574.93" y2="830.53"/><line class="cls-17" x1="791.88" y1="613.57" x2="814.44" y2="591.13"/><line class="cls-17" x1="553.33" y1="862.33" x2="574.93" y2="840.61"/><line class="cls-17" x1="801.97" y1="613.57" x2="824.41" y2="591.13"/><line class="cls-17" x1="553.33" y1="872.29" x2="574.93" y2="850.57"/><line class="cls-17" x1="811.93" y1="613.57" x2="834.49" y2="591.13"/><line class="cls-17" x1="553.33" y1="882.37" x2="574.93" y2="860.65"/><line class="cls-17" x1="822.01" y1="613.57" x2="844.44" y2="591.13"/><line class="cls-17" x1="553.33" y1="892.33" x2="574.93" y2="870.73"/><line class="cls-17" x1="831.97" y1="613.57" x2="854.53" y2="591.13"/><line class="cls-17" x1="553.33" y1="902.41" x2="574.93" y2="880.69"/><line class="cls-17" x1="842.04" y1="613.57" x2="864.49" y2="591.13"/><line class="cls-17" x1="553.33" y1="912.37" x2="574.93" y2="890.77"/><line class="cls-17" x1="852.13" y1="613.57" x2="874.57" y2="591.13"/><line class="cls-17" x1="553.33" y1="922.45" x2="574.93" y2="900.73"/><line class="cls-17" x1="862.09" y1="613.57" x2="884.52" y2="591.13"/><line class="cls-17" x1="553.33" y1="932.41" x2="574.93" y2="910.81"/><line class="cls-17" x1="872.16" y1="613.57" x2="894.6" y2="591.13"/><line class="cls-17" x1="553.33" y1="942.49" x2="574.93" y2="920.77"/><line class="cls-17" x1="882.13" y1="613.57" x2="904.56" y2="591.13"/><line class="cls-17" x1="553.33" y1="952.45" x2="574.93" y2="930.85"/><line class="cls-17" x1="892.2" y1="613.57" x2="914.64" y2="591.13"/><line class="cls-17" x1="553.33" y1="962.53" x2="574.93" y2="940.81"/><line class="cls-17" x1="902.16" y1="613.57" x2="924.6" y2="591.13"/><line class="cls-17" x1="532.09" y1="993.73" x2="539.89" y2="986.05"/><line class="cls-17" x1="912.24" y1="613.57" x2="934.68" y2="591.13"/><line class="cls-17" x1="553.33" y1="972.49" x2="574.93" y2="950.89"/><line class="cls-17" x1="534.97" y1="1000.93" x2="549.85" y2="986.05"/><line class="cls-17" x1="922.2" y1="613.57" x2="944.64" y2="591.13"/><line class="cls-17" x1="553.33" y1="982.57" x2="574.93" y2="960.85"/><line class="cls-17" x1="545.05" y1="1000.93" x2="574.93" y2="970.93"/><line class="cls-17" x1="932.28" y1="613.57" x2="954.72" y2="591.13"/><line class="cls-17" x1="555.01" y1="1000.93" x2="574.93" y2="980.89"/><line class="cls-17" x1="942.24" y1="613.57" x2="964.8" y2="591.13"/><line class="cls-17" x1="565.09" y1="1000.93" x2="579.97" y2="986.05"/><line class="cls-17" x1="952.32" y1="613.57" x2="974.76" y2="591.13"/><line class="cls-17" x1="575.05" y1="1000.93" x2="589.93" y2="986.05"/><line class="cls-17" x1="962.28" y1="613.57" x2="984.84" y2="591.13"/><line class="cls-17" x1="585.13" y1="1000.93" x2="600.01" y2="986.05"/><line class="cls-17" x1="972.36" y1="613.57" x2="994.8" y2="591.13"/><line class="cls-17" x1="595.09" y1="1000.93" x2="609.97" y2="986.05"/><line class="cls-17" x1="982.32" y1="613.57" x2="1004.88" y2="591.13"/><line class="cls-17" x1="605.17" y1="1000.93" x2="620.05" y2="986.05"/><line class="cls-17" x1="992.4" y1="613.57" x2="1014.84" y2="591.13"/><line class="cls-17" x1="615.13" y1="1000.93" x2="630.01" y2="986.05"/><line class="cls-17" x1="1002.36" y1="613.57" x2="1024.92" y2="591.13"/><line class="cls-17" x1="625.21" y1="1000.93" x2="640.09" y2="986.05"/><line class="cls-17" x1="1012.44" y1="613.57" x2="1034.88" y2="591.13"/><line class="cls-17" x1="635.17" y1="1000.93" x2="650.04" y2="986.05"/><line class="cls-17" x1="1015.8" y1="620.29" x2="1037.52" y2="598.57"/><line class="cls-17" x1="645.25" y1="1000.93" x2="660.13" y2="986.05"/><line class="cls-17" x1="1015.8" y1="630.25" x2="1037.52" y2="608.53"/><line class="cls-17" x1="655.21" y1="1000.93" x2="670.09" y2="986.05"/><line class="cls-17" x1="1015.8" y1="640.33" x2="1037.52" y2="618.61"/><line class="cls-17" x1="665.29" y1="1000.93" x2="680.17" y2="986.05"/><line class="cls-17" x1="1015.8" y1="650.29" x2="1037.52" y2="628.57"/><line class="cls-17" x1="675.25" y1="1000.93" x2="690.13" y2="986.05"/><line class="cls-17" x1="1015.8" y1="660.37" x2="1037.52" y2="638.65"/><line class="cls-17" x1="685.32" y1="1000.93" x2="700.21" y2="986.05"/><line class="cls-17" x1="1015.8" y1="670.33" x2="1037.52" y2="648.61"/><line class="cls-17" x1="695.29" y1="1000.93" x2="710.16" y2="986.05"/><line class="cls-17" x1="1015.8" y1="680.41" x2="1037.52" y2="658.69"/><line class="cls-17" x1="705.37" y1="1000.93" x2="720.25" y2="986.05"/><line class="cls-17" x1="1015.8" y1="690.37" x2="1037.52" y2="668.77"/><line class="cls-17" x1="715.45" y1="1000.93" x2="730.21" y2="986.05"/><line class="cls-17" x1="1015.8" y1="700.45" x2="1037.52" y2="678.73"/><line class="cls-17" x1="725.41" y1="1000.93" x2="740.29" y2="986.05"/><line class="cls-17" x1="1015.8" y1="710.41" x2="1037.52" y2="688.81"/><line class="cls-17" x1="735.49" y1="1000.93" x2="750.37" y2="986.05"/><line class="cls-17" x1="1015.8" y1="720.49" x2="1037.52" y2="698.77"/><line class="cls-17" x1="745.45" y1="1000.93" x2="760.32" y2="986.05"/><line class="cls-17" x1="1015.8" y1="730.45" x2="1037.52" y2="708.85"/><line class="cls-17" x1="755.53" y1="1000.93" x2="770.41" y2="986.05"/><line class="cls-17" x1="1015.8" y1="740.53" x2="1037.52" y2="718.81"/><line class="cls-17" x1="765.49" y1="1000.93" x2="780.37" y2="986.05"/><line class="cls-17" x1="1015.8" y1="750.49" x2="1037.52" y2="728.89"/><line class="cls-17" x1="775.57" y1="1000.93" x2="790.44" y2="986.05"/><line class="cls-17" x1="1015.8" y1="760.57" x2="1037.52" y2="738.85"/><line class="cls-17" x1="785.53" y1="1000.93" x2="800.41" y2="986.05"/><line class="cls-17" x1="1015.8" y1="770.53" x2="1037.52" y2="748.93"/><line class="cls-17" x1="795.6" y1="1000.93" x2="810.49" y2="986.05"/><line class="cls-17" x1="1015.8" y1="780.61" x2="1037.52" y2="758.89"/><line class="cls-17" x1="805.57" y1="1000.93" x2="820.44" y2="986.05"/><line class="cls-17" x1="1015.8" y1="790.69" x2="1037.52" y2="768.97"/><line class="cls-17" x1="815.65" y1="1000.93" x2="830.53" y2="986.05"/><line class="cls-17" x1="1015.8" y1="800.65" x2="1037.52" y2="778.93"/><line class="cls-17" x1="825.6" y1="1000.93" x2="840.49" y2="986.05"/><line class="cls-17" x1="1015.8" y1="810.73" x2="1037.52" y2="789.01"/><line class="cls-17" x1="835.69" y1="1000.93" x2="850.57" y2="986.05"/><line class="cls-17" x1="1015.8" y1="820.69" x2="1037.52" y2="798.97"/><line class="cls-17" x1="845.65" y1="1000.93" x2="860.53" y2="986.05"/><line class="cls-17" x1="1015.8" y1="830.77" x2="1037.52" y2="809.05"/><line class="cls-17" x1="855.72" y1="1000.93" x2="870.6" y2="986.05"/><line class="cls-17" x1="1015.8" y1="840.73" x2="1037.52" y2="819.13"/><line class="cls-17" x1="865.69" y1="1000.93" x2="880.57" y2="986.05"/><line class="cls-17" x1="1015.8" y1="850.81" x2="1037.52" y2="829.09"/><line class="cls-17" x1="875.77" y1="1000.93" x2="890.64" y2="986.05"/><line class="cls-17" x1="1015.8" y1="860.77" x2="1037.52" y2="839.17"/><line class="cls-17" x1="885.72" y1="1000.93" x2="900.6" y2="986.05"/><line class="cls-17" x1="1015.8" y1="870.85" x2="1037.52" y2="849.13"/><line class="cls-17" x1="895.8" y1="1000.93" x2="910.68" y2="986.05"/><line class="cls-17" x1="1015.8" y1="880.81" x2="1037.52" y2="859.21"/><line class="cls-17" x1="905.76" y1="1000.93" x2="920.64" y2="986.05"/><line class="cls-17" x1="1015.8" y1="890.89" x2="1037.52" y2="869.17"/><line class="cls-17" x1="915.84" y1="1000.93" x2="930.72" y2="986.05"/><line class="cls-17" x1="1015.8" y1="900.85" x2="1037.52" y2="879.25"/><line class="cls-17" x1="925.8" y1="1000.93" x2="940.68" y2="986.05"/><line class="cls-17" x1="1015.8" y1="910.93" x2="1037.52" y2="889.21"/><line class="cls-17" x1="935.88" y1="1000.93" x2="950.76" y2="986.05"/><line class="cls-17" x1="1015.8" y1="920.89" x2="1037.52" y2="899.29"/><line class="cls-17" x1="945.84" y1="1000.93" x2="960.72" y2="986.05"/><line class="cls-17" x1="1015.8" y1="930.97" x2="1037.52" y2="909.25"/><line class="cls-17" x1="955.92" y1="1000.93" x2="970.8" y2="986.05"/><line class="cls-17" x1="1015.8" y1="941.05" x2="1037.52" y2="919.33"/><line class="cls-17" x1="966" y1="1000.93" x2="980.76" y2="986.05"/><line class="cls-17" x1="1015.8" y1="951.01" x2="1037.52" y2="929.29"/><line class="cls-17" x1="975.96" y1="1000.93" x2="990.84" y2="986.05"/><line class="cls-17" x1="1015.8" y1="961.09" x2="1037.52" y2="939.37"/><line class="cls-17" x1="986.04" y1="1000.93" x2="1000.92" y2="986.05"/><line class="cls-17" x1="1015.8" y1="971.05" x2="1037.52" y2="949.33"/><line class="cls-17" x1="996" y1="1000.93" x2="1010.88" y2="986.05"/><line class="cls-17" x1="1015.8" y1="981.13" x2="1037.52" y2="959.41"/><line class="cls-17" x1="1006.08" y1="1000.93" x2="1037.52" y2="969.37"/><line class="cls-17" x1="1016.04" y1="1000.93" x2="1037.52" y2="979.45"/><line class="cls-17" x1="1026.12" y1="1000.93" x2="1037.52" y2="989.53"/><line class="cls-17" x1="1036.08" y1="1000.93" x2="1037.52" y2="999.49"/><line class="cls-18" x1="1015.8" y1="613.57" x2="574.93" y2="613.57"/><line class="cls-18" x1="553.33" y1="613.57" x2="532.09" y2="613.57"/><polyline class="cls-18" points="532.09 591.13 1037.53 591.13 1037.53 613.57"/><line class="cls-18" x1="1037.52" y1="986.05" x2="1037.52" y2="1000.93"/><line class="cls-18" x1="529.81" y1="986.05" x2="553.33" y2="986.05"/><polyline class="cls-18" points="1015.8 986.05 574.92 986.05 574.92 613.57"/><line class="cls-18" x1="553.33" y1="613.57" x2="553.33" y2="986.05"/><line class="cls-18" x1="1015.8" y1="613.57" x2="1015.8" y2="986.05"/><line class="cls-18" x1="1037.52" y1="986.05" x2="1037.52" y2="613.57"/><line class="cls-19" x1="680.29" y1="945.37" x2="680.29" y2="913.57"/><polyline class="cls-19" points="641.64 910.69 641.64 908.05 574.92 908.05 574.92 986.05 639 986.05"/><polyline class="cls-19" points="574.92 908.05 641.64 908.05 641.64 910.69 574.92 910.69 574.92 908.05"/><polyline class="cls-19" points="639 986.05 639 910.69 641.64 910.69"/><polyline class="cls-19" points="680.28 945.37 680.28 913.57 677.64 916.45"/><line class="cls-19" x1="680.29" y1="945.37" x2="677.65" y2="945.37"/><line class="cls-19" x1="677.65" y1="916.45" x2="639.01" y2="916.45"/><polyline class="cls-19" points="639 945.37 677.64 945.37 677.64 916.45"/><polyline class="cls-19" points="663.73 980.05 663.73 948.25 663.73 980.05"/><line class="cls-19" x1="661.09" y1="951.13" x2="663.73" y2="948.25"/><line class="cls-19" x1="663.73" y1="980.05" x2="661.09" y2="980.05"/><line class="cls-19" x1="661.09" y1="951.13" x2="639.01" y2="951.13"/><polyline class="cls-19" points="639 980.05 661.09 980.05 661.09 951.13"/><polyline class="cls-19" points="645.85 916.45 645.85 716.65 574.92 716.65 574.92 986.05 645.85 986.05 645.85 980.05"/><line class="cls-19" x1="645.85" y1="951.13" x2="645.85" y2="945.37"/><polyline class="cls-19" points="574.92 716.65 645.85 716.65 645.85 722.65 574.92 722.65 574.92 716.65"/><line class="cls-17" x1="1006.92" y1="845.65" x2="1008.36" y2="844.21"/><line class="cls-17" x1="1006.92" y1="847.93" x2="1010.64" y2="844.21"/><line class="cls-17" x1="1006.92" y1="850.21" x2="1012.92" y2="844.21"/><line class="cls-17" x1="1006.92" y1="852.49" x2="1013.28" y2="846.13"/><line class="cls-17" x1="1006.92" y1="854.77" x2="1013.28" y2="848.41"/><line class="cls-17" x1="1006.92" y1="857.17" x2="1013.28" y2="850.81"/><line class="cls-17" x1="1006.92" y1="859.45" x2="1013.28" y2="853.09"/><line class="cls-17" x1="1006.92" y1="861.73" x2="1013.28" y2="855.37"/><line class="cls-17" x1="1006.92" y1="864.01" x2="1013.28" y2="857.65"/><line class="cls-17" x1="1006.92" y1="866.41" x2="1013.28" y2="859.93"/><line class="cls-17" x1="1006.92" y1="868.69" x2="1013.28" y2="862.33"/><line class="cls-17" x1="1006.92" y1="870.97" x2="1013.28" y2="864.61"/><line class="cls-17" x1="1006.92" y1="873.25" x2="1013.28" y2="866.89"/><line class="cls-17" x1="1006.92" y1="875.53" x2="1013.28" y2="869.17"/><line class="cls-17" x1="1006.92" y1="877.93" x2="1013.28" y2="871.45"/><line class="cls-17" x1="1006.92" y1="880.21" x2="1013.28" y2="873.85"/><line class="cls-17" x1="1006.92" y1="882.49" x2="1013.28" y2="876.13"/><line class="cls-17" x1="1006.92" y1="884.77" x2="1013.28" y2="878.41"/><line class="cls-17" x1="1006.92" y1="887.05" x2="1013.28" y2="880.69"/><line class="cls-17" x1="1006.92" y1="889.45" x2="1013.28" y2="882.97"/><line class="cls-17" x1="1006.92" y1="891.73" x2="1013.28" y2="885.37"/><line class="cls-17" x1="1006.92" y1="894.01" x2="1013.28" y2="887.65"/><line class="cls-17" x1="1006.92" y1="896.29" x2="1013.28" y2="889.93"/><line class="cls-17" x1="1006.92" y1="898.57" x2="1013.28" y2="892.21"/><line class="cls-17" x1="1006.92" y1="900.97" x2="1013.28" y2="894.61"/><line class="cls-17" x1="1006.92" y1="903.25" x2="1013.28" y2="896.89"/><line class="cls-17" x1="1006.92" y1="905.53" x2="1013.28" y2="899.17"/><line class="cls-17" x1="1006.92" y1="907.81" x2="1013.28" y2="901.45"/><line class="cls-17" x1="1006.92" y1="910.21" x2="1013.28" y2="903.73"/><line class="cls-17" x1="1006.92" y1="912.49" x2="1013.28" y2="906.13"/><line class="cls-17" x1="1006.92" y1="914.77" x2="1013.28" y2="908.41"/><line class="cls-17" x1="1006.92" y1="917.05" x2="1013.28" y2="910.69"/><line class="cls-17" x1="1006.92" y1="919.33" x2="1013.28" y2="912.97"/><line class="cls-17" x1="1006.92" y1="921.73" x2="1013.28" y2="915.25"/><line class="cls-17" x1="1006.92" y1="924.01" x2="1013.28" y2="917.65"/><line class="cls-17" x1="1006.92" y1="926.29" x2="1013.28" y2="919.93"/><line class="cls-17" x1="1006.92" y1="928.57" x2="1013.28" y2="922.21"/><line class="cls-17" x1="1006.92" y1="930.85" x2="1013.28" y2="924.49"/><polyline class="cls-17" points="1006.92 933.25 1008 932.17 1013.28 926.89"/><polyline class="cls-17" points="1006.92 935.53 1010.28 932.17 1013.28 929.17"/><polyline class="cls-17" points="1006.92 937.81 1012.68 932.17 1013.28 931.45"/><line class="cls-17" x1="1006.92" y1="940.09" x2="1013.28" y2="933.73"/><line class="cls-17" x1="1006.92" y1="942.49" x2="1013.28" y2="936.01"/><line class="cls-17" x1="1006.92" y1="944.77" x2="1013.28" y2="938.41"/><line class="cls-17" x1="1006.92" y1="947.05" x2="1013.28" y2="940.69"/><line class="cls-17" x1="1006.92" y1="949.33" x2="1013.28" y2="942.97"/><line class="cls-17" x1="1006.92" y1="951.61" x2="1013.28" y2="945.25"/><line class="cls-17" x1="1006.92" y1="954.01" x2="1013.28" y2="947.53"/><line class="cls-17" x1="1006.92" y1="956.29" x2="1013.28" y2="949.93"/><line class="cls-17" x1="1006.92" y1="958.57" x2="1013.28" y2="952.21"/><line class="cls-17" x1="1006.92" y1="960.85" x2="1013.28" y2="954.49"/><line class="cls-17" x1="1006.92" y1="963.13" x2="1013.28" y2="956.77"/><line class="cls-17" x1="1006.92" y1="965.53" x2="1013.28" y2="959.05"/><line class="cls-17" x1="1006.92" y1="967.81" x2="1013.28" y2="961.45"/><line class="cls-17" x1="1006.92" y1="970.09" x2="1013.28" y2="963.73"/><line class="cls-17" x1="1006.92" y1="972.37" x2="1013.28" y2="966.01"/><line class="cls-17" x1="1006.92" y1="974.65" x2="1013.28" y2="968.29"/><line class="cls-17" x1="1006.92" y1="977.05" x2="1013.28" y2="970.69"/><line class="cls-17" x1="1006.92" y1="979.33" x2="1013.28" y2="972.97"/><line class="cls-17" x1="1006.92" y1="981.61" x2="1013.28" y2="975.25"/><line class="cls-17" x1="1006.92" y1="983.89" x2="1013.28" y2="977.53"/><line class="cls-17" x1="1007.16" y1="986.05" x2="1013.28" y2="979.81"/><line class="cls-17" x1="1009.44" y1="986.05" x2="1013.28" y2="982.21"/><line class="cls-17" x1="1011.84" y1="986.05" x2="1013.28" y2="984.49"/><polyline class="cls-19" points="1013.28 932.17 1013.28 986.05 1006.92 986.05 1006.92 932.17 1013.28 932.17"/><line class="cls-17" x1="717.13" y1="937.21" x2="717.37" y2="936.97"/><line class="cls-17" x1="717.13" y1="939.49" x2="720.97" y2="935.65"/><line class="cls-17" x1="717.13" y1="941.89" x2="723.13" y2="935.77"/><line class="cls-17" x1="717.13" y1="944.17" x2="723.25" y2="938.05"/><line class="cls-17" x1="717.13" y1="946.45" x2="723.25" y2="940.33"/><line class="cls-17" x1="717.13" y1="948.73" x2="723.25" y2="942.61"/><line class="cls-17" x1="717.13" y1="951.01" x2="723.25" y2="944.89"/><line class="cls-17" x1="717.13" y1="953.41" x2="723.25" y2="947.17"/><line class="cls-17" x1="717.13" y1="955.69" x2="723.37" y2="949.45"/><line class="cls-17" x1="717.13" y1="957.97" x2="723.37" y2="951.73"/><line class="cls-17" x1="717.13" y1="960.25" x2="723.37" y2="954.01"/><line class="cls-17" x1="717.13" y1="962.53" x2="723.37" y2="956.29"/><line class="cls-17" x1="717.13" y1="964.93" x2="723.37" y2="958.57"/><line class="cls-17" x1="717.13" y1="967.21" x2="723.49" y2="960.85"/><line class="cls-17" x1="717.13" y1="969.49" x2="723.49" y2="963.13"/><line class="cls-17" x1="717.13" y1="971.77" x2="723.49" y2="965.41"/><line class="cls-17" x1="717.13" y1="974.17" x2="723.49" y2="967.69"/><line class="cls-17" x1="717.13" y1="976.45" x2="723.49" y2="970.09"/><line class="cls-17" x1="717.13" y1="978.73" x2="723.49" y2="972.37"/><line class="cls-17" x1="717.13" y1="981.01" x2="723.49" y2="974.65"/><line class="cls-17" x1="717.13" y1="983.29" x2="723.49" y2="976.93"/><line class="cls-17" x1="717.13" y1="985.69" x2="723.49" y2="979.21"/><line class="cls-17" x1="719.04" y1="986.05" x2="723.49" y2="981.61"/><line class="cls-17" x1="721.32" y1="986.05" x2="723.49" y2="983.89"/><polyline class="cls-19" points="717.13 936.73 717.13 986.05 723.49 986.05 723.37 940.33"/><polyline class="cls-19" points="1013.28 844.21 1013.28 932.17 1006.92 932.17 1006.92 844.21 1013.28 844.21"/><line class="cls-17" x1="986.76" y1="947.05" x2="987.84" y2="945.97"/><line class="cls-17" x1="986.76" y1="949.33" x2="990.12" y2="945.97"/><line class="cls-17" x1="987.84" y1="950.53" x2="991.8" y2="946.57"/><line class="cls-17" x1="990.24" y1="950.53" x2="991.8" y2="948.85"/><polyline class="cls-19" points="991.8 945.97 986.76 945.97 986.76 950.53 991.8 950.53 991.8 945.97"/><line class="cls-17" x1="742.57" y1="946.69" x2="743.16" y2="945.97"/><line class="cls-17" x1="742.57" y1="947.89" x2="744.49" y2="945.97"/><line class="cls-17" x1="742.57" y1="949.21" x2="745.69" y2="945.97"/><line class="cls-17" x1="742.57" y1="950.41" x2="747.01" y2="945.97"/><line class="cls-17" x1="743.65" y1="950.53" x2="747.6" y2="946.57"/><line class="cls-17" x1="744.97" y1="950.53" x2="747.6" y2="947.89"/><line class="cls-17" x1="746.16" y1="950.53" x2="747.6" y2="949.09"/><line class="cls-17" x1="747.49" y1="950.53" x2="747.6" y2="950.41"/><line class="cls-19" x1="991.8" y1="945.97" x2="989.16" y2="945.73"/><line class="cls-19" x1="986.76" y1="945.97" x2="984.24" y2="945.73"/><line class="cls-19" x1="959.04" y1="945.73" x2="986.76" y2="950.53"/><polyline class="cls-19" points="742.57 945.97 747.61 945.97 747.61 950.53 742.57 950.53 742.57 945.97 745.57 945.73"/><line class="cls-19" x1="747.6" y1="945.97" x2="750.49" y2="945.73"/><line class="cls-19" x1="775.44" y1="945.73" x2="747.6" y2="950.53"/><line class="cls-19" x1="1006.92" y1="945.61" x2="723.49" y2="945.61"/><line class="cls-19" x1="723.85" y1="914.41" x2="1007.4" y2="914.53"/><polyline class="cls-19" points="1006.92 938.05 723.37 938.05 723.37 940.33 1006.92 940.33 1006.92 938.05"/><polyline class="cls-19" points="1004.16 874.69 1005.73 879.49 1006.57 884.89 1005.73 889.69 1004.4 896.65 1002.13 901.21 998.88 907.21 995.4 910.45 989.52 913.45 986.76 914.53 979.57 914.89 979.92 910.33 981.97 903.61 984 893.53 988.68 887.17 993.13 882.01 997.57 876.37 1004.4 874.69"/><polyline class="cls-19" points="1003.33 877.81 999 879.25 993.61 886.93 990.37 892.09"/><polyline class="cls-19" points="1000.68 891.01 998.76 897.25 995.28 902.17 992.88 905.05 985.57 906.49"/><polyline class="cls-19" points="929.76 910.21 916.45 910.21 896.76 909.73 888.61 910.81 870 910.21 862.45 909.13 853.92 909.49 846.73 910.21 838.92 909.13 820.33 908.17 805.68 908.77 795.37 909.49 781.33 909.49 769.8 909.13 757.09 910.57 738.97 909.85 718.33 908.89"/><line class="cls-19" x1="962.88" y1="908.29" x2="963.72" y2="914.53"/><polyline class="cls-19" points="928.8 914.53 929.52 910.45 932.28 908.29 941.04 907.69 950.88 907.21 960.73 908.29 962.88 908.29"/><line class="cls-20" x1="801.25" y1="630.01" x2="801.25" y2="664.21"/><polyline class="cls-20" points="801.25 718.69 801.25 851.29 743.28 851.29"/><line class="cls-20" x1="742.93" y1="630.01" x2="801.25" y2="630.01"/><line class="cls-20" x1="743.29" y1="634.21" x2="797.16" y2="634.21"/><line class="cls-20" x1="743.29" y1="847.21" x2="797.16" y2="847.21"/><line class="cls-20" x1="797.16" y1="740.65" x2="743.29" y2="740.65"/><line class="cls-20" x1="797.16" y1="744.85" x2="743.29" y2="744.85"/><line class="cls-20" x1="797.16" y1="634.21" x2="797.16" y2="665.77"/><line class="cls-20" x1="797.16" y1="717.25" x2="797.16" y2="847.21"/><line class="cls-17" x1="743.29" y1="714.25" x2="773.77" y2="665.17"/><line class="cls-17" x1="743.29" y1="769.45" x2="747.37" y2="764.77"/><line class="cls-17" x1="740.41" y1="835.09" x2="785.65" y2="784.33"/><polyline class="cls-17" points="937.21 719.89 874.33 719.89 874.33 763.81 937.21 763.81 937.21 719.89"/><polyline class="cls-17" points="935.88 721.33 875.76 721.33 875.76 762.37 935.88 762.37 935.88 721.33"/><polyline class="cls-17" points="885 756.01 883.09 751.69 888.73 751.45 888.97 744.97"/><polyline class="cls-17" points="922.45 748.45 913.21 745.81 908.16 749.05 899.76 745.33 891.13 733.69"/><polyline class="cls-17" points="903.61 733.69 917.28 733.45 920.28 731.05"/><polyline class="cls-17" points="904.92 719.89 906.49 719.89 906.49 717.97 904.92 717.97 904.92 719.89"/><line class="cls-19" x1="1006.92" y1="876.85" x2="1004.88" y2="876.85"/><line class="cls-19" x1="997.08" y1="876.85" x2="969.36" y2="876.85"/><line class="cls-19" x1="969.36" y1="880.21" x2="969.36" y2="914.53"/><line class="cls-19" x1="969.36" y1="947.53" x2="969.36" y2="986.05"/><line class="cls-19" x1="972.24" y1="986.05" x2="973.32" y2="948.13"/><line class="cls-19" x1="974.28" y1="914.53" x2="975.24" y2="880.21"/><line class="cls-19" x1="994.44" y1="880.21" x2="966.6" y2="880.21"/><line class="cls-19" x1="1008.24" y1="905.53" x2="999.72" y2="905.53"/><line class="cls-19" x1="981.36" y1="905.53" x2="974.52" y2="905.53"/><line class="cls-19" x1="1006.92" y1="955.09" x2="973.08" y2="955.09"/><line class="cls-19" x1="1006.92" y1="957.85" x2="973.08" y2="957.85"/><line class="cls-19" x1="969.36" y1="880.21" x2="969.36" y2="889.81"/><line class="cls-18" x1="972.24" y1="986.05" x2="969.36" y2="986.05"/><polyline class="cls-19" points="997.09 876.85 966.61 876.85 966.61 880.21"/><polyline class="cls-19" points="966.61 905.53 966.61 880.21 969.37 880.21 969.37 905.53 966.61 905.53 966.61 880.21"/><line class="cls-19" x1="723.37" y1="938.05" x2="723.37" y2="914.41"/><polyline class="cls-19" points="716.04 934.69 717.37 936.25 721.92 935.05"/><polyline class="cls-19" points="716.04 934.57 715.68 931.33 716.04 926.89 716.88 919.33 716.16 915.61 717 910.57 718.33 908.89"/><line class="cls-17" x1="987.6" y1="791.17" x2="989.04" y2="789.73"/><line class="cls-17" x1="987.6" y1="793.45" x2="991.32" y2="789.73"/><line class="cls-17" x1="987.6" y1="795.73" x2="993.6" y2="789.73"/><line class="cls-17" x1="988.8" y1="796.93" x2="995.88" y2="789.73"/><line class="cls-17" x1="991.08" y1="796.93" x2="998.28" y2="789.73"/><line class="cls-17" x1="993.48" y1="796.93" x2="1000.56" y2="789.73"/><line class="cls-17" x1="995.76" y1="796.93" x2="1002.84" y2="789.73"/><line class="cls-17" x1="998.04" y1="796.93" x2="1005.12" y2="789.73"/><line class="cls-17" x1="1000.32" y1="796.93" x2="1007.4" y2="789.73"/><line class="cls-17" x1="1002.6" y1="796.93" x2="1009.8" y2="789.73"/><line class="cls-17" x1="1005" y1="796.93" x2="1012.08" y2="789.73"/><line class="cls-17" x1="1007.28" y1="796.93" x2="1014.36" y2="789.73"/><line class="cls-17" x1="1009.56" y1="796.93" x2="1015.8" y2="790.69"/><line class="cls-17" x1="1011.84" y1="796.93" x2="1015.8" y2="792.97"/><line class="cls-17" x1="1014.24" y1="796.93" x2="1015.8" y2="795.25"/><polyline class="cls-19" points="1015.8 789.73 1015.8 796.93 987.61 796.93 987.61 789.73 1015.8 789.73"/><polyline class="cls-17" points="997.45 752.29 1003.21 752.29 1003.21 754.21 1003.21 755.77 1003.45 760.57 1005 764.17 1007.52 767.53 1009.57 772.81 1009.57 775.45 1009.21 777.97 1008.73 780.13 1007.28 784.69 1004.88 787.57"/><polyline class="cls-17" points="997.33 752.29 997.33 754.21 997.33 755.77 997.21 760.57 995.52 764.17 993.13 767.53 990.97 772.81 990.97 775.45 991.45 777.97 991.8 780.13 993.25 784.69 995.76 787.57"/><polyline class="cls-17" points="999 752.53 998.16 744.13 996.97 734.05 993.49 728.89 989.16 726.37 982.92 724.45 984.25 725.29 984 723.85 982.68 723.85 982.92 726.01 984 725.53 979.45 726.37 971.4 729.01 975.13 728.41 975.37 727.21 979.45 727.45 981.73 728.17 982.09 726.01 983.76 724.93 982.92 723.85 976.33 722.41 972.49 724.69 967.68 720.85 972 721.57 974.88 724.93 975.97 724.09 974.88 722.29 976.8 722.65 977.4 723.85 977.4 721.57 980.88 724.45 982.33 723.85 982.68 723.85 979.8 720.85 982.92 717.49 982.68 713.77 982.33 712.33 978.25 712.93 981.49 712.81 982.57 713.77 983.16 712.81 981.13 712.33 982.92 709.81 984.97 712.09 982.68 712.33 984.85 714.01 984.37 714.85 979.45 714.85 982.68 712.93 975.37 711.97 980.28 708.85 980.28 711.97"/><polyline class="cls-17" points="998.64 751.93 997.8 745.57 995.88 736.45 997.57 730.09 996.97 723.49 998.64 724.33 997.21 722.41 996.61 723.49 998.04 723.73 998.88 721.81 1001.04 720.61 1003.21 722.41 1004.4 724.93 1000.09 724.45 999.25 722.29 997.45 722.29 996.73 721.57 996.73 718.09 995.28 718.09 994.45 717.97 993.25 720.97 997.45 722.05 995.88 720.01 992.04 722.05 997.21 724.09 996.37 726.61 990.97 728.89 994.09 726.01 997.21 727.21 994.68 729.61 995.28 723.85 998.64 723.73 1000.09 726.97 995.28 726.73"/><polyline class="cls-17" points="998.16 752.17 1004.04 739.57 1008.13 734.05 1010.64 727.45 1014.49 721.81 1015.92 719.77 1014.13 719.41 1015.68 720.01"/><polyline class="cls-17" points="1015.8 709.09 1013.88 708.85 1010.76 711.49 1015.57 714.25 1015.33 711.49 1015.8 711.61"/><polyline class="cls-17" points="1015.8 714.73 1012.09 715.69 1015.57 718.69"/><line class="cls-18" x1="1015.56" y1="718.69" x2="1015.8" y2="718.69"/><polyline class="cls-17" points="1015.8 718.57 1014.49 719.17 1015.8 720.37"/><polyline class="cls-17" points="1015.57 718.09 1011.85 722.29 1009.92 725.77 1015.68 726.97 1011 721.57 1015.33 720.13"/><polyline class="cls-17" points="998.88 752.77 1002.97 747.61 1005.25 744.49 1008.13 741.85 1012.21 739.93 1014.49 735.49 1015.8 735.01"/><polyline class="cls-17" points="1015.8 732.73 1013.64 730.69 1009.8 732.37 1013.64 733.21 1012.45 729.85 1015.8 734.29"/><polyline class="cls-17" points="1015.8 735.01 1010.4 734.65 1015.8 734.77"/><polyline class="cls-17" points="1006.33 785.77 1015.8 785.77 1015.8 789.73 994.45 789.73 994.45 786.13"/><line class="cls-18" x1="1015.8" y1="789.37" x2="1003.32" y2="789.37"/><polyline class="cls-17" points="996.49 789.37 994.92 789.37 994.92 786.61"/><line class="cls-17" x1="1006.08" y1="786.13" x2="1015.8" y2="786.13"/><polyline class="cls-17" points="1008.25 781.69 1015.8 781.69 1015.8 785.77 1006.33 785.77"/><line class="cls-17" x1="1015.8" y1="785.29" x2="1006.68" y2="785.29"/><line class="cls-17" x1="1008.12" y1="782.17" x2="1015.8" y2="782.17"/><polyline class="cls-17" points="1009.21 777.73 1015.8 777.73 1015.8 781.69 1008.25 781.69"/><line class="cls-17" x1="1015.8" y1="781.33" x2="1008.36" y2="781.33"/><line class="cls-17" x1="1009.08" y1="778.09" x2="1015.8" y2="778.09"/><line class="cls-17" x1="1008.84" y1="779.53" x2="1013.76" y2="779.53"/><line class="cls-17" x1="1008.6" y1="780.49" x2="1015.68" y2="780.49"/><line class="cls-17" x1="1007.76" y1="783.13" x2="1014.12" y2="783.13"/><line class="cls-17" x1="1007.4" y1="784.33" x2="1015.32" y2="784.33"/><line class="cls-17" x1="1005.48" y1="786.73" x2="1015.32" y2="786.73"/><line class="cls-17" x1="1005.24" y1="787.09" x2="1014.72" y2="787.09"/><line class="cls-17" x1="1004.64" y1="787.81" x2="1014" y2="787.81"/><line class="cls-17" x1="1004.52" y1="788.17" x2="1014.84" y2="788.17"/><line class="cls-17" x1="1003.8" y1="789.01" x2="1015.08" y2="789.01"/><line class="cls-17" x1="1007.64" y1="783.61" x2="1014.6" y2="783.61"/><polyline class="cls-17" points="994.8 765.13 994.8 760.69 997.09 760.69"/><polyline class="cls-17" points="1003.45 760.69 1015.8 760.69 1015.8 789.73 994.8 789.73"/><polyline class="cls-17" points="994.8 765.13 994.8 756.85 997.33 756.85"/><polyline class="cls-17" points="1003.21 756.85 1015.8 756.85 1015.8 789.37 1003.33 789.37"/><polyline class="cls-17" points="1004.88 787.45 1004.4 788.41 1003.09 789.61"/><polyline class="cls-17" points="996.73 789.85 996.37 789.01 995.76 787.45"/><polyline class="cls-17" points="687.73 627.25 805.09 627.25 805.09 630.25 687.85 630.25 687.73 627.25"/><line class="cls-17" x1="687.85" y1="630.25" x2="687.85" y2="870.01"/><line class="cls-17" x1="704.77" y1="630.13" x2="704.77" y2="872.29"/><polyline class="cls-17" points="687.73 869.89 689.4 869.89 691.92 870.37 693.97 870.25 697.8 871.09 700.92 871.81 703.45 872.53 704.88 872.29"/><line class="cls-17" x1="695.53" y1="630.25" x2="695.53" y2="870.61"/><polyline class="cls-17" points="714.73 629.65 714.73 879.85 711.61 879.01 709.21 879.01 707.16 878.77 705.13 879.37 702.13 879.01 702.13 872.05"/><polyline class="cls-17" points="724.57 630.25 724.57 874.21 723.49 874.21 722.88 873.73 719.64 873.13 717.37 874.21 715.8 874.81 715.21 874.21"/><polyline class="cls-17" points="704.76 872.41 704.76 872.53 704.52 872.65 703.68 872.77 703.21 872.77 702.73 872.53 702.13 872.17"/><polyline class="cls-17" points="735.49 630.61 735.49 871.81 732.73 872.29 731.04 871.45 729 871.33 727.45 871.45 726.13 873.73 724.68 873.85"/><polyline class="cls-17" points="740.52 631.21 740.52 877.69 735.49 877.09 735 876.49 733.33 874.33 733.33 872.17 733.68 872.17 734.04 872.17 734.4 872.05 734.88 872.05 735.25 872.05 735.49 871.81 735.49 871.69"/><polyline class="cls-17" points="743.28 630.13 743.28 877.45 742.57 877.21 741.73 877.45 741.73 876.73 741.25 877.45 740.88 877.45 740.52 877.33"/><polyline class="cls-17" points="692.16 627.25 692.52 627.25 692.52 630.25 692.16 630.25 692.16 627.25"/><polyline class="cls-17" points="700.45 627.25 700.8 627.25 700.8 630.25 700.45 630.25 700.45 627.25"/><polyline class="cls-17" points="705 627.25 705.37 627.25 705.37 630.25 705 630.25 705 627.25"/><polyline class="cls-17" points="708.85 627.25 709.21 627.25 709.21 630.25 708.85 630.25 708.85 627.25"/><polyline class="cls-17" points="697.21 627.25 697.57 627.25 697.57 630.25 697.21 630.25 697.21 627.25"/><polyline class="cls-17" points="713.76 627.25 714.13 627.25 714.13 630.25 713.76 630.25 713.76 627.25"/><polyline class="cls-17" points="718.33 627.25 718.68 627.25 718.68 630.25 718.33 630.25 718.33 627.25"/><polyline class="cls-17" points="722.04 627.25 722.4 627.25 722.4 630.25 722.04 630.25 722.04 627.25"/><polyline class="cls-17" points="725.52 627.25 725.88 627.25 725.88 630.25 725.52 630.25 725.52 627.25"/><polyline class="cls-17" points="729.85 627.25 730.21 627.25 730.21 630.25 729.85 630.25 729.85 627.25"/><polyline class="cls-17" points="735.97 627.25 736.33 627.25 736.33 630.25 735.97 630.25 735.97 627.25"/><polyline class="cls-17" points="740.04 627.25 740.4 627.25 740.4 630.25 740.04 630.25 740.04 627.25"/><polyline class="cls-17" points="742.57 627.25 742.92 627.25 742.92 630.25 742.57 630.25 742.57 627.25"/><line class="cls-17" x1="562.81" y1="504.49" x2="562.81" y2="546.85"/><line class="cls-17" x1="562.81" y1="564.85" x2="562.81" y2="564.85"/><rect x="562.81" y="564.73" width="0.12" height="0.12"/><line class="cls-17" x1="562.81" y1="582.85" x2="562.81" y2="618.85"/><line class="cls-17" x1="562.81" y1="636.85" x2="562.81" y2="636.85"/><rect x="562.81" y="636.73" width="0.12" height="0.12"/><line class="cls-17" x1="562.81" y1="654.97" x2="562.81" y2="690.97"/><line class="cls-17" x1="562.81" y1="708.97" x2="562.81" y2="708.97"/><rect x="562.81" y="708.85" width="0.12" height="0.12"/><line class="cls-17" x1="562.81" y1="726.97" x2="562.81" y2="762.97"/><line class="cls-17" x1="562.81" y1="780.97" x2="562.81" y2="780.97"/><rect x="562.81" y="780.85" width="0.12" height="0.12"/><line class="cls-17" x1="562.81" y1="798.97" x2="562.81" y2="834.97"/><line class="cls-17" x1="562.81" y1="852.97" x2="562.81" y2="852.97"/><rect x="562.81" y="852.85" width="0.12" height="0.12"/><line class="cls-17" x1="562.81" y1="870.97" x2="562.81" y2="906.97"/><line class="cls-17" x1="562.81" y1="924.97" x2="562.81" y2="924.97"/><rect x="562.81" y="924.85" width="0.12" height="0.12"/><line class="cls-17" x1="562.81" y1="942.97" x2="562.81" y2="978.97"/><line class="cls-17" x1="562.81" y1="996.97" x2="562.81" y2="996.97"/><rect x="562.81" y="996.85" width="0.12" height="0.12"/><line class="cls-17" x1="562.81" y1="1014.97" x2="562.81" y2="1057.45"/><line class="cls-17" x1="1027.68" y1="504.49" x2="1027.68" y2="546.85"/><line class="cls-17" x1="1027.68" y1="564.85" x2="1027.68" y2="564.85"/><rect x="1027.69" y="564.73" width="0.12" height="0.12"/><line class="cls-17" x1="1027.68" y1="582.85" x2="1027.68" y2="618.85"/><line class="cls-17" x1="1027.68" y1="636.85" x2="1027.68" y2="636.85"/><rect x="1027.69" y="636.73" width="0.12" height="0.12"/><line class="cls-17" x1="1027.68" y1="654.97" x2="1027.68" y2="690.97"/><line class="cls-17" x1="1027.68" y1="708.97" x2="1027.68" y2="708.97"/><rect x="1027.69" y="708.85" width="0.12" height="0.12"/><line class="cls-17" x1="1027.68" y1="726.97" x2="1027.68" y2="762.97"/><line class="cls-17" x1="1027.68" y1="780.97" x2="1027.68" y2="780.97"/><rect x="1027.69" y="780.85" width="0.12" height="0.12"/><line class="cls-17" x1="1027.68" y1="798.97" x2="1027.68" y2="834.97"/><line class="cls-17" x1="1027.68" y1="852.97" x2="1027.68" y2="852.97"/><rect x="1027.69" y="852.85" width="0.12" height="0.12"/><line class="cls-17" x1="1027.68" y1="870.97" x2="1027.68" y2="906.97"/><line class="cls-17" x1="1027.68" y1="924.97" x2="1027.68" y2="924.97"/><rect x="1027.69" y="924.85" width="0.12" height="0.12"/><line class="cls-17" x1="1027.68" y1="942.97" x2="1027.68" y2="978.97"/><line class="cls-17" x1="1027.68" y1="996.97" x2="1027.68" y2="996.97"/><rect x="1027.69" y="996.85" width="0.12" height="0.12"/><line class="cls-17" x1="1027.68" y1="1014.97" x2="1027.68" y2="1057.45"/></g><g class="cls-21"><text class="cls-22" transform="translate(556.69 1168.33)">SEZIONE DD&apos;</text></g><g class="cls-16"><circle class="cls-20" cx="1028.4" cy="1094.05" r="14.28" transform="translate(-340.39 476.83) rotate(-22.5)"/></g><g class="cls-21"><text class="cls-23" transform="translate(1023.13 1099.81)">1</text></g><g class="cls-16"><circle class="cls-20" cx="565.45" cy="1091.65" r="14.28" transform="translate(-489.47 460.31) rotate(-31.72)"/></g><g class="cls-21"><text class="cls-23" transform="translate(561.73 1097.41)">2</text></g><g class="cls-16"><line class="cls-17" x1="1015.8" y1="974.65" x2="1013.28" y2="974.65"/><line class="cls-17" x1="1007.04" y1="974.65" x2="972.6" y2="974.65"/><line class="cls-17" x1="969.36" y1="974.65" x2="723.49" y2="974.65"/><line class="cls-17" x1="717.13" y1="974.65" x2="663.73" y2="974.65"/><line class="cls-17" x1="645.85" y1="984.61" x2="717.13" y2="984.61"/><line class="cls-17" x1="723.49" y1="984.61" x2="969.36" y2="984.61"/><line class="cls-17" x1="972.24" y1="984.61" x2="1006.92" y2="984.61"/><line class="cls-17" x1="1013.28" y1="984.61" x2="1015.8" y2="984.61"/><line class="cls-17" x1="652.45" y1="984.61" x2="652.45" y2="986.05"/><line class="cls-17" x1="729.97" y1="984.61" x2="729.97" y2="986.05"/><line class="cls-17" x1="807.49" y1="984.61" x2="807.49" y2="986.05"/><line class="cls-17" x1="885" y1="984.61" x2="885" y2="986.05"/><line class="cls-17" x1="962.4" y1="984.61" x2="962.4" y2="986.05"/><line class="cls-17" x1="979.2" y1="868.93" x2="979.2" y2="852.97"/><line class="cls-17" x1="979.2" y1="834.61" x2="979.2" y2="834.61"/><rect x="979.21" y="834.49" width="0.12" height="0.12"/><polyline class="cls-17" points="970.33 852.97 988.8 852.97 988.8 834.61 970.33 834.61 970.33 852.97"/><polyline class="cls-17" points="979.21 876.49 979.21 852.97 980.4 852.97 980.4 876.49"/><polyline class="cls-17" points="971.16 876.85 976.92 876.85 976.92 871.57 971.16 871.57 971.16 876.85"/><polyline class="cls-17" points="976.92 876.49 982.09 876.49 982.09 876.85"/><line class="cls-18" x1="532.09" y1="640.45" x2="532.09" y2="618.01"/><line class="cls-18" x1="532.09" y1="600.01" x2="532.09" y2="600.01"/><line class="cls-18" x1="532.09" y1="581.89" x2="532.09" y2="559.45"/><line class="cls-18" x1="532.09" y1="1037.05" x2="532.09" y2="1014.49"/><line class="cls-18" x1="532.09" y1="996.49" x2="532.09" y2="996.49"/><line class="cls-18" x1="532.09" y1="978.49" x2="532.09" y2="955.93"/><line class="cls-18" x1="522.01" y1="1000.93" x2="562.09" y2="1000.93"/><line class="cls-18" x1="580.09" y1="1000.93" x2="580.09" y2="1000.93"/><line class="cls-18" x1="598.09" y1="1000.93" x2="634.09" y2="1000.93"/><line class="cls-18" x1="652.09" y1="1000.93" x2="652.09" y2="1000.93"/><line class="cls-18" x1="670.09" y1="1000.93" x2="706.09" y2="1000.93"/><line class="cls-18" x1="724.09" y1="1000.93" x2="724.09" y2="1000.93"/><line class="cls-18" x1="742.09" y1="1000.93" x2="778.09" y2="1000.93"/><line class="cls-18" x1="796.09" y1="1000.93" x2="796.09" y2="1000.93"/><line class="cls-18" x1="814.09" y1="1000.93" x2="850.09" y2="1000.93"/><line class="cls-18" x1="868.09" y1="1000.93" x2="868.09" y2="1000.93"/><line class="cls-18" x1="886.08" y1="1000.93" x2="922.08" y2="1000.93"/><line class="cls-18" x1="940.08" y1="1000.93" x2="940.08" y2="1000.93"/><line class="cls-18" x1="958.08" y1="1000.93" x2="994.08" y2="1000.93"/><line class="cls-18" x1="1012.2" y1="1000.93" x2="1012.2" y2="1000.93"/><line class="cls-18" x1="1030.2" y1="1000.93" x2="1070.16" y2="1000.93"/><polyline class="cls-19" points="815.64 613.57 815.64 617.89 799.45 617.89 799.45 613.57"/><line class="cls-19" x1="807.25" y1="663.13" x2="807.25" y2="663.13"/><polyline class="cls-19" points="807.25 656.29 807.25 617.89 808.57 617.89 808.57 656.29"/><circle class="cls-19" cx="809.04" cy="691.45" r="28.32" transform="translate(-116.16 165.47) rotate(-10.9)"/><line class="cls-19" x1="807.25" y1="663.13" x2="807.25" y2="663.13"/><polyline class="cls-19" points="809.52 663.13 806.52 663.13 806.52 656.29 809.52 656.29 809.52 663.13"/><line class="cls-19" x1="799.09" y1="664.93" x2="819.01" y2="664.93"/><line class="cls-20" x1="575.05" y1="1011.37" x2="575.05" y2="1041.37"/><line class="cls-20" x1="1015.8" y1="1014.73" x2="1015.8" y2="1041.37"/><line class="cls-20" x1="572.17" y1="1038.49" x2="1018.68" y2="1038.49"/><line class="cls-20" x1="577.21" y1="1036.45" x2="572.89" y2="1040.65"/><line class="cls-20" x1="1013.76" y1="1040.65" x2="1017.96" y2="1036.45"/></g><g class="cls-24"><text class="cls-25" transform="translate(788.89 1035.61)">310</text></g><g class="cls-16"><line class="cls-20" x1="1040.4" y1="591.13" x2="1095.72" y2="591.13"/><line class="cls-20" x1="1040.4" y1="1000.81" x2="1095.72" y2="1000.81"/><line class="cls-20" x1="1092.84" y1="588.37" x2="1092.84" y2="1003.69"/><line class="cls-20" x1="1095" y1="593.29" x2="1090.8" y2="589.09"/><line class="cls-20" x1="1090.8" y1="998.77" x2="1095" y2="1002.97"/></g><g class="cls-24"><text class="cls-25" transform="translate(1095.85 789.49) rotate(90)">290</text></g><g class="cls-16"><line class="cls-20" x1="1040.4" y1="591.13" x2="1072.08" y2="591.13"/><line class="cls-20" x1="1040.4" y1="613.69" x2="1072.08" y2="613.69"/><line class="cls-20" x1="1069.2" y1="588.37" x2="1069.2" y2="616.45"/><line class="cls-20" x1="1071.36" y1="593.29" x2="1067.04" y2="589.09"/><line class="cls-20" x1="1067.04" y1="611.53" x2="1071.36" y2="615.73"/></g><g class="cls-24"><text class="cls-25" transform="translate(1072.09 597.73) rotate(90)">15</text></g><g class="cls-16"><line class="cls-20" x1="1040.4" y1="613.69" x2="1072.08" y2="613.69"/><line class="cls-20" x1="1040.4" y1="986.05" x2="1072.08" y2="986.05"/><line class="cls-20" x1="1069.2" y1="610.81" x2="1069.2" y2="988.81"/><line class="cls-20" x1="1071.36" y1="615.73" x2="1067.04" y2="611.53"/><line class="cls-20" x1="1067.04" y1="983.89" x2="1071.36" y2="988.09"/></g><g class="cls-24"><text class="cls-25" transform="translate(1072.09 793.33) rotate(90)">265</text></g><g class="cls-16"><path d="M443.53,548.89l-7.08.6v-.6h7.08m0,.6v-.6l-7.08.6h7.08"/><path class="cls-26" d="M443.53,548.89l-7.08.6v-.6h7.08m0,.6v-.6l-7.08.6h7.08"/></g><g class="cls-24"><text class="cls-27" transform="translate(435.73 480.85)">E</text></g><g class="cls-16"><path d="M444.25,1399.57,442.81,269.41h1.44V1399.57m-1.44,0h1.44L442.81,269.41V1399.57"/><path class="cls-26" d="M444.25,1399.57,442.81,269.41h1.44V1399.57m-1.44,0h1.44L442.81,269.41V1399.57"/><path d="M436.45,974.65l7.08-.48v.48h-7.08m0-.48v.48l7.08-.48h-7.08"/><path class="cls-26" d="M436.45,974.65l7.08-.48v.48h-7.08m0-.48v.48l7.08-.48h-7.08"/><path d="M436.45,832.93l7.08-.48v.48h-7.08m0-.48v.48l7.08-.48h-7.08"/><path class="cls-26" d="M436.45,832.93l7.08-.48v.48h-7.08m0-.48v.48l7.08-.48h-7.08"/><path d="M436.45,691.21l7.08-.48v.48h-7.08m0-.48v.48l7.08-.48h-7.08"/><path class="cls-26" d="M436.45,691.21l7.08-.48v.48h-7.08m0-.48v.48l7.08-.48h-7.08"/><path d="M436.45,549.49l7.08-.6v.6h-7.08m0-.6v.6l7.08-.6h-7.08"/><path class="cls-26" d="M436.45,549.49l7.08-.6v.6h-7.08m0-.6v.6l7.08-.6h-7.08"/><path d="M436.45,407.77l7.08-.6v.6h-7.08m0-.6v.6l7.08-.6h-7.08"/><path class="cls-26" d="M436.45,407.77l7.08-.6v.6h-7.08m0-.6v.6l7.08-.6h-7.08"/><path d="M436.45,1116.37l7.08-.48v.48h-7.08m0-.48v.48l7.08-.48h-7.08"/><path class="cls-26" d="M436.45,1116.37l7.08-.48v.48h-7.08m0-.48v.48l7.08-.48h-7.08"/></g><g class="cls-24"><text class="cls-27" transform="translate(435.48 1047.85)">F</text></g><g class="cls-24"><text class="cls-27" transform="translate(435.37 906.13)">E</text></g><g class="cls-24"><text class="cls-27" transform="translate(435.13 764.29)">D</text></g><g class="cls-24"><text class="cls-27" transform="translate(435.25 622.57)">C</text></g><g class="cls-24"><text class="cls-27" transform="translate(435.37 480.85)">B</text></g><g class="cls-24"><text class="cls-27" transform="translate(435.61 341.05)">A</text></g><g class="cls-24"><text class="cls-27" transform="translate(435.25 1189.57)">G</text></g><g class="cls-16"><path d="M443.53,270.13l1583.27-1.44v1.44H443.53m0-1.44v1.44l1583.27-1.44H443.53"/><path class="cls-26" d="M443.53,270.13l1583.27-1.44v1.44H443.53m0-1.44v1.44l1583.27-1.44H443.53"/><path d="M1168.92,261.73l.48,7.08h-.48v-7.08m.48,0h-.48l.48,7.08v-7.08"/><path class="cls-26" d="M1168.92,261.73l.48,7.08h-.48v-7.08m.48,0h-.48l.48,7.08v-7.08"/><path d="M1027.2,261.73l.48,7.08h-.48v-7.08m.48,0h-.48l.48,7.08v-7.08"/><path class="cls-26" d="M1027.2,261.73l.48,7.08h-.48v-7.08m.48,0h-.48l.48,7.08v-7.08"/><path d="M885.48,261.73l.48,7.08h-.48v-7.08m.48,0h-.48l.48,7.08v-7.08"/><path class="cls-26" d="M885.48,261.73l.48,7.08h-.48v-7.08m.48,0h-.48l.48,7.08v-7.08"/><path d="M743.77,261.73l.48,7.08h-.48v-7.08m.48,0h-.48l.48,7.08v-7.08"/><path class="cls-26" d="M743.77,261.73l.48,7.08h-.48v-7.08m.48,0h-.48l.48,7.08v-7.08"/><path d="M602.05,261.73l.48,7.08h-.48v-7.08m.48,0h-.48l.48,7.08v-7.08"/><path class="cls-26" d="M602.05,261.73l.48,7.08h-.48v-7.08m.48,0h-.48l.48,7.08v-7.08"/></g><g class="cls-24"><text class="cls-27" transform="translate(1096.33 265.45)">5</text></g><g class="cls-24"><text class="cls-27" transform="translate(954.61 265.45)">4</text></g><g class="cls-24"><text class="cls-27" transform="translate(812.89 265.45)">3</text></g><g class="cls-24"><text class="cls-27" transform="translate(671.17 265.45)">2</text></g><g class="cls-24"><text class="cls-27" transform="translate(516.25 265.45)">1</text></g></g></g></svg>