<svg xmlns="http://www.w3.org/2000/svg" xmlns:xlink="http://www.w3.org/1999/xlink" viewBox="0 0 1190.6 1190.6"><defs><style>.cls-1,.cls-3,.cls-4,.cls-5{fill:none;}.cls-2{fill:#ff0;}.cls-3{stroke:#10eeff;}.cls-3,.cls-4,.cls-5{stroke-miterlimit:10;}.cls-4{stroke:blue;}.cls-5{stroke:red;}.cls-6{clip-path:url(#clip-path);}.cls-10,.cls-11,.cls-7,.cls-9{isolation:isolate;}.cls-8{clip-path:url(#clip-path-2);}.cls-9{font-size:60px;fill:#148e39;font-family:OpenSansCondensed-Bold, Open Sans Condensed;font-weight:700;}.cls-10,.cls-12{font-size:16px;font-family:OpenSansCondensed-Light, Open Sans Condensed;}.cls-11{font-size:10px;font-family:EBGaramond-Italic, EB Garamond;font-style:italic;}</style><clipPath id="clip-path"><rect class="cls-1" x="61" y="61.5" width="239.6" height="239.5"/></clipPath><clipPath id="clip-path-2"><circle class="cls-1" cx="689.7" cy="664.6" r="133.6"/></clipPath></defs><title>Tavola disegno 1</title><g id="Livello_1" data-name="Livello 1"><g id="Livello_1-2" data-name="Livello 1"><g id="Livello_1-2-2" data-name="Livello 1-2"><g id="Livello_1-2-2-2" data-name="Livello 1-2-2"><g id="Colore"><rect class="cls-2" width="1190.6" height="1190.6"/></g></g><g id="_4x4" data-name=" 4x4"><g id="_4x4-2" data-name=" 4x4-2"><rect class="cls-1" width="1190.6" height="1190.6"/><rect class="cls-3" x="60.6" y="61" width="240" height="240"/><rect class="cls-3" x="337.5" y="61" width="240" height="240"/><rect class="cls-3" x="613.6" y="61" width="240" height="240"/><rect class="cls-3" x="889.4" y="61" width="240" height="240"/><rect class="cls-3" x="60.6" y="338.3" width="240" height="240"/><rect class="cls-3" x="337.5" y="337.3" width="240" height="240"/><rect class="cls-3" x="613.6" y="337.3" width="240" height="240"/><rect class="cls-3" x="890.4" y="336.3" width="240" height="240"/><rect class="cls-3" x="337.5" y="613.5" width="240" height="240"/><rect class="cls-3" x="60.6" y="613.5" width="240" height="240"/><rect class="cls-3" x="613.6" y="613.5" width="240" height="240"/><rect class="cls-3" x="890.4" y="613.5" width="240" height="240"/><rect class="cls-3" x="60.6" y="889.8" width="240" height="240"/><rect class="cls-3" x="337.5" y="889.8" width="240" height="240"/><rect class="cls-3" x="612.6" y="889.8" width="240" height="240"/><rect class="cls-3" x="890.4" y="889.8" width="240" height="240"/></g></g><g id="_5x5" data-name=" 5x5"><g id="_5x5-2" data-name=" 5x5-2"><line class="cls-1" x1="60.9" y1="60.8" x2="245.3" y2="61.6"/><rect class="cls-4" x="60.9" y="60.8" width="185.1" height="185.1"/><rect class="cls-4" x="281.4" y="60.8" width="185.1" height="185.1"/><rect class="cls-4" x="502.7" y="60.8" width="185.1" height="185.1"/><rect class="cls-4" x="724.3" y="60.8" width="185.1" height="185.1"/><rect class="cls-4" x="945.3" y="60.8" width="185.1" height="185.1"/><rect class="cls-4" x="60.9" y="281.9" width="185.1" height="185.1"/><rect class="cls-4" x="281.4" y="281.9" width="185.1" height="185.1"/><rect class="cls-4" x="502.7" y="281.9" width="185.1" height="185.1"/><rect class="cls-4" x="724.3" y="281.9" width="185.1" height="185.1"/><rect class="cls-4" x="945.3" y="281.9" width="185.1" height="185.1"/><rect class="cls-4" x="60.9" y="502.7" width="185.1" height="185.1"/><rect class="cls-4" x="281.4" y="502.7" width="185.1" height="185.1"/><rect class="cls-4" x="502.7" y="502.7" width="185.1" height="185.1"/><rect class="cls-4" x="724.3" y="502.7" width="185.1" height="185.1"/><rect class="cls-4" x="945.3" y="502.7" width="185.1" height="185.1"/><rect class="cls-4" x="60.9" y="723.6" width="185.1" height="185.1"/><rect class="cls-4" x="281.4" y="723.6" width="185.1" height="185.1"/><rect class="cls-4" x="502.7" y="723.6" width="185.1" height="185.1"/><rect class="cls-4" x="724.3" y="723.6" width="185.1" height="185.1"/><rect class="cls-4" x="945.3" y="723.6" width="185.1" height="185.1"/><rect class="cls-4" x="59.9" y="944.6" width="185.1" height="185.1"/><rect class="cls-4" x="281.4" y="944.6" width="185.1" height="185.1"/><rect class="cls-4" x="502.7" y="944.6" width="185.1" height="185.1"/><rect class="cls-4" x="723.3" y="944.6" width="185.1" height="185.1"/><rect class="cls-4" x="944.3" y="944.6" width="185.1" height="185.1"/></g></g><g id="_6x6" data-name=" 6x6"><rect class="cls-5" x="61" y="61.5" width="147.4" height="147.4"/><rect class="cls-5" x="245.6" y="61.5" width="147.4" height="147.4"/><rect class="cls-5" x="430" y="61.5" width="147.4" height="147.4"/><rect class="cls-5" x="614.5" y="61.5" width="147.4" height="147.4"/><rect class="cls-5" x="798" y="61.5" width="147.4" height="147.4"/><rect class="cls-5" x="982.4" y="61.5" width="147.4" height="147.4"/><rect class="cls-5" x="60.9" y="245.9" width="147.4" height="147.4"/><rect class="cls-5" x="245.4" y="245.9" width="147.4" height="147.4"/><rect class="cls-5" x="429.9" y="245.9" width="147.4" height="147.4"/><rect class="cls-5" x="614.3" y="245.9" width="147.4" height="147.4"/><rect class="cls-5" x="797.9" y="245.9" width="147.4" height="147.4"/><rect class="cls-5" x="982.3" y="245.9" width="147.4" height="147.4"/><rect class="cls-5" x="61" y="429.4" width="147.4" height="147.4"/><rect class="cls-5" x="245.5" y="429.4" width="147.4" height="147.4"/><rect class="cls-5" x="429.9" y="429.4" width="147.4" height="147.4"/><rect class="cls-5" x="614.4" y="429.4" width="147.4" height="147.4"/><rect class="cls-5" x="798" y="429.4" width="147.4" height="147.4"/><rect class="cls-5" x="982.4" y="429.4" width="147.4" height="147.4"/><rect class="cls-5" x="60.8" y="613.8" width="147.4" height="147.4"/><rect class="cls-5" x="245.4" y="613.8" width="147.4" height="147.4"/><rect class="cls-5" x="429.8" y="613.8" width="147.4" height="147.4"/><rect class="cls-5" x="614.3" y="613.8" width="147.4" height="147.4"/><rect class="cls-5" x="797.8" y="613.8" width="147.4" height="147.4"/><rect class="cls-5" x="982.2" y="613.8" width="147.4" height="147.4"/><rect class="cls-5" x="61" y="798.2" width="147.4" height="147.4"/><rect class="cls-5" x="245.5" y="798.2" width="147.4" height="147.4"/><rect class="cls-5" x="429.9" y="798.2" width="147.4" height="147.4"/><rect class="cls-5" x="614.4" y="798.2" width="147.4" height="147.4"/><rect class="cls-5" x="798" y="798.2" width="147.4" height="147.4"/><rect class="cls-5" x="982.4" y="798.2" width="147.4" height="147.4"/><rect class="cls-5" x="60.8" y="982.6" width="147.4" height="147.4"/><rect class="cls-5" x="245.4" y="982.6" width="147.4" height="147.4"/><rect class="cls-5" x="429.8" y="982.6" width="147.4" height="147.4"/><rect class="cls-5" x="614.3" y="982.6" width="147.4" height="147.4"/><rect class="cls-5" x="797.8" y="982.6" width="147.4" height="147.4"/><rect class="cls-5" x="982.2" y="982.6" width="147.4" height="147.4"/></g></g><g class="cls-6"><g id="Livello_2" data-name="Livello 2"><image class="cls-7" width="3264" height="2448" transform="translate(61.49 60.8) scale(0.22 0.17)" xlink:href="../foto/IMG_6851.jpg"/></g></g><g class="cls-8"><image class="cls-7" width="960" height="717" transform="translate(408.43 463.65) scale(0.67 0.52)" xlink:href="../foto/IMG_2780.JPG"/></g></g><g id="Livello_2-2" data-name="Livello 2-2"><text class="cls-9" transform="translate(353.05 141.32)">Alessandro Leone</text><text class="cls-10" transform="translate(343.1 258.06)">Lorem ipsum dolor sit amet, consectetuer adipiscing elit, sed diam nonummy nibh euismod tincidunt ut </text><text class="cls-10" transform="translate(343.1 282.06)">laoreet dolore magna aliquam erat volutpat. Ut wisi enim ad minim veniam, quis nostrud exerci tation </text><text class="cls-10" transform="translate(343.1 306.06)">ullamcorper suscipit lobortis nisl ut aliquip ex ea commodo consequat. Duis autem vel eum iriure dolor </text><text class="cls-10" transform="translate(343.1 330.06)">in hendrerit in vulputate velit esse molestie consequat, vel illum dolore eu feugiat nulla facilisis at vero </text><text class="cls-10" transform="translate(343.1 354.06)">eros et accumsan et iusto odio dignissim qui blandit praesent luptatum zzril delenit augue duis dolore te </text><text class="cls-10" transform="translate(343.1 378.06)">feugait nulla facilisi.</text><text class="cls-10" transform="translate(343.1 402.06)">Lorem ipsum dolor sit amet, cons ectetuer adipiscing elit, sed diam nonummy nibh euismod tincidunt ut </text><text class="cls-10" transform="translate(343.1 426.06)">laoreet dolore magna aliquam erat volutpat. Ut wisi enim ad minim veniam, quis nostrud exerci tation</text><text class="cls-11" transform="translate(61.02 322.27)">L</text><text class="cls-11" transform="translate(66.85 322.27)">’</text><text class="cls-11" transform="translate(68.55 322.27)">a</text><text class="cls-11" transform="translate(73.26 322.27)">l</text><text class="cls-11" transform="translate(75.97 322.27)">ba </text><text class="cls-11" transform="translate(87.37 322.27)">i</text><text class="cls-11" transform="translate(90.16 322.27)">n C</text><text class="cls-11" transform="translate(103.74 322.27)">a</text><text class="cls-11" transform="translate(108.45 322.27)">l</text><text class="cls-11" transform="translate(111.31 322.27)">a</text><text class="cls-11" transform="translate(116.02 322.27)">bria</text></g></g><g id="Livello_2-2-2" data-name="Livello 2"><text class="cls-12" transform="translate(236.27 441.56)">Lorem <tspan x="-74.58" y="24">ipsum dolor sit amet, consectetuer </tspan><tspan x="-108.37" y="48">adipiscing elit, sed diam nonummy nibh euismod </tspan><tspan x="-131.39" y="72">tincidunt ut laoreet dolore magna aliquam erat volutpat. Ut </tspan><tspan x="-148.05" y="96">wisi enim ad minim veniam, quis nostrud exerci tation ullamcor</tspan><tspan x="178.95" y="96">-</tspan><tspan x="-160.07" y="120">per suscipit lobortis nisl ut aliquip ex ea commodo consequat. Duis </tspan><tspan x="-168.32" y="144">autem vel eum iriure dolor in hendrerit in vulputate velit esse molestie </tspan><tspan x="-173.28" y="168">consequat, vel illum dolore eu feugiat nulla facilisis at vero eros et accum</tspan><tspan x="201.24" y="168">-</tspan><tspan x="-175.13" y="192">san et iusto odio dignissim qui blandit praesent luptatum zzril delenit augue </tspan><tspan x="-172.84" y="216">duis dolore te feugait nulla facilisi.</tspan><tspan x="-167.5" y="240">Lorem ipsum dolor sit amet, cons ectetuer adipiscing elit, sed diam </tspan><tspan x="-158.83" y="264">nonummy nibh euismod tincidunt ut laoreet dolore magna aliquam </tspan><tspan x="-146.3" y="288">erat volutpat. Ut wisi enim ad minim veniam, quis nostrud exerci </tspan><tspan x="-128.99" y="312">tation ullamcorper suscipit lobortis nisl ut aliquip ex ea </tspan><tspan x="-105" y="336">commodo consequat.</tspan><tspan x="-69.21" y="360">Lorem ipsum dolor sit amet, con</tspan></text></g></svg>