<svg xmlns="http://www.w3.org/2000/svg" xmlns:xlink="http://www.w3.org/1999/xlink" viewBox="0 0 1190.6 1190.6"><defs><style>.cls-1{fill:#95c11f;}.cls-2,.cls-3,.cls-4{fill:none;stroke-miterlimit:10;}.cls-2{stroke:#000;}.cls-3{stroke:#e94859;}.cls-4{stroke:#6ec4c7;}</style></defs><title>Tavola disegno 1</title><g id="Livello_1" data-name="Livello 1"><g id="Livello_1-2" data-name="Livello 1"><rect class="cls-1" width="1190.6" height="1190.6"/></g><g id="_4x4" data-name="4x4"><rect class="cls-2" x="60.9" y="60.9" width="239.5" height="239.5"/><rect class="cls-2" x="60.9" y="337.3" width="239.5" height="239.5"/><rect class="cls-2" x="337.3" y="60.9" width="239.5" height="239.5"/><rect class="cls-2" x="337.3" y="337.3" width="239.5" height="239.5"/><rect class="cls-2" x="60.9" y="613.7" width="239.5" height="239.5"/><rect class="cls-2" x="337.3" y="613.7" width="239.5" height="239.5"/><rect class="cls-2" x="60.9" y="890.1" width="239.5" height="239.5"/><rect class="cls-2" x="337.3" y="890.1" width="239.5" height="239.5"/><rect class="cls-2" x="613.7" y="60.9" width="239.5" height="239.5"/><rect class="cls-2" x="613.7" y="337.3" width="239.5" height="239.5"/><rect class="cls-2" x="613.7" y="613.7" width="239.5" height="239.5"/><rect class="cls-2" x="613.7" y="890.1" width="239.5" height="239.5"/><rect class="cls-2" x="890.1" y="890.1" width="239.5" height="239.5"/><rect class="cls-2" x="890.1" y="613.7" width="239.5" height="239.5"/><rect class="cls-2" x="890.1" y="337.3" width="239.5" height="239.5"/><rect class="cls-2" x="890.1" y="60.9" width="239.5" height="239.5"/></g><g id="_5x5" data-name="5x5"><rect class="cls-3" x="60.9" y="60.9" width="184.3" height="184.3"/><rect class="cls-3" x="60.9" y="945.4" width="184.3" height="184.3"/><rect class="cls-3" x="945.4" y="60.9" width="184.3" height="184.3"/><rect class="cls-3" x="945.7" y="945.4" width="184.3" height="184.3"/><rect class="cls-3" x="282" y="60.9" width="184.3" height="184.3"/><rect class="cls-3" x="503.1" y="60.9" width="184.3" height="184.3"/><rect class="cls-3" x="724.3" y="60.9" width="184.3" height="184.3"/><rect class="cls-3" x="60.9" y="282" width="184.3" height="184.3"/><rect class="cls-3" x="282" y="282" width="184.3" height="184.3"/><rect class="cls-3" x="503.1" y="282" width="184.3" height="184.3"/><rect class="cls-3" x="724.3" y="282" width="184.3" height="184.3"/><rect class="cls-3" x="945.4" y="282" width="184.3" height="184.3"/><rect class="cls-3" x="60.9" y="503.1" width="184.3" height="184.3"/><rect class="cls-3" x="282" y="503.1" width="184.3" height="184.3"/><rect class="cls-3" x="503.1" y="503.1" width="184.3" height="184.3"/><rect class="cls-3" x="724.3" y="503.1" width="184.3" height="184.3"/><rect class="cls-3" x="945.4" y="503.1" width="184.3" height="184.3"/><rect class="cls-3" x="60.9" y="724.3" width="184.3" height="184.3"/><rect class="cls-3" x="282" y="724.3" width="184.3" height="184.3"/><rect class="cls-3" x="503.1" y="724.3" width="184.3" height="184.3"/><rect class="cls-3" x="724.3" y="724.3" width="184.3" height="184.3"/><rect class="cls-3" x="945.7" y="724.3" width="184.3" height="184.3"/><rect class="cls-3" x="282" y="945.4" width="184.3" height="184.3"/><rect class="cls-3" x="503.1" y="945.4" width="184.3" height="184.3"/><rect class="cls-3" x="724.3" y="945.4" width="184.3" height="184.3"/></g><g id="_6x6" data-name="6x6"><rect class="cls-4" x="60.9" y="60.9" width="147.4" height="147.4"/><rect class="cls-4" x="60.9" y="982.2" width="147.4" height="147.4"/><rect class="cls-4" x="982.2" y="60.9" width="147.4" height="147.4"/><rect class="cls-4" x="982.2" y="982.2" width="147.4" height="147.4"/><rect class="cls-4" x="245.2" y="60.9" width="147.4" height="147.4"/><rect class="cls-4" x="60.9" y="245.2" width="147.4" height="147.4"/><rect class="cls-4" x="245.2" y="245.2" width="147.4" height="147.4"/><rect class="cls-4" x="60.9" y="429.4" width="147.4" height="147.4"/><rect class="cls-4" x="245.2" y="429.4" width="147.4" height="147.4"/><rect class="cls-4" x="60.9" y="613.7" width="147.4" height="147.4"/><rect class="cls-4" x="245.2" y="613.7" width="147.4" height="147.4"/><rect class="cls-4" x="60.9" y="798" width="147.4" height="147.4"/><rect class="cls-4" x="245.2" y="798" width="147.4" height="147.4"/><rect class="cls-4" x="245.2" y="982.2" width="147.4" height="147.4"/><rect class="cls-4" x="429.4" y="60.9" width="147.4" height="147.4"/><rect class="cls-4" x="429.4" y="245.2" width="147.4" height="147.4"/><rect class="cls-4" x="429.4" y="429.4" width="147.4" height="147.4"/><rect class="cls-4" x="429.4" y="613.7" width="147.4" height="147.4"/><rect class="cls-4" x="429.4" y="798" width="147.4" height="147.4"/><rect class="cls-4" x="429.4" y="982.2" width="147.4" height="147.4"/><rect class="cls-4" x="613.7" y="60.9" width="147.4" height="147.4"/><rect class="cls-4" x="798" y="60.9" width="147.4" height="147.4"/><rect class="cls-4" x="613.7" y="245.2" width="147.4" height="147.4"/><rect class="cls-4" x="613.7" y="429.4" width="147.4" height="147.4"/><rect class="cls-4" x="613.7" y="613.7" width="147.4" height="147.4"/><rect class="cls-4" x="798" y="245.2" width="147.4" height="147.4"/><rect class="cls-4" x="982.2" y="245.2" width="147.4" height="147.4"/><rect class="cls-4" x="798" y="429.4" width="147.4" height="147.4"/><rect class="cls-4" x="982.2" y="429.4" width="147.4" height="147.4"/><rect class="cls-4" x="798" y="613.7" width="147.4" height="147.4"/><rect class="cls-4" x="982.2" y="613.7" width="147.4" height="147.4"/><rect class="cls-4" x="982.2" y="798" width="147.4" height="147.4"/><rect class="cls-4" x="798" y="798" width="147.4" height="147.4"/><rect class="cls-4" x="798" y="982.2" width="147.4" height="147.4"/><rect class="cls-4" x="613.7" y="798" width="147.4" height="147.4"/><rect class="cls-4" x="613.7" y="982.2" width="147.4" height="147.4"/></g></g><g id="jpg"><image width="2400" height="1584" transform="translate(60.9 59.9) scale(0.45 0.4)" xlink:href="C:\Users\Claudio\Desktop\andromedaspaziocosmo.jpg"/></g></svg>