<svg xmlns="http://www.w3.org/2000/svg" xmlns:xlink="http://www.w3.org/1999/xlink" viewBox="0 0 1190.6 1190.6"><defs><style>.cls-1,.cls-3,.cls-4,.cls-5{fill:none;}.cls-2{fill:#95c11f;}.cls-3{stroke:#000;}.cls-3,.cls-4,.cls-5{stroke-miterlimit:10;}.cls-4{stroke:#e94859;}.cls-5{stroke:#6ec4c7;}.cls-6{clip-path:url(#clip-path);}.cls-7{clip-path:url(#clip-path-2);}</style><clipPath id="clip-path"><rect class="cls-1" x="798" y="245.2" width="147.4" height="147.4"/></clipPath><clipPath id="clip-path-2"><circle class="cls-1" cx="180.3" cy="179.66" r="119.75"/></clipPath></defs><title>890902_05</title><g id="Livello_1" data-name="Livello 1"><g id="Livello_1-2" data-name="Livello 1"><rect class="cls-2" x="-0.05" y="-0.05" width="1190.6" height="1190.6"/></g><g id="_4x4" data-name="4x4"><rect class="cls-3" x="60.9" y="60.9" width="239.5" height="239.5"/><rect class="cls-3" x="60.9" y="337.3" width="239.5" height="239.5"/><rect class="cls-3" x="337.3" y="60.9" width="239.5" height="239.5"/><rect class="cls-3" x="337.3" y="337.3" width="239.5" height="239.5"/><rect class="cls-3" x="60.9" y="613.7" width="239.5" height="239.5"/><rect class="cls-3" x="337.3" y="613.7" width="239.5" height="239.5"/><rect class="cls-3" x="60.9" y="890.1" width="239.5" height="239.5"/><rect class="cls-3" x="337.3" y="890.1" width="239.5" height="239.5"/><rect class="cls-3" x="613.7" y="60.9" width="239.5" height="239.5"/><rect class="cls-3" x="613.7" y="337.3" width="239.5" height="239.5"/><rect class="cls-3" x="613.7" y="613.7" width="239.5" height="239.5"/><rect class="cls-3" x="613.7" y="890.1" width="239.5" height="239.5"/><rect class="cls-3" x="890.1" y="890.1" width="239.5" height="239.5"/><rect class="cls-3" x="890.1" y="613.7" width="239.5" height="239.5"/><rect class="cls-3" x="890.1" y="337.3" width="239.5" height="239.5"/><rect class="cls-3" x="890.1" y="60.9" width="239.5" height="239.5"/></g><g id="_5x5" data-name="5x5"><rect class="cls-4" x="60.9" y="60.9" width="184.3" height="184.3"/><rect class="cls-4" x="60.9" y="945.4" width="184.3" height="184.3"/><rect class="cls-4" x="945.4" y="60.9" width="184.3" height="184.3"/><rect class="cls-4" x="945.7" y="945.4" width="184.3" height="184.3"/><rect class="cls-4" x="282" y="60.9" width="184.3" height="184.3"/><rect class="cls-4" x="503.1" y="60.9" width="184.3" height="184.3"/><rect class="cls-4" x="724.3" y="60.9" width="184.3" height="184.3"/><rect class="cls-4" x="60.9" y="282" width="184.3" height="184.3"/><rect class="cls-4" x="282" y="282" width="184.3" height="184.3"/><rect class="cls-4" x="503.1" y="282" width="184.3" height="184.3"/><rect class="cls-4" x="724.3" y="282" width="184.3" height="184.3"/><rect class="cls-4" x="945.4" y="282" width="184.3" height="184.3"/><rect class="cls-4" x="60.9" y="503.1" width="184.3" height="184.3"/><rect class="cls-4" x="282" y="503.1" width="184.3" height="184.3"/><rect class="cls-4" x="503.1" y="503.1" width="184.3" height="184.3"/><rect class="cls-4" x="724.3" y="503.1" width="184.3" height="184.3"/><rect class="cls-4" x="945.4" y="503.1" width="184.3" height="184.3"/><rect class="cls-4" x="60.9" y="724.3" width="184.3" height="184.3"/><rect class="cls-4" x="282" y="724.3" width="184.3" height="184.3"/><rect class="cls-4" x="503.1" y="724.3" width="184.3" height="184.3"/><rect class="cls-4" x="724.3" y="724.3" width="184.3" height="184.3"/><rect class="cls-4" x="945.7" y="724.3" width="184.3" height="184.3"/><rect class="cls-4" x="282" y="945.4" width="184.3" height="184.3"/><rect class="cls-4" x="503.1" y="945.4" width="184.3" height="184.3"/><rect class="cls-4" x="724.3" y="945.4" width="184.3" height="184.3"/></g><rect class="cls-5" x="60.9" y="60.9" width="147.4" height="147.4"/><rect class="cls-5" x="60.9" y="982.2" width="147.4" height="147.4"/><rect class="cls-5" x="982.2" y="60.9" width="147.4" height="147.4"/><rect class="cls-5" x="982.2" y="982.2" width="147.4" height="147.4"/><rect class="cls-5" x="245.2" y="60.9" width="147.4" height="147.4"/><rect class="cls-5" x="60.9" y="245.2" width="147.4" height="147.4"/><rect class="cls-5" x="245.2" y="245.2" width="147.4" height="147.4"/><rect class="cls-5" x="60.9" y="429.4" width="147.4" height="147.4"/><rect class="cls-5" x="245.2" y="429.4" width="147.4" height="147.4"/><rect class="cls-5" x="60.9" y="613.7" width="147.4" height="147.4"/><rect class="cls-5" x="245.2" y="613.7" width="147.4" height="147.4"/><rect class="cls-5" x="60.9" y="798" width="147.4" height="147.4"/><rect class="cls-5" x="245.2" y="798" width="147.4" height="147.4"/><rect class="cls-5" x="245.2" y="982.2" width="147.4" height="147.4"/><rect class="cls-5" x="429.4" y="60.9" width="147.4" height="147.4"/><rect class="cls-5" x="429.4" y="245.2" width="147.4" height="147.4"/><rect class="cls-5" x="429.4" y="429.4" width="147.4" height="147.4"/><rect class="cls-5" x="429.4" y="613.7" width="147.4" height="147.4"/><rect class="cls-5" x="429.4" y="798" width="147.4" height="147.4"/><rect class="cls-5" x="429.4" y="982.2" width="147.4" height="147.4"/><rect class="cls-5" x="613.7" y="60.9" width="147.4" height="147.4"/><rect class="cls-5" x="798" y="60.9" width="147.4" height="147.4"/><rect class="cls-5" x="613.7" y="245.2" width="147.4" height="147.4"/><rect class="cls-5" x="613.7" y="429.4" width="147.4" height="147.4"/><rect class="cls-5" x="613.7" y="613.7" width="147.4" height="147.4"/><g class="cls-6"><image width="2400" height="1584" transform="translate(60.9 59.9) scale(0.45 0.4)" xlink:href="C:\Users\Claudio\Desktop\andromedaspaziocosmo.jpg"/></g><rect class="cls-5" x="982.2" y="245.2" width="147.4" height="147.4"/><rect class="cls-5" x="798" y="429.4" width="147.4" height="147.4"/><rect class="cls-5" x="982.2" y="429.4" width="147.4" height="147.4"/><rect class="cls-5" x="798" y="613.7" width="147.4" height="147.4"/><rect class="cls-5" x="982.2" y="613.7" width="147.4" height="147.4"/><rect class="cls-5" x="982.2" y="798" width="147.4" height="147.4"/><rect class="cls-5" x="798" y="798" width="147.4" height="147.4"/><rect class="cls-5" x="798" y="982.2" width="147.4" height="147.4"/><rect class="cls-5" x="613.7" y="798" width="147.4" height="147.4"/><rect class="cls-5" x="613.7" y="982.2" width="147.4" height="147.4"/></g><g id="tondo"><g class="cls-7"><image width="600" height="600" transform="translate(-0.7 13.66) scale(0.6)" xlink:href="C:\Users\Claudio\Desktop\galassia.jpg"/></g></g></svg>