<?xml version="1.0" encoding="utf-8"?>
<!-- Generator: Adobe Illustrator 19.0.0, SVG Export Plug-In . SVG Version: 6.00 Build 0)  -->
<svg version="1.1" id="Livello_1" xmlns="http://www.w3.org/2000/svg" xmlns:xlink="http://www.w3.org/1999/xlink" x="0px" y="0px"
	 viewBox="174 -298.3 1190.6 1190.6" style="enable-background:new 174 -298.3 1190.6 1190.6;" xml:space="preserve">
<style type="text/css">
	.st0{fill:#D57CB1;}
	.st1{fill:none;stroke:#9ACF9C;stroke-width:2;stroke-miterlimit:10;}
	.st2{fill:none;stroke:#42C0ED;stroke-width:2;stroke-miterlimit:10;}
	.st3{fill:none;stroke:#FFF02A;stroke-width:2;stroke-miterlimit:10;}
</style>
<g id="Livello_1_1_">
	<rect id="XMLID_1_" x="174" y="-298.3" class="st0" width="1190.6" height="1190.6"/>
</g>
<g id="Livello_2">
	<rect id="XMLID_2_" x="234.4" y="-236.4" class="st1" width="239.5" height="239.5"/>
	<rect id="XMLID_3_" x="234.4" y="590.8" class="st1" width="239.5" height="239.5"/>
	<rect id="XMLID_4_" x="234.4" y="315.1" class="st1" width="239.5" height="239.5"/>
	<rect id="XMLID_5_" x="234.4" y="39.3" class="st1" width="239.5" height="239.5"/>
	<rect id="XMLID_30_" x="1063.3" y="-236.4" class="st1" width="239.5" height="239.5"/>
	<rect id="XMLID_29_" x="1063.3" y="590.8" class="st1" width="239.5" height="239.5"/>
	<rect id="XMLID_28_" x="1063.3" y="315.1" class="st1" width="239.5" height="239.5"/>
	<rect id="XMLID_27_" x="1063.3" y="39.3" class="st1" width="239.5" height="239.5"/>
	<rect id="XMLID_18_" x="510.7" y="-236.4" class="st1" width="239.5" height="239.5"/>
	<rect id="XMLID_17_" x="510.7" y="590.8" class="st1" width="239.5" height="239.5"/>
	<rect id="XMLID_16_" x="510.7" y="315.1" class="st1" width="239.5" height="239.5"/>
	<rect id="XMLID_7_" x="510.7" y="39.3" class="st1" width="239.5" height="239.5"/>
	<rect id="XMLID_23_" x="787" y="-236.4" class="st1" width="239.5" height="239.5"/>
	<rect id="XMLID_22_" x="787" y="590.8" class="st1" width="239.5" height="239.5"/>
	<rect id="XMLID_21_" x="787" y="315.1" class="st1" width="239.5" height="239.5"/>
	<rect id="XMLID_20_" x="787" y="39.3" class="st1" width="239.5" height="239.5"/>
</g>
<g id="Livello_3">
	<rect id="XMLID_6_" x="234.4" y="-236.4" class="st2" width="184.3" height="184.3"/>
	<rect id="XMLID_8_" x="1118.6" y="-236.4" class="st2" width="184.3" height="184.3"/>
	<rect id="XMLID_9_" x="897.6" y="-236.4" class="st2" width="184.3" height="184.3"/>
	<rect id="XMLID_10_" x="676.5" y="-236.4" class="st2" width="184.3" height="184.3"/>
	<rect id="XMLID_11_" x="455.5" y="-236.4" class="st2" width="184.3" height="184.3"/>
	<rect id="XMLID_39_" x="234.4" y="204.8" class="st2" width="184.3" height="184.3"/>
	<rect id="XMLID_38_" x="1118.6" y="204.8" class="st2" width="184.3" height="184.3"/>
	<rect id="XMLID_37_" x="897.6" y="204.8" class="st2" width="184.3" height="184.3"/>
	<rect id="XMLID_36_" x="676.5" y="204.8" class="st2" width="184.3" height="184.3"/>
	<rect id="XMLID_35_" x="455.5" y="204.8" class="st2" width="184.3" height="184.3"/>
	<rect id="XMLID_46_" x="234.4" y="426.3" class="st2" width="184.3" height="184.3"/>
	<rect id="XMLID_45_" x="1118.6" y="426.3" class="st2" width="184.3" height="184.3"/>
	<rect id="XMLID_44_" x="897.6" y="426.3" class="st2" width="184.3" height="184.3"/>
	<rect id="XMLID_43_" x="676.5" y="426.3" class="st2" width="184.3" height="184.3"/>
	<rect id="XMLID_42_" x="455.5" y="426.3" class="st2" width="184.3" height="184.3"/>
	<rect id="XMLID_53_" x="234.4" y="646.1" class="st2" width="184.3" height="184.3"/>
	<rect id="XMLID_52_" x="1118.6" y="646.1" class="st2" width="184.3" height="184.3"/>
	<rect id="XMLID_51_" x="897.6" y="646.1" class="st2" width="184.3" height="184.3"/>
	<rect id="XMLID_50_" x="676.5" y="646.1" class="st2" width="184.3" height="184.3"/>
	<rect id="XMLID_49_" x="455.5" y="646.1" class="st2" width="184.3" height="184.3"/>
	<rect id="XMLID_32_" x="234.4" y="-15" class="st2" width="184.3" height="184.3"/>
	<rect id="XMLID_31_" x="1118.6" y="-15" class="st2" width="184.3" height="184.3"/>
	<rect id="XMLID_26_" x="897.6" y="-15" class="st2" width="184.3" height="184.3"/>
	<rect id="XMLID_25_" x="676.5" y="-15" class="st2" width="184.3" height="184.3"/>
	<rect id="XMLID_24_" x="455.5" y="-15" class="st2" width="184.3" height="184.3"/>
</g>
<g id="Livello_4">
	<g id="XMLID_80_">
		<rect id="XMLID_12_" x="234.4" y="-236.4" class="st3" width="147.4" height="147.4"/>
		<rect id="XMLID_13_" x="971.3" y="-236.4" class="st3" width="147.4" height="147.4"/>
		<rect id="XMLID_14_" x="787.1" y="-236.4" class="st3" width="147.4" height="147.4"/>
		<rect id="XMLID_15_" x="602.9" y="-236.4" class="st3" width="147.4" height="147.4"/>
		<rect id="XMLID_19_" x="418.7" y="-236.4" class="st3" width="147.4" height="147.4"/>
		<rect id="XMLID_33_" x="1155.5" y="-236.4" class="st3" width="147.4" height="147.4"/>
	</g>
	<g id="XMLID_81_">
		<rect id="XMLID_55_" x="234.4" y="-52.3" class="st3" width="147.4" height="147.4"/>
		<rect id="XMLID_54_" x="971.3" y="-52.3" class="st3" width="147.4" height="147.4"/>
		<rect id="XMLID_48_" x="787.1" y="-52.3" class="st3" width="147.4" height="147.4"/>
		<rect id="XMLID_47_" x="602.9" y="-52.3" class="st3" width="147.4" height="147.4"/>
		<rect id="XMLID_41_" x="418.7" y="-52.3" class="st3" width="147.4" height="147.4"/>
		<rect id="XMLID_40_" x="1155.5" y="-52.3" class="st3" width="147.4" height="147.4"/>
	</g>
	<g id="XMLID_82_">
		<rect id="XMLID_61_" x="234.4" y="131.9" class="st3" width="147.4" height="147.4"/>
		<rect id="XMLID_60_" x="971.3" y="131.9" class="st3" width="147.4" height="147.4"/>
		<rect id="XMLID_59_" x="787.1" y="131.9" class="st3" width="147.4" height="147.4"/>
		<rect id="XMLID_58_" x="602.9" y="131.9" class="st3" width="147.4" height="147.4"/>
		<rect id="XMLID_57_" x="418.7" y="131.9" class="st3" width="147.4" height="147.4"/>
		<rect id="XMLID_56_" x="1155.5" y="131.9" class="st3" width="147.4" height="147.4"/>
	</g>
	<g id="XMLID_83_">
		<rect id="XMLID_67_" x="234.4" y="316" class="st3" width="147.4" height="147.4"/>
		<rect id="XMLID_66_" x="971.3" y="316" class="st3" width="147.4" height="147.4"/>
		<rect id="XMLID_65_" x="787.1" y="316" class="st3" width="147.4" height="147.4"/>
		<rect id="XMLID_64_" x="602.9" y="316" class="st3" width="147.4" height="147.4"/>
		<rect id="XMLID_63_" x="418.7" y="316" class="st3" width="147.4" height="147.4"/>
		<rect id="XMLID_62_" x="1155.5" y="316" class="st3" width="147.4" height="147.4"/>
	</g>
	<g id="XMLID_84_">
		<rect id="XMLID_73_" x="234.4" y="500.1" class="st3" width="147.4" height="147.4"/>
		<rect id="XMLID_72_" x="971.3" y="500.1" class="st3" width="147.4" height="147.4"/>
		<rect id="XMLID_71_" x="787.1" y="500.1" class="st3" width="147.4" height="147.4"/>
		<rect id="XMLID_70_" x="602.9" y="500.1" class="st3" width="147.4" height="147.4"/>
		<rect id="XMLID_69_" x="418.7" y="500.1" class="st3" width="147.4" height="147.4"/>
		<rect id="XMLID_68_" x="1155.5" y="500.1" class="st3" width="147.4" height="147.4"/>
	</g>
	<g id="XMLID_34_">
		<rect id="XMLID_79_" x="234.4" y="684.2" class="st3" width="147.4" height="147.4"/>
		<rect id="XMLID_78_" x="971.3" y="684.2" class="st3" width="147.4" height="147.4"/>
		<rect id="XMLID_77_" x="787.1" y="684.2" class="st3" width="147.4" height="147.4"/>
		<rect id="XMLID_76_" x="602.9" y="684.2" class="st3" width="147.4" height="147.4"/>
		<rect id="XMLID_75_" x="418.7" y="684.2" class="st3" width="147.4" height="147.4"/>
		<rect id="XMLID_74_" x="1155.5" y="684.2" class="st3" width="147.4" height="147.4"/>
	</g>
	
		<image style="overflow:visible;enable-background:new    ;" width="3264" height="2448" id="XMLID_85_" xlink:href="549C426FF5F11DCC.jpg"  transform="matrix(-0.1505 0 0 -0.1505 1001.932 554.58)">
	</image>
</g>
</svg>
