<?xml version="1.0" encoding="utf-8"?>
<!-- Generator: Adobe Illustrator 19.0.0, SVG Export Plug-In . SVG Version: 6.00 Build 0)  -->
<svg version="1.1" id="Livello_1" xmlns="http://www.w3.org/2000/svg" xmlns:xlink="http://www.w3.org/1999/xlink" x="0px" y="0px"
	 viewBox="174 -298.3 1190.6 1190.6" style="enable-background:new 174 -298.3 1190.6 1190.6;" xml:space="preserve">
<style type="text/css">
	.st0{fill:#D57DB1;}
	.st1{fill:none;stroke:#9ACF9C;stroke-width:2;stroke-miterlimit:10;}
	.st2{fill:none;stroke:#42C0ED;stroke-width:2;stroke-miterlimit:10;}
	.st3{fill:none;stroke:#FFF02A;stroke-width:2;stroke-miterlimit:10;}
	.st4{clip-path:url(#SVGID_2_);}
	.st5{clip-path:url(#SVGID_4_);}
</style>
<rect id="XMLID_1_" x="174" y="-298.3" class="st0" width="1190.6" height="1190.6"/>
<rect id="XMLID_2_" x="245.7" y="-228.5" class="st1" width="239.5" height="239.5"/>
<rect id="XMLID_3_" x="245.7" y="598.7" class="st1" width="239.5" height="239.5"/>
<rect id="XMLID_4_" x="245.7" y="323" class="st1" width="239.5" height="239.5"/>
<rect id="XMLID_5_" x="245.7" y="47.3" class="st1" width="239.5" height="239.5"/>
<rect id="XMLID_30_" x="1074.6" y="-228.5" class="st1" width="239.5" height="239.5"/>
<rect id="XMLID_29_" x="1074.6" y="598.7" class="st1" width="239.5" height="239.5"/>
<rect id="XMLID_28_" x="1074.6" y="323" class="st1" width="239.5" height="239.5"/>
<rect id="XMLID_27_" x="1074.6" y="47.3" class="st1" width="239.5" height="239.5"/>
<rect id="XMLID_18_" x="522" y="-228.5" class="st1" width="239.5" height="239.5"/>
<rect id="XMLID_17_" x="522" y="598.7" class="st1" width="239.5" height="239.5"/>
<rect id="XMLID_16_" x="522" y="323" class="st1" width="239.5" height="239.5"/>
<rect id="XMLID_7_" x="522" y="47.3" class="st1" width="239.5" height="239.5"/>
<rect id="XMLID_23_" x="798.3" y="-228.5" class="st1" width="239.5" height="239.5"/>
<rect id="XMLID_22_" x="798.3" y="598.7" class="st1" width="239.5" height="239.5"/>
<rect id="XMLID_21_" x="798.3" y="323" class="st1" width="239.5" height="239.5"/>
<rect id="XMLID_20_" x="798.3" y="47.3" class="st1" width="239.5" height="239.5"/>
<rect id="XMLID_6_" x="245.7" y="-228.5" class="st2" width="184.3" height="184.3"/>
<rect id="XMLID_8_" x="1129.9" y="-228.5" class="st2" width="184.3" height="184.3"/>
<rect id="XMLID_9_" x="908.9" y="-228.5" class="st2" width="184.3" height="184.3"/>
<rect id="XMLID_10_" x="687.8" y="-228.5" class="st2" width="184.3" height="184.3"/>
<rect id="XMLID_11_" x="466.8" y="-228.5" class="st2" width="184.3" height="184.3"/>
<rect id="XMLID_39_" x="245.7" y="212.8" class="st2" width="184.3" height="184.3"/>
<rect id="XMLID_38_" x="1129.9" y="212.8" class="st2" width="184.3" height="184.3"/>
<rect id="XMLID_37_" x="908.9" y="212.8" class="st2" width="184.3" height="184.3"/>
<rect id="XMLID_36_" x="687.8" y="212.8" class="st2" width="184.3" height="184.3"/>
<rect id="XMLID_35_" x="466.8" y="212.8" class="st2" width="184.3" height="184.3"/>
<rect id="XMLID_46_" x="245.7" y="434.2" class="st2" width="184.3" height="184.3"/>
<rect id="XMLID_45_" x="1129.9" y="434.2" class="st2" width="184.3" height="184.3"/>
<rect id="XMLID_44_" x="908.9" y="434.2" class="st2" width="184.3" height="184.3"/>
<rect id="XMLID_43_" x="687.8" y="434.2" class="st2" width="184.3" height="184.3"/>
<rect id="XMLID_42_" x="466.8" y="434.2" class="st2" width="184.3" height="184.3"/>
<rect id="XMLID_53_" x="245.7" y="654" class="st2" width="184.3" height="184.3"/>
<rect id="XMLID_52_" x="1129.9" y="654" class="st2" width="184.3" height="184.3"/>
<rect id="XMLID_51_" x="908.9" y="654" class="st2" width="184.3" height="184.3"/>
<rect id="XMLID_50_" x="687.8" y="654" class="st2" width="184.3" height="184.3"/>
<rect id="XMLID_49_" x="466.8" y="654" class="st2" width="184.3" height="184.3"/>
<rect id="XMLID_32_" x="245.7" y="-7" class="st2" width="184.3" height="184.3"/>
<rect id="XMLID_31_" x="1129.9" y="-7" class="st2" width="184.3" height="184.3"/>
<rect id="XMLID_26_" x="908.9" y="-7" class="st2" width="184.3" height="184.3"/>
<rect id="XMLID_25_" x="687.8" y="-7" class="st2" width="184.3" height="184.3"/>
<rect id="XMLID_24_" x="466.8" y="-7" class="st2" width="184.3" height="184.3"/>
<g id="XMLID_80_">
	<rect id="XMLID_12_" x="245.7" y="-228.5" class="st3" width="147.4" height="147.4"/>
	<rect id="XMLID_13_" x="982.6" y="-228.5" class="st3" width="147.4" height="147.4"/>
	<rect id="XMLID_14_" x="798.4" y="-228.5" class="st3" width="147.4" height="147.4"/>
	<rect id="XMLID_15_" x="614.2" y="-228.5" class="st3" width="147.4" height="147.4"/>
	<rect id="XMLID_19_" x="429.9" y="-228.5" class="st3" width="147.4" height="147.4"/>
	<rect id="XMLID_33_" x="1166.8" y="-228.5" class="st3" width="147.4" height="147.4"/>
</g>
<g id="XMLID_81_">
	<rect id="XMLID_55_" x="245.7" y="-44.3" class="st3" width="147.4" height="147.4"/>
	<rect id="XMLID_54_" x="982.6" y="-44.3" class="st3" width="147.4" height="147.4"/>
	<rect id="XMLID_48_" x="798.4" y="-44.3" class="st3" width="147.4" height="147.4"/>
	<rect id="XMLID_47_" x="614.2" y="-44.3" class="st3" width="147.4" height="147.4"/>
	<rect id="XMLID_41_" x="429.9" y="-44.3" class="st3" width="147.4" height="147.4"/>
	<rect id="XMLID_40_" x="1166.8" y="-44.3" class="st3" width="147.4" height="147.4"/>
</g>
<rect id="XMLID_61_" x="245.7" y="139.8" class="st3" width="147.4" height="147.4"/>
<rect id="XMLID_60_" x="982.6" y="139.8" class="st3" width="147.4" height="147.4"/>
<rect id="XMLID_59_" x="798.4" y="139.8" class="st3" width="147.4" height="147.4"/>
<g id="XMLID_82_">
	<g>
		<defs>
			<rect id="SVGID_1_" x="614.2" y="139.8" width="147.4" height="147.4"/>
		</defs>
		<clipPath id="SVGID_2_">
			<use xlink:href="#SVGID_1_"  style="overflow:visible;"/>
		</clipPath>
		<g transform="matrix(1 0 0 1 0 -7.629395e-06)" class="st4">
			
				<image style="overflow:visible;enable-background:new    ;" width="3264" height="2448" id="XMLID_85_" xlink:href="A9243EDCFD4D9218.jpeg"  transform="matrix(-0.2934 0 0 -0.2934 1203.8346 606.2543)">
			</image>
		</g>
	</g>
</g>
<rect id="XMLID_57_" x="429.9" y="139.8" class="st3" width="147.4" height="147.4"/>
<rect id="XMLID_56_" x="1166.8" y="139.8" class="st3" width="147.4" height="147.4"/>
<g id="XMLID_83_">
	<rect id="XMLID_67_" x="245.7" y="323.9" class="st3" width="147.4" height="147.4"/>
	<rect id="XMLID_66_" x="982.6" y="323.9" class="st3" width="147.4" height="147.4"/>
	<rect id="XMLID_65_" x="798.4" y="323.9" class="st3" width="147.4" height="147.4"/>
	<rect id="XMLID_64_" x="614.2" y="323.9" class="st3" width="147.4" height="147.4"/>
	<rect id="XMLID_63_" x="429.9" y="323.9" class="st3" width="147.4" height="147.4"/>
	<rect id="XMLID_62_" x="1166.8" y="323.9" class="st3" width="147.4" height="147.4"/>
</g>
<g id="XMLID_84_">
	<rect id="XMLID_73_" x="245.7" y="508" class="st3" width="147.4" height="147.4"/>
	<rect id="XMLID_72_" x="982.6" y="508" class="st3" width="147.4" height="147.4"/>
	<rect id="XMLID_71_" x="798.4" y="508" class="st3" width="147.4" height="147.4"/>
	<rect id="XMLID_70_" x="614.2" y="508" class="st3" width="147.4" height="147.4"/>
	<rect id="XMLID_69_" x="429.9" y="508" class="st3" width="147.4" height="147.4"/>
	<rect id="XMLID_68_" x="1166.8" y="508" class="st3" width="147.4" height="147.4"/>
</g>
<g id="XMLID_34_">
	<rect id="XMLID_79_" x="245.7" y="692.2" class="st3" width="147.4" height="147.4"/>
	<rect id="XMLID_78_" x="982.6" y="692.2" class="st3" width="147.4" height="147.4"/>
	<rect id="XMLID_77_" x="798.4" y="692.2" class="st3" width="147.4" height="147.4"/>
	<rect id="XMLID_76_" x="614.2" y="692.2" class="st3" width="147.4" height="147.4"/>
	<rect id="XMLID_75_" x="429.9" y="692.2" class="st3" width="147.4" height="147.4"/>
	<rect id="XMLID_74_" x="1166.8" y="692.2" class="st3" width="147.4" height="147.4"/>
</g>
<g id="XMLID_94_">
	<g>
		<defs>
			<circle id="SVGID_3_" cx="872.1" cy="397.6" r="83.5"/>
		</defs>
		<clipPath id="SVGID_4_">
			<use xlink:href="#SVGID_3_"  style="overflow:visible;"/>
		</clipPath>
		<g class="st5">
			
				<image style="overflow:visible;enable-background:new    ;" width="2448" height="3264" id="XMLID_88_" xlink:href="A9243EDCFD4D9218.jpeg"  transform="matrix(0.264 0 0 0.264 512.1631 -48.1663)">
			</image>
		</g>
	</g>
</g>
</svg>
