<?xml version="1.0" encoding="utf-8"?>
<!-- Generator: Adobe Illustrator 19.0.0, SVG Export Plug-In . SVG Version: 6.00 Build 0)  -->
<svg version="1.1" id="Livello_1" xmlns="http://www.w3.org/2000/svg" xmlns:xlink="http://www.w3.org/1999/xlink" x="0px" y="0px"
	 viewBox="174 -298.3 1190.6 1190.6" style="enable-background:new 174 -298.3 1190.6 1190.6;" xml:space="preserve">
<style type="text/css">
	.st0{fill:#D57DB1;}
	.st1{fill:none;stroke:#9ACF9C;stroke-width:2;stroke-miterlimit:10;}
	.st2{fill:none;stroke:#42C0ED;stroke-width:2;stroke-miterlimit:10;}
	.st3{fill:none;stroke:#FFF02A;stroke-width:2;stroke-miterlimit:10;}
	.st4{clip-path:url(#SVGID_2_);}
	.st5{clip-path:url(#SVGID_4_);}
	.st6{fill:none;}
	.st7{font-family:'OpenSansCondensed-Bold';}
	.st8{font-size:60px;}
	.st9{font-family:'OpenSansCondensed-Light';}
	.st10{font-size:16px;}
	.st11{font-family:'EBGaramond-Italic';}
	.st12{font-size:10px;}
</style>
<rect id="XMLID_1_" x="174" y="-298.3" class="st0" width="1190.6" height="1190.6"/>
<rect id="XMLID_2_" x="245.7" y="-228.5" class="st1" width="239.5" height="239.5"/>
<rect id="XMLID_3_" x="245.7" y="598.7" class="st1" width="239.5" height="239.5"/>
<rect id="XMLID_4_" x="245.7" y="323" class="st1" width="239.5" height="239.5"/>
<rect id="XMLID_5_" x="245.7" y="47.3" class="st1" width="239.5" height="239.5"/>
<rect id="XMLID_30_" x="1074.6" y="-228.5" class="st1" width="239.5" height="239.5"/>
<rect id="XMLID_29_" x="1074.6" y="598.7" class="st1" width="239.5" height="239.5"/>
<rect id="XMLID_28_" x="1074.6" y="323" class="st1" width="239.5" height="239.5"/>
<rect id="XMLID_27_" x="1074.6" y="47.3" class="st1" width="239.5" height="239.5"/>
<rect id="XMLID_18_" x="522" y="-228.5" class="st1" width="239.5" height="239.5"/>
<rect id="XMLID_17_" x="522" y="598.7" class="st1" width="239.5" height="239.5"/>
<rect id="XMLID_16_" x="522" y="323" class="st1" width="239.5" height="239.5"/>
<rect id="XMLID_7_" x="522" y="47.3" class="st1" width="239.5" height="239.5"/>
<rect id="XMLID_23_" x="798.3" y="-228.5" class="st1" width="239.5" height="239.5"/>
<rect id="XMLID_22_" x="798.3" y="598.7" class="st1" width="239.5" height="239.5"/>
<rect id="XMLID_21_" x="798.3" y="323" class="st1" width="239.5" height="239.5"/>
<rect id="XMLID_20_" x="798.3" y="47.3" class="st1" width="239.5" height="239.5"/>
<rect id="XMLID_6_" x="245.7" y="-228.5" class="st2" width="184.3" height="184.3"/>
<rect id="XMLID_8_" x="1129.9" y="-228.5" class="st2" width="184.3" height="184.3"/>
<rect id="XMLID_9_" x="908.9" y="-228.5" class="st2" width="184.3" height="184.3"/>
<rect id="XMLID_10_" x="687.8" y="-228.5" class="st2" width="184.3" height="184.3"/>
<rect id="XMLID_11_" x="466.8" y="-228.5" class="st2" width="184.3" height="184.3"/>
<rect id="XMLID_39_" x="245.7" y="212.8" class="st2" width="184.3" height="184.3"/>
<rect id="XMLID_38_" x="1129.9" y="212.8" class="st2" width="184.3" height="184.3"/>
<rect id="XMLID_37_" x="908.9" y="212.8" class="st2" width="184.3" height="184.3"/>
<rect id="XMLID_36_" x="687.8" y="212.8" class="st2" width="184.3" height="184.3"/>
<rect id="XMLID_35_" x="466.8" y="212.8" class="st2" width="184.3" height="184.3"/>
<rect id="XMLID_46_" x="245.7" y="434.2" class="st2" width="184.3" height="184.3"/>
<rect id="XMLID_45_" x="1129.9" y="434.2" class="st2" width="184.3" height="184.3"/>
<rect id="XMLID_44_" x="908.9" y="434.2" class="st2" width="184.3" height="184.3"/>
<rect id="XMLID_43_" x="687.8" y="434.2" class="st2" width="184.3" height="184.3"/>
<rect id="XMLID_42_" x="466.8" y="434.2" class="st2" width="184.3" height="184.3"/>
<rect id="XMLID_53_" x="245.7" y="654" class="st2" width="184.3" height="184.3"/>
<rect id="XMLID_52_" x="1129.9" y="654" class="st2" width="184.3" height="184.3"/>
<rect id="XMLID_51_" x="908.9" y="654" class="st2" width="184.3" height="184.3"/>
<rect id="XMLID_50_" x="687.8" y="654" class="st2" width="184.3" height="184.3"/>
<rect id="XMLID_49_" x="466.8" y="654" class="st2" width="184.3" height="184.3"/>
<rect id="XMLID_32_" x="245.7" y="-7" class="st2" width="184.3" height="184.3"/>
<rect id="XMLID_31_" x="1129.9" y="-7" class="st2" width="184.3" height="184.3"/>
<rect id="XMLID_26_" x="908.9" y="-7" class="st2" width="184.3" height="184.3"/>
<rect id="XMLID_25_" x="687.8" y="-7" class="st2" width="184.3" height="184.3"/>
<rect id="XMLID_24_" x="466.8" y="-7" class="st2" width="184.3" height="184.3"/>
<g id="XMLID_80_">
	<rect id="XMLID_12_" x="245.7" y="-228.5" class="st3" width="147.4" height="147.4"/>
	<rect id="XMLID_13_" x="982.6" y="-228.5" class="st3" width="147.4" height="147.4"/>
	<rect id="XMLID_14_" x="798.4" y="-228.5" class="st3" width="147.4" height="147.4"/>
	<rect id="XMLID_15_" x="614.2" y="-228.5" class="st3" width="147.4" height="147.4"/>
	<rect id="XMLID_19_" x="429.9" y="-228.5" class="st3" width="147.4" height="147.4"/>
	<rect id="XMLID_33_" x="1166.8" y="-228.5" class="st3" width="147.4" height="147.4"/>
</g>
<g id="XMLID_81_">
	<rect id="XMLID_55_" x="245.7" y="-44.3" class="st3" width="147.4" height="147.4"/>
	<rect id="XMLID_54_" x="982.6" y="-44.3" class="st3" width="147.4" height="147.4"/>
	<rect id="XMLID_48_" x="798.4" y="-44.3" class="st3" width="147.4" height="147.4"/>
	<rect id="XMLID_47_" x="614.2" y="-44.3" class="st3" width="147.4" height="147.4"/>
	<rect id="XMLID_41_" x="429.9" y="-44.3" class="st3" width="147.4" height="147.4"/>
	<rect id="XMLID_40_" x="1166.8" y="-44.3" class="st3" width="147.4" height="147.4"/>
</g>
<rect id="XMLID_61_" x="245.7" y="139.8" class="st3" width="147.4" height="147.4"/>
<rect id="XMLID_60_" x="982.6" y="139.8" class="st3" width="147.4" height="147.4"/>
<rect id="XMLID_59_" x="798.4" y="139.8" class="st3" width="147.4" height="147.4"/>
<g id="XMLID_82_">
	<g>
		<defs>
			<rect id="SVGID_1_" x="614.2" y="139.8" width="147.4" height="147.4"/>
		</defs>
		<clipPath id="SVGID_2_">
			<use xlink:href="#SVGID_1_"  style="overflow:visible;"/>
		</clipPath>
		<g transform="matrix(1 0 0 1 0 -7.629395e-06)" class="st4">
			
				<image style="overflow:visible;enable-background:new    ;" width="3264" height="2448" id="XMLID_85_" xlink:href="FB78FD64EEE4546F.jpeg"  transform="matrix(-0.2934 0 0 -0.2934 1203.8346 606.2543)">
			</image>
		</g>
	</g>
</g>
<rect id="XMLID_57_" x="429.9" y="139.8" class="st3" width="147.4" height="147.4"/>
<rect id="XMLID_56_" x="1166.8" y="139.8" class="st3" width="147.4" height="147.4"/>
<g id="XMLID_83_">
	<rect id="XMLID_67_" x="245.7" y="323.9" class="st3" width="147.4" height="147.4"/>
	<rect id="XMLID_66_" x="982.6" y="323.9" class="st3" width="147.4" height="147.4"/>
	<rect id="XMLID_65_" x="798.4" y="323.9" class="st3" width="147.4" height="147.4"/>
	<rect id="XMLID_64_" x="614.2" y="323.9" class="st3" width="147.4" height="147.4"/>
	<rect id="XMLID_63_" x="429.9" y="323.9" class="st3" width="147.4" height="147.4"/>
	<rect id="XMLID_62_" x="1166.8" y="323.9" class="st3" width="147.4" height="147.4"/>
</g>
<g id="XMLID_84_">
	<rect id="XMLID_73_" x="245.7" y="508" class="st3" width="147.4" height="147.4"/>
	<rect id="XMLID_72_" x="982.6" y="508" class="st3" width="147.4" height="147.4"/>
	<rect id="XMLID_71_" x="798.4" y="508" class="st3" width="147.4" height="147.4"/>
	<rect id="XMLID_70_" x="614.2" y="508" class="st3" width="147.4" height="147.4"/>
	<rect id="XMLID_69_" x="429.9" y="508" class="st3" width="147.4" height="147.4"/>
	<rect id="XMLID_68_" x="1166.8" y="508" class="st3" width="147.4" height="147.4"/>
</g>
<g id="XMLID_34_">
	<rect id="XMLID_79_" x="245.7" y="692.2" class="st3" width="147.4" height="147.4"/>
	<rect id="XMLID_78_" x="982.6" y="692.2" class="st3" width="147.4" height="147.4"/>
	<rect id="XMLID_77_" x="798.4" y="692.2" class="st3" width="147.4" height="147.4"/>
	<rect id="XMLID_76_" x="614.2" y="692.2" class="st3" width="147.4" height="147.4"/>
	<rect id="XMLID_75_" x="429.9" y="692.2" class="st3" width="147.4" height="147.4"/>
	<rect id="XMLID_74_" x="1166.8" y="692.2" class="st3" width="147.4" height="147.4"/>
</g>
<g id="XMLID_94_">
	<g>
		<defs>
			<circle id="SVGID_3_" cx="872.1" cy="397.6" r="83.5"/>
		</defs>
		<clipPath id="SVGID_4_">
			<use xlink:href="#SVGID_3_"  style="overflow:visible;"/>
		</clipPath>
		<g class="st5">
			
				<image style="overflow:visible;enable-background:new    ;" width="2448" height="3264" id="XMLID_88_" xlink:href="FB78FD64EEE4546D.jpeg"  transform="matrix(0.264 0 0 0.264 512.1631 -48.1663)">
			</image>
		</g>
	</g>
</g>
<rect id="XMLID_98_" x="662.6" y="-158.2" class="st6" width="214.7" height="60.2"/>
<text id="XMLID_96_" transform="matrix(1 0 0 1 662.5771 -112.6283)" class="st7 st8">Caterina</text>
<rect id="XMLID_95_" x="788.3" y="42.6" class="st6" width="257.4" height="238.8"/>
<text transform="matrix(1 0 0 1 788.3361 54.7417)" class="st9 st10">Lorem ipsum dolor sit amet, consectetur adipisci </text>
<text transform="matrix(1 0 0 1 788.3361 78.7417)" class="st9 st10">elit, sed eiusmod tempor incidunt ut labore et </text>
<text transform="matrix(1 0 0 1 788.3361 102.7416)" class="st9 st10">dolore magna aliqua. Ut enim ad minim veniam, </text>
<text transform="matrix(1 0 0 1 788.3361 126.7416)" class="st9 st10">quis nostrum exercitationem ullam corporis </text>
<text transform="matrix(1 0 0 1 788.3361 150.7416)" class="st9 st10">suscipit laboriosam, nisi ut aliquid ex ea commo</text>
<text transform="matrix(1 0 0 1 1035.7361 150.7416)" class="st9 st10">-</text>
<text transform="matrix(1 0 0 1 788.3361 174.7416)" class="st9 st10">di consequatur. Quis aute iure reprehenderit in </text>
<text transform="matrix(1 0 0 1 788.3361 198.7416)" class="st9 st10">voluptate velit esse cillum dolore eu fugiat nulla </text>
<text transform="matrix(1 0 0 1 788.3361 222.7416)" class="st9 st10">pariatur. Excepteur sint obcaecat cupiditat non </text>
<text transform="matrix(1 0 0 1 788.3361 246.7416)" class="st9 st10">proident, sunt in culpa qui officia deserunt mollit </text>
<text transform="matrix(1 0 0 1 788.3361 270.7416)" class="st9 st10">anim id est laborum.</text>
<rect id="XMLID_92_" x="972.5" y="453.2" class="st6" width="201.1" height="88.1"/>
<text id="XMLID_99_" transform="matrix(1 0 0 1 972.5404 460.2083)" class="st11 st12">Kiwi, olio su tela, 2018</text>
<circle id="XMLID_100_" class="st6" cx="614.2" cy="471.3" r="145.7"/>
<text transform="matrix(1 0 0 1 595.2798 337.7543)" class="st9 st10">Lorem </text>
<text transform="matrix(1 0 0 1 532.1798 361.7543)" class="st9 st10">ipsum dolor sit amet, consecte</text>
<text transform="matrix(1 0 0 1 689.2798 361.7543)" class="st9 st10">-</text>
<text transform="matrix(1 0 0 1 504.9798 385.7543)" class="st9 st10">tur adipisci elit, sed eiusmod tempor </text>
<text transform="matrix(1 0 0 1 487.7798 409.7543)" class="st9 st10">incidunt ut labore et dolore magna aliqua. Ut </text>
<text transform="matrix(1 0 0 1 476.6798 433.7543)" class="st9 st10">enim ad minim veniam, quis nostrum exercitationem </text>
<text transform="matrix(1 0 0 1 470.4798 457.7543)" class="st9 st10">ullam corporis suscipit laboriosam, nisi ut aliquid ex ea </text>
<text transform="matrix(1 0 0 1 468.7798 481.7543)" class="st9 st10">commodi consequatur. Quis aute iure reprehenderit in </text>
<text transform="matrix(1 0 0 1 472.5798 505.7543)" class="st9 st10">voluptate velit esse cillum dolore eu fugiat nulla paria</text>
<text transform="matrix(1 0 0 1 747.0798 505.7543)" class="st9 st10">-</text>
<text transform="matrix(1 0 0 1 480.6798 529.7543)" class="st9 st10">tur. Excepteur sint obcaecat cupiditat non proident, </text>
<text transform="matrix(1 0 0 1 493.9798 553.7543)" class="st9 st10">sunt in culpa qui officia deserunt mollit anim </text>
<text transform="matrix(1 0 0 1 514.6798 577.7543)" class="st9 st10">id est laborum.</text>
</svg>
