<?xml version="1.0" encoding="utf-8"?>
<!-- Generator: Adobe Illustrator 22.1.0, SVG Export Plug-In . SVG Version: 6.00 Build 0)  -->
<svg version="1.1" id="Livello_1" xmlns="http://www.w3.org/2000/svg" xmlns:xlink="http://www.w3.org/1999/xlink" x="0px" y="0px"
	 viewBox="0 0 1190.6 1190.6" style="enable-background:new 0 0 1190.6 1190.6;" xml:space="preserve">
<style type="text/css">
	.st0{fill:#FFF200;stroke:#000000;stroke-miterlimit:10;}
	.st1{fill:none;stroke:#F74646;stroke-miterlimit:10;}
	.st2{fill:none;stroke:#61E545;stroke-miterlimit:10;}
	.st3{fill:none;stroke:#EA75EA;stroke-miterlimit:10;}
	.st4{font-family:'OpenSansCondensed-Bold';}
	.st5{font-size:60px;}
	.st6{font-family:'OpenSans-Light';}
	.st7{font-size:16px;}
	.st8{clip-path:url(#SVGID_2_);}
</style>
<title>Tavola disegno 1</title>
<rect x="0.2" y="0.4" class="st0" width="1190.6" height="1190.6"/>
<g id="Livello_1_1_">
	<path class="st1" d="M61.9,61.3h239.5v239.5H61.9V61.3z M338.3,300.9h239.5V61.3H338.3V300.9z M614.7,300.9h239.5V61.3H614.7V300.9
		z M891.1,300.9h239.5V61.3H891.1V300.9z M61.9,577.2h239.5V337.7H61.9V577.2z M338.3,577.2h239.5V337.7H338.3V577.2z M614.7,577.2
		h239.5V337.7H614.7V577.2z M891.1,577.2h239.5V337.7H891.1V577.2z M61.9,853.6h239.5V614.1H61.9V853.6z M338.3,853.6h239.5V614.1
		H338.3V853.6z M614.7,853.6h239.5V614.1H614.7V853.6z M891.1,853.6h239.5V614.1H891.1V853.6z M61.9,1130h239.5V890.5H61.9V1130z
		 M338.3,1130h239.5V890.5H338.3V1130z M614.7,1130h239.5V890.5H614.7V1130z M891.1,1130h239.5V890.5H891.1V1130z"/>
</g>
<g id="Livello_2_1_">
	<rect x="62" y="61.4" class="st2" width="184.3" height="184.3"/>
	<rect x="283.1" y="61.4" class="st2" width="184.3" height="184.3"/>
	<rect x="504.2" y="61.4" class="st2" width="184.2" height="184.3"/>
	<rect x="725.3" y="61.4" class="st2" width="184.3" height="184.3"/>
	<rect x="946.4" y="61.4" class="st2" width="184.3" height="184.3"/>
	<rect x="62" y="282.5" class="st2" width="184.3" height="184.3"/>
	<rect x="283.1" y="282.5" class="st2" width="184.3" height="184.3"/>
	<rect x="504.2" y="282.5" class="st2" width="184.2" height="184.3"/>
	<rect x="725.3" y="282.5" class="st2" width="184.3" height="184.3"/>
	<rect x="946.4" y="282.5" class="st2" width="184.3" height="184.3"/>
	<rect x="62" y="503.6" class="st2" width="184.3" height="184.2"/>
	<rect x="283.1" y="503.6" class="st2" width="184.3" height="184.2"/>
	<rect x="504.2" y="503.6" class="st2" width="184.2" height="184.2"/>
	<rect x="725.3" y="503.6" class="st2" width="184.3" height="184.2"/>
	<rect x="946.4" y="503.6" class="st2" width="184.3" height="184.2"/>
	<rect x="62" y="724.7" class="st2" width="184.3" height="184.3"/>
	<rect x="283.1" y="724.7" class="st2" width="184.3" height="184.3"/>
	<rect x="504.2" y="724.7" class="st2" width="184.2" height="184.3"/>
	<rect x="725.3" y="724.7" class="st2" width="184.3" height="184.3"/>
	<rect x="946.4" y="724.7" class="st2" width="184.3" height="184.3"/>
	<rect x="62" y="945.8" class="st2" width="184.3" height="184.3"/>
	<rect x="283.1" y="945.8" class="st2" width="184.3" height="184.3"/>
	<rect x="504.2" y="945.8" class="st2" width="184.2" height="184.3"/>
	<rect x="725.3" y="945.8" class="st2" width="184.3" height="184.3"/>
	<rect x="946.4" y="945.8" class="st2" width="184.3" height="184.3"/>
</g>
<g id="Livello_3">
	<rect x="61.9" y="60.4" class="st3" width="147.4" height="147.4"/>
	<rect x="246.2" y="60.4" class="st3" width="147.4" height="147.4"/>
	<rect x="430.5" y="60.4" class="st3" width="147.4" height="147.4"/>
	<rect x="614.7" y="60.4" class="st3" width="147.4" height="147.4"/>
	<rect x="798.9" y="60.4" class="st3" width="147.4" height="147.4"/>
	<rect x="983.2" y="60.4" class="st3" width="147.4" height="147.4"/>
	<rect x="61.9" y="244.7" class="st3" width="147.4" height="147.4"/>
	<rect x="246.2" y="244.7" class="st3" width="147.4" height="147.4"/>
	<rect x="428.5" y="244.7" class="st3" width="147.4" height="147.4"/>
	<rect x="612.7" y="244.7" class="st3" width="147.4" height="147.4"/>
	<rect x="796.9" y="244.7" class="st3" width="147.4" height="147.4"/>
	<rect x="981.2" y="244.7" class="st3" width="147.4" height="147.4"/>
	<rect x="61.9" y="428.9" class="st3" width="147.4" height="147.4"/>
	<rect x="246.2" y="428.9" class="st3" width="147.4" height="147.4"/>
	<rect x="428.5" y="428.9" class="st3" width="147.4" height="147.4"/>
	<rect x="612.7" y="428.9" class="st3" width="147.4" height="147.4"/>
	<rect x="796.9" y="428.9" class="st3" width="147.4" height="147.4"/>
	<rect x="981.2" y="428.9" class="st3" width="147.4" height="147.4"/>
	<rect x="61.9" y="613.2" class="st3" width="147.4" height="147.4"/>
	<rect x="246.2" y="613.2" class="st3" width="147.4" height="147.4"/>
	<rect x="428.5" y="613.2" class="st3" width="147.4" height="147.4"/>
	<rect x="612.7" y="613.2" class="st3" width="147.4" height="147.4"/>
	<rect x="796.9" y="613.2" class="st3" width="147.4" height="147.4"/>
	<rect x="981.2" y="613.2" class="st3" width="147.4" height="147.4"/>
	<rect x="61.9" y="797.4" class="st3" width="147.4" height="147.4"/>
	<rect x="246.2" y="797.4" class="st3" width="147.4" height="147.4"/>
	<rect x="430.5" y="797.4" class="st3" width="147.4" height="147.4"/>
	<rect x="614.7" y="797.4" class="st3" width="147.4" height="147.4"/>
	<rect x="798.9" y="797.4" class="st3" width="147.4" height="147.4"/>
	<rect x="983.2" y="797.4" class="st3" width="147.4" height="147.4"/>
	<rect x="61.9" y="981.7" class="st3" width="147.4" height="147.4"/>
	<rect x="246.2" y="981.7" class="st3" width="147.4" height="147.4"/>
	<rect x="430.5" y="981.7" class="st3" width="147.4" height="147.4"/>
	<rect x="614.7" y="981.7" class="st3" width="147.4" height="147.4"/>
	<rect x="798.9" y="981.7" class="st3" width="147.4" height="147.4"/>
	<rect x="983.2" y="981.7" class="st3" width="147.4" height="147.4"/>
</g>
<image style="overflow:visible;enable-background:new    ;" width="185" height="185" xlink:href="705F762E.jpg"  transform="matrix(1.3037 0 0 1.3037 337.7 336.6258)">
</image>
<text transform="matrix(1 0 0 1 62.0352 106.0248)" class="st4 st5">Grafica vettoriale</text>
<text transform="matrix(1 0 0 1 61.9855 138.6397)" class="st6 st7">Lorem ipsum dolor sit amet, consectetuer adipiscing elit, sed diam no</text>
<text transform="matrix(1 0 0 1 559.6855 138.6397)" class="st6 st7">-</text>
<text transform="matrix(1 0 0 1 61.9855 162.6397)" class="st6 st7">nummy nibh euismod tincidunt ut laoreet dolore magna aliquam erat </text>
<text transform="matrix(1 0 0 1 61.9855 186.6396)" class="st6 st7">volutpat. Ut wisi enim ad minim veniam, quis nostrud exerci tation </text>
<text transform="matrix(1 0 0 1 61.9855 210.6396)" class="st6 st7">ullamcorper suscipit lobortis nisl ut aliquip ex ea commodo consequat. </text>
<text transform="matrix(1 0 0 1 61.9855 234.6396)" class="st6 st7">Duis autem vel eum iriure dolor in hendrerit in vulputate velit esse mo</text>
<text transform="matrix(1 0 0 1 563.4855 234.6396)" class="st6 st7">-</text>
<text transform="matrix(1 0 0 1 61.9855 258.6396)" class="st6 st7">lestie consequat, vel illum dolore eu feugiat nulla facilisis at vero eros et </text>
<text transform="matrix(1 0 0 1 61.9855 282.6396)" class="st6 st7">accumsan et iusto odio dignissim qui blandit praesent luptatum zzril </text>
<text transform="matrix(1 0 0 1 107.3146 371.3623)" class="st6 st7">Lorem ipsum dolor </text>
<text transform="matrix(1 0 0 1 83.6146 395.3623)" class="st6 st7">sit amet, consectetuer adi</text>
<text transform="matrix(1 0 0 1 268.5146 395.3623)" class="st6 st7">-</text>
<text transform="matrix(1 0 0 1 69.6146 419.3623)" class="st6 st7">piscing elit, sed diam nonum</text>
<text transform="matrix(1 0 0 1 274.0146 419.3623)" class="st6 st7">-</text>
<text transform="matrix(1 0 0 1 62.0146 443.3623)" class="st6 st7">my nibh euismod tincidunt ut </text>
<text transform="matrix(1 0 0 1 59.8146 467.3623)" class="st6 st7">laoreet dolore magna aliquam </text>
<text transform="matrix(1 0 0 1 64.2146 491.3623)" class="st6 st7">erat volutpat. Ut wisi enim ad </text>
<text transform="matrix(1 0 0 1 73.9146 515.3625)" class="st6 st7">minim veniam, quis nostrud </text>
<text transform="matrix(1 0 0 1 90.9146 539.3625)" class="st6 st7">exerci tation ullamcorper </text>
<text transform="matrix(1 0 0 1 120.5146 563.3625)" class="st6 st7">suscipit lobortis </text>
<g>
	<g>
		<g>
			<g>
				<defs>
					<circle id="SVGID_1_" cx="870.6" cy="318.4" r="249.8"/>
				</defs>
				<clipPath id="SVGID_2_">
					<use xlink:href="#SVGID_1_"  style="overflow:visible;"/>
				</clipPath>
				<g class="st8">
					
						<image style="overflow:visible;enable-background:new    ;" width="500" height="750" xlink:href="891250_05.estensione.jpg"  transform="matrix(1 0 0 1 620.6088 -39.8569)">
					</image>
				</g>
			</g>
		</g>
	</g>
</g>
</svg>
