<?xml version="1.0" encoding="utf-8"?>
<!-- Generator: Adobe Illustrator 22.1.0, SVG Export Plug-In . SVG Version: 6.00 Build 0)  -->
<svg version="1.1" id="Livello_1" xmlns="http://www.w3.org/2000/svg" xmlns:xlink="http://www.w3.org/1999/xlink" x="0px" y="0px"
	 viewBox="0 0 1190.6 1190.6" style="enable-background:new 0 0 1190.6 1190.6;" xml:space="preserve">
<style type="text/css">
	.st0{fill:#FFF200;stroke:#000000;stroke-miterlimit:10;}
	.st1{fill:none;stroke:#F74646;stroke-miterlimit:10;}
	.st2{fill:none;stroke:#61E545;stroke-miterlimit:10;}
	.st3{fill:none;stroke:#EA75EA;stroke-miterlimit:10;}
	.st4{clip-path:url(#SVGID_2_);}
	.st5{font-family:'OpenSansCondensed-Bold';}
	.st6{font-size:60px;}
	.st7{font-family:'OpenSans-Light';}
	.st8{font-size:16px;}
	.st9{font-family:'EBGaramond-Italic';}
	.st10{font-size:10px;}
</style>
<title>Tavola disegno 1</title>
<rect x="0.2" y="0.4" class="st0" width="1190.6" height="1190.6"/>
<g id="Livello_1_1_">
	<path class="st1" d="M61.8,60.2h239.5v239.5H61.8V60.2z M338.2,299.8h239.5V60.2H338.2V299.8z M614.6,299.8h239.5V60.2H614.6V299.8
		z M891,299.8h239.5V60.2H891V299.8z M61.8,576.1h239.5V336.6H61.8V576.1z M338.2,576.1h239.5V336.6H338.2V576.1z M614.6,576.1
		h239.5V336.6H614.6V576.1z M891,576.1h239.5V336.6H891V576.1z M61.8,852.5h239.5V613H61.8V852.5z M338.2,852.5h239.5V613H338.2
		V852.5z M614.6,852.5h239.5V613H614.6V852.5z M891,852.5h239.5V613H891V852.5z M61.8,1128.9h239.5V889.4H61.8V1128.9z
		 M338.2,1128.9h239.5V889.4H338.2V1128.9z M614.6,1128.9h239.5V889.4H614.6V1128.9z M891,1128.9h239.5V889.4H891V1128.9z"/>
</g>
<g id="Livello_2_1_">
	<rect x="61.9" y="60.3" class="st2" width="184.3" height="184.3"/>
	<rect x="283" y="60.3" class="st2" width="184.3" height="184.3"/>
	<rect x="504.1" y="60.3" class="st2" width="184.2" height="184.3"/>
	<rect x="725.2" y="60.3" class="st2" width="184.3" height="184.3"/>
	<rect x="946.3" y="60.3" class="st2" width="184.3" height="184.3"/>
	<rect x="61.9" y="281.4" class="st2" width="184.3" height="184.3"/>
	<rect x="283" y="281.4" class="st2" width="184.3" height="184.3"/>
	<rect x="504.1" y="281.4" class="st2" width="184.2" height="184.3"/>
	<rect x="725.2" y="281.4" class="st2" width="184.3" height="184.3"/>
	<rect x="946.3" y="281.4" class="st2" width="184.3" height="184.3"/>
	<rect x="61.9" y="502.5" class="st2" width="184.3" height="184.2"/>
	<rect x="283" y="502.5" class="st2" width="184.3" height="184.2"/>
	<rect x="504.1" y="502.5" class="st2" width="184.2" height="184.2"/>
	<rect x="725.2" y="502.5" class="st2" width="184.3" height="184.2"/>
	<rect x="946.3" y="502.5" class="st2" width="184.3" height="184.2"/>
	<rect x="61.9" y="723.6" class="st2" width="184.3" height="184.3"/>
	<rect x="283" y="723.6" class="st2" width="184.3" height="184.3"/>
	<rect x="504.1" y="723.6" class="st2" width="184.2" height="184.3"/>
	<rect x="725.2" y="723.6" class="st2" width="184.3" height="184.3"/>
	<rect x="946.3" y="723.6" class="st2" width="184.3" height="184.3"/>
	<rect x="61.9" y="944.7" class="st2" width="184.3" height="184.3"/>
	<rect x="283" y="944.7" class="st2" width="184.3" height="184.3"/>
	<rect x="504.1" y="944.7" class="st2" width="184.2" height="184.3"/>
	<rect x="725.2" y="944.7" class="st2" width="184.3" height="184.3"/>
	<rect x="946.3" y="944.7" class="st2" width="184.3" height="184.3"/>
</g>
<g id="Livello_3">
	<rect x="61.8" y="59.3" class="st3" width="147.4" height="147.4"/>
	<rect x="246.1" y="59.3" class="st3" width="147.4" height="147.4"/>
	<rect x="430.4" y="59.3" class="st3" width="147.4" height="147.4"/>
	<rect x="614.6" y="59.3" class="st3" width="147.4" height="147.4"/>
	<rect x="798.8" y="59.3" class="st3" width="147.4" height="147.4"/>
	<rect x="983.1" y="59.3" class="st3" width="147.4" height="147.4"/>
	<rect x="61.8" y="243.6" class="st3" width="147.4" height="147.4"/>
	<rect x="246.1" y="243.6" class="st3" width="147.4" height="147.4"/>
	<rect x="428.4" y="243.6" class="st3" width="147.4" height="147.4"/>
	<rect x="612.6" y="243.6" class="st3" width="147.4" height="147.4"/>
	<rect x="796.8" y="243.6" class="st3" width="147.4" height="147.4"/>
	<rect x="981.1" y="243.6" class="st3" width="147.4" height="147.4"/>
	<rect x="61.8" y="427.8" class="st3" width="147.4" height="147.4"/>
	<rect x="246.1" y="427.8" class="st3" width="147.4" height="147.4"/>
	<rect x="428.4" y="427.8" class="st3" width="147.4" height="147.4"/>
	<rect x="612.6" y="427.8" class="st3" width="147.4" height="147.4"/>
	<rect x="796.8" y="427.8" class="st3" width="147.4" height="147.4"/>
	<rect x="981.1" y="427.8" class="st3" width="147.4" height="147.4"/>
	<rect x="61.8" y="612.1" class="st3" width="147.4" height="147.4"/>
	<rect x="246.1" y="612.1" class="st3" width="147.4" height="147.4"/>
	<rect x="428.4" y="612.1" class="st3" width="147.4" height="147.4"/>
	<rect x="612.6" y="612.1" class="st3" width="147.4" height="147.4"/>
	<rect x="796.8" y="612.1" class="st3" width="147.4" height="147.4"/>
	<rect x="981.1" y="612.1" class="st3" width="147.4" height="147.4"/>
	<rect x="61.8" y="796.3" class="st3" width="147.4" height="147.4"/>
	<rect x="246.1" y="796.3" class="st3" width="147.4" height="147.4"/>
	<rect x="430.4" y="796.3" class="st3" width="147.4" height="147.4"/>
	<rect x="614.6" y="796.3" class="st3" width="147.4" height="147.4"/>
	<rect x="798.8" y="796.3" class="st3" width="147.4" height="147.4"/>
	<rect x="983.1" y="796.3" class="st3" width="147.4" height="147.4"/>
	<rect x="61.8" y="980.6" class="st3" width="147.4" height="147.4"/>
	<rect x="246.1" y="980.6" class="st3" width="147.4" height="147.4"/>
	<rect x="430.4" y="980.6" class="st3" width="147.4" height="147.4"/>
	<rect x="614.6" y="980.6" class="st3" width="147.4" height="147.4"/>
	<rect x="798.8" y="980.6" class="st3" width="147.4" height="147.4"/>
	<rect x="983.1" y="980.6" class="st3" width="147.4" height="147.4"/>
</g>
<image style="overflow:visible;enable-background:new    ;" width="185" height="185" xlink:href="705F762E.jpg"  transform="matrix(1.3037 0 0 1.3037 337.5735 335.5439)">
</image>
<g>
	<g>
		<g>
			<defs>
				<circle id="SVGID_1_" cx="870.5" cy="317.3" r="249.8"/>
			</defs>
			<clipPath id="SVGID_2_">
				<use xlink:href="#SVGID_1_"  style="overflow:visible;"/>
			</clipPath>
			<g class="st4">
				
					<image style="overflow:visible;enable-background:new    ;" width="500" height="750" xlink:href="891250_05.estensione.jpg"  transform="matrix(1 0 0 1 620.5088 -40.9569)">
				</image>
			</g>
		</g>
	</g>
</g>
<text transform="matrix(1 0 0 1 61.9087 104.9429)" class="st5 st6">Grafica vettoriale</text>
<text transform="matrix(1 0 0 1 61.859 137.5576)" class="st7 st8">Lorem ipsum dolor sit amet, consectetuer adipiscing elit, sed diam no</text>
<text transform="matrix(1 0 0 1 559.559 137.5576)" class="st7 st8">-</text>
<text transform="matrix(1 0 0 1 61.859 161.5576)" class="st7 st8">nummy nibh euismod tincidunt ut laoreet dolore magna aliquam erat </text>
<text transform="matrix(1 0 0 1 61.859 185.5576)" class="st7 st8">volutpat. Ut wisi enim ad minim veniam, quis nostrud exerci tation </text>
<text transform="matrix(1 0 0 1 61.859 209.5576)" class="st7 st8">ullamcorper suscipit lobortis nisl ut aliquip ex ea commodo consequat. </text>
<text transform="matrix(1 0 0 1 61.859 233.5576)" class="st7 st8">Duis autem vel eum iriure dolor in hendrerit in vulputate velit esse mo</text>
<text transform="matrix(1 0 0 1 563.359 233.5576)" class="st7 st8">-</text>
<text transform="matrix(1 0 0 1 61.859 257.5576)" class="st7 st8">lestie consequat, vel illum dolore eu feugiat nulla facilisis at vero eros et </text>
<text transform="matrix(1 0 0 1 61.859 281.5576)" class="st7 st8">accumsan et iusto odio dignissim qui blandit praesent luptatum zzril </text>
<text transform="matrix(1 0 0 1 629.7178 83.6657)" class="st9 st10">Foresta di sequoie</text>
</svg>
