<?xml version="1.0" encoding="utf-8"?>
<!-- Generator: Adobe Illustrator 22.1.0, SVG Export Plug-In . SVG Version: 6.00 Build 0)  -->
<svg version="1.1" id="Livello_1" xmlns="http://www.w3.org/2000/svg" xmlns:xlink="http://www.w3.org/1999/xlink" x="0px" y="0px"
	 viewBox="0 0 1190.6 1190.6" style="enable-background:new 0 0 1190.6 1190.6;" xml:space="preserve">
<style type="text/css">
	.st0{fill:#FFF200;stroke:#000000;stroke-miterlimit:10;}
	.st1{fill:none;stroke:#F74646;stroke-miterlimit:10;}
	.st2{fill:none;stroke:#61E545;stroke-miterlimit:10;}
	.st3{fill:none;stroke:#EA75EA;stroke-miterlimit:10;}
	.st4{clip-path:url(#SVGID_2_);}
</style>
<title>Tavola disegno 1</title>
<rect x="0.2" y="0.4" class="st0" width="1190.6" height="1190.6"/>
<g id="Livello_1_1_">
	<path class="st1" d="M60.9,61.3h239.5v239.5H60.9V61.3z M337.3,300.9h239.5V61.3H337.3V300.9z M613.7,300.9h239.5V61.3H613.7V300.9
		z M890.1,300.9h239.5V61.3H890.1V300.9z M60.9,577.2h239.5V337.7H60.9V577.2z M337.3,577.2h239.5V337.7H337.3V577.2z M613.7,577.2
		h239.5V337.7H613.7V577.2z M890.1,577.2h239.5V337.7H890.1V577.2z M60.9,853.6h239.5V614.1H60.9V853.6z M337.3,853.6h239.5V614.1
		H337.3V853.6z M613.7,853.6h239.5V614.1H613.7V853.6z M890.1,853.6h239.5V614.1H890.1V853.6z M60.9,1130h239.5V890.5H60.9V1130z
		 M337.3,1130h239.5V890.5H337.3V1130z M613.7,1130h239.5V890.5H613.7V1130z M890.1,1130h239.5V890.5H890.1V1130z"/>
</g>
<g id="Livello_2_1_">
	<rect x="61" y="61.4" class="st2" width="184.3" height="184.3"/>
	<rect x="282.1" y="61.4" class="st2" width="184.3" height="184.3"/>
	<rect x="503.2" y="61.4" class="st2" width="184.2" height="184.3"/>
	<rect x="724.3" y="61.4" class="st2" width="184.3" height="184.3"/>
	<rect x="945.4" y="61.4" class="st2" width="184.3" height="184.3"/>
	<rect x="61" y="282.5" class="st2" width="184.3" height="184.3"/>
	<rect x="282.1" y="282.5" class="st2" width="184.3" height="184.3"/>
	<rect x="503.2" y="282.5" class="st2" width="184.2" height="184.3"/>
	<rect x="724.3" y="282.5" class="st2" width="184.3" height="184.3"/>
	<rect x="945.4" y="282.5" class="st2" width="184.3" height="184.3"/>
	<rect x="61" y="503.6" class="st2" width="184.3" height="184.2"/>
	<rect x="282.1" y="503.6" class="st2" width="184.3" height="184.2"/>
	<rect x="503.2" y="503.6" class="st2" width="184.2" height="184.2"/>
	<rect x="724.3" y="503.6" class="st2" width="184.3" height="184.2"/>
	<rect x="945.4" y="503.6" class="st2" width="184.3" height="184.2"/>
	<rect x="61" y="724.7" class="st2" width="184.3" height="184.3"/>
	<rect x="282.1" y="724.7" class="st2" width="184.3" height="184.3"/>
	<rect x="503.2" y="724.7" class="st2" width="184.2" height="184.3"/>
	<rect x="724.3" y="724.7" class="st2" width="184.3" height="184.3"/>
	<rect x="945.4" y="724.7" class="st2" width="184.3" height="184.3"/>
	<rect x="61" y="945.8" class="st2" width="184.3" height="184.3"/>
	<rect x="282.1" y="945.8" class="st2" width="184.3" height="184.3"/>
	<rect x="503.2" y="945.8" class="st2" width="184.2" height="184.3"/>
	<rect x="724.3" y="945.8" class="st2" width="184.3" height="184.3"/>
	<rect x="945.4" y="945.8" class="st2" width="184.3" height="184.3"/>
</g>
<g id="Livello_3">
	<rect x="60.9" y="60.4" class="st3" width="147.4" height="147.4"/>
	<rect x="245.2" y="60.4" class="st3" width="147.4" height="147.4"/>
	<rect x="429.5" y="60.4" class="st3" width="147.4" height="147.4"/>
	<rect x="613.7" y="60.4" class="st3" width="147.4" height="147.4"/>
	<rect x="797.9" y="60.4" class="st3" width="147.4" height="147.4"/>
	<rect x="982.2" y="60.4" class="st3" width="147.4" height="147.4"/>
	<rect x="60.9" y="244.7" class="st3" width="147.4" height="147.4"/>
	<rect x="245.2" y="244.7" class="st3" width="147.4" height="147.4"/>
	<rect x="427.5" y="244.7" class="st3" width="147.4" height="147.4"/>
	<rect x="611.7" y="244.7" class="st3" width="147.4" height="147.4"/>
	<rect x="795.9" y="244.7" class="st3" width="147.4" height="147.4"/>
	<rect x="980.2" y="244.7" class="st3" width="147.4" height="147.4"/>
	<rect x="60.9" y="428.9" class="st3" width="147.4" height="147.4"/>
	<rect x="245.2" y="428.9" class="st3" width="147.4" height="147.4"/>
	<rect x="427.5" y="428.9" class="st3" width="147.4" height="147.4"/>
	<rect x="611.7" y="428.9" class="st3" width="147.4" height="147.4"/>
	<rect x="795.9" y="428.9" class="st3" width="147.4" height="147.4"/>
	<rect x="980.2" y="428.9" class="st3" width="147.4" height="147.4"/>
	<rect x="60.9" y="613.2" class="st3" width="147.4" height="147.4"/>
	<rect x="245.2" y="613.2" class="st3" width="147.4" height="147.4"/>
	<rect x="427.5" y="613.2" class="st3" width="147.4" height="147.4"/>
	<rect x="611.7" y="613.2" class="st3" width="147.4" height="147.4"/>
	<rect x="795.9" y="613.2" class="st3" width="147.4" height="147.4"/>
	<rect x="980.2" y="613.2" class="st3" width="147.4" height="147.4"/>
	<rect x="60.9" y="797.4" class="st3" width="147.4" height="147.4"/>
	<rect x="245.2" y="797.4" class="st3" width="147.4" height="147.4"/>
	<rect x="429.5" y="797.4" class="st3" width="147.4" height="147.4"/>
	<rect x="613.7" y="797.4" class="st3" width="147.4" height="147.4"/>
	<rect x="797.9" y="797.4" class="st3" width="147.4" height="147.4"/>
	<rect x="982.2" y="797.4" class="st3" width="147.4" height="147.4"/>
	<rect x="60.9" y="981.7" class="st3" width="147.4" height="147.4"/>
	<rect x="245.2" y="981.7" class="st3" width="147.4" height="147.4"/>
	<rect x="429.5" y="981.7" class="st3" width="147.4" height="147.4"/>
	<rect x="613.7" y="981.7" class="st3" width="147.4" height="147.4"/>
	<rect x="797.9" y="981.7" class="st3" width="147.4" height="147.4"/>
	<rect x="982.2" y="981.7" class="st3" width="147.4" height="147.4"/>
</g>
<image style="overflow:visible;enable-background:new    ;" width="185" height="185" xlink:href="705F762E.jpg"  transform="matrix(1.3037 0 0 1.3037 336.6396 336.6258)">
</image>
<g>
	<g>
		<g>
			<g>
				<defs>
					<circle id="SVGID_1_" cx="869.6" cy="318.4" r="249.8"/>
				</defs>
				<clipPath id="SVGID_2_">
					<use xlink:href="#SVGID_1_"  style="overflow:visible;"/>
				</clipPath>
				<g class="st4">
					
						<image style="overflow:visible;enable-background:new    ;" width="500" height="750" xlink:href="891250_05.estensione.jpg"  transform="matrix(1 0 0 1 619.6088 -39.8569)">
					</image>
				</g>
			</g>
		</g>
	</g>
</g>
</svg>
