<?xml version="1.0" encoding="utf-8"?>
<!-- Generator: Adobe Illustrator 22.1.0, SVG Export Plug-In . SVG Version: 6.00 Build 0)  -->
<svg version="1.1" id="Livello_1" xmlns="http://www.w3.org/2000/svg" xmlns:xlink="http://www.w3.org/1999/xlink" x="0px" y="0px"
	 viewBox="0 0 1190.6 1190.6" style="enable-background:new 0 0 1190.6 1190.6;" xml:space="preserve">
<style type="text/css">
	.st0{fill:#FFF200;stroke:#000000;stroke-miterlimit:10;}
	.st1{fill:none;stroke:#F74646;stroke-miterlimit:10;}
	.st2{fill:none;stroke:#61E545;stroke-miterlimit:10;}
	.st3{fill:none;stroke:#EA75EA;stroke-miterlimit:10;}
</style>
<title>Tavola disegno 1</title>
<rect x="0.2" y="0.4" class="st0" width="1190.6" height="1190.6"/>
<g id="Livello_1_1_">
	<path class="st1" d="M60.3,61.3h239.5v239.5H60.3V61.3z M336.7,300.9h239.5V61.3H336.7V300.9z M613.1,300.9h239.5V61.3H613.1V300.9
		z M889.5,300.9H1129V61.3H889.5V300.9z M60.3,577.2h239.5V337.7H60.3V577.2z M336.7,577.2h239.5V337.7H336.7V577.2z M613.1,577.2
		h239.5V337.7H613.1V577.2z M889.5,577.2H1129V337.7H889.5V577.2z M60.3,853.6h239.5V614.1H60.3V853.6z M336.7,853.6h239.5V614.1
		H336.7V853.6z M613.1,853.6h239.5V614.1H613.1V853.6z M889.5,853.6H1129V614.1H889.5V853.6z M60.3,1130h239.5V890.5H60.3V1130z
		 M336.7,1130h239.5V890.5H336.7V1130z M613.1,1130h239.5V890.5H613.1V1130z M889.5,1130H1129V890.5H889.5V1130z"/>
</g>
<g id="Livello_2_1_">
	<rect x="60.4" y="61.4" class="st2" width="184.3" height="184.3"/>
	<rect x="281.5" y="61.4" class="st2" width="184.3" height="184.3"/>
	<rect x="502.6" y="61.4" class="st2" width="184.2" height="184.3"/>
	<rect x="723.7" y="61.4" class="st2" width="184.3" height="184.3"/>
	<rect x="944.8" y="61.4" class="st2" width="184.3" height="184.3"/>
	<rect x="60.4" y="282.5" class="st2" width="184.3" height="184.3"/>
	<rect x="281.5" y="282.5" class="st2" width="184.3" height="184.3"/>
	<rect x="502.6" y="282.5" class="st2" width="184.2" height="184.3"/>
	<rect x="723.7" y="282.5" class="st2" width="184.3" height="184.3"/>
	<rect x="944.8" y="282.5" class="st2" width="184.3" height="184.3"/>
	<rect x="60.4" y="503.6" class="st2" width="184.3" height="184.2"/>
	<rect x="281.5" y="503.6" class="st2" width="184.3" height="184.2"/>
	<rect x="502.6" y="503.6" class="st2" width="184.2" height="184.2"/>
	<rect x="723.7" y="503.6" class="st2" width="184.3" height="184.2"/>
	<rect x="944.8" y="503.6" class="st2" width="184.3" height="184.2"/>
	<rect x="60.4" y="724.7" class="st2" width="184.3" height="184.3"/>
	<rect x="281.5" y="724.7" class="st2" width="184.3" height="184.3"/>
	<rect x="502.6" y="724.7" class="st2" width="184.2" height="184.3"/>
	<rect x="723.7" y="724.7" class="st2" width="184.3" height="184.3"/>
	<rect x="944.8" y="724.7" class="st2" width="184.3" height="184.3"/>
	<rect x="60.4" y="945.8" class="st2" width="184.3" height="184.3"/>
	<rect x="281.5" y="945.8" class="st2" width="184.3" height="184.3"/>
	<rect x="502.6" y="945.8" class="st2" width="184.2" height="184.3"/>
	<rect x="723.7" y="945.8" class="st2" width="184.3" height="184.3"/>
	<rect x="944.8" y="945.8" class="st2" width="184.3" height="184.3"/>
</g>
<g id="Livello_3">
	<rect x="60.3" y="60.4" class="st3" width="147.4" height="147.4"/>
	<rect x="244.6" y="60.4" class="st3" width="147.4" height="147.4"/>
	<rect x="428.9" y="60.4" class="st3" width="147.4" height="147.4"/>
	<rect x="613.1" y="60.4" class="st3" width="147.4" height="147.4"/>
	<rect x="797.3" y="60.4" class="st3" width="147.4" height="147.4"/>
	<rect x="981.6" y="60.4" class="st3" width="147.4" height="147.4"/>
	<rect x="60.3" y="244.7" class="st3" width="147.4" height="147.4"/>
	<rect x="244.6" y="244.7" class="st3" width="147.4" height="147.4"/>
	<rect x="426.9" y="244.7" class="st3" width="147.4" height="147.4"/>
	<rect x="611.1" y="244.7" class="st3" width="147.4" height="147.4"/>
	<rect x="795.3" y="244.7" class="st3" width="147.4" height="147.4"/>
	<rect x="979.6" y="244.7" class="st3" width="147.4" height="147.4"/>
	<rect x="60.3" y="428.9" class="st3" width="147.4" height="147.4"/>
	<rect x="244.6" y="428.9" class="st3" width="147.4" height="147.4"/>
	<rect x="426.9" y="428.9" class="st3" width="147.4" height="147.4"/>
	<rect x="611.1" y="428.9" class="st3" width="147.4" height="147.4"/>
	<rect x="795.3" y="428.9" class="st3" width="147.4" height="147.4"/>
	<rect x="979.6" y="428.9" class="st3" width="147.4" height="147.4"/>
	<rect x="60.3" y="613.2" class="st3" width="147.4" height="147.4"/>
	<rect x="244.6" y="613.2" class="st3" width="147.4" height="147.4"/>
	<rect x="426.9" y="613.2" class="st3" width="147.4" height="147.4"/>
	<rect x="611.1" y="613.2" class="st3" width="147.4" height="147.4"/>
	<rect x="795.3" y="613.2" class="st3" width="147.4" height="147.4"/>
	<rect x="979.6" y="613.2" class="st3" width="147.4" height="147.4"/>
	<rect x="60.3" y="797.4" class="st3" width="147.4" height="147.4"/>
	<rect x="244.6" y="797.4" class="st3" width="147.4" height="147.4"/>
	<rect x="428.9" y="797.4" class="st3" width="147.4" height="147.4"/>
	<rect x="613.1" y="797.4" class="st3" width="147.4" height="147.4"/>
	<rect x="797.3" y="797.4" class="st3" width="147.4" height="147.4"/>
	<rect x="981.6" y="797.4" class="st3" width="147.4" height="147.4"/>
	<rect x="60.3" y="981.7" class="st3" width="147.4" height="147.4"/>
	<rect x="244.6" y="981.7" class="st3" width="147.4" height="147.4"/>
	<rect x="428.9" y="981.7" class="st3" width="147.4" height="147.4"/>
	<rect x="613.1" y="981.7" class="st3" width="147.4" height="147.4"/>
	<rect x="797.3" y="981.7" class="st3" width="147.4" height="147.4"/>
	<rect x="981.6" y="981.7" class="st3" width="147.4" height="147.4"/>
</g>
<image style="overflow:visible;enable-background:new    ;" width="185" height="185" xlink:href="10FBBB45.jpg"  transform="matrix(1.3037 0 0 1.3037 336.0645 336.6008)">
</image>
</svg>
