<?xml version="1.0" encoding="utf-8"?>
<!-- Generator: Adobe Illustrator 22.1.0, SVG Export Plug-In . SVG Version: 6.00 Build 0)  -->
<svg version="1.1" id="Livello_1" xmlns="http://www.w3.org/2000/svg" xmlns:xlink="http://www.w3.org/1999/xlink" x="0px" y="0px"
	 viewBox="0 0 1190.6 1190.6" style="enable-background:new 0 0 1190.6 1190.6;" xml:space="preserve">
<style type="text/css">
	.st0{fill:#FFF200;stroke:#000000;stroke-miterlimit:10;}
	.st1{fill:none;stroke:#F74646;stroke-miterlimit:10;}
	.st2{fill:none;stroke:#61E545;stroke-miterlimit:10;}
	.st3{fill:none;stroke:#EA75EA;stroke-miterlimit:10;}
</style>
<title>Tavola disegno 1</title>
<rect x="0.2" y="0.4" class="st0" width="1190.6" height="1190.6"/>
<g id="Livello_1_1_">
	<path class="st1" d="M60.3,59.3h239.5v239.5H60.3V59.3z M336.7,298.9h239.5V59.3H336.7V298.9z M613.1,298.9h239.5V59.3H613.1V298.9
		z M889.5,298.9H1129V59.3H889.5V298.9z M60.3,575.2h239.5V335.7H60.3V575.2z M336.7,575.2h239.5V335.7H336.7V575.2z M613.1,575.2
		h239.5V335.7H613.1V575.2z M889.5,575.2H1129V335.7H889.5V575.2z M60.3,851.6h239.5V612.1H60.3V851.6z M336.7,851.6h239.5V612.1
		H336.7V851.6z M613.1,851.6h239.5V612.1H613.1V851.6z M889.5,851.6H1129V612.1H889.5V851.6z M60.3,1128h239.5V888.5H60.3V1128z
		 M336.7,1128h239.5V888.5H336.7V1128z M613.1,1128h239.5V888.5H613.1V1128z M889.5,1128H1129V888.5H889.5V1128z"/>
</g>
<g id="Livello_2_1_">
	<rect x="60.4" y="59.4" class="st2" width="184.3" height="184.3"/>
	<rect x="281.5" y="59.4" class="st2" width="184.3" height="184.3"/>
	<rect x="502.6" y="59.4" class="st2" width="184.2" height="184.3"/>
	<rect x="723.7" y="59.4" class="st2" width="184.3" height="184.3"/>
	<rect x="944.8" y="59.4" class="st2" width="184.3" height="184.3"/>
	<rect x="60.4" y="280.5" class="st2" width="184.3" height="184.3"/>
	<rect x="281.5" y="280.5" class="st2" width="184.3" height="184.3"/>
	<rect x="502.6" y="280.5" class="st2" width="184.2" height="184.3"/>
	<rect x="723.7" y="280.5" class="st2" width="184.3" height="184.3"/>
	<rect x="944.8" y="280.5" class="st2" width="184.3" height="184.3"/>
	<rect x="60.4" y="501.6" class="st2" width="184.3" height="184.2"/>
	<rect x="281.5" y="501.6" class="st2" width="184.3" height="184.2"/>
	<rect x="502.6" y="501.6" class="st2" width="184.2" height="184.2"/>
	<rect x="723.7" y="501.6" class="st2" width="184.3" height="184.2"/>
	<rect x="944.8" y="501.6" class="st2" width="184.3" height="184.2"/>
	<rect x="60.4" y="722.7" class="st2" width="184.3" height="184.3"/>
	<rect x="281.5" y="722.7" class="st2" width="184.3" height="184.3"/>
	<rect x="502.6" y="722.7" class="st2" width="184.2" height="184.3"/>
	<rect x="723.7" y="722.7" class="st2" width="184.3" height="184.3"/>
	<rect x="944.8" y="722.7" class="st2" width="184.3" height="184.3"/>
	<rect x="60.4" y="943.8" class="st2" width="184.3" height="184.3"/>
	<rect x="281.5" y="943.8" class="st2" width="184.3" height="184.3"/>
	<rect x="502.6" y="943.8" class="st2" width="184.2" height="184.3"/>
	<rect x="723.7" y="943.8" class="st2" width="184.3" height="184.3"/>
	<rect x="944.8" y="943.8" class="st2" width="184.3" height="184.3"/>
</g>
<g id="Livello_3">
	<rect x="60.3" y="58.4" class="st3" width="147.4" height="147.4"/>
	<rect x="244.6" y="58.4" class="st3" width="147.4" height="147.4"/>
	<rect x="428.9" y="58.4" class="st3" width="147.4" height="147.4"/>
	<rect x="613.1" y="58.4" class="st3" width="147.4" height="147.4"/>
	<rect x="797.3" y="58.4" class="st3" width="147.4" height="147.4"/>
	<rect x="981.6" y="58.4" class="st3" width="147.4" height="147.4"/>
	<rect x="60.3" y="242.7" class="st3" width="147.4" height="147.4"/>
	<rect x="244.6" y="242.7" class="st3" width="147.4" height="147.4"/>
	<rect x="426.9" y="242.7" class="st3" width="147.4" height="147.4"/>
	<rect x="611.1" y="242.7" class="st3" width="147.4" height="147.4"/>
	<rect x="795.3" y="242.7" class="st3" width="147.4" height="147.4"/>
	<rect x="979.6" y="242.7" class="st3" width="147.4" height="147.4"/>
	<rect x="60.3" y="426.9" class="st3" width="147.4" height="147.4"/>
	<rect x="244.6" y="426.9" class="st3" width="147.4" height="147.4"/>
	<rect x="426.9" y="426.9" class="st3" width="147.4" height="147.4"/>
	<rect x="611.1" y="426.9" class="st3" width="147.4" height="147.4"/>
	<rect x="795.3" y="426.9" class="st3" width="147.4" height="147.4"/>
	<rect x="979.6" y="426.9" class="st3" width="147.4" height="147.4"/>
	<rect x="60.3" y="611.2" class="st3" width="147.4" height="147.4"/>
	<rect x="244.6" y="611.2" class="st3" width="147.4" height="147.4"/>
	<rect x="426.9" y="611.2" class="st3" width="147.4" height="147.4"/>
	<rect x="611.1" y="611.2" class="st3" width="147.4" height="147.4"/>
	<rect x="795.3" y="611.2" class="st3" width="147.4" height="147.4"/>
	<rect x="979.6" y="611.2" class="st3" width="147.4" height="147.4"/>
	<rect x="60.3" y="795.4" class="st3" width="147.4" height="147.4"/>
	<rect x="244.6" y="795.4" class="st3" width="147.4" height="147.4"/>
	<rect x="428.9" y="795.4" class="st3" width="147.4" height="147.4"/>
	<rect x="613.1" y="795.4" class="st3" width="147.4" height="147.4"/>
	<rect x="797.3" y="795.4" class="st3" width="147.4" height="147.4"/>
	<rect x="981.6" y="795.4" class="st3" width="147.4" height="147.4"/>
	<rect x="60.3" y="979.7" class="st3" width="147.4" height="147.4"/>
	<rect x="244.6" y="979.7" class="st3" width="147.4" height="147.4"/>
	<rect x="428.9" y="979.7" class="st3" width="147.4" height="147.4"/>
	<rect x="613.1" y="979.7" class="st3" width="147.4" height="147.4"/>
	<rect x="797.3" y="979.7" class="st3" width="147.4" height="147.4"/>
	<rect x="981.6" y="979.7" class="st3" width="147.4" height="147.4"/>
</g>
</svg>
