<?xml version="1.0" encoding="utf-8"?>
<!-- Generator: Adobe Illustrator 22.1.0, SVG Export Plug-In . SVG Version: 6.00 Build 0)  -->
<svg version="1.1" id="Livello_1" xmlns="http://www.w3.org/2000/svg" xmlns:xlink="http://www.w3.org/1999/xlink" x="0px" y="0px"
	 viewBox="0 0 1190.6 1190.6" style="enable-background:new 0 0 1190.6 1190.6;" xml:space="preserve">
<style type="text/css">
	.st0{fill:#FFF200;stroke:#000000;stroke-miterlimit:10;}
	.st1{fill:none;stroke:#F74646;stroke-miterlimit:10;}
	.st2{fill:none;stroke:#61E545;stroke-miterlimit:10;}
	.st3{fill:none;stroke:#EA75EA;stroke-miterlimit:10;}
</style>
<title>Tavola disegno 1</title>
<rect x="0.2" y="0.4" class="st0" width="1190.6" height="1190.6"/>
<g id="Livello_1_1_">
	<path class="st1" d="M61.3,60.3h239.5v239.5H61.3V60.3z M337.7,299.9h239.5V60.3H337.7V299.9z M614.1,299.9h239.5V60.3H614.1V299.9
		z M890.5,299.9H1130V60.3H890.5V299.9z M61.3,576.2h239.5V336.7H61.3V576.2z M337.7,576.2h239.5V336.7H337.7V576.2z M614.1,576.2
		h239.5V336.7H614.1V576.2z M890.5,576.2H1130V336.7H890.5V576.2z M61.3,852.6h239.5V613.1H61.3V852.6z M337.7,852.6h239.5V613.1
		H337.7V852.6z M614.1,852.6h239.5V613.1H614.1V852.6z M890.5,852.6H1130V613.1H890.5V852.6z M61.3,1129h239.5V889.5H61.3V1129z
		 M337.7,1129h239.5V889.5H337.7V1129z M614.1,1129h239.5V889.5H614.1V1129z M890.5,1129H1130V889.5H890.5V1129z"/>
</g>
<g id="Livello_2_1_">
	<rect x="61.4" y="60.4" class="st2" width="184.3" height="184.3"/>
	<rect x="282.5" y="60.4" class="st2" width="184.3" height="184.3"/>
	<rect x="503.6" y="60.4" class="st2" width="184.2" height="184.3"/>
	<rect x="724.7" y="60.4" class="st2" width="184.3" height="184.3"/>
	<rect x="945.8" y="60.4" class="st2" width="184.3" height="184.3"/>
	<rect x="61.4" y="281.5" class="st2" width="184.3" height="184.3"/>
	<rect x="282.5" y="281.5" class="st2" width="184.3" height="184.3"/>
	<rect x="503.6" y="281.5" class="st2" width="184.2" height="184.3"/>
	<rect x="724.7" y="281.5" class="st2" width="184.3" height="184.3"/>
	<rect x="945.8" y="281.5" class="st2" width="184.3" height="184.3"/>
	<rect x="61.4" y="502.6" class="st2" width="184.3" height="184.2"/>
	<rect x="282.5" y="502.6" class="st2" width="184.3" height="184.2"/>
	<rect x="503.6" y="502.6" class="st2" width="184.2" height="184.2"/>
	<rect x="724.7" y="502.6" class="st2" width="184.3" height="184.2"/>
	<rect x="945.8" y="502.6" class="st2" width="184.3" height="184.2"/>
	<rect x="61.4" y="723.7" class="st2" width="184.3" height="184.3"/>
	<rect x="282.5" y="723.7" class="st2" width="184.3" height="184.3"/>
	<rect x="503.6" y="723.7" class="st2" width="184.2" height="184.3"/>
	<rect x="724.7" y="723.7" class="st2" width="184.3" height="184.3"/>
	<rect x="945.8" y="723.7" class="st2" width="184.3" height="184.3"/>
	<rect x="61.4" y="944.8" class="st2" width="184.3" height="184.3"/>
	<rect x="282.5" y="944.8" class="st2" width="184.3" height="184.3"/>
	<rect x="503.6" y="944.8" class="st2" width="184.2" height="184.3"/>
	<rect x="724.7" y="944.8" class="st2" width="184.3" height="184.3"/>
	<rect x="945.8" y="944.8" class="st2" width="184.3" height="184.3"/>
</g>
<g id="Livello_3">
	<rect x="61.3" y="59.4" class="st3" width="147.4" height="147.4"/>
	<rect x="245.6" y="59.4" class="st3" width="147.4" height="147.4"/>
	<rect x="429.9" y="59.4" class="st3" width="147.4" height="147.4"/>
	<rect x="614.1" y="59.4" class="st3" width="147.4" height="147.4"/>
	<rect x="798.3" y="59.4" class="st3" width="147.4" height="147.4"/>
	<rect x="982.6" y="59.4" class="st3" width="147.4" height="147.4"/>
	<rect x="61.3" y="243.7" class="st3" width="147.4" height="147.4"/>
	<rect x="245.6" y="243.7" class="st3" width="147.4" height="147.4"/>
	<rect x="427.9" y="243.7" class="st3" width="147.4" height="147.4"/>
	<rect x="612.1" y="243.7" class="st3" width="147.4" height="147.4"/>
	<rect x="796.3" y="243.7" class="st3" width="147.4" height="147.4"/>
	<rect x="980.6" y="243.7" class="st3" width="147.4" height="147.4"/>
	<rect x="61.3" y="427.9" class="st3" width="147.4" height="147.4"/>
	<rect x="245.6" y="427.9" class="st3" width="147.4" height="147.4"/>
	<rect x="427.9" y="427.9" class="st3" width="147.4" height="147.4"/>
	<rect x="612.1" y="427.9" class="st3" width="147.4" height="147.4"/>
	<rect x="796.3" y="427.9" class="st3" width="147.4" height="147.4"/>
	<rect x="980.6" y="427.9" class="st3" width="147.4" height="147.4"/>
	<rect x="61.3" y="612.2" class="st3" width="147.4" height="147.4"/>
	<rect x="245.6" y="612.2" class="st3" width="147.4" height="147.4"/>
	<rect x="427.9" y="612.2" class="st3" width="147.4" height="147.4"/>
	<rect x="612.1" y="612.2" class="st3" width="147.4" height="147.4"/>
	<rect x="796.3" y="612.2" class="st3" width="147.4" height="147.4"/>
	<rect x="980.6" y="612.2" class="st3" width="147.4" height="147.4"/>
	<rect x="61.3" y="796.4" class="st3" width="147.4" height="147.4"/>
	<rect x="245.6" y="796.4" class="st3" width="147.4" height="147.4"/>
	<rect x="429.9" y="796.4" class="st3" width="147.4" height="147.4"/>
	<rect x="614.1" y="796.4" class="st3" width="147.4" height="147.4"/>
	<rect x="798.3" y="796.4" class="st3" width="147.4" height="147.4"/>
	<rect x="982.6" y="796.4" class="st3" width="147.4" height="147.4"/>
	<rect x="61.3" y="980.7" class="st3" width="147.4" height="147.4"/>
	<rect x="245.6" y="980.7" class="st3" width="147.4" height="147.4"/>
	<rect x="429.9" y="980.7" class="st3" width="147.4" height="147.4"/>
	<rect x="614.1" y="980.7" class="st3" width="147.4" height="147.4"/>
	<rect x="798.3" y="980.7" class="st3" width="147.4" height="147.4"/>
	<rect x="982.6" y="980.7" class="st3" width="147.4" height="147.4"/>
</g>
<image style="overflow:visible;enable-background:new    ;" width="500" height="750" xlink:href="A9DAE34C.jpg"  transform="matrix(1.4273 0 0 1.4273 61.35 59.42)">
</image>
</svg>
