<?xml version="1.0" encoding="utf-8"?>
<!-- Generator: Adobe Illustrator 22.1.0, SVG Export Plug-In . SVG Version: 6.00 Build 0)  -->
<svg version="1.1" xmlns="http://www.w3.org/2000/svg" xmlns:xlink="http://www.w3.org/1999/xlink" x="0px" y="0px"
	 viewBox="0 0 1190.6 1190.6" style="enable-background:new 0 0 1190.6 1190.6;" xml:space="preserve">
<style type="text/css">
	.st0{fill:#406566;}
	.st1{fill:none;stroke:#702467;stroke-miterlimit:10;}
	.st2{fill:none;stroke:#0AE2D7;stroke-miterlimit:10;}
	.st3{fill:none;stroke:#C1C11E;stroke-miterlimit:10;}
	.st4{font-family:'OpenSansCondensed-Bold';}
	.st5{font-size:60px;}
	.st6{fill:none;}
	.st7{font-family:'OpenSans-Light';}
	.st8{font-size:16px;}
	.st9{font-family:'EBGaramond-Italic';}
	.st10{font-size:10px;}
</style>
<g id="Livello_1">
	<g id="Sfondo">
		<rect y="0" class="st0" width="1190.6" height="1190.6"/>
	</g>
</g>
<g id="Livello_6">
</g>
<g id="Livello_4">
	<g id="Griglia_viola">
		<rect x="60.9" y="60.9" class="st1" width="147.4" height="147.4"/>
		<rect x="982.2" y="60.9" class="st1" width="147.4" height="147.4"/>
		<rect x="245.2" y="60.9" class="st1" width="147.4" height="147.4"/>
		<rect x="798" y="60.9" class="st1" width="147.4" height="147.4"/>
		<rect x="613.7" y="60.9" class="st1" width="147.4" height="147.4"/>
		<rect x="429.5" y="60.9" class="st1" width="147.4" height="147.4"/>
		<rect x="60.9" y="982.2" class="st1" width="147.4" height="147.4"/>
		<rect x="982.2" y="982.2" class="st1" width="147.4" height="147.4"/>
		<rect x="245.2" y="982.2" class="st1" width="147.4" height="147.4"/>
		<rect x="798" y="982.2" class="st1" width="147.4" height="147.4"/>
		<rect x="613.7" y="982.2" class="st1" width="147.4" height="147.4"/>
		<rect x="429.5" y="982.2" class="st1" width="147.4" height="147.4"/>
		<rect x="60.9" y="245.2" class="st1" width="147.4" height="147.4"/>
		<rect x="982.2" y="245.2" class="st1" width="147.4" height="147.4"/>
		<rect x="245.2" y="245.2" class="st1" width="147.4" height="147.4"/>
		<rect x="798" y="245.2" class="st1" width="147.4" height="147.4"/>
		<rect x="613.7" y="245.2" class="st1" width="147.4" height="147.4"/>
		<rect x="429.5" y="245.2" class="st1" width="147.4" height="147.4"/>
		<rect x="60.9" y="798" class="st1" width="147.4" height="147.4"/>
		<rect x="982.2" y="798" class="st1" width="147.4" height="147.4"/>
		<rect x="245.2" y="798" class="st1" width="147.4" height="147.4"/>
		<rect x="798" y="798" class="st1" width="147.4" height="147.4"/>
		<rect x="613.7" y="798" class="st1" width="147.4" height="147.4"/>
		<rect x="429.5" y="798" class="st1" width="147.4" height="147.4"/>
		<rect x="60.9" y="429.5" class="st1" width="147.4" height="147.4"/>
		<rect x="982.2" y="429.5" class="st1" width="147.4" height="147.4"/>
		<rect x="245.2" y="429.5" class="st1" width="147.4" height="147.4"/>
		<rect x="798" y="429.5" class="st1" width="147.4" height="147.4"/>
		<rect x="613.7" y="429.5" class="st1" width="147.4" height="147.4"/>
		<rect x="429.5" y="429.5" class="st1" width="147.4" height="147.4"/>
		<rect x="60.9" y="613.7" class="st1" width="147.4" height="147.4"/>
		<rect x="982.2" y="613.7" class="st1" width="147.4" height="147.4"/>
		<rect x="245.2" y="613.7" class="st1" width="147.4" height="147.4"/>
		<rect x="798" y="613.7" class="st1" width="147.4" height="147.4"/>
		<rect x="613.7" y="613.7" class="st1" width="147.4" height="147.4"/>
		<rect x="429.5" y="613.7" class="st1" width="147.4" height="147.4"/>
	</g>
</g>
<g id="Livello_3">
	<rect x="60.9" y="60.9" class="st2" width="184.3" height="184.3"/>
	<rect x="945.4" y="60.9" class="st2" width="184.3" height="184.3"/>
	<rect x="503.1" y="60.9" class="st2" width="184.3" height="184.3"/>
	<rect x="724.3" y="60.9" class="st2" width="184.3" height="184.3"/>
	<rect x="282" y="60.9" class="st2" width="184.3" height="184.3"/>
	<rect x="60.9" y="945.4" class="st2" width="184.3" height="184.3"/>
	<rect x="945.4" y="945.4" class="st2" width="184.3" height="184.3"/>
	<rect x="503.1" y="945.4" class="st2" width="184.3" height="184.3"/>
	<rect x="724.3" y="945.4" class="st2" width="184.3" height="184.3"/>
	<rect x="282" y="945.4" class="st2" width="184.3" height="184.3"/>
	<rect x="60.9" y="503.1" class="st2" width="184.3" height="184.3"/>
	<rect x="945.4" y="503.1" class="st2" width="184.3" height="184.3"/>
	<rect x="503.1" y="503.1" class="st2" width="184.3" height="184.3"/>
	<rect x="282" y="503.1" class="st2" width="184.3" height="184.3"/>
	<rect x="60.9" y="724.3" class="st2" width="184.3" height="184.3"/>
	<rect x="945.4" y="724.3" class="st2" width="184.3" height="184.3"/>
	<rect x="503.1" y="724.3" class="st2" width="184.3" height="184.3"/>
	<rect x="724.3" y="724.3" class="st2" width="184.3" height="184.3"/>
	<rect x="282" y="724.3" class="st2" width="184.3" height="184.3"/>
	<rect x="60.9" y="282" class="st2" width="184.3" height="184.3"/>
	<rect x="945.4" y="282" class="st2" width="184.3" height="184.3"/>
	<rect x="503.1" y="282" class="st2" width="184.3" height="184.3"/>
	<rect x="724.3" y="282" class="st2" width="184.3" height="184.3"/>
	<rect x="282" y="282" class="st2" width="184.3" height="184.3"/>
	<g>
		<defs>
			<rect id="SVGID_1_" x="724.3" y="503.1" width="184.3" height="184.3"/>
		</defs>
		<clipPath id="SVGID_2_">
			<use xlink:href="#SVGID_1_"  style="overflow:visible;"/>
		</clipPath>
		<g style="clip-path:url(#SVGID_2_);">
			
				<image style="overflow:visible;" width="1280" height="960" xlink:href="E:\Nuova cartella\892896_03.jpg"  transform="matrix(0.472 0 0 0.472 455.4 392.1102)">
			</image>
		</g>
	</g>
</g>
<g id="Livello_2">
	<g id="Griglia_gialla">
		<rect x="60.9" y="337.3" class="st3" width="239.5" height="239.5"/>
		<rect x="60.9" y="60.9" class="st3" width="239.5" height="239.5"/>
		<rect x="337.3" y="60.9" class="st3" width="239.5" height="239.5"/>
		<rect x="613.7" y="60.9" class="st3" width="239.5" height="239.5"/>
		<rect x="890.1" y="60.9" class="st3" width="239.5" height="239.5"/>
		<rect x="337.3" y="337.3" class="st3" width="239.5" height="239.5"/>
		<rect x="613.7" y="337.3" class="st3" width="239.5" height="239.5"/>
		<rect x="890.1" y="337.3" class="st3" width="239.5" height="239.5"/>
		<rect x="60.9" y="613.7" class="st3" width="239.5" height="239.5"/>
		<rect x="337.3" y="613.7" class="st3" width="239.5" height="239.5"/>
		<rect x="613.7" y="613.7" class="st3" width="239.5" height="239.5"/>
		<rect x="890.1" y="613.7" class="st3" width="239.5" height="239.5"/>
		<rect x="60.9" y="890.1" class="st3" width="239.5" height="239.5"/>
		<rect x="337.3" y="890.1" class="st3" width="239.5" height="239.5"/>
		<rect x="613.7" y="890.1" class="st3" width="239.5" height="239.5"/>
		<rect x="890.1" y="890.1" class="st3" width="239.5" height="239.5"/>
	</g>
</g>
<g id="Livello_5">
	<g>
		<defs>
			<ellipse id="SVGID_3_" cx="365" cy="337.3" rx="272" ry="252"/>
		</defs>
		<clipPath id="SVGID_4_">
			<use xlink:href="#SVGID_3_"  style="overflow:visible;"/>
		</clipPath>
		<g style="clip-path:url(#SVGID_4_);">
			
				<image style="overflow:visible;" width="1000" height="750" xlink:href="E:\Nuova cartella\892896_05.jpg"  transform="matrix(1 0 0 1 -155.1 -16.6898)">
			</image>
		</g>
	</g>
	<text transform="matrix(0.9571 0 0 1 677 134.6)" class="st4 st5">Strumenti e metodi</text>
	<rect x="62.3" y="611.7" class="st6" width="238.1" height="517.9"/>
	<text transform="matrix(1 0 0 1 60.3 623.8602)"><tspan x="0" y="0" class="st7 st8">Lorem ipsum dolor sit amet, con</tspan><tspan x="232.8" y="0" class="st7 st8">-</tspan><tspan x="0" y="24" class="st7 st8">sectetuer adipiscing elit, sed </tspan><tspan x="0" y="48" class="st7 st8">diam nonummy nibh euismod </tspan><tspan x="0" y="72" class="st7 st8">tincidunt ut laoreet dolore </tspan><tspan x="0" y="96" class="st7 st8">magna aliquam erat volutpat. Ut </tspan><tspan x="0" y="120" class="st7 st8">wisi enim ad minim veniam, quis </tspan><tspan x="0" y="144" class="st7 st8">nostrud exerci tation ullamcor</tspan><tspan x="216.4" y="144" class="st7 st8">-</tspan><tspan x="0" y="168" class="st7 st8">per suscipit lobortis nisl ut ali</tspan><tspan x="208.6" y="168" class="st7 st8">-</tspan><tspan x="0" y="192" class="st7 st8">quip ex ea commodo consequat. </tspan><tspan x="0" y="216" class="st7 st8">Duis autem vel eum iriure dolor </tspan><tspan x="0" y="240" class="st7 st8">in hendrerit in vulputate velit </tspan><tspan x="0" y="264" class="st7 st8">esse molestie consequat, vel </tspan><tspan x="0" y="288" class="st7 st8">illum dolore eu feugiat nulla faci</tspan><tspan x="228.2" y="288" class="st7 st8">-</tspan><tspan x="0" y="312" class="st7 st8">lisis at vero eros et accumsan et </tspan><tspan x="0" y="336" class="st7 st8">iusto odio dignissim qui blandit </tspan><tspan x="0" y="360" class="st7 st8">praesent luptatum zzril delenit </tspan><tspan x="0" y="384" class="st7 st8">augue duis dolore te feugait nulla </tspan><tspan x="0" y="408" class="st7 st8">facilisi.</tspan><tspan x="0" y="432" class="st7 st8">Lorem ipsum dolor sit amet, </tspan><tspan x="0" y="456" class="st7 st8">cons ectetuer adipiscing elit, sed </tspan><tspan x="0" y="480" class="st7 st8">diam nonummy nibh </tspan></text>
	<text transform="matrix(1 0 0 1 659 406.8898)" class="st9 st10">Spiaggia di Malibù, Los Angeles, California</text>
	<circle class="st6" cx="623.1" cy="936" r="174.9"/>
	<text transform="matrix(1 0 0 1 532.5288 797.2598)"><tspan x="0" y="0" class="st7 st8">Lorem ipsum dolor sit </tspan><tspan x="-31.1" y="24" class="st7 st8">amet, consectetuer adipiscing elit, </tspan><tspan x="-51.8" y="48" class="st7 st8">sed diam nonummy nibh euismod tinci</tspan><tspan x="227.7" y="48" class="st7 st8">-</tspan><tspan x="-66.2" y="72" class="st7 st8">dunt ut laoreet dolore magna aliquam erat </tspan><tspan x="-76" y="96" class="st7 st8">volutpat. Ut wisi enim ad minim veniam, quis </tspan><tspan x="-81.9" y="120" class="st7 st8">nostrud exerci tation ullamcorper suscipit </tspan><tspan x="-84.3" y="144" class="st7 st8">lobortis nisl ut aliquip ex ea commodo conse</tspan><tspan x="236.2" y="144" class="st7 st8">-</tspan><tspan x="-82" y="168" class="st7 st8">quat. Duis autem vel eum iriure dolor in hen</tspan><tspan x="234.7" y="168" class="st7 st8">-</tspan><tspan x="-76.2" y="192" class="st7 st8">drerit in vulputate velit esse molestie conse</tspan><tspan x="233.8" y="192" class="st7 st8">-</tspan><tspan x="-66.5" y="216" class="st7 st8">quat, vel illum dolore eu feugiat nulla facili</tspan><tspan x="233.2" y="216" class="st7 st8">-</tspan><tspan x="-52.2" y="240" class="st7 st8">sis at vero eros et accumsan et iusto </tspan><tspan x="-31.7" y="264" class="st7 st8">odio dignissim qui blandit prae</tspan><tspan x="189.2" y="264" class="st7 st8">-</tspan><tspan x="-0.9" y="288" class="st7 st8">sent luptatum zzril dele</tspan><tspan x="166.9" y="288" class="st7 st8">-</tspan><tspan x="65.7" y="312" class="st7 st8">nit </tspan></text>
</g>
</svg>
