<?xml version="1.0" encoding="utf-8"?>
<!-- Generator: Adobe Illustrator 22.1.0, SVG Export Plug-In . SVG Version: 6.00 Build 0)  -->
<svg version="1.1" id="Livello_1" xmlns="http://www.w3.org/2000/svg" xmlns:xlink="http://www.w3.org/1999/xlink" x="0px" y="0px"
	 viewBox="0 0 1190.6 1190.6" style="enable-background:new 0 0 1190.6 1190.6;" xml:space="preserve">
<style type="text/css">
	.st0{fill:#406566;}
	.st1{fill:none;stroke:#702467;stroke-miterlimit:10;}
	.st2{fill:none;stroke:#C1C11E;stroke-miterlimit:10;}
	.st3{fill:none;stroke:#0AE2D7;stroke-miterlimit:10;}
	.st4{clip-path:url(#SVGID_2_);}
	.st5{clip-path:url(#SVGID_4_);}
	.st6{font-family:'OpenSansCondensed-Bold';}
	.st7{font-size:60px;}
	.st8{font-family:'EBGaramond-Italic';}
	.st9{font-size:10px;}
	.st10{fill:none;}
	.st11{font-family:'OpenSans-Light';}
	.st12{font-size:16px;}
</style>
<g id="Sfondo">
	<rect y="0" class="st0" width="1190.6" height="1190.6"/>
</g>
<g id="Griglia_viola">
	<rect x="60.9" y="60.9" class="st1" width="147.4" height="147.4"/>
	<rect x="982.2" y="60.9" class="st1" width="147.4" height="147.4"/>
	<rect x="245.2" y="60.9" class="st1" width="147.4" height="147.4"/>
	<rect x="798" y="60.9" class="st1" width="147.4" height="147.4"/>
	<rect x="613.7" y="60.9" class="st1" width="147.4" height="147.4"/>
	<rect x="429.5" y="60.9" class="st1" width="147.4" height="147.4"/>
	<rect x="60.9" y="982.2" class="st1" width="147.4" height="147.4"/>
	<rect x="982.2" y="982.2" class="st1" width="147.4" height="147.4"/>
	<rect x="245.2" y="982.2" class="st1" width="147.4" height="147.4"/>
	<rect x="798" y="982.2" class="st1" width="147.4" height="147.4"/>
	<rect x="613.7" y="982.2" class="st1" width="147.4" height="147.4"/>
	<rect x="429.5" y="982.2" class="st1" width="147.4" height="147.4"/>
	<rect x="60.9" y="245.2" class="st1" width="147.4" height="147.4"/>
	<rect x="982.2" y="245.2" class="st1" width="147.4" height="147.4"/>
	<rect x="245.2" y="245.2" class="st1" width="147.4" height="147.4"/>
	<rect x="798" y="245.2" class="st1" width="147.4" height="147.4"/>
	<rect x="613.7" y="245.2" class="st1" width="147.4" height="147.4"/>
	<rect x="429.5" y="245.2" class="st1" width="147.4" height="147.4"/>
	<rect x="60.9" y="798" class="st1" width="147.4" height="147.4"/>
	<rect x="982.2" y="798" class="st1" width="147.4" height="147.4"/>
	<rect x="245.2" y="798" class="st1" width="147.4" height="147.4"/>
	<rect x="798" y="798" class="st1" width="147.4" height="147.4"/>
	<rect x="613.7" y="798" class="st1" width="147.4" height="147.4"/>
	<rect x="429.5" y="798" class="st1" width="147.4" height="147.4"/>
	<rect x="60.9" y="429.5" class="st1" width="147.4" height="147.4"/>
	<rect x="982.2" y="429.5" class="st1" width="147.4" height="147.4"/>
	<rect x="245.2" y="429.5" class="st1" width="147.4" height="147.4"/>
	<rect x="798" y="429.5" class="st1" width="147.4" height="147.4"/>
	<rect x="613.7" y="429.5" class="st1" width="147.4" height="147.4"/>
	<rect x="429.5" y="429.5" class="st1" width="147.4" height="147.4"/>
	<rect x="60.9" y="613.7" class="st1" width="147.4" height="147.4"/>
	<rect x="982.2" y="613.7" class="st1" width="147.4" height="147.4"/>
	<rect x="245.2" y="613.7" class="st1" width="147.4" height="147.4"/>
	<rect x="798" y="613.7" class="st1" width="147.4" height="147.4"/>
	<rect x="613.7" y="613.7" class="st1" width="147.4" height="147.4"/>
	<rect x="429.5" y="613.7" class="st1" width="147.4" height="147.4"/>
</g>
<g id="Griglia_gialla">
	<rect x="60.9" y="337.3" class="st2" width="239.5" height="239.5"/>
	<rect x="60.9" y="60.9" class="st2" width="239.5" height="239.5"/>
	<rect x="337.3" y="60.9" class="st2" width="239.5" height="239.5"/>
	<rect x="613.7" y="60.9" class="st2" width="239.5" height="239.5"/>
	<rect x="890.1" y="60.9" class="st2" width="239.5" height="239.5"/>
	<rect x="337.3" y="337.3" class="st2" width="239.5" height="239.5"/>
	<rect x="613.7" y="337.3" class="st2" width="239.5" height="239.5"/>
	<rect x="890.1" y="337.3" class="st2" width="239.5" height="239.5"/>
	<rect x="60.9" y="613.7" class="st2" width="239.5" height="239.5"/>
	<rect x="337.3" y="613.7" class="st2" width="239.5" height="239.5"/>
	<rect x="613.7" y="613.7" class="st2" width="239.5" height="239.5"/>
	<rect x="890.1" y="613.7" class="st2" width="239.5" height="239.5"/>
	<rect x="60.9" y="890.1" class="st2" width="239.5" height="239.5"/>
	<rect x="337.3" y="890.1" class="st2" width="239.5" height="239.5"/>
	<rect x="613.7" y="890.1" class="st2" width="239.5" height="239.5"/>
	<rect x="890.1" y="890.1" class="st2" width="239.5" height="239.5"/>
</g>
<g id="Griglia_azzurra">
	<rect x="60.9" y="60.9" class="st3" width="184.3" height="184.3"/>
	<rect x="945.4" y="60.9" class="st3" width="184.3" height="184.3"/>
	<rect x="503.1" y="60.9" class="st3" width="184.3" height="184.3"/>
	<rect x="724.3" y="60.9" class="st3" width="184.3" height="184.3"/>
	<rect x="282" y="60.9" class="st3" width="184.3" height="184.3"/>
	<rect x="60.9" y="945.4" class="st3" width="184.3" height="184.3"/>
	<rect x="945.4" y="945.4" class="st3" width="184.3" height="184.3"/>
	<rect x="503.1" y="945.4" class="st3" width="184.3" height="184.3"/>
	<rect x="724.3" y="945.4" class="st3" width="184.3" height="184.3"/>
	<rect x="282" y="945.4" class="st3" width="184.3" height="184.3"/>
	<rect x="60.9" y="503.1" class="st3" width="184.3" height="184.3"/>
	<rect x="945.4" y="503.1" class="st3" width="184.3" height="184.3"/>
	<rect x="503.1" y="503.1" class="st3" width="184.3" height="184.3"/>
	<g>
		<g>
			<g>
				<g>
					<g>
						<defs>
							<rect id="SVGID_1_" x="724.3" y="503.1" width="184.3" height="184.3"/>
						</defs>
						<clipPath id="SVGID_2_">
							<use xlink:href="#SVGID_1_"  style="overflow:visible;"/>
						</clipPath>
						<g class="st4">
							
								<image style="overflow:visible;enable-background:new    ;" width="1280" height="960" xlink:href="../../Nuova cartella (2)/892896_03.jpg"  transform="matrix(0.472 0 0 0.472 455.4 392.1102)">
							</image>
						</g>
					</g>
				</g>
			</g>
		</g>
	</g>
	<rect x="282" y="503.1" class="st3" width="184.3" height="184.3"/>
	<rect x="60.9" y="724.3" class="st3" width="184.3" height="184.3"/>
	<rect x="945.4" y="724.3" class="st3" width="184.3" height="184.3"/>
	<rect x="503.1" y="724.3" class="st3" width="184.3" height="184.3"/>
	<rect x="724.3" y="724.3" class="st3" width="184.3" height="184.3"/>
	<rect x="282" y="724.3" class="st3" width="184.3" height="184.3"/>
	<rect x="60.9" y="282" class="st3" width="184.3" height="184.3"/>
	<rect x="945.4" y="282" class="st3" width="184.3" height="184.3"/>
	<rect x="503.1" y="282" class="st3" width="184.3" height="184.3"/>
	<rect x="724.3" y="282" class="st3" width="184.3" height="184.3"/>
	<rect x="282" y="282" class="st3" width="184.3" height="184.3"/>
</g>
<g>
	<g>
		<g>
			<g>
				<g>
					<defs>
						<ellipse id="SVGID_3_" cx="365" cy="337.3" rx="272" ry="252"/>
					</defs>
					<clipPath id="SVGID_4_">
						<use xlink:href="#SVGID_3_"  style="overflow:visible;"/>
					</clipPath>
					<g class="st5">
						
							<image style="overflow:visible;enable-background:new    ;" width="1000" height="750" xlink:href="../../Nuova cartella (2)/892896_05.jpg"  transform="matrix(1 0 0 1 -155.1 -16.6898)">
						</image>
					</g>
				</g>
			</g>
		</g>
	</g>
</g>
<text transform="matrix(0.9571 0 0 1 677 134.5997)" class="st6 st7">Strumenti e metodi</text>
<text transform="matrix(1 0 0 1 659 406.8898)" class="st8 st9">Spiaggia di Malibù, Los Angeles, California</text>
<circle class="st10" cx="739.2" cy="937" r="143.9"/>
<polyline class="st10" points="310,1125.9 60,1125.9 60,619.9 "/>
<rect x="60" y="633.9" class="st10" width="230.4" height="459"/>
<text transform="matrix(1 0 0 1 60 646.0499)"><tspan x="0" y="0" class="st11 st12">Lorem ipsum dolor sit amet, </tspan><tspan x="0" y="12" class="st11 st12">consectetuer adipiscing elit, sed </tspan><tspan x="0" y="24" class="st11 st12">diam nonummy nibh euismod </tspan><tspan x="0" y="36" class="st11 st12">tincidunt ut laoreet dolore </tspan><tspan x="0" y="48" class="st11 st12">magna aliquam erat volutpat. </tspan><tspan x="0" y="60" class="st11 st12">Ut wisi enim ad minim veniam, </tspan><tspan x="0" y="72" class="st11 st12">quis nostrud exerci tation </tspan><tspan x="0" y="84" class="st11 st12">ullamcorper suscipit lobortis </tspan><tspan x="0" y="96" class="st11 st12">nisl ut aliquip ex ea commodo </tspan><tspan x="0" y="108" class="st11 st12">consequat. Duis autem vel eum </tspan><tspan x="0" y="120" class="st11 st12">iriure dolor in hendrerit in vul</tspan><tspan x="210.7" y="120" class="st11 st12">-</tspan><tspan x="0" y="132" class="st11 st12">putate velit esse molestie con</tspan><tspan x="212.3" y="132" class="st11 st12">-</tspan><tspan x="0" y="144" class="st11 st12">sequat, vel illum dolore eu feu</tspan><tspan x="215.5" y="144" class="st11 st12">-</tspan><tspan x="0" y="156" class="st11 st12">giat nulla facilisis at vero eros et </tspan><tspan x="0" y="168" class="st11 st12">accumsan et iusto odio dignis</tspan><tspan x="212.5" y="168" class="st11 st12">-</tspan><tspan x="0" y="180" class="st11 st12">sim qui blandit praesent lupta</tspan><tspan x="214.4" y="180" class="st11 st12">-</tspan><tspan x="0" y="192" class="st11 st12">tum zzril delenit augue duis </tspan><tspan x="0" y="204" class="st11 st12">dolore te feugait nulla facilisi.</tspan><tspan x="0" y="216" class="st11 st12">Lorem ipsum dolor sit amet, </tspan><tspan x="0" y="228" class="st11 st12">cons ectetuer adipiscing elit, </tspan><tspan x="0" y="240" class="st11 st12">sed diam nonummy nibh eui</tspan><tspan x="205.3" y="240" class="st11 st12">-</tspan><tspan x="0" y="252" class="st11 st12">smod tincidunt ut laoreet </tspan><tspan x="0" y="264" class="st11 st12">dolore magna aliquam erat vo</tspan><tspan x="215.2" y="264" class="st11 st12">-</tspan><tspan x="0" y="276" class="st11 st12">lutpat. Ut wisi enim ad minim </tspan><tspan x="0" y="288" class="st11 st12">veniam, quis nostrud exerci </tspan><tspan x="0" y="300" class="st11 st12">tation ullamcorper suscipit </tspan><tspan x="0" y="312" class="st11 st12">lobortis nisl ut aliquip ex ea </tspan><tspan x="0" y="324" class="st11 st12">commodo consequat.</tspan><tspan x="0" y="336" class="st11 st12">Lorem ipsum dolor sit amet, </tspan><tspan x="0" y="348" class="st11 st12">consectetuer adipiscing elit, sed </tspan><tspan x="0" y="360" class="st11 st12">diam nonummy nibh euismod </tspan><tspan x="0" y="372" class="st11 st12">tincidunt ut laoreet dolore </tspan><tspan x="0" y="384" class="st11 st12">magna aliquam erat volutpat. </tspan><tspan x="0" y="396" class="st11 st12">Ut wisi enim ad minim veniam, </tspan><tspan x="0" y="408" class="st11 st12">quis nostrud exerci tation </tspan><tspan x="0" y="420" class="st11 st12">ullamcorper suscipit lobortis </tspan><tspan x="0" y="432" class="st11 st12">nisl ut aliquip ex ea commodo </tspan><tspan x="0" y="444" class="st11 st12">consequat. Duis autem vel eum </tspan></text>
<circle class="st10" cx="599.3" cy="806.1" r="114.3"/>
<text transform="matrix(1 0 0 1 545.8701 716.0499)"><tspan x="0" y="0" class="st11 st12">Lorem ipsum </tspan><tspan x="-18.2" y="12" class="st11 st12">dolor sit amet, con</tspan><tspan x="115.4" y="12" class="st11 st12">-</tspan><tspan x="-31" y="24" class="st11 st12">sectetuer adipiscing </tspan><tspan x="-40.6" y="36" class="st11 st12">elit, sed diam nonummy </tspan><tspan x="-47.8" y="48" class="st11 st12">nibh euismod tincidunt ut </tspan><tspan x="-53.3" y="60" class="st11 st12">laoreet dolore magna ali</tspan><tspan x="121.3" y="60" class="st11 st12">-</tspan><tspan x="-57.1" y="72" class="st11 st12">quam erat volutpat. Ut wisi </tspan><tspan x="-59.6" y="84" class="st11 st12">enim ad minim veniam, quis </tspan><tspan x="-60.7" y="96" class="st11 st12">nostrud exerci tation ullamcor</tspan><tspan x="155.6" y="96" class="st11 st12">-</tspan><tspan x="-59.5" y="108" class="st11 st12">per suscipit lobortis nisl ut ali</tspan><tspan x="149.1" y="108" class="st11 st12">-</tspan><tspan x="-56.9" y="120" class="st11 st12">quip ex ea commodo conse</tspan><tspan x="142" y="120" class="st11 st12">-</tspan><tspan x="-52.9" y="132" class="st11 st12">quat. Duis autem vel eum </tspan><tspan x="-47.4" y="144" class="st11 st12">iriure dolor in hendrerit in </tspan><tspan x="-40" y="156" class="st11 st12">vulputate velit esse mole</tspan><tspan x="136.9" y="156" class="st11 st12">-</tspan><tspan x="-30.2" y="168" class="st11 st12">stie consequat, vel </tspan><tspan x="-17.1" y="180" class="st11 st12">illum dolore eu </tspan><tspan x="1.7" y="192" class="st11 st12">feugiat nulla </tspan><tspan x="44.4" y="204" class="st11 st12">fa</tspan></text>
</svg>
