<svg id="Livello_1" data-name="Livello 1" xmlns="http://www.w3.org/2000/svg" xmlns:xlink="http://www.w3.org/1999/xlink" viewBox="0 0 1190.6 1190.6"><defs><style>.cls-1{fill:#406566;}.cls-2,.cls-3,.cls-4{fill:none;stroke-miterlimit:10;}.cls-2{stroke:#702467;}.cls-3{stroke:#c1c11e;}.cls-4{stroke:#0ae2d7;}.cls-5{isolation:isolate;}</style></defs><title>892896_03</title><g id="Livello_1-2" data-name="Livello 1-2"><g id="Sfondo"><rect class="cls-1" width="1190.6" height="1190.6"/></g><g id="Griglia_viola" data-name="Griglia viola"><rect class="cls-2" x="60.9" y="60.9" width="147.4" height="147.4"/><rect class="cls-2" x="982.2" y="60.9" width="147.4" height="147.4"/><rect class="cls-2" x="245.2" y="60.9" width="147.4" height="147.4"/><rect class="cls-2" x="798" y="60.9" width="147.4" height="147.4"/><rect class="cls-2" x="613.7" y="60.9" width="147.4" height="147.4"/><rect class="cls-2" x="429.5" y="60.9" width="147.4" height="147.4"/><rect class="cls-2" x="60.9" y="982.2" width="147.4" height="147.4"/><rect class="cls-2" x="982.2" y="982.2" width="147.4" height="147.4"/><rect class="cls-2" x="245.2" y="982.2" width="147.4" height="147.4"/><rect class="cls-2" x="798" y="982.2" width="147.4" height="147.4"/><rect class="cls-2" x="613.7" y="982.2" width="147.4" height="147.4"/><rect class="cls-2" x="429.5" y="982.2" width="147.4" height="147.4"/><rect class="cls-2" x="60.9" y="245.2" width="147.4" height="147.4"/><rect class="cls-2" x="982.2" y="245.2" width="147.4" height="147.4"/><rect class="cls-2" x="245.2" y="245.2" width="147.4" height="147.4"/><rect class="cls-2" x="798" y="245.2" width="147.4" height="147.4"/><rect class="cls-2" x="613.7" y="245.2" width="147.4" height="147.4"/><rect class="cls-2" x="429.5" y="245.2" width="147.4" height="147.4"/><rect class="cls-2" x="60.9" y="798" width="147.4" height="147.4"/><rect class="cls-2" x="982.2" y="798" width="147.4" height="147.4"/><rect class="cls-2" x="245.2" y="798" width="147.4" height="147.4"/><rect class="cls-2" x="798" y="798" width="147.4" height="147.4"/><rect class="cls-2" x="613.7" y="798" width="147.4" height="147.4"/><rect class="cls-2" x="429.5" y="798" width="147.4" height="147.4"/><rect class="cls-2" x="60.9" y="429.5" width="147.4" height="147.4"/><rect class="cls-2" x="982.2" y="429.5" width="147.4" height="147.4"/><rect class="cls-2" x="245.2" y="429.5" width="147.4" height="147.4"/><rect class="cls-2" x="798" y="429.5" width="147.4" height="147.4"/><rect class="cls-2" x="613.7" y="429.5" width="147.4" height="147.4"/><rect class="cls-2" x="429.5" y="429.5" width="147.4" height="147.4"/><rect class="cls-2" x="60.9" y="613.7" width="147.4" height="147.4"/><rect class="cls-2" x="982.2" y="613.7" width="147.4" height="147.4"/><rect class="cls-2" x="245.2" y="613.7" width="147.4" height="147.4"/><rect class="cls-2" x="798" y="613.7" width="147.4" height="147.4"/><rect class="cls-2" x="613.7" y="613.7" width="147.4" height="147.4"/><rect class="cls-2" x="429.5" y="613.7" width="147.4" height="147.4"/></g><g id="Griglia_gialla" data-name="Griglia gialla"><rect class="cls-3" x="60.9" y="337.3" width="239.5" height="239.5"/><rect class="cls-3" x="60.9" y="60.9" width="239.5" height="239.5"/><rect class="cls-3" x="337.3" y="60.9" width="239.5" height="239.5"/><rect class="cls-3" x="613.7" y="60.9" width="239.5" height="239.5"/><rect class="cls-3" x="890.1" y="60.9" width="239.5" height="239.5"/><rect class="cls-3" x="337.3" y="337.3" width="239.5" height="239.5"/><rect class="cls-3" x="613.7" y="337.3" width="239.5" height="239.5"/><rect class="cls-3" x="890.1" y="337.3" width="239.5" height="239.5"/><rect class="cls-3" x="60.9" y="613.7" width="239.5" height="239.5"/><rect class="cls-3" x="337.3" y="613.7" width="239.5" height="239.5"/><rect class="cls-3" x="613.7" y="613.7" width="239.5" height="239.5"/><rect class="cls-3" x="890.1" y="613.7" width="239.5" height="239.5"/><rect class="cls-3" x="60.9" y="890.1" width="239.5" height="239.5"/><rect class="cls-3" x="337.3" y="890.1" width="239.5" height="239.5"/><rect class="cls-3" x="613.7" y="890.1" width="239.5" height="239.5"/><rect class="cls-3" x="890.1" y="890.1" width="239.5" height="239.5"/></g><g id="Griglia_azzurra" data-name="Griglia azzurra"><rect class="cls-4" x="60.9" y="60.9" width="184.3" height="184.3"/><rect class="cls-4" x="945.4" y="60.9" width="184.3" height="184.3"/><rect class="cls-4" x="503.1" y="60.9" width="184.3" height="184.3"/><rect class="cls-4" x="724.3" y="60.9" width="184.3" height="184.3"/><rect class="cls-4" x="282" y="60.9" width="184.3" height="184.3"/><rect class="cls-4" x="60.9" y="945.4" width="184.3" height="184.3"/><rect class="cls-4" x="945.4" y="945.4" width="184.3" height="184.3"/><rect class="cls-4" x="503.1" y="945.4" width="184.3" height="184.3"/><rect class="cls-4" x="724.3" y="945.4" width="184.3" height="184.3"/><rect class="cls-4" x="282" y="945.4" width="184.3" height="184.3"/><rect class="cls-4" x="60.9" y="503.1" width="184.3" height="184.3"/><rect class="cls-4" x="945.4" y="503.1" width="184.3" height="184.3"/><rect class="cls-4" x="503.1" y="503.1" width="184.3" height="184.3"/><rect class="cls-4" x="724.3" y="503.1" width="184.3" height="184.3"/><rect class="cls-4" x="282" y="503.1" width="184.3" height="184.3"/><rect class="cls-4" x="60.9" y="724.3" width="184.3" height="184.3"/><rect class="cls-4" x="945.4" y="724.3" width="184.3" height="184.3"/><rect class="cls-4" x="503.1" y="724.3" width="184.3" height="184.3"/><rect class="cls-4" x="724.3" y="724.3" width="184.3" height="184.3"/><rect class="cls-4" x="282" y="724.3" width="184.3" height="184.3"/><rect class="cls-4" x="60.9" y="282" width="184.3" height="184.3"/><rect class="cls-4" x="945.4" y="282" width="184.3" height="184.3"/><rect class="cls-4" x="503.1" y="282" width="184.3" height="184.3"/><rect class="cls-4" x="724.3" y="282" width="184.3" height="184.3"/><rect class="cls-4" x="282" y="282" width="184.3" height="184.3"/></g></g><image class="cls-5" width="1280" height="960" transform="translate(341.3 337.3) scale(0.47)" xlink:href="../../Nuova cartella (2)/892896_03.jpg"/></svg>