<svg id="Livello_1" data-name="Livello 1" xmlns="http://www.w3.org/2000/svg" xmlns:xlink="http://www.w3.org/1999/xlink" viewBox="0 0 1190.6 1190.6"><defs><style>.cls-1,.cls-3,.cls-4,.cls-8{fill:none;}.cls-2{fill:#eacaf9;}.cls-3{stroke:#205600;}.cls-3,.cls-4,.cls-8{stroke-miterlimit:10;stroke-width:2px;}.cls-4{stroke:#42c0ed;}.cls-5{clip-path:url(#clip-path);}.cls-6{clip-path:url(#clip-path-2);}.cls-7{isolation:isolate;}.cls-8{stroke:#ff2c2c;}</style><clipPath id="clip-path"><rect id="_Tracciato_25" data-name=" Tracciato 25" class="cls-1" x="502.5" y="503.1" width="184.3" height="184.3"/></clipPath><clipPath id="clip-path-2"><rect class="cls-1" x="417.39" y="397.8" width="354.72" height="396"/></clipPath></defs><title>892804_04</title><g id="Livello_2" data-name="Livello 2"><g id="Sfondo"><rect class="cls-2" width="1190.6" height="1190.6"/></g><g id="Livello_2-2" data-name="Livello 2-2"><rect id="_Tracciato_" data-name=" Tracciato " class="cls-3" x="60.4" y="61.9" width="239.5" height="239.5"/><rect id="_Tracciato_2" data-name=" Tracciato 2" class="cls-3" x="60.4" y="889.1" width="239.5" height="239.5"/><rect id="_Tracciato_3" data-name=" Tracciato 3" class="cls-3" x="60.4" y="613.4" width="239.5" height="239.5"/><rect id="_Tracciato_4" data-name=" Tracciato 4" class="cls-3" x="60.4" y="337.6" width="239.5" height="239.5"/><rect id="_Tracciato_5" data-name=" Tracciato 5" class="cls-3" x="889.3" y="61.9" width="239.5" height="239.5"/><rect id="_Tracciato_6" data-name=" Tracciato 6" class="cls-3" x="889.3" y="889.1" width="239.5" height="239.5"/><rect id="_Tracciato_7" data-name=" Tracciato 7" class="cls-3" x="889.3" y="613.4" width="239.5" height="239.5"/><rect id="_Tracciato_8" data-name=" Tracciato 8" class="cls-3" x="889.3" y="337.6" width="239.5" height="239.5"/><rect id="_Tracciato_9" data-name=" Tracciato 9" class="cls-3" x="336.7" y="61.9" width="239.5" height="239.5"/><rect id="_Tracciato_10" data-name=" Tracciato 10" class="cls-3" x="336.7" y="889.1" width="239.5" height="239.5"/><rect id="_Tracciato_11" data-name=" Tracciato 11" class="cls-3" x="336.7" y="613.4" width="239.5" height="239.5"/><rect id="_Tracciato_12" data-name=" Tracciato 12" class="cls-3" x="336.7" y="337.6" width="239.5" height="239.5"/><rect id="_Tracciato_13" data-name=" Tracciato 13" class="cls-3" x="613" y="61.9" width="239.5" height="239.5"/><rect id="_Tracciato_14" data-name=" Tracciato 14" class="cls-3" x="613" y="889.1" width="239.5" height="239.5"/><rect id="_Tracciato_15" data-name=" Tracciato 15" class="cls-3" x="613" y="613.4" width="239.5" height="239.5"/><rect id="_Tracciato_16" data-name=" Tracciato 16" class="cls-3" x="613" y="337.6" width="239.5" height="239.5"/></g><g id="Livello_3" data-name="Livello 3"><rect id="_Tracciato_17" data-name=" Tracciato 17" class="cls-4" x="60.4" y="61.9" width="184.3" height="184.3"/><rect id="_Tracciato_18" data-name=" Tracciato 18" class="cls-4" x="944.6" y="61.9" width="184.3" height="184.3"/><rect id="_Tracciato_19" data-name=" Tracciato 19" class="cls-4" x="723.6" y="61.9" width="184.3" height="184.3"/><rect id="_Tracciato_20" data-name=" Tracciato 20" class="cls-4" x="502.5" y="61.9" width="184.3" height="184.3"/><rect id="_Tracciato_21" data-name=" Tracciato 21" class="cls-4" x="281.5" y="61.9" width="184.3" height="184.3"/><rect id="_Tracciato_22" data-name=" Tracciato 22" class="cls-4" x="60.4" y="503.1" width="184.3" height="184.3"/><rect id="_Tracciato_23" data-name=" Tracciato 23" class="cls-4" x="944.6" y="503.1" width="184.3" height="184.3"/><rect id="_Tracciato_24" data-name=" Tracciato 24" class="cls-4" x="723.6" y="503.1" width="184.3" height="184.3"/><g class="cls-5"><g class="cls-6"><image class="cls-7" width="1478" height="1650" transform="translate(417.39 397.8) scale(0.24)" xlink:href="../../CAS/illu/2.jpg"/></g></g><rect id="_Tracciato_26" data-name=" Tracciato 26" class="cls-4" x="281.5" y="503.1" width="184.3" height="184.3"/><rect id="_Tracciato_27" data-name=" Tracciato 27" class="cls-4" x="60.4" y="724.6" width="184.3" height="184.3"/><rect id="_Tracciato_28" data-name=" Tracciato 28" class="cls-4" x="944.6" y="724.6" width="184.3" height="184.3"/><rect id="_Tracciato_29" data-name=" Tracciato 29" class="cls-4" x="723.6" y="724.6" width="184.3" height="184.3"/><rect id="_Tracciato_30" data-name=" Tracciato 30" class="cls-4" x="502.5" y="724.6" width="184.3" height="184.3"/><rect id="_Tracciato_31" data-name=" Tracciato 31" class="cls-4" x="281.5" y="724.6" width="184.3" height="184.3"/><rect id="_Tracciato_32" data-name=" Tracciato 32" class="cls-4" x="60.4" y="944.4" width="184.3" height="184.3"/><rect id="_Tracciato_33" data-name=" Tracciato 33" class="cls-4" x="944.6" y="944.4" width="184.3" height="184.3"/><rect id="_Tracciato_34" data-name=" Tracciato 34" class="cls-4" x="723.6" y="944.4" width="184.3" height="184.3"/><rect id="_Tracciato_35" data-name=" Tracciato 35" class="cls-4" x="502.5" y="944.4" width="184.3" height="184.3"/><rect id="_Tracciato_36" data-name=" Tracciato 36" class="cls-4" x="281.5" y="944.4" width="184.3" height="184.3"/><rect id="_Tracciato_37" data-name=" Tracciato 37" class="cls-4" x="60.4" y="283.3" width="184.3" height="184.3"/><rect id="_Tracciato_38" data-name=" Tracciato 38" class="cls-4" x="944.6" y="283.3" width="184.3" height="184.3"/><rect id="_Tracciato_39" data-name=" Tracciato 39" class="cls-4" x="723.6" y="283.3" width="184.3" height="184.3"/><rect id="_Tracciato_40" data-name=" Tracciato 40" class="cls-4" x="502.5" y="283.3" width="184.3" height="184.3"/><rect id="_Tracciato_41" data-name=" Tracciato 41" class="cls-4" x="281.5" y="283.3" width="184.3" height="184.3"/></g><g id="Livello_4" data-name="Livello 4"><g id="_Gruppo_" data-name=" Gruppo "><rect id="_Tracciato_42" data-name=" Tracciato 42" class="cls-8" x="60.4" y="61.9" width="147.4" height="147.4"/><rect id="_Tracciato_43" data-name=" Tracciato 43" class="cls-8" x="797.3" y="61.9" width="147.4" height="147.4"/><rect id="_Tracciato_44" data-name=" Tracciato 44" class="cls-8" x="613.1" y="61.9" width="147.4" height="147.4"/><rect id="_Tracciato_45" data-name=" Tracciato 45" class="cls-8" x="428.9" y="61.9" width="147.4" height="147.4"/><rect id="_Tracciato_46" data-name=" Tracciato 46" class="cls-8" x="244.7" y="61.9" width="147.4" height="147.4"/><rect id="_Tracciato_47" data-name=" Tracciato 47" class="cls-8" x="981.5" y="61.9" width="147.4" height="147.4"/></g><g id="_Gruppo_2" data-name=" Gruppo 2"><rect id="_Tracciato_48" data-name=" Tracciato 48" class="cls-8" x="60.4" y="246" width="147.4" height="147.4"/><rect id="_Tracciato_49" data-name=" Tracciato 49" class="cls-8" x="797.3" y="246" width="147.4" height="147.4"/><rect id="_Tracciato_50" data-name=" Tracciato 50" class="cls-8" x="613.1" y="246" width="147.4" height="147.4"/><rect id="_Tracciato_51" data-name=" Tracciato 51" class="cls-8" x="428.9" y="246" width="147.4" height="147.4"/><rect id="_Tracciato_52" data-name=" Tracciato 52" class="cls-8" x="244.7" y="246" width="147.4" height="147.4"/><rect id="_Tracciato_53" data-name=" Tracciato 53" class="cls-8" x="981.5" y="246" width="147.4" height="147.4"/></g><g id="_Gruppo_3" data-name=" Gruppo 3"><rect id="_Tracciato_54" data-name=" Tracciato 54" class="cls-8" x="60.4" y="430.2" width="147.4" height="147.4"/><rect id="_Tracciato_55" data-name=" Tracciato 55" class="cls-8" x="797.3" y="430.2" width="147.4" height="147.4"/><rect id="_Tracciato_56" data-name=" Tracciato 56" class="cls-8" x="613.1" y="430.2" width="147.4" height="147.4"/><rect id="_Tracciato_57" data-name=" Tracciato 57" class="cls-8" x="428.9" y="430.2" width="147.4" height="147.4"/><rect id="_Tracciato_58" data-name=" Tracciato 58" class="cls-8" x="244.7" y="430.2" width="147.4" height="147.4"/><rect id="_Tracciato_59" data-name=" Tracciato 59" class="cls-8" x="981.5" y="430.2" width="147.4" height="147.4"/></g><g id="_Gruppo_4" data-name=" Gruppo 4"><rect id="_Tracciato_60" data-name=" Tracciato 60" class="cls-8" x="60.4" y="614.3" width="147.4" height="147.4"/><rect id="_Tracciato_61" data-name=" Tracciato 61" class="cls-8" x="797.3" y="614.3" width="147.4" height="147.4"/><rect id="_Tracciato_62" data-name=" Tracciato 62" class="cls-8" x="613.1" y="614.3" width="147.4" height="147.4"/><rect id="_Tracciato_63" data-name=" Tracciato 63" class="cls-8" x="428.9" y="614.3" width="147.4" height="147.4"/><rect id="_Tracciato_64" data-name=" Tracciato 64" class="cls-8" x="244.7" y="614.3" width="147.4" height="147.4"/><rect id="_Tracciato_65" data-name=" Tracciato 65" class="cls-8" x="981.5" y="614.3" width="147.4" height="147.4"/></g><g id="_Gruppo_5" data-name=" Gruppo 5"><rect id="_Tracciato_66" data-name=" Tracciato 66" class="cls-8" x="60.4" y="798.4" width="147.4" height="147.4"/><rect id="_Tracciato_67" data-name=" Tracciato 67" class="cls-8" x="797.3" y="798.4" width="147.4" height="147.4"/><rect id="_Tracciato_68" data-name=" Tracciato 68" class="cls-8" x="613.1" y="798.4" width="147.4" height="147.4"/><rect id="_Tracciato_69" data-name=" Tracciato 69" class="cls-8" x="428.9" y="798.4" width="147.4" height="147.4"/><rect id="_Tracciato_70" data-name=" Tracciato 70" class="cls-8" x="244.7" y="798.4" width="147.4" height="147.4"/><rect id="_Tracciato_71" data-name=" Tracciato 71" class="cls-8" x="981.5" y="798.4" width="147.4" height="147.4"/></g><g id="_Gruppo_6" data-name=" Gruppo 6"><rect id="_Tracciato_72" data-name=" Tracciato 72" class="cls-8" x="60.4" y="982.5" width="147.4" height="147.4"/><rect id="_Tracciato_73" data-name=" Tracciato 73" class="cls-8" x="797.3" y="982.5" width="147.4" height="147.4"/><rect id="_Tracciato_74" data-name=" Tracciato 74" class="cls-8" x="613.1" y="982.5" width="147.4" height="147.4"/><rect id="_Tracciato_75" data-name=" Tracciato 75" class="cls-8" x="428.9" y="982.5" width="147.4" height="147.4"/><rect id="_Tracciato_76" data-name=" Tracciato 76" class="cls-8" x="244.7" y="982.5" width="147.4" height="147.4"/><rect id="_Tracciato_77" data-name=" Tracciato 77" class="cls-8" x="981.5" y="982.5" width="147.4" height="147.4"/></g></g></g></svg>