<svg xmlns="http://www.w3.org/2000/svg" xmlns:xlink="http://www.w3.org/1999/xlink" viewBox="0 0 1190.55 1190.55"><defs><style>.cls-1,.cls-3,.cls-4,.cls-5{fill:none;}.cls-2{fill:#eacaf9;}.cls-3{stroke:#009640;}.cls-3,.cls-4,.cls-5{stroke-miterlimit:10;}.cls-4{stroke:#590836;}.cls-5{stroke:#0d1363;}.cls-6{clip-path:url(#clip-path);}.cls-7{isolation:isolate;}</style><clipPath id="clip-path"><rect class="cls-1" x="60.94" y="337.32" width="239.53" height="239.53"/></clipPath></defs><title>892804_03</title><g id="Sfondo"><rect class="cls-2" width="1190.55" height="1190.55"/></g><g id="Griglia_verde" data-name="Griglia verde"><rect class="cls-3" x="60.94" y="60.94" width="239.53" height="239.53"/><rect class="cls-3" x="337.32" y="60.94" width="239.53" height="239.53"/><rect class="cls-3" x="613.7" y="60.94" width="239.53" height="239.53"/><rect class="cls-3" x="890.08" y="60.94" width="239.53" height="239.53"/><rect class="cls-3" x="337.32" y="337.32" width="239.53" height="239.53"/><rect class="cls-3" x="613.7" y="337.32" width="239.53" height="239.53"/><rect class="cls-3" x="890.08" y="337.32" width="239.53" height="239.53"/><rect class="cls-3" x="60.94" y="613.7" width="239.53" height="239.53"/><rect class="cls-3" x="337.32" y="613.7" width="239.53" height="239.53"/><rect class="cls-3" x="613.7" y="613.7" width="239.53" height="239.53"/><rect class="cls-3" x="890.08" y="613.7" width="239.53" height="239.53"/><rect class="cls-3" x="60.94" y="890.08" width="239.53" height="239.53"/><rect class="cls-3" x="337.32" y="890.08" width="239.53" height="239.53"/><rect class="cls-3" x="613.7" y="890.08" width="239.53" height="239.53"/><rect class="cls-3" x="890.08" y="890.08" width="239.53" height="239.53"/></g><g id="Griglia_rosa" data-name="Griglia rosa"><rect class="cls-4" x="60.94" y="60.94" width="184.25" height="184.25"/><rect class="cls-4" x="945.36" y="60.94" width="184.25" height="184.25"/><rect class="cls-4" x="503.15" y="60.94" width="184.25" height="184.25"/><rect class="cls-4" x="724.26" y="60.94" width="184.25" height="184.25"/><rect class="cls-4" x="282.04" y="60.94" width="184.25" height="184.25"/><rect class="cls-4" x="60.94" y="945.36" width="184.25" height="184.25"/><rect class="cls-4" x="945.36" y="945.36" width="184.25" height="184.25"/><rect class="cls-4" x="503.15" y="945.36" width="184.25" height="184.25"/><rect class="cls-4" x="724.26" y="945.36" width="184.25" height="184.25"/><rect class="cls-4" x="282.04" y="945.36" width="184.25" height="184.25"/><rect class="cls-4" x="60.94" y="503.15" width="184.25" height="184.25"/><rect class="cls-4" x="945.36" y="503.15" width="184.25" height="184.25"/><rect class="cls-4" x="503.15" y="503.15" width="184.25" height="184.25"/><rect class="cls-4" x="724.26" y="503.15" width="184.25" height="184.25"/><rect class="cls-4" x="282.04" y="503.15" width="184.25" height="184.25"/><rect class="cls-4" x="60.94" y="724.26" width="184.25" height="184.25"/><rect class="cls-4" x="945.36" y="724.26" width="184.25" height="184.25"/><rect class="cls-4" x="503.15" y="724.26" width="184.25" height="184.25"/><rect class="cls-4" x="724.26" y="724.26" width="184.25" height="184.25"/><rect class="cls-4" x="282.04" y="724.26" width="184.25" height="184.25"/><rect class="cls-4" x="60.94" y="282.04" width="184.25" height="184.25"/><rect class="cls-4" x="945.36" y="282.04" width="184.25" height="184.25"/><rect class="cls-4" x="503.15" y="282.04" width="184.25" height="184.25"/><rect class="cls-4" x="724.26" y="282.04" width="184.25" height="184.25"/><rect class="cls-4" x="282.04" y="282.04" width="184.25" height="184.25"/></g><g id="Griglia_gialla" data-name="Griglia gialla"><rect class="cls-5" x="60.94" y="60.94" width="147.4" height="147.4"/><rect class="cls-5" x="982.21" y="60.94" width="147.4" height="147.4"/><rect class="cls-5" x="245.19" y="60.94" width="147.4" height="147.4"/><rect class="cls-5" x="797.96" y="60.94" width="147.4" height="147.4"/><rect class="cls-5" x="613.7" y="60.94" width="147.4" height="147.4"/><rect class="cls-5" x="429.45" y="60.94" width="147.4" height="147.4"/><rect class="cls-5" x="60.94" y="982.21" width="147.4" height="147.4"/><rect class="cls-5" x="982.21" y="982.21" width="147.4" height="147.4"/><rect class="cls-5" x="245.19" y="982.21" width="147.4" height="147.4"/><rect class="cls-5" x="797.96" y="982.21" width="147.4" height="147.4"/><rect class="cls-5" x="613.7" y="982.21" width="147.4" height="147.4"/><rect class="cls-5" x="429.45" y="982.21" width="147.4" height="147.4"/><rect class="cls-5" x="60.94" y="245.19" width="147.4" height="147.4"/><rect class="cls-5" x="982.21" y="245.19" width="147.4" height="147.4"/><rect class="cls-5" x="245.19" y="245.19" width="147.4" height="147.4"/><rect class="cls-5" x="797.96" y="245.19" width="147.4" height="147.4"/><rect class="cls-5" x="613.7" y="245.19" width="147.4" height="147.4"/><rect class="cls-5" x="429.45" y="245.19" width="147.4" height="147.4"/><rect class="cls-5" x="60.94" y="797.96" width="147.4" height="147.4"/><rect class="cls-5" x="982.21" y="797.96" width="147.4" height="147.4"/><rect class="cls-5" x="245.19" y="797.96" width="147.4" height="147.4"/><rect class="cls-5" x="797.96" y="797.96" width="147.4" height="147.4"/><rect class="cls-5" x="613.7" y="797.96" width="147.4" height="147.4"/><rect class="cls-5" x="429.45" y="797.96" width="147.4" height="147.4"/><rect class="cls-5" x="60.94" y="429.45" width="147.4" height="147.4"/><rect class="cls-5" x="982.21" y="429.45" width="147.4" height="147.4"/><rect class="cls-5" x="245.19" y="429.45" width="147.4" height="147.4"/><rect class="cls-5" x="797.96" y="429.45" width="147.4" height="147.4"/><rect class="cls-5" x="613.7" y="429.45" width="147.4" height="147.4"/><rect class="cls-5" x="429.45" y="429.45" width="147.4" height="147.4"/><rect class="cls-5" x="60.94" y="613.7" width="147.4" height="147.4"/><rect class="cls-5" x="982.21" y="613.7" width="147.4" height="147.4"/><rect class="cls-5" x="245.19" y="613.7" width="147.4" height="147.4"/><rect class="cls-5" x="797.96" y="613.7" width="147.4" height="147.4"/><rect class="cls-5" x="613.7" y="613.7" width="147.4" height="147.4"/><rect class="cls-5" x="429.45" y="613.7" width="147.4" height="147.4"/></g><g id="Livello_12" data-name="Livello 12"><image class="cls-7" width="811" height="810" transform="translate(545.21 547.94) scale(0.72)" xlink:href="../POLI DOCU/PRIMO SEM/ILLUSTRATOR/SVG/892804.jpg"/></g></svg>