<?xml version="1.0" encoding="utf-8"?>
<!-- Generator: Adobe Illustrator 22.1.0, SVG Export Plug-In . SVG Version: 6.00 Build 0)  -->
<svg version="1.1" id="Livello_1" xmlns="http://www.w3.org/2000/svg" xmlns:xlink="http://www.w3.org/1999/xlink" x="0px" y="0px"
	 viewBox="0 0 1190.6 1190.6" style="enable-background:new 0 0 1190.6 1190.6;" xml:space="preserve">
<style type="text/css">
	.st0{fill:#EACAF9;}
	.st1{fill:none;stroke:#205600;stroke-width:2;stroke-miterlimit:10;}
	.st2{fill:none;stroke:#42C0ED;stroke-width:2;stroke-miterlimit:10;}
	.st3{clip-path:url(#SVGID_2_);}
	.st4{fill:none;stroke:#FF2C2C;stroke-width:2;stroke-miterlimit:10;}
</style>
<title>892804-4</title>
<g id="Livello_2_1_">
	<g id="Sfondo">
		<rect y="0" class="st0" width="1190.6" height="1190.6"/>
	</g>
	<g id="Livello_2-2">
		<rect id="_Tracciato_" x="60.4" y="61.9" class="st1" width="239.5" height="239.5"/>
		<rect id="_Tracciato_2" x="60.4" y="889.1" class="st1" width="239.5" height="239.5"/>
		<rect id="_Tracciato_3" x="60.4" y="613.4" class="st1" width="239.5" height="239.5"/>
		<rect id="_Tracciato_4" x="60.4" y="337.6" class="st1" width="239.5" height="239.5"/>
		<rect id="_Tracciato_5" x="889.3" y="61.9" class="st1" width="239.5" height="239.5"/>
		<rect id="_Tracciato_6" x="889.3" y="889.1" class="st1" width="239.5" height="239.5"/>
		<rect id="_Tracciato_7" x="889.3" y="613.4" class="st1" width="239.5" height="239.5"/>
		<rect id="_Tracciato_8" x="889.3" y="337.6" class="st1" width="239.5" height="239.5"/>
		<rect id="_Tracciato_9" x="336.7" y="61.9" class="st1" width="239.5" height="239.5"/>
		<rect id="_Tracciato_10" x="336.7" y="889.1" class="st1" width="239.5" height="239.5"/>
		<rect id="_Tracciato_11" x="336.7" y="613.4" class="st1" width="239.5" height="239.5"/>
		<rect id="_Tracciato_12" x="336.7" y="337.6" class="st1" width="239.5" height="239.5"/>
		<rect id="_Tracciato_13" x="613" y="61.9" class="st1" width="239.5" height="239.5"/>
		<rect id="_Tracciato_14" x="613" y="889.1" class="st1" width="239.5" height="239.5"/>
		<rect id="_Tracciato_15" x="613" y="613.4" class="st1" width="239.5" height="239.5"/>
		<rect id="_Tracciato_16" x="613" y="337.6" class="st1" width="239.5" height="239.5"/>
	</g>
	<g id="Livello_3">
		<rect id="_Tracciato_17" x="60.4" y="61.9" class="st2" width="184.3" height="184.3"/>
		<rect id="_Tracciato_18" x="944.6" y="61.9" class="st2" width="184.3" height="184.3"/>
		<rect id="_Tracciato_19" x="723.6" y="61.9" class="st2" width="184.3" height="184.3"/>
		<rect id="_Tracciato_20" x="502.5" y="61.9" class="st2" width="184.3" height="184.3"/>
		<rect id="_Tracciato_21" x="281.5" y="61.9" class="st2" width="184.3" height="184.3"/>
		<rect id="_Tracciato_22" x="60.4" y="503.1" class="st2" width="184.3" height="184.3"/>
		<rect id="_Tracciato_23" x="944.6" y="503.1" class="st2" width="184.3" height="184.3"/>
		<rect id="_Tracciato_24" x="723.6" y="503.1" class="st2" width="184.3" height="184.3"/>
		<rect id="_Tracciato_25" x="502.5" y="503.1" class="st2" width="184.3" height="184.3"/>
		<rect id="_Tracciato_26" x="281.5" y="503.1" class="st2" width="184.3" height="184.3"/>
		<rect id="_Tracciato_27" x="60.4" y="724.6" class="st2" width="184.3" height="184.3"/>
		<rect id="_Tracciato_28" x="944.6" y="724.6" class="st2" width="184.3" height="184.3"/>
		<rect id="_Tracciato_29" x="723.6" y="724.6" class="st2" width="184.3" height="184.3"/>
		<rect id="_Tracciato_30" x="502.5" y="724.6" class="st2" width="184.3" height="184.3"/>
		<rect id="_Tracciato_31" x="281.5" y="724.6" class="st2" width="184.3" height="184.3"/>
		<rect id="_Tracciato_32" x="60.4" y="944.4" class="st2" width="184.3" height="184.3"/>
		<rect id="_Tracciato_33" x="944.6" y="944.4" class="st2" width="184.3" height="184.3"/>
		<rect id="_Tracciato_34" x="723.6" y="944.4" class="st2" width="184.3" height="184.3"/>
		<rect id="_Tracciato_35" x="502.5" y="944.4" class="st2" width="184.3" height="184.3"/>
		<rect id="_Tracciato_36" x="281.5" y="944.4" class="st2" width="184.3" height="184.3"/>
		<rect id="_Tracciato_37" x="60.4" y="283.3" class="st2" width="184.3" height="184.3"/>
		<rect id="_Tracciato_38" x="944.6" y="283.3" class="st2" width="184.3" height="184.3"/>
		<rect id="_Tracciato_39" x="723.6" y="283.3" class="st2" width="184.3" height="184.3"/>
		<rect id="_Tracciato_40" x="502.5" y="283.3" class="st2" width="184.3" height="184.3"/>
		<rect id="_Tracciato_41" x="281.5" y="283.3" class="st2" width="184.3" height="184.3"/>
	</g>
	<g id="Livello_4">
		<g id="_Gruppo_">
			<g>
				<defs>
					<rect id="SVGID_1_" x="60.4" y="61.9" width="147.4" height="147.4"/>
				</defs>
				<clipPath id="SVGID_2_">
					<use xlink:href="#SVGID_1_"  style="overflow:visible;"/>
				</clipPath>
				<g class="st3">
					
						<image style="overflow:visible;enable-background:new    ;" width="1506" height="1650" xlink:href="569C1C54.jpeg"  transform="matrix(0.24 0 0 0.24 -0.57 -26.2499)">
					</image>
				</g>
			</g>
			<rect id="_Tracciato_42" x="797.3" y="61.9" class="st4" width="147.4" height="147.4"/>
			<rect id="_Tracciato_43" x="613.1" y="61.9" class="st4" width="147.4" height="147.4"/>
			<rect id="_Tracciato_44" x="428.9" y="61.9" class="st4" width="147.4" height="147.4"/>
			<rect id="_Tracciato_45" x="244.7" y="61.9" class="st4" width="147.4" height="147.4"/>
			<rect id="_Tracciato_46" x="981.5" y="61.9" class="st4" width="147.4" height="147.4"/>
		</g>
		<g id="_Gruppo_2">
			<rect id="_Tracciato_47" x="60.4" y="246" class="st4" width="147.4" height="147.4"/>
			<rect id="_Tracciato_48" x="797.3" y="246" class="st4" width="147.4" height="147.4"/>
			<rect id="_Tracciato_49" x="613.1" y="246" class="st4" width="147.4" height="147.4"/>
			<rect id="_Tracciato_50" x="428.9" y="246" class="st4" width="147.4" height="147.4"/>
			<rect id="_Tracciato_51" x="244.7" y="246" class="st4" width="147.4" height="147.4"/>
			<rect id="_Tracciato_52" x="981.5" y="246" class="st4" width="147.4" height="147.4"/>
		</g>
		<g id="_Gruppo_3">
			<rect id="_Tracciato_53" x="60.4" y="430.2" class="st4" width="147.4" height="147.4"/>
			<rect id="_Tracciato_54" x="797.3" y="430.2" class="st4" width="147.4" height="147.4"/>
			<rect id="_Tracciato_55" x="613.1" y="430.2" class="st4" width="147.4" height="147.4"/>
			<rect id="_Tracciato_56" x="428.9" y="430.2" class="st4" width="147.4" height="147.4"/>
			<rect id="_Tracciato_57" x="244.7" y="430.2" class="st4" width="147.4" height="147.4"/>
			<rect id="_Tracciato_58" x="981.5" y="430.2" class="st4" width="147.4" height="147.4"/>
		</g>
		<g id="_Gruppo_4">
			<rect id="_Tracciato_59" x="60.4" y="614.3" class="st4" width="147.4" height="147.4"/>
			<rect id="_Tracciato_60" x="797.3" y="614.3" class="st4" width="147.4" height="147.4"/>
			<rect id="_Tracciato_61" x="613.1" y="614.3" class="st4" width="147.4" height="147.4"/>
			<rect id="_Tracciato_62" x="428.9" y="614.3" class="st4" width="147.4" height="147.4"/>
			<rect id="_Tracciato_63" x="244.7" y="614.3" class="st4" width="147.4" height="147.4"/>
			<rect id="_Tracciato_64" x="981.5" y="614.3" class="st4" width="147.4" height="147.4"/>
		</g>
		<g id="_Gruppo_5">
			<rect id="_Tracciato_65" x="60.4" y="798.4" class="st4" width="147.4" height="147.4"/>
			<rect id="_Tracciato_66" x="797.3" y="798.4" class="st4" width="147.4" height="147.4"/>
			<rect id="_Tracciato_67" x="613.1" y="798.4" class="st4" width="147.4" height="147.4"/>
			<rect id="_Tracciato_68" x="428.9" y="798.4" class="st4" width="147.4" height="147.4"/>
			<rect id="_Tracciato_69" x="244.7" y="798.4" class="st4" width="147.4" height="147.4"/>
			<rect id="_Tracciato_70" x="981.5" y="798.4" class="st4" width="147.4" height="147.4"/>
		</g>
		<g id="_Gruppo_6">
			<rect id="_Tracciato_71" x="60.4" y="982.5" class="st4" width="147.4" height="147.4"/>
			<rect id="_Tracciato_72" x="797.3" y="982.5" class="st4" width="147.4" height="147.4"/>
			<rect id="_Tracciato_73" x="613.1" y="982.5" class="st4" width="147.4" height="147.4"/>
			<rect id="_Tracciato_74" x="428.9" y="982.5" class="st4" width="147.4" height="147.4"/>
			<rect id="_Tracciato_75" x="244.7" y="982.5" class="st4" width="147.4" height="147.4"/>
			<rect id="_Tracciato_76" x="981.5" y="982.5" class="st4" width="147.4" height="147.4"/>
		</g>
	</g>
</g>
<image style="overflow:visible;" width="1478" height="1650" xlink:href="2.jpg"  transform="matrix(0.24 0 0 0.24 780.7502 731.7638)">
</image>
</svg>
