<svg id="Livello_1" data-name="Livello 1" xmlns="http://www.w3.org/2000/svg" xmlns:xlink="http://www.w3.org/1999/xlink" viewBox="0 0 1190.6 1190.6"><defs><style>.cls-1,.cls-3,.cls-4,.cls-5{fill:none;}.cls-2{fill:#406566;}.cls-3{stroke:#702467;}.cls-3,.cls-4,.cls-5{stroke-miterlimit:10;}.cls-4{stroke:#c1c11e;}.cls-5{stroke:#0ae2d7;}.cls-6{clip-path:url(#clip-path);}.cls-10,.cls-11,.cls-12,.cls-13,.cls-14,.cls-7,.cls-9{isolation:isolate;}.cls-8{clip-path:url(#clip-path-2);}.cls-9{font-size:60px;font-family:OpenSansCondensed-Bold, Open Sans Condensed;font-weight:700;}.cls-10,.cls-11,.cls-12,.cls-13{font-size:10px;font-family:EBGaramond-Italic, EB Garamond;font-style:italic;}.cls-11{letter-spacing:-0.02em;}.cls-12{letter-spacing:-0.03em;}.cls-13{letter-spacing:-0.03em;}.cls-14{font-size:16px;font-family:OpenSans-Light, Open Sans;}</style><clipPath id="clip-path"><rect class="cls-1" x="724.3" y="503.1" width="184.3" height="184.3"/></clipPath><clipPath id="clip-path-2"><ellipse class="cls-1" cx="365" cy="337.3" rx="272" ry="252"/></clipPath></defs><title>892896_06</title><g id="Sfondo"><rect class="cls-2" width="1190.6" height="1190.6"/></g><g id="Griglia_viola" data-name="Griglia viola"><rect class="cls-3" x="60.9" y="60.9" width="147.4" height="147.4"/><rect class="cls-3" x="982.2" y="60.9" width="147.4" height="147.4"/><rect class="cls-3" x="245.2" y="60.9" width="147.4" height="147.4"/><rect class="cls-3" x="798" y="60.9" width="147.4" height="147.4"/><rect class="cls-3" x="613.7" y="60.9" width="147.4" height="147.4"/><rect class="cls-3" x="429.5" y="60.9" width="147.4" height="147.4"/><rect class="cls-3" x="60.9" y="982.2" width="147.4" height="147.4"/><rect class="cls-3" x="982.2" y="982.2" width="147.4" height="147.4"/><rect class="cls-3" x="245.2" y="982.2" width="147.4" height="147.4"/><rect class="cls-3" x="798" y="982.2" width="147.4" height="147.4"/><rect class="cls-3" x="613.7" y="982.2" width="147.4" height="147.4"/><rect class="cls-3" x="429.5" y="982.2" width="147.4" height="147.4"/><rect class="cls-3" x="60.9" y="245.2" width="147.4" height="147.4"/><rect class="cls-3" x="982.2" y="245.2" width="147.4" height="147.4"/><rect class="cls-3" x="245.2" y="245.2" width="147.4" height="147.4"/><rect class="cls-3" x="798" y="245.2" width="147.4" height="147.4"/><rect class="cls-3" x="613.7" y="245.2" width="147.4" height="147.4"/><rect class="cls-3" x="429.5" y="245.2" width="147.4" height="147.4"/><rect class="cls-3" x="60.9" y="798" width="147.4" height="147.4"/><rect class="cls-3" x="982.2" y="798" width="147.4" height="147.4"/><rect class="cls-3" x="245.2" y="798" width="147.4" height="147.4"/><rect class="cls-3" x="798" y="798" width="147.4" height="147.4"/><rect class="cls-3" x="613.7" y="798" width="147.4" height="147.4"/><rect class="cls-3" x="429.5" y="798" width="147.4" height="147.4"/><rect class="cls-3" x="60.9" y="429.5" width="147.4" height="147.4"/><rect class="cls-3" x="982.2" y="429.5" width="147.4" height="147.4"/><rect class="cls-3" x="245.2" y="429.5" width="147.4" height="147.4"/><rect class="cls-3" x="798" y="429.5" width="147.4" height="147.4"/><rect class="cls-3" x="613.7" y="429.5" width="147.4" height="147.4"/><rect class="cls-3" x="429.5" y="429.5" width="147.4" height="147.4"/><rect class="cls-3" x="60.9" y="613.7" width="147.4" height="147.4"/><rect class="cls-3" x="982.2" y="613.7" width="147.4" height="147.4"/><rect class="cls-3" x="245.2" y="613.7" width="147.4" height="147.4"/><rect class="cls-3" x="798" y="613.7" width="147.4" height="147.4"/><rect class="cls-3" x="613.7" y="613.7" width="147.4" height="147.4"/><rect class="cls-3" x="429.5" y="613.7" width="147.4" height="147.4"/></g><g id="Griglia_gialla" data-name="Griglia gialla"><rect class="cls-4" x="60.9" y="337.3" width="239.5" height="239.5"/><rect class="cls-4" x="60.9" y="60.9" width="239.5" height="239.5"/><rect class="cls-4" x="337.3" y="60.9" width="239.5" height="239.5"/><rect class="cls-4" x="613.7" y="60.9" width="239.5" height="239.5"/><rect class="cls-4" x="890.1" y="60.9" width="239.5" height="239.5"/><rect class="cls-4" x="337.3" y="337.3" width="239.5" height="239.5"/><rect class="cls-4" x="613.7" y="337.3" width="239.5" height="239.5"/><rect class="cls-4" x="890.1" y="337.3" width="239.5" height="239.5"/><rect class="cls-4" x="60.9" y="613.7" width="239.5" height="239.5"/><rect class="cls-4" x="337.3" y="613.7" width="239.5" height="239.5"/><rect class="cls-4" x="613.7" y="613.7" width="239.5" height="239.5"/><rect class="cls-4" x="890.1" y="613.7" width="239.5" height="239.5"/><rect class="cls-4" x="60.9" y="890.1" width="239.5" height="239.5"/><rect class="cls-4" x="337.3" y="890.1" width="239.5" height="239.5"/><rect class="cls-4" x="613.7" y="890.1" width="239.5" height="239.5"/><rect class="cls-4" x="890.1" y="890.1" width="239.5" height="239.5"/></g><g id="Griglia_azzurra" data-name="Griglia azzurra"><rect class="cls-5" x="60.9" y="60.9" width="184.3" height="184.3"/><rect class="cls-5" x="945.4" y="60.9" width="184.3" height="184.3"/><rect class="cls-5" x="503.1" y="60.9" width="184.3" height="184.3"/><rect class="cls-5" x="724.3" y="60.9" width="184.3" height="184.3"/><rect class="cls-5" x="282" y="60.9" width="184.3" height="184.3"/><rect class="cls-5" x="60.9" y="945.4" width="184.3" height="184.3"/><rect class="cls-5" x="945.4" y="945.4" width="184.3" height="184.3"/><rect class="cls-5" x="503.1" y="945.4" width="184.3" height="184.3"/><rect class="cls-5" x="724.3" y="945.4" width="184.3" height="184.3"/><rect class="cls-5" x="282" y="945.4" width="184.3" height="184.3"/><rect class="cls-5" x="60.9" y="503.1" width="184.3" height="184.3"/><rect class="cls-5" x="945.4" y="503.1" width="184.3" height="184.3"/><rect class="cls-5" x="503.1" y="503.1" width="184.3" height="184.3"/><g class="cls-6"><image class="cls-7" width="1280" height="960" transform="translate(455.4 392.11) scale(0.47)" xlink:href="../../Nuova cartella (2)/892896_03.jpg"/></g><rect class="cls-5" x="282" y="503.1" width="184.3" height="184.3"/><rect class="cls-5" x="60.9" y="724.3" width="184.3" height="184.3"/><rect class="cls-5" x="945.4" y="724.3" width="184.3" height="184.3"/><rect class="cls-5" x="503.1" y="724.3" width="184.3" height="184.3"/><rect class="cls-5" x="724.3" y="724.3" width="184.3" height="184.3"/><rect class="cls-5" x="282" y="724.3" width="184.3" height="184.3"/><rect class="cls-5" x="60.9" y="282" width="184.3" height="184.3"/><rect class="cls-5" x="945.4" y="282" width="184.3" height="184.3"/><rect class="cls-5" x="503.1" y="282" width="184.3" height="184.3"/><rect class="cls-5" x="724.3" y="282" width="184.3" height="184.3"/><rect class="cls-5" x="282" y="282" width="184.3" height="184.3"/></g><g class="cls-8"><image class="cls-7" width="1000" height="750" transform="translate(-155.1 -16.69)" xlink:href="../../Nuova cartella (2)/892896_05.jpg"/></g><text class="cls-9" transform="translate(677 134.6) scale(0.96 1)">Strumenti e metodi</text><g class="cls-7"><text class="cls-10" transform="translate(659 406.89)">Spiaggia di M</text><text class="cls-11" transform="translate(714.07 406.89)">a</text><text class="cls-10" transform="translate(718.78 406.89)">l</text><text class="cls-12" transform="translate(721.64 406.89)">i</text><text class="cls-10" transform="translate(724.33 406.89)">bù, Los </text><text class="cls-11" transform="translate(752.45 406.89)">A</text><text class="cls-10" transform="translate(758.83 406.89)">ng</text><text class="cls-13" transform="translate(768.25 406.89)">e</text><text class="cls-10" transform="translate(771.41 406.89)">les, C</text><text class="cls-11" transform="translate(790.9 406.89)">a</text><text class="cls-10" transform="translate(795.61 406.89)">lifornia</text></g><circle class="cls-1" cx="739.2" cy="937" r="143.9"/><polyline class="cls-1" points="310 1125.9 60 1125.9 60 619.9"/><g class="cls-7"><text class="cls-14" transform="translate(60.9 738.36)">Lorem ipsum dolor sit </text><text class="cls-14" transform="translate(60.9 762.36)">amet, consectetuer adipi</text><text class="cls-14" transform="translate(238.35 762.36)">-</text><text class="cls-14" transform="translate(60.9 786.36)">scing elit, sed diam no</text><text class="cls-14" transform="translate(219.13 786.36)">-</text><text class="cls-14" transform="translate(60.9 810.36)">nummy nibh euismod </text><text class="cls-14" transform="translate(60.9 834.36)">tincidunt ut laoreet </text><text class="cls-14" transform="translate(60.9 858.36)">dolore magna aliquam </text><text class="cls-14" transform="translate(60.9 882.36)">erat volutpat. Ut wisi </text><text class="cls-14" transform="translate(60.9 906.36)">enim ad minim veniam, </text><text class="cls-14" transform="translate(60.9 930.36)">quis nostrud exerci tation </text><text class="cls-14" transform="translate(60.9 954.36)">ullamcorper suscipit </text><text class="cls-14" transform="translate(60.9 978.36)">lobortis nisl ut aliquip ex </text><text class="cls-14" transform="translate(60.9 1002.36)">ea commodo consequat. </text><text class="cls-14" transform="translate(60.9 1026.36)">Duis autem vel eum </text><text class="cls-14" transform="translate(60.9 1050.36)">iriure dolor in hendrerit </text><text class="cls-14" transform="translate(60.9 1074.36)">in vulputate velit esse </text><text class="cls-14" transform="translate(60.9 1098.36)">molestie consequat, vel </text><text class="cls-14" transform="translate(60.9 1122.36)">illum dolore eu feugiat</text></g></svg>