<?xml version="1.0" encoding="utf-8"?>
<!-- Generator: Adobe Illustrator 22.1.0, SVG Export Plug-In . SVG Version: 6.00 Build 0)  -->
<svg version="1.1" id="Livello_1" xmlns="http://www.w3.org/2000/svg" xmlns:xlink="http://www.w3.org/1999/xlink" x="0px" y="0px"
	 viewBox="0 0 1190.6 1190.6" style="enable-background:new 0 0 1190.6 1190.6;" xml:space="preserve">
<style type="text/css">
	.st0{fill:none;}
	.st1{fill:#F29929;}
	.st2{fill:#D8B964;}
	.st3{fill:#F37F20;}
	.st4{fill:#EEB555;}
	.st5{fill:#F1983D;}
	.st6{fill:#CE901E;}
	.st7{fill:#F6A654;}
	.st8{fill:#F5B210;}
	.st9{fill:#CB730F;}
	.st10{fill:#E69F25;}
	.st11{fill:#EBC26C;}
	.st12{fill:#E59F3F;}
	.st13{fill:#E59219;}
	.st14{fill:#F5E59E;}
	.st15{fill:#F1CE6F;}
	.st16{fill:#F4DA77;}
	.st17{opacity:0.8;fill:#5D8DCA;enable-background:new    ;}
	.st18{fill:none;stroke:#EF781A;stroke-miterlimit:10;}
	.st19{fill:none;stroke:#E5231E;stroke-miterlimit:10;}
	.st20{fill:none;stroke:#E7E000;stroke-miterlimit:10;}
	.st21{clip-path:url(#SVGID_2_);}
	.st22{clip-path:url(#SVGID_4_);}
	.st23{font-family:'OpenSans-CondensedBold';}
	.st24{font-size:60px;}
	.st25{font-family:'OpenSans-Light';}
	.st26{font-size:16px;}
	.st27{font-family:'AGaramondPro-Regular';}
	.st28{font-size:10px;}
	.st29{fill:#FFFFFF;}
	.st30{fill:none;stroke:#000000;stroke-width:0.15;stroke-linecap:round;stroke-linejoin:round;}
	.st31{clip-path:url(#SVGID_6_);}
	.st32{clip-path:url(#SVGID_8_);}
	.st33{fill:url(#SVGID_9_);}
	.st34{fill:url(#SVGID_10_);}
	.st35{fill:url(#SVGID_11_);}
	.st36{fill:url(#SVGID_12_);}
	.st37{fill:url(#SVGID_13_);}
	.st38{fill:url(#SVGID_14_);}
	.st39{fill:url(#SVGID_15_);}
	.st40{fill:url(#SVGID_16_);}
	.st41{fill:url(#SVGID_17_);}
	.st42{fill:url(#SVGID_18_);}
	.st43{fill:url(#SVGID_19_);}
	.st44{fill:url(#SVGID_20_);}
	.st45{fill:#B8BABB;}
	.st46{fill:#5C5D5E;}
	.st47{fill:#553221;}
	.st48{fill:none;stroke:#000000;stroke-width:0.27;stroke-linecap:round;stroke-linejoin:round;}
	.st49{fill:none;stroke:#000000;stroke-width:0.72;stroke-linecap:round;stroke-linejoin:round;}
	.st50{fill:none;stroke:#000000;stroke-width:0.99;stroke-linecap:round;stroke-linejoin:round;}
	.st51{font-family:'ArialMT';}
	.st52{font-size:39.5875px;}
	.st53{fill:none;stroke:#000000;stroke-width:0.51;stroke-linecap:round;stroke-linejoin:round;}
	.st54{font-size:7.13px;}
	.st55{font-size:6.56px;}
</style>
<pattern  y="1190.6" width="78.3" height="78.3" patternUnits="userSpaceOnUse" id="Unnamed_Pattern_7" viewBox="13 -91.4 78.3 78.3" style="overflow:visible;">
	<g>
		<rect x="13" y="-91.4" class="st0" width="78.3" height="78.3"/>
		<rect x="13" y="-91.4" class="st0" width="78.3" height="78.3"/>
		<path class="st1" d="M26-26.1"/>
		<path class="st2" d="M26-39.2c0,7.2,5.8,13,13,13c0,0,0,0,0.1,0c-7.2,0-13,5.8-13,13c0-7.2-5.9-13-13-13c0,0,0,0-0.1,0
			c7.2,0,13-5.8,13-12.9C26.1-39.1,26.1-39.1,26-39.2z"/>
		<path class="st2" d="M13-13.1"/>
		<path class="st3" d="M13-26.1c0,7.2,5.8,13,12.9,13.1c0,0,0.1,0,0.1,0c-7.2,0-13,5.8-13,12.9c0,0,0,0,0,0.1c0-7.2-5.8-13-13-13
			C7.2-13,13-18.9,13-26.1C13-26.1,13-26.1,13-26.1z"/>
		<path class="st1" d="M52.2-26.1"/>
		<path class="st4" d="M52.2-39.2c0,7.2,5.8,13,13,13c0,0,0,0,0.1,0c-7.2,0-13,5.8-13.1,12.9c0,0.1,0,0.1,0,0.2
			c0-7.2-5.8-13-12.9-13c0,0,0,0-0.1,0C46.3-26.1,52.2-31.9,52.2-39.2C52.2-39.1,52.2-39.1,52.2-39.2z"/>
		<path class="st1" d="M39.1-13.1"/>
		<circle class="st5" cx="39.1" cy="-13.1" r="13.1"/>
		<path class="st1" d="M78.2-26.1"/>
		<path class="st6" d="M78.2-39.2c0,7.2,5.8,13,13,13c-7.2,0-13,5.8-13,13c0-7.2-5.8-13-12.9-13c0,0,0,0-0.1,0
			C72.4-26.2,78.2-32,78.2-39.2z"/>
		<path class="st1" d="M65.2-13.1"/>
		<path class="st5" d="M65.2-26.1c0,7.2,5.8,13,13,13c-7.2,0-13,5.8-13,13c0-7.2-5.9-13-13-13c0,0,0,0,0,0c7.2,0,13-5.8,13-12.9
			C65.2-26,65.2-26.1,65.2-26.1z"/>
		<path class="st1" d="M91.3-13.1"/>
		<circle class="st3" cx="91.3" cy="-13.1" r="13.1"/>
		<path class="st1" d="M26-52.2"/>
		<path class="st1" d="M26-65.2c0,7.2,5.8,13,12.9,13c0,0,0.1,0,0.1,0c-7.2,0-13,5.8-13,13c0-7.2-5.8-13-13-13
			C20.3-52.2,26.1-58.1,26-65.2C26.1-65.2,26-65.2,26-65.2z"/>
		<path class="st1" d="M13-39.2"/>
		<path class="st5" d="M13-52.2c0,7.2,5.8,13,13,13c0,0,0,0,0.1,0c-7.2,0-13,5.8-13,13c0-7.2-5.9-13-13-13c0,0,0,0,0,0
			C7.2-39.1,13-45,13-52.2C13-52.2,13-52.2,13-52.2z"/>
		<path class="st1" d="M52.2-52.2"/>
		<path class="st7" d="M52.2-65.2c0,7.2,5.8,13,12.9,13c0,0,0.1,0,0.1,0c-7.2,0-13,5.8-13,12.9c0,0,0,0,0,0.1c0-7.2-5.8-13-13-13
			C46.3-52.2,52.2-58,52.2-65.2C52.2-65.2,52.2-65.2,52.2-65.2z"/>
		<path class="st1" d="M39.1-39.2"/>
		<path class="st8" d="M39.1-52.2c0,7.2,5.8,13,13,13c-7.2,0-13,5.8-13,13c0-7.2-5.8-13-12.9-13c0,0,0,0-0.1,0
			C33.3-39.2,39.1-45,39.1-52.2z"/>
		<path class="st1" d="M78.2-52.2"/>
		<path class="st9" d="M78.2-65.2c0,7.2,5.8,13,12.9,13c0,0,0,0,0.1,0c-7.2,0-13,5.8-13,13c0-7.2-5.8-13-13-13
			C72.4-52.2,78.3-58,78.2-65.2C78.3-65.2,78.3-65.2,78.2-65.2z"/>
		<path class="st1" d="M65.2-39.2"/>
		<path class="st10" d="M65.2-52.2c0,7.2,5.8,13,13,13c-7.2,0-13,5.8-13,13c0-7.2-5.9-13-13-13c0,0,0,0,0,0c7.2,0,13-5.8,13-12.9
			C65.2-52.1,65.2-52.2,65.2-52.2z"/>
		<path class="st1" d="M91.3-39.2"/>
		<path class="st5" d="M91.3-52.2c0,7.2,5.8,13,13,13c-7.2,0-13,5.8-13,13c0-7.2-5.8-13-12.9-13c0,0,0,0-0.1,0
			C85.5-39.2,91.3-45,91.3-52.2z"/>
		<path class="st1" d="M26-78.3"/>
		<path class="st10" d="M26-91.4c0,7.2,5.8,13,13,13c0,0,0,0,0.1,0c-7.2,0-13,5.8-13,13c0-7.2-5.8-13-13-13
			C20.3-78.4,26.1-84.2,26-91.4z"/>
		<path class="st1" d="M13-65.2"/>
		<path class="st5" d="M13-78.3c0,7.2,5.8,13,13,13c0,0,0,0,0.1,0c-7.2,0-13,5.8-13.1,12.9c0,0.1,0,0.1,0,0.2c0-7.2-5.8-13-12.9-13
			c0,0,0,0-0.1,0C7.2-65.2,13-71.1,13-78.3C13-78.3,13-78.3,13-78.3z"/>
		<path class="st1" d="M52.2-78.3"/>
		<path class="st11" d="M52.2-91.4c0,7.2,5.8,13,13,13c0,0,0,0,0.1,0c-7.2,0-13,5.8-13,12.9c0,0,0,0,0,0.1c0-7.2-5.8-13-13-13
			C46.3-78.4,52.2-84.2,52.2-91.4z"/>
		<path class="st1" d="M39.1-65.2"/>
		<path class="st6" d="M39.1-78.3c0,7.2,5.8,13,13,13c-7.2,0-13,5.8-13,13c0,0,0,0,0,0.1c0-7.2-5.8-13-12.9-13c0,0,0,0-0.1,0
			C33.3-65.3,39.1-71.1,39.1-78.3L39.1-78.3z"/>
		<path class="st1" d="M78.2-78.3"/>
		<path class="st12" d="M78.2-91.4c0,7.2,5.8,13,13,13c-7.2,0-13,5.8-13,13c0-7.2-5.8-13-13-13C72.4-78.4,78.2-84.2,78.2-91.4z"/>
		<path class="st1" d="M65.2-65.2"/>
		<path class="st13" d="M65.2-78.3c0,7.2,5.8,13,13,13c-7.2,0-13,5.8-13,13c0,0,0,0,0,0.1c0-7.2-5.8-13-13-13c0,0,0,0-0.1,0
			c7.2,0,13-5.8,13-12.9C65.2-78.2,65.2-78.3,65.2-78.3z"/>
		<path class="st1" d="M91.3-65.2"/>
		<path class="st5" d="M91.3-78.3c0,7.2,5.8,13,13,13c-7.2,0-13,5.8-13,13c0,0,0,0,0,0.1c0-7.2-5.8-13-12.9-13c0,0,0,0-0.1,0
			C85.5-65.3,91.3-71.1,91.3-78.3z"/>
		<path class="st0" d="M13-91.4"/>
		<path class="st3" d="M13-104.4c0,7.2,5.8,13,13,13c0,0,0,0,0.1,0c-7.2,0-13,5.8-13,13c0-7.2-5.8-13-13-13
			C7.2-91.4,13-97.2,13-104.4z"/>
		<path class="st1" d="M39.1-91.4"/>
		<path class="st5" d="M39.1-104.4c0,7.2,5.8,13,13,13c-7.2,0-13,5.8-13,13c0-7.2-5.8-13-13-13C33.3-91.4,39.1-97.2,39.1-104.4
			L39.1-104.4z"/>
		<path class="st1" d="M65.2-91.4"/>
		<path class="st5" d="M65.2-104.4c0,7.2,5.8,13,13,13c-7.2,0-13,5.8-13,13c0-7.2-5.8-13-13-13c0,0,0,0-0.1,0
			C59.3-91.4,65.2-97.2,65.2-104.4C65.2-104.4,65.2-104.4,65.2-104.4z"/>
		<path class="st1" d="M91.3-91.4"/>
		<path class="st3" d="M91.3-104.4c0,7.2,5.8,13,13,13c-7.2,0-13,5.8-13,13c0-7.2-5.8-13-13-13C85.5-91.4,91.3-97.2,91.3-104.4z"/>
		<path class="st14" d="M26-39.2c0,7.2,5.8,13,13,13c0,0,0,0,0.1,0C39.1-33.3,33.3-39.2,26-39.2C26.1-39.2,26.1-39.2,26-39.2z"/>
		<path class="st14" d="M13-26.1c7.2,0,13-5.8,13-12.9c0,0,0-0.1,0-0.1c-7.2,0-13,5.8-13,12.9C13-26.2,13-26.1,13-26.1z"/>
		<path class="st14" d="M39.1-26.1c-7.2,0-13,5.8-13,13C33.3-13.1,39.1-18.9,39.1-26.1z"/>
		<path class="st15" d="M13-26.1c7.2,0,13,5.8,13,12.9c0,0,0,0.1,0,0.1c-7.2,0-13-5.8-13-12.9C13-26,13-26.1,13-26.1z"/>
		<path class="st14" d="M52.2-39.2c0,7.2,5.8,13,13,13c0,0,0,0,0.1,0C65.2-33.3,59.4-39.2,52.2-39.2C52.2-39.2,52.2-39.2,52.2-39.2z
			"/>
		<path class="st16" d="M39.1-26.1c7.2,0,13-5.8,13-13c0,0,0,0,0-0.1C44.9-39.2,39.1-33.3,39.1-26.1C39.1-26.1,39.1-26.1,39.1-26.1z
			"/>
		<path class="st16" d="M65.2-26.1c-7.2,0-13,5.8-13,12.9c0,0,0,0.1,0,0.1c7.2,0,13-5.8,13-12.9C65.2-26,65.2-26.1,65.2-26.1z"/>
		<path class="st14" d="M39.1-26.1c7.2,0,13,5.8,13,13C44.9-13.1,39.1-18.9,39.1-26.1z"/>
		<path class="st14" d="M78.2-39.2c0,7.2,5.8,13,13,13C91.2-33.3,85.4-39.2,78.2-39.2z"/>
		<path class="st15" d="M65.2-26.1c7.2,0,13-5.8,13-13c0,0,0,0,0-0.1C71-39.2,65.2-33.3,65.2-26.1C65.2-26.1,65.2-26.1,65.2-26.1z"
			/>
		<path class="st15" d="M91.3-26.1c-7.2,0-13,5.8-13,13C85.5-13.1,91.3-18.9,91.3-26.1z"/>
		<path class="st14" d="M65.2-26.1c7.2,0,13,5.8,13,13C71-13.1,65.2-18.9,65.2-26.1z"/>
		<path class="st14" d="M26-65.2c0,7.2,5.8,13,12.9,13c0,0,0.1,0,0.1,0c0-7.2-5.8-13-12.9-13C26.1-65.3,26.1-65.3,26-65.2z"/>
		<path class="st16" d="M13-52.2c7.2,0,13-5.8,13-12.9c0,0,0-0.1,0-0.1c-7.2,0-13,5.8-13,12.9C13-52.3,13-52.2,13-52.2z"/>
		<path class="st16" d="M39.1-52.2c-7.2,0-13,5.8-13,13C33.3-39.2,39.1-45,39.1-52.2z"/>
		<path class="st14" d="M13-52.2c7.2,0,13,5.8,13,12.9c0,0,0,0,0,0.1C18.9-39.2,13-45,13-52.2C13-52.2,13-52.2,13-52.2z"/>
		<path class="st15" d="M52.2-65.2c0,7.2,5.8,13,12.9,13c0,0,0.1,0,0.1,0c0-7.2-5.8-13-12.9-13C52.2-65.3,52.2-65.3,52.2-65.2z"/>
		<path class="st14" d="M39.1-52.2c7.2,0,13-5.8,13-13c0,0,0,0,0-0.1C44.9-65.3,39.1-59.4,39.1-52.2C39.1-52.2,39.1-52.2,39.1-52.2z
			"/>
		<path class="st14" d="M65.2-52.2c-7.2,0-13,5.8-13,12.9c0,0,0,0,0,0.1C59.3-39.2,65.2-45,65.2-52.2C65.2-52.2,65.2-52.2,65.2-52.2
			z"/>
		<path class="st15" d="M39.1-52.2c7.2,0,13,5.8,13,13C44.9-39.2,39.1-45,39.1-52.2z"/>
		<path class="st14" d="M78.2-65.2c0,7.2,5.8,13,12.9,13c0,0,0,0,0.1,0C91.3-59.4,85.5-65.2,78.2-65.2
			C78.3-65.2,78.3-65.2,78.2-65.2z"/>
		<path class="st16" d="M65.2-52.2c7.2,0,13-5.8,13-13c0,0,0,0,0-0.1C71-65.3,65.2-59.4,65.2-52.2C65.2-52.2,65.2-52.2,65.2-52.2z"
			/>
		<path class="st16" d="M91.3-52.2c-7.2,0-13,5.8-13,13C85.5-39.2,91.3-45,91.3-52.2z"/>
		<path class="st14" d="M65.2-52.2c7.2,0,13,5.8,13,13C71-39.2,65.2-45,65.2-52.2z"/>
		<path class="st14" d="M26-91.4c0,7.2,5.8,13,13,13c0,0,0,0,0.1,0C39.1-85.5,33.3-91.4,26-91.4C26.1-91.4,26.1-91.4,26-91.4z"/>
		<path class="st15" d="M13-78.3c7.2,0,13-5.8,13-12.9c0,0,0,0,0-0.1C18.9-91.3,13-85.5,13-78.3C13-78.3,13-78.3,13-78.3z"/>
		<path class="st15" d="M39.1-78.3c-7.2,0-13,5.8-13,13C33.3-65.3,39.1-71.1,39.1-78.3z"/>
		<path class="st14" d="M13-78.3c7.2,0,13,5.8,13,12.9c0,0,0,0,0,0.1C18.9-65.3,13-71.1,13-78.3C13-78.3,13-78.3,13-78.3z"/>
		<path class="st14" d="M52.2-91.4c0,7.2,5.8,13,13,13c0,0,0,0,0.1,0C65.2-85.5,59.4-91.4,52.2-91.4C52.2-91.4,52.2-91.4,52.2-91.4z
			"/>
		<path class="st16" d="M39.1-78.3c7.2,0,13-5.8,13-13C44.9-91.3,39.1-85.5,39.1-78.3z"/>
		<path class="st16" d="M65.2-78.3c-7.2,0-13,5.8-13,12.9c0,0,0,0,0,0.1C59.3-65.3,65.2-71.1,65.2-78.3
			C65.2-78.3,65.2-78.3,65.2-78.3z"/>
		<path class="st14" d="M39.1-78.3c7.2,0,13,5.8,13,13C44.9-65.3,39.1-71.1,39.1-78.3z"/>
		<path class="st14" d="M78.2-91.4c0,7.2,5.8,13,13,13C91.2-85.5,85.4-91.4,78.2-91.4z"/>
		<path class="st14" d="M65.2-78.3c7.2,0,13-5.8,13-13C71-91.3,65.2-85.5,65.2-78.3z"/>
		<path class="st14" d="M91.3-78.3c-7.2,0-13,5.8-13,13C85.5-65.3,91.3-71.1,91.3-78.3z"/>
		<path class="st14" d="M65.2-78.3c7.2,0,13,5.8,13,13C71-65.3,65.2-71.1,65.2-78.3z"/>
	</g>
</pattern>
<title>Tavola disegno 1</title>
<g id="Livello_1_1_">
	<g id="Livello_1-2">
		<g id="Livello_1-3">
			<g id="Base">
				<rect y="0" class="st17" width="1190.6" height="1190.6"/>
			</g>
			<rect x="60.9" y="60.9" class="st18" width="239.5" height="239.5"/>
			<rect x="60.9" y="337.3" class="st18" width="239.5" height="239.5"/>
			<rect x="60.9" y="613.7" class="st18" width="239.5" height="239.5"/>
			<rect x="60.9" y="890.1" class="st18" width="239.5" height="239.5"/>
			<rect x="337.3" y="60.9" class="st18" width="239.5" height="239.5"/>
			<rect x="337.3" y="337.3" class="st18" width="239.5" height="239.5"/>
			<rect x="337.3" y="613.7" class="st18" width="239.5" height="239.5"/>
			<rect x="337.3" y="890.1" class="st18" width="239.5" height="239.5"/>
			<rect x="613.7" y="60.9" class="st18" width="239.5" height="239.5"/>
			<rect x="613.7" y="337.3" class="st18" width="239.5" height="239.5"/>
			<rect x="613.7" y="613.7" class="st18" width="239.5" height="239.5"/>
			<rect x="613.7" y="890.1" class="st18" width="239.5" height="239.5"/>
			<rect x="890.1" y="60.9" class="st18" width="239.5" height="239.5"/>
			<rect x="890.1" y="337.3" class="st18" width="239.5" height="239.5"/>
			<rect x="890.1" y="613.7" class="st18" width="239.5" height="239.5"/>
			<rect x="890.1" y="890.1" class="st18" width="239.5" height="239.5"/>
			<g id="Griglia_2">
				<rect x="60.9" y="60.9" class="st19" width="184.2" height="184.2"/>
				<rect x="282" y="60.9" class="st19" width="184.2" height="184.2"/>
				<rect x="503.1" y="60.9" class="st19" width="184.3" height="184.2"/>
				<rect x="724.2" y="60.9" class="st19" width="184.2" height="184.2"/>
				<rect x="945.3" y="60.9" class="st19" width="184.2" height="184.2"/>
				<rect x="60.9" y="282.1" class="st19" width="184.2" height="184.2"/>
				<rect x="282" y="282.1" class="st19" width="184.2" height="184.2"/>
				<rect x="503.1" y="282.1" class="st19" width="184.3" height="184.2"/>
				<rect x="724.2" y="282.1" class="st19" width="184.2" height="184.2"/>
				<rect x="945.3" y="282.1" class="st19" width="184.2" height="184.2"/>
				<rect x="60.9" y="503.2" class="st19" width="184.2" height="184.3"/>
				<rect x="282" y="503.2" class="st19" width="184.2" height="184.3"/>
				<rect x="503.1" y="503.2" class="st19" width="184.3" height="184.3"/>
				<rect x="724.2" y="503.2" class="st19" width="184.2" height="184.3"/>
				<rect x="945.3" y="503.2" class="st19" width="184.2" height="184.3"/>
				<rect x="60.9" y="724.3" class="st19" width="184.2" height="184.2"/>
				<rect x="282" y="724.3" class="st19" width="184.2" height="184.2"/>
				<rect x="503.1" y="724.3" class="st19" width="184.3" height="184.2"/>
				<rect x="724.2" y="724.3" class="st19" width="184.2" height="184.2"/>
				<rect x="945.3" y="724.3" class="st19" width="184.2" height="184.2"/>
				<rect x="60.9" y="945.4" class="st19" width="184.2" height="184.2"/>
				<rect x="282" y="945.4" class="st19" width="184.2" height="184.2"/>
				<rect x="503.1" y="945.4" class="st19" width="184.3" height="184.2"/>
				<rect x="724.2" y="945.4" class="st19" width="184.2" height="184.2"/>
				<rect x="945.3" y="945.4" class="st19" width="184.2" height="184.2"/>
			</g>
			<g id="Griglia_3">
				<rect x="60.9" y="61" class="st20" width="147.4" height="147.4"/>
				<rect x="245.2" y="61" class="st20" width="147.4" height="147.4"/>
				<rect x="429.5" y="61" class="st20" width="147.4" height="147.4"/>
				<rect x="613.7" y="61" class="st20" width="147.4" height="147.4"/>
				<rect x="798" y="61" class="st20" width="147.4" height="147.4"/>
				<rect x="982.2" y="61" class="st20" width="147.4" height="147.4"/>
				<rect x="60.9" y="245.2" class="st20" width="147.4" height="147.4"/>
				<rect x="245.2" y="245.2" class="st20" width="147.4" height="147.4"/>
				<rect x="429.5" y="245.2" class="st20" width="147.4" height="147.4"/>
				<rect x="613.7" y="245.2" class="st20" width="147.4" height="147.4"/>
				<rect x="798" y="245.2" class="st20" width="147.4" height="147.4"/>
				<rect x="982.2" y="245.2" class="st20" width="147.4" height="147.4"/>
				<rect x="60.9" y="429.4" class="st20" width="147.4" height="147.4"/>
				<rect x="245.2" y="429.4" class="st20" width="147.4" height="147.4"/>
				<rect x="429.5" y="429.4" class="st20" width="147.4" height="147.4"/>
				<rect x="613.7" y="429.4" class="st20" width="147.4" height="147.4"/>
				<rect x="798" y="429.4" class="st20" width="147.4" height="147.4"/>
				<rect x="982.2" y="429.4" class="st20" width="147.4" height="147.4"/>
				<rect x="60.9" y="613.7" class="st20" width="147.4" height="147.4"/>
				<rect x="245.2" y="613.7" class="st20" width="147.4" height="147.4"/>
				<rect x="429.5" y="613.7" class="st20" width="147.4" height="147.4"/>
				<rect x="613.7" y="613.7" class="st20" width="147.4" height="147.4"/>
				<rect x="798" y="613.7" class="st20" width="147.4" height="147.4"/>
				<rect x="982.2" y="613.7" class="st20" width="147.4" height="147.4"/>
				<rect x="60.9" y="797.9" class="st20" width="147.4" height="147.4"/>
				<rect x="245.2" y="797.9" class="st20" width="147.4" height="147.4"/>
				<rect x="429.5" y="797.9" class="st20" width="147.4" height="147.4"/>
				<rect x="613.7" y="797.9" class="st20" width="147.4" height="147.4"/>
				<rect x="798" y="797.9" class="st20" width="147.4" height="147.4"/>
				<rect x="982.2" y="797.9" class="st20" width="147.4" height="147.4"/>
				<rect x="60.9" y="982.2" class="st20" width="147.4" height="147.4"/>
				<rect x="245.2" y="982.2" class="st20" width="147.4" height="147.4"/>
				<rect x="429.5" y="982.2" class="st20" width="147.4" height="147.4"/>
				<rect x="613.7" y="982.2" class="st20" width="147.4" height="147.4"/>
				<rect x="798" y="982.2" class="st20" width="147.4" height="147.4"/>
				<rect x="982.2" y="982.2" class="st20" width="147.4" height="147.4"/>
			</g>
			<g>
				<defs>
					<rect id="SVGID_1_" x="613.7" y="337.3" width="239.5" height="239.5"/>
				</defs>
				<clipPath id="SVGID_2_">
					<use xlink:href="#SVGID_1_"  style="overflow:visible;"/>
				</clipPath>
				<g class="st21">
					<g transform="translate(439.27 319.62) scale(0.57)">
						
							<image style="overflow:visible;enable-background:new    ;" width="850" height="484" id="image-2" xlink:href="892922_09A.jpg"  transform="matrix(0.3989 0 0 0.3989 511.999 361.0327)">
						</image>
					</g>
				</g>
			</g>
			<g>
				<defs>
					<circle id="SVGID_3_" cx="733.5" cy="180.6" r="119.8"/>
				</defs>
				<clipPath id="SVGID_4_">
					<use xlink:href="#SVGID_3_"  style="overflow:visible;"/>
				</clipPath>
				<g class="st22">
					
						<image style="overflow:visible;enable-background:new    ;" width="1333" height="667" xlink:href="892922_.jpg"  transform="matrix(0.41 0 0 0.41 470.71 49.5)">
					</image>
				</g>
			</g>
		</g>
		<rect x="60.9" y="60.9" class="st0" width="515.9" height="55.8"/>
		<text transform="matrix(1 0 0 1 60.9 106.5)" class="st23 st24">Il Bradipo</text>
		<rect x="60.9" y="149.2" class="st0" width="515.9" height="427.6"/>
		<text transform="matrix(1 0 0 1 60.9 161.41)" class="st25 st26">Lorem ipsum dolor sit amet, consectetuer adipiscing elit, sed diam no</text>
		<text transform="matrix(1 0 0 1 558.6 161.41)" class="st25 st26">-</text>
		<text transform="matrix(1 0 0 1 60.9 185.41)" class="st25 st26">nummy nibh euismod tincidunt ut laoreet dolore magna aliquam erat</text>
		<text transform="matrix(1 0 0 1 60.9 209.41)" class="st25 st26">volutpat. Ut wisi enim ad minim veniam, quis nostrud exerci tation</text>
		<text transform="matrix(1 0 0 1 60.9 233.41)" class="st25 st26">ullamcorper suscipit lobortis nisl ut aliquip ex ea commodo consequat.</text>
		<text transform="matrix(1 0 0 1 60.9 257.41)" class="st25 st26">Duis autem vel eum iriure dolor in hendrerit in vulputate velit esse mo</text>
		<text transform="matrix(1 0 0 1 562.4 257.41)" class="st25 st26">-</text>
		<text transform="matrix(1 0 0 1 60.9 281.41)" class="st25 st26">lestie consequat, vel illum dolore eu feugiat nulla facilisis at vero eros et</text>
		<text transform="matrix(1 0 0 1 60.9 305.41)" class="st25 st26">accumsan et iusto odio dignissim qui blandit praesent luptatum zzril</text>
		<text transform="matrix(1 0 0 1 60.9 329.41)" class="st25 st26">delenit augue duis dolore te feugait nulla facilisi.</text>
		<text transform="matrix(1 0 0 1 60.9 353.41)" class="st25 st26">Lorem ipsum dolor sit amet, cons ectetuer adipiscing elit, sed diam no</text>
		<text transform="matrix(1 0 0 1 562.8 353.41)" class="st25 st26">-</text>
		<text transform="matrix(1 0 0 1 60.9 377.41)" class="st25 st26">nummy nibh euismod tincidunt ut laoreet dolore magna aliquam erat</text>
		<text transform="matrix(1 0 0 1 60.9 401.41)" class="st25 st26">volutpat. Ut wisi enim ad minim veniam, quis nostrud exerci tation</text>
		<text transform="matrix(1 0 0 1 60.9 425.41)" class="st25 st26">ullamcorper suscipit lobortis nisl ut aliquip ex ea commodo consequat.</text>
		<text transform="matrix(1 0 0 1 60.9 449.41)" class="st25 st26">Lorem ipsum dolor sit amet, consectetuer adipiscing elit, sed diam no</text>
		<text transform="matrix(1 0 0 1 558.6 449.41)" class="st25 st26">-</text>
		<text transform="matrix(1 0 0 1 60.9 473.41)" class="st25 st26">nummy nibh euismod tincidunt ut laoreet dolore magna aliquam erat</text>
		<text transform="matrix(1 0 0 1 60.9 497.41)" class="st25 st26">volutpat. Ut wisi enim ad minim veniam, quis nostrud exerci tation</text>
		<text transform="matrix(1 0 0 1 60.9 521.41)" class="st25 st26">ullamcorper suscipit lobortis nisl ut aliquip ex ea commodo consequat.</text>
		<text transform="matrix(1 0 0 1 60.9 545.41)" class="st25 st26">Duis autem vel eum iriure dolor in hendrerit in vulputate velit esse mo</text>
		<text transform="matrix(1 0 0 1 562.4 545.41)" class="st25 st26">-</text>
		<text transform="matrix(1 0 0 1 60.9 569.41)" class="st25 st26">lestie consequat, vel illum dolore eu feugiat nulla facilisis at vero eros et</text>
		<rect x="540.8" y="841.9" class="st0" width="239.5" height="12.8"/>
		<text transform="matrix(1 0 0 1 815.81 293.71)" class="st27 st28">B</text>
		<text transform="matrix(1 0 0 1 821.74 293.71)" class="st27 st28">amboo</text>
	</g>
	<text transform="matrix(1 0 0 1 991.58 368.66)" class="st25 st26">Lorem </text>
	<text transform="matrix(1 0 0 1 961.43 387.86)" class="st25 st26">ipsum dolor sit </text>
	<text transform="matrix(1 0 0 1 958 407.06)" class="st25 st26">amet, consecte</text>
	<text transform="matrix(1 0 0 1 1066.73 407.06)" class="st25 st26">-</text>
	<text transform="matrix(1 0 0 1 947.86 426.26)" class="st25 st26">tuer adipiscing elit, </text>
	<text transform="matrix(1 0 0 1 943.39 445.46)" class="st25 st26">sed diam nonummy </text>
	<text transform="matrix(1 0 0 1 931.92 464.66)" class="st25 st26">nibh euismod tincidunt </text>
	<text transform="matrix(1 0 0 1 928.11 483.86)" class="st25 st26">ut laoreet dolore magna </text>
	<text transform="matrix(1 0 0 1 926.06 503.06)" class="st25 st26">aliquam erat volutpat. Ut </text>
	<text transform="matrix(1 0 0 1 916.45 522.26)" class="st25 st26">wisi enim ad minim veniam, </text>
	<text transform="matrix(1 0 0 1 922.98 541.46)" class="st25 st26">quis nostrud exerci tation </text>
	<text transform="matrix(1 0 0 1 912.97 560.66)" class="st25 st26">ullamcorper suscipit lobortis </text>
	<text transform="matrix(1 0 0 1 907.43 579.86)" class="st25 st26">nisl ut aliquip ex ea commodo </text>
	<text transform="matrix(1 0 0 1 901.97 599.06)" class="st25 st26">consequat. Duis autem vel eum </text>
	<text transform="matrix(1 0 0 1 897.53 618.26)" class="st25 st26">iriure dolor in hendrerit in vulpu</text>
	<text transform="matrix(1 0 0 1 1127.2 618.26)" class="st25 st26">-</text>
	<text transform="matrix(1 0 0 1 907.59 637.46)" class="st25 st26">tate velit esse molestie conse</text>
	<text transform="matrix(1 0 0 1 1117.14 637.46)" class="st25 st26">-</text>
	<text transform="matrix(1 0 0 1 902.38 656.66)" class="st25 st26">quat, vel illum dolore eu feugiat </text>
	<text transform="matrix(1 0 0 1 895.15 675.86)" class="st25 st26">nulla facilisis at vero eros et accu</text>
	<text transform="matrix(1 0 0 1 1129.5801 675.86)" class="st25 st26">-</text>
	<text transform="matrix(1 0 0 1 899.27 695.06)" class="st25 st26">msan et iusto odio dignissim qui </text>
	<text transform="matrix(1 0 0 1 905.13 714.26)" class="st25 st26">blandit praesent luptatum zzril </text>
	<text transform="matrix(1 0 0 1 898.12 733.46)" class="st25 st26">delenit augue duis dolore te feu</text>
	<text transform="matrix(1 0 0 1 1126.61 733.46)" class="st25 st26">-</text>
	<text transform="matrix(1 0 0 1 957.28 752.66)" class="st25 st26">gait nulla facilisi.</text>
	<text transform="matrix(1 0 0 1 894.81 771.86)" class="st25 st26">Lorem ipsum dolor sit amet, cons </text>
	<text transform="matrix(1 0 0 1 897.69 791.06)" class="st25 st26">ectetuer adipiscing elit, sed diam </text>
	<text transform="matrix(1 0 0 1 893.2 810.26)" class="st25 st26">nonummy nibh euismod tincidunt </text>
	<text transform="matrix(1 0 0 1 897.39 829.46)" class="st25 st26">ut laoreet dolore magna aliquam </text>
	<text transform="matrix(1 0 0 1 910.44 848.66)" class="st25 st26">erat volutpat. Ut wisi enim ad </text>
	<text transform="matrix(1 0 0 1 915.21 867.86)" class="st25 st26">minim veniam, quis nostrud </text>
	<text transform="matrix(1 0 0 1 902.54 887.06)" class="st25 st26">exerci tation ullamcorper susci</text>
	<text transform="matrix(1 0 0 1 1122.1901 887.06)" class="st25 st26">-</text>
	<text transform="matrix(1 0 0 1 905.58 906.2599)" class="st25 st26">pit lobortis nisl ut aliquip ex ea </text>
	<text transform="matrix(1 0 0 1 936.49 925.46)" class="st25 st26">commodo consequat.</text>
	<text transform="matrix(1 0 0 1 913.83 944.66)" class="st25 st26">Lorem ipsum dolor sit amet, </text>
	<text transform="matrix(1 0 0 1 915.66 963.86)" class="st25 st26">consectetuer adipiscing elit, </text>
	<text transform="matrix(1 0 0 1 925.31 983.06)" class="st25 st26">sed diam nonummy nibh </text>
	<text transform="matrix(1 0 0 1 940.53 1002.2599)" class="st25 st26">euismod tincidunt ut </text>
	<text transform="matrix(1 0 0 1 937.58 1021.46)" class="st25 st26">laoreet dolore magna </text>
	<text transform="matrix(1 0 0 1 936.58 1040.66)" class="st25 st26">aliquam erat volutpat. </text>
	<text transform="matrix(1 0 0 1 960.16 1059.86)" class="st25 st26">Ut wisi enim ad </text>
	<text transform="matrix(1 0 0 1 962.79 1079.0601)" class="st25 st26">minim veniam, </text>
	<text transform="matrix(1 0 0 1 969.44 1098.26)" class="st25 st26">quis nostrud </text>
	<text transform="matrix(1 0 0 1 993.45 1117.46)" class="st25 st26">exerci</text>
</g>
<g id="Livello_3">
	<rect x="60.9" y="613.7" class="st29" width="700.2" height="515.9"/>
</g>
<g id="Marrone">
	<rect x="511.6" y="738.8" class="st30" width="221.2" height="274.1"/>
</g>
<g id="Livello_7">
	<g>
		<defs>
			<rect id="SVGID_5_" x="323.1" y="817.1" width="104.9" height="80.2"/>
		</defs>
		<clipPath id="SVGID_6_">
			<use xlink:href="#SVGID_5_"  style="overflow:visible;"/>
		</clipPath>
		<g class="st31">
			<g transform="translate(246.63 727.55) scale(0.36 0.43)">
				
					<image style="overflow:visible;enable-background:new    ;" width="550" height="413" id="image" xlink:href="892922_09B.jpg"  transform="matrix(0.3057 0 0 0.3651 261.5606 740.9415)">
				</image>
			</g>
		</g>
	</g>
	<g>
		<defs>
			<rect id="SVGID_7_" x="323.1" y="735.6" width="104.9" height="76.5"/>
		</defs>
		<clipPath id="SVGID_8_">
			<use xlink:href="#SVGID_7_"  style="overflow:visible;"/>
		</clipPath>
		<g class="st32">
			<g transform="translate(246.63 726.85) scale(0.36 0.43)">
				
					<image style="overflow:visible;enable-background:new    ;" width="550" height="413" id="image_2_" xlink:href="892922_09B.jpg"  transform="matrix(0.3057 0 0 0.3651 261.5606 740.2415)">
				</image>
			</g>
		</g>
	</g>
</g>
<g id="schermo">
	<g transform="translate(308.78 860.27) scale(0.06 0.07)">
		
			<image style="overflow:visible;enable-background:new    ;" width="850" height="484" id="image-2_2_" xlink:href="892922_09A.jpg"  transform="matrix(6.491768e-02 0 0 7.219009e-02 308.79 859.39)">
		</image>
	</g>
</g>
<g id="Livello_5">
	<pattern  id="SVGID_9_" xlink:href="#Unnamed_Pattern_7" patternTransform="matrix(1 0 0 -1 0 -16932.6309)">
	</pattern>
	<path class="st33" d="M729.4,699.1c0.4-0.8,0.6-1.6,0.6-2.5c0-4,0.8-7.9,0.4-11.8c-0.1-1-0.4-2-1-2.8c0.4-0.8,0.6-1.8,0.6-2.7
		c0.2-2.5-1.6-4.7-4.1-4.9c-0.2,0-0.5,0-0.7,0c-4.3,0.2-9.1,1.9-13.3,0.3c-1.1-0.4-2.3-0.3-3.3,0.2c-0.3-0.1-0.7-0.1-1-0.1
		c-0.6,0-1.1,0.1-1.6,0.3c-1.7-0.5-3.5-0.7-5.3-0.7c-1.3,0-2.6,0.1-3.8,0.4h-0.1c-1.7,0.2-3.4,0.2-5,0c-1.1,0-2.2,0.1-3.3,0.3
		c-1.7-0.5-3.4-0.7-5.2-0.7c-1.9,0-3.7,0.3-5.5,0.9c-0.8-0.4-1.6-0.6-2.5-0.6c-0.4,0-0.8,0-1.1,0.1c-0.2,0-0.4,0-0.5,0
		c-0.9,0-1.7,0.2-2.5,0.6c-1.1-0.4-2.3-0.4-3.4,0h-0.8c-9.4-0.7-18.7-0.7-28.1,0c-0.7-0.3-1.5-0.5-2.2-0.5c-0.4,0-0.7,0-1.1,0.1
		c-0.3-0.1-0.7-0.1-1-0.1c-0.7,0-1.5,0.1-2.2,0.5c-1.5-0.4-3-0.5-4.5-0.5c-1.3,0-2.5,0.1-3.7,0.4c-0.5-0.1-0.9-0.2-1.4-0.2
		c-0.3,0-0.6,0-0.8,0.1c-0.3,0-0.6-0.1-0.8-0.1c-0.7,0-1.4,0.1-2,0.4c-0.4-0.1-0.9-0.2-1.3-0.2c-0.3,0-0.5,0-0.8,0.1
		c-0.1-0.4-0.5-0.7-0.9-0.6c-0.4,0-0.8,0.2-0.9,0.6c-0.2,0-0.4,0-0.6,0c-0.2,0-0.3,0-0.5,0c-0.2-0.3-0.6-0.4-1-0.3
		c-0.6,0.2-1.2,0.3-1.9,0.4c-0.2-0.3-0.5-0.5-0.8-0.5c-0.6,0-1,0.5-1,1c0,0,0,0.1,0,0.1l0,0c-0.2,0.6-0.3,1.2-0.3,1.8
		c0,0.3,0.1,0.5,0.3,0.7c-0.3,0.7-0.5,1.4-0.5,2.1l-0.3,2.4c-0.6,1.2-1.3,2.2-2.1,3.3c-0.2,0.2-0.5,0.4-0.7,0.7
		c-0.8,0.2-1.6,0.7-2.1,1.4c-0.8,0-1.6,0.2-2.3,0.6c-0.1,0-0.3,0-0.4,0c-0.5,0-1,0.1-1.5,0.2c-0.2,0-0.4,0-0.6,0h-0.1
		c-0.3-0.1-0.5-0.1-0.8-0.2c-0.4-0.3-0.9-0.4-1.3-0.6c-0.5-0.2-1.1-0.4-1.6-0.5c-0.6-0.5-1.3-1-2-1.5c-1.1-1.4-1.9-2.9-2.4-4.6
		c0-0.2-0.1-0.3-0.3-0.4c0-0.3,0-0.5,0-0.8c0.1-0.7,0-1.4-0.2-2.1c0.2-0.2,0.3-0.4,0.3-0.7c0-0.7,0-1.5,0-2.2c0-0.6-0.4-1-1-1
		l-1.9,0.1c-0.3,0-0.6,0.2-0.8,0.4c-0.4-0.1-0.8-0.1-1.2-0.1c-1.2,0.4-2.4,0.4-3.6,0c-0.2,0-0.5,0-0.7,0c-0.2,0-0.5,0-0.7,0H580
		c-0.5-0.1-1-0.2-1.5-0.2h-2.8c-0.8-0.1-1.6-0.2-2.5-0.2c-0.4,0-0.7,0-1.1,0s-0.7,0-1,0c-0.8,0-1.6,0.1-2.3,0.2h-1.7
		c-2.5-0.1-5,0-7.5,0.5c-1.7-0.4-3.4-0.7-5.1-0.7c-1,0-2,0.1-3,0.3h-0.1c-4.7-0.3-9.4-0.4-14.1-0.2h-0.1c-1.4-0.3-2.8-0.5-4.3-0.5
		H378c-1.8,0-3.5,0.3-5.3,0.8c-1.1-0.5-2.3-0.6-3.4-0.3l-0.9,0.2c-0.1,0-0.2-0.1-0.3-0.1c-1.3-0.2-2.6-0.2-3.8,0
		c-0.7-0.2-1.5-0.3-2.2-0.1c-1.5,0.6-0.9,3.2-0.9,4.5c-0.1,0.2-0.2,0.4-0.3,0.6c-0.5,1.2-0.8,2.4-1,3.7c-0.1,0.3,0,0.6,0.2,0.9
		c-0.8,0.8-1.6,1.8-2.3,2.7c-0.7,0.2-1.3,0.5-1.8,1c-5.4,1.3-11.6,0.6-13.3-5.9c-0.1-0.3-0.2-0.5-0.3-0.8c0.1-0.4,0.2-0.9,0.2-1.4
		c0-0.6-0.1-1.3-0.4-1.9c0.4-0.2,0.7-0.7,0.6-1.1c-0.1-0.4,0.1-0.8,0-1.2c-0.1-0.5-0.5-0.9-1-1c-0.6-0.1-1.1-0.2-1.7-0.1l-2-0.1
		c-0.3,0-0.6,0.1-0.8,0.4c-3.4-0.3-7.5-1-10.9-0.1c-4.8-1.9-10.1-1.9-14.9,0.1c-0.5-0.1-1-0.2-1.5-0.1c-1.1,0.2-2.2,0.2-3.3,0.2
		c-0.1,0-0.8-0.1-1.1-0.1l-0.4-0.1c-0.3-0.1-0.7-0.1-1-0.2c-1.1-0.3-2.3-0.2-3.4,0.3c-0.7-0.3-1.5-0.4-2.3-0.5c-0.6,0-1,0.5-0.9,1.1
		c0,0.1,0.1,0.3,0.1,0.4c0,0,0,0,0,0v1.7c0,0.3,0.1,0.5,0.3,0.7c-0.1,0.6-0.1,1.3,0,1.9c-0.4,0.8-0.6,1.7-0.6,2.5l0.6,20
		c-0.5,1.2-0.5,2.6,0,3.8c-0.8,9.5-0.8,19-0.1,28.5c-0.4,2.1-0.5,4.2-0.3,6.4c-0.2,0.8-0.1,1.7,0.1,2.5c0,0.8,0,1.6,0,2.4
		c-0.1,0.9,0.9,1.2,1.5,0.8c0.2,0.2,0.5,0.2,0.8,0.2c0.3-0.1,0.5-0.1,0.8-0.2c0.5,0.1,1,0.2,1.5,0.2c0.6,0,1.2-0.1,1.8-0.3h0.8
		c0.5,0.2,1.1,0.3,1.7,0.3c0.4,0,0.7,0,1.1-0.1c0.4,0.1,0.7,0.1,1.1,0.1c0.2,0,0.5,0,0.7,0c0.2,0,0.4,0,0.7,0c0.5,0,0.9-0.1,1.4-0.2
		c0.2,0.1,0.3,0.2,0.5,0.2c0.2,0,0.4-0.1,0.6-0.2c0.5,0.1,1,0.1,1.5,0c0.1,0.1,0.3,0.1,0.4,0.1l1.9,0.1c0.2,0,0.5-0.1,0.6-0.2
		c0.3,0.1,0.7,0.2,1,0.1c0.5-0.1,0.8-0.7,0.7-1.2c-0.1-0.3-0.2-0.5-0.5-0.6c0.2,0.1,0-0.1,0-0.2c0-0.2,0-0.4,0-0.6
		c0-0.2-0.1-0.4-0.2-0.6c0.6-1.6,0.8-3.3,0.7-5.1c0-2.4-0.3-4.8-0.6-7.1c0.1,0,0.2-0.1,0.2-0.2c3.2-0.3,6.3-0.7,9.5-0.7
		c0.2,0.1,0.3,0.2,0.5,0.1l2.6-0.1c0.4,0,0.9,0,1.3,0.1c0.2,0,0.4,0,0.6-0.1h2.1c0.2,0.2,0.4,0.3,0.7,0.3c0.3,0,0.5-0.1,0.7-0.3
		c1.2,0,2.4,0.1,3.6,0.2c0.3,0,0.6-0.1,0.8-0.3H363c0.1,0.5,0.7,0.8,1.2,0.7c1.3-0.2,2.6-0.4,4-0.5c0,0,0.1,0,0.1,0
		c5.4,0.7,10.8-0.3,16.2,0.4c0.1,0,0.2,0,0.3,0c0.2,0.2,0.4,0.2,0.7,0.2c2-0.2,4.1-0.4,6.1-0.6c0,0.4,0.4,0.8,0.9,0.7c0,0,0,0,0,0
		c3.5-0.3,7.1-0.5,10.7-0.7c0.2,0.3,0.5,0.5,0.8,0.4l16.4-0.5c0.1,0.1,0.3,0.2,0.5,0.2c1.8,0,3.6,0,5.4-0.1l0.8-0.1
		c1.5,0.2,3,0.3,4.5,0.4h0.1c0.1,0.5,0.4,0.8,0.9,0.8c0,0.1-0.1,0.2-0.1,0.3v0.7c-0.1,0.2-0.2,0.5-0.2,0.8c0,0.3,0,0.7,0.1,1
		c0,0.1,0.1,0.1,0.1,0.2c0,0.8,0,1.6,0,2.4c0,0.2,0.1,0.4,0.2,0.6c-0.1,3.4-0.3,6.8-0.5,10.2c0,0.3,0.1,0.7,0.4,0.8
		c0,0.5-0.1,1.1-0.1,1.7v139.5c0,0.8,0.1,1.5,0.2,2.3c-0.4,1.1-0.4,2.2-0.1,3.3c0,0.1,0,0.1,0,0.2c0.4,1.8,0.4,3.7,0,5.5
		c-1.9-0.1-3.8,0.1-5.7,0.5c-7.2-0.4-14.5-1.1-21.7-0.4c-0.6,0.1-1,0.6-0.9,1.2c0,0,0,0.1,0,0.1c-0.2,0.4-0.1,0.9,0.3,1.1
		c0.1,0,0.2,0.1,0.3,0.1c5.6,0.8,11.2,2,16.7,3.5c-0.1,0.6-0.3,1.2-0.5,1.7c-0.1,0.3,0,0.6,0.2,0.9c-0.1,0.3-0.2,0.5-0.3,0.8
		c-0.3,0.8-0.3,1.7-0.1,2.5c-0.1,0.5-0.1,0.9-0.2,1.4c-0.1,0.6,0,1.2,0.2,1.8c0,0.1-0.1,0.2-0.1,0.3c-0.1,1.2,0,2.3,0.2,3.5
		c0.2,0.8,0.4,2.3,1.1,2.8s2.1,0.2,2.9,0.2l4.3-0.2c0,0,0.1,0,0.1,0c1.2,0,2.5,0,3.7-0.1c0.8,0.2,1.7,0.3,2.5,0.1
		c0.4,0.1,0.9,0.2,1.4,0.2h0.3c0.5,0,1-0.1,1.5-0.3c0.1,0.1,0.2,0.1,0.3,0.1l3.6,0.2c0.1,0,0.2,0,0.3,0c0.2,0.1,0.4,0.2,0.6,0.2
		c0.2,0,0.5-0.1,0.6-0.2c0.5-0.2,0.8-0.8,0.6-1.3c0,0,0,0,0,0c0.2-0.1,0.5-0.2,0.7-0.4c0.2,0,0.3,0,0.5,0c0.2,0,0.4,0,0.6,0
		c0.4,0.1,0.8,0.1,1.2,0.1c0.4,0,0.8,0,1.2-0.1c0.2,0,0.4,0,0.6,0c1.2,0,2.3-0.4,3.2-1.2c1.7,0.5,3.4,0.7,5.2,0.7h0.8
		c0.6,0.2,1.2,0.3,1.9,0.3h0.6c0.5,0.1,1,0.2,1.5,0.2c0.5,0,1-0.1,1.4-0.2c0.7,1,1.7,1.6,2.9,1.8v72.5c0,1.1,0.1,2.1,0.3,3.2
		c-0.1,0.5-0.2,0.9-0.3,1.4c0,0.4,0,0.8,0,1.2c0,0,0,0.1,0,0.1c-0.2,0.6-0.3,1.2-0.3,1.8c0,0.3,0,0.7,0.1,1v10.9c0,0.1,0,0.1,0,0.2
		c0,0.5,0.4,1,0.9,1c0,0,0.1,0,0.1,0h19.1c0.4,0.1,0.9,0.2,1.4,0.1l0.9-0.1h7.7c0.1,0,0.2,0,0.3-0.1c0.5,0.2,1.1,0.3,1.7,0.3
		c0.2,0,0.5,0,0.7,0c0.2,0,0.5,0,0.7,0c0.3,0,0.7,0,1-0.1c0.3,0.1,0.6,0.1,0.9,0.1c0.4,0,0.8,0,1.2-0.1h4c0.6,0,1-0.5,1-1
		c0-0.1,0-0.3-0.1-0.4c0.1-0.2,0.2-0.4,0.2-0.6v-13.3c0-0.3-0.1-0.6-0.4-0.8l0,0c0-0.2,0-0.4,0-0.6c0.3-1,0.3-2,0.2-3
		c0-0.1-0.1-1-0.1-0.9l-0.1-0.8c0.1-0.5,0.2-1,0.2-1.5v-12.5c0.1-0.4,0.1-0.7,0.1-1.1v-19.8c0,0,0-0.1,0-0.1c0.2-1.3,0.2-2.6,0-3.9
		V955c0-0.2,0-0.4-0.1-0.7c0-0.3,0.1-0.5,0.1-0.8v-20.3c0-0.4,0-0.7-0.1-1.1v-8.7c0,0,0-0.1,0-0.1c0.1-0.4,0.1-0.8,0.1-1.1v-31.9
		c0-0.5-0.1-0.9-0.2-1.4c0.2-0.5,0.2-1,0.2-1.6v-35.2c0-0.5-0.1-0.9-0.2-1.4v-82.4c0-0.3,0-0.5-0.1-0.8c0.2-0.6,0.3-1.3,0.2-1.9
		c-0.1-1.7-0.2-3.3-0.3-5c0.2-0.5,0.3-1,0.3-1.5c0.1-3.1,0-6.1-0.3-9.2c0.1-0.7,0.1-1.4,0-2.2c0.1-0.3,0.1-0.6,0.1-0.8
		c0.1-1.5,0.2-2.9,0.1-4.4v-0.1h0.3c0.6,0,1.2-0.1,1.8-0.3c0.5,0,1,0.1,1.5,0.1h4.5c0,0.2,0,0.4,0.1,0.5c-0.3,0.5-0.3,1.2,0,1.7
		c-0.5,0.7-0.3,1.6,0.4,2.1c0.2,0.2,0.5,0.3,0.8,0.3c0.1,0,0.2,0,0.3,0c0.1,0,0.1,0,0.2,0c0.4,0,0.7-0.1,1-0.4
		c0.6,0.3,1.3,0.4,2,0.4c0.6,0,1.2-0.1,1.7-0.3h0.2c3.6-0.2,7.2-0.2,10.8,0c0.4,0.1,0.9,0.2,1.4,0.2c2.2-0.2,4.5-0.2,6.7-0.3
		c0.2,0,0.5,0,0.7,0h0.6c0.2,0,0.4,0,0.6,0c0.4,0.1,0.9,0.2,1.3,0.2c0.4,0,0.8-0.1,1.2-0.2c0.3,0.1,0.7,0.1,1,0.1c0.2,0,0.4,0,0.7,0
		c0.2,0,0.5,0,0.7,0c0.6-0.1,1.2-0.1,1.8,0c0.3,0,0.6,0,0.8-0.1c0.3,0,0.5,0.1,0.8,0.1c0.3,0,0.6,0,0.8-0.1c0.3,0,0.5,0.1,0.8,0.1
		c0.2,0,0.4,0,0.7,0c0.2,0,0.5,0,0.7,0c0.1,0,0.3,0,0.4,0c0.2,0,0.4,0,0.6,0c0.3,0,0.7,0,1-0.1c0.5,0.2,1.1,0.3,1.7,0.3l3.2-0.3
		c0.4,0.1,0.8,0.1,1.2,0.1c0.3,0,0.5,0,0.8-0.1c0.2,0,0.5,0.1,0.7,0.1c0.1,0,0.3,0,0.4,0s0.4,0,0.7,0s0.3,0,0.4,0s0.4,0,0.6,0
		s0.4,0,0.7-0.1c0.3,0,0.5,0.1,0.8,0.1c0.3,0,0.7,0,1-0.1c0.3,0.1,0.7,0.1,1,0.1c0.3,0,0.7,0,1-0.1c0.7,0.1,1.3,0.1,2,0h0.5h0.5
		c0.2,0,0.4,0,0.6,0c0.2,0,0.3,0,0.5,0l0,0c0.3,0.1,0.6,0.1,0.9,0.1c0.5,0,1.1-0.1,1.6-0.2h1.4c2.4,0.1,4.4-1.7,4.7-4H617
		c0.2,2.4,2.3,4.3,4.8,4.2h21.8h0.5c5.5,0,10.9,0.1,16.4,0.3c0.6,0,1.2-0.1,1.7-0.2l2.8-0.2c0.4,0.1,0.8,0.1,1.2,0.1
		c0.4,0,0.8,0,1.2-0.1c0.5,0.1,0.9,0.2,1.4,0.2c0.3,0,0.6,0,0.9-0.1c0.3,0.1,0.7,0.1,1,0.1c0.9-0.2,1.8-0.2,2.6,0.1h0.4
		c0.6,0,1.1-0.1,1.6-0.2c0.3,0,0.7,0.1,1,0c0.2,0.2,0.4,0.3,0.7,0.2c1.4-0.1,2.7-0.1,4.1,0c0.6,0,1-0.5,0.9-1.1c0-0.1,0-0.3-0.1-0.4
		c0-0.1,0.1-0.2,0.1-0.4v-2.6h12.5c-0.1,0.3-0.1,0.5,0,0.8c0,0.2,0,0.4,0,0.6c-0.1,0.3-0.1,0.6,0,0.8c0,0.1,0,0.1,0,0.2
		c-0.1,0.3-0.1,0.6-0.1,0.8c-0.1,0.5,0.2,1.1,0.7,1.2c0.1,0,0.1,0,0.2,0c0.1,0,0.1,0,0.2,0c0.1,0,0.2,0,0.3,0c0.2,0,0.5-0.1,0.7-0.2
		h0.2h0.1c0.2,0.1,0.3,0.1,0.5,0.1c0.2,0,0.3,0,0.5-0.1c0.4,0.1,0.9,0.1,1.3-0.2c0.2,0,0.3,0,0.5,0h0.2c0.3,0.1,0.7,0.1,1,0.1
		c0.2,0,0.4,0,0.6,0c0.4,0.3,0.9,0.3,1.3,0c0.3,0.1,0.7,0.1,1,0.1c5.6-0.1,11.3-0.2,16.9-0.1h0.2c0.3,0.2,0.6,0.3,0.9,0.3h1
		c0.2,0,0.5-0.1,0.7-0.2c0.2,0.1,0.5,0.2,0.7,0.2c0.8,0,1.5-0.7,1.5-1.5c0-0.3-0.1-0.7-0.3-0.9c0.1-0.3,0-0.6,0-0.8h2.7
		c0.2,0,0.5-0.1,0.7-0.2c0,0,0.1,0,0.1,0c0.6,0,1-0.5,1-1c0-0.3-0.1-0.5-0.3-0.7c0-0.1,0-0.2,0-0.3v-1.3c0-0.2,0-0.4-0.1-0.5
		c0.1-0.4,0.2-0.8,0.2-1.3c0.2-3.3,0.2-6.6,0-9.9c0-0.6-0.2-1.2-0.4-1.8c0.2-1.1,0.4-2.3,0.5-3.5
		C730.4,715.1,730.3,707.1,729.4,699.1z"/>
	<pattern  id="SVGID_10_" xlink:href="#Unnamed_Pattern_7" patternTransform="matrix(1 0 0 -1 0 -16932.6309)">
	</pattern>
	<path class="st34" d="M388.5,958.6c-0.1,0-0.2,0-0.2,0l0,0c-0.5-0.1-1.1-0.1-1.6-0.1c-0.1,0-0.3,0-0.4,0.1
		c-0.6-0.2-1.2-0.3-1.8-0.3c-0.7,0.2-1.5,0.1-2.2-0.1c-0.4-0.1-0.8-0.1-1.2-0.1c-0.3,0-0.5,0-0.8,0c-0.4-0.1-0.8-0.2-1.2-0.2h-0.1
		c-0.8-0.3-1.7-0.4-2.6-0.3c-0.4-0.2-0.8-0.3-1.2-0.4c-4.7-0.8-9.3-1.4-13.9-2.6c-0.4-0.1-0.9-0.2-1.4-0.1c-0.1-0.6-0.3-1.2-0.6-1.8
		c0-0.4,0-0.8-0.1-1.2c0.3-2.6-1.6-5-4.2-5.3c-0.2,0-0.4,0-0.6,0c-0.3,0-0.7,0-1,0.1c-0.3-0.1-0.7-0.1-1-0.1H352h-0.4
		c-0.6,0-1.2,0.1-1.8,0.3c-0.9-0.2-1.8-0.2-2.6,0c-0.4-0.1-0.9-0.2-1.3-0.2h-36.3c-0.2,0-0.3-0.1-0.5-0.1c-0.8-0.1-1.5,0-2.3,0.2
		c-0.4-0.4-1-0.4-1.4,0l-0.7-0.1c-0.2-0.2-0.4-0.2-0.6-0.2c-0.6,0-1,0.5-1,1c0,0.1,0,0.3,0.1,0.4c0,0.8,0.1,1.6,0,2.4
		c0,0.2,0,0.4,0.1,0.5c-0.1,0.5-0.1,1.1,0,1.6c0,0.9,0,1.8,0,2.7c-0.5,1.1-0.7,2.4-0.4,3.6c-0.1,0.7,0,1.5,0.2,2.2
		c0,0.3,0.1,0.5,0.1,0.8c-0.2,0.9-0.2,1.9,0,2.8c-0.1,2-0.1,4,0,6.1c0,0.2-0.1,0.5-0.1,0.8c0,1.6,0,3.3,0.1,4.9
		c-0.3,1.8-0.3,3.7-0.1,5.6c-0.2,0.6-0.2,1.3-0.1,1.9c0.3,3.1,0.1,6.1,0.2,9.2c-0.4,6.4-0.5,12.8-0.2,19.3c0,0.4,0.1,0.8,0.2,1.2
		c-0.2,0.3-0.3,0.7-0.2,1c-0.1,0.3,0,0.6,0.2,0.9c-0.4,0.4-0.3,1,0.1,1.4c0.2,0.2,0.4,0.2,0.6,0.2h2.1c0.2,0,0.4-0.1,0.5-0.2
		c1,0.3,2,0.3,3,0.1c0.4,0.1,0.8,0.1,1.2,0.1H332c0.6,0,1.1-0.1,1.6-0.3c0.1,0.1,0.3,0.1,0.5,0.2l2,0.2c0.6,0,1-0.4,1-1
		c0-0.3-0.2-0.6-0.4-0.8c0-0.1,0.1-0.2,0.1-0.3v-1.7c0.1-0.3,0.1-0.7,0.1-1c0.1-0.5,0.2-1,0.2-1.4v-36.4h35.4v16.5
		c-0.1,0.4-0.1,0.7-0.1,1.1v18.7c-0.1,2.3,1.5,4.3,3.8,4.7c0.6,0.3,1.4,0.4,2.1,0.4c0.5,0,1-0.1,1.5-0.2h0.3c0.1,0,0.2,0,0.3,0
		c0.2,0,0.3,0,0.5,0h0.1h0.3h0.2h0.4h0.2c0.4,0.1,0.7,0.1,1.1,0.1c3.8,0,5.3-3.4,4.7-6.2v-38c0.1,0,0.2,0.1,0.4,0.1h0.1h0.1
		c0.3,0,0.5-0.1,0.7-0.3c0.2-0.2,0.3-0.5,0.3-0.7v-10c0-0.1,0-0.1,0-0.2c0.3-0.5,0.2-1.1-0.3-1.4
		C388.9,958.7,388.7,958.6,388.5,958.6z"/>
	<pattern  id="SVGID_11_" xlink:href="#Unnamed_Pattern_7" patternTransform="matrix(1 0 0 -1 0 -16932.6309)">
	</pattern>
	<path class="st35" d="M461.9,948.3c0-0.1,0-0.1,0-0.2c0-0.1,0-0.3,0-0.4l0,0c0-0.1-0.1-0.2-0.1-0.3v0c-0.1-0.1-0.1-0.1-0.2-0.2
		l-0.1,0c-0.1-0.1-0.3-0.1-0.4-0.1h-3.8c-0.3,0-0.5,0.1-0.7,0.3h-23.9c-0.3,0-0.6,0-0.9,0.1h-6.4c-0.3-0.2-0.7-0.2-1-0.2
		c-0.5,0.1-0.8,0.7-0.7,1.2c0,0,0,0,0,0l0.1-0.2c-0.2,0.3-0.3,0.7-0.2,1c0,0,0,0.1,0,0.1c-0.1,0.3-0.1,0.6-0.2,0.9
		c-0.1,0.7-0.1,1.3-0.1,2c0,0.2,0.1,0.4,0.2,0.5v0.6c-0.2,0.3-0.2,0.6-0.1,0.9l-0.4,0.1c-1.9,0.5-3.9,1-5.9,1.5
		c-0.5,0.1-0.9,0.3-1.4,0.5c-0.3-0.1-0.6-0.1-0.9-0.1c-0.6,0-1.3,0.1-1.9,0.3c-0.4,0-0.9,0.1-1.3,0.3h-0.3c-0.8,0-1.6,0.2-2.3,0.5
		H409c-0.3,0-0.6-0.1-0.8-0.1c-0.8,0-1.7,0.2-2.4,0.6c-1.1-0.3-2.3-0.2-3.3,0.3l-0.2,0.1c-0.9,0-1.9,0-2.8,0c-0.6,0-1.2,0-1.8,0.2
		h-0.1l-2,0c-0.2,0-0.4,0.1-0.6,0.2c-0.4-0.3-1.1-0.3-1.4,0.2c-0.1,0.2-0.2,0.4-0.2,0.6v11c0,0.6,0.5,1,1,1c0.2,0,0.3,0,0.4-0.1v39
		c0,3.4,2.9,5,5.5,4.8c0.7,0.3,1.4,0.5,2.1,0.5h29.3c0,0.1,0,0.3,0,0.4c0,0,0,0.1,0,0.1c0,0.1,0,0.1,0.1,0.2c0,0.1,0.1,0.2,0.1,0.2
		l0.1,0.1c0.1,0.1,0.2,0.1,0.2,0.2h0.1c0.1,0.1,0.2,0.1,0.4,0.1h27.8c0.4,0,0.8-0.3,0.9-0.7c0.1-0.2,0.1-0.4,0.1-0.6
		c-0.1-0.4-0.1-0.8,0.1-1.2c0.1-0.2,0.1-0.5-0.1-0.7c0.1-0.3,0-0.6-0.1-0.8c0.4-1.1,0.5-2.2,0.1-3.3c0-0.2-0.1-0.5-0.2-0.7V996
		c0.3-1.1,0.4-2.2,0.1-3.3c0-0.3,0-0.6,0-0.9c0-0.4,0-0.8-0.1-1.2c0.2-0.6,0.3-1.1,0.3-1.7v-36.7c0-0.4-0.1-0.8-0.1-1.2
		c0.2-0.2,0.3-0.4,0.3-0.7L461.9,948.3z M445.6,992.9v10.3c-0.2,0-0.4,0-0.6,0h-12.4c0.1-0.5,0.1-1,0-1.6c0-0.4,0.1-0.8,0.1-1.2
		c0.3-0.7,0.4-1.5,0.3-2.2l-0.3-2.1v-5c0.5,0.2,1,0.2,1.5,0.2c0.6,0,1.2-0.1,1.7-0.3c0.5,0.2,1.1,0.3,1.6,0.3c0.4,0,0.9,0,1.3-0.2
		c0.4,0.1,0.8,0.2,1.3,0.2c0.6,0,1.2-0.1,1.7-0.3c0.7,0.4,1.6,0.6,2.4,0.6c0.5,0,1-0.1,1.4-0.2C445.7,991.9,445.6,992.4,445.6,992.9
		L445.6,992.9z"/>
	<pattern  id="SVGID_12_" xlink:href="#Unnamed_Pattern_7" patternTransform="matrix(1 0 0 -1 0 -16932.6309)">
	</pattern>
	<path class="st36" d="M318.8,829.7v-49.6c0-0.6-0.5-1-1-1c-0.3,0-0.5,0.1-0.7,0.3l-0.2,0c-0.2,0-0.3,0-0.5,0l-2-0.2
		c-0.2,0-0.4,0-0.5,0.2c-0.5-0.1-1.1,0-1.6,0.1c-0.5-0.2-1-0.3-1.5-0.3h-5.9c-0.3,0-0.7,0-1,0.1c-0.4-0.1-0.7-0.1-1.1-0.1
		c-0.5,0-1,0.1-1.5,0.2c-0.1,0-0.2-0.1-0.3-0.1l-2.2-0.1c-0.6,0-1,0.5-1,1c0,0.1,0,0.2,0.1,0.3c-0.4,0.4-0.4,1.1,0.1,1.5
		c0,0,0,0,0,0c0,0.2,0,0.4,0.1,0.6c-0.2,0.5-0.2,1-0.2,1.5v46.9c0,0.4,0.1,0.9,0.2,1.3c-0.5,0.2-0.8,0.7-0.7,1.2
		c0.1,0.3,0.3,0.5,0.5,0.6c-0.4,0.4-0.3,1.1,0.1,1.4c0.2,0.1,0.4,0.2,0.6,0.2h3.7c0.2,0,0.3,0,0.5,0c0.4,0.1,0.9,0.2,1.4,0.2h10.1
		c0.3,0,0.6,0,0.9-0.1h2c0.4,0.4,1,0.4,1.4,0c0.2-0.2,0.3-0.4,0.3-0.7v-2.9C319.1,831.5,319.1,830.6,318.8,829.7z"/>
	<pattern  id="SVGID_13_" xlink:href="#Unnamed_Pattern_7" patternTransform="matrix(1 0 0 -1 0 -16932.6309)">
	</pattern>
	<path class="st37" d="M333.9,903c0.1-0.3,0-0.7-0.2-1c-0.4-1-0.5-2-0.4-3c0-0.6-0.4-1-1-1c-0.2,0-0.4,0.1-0.6,0.2
		c-0.2-0.1-0.4-0.2-0.6-0.2l-2.4,0.1h-1.1h-0.4c-0.2-0.1-0.5-0.2-0.7-0.1c-0.3-0.1-0.6-0.1-0.9,0.1c-0.1,0-0.2-0.1-0.4-0.1
		c-0.2,0-0.3,0-0.5,0.1c-0.1,0-0.2,0-0.3,0h-19.2v-41.6h12.7c0.6,0,1-0.5,1-1c0-0.3-0.2-0.6-0.4-0.8v-1.7c0-0.1,0-0.1,0-0.2
		c0.3-1.1,0.3-2.2,0-3.3c0.1-0.6,0.1-1.2,0-1.7c0.3-0.4,0.4-0.9,0.1-1.3c0.6-1.4,0.6-3,0-4.4c0-0.1,0-0.2,0-0.3c0-0.2,0-0.4,0-0.6
		c0.5-0.3,0.7-0.9,0.4-1.4c-0.2-0.3-0.5-0.5-0.8-0.5h-15.7c-0.4,0-0.8,0-1.1,0.1h-2.2c-0.5-0.2-1.1,0-1.3,0.5c0,0,0,0,0,0
		c-0.1,0.2-0.1,0.4,0,0.6v1.2c0,0.2,0.1,0.5,0.2,0.6c-0.4,1.2-0.4,2.5,0,3.8v5.1c0,0.2,0,0.3,0,0.5c-0.1,0.1-0.1,0.3-0.1,0.5V902
		c0,0.2,0.1,0.4,0.2,0.5c-0.1,0.7,0,1.4,0.1,2.1c-0.1,0.2-0.2,0.4-0.2,0.5v0.7c-0.3,0.9-0.3,1.8-0.1,2.7c0,0.2,0.1,0.3,0.1,0.5
		c-0.6,2.8-0.7,5.8-0.2,8.6c0,0,0,0.1,0,0.1c-0.4,0.1-0.6,0.5-0.6,0.9c-0.1,0.9,0,1.8,0.3,2.6c0,0.1-0.1,0.2-0.1,0.3
		c-0.1,0.4,0,0.9,0.3,1.2c0.2,0.2,0.5,0.3,0.9,0.3l0,0c0.5,0.3,1.1,0.2,1.5-0.1c0.4,0,0.9,0.1,1.3,0.2c0.3,0.1,0.6,0,0.8-0.2
		c1,0.4,2.1,0.5,3.2,0.3l0.7-0.1c1.5,0,2.9-0.1,4.4-0.2c0.1,0.1,0.3,0.1,0.5,0.2c2.4,0,4.8,0,7.1-0.2h0.2l0.9,0.1
		c1.2,0.2,1.7-1.4,0.8-1.8c0-0.2,0-0.4-0.1-0.5c-0.1-0.1-0.1-0.3,0-0.4c0-0.1,0-0.1,0-0.2c0.3-0.3,0.3-0.7,0.2-1.1
		c0.2-0.3,0.2-0.7,0-1c0.2-0.2,0.2-0.5,0.2-0.8c0-0.1,0-0.1,0-0.2c0.1-0.2,0.1-0.5,0.1-0.8c0.4-0.6,0.6-1.3,0.7-2
		c0.2-0.2,0.3-0.5,0.3-0.8v-0.1c0.2-0.2,0.3-0.4,0.3-0.6c0.2-0.2,0.3-0.4,0.4-0.7c0-0.1,0-0.2,0.1-0.2c0.4-0.3,0.7-0.7,0.9-1.2
		c0.2-0.2,0.4-0.3,0.5-0.5c0.9-0.5,1.6-1.2,2-2.1c1.2-0.2,2.3-0.9,3-2c0.2,0,0.3,0,0.5-0.1c1.2-0.5,2.4-0.9,3.7-1.1
		c0.1,0.1,0.3,0.1,0.4,0.1c0.5,0,0.9-0.3,0.9-0.8C334.1,903.8,334.1,903.4,333.9,903z"/>
	<pattern  id="SVGID_14_" xlink:href="#Unnamed_Pattern_7" patternTransform="matrix(1 0 0 -1 0 -16932.6309)">
	</pattern>
	<path class="st38" d="M400.1,901.1c-0.2,0-0.4,0.1-0.5,0.2c-0.6,0-1,0.5-1,1c0,0.6,0.5,1,1,1c0.2,0,0.4-0.1,0.5-0.2
		c0.6,0,1-0.5,1-1C401.1,901.6,400.7,901.1,400.1,901.1z"/>
	<pattern  id="SVGID_15_" xlink:href="#Unnamed_Pattern_7" patternTransform="matrix(1 0 0 -1 0 -16932.6309)">
	</pattern>
	<path class="st39" d="M380.3,902.2V902c-0.1-0.5-0.7-0.8-1.2-0.7c-0.2,0-0.3,0.1-0.4,0.2c-3.9-0.3-7.7,0.3-11.6,0.1
		c-3.7-0.2-7.4-0.3-11.1-0.2c-0.2,0-0.3,0.1-0.5,0.2c-5.8-0.2-11.6-0.2-17.4,0.1c-0.6,0-1,0.4-1,1c0,0.2,0,0.5,0.1,0.7
		c-0.3,0.5-0.1,1.1,0.4,1.4c0.1,0.1,0.3,0.1,0.4,0.1c0.1,0,0.1,0,0.2,0c1.5,0.3,3,0.7,4.5,1.3c0.1,0.2,0.3,0.3,0.5,0.4l0.4,0.1
		c3.8,2.3,7.1,7.5,7.4,11.8c0,0.2,0.1,0.4,0.2,0.5c-0.1,0.2-0.2,0.4-0.2,0.6v1.5c-0.2,0.1-0.4,0.4-0.4,0.7c-0.3,0.4-0.3,1.1,0.1,1.4
		c0.2,0.1,0.3,0.2,0.5,0.2l4.2-0.2c0.2,0,0.5-0.1,0.6-0.3l0.3,0c0.1,0.1,0.2,0.1,0.4,0.2c1,0.2,2,0.2,2.9-0.1
		c0.2,0.1,0.5,0.1,0.7,0.2c1,0.3,1.5-0.9,1-1.6c2.2-3.2,1-10.4,0.1-14c5.9-1.8,12.1-3,18.2-3.7c0.6,0,1-0.6,1-1.2
		C380.6,902.6,380.5,902.3,380.3,902.2z"/>
</g>
<g id="Campiture">
	<rect x="260.1" y="1029" class="st17" width="469.8" height="28.3"/>
	<rect x="729.9" y="618" class="st17" width="21.3" height="507.3"/>
	<rect x="276.4" y="674.7" class="st17" width="21.2" height="354.3"/>
	<rect x="260.1" y="646.3" class="st17" width="469.8" height="28.3"/>
	
		<linearGradient id="SVGID_16_" gradientUnits="userSpaceOnUse" x1="342.48" y1="457.8898" x2="342.48" y2="457.8898" gradientTransform="matrix(1 0 0 -1 0 1187.8898)">
		<stop  offset="1.000000e-02" style="stop-color:#FFFFFF"/>
		<stop  offset="6.000000e-02" style="stop-color:#707477"/>
		<stop  offset="0.22" style="stop-color:#FFFFFF"/>
		<stop  offset="0.34" style="stop-color:#707477"/>
		<stop  offset="0.54" style="stop-color:#FFFFFF"/>
		<stop  offset="0.67" style="stop-color:#9EA2A8"/>
		<stop  offset="1" style="stop-color:#1D1D1B"/>
	</linearGradient>
	<path class="st40" d="M342.5,730L342.5,730L342.5,730z"/>
	
		<linearGradient id="SVGID_17_" gradientUnits="userSpaceOnUse" x1="352.0766" y1="423.2051" x2="352.0766" y2="469.374" gradientTransform="matrix(1 0 0 -1 0 1187.8898)">
		<stop  offset="1.000000e-02" style="stop-color:#FFFFFF"/>
		<stop  offset="6.000000e-02" style="stop-color:#707477"/>
		<stop  offset="0.22" style="stop-color:#FFFFFF"/>
		<stop  offset="0.34" style="stop-color:#707477"/>
		<stop  offset="0.54" style="stop-color:#FFFFFF"/>
		<stop  offset="0.67" style="stop-color:#9EA2A8"/>
		<stop  offset="1" style="stop-color:#1D1D1B"/>
	</linearGradient>
	<path class="st41" d="M376.6,762.3c0.1-0.2,0.2-0.5,0.2-0.7c-0.1-1.1-0.2-2.3-0.4-3.4c0-0.5-0.1-1.1-0.3-1.6c0-0.1,0-0.2,0-0.3
		c-0.3-3.2-1.2-6.2-2.6-9.1c0.1-0.6-0.1-1.3-0.7-1.6c-0.6-1.9-1.5-3.6-2.7-5.2c0-0.2-0.1-0.3-0.2-0.4c-2.2-3.4-4.9-6.6-7.9-9.3
		c-0.1-0.1-0.2-0.2-0.3-0.2c-0.1-0.1-0.2-0.3-0.2-0.4l-0.4-0.3c0-0.3,0-0.6-0.2-0.9c0-0.1-0.1-0.1-0.1-0.2c0-0.3-0.1-0.6-0.2-0.8
		c0-0.6,0-1.2-0.1-1.7c0-0.2,0-0.5-0.1-0.7c0.1-0.2,0.2-0.5,0.2-0.8c-0.1-0.8-0.2-1.5-0.1-2.3c0.1-0.7,0.2-1.3,0.2-2
		c0-0.1,0.1-0.2,0.1-0.3c0.2-0.5,0.1-1-0.1-1.4c-0.2,0.1-0.4,0.1-0.6,0c-0.1,0-0.3,0.1-0.4,0.2c-0.3-0.1-0.6-0.1-0.9,0H359
		c-1.6-0.2-3.2-0.2-4.7,0h-0.1c-0.2-0.1-0.4-0.1-0.6-0.1c-0.1,0-0.3,0-0.4,0.1c-0.2,0-0.3,0-0.5,0.1c-1,0-2-0.1-3.1,0
		c-0.3-0.2-0.6-0.3-0.9-0.3c-1.1,0-2.2,0.1-3.4,0.2H345c-0.1-0.1-0.2-0.2-0.4-0.2c-0.1,0-0.2,0-0.3,0.1l0,0c-0.1,0-0.2,0-0.2,0.1
		c-0.1-0.1-0.2-0.1-0.3-0.1c-0.1,0-0.2,0-0.3,0.1c-0.1-0.1-0.2-0.2-0.4-0.2c-0.3,0-0.5,0.2-0.5,0.5c0,0,0,0,0,0.1
		c0,0.2,0.1,0.3,0.2,0.4c0,0.1,0,0.2,0,0.2c0.1,0.3,0.2,0.7,0.2,1c0,0.2,0,0.5,0.1,0.7c0,0.1,0,0.2,0,0.3c0,0.1,0,0.1,0,0.2
		c0.1,1.1,0.2,2.2,0.1,3.3c-0.1,1-0.3,2-0.4,3c-0.2,0.5-0.4,1-0.4,1.5c0,0.1,0,0.2-0.1,0.2l0.1-0.1l-0.2,0.1l0,0
		c-0.1,0.1-0.2,0.2-0.3,0.3c-0.1,0-0.2,0.1-0.2,0.1c-0.4,0.3-0.7,0.5-1,0.9l-0.1,0.1l-0.2,0.2c-0.2,0.1-0.3,0.2-0.5,0.4
		c-0.1,0.1-0.1,0.2-0.2,0.3c-0.3,0.1-0.6,0.3-0.8,0.5c-0.6,0.7-1.1,1.4-1.5,2.1c-0.2,0.1-0.3,0.3-0.4,0.5c-0.3,0.1-0.5,0.3-0.6,0.5
		c-0.2,0.2-0.4,0.4-0.5,0.7c-0.4,0.5-0.8,1.1-1.1,1.6c-0.2,0.2-0.3,0.5-0.4,0.8c-0.2,0.2-0.4,0.4-0.5,0.7c-0.1,0.1-0.2,0.3-0.3,0.4
		c-0.1,0.1-0.2,0.3-0.2,0.4c-1.1,1.3-1.9,2.7-2.4,4.3c-0.4,0.3-0.6,0.9-0.6,1.4c-0.4,0.7-0.7,1.4-1,2.2c-0.6,1.4-1,2.9-1,4.5
		c0,0,0,0.1,0,0.1c-0.5,1.5-0.7,3.1-0.8,4.7c-0.3,1.6-0.4,3.2-0.4,4.8c0,0.2,0,0.3,0.1,0.4c-0.1,0.2-0.2,0.4-0.1,0.6
		c-0.1,0.2-0.1,0.5,0.2,0.7c0.1,0,0.2,0.1,0.2,0.1c0.1,0,0.3-0.1,0.4-0.2c0.2,0.1,0.5,0.2,0.7,0.2h0.3c0.1,0.1,0.2,0.1,0.3,0.1
		c1.2,0,2.4-0.1,3.6-0.2c0.1,0.2,0.3,0.2,0.5,0.2c0.7-0.1,1.3-0.2,2-0.2c0.3,0,0.5,0,0.8,0c1.2,0.1,2.4,0,3.6,0c0.1,0,0.3,0,0.4,0
		c0.1,0,0.2,0,0.3-0.1h0.3c1.3,0,2.7,0.1,4,0.3c0.1,0.1,0.2,0.1,0.3,0.1c0.1,0,0.2,0,0.2-0.1l1.1,0.1c0.2,0,0.4-0.1,0.5-0.3
		c0,0,0-0.1,0-0.1c0.9,0.1,1.8,0.2,2.7,0.4c0.5,0.1,0.9,0,1.3-0.4c0.1,0,0.2,0,0.3,0c4.8,0,9.7,0,14.5,0.1c0.1,0,0.1,0,0.2,0
		c0.3,0.1,0.5,0.2,0.8,0.2c0.8-0.1,1.7-0.2,2.5-0.3c0,0.2,0.2,0.4,0.5,0.4c0.3,0,0.5-0.2,0.5-0.4c0,0,0,0,0,0h0.2
		c0.2,0.1,0.5,0.2,0.7,0.2c1.3,0.1,2.5,0,3.8-0.2l0,0c0,0.2,0.2,0.4,0.5,0.4c0.1,0,0.2,0,0.3-0.1h0.1c0.3,0,0.5-0.2,0.5-0.5
		c0,0,0-0.1,0-0.1c0-0.2,0-0.3-0.1-0.4c0.1-0.2,0.2-0.5,0.2-0.7C376.7,762.6,376.7,762.4,376.6,762.3z"/>
	
		<linearGradient id="SVGID_18_" gradientUnits="userSpaceOnUse" x1="599.5867" y1="423.2351" x2="599.5867" y2="469.4039" gradientTransform="matrix(1 0 0 -1 0 1187.8898)">
		<stop  offset="1.000000e-02" style="stop-color:#FFFFFF"/>
		<stop  offset="6.000000e-02" style="stop-color:#707477"/>
		<stop  offset="0.22" style="stop-color:#FFFFFF"/>
		<stop  offset="0.34" style="stop-color:#707477"/>
		<stop  offset="0.54" style="stop-color:#FFFFFF"/>
		<stop  offset="0.67" style="stop-color:#9EA2A8"/>
		<stop  offset="1" style="stop-color:#1D1D1B"/>
	</linearGradient>
	<path class="st42" d="M624.1,762.3c0.1-0.2,0.2-0.5,0.2-0.7c-0.1-1.1-0.2-2.3-0.4-3.4c0-0.5-0.1-1.1-0.3-1.6c0-0.1,0-0.2,0-0.3
		c-0.3-3.2-1.2-6.2-2.6-9.1c0.1-0.6-0.1-1.3-0.7-1.6c-0.6-1.9-1.5-3.6-2.7-5.2c0-0.2-0.1-0.3-0.2-0.4c-2.2-3.4-4.9-6.6-7.9-9.3
		c-0.1-0.1-0.2-0.2-0.3-0.2c-0.1-0.1-0.1-0.3-0.2-0.4c-0.1-0.1-0.2-0.2-0.4-0.3c0.1-0.3,0-0.6-0.2-0.9c0-0.1-0.1-0.1-0.1-0.2
		c0-0.3-0.1-0.6-0.2-0.8c0-0.6,0-1.2-0.1-1.7c0-0.2,0-0.5-0.1-0.7c0.1-0.2,0.2-0.5,0.2-0.8c-0.1-0.8-0.2-1.5-0.2-2.3
		c0.1-0.7,0.2-1.3,0.2-2c0.1-0.1,0.1-0.2,0.1-0.3c0.2-0.5,0.1-1-0.1-1.4c-0.2,0.1-0.4,0.1-0.6,0c-0.1,0-0.3,0.1-0.4,0.2
		c-0.3-0.1-0.6-0.1-0.9,0h-0.1c-1.6-0.2-3.2-0.2-4.8,0h-0.1c-0.2-0.1-0.4-0.1-0.7-0.1c-0.1,0-0.3,0-0.4,0.1c-0.2,0-0.3,0-0.5,0.1
		c-1,0-2-0.1-3.1,0c-0.3-0.2-0.6-0.3-0.9-0.3c-1.1,0-2.2,0.1-3.4,0.2h-0.2c-0.1-0.1-0.2-0.2-0.4-0.2c-0.1,0-0.2,0-0.3,0.1l0,0
		c-0.1,0-0.2,0-0.2,0.1c-0.1-0.1-0.2-0.1-0.3-0.1c-0.1,0-0.2,0-0.3,0.1c-0.1-0.1-0.2-0.2-0.4-0.2c-0.3,0-0.5,0.2-0.5,0.5
		c0,0,0,0,0,0.1c0,0.2,0.1,0.3,0.2,0.4c0,0.1,0,0.2,0,0.2c0.1,0.3,0.2,0.7,0.2,1c0,0.2,0,0.5,0.1,0.7c0,0.1,0,0.2,0,0.3
		c0,0.1,0,0.1,0,0.2c0.1,1.1,0.2,2.2,0.1,3.3c-0.1,1-0.3,2-0.3,3c-0.2,0.3-0.3,0.6-0.3,0.9c0,0.2-0.1,0.4-0.1,0.6
		c0,0.1,0,0.1-0.1,0.2c0,0,0.1-0.1,0.1-0.1L590,730l0,0c-0.1,0.1-0.2,0.2-0.3,0.3l-0.2,0.1c-0.4,0.3-0.7,0.6-1,0.9
		c0,0-0.1,0.1-0.1,0.1l-0.2,0.2c-0.2,0.1-0.3,0.2-0.5,0.4c-0.1,0.1-0.1,0.2-0.2,0.3c-0.3,0.1-0.6,0.3-0.8,0.5
		c-0.6,0.7-1.1,1.4-1.5,2.1c-0.2,0.1-0.3,0.3-0.4,0.5c-0.3,0.1-0.5,0.3-0.6,0.5c-0.2,0.2-0.4,0.4-0.5,0.7c-0.4,0.5-0.8,1.1-1.2,1.6
		c-0.2,0.2-0.3,0.5-0.3,0.8c-0.2,0.2-0.4,0.4-0.5,0.7c-0.1,0.1-0.2,0.3-0.3,0.4c-0.1,0.1-0.2,0.3-0.2,0.4c-1.1,1.3-1.9,2.7-2.4,4.3
		c-0.4,0.3-0.6,0.9-0.6,1.4c-0.4,0.7-0.7,1.4-1,2.2c-0.6,1.4-1,2.9-1.1,4.5c0,0,0,0.1,0,0.1c-0.5,1.5-0.7,3.1-0.8,4.7
		c-0.3,1.6-0.4,3.2-0.3,4.8c0,0.2,0,0.3,0.1,0.4c-0.1,0.2-0.2,0.4-0.1,0.6c-0.1,0.2-0.1,0.5,0.2,0.7c0.1,0,0.2,0.1,0.2,0.1
		c0.1,0,0.3-0.1,0.4-0.2c0.2,0.1,0.5,0.2,0.7,0.2c0.1,0,0.2,0,0.3,0c0.1,0.1,0.2,0.1,0.3,0.1c1.2,0,2.4-0.1,3.6-0.2
		c0.1,0.2,0.3,0.2,0.5,0.2c0.7-0.1,1.3-0.2,2-0.2c0.3,0,0.5,0,0.8,0c1.2,0.1,2.4,0,3.6,0c0.1,0,0.3,0,0.4,0c0.1,0,0.2,0,0.3-0.1h0.2
		c1.3,0,2.7,0.1,4,0.3c0.1,0.1,0.2,0.1,0.3,0.1c0.1,0,0.2,0,0.2-0.1l1.2,0.1c0.2,0,0.4-0.1,0.5-0.3c0,0,0-0.1,0-0.1
		c0.9,0.1,1.8,0.2,2.7,0.4c0.5,0.1,0.9,0,1.3-0.4c0.1,0,0.2,0,0.3,0c4.8,0,9.7,0,14.5,0.1c0.1,0,0.1,0,0.2,0
		c0.3,0.1,0.5,0.2,0.8,0.2c0.8-0.1,1.7-0.2,2.5-0.3c0,0.2,0.2,0.4,0.5,0.4c0.3,0,0.5-0.2,0.5-0.4c0,0,0,0,0,0h0.2
		c0.2,0.1,0.5,0.2,0.7,0.2c1.3,0.1,2.5,0,3.8-0.2l0,0c0,0.2,0.2,0.4,0.5,0.4c0.1,0,0.2,0,0.3-0.1h0.1c0.3,0,0.5-0.2,0.5-0.5
		c0,0,0-0.1,0-0.1c0-0.2,0-0.3-0.1-0.4c0.1-0.2,0.2-0.5,0.2-0.7C624.1,762.6,624.1,762.4,624.1,762.3z"/>
	
		<linearGradient id="SVGID_19_" gradientUnits="userSpaceOnUse" x1="342.53" y1="506.1598" x2="361.55" y2="506.1598" gradientTransform="matrix(1 0 0 -1 0 1187.8898)">
		<stop  offset="1.000000e-02" style="stop-color:#FFFFFF"/>
		<stop  offset="6.000000e-02" style="stop-color:#707477"/>
		<stop  offset="0.22" style="stop-color:#FFFFFF"/>
		<stop  offset="0.34" style="stop-color:#707477"/>
		<stop  offset="0.54" style="stop-color:#FFFFFF"/>
		<stop  offset="0.67" style="stop-color:#9EA2A8"/>
		<stop  offset="1" style="stop-color:#1D1D1B"/>
	</linearGradient>
	<path class="st43" d="M361.4,676.6c0,0,0-0.1,0-0.1c0.3-0.5,0.2-1.1-0.3-1.4c-0.4-0.3-0.9-0.2-1.2,0.1c0,0-0.1,0.1-0.2,0.1
		l-0.1-0.2l-0.2-0.2c-0.3-0.3-0.6-0.4-1-0.3c-0.3,0.1-0.6,0.3-0.9,0.6c-0.6,0-1.1-0.1-1.4-0.1c-1.5,0-3,0-4.5,0
		c-2.8-0.1-5.5-0.2-8.3-0.3c-0.6,0-1,0.5-0.9,1c0,0.2,0.1,0.4,0.2,0.6c-0.3,1.5-0.3,3.1,0,4.6c-0.1,0.2-0.2,0.5-0.1,0.8
		c0.4,1.4,1.1,2.7,2.1,3.8c0.1,0.1,0.1,0.1,0.2,0.2c0.1,0.1,0.2,0.3,0.3,0.4c0.1,0.2,0.3,0.3,0.6,0.3c0.3,0.8,1.1,1.4,2,1.3
		c2.9,1.5,6.5,1.4,9.3-0.5c1.1-0.7,2.1-1.7,2.7-2.9c0.4-0.2,0.7-0.6,0.6-1.1c0.1-0.1,0.2-0.2,0.2-0.4l0.2-0.6
		c0.4-0.8,0.6-1.7,0.5-2.6c0-0.1,0-0.2-0.1-0.2C361.4,678.6,361.4,677.6,361.4,676.6z"/>
	
		<linearGradient id="SVGID_20_" gradientUnits="userSpaceOnUse" x1="589.87" y1="506.2837" x2="609.1138" y2="506.2837" gradientTransform="matrix(1 0 0 -1 0 1187.8898)">
		<stop  offset="1.000000e-02" style="stop-color:#FFFFFF"/>
		<stop  offset="6.000000e-02" style="stop-color:#707477"/>
		<stop  offset="0.22" style="stop-color:#FFFFFF"/>
		<stop  offset="0.34" style="stop-color:#707477"/>
		<stop  offset="0.54" style="stop-color:#FFFFFF"/>
		<stop  offset="0.67" style="stop-color:#9EA2A8"/>
		<stop  offset="1" style="stop-color:#1D1D1B"/>
	</linearGradient>
	<path class="st44" d="M609,676.9c0-0.1-0.1-0.2-0.1-0.3c0.1-0.1,0.1-0.3,0.2-0.4c0.2-0.5-0.1-1.1-0.6-1.3c-0.1,0-0.2-0.1-0.3-0.1
		c-0.6,0-1.2,0-1.8,0.1c-0.2-0.2-0.4-0.3-0.7-0.3h-3.8c-0.3,0-0.6,0.1-0.7,0.4c-0.7-0.1-1.4-0.2-2-0.2c-2.7-0.2-5.3-0.3-8-0.4
		c-0.6,0-1,0.5-1,1c0,0.1,0,0.2,0,0.3c-0.2,0.2-0.3,0.4-0.2,0.7c0.1,1.6,0.3,3.1,0.6,4.7c0,0.1-0.1,0.2,0,0.3c0,0.5,0.1,0.9,0.4,1.3
		c1.8,4.8,7.1,7.3,12,5.5c1-0.4,2-0.9,2.8-1.6c0.1,0,0.2,0,0.2-0.1c1.3-0.6,2.2-2.3,2.7-3.6C609.2,681,609.4,678.9,609,676.9z"/>
	<path class="st45" d="M350.2,915.7c0.1-0.2,0.1-0.5,0-0.8c-0.4-0.8-0.8-1.5-1.3-2.2c-0.3-0.6-0.6-1.2-0.9-1.7
		c-0.1-0.2-0.3-0.3-0.5-0.4c-0.3-0.4-0.6-0.8-0.9-1.1c-0.1-0.1-0.2-0.2-0.3-0.2c-0.2-0.3-0.5-0.6-0.7-0.9c-0.2-0.2-0.5-0.4-0.8-0.4
		c-0.1-0.3-0.4-0.5-0.7-0.6c-0.1-0.1-0.3-0.1-0.5-0.1c-0.1-0.4-0.5-0.7-0.9-0.6h-0.1c-0.1,0-0.1-0.1-0.2-0.1
		c-1.7-0.9-3.6-1.5-5.5-1.7c-0.2,0-0.4,0-0.5,0.1c-1.3-0.1-2.6,0-3.8,0.3c-0.1,0-0.1,0-0.2,0c-0.2,0-0.4,0-0.5,0.1
		c-0.1,0-0.2,0-0.3,0c-0.3,0-0.6,0.1-0.8,0.4h-0.2c-0.1,0-0.2-0.1-0.3-0.1c-0.3,0-0.6,0.1-0.8,0.4c-0.5,0.1-0.9,0.4-1.3,0.8l0,0
		c-0.5,0.2-1,0.5-1.4,0.9c-0.2,0.1-0.3,0.2-0.4,0.3c-1.9,1.3-3.4,3.1-4.4,5.2c0,0.1,0,0.1-0.1,0.2c-1.5,2.5-2,5.4-1.3,8.3
		c0.1,0.5,0.5,0.8,1,0.7l0.3,0.2c0.1,0.1,0.2,0.1,0.4,0.1c0.1,0.3,0.5,0.5,0.8,0.5h0.5h0.1h23l1.6,0.2c0.4,0.1,0.7-0.2,0.9-0.5h0.1
		c0.4,0,0.7-0.2,0.9-0.5c0.4-0.1,0.7-0.5,0.7-1v0c0.1-0.2,0.1-0.4,0.1-0.6v-0.1C350.9,918.8,350.7,917.2,350.2,915.7z"/>
	<path class="st45" d="M365.9,896.4c0.1-0.1,0.1-0.3,0.1-0.5v-38c0.2-0.4,0.2-0.9-0.1-1.2c-0.1-0.2-0.2-0.3-0.4-0.3c0,0-0.1,0-0.1,0
		h-0.1c-0.1,0-0.3,0-0.4,0.1h-14.4c-0.1-0.1-0.3-0.1-0.4-0.1H306h-0.1c-0.1-0.1-0.2-0.1-0.3-0.1c-0.3,0-0.5,0.2-0.5,0.5
		c0,0.1,0,0.1,0,0.2c-0.1,0.3-0.1,0.7,0.1,1c0,0,0,0.1,0,0.1v37.8c0,0.1,0,0.3,0.1,0.4c-0.2,0.2-0.3,0.5-0.3,0.8l0,0
		c0,0.2,0.1,0.5,0.2,0.7l0,0c0.1,0.1,0.1,0.1,0.2,0.2c0,0,0,0,0.1,0.1c0.1,0.1,0.3,0.1,0.4,0.1h13.5c0.2,0,0.4-0.1,0.5-0.2h45h0.1
		c0.1,0.1,0.2,0.2,0.4,0.2c0.3,0,0.5-0.2,0.5-0.5c0-0.1-0.1-0.2-0.1-0.3C365.9,897,366,896.7,365.9,896.4z M364,895.8h-56.8l0,0
		v-37.3H364L364,895.8z"/>
	<path class="st46" d="M343.1,915.9c-0.2-0.1-0.4-0.2-0.6-0.2h-5.9c-0.1,0-0.2,0-0.3,0h-0.5h-7.1c-0.1,0-0.3,0-0.4,0.1l-0.1,0.1
		c-0.1,0-0.1,0.1-0.2,0.1c-0.1,0.1-0.2,0.2-0.2,0.3l0,0c-0.1,0-0.1,0.1-0.1,0.2c-0.4,0.4-0.4,1,0,1.4c0.2,0.2,0.4,0.3,0.7,0.3
		c1.8-0.1,3.5-0.2,5.3-0.3h8.3c0.2,0.2,0.5,0.4,0.8,0.4c0.5,0,1-0.4,1-0.9c0,0,0-0.1,0-0.1C344,916.7,343.7,916.2,343.1,915.9
		C343.2,916,343.1,915.9,343.1,915.9z"/>
	<path class="st46" d="M337,911.3c0-0.2-0.1-0.3-0.2-0.5c0-0.1,0-0.1,0-0.2c0.2-0.2,0.3-0.5,0.1-0.7c-0.1-0.1-0.2-0.2-0.4-0.2
		c-0.1,0-0.2,0-0.2,0c-0.1-0.1-0.3-0.1-0.4-0.1c-0.2,0-0.4,0.1-0.5,0.2c-0.2-0.1-0.4-0.2-0.6-0.2c-0.8,0.5-1,1.6-0.5,2.4
		c0.1,0.4,0.5,0.7,0.9,0.7c0.2,0,0.3,0,0.5-0.1c0.1,0.1,0.3,0.1,0.5,0.1c0.6,0,1-0.5,1-1C337.1,911.5,337,911.4,337,911.3z"/>
	<path class="st46" d="M363.5,858.7H357c-0.1-0.1-0.2-0.1-0.3-0.1h-48.8c-0.3,0-0.5,0.2-0.5,0.5c0,0.1,0,0.2,0.1,0.2v35.6
		c0,0.1,0,0.1,0,0.2c-0.2,0.2-0.2,0.5,0,0.7c0.1,0.1,0.2,0.1,0.3,0.1c0.1,0,0.2,0,0.2-0.1h27.4c-0.2,0-0.5,0-0.7,0
		c-0.1,0-0.2,0-0.2,0.1l-0.5-0.1c-0.3-0.1-0.5,0.1-0.6,0.4c0,0.1,0,0.2,0,0.2c-0.2,0.2-0.3,0.5-0.1,0.7c0.1,0.1,0.1,0.1,0.2,0.2
		c-0.2,1.5-0.5,3.9,0.6,5c0,0.1,0,0.1,0.1,0.2c0,0.1,0,0.1,0,0.2v1.7c0,0.3,0.2,0.5,0.5,0.5c0.1,0,0.3-0.1,0.4-0.2l0.2-0.1v0.1
		c0.1,0.3,0.4,0.4,0.7,0.3c0.1,0,0.2-0.1,0.3-0.2l0,0c0.2,0.5,1,0.5,1-0.1c0-0.8,0-1.6-0.1-2.3c0.1-0.1,0.1-0.2,0.1-0.3
		c0.3-0.1,0.4-0.4,0.2-0.7c0,0,0,0,0-0.1c0.3-0.1,0.4-0.4,0.3-0.6c0-0.1-0.1-0.2-0.1-0.2c0-0.4,0.1-0.8,0.1-1.2
		c0.1-0.8,0.1-1.5-0.1-2.3c0,0,0,0,0-0.1c0.2-0.1,0.2-0.3,0.2-0.5v-0.1c-0.1-0.3-0.3-0.4-0.6-0.3c0,0-0.1,0-0.1,0
		c-0.3-0.1-0.6-0.1-0.9-0.1h26.2v0.3c0,0.3,0.2,0.5,0.5,0.5s0.5-0.2,0.5-0.5v-0.1c0.2-0.1,0.3-0.2,0.3-0.4c0.1-0.1,0.2-0.2,0.2-0.4
		v-35.7c0.1-0.2,0-0.5-0.2-0.7C363.7,858.7,363.6,858.7,363.5,858.7z M308.7,860.2c1-0.1,2-0.2,3-0.2c0.1,0.2,0.3,0.3,0.5,0.2
		c0.4-0.1,0.9-0.2,1.3-0.2c0.1,0.1,0.2,0.2,0.4,0.2h48c0.2,0,0.4-0.2,0.5-0.4h0.1c-0.1,0.1-0.1,0.2-0.1,0.3v34.3h-53.5V865
		c0.1-0.1,0.1-0.2,0.1-0.3v-2.5c0-0.2-0.1-0.4-0.3-0.4C308.7,861.2,308.7,860.7,308.7,860.2z"/>
	<path class="st45" d="M337.3,904.8c-2.3-0.4-4.7-0.1-6.9,0.8c-0.6,0.3-0.1,1.1,0.5,0.9c1.9-0.8,4.1-1.1,6.1-0.8
		C337.6,905.9,337.9,904.9,337.3,904.8z"/>
	<path class="st45" d="M364.6,895.8l-2.1,0.1c-0.6,0-0.6,1,0,1l2.1-0.1C365.2,896.8,365.2,895.8,364.6,895.8z"/>
	<path class="st47" d="M324.5,778c0-0.5,0-0.9,0.1-1.4c0-0.6-0.5-1-1-1c-0.2,0-0.4,0.1-0.6,0.2h-23.9c-0.2-0.2-0.4-0.3-0.6-0.2
		c-0.6,0-1,0.5-1,1c0,0.3,0.1,0.5,0.3,0.7c-0.3,0.3-0.4,0.6-0.3,1c-0.1,0.5,0.2,1.1,0.7,1.2c0.1,0,0.1,0,0.2,0
		c0.2,0,0.4-0.1,0.6-0.2h24c0.2,0.1,0.4,0.2,0.5,0.2c0.6,0,1-0.5,1-1C324.6,778.4,324.6,778.2,324.5,778z"/>
	<path class="st47" d="M324.5,837.7c0.4-0.4,0.4-1-0.1-1.4c-0.2-0.2-0.4-0.3-0.7-0.3h-25.5c-0.8,1.1-0.7,2.5,0.2,3.5h24.7
		c0.1,0.1,0.3,0.1,0.5,0.1c0.6,0,1-0.5,1-1c0-0.2-0.1-0.4-0.2-0.5C324.6,838,324.6,837.9,324.5,837.7z"/>
</g>
<g id="Sezione_A">
	<polyline class="st48" points="351.1,1015.6 431.9,1015.6 431.9,1021.3 351.1,1021.3 351.1,1015.6 	"/>
	<line class="st48" x1="354" y1="1021.3" x2="354" y2="1022.7"/>
	<path class="st48" d="M359.2,1025c0-1.7-1.4-3.1-3.1-3.1c-1.7,0-3.1,1.4-3.1,3.1c0,1.7,1.4,3.1,3.1,3.1c0,0,0,0,0,0
		C357.8,1028.1,359.2,1026.7,359.2,1025"/>
	<line class="st48" x1="358.2" y1="1021.3" x2="358.2" y2="1022.7"/>
	<line class="st48" x1="428.9" y1="1021.3" x2="428.9" y2="1022.7"/>
	<path class="st48" d="M429.9,1025c0-1.7-1.4-3.1-3.1-3.1c-1.7,0-3.1,1.4-3.1,3.1c0,1.7,1.4,3.1,3.1,3.1c0,0,0,0,0,0
		C428.5,1028.1,429.9,1026.7,429.9,1025"/>
	<line class="st48" x1="424.7" y1="1021.3" x2="424.7" y2="1022.7"/>
	<polyline class="st48" points="376.6,1022.7 376.6,1021.3 376.6,1022.7 	"/>
	<line class="st48" x1="380.8" y1="1021.3" x2="380.8" y2="1022.7"/>
	<path class="st48" d="M376.6,1022.7c-0.5,1.2-0.5,2.5-0.3,3.7c0.3,1.2,0.9,1.9,1.5,1.5s1-1.6,1-3"/>
	<path class="st48" d="M378.6,1025c0,1.7,0.6,3.1,1.3,3.1s1.3-1.4,1.3-3.1"/>
	<line class="st48" x1="376.2" y1="1025" x2="381.2" y2="1025"/>
	<path class="st48" d="M378.6,1025c0,1.4,0.4,2.6,1,3s1.2-0.3,1.5-1.5c0.3-1.2,0.2-2.5-0.3-3.7"/>
	<path class="st48" d="M376.2,1025c0,1.7,0.6,3.1,1.3,3.1s1.3-1.4,1.3-3.1"/>
	<line class="st48" x1="381.2" y1="1025" x2="376.2" y2="1025"/>
	<line class="st48" x1="387.9" y1="1015.6" x2="387.9" y2="971.3"/>
	<polyline class="st48" points="395,1015.6 395,971.3 387.9,971.3 	"/>
	<line class="st48" x1="389.3" y1="958.6" x2="389.3" y2="971.3"/>
	<line class="st48" x1="393.6" y1="958.6" x2="393.6" y2="971.3"/>
	<path class="st48" d="M359.6,954.3c20.9,5.7,42.9,5.7,63.8,0"/>
	<line class="st48" x1="359.6" y1="954.3" x2="359.6" y2="950.1"/>
	<line class="st48" x1="423.4" y1="954.3" x2="423.4" y2="950.1"/>
	<path class="st48" d="M359.7,927.6c-1.6,7.4-1.7,15.1-0.1,22.5"/>
	<path class="st48" d="M359.7,927.6c2.7-6.3,3.3-13.3,1.6-19.9"/>
	<path class="st48" d="M391.5,902.5c-10.2,0.8-20.3,2.5-30.1,5.2"/>
	<path class="st48" d="M423.4,950.1c1.5-7.4,1.5-15.1-0.1-22.5"/>
	<path class="st48" d="M421.6,907.7c-1.6,6.7-1,13.6,1.6,19.9"/>
	<path class="st48" d="M421.6,907.7c-9.8-2.7-19.9-4.4-30.1-5.2"/>
	<line class="st48" x1="577.9" y1="746.8" x2="516.8" y2="746.8"/>
	<line class="st48" x1="516.8" y1="749.7" x2="576.9" y2="749.7"/>
	<line class="st48" x1="591.3" y1="825.5" x2="516.8" y2="825.5"/>
	<line class="st48" x1="516.8" y1="828.3" x2="591.3" y2="828.3"/>
	<line class="st48" x1="591.3" y1="911.4" x2="516.8" y2="911.4"/>
	<line class="st48" x1="516.8" y1="914.2" x2="591.3" y2="914.2"/>
	<line class="st48" x1="591.3" y1="1007.8" x2="516.8" y2="1007.8"/>
	<line class="st48" x1="516.8" y1="1010.7" x2="591.3" y2="1010.7"/>
	<line class="st48" x1="508.7" y1="1028" x2="508.7" y2="742.6"/>
	<polyline class="st48" points="508.7,742.6 516.8,742.6 516.8,1028 508.7,1028 	"/>
	<line class="st48" x1="591.3" y1="1028" x2="591.3" y2="764.4"/>
	<polyline class="st48" points="599.4,764.4 599.4,1028 591.3,1028 	"/>
	<line class="st49" x1="260.1" y1="674.7" x2="276.4" y2="674.7"/>
	<line class="st50" x1="297.6" y1="674.7" x2="729.9" y2="674.7"/>
	<line class="st50" x1="297.6" y1="1029" x2="729.9" y2="1029"/>
	<line class="st50" x1="751.2" y1="618" x2="751.2" y2="1125.3"/>
	<line class="st50" x1="297.6" y1="674.7" x2="297.6" y2="1029"/>
	<line class="st49" x1="260.1" y1="674.7" x2="276.4" y2="674.7"/>
	<line class="st50" x1="276.4" y1="1029" x2="276.4" y2="674.7"/>
	<line class="st50" x1="729.9" y1="674.7" x2="729.9" y2="1029"/>
	<line class="st48" x1="725.6" y1="746.8" x2="725.6" y2="1028"/>
	<line class="st50" x1="729.9" y1="1029" x2="729.9" y2="771.9"/>
	<polyline class="st48" points="690.1,742.6 690.1,1028 694.4,1028 694.4,746.8 694.4,742.6 	"/>
	<line class="st48" x1="725.6" y1="747.8" x2="725.6" y2="743.6"/>
	<line class="st48" x1="694.4" y1="746.8" x2="725.6" y2="746.8"/>
	<line class="st48" x1="725.6" y1="853.8" x2="725.6" y2="856.7"/>
	<line class="st48" x1="725.6" y1="749.7" x2="694.4" y2="749.7"/>
	<line class="st48" x1="694.4" y1="911.4" x2="725.6" y2="911.4"/>
	<line class="st48" x1="725.6" y1="939.8" x2="725.6" y2="942.6"/>
	<line class="st48" x1="725.6" y1="914.2" x2="694.4" y2="914.2"/>
	<line class="st48" x1="694.4" y1="1007.8" x2="725.6" y2="1007.8"/>
	<line class="st48" x1="725.6" y1="1010.7" x2="694.4" y2="1010.7"/>
	<line class="st48" x1="682.1" y1="746.8" x2="621.2" y2="746.8"/>
	<line class="st48" x1="622.2" y1="749.7" x2="682.1" y2="749.7"/>
	<line class="st48" x1="682.1" y1="825.5" x2="607.5" y2="825.5"/>
	<line class="st48" x1="607.5" y1="828.3" x2="682.1" y2="828.3"/>
	<line class="st48" x1="682.1" y1="911.4" x2="607.5" y2="911.4"/>
	<line class="st48" x1="607.5" y1="914.2" x2="682.1" y2="914.2"/>
	<line class="st48" x1="682.1" y1="1007.8" x2="607.5" y2="1007.8"/>
	<line class="st48" x1="607.5" y1="1010.7" x2="682.1" y2="1010.7"/>
	<line class="st48" x1="599.4" y1="1028" x2="599.4" y2="764.4"/>
	<polyline class="st48" points="607.5,764.4 607.5,1028 599.4,1028 	"/>
	<line class="st48" x1="682.1" y1="1028" x2="682.1" y2="742.6"/>
	<polyline class="st48" points="682.1,742.6 690.1,742.6 690.1,1028 682.1,1028 	"/>
	<line class="st48" x1="690.1" y1="742.6" x2="694.4" y2="742.6"/>
	<line class="st48" x1="467.3" y1="1028" x2="467.3" y2="923.2"/>
	<line class="st48" x1="297.6" y1="923.2" x2="361.2" y2="923.2"/>
	<polyline class="st48" points="421.7,923.2 467.3,923.2 467.3,928.8 	"/>
	<line class="st48" x1="359.5" y1="928.8" x2="297.6" y2="928.8"/>
	<polyline class="st48" points="423.6,929.5 467.3,929.5 467.3,928.8 	"/>
	<line class="st48" x1="297.6" y1="929.5" x2="359.3" y2="929.5"/>
	<polyline class="st48" points="423.7,930.2 467.3,930.2 467.3,929.5 	"/>
	<polyline class="st48" points="467.3,932 467.3,930.2 467.3,923.2 467.3,930.2 467.3,947.2 423.9,947.2 	"/>
	<line class="st48" x1="297.6" y1="946.5" x2="359" y2="946.5"/>
	<line class="st48" x1="303.3" y1="946.5" x2="303.3" y2="1028"/>
	<polyline class="st48" points="467.3,947.2 461.7,947.2 461.7,1028 	"/>
	<line class="st49" x1="318.9" y1="731.4" x2="318.9" y2="747.4"/>
	<line class="st49" x1="318.9" y1="807" x2="318.9" y2="816"/>
	<line class="st49" x1="318.9" y1="839.5" x2="318.9" y2="856.4"/>
	<line class="st49" x1="432.3" y1="901.5" x2="404.1" y2="901.5"/>
	<line class="st49" x1="401.6" y1="901.5" x2="398.6" y2="901.5"/>
	<line class="st49" x1="397" y1="901.5" x2="395.8" y2="901.5"/>
	<line class="st49" x1="393.9" y1="901.5" x2="391.7" y2="901.5"/>
	<line class="st49" x1="380.5" y1="901.5" x2="337.6" y2="901.5"/>
	<line class="st49" x1="428" y1="735.6" x2="367.2" y2="735.6"/>
	<line class="st49" x1="336.8" y1="735.6" x2="323.1" y2="735.6"/>
	<line class="st49" x1="428" y1="897.2" x2="404.1" y2="897.2"/>
	<line class="st49" x1="402.4" y1="897.2" x2="390.9" y2="897.2"/>
	<line class="st49" x1="389.1" y1="897.2" x2="389" y2="897.2"/>
	<line class="st49" x1="387" y1="897.2" x2="385.4" y2="897.2"/>
	<line class="st49" x1="383.7" y1="897.2" x2="383.4" y2="897.2"/>
	<line class="st49" x1="381.6" y1="897.2" x2="366" y2="897.2"/>
	<line class="st49" x1="323.1" y1="735.6" x2="323.1" y2="775.7"/>
	<line class="st49" x1="323.1" y1="779.3" x2="323.1" y2="812.2"/>
	<polyline class="st49" points="428,735.6 428,812.2 323.1,812.2 	"/>
	<line class="st49" x1="432.3" y1="816.4" x2="321.9" y2="816.4"/>
	<line class="st49" x1="323.1" y1="816.4" x2="323.1" y2="836"/>
	<line class="st49" x1="323.1" y1="839.5" x2="323.1" y2="856.4"/>
	<line class="st49" x1="428" y1="816.4" x2="428" y2="876.1"/>
	<line class="st49" x1="428" y1="886.7" x2="428" y2="897.2"/>
	<line class="st49" x1="318.9" y1="731.4" x2="340.7" y2="731.4"/>
	<polyline class="st49" points="363.3,731.4 432.3,731.4 432.3,877.8 	"/>
	<line class="st50" x1="432.3" y1="880.8" x2="432.3" y2="881.3"/>
	<line class="st49" x1="432.3" y1="887.3" x2="432.3" y2="901.5"/>
	<text transform="matrix(0.8 0 0 1 309.8599 1113.2101)" class="st51 st52">SEZIONE A</text>
	<line class="st48" x1="725.6" y1="743.6" x2="729.9" y2="743.6"/>
	<polyline class="st30" points="297.6,1029 297.6,1028 729.9,1028 729.9,1029 	"/>
	<polyline class="st53" points="463.8,878.5 467.8,877 467.9,878.2 	"/>
	<polyline class="st53" points="445.2,923 464.6,923 464.6,922 445.2,922 445.2,923 	"/>
	<polyline class="st53" points="464.6,922 464.2,921.8 462.8,921.8 456.4,921.5 453.3,921.5 447,921.8 445.6,921.8 445.2,922 	"/>
	<polyline class="st53" points="464.2,923 445.6,923 445.6,923.2 464.2,923.2 464.2,923 	"/>
	<polyline class="st53" points="454.7,920.5 454,920.5 454,921.5 455.8,921.5 455.8,920.5 455.2,920.5 	"/>
	<path class="st53" d="M454.2,919.8c0,0.4,0.3,0.8,0.8,0.8s0.8-0.3,0.8-0.8c0-0.4-0.3-0.8-0.8-0.8c0,0,0,0,0,0
		C454.5,919,454.2,919.3,454.2,919.8L454.2,919.8"/>
	<line class="st53" x1="454.7" y1="919" x2="467.4" y2="879.4"/>
	<line class="st53" x1="468.1" y1="879.6" x2="455.4" y2="919.2"/>
	<path class="st53" d="M467.3,878.9c0,0.4,0.3,0.7,0.7,0.7s0.7-0.3,0.7-0.7c0-0.4-0.3-0.7-0.7-0.7c0,0,0,0,0,0
		C467.6,878.2,467.3,878.5,467.3,878.9"/>
	<line class="st53" x1="434.4" y1="879.2" x2="467.3" y2="879.2"/>
	<line class="st53" x1="434.4" y1="878.5" x2="467.4" y2="878.5"/>
	<polyline class="st53" points="431.5,879.1 431.1,878.3 432.2,877.8 432.6,878.5 	"/>
	<polyline class="st53" points="426.6,876.2 426.3,878.4 430.9,879.1 	"/>
	<path class="st53" d="M427.1,875.9c-0.2,0-0.4,0.1-0.4,0.3"/>
	<line class="st53" x1="431" y1="876.5" x2="427" y2="875.9"/>
	<path class="st53" d="M431.2,876.9c0-0.1,0-0.2,0-0.2c0-0.1-0.1-0.1-0.2-0.2"/>
	<line class="st53" x1="430.9" y1="879.1" x2="431.1" y2="876.9"/>
	<polyline class="st53" points="426.3,878.4 425.8,878.7 425.4,879 425.1,879.3 424.8,879.6 424.5,879.9 424.3,880.1 424.2,880.4 
		424,880.7 423.8,881 423.6,881.4 423.5,881.8 423.3,882.3 423,882.9 422.8,883.7 422.5,884.6 422.1,885.8 	"/>
	<polyline class="st53" points="432.7,887.4 432.7,886.2 432.7,885.2 432.6,884.3 432.6,883.7 432.6,883.1 432.5,882.7 432.5,882.3 
		432.4,882 432.4,881.7 432.3,881.5 432.2,881.2 432.2,881 432.1,880.8 432,880.7 431.9,880.4 431.8,880.3 431.7,880.1 431.6,879.9 
		431.5,879.7 431.3,879.5 431.2,879.4 431.1,879.3 431,879.2 430.9,879.1 	"/>
	<line class="st53" x1="422.1" y1="885.8" x2="432.7" y2="887.4"/>
	<line class="st53" x1="433.7" y1="879.5" x2="432.1" y2="880.9"/>
	<line class="st53" x1="433.2" y1="878.2" x2="431.1" y2="879.3"/>
	<path class="st53" d="M433,878.7c0,0.4,0.3,0.8,0.8,0.8s0.8-0.3,0.8-0.8c0-0.4-0.3-0.8-0.8-0.8c0,0,0,0,0,0
		C433.3,878,433,878.3,433,878.7L433,878.7"/>
	<polyline class="st48" points="464.2,923.2 467.3,923.2 467.6,923.4 468.6,926.1 468.6,931.8 469.9,935.2 471,941.4 470.7,949.9 
		467.3,975.6 	"/>
	<polyline class="st48" points="464.2,922.4 467.7,922.4 468.2,923.1 469.3,926 469.3,931.7 470.6,935 471.7,941.3 471.4,949.9 
		468,975.7 467.3,981.2 	"/>
	<line class="st48" x1="461.7" y1="994.5" x2="460.5" y2="997.4"/>
	<line class="st48" x1="461.7" y1="992.7" x2="459.9" y2="996.8"/>
	<line class="st48" x1="460.5" y1="997.4" x2="452.8" y2="999.7"/>
	<line class="st48" x1="459.9" y1="996.8" x2="452.7" y2="999"/>
	<line class="st48" x1="452.8" y1="999.7" x2="445.1" y2="998.9"/>
	<line class="st48" x1="452.7" y1="999" x2="445.3" y2="998.2"/>
	<line class="st48" x1="445.1" y1="998.9" x2="441.3" y2="998"/>
	<line class="st48" x1="445.3" y1="998.2" x2="441.3" y2="997.4"/>
	<line class="st48" x1="694.4" y1="825.5" x2="725.6" y2="825.5"/>
	<line class="st48" x1="725.6" y1="828.3" x2="694.4" y2="828.3"/>
	<line class="st48" x1="590.1" y1="718.7" x2="599.6" y2="718.7"/>
	<path class="st48" d="M590.1,729.8c-10.1,8.6-15.6,21.4-15.1,34.6"/>
	<path class="st48" d="M590.1,729.7c1-3.6,1-7.5,0-11.1"/>
	<line class="st48" x1="609" y1="718.7" x2="599.6" y2="718.7"/>
	<path class="st48" d="M624.2,764.4c0.5-13.3-5.1-26-15.2-34.6"/>
	<path class="st48" d="M609.1,718.6c-1,3.6-1,7.5,0,11.1"/>
	<line class="st48" x1="575" y1="764.4" x2="624.2" y2="764.4"/>
	<line class="st48" x1="599.6" y1="718.7" x2="599.6" y2="689"/>
	<line class="st48" x1="590.1" y1="674.7" x2="609" y2="674.7"/>
	<path class="st48" d="M590.1,679.5c-0.2,5.2,3.9,9.6,9.2,9.8c5.2,0.2,9.6-3.9,9.8-9.2c0-0.2,0-0.4,0-0.6"/>
	<line class="st48" x1="609" y1="674.7" x2="609" y2="679.5"/>
	<line class="st48" x1="590.1" y1="674.7" x2="590.1" y2="679.5"/>
	<line class="st48" x1="342.5" y1="718.7" x2="352" y2="718.7"/>
	<path class="st48" d="M342.5,729.8c-10.1,8.6-15.7,21.4-15.1,34.6"/>
	<path class="st48" d="M342.5,729.7c1-3.6,1-7.5,0-11.1"/>
	<line class="st48" x1="361.5" y1="718.7" x2="352" y2="718.7"/>
	<path class="st48" d="M376.6,764.4c0.5-13.3-5.1-26-15.1-34.6"/>
	<path class="st48" d="M361.5,718.6c-1,3.6-1,7.5,0,11.1"/>
	<line class="st48" x1="327.4" y1="764.4" x2="376.6" y2="764.4"/>
	<line class="st48" x1="352" y1="718.7" x2="352" y2="689"/>
	<line class="st48" x1="342.5" y1="674.7" x2="361.5" y2="674.7"/>
	<path class="st48" d="M342.5,679.5c-0.2,5.2,3.9,9.6,9.2,9.8c5.2,0.2,9.6-3.9,9.8-9.2c0-0.2,0-0.4,0-0.6"/>
	<line class="st48" x1="361.5" y1="674.7" x2="361.5" y2="679.5"/>
	<line class="st48" x1="342.5" y1="674.7" x2="342.5" y2="679.5"/>
	<path class="st48" d="M442.6,997.7c0.1-1.6-0.4-3-1-3.2s-1.3,0.8-1.5,2.3s0.2,3,0.9,3.4s1.3-0.5,1.6-1.9"/>
	<path class="st48" d="M441.3,997.4c-0.1,0-0.2,0-0.3,0.1c-0.1,0.1-0.1,0.2,0,0.3c0.1,0.1,0.2,0.2,0.3,0.2"/>
	<polyline class="st48" points="297.6,1028 297.6,839.5 324.5,839.5 324.5,836 297.6,836 	"/>
	<polyline class="st48" points="324.5,775.7 324.5,779.3 297.6,779.3 297.6,775.7 324.5,775.7 324.5,779.3 	"/>
	<line class="st48" x1="319.9" y1="920.1" x2="351" y2="920.1"/>
	<path class="st48" d="M351,919.9c-0.2-8.6-7.3-15.3-15.9-15.1c-8.3,0.2-14.9,6.9-15.1,15.1"/>
	<line class="st48" x1="323.1" y1="923.2" x2="347.8" y2="923.2"/>
	<path class="st48" d="M319.9,919.9c0,0.9,0.3,1.7,0.9,2.3c0.6,0.6,1.4,1,2.3,1"/>
	<path class="st48" d="M347.8,923.1c1.8,0,3.2-1.4,3.2-3.2c0,0,0,0,0-0.1"/>
	<line class="st48" x1="328.9" y1="915.6" x2="342.3" y2="915.6"/>
	<path class="st48" d="M343.6,916.9c0-0.7-0.6-1.3-1.3-1.3c0,0,0,0,0,0"/>
	<polyline class="st48" points="343.6,916.9 343.6,918.1 327.6,918.1 327.6,916.9 	"/>
	<path class="st48" d="M328.9,915.6c-0.7,0-1.3,0.6-1.3,1.3l0,0"/>
	<polyline class="st48" points="335.5,898 366,898 366,856.4 305.1,856.4 305.1,898 335.5,898 	"/>
	<polyline class="st48" points="307.3,895.8 363.8,895.8 363.8,858.6 307.3,858.6 307.3,895.8 	"/>
	<polyline class="st48" points="308.8,894.3 362.4,894.3 362.4,860.1 308.8,860.1 308.8,894.3 	"/>
	<line class="st48" x1="334.1" y1="904.7" x2="334.1" y2="902.3"/>
	<line class="st48" x1="337" y1="904.7" x2="337" y2="902.3"/>
	<path class="st48" d="M333.4,900.6c-0.1,1.2,0.8,2.3,2.1,2.4c1.2,0.1,2.3-0.8,2.4-2.1c0-0.1,0-0.2,0-0.3"/>
	<line class="st48" x1="321.1" y1="922.4" x2="349.8" y2="922.4"/>
	<line class="st48" x1="333.4" y1="900.7" x2="333.4" y2="895.8"/>
	<line class="st48" x1="337.7" y1="900.7" x2="337.7" y2="895.8"/>
	<line class="st48" x1="322.3" y1="923" x2="322.3" y2="922.4"/>
	<line class="st48" x1="323.7" y1="923.2" x2="323.7" y2="922.4"/>
	<line class="st48" x1="325.2" y1="923.2" x2="325.2" y2="922.4"/>
	<line class="st48" x1="326.6" y1="923.2" x2="326.6" y2="922.4"/>
	<line class="st48" x1="328" y1="923.2" x2="328" y2="922.4"/>
	<line class="st48" x1="329.5" y1="923.2" x2="329.5" y2="922.4"/>
	<line class="st48" x1="330.9" y1="923.2" x2="330.9" y2="922.4"/>
	<line class="st48" x1="332.3" y1="923.2" x2="332.3" y2="922.4"/>
	<line class="st48" x1="333.8" y1="923.2" x2="333.8" y2="922.4"/>
	<line class="st48" x1="335.2" y1="923.2" x2="335.2" y2="922.4"/>
	<line class="st48" x1="336.6" y1="923.2" x2="336.6" y2="922.4"/>
	<line class="st48" x1="338.1" y1="923.2" x2="338.1" y2="922.4"/>
	<line class="st48" x1="339.5" y1="923.2" x2="339.5" y2="922.4"/>
	<line class="st48" x1="340.9" y1="923.2" x2="340.9" y2="922.4"/>
	<line class="st48" x1="342.4" y1="923.2" x2="342.4" y2="922.4"/>
	<line class="st48" x1="343.8" y1="923.2" x2="343.8" y2="922.4"/>
	<line class="st48" x1="345.2" y1="923.2" x2="345.2" y2="922.4"/>
	<line class="st48" x1="346.7" y1="923.2" x2="346.7" y2="922.4"/>
	<line class="st48" x1="348.1" y1="923.1" x2="348.1" y2="922.4"/>
	<line class="st48" x1="349.5" y1="922.6" x2="349.5" y2="922.4"/>
	<path class="st48" d="M335.2,909.8c-0.3-0.1-0.7,0-0.9,0.3c-0.3,0.2-0.4,0.6-0.4,0.9"/>
	<path class="st48" d="M337.2,910c-0.5,0.4-0.5,1.1-0.1,1.6c0,0,0,0.1,0.1,0.1"/>
	<path class="st48" d="M336.8,912.5c0.2-0.2,0.3-0.5,0.4-0.8"/>
	<path class="st48" d="M336.2,912.7c0.1,0.1,0.2,0.1,0.3,0.1c0.1,0,0.2-0.1,0.3-0.2"/>
	<path class="st48" d="M334.7,912.6c0.1,0.1,0.4,0.1,0.5,0c0,0,0,0,0,0"/>
	<path class="st48" d="M336.2,912.7c-0.3-0.1-0.6-0.1-0.9,0"/>
	<path class="st48" d="M333.9,910.9c0,0.7,0.3,1.3,0.8,1.8"/>
	<path class="st48" d="M335.2,909.7c0.3,0.2,0.7,0.2,1,0"/>
	<path class="st48" d="M337.2,910c-0.3-0.2-0.6-0.3-1-0.3"/>
	<path class="st48" d="M336.4,908.5c-0.4,0.2-0.7,0.5-0.7,0.9"/>
	<path class="st48" d="M335.6,909.5c0.4-0.2,0.7-0.5,0.7-0.9"/>
	<line class="st48" x1="347.8" y1="923.2" x2="361.2" y2="923.2"/>
	<line class="st48" x1="323.3" y1="923.2" x2="300.7" y2="923.2"/>
	<line class="st48" x1="725.6" y1="911.4" x2="700.9" y2="911.4"/>
	<line class="st48" x1="725.6" y1="825.5" x2="700.9" y2="825.5"/>
	<line class="st48" x1="562.2" y1="911.4" x2="557.3" y2="911.4"/>
	<line class="st48" x1="568.9" y1="911.4" x2="563.2" y2="911.4"/>
	<line class="st48" x1="580.9" y1="911.4" x2="570.8" y2="911.4"/>
	<line class="st48" x1="553.9" y1="911.4" x2="542.3" y2="911.4"/>
	<line class="st48" x1="537.7" y1="911.4" x2="527.5" y2="911.4"/>
	<line class="st48" x1="560" y1="911.4" x2="555.1" y2="911.4"/>
	<line class="st48" x1="433.1" y1="1003.5" x2="445.5" y2="1003.5"/>
	<line class="st48" x1="435.9" y1="1000.7" x2="442.7" y2="1000.7"/>
	<line class="st48" x1="445.5" y1="1003.5" x2="445.5" y2="991.3"/>
	<line class="st48" x1="442.7" y1="1000.7" x2="442.7" y2="994.1"/>
	<line class="st48" x1="445.5" y1="991.3" x2="433.1" y2="991.3"/>
	<line class="st48" x1="442.7" y1="994.1" x2="435.9" y2="994.1"/>
	<line class="st48" x1="433.1" y1="991.3" x2="433.1" y2="1003.5"/>
	<line class="st48" x1="435.9" y1="994.1" x2="435.9" y2="1000.7"/>
	<polyline class="st48" points="435.9,994.1 439.3,994.1 439.3,1000.7 	"/>
	<path class="st48" d="M438,997.4c0-0.2-0.2-0.4-0.3-0.4s-0.4,0.2-0.4,0.3c0,0.2,0.2,0.4,0.3,0.4c0,0,0,0,0,0
		C437.8,997.7,438,997.6,438,997.4C438,997.4,438,997.4,438,997.4"/>
	<path class="st48" d="M437.9,996.3c0.1-0.1,0.1-0.2,0.1-0.4c-0.1-0.1-0.2-0.2-0.3-0.2c-0.1,0-0.3,0.1-0.3,0.2
		c-0.1,0.1,0,0.3,0.1,0.4"/>
	<line class="st48" x1="437.4" y1="996.6" x2="437.4" y2="996.3"/>
	<line class="st48" x1="437.9" y1="996.3" x2="437.9" y2="996.6"/>
	<polyline class="st48" points="437.4,996.6 437.4,996.7 437.4,996.7 437.5,996.7 437.5,996.7 437.5,996.7 437.5,996.7 437.5,996.8 
		437.5,996.8 437.6,996.8 437.6,996.8 437.6,996.8 437.7,996.8 437.7,996.8 437.7,996.8 437.8,996.8 437.8,996.8 437.8,996.7 
		437.8,996.7 437.8,996.7 437.8,996.7 437.9,996.7 437.9,996.7 437.9,996.6 	"/>
	<path class="st48" d="M437.4,998.5c-0.1,0.1-0.1,0.2-0.1,0.4c0.1,0.1,0.2,0.2,0.3,0.2c0.1,0,0.3-0.1,0.3-0.2c0.1-0.1,0-0.3-0.1-0.4
		"/>
	<line class="st48" x1="437.9" y1="998.5" x2="437.9" y2="998.2"/>
	<polyline class="st48" points="437.9,998.2 437.9,998.1 437.8,998.1 437.8,998.1 437.8,998.1 437.8,998.1 437.8,998.1 437.8,998.1 
		437.7,998.1 437.7,998.1 437.7,998.1 437.7,998 437.6,998 437.6,998 437.6,998.1 437.6,998.1 437.5,998.1 437.5,998.1 437.5,998.1 
		437.5,998.1 437.5,998.1 437.4,998.1 437.4,998.1 437.4,998.2 437.4,998.5 	"/>
	<polyline class="st48" points="303.3,1028 303.3,1016.7 336.9,1016.7 	"/>
	<line class="st48" x1="367" y1="1021.3" x2="367" y2="1028"/>
	<line class="st48" x1="430.8" y1="1021.3" x2="430.8" y2="1028"/>
	<line class="st48" x1="431.9" y1="1016.7" x2="461.7" y2="1016.7"/>
	<polyline class="st48" points="467.3,1016.7 494.6,1016.7 494.6,1028 	"/>
	<line class="st48" x1="494.6" y1="1016.7" x2="508.7" y2="1016.7"/>
	<polyline class="st48" points="516.8,1016.7 558.4,1016.7 558.4,1028 	"/>
	<line class="st48" x1="558.4" y1="1016.7" x2="591.3" y2="1016.7"/>
	<polyline class="st48" points="607.5,1016.7 622.2,1016.7 622.2,1028 	"/>
	<line class="st48" x1="622.2" y1="1016.7" x2="682.1" y2="1016.7"/>
	<line class="st48" x1="694.4" y1="1016.7" x2="729.9" y2="1016.7"/>
	<line class="st48" x1="372.3" y1="1028" x2="372.3" y2="1021.3"/>
	<polyline class="st48" points="372.3,1028 336.9,1028 336.9,974.2 372.3,974.2 372.3,1015.7 	"/>
	<line class="st48" x1="403.9" y1="896.7" x2="403.9" y2="896.7"/>
	<polyline class="st48" points="403.6,901.4 403.5,899.9 402.1,900.5 	"/>
	<line class="st48" x1="402.4" y1="900.7" x2="402.4" y2="900.7"/>
	<polyline class="st48" points="403.6,901.4 403.3,901.5 403.2,901.2 402.9,901.4 402.9,901 402.5,901.2 402.6,900.9 402.2,900.9 
		402.1,900.5 	"/>
	<line class="st48" x1="403.5" y1="900.2" x2="403.2" y2="900"/>
	<polyline class="st48" points="393.6,900.8 393.9,899.3 395.1,900.1 	"/>
	<line class="st48" x1="395" y1="900.2" x2="395" y2="900.2"/>
	<polyline class="st48" points="393.6,900.8 393.9,900.9 394,900.7 394.3,900.9 394.4,900.5 394.7,900.8 394.7,900.4 395.1,900.5 
		395.1,900.1 	"/>
	<line class="st48" x1="393.8" y1="899.6" x2="394.2" y2="899.5"/>
	<polyline class="st48" points="397,898.8 397.8,897.5 398.6,898.8 	"/>
	<line class="st48" x1="398.4" y1="898.8" x2="398.4" y2="898.8"/>
	<polyline class="st48" points="397,898.8 397.2,899 397.3,898.8 397.6,899.2 397.8,898.8 398,899.2 398.1,898.9 398.4,899.1 
		398.6,898.8 	"/>
	<line class="st48" x1="397.6" y1="897.8" x2="398" y2="897.8"/>
	<polyline class="st48" points="380.5,903.7 380.5,900 391.7,900 391.7,902.5 	"/>
	<line class="st48" x1="402.4" y1="903.7" x2="402.4" y2="903.5"/>
	<line class="st48" x1="402.3" y1="903.7" x2="403.6" y2="901.4"/>
	<line class="st48" x1="397" y1="903" x2="397" y2="898.8"/>
	<line class="st48" x1="394.4" y1="902.7" x2="393.6" y2="900.8"/>
	<line class="st48" x1="398.6" y1="898.8" x2="398.6" y2="903.2"/>
	<line class="st48" x1="395.1" y1="900.1" x2="396.4" y2="902.9"/>
	<line class="st48" x1="402.1" y1="900.5" x2="400.5" y2="903.4"/>
	<line class="st48" x1="404.1" y1="896.7" x2="404.1" y2="903.9"/>
	<line class="st48" x1="389.1" y1="900" x2="389.1" y2="897"/>
	<polyline class="st48" points="297.6,775.7 297.6,747.4 321,747.4 321,775.7 	"/>
	<line class="st30" x1="295.9" y1="674.7" x2="164.2" y2="674.7"/>
	<line class="st30" x1="295.9" y1="1028" x2="164.2" y2="1028"/>
	<line class="st30" x1="166.7" y1="672.1" x2="166.7" y2="1030.6"/>
	<line class="st30" x1="169.3" y1="677.2" x2="164.2" y2="672.1"/>
	<line class="st30" x1="164.2" y1="1025.5" x2="169.3" y2="1030.6"/>
	<path class="st29" d="M164.7,857.5l-6.2-12.4h6.2V857.5z M158.4,857.5h6.2l-6.2-12.4V857.5z"/>
	<path class="st0" d="M164.7,857.5l-6.2-12.4h6.2V857.5z M158.4,857.5h6.2l-6.2-12.4V857.5z"/>
	<text transform="matrix(6.123234e-17 -1 1 6.123234e-17 164.09 857.2501)" class="st51 st54">249</text>
	<line class="st30" x1="317.1" y1="731.4" x2="189.9" y2="731.4"/>
	<line class="st30" x1="317.1" y1="674.7" x2="189.9" y2="674.7"/>
	<line class="st30" x1="192.4" y1="733.9" x2="192.4" y2="672.1"/>
	<line class="st30" x1="189.9" y1="728.8" x2="195" y2="733.9"/>
	<line class="st30" x1="195" y1="677.2" x2="189.9" y2="672.1"/>
	<path class="st29" d="M190.4,707.3l-6.2-8.5h6.2V707.3z M184.2,707.3h6.2l-6.2-8.5V707.3z"/>
	<path class="st0" d="M190.4,707.3l-6.2-8.5h6.2V707.3z M184.2,707.3h6.2l-6.2-8.5V707.3z"/>
	<text transform="matrix(6.123234e-17 -1 1 6.123234e-17 189.8 706.8605)" class="st51 st54">40</text>
	<line class="st30" x1="317.1" y1="731.4" x2="189.9" y2="731.4"/>
	<line class="st30" x1="317.1" y1="901.4" x2="189.9" y2="901.4"/>
	<line class="st30" x1="192.4" y1="728.8" x2="192.4" y2="903.9"/>
	<line class="st30" x1="195" y1="733.9" x2="189.9" y2="728.8"/>
	<line class="st30" x1="189.9" y1="898.8" x2="195" y2="903.9"/>
	<path class="st29" d="M190.4,822.3l-6.2-11.8h6.2V822.3z M184.2,822.3h6.2l-6.2-11.8V822.3z"/>
	<path class="st0" d="M190.4,822.3l-6.2-11.8h6.2V822.3z M184.2,822.3h6.2l-6.2-11.8V822.3z"/>
	<text transform="matrix(6.123234e-17 -1 1 6.123234e-17 189.8 822.5402)" class="st51 st54">120</text>
	<line class="st30" x1="317.1" y1="901.4" x2="189.9" y2="901.4"/>
	<line class="st30" x1="317.1" y1="1028" x2="189.9" y2="1028"/>
	<line class="st30" x1="192.4" y1="898.8" x2="192.4" y2="1030.6"/>
	<line class="st30" x1="195" y1="903.9" x2="189.9" y2="898.8"/>
	<line class="st30" x1="189.9" y1="1025.5" x2="195" y2="1030.6"/>
	<path class="st29" d="M190.4,968.9l-6.2-8.3h6.2V968.9z M184.2,968.9h6.2l-6.2-8.3V968.9z"/>
	<path class="st0" d="M190.4,968.9l-6.2-8.3h6.2V968.9z M184.2,968.9h6.2l-6.2-8.3V968.9z"/>
	<text transform="matrix(6.123234e-17 -1 1 6.123234e-17 189.8 968.67)" class="st51 st54">89</text>
	<line class="st30" x1="295.9" y1="923.2" x2="230.6" y2="923.2"/>
	<line class="st30" x1="295.9" y1="1028" x2="230.6" y2="1028"/>
	<line class="st30" x1="233.1" y1="920.6" x2="233.1" y2="1030.6"/>
	<line class="st30" x1="235.7" y1="925.7" x2="230.6" y2="920.6"/>
	<line class="st30" x1="230.6" y1="1025.5" x2="235.7" y2="1030.6"/>
	<path class="st29" d="M231.1,979.7l-6.1-8.3h6.1L231.1,979.7z M225,979.7h6.1l-6.1-8.3L225,979.7z"/>
	<path class="st0" d="M231.1,979.7l-6.1-8.3h6.1L231.1,979.7z M225,979.7h6.1l-6.1-8.3L225,979.7z"/>
	<text transform="matrix(6.123234e-17 -1 1 6.123234e-17 230.57 979.5597)" class="st51 st54">74</text>
	<polyline class="st50" points="260.1,646.3 729.9,646.3 729.9,618 	"/>
	<polyline class="st50" points="260.1,1057.4 729.9,1057.4 729.9,1125.3 	"/>
	<line class="st50" x1="276.4" y1="1029" x2="260.1" y2="1029"/>
	<line class="st50" x1="276.4" y1="674.7" x2="260.1" y2="674.7"/>
	<line class="st30" x1="260.1" y1="630.4" x2="260.1" y2="666.6"/>
	<line class="st30" x1="260.1" y1="687.9" x2="260.1" y2="687.9"/>
	<line class="st30" x1="260.1" y1="709.1" x2="260.1" y2="751.7"/>
	<line class="st30" x1="260.1" y1="772.9" x2="260.1" y2="772.9"/>
	<line class="st30" x1="260.1" y1="794.2" x2="260.1" y2="836.7"/>
	<line class="st30" x1="260.1" y1="857.9" x2="260.1" y2="857.9"/>
	<line class="st30" x1="260.1" y1="879.2" x2="260.1" y2="921.7"/>
	<line class="st30" x1="260.1" y1="943" x2="260.1" y2="943"/>
	<line class="st30" x1="260.1" y1="964.3" x2="260.1" y2="1006.8"/>
	<line class="st30" x1="260.1" y1="1028" x2="260.1" y2="1028"/>
	<line class="st30" x1="732.9" y1="1125.3" x2="732.9" y2="1125.3"/>
	<line class="st30" x1="732.9" y1="618" x2="732.9" y2="618"/>
	<text transform="matrix(1 0 0 1 66.98 993.57)" class="st51 st55">GETTACARTE - KARTELL</text>
	<text transform="matrix(1 0 0 1 73.52 1001.46)" class="st51 st55">ABS colorato in massa</text>
	<line class="st30" x1="152.1" y1="1001.1" x2="336.9" y2="1001.1"/>
	<text transform="matrix(1 0 0 1 84.29 766.77)" class="st51 st55">Mensola EKBY</text>
	<text transform="matrix(1 0 0 1 67.46 774.6)" class="st51 st55">JARPEN-002.510.36-IKEA</text>
	<text transform="matrix(1 0 0 1 81.83 782.43)" class="st51 st55">truciolare laccato</text>
	<line class="st30" x1="152.1" y1="777.5" x2="306.9" y2="777.5"/>
	<text transform="matrix(1 0 0 1 532.64 1091.88)" class="st51 st55">Lampada da tavolo</text>
	<text transform="matrix(1 0 0 1 519.29 1099.77)" class="st51 st55">ANTIFONI-203.047.36-IKEA</text>
	<text transform="matrix(1 0 0 1 550.19 1107.6)" class="st51 st55">Acciaio</text>
	<line class="st30" x1="523.8" y1="1081.9" x2="457.9" y2="922.6"/>
	<line class="st30" x1="260.1" y1="1048.4" x2="260.1" y2="1090.9"/>
	<line class="st49" x1="318.9" y1="807" x2="318.9" y2="779.3"/>
	<line class="st49" x1="318.9" y1="816" x2="318.9" y2="836"/>
	<line class="st49" x1="321.9" y1="816.4" x2="318.9" y2="816.4"/>
	<line class="st49" x1="378.4" y1="897.2" x2="411" y2="897.2"/>
</g>
</svg>
