<?xml version="1.0" encoding="utf-8"?>
<!-- Generator: Adobe Illustrator 22.1.0, SVG Export Plug-In . SVG Version: 6.00 Build 0)  -->
<svg version="1.1" id="Livello_1" xmlns="http://www.w3.org/2000/svg" xmlns:xlink="http://www.w3.org/1999/xlink" x="0px" y="0px"
	 viewBox="0 0 1190.6 1190.6" style="enable-background:new 0 0 1190.6 1190.6;" xml:space="preserve">
<style type="text/css">
	.st0{opacity:0.8;fill:#5D8DCA;enable-background:new    ;}
	.st1{fill:none;stroke:#EF781A;stroke-miterlimit:10;}
	.st2{fill:none;stroke:#E5231E;stroke-miterlimit:10;}
	.st3{fill:none;stroke:#E7E000;stroke-miterlimit:10;}
	.st4{clip-path:url(#SVGID_2_);}
	.st5{clip-path:url(#SVGID_4_);}
	.st6{fill:none;}
	.st7{font-family:'OpenSans-CondensedBold';}
	.st8{font-size:60px;}
	.st9{font-family:'OpenSans-Light';}
	.st10{font-size:16px;}
	.st11{font-family:'AGaramondPro-Regular';}
	.st12{font-size:10px;}
</style>
<g id="Livello_1_2_">
	<g id="Livello_1_1_">
		<title>Tavola disegno 1</title>
		<g id="Base">
			<rect y="0" class="st0" width="1190.6" height="1190.6"/>
		</g>
		<rect x="60.9" y="60.9" class="st1" width="239.5" height="239.5"/>
		<rect x="60.9" y="337.3" class="st1" width="239.5" height="239.5"/>
		<rect x="60.9" y="613.7" class="st1" width="239.5" height="239.5"/>
		<rect x="60.9" y="890.1" class="st1" width="239.5" height="239.5"/>
		<rect x="337.3" y="60.9" class="st1" width="239.5" height="239.5"/>
		<rect x="337.3" y="337.3" class="st1" width="239.5" height="239.5"/>
		<rect x="337.3" y="613.7" class="st1" width="239.5" height="239.5"/>
		<rect x="337.3" y="890.1" class="st1" width="239.5" height="239.5"/>
		<rect x="613.7" y="60.9" class="st1" width="239.5" height="239.5"/>
		<rect x="613.7" y="337.3" class="st1" width="239.5" height="239.5"/>
		<rect x="613.7" y="613.7" class="st1" width="239.5" height="239.5"/>
		<rect x="613.7" y="890.1" class="st1" width="239.5" height="239.5"/>
		<rect x="890.1" y="60.9" class="st1" width="239.5" height="239.5"/>
		<rect x="890.1" y="337.3" class="st1" width="239.5" height="239.5"/>
		<rect x="890.1" y="613.7" class="st1" width="239.5" height="239.5"/>
		<rect x="890.1" y="890.1" class="st1" width="239.5" height="239.5"/>
		<g id="Griglia_2">
			<rect x="60.9" y="60.9" class="st2" width="184.2" height="184.2"/>
			<rect x="282" y="60.9" class="st2" width="184.2" height="184.2"/>
			<rect x="503.1" y="60.9" class="st2" width="184.3" height="184.2"/>
			<rect x="724.2" y="60.9" class="st2" width="184.2" height="184.2"/>
			<rect x="945.3" y="60.9" class="st2" width="184.2" height="184.2"/>
			<rect x="60.9" y="282.1" class="st2" width="184.2" height="184.2"/>
			<rect x="282" y="282.1" class="st2" width="184.2" height="184.2"/>
			<rect x="503.1" y="282.1" class="st2" width="184.3" height="184.2"/>
			<rect x="724.2" y="282.1" class="st2" width="184.2" height="184.2"/>
			<rect x="945.3" y="282.1" class="st2" width="184.2" height="184.2"/>
			<rect x="60.9" y="503.2" class="st2" width="184.2" height="184.3"/>
			<rect x="282" y="503.2" class="st2" width="184.2" height="184.3"/>
			<rect x="503.1" y="503.2" class="st2" width="184.3" height="184.3"/>
			<rect x="724.2" y="503.2" class="st2" width="184.2" height="184.3"/>
			<rect x="945.3" y="503.2" class="st2" width="184.2" height="184.3"/>
			<rect x="60.9" y="724.3" class="st2" width="184.2" height="184.2"/>
			<rect x="282" y="724.3" class="st2" width="184.2" height="184.2"/>
			<rect x="503.1" y="724.3" class="st2" width="184.3" height="184.2"/>
			<rect x="724.2" y="724.3" class="st2" width="184.2" height="184.2"/>
			<rect x="945.3" y="724.3" class="st2" width="184.2" height="184.2"/>
			<rect x="60.9" y="945.4" class="st2" width="184.2" height="184.2"/>
			<rect x="282" y="945.4" class="st2" width="184.2" height="184.2"/>
			<rect x="503.1" y="945.4" class="st2" width="184.3" height="184.2"/>
			<rect x="724.2" y="945.4" class="st2" width="184.2" height="184.2"/>
			<rect x="945.3" y="945.4" class="st2" width="184.2" height="184.2"/>
		</g>
		<g id="Griglia_3">
			<rect x="60.9" y="61" class="st3" width="147.4" height="147.4"/>
			<rect x="245.2" y="61" class="st3" width="147.4" height="147.4"/>
			<rect x="429.5" y="61" class="st3" width="147.4" height="147.4"/>
			<rect x="613.7" y="61" class="st3" width="147.4" height="147.4"/>
			<rect x="798" y="61" class="st3" width="147.4" height="147.4"/>
			<rect x="982.2" y="61" class="st3" width="147.4" height="147.4"/>
			<rect x="60.9" y="245.2" class="st3" width="147.4" height="147.4"/>
			<rect x="245.2" y="245.2" class="st3" width="147.4" height="147.4"/>
			<rect x="429.5" y="245.2" class="st3" width="147.4" height="147.4"/>
			<rect x="613.7" y="245.2" class="st3" width="147.4" height="147.4"/>
			<rect x="798" y="245.2" class="st3" width="147.4" height="147.4"/>
			<rect x="982.2" y="245.2" class="st3" width="147.4" height="147.4"/>
			<rect x="60.9" y="429.4" class="st3" width="147.4" height="147.4"/>
			<rect x="245.2" y="429.4" class="st3" width="147.4" height="147.4"/>
			<rect x="429.5" y="429.4" class="st3" width="147.4" height="147.4"/>
			<rect x="613.7" y="429.4" class="st3" width="147.4" height="147.4"/>
			<rect x="798" y="429.4" class="st3" width="147.4" height="147.4"/>
			<rect x="982.2" y="429.4" class="st3" width="147.4" height="147.4"/>
			<rect x="60.9" y="613.7" class="st3" width="147.4" height="147.4"/>
			<rect x="245.2" y="613.7" class="st3" width="147.4" height="147.4"/>
			<rect x="429.5" y="613.7" class="st3" width="147.4" height="147.4"/>
			<rect x="613.7" y="613.7" class="st3" width="147.4" height="147.4"/>
			<rect x="798" y="613.7" class="st3" width="147.4" height="147.4"/>
			<rect x="982.2" y="613.7" class="st3" width="147.4" height="147.4"/>
			<rect x="60.9" y="797.9" class="st3" width="147.4" height="147.4"/>
			<rect x="245.2" y="797.9" class="st3" width="147.4" height="147.4"/>
			<rect x="429.5" y="797.9" class="st3" width="147.4" height="147.4"/>
			<rect x="613.7" y="797.9" class="st3" width="147.4" height="147.4"/>
			<rect x="798" y="797.9" class="st3" width="147.4" height="147.4"/>
			<rect x="982.2" y="797.9" class="st3" width="147.4" height="147.4"/>
			<rect x="60.9" y="982.2" class="st3" width="147.4" height="147.4"/>
			<rect x="245.2" y="982.2" class="st3" width="147.4" height="147.4"/>
			<rect x="429.5" y="982.2" class="st3" width="147.4" height="147.4"/>
			<rect x="613.7" y="982.2" class="st3" width="147.4" height="147.4"/>
			<rect x="798" y="982.2" class="st3" width="147.4" height="147.4"/>
			<rect x="982.2" y="982.2" class="st3" width="147.4" height="147.4"/>
		</g>
		<g>
			<g>
				<g>
					<g>
						<g>
							<defs>
								<rect id="SVGID_1_" x="613.7" y="337.3" width="239.5" height="239.5"/>
							</defs>
							<clipPath id="SVGID_2_">
								<use xlink:href="#SVGID_1_"  style="overflow:visible;"/>
							</clipPath>
							<g class="st4">
								
									<image style="overflow:visible;enable-background:new    ;" width="850" height="484" xlink:href="892922_09A.jpg"  transform="matrix(0.5679 0 0 0.5679 439.2688 319.6196)">
								</image>
							</g>
						</g>
					</g>
				</g>
			</g>
		</g>
		<g>
			<g>
				<g>
					<g>
						<defs>
							<circle id="SVGID_3_" cx="457" cy="733.5" r="119.8"/>
						</defs>
						<clipPath id="SVGID_4_">
							<use xlink:href="#SVGID_3_"  style="overflow:visible;"/>
						</clipPath>
						<g class="st5">
							
								<image style="overflow:visible;enable-background:new    ;" width="1333" height="667" xlink:href="892922_.jpg"  transform="matrix(0.4079 0 0 0.4079 194.2574 602.3528)">
							</image>
						</g>
					</g>
				</g>
			</g>
		</g>
	</g>
	<rect x="60.9" y="60.9" class="st6" width="515.9" height="55.8"/>
	<text transform="matrix(1 0 0 1 60.8998 106.4994)" class="st7 st8">Il Bradipo </text>
	<rect x="60.9" y="149.2" class="st6" width="515.9" height="427.6"/>
	<text transform="matrix(1 0 0 1 60.8998 161.4093)" class="st9 st10">Lorem ipsum dolor sit amet, consectetuer adipiscing elit, sed diam no</text>
	<text transform="matrix(1 0 0 1 558.5998 161.4093)" class="st9 st10">-</text>
	<text transform="matrix(1 0 0 1 60.8998 185.4093)" class="st9 st10">nummy nibh euismod tincidunt ut laoreet dolore magna aliquam erat </text>
	<text transform="matrix(1 0 0 1 60.8998 209.4093)" class="st9 st10">volutpat. Ut wisi enim ad minim veniam, quis nostrud exerci tation </text>
	<text transform="matrix(1 0 0 1 60.8998 233.4093)" class="st9 st10">ullamcorper suscipit lobortis nisl ut aliquip ex ea commodo consequat. </text>
	<text transform="matrix(1 0 0 1 60.8998 257.4093)" class="st9 st10">Duis autem vel eum iriure dolor in hendrerit in vulputate velit esse mo</text>
	<text transform="matrix(1 0 0 1 562.3998 257.4093)" class="st9 st10">-</text>
	<text transform="matrix(1 0 0 1 60.8998 281.4093)" class="st9 st10">lestie consequat, vel illum dolore eu feugiat nulla facilisis at vero eros et </text>
	<text transform="matrix(1 0 0 1 60.8998 305.4093)" class="st9 st10">accumsan et iusto odio dignissim qui blandit praesent luptatum zzril </text>
	<text transform="matrix(1 0 0 1 60.8998 329.4093)" class="st9 st10">delenit augue duis dolore te feugait nulla facilisi.</text>
	<text transform="matrix(1 0 0 1 60.8998 353.4093)" class="st9 st10">Lorem ipsum dolor sit amet, cons ectetuer adipiscing elit, sed diam no</text>
	<text transform="matrix(1 0 0 1 562.7998 353.4093)" class="st9 st10">-</text>
	<text transform="matrix(1 0 0 1 60.8998 377.4093)" class="st9 st10">nummy nibh euismod tincidunt ut laoreet dolore magna aliquam erat </text>
	<text transform="matrix(1 0 0 1 60.8998 401.4093)" class="st9 st10">volutpat. Ut wisi enim ad minim veniam, quis nostrud exerci tation </text>
	<text transform="matrix(1 0 0 1 60.8998 425.4093)" class="st9 st10">ullamcorper suscipit lobortis nisl ut aliquip ex ea commodo consequat.</text>
	<text transform="matrix(1 0 0 1 60.8998 449.4093)" class="st9 st10">Lorem ipsum dolor sit amet, consectetuer adipiscing elit, sed diam no</text>
	<text transform="matrix(1 0 0 1 558.5998 449.4093)" class="st9 st10">-</text>
	<text transform="matrix(1 0 0 1 60.8998 473.4093)" class="st9 st10">nummy nibh euismod tincidunt ut laoreet dolore magna aliquam erat </text>
	<text transform="matrix(1 0 0 1 60.8998 497.4093)" class="st9 st10">volutpat. Ut wisi enim ad minim veniam, quis nostrud exerci tation </text>
	<text transform="matrix(1 0 0 1 60.8998 521.4094)" class="st9 st10">ullamcorper suscipit lobortis nisl ut aliquip ex ea commodo consequat. </text>
	<text transform="matrix(1 0 0 1 60.8998 545.4094)" class="st9 st10">Duis autem vel eum iriure dolor in hendrerit in vulputate velit esse mo</text>
	<text transform="matrix(1 0 0 1 562.3998 545.4094)" class="st9 st10">-</text>
	<text transform="matrix(1 0 0 1 60.8998 569.4094)" class="st9 st10">lestie consequat, vel illum dolore eu feugiat nulla facilisis at vero eros et </text>
	<rect x="540.8" y="841.9" class="st6" width="239.5" height="12.8"/>
	<text transform="matrix(1 0 0 1 540.8207 849.0049)" class="st11 st12">Bamboo</text>
</g>
<g id="Livello_2_1_">
	<circle class="st6" cx="871.7" cy="871.7" r="257.9"/>
	<text transform="matrix(1 0 0 1 846.5059 625.8598)" class="st9 st10">Lorem </text>
	<text transform="matrix(1 0 0 1 770.9059 645.0598)" class="st9 st10">ipsum dolor sit amet, con</text>
	<text transform="matrix(1 0 0 1 952.8059 645.0598)" class="st9 st10">-</text>
	<text transform="matrix(1 0 0 1 734.2059 664.2598)" class="st9 st10">sectetuer adipiscing elit, sed diam </text>
	<text transform="matrix(1 0 0 1 707.7059 683.4598)" class="st9 st10">nonummy nibh euismod tincidunt ut laoreet </text>
	<text transform="matrix(1 0 0 1 686.8059 702.6598)" class="st9 st10">dolore magna aliquam erat volutpat. Ut wisi enim </text>
	<text transform="matrix(1 0 0 1 669.9059 721.8598)" class="st9 st10">ad minim veniam, quis nostrud exerci tation ullamcor</text>
	<text transform="matrix(1 0 0 1 1051.0059 721.8598)" class="st9 st10">-</text>
	<text transform="matrix(1 0 0 1 656.0059 741.0598)" class="st9 st10">per suscipit lobortis nisl ut aliquip ex ea commodo conse</text>
	<text transform="matrix(1 0 0 1 1063.4059 741.0598)" class="st9 st10">-</text>
	<text transform="matrix(1 0 0 1 644.5059 760.2598)" class="st9 st10">quat. Duis autem vel eum iriure dolor in hendrerit in vulputate </text>
	<text transform="matrix(1 0 0 1 635.106 779.4598)" class="st9 st10">velit esse molestie consequat, vel illum dolore eu feugiat nulla </text>
	<text transform="matrix(1 0 0 1 627.7059 798.6598)" class="st9 st10">facilisis at vero eros et accumsan et iusto odio dignissim qui blandit </text>
	<text transform="matrix(1 0 0 1 621.9059 817.8598)" class="st9 st10">praesent luptatum zzril delenit augue duis dolore te feugait nulla facil</text>
	<text transform="matrix(1 0 0 1 617.7059 837.0598)" class="st9 st10">Lorem ipsum dolor sit amet, cons ectetuer adipiscing elit, sed diam </text>
	<text transform="matrix(1 0 0 1 615.0059 856.2598)" class="st9 st10">nonummy nibh euismod tincidunt ut laoreet dolore magna aliquam </text>
	<text transform="matrix(1 0 0 1 613.8059 875.4598)" class="st9 st10">erat volutpat. Ut wisi enim ad minim veniam, quis nostrud exerci tation </text>
	<text transform="matrix(1 0 0 1 614.7059 894.6598)" class="st9 st10">ullamcorper suscipit lobortis nisl ut aliquip ex ea commodo consequat.</text>
	<text transform="matrix(1 0 0 1 617.106 913.8598)" class="st9 st10">Lorem ipsum dolor sit amet, consectetuer adipiscing elit, sed diam </text>
	<text transform="matrix(1 0 0 1 621.0059 933.0598)" class="st9 st10">nonummy nibh euismod tincidunt ut laoreet dolore magna aliquam </text>
	<text transform="matrix(1 0 0 1 626.5059 952.2598)" class="st9 st10">erat volutpat. Ut wisi enim ad minim veniam, quis nostrud exerci </text>
	<text transform="matrix(1 0 0 1 633.7059 971.4598)" class="st9 st10">tation ullamcorper suscipit lobortis nisl ut aliquip ex ea commodo </text>
	<text transform="matrix(1 0 0 1 642.7059 990.6598)" class="st9 st10">consequat. Duis autem vel eum iriure dolor in hendrerit in vul</text>
	<text transform="matrix(1 0 0 1 1083.5059 990.6598)" class="st9 st10">-</text>
	<text transform="matrix(1 0 0 1 653.8059 1009.8598)" class="st9 st10">putate velit esse molestie consequat, vel illum dolore eu </text>
	<text transform="matrix(1 0 0 1 667.3059 1029.0598)" class="st9 st10">feugiat nulla facilisis at vero eros et accumsan et iusto </text>
	<text transform="matrix(1 0 0 1 683.606 1048.2598)" class="st9 st10">odio dignissim qui blandit praesent luptatum zzril </text>
	<text transform="matrix(1 0 0 1 703.7059 1067.4598)" class="st9 st10">delenit augue duis dolore te feugait nulla facili</text>
	<text transform="matrix(1 0 0 1 1032.606 1067.4598)" class="st9 st10">-</text>
	<text transform="matrix(1 0 0 1 729.1059 1086.6598)" class="st9 st10">si. Lorem ipsum dolor sit amet, cons </text>
	<text transform="matrix(1 0 0 1 763.4059 1105.8597)" class="st9 st10">ectetuer adipiscing elit, sed </text>
	<text transform="matrix(1 0 0 1 823.2059 1125.0598)" class="st9 st10">diam nonum</text>
	<text transform="matrix(1 0 0 1 914.9059 1125.0598)" class="st9 st10">-</text>
</g>
</svg>
