<?xml version="1.0" encoding="utf-8"?>
<!-- Generator: Adobe Illustrator 22.1.0, SVG Export Plug-In . SVG Version: 6.00 Build 0)  -->
<svg version="1.1" xmlns="http://www.w3.org/2000/svg" xmlns:xlink="http://www.w3.org/1999/xlink" x="0px" y="0px"
	 viewBox="0 0 1190.6 1190.6" style="enable-background:new 0 0 1190.6 1190.6;" xml:space="preserve">
<style type="text/css">
	.st0{fill:#5D8DCA;}
	.st1{fill:none;stroke:#FFFF00;stroke-miterlimit:10;}
	.st2{fill:none;}
	.st3{fill:none;stroke:#4CD76A;stroke-miterlimit:10;}
	.st4{fill:none;stroke:#FF0000;stroke-miterlimit:10;}
	.st5{clip-path:url(#SVGID_2_);}
	.st6{clip-path:url(#SVGID_4_);}
	.st7{font-family:'OpenSans-CondensedBold';}
	.st8{font-size:60px;}
	.st9{font-family:'OpenSans-Light';}
	.st10{font-size:16px;}
	.st11{font-family:'EBGaramond-Italic';}
	.st12{font-size:10px;}
</style>
<g id="Livello_1">
	<g id="Livello_1_3_">
		<g id="Livello_1_2_">
			<g id="Livello_1_1_">
				<g id="Base">
					<title>Tavola disegno 1</title>
					<rect y="0" class="st0" width="1190.6" height="1190.6"/>
				</g>
				<g id="Griglia_1">
					<g>
						<rect x="60.9" y="60.9" class="st1" width="239.5" height="239.5"/>
						<rect x="337.3" y="60.9" class="st1" width="239.5" height="239.5"/>
						<rect x="613.7" y="60.9" class="st1" width="239.5" height="239.5"/>
						<rect x="890.1" y="60.9" class="st1" width="239.5" height="239.5"/>
						<rect x="60.9" y="337.3" class="st1" width="239.5" height="239.5"/>
						<rect x="337.3" y="337.3" class="st2" width="239.5" height="239.5"/>
						<rect x="613.7" y="337.3" class="st1" width="239.5" height="239.5"/>
						<rect x="890.1" y="337.3" class="st1" width="239.5" height="239.5"/>
						<rect x="60.9" y="613.7" class="st1" width="239.5" height="239.5"/>
						<rect x="337.3" y="613.7" class="st1" width="239.5" height="239.5"/>
						<rect x="613.7" y="613.7" class="st1" width="239.5" height="239.5"/>
						<rect x="890.1" y="613.7" class="st1" width="239.5" height="239.5"/>
						<rect x="60.9" y="890.1" class="st1" width="239.5" height="239.5"/>
						<rect x="337.3" y="890.1" class="st1" width="239.5" height="239.5"/>
						<rect x="613.7" y="890.1" class="st1" width="239.5" height="239.5"/>
						<rect x="890.1" y="890.1" class="st1" width="239.5" height="239.5"/>
					</g>
				</g>
				<g id="Griglia_2">
					<g>
						<rect x="60.9" y="60.9" class="st3" width="184.3" height="184.3"/>
						<rect x="282" y="60.9" class="st3" width="184.3" height="184.3"/>
						<rect x="503.1" y="60.9" class="st3" width="184.3" height="184.3"/>
						<rect x="724.3" y="60.9" class="st3" width="184.3" height="184.3"/>
						<rect x="945.4" y="60.9" class="st3" width="184.3" height="184.3"/>
						<rect x="60.9" y="282" class="st3" width="184.3" height="184.3"/>
						<rect x="282" y="282" class="st3" width="184.3" height="184.3"/>
						<rect x="503.1" y="282" class="st3" width="184.3" height="184.3"/>
						<rect x="724.3" y="282" class="st3" width="184.3" height="184.3"/>
						<rect x="945.4" y="282" class="st3" width="184.3" height="184.3"/>
						<rect x="60.9" y="503.1" class="st3" width="184.3" height="184.3"/>
						<rect x="282" y="503.1" class="st3" width="184.3" height="184.3"/>
						<rect x="503.1" y="503.1" class="st3" width="184.3" height="184.3"/>
						<rect x="724.3" y="503.1" class="st3" width="184.3" height="184.3"/>
						<rect x="945.4" y="503.1" class="st3" width="184.3" height="184.3"/>
						<rect x="60.9" y="724.3" class="st3" width="184.3" height="184.3"/>
						<rect x="282" y="724.3" class="st3" width="184.3" height="184.3"/>
						<rect x="503.1" y="724.3" class="st3" width="184.3" height="184.3"/>
						<rect x="724.3" y="724.3" class="st3" width="184.3" height="184.3"/>
						<rect x="945.4" y="724.3" class="st3" width="184.3" height="184.3"/>
						<rect x="60.9" y="945.4" class="st3" width="184.3" height="184.3"/>
						<rect x="282" y="945.4" class="st3" width="184.3" height="184.3"/>
						<rect x="503.1" y="945.4" class="st3" width="184.3" height="184.3"/>
						<rect x="724.3" y="945.4" class="st3" width="184.3" height="184.3"/>
						<rect x="945.4" y="945.4" class="st3" width="184.3" height="184.3"/>
					</g>
				</g>
				<g id="Griglia_3">
					<g>
						<rect x="60.9" y="60.9" class="st4" width="147.4" height="147.4"/>
						<rect x="245.2" y="60.9" class="st4" width="147.4" height="147.4"/>
						<rect x="429.4" y="60.9" class="st4" width="147.4" height="147.4"/>
						<rect x="613.7" y="60.9" class="st4" width="147.4" height="147.4"/>
						<rect x="798" y="60.9" class="st4" width="147.4" height="147.4"/>
						<rect x="982.2" y="60.9" class="st4" width="147.4" height="147.4"/>
						<rect x="60.9" y="245.2" class="st4" width="147.4" height="147.4"/>
						<rect x="245.2" y="245.2" class="st4" width="147.4" height="147.4"/>
						<rect x="429.4" y="245.2" class="st4" width="147.4" height="147.4"/>
						<rect x="613.7" y="245.2" class="st4" width="147.4" height="147.4"/>
						<rect x="798" y="245.2" class="st4" width="147.4" height="147.4"/>
						<rect x="982.2" y="245.2" class="st4" width="147.4" height="147.4"/>
						<rect x="60.9" y="429.4" class="st4" width="147.4" height="147.4"/>
						<rect x="245.2" y="429.4" class="st4" width="147.4" height="147.4"/>
						<rect x="429.4" y="429.4" class="st4" width="147.4" height="147.4"/>
						<rect x="613.7" y="429.4" class="st4" width="147.4" height="147.4"/>
						<rect x="798" y="429.4" class="st4" width="147.4" height="147.4"/>
						<rect x="982.2" y="429.4" class="st4" width="147.4" height="147.4"/>
						<rect x="60.9" y="613.7" class="st4" width="147.4" height="147.4"/>
						<rect x="245.2" y="613.7" class="st4" width="147.4" height="147.4"/>
						<rect x="429.4" y="613.7" class="st4" width="147.4" height="147.4"/>
						<rect x="613.7" y="613.7" class="st4" width="147.4" height="147.4"/>
						<rect x="798" y="613.7" class="st4" width="147.4" height="147.4"/>
						<rect x="982.2" y="613.7" class="st4" width="147.4" height="147.4"/>
						<rect x="60.9" y="798" class="st4" width="147.4" height="147.4"/>
						<rect x="245.2" y="798" class="st4" width="147.4" height="147.4"/>
						<rect x="429.4" y="798" class="st4" width="147.4" height="147.4"/>
						<rect x="613.7" y="798" class="st4" width="147.4" height="147.4"/>
						<rect x="798" y="798" class="st4" width="147.4" height="147.4"/>
						<rect x="982.2" y="798" class="st4" width="147.4" height="147.4"/>
						<rect x="60.9" y="982.2" class="st4" width="147.4" height="147.4"/>
						<rect x="245.2" y="982.2" class="st4" width="147.4" height="147.4"/>
						<rect x="429.4" y="982.2" class="st4" width="147.4" height="147.4"/>
						<rect x="613.7" y="982.2" class="st4" width="147.4" height="147.4"/>
						<rect x="798" y="982.2" class="st4" width="147.4" height="147.4"/>
						<rect x="982.2" y="982.2" class="st4" width="147.4" height="147.4"/>
					</g>
				</g>
			</g>
		</g>
		<g id="Livello_2_2_">
			<g>
				<g>
					<g>
						<g>
							<defs>
								<rect id="SVGID_1_" x="60.9" y="60.9" width="239.5" height="239.5"/>
							</defs>
							<clipPath id="SVGID_2_">
								<use xlink:href="#SVGID_1_"  style="overflow:visible;"/>
							</clipPath>
							<g id="Livello_2_1_" class="st5">
								
									<image style="overflow:visible;enable-background:new    ;" width="620" height="300" xlink:href="892922_03.estensione.jpg"  transform="matrix(0.8323 0 0 0.8597 60.887 60.9)">
								</image>
							</g>
						</g>
					</g>
				</g>
			</g>
		</g>
	</g>
	<g id="Livello_2_3_">
		<g>
			<g>
				<g>
					<defs>
						<circle id="SVGID_3_" cx="595.2" cy="226.8" r="165.8"/>
					</defs>
					<clipPath id="SVGID_4_">
						<use xlink:href="#SVGID_3_"  style="overflow:visible;"/>
					</clipPath>
					<g transform="matrix(1 0 0 1 0 -3.814697e-06)" class="st6">
						
							<image style="overflow:visible;enable-background:new    ;" width="850" height="484" xlink:href="892922_05.estensione.jpg"  transform="matrix(0.6853 0 0 0.6853 304.0345 60.9)">
						</image>
					</g>
				</g>
			</g>
		</g>
	</g>
</g>
<g id="Testi">
	<rect x="798" y="60.9" class="st2" width="331.6" height="54.7"/>
	<text transform="matrix(1 0 0 1 798 106.4994)" class="st7 st8">Il Bradipo</text>
	<rect x="798" y="245.2" class="st2" width="331.6" height="331.6"/>
	<text transform="matrix(1 0 0 1 798 257.3598)"><tspan x="0" y="0" class="st9 st10">Lorem ipsum dolor sit amet, consectetuer </tspan><tspan x="0" y="24" class="st9 st10">adiLorem ipsum dolor sit amet, consectetuer </tspan><tspan x="0" y="48" class="st9 st10">adipiscing elit, sed diam nonummy nibh eui</tspan><tspan x="309.6" y="48" class="st9 st10">-</tspan><tspan x="0" y="72" class="st9 st10">smod tincidunt ut laoreet dolore magna ali</tspan><tspan x="305.7" y="72" class="st9 st10">-</tspan><tspan x="0" y="96" class="st9 st10">quam erat volutpat. Ut wisi enim ad minim </tspan><tspan x="0" y="120" class="st9 st10">veniam, quis nostrud exerci tation ullamcor</tspan><tspan x="309.9" y="120" class="st9 st10">-</tspan><tspan x="0" y="144" class="st9 st10">per suscipit lobortis nisl ut aliquip ex ea com</tspan><tspan x="318.2" y="144" class="st9 st10">-</tspan><tspan x="0" y="168" class="st9 st10">modo consequat. Duis autem vel eum iriure </tspan><tspan x="0" y="192" class="st9 st10">dolor in hendrerit in vulputate velit esse mole</tspan><tspan x="325.1" y="192" class="st9 st10">-</tspan><tspan x="0" y="216" class="st9 st10">stie consequat, vel illum dolore eu feugiat </tspan><tspan x="0" y="240" class="st9 st10">nulla facilisis at vero eros et accumsan et </tspan><tspan x="0" y="264" class="st9 st10">iusto odio dignissim qui blandit praesent lup</tspan><tspan x="318" y="264" class="st9 st10">-</tspan><tspan x="0" y="288" class="st9 st10">tatum zzril delenit augue duis dolore te feu</tspan><tspan x="307.8" y="288" class="st9 st10">-</tspan><tspan x="0" y="312" class="st9 st10">gait nulla facilisi.</tspan></text>
	<rect x="304" y="263.6" class="st2" width="88.6" height="18.4"/>
	<text transform="matrix(1 0 0 1 304.0347 270.601)" class="st11 st12">Rana</text>
	<circle class="st2" cx="226.7" cy="595.2" r="165.8"/>
	<text transform="matrix(1 0 0 1 138.8057 465.56)"><tspan x="0" y="0" class="st9 st10">Lorem ipsum dolor sit </tspan><tspan x="-30" y="24" class="st9 st10">amet, consectetuer adipiscing </tspan><tspan x="-49.6" y="48" class="st9 st10">elit, sed diam nonummy nibh euismod </tspan><tspan x="-63.1" y="72" class="st9 st10">tincidunt ut laoreet dolore magna ali</tspan><tspan x="198" y="72" class="st9 st10">-</tspan><tspan x="-71.8" y="96" class="st9 st10">quam erat volutpat. Ut wisi enim ad minim </tspan><tspan x="-76.6" y="120" class="st9 st10">veniam, quis nostrud exerci tation ullamcor</tspan><tspan x="233.3" y="120" class="st9 st10">-</tspan><tspan x="-77.3" y="144" class="st9 st10">per suscipit lobortis nisl ut aliquip ex ea com</tspan><tspan x="240.9" y="144" class="st9 st10">-</tspan><tspan x="-73.5" y="168" class="st9 st10">modo consequat. Duis autem vel eum iriure </tspan><tspan x="-65.8" y="192" class="st9 st10">dolor in hendrerit in vulputate velit esse </tspan><tspan x="-53.7" y="216" class="st9 st10">molestie consequat, vel illum dolore eu </tspan><tspan x="-35.9" y="240" class="st9 st10">feugiat nulla facilisis at vero eros </tspan><tspan x="-9.4" y="264" class="st9 st10">et accumsan et iusto odio </tspan><tspan x="38.3" y="288" class="st9 st10">dignissim qui </tspan></text>
</g>
<g id="Interno_cad">
</g>
</svg>
