<svg xmlns="http://www.w3.org/2000/svg" xmlns:xlink="http://www.w3.org/1999/xlink" viewBox="0 0 1190.55 1190.55"><defs><style>.cls-1,.cls-3,.cls-4,.cls-5{fill:none;}.cls-2{fill:#a8dee9;}.cls-3{stroke:#6abd45;}.cls-3,.cls-4,.cls-5{stroke-miterlimit:10;}.cls-4{stroke:#ee2724;}.cls-5{stroke:#f8ec00;}.cls-6{clip-path:url(#clip-path);}.cls-7{font-size:60px;font-family:OpenSans-CondensedBold, Open Sans Condensed;font-weight:700;}.cls-8{letter-spacing:-0.02em;}.cls-9{clip-path:url(#clip-path-2);}.cls-10{font-size:16px;font-family:OpenSans-Light, Open Sans;}.cls-11{font-size:10px;font-family:EBGaramond-Italic, EB Garamond;font-style:italic;}</style><clipPath id="clip-path"><circle class="cls-1" cx="1009.85" cy="180.71" r="119.76"/></clipPath><clipPath id="clip-path-2"><rect class="cls-1" x="60.94" y="282.05" width="184.25" height="184.25"/></clipPath></defs><title>892922_07</title><g id="Livello_1" data-name="Livello 1"><g id="Sfondo"><rect class="cls-2" width="1190.55" height="1190.55"/></g><g id="Griglia_base" data-name="Griglia base"><g id="_3" data-name=" 3"><rect class="cls-3" x="60.94" y="60.94" width="147.4" height="147.4"/><rect class="cls-3" x="245.2" y="60.94" width="147.4" height="147.4"/><rect class="cls-3" x="429.45" y="60.94" width="147.4" height="147.4"/><rect class="cls-3" x="613.7" y="60.94" width="147.4" height="147.4"/><rect class="cls-3" x="797.95" y="60.94" width="147.4" height="147.4"/><rect class="cls-3" x="982.2" y="60.94" width="147.4" height="147.4"/><rect class="cls-3" x="60.94" y="245.2" width="147.4" height="147.4"/><rect class="cls-3" x="245.2" y="245.2" width="147.4" height="147.4"/><rect class="cls-3" x="429.45" y="245.2" width="147.4" height="147.4"/><rect class="cls-3" x="613.7" y="245.2" width="147.4" height="147.4"/><rect class="cls-3" x="797.95" y="245.2" width="147.4" height="147.4"/><rect class="cls-3" x="982.2" y="245.2" width="147.4" height="147.4"/><rect class="cls-3" x="60.94" y="429.45" width="147.4" height="147.4"/><rect class="cls-3" x="245.2" y="429.45" width="147.4" height="147.4"/><rect class="cls-3" x="429.45" y="429.45" width="147.4" height="147.4"/><rect class="cls-3" x="613.7" y="429.45" width="147.4" height="147.4"/><rect class="cls-3" x="797.95" y="429.45" width="147.4" height="147.4"/><rect class="cls-3" x="982.2" y="429.45" width="147.4" height="147.4"/><rect class="cls-3" x="60.94" y="613.7" width="147.4" height="147.4"/><rect class="cls-3" x="245.2" y="613.7" width="147.4" height="147.4"/><rect class="cls-3" x="429.45" y="613.7" width="147.4" height="147.4"/><rect class="cls-3" x="613.7" y="613.7" width="147.4" height="147.4"/><rect class="cls-3" x="797.95" y="613.7" width="147.4" height="147.4"/><rect class="cls-3" x="982.2" y="613.7" width="147.4" height="147.4"/><rect class="cls-3" x="60.94" y="797.95" width="147.4" height="147.4"/><rect class="cls-3" x="245.2" y="797.95" width="147.4" height="147.4"/><rect class="cls-3" x="429.45" y="797.95" width="147.4" height="147.4"/><rect class="cls-3" x="613.7" y="797.95" width="147.4" height="147.4"/><rect class="cls-3" x="797.95" y="797.95" width="147.4" height="147.4"/><rect class="cls-3" x="982.2" y="797.95" width="147.4" height="147.4"/><rect class="cls-3" x="60.94" y="982.2" width="147.4" height="147.4"/><rect class="cls-3" x="245.2" y="982.2" width="147.4" height="147.4"/><rect class="cls-3" x="429.45" y="982.2" width="147.4" height="147.4"/><rect class="cls-3" x="613.7" y="982.2" width="147.4" height="147.4"/><rect class="cls-3" x="797.95" y="982.2" width="147.4" height="147.4"/><rect class="cls-3" x="982.2" y="982.2" width="147.4" height="147.4"/></g><g id="_2" data-name=" 2"><rect class="cls-4" x="60.94" y="60.94" width="184.25" height="184.25"/><rect class="cls-4" x="282.05" y="60.94" width="184.25" height="184.25"/><rect class="cls-4" x="503.15" y="60.94" width="184.25" height="184.25"/><rect class="cls-4" x="724.25" y="60.94" width="184.25" height="184.25"/><rect class="cls-4" x="945.35" y="60.94" width="184.25" height="184.25"/><rect class="cls-4" x="60.94" y="282.05" width="184.25" height="184.25"/><rect class="cls-4" x="282.05" y="282.05" width="184.25" height="184.25"/><rect class="cls-4" x="503.15" y="282.05" width="184.25" height="184.25"/><rect class="cls-4" x="724.25" y="282.05" width="184.25" height="184.25"/><rect class="cls-4" x="945.35" y="282.05" width="184.25" height="184.25"/><rect class="cls-4" x="60.94" y="503.15" width="184.25" height="184.25"/><rect class="cls-4" x="282.05" y="503.15" width="184.25" height="184.25"/><rect class="cls-4" x="503.15" y="503.15" width="184.25" height="184.25"/><rect class="cls-4" x="724.25" y="503.15" width="184.25" height="184.25"/><rect class="cls-4" x="945.35" y="503.15" width="184.25" height="184.25"/><rect class="cls-4" x="60.94" y="724.25" width="184.25" height="184.25"/><rect class="cls-4" x="282.05" y="724.25" width="184.25" height="184.25"/><rect class="cls-4" x="503.15" y="724.25" width="184.25" height="184.25"/><rect class="cls-4" x="724.25" y="724.25" width="184.25" height="184.25"/><rect class="cls-4" x="945.35" y="724.25" width="184.25" height="184.25"/><rect class="cls-4" x="60.94" y="945.35" width="184.25" height="184.25"/><rect class="cls-4" x="282.05" y="945.35" width="184.25" height="184.25"/><rect class="cls-4" x="503.15" y="945.35" width="184.25" height="184.25"/><rect class="cls-4" x="724.25" y="945.35" width="184.25" height="184.25"/><rect class="cls-4" x="945.35" y="945.35" width="184.25" height="184.25"/></g><g id="_1" data-name=" 1"><text></text><rect class="cls-5" x="337.32" y="60.94" width="239.53" height="239.53"/><rect class="cls-5" x="613.7" y="60.94" width="239.53" height="239.53"/><rect class="cls-5" x="890.08" y="60.94" width="239.53" height="239.53"/><rect class="cls-5" x="60.94" y="337.32" width="239.53" height="239.53"/><rect class="cls-5" x="337.32" y="337.32" width="239.53" height="239.53"/><rect class="cls-5" x="613.7" y="337.32" width="239.53" height="239.53"/><rect class="cls-5" x="890.08" y="337.32" width="239.53" height="239.53"/><rect class="cls-5" x="60.94" y="613.7" width="239.53" height="239.53"/><rect class="cls-5" x="337.32" y="613.7" width="239.53" height="239.53"/><rect class="cls-5" x="613.7" y="613.7" width="239.53" height="239.53"/><rect class="cls-5" x="890.08" y="613.7" width="239.53" height="239.53"/><rect class="cls-5" x="60.94" y="890.08" width="239.53" height="239.53"/><rect class="cls-5" x="337.32" y="890.08" width="239.53" height="239.53"/><rect class="cls-5" x="613.7" y="890.08" width="239.53" height="239.53"/><rect class="cls-5" x="890.08" y="890.08" width="239.53" height="239.53"/></g></g><g class="cls-6"><image width="850" height="484" transform="translate(709.04 21.84) scale(0.68)" xlink:href="892922_05.jpg"/></g><text class="cls-7" transform="translate(60.94 106.54)"><tspan class="cls-8">T</tspan><tspan x="24.73" y="0">ropico</tspan></text></g><g id="Livello_2" data-name="Livello 2"><g class="cls-9"><image width="550" height="413" transform="translate(60.94 208.34) scale(0.74 0.71)" xlink:href="892922_03.jpg"/></g><text class="cls-10" transform="translate(282.05 73.1)">Lorem ipsum dolor sit amet, Lorem ipsum dolor sit <tspan x="0" y="24">amet, consectetuer adipiscing elit, sed diam nonummy </tspan><tspan x="0" y="48">nibh euismod tincidunt ut laoreet dolore magna aliquam </tspan><tspan x="0" y="72">erat volutpat. Ut wisi enim ad minim veniam, quis no</tspan><tspan x="374.62" y="72">-</tspan><tspan x="0" y="96">strud exerci tation ullamcorper suscipit lobortis nisl ut </tspan><tspan x="0" y="120">aliquip ex ea commodo consequat. Duis autem vel eum </tspan><tspan x="0" y="144">iriure dolor in hendrerit in vulputate velit esse molestie </tspan><tspan x="0" y="168">consequat, vel illum dolore eu feugiat nulla facilisis at </tspan></text><text class="cls-11" transform="translate(282.05 450.03)">Cascata</text><text class="cls-10" transform="translate(936.33 373.48)">Lorem ipsum dolor <tspan x="-23.27" y="24">sit amet, consectetuer </tspan><tspan x="-36.86" y="48">adipiscing elit, sed diam no</tspan><tspan x="156.12" y="48">-</tspan><tspan x="-44.13" y="72">nummy nibh euismod tincidunt </tspan><tspan x="-45.62" y="96">ut laoreet dolore magna aliquam </tspan><tspan x="-40.62" y="120">erat volutpat. Ut wisi enim ad </tspan><tspan x="-29.93" y="144">minim veniam, quis nostrud </tspan><tspan x="-11.47" y="168">exerci tation ullamcor</tspan><tspan x="143.92" y="168">-</tspan><tspan x="22.51" y="192">per suscipit </tspan></text></g></svg>