<?xml version="1.0" encoding="utf-8"?>
<!-- Generator: Adobe Illustrator 22.0.0, SVG Export Plug-In . SVG Version: 6.00 Build 0)  -->
<svg version="1.1" id="Layer_1" xmlns="http://www.w3.org/2000/svg" xmlns:xlink="http://www.w3.org/1999/xlink" x="0px" y="0px"
	 viewBox="0 0 1190.6 1190.6" style="enable-background:new 0 0 1190.6 1190.6;" xml:space="preserve">
<style type="text/css">
	.st0{fill:#B4D6C6;}
	.st1{fill:none;stroke:#2B00AD;stroke-miterlimit:10;}
	.st2{fill:none;stroke:#FFFFFF;stroke-miterlimit:10;}
	.st3{fill:none;stroke:#D1001C;stroke-miterlimit:10;}
</style>
<g id="Layer_1_1_">
	<rect y="-0.2" class="st0" width="1190.6" height="1190.6"/>
</g>
<g id="Layer_2_1_">
	<g>
		<rect x="60.9" y="60.9" class="st1" width="239.5" height="239.5"/>
		<rect x="337.3" y="60.9" class="st1" width="239.5" height="239.5"/>
		<rect x="613.7" y="60.9" class="st1" width="239.5" height="239.5"/>
		<rect x="890.1" y="60.9" class="st1" width="239.5" height="239.5"/>
		<rect x="60.9" y="337.2" class="st1" width="239.5" height="239.5"/>
		<rect x="337.3" y="337.2" class="st1" width="239.5" height="239.5"/>
		<rect x="613.7" y="337.2" class="st1" width="239.5" height="239.5"/>
		<rect x="890.1" y="337.2" class="st1" width="239.5" height="239.5"/>
		<rect x="60.9" y="613.6" class="st1" width="239.5" height="239.5"/>
		<rect x="337.3" y="613.6" class="st1" width="239.5" height="239.5"/>
		<rect x="613.7" y="613.6" class="st1" width="239.5" height="239.5"/>
		<rect x="890.1" y="613.6" class="st1" width="239.5" height="239.5"/>
		<rect x="60.9" y="890" class="st1" width="239.5" height="239.5"/>
		<rect x="337.3" y="890" class="st1" width="239.5" height="239.5"/>
		<rect x="613.7" y="890" class="st1" width="239.5" height="239.5"/>
		<rect x="890.1" y="890" class="st1" width="239.5" height="239.5"/>
	</g>
</g>
<g id="Layer_3">
	<g>
		<rect x="60.8" y="60.8" class="st2" width="184.3" height="184.3"/>
		<rect x="281.9" y="60.8" class="st2" width="184.3" height="184.3"/>
		<rect x="503" y="60.8" class="st2" width="184.3" height="184.3"/>
		<rect x="724.1" y="60.8" class="st2" width="184.3" height="184.3"/>
		<rect x="945.2" y="60.8" class="st2" width="184.3" height="184.3"/>
		<rect x="60.8" y="281.9" class="st2" width="184.3" height="184.3"/>
		<rect x="281.9" y="281.9" class="st2" width="184.3" height="184.3"/>
		<rect x="503" y="281.9" class="st2" width="184.3" height="184.3"/>
		<rect x="724.1" y="281.9" class="st2" width="184.3" height="184.3"/>
		<rect x="945.2" y="281.9" class="st2" width="184.3" height="184.3"/>
		<rect x="60.8" y="503" class="st2" width="184.3" height="184.3"/>
		<rect x="281.9" y="503" class="st2" width="184.3" height="184.3"/>
		<rect x="503" y="503" class="st2" width="184.3" height="184.3"/>
		<rect x="724.1" y="503" class="st2" width="184.3" height="184.3"/>
		<rect x="945.2" y="503" class="st2" width="184.3" height="184.3"/>
		<rect x="60.8" y="724.1" class="st2" width="184.3" height="184.3"/>
		<rect x="281.9" y="724.1" class="st2" width="184.3" height="184.3"/>
		<rect x="503" y="724.1" class="st2" width="184.3" height="184.3"/>
		<rect x="724.1" y="724.1" class="st2" width="184.3" height="184.3"/>
		<rect x="945.2" y="724.1" class="st2" width="184.3" height="184.3"/>
		<rect x="60.8" y="945.2" class="st2" width="184.3" height="184.3"/>
		<rect x="281.9" y="945.2" class="st2" width="184.3" height="184.3"/>
		<rect x="503" y="945.2" class="st2" width="184.3" height="184.3"/>
		<rect x="724.1" y="945.2" class="st2" width="184.3" height="184.3"/>
		<rect x="945.2" y="945.2" class="st2" width="184.3" height="184.3"/>
	</g>
</g>
<rect x="60.9" y="60.9" class="st3" width="147.4" height="147.4"/>
<rect x="245.2" y="60.9" class="st3" width="147.4" height="147.4"/>
<rect x="429.4" y="60.9" class="st3" width="147.4" height="147.4"/>
<rect x="613.7" y="60.9" class="st3" width="147.4" height="147.4"/>
<rect x="797.9" y="60.9" class="st3" width="147.4" height="147.4"/>
<rect x="982.2" y="60.9" class="st3" width="147.4" height="147.4"/>
<rect x="60.9" y="245.2" class="st3" width="147.4" height="147.4"/>
<rect x="245.2" y="245.2" class="st3" width="147.4" height="147.4"/>
<rect x="429.4" y="245.2" class="st3" width="147.4" height="147.4"/>
<rect x="613.7" y="245.2" class="st3" width="147.4" height="147.4"/>
<rect x="797.9" y="245.2" class="st3" width="147.4" height="147.4"/>
<rect x="982.2" y="245.2" class="st3" width="147.4" height="147.4"/>
<rect x="60.9" y="429.4" class="st3" width="147.4" height="147.4"/>
<rect x="245.2" y="429.4" class="st3" width="147.4" height="147.4"/>
<rect x="429.4" y="429.4" class="st3" width="147.4" height="147.4"/>
<rect x="613.7" y="429.4" class="st3" width="147.4" height="147.4"/>
<rect x="797.9" y="429.4" class="st3" width="147.4" height="147.4"/>
<rect x="982.2" y="429.4" class="st3" width="147.4" height="147.4"/>
<rect x="60.9" y="613.7" class="st3" width="147.4" height="147.4"/>
<rect x="245.2" y="613.7" class="st3" width="147.4" height="147.4"/>
<rect x="429.4" y="613.7" class="st3" width="147.4" height="147.4"/>
<rect x="613.7" y="613.7" class="st3" width="147.4" height="147.4"/>
<rect x="797.9" y="613.7" class="st3" width="147.4" height="147.4"/>
<rect x="982.2" y="613.7" class="st3" width="147.4" height="147.4"/>
<rect x="60.9" y="797.9" class="st3" width="147.4" height="147.4"/>
<rect x="245.2" y="797.9" class="st3" width="147.4" height="147.4"/>
<rect x="429.4" y="797.9" class="st3" width="147.4" height="147.4"/>
<rect x="613.7" y="797.9" class="st3" width="147.4" height="147.4"/>
<rect x="797.9" y="797.9" class="st3" width="147.4" height="147.4"/>
<rect x="982.2" y="797.9" class="st3" width="147.4" height="147.4"/>
<rect x="60.9" y="982.2" class="st3" width="147.4" height="147.4"/>
<rect x="245.2" y="982.2" class="st3" width="147.4" height="147.4"/>
<rect x="429.4" y="982.2" class="st3" width="147.4" height="147.4"/>
<rect x="613.7" y="982.2" class="st3" width="147.4" height="147.4"/>
<rect x="797.9" y="982.2" class="st3" width="147.4" height="147.4"/>
<rect x="982.2" y="982.2" class="st3" width="147.4" height="147.4"/>
<image style="overflow:visible;enable-background:new    ;" width="3072" height="2041" xlink:href="893033_03.jpg"  transform="matrix(0.3486 0 0 0.3486 59.8504 202.295)">
</image>
</svg>
