<?xml version="1.0" encoding="utf-8"?>
<!-- Generator: Adobe Illustrator 22.0.0, SVG Export Plug-In . SVG Version: 6.00 Build 0)  -->
<svg version="1.1" id="Layer_1" xmlns="http://www.w3.org/2000/svg" xmlns:xlink="http://www.w3.org/1999/xlink" x="0px" y="0px"
	 viewBox="0 0 1190.6 1190.6" style="enable-background:new 0 0 1190.6 1190.6;" xml:space="preserve">
<style type="text/css">
	.st0{fill:#B4D6C6;}
	.st1{display:none;}
	.st2{display:inline;}
	.st3{fill:none;stroke:#FFFFFF;stroke-miterlimit:10;}
	.st4{display:inline;fill:none;stroke:#D1001C;stroke-miterlimit:10;}
	.st5{fill:none;stroke:#D1001C;stroke-miterlimit:10;}
	.st6{fill:none;stroke:#2B00AD;stroke-miterlimit:10;}
	.st7{clip-path:url(#SVGID_2_);}
</style>
<g id="Layer_1_1_">
	<rect y="-0.2" class="st0" width="1190.6" height="1190.6"/>
</g>
<g id="Layer_3" class="st1">
	<g class="st2">
		<rect x="60.8" y="60.8" class="st3" width="184.3" height="184.3"/>
		<rect x="281.9" y="60.8" class="st3" width="184.3" height="184.3"/>
		<rect x="503" y="60.8" class="st3" width="184.3" height="184.3"/>
		<rect x="724.1" y="60.8" class="st3" width="184.3" height="184.3"/>
		<rect x="945.2" y="60.8" class="st3" width="184.3" height="184.3"/>
		<rect x="60.8" y="281.9" class="st3" width="184.3" height="184.3"/>
		<rect x="281.9" y="281.9" class="st3" width="184.3" height="184.3"/>
		<rect x="503" y="281.9" class="st3" width="184.3" height="184.3"/>
		<rect x="724.1" y="281.9" class="st3" width="184.3" height="184.3"/>
		<rect x="945.2" y="281.9" class="st3" width="184.3" height="184.3"/>
		<rect x="60.8" y="503" class="st3" width="184.3" height="184.3"/>
		<rect x="281.9" y="503" class="st3" width="184.3" height="184.3"/>
		<rect x="503" y="503" class="st3" width="184.3" height="184.3"/>
		<rect x="724.1" y="503" class="st3" width="184.3" height="184.3"/>
		<rect x="945.2" y="503" class="st3" width="184.3" height="184.3"/>
		<rect x="60.8" y="724.1" class="st3" width="184.3" height="184.3"/>
		<rect x="281.9" y="724.1" class="st3" width="184.3" height="184.3"/>
		<rect x="503" y="724.1" class="st3" width="184.3" height="184.3"/>
		<rect x="724.1" y="724.1" class="st3" width="184.3" height="184.3"/>
		<rect x="945.2" y="724.1" class="st3" width="184.3" height="184.3"/>
		<rect x="60.8" y="945.2" class="st3" width="184.3" height="184.3"/>
		<rect x="281.9" y="945.2" class="st3" width="184.3" height="184.3"/>
		<rect x="503" y="945.2" class="st3" width="184.3" height="184.3"/>
		<rect x="724.1" y="945.2" class="st3" width="184.3" height="184.3"/>
		<rect x="945.2" y="945.2" class="st3" width="184.3" height="184.3"/>
	</g>
</g>
<g id="Layer_4" class="st1">
	<rect x="60.9" y="60.9" class="st4" width="147.4" height="147.4"/>
	<rect x="245.2" y="60.9" class="st4" width="147.4" height="147.4"/>
	<rect x="429.4" y="60.9" class="st4" width="147.4" height="147.4"/>
	<rect x="613.7" y="60.9" class="st4" width="147.4" height="147.4"/>
	<rect x="797.9" y="60.9" class="st4" width="147.4" height="147.4"/>
	<rect x="982.2" y="60.9" class="st4" width="147.4" height="147.4"/>
	<rect x="60.9" y="245.2" class="st4" width="147.4" height="147.4"/>
	<rect x="245.2" y="245.2" class="st4" width="147.4" height="147.4"/>
	<rect x="429.4" y="245.2" class="st4" width="147.4" height="147.4"/>
	<rect x="613.7" y="245.2" class="st4" width="147.4" height="147.4"/>
	<rect x="797.9" y="245.2" class="st4" width="147.4" height="147.4"/>
	<rect x="982.2" y="245.2" class="st4" width="147.4" height="147.4"/>
	<rect x="60.9" y="429.4" class="st4" width="147.4" height="147.4"/>
	<rect x="245.2" y="429.4" class="st4" width="147.4" height="147.4"/>
	<rect x="429.4" y="429.4" class="st4" width="147.4" height="147.4"/>
	<rect x="613.7" y="429.4" class="st4" width="147.4" height="147.4"/>
	<rect x="797.9" y="429.4" class="st4" width="147.4" height="147.4"/>
	<rect x="982.2" y="429.4" class="st4" width="147.4" height="147.4"/>
	<rect x="60.9" y="613.7" class="st4" width="147.4" height="147.4"/>
	<rect x="245.2" y="613.7" class="st4" width="147.4" height="147.4"/>
	<rect x="429.4" y="613.7" class="st4" width="147.4" height="147.4"/>
	<rect x="613.7" y="613.7" class="st4" width="147.4" height="147.4"/>
	<rect x="797.9" y="613.7" class="st4" width="147.4" height="147.4"/>
	<rect x="982.2" y="613.7" class="st4" width="147.4" height="147.4"/>
	<rect x="60.9" y="797.9" class="st4" width="147.4" height="147.4"/>
	<rect x="245.2" y="797.9" class="st4" width="147.4" height="147.4"/>
	<rect x="429.4" y="797.9" class="st4" width="147.4" height="147.4"/>
	<rect x="613.7" y="797.9" class="st4" width="147.4" height="147.4"/>
	<rect x="797.9" y="797.9" class="st4" width="147.4" height="147.4"/>
	<rect x="982.2" y="797.9" class="st4" width="147.4" height="147.4"/>
	<rect x="60.9" y="982.2" class="st4" width="147.4" height="147.4"/>
	<rect x="245.2" y="982.2" class="st4" width="147.4" height="147.4"/>
	<rect x="429.4" y="982.2" class="st4" width="147.4" height="147.4"/>
	<rect x="613.7" y="982.2" class="st4" width="147.4" height="147.4"/>
	<rect x="797.9" y="982.2" class="st4" width="147.4" height="147.4"/>
	<rect x="982.2" y="982.2" class="st4" width="147.4" height="147.4"/>
</g>
<g id="Layer_5">
</g>
<g>
	<rect x="60.9" y="60.9" class="st3" width="184.3" height="184.3"/>
	<rect x="282" y="60.9" class="st3" width="184.3" height="184.3"/>
	<rect x="503.1" y="60.9" class="st3" width="184.3" height="184.3"/>
	<rect x="724.2" y="60.9" class="st3" width="184.3" height="184.3"/>
	<rect x="945.3" y="60.9" class="st3" width="184.3" height="184.3"/>
	<rect x="60.9" y="282" class="st3" width="184.3" height="184.3"/>
	<rect x="282" y="282" class="st3" width="184.3" height="184.3"/>
	<rect x="503.1" y="282" class="st3" width="184.3" height="184.3"/>
	<rect x="724.2" y="282" class="st3" width="184.3" height="184.3"/>
	<rect x="945.3" y="282" class="st3" width="184.3" height="184.3"/>
	<rect x="60.9" y="503.1" class="st3" width="184.3" height="184.3"/>
	<rect x="282" y="503.1" class="st3" width="184.3" height="184.3"/>
	<rect x="503.1" y="503.1" class="st3" width="184.3" height="184.3"/>
	<rect x="724.2" y="503.1" class="st3" width="184.3" height="184.3"/>
	<rect x="945.3" y="503.1" class="st3" width="184.3" height="184.3"/>
	<rect x="60.9" y="724.2" class="st3" width="184.3" height="184.3"/>
	<rect x="282" y="724.2" class="st3" width="184.3" height="184.3"/>
	<rect x="503.1" y="724.2" class="st3" width="184.3" height="184.3"/>
	<rect x="724.2" y="724.2" class="st3" width="184.3" height="184.3"/>
	<rect x="945.3" y="724.2" class="st3" width="184.3" height="184.3"/>
	<rect x="60.9" y="945.3" class="st3" width="184.3" height="184.3"/>
	<rect x="282" y="945.3" class="st3" width="184.3" height="184.3"/>
	<rect x="503.1" y="945.3" class="st3" width="184.3" height="184.3"/>
	<rect x="724.2" y="945.3" class="st3" width="184.3" height="184.3"/>
	<rect x="945.3" y="945.3" class="st3" width="184.3" height="184.3"/>
</g>
<rect x="61" y="61" class="st5" width="147.4" height="147.4"/>
<rect x="245.3" y="61" class="st5" width="147.4" height="147.4"/>
<rect x="429.5" y="61" class="st5" width="147.4" height="147.4"/>
<rect x="613.8" y="61" class="st5" width="147.4" height="147.4"/>
<rect x="798" y="61" class="st5" width="147.4" height="147.4"/>
<rect x="982.3" y="61" class="st5" width="147.4" height="147.4"/>
<rect x="61" y="245.3" class="st5" width="147.4" height="147.4"/>
<rect x="245.3" y="245.3" class="st5" width="147.4" height="147.4"/>
<rect x="429.5" y="245.3" class="st5" width="147.4" height="147.4"/>
<rect x="613.8" y="245.3" class="st5" width="147.4" height="147.4"/>
<rect x="798" y="245.3" class="st5" width="147.4" height="147.4"/>
<rect x="982.3" y="245.3" class="st5" width="147.4" height="147.4"/>
<rect x="61" y="429.5" class="st5" width="147.4" height="147.4"/>
<rect x="245.3" y="429.5" class="st5" width="147.4" height="147.4"/>
<rect x="429.5" y="429.5" class="st5" width="147.4" height="147.4"/>
<rect x="613.8" y="429.5" class="st5" width="147.4" height="147.4"/>
<rect x="798" y="429.5" class="st5" width="147.4" height="147.4"/>
<rect x="982.3" y="429.5" class="st5" width="147.4" height="147.4"/>
<rect x="61" y="613.8" class="st5" width="147.4" height="147.4"/>
<rect x="245.3" y="613.8" class="st5" width="147.4" height="147.4"/>
<rect x="429.5" y="613.8" class="st5" width="147.4" height="147.4"/>
<rect x="613.8" y="613.8" class="st5" width="147.4" height="147.4"/>
<rect x="798" y="613.8" class="st5" width="147.4" height="147.4"/>
<rect x="982.3" y="613.8" class="st5" width="147.4" height="147.4"/>
<rect x="61" y="798" class="st5" width="147.4" height="147.4"/>
<rect x="245.3" y="798" class="st5" width="147.4" height="147.4"/>
<rect x="429.5" y="798" class="st5" width="147.4" height="147.4"/>
<rect x="613.8" y="798" class="st5" width="147.4" height="147.4"/>
<rect x="798" y="798" class="st5" width="147.4" height="147.4"/>
<rect x="982.3" y="798" class="st5" width="147.4" height="147.4"/>
<rect x="61" y="982.3" class="st5" width="147.4" height="147.4"/>
<rect x="245.3" y="982.3" class="st5" width="147.4" height="147.4"/>
<rect x="429.5" y="982.3" class="st5" width="147.4" height="147.4"/>
<rect x="613.8" y="982.3" class="st5" width="147.4" height="147.4"/>
<rect x="798" y="982.3" class="st5" width="147.4" height="147.4"/>
<rect x="982.3" y="982.3" class="st5" width="147.4" height="147.4"/>
<rect x="60.9" y="60.9" class="st6" width="239.5" height="239.5"/>
<rect x="337.3" y="60.9" class="st6" width="239.5" height="239.5"/>
<rect x="613.7" y="60.9" class="st6" width="239.5" height="239.5"/>
<rect x="890.1" y="60.9" class="st6" width="239.5" height="239.5"/>
<rect x="60.9" y="337.2" class="st6" width="239.5" height="239.5"/>
<rect x="337.3" y="337.2" class="st6" width="239.5" height="239.5"/>
<rect x="613.7" y="337.2" class="st6" width="239.5" height="239.5"/>
<rect x="890.1" y="337.2" class="st6" width="239.5" height="239.5"/>
<rect x="60.9" y="613.6" class="st6" width="239.5" height="239.5"/>
<rect x="337.3" y="613.6" class="st6" width="239.5" height="239.5"/>
<g>
	<g>
		<g>
			<defs>
				<rect id="SVGID_1_" x="613.7" y="613.6" width="239.5" height="239.5"/>
			</defs>
			<clipPath id="SVGID_2_">
				<use xlink:href="#SVGID_1_"  style="overflow:visible;"/>
			</clipPath>
			<g class="st7">
				
					<image style="overflow:visible;enable-background:new    ;" width="3072" height="2041" xlink:href="893033_03.jpg"  transform="matrix(0.1334 0 0 0.1334 557 597)">
				</image>
			</g>
		</g>
	</g>
</g>
<rect x="890.1" y="613.6" class="st6" width="239.5" height="239.5"/>
<rect x="60.9" y="890" class="st6" width="239.5" height="239.5"/>
<rect x="337.3" y="890" class="st6" width="239.5" height="239.5"/>
<rect x="613.7" y="890" class="st6" width="239.5" height="239.5"/>
<rect x="890.1" y="890" class="st6" width="239.5" height="239.5"/>
</svg>
