<?xml version="1.0" encoding="utf-8"?>
<!-- Generator: Adobe Illustrator 22.0.0, SVG Export Plug-In . SVG Version: 6.00 Build 0)  -->
<svg version="1.1" id="Layer_1" xmlns="http://www.w3.org/2000/svg" xmlns:xlink="http://www.w3.org/1999/xlink" x="0px" y="0px"
	 viewBox="0 0 1190.6 1190.6" style="enable-background:new 0 0 1190.6 1190.6;" xml:space="preserve">
<style type="text/css">
	.st0{fill:#7AC79A;stroke:#000000;stroke-miterlimit:10;}
	.st1{fill:none;stroke:#E71E25;stroke-miterlimit:10;}
	.st2{fill:none;stroke:#00A2D3;stroke-miterlimit:10;}
	.st3{fill:none;stroke:#E5C025;stroke-miterlimit:10;}
	.st4{clip-path:url(#SVGID_2_);enable-background:new    ;}
	.st5{clip-path:url(#SVGID_4_);}
</style>
<g>
	<path class="st0" d="M878.7,794.1L878.7,794.1L878.7,794.1z"/>
	<rect x="66.5" y="50.5" class="st1" width="239.5" height="239.5"/>
	<rect x="342.9" y="50.5" class="st1" width="239.5" height="239.5"/>
	<rect x="619.2" y="50.5" class="st1" width="239.5" height="239.5"/>
	<rect x="895.6" y="50.5" class="st1" width="239.5" height="239.5"/>
	<rect x="66.5" y="326.9" class="st1" width="239.5" height="239.5"/>
	<rect x="342.9" y="326.9" class="st1" width="239.5" height="239.5"/>
	<rect x="619.2" y="326.9" class="st1" width="239.5" height="239.5"/>
	<rect x="895.6" y="326.9" class="st1" width="239.5" height="239.5"/>
	<rect x="66.5" y="603.3" class="st1" width="239.5" height="239.5"/>
	<rect x="342.9" y="603.3" class="st1" width="239.5" height="239.5"/>
	<rect x="619.2" y="603.3" class="st1" width="239.5" height="239.5"/>
	<rect x="895.6" y="603.3" class="st1" width="239.5" height="239.5"/>
	<rect x="66.5" y="879.7" class="st1" width="239.5" height="239.5"/>
	<rect x="342.9" y="879.7" class="st1" width="239.5" height="239.5"/>
	<rect x="619.2" y="879.7" class="st1" width="239.5" height="239.5"/>
	<rect x="895.6" y="879.7" class="st1" width="239.5" height="239.5"/>
</g>
<g>
	<rect x="66.4" y="50.4" class="st2" width="184.3" height="184.3"/>
	<rect x="287.5" y="50.4" class="st2" width="184.3" height="184.3"/>
	<rect x="508.6" y="50.4" class="st2" width="184.3" height="184.3"/>
	<rect x="729.7" y="50.4" class="st2" width="184.3" height="184.3"/>
	<rect x="950.8" y="50.4" class="st2" width="184.3" height="184.3"/>
	<rect x="66.4" y="271.5" class="st2" width="184.3" height="184.3"/>
	<rect x="287.5" y="271.5" class="st2" width="184.3" height="184.3"/>
	<rect x="508.6" y="271.5" class="st2" width="184.3" height="184.3"/>
	<rect x="729.7" y="271.5" class="st2" width="184.3" height="184.3"/>
	<rect x="950.8" y="271.5" class="st2" width="184.3" height="184.3"/>
	<rect x="66.4" y="492.6" class="st2" width="184.3" height="184.3"/>
	<rect x="287.5" y="492.6" class="st2" width="184.3" height="184.3"/>
	<rect x="508.6" y="492.6" class="st2" width="184.3" height="184.3"/>
	<rect x="729.7" y="492.6" class="st2" width="184.3" height="184.3"/>
	<rect x="950.8" y="492.6" class="st2" width="184.3" height="184.3"/>
	<rect x="66.4" y="713.7" class="st2" width="184.3" height="184.3"/>
	<rect x="287.5" y="713.7" class="st2" width="184.3" height="184.3"/>
	<rect x="508.6" y="713.7" class="st2" width="184.3" height="184.3"/>
	<rect x="729.7" y="713.7" class="st2" width="184.3" height="184.3"/>
	<rect x="950.8" y="713.7" class="st2" width="184.3" height="184.3"/>
	<rect x="66.4" y="934.8" class="st2" width="184.3" height="184.3"/>
	<rect x="287.5" y="934.8" class="st2" width="184.3" height="184.3"/>
	<rect x="508.6" y="934.8" class="st2" width="184.3" height="184.3"/>
	<rect x="729.7" y="934.8" class="st2" width="184.3" height="184.3"/>
	<rect x="950.8" y="934.8" class="st2" width="184.3" height="184.3"/>
</g>
<rect x="66.6" y="50.1" class="st3" width="147.4" height="147.4"/>
<rect x="250.8" y="50.1" class="st3" width="147.4" height="147.4"/>
<rect x="435.1" y="50.1" class="st3" width="147.4" height="147.4"/>
<rect x="619.3" y="50.1" class="st3" width="147.4" height="147.4"/>
<rect x="803.6" y="50.1" class="st3" width="147.4" height="147.4"/>
<rect x="987.8" y="50.1" class="st3" width="147.4" height="147.4"/>
<rect x="66.6" y="234.4" class="st3" width="147.4" height="147.4"/>
<rect x="250.8" y="234.4" class="st3" width="147.4" height="147.4"/>
<rect x="435.1" y="234.4" class="st3" width="147.4" height="147.4"/>
<rect x="619.3" y="234.4" class="st3" width="147.4" height="147.4"/>
<rect x="803.6" y="234.4" class="st3" width="147.4" height="147.4"/>
<rect x="987.8" y="234.4" class="st3" width="147.4" height="147.4"/>
<rect x="66.6" y="418.6" class="st3" width="147.4" height="147.4"/>
<rect x="250.8" y="418.6" class="st3" width="147.4" height="147.4"/>
<rect x="435.1" y="418.6" transform="matrix(7.777937e-03 -1 1 7.777937e-03 12.5877 997.255)" class="st3" width="147.4" height="147.4"/>
<rect x="619.3" y="418.6" class="st3" width="147.4" height="147.4"/>
<rect x="803.6" y="418.6" class="st3" width="147.4" height="147.4"/>
<rect x="987.8" y="418.6" class="st3" width="147.4" height="147.4"/>
<rect x="66.6" y="602.9" class="st3" width="147.4" height="147.4"/>
<rect x="250.8" y="602.9" class="st3" width="147.4" height="147.4"/>
<g>
	<g>
		<defs>
			<rect id="SVGID_1_" x="435.1" y="602.9" width="147.4" height="147.4"/>
		</defs>
		<clipPath id="SVGID_2_">
			<use xlink:href="#SVGID_1_"  style="overflow:visible;"/>
		</clipPath>
		<g transform="matrix(1 0 0 1 0 0)" class="st4">
			
				<image style="overflow:visible;enable-background:new    ;" width="4032" height="3024" xlink:href="893033_03.JPG"  transform="matrix(0.1223 0 0 0.1216 268.7741 479.2456)">
			</image>
		</g>
	</g>
</g>
<rect x="619.3" y="602.9" class="st3" width="147.4" height="147.4"/>
<rect x="803.6" y="602.9" class="st3" width="147.4" height="147.4"/>
<rect x="987.8" y="602.9" class="st3" width="147.4" height="147.4"/>
<rect x="66.6" y="787.1" class="st3" width="147.4" height="147.4"/>
<rect x="250.8" y="787.1" class="st3" width="147.4" height="147.4"/>
<rect x="435.1" y="787.1" class="st3" width="147.4" height="147.4"/>
<rect x="619.3" y="787.1" class="st3" width="147.4" height="147.4"/>
<rect x="803.6" y="787.1" class="st3" width="147.4" height="147.4"/>
<rect x="987.8" y="787.1" class="st3" width="147.4" height="147.4"/>
<rect x="66.6" y="971.4" class="st3" width="147.4" height="147.4"/>
<rect x="250.8" y="971.4" class="st3" width="147.4" height="147.4"/>
<rect x="435.1" y="971.4" class="st3" width="147.4" height="147.4"/>
<rect x="619.3" y="971.4" class="st3" width="147.4" height="147.4"/>
<rect x="803.6" y="971.4" class="st3" width="147.4" height="147.4"/>
<rect x="987.8" y="971.4" class="st3" width="147.4" height="147.4"/>
<polygon class="st2" points="-647.6,-286.7 -640.8,-286.7 -640.8,-286.7 "/>
<g>
	<g>
		<defs>
			<ellipse id="SVGID_3_" cx="692.7" cy="676.6" rx="73.4" ry="73.7"/>
		</defs>
		<clipPath id="SVGID_4_">
			<use xlink:href="#SVGID_3_"  style="overflow:visible;"/>
		</clipPath>
		<g class="st5">
			
				<image style="overflow:visible;enable-background:new    ;" width="3072" height="2041" xlink:href="893033_05.jpg"  transform="matrix(7.039697e-02 0 0 7.404713e-02 597.674 600.0654)">
			</image>
		</g>
	</g>
</g>
</svg>
