<svg id="Livello_1" data-name="Livello 1" xmlns="http://www.w3.org/2000/svg" xmlns:xlink="http://www.w3.org/1999/xlink" viewBox="0 0 1190.55 1190.55"><defs><style>.cls-1,.cls-3{fill:none;}.cls-2{fill:#0071bc;}.cls-3{stroke:#9e005d;stroke-miterlimit:10;}.cls-4{font-size:60px;font-family:OpenSansCondensed-Bold, Open Sans Condensed;}.cls-4,.cls-7{font-weight:700;}.cls-5{letter-spacing:-0.03em;}.cls-6{font-size:16px;font-family:OpenSansCondensed-Light, Open Sans Condensed;}.cls-7{font-size:10px;font-family:EBGaramond-Bold, EB Garamond;}.cls-8{letter-spacing:0.02em;}.cls-9{letter-spacing:0em;}.cls-10{letter-spacing:-0.01em;}.cls-11{letter-spacing:-0.02em;}.cls-12{letter-spacing:-0.01em;}.cls-13{letter-spacing:-0.02em;}.cls-14{letter-spacing:0em;}.cls-15{letter-spacing:0em;}.cls-16{letter-spacing:-0.03em;}.cls-17{letter-spacing:-0.02em;}.cls-18{letter-spacing:-0.01em;}.cls-19{letter-spacing:-0.01em;}.cls-20{letter-spacing:-0.02em;}.cls-21{clip-path:url(#clip-path);}.cls-22{clip-path:url(#clip-path-2);}</style><clipPath id="clip-path"><rect class="cls-1" x="60.94" y="60.94" width="239.53" height="239.53"/></clipPath><clipPath id="clip-path-2"><circle class="cls-1" cx="840.61" cy="840.61" r="289"/></clipPath></defs><title>Tavola disegno 1</title><rect class="cls-2" width="1190.55" height="1190.55"/><rect class="cls-3" x="60.94" y="60.94" width="239.53" height="239.53"/><text class="cls-4" transform="translate(337.32 290.8)"><tspan class="cls-5">L</tspan><tspan x="22.5" y="0">’inverno</tspan></text><rect class="cls-3" x="613.7" y="60.94" width="239.53" height="239.53"/><rect class="cls-3" x="890.08" y="60.94" width="239.53" height="239.53"/><rect class="cls-3" x="60.94" y="337.32" width="239.53" height="239.53"/><rect class="cls-3" x="337.32" y="337.32" width="239.53" height="239.53"/><rect class="cls-3" x="613.7" y="337.32" width="239.53" height="239.53"/><rect class="cls-3" x="890.08" y="337.32" width="239.53" height="239.53"/><rect class="cls-3" x="60.94" y="613.7" width="239.53" height="239.53"/><rect class="cls-3" x="337.32" y="613.7" width="239.53" height="239.53"/><rect class="cls-3" x="613.7" y="613.7" width="239.53" height="239.53"/><rect class="cls-3" x="890.08" y="613.7" width="239.53" height="239.53"/><rect class="cls-3" x="60.94" y="890.08" width="239.53" height="239.53"/><rect class="cls-3" x="337.32" y="890.08" width="239.53" height="239.53"/><rect class="cls-3" x="613.7" y="890.08" width="239.53" height="239.53"/><rect class="cls-3" x="890.08" y="890.08" width="239.53" height="239.53"/><rect class="cls-3" x="337.32" y="60.94" width="239.53" height="239.53"/><rect class="cls-3" x="60.94" y="60.94" width="184.25" height="184.25"/><rect class="cls-3" x="282.05" y="60.94" width="184.25" height="184.25"/><rect class="cls-3" x="503.15" y="60.94" width="184.25" height="184.25"/><rect class="cls-3" x="724.25" y="60.94" width="184.25" height="184.25"/><rect class="cls-3" x="945.35" y="60.94" width="184.25" height="184.25"/><rect class="cls-3" x="60.94" y="282.05" width="184.25" height="184.25"/><rect class="cls-3" x="282.05" y="282.05" width="184.25" height="184.25"/><rect class="cls-3" x="503.15" y="282.05" width="184.25" height="184.25"/><rect class="cls-3" x="724.25" y="282.05" width="184.25" height="184.25"/><rect class="cls-3" x="945.35" y="282.05" width="184.25" height="184.25"/><rect class="cls-3" x="60.94" y="503.15" width="184.25" height="184.25"/><rect class="cls-3" x="282.05" y="503.15" width="184.25" height="184.25"/><rect class="cls-3" x="503.15" y="503.15" width="184.25" height="184.25"/><rect class="cls-3" x="724.25" y="503.15" width="184.25" height="184.25"/><rect class="cls-3" x="945.35" y="503.15" width="184.25" height="184.25"/><rect class="cls-3" x="60.94" y="724.25" width="184.25" height="184.25"/><rect class="cls-3" x="282.05" y="724.25" width="184.25" height="184.25"/><rect class="cls-3" x="503.15" y="724.25" width="184.25" height="184.25"/><rect class="cls-3" x="724.25" y="724.25" width="184.25" height="184.25"/><rect class="cls-3" x="945.35" y="724.25" width="184.25" height="184.25"/><rect class="cls-3" x="60.94" y="945.35" width="184.25" height="184.25"/><rect class="cls-3" x="282.05" y="945.35" width="184.25" height="184.25"/><rect class="cls-3" x="503.15" y="945.35" width="184.25" height="184.25"/><rect class="cls-3" x="724.25" y="945.35" width="184.25" height="184.25"/><rect class="cls-3" x="945.35" y="945.35" width="184.25" height="184.25"/><rect class="cls-3" x="60.94" y="60.94" width="147.4" height="147.4"/><rect class="cls-3" x="245.2" y="60.94" width="147.4" height="147.4"/><rect class="cls-3" x="429.45" y="60.94" width="147.4" height="147.4"/><rect class="cls-3" x="613.7" y="60.94" width="147.4" height="147.4"/><rect class="cls-3" x="797.95" y="60.94" width="147.4" height="147.4"/><rect class="cls-3" x="982.2" y="60.94" width="147.4" height="147.4"/><rect class="cls-3" x="60.94" y="245.2" width="147.4" height="147.4"/><text class="cls-6" transform="translate(337.32 349.48)">Lorem ipsum dolor sit amet, con<tspan x="167.02" y="0">-</tspan><tspan x="0" y="19.2">sectetuer adipiscing elit, sed diam </tspan><tspan x="0" y="38.4" xml:space="preserve">nonummy nibh euismod  Lorem </tspan><tspan x="0" y="57.6">ipsum dolor sit amet, consectetuer </tspan><tspan x="0" y="76.8">adipiscing elit, sed diam nonummy </tspan><tspan x="0" y="96">nibh euismod tincidunt ut laoreet </tspan><tspan x="0" y="115.2">dolore magna aliquam erat </tspan><tspan x="0" y="134.4">volutpat. Ut wisi enim ad minim </tspan><tspan x="0" y="153.6">veniam, quis nostrud exerci tation </tspan><tspan x="0" y="172.8">ullamcorper suscipit lobortis nisl ut </tspan><tspan x="0" y="192">aliquip ex ea commodo consequat. </tspan><tspan x="0" y="211.2">Duis autem vel eum iriure dolor in </tspan></text><rect class="cls-3" x="429.45" y="245.2" width="147.4" height="147.4"/><rect class="cls-3" x="613.7" y="245.2" width="147.4" height="147.4"/><rect class="cls-3" x="797.95" y="245.2" width="147.4" height="147.4"/><rect class="cls-3" x="982.2" y="245.2" width="147.4" height="147.4"/><rect class="cls-3" x="60.94" y="429.45" width="147.4" height="147.4"/><rect class="cls-3" x="245.2" y="429.45" width="147.4" height="147.4"/><rect class="cls-3" x="429.45" y="429.45" width="147.4" height="147.4"/><rect class="cls-3" x="613.7" y="429.45" width="147.4" height="147.4"/><rect class="cls-3" x="797.95" y="429.45" width="147.4" height="147.4"/><rect class="cls-3" x="982.2" y="429.45" width="147.4" height="147.4"/><rect class="cls-3" x="60.94" y="613.7" width="147.4" height="147.4"/><rect class="cls-3" x="245.2" y="613.7" width="147.4" height="147.4"/><rect class="cls-3" x="429.45" y="613.7" width="147.4" height="147.4"/><rect class="cls-3" x="613.7" y="613.7" width="147.4" height="147.4"/><rect class="cls-3" x="797.95" y="613.7" width="147.4" height="147.4"/><rect class="cls-3" x="982.2" y="613.7" width="147.4" height="147.4"/><rect class="cls-3" x="60.94" y="797.95" width="147.4" height="147.4"/><rect class="cls-3" x="245.2" y="797.95" width="147.4" height="147.4"/><rect class="cls-3" x="429.45" y="797.95" width="147.4" height="147.4"/><rect class="cls-3" x="613.7" y="797.95" width="147.4" height="147.4"/><rect class="cls-3" x="797.95" y="797.95" width="147.4" height="147.4"/><rect class="cls-3" x="982.2" y="797.95" width="147.4" height="147.4"/><rect class="cls-3" x="60.94" y="982.2" width="147.4" height="147.4"/><rect class="cls-3" x="245.2" y="982.2" width="147.4" height="147.4"/><rect class="cls-3" x="429.45" y="982.2" width="147.4" height="147.4"/><rect class="cls-3" x="613.7" y="982.2" width="147.4" height="147.4"/><rect class="cls-3" x="797.95" y="982.2" width="147.4" height="147.4"/><rect class="cls-3" x="982.2" y="982.2" width="147.4" height="147.4"/><text class="cls-7" transform="translate(429.45 989.25)"><tspan class="cls-8">L</tspan><tspan class="cls-9" x="6.02" y="0">o</tspan><tspan class="cls-10" x="11.05" y="0">r</tspan><tspan x="15.07" y="0">em ipsum </tspan><tspan class="cls-11" x="57.69" y="0">d</tspan><tspan class="cls-12" x="63.06" y="0">o</tspan><tspan class="cls-13" x="67.94" y="0">l</tspan><tspan x="70.63" y="0">or sit amet, </tspan><tspan class="cls-14" x="0" y="19.2">c</tspan><tspan x="4.07" y="19.2">ons</tspan><tspan class="cls-15" x="18.36" y="19.2">e</tspan><tspan x="22.51" y="19.2">ctetuer adipiscing elit, s</tspan><tspan class="cls-15" x="121.65" y="19.2">e</tspan><tspan x="125.8" y="19.2">d </tspan><tspan x="0" y="38.4">diam nonum</tspan><tspan class="cls-16" x="53.23" y="38.4">m</tspan><tspan x="61.02" y="38.4">y ni</tspan><tspan class="cls-17" x="76.81" y="38.4">b</tspan><tspan x="82.08" y="38.4" xml:space="preserve">h euismod  </tspan><tspan class="cls-8" x="0" y="57.6">L</tspan><tspan class="cls-9" x="6.02" y="57.6">o</tspan><tspan class="cls-10" x="11.05" y="57.6">r</tspan><tspan x="15.07" y="57.6">em ipsum </tspan><tspan class="cls-11" x="57.69" y="57.6">d</tspan><tspan class="cls-12" x="63.06" y="57.6">o</tspan><tspan class="cls-13" x="67.94" y="57.6">l</tspan><tspan x="70.63" y="57.6">or sit amet, </tspan><tspan class="cls-14" x="0" y="76.8">c</tspan><tspan x="4.07" y="76.8">ons</tspan><tspan class="cls-15" x="18.36" y="76.8">e</tspan><tspan x="22.51" y="76.8">ctetuer adipiscing elit, s</tspan><tspan class="cls-15" x="121.65" y="76.8">e</tspan><tspan x="125.8" y="76.8">d </tspan><tspan x="0" y="96">diam nonum</tspan><tspan class="cls-16" x="53.23" y="96">m</tspan><tspan x="61.02" y="96">y nib euismod </tspan><tspan x="0" y="115.2">tinci</tspan><tspan class="cls-18" x="19.42" y="115.2">d</tspan><tspan x="24.87" y="115.2">u</tspan><tspan class="cls-13" x="30.38" y="115.2">n</tspan><tspan x="35.88" y="115.2">t ut lao</tspan><tspan class="cls-19" x="65.89" y="115.2">r</tspan><tspan class="cls-15" x="69.91" y="115.2">e</tspan><tspan x="74.06" y="115.2">et </tspan><tspan class="cls-13" x="84.35" y="115.2">d</tspan><tspan class="cls-17" x="89.72" y="115.2">o</tspan><tspan class="cls-13" x="94.6" y="115.2">l</tspan><tspan x="97.29" y="115.2">o</tspan><tspan class="cls-19" x="102.32" y="115.2">r</tspan><tspan x="106.34" y="115.2">e magna </tspan><tspan x="0" y="134.4">aliquam erat </tspan><tspan class="cls-20" x="54.68" y="134.4">v</tspan><tspan class="cls-12" x="59.34" y="134.4">o</tspan><tspan class="cls-18" x="64.22" y="134.4">l</tspan><tspan x="66.99" y="134.4">ut</tspan><tspan class="cls-14" x="76.25" y="134.4">p</tspan><tspan x="81.72" y="134.4">at. Ut </tspan></text><g class="cls-21"><image width="1000" height="751" transform="translate(-319.29 -251.25)" xlink:href="893094_03.jpg"/></g><g class="cls-22"><image width="837" height="578" transform="translate(422.11 551.61)" xlink:href="893094_05.jpg"/></g></svg>