<?xml version="1.0" encoding="utf-8"?>
<!-- Generator: Adobe Illustrator 22.0.0, SVG Export Plug-In . SVG Version: 6.00 Build 0)  -->
<svg version="1.1" id="Layer_1" xmlns="http://www.w3.org/2000/svg" xmlns:xlink="http://www.w3.org/1999/xlink" x="0px" y="0px"
	 viewBox="0 0 1190.6 1190.6" style="enable-background:new 0 0 1190.6 1190.6;" xml:space="preserve">
<style type="text/css">
	.st0{fill:none;stroke:#E71E25;stroke-miterlimit:10;}
	.st1{fill:#7AC79A;stroke:#000000;stroke-miterlimit:10;}
	.st2{fill:none;}
	.st3{font-family:'OpenSansCondensed-Light';}
	.st4{font-size:16px;}
	.st5{letter-spacing:4;}
	.st6{letter-spacing:6;}
	.st7{letter-spacing:2;}
	.st8{fill:none;stroke:#00A2D3;stroke-miterlimit:10;}
	.st9{fill:none;stroke:#E5C025;stroke-miterlimit:10;}
	.st10{font-family:'ArialMT';}
	.st11{font-size:60px;}
	.st12{clip-path:url(#SVGID_2_);enable-background:new    ;}
	.st13{clip-path:url(#SVGID_4_);}
	.st14{font-family:'OpenSansCondensed-Bold';}
	.st15{font-family:'EBGaramond-MediumItalic';}
	.st16{font-size:10px;}
</style>
<image style="overflow:visible;" width="3508" height="4961" xlink:href="893033_immagine.png"  transform="matrix(8.921588e-02 0 0 8.921588e-02 66.6 676.6)">
</image>
<rect x="342.7" y="326.6" class="st0" width="239.5" height="239.5"/>
<g>
	<path class="st1" d="M878.7,794.1L878.7,794.1L878.7,794.1z"/>
	<rect x="66.5" y="50.5" class="st0" width="239.5" height="239.5"/>
	<rect x="342.9" y="50.5" class="st0" width="239.5" height="239.5"/>
	<rect x="619.2" y="50.5" class="st0" width="239.5" height="239.5"/>
	<rect x="895.6" y="50.5" class="st0" width="239.5" height="239.5"/>
	<rect x="66.5" y="326.9" class="st0" width="239.5" height="239.5"/>
	<rect x="342.9" y="326.9" class="st2" width="239.5" height="239.5"/>
	<text transform="matrix(1 0 0 1 342.8999 339.06)" class="st3 st4">Lorem</text>
	<text transform="matrix(1 0 0 1 375.8999 339.06)" class="st3 st4 st5"> </text>
	<text transform="matrix(1 0 0 1 383.9999 339.06)" class="st3 st4">ipsum</text>
	<text transform="matrix(1 0 0 1 415.9999 339.06)" class="st3 st4 st5"> </text>
	<text transform="matrix(1 0 0 1 424.0999 339.06)" class="st3 st4">dolor</text>
	<text transform="matrix(1 0 0 1 451.7999 339.06)" class="st3 st4 st5"> </text>
	<text transform="matrix(1 0 0 1 459.8999 339.06)" class="st3 st4">sit</text>
	<text transform="matrix(1 0 0 1 471.3999 339.06)" class="st3 st4 st5"> </text>
	<text transform="matrix(1 0 0 1 479.4999 339.06)" class="st3 st4">amet,</text>
	<text transform="matrix(1 0 0 1 508.8999 339.06)" class="st3 st4 st5"> </text>
	<text transform="matrix(1 0 0 1 516.9999 339.06)" class="st3 st4">consectetuer </text>
	<text transform="matrix(1 0 0 1 342.8999 353.06)" class="st3 st4">adipiscing</text>
	<text transform="matrix(1 0 0 1 394.5999 353.06)" class="st3 st4"> </text>
	<text transform="matrix(1 0 0 1 398.3999 353.06)" class="st3 st4">elit,</text>
	<text transform="matrix(1 0 0 1 417.4999 353.06)" class="st3 st4"> </text>
	<text transform="matrix(1 0 0 1 421.2999 353.06)" class="st3 st4">sed</text>
	<text transform="matrix(1 0 0 1 439.5999 353.06)" class="st3 st4"> </text>
	<text transform="matrix(1 0 0 1 443.3999 353.06)" class="st3 st4">diam</text>
	<text transform="matrix(1 0 0 1 469.6999 353.06)" class="st3 st4"> </text>
	<text transform="matrix(1 0 0 1 473.4999 353.06)" class="st3 st4">nonummy</text>
	<text transform="matrix(1 0 0 1 525.9999 353.06)" class="st3 st4"> </text>
	<text transform="matrix(1 0 0 1 529.8999 353.06)" class="st3 st4">nibh</text>
	<text transform="matrix(1 0 0 1 553.3999 353.06)" class="st3 st4"> </text>
	<text transform="matrix(1 0 0 1 557.2999 353.06)" class="st3 st4">euis</text>
	<text transform="matrix(1 0 0 1 578.3999 353.06)" class="st3 st4">-</text>
	<text transform="matrix(1 0 0 1 342.8999 367.06)" class="st3 st4">mod</text>
	<text transform="matrix(1 0 0 1 366.6999 367.06)" class="st3 st4 st6"> </text>
	<text transform="matrix(1 0 0 1 377.6999 367.06)" class="st3 st4">tincidunt</text>
	<text transform="matrix(1 0 0 1 422.9999 367.06)" class="st3 st4 st6"> </text>
	<text transform="matrix(1 0 0 1 433.9999 367.06)" class="st3 st4">ut</text>
	<text transform="matrix(1 0 0 1 444.2999 367.06)" class="st3 st4 st6"> </text>
	<text transform="matrix(1 0 0 1 455.2999 367.06)" class="st3 st4">laoreet</text>
	<text transform="matrix(1 0 0 1 491.4999 367.06)" class="st3 st4 st6"> </text>
	<text transform="matrix(1 0 0 1 502.4999 367.06)" class="st3 st4">dolore</text>
	<text transform="matrix(1 0 0 1 536.3999 367.06)" class="st3 st4 st6"> </text>
	<text transform="matrix(1 0 0 1 547.3999 367.06)" class="st3 st4">magna </text>
	<text transform="matrix(1 0 0 1 342.8999 381.06)" class="st3 st4">aliquam</text>
	<text transform="matrix(1 0 0 1 385.0999 381.06)" class="st3 st4"> </text>
	<text transform="matrix(1 0 0 1 389.1999 381.06)" class="st3 st4">erat</text>
	<text transform="matrix(1 0 0 1 409.3999 381.06)" class="st3 st4"> </text>
	<text transform="matrix(1 0 0 1 413.4999 381.06)" class="st3 st4">volutpat.</text>
	<text transform="matrix(1 0 0 1 458.3999 381.06)" class="st3 st4"> </text>
	<text transform="matrix(1 0 0 1 462.4999 381.06)" class="st3 st4">Ut</text>
	<text transform="matrix(1 0 0 1 473.8999 381.06)" class="st3 st4"> </text>
	<text transform="matrix(1 0 0 1 477.8999 381.06)" class="st3 st4">wisi</text>
	<text transform="matrix(1 0 0 1 497.7999 381.06)" class="st3 st4"> </text>
	<text transform="matrix(1 0 0 1 501.7999 381.06)" class="st3 st4">enim</text>
	<text transform="matrix(1 0 0 1 528.0999 381.06)" class="st3 st4"> </text>
	<text transform="matrix(1 0 0 1 532.0999 381.06)" class="st3 st4">ad</text>
	<text transform="matrix(1 0 0 1 545.1999 381.06)" class="st3 st4"> </text>
	<text transform="matrix(1 0 0 1 549.1999 381.06)" class="st3 st4">minim </text>
	<text transform="matrix(1 0 0 1 342.8999 395.06)" class="st3 st4">veniam,</text>
	<text transform="matrix(1 0 0 1 383.6999 395.06)" class="st3 st4"> </text>
	<text transform="matrix(1 0 0 1 386.4999 395.06)" class="st3 st4">quis</text>
	<text transform="matrix(1 0 0 1 408.3999 395.06)" class="st3 st4"> </text>
	<text transform="matrix(1 0 0 1 411.1999 395.06)" class="st3 st4">nostrud</text>
	<text transform="matrix(1 0 0 1 451.3999 395.06)" class="st3 st4"> </text>
	<text transform="matrix(1 0 0 1 454.1999 395.06)" class="st3 st4">exerci</text>
	<text transform="matrix(1 0 0 1 484.3999 395.06)" class="st3 st4"> </text>
	<text transform="matrix(1 0 0 1 487.1999 395.06)" class="st3 st4">tation</text>
	<text transform="matrix(1 0 0 1 516.7999 395.06)" class="st3 st4"> </text>
	<text transform="matrix(1 0 0 1 519.6999 395.06)" class="st3 st4">ullamcorper </text>
	<text transform="matrix(1 0 0 1 342.8999 409.06)" class="st3 st4">suscipit</text>
	<text transform="matrix(1 0 0 1 381.1999 409.06)" class="st3 st4"> </text>
	<text transform="matrix(1 0 0 1 384.2999 409.06)" class="st3 st4">lobortis</text>
	<text transform="matrix(1 0 0 1 423.4999 409.06)" class="st3 st4"> </text>
	<text transform="matrix(1 0 0 1 426.5999 409.06)" class="st3 st4">nisl</text>
	<text transform="matrix(1 0 0 1 444.4999 409.06)" class="st3 st4"> </text>
	<text transform="matrix(1 0 0 1 447.5999 409.06)" class="st3 st4">ut</text>
	<text transform="matrix(1 0 0 1 457.8999 409.06)" class="st3 st4"> </text>
	<text transform="matrix(1 0 0 1 460.9999 409.06)" class="st3 st4">aliquip</text>
	<text transform="matrix(1 0 0 1 496.8999 409.06)" class="st3 st4"> </text>
	<text transform="matrix(1 0 0 1 499.9999 409.06)" class="st3 st4">ex</text>
	<text transform="matrix(1 0 0 1 511.5999 409.06)" class="st3 st4"> </text>
	<text transform="matrix(1 0 0 1 514.6999 409.06)" class="st3 st4">ea</text>
	<text transform="matrix(1 0 0 1 527.0999 409.06)" class="st3 st4"> </text>
	<text transform="matrix(1 0 0 1 530.1999 409.06)" class="st3 st4">commodo </text>
	<text transform="matrix(1 0 0 1 342.8999 423.06)" class="st3 st4">consequat.</text>
	<text transform="matrix(1 0 0 1 399.2999 423.06)" class="st3 st4"> </text>
	<text transform="matrix(1 0 0 1 402.7999 423.06)" class="st3 st4">Duis</text>
	<text transform="matrix(1 0 0 1 425.4999 423.06)" class="st3 st4"> </text>
	<text transform="matrix(1 0 0 1 428.9999 423.06)" class="st3 st4">autem</text>
	<text transform="matrix(1 0 0 1 461.8999 423.06)" class="st3 st4"> </text>
	<text transform="matrix(1 0 0 1 465.3999 423.06)" class="st3 st4">vel</text>
	<text transform="matrix(1 0 0 1 479.7999 423.06)" class="st3 st4"> </text>
	<text transform="matrix(1 0 0 1 483.2999 423.06)" class="st3 st4">eum</text>
	<text transform="matrix(1 0 0 1 506.5999 423.06)" class="st3 st4"> </text>
	<text transform="matrix(1 0 0 1 510.0999 423.06)" class="st3 st4">iriure</text>
	<text transform="matrix(1 0 0 1 537.8999 423.06)" class="st3 st4"> </text>
	<text transform="matrix(1 0 0 1 541.3999 423.06)" class="st3 st4">dolor</text>
	<text transform="matrix(1 0 0 1 569.0999 423.06)" class="st3 st4"> </text>
	<text transform="matrix(1 0 0 1 572.5999 423.06)" class="st3 st4">in </text>
	<text transform="matrix(1 0 0 1 342.8999 437.06)" class="st3 st4">hendrerit</text>
	<text transform="matrix(1 0 0 1 391.2999 437.06)" class="st3 st4"> </text>
	<text transform="matrix(1 0 0 1 395.1999 437.06)" class="st3 st4">in</text>
	<text transform="matrix(1 0 0 1 404.9999 437.06)" class="st3 st4"> </text>
	<text transform="matrix(1 0 0 1 408.8999 437.06)" class="st3 st4">vulputate</text>
	<text transform="matrix(1 0 0 1 456.8999 437.06)" class="st3 st4"> </text>
	<text transform="matrix(1 0 0 1 460.7999 437.06)" class="st3 st4">velit</text>
	<text transform="matrix(1 0 0 1 481.6999 437.06)" class="st3 st4"> </text>
	<text transform="matrix(1 0 0 1 485.5999 437.06)" class="st3 st4">esse</text>
	<text transform="matrix(1 0 0 1 508.2999 437.06)" class="st3 st4"> </text>
	<text transform="matrix(1 0 0 1 512.0999 437.06)" class="st3 st4">molestie</text>
	<text transform="matrix(1 0 0 1 556.0999 437.06)" class="st3 st4"> </text>
	<text transform="matrix(1 0 0 1 559.9999 437.06)" class="st3 st4">con</text>
	<text transform="matrix(1 0 0 1 578.3999 437.06)" class="st3 st4">-</text>
	<text transform="matrix(1 0 0 1 342.8999 451.06)" class="st3 st4">sequat,</text>
	<text transform="matrix(1 0 0 1 380.8999 451.06)" class="st3 st4"> </text>
	<text transform="matrix(1 0 0 1 384.5999 451.06)" class="st3 st4">vel</text>
	<text transform="matrix(1 0 0 1 398.9999 451.06)" class="st3 st4"> </text>
	<text transform="matrix(1 0 0 1 402.5999 451.06)" class="st3 st4">illum</text>
	<text transform="matrix(1 0 0 1 428.5999 451.06)" class="st3 st4"> </text>
	<text transform="matrix(1 0 0 1 432.2999 451.06)" class="st3 st4">dolore</text>
	<text transform="matrix(1 0 0 1 466.1999 451.06)" class="st3 st4"> </text>
	<text transform="matrix(1 0 0 1 469.8999 451.06)" class="st3 st4">eu</text>
	<text transform="matrix(1 0 0 1 482.8999 451.06)" class="st3 st4"> </text>
	<text transform="matrix(1 0 0 1 486.5999 451.06)" class="st3 st4">feugiat</text>
	<text transform="matrix(1 0 0 1 521.6999 451.06)" class="st3 st4"> </text>
	<text transform="matrix(1 0 0 1 525.2999 451.06)" class="st3 st4">nulla</text>
	<text transform="matrix(1 0 0 1 551.0999 451.06)" class="st3 st4"> </text>
	<text transform="matrix(1 0 0 1 554.6999 451.06)" class="st3 st4">facili</text>
	<text transform="matrix(1 0 0 1 578.3999 451.06)" class="st3 st4">-</text>
	<text transform="matrix(1 0 0 1 342.8999 465.06)" class="st3 st4">sis</text>
	<text transform="matrix(1 0 0 1 355.9999 465.06)" class="st3 st4 st7"> </text>
	<text transform="matrix(1 0 0 1 362.5999 465.06)" class="st3 st4">at</text>
	<text transform="matrix(1 0 0 1 372.2999 465.06)" class="st3 st4 st7"> </text>
	<text transform="matrix(1 0 0 1 378.8999 465.06)" class="st3 st4">vero</text>
	<text transform="matrix(1 0 0 1 401.2999 465.06)" class="st3 st4 st7"> </text>
	<text transform="matrix(1 0 0 1 407.9999 465.06)" class="st3 st4">eros</text>
	<text transform="matrix(1 0 0 1 430.2999 465.06)" class="st3 st4 st7"> </text>
	<text transform="matrix(1 0 0 1 436.9999 465.06)" class="st3 st4">et</text>
	<text transform="matrix(1 0 0 1 446.6999 465.06)" class="st3 st4 st7"> </text>
	<text transform="matrix(1 0 0 1 453.3999 465.06)" class="st3 st4">accumsan</text>
	<text transform="matrix(1 0 0 1 504.3999 465.06)" class="st3 st4 st7"> </text>
	<text transform="matrix(1 0 0 1 510.9999 465.06)" class="st3 st4">et</text>
	<text transform="matrix(1 0 0 1 520.7999 465.06)" class="st3 st4 st7"> </text>
	<text transform="matrix(1 0 0 1 527.4999 465.06)" class="st3 st4">iusto</text>
	<text transform="matrix(1 0 0 1 552.4999 465.06)" class="st3 st4 st7"> </text>
	<text transform="matrix(1 0 0 1 559.0999 465.06)" class="st3 st4">odio </text>
	<text transform="matrix(1 0 0 1 342.8999 479.06)" class="st3 st4">dignissim</text>
	<text transform="matrix(1 0 0 1 391.6999 479.06)" class="st3 st4 st7"> </text>
	<text transform="matrix(1 0 0 1 396.9999 479.06)" class="st3 st4">qui</text>
	<text transform="matrix(1 0 0 1 413.7999 479.06)" class="st3 st4 st7"> </text>
	<text transform="matrix(1 0 0 1 419.0999 479.06)" class="st3 st4">blandit</text>
	<text transform="matrix(1 0 0 1 455.4999 479.06)" class="st3 st4 st7"> </text>
	<text transform="matrix(1 0 0 1 460.7999 479.06)" class="st3 st4">praesent</text>
	<text transform="matrix(1 0 0 1 506.0999 479.06)" class="st3 st4 st7"> </text>
	<text transform="matrix(1 0 0 1 511.3999 479.06)" class="st3 st4">luptatum</text>
	<text transform="matrix(1 0 0 1 558.2999 479.06)" class="st3 st4 st7"> </text>
	<text transform="matrix(1 0 0 1 563.5999 479.06)" class="st3 st4">zzril </text>
	<text transform="matrix(1 0 0 1 342.8999 493.06)" class="st3 st4">delenit</text>
	<text transform="matrix(1 0 0 1 378.6999 493.06)" class="st3 st4"> </text>
	<text transform="matrix(1 0 0 1 381.2999 493.06)" class="st3 st4">augue</text>
	<text transform="matrix(1 0 0 1 413.0999 493.06)" class="st3 st4"> </text>
	<text transform="matrix(1 0 0 1 415.5999 493.06)" class="st3 st4">duis</text>
	<text transform="matrix(1 0 0 1 437.4999 493.06)" class="st3 st4"> </text>
	<text transform="matrix(1 0 0 1 439.9999 493.06)" class="st3 st4">dolore</text>
	<text transform="matrix(1 0 0 1 473.8999 493.06)" class="st3 st4"> </text>
	<text transform="matrix(1 0 0 1 476.4999 493.06)" class="st3 st4">te</text>
	<text transform="matrix(1 0 0 1 486.2999 493.06)" class="st3 st4"> </text>
	<text transform="matrix(1 0 0 1 488.7999 493.06)" class="st3 st4">feugait</text>
	<text transform="matrix(1 0 0 1 523.8999 493.06)" class="st3 st4"> </text>
	<text transform="matrix(1 0 0 1 526.3999 493.06)" class="st3 st4">nulla</text>
	<text transform="matrix(1 0 0 1 552.1999 493.06)" class="st3 st4"> </text>
	<text transform="matrix(1 0 0 1 554.6999 493.06)" class="st3 st4">facili</text>
	<text transform="matrix(1 0 0 1 578.3999 493.06)" class="st3 st4">-</text>
	<text transform="matrix(1 0 0 1 342.8999 507.06)" class="st3 st4">si.</text>
	<text transform="matrix(1 0 0 1 342.8999 521.06)" class="st3 st4">Lorem</text>
	<text transform="matrix(1 0 0 1 375.8999 521.06)" class="st3 st4 st7"> </text>
	<text transform="matrix(1 0 0 1 382.6999 521.06)" class="st3 st4">ipsum</text>
	<text transform="matrix(1 0 0 1 414.6999 521.06)" class="st3 st4 st7"> </text>
	<text transform="matrix(1 0 0 1 421.3999 521.06)" class="st3 st4">dolor</text>
	<text transform="matrix(1 0 0 1 449.0999 521.06)" class="st3 st4 st7"> </text>
	<text transform="matrix(1 0 0 1 455.7999 521.06)" class="st3 st4">sit</text>
	<text transform="matrix(1 0 0 1 467.3999 521.06)" class="st3 st4 st7"> </text>
	<text transform="matrix(1 0 0 1 474.0999 521.06)" class="st3 st4">amet,</text>
	<text transform="matrix(1 0 0 1 503.4999 521.06)" class="st3 st4 st7"> </text>
	<text transform="matrix(1 0 0 1 510.1999 521.06)" class="st3 st4">cons</text>
	<text transform="matrix(1 0 0 1 533.6999 521.06)" class="st3 st4 st7"> </text>
	<text transform="matrix(1 0 0 1 540.3999 521.06)" class="st3 st4">ectetuer </text>
	<text transform="matrix(1 0 0 1 342.8999 535.06)" class="st3 st4">adipiscing</text>
	<text transform="matrix(1 0 0 1 394.5999 535.06)" class="st3 st4"> </text>
	<text transform="matrix(1 0 0 1 398.3999 535.06)" class="st3 st4">elit,</text>
	<text transform="matrix(1 0 0 1 417.4999 535.06)" class="st3 st4"> </text>
	<text transform="matrix(1 0 0 1 421.2999 535.06)" class="st3 st4">sed</text>
	<text transform="matrix(1 0 0 1 439.5999 535.06)" class="st3 st4"> </text>
	<text transform="matrix(1 0 0 1 443.3999 535.06)" class="st3 st4">diam</text>
	<text transform="matrix(1 0 0 1 469.6999 535.06)" class="st3 st4"> </text>
	<text transform="matrix(1 0 0 1 473.4999 535.06)" class="st3 st4">nonummy</text>
	<text transform="matrix(1 0 0 1 525.9999 535.06)" class="st3 st4"> </text>
	<text transform="matrix(1 0 0 1 529.8999 535.06)" class="st3 st4">nibh</text>
	<text transform="matrix(1 0 0 1 553.3999 535.06)" class="st3 st4"> </text>
	<text transform="matrix(1 0 0 1 557.2999 535.06)" class="st3 st4">euis</text>
	<text transform="matrix(1 0 0 1 578.3999 535.06)" class="st3 st4">-</text>
	<text transform="matrix(1 0 0 1 342.8999 549.06)" class="st3 st4">mod</text>
	<text transform="matrix(1 0 0 1 366.6999 549.06)" class="st3 st4 st6"> </text>
	<text transform="matrix(1 0 0 1 377.6999 549.06)" class="st3 st4">tincidunt</text>
	<text transform="matrix(1 0 0 1 422.9999 549.06)" class="st3 st4 st6"> </text>
	<text transform="matrix(1 0 0 1 433.9999 549.06)" class="st3 st4">ut</text>
	<text transform="matrix(1 0 0 1 444.2999 549.06)" class="st3 st4 st6"> </text>
	<text transform="matrix(1 0 0 1 455.2999 549.06)" class="st3 st4">laoreet</text>
	<text transform="matrix(1 0 0 1 491.4999 549.06)" class="st3 st4 st6"> </text>
	<text transform="matrix(1 0 0 1 502.4999 549.06)" class="st3 st4">dolore</text>
	<text transform="matrix(1 0 0 1 536.3999 549.06)" class="st3 st4 st6"> </text>
	<text transform="matrix(1 0 0 1 547.3999 549.06)" class="st3 st4">magna </text>
	<text transform="matrix(1 0 0 1 342.8999 563.06)" class="st3 st4">aliquam</text>
	<text transform="matrix(1 0 0 1 385.0999 563.06)" class="st3 st4"> </text>
	<text transform="matrix(1 0 0 1 389.1999 563.06)" class="st3 st4">erat</text>
	<text transform="matrix(1 0 0 1 409.3999 563.06)" class="st3 st4"> </text>
	<text transform="matrix(1 0 0 1 413.4999 563.06)" class="st3 st4">volutpat.</text>
	<text transform="matrix(1 0 0 1 458.3999 563.06)" class="st3 st4"> </text>
	<text transform="matrix(1 0 0 1 462.4999 563.06)" class="st3 st4">Ut</text>
	<text transform="matrix(1 0 0 1 473.8999 563.06)" class="st3 st4"> </text>
	<text transform="matrix(1 0 0 1 477.8999 563.06)" class="st3 st4">wisi</text>
	<text transform="matrix(1 0 0 1 497.7999 563.06)" class="st3 st4"> </text>
	<text transform="matrix(1 0 0 1 501.7999 563.06)" class="st3 st4">enim</text>
	<text transform="matrix(1 0 0 1 528.0999 563.06)" class="st3 st4"> </text>
	<text transform="matrix(1 0 0 1 532.0999 563.06)" class="st3 st4">ad</text>
	<text transform="matrix(1 0 0 1 545.1999 563.06)" class="st3 st4"> </text>
	<text transform="matrix(1 0 0 1 549.1999 563.06)" class="st3 st4">minim </text>
	<rect x="619.2" y="326.9" class="st0" width="239.5" height="239.5"/>
	<rect x="895.6" y="326.9" class="st0" width="239.5" height="239.5"/>
	<rect x="66.5" y="603.3" class="st0" width="239.5" height="239.5"/>
	<rect x="342.9" y="603.3" class="st0" width="239.5" height="239.5"/>
	<rect x="619.2" y="603.3" class="st0" width="239.5" height="239.5"/>
	<rect x="895.6" y="603.3" class="st0" width="239.5" height="239.5"/>
	<rect x="66.5" y="879.7" class="st0" width="239.5" height="239.5"/>
	<rect x="342.9" y="879.7" class="st0" width="239.5" height="239.5"/>
	<rect x="619.2" y="879.7" class="st0" width="239.5" height="239.5"/>
	<rect x="895.6" y="879.7" class="st0" width="239.5" height="239.5"/>
</g>
<g>
	<rect x="66.4" y="50.4" class="st8" width="184.3" height="184.3"/>
	<rect x="287.5" y="50.4" class="st8" width="184.3" height="184.3"/>
	<rect x="508.6" y="50.4" class="st8" width="184.3" height="184.3"/>
	<rect x="729.7" y="50.4" class="st8" width="184.3" height="184.3"/>
	<rect x="950.8" y="50.4" class="st8" width="184.3" height="184.3"/>
	<rect x="66.4" y="271.5" class="st8" width="184.3" height="184.3"/>
	<rect x="287.5" y="271.5" class="st8" width="184.3" height="184.3"/>
	<rect x="508.6" y="271.5" class="st8" width="184.3" height="184.3"/>
	<rect x="729.7" y="271.5" class="st8" width="184.3" height="184.3"/>
	<rect x="950.8" y="271.5" class="st8" width="184.3" height="184.3"/>
	<rect x="66.4" y="492.6" class="st8" width="184.3" height="184.3"/>
	<rect x="287.5" y="492.6" class="st8" width="184.3" height="184.3"/>
	<rect x="508.6" y="492.6" class="st8" width="184.3" height="184.3"/>
	<rect x="729.7" y="492.6" class="st8" width="184.3" height="184.3"/>
	<rect x="950.8" y="492.6" class="st8" width="184.3" height="184.3"/>
	<rect x="66.4" y="713.7" class="st8" width="184.3" height="184.3"/>
	<rect x="287.5" y="713.7" class="st8" width="184.3" height="184.3"/>
	<rect x="508.6" y="713.7" class="st8" width="184.3" height="184.3"/>
	<rect x="729.7" y="713.7" class="st8" width="184.3" height="184.3"/>
	<rect x="950.8" y="713.7" class="st8" width="184.3" height="184.3"/>
	<rect x="66.4" y="934.8" class="st8" width="184.3" height="184.3"/>
	<rect x="287.5" y="934.8" class="st8" width="184.3" height="184.3"/>
	<rect x="508.6" y="934.8" class="st8" width="184.3" height="184.3"/>
	<rect x="729.7" y="934.8" class="st8" width="184.3" height="184.3"/>
	<rect x="950.8" y="934.8" class="st8" width="184.3" height="184.3"/>
</g>
<rect x="66.6" y="50.1" class="st9" width="147.4" height="147.4"/>
<rect x="250.8" y="50.1" class="st9" width="147.4" height="147.4"/>
<rect x="435.1" y="50.1" class="st9" width="147.4" height="147.4"/>
<rect x="619.3" y="50.1" class="st9" width="147.4" height="147.4"/>
<rect x="803.6" y="50.1" class="st9" width="147.4" height="147.4"/>
<rect x="987.8" y="50.1" class="st9" width="147.4" height="147.4"/>
<rect x="66.6" y="234.4" class="st9" width="147.4" height="147.4"/>
<rect x="250.8" y="234.4" class="st9" width="147.4" height="147.4"/>
<rect x="435.1" y="234.4" class="st9" width="147.4" height="147.4"/>
<rect x="619.3" y="234.4" class="st2" width="147.4" height="147.4"/>
<text transform="matrix(1 0 0 1 619.2998 276.9994)" class="st10 st11"> </text>
<rect x="803.6" y="234.4" class="st9" width="147.4" height="147.4"/>
<rect x="987.8" y="234.4" class="st9" width="147.4" height="147.4"/>
<rect x="66.6" y="418.6" class="st9" width="147.4" height="147.4"/>
<rect x="250.8" y="418.6" class="st9" width="147.4" height="147.4"/>
<rect x="435.1" y="418.6" transform="matrix(7.777702e-03 -1 1 7.777702e-03 12.6181 997.285)" class="st9" width="147.4" height="147.4"/>
<rect x="619.3" y="418.6" class="st9" width="147.4" height="147.4"/>
<rect x="803.6" y="418.6" class="st9" width="147.4" height="147.4"/>
<rect x="987.8" y="418.6" class="st9" width="147.4" height="147.4"/>
<rect x="66.6" y="602.9" class="st9" width="147.4" height="147.4"/>
<rect x="250.8" y="602.9" class="st9" width="147.4" height="147.4"/>
<g>
	<g>
		<g>
			<defs>
				<rect id="SVGID_1_" x="435.1" y="602.9" width="147.4" height="147.4"/>
			</defs>
			<clipPath id="SVGID_2_">
				<use xlink:href="#SVGID_1_"  style="overflow:visible;"/>
			</clipPath>
			<g transform="matrix(1 0 0 1 0 0)" class="st12">
				
					<image style="overflow:visible;enable-background:new    ;" width="4032" height="3024" xlink:href="../../Pictures/893033_03.JPG"  transform="matrix(0.1223 0 0 0.1216 268.7741 479.2456)">
				</image>
			</g>
		</g>
	</g>
</g>
<rect x="619.3" y="602.9" class="st9" width="147.4" height="147.4"/>
<rect x="803.6" y="602.9" class="st9" width="147.4" height="147.4"/>
<rect x="987.8" y="602.9" class="st9" width="147.4" height="147.4"/>
<rect x="66.6" y="787.1" class="st9" width="147.4" height="147.4"/>
<rect x="250.8" y="787.1" class="st9" width="147.4" height="147.4"/>
<rect x="435.1" y="787.1" class="st9" width="147.4" height="147.4"/>
<rect x="619.3" y="787.1" class="st9" width="147.4" height="147.4"/>
<rect x="803.6" y="787.1" class="st9" width="147.4" height="147.4"/>
<rect x="987.8" y="787.1" class="st9" width="147.4" height="147.4"/>
<rect x="66.6" y="971.4" class="st9" width="147.4" height="147.4"/>
<rect x="250.8" y="971.4" class="st9" width="147.4" height="147.4"/>
<rect x="435.1" y="971.4" class="st9" width="147.4" height="147.4"/>
<rect x="619.3" y="971.4" class="st9" width="147.4" height="147.4"/>
<rect x="803.6" y="971.4" class="st9" width="147.4" height="147.4"/>
<rect x="987.8" y="971.4" class="st9" width="147.4" height="147.4"/>
<polygon class="st8" points="-647.6,-286.7 -640.8,-286.7 -640.8,-286.7 "/>
<g>
	<g>
		<g>
			<defs>
				
					<ellipse id="SVGID_3_" transform="matrix(8.716824e-03 -1 1 8.716824e-03 10.0876 1363.3759)" cx="692.7" cy="676.6" rx="73.7" ry="73.4"/>
			</defs>
			<clipPath id="SVGID_4_">
				<use xlink:href="#SVGID_3_"  style="overflow:visible;"/>
			</clipPath>
			<g class="st13">
				
					<image style="overflow:visible;enable-background:new    ;" width="3072" height="2041" xlink:href="../../Pictures/mucca.jpg"  transform="matrix(7.039429e-02 6.136380e-04 -6.454558e-04 7.404432e-02 598.3448 599.2401)">
				</image>
			</g>
		</g>
	</g>
</g>
<text transform="matrix(1 0 0 1 343.9591 232.9854)" class="st14 st11">La mucca nella griglia</text>
<text transform="matrix(1 0 0 1 771.0786 672.7562)" class="st15 st16">Razza bovina Highlander </text>
<text transform="matrix(1 0 0 1 290.6091 671.7306)" class="st15 st16">Isola Victoria - British Columbia </text>
<circle class="st2" cx="739" cy="446.7" r="119.8"/>
<text transform="matrix(1 0 0 1 721.8613 339.06)" class="st3 st4">Lore</text>
<text transform="matrix(1 0 0 1 745.8613 339.06)" class="st3 st4">m </text>
<text transform="matrix(1 0 0 1 680.4613 353.06)" class="st3 st4">ipsum</text>
<text transform="matrix(1 0 0 1 712.4613 353.06)" class="st3 st4 st7"> </text>
<text transform="matrix(1 0 0 1 717.9613 353.06)" class="st3 st4">dolor</text>
<text transform="matrix(1 0 0 1 745.5613 353.06)" class="st3 st4 st7"> </text>
<text transform="matrix(1 0 0 1 751.0613 353.06)" class="st3 st4">sit</text>
<text transform="matrix(1 0 0 1 762.5613 353.06)" class="st3 st4 st7"> </text>
<text transform="matrix(1 0 0 1 768.0613 353.06)" class="st3 st4">amet, </text>
<text transform="matrix(1 0 0 1 660.5613 367.06)" class="st3 st4">consectetuer</text>
<text transform="matrix(1 0 0 1 725.9613 367.06)" class="st3 st4 st6"> </text>
<text transform="matrix(1 0 0 1 736.2614 367.06)" class="st3 st4">adipiscing</text>
<text transform="matrix(1 0 0 1 787.9613 367.06)" class="st3 st4 st6"> </text>
<text transform="matrix(1 0 0 1 798.2614 367.06)" class="st3 st4">elit, </text>
<text transform="matrix(1 0 0 1 646.8613 381.06)" class="st3 st4">sed</text>
<text transform="matrix(1 0 0 1 665.1613 381.06)" class="st3 st4"> </text>
<text transform="matrix(1 0 0 1 669.7614 381.06)" class="st3 st4">diam</text>
<text transform="matrix(1 0 0 1 696.0613 381.06)" class="st3 st4"> </text>
<text transform="matrix(1 0 0 1 700.7614 381.06)" class="st3 st4">nonummy</text>
<text transform="matrix(1 0 0 1 753.2614 381.06)" class="st3 st4"> </text>
<text transform="matrix(1 0 0 1 757.8613 381.06)" class="st3 st4">nibh</text>
<text transform="matrix(1 0 0 1 781.4613 381.06)" class="st3 st4"> </text>
<text transform="matrix(1 0 0 1 786.1613 381.06)" class="st3 st4">euismod </text>
<text transform="matrix(1 0 0 1 636.7614 395.06)" class="st3 st4">tincidunt</text>
<text transform="matrix(1 0 0 1 682.1613 395.06)" class="st3 st4 st6"> </text>
<text transform="matrix(1 0 0 1 693.0613 395.06)" class="st3 st4">ut</text>
<text transform="matrix(1 0 0 1 703.3613 395.06)" class="st3 st4 st6"> </text>
<text transform="matrix(1 0 0 1 714.2614 395.06)" class="st3 st4">laoreet</text>
<text transform="matrix(1 0 0 1 750.4613 395.06)" class="st3 st4 st6"> </text>
<text transform="matrix(1 0 0 1 761.2614 395.06)" class="st3 st4">dolore</text>
<text transform="matrix(1 0 0 1 795.1613 395.06)" class="st3 st4 st6"> </text>
<text transform="matrix(1 0 0 1 806.0613 395.06)" class="st3 st4">magna </text>
<text transform="matrix(1 0 0 1 629.4613 409.06)" class="st3 st4">aliquam</text>
<text transform="matrix(1 0 0 1 671.6613 409.06)" class="st3 st4 st7"> </text>
<text transform="matrix(1 0 0 1 678.4613 409.06)" class="st3 st4">erat</text>
<text transform="matrix(1 0 0 1 698.7614 409.06)" class="st3 st4 st7"> </text>
<text transform="matrix(1 0 0 1 705.5613 409.06)" class="st3 st4">volutpat.</text>
<text transform="matrix(1 0 0 1 750.5613 409.06)" class="st3 st4 st7"> </text>
<text transform="matrix(1 0 0 1 757.3613 409.06)" class="st3 st4">Ut</text>
<text transform="matrix(1 0 0 1 768.7614 409.06)" class="st3 st4 st7"> </text>
<text transform="matrix(1 0 0 1 775.5613 409.06)" class="st3 st4">wisi</text>
<text transform="matrix(1 0 0 1 795.4613 409.06)" class="st3 st4 st7"> </text>
<text transform="matrix(1 0 0 1 802.2614 409.06)" class="st3 st4">enim</text>
<text transform="matrix(1 0 0 1 828.5613 409.06)" class="st3 st4 st7"> </text>
<text transform="matrix(1 0 0 1 835.3613 409.06)" class="st3 st4">ad </text>
<text transform="matrix(1 0 0 1 624.2614 423.06)" class="st3 st4">minim</text>
<text transform="matrix(1 0 0 1 657.4613 423.06)" class="st3 st4 st7"> </text>
<text transform="matrix(1 0 0 1 664.1613 423.06)" class="st3 st4">veniam,</text>
<text transform="matrix(1 0 0 1 704.9613 423.06)" class="st3 st4 st7"> </text>
<text transform="matrix(1 0 0 1 711.6613 423.06)" class="st3 st4">quis</text>
<text transform="matrix(1 0 0 1 733.5613 423.06)" class="st3 st4 st7"> </text>
<text transform="matrix(1 0 0 1 740.2614 423.06)" class="st3 st4">nostrud</text>
<text transform="matrix(1 0 0 1 780.3613 423.06)" class="st3 st4 st7"> </text>
<text transform="matrix(1 0 0 1 787.1613 423.06)" class="st3 st4">exerci</text>
<text transform="matrix(1 0 0 1 817.2614 423.06)" class="st3 st4 st7"> </text>
<text transform="matrix(1 0 0 1 824.0613 423.06)" class="st3 st4">tation </text>
<text transform="matrix(1 0 0 1 620.9613 437.06)" class="st3 st4">ullamcorper</text>
<text transform="matrix(1 0 0 1 683.6613 437.06)" class="st3 st4"> </text>
<text transform="matrix(1 0 0 1 687.0613 437.06)" class="st3 st4">suscipit</text>
<text transform="matrix(1 0 0 1 725.3613 437.06)" class="st3 st4"> </text>
<text transform="matrix(1 0 0 1 728.7614 437.06)" class="st3 st4">lobortis</text>
<text transform="matrix(1 0 0 1 767.8613 437.06)" class="st3 st4"> </text>
<text transform="matrix(1 0 0 1 771.2614 437.06)" class="st3 st4">nisl</text>
<text transform="matrix(1 0 0 1 789.0613 437.06)" class="st3 st4"> </text>
<text transform="matrix(1 0 0 1 792.4613 437.06)" class="st3 st4">ut</text>
<text transform="matrix(1 0 0 1 802.7614 437.06)" class="st3 st4"> </text>
<text transform="matrix(1 0 0 1 806.1613 437.06)" class="st3 st4">aliquip</text>
<text transform="matrix(1 0 0 1 842.0613 437.06)" class="st3 st4"> </text>
<text transform="matrix(1 0 0 1 845.3613 437.06)" class="st3 st4">ex </text>
<text transform="matrix(1 0 0 1 619.3613 451.06)" class="st3 st4">ea</text>
<text transform="matrix(1 0 0 1 631.7614 451.06)" class="st3 st4"> </text>
<text transform="matrix(1 0 0 1 635.9613 451.06)" class="st3 st4">commodo</text>
<text transform="matrix(1 0 0 1 688.1613 451.06)" class="st3 st4"> </text>
<text transform="matrix(1 0 0 1 692.3613 451.06)" class="st3 st4">consequat.</text>
<text transform="matrix(1 0 0 1 748.7614 451.06)" class="st3 st4"> </text>
<text transform="matrix(1 0 0 1 752.8613 451.06)" class="st3 st4">Duis</text>
<text transform="matrix(1 0 0 1 775.5613 451.06)" class="st3 st4"> </text>
<text transform="matrix(1 0 0 1 779.6613 451.06)" class="st3 st4">autem</text>
<text transform="matrix(1 0 0 1 812.5613 451.06)" class="st3 st4"> </text>
<text transform="matrix(1 0 0 1 816.7614 451.06)" class="st3 st4">vel</text>
<text transform="matrix(1 0 0 1 831.0613 451.06)" class="st3 st4"> </text>
<text transform="matrix(1 0 0 1 835.2614 451.06)" class="st3 st4">eum </text>
<text transform="matrix(1 0 0 1 620.5613 465.06)" class="st3 st4">iriure</text>
<text transform="matrix(1 0 0 1 648.4613 465.06)" class="st3 st4"> </text>
<text transform="matrix(1 0 0 1 651.5613 465.06)" class="st3 st4">dolor</text>
<text transform="matrix(1 0 0 1 679.1613 465.06)" class="st3 st4"> </text>
<text transform="matrix(1 0 0 1 682.2614 465.06)" class="st3 st4">in</text>
<text transform="matrix(1 0 0 1 692.0613 465.06)" class="st3 st4"> </text>
<text transform="matrix(1 0 0 1 695.1613 465.06)" class="st3 st4">hendrerit</text>
<text transform="matrix(1 0 0 1 743.4613 465.06)" class="st3 st4"> </text>
<text transform="matrix(1 0 0 1 746.5613 465.06)" class="st3 st4">in</text>
<text transform="matrix(1 0 0 1 756.3613 465.06)" class="st3 st4"> </text>
<text transform="matrix(1 0 0 1 759.4613 465.06)" class="st3 st4">vulputate</text>
<text transform="matrix(1 0 0 1 807.5613 465.06)" class="st3 st4"> </text>
<text transform="matrix(1 0 0 1 810.6613 465.06)" class="st3 st4">velit</text>
<text transform="matrix(1 0 0 1 831.5613 465.06)" class="st3 st4"> </text>
<text transform="matrix(1 0 0 1 834.6613 465.06)" class="st3 st4">esse </text>
<text transform="matrix(1 0 0 1 623.6613 479.06)" class="st3 st4">molestie</text>
<text transform="matrix(1 0 0 1 667.5613 479.06)" class="st3 st4 st5"> </text>
<text transform="matrix(1 0 0 1 676.1613 479.06)" class="st3 st4">consequat,</text>
<text transform="matrix(1 0 0 1 732.5613 479.06)" class="st3 st4 st5"> </text>
<text transform="matrix(1 0 0 1 741.1613 479.06)" class="st3 st4">vel</text>
<text transform="matrix(1 0 0 1 755.5613 479.06)" class="st3 st4 st5"> </text>
<text transform="matrix(1 0 0 1 764.1613 479.06)" class="st3 st4">illum</text>
<text transform="matrix(1 0 0 1 790.1613 479.06)" class="st3 st4 st5"> </text>
<text transform="matrix(1 0 0 1 798.6613 479.06)" class="st3 st4">dolore</text>
<text transform="matrix(1 0 0 1 832.5613 479.06)" class="st3 st4 st5"> </text>
<text transform="matrix(1 0 0 1 841.1613 479.06)" class="st3 st4">eu </text>
<text transform="matrix(1 0 0 1 628.5613 493.06)" class="st3 st4">feugiat</text>
<text transform="matrix(1 0 0 1 663.5613 493.06)" class="st3 st4 st6"> </text>
<text transform="matrix(1 0 0 1 673.4613 493.06)" class="st3 st4">nulla</text>
<text transform="matrix(1 0 0 1 699.1613 493.06)" class="st3 st4 st6"> </text>
<text transform="matrix(1 0 0 1 709.0613 493.06)" class="st3 st4">facilisis</text>
<text transform="matrix(1 0 0 1 745.7614 493.06)" class="st3 st4 st6"> </text>
<text transform="matrix(1 0 0 1 755.6613 493.06)" class="st3 st4">at</text>
<text transform="matrix(1 0 0 1 765.2614 493.06)" class="st3 st4 st6"> </text>
<text transform="matrix(1 0 0 1 775.1613 493.06)" class="st3 st4">vero</text>
<text transform="matrix(1 0 0 1 797.5613 493.06)" class="st3 st4 st6"> </text>
<text transform="matrix(1 0 0 1 807.3613 493.06)" class="st3 st4">eros</text>
<text transform="matrix(1 0 0 1 829.7614 493.06)" class="st3 st4 st6"> </text>
<text transform="matrix(1 0 0 1 839.5613 493.06)" class="st3 st4">et </text>
<text transform="matrix(1 0 0 1 635.5613 507.06)" class="st3 st4">accumsan</text>
<text transform="matrix(1 0 0 1 686.5613 507.06)" class="st3 st4 st7"> </text>
<text transform="matrix(1 0 0 1 692.9613 507.06)" class="st3 st4">et</text>
<text transform="matrix(1 0 0 1 702.7614 507.06)" class="st3 st4 st7"> </text>
<text transform="matrix(1 0 0 1 709.1613 507.06)" class="st3 st4">iusto</text>
<text transform="matrix(1 0 0 1 734.1613 507.06)" class="st3 st4 st7"> </text>
<text transform="matrix(1 0 0 1 740.5613 507.06)" class="st3 st4">odio</text>
<text transform="matrix(1 0 0 1 763.8613 507.06)" class="st3 st4 st7"> </text>
<text transform="matrix(1 0 0 1 770.2614 507.06)" class="st3 st4">dignissim</text>
<text transform="matrix(1 0 0 1 819.1613 507.06)" class="st3 st4 st7"> </text>
<text transform="matrix(1 0 0 1 825.5613 507.06)" class="st3 st4">qui </text>
<text transform="matrix(1 0 0 1 645.1613 521.06)" class="st3 st4">blandit</text>
<text transform="matrix(1 0 0 1 681.5613 521.06)" class="st3 st4"> </text>
<text transform="matrix(1 0 0 1 684.9613 521.06)" class="st3 st4">praesent</text>
<text transform="matrix(1 0 0 1 730.2614 521.06)" class="st3 st4"> </text>
<text transform="matrix(1 0 0 1 733.6613 521.06)" class="st3 st4">luptatum</text>
<text transform="matrix(1 0 0 1 780.5613 521.06)" class="st3 st4"> </text>
<text transform="matrix(1 0 0 1 783.9613 521.06)" class="st3 st4">zzril</text>
<text transform="matrix(1 0 0 1 802.8613 521.06)" class="st3 st4"> </text>
<text transform="matrix(1 0 0 1 806.2614 521.06)" class="st3 st4">dele</text>
<text transform="matrix(1 0 0 1 828.7614 521.06)" class="st3 st4">-</text>
<text transform="matrix(1 0 0 1 658.1613 535.06)" class="st3 st4">nit</text>
<text transform="matrix(1 0 0 1 671.4613 535.06)" class="st3 st4"> </text>
<text transform="matrix(1 0 0 1 674.6613 535.06)" class="st3 st4">augue</text>
<text transform="matrix(1 0 0 1 706.4613 535.06)" class="st3 st4"> </text>
<text transform="matrix(1 0 0 1 709.6613 535.06)" class="st3 st4">duis</text>
<text transform="matrix(1 0 0 1 731.4613 535.06)" class="st3 st4"> </text>
<text transform="matrix(1 0 0 1 734.6613 535.06)" class="st3 st4">dolore</text>
<text transform="matrix(1 0 0 1 768.5613 535.06)" class="st3 st4"> </text>
<text transform="matrix(1 0 0 1 771.7614 535.06)" class="st3 st4">te</text>
<text transform="matrix(1 0 0 1 781.4613 535.06)" class="st3 st4"> </text>
<text transform="matrix(1 0 0 1 784.6613 535.06)" class="st3 st4">feugait </text>
<text transform="matrix(1 0 0 1 707.0613 549.06)" class="st3 st4">nulla facilisi.</text>
<text transform="matrix(1 0 0 1 710.7614 563.06)" class="st3 st4 st5">Lore</text>
<text transform="matrix(1 0 0 1 756.9613 563.06)" class="st3 st4">m </text>
</svg>
