<?xml version="1.0" encoding="utf-8"?>
<!-- Generator: Adobe Illustrator 22.0.0, SVG Export Plug-In . SVG Version: 6.00 Build 0)  -->
<svg version="1.1" id="Layer_1" xmlns="http://www.w3.org/2000/svg" xmlns:xlink="http://www.w3.org/1999/xlink" x="0px" y="0px"
	 viewBox="0 0 1190.6 1190.6" style="enable-background:new 0 0 1190.6 1190.6;" xml:space="preserve">
<style type="text/css">
	.st0{fill:none;stroke:#E71E25;stroke-miterlimit:10;}
	.st1{fill:#7AC79A;stroke:#000000;stroke-miterlimit:10;}
	.st2{fill:none;}
	.st3{font-family:'OpenSansCondensed-Light';}
	.st4{font-size:16px;}
	.st5{letter-spacing:5;}
	.st6{letter-spacing:7;}
	.st7{letter-spacing:1;}
	.st8{letter-spacing:3;}
	.st9{letter-spacing:2;}
	.st10{fill:none;stroke:#00A2D3;stroke-miterlimit:10;}
	.st11{fill:none;stroke:#E5C025;stroke-miterlimit:10;}
	.st12{font-family:'ArialMT';}
	.st13{font-size:60px;}
	.st14{clip-path:url(#SVGID_2_);enable-background:new    ;}
	.st15{clip-path:url(#SVGID_4_);}
	.st16{font-family:'OpenSansCondensed-Bold';}
	.st17{font-family:'EBGaramond-MediumItalic';}
	.st18{font-size:10px;}
</style>
<rect x="342.7" y="326.6" class="st0" width="239.5" height="239.5"/>
<g>
	<path class="st1" d="M878.7,794.1L878.7,794.1L878.7,794.1z"/>
	<rect x="66.5" y="50.5" class="st0" width="239.5" height="239.5"/>
	<rect x="342.9" y="50.5" class="st0" width="239.5" height="239.5"/>
	<rect x="619.2" y="50.5" class="st0" width="239.5" height="239.5"/>
	<rect x="895.6" y="50.5" class="st0" width="239.5" height="239.5"/>
	<rect x="66.5" y="326.9" class="st0" width="239.5" height="239.5"/>
	<rect x="342.9" y="326.9" class="st2" width="239.5" height="239.5"/>
	<text transform="matrix(1 0 0 1 342.8999 339.06)"><tspan x="0" y="0" class="st3 st4">Lorem</tspan><tspan x="33" y="0" class="st3 st4 st5"> </tspan><tspan x="41.1" y="0" class="st3 st4">ipsum</tspan><tspan x="73.1" y="0" class="st3 st4 st5"> </tspan><tspan x="81.2" y="0" class="st3 st4">dolor</tspan><tspan x="108.9" y="0" class="st3 st4 st5"> </tspan><tspan x="117" y="0" class="st3 st4">sit</tspan><tspan x="128.5" y="0" class="st3 st4 st5"> </tspan><tspan x="136.6" y="0" class="st3 st4">amet,</tspan><tspan x="166" y="0" class="st3 st4 st5"> </tspan><tspan x="174.1" y="0" class="st3 st4">consectetuer </tspan><tspan x="0" y="14" class="st3 st4">adipiscing</tspan><tspan x="51.7" y="14" class="st3 st4"> </tspan><tspan x="55.5" y="14" class="st3 st4">elit,</tspan><tspan x="74.6" y="14" class="st3 st4"> </tspan><tspan x="78.4" y="14" class="st3 st4">sed</tspan><tspan x="96.7" y="14" class="st3 st4"> </tspan><tspan x="100.5" y="14" class="st3 st4">diam</tspan><tspan x="126.8" y="14" class="st3 st4"> </tspan><tspan x="130.6" y="14" class="st3 st4">nonummy</tspan><tspan x="183.1" y="14" class="st3 st4"> </tspan><tspan x="187" y="14" class="st3 st4">nibh</tspan><tspan x="210.5" y="14" class="st3 st4"> </tspan><tspan x="214.4" y="14" class="st3 st4">euis</tspan><tspan x="235.5" y="14" class="st3 st4">-</tspan><tspan x="0" y="28" class="st3 st4">mod</tspan><tspan x="23.8" y="28" class="st3 st4 st6"> </tspan><tspan x="34.8" y="28" class="st3 st4">tincidunt</tspan><tspan x="80.1" y="28" class="st3 st4 st6"> </tspan><tspan x="91.1" y="28" class="st3 st4">ut</tspan><tspan x="101.4" y="28" class="st3 st4 st6"> </tspan><tspan x="112.4" y="28" class="st3 st4">laoreet</tspan><tspan x="148.6" y="28" class="st3 st4 st6"> </tspan><tspan x="159.6" y="28" class="st3 st4">dolore</tspan><tspan x="193.5" y="28" class="st3 st4 st6"> </tspan><tspan x="204.5" y="28" class="st3 st4">magna </tspan><tspan x="0" y="42" class="st3 st4">aliquam</tspan><tspan x="42.2" y="42" class="st3 st4 st7"> </tspan><tspan x="46.3" y="42" class="st3 st4">erat</tspan><tspan x="66.5" y="42" class="st3 st4 st7"> </tspan><tspan x="70.6" y="42" class="st3 st4">volutpat.</tspan><tspan x="115.5" y="42" class="st3 st4 st7"> </tspan><tspan x="119.6" y="42" class="st3 st4">Ut</tspan><tspan x="131" y="42" class="st3 st4 st7"> </tspan><tspan x="135" y="42" class="st3 st4">wisi</tspan><tspan x="154.9" y="42" class="st3 st4 st7"> </tspan><tspan x="158.9" y="42" class="st3 st4">enim</tspan><tspan x="185.2" y="42" class="st3 st4 st7"> </tspan><tspan x="189.2" y="42" class="st3 st4">ad</tspan><tspan x="202.3" y="42" class="st3 st4 st7"> </tspan><tspan x="206.3" y="42" class="st3 st4">minim </tspan><tspan x="0" y="56" class="st3 st4">veniam,</tspan><tspan x="40.8" y="56" class="st3 st4"> </tspan><tspan x="43.6" y="56" class="st3 st4">quis</tspan><tspan x="65.5" y="56" class="st3 st4"> </tspan><tspan x="68.3" y="56" class="st3 st4">nostrud</tspan><tspan x="108.5" y="56" class="st3 st4"> </tspan><tspan x="111.3" y="56" class="st3 st4">exerci</tspan><tspan x="141.5" y="56" class="st3 st4"> </tspan><tspan x="144.3" y="56" class="st3 st4">tation</tspan><tspan x="173.9" y="56" class="st3 st4"> </tspan><tspan x="176.8" y="56" class="st3 st4">ullamcorper </tspan><tspan x="0" y="70" class="st3 st4">suscipit</tspan><tspan x="38.3" y="70" class="st3 st4"> </tspan><tspan x="41.4" y="70" class="st3 st4">lobortis</tspan><tspan x="80.6" y="70" class="st3 st4"> </tspan><tspan x="83.7" y="70" class="st3 st4">nisl</tspan><tspan x="101.6" y="70" class="st3 st4"> </tspan><tspan x="104.7" y="70" class="st3 st4">ut</tspan><tspan x="115" y="70" class="st3 st4"> </tspan><tspan x="118.1" y="70" class="st3 st4">aliquip</tspan><tspan x="154" y="70" class="st3 st4"> </tspan><tspan x="157.1" y="70" class="st3 st4">ex</tspan><tspan x="168.7" y="70" class="st3 st4"> </tspan><tspan x="171.8" y="70" class="st3 st4">ea</tspan><tspan x="184.2" y="70" class="st3 st4"> </tspan><tspan x="187.3" y="70" class="st3 st4">commodo </tspan><tspan x="0" y="84" class="st3 st4">consequat.</tspan><tspan x="56.4" y="84" class="st3 st4"> </tspan><tspan x="59.9" y="84" class="st3 st4">Duis</tspan><tspan x="82.6" y="84" class="st3 st4"> </tspan><tspan x="86.1" y="84" class="st3 st4">autem</tspan><tspan x="119" y="84" class="st3 st4"> </tspan><tspan x="122.5" y="84" class="st3 st4">vel</tspan><tspan x="136.9" y="84" class="st3 st4"> </tspan><tspan x="140.4" y="84" class="st3 st4">eum</tspan><tspan x="163.7" y="84" class="st3 st4"> </tspan><tspan x="167.2" y="84" class="st3 st4">iriure</tspan><tspan x="195" y="84" class="st3 st4"> </tspan><tspan x="198.5" y="84" class="st3 st4">dolor</tspan><tspan x="226.2" y="84" class="st3 st4"> </tspan><tspan x="229.7" y="84" class="st3 st4">in </tspan><tspan x="0" y="98" class="st3 st4">hendrerit</tspan><tspan x="48.4" y="98" class="st3 st4"> </tspan><tspan x="52.3" y="98" class="st3 st4">in</tspan><tspan x="62.1" y="98" class="st3 st4"> </tspan><tspan x="66" y="98" class="st3 st4">vulputate</tspan><tspan x="114" y="98" class="st3 st4"> </tspan><tspan x="117.9" y="98" class="st3 st4">velit</tspan><tspan x="138.8" y="98" class="st3 st4"> </tspan><tspan x="142.7" y="98" class="st3 st4">esse</tspan><tspan x="165.4" y="98" class="st3 st4"> </tspan><tspan x="169.2" y="98" class="st3 st4">molestie</tspan><tspan x="213.2" y="98" class="st3 st4"> </tspan><tspan x="217.1" y="98" class="st3 st4">con</tspan><tspan x="235.5" y="98" class="st3 st4">-</tspan><tspan x="0" y="112" class="st3 st4">sequat,</tspan><tspan x="38" y="112" class="st3 st4"> </tspan><tspan x="41.7" y="112" class="st3 st4">vel</tspan><tspan x="56.1" y="112" class="st3 st4"> </tspan><tspan x="59.7" y="112" class="st3 st4">illum</tspan><tspan x="85.7" y="112" class="st3 st4"> </tspan><tspan x="89.4" y="112" class="st3 st4">dolore</tspan><tspan x="123.3" y="112" class="st3 st4"> </tspan><tspan x="127" y="112" class="st3 st4">eu</tspan><tspan x="140" y="112" class="st3 st4"> </tspan><tspan x="143.7" y="112" class="st3 st4">feugiat</tspan><tspan x="178.8" y="112" class="st3 st4"> </tspan><tspan x="182.4" y="112" class="st3 st4">nulla</tspan><tspan x="208.2" y="112" class="st3 st4"> </tspan><tspan x="211.8" y="112" class="st3 st4">facili</tspan><tspan x="235.5" y="112" class="st3 st4">-</tspan><tspan x="0" y="126" class="st3 st4">sis</tspan><tspan x="13.1" y="126" class="st3 st4 st8"> </tspan><tspan x="19.7" y="126" class="st3 st4">at</tspan><tspan x="29.4" y="126" class="st3 st4 st8"> </tspan><tspan x="36" y="126" class="st3 st4">vero</tspan><tspan x="58.4" y="126" class="st3 st4 st8"> </tspan><tspan x="65.1" y="126" class="st3 st4">eros</tspan><tspan x="87.4" y="126" class="st3 st4 st8"> </tspan><tspan x="94.1" y="126" class="st3 st4">et</tspan><tspan x="103.8" y="126" class="st3 st4 st8"> </tspan><tspan x="110.5" y="126" class="st3 st4">accumsan</tspan><tspan x="161.5" y="126" class="st3 st4 st8"> </tspan><tspan x="168.1" y="126" class="st3 st4">et</tspan><tspan x="177.9" y="126" class="st3 st4 st8"> </tspan><tspan x="184.6" y="126" class="st3 st4">iusto</tspan><tspan x="209.6" y="126" class="st3 st4 st8"> </tspan><tspan x="216.2" y="126" class="st3 st4">odio </tspan><tspan x="0" y="140" class="st3 st4">dignissim</tspan><tspan x="48.8" y="140" class="st3 st4 st9"> </tspan><tspan x="54.1" y="140" class="st3 st4">qui</tspan><tspan x="70.9" y="140" class="st3 st4 st9"> </tspan><tspan x="76.2" y="140" class="st3 st4">blandit</tspan><tspan x="112.6" y="140" class="st3 st4 st9"> </tspan><tspan x="117.9" y="140" class="st3 st4">praesent</tspan><tspan x="163.2" y="140" class="st3 st4 st9"> </tspan><tspan x="168.5" y="140" class="st3 st4">luptatum</tspan><tspan x="215.4" y="140" class="st3 st4 st9"> </tspan><tspan x="220.7" y="140" class="st3 st4">zzril </tspan><tspan x="0" y="154" class="st3 st4">delenit</tspan><tspan x="35.8" y="154" class="st3 st4"> </tspan><tspan x="38.4" y="154" class="st3 st4">augue</tspan><tspan x="70.2" y="154" class="st3 st4"> </tspan><tspan x="72.7" y="154" class="st3 st4">duis</tspan><tspan x="94.6" y="154" class="st3 st4"> </tspan><tspan x="97.1" y="154" class="st3 st4">dolore</tspan><tspan x="131" y="154" class="st3 st4"> </tspan><tspan x="133.6" y="154" class="st3 st4">te</tspan><tspan x="143.4" y="154" class="st3 st4"> </tspan><tspan x="145.9" y="154" class="st3 st4">feugait</tspan><tspan x="181" y="154" class="st3 st4"> </tspan><tspan x="183.5" y="154" class="st3 st4">nulla</tspan><tspan x="209.3" y="154" class="st3 st4"> </tspan><tspan x="211.8" y="154" class="st3 st4">facili</tspan><tspan x="235.5" y="154" class="st3 st4">-</tspan><tspan x="0" y="168" class="st3 st4">si.</tspan><tspan x="0" y="182" class="st3 st4">Lorem</tspan><tspan x="33" y="182" class="st3 st4 st8"> </tspan><tspan x="39.8" y="182" class="st3 st4">ipsum</tspan><tspan x="71.8" y="182" class="st3 st4 st8"> </tspan><tspan x="78.5" y="182" class="st3 st4">dolor</tspan><tspan x="106.2" y="182" class="st3 st4 st8"> </tspan><tspan x="112.9" y="182" class="st3 st4">sit</tspan><tspan x="124.5" y="182" class="st3 st4 st8"> </tspan><tspan x="131.2" y="182" class="st3 st4">amet,</tspan><tspan x="160.6" y="182" class="st3 st4 st8"> </tspan><tspan x="167.3" y="182" class="st3 st4">cons</tspan><tspan x="190.8" y="182" class="st3 st4 st8"> </tspan><tspan x="197.5" y="182" class="st3 st4">ectetuer </tspan><tspan x="0" y="196" class="st3 st4">adipiscing</tspan><tspan x="51.7" y="196" class="st3 st4"> </tspan><tspan x="55.5" y="196" class="st3 st4">elit,</tspan><tspan x="74.6" y="196" class="st3 st4"> </tspan><tspan x="78.4" y="196" class="st3 st4">sed</tspan><tspan x="96.7" y="196" class="st3 st4"> </tspan><tspan x="100.5" y="196" class="st3 st4">diam</tspan><tspan x="126.8" y="196" class="st3 st4"> </tspan><tspan x="130.6" y="196" class="st3 st4">nonummy</tspan><tspan x="183.1" y="196" class="st3 st4"> </tspan><tspan x="187" y="196" class="st3 st4">nibh</tspan><tspan x="210.5" y="196" class="st3 st4"> </tspan><tspan x="214.4" y="196" class="st3 st4">euis</tspan><tspan x="235.5" y="196" class="st3 st4">-</tspan><tspan x="0" y="210" class="st3 st4">mod</tspan><tspan x="23.8" y="210" class="st3 st4 st6"> </tspan><tspan x="34.8" y="210" class="st3 st4">tincidunt</tspan><tspan x="80.1" y="210" class="st3 st4 st6"> </tspan><tspan x="91.1" y="210" class="st3 st4">ut</tspan><tspan x="101.4" y="210" class="st3 st4 st6"> </tspan><tspan x="112.4" y="210" class="st3 st4">laoreet</tspan><tspan x="148.6" y="210" class="st3 st4 st6"> </tspan><tspan x="159.6" y="210" class="st3 st4">dolore</tspan><tspan x="193.5" y="210" class="st3 st4 st6"> </tspan><tspan x="204.5" y="210" class="st3 st4">magna </tspan><tspan x="0" y="224" class="st3 st4">aliquam</tspan><tspan x="42.2" y="224" class="st3 st4 st7"> </tspan><tspan x="46.3" y="224" class="st3 st4">erat</tspan><tspan x="66.5" y="224" class="st3 st4 st7"> </tspan><tspan x="70.6" y="224" class="st3 st4">volutpat.</tspan><tspan x="115.5" y="224" class="st3 st4 st7"> </tspan><tspan x="119.6" y="224" class="st3 st4">Ut</tspan><tspan x="131" y="224" class="st3 st4 st7"> </tspan><tspan x="135" y="224" class="st3 st4">wisi</tspan><tspan x="154.9" y="224" class="st3 st4 st7"> </tspan><tspan x="158.9" y="224" class="st3 st4">enim</tspan><tspan x="185.2" y="224" class="st3 st4 st7"> </tspan><tspan x="189.2" y="224" class="st3 st4">ad</tspan><tspan x="202.3" y="224" class="st3 st4 st7"> </tspan><tspan x="206.3" y="224" class="st3 st4">minim </tspan></text>
	<rect x="619.2" y="326.9" class="st0" width="239.5" height="239.5"/>
	<rect x="895.6" y="326.9" class="st0" width="239.5" height="239.5"/>
	<rect x="66.5" y="603.3" class="st0" width="239.5" height="239.5"/>
	<rect x="342.9" y="603.3" class="st0" width="239.5" height="239.5"/>
	<rect x="619.2" y="603.3" class="st0" width="239.5" height="239.5"/>
	<rect x="895.6" y="603.3" class="st0" width="239.5" height="239.5"/>
	<rect x="66.5" y="879.7" class="st0" width="239.5" height="239.5"/>
	<rect x="342.9" y="879.7" class="st0" width="239.5" height="239.5"/>
	<rect x="619.2" y="879.7" class="st0" width="239.5" height="239.5"/>
	<rect x="895.6" y="879.7" class="st0" width="239.5" height="239.5"/>
</g>
<g>
	<rect x="66.4" y="50.4" class="st10" width="184.3" height="184.3"/>
	<rect x="287.5" y="50.4" class="st10" width="184.3" height="184.3"/>
	<rect x="508.6" y="50.4" class="st10" width="184.3" height="184.3"/>
	<rect x="729.7" y="50.4" class="st10" width="184.3" height="184.3"/>
	<rect x="950.8" y="50.4" class="st10" width="184.3" height="184.3"/>
	<rect x="66.4" y="271.5" class="st10" width="184.3" height="184.3"/>
	<rect x="287.5" y="271.5" class="st10" width="184.3" height="184.3"/>
	<rect x="508.6" y="271.5" class="st10" width="184.3" height="184.3"/>
	<rect x="729.7" y="271.5" class="st10" width="184.3" height="184.3"/>
	<rect x="950.8" y="271.5" class="st10" width="184.3" height="184.3"/>
	<rect x="66.4" y="492.6" class="st10" width="184.3" height="184.3"/>
	<rect x="287.5" y="492.6" class="st10" width="184.3" height="184.3"/>
	<rect x="508.6" y="492.6" class="st10" width="184.3" height="184.3"/>
	<rect x="729.7" y="492.6" class="st10" width="184.3" height="184.3"/>
	<rect x="950.8" y="492.6" class="st10" width="184.3" height="184.3"/>
	<rect x="66.4" y="713.7" class="st10" width="184.3" height="184.3"/>
	<rect x="287.5" y="713.7" class="st10" width="184.3" height="184.3"/>
	<rect x="508.6" y="713.7" class="st10" width="184.3" height="184.3"/>
	<rect x="729.7" y="713.7" class="st10" width="184.3" height="184.3"/>
	<rect x="950.8" y="713.7" class="st10" width="184.3" height="184.3"/>
	<rect x="66.4" y="934.8" class="st10" width="184.3" height="184.3"/>
	<rect x="287.5" y="934.8" class="st10" width="184.3" height="184.3"/>
	<rect x="508.6" y="934.8" class="st10" width="184.3" height="184.3"/>
	<rect x="729.7" y="934.8" class="st10" width="184.3" height="184.3"/>
	<rect x="950.8" y="934.8" class="st10" width="184.3" height="184.3"/>
</g>
<rect x="66.6" y="50.1" class="st11" width="147.4" height="147.4"/>
<rect x="250.8" y="50.1" class="st11" width="147.4" height="147.4"/>
<rect x="435.1" y="50.1" class="st11" width="147.4" height="147.4"/>
<rect x="619.3" y="50.1" class="st11" width="147.4" height="147.4"/>
<rect x="803.6" y="50.1" class="st11" width="147.4" height="147.4"/>
<rect x="987.8" y="50.1" class="st11" width="147.4" height="147.4"/>
<rect x="66.6" y="234.4" class="st11" width="147.4" height="147.4"/>
<rect x="250.8" y="234.4" class="st11" width="147.4" height="147.4"/>
<rect x="435.1" y="234.4" class="st11" width="147.4" height="147.4"/>
<rect x="619.3" y="234.4" class="st2" width="147.4" height="147.4"/>
<text transform="matrix(1 0 0 1 619.2998 276.9994)" class="st12 st13"> </text>
<rect x="803.6" y="234.4" class="st11" width="147.4" height="147.4"/>
<rect x="987.8" y="234.4" class="st11" width="147.4" height="147.4"/>
<rect x="66.6" y="418.6" class="st11" width="147.4" height="147.4"/>
<rect x="250.8" y="418.6" class="st11" width="147.4" height="147.4"/>
<rect x="435.1" y="418.6" transform="matrix(7.777937e-03 -1 1 7.777937e-03 12.5876 997.2551)" class="st11" width="147.4" height="147.4"/>
<rect x="619.3" y="418.6" class="st11" width="147.4" height="147.4"/>
<rect x="803.6" y="418.6" class="st11" width="147.4" height="147.4"/>
<rect x="987.8" y="418.6" class="st11" width="147.4" height="147.4"/>
<rect x="66.6" y="602.9" class="st11" width="147.4" height="147.4"/>
<rect x="250.8" y="602.9" class="st11" width="147.4" height="147.4"/>
<g>
	<g>
		<defs>
			<rect id="SVGID_1_" x="435.1" y="602.9" width="147.4" height="147.4"/>
		</defs>
		<clipPath id="SVGID_2_">
			<use xlink:href="#SVGID_1_"  style="overflow:visible;"/>
		</clipPath>
		<g transform="matrix(1 0 0 1 0 0)" class="st14">
			
				<image style="overflow:visible;enable-background:new    ;" width="4032" height="3024" xlink:href="../../Pictures/893033_03.JPG"  transform="matrix(0.1223 0 0 0.1216 268.7741 479.2456)">
			</image>
		</g>
	</g>
</g>
<rect x="619.3" y="602.9" class="st11" width="147.4" height="147.4"/>
<rect x="803.6" y="602.9" class="st11" width="147.4" height="147.4"/>
<rect x="987.8" y="602.9" class="st11" width="147.4" height="147.4"/>
<rect x="66.6" y="787.1" class="st11" width="147.4" height="147.4"/>
<rect x="250.8" y="787.1" class="st11" width="147.4" height="147.4"/>
<rect x="435.1" y="787.1" class="st11" width="147.4" height="147.4"/>
<rect x="619.3" y="787.1" class="st11" width="147.4" height="147.4"/>
<rect x="803.6" y="787.1" class="st11" width="147.4" height="147.4"/>
<rect x="987.8" y="787.1" class="st11" width="147.4" height="147.4"/>
<rect x="66.6" y="971.4" class="st11" width="147.4" height="147.4"/>
<rect x="250.8" y="971.4" class="st11" width="147.4" height="147.4"/>
<rect x="435.1" y="971.4" class="st11" width="147.4" height="147.4"/>
<rect x="619.3" y="971.4" class="st11" width="147.4" height="147.4"/>
<rect x="803.6" y="971.4" class="st11" width="147.4" height="147.4"/>
<rect x="987.8" y="971.4" class="st11" width="147.4" height="147.4"/>
<polygon class="st10" points="-647.6,-286.7 -640.8,-286.7 -640.8,-286.7 "/>
<g>
	<g>
		<defs>
			<ellipse id="SVGID_3_" cx="692.7" cy="676.6" rx="73.4" ry="73.7"/>
		</defs>
		<clipPath id="SVGID_4_">
			<use xlink:href="#SVGID_3_"  style="overflow:visible;"/>
		</clipPath>
		<g class="st15">
			
				<image style="overflow:visible;enable-background:new    ;" width="3072" height="2041" xlink:href="../../Pictures/mucca.jpg"  transform="matrix(7.039697e-02 0 0 7.404713e-02 597.674 600.0655)">
			</image>
		</g>
	</g>
</g>
<text transform="matrix(1 0 0 1 343.9591 232.9855)" class="st16 st13">La mucca nella griglia</text>
<text transform="matrix(1 0 0 1 771.0786 672.7562)" class="st17 st18">Razza bovina Highlander </text>
<text transform="matrix(1 0 0 1 301.6838 672.2339)" class="st17 st18">Isola Victoria - British Columbia </text>
</svg>
