<svg xmlns="http://www.w3.org/2000/svg" xmlns:xlink="http://www.w3.org/1999/xlink" viewBox="0 0 1190.55 1190.55"><defs><style>.cls-1,.cls-3,.cls-4,.cls-5{fill:none;}.cls-2{fill:#e4a57f;}.cls-3{stroke:lime;}.cls-3,.cls-4,.cls-5{stroke-miterlimit:10;}.cls-4{stroke:#f0f;}.cls-5{stroke:aqua;}.cls-6{clip-path:url(#clip-path);}</style><clipPath id="clip-path"><circle class="cls-1" cx="595.28" cy="595.4" r="184.42"/></clipPath></defs><title>893093_05</title><g id="Livello_1" data-name="Livello 1"><rect class="cls-2" y="0.13" width="1190.55" height="1190.55"/></g><g id="Livello_2" data-name="Livello 2"><rect class="cls-3" x="890.04" y="890.43" width="239.53" height="239.53"/><rect class="cls-3" x="610.9" y="890.43" width="239.53" height="239.53"/><rect class="cls-3" x="337.41" y="890.43" width="239.53" height="239.53"/><rect class="cls-3" x="60.94" y="890.43" width="239.53" height="239.53"/><rect class="cls-3" x="890.04" y="614.06" width="239.53" height="239.53"/><rect class="cls-3" x="610.9" y="614.06" width="239.53" height="239.53"/><rect class="cls-3" x="337.41" y="614.06" width="239.53" height="239.53"/><rect class="cls-3" x="60.94" y="614.06" width="239.53" height="239.53"/><rect class="cls-3" x="890.04" y="337.68" width="239.53" height="239.53"/><rect class="cls-3" x="610.9" y="337.68" width="239.53" height="239.53"/><rect class="cls-3" x="337.41" y="337.68" width="239.53" height="239.53"/><rect class="cls-3" x="60.94" y="337.68" width="239.53" height="239.53"/><rect class="cls-3" x="890.04" y="60.94" width="239.53" height="239.53"/><rect class="cls-3" x="610.9" y="60.94" width="239.53" height="239.53"/><rect class="cls-3" x="337.41" y="60.96" width="239.53" height="239.53"/><rect class="cls-3" x="60.94" y="60.97" width="239.53" height="239.53"/></g><g id="Livello_3" data-name="Livello 3"><rect class="cls-4" x="945.32" y="60.94" width="184.25" height="184.25"/><rect class="cls-4" x="724.21" y="60.94" width="184.25" height="184.25"/><rect class="cls-4" x="503.15" y="60.94" width="184.25" height="184.25"/><rect class="cls-4" x="282.05" y="60.97" width="184.25" height="184.25"/><rect class="cls-4" x="60.94" y="60.97" width="184.25" height="184.25"/><rect class="cls-4" x="60.94" y="282.07" width="184.25" height="184.25"/><rect class="cls-4" x="282.05" y="282.07" width="184.25" height="184.25"/><rect class="cls-4" x="503.13" y="282.07" width="184.25" height="184.25"/><rect class="cls-4" x="724.21" y="282.07" width="184.25" height="184.25"/><rect class="cls-4" x="945.32" y="282.07" width="184.25" height="184.25"/><rect class="cls-4" x="60.94" y="503.28" width="184.25" height="184.25"/><rect class="cls-4" x="282.05" y="503.15" width="184.25" height="184.25"/><rect class="cls-4" x="503.15" y="503.28" width="184.25" height="184.25"/><rect class="cls-4" x="724.21" y="503.28" width="184.25" height="184.25"/><rect class="cls-4" x="945.32" y="503.15" width="184.25" height="184.25"/><rect class="cls-4" x="60.94" y="724.49" width="184.25" height="184.25"/><rect class="cls-4" x="282.05" y="724.23" width="184.25" height="184.25"/><rect class="cls-4" x="503.13" y="724.49" width="184.25" height="184.25"/><rect class="cls-4" x="724.21" y="724.23" width="184.25" height="184.25"/><rect class="cls-4" x="945.32" y="724.23" width="184.25" height="184.25"/><rect class="cls-4" x="60.94" y="945.71" width="184.25" height="184.25"/><rect class="cls-4" x="282.05" y="945.71" width="184.25" height="184.25"/><rect class="cls-4" x="503.15" y="945.7" width="184.25" height="184.25"/><rect class="cls-4" x="724.21" y="945.7" width="184.25" height="184.25"/><rect class="cls-4" x="945.32" y="945.71" width="184.25" height="184.25"/></g><g id="Livello_4" data-name="Livello 4"><rect class="cls-5" x="60.94" y="60.97" width="147.4" height="147.4"/><rect class="cls-5" x="245.2" y="60.94" width="147.4" height="147.4"/><rect class="cls-5" x="982.17" y="60.94" width="147.4" height="147.4"/><rect class="cls-5" x="429.45" y="60.94" width="147.4" height="147.4"/><rect class="cls-5" x="610.9" y="60.94" width="147.4" height="147.4"/><rect class="cls-5" x="797.91" y="60.94" width="147.4" height="147.4"/><rect class="cls-5" x="60.94" y="245.2" width="147.4" height="147.4"/><rect class="cls-5" x="245.2" y="245.2" width="147.4" height="147.4"/><rect class="cls-5" x="429.45" y="245.2" width="147.4" height="147.4"/><rect class="cls-5" x="610.9" y="245.2" width="147.4" height="147.4"/><rect class="cls-5" x="797.91" y="245.2" width="147.4" height="147.4"/><rect class="cls-5" x="982.17" y="245.2" width="147.4" height="147.4"/><rect class="cls-5" x="60.94" y="429.8" width="147.4" height="147.4"/><rect class="cls-5" x="245.2" y="429.8" width="147.4" height="147.4"/><rect class="cls-5" x="429.45" y="429.8" width="147.4" height="147.4"/><rect class="cls-5" x="610.9" y="429.8" width="147.4" height="147.4"/><rect class="cls-5" x="797.91" y="429.8" width="147.4" height="147.4"/><rect class="cls-5" x="982.17" y="429.8" width="147.4" height="147.4"/><rect class="cls-5" x="60.94" y="614.06" width="147.4" height="147.4"/><rect class="cls-5" x="245.2" y="614.06" width="147.4" height="147.4"/><rect class="cls-5" x="429.45" y="614.06" width="147.4" height="147.4"/><rect class="cls-5" x="610.9" y="614.06" width="147.4" height="147.4"/><rect class="cls-5" x="797.91" y="614.06" width="147.4" height="147.4"/><rect class="cls-5" x="60.94" y="60.97" width="147.4" height="147.4"/><rect class="cls-5" x="982.17" y="614.06" width="147.4" height="147.4"/><rect class="cls-5" x="60.94" y="798.31" width="147.4" height="147.4"/><rect class="cls-5" x="245.2" y="798.31" width="147.4" height="147.4"/><rect class="cls-5" x="429.45" y="798.31" width="147.4" height="147.4"/><rect class="cls-5" x="610.9" y="798.3" width="147.4" height="147.4"/><rect class="cls-5" x="797.91" y="798.31" width="147.4" height="147.4"/><rect class="cls-5" x="982.17" y="798.31" width="147.4" height="147.4"/><rect class="cls-5" x="60.94" y="982.56" width="147.4" height="147.4"/><rect class="cls-5" x="982.17" y="982.56" width="147.4" height="147.4"/><rect class="cls-5" x="245.2" y="982.56" width="147.4" height="147.4"/><rect class="cls-5" x="429.53" y="982.55" width="147.4" height="147.4"/><rect class="cls-5" x="610.9" y="982.56" width="147.4" height="147.4"/><rect class="cls-5" x="797.91" y="982.56" width="147.4" height="147.4"/></g><g id="Mask"><g class="cls-6"><image width="656" height="656" transform="translate(208.04 239.58)" xlink:href="../../893093_05.jpg"/></g></g></svg>