<?xml version="1.0" encoding="utf-8"?>
<!-- Generator: Adobe Illustrator 22.1.0, SVG Export Plug-In . SVG Version: 6.00 Build 0)  -->
<svg version="1.1" id="Livello_1" xmlns="http://www.w3.org/2000/svg" xmlns:xlink="http://www.w3.org/1999/xlink" x="0px" y="0px"
	 viewBox="0 0 1190.6 1190.6" style="enable-background:new 0 0 1190.6 1190.6;" xml:space="preserve">
<style type="text/css">
	.st0{fill:#E4A57F;}
	.st1{fill:none;stroke:#00FF00;stroke-miterlimit:10;}
	.st2{fill:none;stroke:#FF00FF;stroke-miterlimit:10;}
	.st3{fill:none;stroke:#00FFFF;stroke-miterlimit:10;}
	.st4{clip-path:url(#SVGID_2_);}
</style>
<title>893093_04</title>
<g id="Livello_1_1_">
	<rect y="0.1" class="st0" width="1190.6" height="1190.6"/>
</g>
<g id="Livello_2_1_">
	<rect x="890" y="890.4" class="st1" width="239.5" height="239.5"/>
	<rect x="610.9" y="890.4" class="st1" width="239.5" height="239.5"/>
	<rect x="337.4" y="890.4" class="st1" width="239.5" height="239.5"/>
	<rect x="60.9" y="890.4" class="st1" width="239.5" height="239.5"/>
	<rect x="890" y="614.1" class="st1" width="239.5" height="239.5"/>
	<rect x="610.9" y="614.1" class="st1" width="239.5" height="239.5"/>
	<rect x="337.4" y="614.1" class="st1" width="239.5" height="239.5"/>
	<rect x="60.9" y="614.1" class="st1" width="239.5" height="239.5"/>
	<rect x="890" y="337.7" class="st1" width="239.5" height="239.5"/>
	<rect x="610.9" y="337.7" class="st1" width="239.5" height="239.5"/>
	<rect x="337.4" y="337.7" class="st1" width="239.5" height="239.5"/>
	<rect x="60.9" y="337.7" class="st1" width="239.5" height="239.5"/>
	<rect x="890" y="60.9" class="st1" width="239.5" height="239.5"/>
	<rect x="610.9" y="60.9" class="st1" width="239.5" height="239.5"/>
	<rect x="337.4" y="61" class="st1" width="239.5" height="239.5"/>
	<rect x="60.9" y="61" class="st1" width="239.5" height="239.5"/>
</g>
<g id="Livello_3">
	<rect x="945.3" y="60.9" class="st2" width="184.3" height="184.2"/>
	<rect x="724.2" y="60.9" class="st2" width="184.2" height="184.2"/>
	<rect x="503.1" y="60.9" class="st2" width="184.3" height="184.2"/>
	<rect x="282" y="61" class="st2" width="184.2" height="184.2"/>
	<rect x="60.9" y="61" class="st2" width="184.2" height="184.2"/>
	<rect x="60.9" y="282.1" class="st2" width="184.2" height="184.2"/>
	<rect x="282" y="282.1" class="st2" width="184.2" height="184.2"/>
	<rect x="503.1" y="282.1" class="st2" width="184.2" height="184.2"/>
	<rect x="724.2" y="282.1" class="st2" width="184.2" height="184.2"/>
	<rect x="945.3" y="282.1" class="st2" width="184.3" height="184.2"/>
	<rect x="60.9" y="503.3" class="st2" width="184.2" height="184.3"/>
	<rect x="282" y="503.2" class="st2" width="184.2" height="184.3"/>
	<rect x="503.1" y="503.3" class="st2" width="184.3" height="184.3"/>
	<rect x="724.2" y="503.3" class="st2" width="184.2" height="184.3"/>
	<rect x="945.3" y="503.2" class="st2" width="184.3" height="184.3"/>
	<rect x="60.9" y="724.5" class="st2" width="184.2" height="184.2"/>
	<rect x="282" y="724.2" class="st2" width="184.2" height="184.2"/>
	<rect x="503.1" y="724.5" class="st2" width="184.2" height="184.2"/>
	<rect x="724.2" y="724.2" class="st2" width="184.2" height="184.2"/>
	<rect x="945.3" y="724.2" class="st2" width="184.3" height="184.2"/>
	<rect x="60.9" y="945.7" class="st2" width="184.2" height="184.2"/>
	<rect x="282" y="945.7" class="st2" width="184.2" height="184.2"/>
	<rect x="503.1" y="945.7" class="st2" width="184.3" height="184.2"/>
	<rect x="724.2" y="945.7" class="st2" width="184.2" height="184.2"/>
	<rect x="945.3" y="945.7" class="st2" width="184.3" height="184.2"/>
</g>
<g id="Livello_4">
	<rect x="60.9" y="61" class="st3" width="147.4" height="147.4"/>
	<rect x="245.2" y="60.9" class="st3" width="147.4" height="147.4"/>
	<rect x="982.2" y="60.9" class="st3" width="147.4" height="147.4"/>
	<rect x="429.5" y="60.9" class="st3" width="147.4" height="147.4"/>
	<rect x="610.9" y="60.9" class="st3" width="147.4" height="147.4"/>
	<rect x="797.9" y="60.9" class="st3" width="147.4" height="147.4"/>
	<rect x="60.9" y="245.2" class="st3" width="147.4" height="147.4"/>
	<rect x="245.2" y="245.2" class="st3" width="147.4" height="147.4"/>
	<rect x="429.5" y="245.2" class="st3" width="147.4" height="147.4"/>
	<rect x="610.9" y="245.2" class="st3" width="147.4" height="147.4"/>
	<rect x="797.9" y="245.2" class="st3" width="147.4" height="147.4"/>
	<rect x="982.2" y="245.2" class="st3" width="147.4" height="147.4"/>
	<rect x="60.9" y="429.8" class="st3" width="147.4" height="147.4"/>
	<rect x="245.2" y="429.8" class="st3" width="147.4" height="147.4"/>
	<rect x="429.5" y="429.8" class="st3" width="147.4" height="147.4"/>
	<rect x="610.9" y="429.8" class="st3" width="147.4" height="147.4"/>
	<rect x="797.9" y="429.8" class="st3" width="147.4" height="147.4"/>
	<rect x="982.2" y="429.8" class="st3" width="147.4" height="147.4"/>
	<rect x="60.9" y="614.1" class="st3" width="147.4" height="147.4"/>
	<rect x="245.2" y="614.1" class="st3" width="147.4" height="147.4"/>
	<rect x="429.5" y="614.1" class="st3" width="147.4" height="147.4"/>
	<rect x="610.9" y="614.1" class="st3" width="147.4" height="147.4"/>
	<rect x="797.9" y="614.1" class="st3" width="147.4" height="147.4"/>
	<rect x="60.9" y="61" class="st3" width="147.4" height="147.4"/>
	<rect x="982.2" y="614.1" class="st3" width="147.4" height="147.4"/>
	<rect x="60.9" y="798.3" class="st3" width="147.4" height="147.4"/>
	<rect x="245.2" y="798.3" class="st3" width="147.4" height="147.4"/>
	<rect x="429.5" y="798.3" class="st3" width="147.4" height="147.4"/>
	<rect x="610.9" y="798.3" class="st3" width="147.4" height="147.4"/>
	<rect x="797.9" y="798.3" class="st3" width="147.4" height="147.4"/>
	<rect x="982.2" y="798.3" class="st3" width="147.4" height="147.4"/>
	<rect x="60.9" y="982.6" class="st3" width="147.4" height="147.4"/>
	<rect x="982.2" y="982.6" class="st3" width="147.4" height="147.4"/>
	<rect x="245.2" y="982.6" class="st3" width="147.4" height="147.4"/>
	<rect x="429.5" y="982.6" class="st3" width="147.4" height="147.4"/>
	<rect x="610.9" y="982.6" class="st3" width="147.4" height="147.4"/>
	<rect x="797.9" y="982.6" class="st3" width="147.4" height="147.4"/>
</g>
<g id="Mask">
	<g>
		<defs>
			<rect id="SVGID_1_" x="337.4" y="337.7" width="239.5" height="239.5"/>
		</defs>
		<clipPath id="SVGID_2_">
			<use xlink:href="#SVGID_1_"  style="overflow:visible;"/>
		</clipPath>
		<g class="st4">
			
				<image style="overflow:visible;enable-background:new    ;" width="736" height="919" xlink:href="893093_03.jpg"  transform="matrix(0.55 0 0 0.59 254.35 280.79)">
			</image>
		</g>
	</g>
</g>
</svg>
