<svg id="Livello_1" data-name="Livello 1" xmlns="http://www.w3.org/2000/svg" xmlns:xlink="http://www.w3.org/1999/xlink" viewBox="0 0 1190.55 1190.55"><defs><style>.cls-1{fill:#0071bc;}.cls-2{fill:none;stroke:#9e005d;stroke-miterlimit:10;}</style></defs><title>Tavola disegno 1</title><rect class="cls-1" width="1190.55" height="1190.55"/><rect class="cls-2" x="60.94" y="60.94" width="239.53" height="239.53"/><rect class="cls-2" x="613.7" y="60.94" width="239.53" height="239.53"/><rect class="cls-2" x="890.08" y="60.94" width="239.53" height="239.53"/><rect class="cls-2" x="60.94" y="337.32" width="239.53" height="239.53"/><rect class="cls-2" x="337.32" y="337.32" width="239.53" height="239.53"/><rect class="cls-2" x="613.7" y="337.32" width="239.53" height="239.53"/><rect class="cls-2" x="890.08" y="337.32" width="239.53" height="239.53"/><rect class="cls-2" x="60.94" y="613.7" width="239.53" height="239.53"/><rect class="cls-2" x="337.32" y="613.7" width="239.53" height="239.53"/><rect class="cls-2" x="613.7" y="613.7" width="239.53" height="239.53"/><rect class="cls-2" x="890.08" y="613.7" width="239.53" height="239.53"/><rect class="cls-2" x="60.94" y="890.08" width="239.53" height="239.53"/><rect class="cls-2" x="337.32" y="890.08" width="239.53" height="239.53"/><rect class="cls-2" x="613.7" y="890.08" width="239.53" height="239.53"/><rect class="cls-2" x="890.08" y="890.08" width="239.53" height="239.53"/><rect class="cls-2" x="337.32" y="60.94" width="239.53" height="239.53"/><rect class="cls-2" x="60.94" y="60.94" width="184.25" height="184.25"/><rect class="cls-2" x="282.05" y="60.94" width="184.25" height="184.25"/><rect class="cls-2" x="503.15" y="60.94" width="184.25" height="184.25"/><rect class="cls-2" x="724.25" y="60.94" width="184.25" height="184.25"/><rect class="cls-2" x="945.35" y="60.94" width="184.25" height="184.25"/><rect class="cls-2" x="60.94" y="282.05" width="184.25" height="184.25"/><rect class="cls-2" x="282.05" y="282.05" width="184.25" height="184.25"/><rect class="cls-2" x="503.15" y="282.05" width="184.25" height="184.25"/><rect class="cls-2" x="724.25" y="282.05" width="184.25" height="184.25"/><rect class="cls-2" x="945.35" y="282.05" width="184.25" height="184.25"/><rect class="cls-2" x="60.94" y="503.15" width="184.25" height="184.25"/><rect class="cls-2" x="282.05" y="503.15" width="184.25" height="184.25"/><rect class="cls-2" x="503.15" y="503.15" width="184.25" height="184.25"/><rect class="cls-2" x="724.25" y="503.15" width="184.25" height="184.25"/><rect class="cls-2" x="945.35" y="503.15" width="184.25" height="184.25"/><rect class="cls-2" x="60.94" y="724.25" width="184.25" height="184.25"/><rect class="cls-2" x="282.05" y="724.25" width="184.25" height="184.25"/><rect class="cls-2" x="503.15" y="724.25" width="184.25" height="184.25"/><rect class="cls-2" x="724.25" y="724.25" width="184.25" height="184.25"/><rect class="cls-2" x="945.35" y="724.25" width="184.25" height="184.25"/><rect class="cls-2" x="60.94" y="945.35" width="184.25" height="184.25"/><rect class="cls-2" x="282.05" y="945.35" width="184.25" height="184.25"/><rect class="cls-2" x="503.15" y="945.35" width="184.25" height="184.25"/><rect class="cls-2" x="724.25" y="945.35" width="184.25" height="184.25"/><rect class="cls-2" x="945.35" y="945.35" width="184.25" height="184.25"/><rect class="cls-2" x="60.94" y="60.94" width="147.4" height="147.4"/><rect class="cls-2" x="245.2" y="60.94" width="147.4" height="147.4"/><rect class="cls-2" x="429.45" y="60.94" width="147.4" height="147.4"/><rect class="cls-2" x="613.7" y="60.94" width="147.4" height="147.4"/><rect class="cls-2" x="797.95" y="60.94" width="147.4" height="147.4"/><rect class="cls-2" x="982.2" y="60.94" width="147.4" height="147.4"/><rect class="cls-2" x="60.94" y="245.2" width="147.4" height="147.4"/><rect class="cls-2" x="429.45" y="245.2" width="147.4" height="147.4"/><rect class="cls-2" x="613.7" y="245.2" width="147.4" height="147.4"/><rect class="cls-2" x="797.95" y="245.2" width="147.4" height="147.4"/><rect class="cls-2" x="982.2" y="245.2" width="147.4" height="147.4"/><rect class="cls-2" x="60.94" y="429.45" width="147.4" height="147.4"/><rect class="cls-2" x="245.2" y="429.45" width="147.4" height="147.4"/><rect class="cls-2" x="429.45" y="429.45" width="147.4" height="147.4"/><rect class="cls-2" x="613.7" y="429.45" width="147.4" height="147.4"/><rect class="cls-2" x="797.95" y="429.45" width="147.4" height="147.4"/><rect class="cls-2" x="982.2" y="429.45" width="147.4" height="147.4"/><rect class="cls-2" x="60.94" y="613.7" width="147.4" height="147.4"/><rect class="cls-2" x="245.2" y="613.7" width="147.4" height="147.4"/><rect class="cls-2" x="429.45" y="613.7" width="147.4" height="147.4"/><rect class="cls-2" x="613.7" y="613.7" width="147.4" height="147.4"/><rect class="cls-2" x="797.95" y="613.7" width="147.4" height="147.4"/><rect class="cls-2" x="982.2" y="613.7" width="147.4" height="147.4"/><rect class="cls-2" x="60.94" y="797.95" width="147.4" height="147.4"/><rect class="cls-2" x="245.2" y="797.95" width="147.4" height="147.4"/><rect class="cls-2" x="429.45" y="797.95" width="147.4" height="147.4"/><rect class="cls-2" x="613.7" y="797.95" width="147.4" height="147.4"/><rect class="cls-2" x="797.95" y="797.95" width="147.4" height="147.4"/><rect class="cls-2" x="982.2" y="797.95" width="147.4" height="147.4"/><rect class="cls-2" x="60.94" y="982.2" width="147.4" height="147.4"/><rect class="cls-2" x="245.2" y="982.2" width="147.4" height="147.4"/><rect class="cls-2" x="429.45" y="982.2" width="147.4" height="147.4"/><rect class="cls-2" x="613.7" y="982.2" width="147.4" height="147.4"/><rect class="cls-2" x="797.95" y="982.2" width="147.4" height="147.4"/><rect class="cls-2" x="982.2" y="982.2" width="147.4" height="147.4"/><image width="1000" height="751" transform="translate(60.94 60.94)" xlink:href="893094_03.jpg"/></svg>