<svg id="Livello_1" data-name="Livello 1" xmlns="http://www.w3.org/2000/svg" xmlns:xlink="http://www.w3.org/1999/xlink" viewBox="0 0 1190.55 1190.55"><defs><style>.cls-1,.cls-3,.cls-4,.cls-5{fill:none;}.cls-2{fill:#bed3c8;}.cls-3{stroke:#009fe3;}.cls-3,.cls-4,.cls-5{stroke-miterlimit:10;}.cls-4{stroke:#29235c;}.cls-5{stroke:#00a19a;stroke-width:2px;}.cls-6{clip-path:url(#clip-path);}.cls-10,.cls-11,.cls-12,.cls-13,.cls-14,.cls-15,.cls-16,.cls-18,.cls-19,.cls-7,.cls-9{isolation:isolate;}.cls-8{clip-path:url(#clip-path-2);}.cls-9{font-size:12px;font-family:ArialMT, Arial;}.cls-10{font-size:65px;font-family:OpenSans-Bold, Open Sans;font-weight:700;}.cls-11,.cls-20{font-size:16px;font-family:OpenSans-Light, Open Sans;}.cls-12,.cls-13,.cls-14,.cls-15,.cls-16,.cls-18,.cls-19{font-size:10px;font-family:EBGaramond-Italic, EB Garamond;font-style:italic;}.cls-13{letter-spacing:-0.01em;}.cls-14,.cls-17{letter-spacing:-0.02em;}.cls-15{letter-spacing:-0.03em;}.cls-16{letter-spacing:-0.04em;}.cls-18{letter-spacing:-0.03em;}.cls-19{letter-spacing:-0.04em;}</style><clipPath id="clip-path"><rect class="cls-1" x="614.11" y="337.21" width="239.53" height="239.53"/></clipPath><clipPath id="clip-path-2"><ellipse class="cls-1" cx="733.87" cy="180.82" rx="94.52" ry="89.79"/></clipPath></defs><title>893200_07</title><g id="Livello_1-2" data-name="Livello 1-2"><g id="Livello_1-2-2" data-name="Livello 1-2-2"><g id="Livello_1-2-2-2" data-name="Livello 1-2-2-2"><rect class="cls-2" width="1190.55" height="1190.55"/></g><g id="griglia_6x6" data-name="griglia 6x6"><rect class="cls-1" x="61.56" y="67.56" width="146.57" height="141.24"/><rect class="cls-3" x="61.15" y="61.4" width="147.4" height="147.4"/><rect class="cls-3" x="244.1" y="61.4" width="147.4" height="147.4"/><rect class="cls-3" x="982.25" y="61.4" width="147.4" height="147.4"/><rect class="cls-3" x="798.16" y="61.4" width="147.4" height="147.4"/><rect class="cls-3" x="613.55" y="61.4" width="147.4" height="147.4"/><rect class="cls-3" x="429.98" y="61.4" width="147.4" height="147.4"/><rect class="cls-1" x="61.44" y="251.49" width="146.57" height="141.24"/><rect class="cls-3" x="61.02" y="245.33" width="147.4" height="147.4"/><rect class="cls-3" x="243.98" y="245.33" width="147.4" height="147.4"/><rect class="cls-3" x="982.13" y="245.33" width="147.4" height="147.4"/><rect class="cls-3" x="798.04" y="245.33" width="147.4" height="147.4"/><rect class="cls-3" x="613.42" y="245.33" width="147.4" height="147.4"/><rect class="cls-3" x="429.86" y="245.33" width="147.4" height="147.4"/><rect class="cls-1" x="61.44" y="435.43" width="146.57" height="141.24"/><rect class="cls-3" x="61.02" y="429.27" width="147.4" height="147.4"/><rect class="cls-3" x="243.98" y="429.27" width="147.4" height="147.4"/><rect class="cls-3" x="982.13" y="429.27" width="147.4" height="147.4"/><rect class="cls-3" x="798.04" y="429.27" width="147.4" height="147.4"/><rect class="cls-3" x="613.42" y="429.27" width="147.4" height="147.4"/><rect class="cls-3" x="429.86" y="429.27" width="147.4" height="147.4"/><rect class="cls-1" x="61.5" y="619.41" width="146.57" height="141.24"/><rect class="cls-3" x="61.08" y="613.25" width="147.4" height="147.4"/><rect class="cls-3" x="244.04" y="613.25" width="147.4" height="147.4"/><rect class="cls-3" x="982.19" y="613.25" width="147.4" height="147.4"/><rect class="cls-3" x="798.1" y="613.25" width="147.4" height="147.4"/><rect class="cls-3" x="613.48" y="613.25" width="147.4" height="147.4"/><rect class="cls-3" x="429.92" y="613.25" width="147.4" height="147.4"/><rect class="cls-1" x="61.37" y="803.35" width="146.57" height="141.24"/><rect class="cls-3" x="60.96" y="797.18" width="147.4" height="147.4"/><rect class="cls-3" x="243.91" y="797.18" width="147.4" height="147.4"/><rect class="cls-3" x="982.07" y="797.18" width="147.4" height="147.4"/><rect class="cls-3" x="797.98" y="797.18" width="147.4" height="147.4"/><rect class="cls-3" x="613.36" y="797.18" width="147.4" height="147.4"/><rect class="cls-3" x="429.8" y="797.18" width="147.4" height="147.4"/><rect class="cls-1" x="61.37" y="987.28" width="146.57" height="141.24"/><rect class="cls-3" x="60.96" y="981.12" width="147.4" height="147.4"/><rect class="cls-3" x="243.91" y="981.12" width="147.4" height="147.4"/><rect class="cls-3" x="982.07" y="981.12" width="147.4" height="147.4"/><rect class="cls-3" x="797.98" y="981.12" width="147.4" height="147.4"/><rect class="cls-3" x="613.36" y="981.12" width="147.4" height="147.4"/><rect class="cls-3" x="429.8" y="981.12" width="147.4" height="147.4"/></g><g id="griglia_5x5" data-name="griglia 5x5"><rect class="cls-4" x="60.73" y="61.21" width="184.25" height="184.25"/><rect class="cls-4" x="723.61" y="61.21" width="184.25" height="184.25"/><rect class="cls-4" x="503.15" y="61.21" width="184.25" height="184.25"/><rect class="cls-4" x="281.87" y="61.21" width="184.25" height="184.25"/><rect class="cls-4" x="946.24" y="61.21" width="184.25" height="184.25"/><rect class="cls-4" x="60.39" y="283.21" width="184.25" height="184.25"/><rect class="cls-4" x="723.28" y="283.21" width="184.25" height="184.25"/><rect class="cls-4" x="502.82" y="283.21" width="184.25" height="184.25"/><rect class="cls-4" x="281.54" y="283.21" width="184.25" height="184.25"/><rect class="cls-4" x="945.91" y="283.21" width="184.25" height="184.25"/><rect class="cls-4" x="60.39" y="503.82" width="184.25" height="184.25"/><rect class="cls-4" x="723.28" y="503.82" width="184.25" height="184.25"/><rect class="cls-4" x="502.82" y="503.82" width="184.25" height="184.25"/><rect class="cls-4" x="281.54" y="503.82" width="184.25" height="184.25"/><rect class="cls-4" x="945.91" y="503.82" width="184.25" height="184.25"/><rect class="cls-4" x="60.39" y="724.42" width="184.25" height="184.25"/><rect class="cls-4" x="723.28" y="724.42" width="184.25" height="184.25"/><rect class="cls-4" x="502.82" y="724.42" width="184.25" height="184.25"/><rect class="cls-4" x="281.54" y="724.42" width="184.25" height="184.25"/><rect class="cls-4" x="945.91" y="724.42" width="184.25" height="184.25"/><rect class="cls-4" x="61.39" y="945.03" width="184.25" height="184.25"/><rect class="cls-4" x="724.28" y="945.03" width="184.25" height="184.25"/><rect class="cls-4" x="503.81" y="945.03" width="184.25" height="184.25"/><rect class="cls-4" x="282.54" y="945.03" width="184.25" height="184.25"/><rect class="cls-4" x="946.91" y="945.03" width="184.25" height="184.25"/></g><g id="griglia_4x4" data-name="griglia 4x4"><rect class="cls-5" x="61.05" y="61.05" width="239.53" height="239.53"/><rect class="cls-5" x="612.75" y="61.05" width="239.53" height="239.53"/><rect class="cls-5" x="337.08" y="61.05" width="239.53" height="239.53"/><rect class="cls-5" x="890.46" y="61.05" width="239.53" height="239.53"/><rect class="cls-5" x="62.41" y="337.21" width="239.53" height="239.53"/><rect class="cls-5" x="614.11" y="337.21" width="239.53" height="239.53"/><rect class="cls-5" x="338.44" y="337.21" width="239.53" height="239.53"/><rect class="cls-5" x="891.82" y="337.21" width="239.53" height="239.53"/><rect class="cls-5" x="60.8" y="613.38" width="239.53" height="239.53"/><rect class="cls-5" x="612.51" y="613.38" width="239.53" height="239.53"/><rect class="cls-5" x="336.83" y="613.38" width="239.53" height="239.53"/><rect class="cls-5" x="890.22" y="613.38" width="239.53" height="239.53"/><rect class="cls-5" x="60.8" y="889.55" width="239.53" height="239.53"/><rect class="cls-5" x="612.51" y="889.55" width="239.53" height="239.53"/><rect class="cls-5" x="336.83" y="889.55" width="239.53" height="239.53"/><rect class="cls-5" x="890.22" y="889.55" width="239.53" height="239.53"/></g></g><g id="Livello_2" data-name="Livello 2"><g class="cls-6"><image class="cls-7" width="4032" height="3024" transform="translate(346.29 335.73) scale(0.13 0.15)" xlink:href="../../../Library/Containers/com.apple.MediaLibraryService/Data/Library/Caches/com.apple.iLifeMediaBrowser.ILPhotosTranscodeCache/mt2v+rraT2aRynjr7uaaQg.jpg"/></g></g></g><g id="clipping_cerchio" data-name="clipping cerchio"><g class="cls-8"><image class="cls-7" width="4032" height="3024" transform="matrix(0, -0.08, 0.11, 0, 543.78, 350.21)" xlink:href="../../../Library/Containers/com.apple.MediaLibraryService/Data/Library/Caches/com.apple.iLifeMediaBrowser.ILPhotosTranscodeCache/IGtLsaL2QU6kY4dOCLw9+Q.jpg"/></g></g><text class="cls-9" transform="translate(28 36.55)">t</text><text class="cls-10" transform="translate(114.58 125.5)">Marmo&amp;Brace</text><g class="cls-7"><text class="cls-11" transform="translate(886 182)">Lorem ipsum dolor sit amet, con</text><text class="cls-11" transform="translate(1090.3 182)">-</text><text class="cls-11" transform="translate(886 206)">sectetuer adipiscing elit, sed diam </text><text class="cls-11" transform="translate(886 230)">nonummy nibh euismod tincidunt </text><text class="cls-11" transform="translate(886 254)">ut laoreet dolore magna aliquam </text><text class="cls-11" transform="translate(886 278)">erat volutpat. Ut wisi enim ad </text><text class="cls-11" transform="translate(886 302)">minim veniam, quis nostrud exerci </text><text class="cls-11" transform="translate(886 326)">tation ullamcorper suscipit lobortis </text><text class="cls-11" transform="translate(886 350)">nisl ut aliquip ex ea commodo </text><text class="cls-11" transform="translate(886 374)">consequat. Duis autem vel eum </text><text class="cls-11" transform="translate(886 398)">iriure dolor in hendrerit in vulputa</text><text class="cls-11" transform="translate(1103.18 398)">-</text><text class="cls-11" transform="translate(886 422)">te velit esse molestie consequat, </text><text class="cls-11" transform="translate(886 446)">vel illum dolore eu feugiat nulla </text><text class="cls-11" transform="translate(886 470)">facilisis at vero eros et accumsan et </text><text class="cls-11" transform="translate(886 494)">iusto odio dignissim qui blandit </text><text class="cls-11" transform="translate(886 518)">praesent luptatum zzril delenit </text><text class="cls-11" transform="translate(886 542)">augue duis dolore te feugait nulla </text><text class="cls-11" transform="translate(886 566)">facilisi.</text><text class="cls-11" transform="translate(886 590)">Lorem ipsum dolor sit amet, cons </text><text class="cls-11" transform="translate(886 614)">ectetuer adipiscing elit, sed diam</text></g><g class="cls-7"><text class="cls-12" transform="translate(626.78 594.46)">Lorem </text><text class="cls-13" transform="translate(653.5 594.46)">i</text><text class="cls-12" transform="translate(656.29 594.46)">ps</text><text class="cls-13" transform="translate(663.44 594.46)">u</text><text class="cls-12" transform="translate(668.38 594.46)">m d</text><text class="cls-14" transform="translate(683.43 594.46)">o</text><text class="cls-12" transform="translate(687.03 594.46)">lor sit </text><text class="cls-14" transform="translate(710.1 594.46)">a</text><text class="cls-12" transform="translate(714.81 594.46)">met, </text><text class="cls-13" transform="translate(733.18 594.46)">c</text><text class="cls-12" transform="translate(736.16 594.46)">onsectet</text><text class="cls-14" transform="translate(763.78 594.46)">u</text><text class="cls-12" transform="translate(768.67 594.46)">er ad</text><text class="cls-13" transform="translate(787.94 594.46)">i</text><text class="cls-12" transform="translate(790.73 594.46)">pisc</text><text class="cls-13" transform="translate(803.95 594.46)">i</text><text class="cls-12" transform="translate(806.74 594.46)">ng </text><text class="cls-15" transform="translate(818.16 594.46)">e</text><text class="cls-12" transform="translate(821.31 594.46)">lit, </text><text class="cls-12" transform="translate(626.78 618.46)">sed di</text><text class="cls-14" transform="translate(648.21 618.46)">a</text><text class="cls-12" transform="translate(652.92 618.46)">m non</text><text class="cls-14" transform="translate(677.15 618.46)">u</text><text class="cls-16" transform="translate(682.09 618.46)">m<tspan class="cls-17" x="7.5" y="0">m</tspan></text><text class="cls-12" transform="translate(697.47 618.46)">y n</text><text class="cls-18" transform="translate(708.79 618.46)">i</text><text class="cls-14" transform="translate(711.48 618.46)">b</text><text class="cls-12" transform="translate(715.77 618.46)">h euismod t</text><text class="cls-13" transform="translate(758.62 618.46)">i</text><text class="cls-12" transform="translate(761.41 618.46)">nc</text><text class="cls-14" transform="translate(769.81 618.46)">i</text><text class="cls-12" transform="translate(772.55 618.46)">d</text><text class="cls-13" transform="translate(777.71 618.46)">u</text><text class="cls-12" transform="translate(782.65 618.46)">nt ut laoreet </text><text class="cls-12" transform="translate(626.78 642.46)">d</text><text class="cls-14" transform="translate(631.94 642.46)">o</text><text class="cls-12" transform="translate(635.54 642.46)">lore magna </text><text class="cls-14" transform="translate(680.53 642.46)">a</text><text class="cls-12" transform="translate(685.24 642.46)">l</text><text class="cls-14" transform="translate(688.1 642.46)">i</text><text class="cls-12" transform="translate(690.84 642.46)">qu</text><text class="cls-14" transform="translate(700.66 642.46)">a</text><text class="cls-12" transform="translate(705.37 642.46)">m e</text><text class="cls-19" transform="translate(718.67 642.46)">r</text><text class="cls-12" transform="translate(722.06 642.46)">at v</text><text class="cls-14" transform="translate(735.99 642.46)">o</text><text class="cls-12" transform="translate(739.59 642.46)">lutpat. Ut wisi en</text><text class="cls-13" transform="translate(804.3 642.46)">i</text><text class="cls-12" transform="translate(807.09 642.46)">m ad</text></g><text class="cls-20" transform="translate(229.26 225.71)">Lorem ipsum dolor sit <tspan x="-29.75" y="24">amet, consectetuer adipiscing </tspan><tspan x="-49.24" y="48">elit, sed diam nonummy nibh eui</tspan><tspan x="184.98" y="48">-</tspan><tspan x="-62.5" y="72">smod tincidunt ut laoreet dolore magna </tspan><tspan x="-71.06" y="96">aliquam erat volutpat. Ut wisi enim ad </tspan><tspan x="-75.66" y="120">minim veniam, quis nostrud exerci tation </tspan><tspan x="-75.99" y="144">ullamcorper suscipit lobortis nisl ut aliquip ex </tspan><tspan x="-71.86" y="168">ea commodo consequat. Duis autem vel </tspan><tspan x="-63.84" y="192">eum iriure dolor in hendrerit in vulputate </tspan><tspan x="-51.25" y="216">velit esse molestie consequat, vel illum </tspan><tspan x="-32.7" y="240">dolore eu feugiat nulla facilisis at </tspan><tspan x="-4.71" y="264">vero eros et accumsan et </tspan><tspan x="50" y="288">iusto odio </tspan></text></svg>