<?xml version="1.0" encoding="utf-8"?>
<!-- Generator: Adobe Illustrator 22.1.0, SVG Export Plug-In . SVG Version: 6.00 Build 0)  -->
<svg version="1.1" xmlns="http://www.w3.org/2000/svg" xmlns:xlink="http://www.w3.org/1999/xlink" x="0px" y="0px"
	 viewBox="0 0 1190.6 1190.6" style="enable-background:new 0 0 1190.6 1190.6;" xml:space="preserve">
<style type="text/css">
	.st0{fill:#BED3C8;}
	.st1{fill:none;}
	.st2{fill:none;stroke:#009FE3;stroke-miterlimit:10;}
	.st3{fill:none;stroke:#29235C;stroke-miterlimit:10;}
	.st4{fill:none;stroke:#00A19A;stroke-width:2;stroke-miterlimit:10;}
</style>
<g id="Livello_1">
	<title>893200_03</title>
	<g id="Livello_1-2">
		<rect y="0" class="st0" width="1190.6" height="1190.6"/>
	</g>
	<g id="griglia_6x6">
		<rect x="61.6" y="67.6" class="st1" width="146.6" height="141.2"/>
		<rect x="61.2" y="61.4" class="st2" width="147.4" height="147.4"/>
		<rect x="244.1" y="61.4" class="st2" width="147.4" height="147.4"/>
		<rect x="982.2" y="61.4" class="st2" width="147.4" height="147.4"/>
		<rect x="798.2" y="61.4" class="st2" width="147.4" height="147.4"/>
		<rect x="613.5" y="61.4" class="st2" width="147.4" height="147.4"/>
		<rect x="430" y="61.4" class="st2" width="147.4" height="147.4"/>
		<rect x="61.4" y="251.5" class="st1" width="146.6" height="141.2"/>
		<rect x="61" y="245.3" class="st2" width="147.4" height="147.4"/>
		<rect x="244" y="245.3" class="st2" width="147.4" height="147.4"/>
		<rect x="982.1" y="245.3" class="st2" width="147.4" height="147.4"/>
		<rect x="798" y="245.3" class="st2" width="147.4" height="147.4"/>
		<rect x="613.4" y="245.3" class="st2" width="147.4" height="147.4"/>
		<rect x="429.9" y="245.3" class="st2" width="147.4" height="147.4"/>
		<rect x="61.4" y="435.4" class="st1" width="146.6" height="141.2"/>
		<rect x="61" y="429.3" class="st2" width="147.4" height="147.4"/>
		<rect x="244" y="429.3" class="st2" width="147.4" height="147.4"/>
		<rect x="982.1" y="429.3" class="st2" width="147.4" height="147.4"/>
		<rect x="798" y="429.3" class="st2" width="147.4" height="147.4"/>
		<rect x="613.4" y="429.3" class="st2" width="147.4" height="147.4"/>
		<rect x="429.9" y="429.3" class="st2" width="147.4" height="147.4"/>
		<rect x="61.5" y="619.4" class="st1" width="146.6" height="141.2"/>
		<rect x="61.1" y="613.3" class="st2" width="147.4" height="147.4"/>
		<rect x="244" y="613.3" class="st2" width="147.4" height="147.4"/>
		<rect x="982.2" y="613.3" class="st2" width="147.4" height="147.4"/>
		<rect x="798.1" y="613.3" class="st2" width="147.4" height="147.4"/>
		<rect x="613.5" y="613.3" class="st2" width="147.4" height="147.4"/>
		<rect x="429.9" y="613.3" class="st2" width="147.4" height="147.4"/>
		<rect x="61.4" y="803.4" class="st1" width="146.6" height="141.2"/>
		<rect x="61" y="797.2" class="st2" width="147.4" height="147.4"/>
		<rect x="243.9" y="797.2" class="st2" width="147.4" height="147.4"/>
		<rect x="982.1" y="797.2" class="st2" width="147.4" height="147.4"/>
		<rect x="798" y="797.2" class="st2" width="147.4" height="147.4"/>
		<rect x="613.4" y="797.2" class="st2" width="147.4" height="147.4"/>
		<rect x="429.8" y="797.2" class="st2" width="147.4" height="147.4"/>
		<rect x="61.4" y="987.3" class="st1" width="146.6" height="141.2"/>
		<rect x="61" y="981.1" class="st2" width="147.4" height="147.4"/>
		<rect x="243.9" y="981.1" class="st2" width="147.4" height="147.4"/>
		<rect x="982.1" y="981.1" class="st2" width="147.4" height="147.4"/>
		<rect x="798" y="981.1" class="st2" width="147.4" height="147.4"/>
		<rect x="613.4" y="981.1" class="st2" width="147.4" height="147.4"/>
		<rect x="429.8" y="981.1" class="st2" width="147.4" height="147.4"/>
	</g>
	<g id="griglia_5x5">
		<rect x="60.7" y="61.2" class="st3" width="184.2" height="184.2"/>
		<rect x="723.6" y="61.2" class="st3" width="184.2" height="184.2"/>
		<rect x="503.1" y="61.2" class="st3" width="184.3" height="184.2"/>
		<rect x="281.9" y="61.2" class="st3" width="184.2" height="184.2"/>
		<rect x="946.2" y="61.2" class="st3" width="184.2" height="184.2"/>
		<rect x="60.4" y="283.2" class="st3" width="184.2" height="184.2"/>
		<rect x="723.3" y="283.2" class="st3" width="184.2" height="184.2"/>
		<rect x="502.8" y="283.2" class="st3" width="184.2" height="184.2"/>
		<rect x="281.5" y="283.2" class="st3" width="184.2" height="184.2"/>
		<rect x="945.9" y="283.2" class="st3" width="184.2" height="184.2"/>
		<rect x="60.4" y="503.8" class="st3" width="184.2" height="184.2"/>
		<rect x="723.3" y="503.8" class="st3" width="184.2" height="184.2"/>
		<rect x="502.8" y="503.8" class="st3" width="184.2" height="184.2"/>
		<rect x="281.5" y="503.8" class="st3" width="184.2" height="184.2"/>
		<rect x="945.9" y="503.8" class="st3" width="184.2" height="184.2"/>
		<rect x="60.4" y="724.4" class="st3" width="184.2" height="184.2"/>
		<rect x="723.3" y="724.4" class="st3" width="184.2" height="184.2"/>
		<rect x="502.8" y="724.4" class="st3" width="184.2" height="184.2"/>
		<rect x="281.5" y="724.4" class="st3" width="184.2" height="184.2"/>
		<rect x="945.9" y="724.4" class="st3" width="184.2" height="184.2"/>
		<rect x="61.4" y="945" class="st3" width="184.2" height="184.2"/>
		<rect x="724.3" y="945" class="st3" width="184.2" height="184.2"/>
		<rect x="503.8" y="945" class="st3" width="184.2" height="184.2"/>
		<rect x="282.5" y="945" class="st3" width="184.2" height="184.2"/>
		<rect x="946.9" y="945" class="st3" width="184.2" height="184.2"/>
	</g>
	<g id="griglia_4x4">
		<rect x="61" y="61.1" class="st4" width="239.5" height="239.5"/>
		<rect x="612.8" y="61.1" class="st4" width="239.5" height="239.5"/>
		<rect x="337.1" y="61.1" class="st4" width="239.5" height="239.5"/>
		<rect x="890.5" y="61.1" class="st4" width="239.5" height="239.5"/>
		<rect x="62.4" y="337.2" class="st4" width="239.5" height="239.5"/>
		<rect x="614.1" y="337.2" class="st4" width="239.5" height="239.5"/>
		<rect x="338.4" y="337.2" class="st4" width="239.5" height="239.5"/>
		<rect x="891.8" y="337.2" class="st4" width="239.5" height="239.5"/>
		<rect x="60.8" y="613.4" class="st4" width="239.5" height="239.5"/>
		<rect x="612.5" y="613.4" class="st4" width="239.5" height="239.5"/>
		<rect x="336.8" y="613.4" class="st4" width="239.5" height="239.5"/>
		<rect x="890.2" y="613.4" class="st4" width="239.5" height="239.5"/>
		<rect x="60.8" y="889.6" class="st4" width="239.5" height="239.5"/>
		<rect x="612.5" y="889.6" class="st4" width="239.5" height="239.5"/>
		<rect x="336.8" y="889.6" class="st4" width="239.5" height="239.5"/>
		<rect x="890.2" y="889.6" class="st4" width="239.5" height="239.5"/>
	</g>
</g>
<g id="Livello_2">
	<g>
		<defs>
			<rect id="SVGID_1_" x="614.1" y="337.2" width="239.5" height="239.5"/>
		</defs>
		<clipPath id="SVGID_2_">
			<use xlink:href="#SVGID_1_"  style="overflow:visible;"/>
		</clipPath>
		<g style="clip-path:url(#SVGID_2_);">
			
				<image style="overflow:visible;" width="4032" height="3024" xlink:href="../../../Library/Containers/com.apple.MediaLibraryService/Data/Library/Caches/com.apple.iLifeMediaBrowser.ILPhotosTranscodeCache/mt2v+rraT2aRynjr7uaaQg.jpg"  transform="matrix(0.1258 0 0 0.1546 346.2887 335.7311)">
			</image>
		</g>
	</g>
</g>
</svg>
