<?xml version="1.0" encoding="utf-8"?>
<!-- Generator: Adobe Illustrator 22.1.0, SVG Export Plug-In . SVG Version: 6.00 Build 0)  -->
<svg version="1.1" id="Livello_1" xmlns="http://www.w3.org/2000/svg" xmlns:xlink="http://www.w3.org/1999/xlink" x="0px" y="0px"
	 viewBox="0 0 1190.6 1190.6" style="enable-background:new 0 0 1190.6 1190.6;" xml:space="preserve">
<style type="text/css">
	.st0{fill:#CBBBA0;stroke:#29235C;stroke-miterlimit:10;}
	.st1{fill:none;stroke:#006633;stroke-miterlimit:10;}
	.st2{fill:none;stroke:#00A19A;stroke-miterlimit:10;}
	.st3{fill:none;stroke:#29235C;stroke-miterlimit:10;}
	.st4{font-family:'EBGaramond-Italic';}
	.st5{font-size:10px;}
	.st6{font-family:'OpenSans-Light';}
	.st7{font-size:16px;}
	.st8{font-family:'OpenSans-Bold';}
	.st9{font-size:65px;}
</style>
<title>893200_06</title>
<rect y="0" class="st0" width="1190.6" height="1190.6"/>
<rect x="890.9" y="890.3" class="st1" width="239.5" height="239.5"/>
<rect x="614.5" y="890.3" class="st1" width="239.5" height="239.5"/>
<rect x="338.1" y="890.3" class="st1" width="239.5" height="239.5"/>
<rect x="61.7" y="890.3" class="st1" width="239.5" height="239.5"/>
<rect x="890.9" y="613.9" class="st1" width="239.5" height="239.5"/>
<rect x="614.5" y="613.9" class="st1" width="239.5" height="239.5"/>
<rect x="338.1" y="613.9" class="st1" width="239.5" height="239.5"/>
<rect x="61.7" y="613.9" class="st1" width="239.5" height="239.5"/>
<rect x="890.9" y="337.5" class="st1" width="239.5" height="239.5"/>
<rect x="614.5" y="337.5" class="st1" width="239.5" height="239.5"/>
<rect x="338.1" y="337.5" class="st1" width="239.5" height="239.5"/>
<rect x="61.7" y="337.5" class="st1" width="239.5" height="239.5"/>
<rect x="890.9" y="61.1" class="st1" width="239.5" height="239.5"/>
<rect x="614.5" y="61.1" class="st1" width="239.5" height="239.5"/>
<rect x="338.1" y="61.1" class="st1" width="239.5" height="239.5"/>
<rect x="61.7" y="61.1" class="st1" width="239.5" height="239.5"/>
<rect x="946.1" y="945.6" class="st2" width="184.2" height="184.3"/>
<rect x="725" y="945.6" class="st2" width="184.2" height="184.3"/>
<rect x="503.9" y="945.6" class="st2" width="184.2" height="184.3"/>
<rect x="282.8" y="945.6" class="st2" width="184.2" height="184.3"/>
<rect x="61.7" y="945.6" class="st2" width="184.2" height="184.3"/>
<rect x="946.1" y="724.5" class="st2" width="184.2" height="184.2"/>
<rect x="725" y="724.5" class="st2" width="184.2" height="184.2"/>
<rect x="503.9" y="724.5" class="st2" width="184.2" height="184.2"/>
<rect x="282.8" y="724.5" class="st2" width="184.2" height="184.2"/>
<rect x="61.7" y="724.5" class="st2" width="184.2" height="184.2"/>
<rect x="946.1" y="503.4" class="st2" width="184.2" height="184.2"/>
<rect x="725" y="503.4" class="st2" width="184.2" height="184.2"/>
<rect x="503.9" y="503.4" class="st2" width="184.2" height="184.2"/>
<rect x="282.8" y="503.4" class="st2" width="184.2" height="184.2"/>
<rect x="61.7" y="503.4" class="st2" width="184.2" height="184.2"/>
<rect x="946.1" y="282.3" class="st2" width="184.2" height="184.2"/>
<rect x="725" y="282.3" class="st2" width="184.2" height="184.2"/>
<rect x="503.9" y="282.3" class="st2" width="184.2" height="184.2"/>
<rect x="282.8" y="282.3" class="st2" width="184.2" height="184.2"/>
<rect x="61.7" y="282.3" class="st2" width="184.2" height="184.2"/>
<rect x="946.1" y="61.1" class="st2" width="184.2" height="184.2"/>
<rect x="725" y="61.1" class="st2" width="184.2" height="184.2"/>
<rect x="503.9" y="61.1" class="st2" width="184.2" height="184.2"/>
<rect x="282.8" y="61.1" class="st2" width="184.2" height="184.2"/>
<rect x="61.7" y="61.1" class="st2" width="184.2" height="184.2"/>
<rect x="983" y="982.4" class="st3" width="147.4" height="147.4"/>
<rect x="798.7" y="982.4" class="st3" width="147.4" height="147.4"/>
<rect x="614.5" y="982.4" class="st3" width="147.4" height="147.4"/>
<rect x="430.2" y="982.4" class="st3" width="147.4" height="147.4"/>
<rect x="246" y="982.4" class="st3" width="147.4" height="147.4"/>
<rect x="61.7" y="982.4" class="st3" width="147.4" height="147.4"/>
<rect x="983" y="798.2" class="st3" width="147.4" height="147.4"/>
<rect x="798.7" y="798.2" class="st3" width="147.4" height="147.4"/>
<rect x="614.5" y="798.2" class="st3" width="147.4" height="147.4"/>
<rect x="430.2" y="798.2" class="st3" width="147.4" height="147.4"/>
<rect x="246" y="798.2" class="st3" width="147.4" height="147.4"/>
<rect x="61.7" y="798.2" class="st3" width="147.4" height="147.4"/>
<rect x="983" y="613.9" class="st3" width="147.4" height="147.4"/>
<rect x="798.7" y="613.9" class="st3" width="147.4" height="147.4"/>
<rect x="614.5" y="613.9" class="st3" width="147.4" height="147.4"/>
<rect x="430.2" y="613.9" class="st3" width="147.4" height="147.4"/>
<rect x="246" y="613.9" class="st3" width="147.4" height="147.4"/>
<rect x="61.7" y="613.9" class="st3" width="147.4" height="147.4"/>
<rect x="983" y="429.7" class="st3" width="147.4" height="147.4"/>
<rect x="798.7" y="429.7" class="st3" width="147.4" height="147.4"/>
<rect x="614.5" y="429.7" class="st3" width="147.4" height="147.4"/>
<rect x="430.2" y="429.7" class="st3" width="147.4" height="147.4"/>
<rect x="246" y="429.7" class="st3" width="147.4" height="147.4"/>
<rect x="61.7" y="429.7" class="st3" width="147.4" height="147.4"/>
<rect x="983" y="245.4" class="st3" width="147.4" height="147.4"/>
<rect x="798.7" y="245.4" class="st3" width="147.4" height="147.4"/>
<rect x="614.5" y="245.4" class="st3" width="147.4" height="147.4"/>
<rect x="430.2" y="245.4" class="st3" width="147.4" height="147.4"/>
<rect x="246" y="245.4" class="st3" width="147.4" height="147.4"/>
<rect x="61.7" y="245.4" class="st3" width="147.4" height="147.4"/>
<rect x="798.7" y="61.1" class="st3" width="147.4" height="147.4"/>
<rect x="614.5" y="61.1" class="st3" width="147.4" height="147.4"/>
<rect x="430.2" y="61.1" class="st3" width="147.4" height="147.4"/>
<rect x="246" y="61.1" class="st3" width="147.4" height="147.4"/>
<rect x="61.7" y="61.1" class="st3" width="147.4" height="147.4"/>
<text transform="matrix(1 0 0 1 158.27 510.9001)" class="st4 st5">Lorem</text>
<text transform="matrix(1 0 0 1 184.99 510.9001)" class="st4 st5">i</text>
<text transform="matrix(1 0 0 1 187.78 510.9001)" class="st4 st5">ps</text>
<text transform="matrix(1 0 0 1 194.93 510.9001)" class="st4 st5">u</text>
<text transform="matrix(1 0 0 1 199.87 510.9001)" class="st4 st5">m d</text>
<text transform="matrix(1 0 0 1 214.92 510.9001)" class="st4 st5">o</text>
<text transform="matrix(1 0 0 1 218.52 510.9001)" class="st4 st5">lor sit</text>
<text transform="matrix(1 0 0 1 241.59 510.9001)" class="st4 st5">a</text>
<text transform="matrix(1 0 0 1 246.3 510.9001)" class="st4 st5">met,</text>
<text transform="matrix(1 0 0 1 264.67 510.9001)" class="st4 st5">c</text>
<text transform="matrix(1 0 0 1 267.65 510.9001)" class="st4 st5">onsectet</text>
<text transform="matrix(1 0 0 1 295.27 510.9001)" class="st4 st5">u</text>
<text transform="matrix(1 0 0 1 300.16 510.9001)" class="st4 st5">er ad</text>
<text transform="matrix(1 0 0 1 319.43 510.9001)" class="st4 st5">i</text>
<text transform="matrix(1 0 0 1 322.22 510.9001)" class="st4 st5">pisc</text>
<text transform="matrix(1 0 0 1 335.44 510.9001)" class="st4 st5">i</text>
<text transform="matrix(1 0 0 1 338.23 510.9001)" class="st4 st5">ng</text>
<text transform="matrix(1 0 0 1 349.65 510.9001)" class="st4 st5">e</text>
<text transform="matrix(1 0 0 1 352.8 510.9001)" class="st4 st5">lit,</text>
<text transform="matrix(1 0 0 1 158.27 534.9001)" class="st4 st5">sed di</text>
<text transform="matrix(1 0 0 1 179.7 534.9001)" class="st4 st5">a</text>
<text transform="matrix(1 0 0 1 184.41 534.9001)" class="st4 st5">m non</text>
<text transform="matrix(1 0 0 1 208.64 534.9001)" class="st4 st5">u</text>
<g>
	<text transform="matrix(1 0 0 1 213.58 534.9001)" class="st4 st5">m</text>
	<text transform="matrix(1 0 0 1 221.08 534.9001)" class="st4 st5">m</text>
</g>
<text transform="matrix(1 0 0 1 228.96 534.9001)" class="st4 st5">y n</text>
<text transform="matrix(1 0 0 1 240.28 534.9001)" class="st4 st5">i</text>
<text transform="matrix(1 0 0 1 242.97 534.9001)" class="st4 st5">b</text>
<text transform="matrix(1 0 0 1 247.26 534.9001)" class="st4 st5">h euismod t</text>
<text transform="matrix(1 0 0 1 290.11 534.9001)" class="st4 st5">i</text>
<text transform="matrix(1 0 0 1 292.9 534.9001)" class="st4 st5">nc</text>
<text transform="matrix(1 0 0 1 301.3 534.9001)" class="st4 st5">i</text>
<text transform="matrix(1 0 0 1 304.04 534.9001)" class="st4 st5">d</text>
<text transform="matrix(1 0 0 1 309.2 534.9001)" class="st4 st5">u</text>
<text transform="matrix(1 0 0 1 314.14 534.9001)" class="st4 st5">nt ut laoreet</text>
<text transform="matrix(1 0 0 1 158.27 558.9001)" class="st4 st5">d</text>
<text transform="matrix(1 0 0 1 163.43 558.9001)" class="st4 st5">o</text>
<text transform="matrix(1 0 0 1 167.03 558.9001)" class="st4 st5">lore magna</text>
<text transform="matrix(1 0 0 1 212.02 558.9001)" class="st4 st5">a</text>
<text transform="matrix(1 0 0 1 216.73 558.9001)" class="st4 st5">l</text>
<text transform="matrix(1 0 0 1 219.59 558.9001)" class="st4 st5">i</text>
<text transform="matrix(1 0 0 1 222.33 558.9001)" class="st4 st5">qu</text>
<text transform="matrix(1 0 0 1 232.15 558.9001)" class="st4 st5">a</text>
<text transform="matrix(1 0 0 1 236.86 558.9001)" class="st4 st5">m e</text>
<text transform="matrix(1 0 0 1 250.16 558.9001)" class="st4 st5">r</text>
<text transform="matrix(1 0 0 1 253.55 558.9001)" class="st4 st5">at v</text>
<text transform="matrix(1 0 0 1 267.48 558.9001)" class="st4 st5">o</text>
<text transform="matrix(1 0 0 1 271.08 558.9001)" class="st4 st5">lutpat. Ut wisi en</text>
<text transform="matrix(1 0 0 1 335.79 558.9001)" class="st4 st5">i</text>
<text transform="matrix(1 0 0 1 338.58 558.9001)" class="st4 st5">m ad</text>
<text transform="matrix(1 0 0 1 854.02 241.2801)" class="st6 st7">Lorem ipsum dolor sit amet, con</text>
<text transform="matrix(1 0 0 1 1058.3199 241.2801)" class="st6 st7">-</text>
<text transform="matrix(1 0 0 1 854.02 265.2801)" class="st6 st7">sectetuer adipiscing elit, sed diam</text>
<text transform="matrix(1 0 0 1 854.02 289.2801)" class="st6 st7">nonummy nibh euismod tincidunt</text>
<text transform="matrix(1 0 0 1 854.02 313.2801)" class="st6 st7">ut laoreet dolore magna aliquam</text>
<text transform="matrix(1 0 0 1 854.02 337.2801)" class="st6 st7">erat volutpat. Ut wisi enim ad</text>
<text transform="matrix(1 0 0 1 854.02 361.2801)" class="st6 st7">minim veniam, quis nostrud exerci</text>
<text transform="matrix(1 0 0 1 854.02 385.2801)" class="st6 st7">tation ullamcorper suscipit lobortis</text>
<text transform="matrix(1 0 0 1 854.02 409.2801)" class="st6 st7">nisl ut aliquip ex ea commodo</text>
<text transform="matrix(1 0 0 1 854.02 433.2801)" class="st6 st7">consequat. Duis autem vel eum</text>
<text transform="matrix(1 0 0 1 854.02 457.2801)" class="st6 st7">iriure dolor in hendrerit in vulputa</text>
<text transform="matrix(1 0 0 1 1071.2 457.2801)" class="st6 st7">-</text>
<text transform="matrix(1 0 0 1 854.02 481.2801)" class="st6 st7">te velit esse molestie consequat,</text>
<text transform="matrix(1 0 0 1 854.02 505.2801)" class="st6 st7">vel illum dolore eu feugiat nulla</text>
<text transform="matrix(1 0 0 1 854.02 529.2801)" class="st6 st7">facilisis at vero eros et accumsan et</text>
<text transform="matrix(1 0 0 1 854.02 553.2801)" class="st6 st7">iusto odio dignissim qui blandit</text>
<text transform="matrix(1 0 0 1 854.02 577.2801)" class="st6 st7">praesent luptatum zzril delenit</text>
<text transform="matrix(1 0 0 1 854.02 601.2801)" class="st6 st7">augue duis dolore te feugait nulla</text>
<text transform="matrix(1 0 0 1 854.02 625.2801)" class="st6 st7">facilisi.</text>
<text transform="matrix(1 0 0 1 854.02 649.2801)" class="st6 st7">Lorem ipsum dolor sit amet, cons</text>
<text transform="matrix(1 0 0 1 854.02 673.2801)" class="st6 st7">ectetuer adipiscing elit, sed diam</text>
<text transform="matrix(1 0 0 1 467.08 153.2701)" class="st8 st9">Marmo&amp;Brace</text>
<g>
	<defs>
		<circle id="SVGID_1_" cx="260.8" cy="211.9" r="125.4"/>
	</defs>
	<clipPath id="SVGID_2_">
		<use xlink:href="#SVGID_1_"  style="overflow:visible;"/>
	</clipPath>
	<g style="clip-path:url(#SVGID_2_);">
		
			<image style="overflow:visible;" width="1024" height="1024" xlink:href="893200_05.jpg"  transform="matrix(0.2658 0 0 0.2658 117.48 78.75)">
		</image>
	</g>
</g>
<g>
	<defs>
		<rect id="SVGID_3_" x="983" y="61.1" width="147.4" height="147.4"/>
	</defs>
	<clipPath id="SVGID_4_">
		<use xlink:href="#SVGID_3_"  style="overflow:visible;"/>
	</clipPath>
	<g style="clip-path:url(#SVGID_4_);">
		
			<image style="overflow:visible;" width="1024" height="768" xlink:href="893200_03.jpg"  transform="matrix(0.2113 0 0 0.2113 939.6233 53.6988)">
		</image>
	</g>
</g>
</svg>
