<svg xmlns="http://www.w3.org/2000/svg" xmlns:xlink="http://www.w3.org/1999/xlink" viewBox="0 0 1190.55 1190.55"><defs><style>.cls-1,.cls-3,.cls-4,.cls-5{fill:none;}.cls-2{fill:#bed3c8;}.cls-3{stroke:#009fe3;}.cls-3,.cls-4,.cls-5{stroke-miterlimit:10;}.cls-4{stroke:#29235c;}.cls-5{stroke:#00a19a;stroke-width:2px;}.cls-6{clip-path:url(#clip-path);}.cls-7{isolation:isolate;}.cls-8{clip-path:url(#clip-path-2);}</style><clipPath id="clip-path"><rect class="cls-1" x="614.11" y="337.21" width="239.53" height="239.53"/></clipPath><clipPath id="clip-path-2"><ellipse class="cls-1" cx="733.87" cy="180.82" rx="94.52" ry="89.79"/></clipPath></defs><title>893200_05</title><g id="Livello_1" data-name="Livello 1"><g id="Livello_1-2" data-name="Livello 1"><g id="Livello_1-2-2" data-name="Livello 1-2"><rect class="cls-2" width="1190.55" height="1190.55"/></g><g id="griglia_6x6" data-name="griglia 6x6"><rect class="cls-1" x="61.56" y="67.56" width="146.57" height="141.24"/><rect class="cls-3" x="61.15" y="61.4" width="147.4" height="147.4"/><rect class="cls-3" x="244.1" y="61.4" width="147.4" height="147.4"/><rect class="cls-3" x="982.25" y="61.4" width="147.4" height="147.4"/><rect class="cls-3" x="798.16" y="61.4" width="147.4" height="147.4"/><rect class="cls-3" x="613.55" y="61.4" width="147.4" height="147.4"/><rect class="cls-3" x="429.98" y="61.4" width="147.4" height="147.4"/><rect class="cls-1" x="61.44" y="251.49" width="146.57" height="141.24"/><rect class="cls-3" x="61.02" y="245.33" width="147.4" height="147.4"/><rect class="cls-3" x="243.98" y="245.33" width="147.4" height="147.4"/><rect class="cls-3" x="982.13" y="245.33" width="147.4" height="147.4"/><rect class="cls-3" x="798.04" y="245.33" width="147.4" height="147.4"/><rect class="cls-3" x="613.42" y="245.33" width="147.4" height="147.4"/><rect class="cls-3" x="429.86" y="245.33" width="147.4" height="147.4"/><rect class="cls-1" x="61.44" y="435.43" width="146.57" height="141.24"/><rect class="cls-3" x="61.02" y="429.27" width="147.4" height="147.4"/><rect class="cls-3" x="243.98" y="429.27" width="147.4" height="147.4"/><rect class="cls-3" x="982.13" y="429.27" width="147.4" height="147.4"/><rect class="cls-3" x="798.04" y="429.27" width="147.4" height="147.4"/><rect class="cls-3" x="613.42" y="429.27" width="147.4" height="147.4"/><rect class="cls-3" x="429.86" y="429.27" width="147.4" height="147.4"/><rect class="cls-1" x="61.5" y="619.41" width="146.57" height="141.24"/><rect class="cls-3" x="61.08" y="613.25" width="147.4" height="147.4"/><rect class="cls-3" x="244.04" y="613.25" width="147.4" height="147.4"/><rect class="cls-3" x="982.19" y="613.25" width="147.4" height="147.4"/><rect class="cls-3" x="798.1" y="613.25" width="147.4" height="147.4"/><rect class="cls-3" x="613.48" y="613.25" width="147.4" height="147.4"/><rect class="cls-3" x="429.92" y="613.25" width="147.4" height="147.4"/><rect class="cls-1" x="61.37" y="803.35" width="146.57" height="141.24"/><rect class="cls-3" x="60.96" y="797.18" width="147.4" height="147.4"/><rect class="cls-3" x="243.91" y="797.18" width="147.4" height="147.4"/><rect class="cls-3" x="982.07" y="797.18" width="147.4" height="147.4"/><rect class="cls-3" x="797.98" y="797.18" width="147.4" height="147.4"/><rect class="cls-3" x="613.36" y="797.18" width="147.4" height="147.4"/><rect class="cls-3" x="429.8" y="797.18" width="147.4" height="147.4"/><rect class="cls-1" x="61.37" y="987.28" width="146.57" height="141.24"/><rect class="cls-3" x="60.96" y="981.12" width="147.4" height="147.4"/><rect class="cls-3" x="243.91" y="981.12" width="147.4" height="147.4"/><rect class="cls-3" x="982.07" y="981.12" width="147.4" height="147.4"/><rect class="cls-3" x="797.98" y="981.12" width="147.4" height="147.4"/><rect class="cls-3" x="613.36" y="981.12" width="147.4" height="147.4"/><rect class="cls-3" x="429.8" y="981.12" width="147.4" height="147.4"/></g><g id="griglia_5x5" data-name="griglia 5x5"><rect class="cls-4" x="60.73" y="61.21" width="184.25" height="184.25"/><rect class="cls-4" x="723.61" y="61.21" width="184.25" height="184.25"/><rect class="cls-4" x="503.15" y="61.21" width="184.25" height="184.25"/><rect class="cls-4" x="281.87" y="61.21" width="184.25" height="184.25"/><rect class="cls-4" x="946.24" y="61.21" width="184.25" height="184.25"/><rect class="cls-4" x="60.39" y="283.21" width="184.25" height="184.25"/><rect class="cls-4" x="723.28" y="283.21" width="184.25" height="184.25"/><rect class="cls-4" x="502.82" y="283.21" width="184.25" height="184.25"/><rect class="cls-4" x="281.54" y="283.21" width="184.25" height="184.25"/><rect class="cls-4" x="945.91" y="283.21" width="184.25" height="184.25"/><rect class="cls-4" x="60.39" y="503.82" width="184.25" height="184.25"/><rect class="cls-4" x="723.28" y="503.82" width="184.25" height="184.25"/><rect class="cls-4" x="502.82" y="503.82" width="184.25" height="184.25"/><rect class="cls-4" x="281.54" y="503.82" width="184.25" height="184.25"/><rect class="cls-4" x="945.91" y="503.82" width="184.25" height="184.25"/><rect class="cls-4" x="60.39" y="724.42" width="184.25" height="184.25"/><rect class="cls-4" x="723.28" y="724.42" width="184.25" height="184.25"/><rect class="cls-4" x="502.82" y="724.42" width="184.25" height="184.25"/><rect class="cls-4" x="281.54" y="724.42" width="184.25" height="184.25"/><rect class="cls-4" x="945.91" y="724.42" width="184.25" height="184.25"/><rect class="cls-4" x="61.39" y="945.03" width="184.25" height="184.25"/><rect class="cls-4" x="724.28" y="945.03" width="184.25" height="184.25"/><rect class="cls-4" x="503.81" y="945.03" width="184.25" height="184.25"/><rect class="cls-4" x="282.54" y="945.03" width="184.25" height="184.25"/><rect class="cls-4" x="946.91" y="945.03" width="184.25" height="184.25"/></g><g id="griglia_4x4" data-name="griglia 4x4"><rect class="cls-5" x="61.05" y="61.05" width="239.53" height="239.53"/><rect class="cls-5" x="612.75" y="61.05" width="239.53" height="239.53"/><rect class="cls-5" x="337.08" y="61.05" width="239.53" height="239.53"/><rect class="cls-5" x="890.46" y="61.05" width="239.53" height="239.53"/><rect class="cls-5" x="62.41" y="337.21" width="239.53" height="239.53"/><rect class="cls-5" x="614.11" y="337.21" width="239.53" height="239.53"/><rect class="cls-5" x="338.44" y="337.21" width="239.53" height="239.53"/><rect class="cls-5" x="891.82" y="337.21" width="239.53" height="239.53"/><rect class="cls-5" x="60.8" y="613.38" width="239.53" height="239.53"/><rect class="cls-5" x="612.51" y="613.38" width="239.53" height="239.53"/><rect class="cls-5" x="336.83" y="613.38" width="239.53" height="239.53"/><rect class="cls-5" x="890.22" y="613.38" width="239.53" height="239.53"/><rect class="cls-5" x="60.8" y="889.55" width="239.53" height="239.53"/><rect class="cls-5" x="612.51" y="889.55" width="239.53" height="239.53"/><rect class="cls-5" x="336.83" y="889.55" width="239.53" height="239.53"/><rect class="cls-5" x="890.22" y="889.55" width="239.53" height="239.53"/></g></g><g id="Livello_2" data-name="Livello 2"><g class="cls-6"><image class="cls-7" width="4032" height="3024" transform="translate(346.29 335.73) scale(0.13 0.15)" xlink:href="../../../Library/Containers/com.apple.MediaLibraryService/Data/Library/Caches/com.apple.iLifeMediaBrowser.ILPhotosTranscodeCache/mt2v+rraT2aRynjr7uaaQg.jpg"/></g></g></g><g id="clipping_cerchio" data-name="clipping cerchio"><g class="cls-8"><image width="4032" height="3024" transform="matrix(0, 0.08, -0.11, 0, 876.42, 27.65)" xlink:href="../../../Library/Containers/com.apple.MediaLibraryService/Data/Library/Caches/com.apple.iLifeMediaBrowser.ILPhotosTranscodeCache/IGtLsaL2QU6kY4dOCLw9+Q.jpg"/></g></g></svg>