<svg xmlns="http://www.w3.org/2000/svg" xmlns:xlink="http://www.w3.org/1999/xlink" viewBox="0 0 1190.55 1190.55"><defs><style>.cls-1,.cls-3,.cls-4,.cls-7{fill:none;}.cls-2{fill:#3c7699;}.cls-3{stroke:#fff;}.cls-3,.cls-4,.cls-7{stroke-miterlimit:10;}.cls-4{stroke:#ec2224;}.cls-5{clip-path:url(#clip-path);}.cls-6{isolation:isolate;}.cls-7{stroke:#6abd45;}</style><clipPath id="clip-path" transform="translate(0.9 0)"><rect class="cls-1" x="502.7" y="282.27" width="184.25" height="184.25"/></clipPath></defs><title>893307_04</title><g id="Layer_3" data-name="Layer 3"><g id="_1_griglia" data-name=" 1 griglia"><rect class="cls-2" width="1190.55" height="1190.55"/><rect class="cls-3" x="62.26" y="60.94" width="239.53" height="239.53"/><rect class="cls-3" x="338.22" y="60.94" width="239.53" height="239.53"/><rect class="cls-3" x="614.6" y="60.94" width="239.53" height="239.53"/><rect class="cls-3" x="890.56" y="60.94" width="239.53" height="239.53"/><rect class="cls-3" x="62.26" y="337.32" width="239.53" height="239.53"/><rect class="cls-3" x="338.22" y="337.32" width="239.53" height="239.53"/><rect class="cls-3" x="614.6" y="337.32" width="239.53" height="239.53"/><rect class="cls-3" x="890.56" y="337.32" width="239.53" height="239.53"/><rect class="cls-3" x="62.26" y="613.7" width="239.53" height="239.53"/><rect class="cls-3" x="338.22" y="613.7" width="239.53" height="239.53"/><rect class="cls-3" x="614.6" y="613.7" width="239.53" height="239.53"/><rect class="cls-3" x="890.56" y="613.7" width="239.53" height="239.53"/><rect class="cls-3" x="62.26" y="890.08" width="239.53" height="239.53"/><rect class="cls-3" x="338.22" y="890.08" width="239.53" height="239.53"/><rect class="cls-3" x="614.6" y="890.08" width="239.53" height="239.53"/><rect class="cls-3" x="890.56" y="890.08" width="239.53" height="239.53"/></g></g><g id="Layer_1" data-name="Layer 1"><rect class="cls-4" x="62.82" y="61.17" width="184.25" height="184.25"/><rect class="cls-4" x="282.92" y="61.17" width="184.25" height="184.25"/><rect class="cls-4" x="503.6" y="61.17" width="184.25" height="184.25"/><rect class="cls-4" x="723.7" y="61.17" width="184.25" height="184.25"/><rect class="cls-4" x="945.28" y="61.17" width="184.25" height="184.25"/><rect class="cls-4" x="62.82" y="282.27" width="184.25" height="184.25"/><rect class="cls-4" x="282.92" y="282.27" width="184.25" height="184.25"/><g class="cls-5"><g id="Layer_4" data-name="Layer 4"><image class="cls-6" width="499" height="750" transform="translate(345.78 208.35)" xlink:href="old goals .jpg"/></g></g><rect class="cls-4" x="723.7" y="282.27" width="184.25" height="184.25"/><rect class="cls-4" x="945.28" y="282.27" width="184.25" height="184.25"/><rect class="cls-4" x="62.82" y="503.37" width="184.25" height="184.25"/><rect class="cls-4" x="282.92" y="503.37" width="184.25" height="184.25"/><rect class="cls-4" x="503.6" y="503.37" width="184.25" height="184.25"/><rect class="cls-4" x="723.7" y="503.37" width="184.25" height="184.25"/><rect class="cls-4" x="945.28" y="503.37" width="184.25" height="184.25"/><rect class="cls-4" x="62.82" y="724.48" width="184.25" height="184.25"/><rect class="cls-4" x="282.92" y="724.48" width="184.25" height="184.25"/><rect class="cls-4" x="503.6" y="724.48" width="184.25" height="184.25"/><rect class="cls-4" x="723.7" y="724.48" width="184.25" height="184.25"/><rect class="cls-4" x="945.28" y="724.48" width="184.25" height="184.25"/><rect class="cls-4" x="62.37" y="945.58" width="184.25" height="184.25"/><rect class="cls-4" x="282.47" y="945.58" width="184.25" height="184.25"/><rect class="cls-4" x="503.15" y="945.58" width="184.25" height="184.25"/><rect class="cls-4" x="723.25" y="945.58" width="184.25" height="184.25"/><rect class="cls-4" x="944.83" y="945.58" width="184.25" height="184.25"/><g id="Layer_3-2" data-name="Layer 3"><rect class="cls-7" x="62.26" y="60.94" width="147.4" height="147.4"/><rect class="cls-7" x="246.01" y="60.93" width="147.4" height="147.4"/><rect class="cls-7" x="430.6" y="60.94" width="147.4" height="147.4"/><rect class="cls-7" x="614.35" y="60.93" width="147.4" height="147.4"/><rect class="cls-7" x="798.6" y="60.94" width="147.4" height="147.4"/><rect class="cls-7" x="982.35" y="60.93" width="147.4" height="147.4"/><rect class="cls-7" x="62.26" y="245.2" width="147.4" height="147.4"/><rect class="cls-7" x="246.01" y="245.18" width="147.4" height="147.4"/><rect class="cls-7" x="430.6" y="245.2" width="147.4" height="147.4"/><rect class="cls-7" x="614.35" y="245.18" width="147.4" height="147.4"/><rect class="cls-7" x="798.6" y="245.2" width="147.4" height="147.4"/><rect class="cls-7" x="982.35" y="245.18" width="147.4" height="147.4"/><rect class="cls-7" x="62.26" y="429.46" width="147.4" height="147.4"/><rect class="cls-7" x="246.01" y="429.44" width="147.4" height="147.4"/><rect class="cls-7" x="430.6" y="429.46" width="147.4" height="147.4"/><rect class="cls-7" x="614.35" y="429.44" width="147.4" height="147.4"/><rect class="cls-7" x="798.6" y="429.46" width="147.4" height="147.4"/><rect class="cls-7" x="982.35" y="429.44" width="147.4" height="147.4"/><rect class="cls-7" x="62.26" y="613.71" width="147.4" height="147.4"/><rect class="cls-7" x="246.01" y="613.69" width="147.4" height="147.4"/><rect class="cls-7" x="430.6" y="613.71" width="147.4" height="147.4"/><rect class="cls-7" x="614.35" y="613.69" width="147.4" height="147.4"/><rect class="cls-7" x="798.6" y="613.71" width="147.4" height="147.4"/><rect class="cls-7" x="982.35" y="613.69" width="147.4" height="147.4"/><rect class="cls-7" x="62.26" y="797.95" width="147.4" height="147.4"/><rect class="cls-7" x="246.01" y="797.94" width="147.4" height="147.4"/><rect class="cls-7" x="430.6" y="797.95" width="147.4" height="147.4"/><rect class="cls-7" x="614.35" y="797.94" width="147.4" height="147.4"/><rect class="cls-7" x="798.6" y="797.95" width="147.4" height="147.4"/><rect class="cls-7" x="982.35" y="797.94" width="147.4" height="147.4"/><rect class="cls-7" x="62.26" y="982.2" width="147.4" height="147.4"/><rect class="cls-7" x="246.01" y="982.19" width="147.4" height="147.4"/><rect class="cls-7" x="430.6" y="982.2" width="147.4" height="147.4"/><rect class="cls-7" x="614.35" y="982.19" width="147.4" height="147.4"/><rect class="cls-7" x="798.6" y="982.2" width="147.4" height="147.4"/><rect class="cls-7" x="982.35" y="982.19" width="147.4" height="147.4"/></g></g></svg>