<svg id="sfondo" xmlns="http://www.w3.org/2000/svg" viewBox="0 0 1191.55 1191.55"><defs><style>.cls-1{fill:#3c7699;stroke:#231f20;}.cls-1,.cls-2,.cls-3,.cls-4{stroke-miterlimit:10;}.cls-2,.cls-3,.cls-4{fill:none;}.cls-2{stroke:#f26522;}.cls-3{stroke:#f8ed3c;}.cls-4{stroke:#6bcce0;}</style></defs><title>893307_01</title><rect class="cls-1" x="0.5" y="0.5" width="1190.55" height="1190.55"/><g id="_1" data-name="1"><rect class="cls-2" x="61.45" y="61.44" width="239.53" height="239.53"/><rect class="cls-2" x="337.83" y="61.44" width="239.53" height="239.53"/><rect class="cls-2" x="614.2" y="61.44" width="239.53" height="239.53"/><rect class="cls-2" x="890.58" y="61.44" width="239.53" height="239.53"/><rect class="cls-2" x="61.45" y="337.82" width="239.53" height="239.53"/><rect class="cls-2" x="337.83" y="337.82" width="239.53" height="239.53"/><rect class="cls-2" x="614.2" y="337.82" width="239.53" height="239.53"/><rect class="cls-2" x="890.58" y="337.82" width="239.53" height="239.53"/><rect class="cls-2" x="61.45" y="614.2" width="239.53" height="239.53"/><rect class="cls-2" x="337.83" y="614.2" width="239.53" height="239.53"/><rect class="cls-2" x="614.2" y="614.2" width="239.53" height="239.53"/><rect class="cls-2" x="890.58" y="614.2" width="239.53" height="239.53"/><rect class="cls-2" x="61.45" y="890.58" width="239.53" height="239.53"/><rect class="cls-2" x="337.83" y="890.58" width="239.53" height="239.53"/><rect class="cls-2" x="614.2" y="890.58" width="239.53" height="239.53"/><rect class="cls-2" x="890.58" y="890.58" width="239.53" height="239.53"/></g><rect class="cls-3" x="61.45" y="61.44" width="184.25" height="184.25"/><rect class="cls-3" x="282.55" y="61.44" width="184.25" height="184.25"/><rect class="cls-3" x="503.65" y="61.44" width="184.25" height="184.25"/><rect class="cls-3" x="724.75" y="61.44" width="184.25" height="184.25"/><rect class="cls-3" x="945.86" y="61.44" width="184.25" height="184.25"/><rect class="cls-3" x="61.45" y="282.55" width="184.25" height="184.25"/><rect class="cls-3" x="282.55" y="282.55" width="184.25" height="184.25"/><rect class="cls-3" x="503.65" y="282.55" width="184.25" height="184.25"/><rect class="cls-3" x="724.75" y="282.55" width="184.25" height="184.25"/><rect class="cls-3" x="945.86" y="282.55" width="184.25" height="184.25"/><rect class="cls-3" x="61.45" y="503.65" width="184.25" height="184.25"/><rect class="cls-3" x="282.55" y="503.65" width="184.25" height="184.25"/><rect class="cls-3" x="503.65" y="503.65" width="184.25" height="184.25"/><rect class="cls-3" x="724.75" y="503.65" width="184.25" height="184.25"/><rect class="cls-3" x="945.86" y="503.65" width="184.25" height="184.25"/><rect class="cls-3" x="61.45" y="724.75" width="184.25" height="184.25"/><rect class="cls-3" x="282.55" y="724.75" width="184.25" height="184.25"/><rect class="cls-3" x="503.65" y="724.75" width="184.25" height="184.25"/><rect class="cls-3" x="724.75" y="724.75" width="184.25" height="184.25"/><rect class="cls-3" x="945.86" y="724.75" width="184.25" height="184.25"/><rect class="cls-3" x="61.45" y="945.85" width="184.25" height="184.25"/><rect class="cls-3" x="282.55" y="945.85" width="184.25" height="184.25"/><rect class="cls-3" x="503.65" y="945.85" width="184.25" height="184.25"/><rect class="cls-3" x="724.75" y="945.85" width="184.25" height="184.25"/><rect class="cls-3" x="945.86" y="945.85" width="184.25" height="184.25"/><rect class="cls-4" x="61.44" y="61.44" width="147.4" height="147.4"/><rect class="cls-4" x="245.7" y="61.44" width="147.4" height="147.4"/><rect class="cls-4" x="429.95" y="61.44" width="147.4" height="147.4"/><rect class="cls-4" x="614.2" y="61.44" width="147.4" height="147.4"/><rect class="cls-4" x="798.45" y="61.44" width="147.4" height="147.4"/><rect class="cls-4" x="982.7" y="61.44" width="147.4" height="147.4"/><rect class="cls-4" x="61.44" y="245.7" width="147.4" height="147.4"/><rect class="cls-4" x="245.7" y="245.7" width="147.4" height="147.4"/><rect class="cls-4" x="429.95" y="245.7" width="147.4" height="147.4"/><rect class="cls-4" x="614.2" y="245.7" width="147.4" height="147.4"/><rect class="cls-4" x="798.45" y="245.7" width="147.4" height="147.4"/><rect class="cls-4" x="982.7" y="245.7" width="147.4" height="147.4"/><rect class="cls-4" x="61.44" y="429.95" width="147.4" height="147.4"/><rect class="cls-4" x="245.7" y="429.95" width="147.4" height="147.4"/><rect class="cls-4" x="429.95" y="429.95" width="147.4" height="147.4"/><rect class="cls-4" x="614.2" y="429.95" width="147.4" height="147.4"/><rect class="cls-4" x="798.45" y="429.95" width="147.4" height="147.4"/><rect class="cls-4" x="982.7" y="429.95" width="147.4" height="147.4"/><rect class="cls-4" x="61.44" y="614.2" width="147.4" height="147.4"/><rect class="cls-4" x="245.7" y="614.2" width="147.4" height="147.4"/><rect class="cls-4" x="429.95" y="614.2" width="147.4" height="147.4"/><rect class="cls-4" x="614.2" y="614.2" width="147.4" height="147.4"/><rect class="cls-4" x="798.45" y="614.2" width="147.4" height="147.4"/><rect class="cls-4" x="982.7" y="614.2" width="147.4" height="147.4"/><rect class="cls-4" x="61.44" y="798.45" width="147.4" height="147.4"/><rect class="cls-4" x="245.7" y="798.45" width="147.4" height="147.4"/><rect class="cls-4" x="429.95" y="798.45" width="147.4" height="147.4"/><rect class="cls-4" x="614.2" y="798.45" width="147.4" height="147.4"/><rect class="cls-4" x="798.45" y="798.45" width="147.4" height="147.4"/><rect class="cls-4" x="982.7" y="798.45" width="147.4" height="147.4"/><rect class="cls-4" x="61.44" y="982.7" width="147.4" height="147.4"/><rect class="cls-4" x="245.7" y="982.7" width="147.4" height="147.4"/><rect class="cls-4" x="429.95" y="982.7" width="147.4" height="147.4"/><rect class="cls-4" x="614.2" y="982.7" width="147.4" height="147.4"/><rect class="cls-4" x="798.45" y="982.7" width="147.4" height="147.4"/><rect class="cls-4" x="982.7" y="982.7" width="147.4" height="147.4"/></svg>