<svg id="Livello_1" data-name="Livello 1" xmlns="http://www.w3.org/2000/svg" xmlns:xlink="http://www.w3.org/1999/xlink" viewBox="0 0 1190.6 1190.6"><defs><style>.cls-1{fill:aqua;}.cls-2,.cls-3,.cls-4{fill:none;stroke-miterlimit:10;}.cls-2{stroke:#d1941c;}.cls-3{stroke:#40c91f;}.cls-4{stroke:#192aa5;}</style></defs><title>893389_03</title><g id="Livello_1-2" data-name="Livello 1-2"><rect class="cls-1" width="1190.6" height="1190.6"/></g><g id="Livello_2" data-name="Livello 2"><rect class="cls-2" x="337.3" y="337.3" width="239.5" height="239.5"/><rect class="cls-2" x="613.7" y="337.3" width="239.5" height="239.5"/><rect class="cls-2" x="337.3" y="60.9" width="239.5" height="239.5"/><rect class="cls-2" x="613.7" y="60.9" width="239.5" height="239.5"/><rect class="cls-2" x="337.3" y="613.7" width="239.5" height="239.5"/><rect class="cls-2" x="613.7" y="613.7" width="239.5" height="239.5"/><rect class="cls-2" x="337.3" y="890.1" width="239.5" height="239.5"/><rect class="cls-2" x="60.9" y="337.3" width="239.5" height="239.5"/><rect class="cls-2" x="60.9" y="60.9" width="239.5" height="239.5"/><rect class="cls-2" x="60.9" y="613.7" width="239.5" height="239.5"/><rect class="cls-2" x="60.9" y="890.1" width="239.5" height="239.5"/><rect class="cls-2" x="613.7" y="890.1" width="239.5" height="239.5"/><rect class="cls-2" x="890.1" y="337.3" width="239.5" height="239.5"/><rect class="cls-2" x="890.1" y="60.9" width="239.5" height="239.5"/><rect class="cls-2" x="890.1" y="613.7" width="239.5" height="239.5"/><rect class="cls-2" x="890.1" y="890.1" width="239.5" height="239.5"/></g><g id="Livello_3" data-name="Livello 3"><rect class="cls-3" x="503.1" y="503.2" width="184.3" height="184.3"/><rect class="cls-3" x="724.2" y="503.2" width="184.2" height="184.3"/><rect class="cls-3" x="60.9" y="503.2" width="184.2" height="184.3"/><rect class="cls-3" x="282" y="503.2" width="184.2" height="184.3"/><rect class="cls-3" x="945.3" y="503.2" width="184.2" height="184.3"/><rect class="cls-3" x="503.1" y="282.1" width="184.3" height="184.2"/><rect class="cls-3" x="724.2" y="282.1" width="184.2" height="184.2"/><rect class="cls-3" x="60.9" y="282.1" width="184.2" height="184.2"/><rect class="cls-3" x="282" y="282.1" width="184.2" height="184.2"/><rect class="cls-3" x="945.3" y="282.1" width="184.2" height="184.2"/><rect class="cls-3" x="503.1" y="945.4" width="184.3" height="184.2"/><rect class="cls-3" x="724.2" y="945.4" width="184.2" height="184.2"/><rect class="cls-3" x="60.9" y="945.4" width="184.2" height="184.2"/><rect class="cls-3" x="282" y="945.4" width="184.2" height="184.2"/><rect class="cls-3" x="945.3" y="945.4" width="184.2" height="184.2"/><rect class="cls-3" x="503.1" y="724.3" width="184.3" height="184.2"/><rect class="cls-3" x="724.2" y="724.3" width="184.2" height="184.2"/><rect class="cls-3" x="60.9" y="724.3" width="184.2" height="184.2"/><rect class="cls-3" x="282" y="724.3" width="184.2" height="184.2"/><rect class="cls-3" x="945.3" y="724.3" width="184.2" height="184.2"/><rect class="cls-3" x="503.1" y="60.9" width="184.3" height="184.2"/><rect class="cls-3" x="724.2" y="60.9" width="184.2" height="184.2"/><rect class="cls-3" x="60.9" y="60.9" width="184.2" height="184.2"/><rect class="cls-3" x="282" y="60.9" width="184.2" height="184.2"/><rect class="cls-3" x="945.3" y="60.9" width="184.2" height="184.2"/></g><g id="Livello_4" data-name="Livello 4"><rect class="cls-4" x="429.5" y="429.5" width="147.4" height="147.4"/><rect class="cls-4" x="613.7" y="429.5" width="147.4" height="147.4"/><rect class="cls-4" x="429.5" y="613.7" width="147.4" height="147.4"/><rect class="cls-4" x="613.7" y="613.7" width="147.4" height="147.4"/><rect class="cls-4" x="429.5" y="798" width="147.4" height="147.4"/><rect class="cls-4" x="613.7" y="798" width="147.4" height="147.4"/><rect class="cls-4" x="429.5" y="982.2" width="147.4" height="147.4"/><rect class="cls-4" x="613.7" y="982.2" width="147.4" height="147.4"/><rect class="cls-4" x="429.5" y="60.9" width="147.4" height="147.4"/><rect class="cls-4" x="613.7" y="60.9" width="147.4" height="147.4"/><rect class="cls-4" x="429.5" y="245.2" width="147.4" height="147.4"/><rect class="cls-4" x="613.7" y="245.2" width="147.4" height="147.4"/><rect class="cls-4" x="60.9" y="429.5" width="147.4" height="147.4"/><rect class="cls-4" x="245.2" y="429.5" width="147.4" height="147.4"/><rect class="cls-4" x="60.9" y="613.7" width="147.4" height="147.4"/><rect class="cls-4" x="245.2" y="613.7" width="147.4" height="147.4"/><rect class="cls-4" x="60.9" y="798" width="147.4" height="147.4"/><rect class="cls-4" x="245.2" y="798" width="147.4" height="147.4"/><rect class="cls-4" x="60.9" y="982.2" width="147.4" height="147.4"/><rect class="cls-4" x="245.2" y="982.2" width="147.4" height="147.4"/><rect class="cls-4" x="60.9" y="60.9" width="147.4" height="147.4"/><rect class="cls-4" x="245.2" y="60.9" width="147.4" height="147.4"/><rect class="cls-4" x="60.9" y="245.2" width="147.4" height="147.4"/><rect class="cls-4" x="245.2" y="245.2" width="147.4" height="147.4"/><rect class="cls-4" x="798" y="429.5" width="147.4" height="147.4"/><rect class="cls-4" x="982.2" y="429.5" width="147.4" height="147.4"/><rect class="cls-4" x="798" y="613.7" width="147.4" height="147.4"/><rect class="cls-4" x="982.2" y="613.7" width="147.4" height="147.4"/><rect class="cls-4" x="798" y="798" width="147.4" height="147.4"/><rect class="cls-4" x="982.2" y="798" width="147.4" height="147.4"/><rect class="cls-4" x="798" y="982.2" width="147.4" height="147.4"/><rect class="cls-4" x="982.2" y="982.2" width="147.4" height="147.4"/><rect class="cls-4" x="798" y="60.9" width="147.4" height="147.4"/><rect class="cls-4" x="982.2" y="60.9" width="147.4" height="147.4"/><rect class="cls-4" x="798" y="245.2" width="147.4" height="147.4"/><rect class="cls-4" x="982.2" y="245.2" width="147.4" height="147.4"/></g><image width="2593" height="3874" transform="translate(212.73 23.73) scale(0.3)" xlink:href="../893389_03.jpg"/></svg>