<svg xmlns="http://www.w3.org/2000/svg" xmlns:xlink="http://www.w3.org/1999/xlink" viewBox="0 0 1190.55 1190.55"><defs><style>.cls-1,.cls-3,.cls-4,.cls-5{fill:none;}.cls-2{fill:#3c7699;}.cls-3{stroke:#fff;}.cls-3,.cls-4,.cls-5{stroke-miterlimit:10;}.cls-4{stroke:#ec2224;}.cls-5{stroke:#6abd45;}.cls-6{clip-path:url(#clip-path);}.cls-7{clip-path:url(#clip-path-2);}</style><clipPath id="clip-path"><circle class="cls-1" cx="613.45" cy="540.65" r="258.38"/></clipPath><clipPath id="clip-path-2"><rect class="cls-1" x="254.44" y="282.27" width="690.66" height="517.99"/></clipPath></defs><title>893307_05</title><g id="Layer_1" data-name="Layer 1"><g id="_1_griglia" data-name=" 1 griglia"><rect class="cls-2" width="1190.55" height="1190.55"/><rect class="cls-3" x="61.36" y="60.94" width="239.53" height="239.53"/><rect class="cls-3" x="337.32" y="60.94" width="239.53" height="239.53"/><rect class="cls-3" x="613.7" y="60.94" width="239.53" height="239.53"/><rect class="cls-3" x="889.66" y="60.94" width="239.53" height="239.53"/><rect class="cls-3" x="61.36" y="337.32" width="239.53" height="239.53"/><rect class="cls-3" x="337.32" y="337.32" width="239.53" height="239.53"/><rect class="cls-3" x="613.7" y="337.32" width="239.53" height="239.53"/><rect class="cls-3" x="889.66" y="337.32" width="239.53" height="239.53"/><rect class="cls-3" x="61.36" y="613.7" width="239.53" height="239.53"/><rect class="cls-3" x="337.32" y="613.7" width="239.53" height="239.53"/><rect class="cls-3" x="613.7" y="613.7" width="239.53" height="239.53"/><rect class="cls-3" x="889.66" y="613.7" width="239.53" height="239.53"/><rect class="cls-3" x="61.36" y="890.08" width="239.53" height="239.53"/><rect class="cls-3" x="337.32" y="890.08" width="239.53" height="239.53"/><rect class="cls-3" x="613.7" y="890.08" width="239.53" height="239.53"/><rect class="cls-3" x="889.66" y="890.08" width="239.53" height="239.53"/></g><g id="Layer_2" data-name="Layer 2"><rect class="cls-4" x="61.92" y="61.17" width="184.25" height="184.25"/><rect class="cls-4" x="282.02" y="61.17" width="184.25" height="184.25"/><rect class="cls-4" x="502.7" y="61.17" width="184.25" height="184.25"/><rect class="cls-4" x="722.8" y="61.17" width="184.25" height="184.25"/><rect class="cls-4" x="944.38" y="61.17" width="184.25" height="184.25"/><rect class="cls-4" x="61.92" y="282.27" width="184.25" height="184.25"/><rect class="cls-4" x="282.02" y="282.27" width="184.25" height="184.25"/><rect class="cls-4" x="502.7" y="282.27" width="184.25" height="184.25"/><rect class="cls-4" x="722.8" y="282.27" width="184.25" height="184.25"/><rect class="cls-4" x="944.38" y="282.27" width="184.25" height="184.25"/><rect class="cls-4" x="61.92" y="503.37" width="184.25" height="184.25"/><rect class="cls-4" x="282.02" y="503.37" width="184.25" height="184.25"/><rect class="cls-4" x="502.7" y="503.37" width="184.25" height="184.25"/><rect class="cls-4" x="722.8" y="503.37" width="184.25" height="184.25"/><rect class="cls-4" x="944.38" y="503.37" width="184.25" height="184.25"/><rect class="cls-4" x="61.92" y="724.48" width="184.25" height="184.25"/><rect class="cls-4" x="282.02" y="724.48" width="184.25" height="184.25"/><rect class="cls-4" x="502.7" y="724.48" width="184.25" height="184.25"/><rect class="cls-4" x="722.8" y="724.48" width="184.25" height="184.25"/><rect class="cls-4" x="944.38" y="724.48" width="184.25" height="184.25"/><rect class="cls-4" x="61.47" y="945.58" width="184.25" height="184.25"/><rect class="cls-4" x="281.57" y="945.58" width="184.25" height="184.25"/><rect class="cls-4" x="502.25" y="945.58" width="184.25" height="184.25"/><rect class="cls-4" x="722.35" y="945.58" width="184.25" height="184.25"/><rect class="cls-4" x="943.93" y="945.58" width="184.25" height="184.25"/></g><g id="Layer_3" data-name="Layer 3"><rect class="cls-5" x="61.36" y="60.94" width="147.4" height="147.4"/><rect class="cls-5" x="245.11" y="60.93" width="147.4" height="147.4"/><rect class="cls-5" x="429.7" y="60.94" width="147.4" height="147.4"/><rect class="cls-5" x="613.45" y="60.93" width="147.4" height="147.4"/><rect class="cls-5" x="797.7" y="60.94" width="147.4" height="147.4"/><rect class="cls-5" x="981.45" y="60.93" width="147.4" height="147.4"/><rect class="cls-5" x="61.36" y="245.2" width="147.4" height="147.4"/><rect class="cls-5" x="245.11" y="245.18" width="147.4" height="147.4"/><rect class="cls-5" x="429.7" y="245.2" width="147.4" height="147.4"/><rect class="cls-5" x="613.45" y="245.18" width="147.4" height="147.4"/><rect class="cls-5" x="797.7" y="245.2" width="147.4" height="147.4"/><rect class="cls-5" x="981.45" y="245.18" width="147.4" height="147.4"/><rect class="cls-5" x="61.36" y="429.46" width="147.4" height="147.4"/><rect class="cls-5" x="245.11" y="429.44" width="147.4" height="147.4"/><rect class="cls-5" x="429.7" y="429.46" width="147.4" height="147.4"/><rect class="cls-5" x="613.45" y="429.44" width="147.4" height="147.4"/><rect class="cls-5" x="797.7" y="429.46" width="147.4" height="147.4"/><rect class="cls-5" x="981.45" y="429.44" width="147.4" height="147.4"/><rect class="cls-5" x="61.36" y="613.71" width="147.4" height="147.4"/><rect class="cls-5" x="245.11" y="613.69" width="147.4" height="147.4"/><rect class="cls-5" x="429.7" y="613.71" width="147.4" height="147.4"/><rect class="cls-5" x="613.45" y="613.69" width="147.4" height="147.4"/><rect class="cls-5" x="797.7" y="613.71" width="147.4" height="147.4"/><rect class="cls-5" x="981.45" y="613.69" width="147.4" height="147.4"/><rect class="cls-5" x="61.36" y="797.95" width="147.4" height="147.4"/><rect class="cls-5" x="245.11" y="797.94" width="147.4" height="147.4"/><rect class="cls-5" x="429.7" y="797.95" width="147.4" height="147.4"/><rect class="cls-5" x="613.45" y="797.94" width="147.4" height="147.4"/><rect class="cls-5" x="797.7" y="797.95" width="147.4" height="147.4"/><rect class="cls-5" x="981.45" y="797.94" width="147.4" height="147.4"/><rect class="cls-5" x="61.36" y="982.2" width="147.4" height="147.4"/><rect class="cls-5" x="245.11" y="982.19" width="147.4" height="147.4"/><rect class="cls-5" x="429.7" y="982.2" width="147.4" height="147.4"/><rect class="cls-5" x="613.45" y="982.19" width="147.4" height="147.4"/><rect class="cls-5" x="797.7" y="982.2" width="147.4" height="147.4"/><rect class="cls-5" x="981.45" y="982.19" width="147.4" height="147.4"/></g></g><g id="Layer_3-2" data-name="Layer 3"><g class="cls-6"><g class="cls-7"><image width="3264" height="2448" transform="translate(254.44 282.27) scale(0.21)" xlink:href="../Media/printed/IMG_2109.JPG"/></g></g></g></svg>