<svg id="Layer_1" data-name="Layer 1" xmlns="http://www.w3.org/2000/svg" xmlns:xlink="http://www.w3.org/1999/xlink" viewBox="0 0 1191.55 1191.55"><defs><style>.cls-1,.cls-3,.cls-4,.cls-5{fill:none;}.cls-2{fill:#3c7699;stroke:#231f20;}.cls-2,.cls-3,.cls-4,.cls-5{stroke-miterlimit:10;}.cls-3{stroke:#f26522;}.cls-4{stroke:#f8ed3c;}.cls-5{stroke:#6bcce0;}.cls-6{clip-path:url(#clip-path);}.cls-10,.cls-11,.cls-12,.cls-13,.cls-14,.cls-15,.cls-16,.cls-17,.cls-18,.cls-19,.cls-20,.cls-21,.cls-22,.cls-24,.cls-7,.cls-8,.cls-9{isolation:isolate;}.cls-10,.cls-11,.cls-12,.cls-13,.cls-14,.cls-15,.cls-16,.cls-17,.cls-25,.cls-8,.cls-9{font-size:16px;font-family:OpenSans-Light, Open Sans;}.cls-9{letter-spacing:0.02em;}.cls-10{letter-spacing:-0.04em;}.cls-11{letter-spacing:0.32em;}.cls-12{letter-spacing:0.16em;}.cls-13{letter-spacing:0.09em;}.cls-14{letter-spacing:0.28em;}.cls-15{letter-spacing:0.03em;}.cls-16{letter-spacing:0.06em;}.cls-17{letter-spacing:0.21em;}.cls-18,.cls-19,.cls-20,.cls-21,.cls-22{font-size:10px;font-family:EBGaramond-Italic, EB Garamond;font-style:italic;}.cls-19{letter-spacing:-0.02em;}.cls-20{letter-spacing:-0.01em;}.cls-21{letter-spacing:-0.04em;}.cls-22{letter-spacing:-0.03em;}.cls-23{clip-path:url(#clip-path-2);}.cls-24{font-size:60px;font-family:OpenSans-Bold, Open Sans;font-weight:700;}</style><clipPath id="clip-path" transform="translate(0 0)"><rect class="cls-1" x="614.2" y="337.82" width="239.53" height="239.53"/></clipPath><clipPath id="clip-path-2" transform="translate(0 0)"><circle class="cls-1" cx="365.74" cy="918.49" r="184.52"/></clipPath></defs><title>893307_07</title><g id="sfondo"><rect class="cls-2" x="0.5" y="0.5" width="1190.55" height="1190.55"/><rect class="cls-3" x="61.45" y="61.44" width="239.53" height="239.53"/><rect class="cls-3" x="337.83" y="61.44" width="239.53" height="239.53"/><rect class="cls-3" x="614.2" y="61.44" width="239.53" height="239.53"/><rect class="cls-3" x="890.58" y="61.44" width="239.53" height="239.53"/><rect class="cls-3" x="61.45" y="337.82" width="239.53" height="239.53"/><rect class="cls-3" x="337.83" y="337.82" width="239.53" height="239.53"/><rect class="cls-3" x="890.58" y="337.82" width="239.53" height="239.53"/><rect class="cls-3" x="61.45" y="614.2" width="239.53" height="239.53"/><rect class="cls-3" x="337.83" y="614.2" width="239.53" height="239.53"/><rect class="cls-3" x="614.2" y="614.2" width="239.53" height="239.53"/><rect class="cls-3" x="890.58" y="614.2" width="239.53" height="239.53"/><rect class="cls-3" x="61.45" y="890.58" width="239.53" height="239.53"/><rect class="cls-3" x="337.83" y="890.58" width="239.53" height="239.53"/><rect class="cls-3" x="614.2" y="890.58" width="239.53" height="239.53"/><rect class="cls-3" x="890.58" y="890.58" width="239.53" height="239.53"/><rect class="cls-4" x="61.45" y="61.44" width="184.25" height="184.25"/><rect class="cls-4" x="282.55" y="61.44" width="184.25" height="184.25"/><rect class="cls-4" x="503.65" y="61.44" width="184.25" height="184.25"/><rect class="cls-4" x="724.75" y="61.44" width="184.25" height="184.25"/><rect class="cls-4" x="945.86" y="61.44" width="184.25" height="184.25"/><rect class="cls-4" x="61.45" y="282.55" width="184.25" height="184.25"/><rect class="cls-4" x="282.55" y="282.55" width="184.25" height="184.25"/><rect class="cls-4" x="503.65" y="282.55" width="184.25" height="184.25"/><rect class="cls-4" x="724.75" y="282.55" width="184.25" height="184.25"/><rect class="cls-4" x="945.86" y="282.55" width="184.25" height="184.25"/><rect class="cls-4" x="61.45" y="503.65" width="184.25" height="184.25"/><rect class="cls-4" x="282.55" y="503.65" width="184.25" height="184.25"/><rect class="cls-4" x="503.65" y="503.65" width="184.25" height="184.25"/><rect class="cls-4" x="724.75" y="503.65" width="184.25" height="184.25"/><rect class="cls-4" x="945.86" y="503.65" width="184.25" height="184.25"/><rect class="cls-4" x="61.45" y="724.75" width="184.25" height="184.25"/><rect class="cls-4" x="282.55" y="724.75" width="184.25" height="184.25"/><rect class="cls-4" x="503.65" y="724.75" width="184.25" height="184.25"/><rect class="cls-4" x="724.75" y="724.75" width="184.25" height="184.25"/><rect class="cls-4" x="945.86" y="724.75" width="184.25" height="184.25"/><rect class="cls-4" x="61.45" y="945.85" width="184.25" height="184.25"/><rect class="cls-4" x="282.55" y="945.85" width="184.25" height="184.25"/><rect class="cls-4" x="503.65" y="945.85" width="184.25" height="184.25"/><rect class="cls-4" x="724.75" y="945.85" width="184.25" height="184.25"/><rect class="cls-4" x="945.86" y="945.85" width="184.25" height="184.25"/><rect class="cls-5" x="61.44" y="61.44" width="147.4" height="147.4"/><rect class="cls-5" x="245.7" y="61.44" width="147.4" height="147.4"/><rect class="cls-5" x="429.95" y="61.44" width="147.4" height="147.4"/><rect class="cls-5" x="614.2" y="61.44" width="147.4" height="147.4"/><rect class="cls-5" x="798.45" y="61.44" width="147.4" height="147.4"/><rect class="cls-5" x="982.7" y="61.44" width="147.4" height="147.4"/><rect class="cls-5" x="61.44" y="245.7" width="147.4" height="147.4"/><rect class="cls-5" x="245.7" y="245.7" width="147.4" height="147.4"/><rect class="cls-5" x="429.95" y="245.7" width="147.4" height="147.4"/><rect class="cls-5" x="614.2" y="245.7" width="147.4" height="147.4"/><rect class="cls-5" x="798.45" y="245.7" width="147.4" height="147.4"/><rect class="cls-5" x="982.7" y="245.7" width="147.4" height="147.4"/><rect class="cls-5" x="61.44" y="429.95" width="147.4" height="147.4"/><rect class="cls-5" x="245.7" y="429.95" width="147.4" height="147.4"/><rect class="cls-5" x="429.95" y="429.95" width="147.4" height="147.4"/><rect class="cls-5" x="614.2" y="429.95" width="147.4" height="147.4"/><rect class="cls-5" x="798.45" y="429.95" width="147.4" height="147.4"/><rect class="cls-5" x="982.7" y="429.95" width="147.4" height="147.4"/><rect class="cls-5" x="61.44" y="614.2" width="147.4" height="147.4"/><rect class="cls-5" x="245.7" y="614.2" width="147.4" height="147.4"/><rect class="cls-5" x="429.95" y="614.2" width="147.4" height="147.4"/><rect class="cls-5" x="614.2" y="614.2" width="147.4" height="147.4"/><rect class="cls-5" x="798.45" y="614.2" width="147.4" height="147.4"/><rect class="cls-5" x="982.7" y="614.2" width="147.4" height="147.4"/><rect class="cls-5" x="61.44" y="798.45" width="147.4" height="147.4"/><rect class="cls-5" x="245.7" y="798.45" width="147.4" height="147.4"/><rect class="cls-5" x="429.95" y="798.45" width="147.4" height="147.4"/><rect class="cls-5" x="614.2" y="798.45" width="147.4" height="147.4"/><rect class="cls-5" x="798.45" y="798.45" width="147.4" height="147.4"/><rect class="cls-5" x="982.7" y="798.45" width="147.4" height="147.4"/><rect class="cls-5" x="61.44" y="982.7" width="147.4" height="147.4"/><rect class="cls-5" x="245.7" y="982.7" width="147.4" height="147.4"/><rect class="cls-5" x="429.95" y="982.7" width="147.4" height="147.4"/><rect class="cls-5" x="614.2" y="982.7" width="147.4" height="147.4"/><rect class="cls-5" x="798.45" y="982.7" width="147.4" height="147.4"/><rect class="cls-5" x="982.7" y="982.7" width="147.4" height="147.4"/><g class="cls-6"><image class="cls-7" width="499" height="750" transform="translate(354.73 220.77)" xlink:href="893307_03.jpg"/></g><g class="cls-7"><text class="cls-8" transform="translate(890.58 349.98)">Lorem</text><text class="cls-9" transform="translate(937.3 349.98)"> </text><text class="cls-8" transform="translate(941.77 349.98)">ipsum</text><text class="cls-9" transform="translate(985.93 349.98)"> </text><text class="cls-8" transform="translate(990.4 349.98)">dolor</text><text class="cls-9" transform="translate(1028.52 349.98)"> </text><text class="cls-8" transform="translate(1032.99 349.98)">sit</text><text class="cls-9" transform="translate(1049.42 349.98)"> </text><text class="cls-8" transform="translate(1053.89 349.98)">amet,</text><text class="cls-9" transform="translate(1094.07 349.98)"> </text><text class="cls-8" transform="translate(1098.55 349.98)">con</text><text class="cls-8" transform="translate(1124.96 349.98)">-</text><text class="cls-8" transform="translate(890.58 373.98)">sectetuer</text><text class="cls-10" transform="translate(958.36 373.98)"> </text><text class="cls-8" transform="translate(961.91 373.98)">adipiscing</text><text class="cls-10" transform="translate(1033.15 373.98)"> </text><text class="cls-8" transform="translate(1036.7 373.98)">elit,</text><text class="cls-10" transform="translate(1061.51 373.98)"> </text><text class="cls-8" transform="translate(1065.06 373.98)">sed</text><text class="cls-10" transform="translate(1090.82 373.98)"> </text><text class="cls-8" transform="translate(1094.37 373.98)">diam </text><text class="cls-8" transform="translate(890.58 397.98)">nonummy</text><text class="cls-11" transform="translate(963.86 397.98)"> </text><text class="cls-8" transform="translate(973.07 397.98)">nibh</text><text class="cls-11" transform="translate(1005.08 397.98)"> </text><text class="cls-8" transform="translate(1014.29 397.98)">euismod</text><text class="cls-11" transform="translate(1076.6 397.98)"> </text><text class="cls-8" transform="translate(1085.81 397.98)">tincid</text><text class="cls-8" transform="translate(1124.96 397.98)">-</text><text class="cls-8" transform="translate(890.58 421.98)">unt</text><text class="cls-12" transform="translate(914.81 421.98)"> </text><text class="cls-8" transform="translate(921.46 421.98)">ut</text><text class="cls-12" transform="translate(936.26 421.98)"> </text><text class="cls-8" transform="translate(942.91 421.98)">laoreet</text><text class="cls-12" transform="translate(993.52 421.98)"> </text><text class="cls-8" transform="translate(1000.17 421.98)">dolore</text><text class="cls-12" transform="translate(1047.07 421.98)"> </text><text class="cls-8" transform="translate(1053.72 421.98)">magna</text><text class="cls-12" transform="translate(1102.6 421.98)"> </text><text class="cls-8" transform="translate(1109.25 421.98)">ali</text><text class="cls-8" transform="translate(1124.96 421.98)">-</text><text class="cls-8" transform="translate(890.58 445.98)">quam</text><text class="cls-13" transform="translate(932.14 445.98)"> </text><text class="cls-8" transform="translate(937.69 445.98)">erat</text><text class="cls-13" transform="translate(966.53 445.98)"> </text><text class="cls-8" transform="translate(972.08 445.98)">volutpat.</text><text class="cls-13" transform="translate(1034.38 445.98)"> </text><text class="cls-8" transform="translate(1039.93 445.98)">Ut</text><text class="cls-13" transform="translate(1056.79 445.98)"> </text><text class="cls-8" transform="translate(1062.34 445.98)">wisi</text><text class="cls-13" transform="translate(1088.6 445.98)"> </text><text class="cls-8" transform="translate(1094.15 445.98)">enim </text><text class="cls-8" transform="translate(890.58 469.98)">ad</text><text class="cls-14" transform="translate(908.58 469.98)"> </text><text class="cls-8" transform="translate(917.22 469.98)">minim</text><text class="cls-14" transform="translate(962.14 469.98)"> </text><text class="cls-8" transform="translate(970.77 469.98)">veniam,</text><text class="cls-14" transform="translate(1025.99 469.98)"> </text><text class="cls-8" transform="translate(1034.63 469.98)">quis</text><text class="cls-14" transform="translate(1064.66 469.98)"> </text><text class="cls-8" transform="translate(1073.3 469.98)">nostrud </text><text class="cls-8" transform="translate(890.58 493.98)">exerci</text><text class="cls-15" transform="translate(933.56 493.98)"> </text><text class="cls-8" transform="translate(938.18 493.98)">tation</text><text class="cls-15" transform="translate(979.8 493.98)"> </text><text class="cls-8" transform="translate(984.42 493.98)">ullamcorper</text><text class="cls-15" transform="translate(1071.43 493.98)"> </text><text class="cls-8" transform="translate(1076.05 493.98)">suscipit </text><text class="cls-8" transform="translate(890.58 517.98)">lobortis</text><text class="cls-15" transform="translate(945.13 517.98)"> </text><text class="cls-8" transform="translate(949.79 517.98)">nisl</text><text class="cls-15" transform="translate(973.92 517.98)"> </text><text class="cls-8" transform="translate(978.58 517.98)">ut</text><text class="cls-15" transform="translate(993.38 517.98)"> </text><text class="cls-8" transform="translate(998.04 517.98)">aliquip</text><text class="cls-15" transform="translate(1045.86 517.98)"> </text><text class="cls-8" transform="translate(1050.52 517.98)">ex</text><text class="cls-15" transform="translate(1067.27 517.98)"> </text><text class="cls-8" transform="translate(1071.94 517.98)">ea</text><text class="cls-15" transform="translate(1089.2 517.98)"> </text><text class="cls-8" transform="translate(1093.86 517.98)">com</text><text class="cls-8" transform="translate(1124.96 517.98)">-</text><text class="cls-8" transform="translate(890.58 541.98)">modo</text><text class="cls-16" transform="translate(932.98 541.98)"> </text><text class="cls-8" transform="translate(938.02 541.98)">consequat.</text><text class="cls-16" transform="translate(1017.27 541.98)"> </text><text class="cls-8" transform="translate(1022.31 541.98)">Duis</text><text class="cls-16" transform="translate(1054.11 541.98)"> </text><text class="cls-8" transform="translate(1059.15 541.98)">autem</text><text class="cls-16" transform="translate(1105.33 541.98)"> </text><text class="cls-8" transform="translate(1110.37 541.98)">vel </text><text class="cls-8" transform="translate(890.58 565.98)">eum</text><text class="cls-17" transform="translate(922.92 565.98)"> </text><text class="cls-8" transform="translate(930.46 565.98)">iriure</text><text class="cls-17" transform="translate(968.36 565.98)"> </text><text class="cls-8" transform="translate(975.9 565.98)">dolor</text><text class="cls-17" transform="translate(1014.01 565.98)"> </text><text class="cls-8" transform="translate(1021.54 565.98)">in</text><text class="cls-17" transform="translate(1034.6 565.98)"> </text><text class="cls-8" transform="translate(1042.13 565.98)">hendrerit</text><text class="cls-17" transform="translate(1109.52 565.98)"> </text><text class="cls-8" transform="translate(1117.06 565.98)">in</text></g><g class="cls-7"><text class="cls-18" transform="translate(614.2 865.81)">Q</text><text class="cls-19" transform="translate(621.14 865.81)">u</text><text class="cls-18" transform="translate(626.03 865.81)">esta </text><text class="cls-20" transform="translate(642.03 865.81)">i</text><text class="cls-19" transform="translate(644.82 865.81)">m</text><text class="cls-18" transform="translate(652.51 865.81)">mag</text><text class="cls-19" transform="translate(669.46 865.81)">i</text><text class="cls-18" transform="translate(672.25 865.81)">ne è stata scattata </text><text class="cls-20" transform="translate(740.14 865.81)">i</text><text class="cls-18" transform="translate(742.93 865.81)">n C</text><text class="cls-19" transform="translate(756.51 865.81)">a</text><text class="cls-18" transform="translate(761.22 865.81)">lifornia. Io ed i m</text><text class="cls-19" transform="translate(827.91 865.81)">i</text><text class="cls-18" transform="translate(830.64 865.81)">ei </text><text class="cls-19" transform="translate(838.99 865.81)">a</text><text class="cls-18" transform="translate(843.7 865.81)">m</text><text class="cls-19" transform="translate(851.59 865.81)">i</text><text class="cls-18" transform="translate(854.33 865.81)">ci ci si</text><text class="cls-19" transform="translate(876.17 865.81)">a</text><text class="cls-18" transform="translate(880.88 865.81)">mo </text><text class="cls-19" transform="translate(614.2 889.81)">a</text><text class="cls-18" transform="translate(618.91 889.81)">r</text><text class="cls-21" transform="translate(622.7 889.81)">r</text><text class="cls-19" transform="translate(626.09 889.81)">a</text><text class="cls-18" transform="translate(630.8 889.81)">mp</text><text class="cls-19" transform="translate(643.08 889.81)">i</text><text class="cls-18" transform="translate(645.82 889.81)">cati su </text><text class="cls-20" transform="translate(671.57 889.81)">u</text><text class="cls-18" transform="translate(676.51 889.81)">na montagna per vedere </text><text class="cls-22" transform="translate(768.68 889.81)">i</text><text class="cls-18" transform="translate(771.37 889.81)">l t</text><text class="cls-21" transform="translate(779.15 889.81)">r</text><text class="cls-19" transform="translate(782.54 889.81)">a</text><text class="cls-18" transform="translate(787.25 889.81)">monto.</text></g></g><g id="Layer_2" data-name="Layer 2"><g class="cls-23"><image class="cls-7" width="2048" height="1536" transform="translate(61.26 688.15) scale(0.27)" xlink:href="../../Media/cielo.jpg"/></g><text class="cls-24" transform="translate(449.01 171.8)">CALIFORNIA</text></g><text class="cls-25" transform="translate(218.51 337.13)">Lorem ipsum dolor sit <tspan x="-27.47" y="24">amet, consectetuer adipiscing </tspan><tspan x="-44.93" y="48">elit, sed diam nonummy nibh euis</tspan><tspan x="196.75" y="48">-</tspan><tspan x="-56.17" y="72">mod tincidunt ut laoreet dolore </tspan><tspan x="-62.61" y="96">magna aliquam erat volutpat. Ut wisi </tspan><tspan x="-64.68" y="120">enim ad minim veniam, quis nostrud </tspan><tspan x="-61.28" y="144">exerci tation ullamcorper suscipit lobor</tspan><tspan x="219.13" y="144">-</tspan><tspan x="-53.61" y="168">tis nisl ut aliquip ex ea commodo con</tspan><tspan x="212.57" y="168">-</tspan><tspan x="-40.87" y="192">sequat. Duis autem vel eum iriure </tspan><tspan x="-21.24" y="216">dolor in hendrerit in vulpu</tspan><tspan x="166.37" y="216">-</tspan><tspan x="10.65" y="240">tate velit esse mo</tspan><tspan x="135.78" y="240">-</tspan></text></svg>