<svg xmlns="http://www.w3.org/2000/svg" xmlns:xlink="http://www.w3.org/1999/xlink" viewBox="0 0 1190.6 1190.6"><defs><style>.cls-1,.cls-3,.cls-4,.cls-5{fill:none;}.cls-2{fill:aqua;}.cls-3{stroke:#192aa5;}.cls-3,.cls-4,.cls-5{stroke-miterlimit:10;}.cls-4{stroke:#40c91f;}.cls-5{stroke:#d1941c;}.cls-6{clip-path:url(#clip-path);}.cls-7{isolation:isolate;}.cls-8{clip-path:url(#clip-path-2);}.cls-9{clip-path:url(#clip-path-3);}</style><clipPath id="clip-path"><rect class="cls-1" x="613.7" y="337.3" width="239.5" height="239.5"/></clipPath><clipPath id="clip-path-2"><circle class="cls-1" cx="295.82" cy="816.17" r="161.22"/></clipPath><clipPath id="clip-path-3"><circle class="cls-1" cx="728.26" cy="798.39" r="143.44"/></clipPath></defs><title>893389_05</title><g id="Livello_1" data-name="Livello 1"><g id="Livello_1-2" data-name="Livello 1"><g id="Livello_1-2-2" data-name="Livello 1-2"><rect class="cls-2" width="1190.6" height="1190.6"/></g></g><g id="Livello_3" data-name="Livello 3"><g id="Livello_4" data-name="Livello 4"><rect class="cls-3" x="429.5" y="429.5" width="147.4" height="147.4"/><rect class="cls-3" x="613.7" y="429.5" width="147.4" height="147.4"/><rect class="cls-3" x="429.5" y="613.7" width="147.4" height="147.4"/><rect class="cls-3" x="613.7" y="613.7" width="147.4" height="147.4"/><rect class="cls-3" x="429.5" y="798" width="147.4" height="147.4"/><rect class="cls-3" x="613.7" y="798" width="147.4" height="147.4"/><rect class="cls-3" x="429.5" y="982.2" width="147.4" height="147.4"/><rect class="cls-3" x="613.7" y="982.2" width="147.4" height="147.4"/><rect class="cls-3" x="429.5" y="60.9" width="147.4" height="147.4"/><rect class="cls-3" x="613.7" y="60.9" width="147.4" height="147.4"/><rect class="cls-3" x="429.5" y="245.2" width="147.4" height="147.4"/><rect class="cls-3" x="613.7" y="245.2" width="147.4" height="147.4"/><rect class="cls-3" x="60.9" y="429.5" width="147.4" height="147.4"/><rect class="cls-3" x="245.2" y="429.5" width="147.4" height="147.4"/><rect class="cls-3" x="60.9" y="613.7" width="147.4" height="147.4"/><rect class="cls-3" x="245.2" y="613.7" width="147.4" height="147.4"/><rect class="cls-3" x="60.9" y="798" width="147.4" height="147.4"/><rect class="cls-3" x="245.2" y="798" width="147.4" height="147.4"/><rect class="cls-3" x="60.9" y="982.2" width="147.4" height="147.4"/><rect class="cls-3" x="245.2" y="982.2" width="147.4" height="147.4"/><rect class="cls-3" x="60.9" y="60.9" width="147.4" height="147.4"/><rect class="cls-3" x="245.2" y="60.9" width="147.4" height="147.4"/><rect class="cls-3" x="60.9" y="245.2" width="147.4" height="147.4"/><rect class="cls-3" x="245.2" y="245.2" width="147.4" height="147.4"/><rect class="cls-3" x="798" y="429.5" width="147.4" height="147.4"/><rect class="cls-3" x="982.2" y="429.5" width="147.4" height="147.4"/><rect class="cls-3" x="798" y="613.7" width="147.4" height="147.4"/><rect class="cls-3" x="982.2" y="613.7" width="147.4" height="147.4"/><rect class="cls-3" x="798" y="798" width="147.4" height="147.4"/><rect class="cls-3" x="982.2" y="798" width="147.4" height="147.4"/><rect class="cls-3" x="798" y="982.2" width="147.4" height="147.4"/><rect class="cls-3" x="982.2" y="982.2" width="147.4" height="147.4"/><rect class="cls-3" x="798" y="60.9" width="147.4" height="147.4"/><rect class="cls-3" x="982.2" y="60.9" width="147.4" height="147.4"/><rect class="cls-3" x="798" y="245.2" width="147.4" height="147.4"/><rect class="cls-3" x="982.2" y="245.2" width="147.4" height="147.4"/></g></g><g id="Livello_4-2" data-name="Livello 4-2"><g id="Livello_3-2" data-name="Livello 3-2"><rect class="cls-4" x="503.1" y="503.2" width="184.3" height="184.3"/><rect class="cls-4" x="724.2" y="503.2" width="184.2" height="184.3"/><rect class="cls-4" x="60.9" y="503.2" width="184.2" height="184.3"/><rect class="cls-4" x="282" y="503.2" width="184.2" height="184.3"/><rect class="cls-4" x="945.3" y="503.2" width="184.2" height="184.3"/><rect class="cls-4" x="503.1" y="282.1" width="184.3" height="184.2"/><rect class="cls-4" x="724.2" y="282.1" width="184.2" height="184.2"/><rect class="cls-4" x="60.9" y="282.1" width="184.2" height="184.2"/><rect class="cls-4" x="282" y="282.1" width="184.2" height="184.2"/><rect class="cls-4" x="945.3" y="282.1" width="184.2" height="184.2"/><rect class="cls-4" x="503.1" y="945.4" width="184.3" height="184.2"/><rect class="cls-4" x="724.2" y="945.4" width="184.2" height="184.2"/><rect class="cls-4" x="60.9" y="945.4" width="184.2" height="184.2"/><rect class="cls-4" x="282" y="945.4" width="184.2" height="184.2"/><rect class="cls-4" x="945.3" y="945.4" width="184.2" height="184.2"/><rect class="cls-4" x="503.1" y="724.3" width="184.3" height="184.2"/><rect class="cls-4" x="724.2" y="724.3" width="184.2" height="184.2"/><rect class="cls-4" x="60.9" y="724.3" width="184.2" height="184.2"/><rect class="cls-4" x="282" y="724.3" width="184.2" height="184.2"/><rect class="cls-4" x="945.3" y="724.3" width="184.2" height="184.2"/><rect class="cls-4" x="503.1" y="60.9" width="184.3" height="184.2"/><rect class="cls-4" x="724.2" y="60.9" width="184.2" height="184.2"/><rect class="cls-4" x="60.9" y="60.9" width="184.2" height="184.2"/><rect class="cls-4" x="282" y="60.9" width="184.2" height="184.2"/><rect class="cls-4" x="945.3" y="60.9" width="184.2" height="184.2"/></g></g><g id="Livello_5" data-name="Livello 5"><rect class="cls-5" x="337.3" y="337.3" width="239.5" height="239.5"/><g class="cls-6"><image class="cls-7" width="2593" height="3874" transform="translate(212.73 14.2) scale(0.3)" xlink:href="../893389_03.jpg"/></g><rect class="cls-5" x="337.3" y="60.9" width="239.5" height="239.5"/><rect class="cls-5" x="613.7" y="60.9" width="239.5" height="239.5"/><rect class="cls-5" x="337.3" y="613.7" width="239.5" height="239.5"/><rect class="cls-5" x="613.7" y="613.7" width="239.5" height="239.5"/><rect class="cls-5" x="337.3" y="890.1" width="239.5" height="239.5"/><rect class="cls-5" x="60.9" y="337.3" width="239.5" height="239.5"/><rect class="cls-5" x="60.9" y="60.9" width="239.5" height="239.5"/><rect class="cls-5" x="60.9" y="613.7" width="239.5" height="239.5"/><rect class="cls-5" x="60.9" y="890.1" width="239.5" height="239.5"/><rect class="cls-5" x="613.7" y="890.1" width="239.5" height="239.5"/><rect class="cls-5" x="890.1" y="337.3" width="239.5" height="239.5"/><rect class="cls-5" x="890.1" y="60.9" width="239.5" height="239.5"/><rect class="cls-5" x="890.1" y="613.7" width="239.5" height="239.5"/><rect class="cls-5" x="890.1" y="890.1" width="239.5" height="239.5"/></g><g id="Livello_7" data-name="Livello 7"><circle class="cls-1" cx="291.54" cy="784.86" r="165.51"/></g></g><g id="Livello_3-2-2" data-name="Livello 3"><g class="cls-9"><image width="3872" height="2592" transform="translate(1015.49 654.67) rotate(90) scale(0.17)" xlink:href="../../../../../../Volumes/AGO 2018/foto ele/DSC_0021.JPG"/></g></g></svg>