<svg xmlns="http://www.w3.org/2000/svg" xmlns:xlink="http://www.w3.org/1999/xlink" viewBox="0 0 1190.6 1190.6"><defs><style>.cls-1,.cls-3,.cls-4,.cls-5{fill:none;}.cls-2{fill:#3c7699;}.cls-3{stroke:#fff;}.cls-3,.cls-4,.cls-5{stroke-miterlimit:10;}.cls-4{stroke:#ec2224;}.cls-5{stroke:#6abd45;}.cls-6{clip-path:url(#clip-path);}.cls-7{clip-path:url(#clip-path-2);}.cls-11,.cls-12,.cls-8,.cls-9{isolation:isolate;}.cls-9{font-size:60px;font-family:OpenSansCondensed-Bold, Open Sans Condensed;font-weight:700;}.cls-10{letter-spacing:-0.02em;}.cls-11,.cls-19{font-size:16px;font-family:OpenSans-Light, Open Sans;}.cls-12{font-size:10px;font-family:EBGaramond-Italic, EB Garamond;font-style:italic;}.cls-13{letter-spacing:-0.02em;}.cls-14{letter-spacing:-0.01em;}.cls-15{letter-spacing:-0.03em;}.cls-16{letter-spacing:0em;}.cls-17{letter-spacing:0em;}.cls-18{letter-spacing:-0.02em;}</style><clipPath id="clip-path"><circle class="cls-1" cx="613.5" cy="540.7" r="258.4"/></clipPath><clipPath id="clip-path-2"><rect class="cls-1" x="254.4" y="282.3" width="690.7" height="518"/></clipPath></defs><title>893307_07</title><g id="Layer_1" data-name="Layer 1"><g id="Layer_1-2" data-name="Layer 1"><g id="_1_griglia" data-name=" 1 griglia"><rect class="cls-2" width="1190.6" height="1190.6"/><rect class="cls-3" x="61.4" y="60.9" width="239.5" height="239.5"/><rect class="cls-3" x="337.3" y="60.9" width="239.5" height="239.5"/><rect class="cls-3" x="613.7" y="60.9" width="239.5" height="239.5"/><rect class="cls-3" x="889.7" y="60.9" width="239.5" height="239.5"/><rect class="cls-3" x="61.4" y="337.3" width="239.5" height="239.5"/><rect class="cls-3" x="337.3" y="337.3" width="239.5" height="239.5"/><rect class="cls-3" x="613.7" y="337.3" width="239.5" height="239.5"/><rect class="cls-3" x="889.7" y="337.3" width="239.5" height="239.5"/><rect class="cls-3" x="61.4" y="613.7" width="239.5" height="239.5"/><rect class="cls-3" x="337.3" y="613.7" width="239.5" height="239.5"/><rect class="cls-3" x="613.7" y="613.7" width="239.5" height="239.5"/><rect class="cls-3" x="889.7" y="613.7" width="239.5" height="239.5"/><rect class="cls-3" x="61.4" y="890.1" width="239.5" height="239.5"/><rect class="cls-3" x="337.3" y="890.1" width="239.5" height="239.5"/><rect class="cls-3" x="613.7" y="890.1" width="239.5" height="239.5"/><rect class="cls-3" x="889.7" y="890.1" width="239.5" height="239.5"/></g><g id="Layer_2" data-name="Layer 2"><rect class="cls-4" x="61.9" y="61.2" width="184.2" height="184.2"/><rect class="cls-4" x="282" y="61.2" width="184.2" height="184.2"/><rect class="cls-4" x="502.7" y="61.2" width="184.2" height="184.2"/><rect class="cls-4" x="722.8" y="61.2" width="184.2" height="184.2"/><rect class="cls-4" x="944.4" y="61.2" width="184.2" height="184.2"/><rect class="cls-4" x="61.9" y="282.3" width="184.2" height="184.2"/><rect class="cls-4" x="282" y="282.3" width="184.2" height="184.2"/><rect class="cls-4" x="502.7" y="282.3" width="184.2" height="184.2"/><rect class="cls-4" x="722.8" y="282.3" width="184.2" height="184.2"/><rect class="cls-4" x="944.4" y="282.3" width="184.2" height="184.2"/><rect class="cls-4" x="61.9" y="503.4" width="184.2" height="184.2"/><rect class="cls-4" x="282" y="503.4" width="184.2" height="184.2"/><rect class="cls-4" x="502.7" y="503.4" width="184.2" height="184.2"/><rect class="cls-4" x="722.8" y="503.4" width="184.2" height="184.2"/><rect class="cls-4" x="944.4" y="503.4" width="184.2" height="184.2"/><rect class="cls-4" x="61.9" y="724.5" width="184.2" height="184.2"/><rect class="cls-4" x="282" y="724.5" width="184.2" height="184.2"/><rect class="cls-4" x="502.7" y="724.5" width="184.2" height="184.2"/><rect class="cls-4" x="722.8" y="724.5" width="184.2" height="184.2"/><rect class="cls-4" x="944.4" y="724.5" width="184.2" height="184.2"/><rect class="cls-4" x="61.5" y="945.6" width="184.2" height="184.3"/><rect class="cls-4" x="281.6" y="945.6" width="184.2" height="184.3"/><rect class="cls-4" x="502.2" y="945.6" width="184.2" height="184.3"/><rect class="cls-4" x="722.3" y="945.6" width="184.2" height="184.3"/><rect class="cls-4" x="943.9" y="945.6" width="184.2" height="184.3"/></g><g id="Layer_3" data-name="Layer 3"><rect class="cls-5" x="61.4" y="60.9" width="147.4" height="147.4"/><rect class="cls-5" x="245.1" y="60.9" width="147.4" height="147.4"/><rect class="cls-5" x="429.7" y="60.9" width="147.4" height="147.4"/><rect class="cls-5" x="613.5" y="60.9" width="147.4" height="147.4"/><rect class="cls-5" x="797.7" y="60.9" width="147.4" height="147.4"/><rect class="cls-5" x="981.5" y="60.9" width="147.4" height="147.4"/><rect class="cls-5" x="61.4" y="245.2" width="147.4" height="147.4"/><rect class="cls-5" x="245.1" y="245.2" width="147.4" height="147.4"/><rect class="cls-5" x="429.7" y="245.2" width="147.4" height="147.4"/><rect class="cls-5" x="613.5" y="245.2" width="147.4" height="147.4"/><rect class="cls-5" x="797.7" y="245.2" width="147.4" height="147.4"/><rect class="cls-5" x="981.5" y="245.2" width="147.4" height="147.4"/><rect class="cls-5" x="61.4" y="429.5" width="147.4" height="147.4"/><rect class="cls-5" x="245.1" y="429.4" width="147.4" height="147.4"/><rect class="cls-5" x="429.7" y="429.5" width="147.4" height="147.4"/><rect class="cls-5" x="613.5" y="429.4" width="147.4" height="147.4"/><rect class="cls-5" x="797.7" y="429.5" width="147.4" height="147.4"/><rect class="cls-5" x="981.5" y="429.4" width="147.4" height="147.4"/><rect class="cls-5" x="61.4" y="613.7" width="147.4" height="147.4"/><rect class="cls-5" x="245.1" y="613.7" width="147.4" height="147.4"/><rect class="cls-5" x="429.7" y="613.7" width="147.4" height="147.4"/><rect class="cls-5" x="613.5" y="613.7" width="147.4" height="147.4"/><rect class="cls-5" x="797.7" y="613.7" width="147.4" height="147.4"/><rect class="cls-5" x="981.5" y="613.7" width="147.4" height="147.4"/><rect class="cls-5" x="61.4" y="798" width="147.4" height="147.4"/><rect class="cls-5" x="245.1" y="797.9" width="147.4" height="147.4"/><rect class="cls-5" x="429.7" y="798" width="147.4" height="147.4"/><rect class="cls-5" x="613.5" y="797.9" width="147.4" height="147.4"/><rect class="cls-5" x="797.7" y="798" width="147.4" height="147.4"/><rect class="cls-5" x="981.5" y="797.9" width="147.4" height="147.4"/><rect class="cls-5" x="61.4" y="982.2" width="147.4" height="147.4"/><rect class="cls-5" x="245.1" y="982.2" width="147.4" height="147.4"/><rect class="cls-5" x="429.7" y="982.2" width="147.4" height="147.4"/><rect class="cls-5" x="613.5" y="982.2" width="147.4" height="147.4"/><rect class="cls-5" x="797.7" y="982.2" width="147.4" height="147.4"/><rect class="cls-5" x="981.5" y="982.2" width="147.4" height="147.4"/></g><rect class="cls-1" x="420.3" y="146.4" width="225.5" height="32.2"/></g></g><g id="text"><g id="Layer_1-3" data-name="Layer 1"><g class="cls-6"><g id="Layer_3-2" data-name="Layer 3"><g class="cls-7"><image class="cls-8" width="3264" height="2448" transform="translate(254.44 282.27) scale(0.21)" xlink:href="../Esercizi /Vectors/893307_05 JPG.JPG"/></g></g></g></g><g id="text-2" data-name="text"><rect class="cls-1" x="282" y="191.3" width="644.8" height="82.7"/><text class="cls-9" transform="translate(282 236.91)"><tspan class="cls-10">P</tspan><tspan x="27.54" y="0">ALM TREES IN CALIFORNIA </tspan></text><rect class="cls-1" x="61.4" y="337.3" width="239.5" height="239.5"/><g class="cls-8"><text class="cls-11" transform="translate(61.4 349.46)">Lorem ipsum dolor sit amet, con</text><text class="cls-11" transform="translate(294.2 349.46)">-</text><text class="cls-11" transform="translate(61.4 373.46)">sectetuer adipiscing elit, sed </text><text class="cls-11" transform="translate(61.4 397.46)">diam nonummy nibh euismod </text><text class="cls-11" transform="translate(61.4 421.46)">tincidunt ut laoreet dolore </text><text class="cls-11" transform="translate(61.4 445.46)">magna aliquam erat volutpat. Ut </text><text class="cls-11" transform="translate(61.4 469.46)">wisi enim ad minim veniam, quis </text><text class="cls-11" transform="translate(61.4 493.46)">nostrud exerci tation ullamcorp</text><text class="cls-11" transform="translate(287.3 493.46)">-</text><text class="cls-11" transform="translate(61.4 517.46)">er suscipit lobortis nisl ut aliquip </text><text class="cls-11" transform="translate(61.4 541.46)">ex ea commodo consequat. Duis </text><text class="cls-11" transform="translate(61.4 565.46)">autem vel eum iriure dolor in </text></g><rect class="cls-1" x="889.7" y="687.6" width="238.9" height="39.1"/><g class="cls-8"><text class="cls-12" transform="translate(889.7 694.65)">The p<tspan class="cls-13" x="20.9" y="0">i</tspan><tspan x="23.64" y="0">ct</tspan><tspan class="cls-14" x="29.69" y="0">u</tspan><tspan x="34.63" y="0">re on </tspan><tspan class="cls-13" x="54.9" y="0">t</tspan><tspan x="57.62" y="0">he ri</tspan><tspan class="cls-15" x="74.64" y="0">g</tspan><tspan x="78.54" y="0">ht is one of </tspan><tspan class="cls-13" x="119.53" y="0">m</tspan><tspan x="127.22" y="0" xml:space="preserve">y  memor</tspan><tspan class="cls-13" x="162.05" y="0">i</tspan><tspan class="cls-16" x="164.79" y="0">es from C</tspan><tspan class="cls-10" x="199.96" y="0">a</tspan><tspan x="204.67" y="0">lifornia. </tspan></text><text class="cls-12" transform="translate(889.7 712.65)">I was <tspan class="cls-13" x="21.52" y="0">c</tspan><tspan x="24.45" y="0">h</tspan><tspan class="cls-15" x="29.33" y="0">i</tspan><tspan class="cls-14" x="32.02" y="0">l</tspan><tspan x="34.73" y="0">l</tspan><tspan class="cls-14" x="37.59" y="0">i</tspan><tspan x="40.38" y="0">ng wi</tspan><tspan class="cls-13" x="60.97" y="0">t</tspan><tspan x="63.69" y="0">h </tspan><tspan class="cls-13" x="70.57" y="0">m</tspan><tspan x="78.26" y="0">y fr</tspan><tspan class="cls-13" x="91.31" y="0">i</tspan><tspan x="94.05" y="0">ends </tspan><tspan class="cls-14" x="112.65" y="0">i</tspan><tspan class="cls-17" x="115.44" y="0">n a be</tspan><tspan class="cls-18" x="137.52" y="0">a</tspan><tspan x="142.28" y="0">utif</tspan><tspan class="cls-15" x="156.44" y="0">u</tspan><tspan x="161.28" y="0">l p</tspan><tspan class="cls-10" x="170.53" y="0">a</tspan><tspan x="175.24" y="0">rk. </tspan></text></g></g><text class="cls-19" transform="translate(223.51 834.06)">Lorem ipsum dolor sit <tspan x="-28.38" y="24">amet, consectetuer adipiscing </tspan><tspan x="-46.66" y="48">elit, sed diam nonummy nibh euis</tspan><tspan x="195.02" y="48">-</tspan><tspan x="-58.71" y="72">mod tincidunt ut laoreet dolore magna </tspan><tspan x="-66.02" y="96">aliquam erat volutpat. Ut wisi enim ad </tspan><tspan x="-69.27" y="120">minim veniam, quis nostrud exerci tation </tspan><tspan x="-67.29" y="144">ullamcorper suscipit lobortis nisl ut aliquip </tspan><tspan x="-61.14" y="168">ex ea commodo consequat. Duis autem </tspan><tspan x="-50.49" y="192">vel eum iriure dolor in hendrerit in </tspan><tspan x="-34.14" y="216">vulputate velit esse molestie </tspan><tspan x="-9.23" y="240">consequat, vel illum </tspan><tspan x="36.03" y="264">dolore eu </tspan></text></g></svg>