<svg id="Livello_1" data-name="Livello 1" xmlns="http://www.w3.org/2000/svg" xmlns:xlink="http://www.w3.org/1999/xlink" viewBox="0 0 1190.6 1190.6"><defs><style>.cls-1,.cls-3,.cls-4,.cls-5{fill:none;}.cls-2{fill:#ec6518;stroke:#1d1d1b;}.cls-2,.cls-3,.cls-4,.cls-5{stroke-miterlimit:10;}.cls-3{stroke:#000;}.cls-4{stroke:#f6e81d;}.cls-5{stroke:#2d4e9d;}.cls-6{clip-path:url(#clip-path);}.cls-10,.cls-11,.cls-7,.cls-9{isolation:isolate;}.cls-8{clip-path:url(#clip-path-2);}.cls-9{font-size:60px;font-family:OpenSansCondensed-Bold, Open Sans Condensed;font-weight:700;}.cls-10,.cls-15{font-size:16px;font-family:OpenSansCondensed-Light, Open Sans Condensed;}.cls-11{font-size:10px;font-family:EBGaramond-Italic, EB Garamond;font-style:italic;}.cls-12{letter-spacing:-0.07em;}.cls-13{letter-spacing:-0.04em;}.cls-14{letter-spacing:-0.02em;}</style><clipPath id="clip-path"><rect class="cls-1" x="61.1" y="61.3" width="239.5" height="239.5"/></clipPath><clipPath id="clip-path-2"><circle class="cls-1" cx="924.3" cy="208.7" r="70.9"/></clipPath></defs><title>Tavola disegno 1</title><g id="Livello_1-2" data-name="Livello 1-2"><rect class="cls-2" width="1190.6" height="1190.6"/></g><g id="Livello_2" data-name="Livello 2"><rect class="cls-3" x="890.2" y="890.4" width="239.5" height="239.5"/><rect class="cls-3" x="613.9" y="890.4" width="239.5" height="239.5"/><rect class="cls-3" x="337.5" y="890.4" width="239.5" height="239.5"/><rect class="cls-3" x="61.1" y="890.4" width="239.5" height="239.5"/><rect class="cls-3" x="890.2" y="614" width="239.5" height="239.5"/><rect class="cls-3" x="613.9" y="614" width="239.5" height="239.5"/><rect class="cls-3" x="337.5" y="614" width="239.5" height="239.5"/><rect class="cls-3" x="61.1" y="614" width="239.5" height="239.5"/><rect class="cls-3" x="890.2" y="337.6" width="239.5" height="239.5"/><rect class="cls-3" x="613.9" y="337.6" width="239.5" height="239.5"/><rect class="cls-3" x="337.5" y="337.6" width="239.5" height="239.5"/><rect class="cls-3" x="61.1" y="337.6" width="239.5" height="239.5"/><rect class="cls-3" x="890.2" y="61.3" width="239.5" height="239.5"/><rect class="cls-3" x="613.9" y="61.3" width="239.5" height="239.5"/><rect class="cls-3" x="337.5" y="61.3" width="239.5" height="239.5"/><rect class="cls-3" x="61.1" y="61.3" width="239.5" height="239.5"/></g><g id="Livello_3" data-name="Livello 3"><rect class="cls-4" x="945.5" y="945.7" width="184.3" height="184.2"/><rect class="cls-4" x="724.4" y="945.7" width="184.3" height="184.2"/><rect class="cls-4" x="503.3" y="945.7" width="184.3" height="184.2"/><rect class="cls-4" x="282.2" y="945.7" width="184.3" height="184.2"/><rect class="cls-4" x="61.1" y="945.7" width="184.3" height="184.2"/><rect class="cls-4" x="945.5" y="724.6" width="184.3" height="184.3"/><rect class="cls-4" x="724.4" y="724.6" width="184.3" height="184.3"/><rect class="cls-4" x="503.3" y="724.6" width="184.3" height="184.3"/><rect class="cls-4" x="282.2" y="724.6" width="184.3" height="184.3"/><rect class="cls-4" x="61.1" y="724.6" width="184.3" height="184.3"/><rect class="cls-4" x="945.5" y="503.5" width="184.3" height="184.3"/><rect class="cls-4" x="724.4" y="503.5" width="184.3" height="184.3"/><rect class="cls-4" x="503.3" y="503.5" width="184.3" height="184.3"/><rect class="cls-4" x="282.2" y="503.5" width="184.3" height="184.3"/><rect class="cls-4" x="61.1" y="503.5" width="184.3" height="184.3"/><rect class="cls-4" x="945.5" y="282.4" width="184.3" height="184.3"/><rect class="cls-4" x="724.4" y="282.4" width="184.3" height="184.3"/><rect class="cls-4" x="503.3" y="282.4" width="184.3" height="184.3"/><rect class="cls-4" x="282.2" y="282.4" width="184.3" height="184.3"/><rect class="cls-4" x="61.1" y="282.4" width="184.3" height="184.3"/><rect class="cls-4" x="945.5" y="61.3" width="184.3" height="184.3"/><rect class="cls-4" x="724.4" y="61.3" width="184.3" height="184.3"/><rect class="cls-4" x="503.3" y="61.3" width="184.3" height="184.3"/><rect class="cls-4" x="282.2" y="61.3" width="184.3" height="184.3"/><rect class="cls-4" x="61.1" y="61.3" width="184.3" height="184.3"/></g><g id="Livello_4" data-name="Livello 4"><rect class="cls-5" x="982.4" y="982.5" width="147.4" height="147.4"/><rect class="cls-5" x="798.1" y="982.5" width="147.4" height="147.4"/><rect class="cls-5" x="613.9" y="982.5" width="147.4" height="147.4"/><rect class="cls-5" x="429.6" y="982.5" width="147.4" height="147.4"/><rect class="cls-5" x="245.4" y="982.5" width="147.4" height="147.4"/><rect class="cls-5" x="61.1" y="982.5" width="147.4" height="147.4"/><rect class="cls-5" x="982.4" y="798.3" width="147.4" height="147.4"/><rect class="cls-5" x="798.1" y="798.3" width="147.4" height="147.4"/><rect class="cls-5" x="613.9" y="798.3" width="147.4" height="147.4"/><rect class="cls-5" x="429.6" y="798.3" width="147.4" height="147.4"/><rect class="cls-5" x="245.4" y="798.3" width="147.4" height="147.4"/><rect class="cls-5" x="61.1" y="798.3" width="147.4" height="147.4"/><rect class="cls-5" x="982.4" y="614" width="147.4" height="147.4"/><rect class="cls-5" x="798.1" y="614" width="147.4" height="147.4"/><rect class="cls-5" x="613.9" y="614" width="147.4" height="147.4"/><rect class="cls-5" x="429.6" y="614" width="147.4" height="147.4"/><rect class="cls-5" x="245.4" y="614" width="147.4" height="147.4"/><rect class="cls-5" x="61.1" y="614" width="147.4" height="147.4"/><rect class="cls-5" x="982.4" y="429.8" width="147.4" height="147.4"/><rect class="cls-5" x="798.1" y="429.8" width="147.4" height="147.4"/><rect class="cls-5" x="613.9" y="429.8" width="147.4" height="147.4"/><rect class="cls-5" x="429.6" y="429.8" width="147.4" height="147.4"/><rect class="cls-5" x="245.4" y="429.8" width="147.4" height="147.4"/><rect class="cls-5" x="61.1" y="429.8" width="147.4" height="147.4"/><rect class="cls-5" x="982.4" y="245.5" width="147.4" height="147.4"/><rect class="cls-5" x="798.1" y="245.5" width="147.4" height="147.4"/><rect class="cls-5" x="613.9" y="245.5" width="147.4" height="147.4"/><rect class="cls-5" x="429.6" y="245.5" width="147.4" height="147.4"/><rect class="cls-5" x="245.4" y="245.5" width="147.4" height="147.4"/><rect class="cls-5" x="61.1" y="245.5" width="147.4" height="147.4"/><rect class="cls-5" x="982.4" y="61.3" width="147.4" height="147.4"/><rect class="cls-5" x="798.1" y="61.3" width="147.4" height="147.4"/><rect class="cls-5" x="613.9" y="61.3" width="147.4" height="147.4"/><rect class="cls-5" x="429.6" y="61.3" width="147.4" height="147.4"/><rect class="cls-5" x="245.4" y="61.3" width="147.4" height="147.4"/><rect class="cls-5" x="61.1" y="61.3" width="147.4" height="147.4"/></g><g class="cls-6"><image class="cls-7" width="580" height="435" transform="translate(61.11 61.25)" xlink:href="../../Desktop/SVG/893345_03.jpg"/></g><g class="cls-8"><image class="cls-7" width="511" height="340" transform="translate(618.77 61.25)" xlink:href="../../Desktop/SVG/893345_05.jpg"/></g><rect class="cls-1" x="325.1" y="61.3" width="226.5" height="77.5"/><text class="cls-9" transform="translate(325.1 106.85)">Daniele</text><rect class="cls-1" x="940.5" y="450.3" width="189.3" height="538.5"/><g class="cls-7"><text class="cls-10" transform="translate(940.52 462.48)">Lorem ipsum dolor sit amet, con</text><text class="cls-10" transform="translate(1107.52 462.48)">-</text><text class="cls-10" transform="translate(940.52 486.48)">sectetuer adipiscing elit, sed diam </text><text class="cls-10" transform="translate(940.52 510.48)">nonummy nibh euismod tincidunt ut </text><text class="cls-10" transform="translate(940.52 534.48)">laoreet dolore magna aliquam erat </text><text class="cls-10" transform="translate(940.52 558.48)">volutpat. Ut wisi enim ad minim </text><text class="cls-10" transform="translate(940.52 582.48)">veniam, quis nostrud exerci tation </text><text class="cls-10" transform="translate(940.52 606.48)">ullamcorper suscipit lobortis nisl ut </text><text class="cls-10" transform="translate(940.52 630.48)">aliquip ex ea commodo consequat. </text><text class="cls-10" transform="translate(940.52 654.48)">Duis autem vel eum iriure dolor in </text><text class="cls-10" transform="translate(940.52 678.48)">hendrerit in vulputate velit esse </text><text class="cls-10" transform="translate(940.52 702.48)">molestie consequat, vel illum dolore </text><text class="cls-10" transform="translate(940.52 726.48)">eu feugiat nulla facilisis at vero eros </text><text class="cls-10" transform="translate(940.52 750.48)">et accumsan et iusto odio dignissim </text><text class="cls-10" transform="translate(940.52 774.48)">qui blandit praesent luptatum zzril </text><text class="cls-10" transform="translate(940.52 798.48)">delenit augue duis dolore te feugait </text><text class="cls-10" transform="translate(940.52 822.48)">nulla facilisi.</text><text class="cls-10" transform="translate(940.52 846.48)">Lorem ipsum dolor sit amet, cons </text><text class="cls-10" transform="translate(940.52 870.48)">ectetuer adipiscing elit, sed diam </text><text class="cls-10" transform="translate(940.52 894.48)">nonummy nibh euismod tincidunt ut </text><text class="cls-10" transform="translate(940.52 918.48)">laoreet dolore magna aliquam erat </text><text class="cls-10" transform="translate(940.52 942.48)">volutpat. Ut wisi enim ad minim </text><text class="cls-10" transform="translate(940.52 966.48)">veniam, quis nostrud exerci tatione</text><text class="cls-10" transform="translate(1121.32 966.48)">-</text></g><rect class="cls-1" x="958.6" y="272.6" width="97.5" height="19.5"/><text class="cls-11" transform="translate(958.57 279.65)"><tspan class="cls-12">T</tspan><tspan class="cls-13" x="5.47" y="0">r</tspan><tspan class="cls-14" x="8.86" y="0">a</tspan><tspan x="13.57" y="0">monto</tspan></text><text class="cls-15" transform="translate(138.19 358.19)">Lorem ipsum dolor <tspan x="-13.29" y="24">sit amet, consectetuer </tspan><tspan x="-15.42" y="48">adipiscing elit, sed diam </tspan><tspan x="-6.07" y="72">nonummy nibh </tspan><tspan x="18.6" y="96">euismod </tspan></text></svg>