<svg xmlns="http://www.w3.org/2000/svg" xmlns:xlink="http://www.w3.org/1999/xlink" viewBox="0 0 1190.6 1190.6"><defs><style>.cls-1,.cls-3,.cls-4,.cls-5{fill:none;}.cls-2{fill:aqua;}.cls-3{stroke:#192aa5;}.cls-3,.cls-4,.cls-5{stroke-miterlimit:10;}.cls-4{stroke:#40c91f;}.cls-5{stroke:#d1941c;}.cls-6{clip-path:url(#clip-path);}.cls-7{isolation:isolate;}.cls-8{clip-path:url(#clip-path-2);}.cls-9{font-size:12px;font-family:MyriadPro-Regular, Myriad Pro;}.cls-10{font-size:60px;}.cls-10,.cls-11{font-family:OpenSansCondensed-Bold, Open Sans Condensed;font-weight:700;}.cls-11{font-size:1px;}.cls-12{font-size:16px;font-family:OpenSans-Light, Open Sans;}.cls-13{font-size:10px;font-family:EBGaramond-Italic, EB Garamond;font-style:italic;}.cls-14{letter-spacing:-0.03em;}.cls-15{letter-spacing:-0.02em;}.cls-16{letter-spacing:-0.02em;}.cls-17{letter-spacing:-0.04em;}.cls-18{letter-spacing:-0.01em;}.cls-19{letter-spacing:-0.02em;}.cls-20{clip-path:url(#clip-path-3);}</style><clipPath id="clip-path"><rect class="cls-1" x="613.7" y="337.3" width="239.5" height="239.5"/></clipPath><clipPath id="clip-path-2"><circle class="cls-1" cx="295.82" cy="816.17" r="161.22"/></clipPath><clipPath id="clip-path-3"><circle class="cls-1" cx="728.26" cy="798.39" r="143.44"/></clipPath></defs><title>893389_07</title><g id="Livello_1" data-name="Livello 1"><g id="Livello_1-2" data-name="Livello 1"><g id="Livello_1-2-2" data-name="Livello 1-2"><rect class="cls-2" width="1190.6" height="1190.6"/></g></g><g id="Livello_3" data-name="Livello 3"><g id="Livello_4" data-name="Livello 4"><rect class="cls-3" x="429.5" y="429.5" width="147.4" height="147.4"/><rect class="cls-3" x="613.7" y="429.5" width="147.4" height="147.4"/><rect class="cls-3" x="429.5" y="613.7" width="147.4" height="147.4"/><rect class="cls-3" x="613.7" y="613.7" width="147.4" height="147.4"/><rect class="cls-3" x="429.5" y="798" width="147.4" height="147.4"/><rect class="cls-3" x="613.7" y="798" width="147.4" height="147.4"/><rect class="cls-3" x="429.5" y="982.2" width="147.4" height="147.4"/><rect class="cls-3" x="613.7" y="982.2" width="147.4" height="147.4"/><rect class="cls-3" x="429.5" y="60.9" width="147.4" height="147.4"/><rect class="cls-3" x="613.7" y="60.9" width="147.4" height="147.4"/><rect class="cls-3" x="429.5" y="245.2" width="147.4" height="147.4"/><rect class="cls-3" x="613.7" y="245.2" width="147.4" height="147.4"/><rect class="cls-3" x="60.9" y="429.5" width="147.4" height="147.4"/><rect class="cls-3" x="245.2" y="429.5" width="147.4" height="147.4"/><rect class="cls-3" x="60.9" y="613.7" width="147.4" height="147.4"/><rect class="cls-3" x="245.2" y="613.7" width="147.4" height="147.4"/><rect class="cls-3" x="60.9" y="798" width="147.4" height="147.4"/><rect class="cls-3" x="245.2" y="798" width="147.4" height="147.4"/><rect class="cls-3" x="60.9" y="982.2" width="147.4" height="147.4"/><rect class="cls-3" x="245.2" y="982.2" width="147.4" height="147.4"/><rect class="cls-3" x="60.9" y="60.9" width="147.4" height="147.4"/><rect class="cls-3" x="245.2" y="60.9" width="147.4" height="147.4"/><rect class="cls-3" x="60.9" y="245.2" width="147.4" height="147.4"/><rect class="cls-3" x="245.2" y="245.2" width="147.4" height="147.4"/><rect class="cls-3" x="798" y="429.5" width="147.4" height="147.4"/><rect class="cls-3" x="982.2" y="429.5" width="147.4" height="147.4"/><rect class="cls-3" x="798" y="613.7" width="147.4" height="147.4"/><rect class="cls-3" x="982.2" y="613.7" width="147.4" height="147.4"/><rect class="cls-3" x="798" y="798" width="147.4" height="147.4"/><rect class="cls-3" x="982.2" y="798" width="147.4" height="147.4"/><rect class="cls-3" x="798" y="982.2" width="147.4" height="147.4"/><rect class="cls-3" x="982.2" y="982.2" width="147.4" height="147.4"/><rect class="cls-3" x="798" y="60.9" width="147.4" height="147.4"/><rect class="cls-3" x="982.2" y="60.9" width="147.4" height="147.4"/><rect class="cls-3" x="798" y="245.2" width="147.4" height="147.4"/><rect class="cls-3" x="982.2" y="245.2" width="147.4" height="147.4"/></g></g><g id="Livello_4-2" data-name="Livello 4-2"><g id="Livello_3-2" data-name="Livello 3-2"><rect class="cls-4" x="503.1" y="503.2" width="184.3" height="184.3"/><rect class="cls-4" x="724.2" y="503.2" width="184.2" height="184.3"/><rect class="cls-4" x="60.9" y="503.2" width="184.2" height="184.3"/><rect class="cls-4" x="282" y="503.2" width="184.2" height="184.3"/><rect class="cls-4" x="945.3" y="503.2" width="184.2" height="184.3"/><rect class="cls-4" x="503.1" y="282.1" width="184.3" height="184.2"/><rect class="cls-4" x="724.2" y="282.1" width="184.2" height="184.2"/><rect class="cls-4" x="60.9" y="282.1" width="184.2" height="184.2"/><rect class="cls-4" x="282" y="282.1" width="184.2" height="184.2"/><rect class="cls-4" x="945.3" y="282.1" width="184.2" height="184.2"/><rect class="cls-4" x="503.1" y="945.4" width="184.3" height="184.2"/><rect class="cls-4" x="724.2" y="945.4" width="184.2" height="184.2"/><rect class="cls-4" x="60.9" y="945.4" width="184.2" height="184.2"/><rect class="cls-4" x="282" y="945.4" width="184.2" height="184.2"/><rect class="cls-4" x="945.3" y="945.4" width="184.2" height="184.2"/><rect class="cls-4" x="503.1" y="724.3" width="184.3" height="184.2"/><rect class="cls-4" x="724.2" y="724.3" width="184.2" height="184.2"/><rect class="cls-4" x="60.9" y="724.3" width="184.2" height="184.2"/><rect class="cls-4" x="282" y="724.3" width="184.2" height="184.2"/><rect class="cls-4" x="945.3" y="724.3" width="184.2" height="184.2"/><rect class="cls-4" x="503.1" y="60.9" width="184.3" height="184.2"/><rect class="cls-4" x="724.2" y="60.9" width="184.2" height="184.2"/><rect class="cls-4" x="60.9" y="60.9" width="184.2" height="184.2"/><rect class="cls-4" x="282" y="60.9" width="184.2" height="184.2"/><rect class="cls-4" x="945.3" y="60.9" width="184.2" height="184.2"/></g></g><g id="Livello_5" data-name="Livello 5"><rect class="cls-5" x="337.3" y="337.3" width="239.5" height="239.5"/><g class="cls-6"><image class="cls-7" width="2593" height="3874" transform="translate(212.73 14.2) scale(0.3)" xlink:href="../893389_03.jpg"/></g><rect class="cls-5" x="337.3" y="60.9" width="239.5" height="239.5"/><rect class="cls-5" x="613.7" y="60.9" width="239.5" height="239.5"/><rect class="cls-5" x="337.3" y="613.7" width="239.5" height="239.5"/><rect class="cls-5" x="613.7" y="613.7" width="239.5" height="239.5"/><rect class="cls-5" x="337.3" y="890.1" width="239.5" height="239.5"/><rect class="cls-5" x="60.9" y="337.3" width="239.5" height="239.5"/><rect class="cls-5" x="60.9" y="60.9" width="239.5" height="239.5"/><rect class="cls-5" x="60.9" y="613.7" width="239.5" height="239.5"/><rect class="cls-5" x="60.9" y="890.1" width="239.5" height="239.5"/><rect class="cls-5" x="613.7" y="890.1" width="239.5" height="239.5"/><rect class="cls-5" x="890.1" y="337.3" width="239.5" height="239.5"/><rect class="cls-5" x="890.1" y="60.9" width="239.5" height="239.5"/><rect class="cls-5" x="890.1" y="613.7" width="239.5" height="239.5"/><rect class="cls-5" x="890.1" y="890.1" width="239.5" height="239.5"/></g><g id="Livello_7" data-name="Livello 7"><circle class="cls-1" cx="291.54" cy="784.86" r="165.51"/></g><text class="cls-9" transform="translate(50.94 54.97)"> </text></g><g id="Livello_4-2-2" data-name="Livello 4"><text class="cls-10" transform="translate(60.9 112.45) scale(0.84 1)">Incastro di linee</text><text class="cls-11" transform="translate(154.85 300.4)">Lorem ipsum</text><text class="cls-11" transform="translate(337.3 355.77)">Lorem ipsum</text><text class="cls-12" transform="translate(60.9 220.46)">Lorem ipsum dolor sit amet, consectetuer adipiscing elit, sed <tspan x="0" y="24">diam nonummy nibh euismod tincidunt ut laoreet dolore </tspan><tspan x="0" y="48">magna aliquam erat volutpat. Ut wisi enim ad minim veniam, </tspan><tspan x="0" y="72">quis nostrud exerci tation ullamcorper suscipit lobortis nisl ut </tspan><tspan x="0" y="96">aliquip ex ea commodo consequat. Duis autem vel eum iriure </tspan><tspan x="0" y="120">dolor in hendrerit in vulputate velit esse molestie consequat, </tspan><tspan x="0" y="144">vel illum dolore eu feugiat nulla facilisis at vero eros et accu</tspan><tspan x="423.32" y="144">-</tspan><tspan x="0" y="168">msan et iusto odio dignissim qui blandit praesent luptatum </tspan><tspan x="0" y="192">zzril delenit augue duis dolore te feugait nulla facilisi.</tspan><tspan x="0" y="216">Lorem ipsum dolor sit amet, cons ectetuer adipiscing elit, sed </tspan><tspan x="0" y="240">diam nonummy nibh euismod tincidunt ut laoreet dolore </tspan><tspan x="0" y="264">magna aliquam erat volutpat. Ut wisi enim ad minim veniam, </tspan><tspan x="0" y="288">quis nostrud exerci tation ullamcorper suscipit lobortis nisl ut </tspan><tspan x="0" y="312">aliquip ex ea commodo consequat.</tspan><tspan x="0" y="336">Lorem ipsum dolor sit amet, consectetuer adipiscing elit, sed </tspan><tspan x="0" y="360">diam nonummy nibh euismod tincidunt ut laoreet dolore </tspan><tspan x="0" y="384">magna aliquam erat volutpat. Ut wisi enim ad minim veniam, </tspan><tspan x="0" y="408">quis nostrud exerci tation ullamcorper suscipit lobortis nisl ut </tspan><tspan x="0" y="432">aliquip ex ea commodo consequat. Duis autem vel eum iriure </tspan><tspan x="0" y="456">dolor in hendrerit in vulputate velit esse molestie consequat, </tspan><tspan x="0" y="480">vel illum dolore eu feugiat nulla facilisis at vero eros et accu</tspan><tspan x="423.32" y="480">-</tspan><tspan x="0" y="504">msan et iusto odio dignissim qui blandit praesent luptatum </tspan><tspan x="0" y="528">zzril delenit augue duis </tspan></text><text class="cls-13" transform="translate(613.7 587.28)">La magia d<tspan class="cls-14" x="44.7" y="0">e</tspan><tspan x="47.86" y="0">l F</tspan><tspan class="cls-15" x="57.81" y="0">u</tspan><tspan x="62.7" y="0">oris</tspan><tspan class="cls-16" x="75.99" y="0">a</tspan><tspan x="80.7" y="0">lone t</tspan><tspan class="cls-17" x="100.96" y="0">r</tspan><tspan x="104.35" y="0">a l</tspan><tspan class="cls-18" x="114.12" y="0">i</tspan><tspan x="116.91" y="0">nee e </tspan><tspan class="cls-19" x="136.41" y="0">c</tspan><tspan class="cls-15" x="139.39" y="0">o</tspan><tspan x="142.99" y="0">lori. </tspan></text><text class="cls-12" transform="translate(916.72 907.86)">Lorem ipsum dolor <tspan x="-22.49" y="24">sit amet, consectetuer </tspan><tspan x="-35.69" y="48">adipiscing elit, sed diam no</tspan><tspan x="157.3" y="48">-</tspan><tspan x="-42.81" y="72">nummy nibh euismod tincidunt </tspan><tspan x="-44.51" y="96">ut laoreet dolore magna ali</tspan><tspan x="149.02" y="96">-</tspan><tspan x="-39.97" y="120">quam erat volutpat. Ut wisi </tspan><tspan x="-30.07" y="144">enim ad minim veniam, quis </tspan><tspan x="-12.97" y="168">nostrud exerci tation </tspan><tspan x="17.78" y="192">ullamcorper </tspan></text></g><g id="Livello_3-2-2" data-name="Livello 3"><g class="cls-20"><image width="3872" height="2592" transform="translate(1015.49 654.67) rotate(90) scale(0.17)" xlink:href="../../../../../../Volumes/AGO 2018/foto ele/DSC_0021.JPG"/></g></g></svg>