<svg id="Livello_1" data-name="Livello 1" xmlns="http://www.w3.org/2000/svg" xmlns:xlink="http://www.w3.org/1999/xlink" viewBox="0 0 1190.6 1190.6"><defs><style>.cls-1,.cls-3,.cls-4,.cls-5{fill:none;}.cls-2{fill:#ea5b0c;}.cls-2,.cls-3{stroke:#000;}.cls-2,.cls-3,.cls-4,.cls-5{stroke-miterlimit:10;}.cls-4{stroke:#2662db;}.cls-5{stroke:#fff;}.cls-6{clip-path:url(#clip-path);}</style><clipPath id="clip-path"><rect class="cls-1" x="890.19" y="60.48" width="239.53" height="239.53"/></clipPath></defs><title>Tavola disegno 1</title><rect class="cls-2" width="1190.6" height="1190.6"/><rect class="cls-3" x="890.23" y="889.65" width="239.53" height="239.53"/><rect class="cls-3" x="613.85" y="889.65" width="239.53" height="239.53"/><rect class="cls-3" x="337.47" y="889.65" width="239.53" height="239.53"/><rect class="cls-3" x="61.09" y="889.65" width="239.53" height="239.53"/><rect class="cls-3" x="890.23" y="613.28" width="239.53" height="239.53"/><rect class="cls-3" x="613.85" y="613.28" width="239.53" height="239.53"/><rect class="cls-3" x="337.47" y="613.28" width="239.53" height="239.53"/><rect class="cls-3" x="61.09" y="613.28" width="239.53" height="239.53"/><rect class="cls-3" x="890.23" y="336.9" width="239.53" height="239.53"/><rect class="cls-3" x="613.85" y="336.9" width="239.53" height="239.53"/><rect class="cls-3" x="337.47" y="336.9" width="239.53" height="239.53"/><rect class="cls-3" x="61.09" y="336.9" width="239.53" height="239.53"/><rect class="cls-3" x="890.23" y="60.52" width="239.53" height="239.53"/><rect class="cls-3" x="613.85" y="60.52" width="239.53" height="239.53"/><rect class="cls-3" x="337.47" y="60.52" width="239.53" height="239.53"/><rect class="cls-3" x="61.09" y="60.52" width="239.53" height="239.53"/><rect class="cls-4" x="945.5" y="944.93" width="184.25" height="184.25"/><rect class="cls-4" x="724.4" y="944.93" width="184.25" height="184.25"/><rect class="cls-4" x="503.3" y="944.93" width="184.25" height="184.25"/><rect class="cls-4" x="282.2" y="944.93" width="184.25" height="184.25"/><rect class="cls-4" x="61.09" y="944.93" width="184.25" height="184.25"/><rect class="cls-4" x="945.5" y="723.83" width="184.25" height="184.25"/><rect class="cls-4" x="724.4" y="723.83" width="184.25" height="184.25"/><rect class="cls-4" x="503.3" y="723.83" width="184.25" height="184.25"/><rect class="cls-4" x="282.2" y="723.83" width="184.25" height="184.25"/><rect class="cls-4" x="61.09" y="723.83" width="184.25" height="184.25"/><rect class="cls-4" x="945.5" y="502.73" width="184.25" height="184.25"/><rect class="cls-4" x="724.4" y="502.73" width="184.25" height="184.25"/><rect class="cls-4" x="503.3" y="502.73" width="184.25" height="184.25"/><rect class="cls-4" x="282.2" y="502.73" width="184.25" height="184.25"/><rect class="cls-4" x="61.09" y="502.73" width="184.25" height="184.25"/><rect class="cls-4" x="945.5" y="281.62" width="184.25" height="184.25"/><rect class="cls-4" x="724.4" y="281.62" width="184.25" height="184.25"/><rect class="cls-4" x="503.3" y="281.62" width="184.25" height="184.25"/><rect class="cls-4" x="282.2" y="281.62" width="184.25" height="184.25"/><rect class="cls-4" x="61.09" y="281.62" width="184.25" height="184.25"/><rect class="cls-4" x="945.5" y="60.52" width="184.25" height="184.25"/><rect class="cls-4" x="724.4" y="60.52" width="184.25" height="184.25"/><rect class="cls-4" x="503.3" y="60.52" width="184.25" height="184.25"/><rect class="cls-4" x="282.2" y="60.52" width="184.25" height="184.25"/><rect class="cls-4" x="61.09" y="60.52" width="184.25" height="184.25"/><rect class="cls-5" x="982.35" y="981.78" width="147.4" height="147.4"/><rect class="cls-5" x="798.1" y="981.78" width="147.4" height="147.4"/><rect class="cls-5" x="613.85" y="981.78" width="147.4" height="147.4"/><rect class="cls-5" x="429.6" y="981.78" width="147.4" height="147.4"/><rect class="cls-5" x="245.35" y="981.78" width="147.4" height="147.4"/><rect class="cls-5" x="61.09" y="981.78" width="147.4" height="147.4"/><rect class="cls-5" x="982.35" y="797.53" width="147.4" height="147.4"/><rect class="cls-5" x="798.1" y="797.53" width="147.4" height="147.4"/><rect class="cls-5" x="613.85" y="797.53" width="147.4" height="147.4"/><rect class="cls-5" x="429.6" y="797.53" width="147.4" height="147.4"/><rect class="cls-5" x="245.35" y="797.53" width="147.4" height="147.4"/><rect class="cls-5" x="61.09" y="797.53" width="147.4" height="147.4"/><rect class="cls-5" x="982.35" y="613.28" width="147.4" height="147.4"/><rect class="cls-5" x="798.1" y="613.28" width="147.4" height="147.4"/><rect class="cls-5" x="613.85" y="613.28" width="147.4" height="147.4"/><rect class="cls-5" x="429.6" y="613.28" width="147.4" height="147.4"/><rect class="cls-5" x="245.35" y="613.28" width="147.4" height="147.4"/><rect class="cls-5" x="61.09" y="613.28" width="147.4" height="147.4"/><rect class="cls-5" x="982.35" y="429.03" width="147.4" height="147.4"/><rect class="cls-5" x="798.1" y="429.03" width="147.4" height="147.4"/><rect class="cls-5" x="613.85" y="429.03" width="147.4" height="147.4"/><rect class="cls-5" x="429.6" y="429.03" width="147.4" height="147.4"/><rect class="cls-5" x="245.35" y="429.03" width="147.4" height="147.4"/><rect class="cls-5" x="61.09" y="429.03" width="147.4" height="147.4"/><rect class="cls-5" x="982.35" y="244.77" width="147.4" height="147.4"/><rect class="cls-5" x="798.1" y="244.77" width="147.4" height="147.4"/><rect class="cls-5" x="613.85" y="244.77" width="147.4" height="147.4"/><rect class="cls-5" x="429.6" y="244.77" width="147.4" height="147.4"/><rect class="cls-5" x="245.35" y="244.77" width="147.4" height="147.4"/><rect class="cls-5" x="61.09" y="244.77" width="147.4" height="147.4"/><rect class="cls-5" x="982.35" y="60.52" width="147.4" height="147.4"/><rect class="cls-5" x="798.1" y="60.52" width="147.4" height="147.4"/><rect class="cls-5" x="613.85" y="60.52" width="147.4" height="147.4"/><rect class="cls-5" x="429.6" y="60.52" width="147.4" height="147.4"/><rect class="cls-5" x="245.35" y="60.52" width="147.4" height="147.4"/><rect class="cls-5" x="61.09" y="60.52" width="147.4" height="147.4"/><g class="cls-6"><image width="580" height="435" transform="translate(549.64 59.33)" xlink:href="893345_03.jpg"/></g></svg>