<?xml version="1.0" encoding="utf-8"?>
<!-- Generator: Adobe Illustrator 22.1.0, SVG Export Plug-In . SVG Version: 6.00 Build 0)  -->
<svg version="1.1" xmlns="http://www.w3.org/2000/svg" xmlns:xlink="http://www.w3.org/1999/xlink" x="0px" y="0px"
	 viewBox="0 0 1190.6 1190.6" style="enable-background:new 0 0 1190.6 1190.6;" xml:space="preserve">
<style type="text/css">
	.st0{fill:#3C7699;}
	.st1{fill:none;stroke:#FFFFFF;stroke-miterlimit:10;}
	.st2{fill:none;stroke:#EC2224;stroke-miterlimit:10;}
	.st3{clip-path:url(#SVGID_2_);}
	.st4{fill:none;stroke:#6ABD45;stroke-miterlimit:10;}
</style>
<g id="Layer_3_1_">
	<g id="_1_griglia">
		<rect x="-0.9" y="0" class="st0" width="1190.6" height="1190.6"/>
		<rect x="61.4" y="60.9" class="st1" width="239.5" height="239.5"/>
		<rect x="337.3" y="60.9" class="st1" width="239.5" height="239.5"/>
		<rect x="613.7" y="60.9" class="st1" width="239.5" height="239.5"/>
		<rect x="889.7" y="60.9" class="st1" width="239.5" height="239.5"/>
		<rect x="61.4" y="337.3" class="st1" width="239.5" height="239.5"/>
		<rect x="337.3" y="337.3" class="st1" width="239.5" height="239.5"/>
		<rect x="613.7" y="337.3" class="st1" width="239.5" height="239.5"/>
		<rect x="889.7" y="337.3" class="st1" width="239.5" height="239.5"/>
		<rect x="61.4" y="613.7" class="st1" width="239.5" height="239.5"/>
		<rect x="337.3" y="613.7" class="st1" width="239.5" height="239.5"/>
		<rect x="613.7" y="613.7" class="st1" width="239.5" height="239.5"/>
		<rect x="889.7" y="613.7" class="st1" width="239.5" height="239.5"/>
		<rect x="61.4" y="890.1" class="st1" width="239.5" height="239.5"/>
		<rect x="337.3" y="890.1" class="st1" width="239.5" height="239.5"/>
		<rect x="613.7" y="890.1" class="st1" width="239.5" height="239.5"/>
		<rect x="889.7" y="890.1" class="st1" width="239.5" height="239.5"/>
	</g>
</g>
<g id="Layer_2">
</g>
<g id="Layer_1">
	<title>893307_03</title>
	<rect x="61.9" y="61.2" class="st2" width="184.2" height="184.2"/>
	<rect x="282" y="61.2" class="st2" width="184.2" height="184.2"/>
	<rect x="502.7" y="61.2" class="st2" width="184.2" height="184.2"/>
	<rect x="722.8" y="61.2" class="st2" width="184.2" height="184.2"/>
	<rect x="944.4" y="61.2" class="st2" width="184.2" height="184.2"/>
	<rect x="61.9" y="282.3" class="st2" width="184.2" height="184.2"/>
	<rect x="282" y="282.3" class="st2" width="184.2" height="184.2"/>
	<g>
		<defs>
			<rect id="SVGID_1_" x="502.7" y="282.3" width="184.2" height="184.2"/>
		</defs>
		<clipPath id="SVGID_2_">
			<use xlink:href="#SVGID_1_"  style="overflow:visible;"/>
		</clipPath>
		<g id="Layer_4" class="st3">
			
				<image style="overflow:visible;enable-background:new    ;" width="499" height="750" xlink:href="893307_03.jpg"  transform="matrix(1 0 0 1 344.88 208.35)">
			</image>
		</g>
	</g>
	<rect x="722.8" y="282.3" class="st2" width="184.2" height="184.2"/>
	<rect x="944.4" y="282.3" class="st2" width="184.2" height="184.2"/>
	<rect x="61.9" y="503.4" class="st2" width="184.2" height="184.2"/>
	<rect x="282" y="503.4" class="st2" width="184.2" height="184.2"/>
	<rect x="502.7" y="503.4" class="st2" width="184.2" height="184.2"/>
	<rect x="722.8" y="503.4" class="st2" width="184.2" height="184.2"/>
	<rect x="944.4" y="503.4" class="st2" width="184.2" height="184.2"/>
	<rect x="61.9" y="724.5" class="st2" width="184.2" height="184.2"/>
	<rect x="282" y="724.5" class="st2" width="184.2" height="184.2"/>
	<rect x="502.7" y="724.5" class="st2" width="184.2" height="184.2"/>
	<rect x="722.8" y="724.5" class="st2" width="184.2" height="184.2"/>
	<rect x="944.4" y="724.5" class="st2" width="184.2" height="184.2"/>
	<rect x="61.5" y="945.6" class="st2" width="184.2" height="184.3"/>
	<rect x="281.6" y="945.6" class="st2" width="184.2" height="184.3"/>
	<rect x="502.2" y="945.6" class="st2" width="184.2" height="184.3"/>
	<rect x="722.3" y="945.6" class="st2" width="184.2" height="184.3"/>
	<rect x="943.9" y="945.6" class="st2" width="184.2" height="184.3"/>
	<g id="Layer_3">
		<rect x="61.4" y="60.9" class="st4" width="147.4" height="147.4"/>
		<rect x="245.1" y="60.9" class="st4" width="147.4" height="147.4"/>
		<rect x="429.7" y="60.9" class="st4" width="147.4" height="147.4"/>
		<rect x="613.5" y="60.9" class="st4" width="147.4" height="147.4"/>
		<rect x="797.7" y="60.9" class="st4" width="147.4" height="147.4"/>
		<rect x="981.5" y="60.9" class="st4" width="147.4" height="147.4"/>
		<rect x="61.4" y="245.2" class="st4" width="147.4" height="147.4"/>
		<rect x="245.1" y="245.2" class="st4" width="147.4" height="147.4"/>
		<rect x="429.7" y="245.2" class="st4" width="147.4" height="147.4"/>
		<rect x="613.5" y="245.2" class="st4" width="147.4" height="147.4"/>
		<rect x="797.7" y="245.2" class="st4" width="147.4" height="147.4"/>
		<rect x="981.5" y="245.2" class="st4" width="147.4" height="147.4"/>
		<rect x="61.4" y="429.5" class="st4" width="147.4" height="147.4"/>
		<rect x="245.1" y="429.4" class="st4" width="147.4" height="147.4"/>
		<rect x="429.7" y="429.5" class="st4" width="147.4" height="147.4"/>
		<rect x="613.5" y="429.4" class="st4" width="147.4" height="147.4"/>
		<rect x="797.7" y="429.5" class="st4" width="147.4" height="147.4"/>
		<rect x="981.5" y="429.4" class="st4" width="147.4" height="147.4"/>
		<rect x="61.4" y="613.7" class="st4" width="147.4" height="147.4"/>
		<rect x="245.1" y="613.7" class="st4" width="147.4" height="147.4"/>
		<rect x="429.7" y="613.7" class="st4" width="147.4" height="147.4"/>
		<rect x="613.5" y="613.7" class="st4" width="147.4" height="147.4"/>
		<rect x="797.7" y="613.7" class="st4" width="147.4" height="147.4"/>
		<rect x="981.5" y="613.7" class="st4" width="147.4" height="147.4"/>
		<rect x="61.4" y="798" class="st4" width="147.4" height="147.4"/>
		<rect x="245.1" y="797.9" class="st4" width="147.4" height="147.4"/>
		<rect x="429.7" y="798" class="st4" width="147.4" height="147.4"/>
		<rect x="613.5" y="797.9" class="st4" width="147.4" height="147.4"/>
		<rect x="797.7" y="798" class="st4" width="147.4" height="147.4"/>
		<rect x="981.5" y="797.9" class="st4" width="147.4" height="147.4"/>
		<rect x="61.4" y="982.2" class="st4" width="147.4" height="147.4"/>
		<rect x="245.1" y="982.2" class="st4" width="147.4" height="147.4"/>
		<rect x="429.7" y="982.2" class="st4" width="147.4" height="147.4"/>
		<rect x="613.5" y="982.2" class="st4" width="147.4" height="147.4"/>
		<rect x="797.7" y="982.2" class="st4" width="147.4" height="147.4"/>
		<rect x="981.5" y="982.2" class="st4" width="147.4" height="147.4"/>
	</g>
</g>
</svg>
