<?xml version="1.0" encoding="utf-8"?>
<!-- Generator: Adobe Illustrator 22.0.1, SVG Export Plug-In . SVG Version: 6.00 Build 0)  -->
<svg version="1.1" id="Livello_1" xmlns="http://www.w3.org/2000/svg" xmlns:xlink="http://www.w3.org/1999/xlink" x="0px" y="0px"
	 viewBox="0 0 1190.6 1190.6" style="enable-background:new 0 0 1190.6 1190.6;" xml:space="preserve">
<style type="text/css">
	.st0{fill:#EC6518;stroke:#1D1D1B;stroke-miterlimit:10;}
	.st1{fill:none;stroke:#000000;stroke-miterlimit:10;}
	.st2{fill:none;stroke:#F6E81D;stroke-miterlimit:10;}
	.st3{fill:none;stroke:#2D4E9D;stroke-miterlimit:10;}
	.st4{clip-path:url(#SVGID_2_);}
	.st5{clip-path:url(#SVGID_4_);}
	.st6{fill:none;}
	.st7{font-family:'OpenSansCondensed-Bold';}
	.st8{font-size:60px;}
	.st9{font-family:'OpenSansCondensed-Light';}
	.st10{font-size:16px;}
	.st11{font-family:'EBGaramond-Italic';}
	.st12{font-size:10px;}
</style>
<title>Tavola disegno 1</title>
<g id="Livello_1-2">
	<rect y="0" class="st0" width="1190.6" height="1190.6"/>
</g>
<g id="Livello_2_1_">
	<rect x="890.2" y="890.4" class="st1" width="239.5" height="239.5"/>
	<rect x="613.9" y="890.4" class="st1" width="239.5" height="239.5"/>
	<rect x="337.5" y="890.4" class="st1" width="239.5" height="239.5"/>
	<rect x="61.1" y="890.4" class="st1" width="239.5" height="239.5"/>
	<rect x="890.2" y="614" class="st1" width="239.5" height="239.5"/>
	<rect x="613.9" y="614" class="st1" width="239.5" height="239.5"/>
	<rect x="337.5" y="614" class="st1" width="239.5" height="239.5"/>
	<rect x="61.1" y="614" class="st1" width="239.5" height="239.5"/>
	<rect x="890.2" y="337.6" class="st1" width="239.5" height="239.5"/>
	<rect x="613.9" y="337.6" class="st1" width="239.5" height="239.5"/>
	<rect x="337.5" y="337.6" class="st1" width="239.5" height="239.5"/>
	<rect x="61.1" y="337.6" class="st1" width="239.5" height="239.5"/>
	<rect x="890.2" y="61.3" class="st1" width="239.5" height="239.5"/>
	<rect x="613.9" y="61.3" class="st1" width="239.5" height="239.5"/>
	<rect x="337.5" y="61.3" class="st1" width="239.5" height="239.5"/>
	<rect x="61.1" y="61.3" class="st1" width="239.5" height="239.5"/>
</g>
<g id="Livello_3">
	<rect x="945.5" y="945.7" class="st2" width="184.3" height="184.2"/>
	<rect x="724.4" y="945.7" class="st2" width="184.3" height="184.2"/>
	<rect x="503.3" y="945.7" class="st2" width="184.3" height="184.2"/>
	<rect x="282.2" y="945.7" class="st2" width="184.3" height="184.2"/>
	<rect x="61.1" y="945.7" class="st2" width="184.3" height="184.2"/>
	<rect x="945.5" y="724.6" class="st2" width="184.3" height="184.3"/>
	<rect x="724.4" y="724.6" class="st2" width="184.3" height="184.3"/>
	<rect x="503.3" y="724.6" class="st2" width="184.3" height="184.3"/>
	<rect x="282.2" y="724.6" class="st2" width="184.3" height="184.3"/>
	<rect x="61.1" y="724.6" class="st2" width="184.3" height="184.3"/>
	<rect x="945.5" y="503.5" class="st2" width="184.3" height="184.3"/>
	<rect x="724.4" y="503.5" class="st2" width="184.3" height="184.3"/>
	<rect x="503.3" y="503.5" class="st2" width="184.3" height="184.3"/>
	<rect x="282.2" y="503.5" class="st2" width="184.3" height="184.3"/>
	<rect x="61.1" y="503.5" class="st2" width="184.3" height="184.3"/>
	<rect x="945.5" y="282.4" class="st2" width="184.3" height="184.3"/>
	<rect x="724.4" y="282.4" class="st2" width="184.3" height="184.3"/>
	<rect x="503.3" y="282.4" class="st2" width="184.3" height="184.3"/>
	<rect x="282.2" y="282.4" class="st2" width="184.3" height="184.3"/>
	<rect x="61.1" y="282.4" class="st2" width="184.3" height="184.3"/>
	<rect x="945.5" y="61.3" class="st2" width="184.3" height="184.3"/>
	<rect x="724.4" y="61.3" class="st2" width="184.3" height="184.3"/>
	<rect x="503.3" y="61.3" class="st2" width="184.3" height="184.3"/>
	<rect x="282.2" y="61.3" class="st2" width="184.3" height="184.3"/>
	<rect x="61.1" y="61.3" class="st2" width="184.3" height="184.3"/>
</g>
<g id="Livello_4">
	<rect x="982.4" y="982.5" class="st3" width="147.4" height="147.4"/>
	<rect x="798.1" y="982.5" class="st3" width="147.4" height="147.4"/>
	<rect x="613.9" y="982.5" class="st3" width="147.4" height="147.4"/>
	<rect x="429.6" y="982.5" class="st3" width="147.4" height="147.4"/>
	<rect x="245.4" y="982.5" class="st3" width="147.4" height="147.4"/>
	<rect x="61.1" y="982.5" class="st3" width="147.4" height="147.4"/>
	<rect x="982.4" y="798.3" class="st3" width="147.4" height="147.4"/>
	<rect x="798.1" y="798.3" class="st3" width="147.4" height="147.4"/>
	<rect x="613.9" y="798.3" class="st3" width="147.4" height="147.4"/>
	<rect x="429.6" y="798.3" class="st3" width="147.4" height="147.4"/>
	<rect x="245.4" y="798.3" class="st3" width="147.4" height="147.4"/>
	<rect x="61.1" y="798.3" class="st3" width="147.4" height="147.4"/>
	<rect x="982.4" y="614" class="st3" width="147.4" height="147.4"/>
	<rect x="798.1" y="614" class="st3" width="147.4" height="147.4"/>
	<rect x="613.9" y="614" class="st3" width="147.4" height="147.4"/>
	<rect x="429.6" y="614" class="st3" width="147.4" height="147.4"/>
	<rect x="245.4" y="614" class="st3" width="147.4" height="147.4"/>
	<rect x="61.1" y="614" class="st3" width="147.4" height="147.4"/>
	<rect x="982.4" y="429.8" class="st3" width="147.4" height="147.4"/>
	<rect x="798.1" y="429.8" class="st3" width="147.4" height="147.4"/>
	<rect x="613.9" y="429.8" class="st3" width="147.4" height="147.4"/>
	<rect x="429.6" y="429.8" class="st3" width="147.4" height="147.4"/>
	<rect x="245.4" y="429.8" class="st3" width="147.4" height="147.4"/>
	<rect x="61.1" y="429.8" class="st3" width="147.4" height="147.4"/>
	<rect x="982.4" y="245.5" class="st3" width="147.4" height="147.4"/>
	<rect x="798.1" y="245.5" class="st3" width="147.4" height="147.4"/>
	<rect x="613.9" y="245.5" class="st3" width="147.4" height="147.4"/>
	<rect x="429.6" y="245.5" class="st3" width="147.4" height="147.4"/>
	<rect x="245.4" y="245.5" class="st3" width="147.4" height="147.4"/>
	<rect x="61.1" y="245.5" class="st3" width="147.4" height="147.4"/>
	<rect x="982.4" y="61.3" class="st3" width="147.4" height="147.4"/>
	<rect x="798.1" y="61.3" class="st3" width="147.4" height="147.4"/>
	<rect x="613.9" y="61.3" class="st3" width="147.4" height="147.4"/>
	<rect x="429.6" y="61.3" class="st3" width="147.4" height="147.4"/>
	<rect x="245.4" y="61.3" class="st3" width="147.4" height="147.4"/>
	<rect x="61.1" y="61.3" class="st3" width="147.4" height="147.4"/>
</g>
<g>
	<defs>
		<rect id="SVGID_1_" x="61.1" y="61.3" width="239.5" height="239.5"/>
	</defs>
	<clipPath id="SVGID_2_">
		<use xlink:href="#SVGID_1_"  style="overflow:visible;"/>
	</clipPath>
	<g class="st4">
		<image style="overflow:visible;" width="580" height="435" xlink:href="893345_03.jpg"  transform="matrix(1 0 0 1 61.11 61.25)">
		</image>
	</g>
</g>
<g>
	<defs>
		<circle id="SVGID_3_" cx="924.3" cy="208.7" r="70.9"/>
	</defs>
	<clipPath id="SVGID_4_">
		<use xlink:href="#SVGID_3_"  style="overflow:visible;"/>
	</clipPath>
	<g class="st5">
		
			<image style="overflow:visible;" width="511" height="340" xlink:href="893345_05.jpg"  transform="matrix(1 0 0 1 618.77 61.25)">
		</image>
	</g>
</g>
<rect x="325.1" y="61.3" class="st6" width="226.5" height="77.5"/>
<text transform="matrix(1 0 0 1 325.1041 106.8498)" class="st7 st8">Daniele</text>
<rect x="940.5" y="450.3" class="st6" width="189.3" height="538.5"/>
<text transform="matrix(1 0 0 1 940.5193 462.4839)"><tspan x="0" y="0" class="st9 st10">Lorem ipsum dolor sit amet, con</tspan><tspan x="167" y="0" class="st9 st10">-</tspan><tspan x="0" y="24" class="st9 st10">sectetuer adipiscing elit, sed diam </tspan><tspan x="0" y="48" class="st9 st10">nonummy nibh euismod tincidunt ut </tspan><tspan x="0" y="72" class="st9 st10">laoreet dolore magna aliquam erat </tspan><tspan x="0" y="96" class="st9 st10">volutpat. Ut wisi enim ad minim </tspan><tspan x="0" y="120" class="st9 st10">veniam, quis nostrud exerci tation </tspan><tspan x="0" y="144" class="st9 st10">ullamcorper suscipit lobortis nisl ut </tspan><tspan x="0" y="168" class="st9 st10">aliquip ex ea commodo consequat. </tspan><tspan x="0" y="192" class="st9 st10">Duis autem vel eum iriure dolor in </tspan><tspan x="0" y="216" class="st9 st10">hendrerit in vulputate velit esse </tspan><tspan x="0" y="240" class="st9 st10">molestie consequat, vel illum dolore </tspan><tspan x="0" y="264" class="st9 st10">eu feugiat nulla facilisis at vero eros </tspan><tspan x="0" y="288" class="st9 st10">et accumsan et iusto odio dignissim </tspan><tspan x="0" y="312" class="st9 st10">qui blandit praesent luptatum zzril </tspan><tspan x="0" y="336" class="st9 st10">delenit augue duis dolore te feugait </tspan><tspan x="0" y="360" class="st9 st10">nulla facilisi.</tspan><tspan x="0" y="384" class="st9 st10">Lorem ipsum dolor sit amet, cons </tspan><tspan x="0" y="408" class="st9 st10">ectetuer adipiscing elit, sed diam </tspan><tspan x="0" y="432" class="st9 st10">nonummy nibh euismod tincidunt ut </tspan><tspan x="0" y="456" class="st9 st10">laoreet dolore magna aliquam erat </tspan><tspan x="0" y="480" class="st9 st10">volutpat. Ut wisi enim ad minim </tspan><tspan x="0" y="504" class="st9 st10">veniam, quis nostrud exerci tatione</tspan><tspan x="180.8" y="504" class="st9 st10">-</tspan></text>
<rect x="958.6" y="272.6" class="st6" width="97.5" height="19.5"/>
<text transform="matrix(1 0 0 1 958.5749 279.6503)" class="st11 st12">Tramonto</text>
</svg>
