<svg xmlns="http://www.w3.org/2000/svg" xmlns:xlink="http://www.w3.org/1999/xlink" viewBox="0 0 1190.6 1190.6"><defs><style>.cls-1,.cls-18,.cls-19,.cls-2,.cls-20,.cls-21,.cls-22,.cls-23,.cls-26,.cls-27,.cls-4,.cls-5,.cls-6{fill:none;}.cls-17,.cls-2{clip-path:url(#clip-path);}.cls-3{fill:#ec6518;stroke:#1d1d1b;}.cls-27,.cls-3,.cls-32,.cls-4,.cls-5,.cls-6{stroke-miterlimit:10;}.cls-18,.cls-19,.cls-22,.cls-26,.cls-27,.cls-32,.cls-4{stroke:#000;}.cls-5{stroke:#f6e81d;}.cls-6{stroke:#2d4e9d;}.cls-7{clip-path:url(#clip-path-62);}.cls-10,.cls-11,.cls-12,.cls-13,.cls-14,.cls-15,.cls-29,.cls-30,.cls-31,.cls-8{isolation:isolate;}.cls-9{clip-path:url(#clip-path-63);}.cls-10{font-size:60px;font-family:OpenSansCondensed-Bold, Open Sans Condensed;font-weight:700;}.cls-11{font-size:16px;font-family:OpenSansCondensed-Light, Open Sans Condensed;}.cls-12,.cls-13,.cls-14,.cls-15{font-size:10px;font-family:EBGaramond-Italic, EB Garamond;font-style:italic;}.cls-12{letter-spacing:-0.07em;}.cls-13{letter-spacing:-0.04em;}.cls-14{letter-spacing:-0.02em;}.cls-16{clip-path:url(#clip-path-64);}.cls-18,.cls-19,.cls-20,.cls-21,.cls-22,.cls-23,.cls-26{stroke-linecap:round;}.cls-18,.cls-19,.cls-20,.cls-21,.cls-22,.cls-26{stroke-linejoin:round;}.cls-18{stroke-width:0.96px;}.cls-19{stroke-width:0.36px;}.cls-20,.cls-23{stroke:gray;}.cls-20,.cls-21,.cls-23,.cls-26{stroke-width:0.24px;}.cls-21{stroke:#adadad;}.cls-22{stroke-width:0.48px;}.cls-23{stroke-linejoin:bevel;}.cls-24{fill:#adadad;}.cls-25{fill:gray;}.cls-27{stroke-width:0.12px;}.cls-28{clip-path:url(#clip-path-66);}.cls-29,.cls-30,.cls-31{font-size:7.13px;font-family:ArialMT, Arial;}.cls-30{letter-spacing:-0.06em;}.cls-31{letter-spacing:-0.04em;}.cls-32{fill:#898989;}</style><clipPath id="clip-path"><rect class="cls-1" x="47.66" y="-114.7" width="2383.92" height="1683.72"/></clipPath><clipPath id="clip-path-62"><rect class="cls-1" x="61.1" y="61.3" width="239.5" height="239.5"/></clipPath><clipPath id="clip-path-63"><circle class="cls-1" cx="924.3" cy="208.7" r="70.9"/></clipPath><clipPath id="clip-path-64"><rect class="cls-1" x="210.28" y="338.72" width="682.64" height="790.06"/></clipPath><clipPath id="clip-path-66"><rect class="cls-1" x="47.78" y="-114.58" width="2383.8" height="1683.6"/></clipPath></defs><title>Tavola disegno 1</title><g id="Livello_1" data-name="Livello 1"><g id="Livello_1-2" data-name="Livello 1-2"><rect class="cls-3" y="1" width="1190.6" height="1190.6"/></g><g id="Livello_2" data-name="Livello 2"><rect class="cls-4" x="890.2" y="890.4" width="239.5" height="239.5"/><rect class="cls-4" x="613.9" y="890.4" width="239.5" height="239.5"/><rect class="cls-4" x="337.5" y="890.4" width="239.5" height="239.5"/><rect class="cls-4" x="61.1" y="890.4" width="239.5" height="239.5"/><rect class="cls-4" x="890.2" y="614" width="239.5" height="239.5"/><rect class="cls-4" x="613.9" y="614" width="239.5" height="239.5"/><rect class="cls-4" x="337.5" y="614" width="239.5" height="239.5"/><rect class="cls-4" x="61.1" y="614" width="239.5" height="239.5"/><rect class="cls-4" x="890.2" y="337.6" width="239.5" height="239.5"/><rect class="cls-4" x="613.9" y="337.6" width="239.5" height="239.5"/><rect class="cls-4" x="337.5" y="337.6" width="239.5" height="239.5"/><rect class="cls-4" x="61.1" y="337.6" width="239.5" height="239.5"/><rect class="cls-4" x="890.2" y="61.3" width="239.5" height="239.5"/><rect class="cls-4" x="613.9" y="61.3" width="239.5" height="239.5"/><rect class="cls-4" x="337.5" y="61.3" width="239.5" height="239.5"/><rect class="cls-4" x="61.1" y="61.3" width="239.5" height="239.5"/></g><g id="Livello_3" data-name="Livello 3"><rect class="cls-5" x="945.5" y="945.7" width="184.3" height="184.2"/><rect class="cls-5" x="724.4" y="945.7" width="184.3" height="184.2"/><rect class="cls-5" x="503.3" y="945.7" width="184.3" height="184.2"/><rect class="cls-5" x="282.2" y="945.7" width="184.3" height="184.2"/><rect class="cls-5" x="61.1" y="945.7" width="184.3" height="184.2"/><rect class="cls-5" x="945.5" y="724.6" width="184.3" height="184.3"/><rect class="cls-5" x="724.4" y="724.6" width="184.3" height="184.3"/><rect class="cls-5" x="503.3" y="724.6" width="184.3" height="184.3"/><rect class="cls-5" x="282.2" y="724.6" width="184.3" height="184.3"/><rect class="cls-5" x="61.1" y="724.6" width="184.3" height="184.3"/><rect class="cls-5" x="945.5" y="503.5" width="184.3" height="184.3"/><rect class="cls-5" x="724.4" y="503.5" width="184.3" height="184.3"/><rect class="cls-5" x="503.3" y="503.5" width="184.3" height="184.3"/><rect class="cls-5" x="282.2" y="503.5" width="184.3" height="184.3"/><rect class="cls-5" x="61.1" y="503.5" width="184.3" height="184.3"/><rect class="cls-5" x="945.5" y="282.4" width="184.3" height="184.3"/><rect class="cls-5" x="724.4" y="282.4" width="184.3" height="184.3"/><rect class="cls-5" x="503.3" y="282.4" width="184.3" height="184.3"/><rect class="cls-5" x="282.2" y="282.4" width="184.3" height="184.3"/><rect class="cls-5" x="61.1" y="282.4" width="184.3" height="184.3"/><rect class="cls-5" x="945.5" y="61.3" width="184.3" height="184.3"/><rect class="cls-5" x="724.4" y="61.3" width="184.3" height="184.3"/><rect class="cls-5" x="503.3" y="61.3" width="184.3" height="184.3"/><rect class="cls-5" x="282.2" y="61.3" width="184.3" height="184.3"/><rect class="cls-5" x="61.1" y="61.3" width="184.3" height="184.3"/></g><g id="Livello_4" data-name="Livello 4"><rect class="cls-6" x="982.4" y="982.5" width="147.4" height="147.4"/><rect class="cls-6" x="798.1" y="982.5" width="147.4" height="147.4"/><rect class="cls-6" x="613.9" y="982.5" width="147.4" height="147.4"/><rect class="cls-6" x="429.6" y="982.5" width="147.4" height="147.4"/><rect class="cls-6" x="245.4" y="982.5" width="147.4" height="147.4"/><rect class="cls-6" x="61.1" y="982.5" width="147.4" height="147.4"/><rect class="cls-6" x="982.4" y="798.3" width="147.4" height="147.4"/><rect class="cls-6" x="798.1" y="798.3" width="147.4" height="147.4"/><rect class="cls-6" x="613.9" y="798.3" width="147.4" height="147.4"/><rect class="cls-6" x="429.6" y="798.3" width="147.4" height="147.4"/><rect class="cls-6" x="245.4" y="798.3" width="147.4" height="147.4"/><rect class="cls-6" x="61.1" y="798.3" width="147.4" height="147.4"/><rect class="cls-6" x="982.4" y="614" width="147.4" height="147.4"/><rect class="cls-6" x="798.1" y="614" width="147.4" height="147.4"/><rect class="cls-6" x="613.9" y="614" width="147.4" height="147.4"/><rect class="cls-6" x="429.6" y="614" width="147.4" height="147.4"/><rect class="cls-6" x="245.4" y="614" width="147.4" height="147.4"/><rect class="cls-6" x="61.1" y="614" width="147.4" height="147.4"/><rect class="cls-6" x="982.4" y="429.8" width="147.4" height="147.4"/><rect class="cls-6" x="798.1" y="429.8" width="147.4" height="147.4"/><rect class="cls-6" x="613.9" y="429.8" width="147.4" height="147.4"/><rect class="cls-6" x="429.6" y="429.8" width="147.4" height="147.4"/><rect class="cls-6" x="245.4" y="429.8" width="147.4" height="147.4"/><rect class="cls-6" x="61.1" y="429.8" width="147.4" height="147.4"/><rect class="cls-6" x="982.4" y="245.5" width="147.4" height="147.4"/><rect class="cls-6" x="798.1" y="245.5" width="147.4" height="147.4"/><rect class="cls-6" x="613.9" y="245.5" width="147.4" height="147.4"/><rect class="cls-6" x="429.6" y="245.5" width="147.4" height="147.4"/><rect class="cls-6" x="245.4" y="245.5" width="147.4" height="147.4"/><rect class="cls-6" x="61.1" y="245.5" width="147.4" height="147.4"/><rect class="cls-6" x="982.4" y="61.3" width="147.4" height="147.4"/><rect class="cls-6" x="798.1" y="61.3" width="147.4" height="147.4"/><rect class="cls-6" x="613.9" y="61.3" width="147.4" height="147.4"/><rect class="cls-6" x="429.6" y="61.3" width="147.4" height="147.4"/><rect class="cls-6" x="245.4" y="61.3" width="147.4" height="147.4"/><rect class="cls-6" x="61.1" y="61.3" width="147.4" height="147.4"/></g><g class="cls-7"><image class="cls-8" width="580" height="435" transform="translate(61.11 61.25)" xlink:href="../893345_03.jpg"/></g><g class="cls-9"><image class="cls-8" width="511" height="340" transform="translate(618.77 61.25)" xlink:href="../893345_05.jpg"/></g><rect class="cls-1" x="325.1" y="61.3" width="226.5" height="77.5"/><text class="cls-10" transform="translate(325.1 106.85)">Daniele</text><rect class="cls-1" x="940.5" y="450.3" width="189.3" height="538.5"/><text class="cls-11" transform="translate(940.52 462.48)">Lorem ipsum dolor sit amet, con</text><text class="cls-11" transform="translate(1107.52 462.48)">-</text><text class="cls-11" transform="translate(940.52 486.48)">sectetuer adipiscing elit, sed diam</text><text class="cls-11" transform="translate(940.52 510.48)">nonummy nibh euismod tincidunt ut</text><text class="cls-11" transform="translate(940.52 534.48)">laoreet dolore magna aliquam erat</text><text class="cls-11" transform="translate(940.52 558.48)">volutpat. Ut wisi enim ad minim</text><text class="cls-11" transform="translate(940.52 582.48)">veniam, quis nostrud exerci tation</text><text class="cls-11" transform="translate(940.52 606.48)">ullamcorper suscipit lobortis nisl ut</text><text class="cls-11" transform="translate(940.52 630.48)">aliquip ex ea commodo consequat.</text><text class="cls-11" transform="translate(940.52 654.48)">Duis autem vel eum iriure dolor in</text><text class="cls-11" transform="translate(940.52 678.48)">hendrerit in vulputate velit esse</text><text class="cls-11" transform="translate(940.52 702.48)">molestie consequat, vel illum dolore</text><text class="cls-11" transform="translate(940.52 726.48)">eu feugiat nulla facilisis at vero eros</text><text class="cls-11" transform="translate(940.52 750.48)">et accumsan et iusto odio dignissim</text><text class="cls-11" transform="translate(940.52 774.48)">qui blandit praesent luptatum zzril</text><text class="cls-11" transform="translate(940.52 798.48)">delenit augue duis dolore te feugait</text><text class="cls-11" transform="translate(940.52 822.48)">nulla facilisi.</text><text class="cls-11" transform="translate(940.52 846.48)">Lorem ipsum dolor sit amet, cons</text><text class="cls-11" transform="translate(940.52 870.48)">ectetuer adipiscing elit, sed diam</text><text class="cls-11" transform="translate(940.52 894.48)">nonummy nibh euismod tincidunt ut</text><text class="cls-11" transform="translate(940.52 918.48)">laoreet dolore magna aliquam erat</text><text class="cls-11" transform="translate(940.52 942.48)">volutpat. Ut wisi enim ad minim</text><text class="cls-11" transform="translate(940.52 966.48)">veniam, quis nostrud exerci tatione</text><text class="cls-11" transform="translate(1121.32 966.48)">-</text><rect class="cls-1" x="958.6" y="272.6" width="97.5" height="19.5"/><g class="cls-8"><text class="cls-12" transform="translate(958.57 279.65)">T</text><text class="cls-13" transform="translate(964.04 279.65)">r</text><text class="cls-14" transform="translate(967.43 279.65)">a</text><text class="cls-15" transform="translate(972.14 279.65)">monto</text></g><g class="cls-8"><text class="cls-11" transform="translate(138.19 358.19)">Lorem ipsum dolor </text><text class="cls-11" transform="translate(124.9 382.19)">sit amet, consectetuer </text><text class="cls-11" transform="translate(122.77 406.19)">adipiscing elit, sed diam </text><text class="cls-11" transform="translate(132.12 430.19)">nonummy nibh </text><text class="cls-11" transform="translate(156.79 454.19)">euismod</text></g><g class="cls-16"><g class="cls-17"><polyline class="cls-18" points="340.22 513.86 340.22 946.93 779.18 946.93 779.18 967.46 779.18 995.77"/><polyline class="cls-18" points="758.66 995.77 758.66 967.46 340.22 967.46 340.22 995.77"/><polyline class="cls-18" points="319.82 995.77 319.82 967.46 319.82 493.33 425.9 493.33 425.9 513.86 340.22 513.86"/><polyline class="cls-19" points="344.54 814.34 400.22 814.34 400.22 874.34 340.22 874.34 340.22 818.65"/><polyline class="cls-20" points="340.22 818.65 340.22 811.46 340.22 571.93 340.22 564.86 344.54 564.86 344.54 571.93 344.54 811.46"/><line class="cls-21" x1="1199.18" y1="498.14" x2="1007.06" y2="498.14"/><line class="cls-21" x1="1176.02" y1="498.14" x2="1172.66" y2="498.14"/><line class="cls-21" x1="1007.06" y1="498.14" x2="1435.94" y2="498.14"/><line class="cls-21" x1="779.18" y1="843.26" x2="402.98" y2="843.26"/><line class="cls-21" x1="779.18" y1="857.42" x2="400.22" y2="857.42"/><line class="cls-21" x1="779.18" y1="871.82" x2="400.22" y2="871.82"/><line class="cls-21" x1="779.18" y1="885.98" x2="553.7" y2="885.98"/><line class="cls-21" x1="779.18" y1="900.26" x2="598.7" y2="900.26"/><line class="cls-21" x1="779.18" y1="914.42" x2="598.7" y2="914.42"/><line class="cls-21" x1="779.18" y1="930.14" x2="598.7" y2="930.14"/><line class="cls-21" x1="439.58" y1="529.58" x2="439.58" y2="515.3"/><line class="cls-21" x1="524.54" y1="529.58" x2="524.54" y2="515.3"/><line class="cls-21" x1="609.62" y1="529.58" x2="609.62" y2="515.3"/><line class="cls-21" x1="694.7" y1="529.58" x2="694.7" y2="515.3"/><line class="cls-19" x1="400.22" y1="571.94" x2="344.54" y2="571.94"/><line class="cls-18" x1="319.82" y1="495.74" x2="322.1" y2="493.34"/><line class="cls-18" x1="319.82" y1="502.1" x2="328.46" y2="493.34"/><line class="cls-18" x1="319.82" y1="508.46" x2="334.82" y2="493.34"/><line class="cls-18" x1="319.82" y1="514.82" x2="341.18" y2="493.34"/><line class="cls-18" x1="319.82" y1="521.18" x2="347.54" y2="493.34"/><line class="cls-18" x1="319.82" y1="527.54" x2="353.9" y2="493.34"/><line class="cls-18" x1="319.82" y1="533.9" x2="360.26" y2="493.34"/><line class="cls-18" x1="319.82" y1="540.26" x2="340.22" y2="519.74"/><line class="cls-18" x1="346.22" y1="513.86" x2="366.62" y2="493.34"/><line class="cls-18" x1="319.82" y1="546.62" x2="340.22" y2="526.1"/><line class="cls-18" x1="352.58" y1="513.86" x2="372.98" y2="493.34"/><line class="cls-18" x1="319.82" y1="552.98" x2="340.22" y2="532.46"/><line class="cls-18" x1="358.94" y1="513.86" x2="379.34" y2="493.34"/><line class="cls-18" x1="319.82" y1="559.34" x2="340.22" y2="538.82"/><line class="cls-18" x1="365.3" y1="513.86" x2="385.7" y2="493.34"/><line class="cls-18" x1="319.82" y1="565.7" x2="340.22" y2="545.18"/><line class="cls-18" x1="371.66" y1="513.86" x2="392.18" y2="493.34"/><line class="cls-18" x1="319.82" y1="572.06" x2="340.22" y2="551.54"/><line class="cls-18" x1="378.02" y1="513.86" x2="398.54" y2="493.34"/><line class="cls-18" x1="319.82" y1="578.42" x2="340.22" y2="557.9"/><line class="cls-18" x1="384.38" y1="513.86" x2="404.9" y2="493.34"/><line class="cls-18" x1="319.82" y1="584.78" x2="340.22" y2="564.38"/><line class="cls-18" x1="390.74" y1="513.86" x2="411.26" y2="493.34"/><line class="cls-18" x1="319.82" y1="591.14" x2="340.22" y2="570.74"/><line class="cls-18" x1="397.1" y1="513.86" x2="417.62" y2="493.34"/><line class="cls-18" x1="319.82" y1="597.5" x2="340.22" y2="577.1"/><line class="cls-18" x1="403.46" y1="513.86" x2="423.98" y2="493.34"/><line class="cls-18" x1="319.82" y1="603.86" x2="340.22" y2="583.46"/><line class="cls-18" x1="409.82" y1="513.86" x2="425.9" y2="497.78"/><line class="cls-18" x1="319.82" y1="610.22" x2="340.22" y2="589.82"/><line class="cls-18" x1="416.18" y1="513.86" x2="425.9" y2="504.14"/><line class="cls-18" x1="319.82" y1="616.58" x2="340.22" y2="596.18"/><line class="cls-18" x1="422.54" y1="513.86" x2="425.9" y2="510.5"/><line class="cls-18" x1="319.82" y1="622.94" x2="340.22" y2="602.54"/><line class="cls-18" x1="319.82" y1="629.3" x2="340.22" y2="608.9"/><line class="cls-18" x1="319.82" y1="635.78" x2="340.22" y2="615.26"/><line class="cls-18" x1="319.82" y1="642.14" x2="340.22" y2="621.62"/><line class="cls-18" x1="319.82" y1="648.5" x2="340.22" y2="627.98"/><line class="cls-18" x1="319.82" y1="654.86" x2="340.22" y2="634.34"/><line class="cls-18" x1="319.82" y1="661.22" x2="340.22" y2="640.7"/><line class="cls-18" x1="319.82" y1="667.58" x2="340.22" y2="647.06"/><line class="cls-18" x1="319.82" y1="673.94" x2="340.22" y2="653.42"/><line class="cls-18" x1="319.82" y1="680.3" x2="340.22" y2="659.78"/><line class="cls-18" x1="319.82" y1="686.66" x2="340.22" y2="666.14"/><line class="cls-18" x1="319.82" y1="693.02" x2="340.22" y2="672.5"/><line class="cls-18" x1="319.82" y1="699.38" x2="340.22" y2="678.86"/><line class="cls-18" x1="319.82" y1="705.74" x2="340.22" y2="685.22"/><line class="cls-18" x1="319.82" y1="712.1" x2="340.22" y2="691.58"/><line class="cls-18" x1="319.82" y1="718.46" x2="340.22" y2="697.94"/><line class="cls-18" x1="319.82" y1="724.82" x2="340.22" y2="704.3"/><line class="cls-18" x1="319.82" y1="731.18" x2="340.22" y2="710.66"/><line class="cls-18" x1="319.82" y1="737.54" x2="340.22" y2="717.02"/><line class="cls-18" x1="319.82" y1="743.9" x2="340.22" y2="723.38"/><line class="cls-18" x1="319.82" y1="750.26" x2="340.22" y2="729.74"/><line class="cls-18" x1="319.82" y1="756.62" x2="340.22" y2="736.1"/><line class="cls-18" x1="319.82" y1="762.98" x2="340.22" y2="742.58"/><line class="cls-18" x1="319.82" y1="769.34" x2="340.22" y2="748.94"/><line class="cls-18" x1="319.82" y1="775.7" x2="340.22" y2="755.3"/><line class="cls-18" x1="319.82" y1="782.06" x2="340.22" y2="761.66"/><line class="cls-18" x1="319.82" y1="788.42" x2="340.22" y2="768.02"/><line class="cls-18" x1="319.82" y1="794.78" x2="340.22" y2="774.38"/><line class="cls-18" x1="319.82" y1="801.14" x2="340.22" y2="780.74"/><line class="cls-18" x1="319.82" y1="807.5" x2="340.22" y2="787.1"/><line class="cls-18" x1="319.82" y1="813.86" x2="340.22" y2="793.46"/><line class="cls-18" x1="319.82" y1="820.34" x2="340.22" y2="799.82"/><line class="cls-18" x1="319.82" y1="826.7" x2="340.22" y2="806.18"/><line class="cls-18" x1="319.82" y1="833.06" x2="340.22" y2="812.54"/><line class="cls-18" x1="319.82" y1="839.42" x2="340.22" y2="818.9"/><line class="cls-18" x1="319.82" y1="845.78" x2="340.22" y2="825.26"/><line class="cls-18" x1="319.82" y1="852.14" x2="340.22" y2="831.62"/><line class="cls-18" x1="319.82" y1="858.5" x2="340.22" y2="837.98"/><line class="cls-18" x1="319.82" y1="864.86" x2="340.22" y2="844.34"/><line class="cls-18" x1="319.82" y1="871.22" x2="340.22" y2="850.7"/><line class="cls-18" x1="319.82" y1="877.58" x2="340.22" y2="857.06"/><line class="cls-18" x1="319.82" y1="883.94" x2="340.22" y2="863.42"/><line class="cls-18" x1="319.82" y1="890.3" x2="340.22" y2="869.78"/><line class="cls-18" x1="319.82" y1="896.66" x2="340.22" y2="876.14"/><line class="cls-18" x1="319.82" y1="903.02" x2="340.22" y2="882.5"/><line class="cls-18" x1="319.82" y1="909.38" x2="340.22" y2="888.86"/><line class="cls-18" x1="319.82" y1="915.74" x2="340.22" y2="895.22"/><line class="cls-18" x1="319.82" y1="922.1" x2="340.22" y2="901.58"/><line class="cls-18" x1="319.82" y1="928.46" x2="340.22" y2="907.94"/><line class="cls-18" x1="319.82" y1="934.82" x2="340.22" y2="914.3"/><line class="cls-18" x1="319.82" y1="941.18" x2="340.22" y2="920.78"/><line class="cls-18" x1="319.82" y1="947.54" x2="340.22" y2="927.14"/><line class="cls-18" x1="319.82" y1="953.9" x2="340.22" y2="933.5"/><line class="cls-18" x1="319.82" y1="960.26" x2="340.22" y2="939.86"/><line class="cls-18" x1="319.82" y1="966.62" x2="340.22" y2="946.22"/><line class="cls-18" x1="319.82" y1="972.98" x2="345.86" y2="946.94"/><line class="cls-18" x1="319.82" y1="979.34" x2="352.22" y2="946.94"/><line class="cls-18" x1="319.82" y1="985.7" x2="358.58" y2="946.94"/><line class="cls-18" x1="319.82" y1="992.06" x2="340.22" y2="971.66"/><line class="cls-18" x1="344.54" y1="967.46" x2="364.94" y2="946.94"/><line class="cls-18" x1="322.46" y1="995.78" x2="340.22" y2="978.02"/><line class="cls-18" x1="350.9" y1="967.46" x2="371.3" y2="946.94"/><line class="cls-18" x1="328.82" y1="995.78" x2="340.22" y2="984.38"/><line class="cls-18" x1="357.26" y1="967.46" x2="377.66" y2="946.94"/><line class="cls-18" x1="335.18" y1="995.78" x2="340.22" y2="990.74"/><line class="cls-18" x1="363.62" y1="967.46" x2="384.02" y2="946.94"/><line class="cls-18" x1="369.98" y1="967.46" x2="390.38" y2="946.94"/><line class="cls-18" x1="376.34" y1="967.46" x2="396.74" y2="946.94"/><line class="cls-18" x1="382.7" y1="967.46" x2="403.1" y2="946.94"/><line class="cls-18" x1="389.06" y1="967.46" x2="409.46" y2="946.94"/><line class="cls-18" x1="395.42" y1="967.46" x2="415.82" y2="946.94"/><line class="cls-18" x1="401.78" y1="967.46" x2="422.18" y2="946.94"/><line class="cls-18" x1="408.14" y1="967.46" x2="428.66" y2="946.94"/><line class="cls-18" x1="414.5" y1="967.46" x2="435.02" y2="946.94"/><line class="cls-18" x1="420.86" y1="967.46" x2="441.38" y2="946.94"/><line class="cls-18" x1="427.22" y1="967.46" x2="447.74" y2="946.94"/><line class="cls-18" x1="433.58" y1="967.46" x2="454.1" y2="946.94"/><line class="cls-18" x1="439.94" y1="967.46" x2="460.46" y2="946.94"/><line class="cls-18" x1="446.3" y1="967.46" x2="466.82" y2="946.94"/><line class="cls-18" x1="452.66" y1="967.46" x2="473.18" y2="946.94"/><line class="cls-18" x1="459.02" y1="967.46" x2="479.54" y2="946.94"/><line class="cls-18" x1="465.38" y1="967.46" x2="485.9" y2="946.94"/><line class="cls-18" x1="471.74" y1="967.46" x2="492.26" y2="946.94"/><line class="cls-18" x1="478.1" y1="967.46" x2="498.62" y2="946.94"/><line class="cls-18" x1="484.46" y1="967.46" x2="504.98" y2="946.94"/><line class="cls-18" x1="490.82" y1="967.46" x2="511.34" y2="946.94"/><line class="cls-18" x1="497.18" y1="967.46" x2="517.7" y2="946.94"/><line class="cls-18" x1="503.54" y1="967.46" x2="524.06" y2="946.94"/><line class="cls-18" x1="509.9" y1="967.46" x2="530.42" y2="946.94"/><line class="cls-18" x1="516.26" y1="967.46" x2="536.78" y2="946.94"/><line class="cls-18" x1="522.62" y1="967.46" x2="543.14" y2="946.94"/><line class="cls-18" x1="528.98" y1="967.46" x2="549.5" y2="946.94"/><line class="cls-18" x1="535.46" y1="967.46" x2="555.86" y2="946.94"/><line class="cls-18" x1="541.82" y1="967.46" x2="562.22" y2="946.94"/><line class="cls-18" x1="548.18" y1="967.46" x2="568.58" y2="946.94"/><line class="cls-18" x1="554.54" y1="967.46" x2="574.94" y2="946.94"/><line class="cls-18" x1="560.9" y1="967.46" x2="581.3" y2="946.94"/><line class="cls-18" x1="567.26" y1="967.46" x2="587.66" y2="946.94"/><line class="cls-18" x1="573.62" y1="967.46" x2="594.02" y2="946.94"/><line class="cls-18" x1="579.98" y1="967.46" x2="600.38" y2="946.94"/><line class="cls-18" x1="586.34" y1="967.46" x2="606.74" y2="946.94"/><line class="cls-18" x1="592.7" y1="967.46" x2="613.22" y2="946.94"/><line class="cls-18" x1="599.06" y1="967.46" x2="619.58" y2="946.94"/><line class="cls-18" x1="605.42" y1="967.46" x2="625.94" y2="946.94"/><line class="cls-18" x1="611.78" y1="967.46" x2="632.3" y2="946.94"/><line class="cls-18" x1="618.14" y1="967.46" x2="638.66" y2="946.94"/><line class="cls-18" x1="624.5" y1="967.46" x2="645.02" y2="946.94"/><line class="cls-18" x1="630.86" y1="967.46" x2="651.38" y2="946.94"/><line class="cls-18" x1="637.22" y1="967.46" x2="657.74" y2="946.94"/><line class="cls-18" x1="643.58" y1="967.46" x2="664.1" y2="946.94"/><line class="cls-18" x1="649.94" y1="967.46" x2="670.46" y2="946.94"/><line class="cls-18" x1="656.3" y1="967.46" x2="676.82" y2="946.94"/><line class="cls-18" x1="662.66" y1="967.46" x2="683.18" y2="946.94"/><line class="cls-18" x1="669.02" y1="967.46" x2="689.54" y2="946.94"/><line class="cls-18" x1="675.38" y1="967.46" x2="695.9" y2="946.94"/><line class="cls-18" x1="681.74" y1="967.46" x2="702.26" y2="946.94"/><line class="cls-18" x1="688.1" y1="967.46" x2="708.62" y2="946.94"/><line class="cls-18" x1="694.46" y1="967.46" x2="714.98" y2="946.94"/><line class="cls-18" x1="700.82" y1="967.46" x2="721.34" y2="946.94"/><line class="cls-18" x1="707.18" y1="967.46" x2="727.7" y2="946.94"/><line class="cls-18" x1="713.54" y1="967.46" x2="734.06" y2="946.94"/><line class="cls-18" x1="720.02" y1="967.46" x2="740.42" y2="946.94"/><line class="cls-18" x1="726.38" y1="967.46" x2="746.78" y2="946.94"/><line class="cls-18" x1="732.74" y1="967.46" x2="753.14" y2="946.94"/><line class="cls-18" x1="739.1" y1="967.46" x2="759.5" y2="946.94"/><line class="cls-18" x1="745.46" y1="967.46" x2="765.86" y2="946.94"/><line class="cls-18" x1="751.82" y1="967.46" x2="772.22" y2="946.94"/><line class="cls-18" x1="758.18" y1="967.46" x2="778.58" y2="946.94"/><line class="cls-18" x1="758.66" y1="973.22" x2="779.18" y2="952.7"/><line class="cls-18" x1="758.66" y1="979.58" x2="779.18" y2="959.06"/><line class="cls-18" x1="758.66" y1="985.94" x2="779.18" y2="965.42"/><line class="cls-18" x1="758.66" y1="992.3" x2="779.18" y2="971.9"/><line class="cls-18" x1="761.66" y1="995.78" x2="779.18" y2="978.26"/><line class="cls-18" x1="768.02" y1="995.78" x2="779.18" y2="984.62"/><line class="cls-18" x1="774.38" y1="995.78" x2="779.18" y2="990.98"/><line class="cls-21" x1="340.22" y1="571.94" x2="340.22" y2="513.86"/><line class="cls-18" x1="659.9" y1="493.34" x2="425.9" y2="493.34"/><line class="cls-21" x1="425.9" y1="513.86" x2="659.9" y2="513.86"/><line class="cls-18" x1="425.9" y1="493.34" x2="542.9" y2="493.34"/><line class="cls-20" x1="542.9" y1="505.46" x2="432.86" y2="505.46"/><line class="cls-19" x1="540.5" y1="503.18" x2="431.42" y2="503.18"/><line class="cls-19" x1="540.5" y1="504.02" x2="431.42" y2="504.02"/><line class="cls-20" x1="542.9" y1="501.62" x2="432.86" y2="501.62"/><line class="cls-21" x1="425.9" y1="513.86" x2="542.9" y2="513.86"/><line class="cls-20" x1="652.94" y1="505.46" x2="542.9" y2="505.46"/><line class="cls-19" x1="654.38" y1="503.18" x2="545.3" y2="503.18"/><line class="cls-19" x1="654.38" y1="504.02" x2="545.3" y2="504.02"/><line class="cls-20" x1="652.94" y1="501.62" x2="542.9" y2="501.62"/><line class="cls-21" x1="779.18" y1="829.82" x2="779.18" y2="946.94"/><polyline class="cls-22" points="658.22 943.22 767.9 943.22 767.9 936.62 658.22 936.62 658.22 943.22"/><path class="cls-22" d="M758.76,830A129.32,129.32,0,0,0,658.29,936.74"/><polyline class="cls-22" points="774.5 946.93 767.9 946.93 767.9 943.22 774.5 943.22 774.5 941.77 779.18 941.77 779.18 946.93 774.5 946.93"/><line class="cls-18" x1="425.9" y1="493.34" x2="659.9" y2="493.34"/><polyline class="cls-22" points="425.9 499.81 425.9 507.25 429.02 507.25 429.02 499.81 425.9 499.81"/><polyline class="cls-22" points="429.02 505.45 432.86 505.45 432.86 504.74 431.42 504.74 431.42 504.01 431.42 503.18 431.42 502.45 432.86 502.45"/><polyline class="cls-22" points="429.02 501.62 432.86 501.62 432.86 502.45"/><polyline class="cls-22" points="659.9 499.81 659.9 507.25 656.78 507.25 656.78 499.81 659.9 499.81"/><polyline class="cls-22" points="656.78 505.45 652.94 505.45 652.94 504.74 654.38 504.74 654.38 504.01 654.38 503.18 654.38 502.45 652.94 502.45"/><polyline class="cls-22" points="656.78 501.62 652.94 501.62 652.94 502.45"/><polyline class="cls-22" points="542.9 505.45 546.74 505.45 546.74 504.74 545.3 504.74 545.3 504.01 545.3 503.18 545.3 502.45 546.74 502.45"/><polyline class="cls-22" points="542.9 501.62 546.74 501.62 546.74 502.45"/><polyline class="cls-22" points="542.9 505.45 539.06 505.45 539.06 504.74 540.5 504.74 540.5 504.01 540.5 503.18 540.5 502.45 539.06 502.45"/><polyline class="cls-22" points="542.9 501.62 539.06 501.62 539.06 502.45"/><line class="cls-18" x1="425.9" y1="513.86" x2="659.9" y2="513.86"/><line class="cls-19" x1="400.22" y1="513.86" x2="400.22" y2="571.94"/><path class="cls-20" d="M385.15,799.3a73.7,73.7,0,0,0,47.49,6.41"/><path class="cls-20" d="M367.19,617.66a210.86,210.86,0,0,0-6.59,72.17"/><path class="cls-20" d="M430.81,637.44a125.73,125.73,0,0,0,2.27,52.83"/><polyline class="cls-23" points="402.02 776.17 402.86 769.93 403.46 763.7 403.7 757.46 403.58 751.22 403.22 744.98 402.38 738.74 401.42 732.62 399.98 726.5 398.3 720.5"/><path class="cls-20" d="M398.77,690.12a12.36,12.36,0,0,0-9.24.15"/><path class="cls-20" d="M385.15,685.18a74,74,0,0,0,47.79,5"/><path class="cls-20" d="M421.13,695.42a111.45,111.45,0,0,0-46.06,1.87"/><path class="cls-20" d="M430.8,752.17a129.09,129.09,0,0,0,2,53.51"/><path class="cls-20" d="M426.91,763.77A94.75,94.75,0,0,0,431,717.14"/><path class="cls-20" d="M432.84,693.55a50.39,50.39,0,0,0-1.7,23.55"/><path class="cls-20" d="M421.11,695.27a18.57,18.57,0,0,0,11.54-1.76"/><path class="cls-20" d="M426.41,734.77a37.25,37.25,0,0,0-1.87-22.44"/><path class="cls-20" d="M360.74,693.51a268.92,268.92,0,0,0,1.94,68.37"/><path class="cls-20" d="M392.88,804.18a74.7,74.7,0,0,0-32,2.7"/><path class="cls-20" d="M366.63,748.26A126.1,126.1,0,0,0,361,806.84"/><path class="cls-20" d="M369.9,689.9a24.51,24.51,0,0,0,19.56.23"/><path class="cls-20" d="M386,695a32,32,0,0,0-15.44.34"/><path class="cls-20" d="M369.81,690.1a11.86,11.86,0,0,0-9.26-.2"/><path class="cls-20" d="M360.75,693.5a11.5,11.5,0,0,0,9.73,1.75"/><path class="cls-20" d="M421.13,581.3a111.45,111.45,0,0,0-46.06,1.87"/><path class="cls-20" d="M412.07,627.19a42.73,42.73,0,0,0-12.49-31.83"/><path class="cls-20" d="M426.79,649a91.9,91.9,0,0,0,4.12-45.91"/><path class="cls-20" d="M421.11,581.15a18.57,18.57,0,0,0,11.54-1.76"/><path class="cls-20" d="M432.84,579.55a50.39,50.39,0,0,0-1.7,23.55"/><path class="cls-20" d="M360.77,579.49a154.64,154.64,0,0,0,2.52,51.79"/><path class="cls-20" d="M386,581a32,32,0,0,0-15.44.34"/><path class="cls-20" d="M360.75,579.38a11.5,11.5,0,0,0,9.73,1.75"/><path class="cls-20" d="M507.12,569.44a15.86,15.86,0,0,0-10.63,3.29"/><polyline class="cls-20" points="518.54 576.38 507.86 605.17 497.54 634.1 487.7 663.25 478.34 692.41 469.46 721.82 460.94 751.34"/><polyline class="cls-20" points="476.42 577.34 468.86 615.62 461.9 654.01 455.42 692.41 449.54 731.05 444.14 769.7 439.22 808.46"/><polyline class="cls-20" points="443.66 811.1 459.02 811.46 474.5 811.34 489.98 810.62 505.34 809.41 520.7 807.74 536.06 805.34"/><polyline class="cls-20" points="496.34 810.01 517.94 811.34 539.54 812.05 561.14 812.29 582.74 811.93 604.22 810.98"/><path class="cls-20" d="M527.06,749.5a248.69,248.69,0,0,0-83.4,61.5"/><polyline class="cls-20" points="563.9 808.58 578.66 809.89 593.42 810.62 608.3 811.1 623.06 810.98 637.82 810.62"/><polyline class="cls-23" points="645.14 769.58 645.38 756.5 645.26 743.29 644.66 730.22 643.82 717.13 642.5 704.05 640.94 691.1 638.9 678.13"/><path class="cls-20" d="M637.82,810.5a7.32,7.32,0,0,0,7.32-7.32h0"/><polyline class="cls-20" points="443.66 811.1 449.78 792.62 455.42 774.01 460.82 755.29 465.74 736.46 470.18 717.5 474.26 698.53 477.98 679.46"/><path class="cls-20" d="M482.65,750.14a309.82,309.82,0,0,0-33,49.91"/><path class="cls-20" d="M443.65,811a205.17,205.17,0,0,0,40.63-15"/><path class="cls-20" d="M411.49,811.55a102.08,102.08,0,0,0,27.78-3.24"/><path class="cls-20" d="M439,812.07a6,6,0,0,0,3.67-6"/><path class="cls-20" d="M432.38,810a6,6,0,0,0,11.15,1"/><path class="cls-20" d="M433.9,809.76a3,3,0,0,0,5.26-1.29"/><path class="cls-20" d="M597.21,573.07a353.14,353.14,0,0,0-78.12,2.08"/><path class="cls-20" d="M512.88,574.32a93,93,0,0,0-11.7,28.17"/><path class="cls-20" d="M637.79,573a225.85,225.85,0,0,0-65.48,3.42"/><path class="cls-20" d="M645.14,580.46a7.32,7.32,0,0,0-7.32-7.32h0"/><path class="cls-20" d="M556.26,577a49,49,0,0,0,16.12-.54"/><line class="cls-20" x1="522.26" y1="569.78" x2="531.02" y2="573.02"/><line class="cls-19" x1="359.18" y1="576.98" x2="476.54" y2="576.98"/><path class="cls-21" d="M522.15,569.87a7.29,7.29,0,0,0-2.53-.45"/><path class="cls-20" d="M528,572a7.32,7.32,0,0,0-9.4,4.33.21.21,0,0,1,0,.11"/><path class="cls-20" d="M522.15,569.87a7.29,7.29,0,0,0-2.53-.45"/><line class="cls-19" x1="355.82" y1="811.46" x2="355.82" y2="573.62"/><path class="cls-20" d="M513.45,573.42a7.23,7.23,0,0,0-.6.85"/><path class="cls-20" d="M481.69,575.71a34.5,34.5,0,0,0-3.16,12.45"/><path class="cls-20" d="M484.2,569.32a10.33,10.33,0,0,0-7.81,8"/><path class="cls-20" d="M491.88,570.31a14.9,14.9,0,0,0-10.28,5.38"/><polyline class="cls-19" points="648.5 811.46 648.5 573.62 640.58 573.62"/><line class="cls-19" x1="477.98" y1="573.62" x2="353.78" y2="573.62"/><line class="cls-19" x1="351.02" y1="811.46" x2="432.86" y2="811.46"/><line class="cls-19" x1="593.54" y1="811.46" x2="648.5" y2="811.46"/><polyline class="cls-19" points="645.14 576.98 645.14 808.1 643.34 808.1"/><line class="cls-19" x1="439.34" y1="808.1" x2="359.18" y2="808.1"/><line class="cls-19" x1="644.42" y1="576.98" x2="645.14" y2="576.98"/><line class="cls-19" x1="359.18" y1="805.46" x2="360.74" y2="805.46"/><line class="cls-19" x1="366.14" y1="805.46" x2="402.26" y2="805.46"/><line class="cls-19" x1="345.02" y1="811.46" x2="345.02" y2="806.78"/><line class="cls-20" x1="432.62" y1="805.46" x2="439.58" y2="805.46"/><line class="cls-21" x1="644.9" y1="805.46" x2="645.14" y2="805.46"/><line class="cls-19" x1="475.94" y1="579.62" x2="360.98" y2="579.62"/><line class="cls-19" x1="360.74" y1="579.62" x2="359.18" y2="579.62"/><line class="cls-19" x1="351.02" y1="811.46" x2="351.02" y2="573.62"/><line class="cls-19" x1="359.18" y1="808.1" x2="359.18" y2="576.98"/><line class="cls-19" x1="353.78" y1="573.62" x2="351.02" y2="573.62"/><line class="cls-19" x1="351.02" y1="811.46" x2="344.54" y2="811.46"/><line class="cls-20" x1="484.22" y1="569.3" x2="491.9" y2="570.26"/><line class="cls-21" x1="340.22" y1="578.3" x2="340.22" y2="573.62"/><line class="cls-19" x1="344.54" y1="573.62" x2="351.02" y2="573.62"/><line class="cls-19" x1="359.18" y1="696.14" x2="355.82" y2="696.14"/><line class="cls-19" x1="359.18" y1="688.46" x2="355.82" y2="688.46"/><line class="cls-21" x1="345.02" y1="806.78" x2="344.54" y2="806.78"/><line class="cls-19" x1="345.02" y1="573.62" x2="345.02" y2="578.3"/><line class="cls-21" x1="345.02" y1="578.3" x2="344.54" y2="578.3"/><path class="cls-20" d="M497.81,575.17a7.32,7.32,0,0,0-5.93-4.73"/><path class="cls-20" d="M516.8,570.62a32.31,32.31,0,0,0-9.73-1.19"/><path class="cls-20" d="M519.68,569.41a12.48,12.48,0,0,0-9,12.84"/><line class="cls-21" x1="340.22" y1="513.86" x2="400.22" y2="513.86"/><polyline class="cls-19" points="400.22 551.41 400.22 534.38 402.98 534.38 402.98 551.41 400.22 551.41"/><polyline class="cls-19" points="400.22 834.98 402.98 834.98 402.98 851.89 400.22 851.89"/><line class="cls-21" x1="400.22" y1="513.86" x2="400.22" y2="515.3"/><line class="cls-22" x1="400.22" y1="515.3" x2="757.22" y2="515.3"/><polyline class="cls-22" points="758.66 829.82 757.22 829.82 757.22 812.17"/><line class="cls-22" x1="757.22" y1="669.26" x2="757.22" y2="656.3"/><polyline class="cls-22" points="757.22 532.46 757.22 515.29 758.66 513.86"/><line class="cls-21" x1="340.22" y1="874.34" x2="340.22" y2="874.34"/><rect class="cls-24" x="340.1" y="874.22" width="0.12" height="0.12"/><polyline class="cls-22" points="341.66 874.34 341.66 945.5 599.3 945.5 767.9 945.5"/><polyline class="cls-19" points="488.06 945.5 488.06 887.41 598.7 887.41 598.7 945.5 488.06 945.5"/><polyline class="cls-19" points="553.7 887.41 553.7 885.13 532.46 885.13 532.46 887.41"/><line class="cls-21" x1="757.22" y1="529.58" x2="400.22" y2="529.58"/><line class="cls-21" x1="737.42" y1="543.74" x2="402.98" y2="543.74"/><line class="cls-21" x1="482.06" y1="529.58" x2="482.06" y2="543.74"/><line class="cls-21" x1="567.14" y1="529.58" x2="567.14" y2="543.74"/><line class="cls-21" x1="652.1" y1="529.58" x2="652.1" y2="543.74"/><line class="cls-21" x1="737.18" y1="529.58" x2="737.18" y2="543.74"/><line class="cls-21" x1="439.58" y1="558.14" x2="439.58" y2="543.74"/><line class="cls-21" x1="524.54" y1="558.14" x2="524.54" y2="543.74"/><line class="cls-21" x1="609.62" y1="558.14" x2="609.62" y2="543.74"/><line class="cls-21" x1="694.7" y1="558.14" x2="694.7" y2="543.74"/><line class="cls-21" x1="737.42" y1="558.14" x2="400.22" y2="558.14"/><line class="cls-21" x1="737.42" y1="572.3" x2="627.26" y2="572.3"/><line class="cls-19" x1="479.06" y1="572.3" x2="344.54" y2="572.3"/><line class="cls-21" x1="482.06" y1="558.14" x2="482.06" y2="570.02"/><line class="cls-21" x1="396.98" y1="571.94" x2="396.98" y2="572.3"/><line class="cls-21" x1="567.14" y1="558.14" x2="567.14" y2="571.82"/><line class="cls-21" x1="652.1" y1="558.14" x2="652.1" y2="572.3"/><line class="cls-21" x1="737.18" y1="558.14" x2="737.18" y2="572.3"/><line class="cls-21" x1="694.7" y1="586.58" x2="694.7" y2="572.3"/><line class="cls-21" x1="737.42" y1="586.58" x2="648.5" y2="586.58"/><line class="cls-21" x1="737.42" y1="600.86" x2="648.5" y2="600.86"/><line class="cls-21" x1="652.1" y1="586.58" x2="652.1" y2="600.86"/><line class="cls-21" x1="737.18" y1="586.58" x2="737.18" y2="600.86"/><line class="cls-21" x1="737.42" y1="600.86" x2="648.5" y2="600.86"/><line class="cls-21" x1="694.7" y1="615.14" x2="694.7" y2="600.86"/><line class="cls-21" x1="737.42" y1="615.14" x2="648.5" y2="615.14"/><line class="cls-21" x1="737.42" y1="629.3" x2="648.5" y2="629.3"/><line class="cls-21" x1="652.1" y1="615.14" x2="652.1" y2="629.3"/><line class="cls-21" x1="737.18" y1="615.14" x2="737.18" y2="629.3"/><line class="cls-21" x1="694.7" y1="643.7" x2="694.7" y2="629.3"/><line class="cls-21" x1="737.42" y1="643.7" x2="648.5" y2="643.7"/><line class="cls-21" x1="757.22" y1="657.86" x2="648.5" y2="657.86"/><line class="cls-21" x1="652.1" y1="643.7" x2="652.1" y2="657.86"/><line class="cls-21" x1="737.18" y1="643.7" x2="737.18" y2="657.86"/><line class="cls-21" x1="694.7" y1="672.14" x2="694.7" y2="657.86"/><line class="cls-21" x1="737.42" y1="672.14" x2="648.5" y2="672.14"/><line class="cls-21" x1="737.42" y1="686.3" x2="648.5" y2="686.3"/><line class="cls-21" x1="652.1" y1="672.14" x2="652.1" y2="686.3"/><line class="cls-21" x1="737.18" y1="672.14" x2="737.18" y2="686.3"/><line class="cls-21" x1="694.7" y1="700.7" x2="694.7" y2="686.3"/><line class="cls-21" x1="737.42" y1="700.7" x2="648.5" y2="700.7"/><line class="cls-21" x1="737.42" y1="714.86" x2="648.5" y2="714.86"/><line class="cls-21" x1="652.1" y1="700.7" x2="652.1" y2="714.86"/><line class="cls-21" x1="737.18" y1="700.7" x2="737.18" y2="714.86"/><line class="cls-21" x1="694.7" y1="729.26" x2="694.7" y2="714.86"/><line class="cls-21" x1="737.42" y1="729.26" x2="648.5" y2="729.26"/><line class="cls-21" x1="737.42" y1="743.42" x2="648.5" y2="743.42"/><line class="cls-21" x1="652.1" y1="729.26" x2="652.1" y2="743.42"/><line class="cls-21" x1="737.18" y1="729.26" x2="737.18" y2="743.42"/><line class="cls-21" x1="694.7" y1="757.7" x2="694.7" y2="743.42"/><line class="cls-21" x1="737.42" y1="757.7" x2="648.5" y2="757.7"/><line class="cls-21" x1="737.42" y1="771.86" x2="648.5" y2="771.86"/><line class="cls-21" x1="652.1" y1="757.7" x2="652.1" y2="771.86"/><line class="cls-21" x1="737.18" y1="757.7" x2="737.18" y2="771.86"/><line class="cls-21" x1="694.7" y1="786.26" x2="694.7" y2="771.86"/><line class="cls-21" x1="737.42" y1="786.26" x2="648.5" y2="786.26"/><line class="cls-21" x1="737.42" y1="800.42" x2="648.5" y2="800.42"/><line class="cls-21" x1="652.1" y1="786.26" x2="652.1" y2="800.42"/><line class="cls-21" x1="737.18" y1="786.26" x2="737.18" y2="800.42"/><line class="cls-21" x1="694.7" y1="814.7" x2="694.7" y2="800.42"/><line class="cls-21" x1="609.62" y1="814.7" x2="609.62" y2="811.46"/><line class="cls-21" x1="524.54" y1="814.7" x2="524.54" y2="811.58"/><line class="cls-21" x1="439.58" y1="814.7" x2="439.58" y2="814.34"/><line class="cls-20" x1="439.58" y1="806.18" x2="439.58" y2="800.42"/><line class="cls-21" x1="354.5" y1="814.34" x2="354.5" y2="811.46"/><line class="cls-21" x1="757.22" y1="814.7" x2="400.22" y2="814.7"/><line class="cls-21" x1="757.22" y1="828.98" x2="400.22" y2="828.98"/><line class="cls-21" x1="652.1" y1="814.7" x2="652.1" y2="828.98"/><line class="cls-21" x1="567.14" y1="814.7" x2="567.14" y2="828.98"/><line class="cls-21" x1="482.06" y1="814.7" x2="482.06" y2="828.98"/><line class="cls-21" x1="737.18" y1="814.7" x2="737.18" y2="828.98"/><line class="cls-21" x1="439.58" y1="843.26" x2="439.58" y2="828.98"/><line class="cls-21" x1="524.54" y1="843.26" x2="524.54" y2="828.98"/><line class="cls-21" x1="609.62" y1="843.26" x2="609.62" y2="828.98"/><line class="cls-21" x1="694.7" y1="843.26" x2="694.7" y2="828.98"/><line class="cls-21" x1="482.06" y1="843.26" x2="482.06" y2="857.42"/><line class="cls-21" x1="567.14" y1="843.26" x2="567.14" y2="857.42"/><line class="cls-21" x1="652.1" y1="843.26" x2="652.1" y2="857.42"/><line class="cls-21" x1="737.18" y1="843.26" x2="737.18" y2="857.42"/><line class="cls-21" x1="439.58" y1="871.82" x2="439.58" y2="857.42"/><line class="cls-21" x1="524.54" y1="871.82" x2="524.54" y2="857.42"/><line class="cls-21" x1="609.62" y1="871.82" x2="609.62" y2="857.42"/><line class="cls-21" x1="694.7" y1="871.82" x2="694.7" y2="857.42"/><line class="cls-21" x1="532.46" y1="885.98" x2="341.66" y2="885.98"/><line class="cls-21" x1="482.06" y1="871.82" x2="482.06" y2="885.98"/><line class="cls-21" x1="396.98" y1="874.34" x2="396.98" y2="885.98"/><line class="cls-21" x1="567.14" y1="871.82" x2="567.14" y2="885.98"/><line class="cls-21" x1="652.1" y1="871.82" x2="652.1" y2="885.98"/><line class="cls-21" x1="737.18" y1="871.82" x2="737.18" y2="885.98"/><line class="cls-21" x1="439.58" y1="900.26" x2="439.58" y2="885.98"/><line class="cls-21" x1="354.5" y1="900.26" x2="354.5" y2="885.98"/><line class="cls-21" x1="524.54" y1="887.42" x2="524.54" y2="885.98"/><line class="cls-21" x1="609.62" y1="900.26" x2="609.62" y2="885.98"/><line class="cls-21" x1="694.7" y1="900.26" x2="694.7" y2="885.98"/><line class="cls-21" x1="488.06" y1="900.26" x2="341.66" y2="900.26"/><line class="cls-21" x1="488.06" y1="914.42" x2="341.66" y2="914.42"/><line class="cls-21" x1="482.06" y1="900.26" x2="482.06" y2="914.42"/><line class="cls-21" x1="396.98" y1="900.26" x2="396.98" y2="914.42"/><line class="cls-21" x1="652.1" y1="900.26" x2="652.1" y2="914.42"/><line class="cls-21" x1="737.18" y1="900.26" x2="737.18" y2="914.42"/><line class="cls-21" x1="439.58" y1="930.14" x2="439.58" y2="914.42"/><line class="cls-21" x1="354.5" y1="930.14" x2="354.5" y2="914.42"/><line class="cls-21" x1="609.62" y1="930.14" x2="609.62" y2="914.42"/><line class="cls-21" x1="694.7" y1="930.14" x2="694.7" y2="914.42"/><line class="cls-21" x1="488.06" y1="930.14" x2="341.66" y2="930.14"/><line class="cls-21" x1="482.06" y1="930.14" x2="482.06" y2="945.5"/><line class="cls-21" x1="396.98" y1="930.14" x2="396.98" y2="945.5"/><line class="cls-21" x1="652.1" y1="930.14" x2="652.1" y2="945.5"/><line class="cls-21" x1="737.18" y1="930.14" x2="737.18" y2="936.62"/><line class="cls-21" x1="737.18" y1="943.22" x2="737.18" y2="945.5"/><line class="cls-21" x1="341.66" y1="945.5" x2="340.22" y2="946.94"/><polyline class="cls-19" points="1075.22 428.06 1133.3 428.06 1133.3 459.86"/><line class="cls-19" x1="1133.3" y1="476.18" x2="1133.3" y2="496.1"/><line class="cls-21" x1="1133.3" y1="496.1" x2="1131.14" y2="496.1"/><line class="cls-21" x1="1077.26" y1="496.1" x2="1075.22" y2="496.1"/><line class="cls-19" x1="1075.22" y1="496.1" x2="1075.22" y2="428.06"/><line class="cls-19" x1="1075.22" y1="430.22" x2="1133.3" y2="430.22"/><line class="cls-19" x1="1077.26" y1="487.1" x2="1131.14" y2="487.1"/><line class="cls-19" x1="1077.26" y1="430.22" x2="1077.26" y2="496.1"/><line class="cls-19" x1="1131.14" y1="430.22" x2="1131.14" y2="496.1"/><line class="cls-19" x1="1077.26" y1="458.66" x2="1131.14" y2="458.66"/><line class="cls-19" x1="1077.26" y1="459.26" x2="1131.14" y2="459.26"/><line class="cls-19" x1="1077.26" y1="430.82" x2="1131.14" y2="430.82"/><line class="cls-19" x1="1095.98" y1="433.58" x2="1113.02" y2="433.58"/><line class="cls-19" x1="1095.98" y1="462.02" x2="1113.02" y2="462.02"/><polyline class="cls-19" points="1111.58 437.89 1097.42 437.89 1095.98 433.57"/><line class="cls-19" x1="1113.02" y1="433.58" x2="1111.58" y2="437.9"/><polyline class="cls-19" points="1111.58 466.33 1097.42 466.33 1095.98 462.01"/><line class="cls-19" x1="1113.02" y1="462.02" x2="1111.58" y2="466.34"/><line class="cls-19" x1="1077.26" y1="487.58" x2="1131.14" y2="487.58"/><line class="cls-21" x1="1077.26" y1="496.1" x2="1131.14" y2="496.1"/><line class="cls-19" x1="1077.26" y1="489.74" x2="1131.14" y2="489.74"/><polyline class="cls-21" points="1005.02 496.1 1019.3 496.1 1019.3 496.69 1019.06 496.69"/><line class="cls-21" x1="1019.3" y1="497.66" x2="1019.3" y2="498.14"/><polyline class="cls-21" points="1015.94 498.13 1015.7 498.01 1014.38 498.01"/><polyline class="cls-21" points="1010.3 498.13 1010.18 498.01 1008.74 498.01 1008.62 498.13"/><line class="cls-21" x1="1019.3" y1="497.66" x2="1019.06" y2="497.66"/><path class="cls-21" d="M1019.06,496.82a.36.36,0,1,0,0,.72"/><polyline class="cls-21" points="1019.06 496.81 1019.42 496.81 1019.42 496.1 1033.58 496.1 1033.58 496.69 1033.34 496.69"/><line class="cls-21" x1="1033.58" y1="497.66" x2="1033.58" y2="498.14"/><polyline class="cls-21" points="1030.22 498.13 1029.98 498.01 1028.66 498.01 1028.42 498.13"/><polyline class="cls-21" points="1024.58 498.13 1024.34 498.01 1023.02 498.01 1022.78 498.13"/><line class="cls-21" x1="1019.42" y1="498.14" x2="1019.42" y2="497.54"/><path class="cls-21" d="M1019.06,496.82a.36.36,0,1,0,0,.72"/><line class="cls-21" x1="1019.06" y1="497.54" x2="1019.42" y2="497.54"/><line class="cls-21" x1="1033.58" y1="497.66" x2="1033.34" y2="497.66"/><path class="cls-21" d="M1033.34,496.82a.36.36,0,1,0,0,.72"/><polyline class="cls-21" points="1033.34 496.81 1033.7 496.81 1033.7 496.1 1047.86 496.1 1047.86 496.69 1047.5 496.69"/><line class="cls-21" x1="1047.86" y1="497.66" x2="1047.86" y2="498.14"/><polyline class="cls-21" points="1044.38 498.13 1044.26 498.01 1042.82 498.01 1042.7 498.13"/><polyline class="cls-21" points="1038.86 498.13 1038.62 498.01 1037.3 498.01 1037.06 498.13"/><line class="cls-21" x1="1033.7" y1="498.14" x2="1033.7" y2="497.54"/><path class="cls-21" d="M1033.34,496.82a.36.36,0,1,0,0,.72"/><line class="cls-21" x1="1033.34" y1="497.54" x2="1033.7" y2="497.54"/><line class="cls-21" x1="1047.86" y1="497.66" x2="1047.5" y2="497.66"/><path class="cls-21" d="M1047.5,496.82a.36.36,0,1,0,0,.72"/><polyline class="cls-21" points="1047.5 496.81 1047.86 496.81 1047.86 496.1 1062.02 496.1 1062.02 496.69 1061.78 496.69"/><line class="cls-21" x1="1062.02" y1="497.66" x2="1062.02" y2="498.14"/><polyline class="cls-21" points="1058.66 498.13 1058.42 498.01 1057.1 498.01 1056.86 498.13"/><polyline class="cls-21" points="1053.02 498.13 1052.9 498.01 1051.46 498.01 1051.34 498.13"/><line class="cls-21" x1="1047.86" y1="498.14" x2="1047.86" y2="497.54"/><path class="cls-21" d="M1047.5,496.82a.36.36,0,1,0,0,.72"/><line class="cls-21" x1="1047.5" y1="497.54" x2="1047.86" y2="497.54"/><line class="cls-21" x1="1062.02" y1="497.66" x2="1061.78" y2="497.66"/><path class="cls-21" d="M1061.78,496.82a.36.36,0,1,0,0,.72"/><polyline class="cls-21" points="1061.78 496.81 1062.14 496.81 1062.14 496.1 1076.3 496.1 1076.3 496.69 1076.06 496.69"/><line class="cls-21" x1="1076.3" y1="497.66" x2="1076.3" y2="498.14"/><polyline class="cls-21" points="1072.94 498.13 1072.7 498.01 1071.38 498.01 1071.14 498.13"/><polyline class="cls-21" points="1067.3 498.13 1067.06 498.01 1065.74 498.01 1065.5 498.13"/><line class="cls-21" x1="1062.14" y1="498.14" x2="1062.14" y2="497.54"/><path class="cls-21" d="M1061.78,496.82a.36.36,0,1,0,0,.72"/><line class="cls-21" x1="1061.78" y1="497.54" x2="1062.14" y2="497.54"/><line class="cls-21" x1="1076.3" y1="497.66" x2="1076.06" y2="497.66"/><path class="cls-21" d="M1076.06,496.82a.36.36,0,1,0,0,.72"/><polyline class="cls-21" points="1076.06 496.81 1076.42 496.81 1076.42 496.1 1090.58 496.1 1090.58 496.69 1090.22 496.69"/><line class="cls-21" x1="1090.58" y1="497.66" x2="1090.58" y2="498.14"/><polyline class="cls-21" points="1087.22 498.13 1086.98 498.01 1085.66 498.01 1085.42 498.13"/><polyline class="cls-21" points="1081.58 498.13 1081.34 498.01 1080.02 498.01 1079.78 498.13"/><line class="cls-21" x1="1076.42" y1="498.14" x2="1076.42" y2="497.54"/><path class="cls-21" d="M1076.06,496.82a.36.36,0,1,0,0,.72"/><line class="cls-21" x1="1076.06" y1="497.54" x2="1076.42" y2="497.54"/><line class="cls-21" x1="1090.58" y1="497.66" x2="1090.22" y2="497.66"/><path class="cls-21" d="M1090.22,496.82a.36.36,0,0,0,0,.72"/><polyline class="cls-21" points="1090.22 496.81 1090.58 496.81 1090.58 496.1 1104.86 496.1 1104.86 496.69 1104.5 496.69"/><line class="cls-21" x1="1104.86" y1="497.66" x2="1104.86" y2="498.14"/><polyline class="cls-21" points="1101.38 498.13 1101.14 498.01 1099.82 498.01 1099.7 498.13"/><polyline class="cls-21" points="1095.86 498.13 1095.62 498.01 1094.3 498.01 1094.06 498.13"/><line class="cls-21" x1="1090.58" y1="498.14" x2="1090.58" y2="497.54"/><path class="cls-21" d="M1090.22,496.82a.36.36,0,0,0,0,.72"/><line class="cls-21" x1="1090.22" y1="497.54" x2="1090.58" y2="497.54"/><line class="cls-21" x1="1104.86" y1="497.66" x2="1104.5" y2="497.66"/><path class="cls-21" d="M1104.5,496.82a.36.36,0,1,0,0,.72"/><polyline class="cls-21" points="1104.5 496.81 1104.86 496.81 1104.86 496.1 1119.02 496.1 1119.02 496.69 1118.78 496.69"/><line class="cls-21" x1="1119.02" y1="497.66" x2="1119.02" y2="498.14"/><polyline class="cls-21" points="1115.66 498.13 1115.42 498.01 1114.1 498.01 1113.86 498.13"/><polyline class="cls-21" points="1110.02 498.13 1109.78 498.01 1108.46 498.01 1108.22 498.13"/><line class="cls-21" x1="1104.86" y1="498.14" x2="1104.86" y2="497.54"/><path class="cls-21" d="M1104.5,496.82a.36.36,0,1,0,0,.72"/><line class="cls-21" x1="1104.5" y1="497.54" x2="1104.86" y2="497.54"/><line class="cls-21" x1="1119.02" y1="497.66" x2="1118.78" y2="497.66"/><path class="cls-21" d="M1118.78,496.82a.36.36,0,1,0,0,.72"/><polyline class="cls-21" points="1118.78 496.81 1119.14 496.81 1119.14 496.1 1133.3 496.1 1133.3 496.69 1133.06 496.69"/><line class="cls-21" x1="1133.3" y1="497.66" x2="1133.3" y2="498.14"/><polyline class="cls-21" points="1129.94 498.13 1129.7 498.01 1128.38 498.01 1128.14 498.13"/><polyline class="cls-21" points="1124.3 498.13 1124.06 498.01 1122.74 498.01"/><line class="cls-21" x1="1119.14" y1="498.14" x2="1119.14" y2="497.54"/><path class="cls-21" d="M1118.78,496.82a.36.36,0,1,0,0,.72"/><line class="cls-21" x1="1118.78" y1="497.54" x2="1119.14" y2="497.54"/><line class="cls-21" x1="1133.3" y1="497.66" x2="1133.06" y2="497.66"/><path class="cls-21" d="M1133.06,496.82a.36.36,0,1,0,0,.72"/><polyline class="cls-21" points="1132.94 496.81 1133.42 496.81 1133.42 496.1 1147.58 496.1 1147.58 496.69 1147.22 496.69"/><line class="cls-21" x1="1147.58" y1="497.66" x2="1147.58" y2="498.14"/><polyline class="cls-21" points="1144.1 498.13 1143.86 498.01 1142.54 498.01 1142.42 498.13"/><polyline class="cls-21" points="1138.58 498.13 1138.34 498.01 1137.02 498.01 1136.78 498.13"/><line class="cls-21" x1="1133.42" y1="498.14" x2="1133.42" y2="497.54"/><path class="cls-21" d="M1132.94,496.82a.36.36,0,0,0,0,.72"/><line class="cls-21" x1="1132.94" y1="497.54" x2="1133.42" y2="497.54"/><line class="cls-21" x1="1147.58" y1="497.66" x2="1147.22" y2="497.66"/><path class="cls-21" d="M1147.22,496.82a.36.36,0,0,0,0,.72"/><polyline class="cls-21" points="1147.22 496.81 1147.58 496.81 1147.58 496.1 1161.74 496.1 1161.74 496.69 1161.5 496.69"/><line class="cls-21" x1="1161.74" y1="497.66" x2="1161.74" y2="498.14"/><polyline class="cls-21" points="1158.38 498.13 1158.14 498.01 1156.82 498.01 1156.58 498.13"/><polyline class="cls-21" points="1152.74 498.13 1152.62 498.01 1151.18 498.01 1151.06 498.13"/><line class="cls-21" x1="1147.58" y1="498.14" x2="1147.58" y2="497.54"/><path class="cls-21" d="M1147.22,496.82a.36.36,0,0,0,0,.72"/><line class="cls-21" x1="1147.22" y1="497.54" x2="1147.58" y2="497.54"/><line class="cls-21" x1="1161.74" y1="497.66" x2="1161.5" y2="497.66"/><path class="cls-21" d="M1161.5,496.82a.36.36,0,1,0,0,.72"/><polyline class="cls-21" points="1161.5 496.81 1161.86 496.81 1161.86 496.1 1176.02 496.1 1176.02 496.69 1175.78 496.69"/><line class="cls-21" x1="1176.02" y1="497.66" x2="1176.02" y2="498.14"/><polyline class="cls-21" points="1172.66 498.13 1172.42 498.01 1171.1 498.01"/><polyline class="cls-21" points="1167.02 498.13 1166.78 498.01 1165.46 498.01 1165.22 498.13"/><line class="cls-21" x1="1161.86" y1="498.14" x2="1161.86" y2="497.54"/><path class="cls-21" d="M1161.5,496.82a.36.36,0,1,0,0,.72"/><line class="cls-21" x1="1161.5" y1="497.54" x2="1161.86" y2="497.54"/><line class="cls-21" x1="1176.02" y1="497.66" x2="1175.78" y2="497.66"/><path class="cls-21" d="M1175.78,496.82a.36.36,0,1,0,0,.72"/><polyline class="cls-21" points="1175.78 496.81 1176.14 496.81 1176.14 496.1 1190.3 496.1 1190.3 496.69 1189.94 496.69"/><line class="cls-21" x1="1190.3" y1="497.66" x2="1190.3" y2="498.14"/><polyline class="cls-21" points="1186.82 498.13 1186.7 498.01 1185.26 498.01 1185.14 498.13"/><polyline class="cls-21" points="1181.3 498.13 1181.06 498.01 1179.74 498.01 1179.5 498.13"/><line class="cls-21" x1="1176.14" y1="498.14" x2="1176.14" y2="497.54"/><path class="cls-21" d="M1175.78,496.82a.36.36,0,1,0,0,.72"/><line class="cls-21" x1="1175.78" y1="497.54" x2="1176.14" y2="497.54"/><line class="cls-21" x1="1190.3" y1="497.66" x2="1189.94" y2="497.66"/><path class="cls-21" d="M1189.94,496.82a.36.36,0,0,0,0,.72"/><polyline class="cls-21" points="1189.94 496.81 1190.3 496.81 1190.3 496.1 1204.46 496.1 1204.46 496.69 1204.22 496.69"/><line class="cls-21" x1="1190.3" y1="498.14" x2="1190.3" y2="497.54"/><path class="cls-21" d="M1189.94,496.82a.36.36,0,0,0,0,.72"/><line class="cls-21" x1="1189.94" y1="497.54" x2="1190.3" y2="497.54"/><line class="cls-21" x1="1007.06" y1="496.1" x2="1007.06" y2="487.58"/><path class="cls-22" d="M1006.94,487.58a1.32,1.32,0,0,0-1.32-1.32h0"/><line class="cls-22" x1="1005.02" y1="486.26" x2="1007.06" y2="486.26"/><line class="cls-22" x1="1065.26" y1="486.26" x2="1075.22" y2="486.26"/><line class="cls-22" x1="1133.3" y1="486.26" x2="1137.14" y2="486.26"/><line class="cls-21" x1="1122.74" y1="498.02" x2="1122.5" y2="498.14"/><polyline class="cls-21" points="1014.38 498.01 1014.14 498.13 1014.38 498.01"/><line class="cls-19" x1="1137.14" y1="364.34" x2="1141.94" y2="364.34"/><polyline class="cls-19" points="1137.14 442.33 1137.14 469.21 1373.9 469.21 1373.9 442.33 1137.14 442.33"/><line class="cls-19" x1="1137.14" y1="469.22" x2="1137.14" y2="496.1"/><line class="cls-19" x1="1141.94" y1="496.1" x2="1141.94" y2="469.22"/><line class="cls-19" x1="1137.14" y1="439.34" x2="1137.14" y2="364.34"/><line class="cls-19" x1="1141.94" y1="400.58" x2="1141.94" y2="433.82"/><line class="cls-19" x1="1141.94" y1="364.34" x2="1141.94" y2="399.38"/><line class="cls-19" x1="1141.94" y1="365.66" x2="1369.22" y2="365.66"/><line class="cls-19" x1="1141.94" y1="395.3" x2="1369.22" y2="395.3"/><line class="cls-19" x1="1141.94" y1="494.78" x2="1369.22" y2="494.78"/><line class="cls-19" x1="1369.22" y1="490.1" x2="1141.94" y2="490.1"/><path class="cls-20" d="M1148.66,430.94a6.69,6.69,0,0,0-3.82,1.19"/><path class="cls-20" d="M1149,423.59a73.67,73.67,0,0,0-3.37,7.8"/><path class="cls-20" d="M1254.23,399.37a266.94,266.94,0,0,0-68,1.93"/><path class="cls-20" d="M1144.18,431.23a74.62,74.62,0,0,0-2.69-31.81"/><path class="cls-20" d="M1199.91,405a125.61,125.61,0,0,0-58.31-5.59"/><line class="cls-20" x1="1144.22" y1="431.3" x2="1144.82" y2="432.14"/><path class="cls-20" d="M1148.17,431a16.43,16.43,0,0,0-12.82,16.68"/><polyline class="cls-20" points="1148.18 430.94 1247.3 430.94 1362.5 430.94"/><path class="cls-20" d="M1135.4,447.69A176.2,176.2,0,0,0,1132,476"/><path class="cls-20" d="M1132,475.88a7.31,7.31,0,0,0,5.22-.42"/><line class="cls-19" x1="1065.26" y1="496.1" x2="1065.26" y2="363.62"/><polyline class="cls-19" points="1065.26 361.45 1007.06 361.45 1007.06 496.1"/><line class="cls-19" x1="1063.1" y1="363.62" x2="1063.1" y2="496.1"/><line class="cls-19" x1="1065.26" y1="363.62" x2="1007.06" y2="363.62"/><line class="cls-19" x1="1065.26" y1="405.38" x2="1063.1" y2="405.38"/><line class="cls-19" x1="1065.26" y1="447.26" x2="1063.1" y2="447.26"/><line class="cls-19" x1="1065.26" y1="489.02" x2="1063.1" y2="489.02"/><line class="cls-19" x1="1067.06" y1="407.9" x2="1065.26" y2="407.9"/><line class="cls-19" x1="1065.26" y1="409.7" x2="1065.86" y2="409.7"/><line class="cls-19" x1="1067.06" y1="407.9" x2="1068.86" y2="411.5"/><polyline class="cls-19" points="1067.18 409.69 1068.02 411.5 1068.86 411.5"/><polyline class="cls-19" points="1065.86 409.69 1066.22 409.69 1067.18 409.69"/><line class="cls-19" x1="1067.06" y1="366.14" x2="1065.26" y2="366.14"/><line class="cls-19" x1="1065.26" y1="367.82" x2="1065.86" y2="367.82"/><line class="cls-19" x1="1067.06" y1="366.14" x2="1068.86" y2="369.62"/><polyline class="cls-19" points="1067.18 367.81 1068.02 369.62 1068.86 369.62"/><polyline class="cls-19" points="1065.86 367.81 1066.22 367.81 1067.18 367.81"/><line class="cls-19" x1="1067.06" y1="449.66" x2="1065.26" y2="449.66"/><line class="cls-19" x1="1065.26" y1="451.46" x2="1065.86" y2="451.46"/><line class="cls-19" x1="1067.06" y1="449.66" x2="1068.86" y2="453.26"/><polyline class="cls-19" points="1067.18 451.45 1068.02 453.25 1068.86 453.25"/><polyline class="cls-19" points="1065.86 451.45 1066.22 451.45 1067.18 451.45"/><line class="cls-19" x1="1065.26" y1="363.62" x2="1065.26" y2="361.46"/><line class="cls-20" x1="1130.06" y1="334.22" x2="1380.98" y2="334.22"/><polyline class="cls-20" points="1380.98 220.81 1130.06 220.81 1130.06 334.21"/><polyline class="cls-20" points="1373.9 227.9 1137.14 227.9 1137.14 327.13 1373.9 327.13 1373.9 227.9"/><line class="cls-20" x1="1137.14" y1="227.9" x2="1130.06" y2="220.82"/><line class="cls-20" x1="1137.14" y1="327.14" x2="1130.06" y2="334.22"/><line class="cls-20" x1="1294.94" y1="316.94" x2="1137.14" y2="277.46"/><line class="cls-20" x1="1298.18" y1="308.06" x2="1137.14" y2="227.9"/><line class="cls-20" x1="1097.06" y1="410.78" x2="1097.06" y2="388.34"/><line class="cls-20" x1="1096.1" y1="410.78" x2="1096.1" y2="388.34"/><line class="cls-20" x1="1091.54" y1="426.62" x2="1091.54" y2="410.78"/><line class="cls-20" x1="1092.5" y1="426.62" x2="1092.5" y2="410.78"/><line class="cls-20" x1="1087.22" y1="410.78" x2="1087.22" y2="388.34"/><line class="cls-20" x1="1088.18" y1="410.78" x2="1088.18" y2="388.34"/><polyline class="cls-20" points="1099.82 410.77 1084.34 410.77 1084.34 388.33 1099.82 388.33 1099.82 410.77"/><line class="cls-20" x1="1084.58" y1="409.82" x2="1084.58" y2="388.34"/><line class="cls-20" x1="1085.3" y1="409.82" x2="1085.3" y2="388.34"/><line class="cls-20" x1="1086.14" y1="402.26" x2="1086.14" y2="388.34"/><line class="cls-20" x1="1086.86" y1="399.98" x2="1086.86" y2="388.34"/><line class="cls-20" x1="1087.58" y1="398.3" x2="1087.58" y2="388.34"/><line class="cls-20" x1="1088.42" y1="396.98" x2="1088.42" y2="388.34"/><line class="cls-20" x1="1089.14" y1="395.78" x2="1089.14" y2="388.34"/><line class="cls-20" x1="1089.98" y1="394.82" x2="1089.98" y2="388.34"/><line class="cls-20" x1="1090.7" y1="393.98" x2="1090.7" y2="388.34"/><line class="cls-20" x1="1091.42" y1="393.14" x2="1091.42" y2="388.34"/><line class="cls-20" x1="1092.26" y1="392.42" x2="1092.26" y2="388.34"/><line class="cls-20" x1="1092.98" y1="391.82" x2="1092.98" y2="388.34"/><line class="cls-20" x1="1093.7" y1="391.22" x2="1093.7" y2="388.34"/><line class="cls-20" x1="1094.54" y1="390.62" x2="1094.54" y2="388.34"/><line class="cls-20" x1="1095.26" y1="390.14" x2="1095.26" y2="388.34"/><line class="cls-20" x1="1095.98" y1="389.78" x2="1095.98" y2="388.34"/><line class="cls-20" x1="1083.62" y1="426.62" x2="1099.22" y2="426.62"/><line class="cls-20" x1="1084.34" y1="409.82" x2="1099.82" y2="409.82"/><path class="cls-20" d="M1099,388.42a20.4,20.4,0,0,0-13.37,22.39"/><line class="cls-20" x1="1099.22" y1="426.62" x2="1099.22" y2="428.06"/><line class="cls-20" x1="1083.62" y1="428.06" x2="1083.62" y2="426.62"/><line class="cls-20" x1="1107.86" y1="428.06" x2="1129.1" y2="428.06"/><line class="cls-20" x1="1129.1" y1="425.3" x2="1107.86" y2="425.3"/><path class="cls-20" d="M1107.9,425.26a2,2,0,0,0,0,2.71"/><path class="cls-20" d="M1129.1,428a4.17,4.17,0,0,0,0-2.79"/><line class="cls-20" x1="1105.1" y1="423.14" x2="1122.14" y2="423.14"/><line class="cls-20" x1="1122.14" y1="425.3" x2="1105.1" y2="425.3"/><path class="cls-20" d="M1105.05,423.15a3.12,3.12,0,0,0,0,2.13"/><path class="cls-20" d="M1122,425.23a2.76,2.76,0,0,0,0-2"/><polyline class="cls-20" points="1106.42 423.62 1106.42 424.69 1121.18 424.69 1121.18 423.62 1106.42 423.62"/><polyline class="cls-20" points="1108.7 425.65 1108.7 427.57 1128.26 427.57 1128.26 425.65 1108.7 425.65"/><line class="cls-20" x1="1100.06" y1="1038.26" x2="1100.06" y2="1038.26"/><rect class="cls-25" x="1099.94" y="1038.14" width="0.12" height="0.12"/><polyline class="cls-19" points="1100.06 1052.41 1056.02 1052.41 1056.02 1048.21 1169.42 1048.21 1169.42 1052.41 1100.06 1052.41"/><polyline class="cls-19" points="1138.58 1005.38 1045.46 1005.38 1045.46 1001.17 1138.58 1001.17 1138.58 1005.38"/><polyline class="cls-19" points="1275.38 1011.38 1182.38 1011.38 1182.38 1007.17 1275.38 1007.17 1275.38 1011.38"/><line class="cls-20" x1="1059.14" y1="1000.94" x2="1059.14" y2="972.62"/><line class="cls-20" x1="1061.3" y1="972.62" x2="1061.3" y2="1001.18"/><line class="cls-19" x1="1061.3" y1="1001.18" x2="1059.14" y2="1001.18"/><line class="cls-21" x1="1059.14" y1="1001.18" x2="1059.14" y2="1000.94"/><line class="cls-20" x1="1061.3" y1="972.62" x2="1061.3" y2="965.54"/><line class="cls-20" x1="1065.5" y1="965.54" x2="1065.5" y2="1001.18"/><line class="cls-20" x1="1069.7" y1="965.54" x2="1069.7" y2="1001.18"/><line class="cls-20" x1="1069.7" y1="972.62" x2="1069.7" y2="968.3"/><line class="cls-20" x1="1072.58" y1="968.3" x2="1072.58" y2="1001.18"/><line class="cls-20" x1="1072.58" y1="972.62" x2="1072.58" y2="971.18"/><line class="cls-20" x1="1074.02" y1="971.18" x2="1074.02" y2="1001.18"/><line class="cls-20" x1="1075.46" y1="971.18" x2="1075.46" y2="1001.18"/><line class="cls-20" x1="1075.46" y1="1000.94" x2="1075.46" y2="972.62"/><polyline class="cls-20" points="1077.5 1001.17 1077.5 972.62 1077.5 965.53"/><line class="cls-20" x1="1081.82" y1="965.54" x2="1081.82" y2="1001.18"/><line class="cls-20" x1="1086.02" y1="965.54" x2="1086.02" y2="1001.18"/><line class="cls-20" x1="1086.02" y1="972.62" x2="1086.02" y2="968.3"/><line class="cls-20" x1="1088.9" y1="968.3" x2="1088.9" y2="1001.18"/><line class="cls-20" x1="1088.9" y1="972.62" x2="1088.9" y2="971.18"/><line class="cls-20" x1="1090.34" y1="971.18" x2="1090.34" y2="1001.18"/><line class="cls-20" x1="1091.66" y1="971.18" x2="1091.66" y2="1001.18"/><path class="cls-20" d="M1061.26,972.69a2.87,2.87,0,0,0-2.08,0"/><path class="cls-20" d="M1065.43,965.54a4.79,4.79,0,0,0-4.18,0"/><path class="cls-20" d="M1072.58,968.41l-.06-.14"/><path class="cls-20" d="M1069.77,965.49a5.33,5.33,0,0,0-4.22,0"/><path class="cls-20" d="M1072.51,968.42a2.74,2.74,0,0,0-2.74,0"/><path class="cls-20" d="M1077.6,972.57a1.94,1.94,0,0,0-2.12,0"/><path class="cls-20" d="M1081.74,965.54a4.68,4.68,0,0,0-4.16,0"/><path class="cls-20" d="M1086.1,965.53a4.09,4.09,0,0,0-4.24,0"/><path class="cls-20" d="M1088.87,968.41a3,3,0,0,0-2.82,0"/><path class="cls-20" d="M1090.27,971.25a1.18,1.18,0,0,0-1.3,0"/><path class="cls-20" d="M1091.72,971.26a1.18,1.18,0,0,0-1.32,0"/><path class="cls-20" d="M1074,971.17a1.2,1.2,0,0,0-1.42,0"/><path class="cls-20" d="M1075.43,971.19a1.06,1.06,0,0,0-1.38,0"/><polyline class="cls-20" points="1071.02 1048.21 1071.02 1019.65 1071.02 1012.46"/><line class="cls-20" x1="1075.22" y1="1012.46" x2="1075.22" y2="1048.22"/><line class="cls-20" x1="1079.54" y1="1012.46" x2="1079.54" y2="1048.22"/><path class="cls-20" d="M1075.27,1012.58a4.79,4.79,0,0,0-4.18,0"/><path class="cls-20" d="M1079.49,1012.53a5.33,5.33,0,0,0-4.22,0"/><line class="cls-20" x1="1083.74" y1="1012.46" x2="1083.74" y2="1048.22"/><line class="cls-20" x1="1088.06" y1="1012.46" x2="1088.06" y2="1048.22"/><path class="cls-20" d="M1083.79,1012.58a4.79,4.79,0,0,0-4.18,0"/><path class="cls-20" d="M1088,1012.53a5.33,5.33,0,0,0-4.22,0"/><line class="cls-20" x1="1092.26" y1="1012.46" x2="1092.26" y2="1048.22"/><line class="cls-20" x1="1096.58" y1="1012.46" x2="1096.58" y2="1048.22"/><path class="cls-20" d="M1092.19,1012.58a4.79,4.79,0,0,0-4.18,0"/><path class="cls-20" d="M1096.53,1012.53a5.33,5.33,0,0,0-4.22,0"/><line class="cls-20" x1="1100.78" y1="1012.46" x2="1100.78" y2="1048.22"/><line class="cls-20" x1="1105.1" y1="1012.46" x2="1105.1" y2="1048.22"/><path class="cls-20" d="M1100.71,1012.58a4.79,4.79,0,0,0-4.18,0"/><path class="cls-20" d="M1105.05,1012.53a5.33,5.33,0,0,0-4.22,0"/><line class="cls-20" x1="1109.3" y1="1012.46" x2="1109.3" y2="1048.22"/><line class="cls-20" x1="1113.5" y1="1012.46" x2="1113.5" y2="1048.22"/><path class="cls-20" d="M1109.23,1012.58a4.79,4.79,0,0,0-4.18,0"/><path class="cls-20" d="M1113.57,1012.53a5.33,5.33,0,0,0-4.22,0"/><line class="cls-20" x1="1117.82" y1="1012.46" x2="1117.82" y2="1048.22"/><line class="cls-20" x1="1122.02" y1="1012.46" x2="1122.02" y2="1048.22"/><path class="cls-20" d="M1117.75,1012.58a4.79,4.79,0,0,0-4.18,0"/><path class="cls-20" d="M1122.09,1012.53a5.33,5.33,0,0,0-4.22,0"/><line class="cls-20" x1="1126.34" y1="1012.46" x2="1126.34" y2="1048.22"/><line class="cls-20" x1="1130.54" y1="1012.46" x2="1130.54" y2="1048.22"/><path class="cls-20" d="M1126.27,1012.58a4.79,4.79,0,0,0-4.18,0"/><path class="cls-20" d="M1130.49,1012.53a5.33,5.33,0,0,0-4.22,0"/><polyline class="cls-20" points="340.22 818.65 344.54 818.65 344.54 811.46"/><polyline class="cls-20" points="394.22 841.1 394.22 816.98 377.3 816.98"/><polyline class="cls-20" points="394.22 841.1 377.3 841.1 377.3 816.98"/><circle class="cls-20" cx="368.69" cy="860.99" r="7.68"/><path class="cls-20" d="M379.82,534.62a7.68,7.68,0,1,0-7.68,7.68h0A7.68,7.68,0,0,0,379.82,534.62Z"/><line class="cls-19" x1="737.42" y1="656.3" x2="758.66" y2="656.3"/><line class="cls-19" x1="737.42" y1="812.18" x2="758.66" y2="812.18"/><polyline class="cls-19" points="758.66 532.46 737.42 532.46 737.42 656.29"/><polyline class="cls-19" points="758.66 669.25 737.42 669.25 737.42 812.17"/><polyline class="cls-19" points="758.66 762.38 748.1 762.38 737.42 762.38"/><line class="cls-20" x1="738.14" y1="772.58" x2="758.66" y2="772.58"/><line class="cls-20" x1="738.14" y1="776.9" x2="758.66" y2="776.9"/><line class="cls-20" x1="737.78" y1="779.66" x2="758.66" y2="779.66"/><line class="cls-20" x1="737.78" y1="781.1" x2="758.66" y2="781.1"/><line class="cls-20" x1="737.78" y1="782.54" x2="758.66" y2="782.54"/><line class="cls-20" x1="738.14" y1="768.38" x2="758.66" y2="768.38"/><path class="cls-20" d="M738.26,768.45a3.38,3.38,0,0,0,0,4.17"/><path class="cls-20" d="M738.27,772.65a3.37,3.37,0,0,0,0,4.18"/><path class="cls-20" d="M738.26,777a1.68,1.68,0,0,0-.42,2.34h0a1.72,1.72,0,0,0,.42.43"/><path class="cls-20" d="M737.85,779.73a.84.84,0,0,0-.12,1.18l.12.11"/><path class="cls-20" d="M737.85,781.17a.84.84,0,0,0-.12,1.18l.12.11"/><line class="cls-19" x1="737.42" y1="532.46" x2="737.42" y2="546.02"/><line class="cls-20" x1="738.14" y1="568.7" x2="758.66" y2="568.7"/><line class="cls-20" x1="738.14" y1="573.02" x2="758.66" y2="573.02"/><line class="cls-20" x1="737.78" y1="575.78" x2="758.66" y2="575.78"/><line class="cls-20" x1="737.78" y1="577.22" x2="758.66" y2="577.22"/><line class="cls-20" x1="737.78" y1="578.66" x2="758.66" y2="578.66"/><line class="cls-20" x1="738.14" y1="564.5" x2="758.66" y2="564.5"/><path class="cls-20" d="M738.26,564.57a3.38,3.38,0,0,0,0,4.17"/><path class="cls-20" d="M738.27,568.77a3.37,3.37,0,0,0,0,4.18"/><path class="cls-20" d="M738.26,573a1.68,1.68,0,0,0-.42,2.34h0a1.72,1.72,0,0,0,.42.43"/><path class="cls-20" d="M737.85,575.85a.84.84,0,0,0-.12,1.18l.12.11"/><path class="cls-20" d="M737.85,577.29a.84.84,0,0,0-.12,1.18l.12.11"/><line class="cls-20" x1="738.14" y1="552.38" x2="758.66" y2="552.38"/><line class="cls-20" x1="738.14" y1="556.7" x2="758.66" y2="556.7"/><line class="cls-20" x1="737.78" y1="559.46" x2="758.66" y2="559.46"/><line class="cls-20" x1="737.78" y1="560.9" x2="758.66" y2="560.9"/><line class="cls-20" x1="737.78" y1="562.34" x2="758.66" y2="562.34"/><line class="cls-20" x1="738.14" y1="548.18" x2="758.66" y2="548.18"/><path class="cls-20" d="M738.26,548.25a3.38,3.38,0,0,0,0,4.17"/><path class="cls-20" d="M738.27,552.45a3.37,3.37,0,0,0,0,4.18"/><path class="cls-20" d="M738.26,556.75a1.68,1.68,0,0,0-.42,2.34h0a1.72,1.72,0,0,0,.42.43"/><path class="cls-20" d="M737.85,559.53a.84.84,0,0,0-.12,1.18l.12.11"/><path class="cls-20" d="M737.85,561a.84.84,0,0,0-.12,1.18l.12.11"/><line class="cls-26" x1="757.22" y1="812.18" x2="757.22" y2="820.22"/><path class="cls-26" d="M757.34,820.23a1.45,1.45,0,0,0,1.29,1.54"/><line class="cls-18" x1="659.9" y1="499.22" x2="665.78" y2="493.34"/><line class="cls-18" x1="659.9" y1="505.58" x2="672.14" y2="493.34"/><line class="cls-18" x1="659.9" y1="511.94" x2="678.5" y2="493.34"/><line class="cls-18" x1="664.34" y1="513.86" x2="684.86" y2="493.34"/><line class="cls-18" x1="670.7" y1="513.86" x2="691.22" y2="493.34"/><line class="cls-18" x1="677.06" y1="513.86" x2="697.58" y2="493.34"/><line class="cls-18" x1="683.42" y1="513.86" x2="703.94" y2="493.34"/><line class="cls-18" x1="689.9" y1="513.86" x2="710.3" y2="493.34"/><line class="cls-18" x1="696.26" y1="513.86" x2="716.66" y2="493.34"/><line class="cls-18" x1="702.62" y1="513.86" x2="723.02" y2="493.34"/><line class="cls-18" x1="708.98" y1="513.86" x2="729.38" y2="493.34"/><line class="cls-18" x1="715.34" y1="513.86" x2="735.74" y2="493.34"/><line class="cls-18" x1="721.7" y1="513.86" x2="742.1" y2="493.34"/><line class="cls-18" x1="728.06" y1="513.86" x2="748.46" y2="493.34"/><line class="cls-18" x1="734.42" y1="513.86" x2="754.82" y2="493.34"/><line class="cls-18" x1="740.78" y1="513.86" x2="761.18" y2="493.34"/><line class="cls-18" x1="747.14" y1="513.86" x2="767.66" y2="493.34"/><line class="cls-18" x1="753.5" y1="513.86" x2="774.02" y2="493.34"/><line class="cls-18" x1="758.66" y1="515.06" x2="780.38" y2="493.34"/><line class="cls-18" x1="758.66" y1="521.42" x2="786.74" y2="493.34"/><line class="cls-18" x1="758.66" y1="527.78" x2="793.1" y2="493.34"/><line class="cls-18" x1="758.66" y1="534.14" x2="799.46" y2="493.34"/><line class="cls-18" x1="758.66" y1="540.5" x2="779.18" y2="519.98"/><line class="cls-18" x1="785.3" y1="513.86" x2="805.82" y2="493.34"/><line class="cls-18" x1="758.66" y1="546.86" x2="779.18" y2="526.34"/><line class="cls-18" x1="791.66" y1="513.86" x2="807.5" y2="498.02"/><line class="cls-18" x1="758.66" y1="553.22" x2="779.18" y2="532.7"/><line class="cls-18" x1="798.02" y1="513.86" x2="807.5" y2="504.38"/><line class="cls-18" x1="758.66" y1="559.58" x2="779.18" y2="539.06"/><line class="cls-18" x1="804.38" y1="513.86" x2="807.5" y2="510.74"/><line class="cls-18" x1="758.66" y1="565.94" x2="779.18" y2="545.42"/><line class="cls-18" x1="758.66" y1="572.3" x2="779.18" y2="551.78"/><line class="cls-18" x1="758.66" y1="578.66" x2="779.18" y2="558.14"/><line class="cls-18" x1="758.66" y1="585.02" x2="779.18" y2="564.5"/><line class="cls-18" x1="758.66" y1="591.38" x2="779.18" y2="570.86"/><line class="cls-18" x1="758.66" y1="597.74" x2="779.18" y2="577.22"/><line class="cls-18" x1="758.66" y1="604.1" x2="779.18" y2="583.58"/><line class="cls-18" x1="758.66" y1="610.46" x2="779.18" y2="589.94"/><line class="cls-18" x1="758.66" y1="616.82" x2="779.18" y2="596.3"/><line class="cls-18" x1="758.66" y1="623.18" x2="779.18" y2="602.66"/><line class="cls-18" x1="758.66" y1="629.54" x2="779.18" y2="609.02"/><line class="cls-18" x1="758.66" y1="635.9" x2="779.18" y2="615.38"/><line class="cls-18" x1="758.66" y1="642.26" x2="779.18" y2="621.86"/><line class="cls-18" x1="758.66" y1="648.62" x2="779.18" y2="628.22"/><line class="cls-18" x1="758.66" y1="654.98" x2="779.18" y2="634.58"/><line class="cls-18" x1="758.66" y1="661.34" x2="779.18" y2="640.94"/><line class="cls-18" x1="758.66" y1="667.7" x2="779.18" y2="647.3"/><line class="cls-18" x1="758.66" y1="674.06" x2="779.18" y2="653.66"/><line class="cls-18" x1="758.66" y1="680.42" x2="779.18" y2="660.02"/><line class="cls-18" x1="758.66" y1="686.78" x2="779.18" y2="666.38"/><line class="cls-18" x1="758.66" y1="693.14" x2="779.18" y2="672.74"/><line class="cls-18" x1="758.66" y1="699.62" x2="779.18" y2="679.1"/><line class="cls-18" x1="758.66" y1="705.98" x2="779.18" y2="685.46"/><line class="cls-18" x1="758.66" y1="712.34" x2="779.18" y2="691.82"/><line class="cls-18" x1="758.66" y1="718.7" x2="779.18" y2="698.18"/><line class="cls-18" x1="758.66" y1="725.06" x2="779.18" y2="704.54"/><line class="cls-18" x1="758.66" y1="731.42" x2="779.18" y2="710.9"/><line class="cls-18" x1="758.66" y1="737.78" x2="779.18" y2="717.26"/><line class="cls-18" x1="758.66" y1="744.14" x2="779.18" y2="723.62"/><line class="cls-18" x1="758.66" y1="750.5" x2="779.18" y2="729.98"/><line class="cls-18" x1="758.66" y1="756.86" x2="779.18" y2="736.34"/><line class="cls-18" x1="758.66" y1="763.22" x2="779.18" y2="742.7"/><line class="cls-18" x1="758.66" y1="769.58" x2="779.18" y2="749.06"/><line class="cls-18" x1="758.66" y1="775.94" x2="779.18" y2="755.42"/><line class="cls-18" x1="758.66" y1="782.3" x2="779.18" y2="761.78"/><line class="cls-18" x1="758.66" y1="788.66" x2="779.18" y2="768.14"/><line class="cls-18" x1="758.66" y1="795.02" x2="779.18" y2="774.5"/><line class="cls-18" x1="758.66" y1="801.38" x2="779.18" y2="780.86"/><line class="cls-18" x1="758.66" y1="807.74" x2="779.18" y2="787.22"/><line class="cls-18" x1="758.66" y1="814.1" x2="779.18" y2="793.58"/><line class="cls-18" x1="758.66" y1="820.46" x2="779.18" y2="800.06"/><line class="cls-18" x1="758.66" y1="826.82" x2="779.18" y2="806.42"/><line class="cls-18" x1="762.02" y1="829.82" x2="779.18" y2="812.78"/><line class="cls-18" x1="768.38" y1="829.82" x2="779.18" y2="819.14"/><line class="cls-18" x1="774.74" y1="829.82" x2="779.18" y2="825.5"/><polyline class="cls-18" points="779.18 829.82 779.18 513.86 807.5 513.86"/><polyline class="cls-18" points="807.5 493.33 779.18 493.33 659.9 493.33 659.9 513.86 758.66 513.86 758.66 829.82 779.18 829.82"/><line class="cls-18" x1="961.7" y1="156.26" x2="963.5" y2="154.46"/><line class="cls-18" x1="983.06" y1="135.02" x2="984.74" y2="133.22"/><line class="cls-18" x1="961.7" y1="162.62" x2="969.86" y2="154.46"/><line class="cls-18" x1="983.06" y1="141.38" x2="991.1" y2="133.22"/><line class="cls-18" x1="961.7" y1="168.98" x2="976.22" y2="154.46"/><line class="cls-18" x1="983.06" y1="147.74" x2="997.46" y2="133.22"/><line class="cls-18" x1="967.94" y1="169.1" x2="982.58" y2="154.46"/><line class="cls-18" x1="983.06" y1="154.1" x2="1003.82" y2="133.22"/><line class="cls-18" x1="974.3" y1="169.1" x2="1005.02" y2="138.5"/><line class="cls-18" x1="980.66" y1="169.1" x2="1005.02" y2="144.86"/><line class="cls-18" x1="983.06" y1="173.18" x2="1005.02" y2="151.22"/><line class="cls-18" x1="983.06" y1="179.54" x2="1008.02" y2="154.46"/><line class="cls-18" x1="983.06" y1="185.9" x2="1014.38" y2="154.46"/><line class="cls-18" x1="983.06" y1="192.26" x2="1005.02" y2="170.3"/><line class="cls-18" x1="1006.22" y1="169.1" x2="1020.74" y2="154.46"/><line class="cls-18" x1="983.06" y1="198.62" x2="1005.02" y2="176.66"/><line class="cls-18" x1="1012.58" y1="169.1" x2="1027.1" y2="154.46"/><line class="cls-18" x1="983.06" y1="204.98" x2="1005.02" y2="183.02"/><line class="cls-18" x1="1018.94" y1="169.1" x2="1033.58" y2="154.46"/><line class="cls-18" x1="983.06" y1="211.34" x2="1005.02" y2="189.38"/><line class="cls-18" x1="1025.3" y1="169.1" x2="1039.94" y2="154.46"/><line class="cls-18" x1="983.06" y1="217.7" x2="1005.02" y2="195.74"/><line class="cls-18" x1="1031.66" y1="169.1" x2="1046.3" y2="154.46"/><line class="cls-18" x1="983.06" y1="224.06" x2="1005.02" y2="202.1"/><line class="cls-18" x1="1038.02" y1="169.1" x2="1052.66" y2="154.46"/><line class="cls-18" x1="983.06" y1="230.42" x2="1005.02" y2="208.46"/><line class="cls-18" x1="1044.38" y1="169.1" x2="1059.02" y2="154.46"/><line class="cls-18" x1="983.06" y1="236.78" x2="1005.02" y2="214.82"/><line class="cls-18" x1="1050.74" y1="169.1" x2="1065.38" y2="154.46"/><line class="cls-18" x1="983.06" y1="243.14" x2="1005.02" y2="221.18"/><line class="cls-18" x1="1057.1" y1="169.1" x2="1071.74" y2="154.46"/><line class="cls-18" x1="983.06" y1="249.5" x2="1005.02" y2="227.54"/><line class="cls-18" x1="1063.46" y1="169.1" x2="1078.1" y2="154.46"/><line class="cls-18" x1="983.06" y1="255.86" x2="1005.02" y2="233.9"/><line class="cls-18" x1="1069.82" y1="169.1" x2="1084.46" y2="154.46"/><line class="cls-18" x1="983.06" y1="262.22" x2="1005.02" y2="240.26"/><line class="cls-18" x1="1076.18" y1="169.1" x2="1090.82" y2="154.46"/><line class="cls-18" x1="983.06" y1="268.58" x2="1005.02" y2="246.62"/><line class="cls-18" x1="1082.54" y1="169.1" x2="1097.18" y2="154.46"/><line class="cls-18" x1="983.06" y1="274.94" x2="1005.02" y2="252.98"/><line class="cls-18" x1="1088.9" y1="169.1" x2="1103.54" y2="154.46"/><line class="cls-18" x1="983.06" y1="281.3" x2="1005.02" y2="259.34"/><line class="cls-18" x1="1095.26" y1="169.1" x2="1109.9" y2="154.46"/><line class="cls-18" x1="983.06" y1="287.66" x2="1005.02" y2="265.7"/><line class="cls-18" x1="1101.62" y1="169.1" x2="1116.26" y2="154.46"/><line class="cls-18" x1="983.06" y1="294.02" x2="1005.02" y2="272.18"/><line class="cls-18" x1="1107.98" y1="169.1" x2="1122.62" y2="154.46"/><line class="cls-18" x1="983.06" y1="300.38" x2="1005.02" y2="278.54"/><line class="cls-18" x1="1114.34" y1="169.1" x2="1128.98" y2="154.46"/><line class="cls-18" x1="983.06" y1="306.74" x2="1005.02" y2="284.9"/><line class="cls-18" x1="1120.7" y1="169.1" x2="1135.34" y2="154.46"/><line class="cls-18" x1="983.06" y1="313.22" x2="1005.02" y2="291.26"/><line class="cls-18" x1="1127.06" y1="169.1" x2="1141.7" y2="154.46"/><line class="cls-18" x1="983.06" y1="319.58" x2="1005.02" y2="297.62"/><line class="cls-18" x1="1133.42" y1="169.1" x2="1148.06" y2="154.46"/><line class="cls-18" x1="983.06" y1="325.94" x2="1005.02" y2="303.98"/><line class="cls-18" x1="1139.78" y1="169.1" x2="1154.42" y2="154.46"/><line class="cls-18" x1="983.06" y1="332.3" x2="1005.02" y2="310.34"/><line class="cls-18" x1="1146.14" y1="169.1" x2="1160.78" y2="154.46"/><line class="cls-18" x1="983.06" y1="338.66" x2="1005.02" y2="316.7"/><line class="cls-18" x1="1152.5" y1="169.1" x2="1167.14" y2="154.46"/><line class="cls-18" x1="983.06" y1="345.02" x2="1005.02" y2="323.06"/><line class="cls-18" x1="1158.86" y1="169.1" x2="1173.5" y2="154.46"/><line class="cls-18" x1="983.06" y1="351.38" x2="1005.02" y2="329.42"/><line class="cls-18" x1="1165.22" y1="169.1" x2="1179.86" y2="154.46"/><line class="cls-18" x1="983.06" y1="357.74" x2="1005.02" y2="335.78"/><line class="cls-18" x1="1171.58" y1="169.1" x2="1186.22" y2="154.46"/><line class="cls-18" x1="983.06" y1="364.1" x2="1005.02" y2="342.14"/><line class="cls-18" x1="1177.94" y1="169.1" x2="1192.58" y2="154.46"/><line class="cls-18" x1="983.06" y1="370.46" x2="1005.02" y2="348.5"/><line class="cls-18" x1="1184.3" y1="169.1" x2="1198.94" y2="154.46"/><line class="cls-18" x1="983.06" y1="376.82" x2="1005.02" y2="354.86"/><line class="cls-18" x1="1190.78" y1="169.1" x2="1205.3" y2="154.46"/><line class="cls-18" x1="983.06" y1="383.18" x2="1005.02" y2="361.22"/><line class="cls-18" x1="983.06" y1="389.54" x2="1005.02" y2="367.58"/><line class="cls-18" x1="983.06" y1="395.9" x2="1005.02" y2="373.94"/><line class="cls-18" x1="983.06" y1="402.26" x2="1005.02" y2="380.3"/><line class="cls-18" x1="983.06" y1="408.62" x2="1005.02" y2="386.66"/><line class="cls-18" x1="983.06" y1="414.98" x2="1005.02" y2="393.02"/><line class="cls-18" x1="983.06" y1="421.34" x2="1005.02" y2="399.38"/><line class="cls-18" x1="983.06" y1="427.7" x2="1005.02" y2="405.74"/><line class="cls-18" x1="983.06" y1="434.06" x2="1005.02" y2="412.1"/><line class="cls-18" x1="983.06" y1="440.42" x2="1005.02" y2="418.46"/><line class="cls-18" x1="983.06" y1="446.78" x2="1005.02" y2="424.82"/><line class="cls-18" x1="983.06" y1="453.14" x2="1005.02" y2="431.18"/><line class="cls-18" x1="983.06" y1="459.5" x2="1005.02" y2="437.54"/><line class="cls-18" x1="983.06" y1="465.86" x2="1005.02" y2="443.9"/><line class="cls-18" x1="983.06" y1="472.22" x2="1005.02" y2="450.38"/><line class="cls-18" x1="961.7" y1="499.94" x2="963.5" y2="498.14"/><line class="cls-18" x1="983.06" y1="478.58" x2="1005.02" y2="456.74"/><line class="cls-18" x1="961.7" y1="506.3" x2="969.86" y2="498.14"/><line class="cls-18" x1="983.06" y1="484.94" x2="1005.02" y2="463.1"/><line class="cls-18" x1="961.7" y1="512.66" x2="976.22" y2="498.14"/><line class="cls-18" x1="983.06" y1="491.42" x2="1005.02" y2="469.46"/><line class="cls-18" x1="967.94" y1="512.78" x2="982.58" y2="498.14"/><line class="cls-18" x1="983.06" y1="497.78" x2="1005.02" y2="475.82"/><line class="cls-18" x1="974.3" y1="512.78" x2="1005.02" y2="482.18"/><line class="cls-18" x1="980.66" y1="512.78" x2="1005.02" y2="488.54"/><line class="cls-18" x1="983.06" y1="516.86" x2="1005.02" y2="494.9"/><line class="cls-18" x1="983.06" y1="523.22" x2="1008.02" y2="498.14"/><line class="cls-18" x1="983.06" y1="529.58" x2="1014.38" y2="498.14"/><line class="cls-18" x1="983.06" y1="535.94" x2="1005.02" y2="513.98"/><line class="cls-18" x1="1006.1" y1="512.78" x2="1020.74" y2="498.14"/><line class="cls-18" x1="983.18" y1="542.06" x2="1005.02" y2="520.34"/><line class="cls-18" x1="1012.46" y1="512.78" x2="1027.1" y2="498.14"/><line class="cls-18" x1="989.54" y1="542.06" x2="1005.02" y2="526.7"/><line class="cls-18" x1="1018.82" y1="512.78" x2="1033.46" y2="498.14"/><line class="cls-18" x1="995.9" y1="542.06" x2="1005.02" y2="533.06"/><line class="cls-18" x1="1025.18" y1="512.78" x2="1039.82" y2="498.14"/><line class="cls-18" x1="1002.26" y1="542.06" x2="1005.02" y2="539.42"/><line class="cls-18" x1="1031.54" y1="512.78" x2="1046.18" y2="498.14"/><line class="cls-18" x1="1037.9" y1="512.78" x2="1052.54" y2="498.14"/><line class="cls-18" x1="1044.26" y1="512.78" x2="1058.9" y2="498.14"/><line class="cls-18" x1="1050.62" y1="512.78" x2="1065.26" y2="498.14"/><line class="cls-18" x1="1056.98" y1="512.78" x2="1071.62" y2="498.14"/><line class="cls-18" x1="1063.34" y1="512.78" x2="1077.98" y2="498.14"/><line class="cls-18" x1="1069.7" y1="512.78" x2="1084.34" y2="498.14"/><line class="cls-18" x1="1076.06" y1="512.78" x2="1090.7" y2="498.14"/><line class="cls-18" x1="1082.42" y1="512.78" x2="1097.06" y2="498.14"/><line class="cls-18" x1="1088.78" y1="512.78" x2="1103.42" y2="498.14"/><line class="cls-18" x1="1095.14" y1="512.78" x2="1109.78" y2="498.14"/><line class="cls-18" x1="1101.62" y1="512.78" x2="1116.14" y2="498.14"/><line class="cls-18" x1="1107.98" y1="512.78" x2="1122.5" y2="498.14"/><line class="cls-18" x1="1114.34" y1="512.78" x2="1128.98" y2="498.14"/><line class="cls-18" x1="1120.7" y1="512.78" x2="1135.34" y2="498.14"/><line class="cls-18" x1="1127.06" y1="512.78" x2="1141.7" y2="498.14"/><line class="cls-18" x1="1133.42" y1="512.78" x2="1148.06" y2="498.14"/><line class="cls-18" x1="1139.78" y1="512.78" x2="1154.42" y2="498.14"/><line class="cls-18" x1="1146.14" y1="512.78" x2="1160.78" y2="498.14"/><line class="cls-18" x1="1152.5" y1="512.78" x2="1167.14" y2="498.14"/><line class="cls-18" x1="1158.86" y1="512.78" x2="1173.5" y2="498.14"/><line class="cls-18" x1="1165.22" y1="512.78" x2="1179.86" y2="498.14"/><line class="cls-18" x1="1171.58" y1="512.78" x2="1186.22" y2="498.14"/><line class="cls-18" x1="1177.94" y1="512.78" x2="1192.58" y2="498.14"/><line class="cls-18" x1="1184.3" y1="512.78" x2="1198.94" y2="498.14"/><line class="cls-18" x1="1190.66" y1="512.78" x2="1205.3" y2="498.14"/><line class="cls-18" x1="983.06" y1="154.46" x2="983.06" y2="133.22"/><polyline class="cls-18" points="1005.02 133.22 1005.02 154.46 1436.54 154.46 1436.54 133.22"/><polyline class="cls-18" points="1458.5 133.22 1458.5 154.46 1458.5 205.57 1436.54 205.57 1436.54 169.09 1005.02 169.09 1005.02 498.13 1436.54 498.13 1436.54 381.13 1458.5 381.13 1458.5 542.05"/><polyline class="cls-18" points="1436.54 542.05 1436.54 512.77 1005.02 512.77 1005.02 542.05"/><polyline class="cls-18" points="983.06 542.05 983.06 512.77 961.7 512.77"/><polyline class="cls-18" points="961.7 498.13 983.06 498.13 983.06 169.09 961.7 169.09"/><line class="cls-18" x1="961.7" y1="154.46" x2="983.06" y2="154.46"/><line class="cls-18" x1="1005.02" y1="900.38" x2="1005.26" y2="900.14"/><line class="cls-18" x1="1005.02" y1="906.74" x2="1011.62" y2="900.14"/><line class="cls-18" x1="1005.02" y1="913.1" x2="1017.98" y2="900.14"/><line class="cls-18" x1="1005.02" y1="919.46" x2="1024.34" y2="900.14"/><line class="cls-18" x1="1005.02" y1="925.82" x2="1026.86" y2="903.98"/><line class="cls-18" x1="1005.02" y1="932.18" x2="1026.86" y2="910.34"/><line class="cls-18" x1="1005.02" y1="938.66" x2="1026.86" y2="916.7"/><line class="cls-18" x1="1005.02" y1="945.02" x2="1028.54" y2="921.38"/><line class="cls-18" x1="1005.02" y1="951.38" x2="1034.9" y2="921.38"/><line class="cls-18" x1="1005.02" y1="957.74" x2="1041.26" y2="921.38"/><line class="cls-18" x1="1005.02" y1="964.1" x2="1026.86" y2="942.14"/><line class="cls-18" x1="1032.98" y1="936.02" x2="1047.62" y2="921.38"/><line class="cls-18" x1="1005.02" y1="970.46" x2="1026.86" y2="948.5"/><line class="cls-18" x1="1039.46" y1="936.02" x2="1053.98" y2="921.38"/><line class="cls-18" x1="1005.02" y1="976.82" x2="1026.86" y2="954.86"/><line class="cls-18" x1="1045.82" y1="936.02" x2="1060.34" y2="921.38"/><line class="cls-18" x1="1005.02" y1="983.18" x2="1026.86" y2="961.22"/><line class="cls-18" x1="1052.18" y1="936.02" x2="1066.7" y2="921.38"/><line class="cls-18" x1="1005.02" y1="989.54" x2="1026.86" y2="967.58"/><line class="cls-18" x1="1058.54" y1="936.02" x2="1073.18" y2="921.38"/><line class="cls-18" x1="1005.02" y1="995.9" x2="1026.86" y2="973.94"/><line class="cls-18" x1="1064.9" y1="936.02" x2="1079.54" y2="921.38"/><line class="cls-18" x1="1005.02" y1="1002.26" x2="1026.86" y2="980.3"/><line class="cls-18" x1="1071.26" y1="936.02" x2="1085.9" y2="921.38"/><line class="cls-18" x1="1005.02" y1="1008.62" x2="1026.86" y2="986.66"/><line class="cls-18" x1="1077.62" y1="936.02" x2="1092.26" y2="921.38"/><line class="cls-18" x1="1005.02" y1="1014.98" x2="1026.86" y2="993.02"/><line class="cls-18" x1="1083.98" y1="936.02" x2="1098.62" y2="921.38"/><line class="cls-18" x1="1005.02" y1="1021.34" x2="1026.86" y2="999.38"/><line class="cls-18" x1="1090.34" y1="936.02" x2="1104.98" y2="921.38"/><line class="cls-18" x1="1005.02" y1="1027.7" x2="1026.86" y2="1005.74"/><line class="cls-18" x1="1096.7" y1="936.02" x2="1111.34" y2="921.38"/><line class="cls-18" x1="1005.02" y1="1034.06" x2="1026.86" y2="1012.1"/><line class="cls-18" x1="1103.06" y1="936.02" x2="1117.7" y2="921.38"/><line class="cls-18" x1="1005.02" y1="1040.42" x2="1026.86" y2="1018.46"/><line class="cls-18" x1="1109.42" y1="936.02" x2="1124.06" y2="921.38"/><line class="cls-18" x1="1005.02" y1="1046.78" x2="1026.86" y2="1024.82"/><line class="cls-18" x1="1115.78" y1="936.02" x2="1130.42" y2="921.38"/><line class="cls-18" x1="1005.02" y1="1053.14" x2="1026.86" y2="1031.18"/><line class="cls-18" x1="1122.14" y1="936.02" x2="1136.78" y2="921.38"/><line class="cls-18" x1="1005.02" y1="1059.5" x2="1026.86" y2="1037.54"/><line class="cls-18" x1="1128.5" y1="936.02" x2="1143.14" y2="921.38"/><line class="cls-18" x1="1005.02" y1="1065.86" x2="1026.86" y2="1043.9"/><line class="cls-18" x1="1134.86" y1="936.02" x2="1149.5" y2="921.38"/><line class="cls-18" x1="1005.02" y1="1072.22" x2="1026.86" y2="1050.26"/><line class="cls-18" x1="1141.22" y1="936.02" x2="1155.86" y2="921.38"/><line class="cls-18" x1="1005.02" y1="1078.58" x2="1026.86" y2="1056.62"/><line class="cls-18" x1="1147.58" y1="936.02" x2="1162.22" y2="921.38"/><line class="cls-18" x1="1005.02" y1="1084.94" x2="1026.86" y2="1062.98"/><line class="cls-18" x1="1153.94" y1="936.02" x2="1168.58" y2="921.38"/><line class="cls-18" x1="1005.02" y1="1091.3" x2="1026.86" y2="1069.34"/><line class="cls-18" x1="1160.3" y1="936.02" x2="1174.94" y2="921.38"/><line class="cls-18" x1="1005.02" y1="1097.66" x2="1026.86" y2="1075.82"/><line class="cls-18" x1="1166.66" y1="936.02" x2="1181.3" y2="921.38"/><line class="cls-18" x1="1005.02" y1="1104.02" x2="1026.86" y2="1082.18"/><line class="cls-18" x1="1173.02" y1="936.02" x2="1187.66" y2="921.38"/><line class="cls-18" x1="1005.02" y1="1110.38" x2="1026.86" y2="1088.54"/><line class="cls-18" x1="1179.38" y1="936.02" x2="1194.02" y2="921.38"/><line class="cls-18" x1="1005.02" y1="1116.74" x2="1026.86" y2="1094.9"/><line class="cls-18" x1="1185.74" y1="936.02" x2="1200.38" y2="921.38"/><line class="cls-18" x1="1005.02" y1="1123.22" x2="1026.86" y2="1101.26"/><line class="cls-18" x1="1005.02" y1="1129.58" x2="1026.86" y2="1107.62"/><line class="cls-18" x1="1005.02" y1="1135.94" x2="1026.86" y2="1113.98"/><line class="cls-18" x1="1005.02" y1="1142.3" x2="1026.86" y2="1120.34"/><line class="cls-18" x1="1005.02" y1="1148.66" x2="1026.86" y2="1126.7"/><line class="cls-18" x1="1005.02" y1="1155.02" x2="1026.86" y2="1133.06"/><line class="cls-18" x1="1005.02" y1="1161.38" x2="1026.86" y2="1139.42"/><line class="cls-18" x1="1005.02" y1="1167.74" x2="1026.86" y2="1145.78"/><line class="cls-18" x1="1005.02" y1="1174.1" x2="1026.86" y2="1152.14"/><line class="cls-18" x1="1005.02" y1="1180.46" x2="1026.86" y2="1158.5"/><line class="cls-18" x1="1005.02" y1="1186.82" x2="1026.86" y2="1164.86"/><line class="cls-18" x1="1005.02" y1="1193.18" x2="1026.86" y2="1171.22"/><line class="cls-18" x1="1005.02" y1="1199.54" x2="1026.86" y2="1177.58"/><line class="cls-18" x1="1005.02" y1="1205.9" x2="1026.86" y2="1183.94"/><line class="cls-18" x1="1005.02" y1="1212.26" x2="1026.86" y2="1190.3"/><polyline class="cls-18" points="1458.5 1265.06 1458.5 936.01 1026.86 936.01 1026.86 1265.06 1458.5 1265.06"/><polyline class="cls-18" points="1458.5 900.13 1458.5 921.38 1026.86 921.38 1026.86 900.13"/><polyline class="cls-18" points="1005.02 900.13 1005.02 921.38 1005.02 1308.97"/><path d="M126.62-87.7l1.44,1627.08-1.44,1.44V-87.7m1.44,1.44-1.44-1.44,1.44,1627.08V-86.26"/><path class="cls-27" d="M126.62-87.7l1.44,1627.08-1.44,1.44V-87.7m1.44,1.44-1.44-1.44,1.44,1627.08V-86.26"/><path d="M127.34,689.42l-7.08.48v-.48h7.08m0,.48v-.48l-7.08.48h7.08"/><path class="cls-27" d="M127.34,689.42l-7.08.48v-.48h7.08m0,.48v-.48l-7.08.48h7.08"/><path d="M127.34,547.7l-7.08.48v-.48h7.08m0,.48v-.48l-7.08.48h7.08"/><path class="cls-27" d="M127.34,547.7l-7.08.48v-.48h7.08m0,.48v-.48l-7.08.48h7.08"/><path d="M127.34,406l-7.08.48V406h7.08m0,.48V406l-7.08.48h7.08"/><path class="cls-27" d="M127.34,406l-7.08.48V406h7.08m0,.48V406l-7.08.48h7.08"/><path d="M127.34,264.26l-7.08.48v-.48h7.08m0,.48v-.48l-7.08.48h7.08"/><path class="cls-27" d="M127.34,264.26l-7.08.48v-.48h7.08m0,.48v-.48l-7.08.48h7.08"/><path d="M127.34,122.54l-7.08.48v-.48h7.08m0,.48v-.48l-7.08.48h7.08"/><path class="cls-27" d="M127.34,122.54l-7.08.48v-.48h7.08m0,.48v-.48l-7.08.48h7.08"/><path d="M127.34,972.86l-7.08.6v-.6h7.08m0,.6v-.6l-7.08.6h7.08"/><path class="cls-27" d="M127.34,972.86l-7.08.6v-.6h7.08m0,.6v-.6l-7.08.6h7.08"/><path d="M127.34,1114.58l-7.08.6v-.6h7.08m0,.6v-.6l-7.08.6h7.08"/><path class="cls-27" d="M127.34,1114.58l-7.08.6v-.6h7.08m0,.6v-.6l-7.08.6h7.08"/><path d="M127.34,831.14l-7.08.48v-.48h7.08m0,.48v-.48l-7.08.48h7.08"/><path class="cls-27" d="M127.34,831.14l-7.08.48v-.48h7.08m0,.48v-.48l-7.08.48h7.08"/><g class="cls-28"><text class="cls-29" transform="translate(119.78 763.1)">F</text></g><g class="cls-17"><g class="cls-28"><text class="cls-29" transform="translate(119.54 621.38)">E</text></g><g class="cls-17"><g class="cls-28"><text class="cls-29" transform="translate(119.42 479.66)">D</text></g><g class="cls-17"><g class="cls-28"><text class="cls-29" transform="translate(119.42 337.94)">C</text></g><g class="cls-17"><g class="cls-28"><text class="cls-29" transform="translate(119.54 196.22)">B</text></g><g class="cls-17"><g class="cls-28"><text class="cls-30" transform="translate(119.54 12.02)">A</text></g><g class="cls-17"><g class="cls-28"><text class="cls-29" transform="translate(119.18 904.82)">G</text></g><g class="cls-17"><g class="cls-28"><text class="cls-29" transform="translate(119.42 1046.53)">H</text></g><g class="cls-17"><g class="cls-28"><text class="cls-29" transform="translate(120.14 1188.26)">J</text></g><g class="cls-17"><g class="cls-28"><g class="cls-8"><text class="cls-29" transform="translate(111.86 1210.58) rotate(-90)"><tspan xml:space="preserve"> | PLOTTED ON: </tspan></text></g></g><g class="cls-17"><g class="cls-28"><text class="cls-29" transform="translate(111.86 1155.62) rotate(-90)">7/17/2017 9:30:26 PM</text></g><g class="cls-17"><g class="cls-28"><g class="cls-8"><text class="cls-29" transform="translate(111.86 1085.66) rotate(-90)"><tspan xml:space="preserve"> | B</tspan></text><text class="cls-31" transform="translate(111.86 1075.09) rotate(-90)">Y</text><text class="cls-29" transform="translate(111.86 1070.47) rotate(-90)"><tspan xml:space="preserve"> USER: </tspan></text></g></g></g></g></g></g></g></g></g></g></g></g></g></g></g><rect class="cls-1" x="47.78" y="-114.58" width="2383.8" height="1683.6"/><rect class="cls-1" x="47.66" y="-114.7" width="2383.92" height="1683.72"/><rect class="cls-32" x="758.66" y="513.86" width="20.52" height="315.96"/></g><g id="Livello_2-2" data-name="Livello 2"><rect class="cls-32" x="319.1" y="493.34" width="21.12" height="502.43"/><rect class="cls-32" x="340.22" y="493.34" width="85.68" height="23.71"/><rect class="cls-32" x="340.22" y="947.05" width="438.96" height="22.5"/><rect class="cls-32" x="758.66" y="969.55" width="20.52" height="26.22"/><rect class="cls-32" x="659.9" y="493.34" width="147.6" height="20.52"/></g></svg>