<svg id="Livello_1" data-name="Livello 1" xmlns="http://www.w3.org/2000/svg" xmlns:xlink="http://www.w3.org/1999/xlink" viewBox="0 0 1190.6 1190.6"><defs><style>.cls-1,.cls-3,.cls-4,.cls-5{fill:none;}.cls-2{fill:#ea5b0c;}.cls-2,.cls-3{stroke:#000;}.cls-2,.cls-3,.cls-4,.cls-5{stroke-miterlimit:10;}.cls-4{stroke:#2662db;}.cls-5{stroke:#fff;}.cls-6{clip-path:url(#clip-path);}.cls-7{isolation:isolate;}.cls-8{clip-path:url(#clip-path-2);}.cls-9{font-size:60px;font-family:OpenSansCondensed-Bold, Open Sans Condensed;font-weight:700;}.cls-10{font-size:16px;font-family:OpenSansCondensed-Light, Open Sans Condensed;}.cls-11{font-size:10px;font-family:EBGaramond-Italic, EB Garamond;font-style:italic;}.cls-12{letter-spacing:-0.07em;}.cls-13{letter-spacing:-0.04em;}.cls-14{letter-spacing:-0.02em;}</style><clipPath id="clip-path"><rect class="cls-1" x="890.19" y="60.48" width="239.53" height="239.53"/></clipPath><clipPath id="clip-path-2"><circle class="cls-1" cx="636.82" cy="276.59" r="212.6"/></clipPath></defs><title>Tavola disegno 1</title><rect class="cls-2" width="1190.6" height="1190.6"/><rect class="cls-3" x="890.23" y="889.65" width="239.53" height="239.53"/><rect class="cls-3" x="613.85" y="889.65" width="239.53" height="239.53"/><rect class="cls-3" x="337.47" y="889.65" width="239.53" height="239.53"/><rect class="cls-3" x="61.09" y="889.65" width="239.53" height="239.53"/><rect class="cls-3" x="890.23" y="613.28" width="239.53" height="239.53"/><rect class="cls-3" x="613.85" y="613.28" width="239.53" height="239.53"/><rect class="cls-3" x="337.47" y="613.28" width="239.53" height="239.53"/><rect class="cls-3" x="61.09" y="613.28" width="239.53" height="239.53"/><rect class="cls-3" x="890.23" y="336.9" width="239.53" height="239.53"/><rect class="cls-3" x="613.85" y="336.9" width="239.53" height="239.53"/><rect class="cls-3" x="337.47" y="336.9" width="239.53" height="239.53"/><rect class="cls-3" x="61.09" y="336.9" width="239.53" height="239.53"/><rect class="cls-3" x="890.23" y="60.52" width="239.53" height="239.53"/><rect class="cls-3" x="613.85" y="60.52" width="239.53" height="239.53"/><rect class="cls-3" x="337.47" y="60.52" width="239.53" height="239.53"/><rect class="cls-3" x="61.09" y="60.52" width="239.53" height="239.53"/><rect class="cls-4" x="945.5" y="944.93" width="184.25" height="184.25"/><rect class="cls-4" x="724.4" y="944.93" width="184.25" height="184.25"/><rect class="cls-4" x="503.3" y="944.93" width="184.25" height="184.25"/><rect class="cls-4" x="282.2" y="944.93" width="184.25" height="184.25"/><rect class="cls-4" x="61.09" y="944.93" width="184.25" height="184.25"/><rect class="cls-4" x="945.5" y="723.83" width="184.25" height="184.25"/><rect class="cls-4" x="724.4" y="723.83" width="184.25" height="184.25"/><rect class="cls-4" x="503.3" y="723.83" width="184.25" height="184.25"/><rect class="cls-4" x="282.2" y="723.83" width="184.25" height="184.25"/><rect class="cls-4" x="61.09" y="723.83" width="184.25" height="184.25"/><rect class="cls-4" x="945.5" y="502.73" width="184.25" height="184.25"/><rect class="cls-4" x="724.4" y="502.73" width="184.25" height="184.25"/><rect class="cls-4" x="503.3" y="502.73" width="184.25" height="184.25"/><rect class="cls-4" x="282.2" y="502.73" width="184.25" height="184.25"/><rect class="cls-4" x="61.09" y="502.73" width="184.25" height="184.25"/><rect class="cls-4" x="945.5" y="281.62" width="184.25" height="184.25"/><rect class="cls-4" x="724.4" y="281.62" width="184.25" height="184.25"/><rect class="cls-4" x="503.3" y="281.62" width="184.25" height="184.25"/><rect class="cls-4" x="282.2" y="281.62" width="184.25" height="184.25"/><rect class="cls-4" x="61.09" y="281.62" width="184.25" height="184.25"/><rect class="cls-4" x="945.5" y="60.52" width="184.25" height="184.25"/><rect class="cls-4" x="724.4" y="60.52" width="184.25" height="184.25"/><rect class="cls-4" x="503.3" y="60.52" width="184.25" height="184.25"/><rect class="cls-4" x="282.2" y="60.52" width="184.25" height="184.25"/><rect class="cls-4" x="61.09" y="60.52" width="184.25" height="184.25"/><rect class="cls-5" x="982.35" y="981.78" width="147.4" height="147.4"/><rect class="cls-5" x="798.1" y="981.78" width="147.4" height="147.4"/><rect class="cls-5" x="613.85" y="981.78" width="147.4" height="147.4"/><rect class="cls-5" x="429.6" y="981.78" width="147.4" height="147.4"/><rect class="cls-5" x="245.35" y="981.78" width="147.4" height="147.4"/><rect class="cls-5" x="61.09" y="981.78" width="147.4" height="147.4"/><rect class="cls-5" x="982.35" y="797.53" width="147.4" height="147.4"/><rect class="cls-5" x="798.1" y="797.53" width="147.4" height="147.4"/><rect class="cls-5" x="613.85" y="797.53" width="147.4" height="147.4"/><rect class="cls-5" x="429.6" y="797.53" width="147.4" height="147.4"/><rect class="cls-5" x="245.35" y="797.53" width="147.4" height="147.4"/><rect class="cls-5" x="61.09" y="797.53" width="147.4" height="147.4"/><rect class="cls-5" x="982.35" y="613.28" width="147.4" height="147.4"/><rect class="cls-5" x="798.1" y="613.28" width="147.4" height="147.4"/><rect class="cls-5" x="613.85" y="613.28" width="147.4" height="147.4"/><rect class="cls-5" x="429.6" y="613.28" width="147.4" height="147.4"/><rect class="cls-5" x="245.35" y="613.28" width="147.4" height="147.4"/><rect class="cls-5" x="61.09" y="613.28" width="147.4" height="147.4"/><rect class="cls-5" x="982.35" y="429.03" width="147.4" height="147.4"/><rect class="cls-5" x="798.1" y="429.03" width="147.4" height="147.4"/><rect class="cls-5" x="613.85" y="429.03" width="147.4" height="147.4"/><rect class="cls-5" x="429.6" y="429.03" width="147.4" height="147.4"/><rect class="cls-5" x="245.35" y="429.03" width="147.4" height="147.4"/><rect class="cls-5" x="61.09" y="429.03" width="147.4" height="147.4"/><rect class="cls-5" x="982.35" y="244.77" width="147.4" height="147.4"/><rect class="cls-5" x="798.1" y="244.77" width="147.4" height="147.4"/><rect class="cls-5" x="613.85" y="244.77" width="147.4" height="147.4"/><rect class="cls-5" x="429.6" y="244.77" width="147.4" height="147.4"/><rect class="cls-5" x="245.35" y="244.77" width="147.4" height="147.4"/><rect class="cls-5" x="61.09" y="244.77" width="147.4" height="147.4"/><rect class="cls-5" x="982.35" y="60.52" width="147.4" height="147.4"/><rect class="cls-5" x="798.1" y="60.52" width="147.4" height="147.4"/><rect class="cls-5" x="613.85" y="60.52" width="147.4" height="147.4"/><rect class="cls-5" x="429.6" y="60.52" width="147.4" height="147.4"/><rect class="cls-5" x="245.35" y="60.52" width="147.4" height="147.4"/><rect class="cls-5" x="61.09" y="60.52" width="147.4" height="147.4"/><g class="cls-6"><image class="cls-7" width="580" height="435" transform="translate(549.64 59.33)" xlink:href="893345_03.jpg"/></g><g class="cls-8"><image class="cls-7" width="511" height="340" transform="translate(313.13 35.71) scale(1.43)" xlink:href="893345_05.jpg"/></g><text class="cls-9" transform="translate(60.31 105.46)">Daniele Bertelli</text><text class="cls-10" transform="translate(61.71 257)">Lorem ipsum dolor sit amet, con<tspan x="167.02" y="0">-</tspan><tspan x="0" y="24">sectetuer adipiscing elit, sed diam </tspan><tspan x="0" y="48">nonummy nibh euismod tincidunt ut </tspan><tspan x="0" y="72">laoreet dolore magna aliquam erat </tspan><tspan x="0" y="96">volutpat. Ut wisi enim ad minim </tspan><tspan x="0" y="120">veniam, quis nostrud exerci tation </tspan><tspan x="0" y="144">ullamcorper suscipit lobortis nisl ut </tspan><tspan x="0" y="168">aliquip ex ea commodo consequat. </tspan><tspan x="0" y="192">Duis autem vel eum iriure dolor in </tspan><tspan x="0" y="216">hendrerit in vulputate velit esse </tspan><tspan x="0" y="240">molestie consequat, vel illum dolore </tspan></text><text class="cls-11" transform="translate(774.33 457.22)"><tspan class="cls-12">T</tspan><tspan class="cls-13" x="5.47" y="0">r</tspan><tspan class="cls-14" x="8.86" y="0">a</tspan><tspan x="13.57" y="0">monto</tspan></text></svg>