<svg xmlns="http://www.w3.org/2000/svg" viewBox="0 0 1190.55 1190.55"><defs><style>.cls-1{fill:#ec6518;stroke:#1d1d1b;}.cls-1,.cls-2,.cls-3,.cls-4{stroke-miterlimit:10;}.cls-2,.cls-3,.cls-4{fill:none;}.cls-2{stroke:#000;}.cls-3{stroke:#f6e81d;}.cls-4{stroke:#2d4e9d;}</style></defs><title>Tavola disegno 1</title><g id="Livello_1" data-name="Livello 1"><rect class="cls-1" width="1190.55" height="1190.55"/></g><g id="Livello_2" data-name="Livello 2"><rect class="cls-2" x="890.24" y="890.38" width="239.53" height="239.53"/><rect class="cls-2" x="613.86" y="890.38" width="239.53" height="239.53"/><rect class="cls-2" x="337.49" y="890.38" width="239.53" height="239.53"/><rect class="cls-2" x="61.11" y="890.38" width="239.53" height="239.53"/><rect class="cls-2" x="890.24" y="614.01" width="239.53" height="239.53"/><rect class="cls-2" x="613.86" y="614.01" width="239.53" height="239.53"/><rect class="cls-2" x="337.49" y="614.01" width="239.53" height="239.53"/><rect class="cls-2" x="61.11" y="614.01" width="239.53" height="239.53"/><rect class="cls-2" x="890.24" y="337.63" width="239.53" height="239.53"/><rect class="cls-2" x="613.86" y="337.63" width="239.53" height="239.53"/><rect class="cls-2" x="337.49" y="337.63" width="239.53" height="239.53"/><rect class="cls-2" x="61.11" y="337.63" width="239.53" height="239.53"/><rect class="cls-2" x="890.24" y="61.25" width="239.53" height="239.53"/><rect class="cls-2" x="613.86" y="61.25" width="239.53" height="239.53"/><rect class="cls-2" x="337.49" y="61.25" width="239.53" height="239.53"/><rect class="cls-2" x="61.11" y="61.25" width="239.53" height="239.53"/></g><g id="Livello_3" data-name="Livello 3"><rect class="cls-3" x="945.52" y="945.66" width="184.25" height="184.25"/><rect class="cls-3" x="724.41" y="945.66" width="184.25" height="184.25"/><rect class="cls-3" x="503.31" y="945.66" width="184.25" height="184.25"/><rect class="cls-3" x="282.21" y="945.66" width="184.25" height="184.25"/><rect class="cls-3" x="61.11" y="945.66" width="184.25" height="184.25"/><rect class="cls-3" x="945.52" y="724.56" width="184.25" height="184.25"/><rect class="cls-3" x="724.41" y="724.56" width="184.25" height="184.25"/><rect class="cls-3" x="503.31" y="724.56" width="184.25" height="184.25"/><rect class="cls-3" x="282.21" y="724.56" width="184.25" height="184.25"/><rect class="cls-3" x="61.11" y="724.56" width="184.25" height="184.25"/><rect class="cls-3" x="945.52" y="503.45" width="184.25" height="184.25"/><rect class="cls-3" x="724.41" y="503.45" width="184.25" height="184.25"/><rect class="cls-3" x="503.31" y="503.45" width="184.25" height="184.25"/><rect class="cls-3" x="282.21" y="503.45" width="184.25" height="184.25"/><rect class="cls-3" x="61.11" y="503.45" width="184.25" height="184.25"/><rect class="cls-3" x="945.52" y="282.35" width="184.25" height="184.25"/><rect class="cls-3" x="724.41" y="282.35" width="184.25" height="184.25"/><rect class="cls-3" x="503.31" y="282.35" width="184.25" height="184.25"/><rect class="cls-3" x="282.21" y="282.35" width="184.25" height="184.25"/><rect class="cls-3" x="61.11" y="282.35" width="184.25" height="184.25"/><rect class="cls-3" x="945.52" y="61.25" width="184.25" height="184.25"/><rect class="cls-3" x="724.41" y="61.25" width="184.25" height="184.25"/><rect class="cls-3" x="503.31" y="61.25" width="184.25" height="184.25"/><rect class="cls-3" x="282.21" y="61.25" width="184.25" height="184.25"/><rect class="cls-3" x="61.11" y="61.25" width="184.25" height="184.25"/></g><g id="Livello_4" data-name="Livello 4"><rect class="cls-4" x="982.37" y="982.51" width="147.4" height="147.4"/><rect class="cls-4" x="798.12" y="982.51" width="147.4" height="147.4"/><rect class="cls-4" x="613.86" y="982.51" width="147.4" height="147.4"/><rect class="cls-4" x="429.61" y="982.51" width="147.4" height="147.4"/><rect class="cls-4" x="245.36" y="982.51" width="147.4" height="147.4"/><rect class="cls-4" x="61.11" y="982.51" width="147.4" height="147.4"/><rect class="cls-4" x="982.37" y="798.26" width="147.4" height="147.4"/><rect class="cls-4" x="798.12" y="798.26" width="147.4" height="147.4"/><rect class="cls-4" x="613.86" y="798.26" width="147.4" height="147.4"/><rect class="cls-4" x="429.61" y="798.26" width="147.4" height="147.4"/><rect class="cls-4" x="245.36" y="798.26" width="147.4" height="147.4"/><rect class="cls-4" x="61.11" y="798.26" width="147.4" height="147.4"/><rect class="cls-4" x="982.37" y="614.01" width="147.4" height="147.4"/><rect class="cls-4" x="798.12" y="614.01" width="147.4" height="147.4"/><rect class="cls-4" x="613.86" y="614.01" width="147.4" height="147.4"/><rect class="cls-4" x="429.61" y="614.01" width="147.4" height="147.4"/><rect class="cls-4" x="245.36" y="614.01" width="147.4" height="147.4"/><rect class="cls-4" x="61.11" y="614.01" width="147.4" height="147.4"/><rect class="cls-4" x="982.37" y="429.75" width="147.4" height="147.4"/><rect class="cls-4" x="798.12" y="429.75" width="147.4" height="147.4"/><rect class="cls-4" x="613.86" y="429.75" width="147.4" height="147.4"/><rect class="cls-4" x="429.61" y="429.75" width="147.4" height="147.4"/><rect class="cls-4" x="245.36" y="429.75" width="147.4" height="147.4"/><rect class="cls-4" x="61.11" y="429.75" width="147.4" height="147.4"/><rect class="cls-4" x="982.37" y="245.5" width="147.4" height="147.4"/><rect class="cls-4" x="798.12" y="245.5" width="147.4" height="147.4"/><rect class="cls-4" x="613.86" y="245.5" width="147.4" height="147.4"/><rect class="cls-4" x="429.61" y="245.5" width="147.4" height="147.4"/><rect class="cls-4" x="245.36" y="245.5" width="147.4" height="147.4"/><rect class="cls-4" x="61.11" y="245.5" width="147.4" height="147.4"/><rect class="cls-4" x="982.37" y="61.25" width="147.4" height="147.4"/><rect class="cls-4" x="798.12" y="61.25" width="147.4" height="147.4"/><rect class="cls-4" x="613.86" y="61.25" width="147.4" height="147.4"/><rect class="cls-4" x="429.61" y="61.25" width="147.4" height="147.4"/><rect class="cls-4" x="245.36" y="61.25" width="147.4" height="147.4"/><rect class="cls-4" x="61.11" y="61.25" width="147.4" height="147.4"/></g></svg>