<svg id="Layer_1" data-name="Layer 1" xmlns="http://www.w3.org/2000/svg" xmlns:xlink="http://www.w3.org/1999/xlink" viewBox="0 0 1191.6 1191.6"><defs><style>.cls-1,.cls-3,.cls-4,.cls-5{fill:none;}.cls-2{fill:#3c7699;stroke:#231f20;}.cls-2,.cls-3,.cls-4,.cls-5{stroke-miterlimit:10;}.cls-3{stroke:#f26522;}.cls-4{stroke:#f8ed3c;}.cls-5{stroke:#6bcce0;}.cls-6{clip-path:url(#clip-path);}.cls-10,.cls-11,.cls-12,.cls-13,.cls-14,.cls-16,.cls-7,.cls-8,.cls-9{isolation:isolate;}.cls-10,.cls-11,.cls-12,.cls-13,.cls-8,.cls-9{font-size:16px;font-family:OpenSans-Light, Open Sans;}.cls-9{letter-spacing:0.31em;}.cls-10{letter-spacing:0.13em;}.cls-11{letter-spacing:0.06em;}.cls-12{letter-spacing:0.25em;}.cls-13{letter-spacing:0.19em;}.cls-14{font-size:10px;font-family:EBGaramond-Italic, EB Garamond;font-style:italic;}.cls-15{clip-path:url(#clip-path-2);}.cls-16{font-size:60px;font-family:OpenSans-Bold, Open Sans;font-weight:700;}</style><clipPath id="clip-path" transform="translate(0 0)"><rect class="cls-1" x="614.2" y="337.8" width="239.5" height="239.5"/></clipPath><clipPath id="clip-path-2" transform="translate(0 0)"><circle class="cls-1" cx="365.7" cy="918.5" r="184.5"/></clipPath></defs><title>893307_06</title><g id="Layer_1-2" data-name="Layer 1"><g id="sfondo"><rect class="cls-2" x="0.5" y="0.5" width="1190.6" height="1190.6"/><rect class="cls-3" x="61.5" y="61.4" width="239.5" height="239.5"/><rect class="cls-3" x="337.8" y="61.4" width="239.5" height="239.5"/><rect class="cls-3" x="614.2" y="61.4" width="239.5" height="239.5"/><rect class="cls-3" x="890.6" y="61.4" width="239.5" height="239.5"/><rect class="cls-3" x="61.5" y="337.8" width="239.5" height="239.5"/><rect class="cls-3" x="337.8" y="337.8" width="239.5" height="239.5"/><rect class="cls-3" x="890.6" y="337.8" width="239.5" height="239.5"/><rect class="cls-3" x="61.5" y="614.2" width="239.5" height="239.5"/><rect class="cls-3" x="337.8" y="614.2" width="239.5" height="239.5"/><rect class="cls-3" x="614.2" y="614.2" width="239.5" height="239.5"/><rect class="cls-3" x="890.6" y="614.2" width="239.5" height="239.5"/><rect class="cls-3" x="61.5" y="890.6" width="239.5" height="239.5"/><rect class="cls-3" x="337.8" y="890.6" width="239.5" height="239.5"/><rect class="cls-3" x="614.2" y="890.6" width="239.5" height="239.5"/><rect class="cls-3" x="890.6" y="890.6" width="239.5" height="239.5"/><rect class="cls-4" x="61.5" y="61.4" width="184.2" height="184.2"/><rect class="cls-4" x="282.5" y="61.4" width="184.2" height="184.2"/><rect class="cls-4" x="503.6" y="61.4" width="184.3" height="184.2"/><rect class="cls-4" x="724.8" y="61.4" width="184.2" height="184.2"/><rect class="cls-4" x="945.9" y="61.4" width="184.2" height="184.2"/><rect class="cls-4" x="61.5" y="282.6" width="184.2" height="184.2"/><rect class="cls-4" x="282.5" y="282.6" width="184.2" height="184.2"/><rect class="cls-4" x="503.6" y="282.6" width="184.3" height="184.2"/><rect class="cls-4" x="724.8" y="282.6" width="184.2" height="184.2"/><rect class="cls-4" x="945.9" y="282.6" width="184.2" height="184.2"/><rect class="cls-4" x="61.5" y="503.7" width="184.2" height="184.3"/><rect class="cls-4" x="282.5" y="503.7" width="184.2" height="184.3"/><rect class="cls-4" x="503.6" y="503.7" width="184.3" height="184.3"/><rect class="cls-4" x="724.8" y="503.7" width="184.2" height="184.3"/><rect class="cls-4" x="945.9" y="503.7" width="184.2" height="184.3"/><rect class="cls-4" x="61.5" y="724.8" width="184.2" height="184.2"/><rect class="cls-4" x="282.5" y="724.8" width="184.2" height="184.2"/><rect class="cls-4" x="503.6" y="724.8" width="184.3" height="184.2"/><rect class="cls-4" x="724.8" y="724.8" width="184.2" height="184.2"/><rect class="cls-4" x="945.9" y="724.8" width="184.2" height="184.2"/><rect class="cls-4" x="61.5" y="945.9" width="184.2" height="184.2"/><rect class="cls-4" x="282.5" y="945.9" width="184.2" height="184.2"/><rect class="cls-4" x="503.6" y="945.9" width="184.3" height="184.2"/><rect class="cls-4" x="724.8" y="945.9" width="184.2" height="184.2"/><rect class="cls-4" x="945.9" y="945.9" width="184.2" height="184.2"/><rect class="cls-5" x="61.4" y="61.4" width="147.4" height="147.4"/><rect class="cls-5" x="245.7" y="61.4" width="147.4" height="147.4"/><rect class="cls-5" x="430" y="61.4" width="147.4" height="147.4"/><rect class="cls-5" x="614.2" y="61.4" width="147.4" height="147.4"/><rect class="cls-5" x="798.5" y="61.4" width="147.4" height="147.4"/><rect class="cls-5" x="982.7" y="61.4" width="147.4" height="147.4"/><rect class="cls-5" x="61.4" y="245.7" width="147.4" height="147.4"/><rect class="cls-5" x="245.7" y="245.7" width="147.4" height="147.4"/><rect class="cls-5" x="430" y="245.7" width="147.4" height="147.4"/><rect class="cls-5" x="614.2" y="245.7" width="147.4" height="147.4"/><rect class="cls-5" x="798.5" y="245.7" width="147.4" height="147.4"/><rect class="cls-5" x="982.7" y="245.7" width="147.4" height="147.4"/><rect class="cls-5" x="61.4" y="430" width="147.4" height="147.4"/><rect class="cls-5" x="245.7" y="430" width="147.4" height="147.4"/><rect class="cls-5" x="430" y="430" width="147.4" height="147.4"/><rect class="cls-5" x="614.2" y="430" width="147.4" height="147.4"/><rect class="cls-5" x="798.5" y="430" width="147.4" height="147.4"/><rect class="cls-5" x="982.7" y="430" width="147.4" height="147.4"/><rect class="cls-5" x="61.4" y="614.2" width="147.4" height="147.4"/><rect class="cls-5" x="245.7" y="614.2" width="147.4" height="147.4"/><rect class="cls-5" x="430" y="614.2" width="147.4" height="147.4"/><rect class="cls-5" x="614.2" y="614.2" width="147.4" height="147.4"/><rect class="cls-5" x="798.5" y="614.2" width="147.4" height="147.4"/><rect class="cls-5" x="982.7" y="614.2" width="147.4" height="147.4"/><rect class="cls-5" x="61.4" y="798.5" width="147.4" height="147.4"/><rect class="cls-5" x="245.7" y="798.5" width="147.4" height="147.4"/><rect class="cls-5" x="430" y="798.5" width="147.4" height="147.4"/><rect class="cls-5" x="614.2" y="798.5" width="147.4" height="147.4"/><rect class="cls-5" x="798.5" y="798.5" width="147.4" height="147.4"/><rect class="cls-5" x="982.7" y="798.5" width="147.4" height="147.4"/><rect class="cls-5" x="61.4" y="982.7" width="147.4" height="147.4"/><rect class="cls-5" x="245.7" y="982.7" width="147.4" height="147.4"/><rect class="cls-5" x="430" y="982.7" width="147.4" height="147.4"/><rect class="cls-5" x="614.2" y="982.7" width="147.4" height="147.4"/><rect class="cls-5" x="798.5" y="982.7" width="147.4" height="147.4"/><rect class="cls-5" x="982.7" y="982.7" width="147.4" height="147.4"/><g class="cls-6"><image class="cls-7" width="499" height="750" transform="translate(354.73 220.77)" xlink:href="893307_03.jpg"/></g><text class="cls-8" transform="translate(890.58 349.98)">Lorem</text><text class="cls-8" transform="translate(941.77 349.98)">ipsum</text><text class="cls-8" transform="translate(990.4 349.98)">dolor</text><text class="cls-8" transform="translate(1032.99 349.98)">sit</text><text class="cls-8" transform="translate(1053.89 349.98)">amet,</text><text class="cls-8" transform="translate(1098.55 349.98)">con</text><text class="cls-8" transform="translate(890.58 373.98)">sectetuer</text><text class="cls-8" transform="translate(961.91 373.98)">adipiscing</text><text class="cls-8" transform="translate(1036.7 373.98)">elit,</text><text class="cls-8" transform="translate(1065.06 373.98)">sed</text><text class="cls-8" transform="translate(1094.37 373.98)">diam </text><text class="cls-8" transform="translate(890.58 397.98)">nonummy</text><text class="cls-8" transform="translate(973.07 397.98)">nibh</text><text class="cls-8" transform="translate(1014.29 397.98)">euismod</text><text class="cls-8" transform="translate(1085.81 397.98)">tincid</text><text class="cls-8" transform="translate(890.58 421.98)">unt</text><text class="cls-8" transform="translate(921.46 421.98)">ut</text><text class="cls-8" transform="translate(942.91 421.98)">laoreet</text><text class="cls-8" transform="translate(1000.17 421.98)">dolore</text><text class="cls-8" transform="translate(1053.72 421.98)">magna</text><text class="cls-8" transform="translate(1109.25 421.98)">ali</text><text class="cls-8" transform="translate(890.58 445.98)">quam</text><text class="cls-8" transform="translate(937.69 445.98)">erat</text><text class="cls-8" transform="translate(972.08 445.98)">volutpat.</text><text class="cls-8" transform="translate(1039.93 445.98)">Ut</text><text class="cls-8" transform="translate(1062.34 445.98)">wisi</text><text class="cls-8" transform="translate(1094.15 445.98)">enim </text><text class="cls-8" transform="translate(890.58 469.98)">ad</text><text class="cls-8" transform="translate(917.22 469.98)">minim</text><text class="cls-8" transform="translate(970.77 469.98)">veniam,</text><text class="cls-8" transform="translate(1034.63 469.98)">quis</text><text class="cls-8" transform="translate(1073.3 469.98)">nostrud </text><text class="cls-8" transform="translate(890.58 493.98)">exerci</text><text class="cls-8" transform="translate(938.18 493.98)">tation</text><text class="cls-8" transform="translate(984.42 493.98)">ullamcorper</text><text class="cls-8" transform="translate(1076.05 493.98)">suscipit </text><text class="cls-8" transform="translate(890.58 517.98)">lobortis</text><text class="cls-8" transform="translate(949.79 517.98)">nisl</text><text class="cls-8" transform="translate(978.58 517.98)">ut</text><text class="cls-8" transform="translate(998.04 517.98)">aliquip</text><text class="cls-8" transform="translate(1050.52 517.98)">ex</text><text class="cls-8" transform="translate(1071.94 517.98)">ea</text><text class="cls-8" transform="translate(1093.86 517.98)">com</text><text class="cls-8" transform="translate(890.58 541.98)">modo</text><text class="cls-8" transform="translate(938.02 541.98)">consequat.</text><text class="cls-8" transform="translate(1022.31 541.98)">Duis</text><text class="cls-8" transform="translate(1059.15 541.98)">autem</text><text class="cls-8" transform="translate(1110.37 541.98)">vel </text><text class="cls-8" transform="translate(890.58 565.98)">eum</text><text class="cls-8" transform="translate(930.46 565.98)">iriure</text><text class="cls-8" transform="translate(975.9 565.98)">dolor</text><text class="cls-8" transform="translate(1021.54 565.98)">in</text><text class="cls-8" transform="translate(1042.13 565.98)">hendrerit</text><text class="cls-8" transform="translate(1117.06 565.98)">in</text><text class="cls-8" transform="translate(937.3 349.98)"> </text><text class="cls-8" transform="translate(985.93 349.98)"> </text><text class="cls-8" transform="translate(1028.52 349.98)"> </text><text class="cls-8" transform="translate(1049.42 349.98)"> </text><text class="cls-8" transform="translate(1094.07 349.98)"> </text><text class="cls-8" transform="translate(1124.96 349.98)">-</text><text class="cls-8" transform="translate(958.36 373.98)"> </text><text class="cls-8" transform="translate(1033.15 373.98)"> </text><text class="cls-8" transform="translate(1061.51 373.98)"> </text><text class="cls-8" transform="translate(1090.82 373.98)"> </text><text class="cls-9" transform="translate(963.86 397.98)"> </text><text class="cls-9" transform="translate(1005.08 397.98)"> </text><text class="cls-9" transform="translate(1076.6 397.98)"> </text><text class="cls-8" transform="translate(1124.96 397.98)">-</text><text class="cls-10" transform="translate(914.81 421.98)"> </text><text class="cls-10" transform="translate(936.26 421.98)"> </text><text class="cls-10" transform="translate(993.52 421.98)"> </text><text class="cls-10" transform="translate(1047.07 421.98)"> </text><text class="cls-10" transform="translate(1102.6 421.98)"> </text><text class="cls-8" transform="translate(1124.96 421.98)">-</text><text class="cls-11" transform="translate(932.14 445.98)"> </text><text class="cls-11" transform="translate(966.53 445.98)"> </text><text class="cls-11" transform="translate(1034.38 445.98)"> </text><text class="cls-11" transform="translate(1056.79 445.98)"> </text><text class="cls-11" transform="translate(1088.6 445.98)"> </text><text class="cls-12" transform="translate(908.58 469.98)"> </text><text class="cls-12" transform="translate(962.14 469.98)"> </text><text class="cls-12" transform="translate(1025.99 469.98)"> </text><text class="cls-12" transform="translate(1064.66 469.98)"> </text><text class="cls-8" transform="translate(933.56 493.98)"> </text><text class="cls-8" transform="translate(979.8 493.98)"> </text><text class="cls-8" transform="translate(1071.43 493.98)"> </text><text class="cls-8" transform="translate(945.13 517.98)"> </text><text class="cls-8" transform="translate(973.92 517.98)"> </text><text class="cls-8" transform="translate(993.38 517.98)"> </text><text class="cls-8" transform="translate(1045.86 517.98)"> </text><text class="cls-8" transform="translate(1067.27 517.98)"> </text><text class="cls-8" transform="translate(1089.2 517.98)"> </text><text class="cls-8" transform="translate(1124.96 517.98)">-</text><text class="cls-8" transform="translate(932.98 541.98)"> </text><text class="cls-8" transform="translate(1017.27 541.98)"> </text><text class="cls-8" transform="translate(1054.11 541.98)"> </text><text class="cls-8" transform="translate(1105.33 541.98)"> </text><text class="cls-13" transform="translate(922.92 565.98)"> </text><text class="cls-13" transform="translate(968.36 565.98)"> </text><text class="cls-13" transform="translate(1014.01 565.98)"> </text><text class="cls-13" transform="translate(1034.6 565.98)"> </text><text class="cls-13" transform="translate(1109.52 565.98)"> </text></g><text class="cls-14" transform="translate(250.3 675.9)">Q</text><text class="cls-14" transform="translate(257.24 675.9)">u</text><text class="cls-14" transform="translate(262.13 675.9)">esta </text><text class="cls-14" transform="translate(278.13 675.9)">i</text><text class="cls-14" transform="translate(280.92 675.9)">m</text><text class="cls-14" transform="translate(288.61 675.9)">mag</text><text class="cls-14" transform="translate(308.35 675.9)">ne è stata scattata </text><text class="cls-14" transform="translate(379.03 675.9)">n C</text><text class="cls-14" transform="translate(397.32 675.9)">lifornia. Io ed i m</text><text class="cls-14" transform="translate(475.09 675.9)">a</text><text class="cls-14" transform="translate(512.27 675.9)">a</text><text class="cls-14" transform="translate(516.98 675.9)">mo </text><text class="cls-14" transform="translate(250.3 699.9)">a</text><text class="cls-14" transform="translate(258.8 699.9)">r</text><text class="cls-14" transform="translate(262.19 699.9)">a</text><text class="cls-14" transform="translate(266.9 699.9)">mp</text><text class="cls-14" transform="translate(281.92 699.9)">cati su </text><text class="cls-14" transform="translate(307.67 699.9)">u</text><text class="cls-14" transform="translate(312.61 699.9)">na montagna per vedere </text><text class="cls-14" transform="translate(404.78 699.9)">i</text><text class="cls-14" transform="translate(407.47 699.9)">l t</text><text class="cls-14" transform="translate(415.25 699.9)">r</text><text class="cls-14" transform="translate(423.35 699.9)">monto.</text><text class="cls-14" transform="translate(305.56 675.9)">i</text><text class="cls-14" transform="translate(376.24 675.9)">i</text><text class="cls-14" transform="translate(392.61 675.9)">a</text><text class="cls-14" transform="translate(464.01 675.9)">i</text><text class="cls-14" transform="translate(466.74 675.9)">ei </text><text class="cls-14" transform="translate(479.8 675.9)">m</text><text class="cls-14" transform="translate(487.69 675.9)">i</text><text class="cls-14" transform="translate(490.43 675.9)">ci ci si</text><text class="cls-14" transform="translate(255.01 699.9)">r</text><text class="cls-14" transform="translate(279.18 699.9)">i</text><text class="cls-14" transform="translate(418.64 699.9)">a</text><g id="Layer_2" data-name="Layer 2"><g class="cls-15"><image class="cls-7" width="2048" height="1536" transform="translate(61.26 688.15) scale(0.27)" xlink:href="../../Media/cielo.jpg"/></g><text class="cls-16" transform="translate(449.01 171.8)">CALIFORNIA</text></g></g></svg>