<svg id="Livello_1" data-name="Livello 1" xmlns="http://www.w3.org/2000/svg" xmlns:xlink="http://www.w3.org/1999/xlink" viewBox="0 0 1190.55 1190.55"><defs><style>.cls-1,.cls-3,.cls-4,.cls-5{fill:none;}.cls-2{fill:#f39200;}.cls-3{stroke:#e71d73;}.cls-3,.cls-4,.cls-5{stroke-miterlimit:10;stroke-width:2px;}.cls-4{stroke:#36a9e1;}.cls-5{stroke:#2d2e83;}.cls-6{clip-path:url(#clip-path);}.cls-7{clip-path:url(#clip-path-2);}.cls-8{font-size:60px;font-family:OpenSansCondensed-Bold, Open Sans Condensed;font-weight:700;}.cls-29,.cls-8,.cls-9{fill:#1d1d1b;}.cls-9{font-size:16px;font-family:OpenSans-Light, Open Sans;}.cls-10{letter-spacing:0.02em;}.cls-11{letter-spacing:0.02em;}.cls-12{letter-spacing:-0.04em;}.cls-13{letter-spacing:-0.04em;}.cls-14{letter-spacing:0.51em;}.cls-15{letter-spacing:0.51em;}.cls-16{letter-spacing:0.04em;}.cls-17{letter-spacing:0.04em;}.cls-18{letter-spacing:0.09em;}.cls-19{letter-spacing:0.09em;}.cls-20{letter-spacing:0.28em;}.cls-21{letter-spacing:0.28em;}.cls-22{letter-spacing:0.03em;}.cls-23{letter-spacing:0.03em;}.cls-24{letter-spacing:0.03em;}.cls-25{letter-spacing:0.06em;}.cls-26{letter-spacing:0.06em;}.cls-27{letter-spacing:0.21em;}.cls-28{letter-spacing:0.21em;}.cls-29{font-size:10px;font-family:EBGaramond-Italic, EB Garamond;font-style:italic;}.cls-30{letter-spacing:-0.01em;}.cls-31{letter-spacing:-0.01em;}.cls-32{letter-spacing:-0.01em;}.cls-33{letter-spacing:-0.02em;}.cls-34{letter-spacing:-0.02em;}.cls-35{letter-spacing:-0.03em;}.cls-36{letter-spacing:0.34em;}.cls-37{letter-spacing:-0.02em;}.cls-38{letter-spacing:0.34em;}.cls-39{letter-spacing:-0.04em;}</style><clipPath id="clip-path"><rect class="cls-1" x="613.7" y="613.7" width="239.53" height="239.53"/></clipPath><clipPath id="clip-path-2"><circle class="cls-1" cx="420.9" cy="520.91" r="212.55"/></clipPath></defs><title>893407_06.svg</title><rect class="cls-2" width="1190.55" height="1190.55"/><rect class="cls-3" x="60.94" y="60.94" width="239.53" height="239.53"/><rect class="cls-3" x="337.32" y="60.94" width="239.53" height="239.53"/><rect class="cls-3" x="613.7" y="60.94" width="239.53" height="239.53"/><rect class="cls-3" x="890.08" y="60.94" width="239.53" height="239.53"/><rect class="cls-3" x="60.94" y="337.32" width="239.53" height="239.53"/><rect class="cls-3" x="337.32" y="337.32" width="239.53" height="239.53"/><rect class="cls-3" x="613.7" y="337.32" width="239.53" height="239.53"/><rect class="cls-3" x="890.08" y="337.32" width="239.53" height="239.53"/><rect class="cls-3" x="60.94" y="613.7" width="239.53" height="239.53"/><rect class="cls-3" x="337.32" y="613.7" width="239.53" height="239.53"/><rect class="cls-3" x="613.7" y="613.7" width="239.53" height="239.53"/><rect class="cls-3" x="890.08" y="613.7" width="239.53" height="239.53"/><rect class="cls-3" x="60.94" y="890.08" width="239.53" height="239.53"/><rect class="cls-3" x="337.32" y="890.08" width="239.53" height="239.53"/><rect class="cls-3" x="613.7" y="890.08" width="239.53" height="239.53"/><rect class="cls-3" x="890.08" y="890.08" width="239.53" height="239.53"/><rect class="cls-4" x="60.94" y="60.94" width="184.25" height="184.25"/><rect class="cls-4" x="282.05" y="60.94" width="184.25" height="184.25"/><rect class="cls-4" x="503.15" y="60.94" width="184.25" height="184.25"/><rect class="cls-4" x="724.25" y="60.94" width="184.25" height="184.25"/><rect class="cls-4" x="945.35" y="60.94" width="184.25" height="184.25"/><rect class="cls-4" x="60.94" y="282.05" width="184.25" height="184.25"/><rect class="cls-4" x="282.05" y="282.05" width="184.25" height="184.25"/><rect class="cls-4" x="503.15" y="282.05" width="184.25" height="184.25"/><rect class="cls-4" x="724.25" y="282.05" width="184.25" height="184.25"/><rect class="cls-4" x="945.35" y="282.05" width="184.25" height="184.25"/><rect class="cls-4" x="60.94" y="503.15" width="184.25" height="184.25"/><rect class="cls-4" x="282.05" y="503.15" width="184.25" height="184.25"/><rect class="cls-4" x="503.15" y="503.15" width="184.25" height="184.25"/><rect class="cls-4" x="724.25" y="503.15" width="184.25" height="184.25"/><rect class="cls-4" x="945.35" y="503.15" width="184.25" height="184.25"/><rect class="cls-4" x="60.94" y="724.25" width="184.25" height="184.25"/><rect class="cls-4" x="282.05" y="724.25" width="184.25" height="184.25"/><rect class="cls-4" x="503.15" y="724.25" width="184.25" height="184.25"/><rect class="cls-4" x="724.25" y="724.25" width="184.25" height="184.25"/><rect class="cls-4" x="945.35" y="724.25" width="184.25" height="184.25"/><rect class="cls-4" x="60.94" y="945.35" width="184.25" height="184.25"/><rect class="cls-4" x="282.05" y="945.35" width="184.25" height="184.25"/><rect class="cls-4" x="503.15" y="945.35" width="184.25" height="184.25"/><rect class="cls-4" x="724.25" y="945.35" width="184.25" height="184.25"/><rect class="cls-4" x="945.35" y="945.35" width="184.25" height="184.25"/><rect class="cls-5" x="60.94" y="60.94" width="147.4" height="147.4"/><rect class="cls-5" x="245.2" y="60.94" width="147.4" height="147.4"/><rect class="cls-5" x="429.45" y="60.94" width="147.4" height="147.4"/><rect class="cls-5" x="613.7" y="60.94" width="147.4" height="147.4"/><rect class="cls-5" x="797.95" y="60.94" width="147.4" height="147.4"/><rect class="cls-5" x="982.2" y="60.94" width="147.4" height="147.4"/><rect class="cls-5" x="60.94" y="245.2" width="147.4" height="147.4"/><rect class="cls-5" x="245.2" y="245.2" width="147.4" height="147.4"/><rect class="cls-5" x="429.45" y="245.2" width="147.4" height="147.4"/><rect class="cls-5" x="613.7" y="245.2" width="147.4" height="147.4"/><rect class="cls-5" x="797.95" y="245.2" width="147.4" height="147.4"/><rect class="cls-5" x="982.2" y="245.2" width="147.4" height="147.4"/><rect class="cls-5" x="60.94" y="429.45" width="147.4" height="147.4"/><rect class="cls-5" x="245.2" y="429.45" width="147.4" height="147.4"/><rect class="cls-5" x="429.45" y="429.45" width="147.4" height="147.4"/><rect class="cls-5" x="613.7" y="429.45" width="147.4" height="147.4"/><rect class="cls-5" x="797.95" y="429.45" width="147.4" height="147.4"/><rect class="cls-5" x="982.2" y="429.45" width="147.4" height="147.4"/><rect class="cls-5" x="60.94" y="613.7" width="147.4" height="147.4"/><rect class="cls-5" x="245.2" y="613.7" width="147.4" height="147.4"/><rect class="cls-5" x="429.45" y="613.7" width="147.4" height="147.4"/><rect class="cls-5" x="613.7" y="613.7" width="147.4" height="147.4"/><rect class="cls-5" x="797.95" y="613.7" width="147.4" height="147.4"/><rect class="cls-5" x="982.2" y="613.7" width="147.4" height="147.4"/><rect class="cls-5" x="60.94" y="797.95" width="147.4" height="147.4"/><rect class="cls-5" x="245.2" y="797.95" width="147.4" height="147.4"/><rect class="cls-5" x="429.45" y="797.95" width="147.4" height="147.4"/><rect class="cls-5" x="613.7" y="797.95" width="147.4" height="147.4"/><rect class="cls-5" x="797.95" y="797.95" width="147.4" height="147.4"/><rect class="cls-5" x="982.2" y="797.95" width="147.4" height="147.4"/><rect class="cls-5" x="60.94" y="982.2" width="147.4" height="147.4"/><rect class="cls-5" x="245.2" y="982.2" width="147.4" height="147.4"/><rect class="cls-5" x="429.45" y="982.2" width="147.4" height="147.4"/><rect class="cls-5" x="613.7" y="982.2" width="147.4" height="147.4"/><rect class="cls-5" x="797.95" y="982.2" width="147.4" height="147.4"/><rect class="cls-5" x="982.2" y="982.2" width="147.4" height="147.4"/><g class="cls-6"><image width="540" height="960" transform="translate(611.4 60.94) scale(0.96)" xlink:href="../../../Desktop/4c25946b72e9b64dd81bb3327f403621.jpg"/></g><g class="cls-7"><image width="500" height="801" transform="translate(147.29 46.05)" xlink:href="893407_05.jpg"/></g><text class="cls-8" transform="translate(60.94 112)">Alessandra Amati</text><text class="cls-9" transform="translate(60.94 902.24)">Lorem<tspan class="cls-10" x="46.72" y="0"> </tspan><tspan x="51.19" y="0">ipsum</tspan><tspan class="cls-10" x="95.35" y="0"> </tspan><tspan x="99.82" y="0">dolor</tspan><tspan class="cls-11" x="137.94" y="0"> </tspan><tspan x="142.41" y="0">sit</tspan><tspan class="cls-10" x="158.84" y="0"> </tspan><tspan x="163.31" y="0">amet,</tspan><tspan class="cls-10" x="203.49" y="0"> </tspan><tspan x="207.97" y="0">con</tspan><tspan x="234.38" y="0">-</tspan><tspan x="0" y="24">sectetuer</tspan><tspan class="cls-12" x="67.78" y="24"> </tspan><tspan x="71.33" y="24">adipiscing</tspan><tspan class="cls-12" x="142.57" y="24"> </tspan><tspan x="146.12" y="24">elit,</tspan><tspan class="cls-13" x="170.93" y="24"> </tspan><tspan x="174.48" y="24">sed</tspan><tspan class="cls-12" x="200.24" y="24"> </tspan><tspan x="203.79" y="24">diam </tspan><tspan x="0" y="48">nonummy</tspan><tspan class="cls-14" x="73.28" y="48"> </tspan><tspan x="85.66" y="48">nibh</tspan><tspan class="cls-15" x="117.68" y="48"> </tspan><tspan x="130.06" y="48">euismod</tspan><tspan class="cls-14" x="192.37" y="48"> </tspan><tspan x="204.75" y="48">tinci</tspan><tspan x="234.38" y="48">-</tspan><tspan x="0" y="72">dunt</tspan><tspan class="cls-16" x="33.76" y="72"> </tspan><tspan x="38.5" y="72">ut</tspan><tspan class="cls-16" x="53.3" y="72"> </tspan><tspan x="58.04" y="72">laoreet</tspan><tspan class="cls-17" x="108.66" y="72"> </tspan><tspan x="113.4" y="72">dolore</tspan><tspan class="cls-16" x="160.3" y="72"> </tspan><tspan x="165.04" y="72">magna</tspan><tspan class="cls-16" x="213.93" y="72"> </tspan><tspan x="218.67" y="72">ali</tspan><tspan x="234.38" y="72">-</tspan><tspan x="0" y="96">quam</tspan><tspan class="cls-18" x="41.56" y="96"> </tspan><tspan x="47.11" y="96">erat</tspan><tspan class="cls-18" x="75.95" y="96"> </tspan><tspan x="81.5" y="96">volutpat.</tspan><tspan class="cls-19" x="143.8" y="96"> </tspan><tspan x="149.35" y="96">Ut</tspan><tspan class="cls-18" x="166.21" y="96"> </tspan><tspan x="171.76" y="96">wisi</tspan><tspan class="cls-18" x="198.02" y="96"> </tspan><tspan x="203.57" y="96">enim </tspan><tspan x="0" y="120">ad</tspan><tspan class="cls-20" x="18" y="120"> </tspan><tspan x="26.64" y="120">minim</tspan><tspan class="cls-20" x="71.56" y="120"> </tspan><tspan x="80.19" y="120">veniam,</tspan><tspan class="cls-21" x="135.41" y="120"> </tspan><tspan x="144.05" y="120">quis</tspan><tspan class="cls-20" x="174.08" y="120"> </tspan><tspan x="182.72" y="120">nostrud </tspan><tspan x="0" y="144">exerci</tspan><tspan class="cls-22" x="42.98" y="144"> </tspan><tspan x="47.6" y="144">tation</tspan><tspan class="cls-22" x="89.22" y="144"> </tspan><tspan x="93.84" y="144">ullamcorper</tspan><tspan class="cls-22" x="180.85" y="144"> </tspan><tspan x="185.47" y="144">suscipit </tspan><tspan x="0" y="168">lobortis</tspan><tspan class="cls-23" x="54.55" y="168"> </tspan><tspan x="59.21" y="168">nisl</tspan><tspan class="cls-24" x="83.34" y="168"> </tspan><tspan x="88" y="168">ut</tspan><tspan class="cls-24" x="102.8" y="168"> </tspan><tspan x="107.46" y="168">aliquip</tspan><tspan class="cls-23" x="155.28" y="168"> </tspan><tspan x="159.94" y="168">ex</tspan><tspan class="cls-23" x="176.69" y="168"> </tspan><tspan x="181.36" y="168">ea</tspan><tspan class="cls-24" x="198.61" y="168"> </tspan><tspan x="203.28" y="168">com</tspan><tspan x="234.38" y="168">-</tspan><tspan x="0" y="192">modo</tspan><tspan class="cls-25" x="42.4" y="192"> </tspan><tspan x="47.44" y="192">consequat.</tspan><tspan class="cls-25" x="126.69" y="192"> </tspan><tspan x="131.72" y="192">Duis</tspan><tspan class="cls-26" x="163.53" y="192"> </tspan><tspan x="168.57" y="192">autem</tspan><tspan class="cls-25" x="214.75" y="192"> </tspan><tspan x="219.79" y="192">vel </tspan><tspan x="0" y="216">eum</tspan><tspan class="cls-27" x="32.34" y="216"> </tspan><tspan x="39.88" y="216">iriure</tspan><tspan class="cls-27" x="77.78" y="216"> </tspan><tspan x="85.31" y="216">dolor</tspan><tspan class="cls-28" x="123.43" y="216"> </tspan><tspan x="130.96" y="216">in</tspan><tspan class="cls-27" x="144.02" y="216"> </tspan><tspan x="151.55" y="216">hendrerit</tspan><tspan class="cls-27" x="218.94" y="216"> </tspan><tspan x="226.47" y="216">in </tspan></text><text class="cls-29" transform="translate(640 473.35)"><tspan class="cls-30"> </tspan><tspan x="1.85" y="0">Lorem</tspan><tspan class="cls-31" x="26.57" y="0" xml:space="preserve"> i</tspan><tspan x="31.21" y="0">ps</tspan><tspan class="cls-32" x="38.36" y="0">u</tspan><tspan x="43.3" y="0">m</tspan><tspan class="cls-30" x="51.19" y="0"> </tspan><tspan x="53.05" y="0">d</tspan><tspan class="cls-33" x="58.21" y="0">o</tspan><tspan x="61.81" y="0">lor</tspan><tspan class="cls-31" x="72.26" y="0"> </tspan><tspan x="74.11" y="0">sit</tspan><tspan class="cls-30" x="82.73" y="0"> </tspan><tspan class="cls-33" x="84.58" y="0">a</tspan><tspan x="89.29" y="0">met,</tspan><tspan class="cls-31" x="105.66" y="0" xml:space="preserve"> c</tspan><tspan x="110.5" y="0">onsectet</tspan><tspan class="cls-33" x="138.12" y="0">u</tspan><tspan x="143" y="0">er</tspan><tspan class="cls-30" x="150.21" y="0"> </tspan><tspan x="152.06" y="0">ad</tspan><tspan class="cls-32" x="162.13" y="0">i</tspan><tspan x="164.92" y="0">pisc</tspan><tspan class="cls-34" x="178.14" y="0">i</tspan><tspan x="180.93" y="0">ng</tspan><tspan class="cls-30" x="190.35" y="0"> </tspan><tspan class="cls-35" x="192.2" y="0">e</tspan><tspan x="195.36" y="0">lit,</tspan><tspan class="cls-31" x="206.23" y="0"> </tspan><tspan x="208.08" y="0">sed</tspan><tspan class="cls-30" x="219.41" y="0"> </tspan><tspan x="221.26" y="0">di</tspan><tspan class="cls-33" x="229.36" y="0">a</tspan><tspan x="234.07" y="0">m</tspan><tspan class="cls-31" x="241.96" y="0"> </tspan><tspan x="243.82" y="0">non</tspan><tspan class="cls-32" x="258.16" y="0">u</tspan><tspan x="263.1" y="0">m</tspan><tspan x="270.99" y="0">-</tspan><tspan class="cls-33" x="0" y="24">m</tspan><tspan x="7.69" y="24">y</tspan><tspan class="cls-36" x="11.74" y="24"> </tspan><tspan x="17.12" y="24">n</tspan><tspan class="cls-35" x="22.39" y="24">i</tspan><tspan class="cls-37" x="25.08" y="24">b</tspan><tspan x="29.37" y="24">h</tspan><tspan class="cls-36" x="34.25" y="24"> </tspan><tspan x="39.62" y="24">euismod</tspan><tspan class="cls-36" x="70.67" y="24"> </tspan><tspan x="76.05" y="24">t</tspan><tspan class="cls-34" x="78.97" y="24">i</tspan><tspan x="81.76" y="24">nc</tspan><tspan class="cls-33" x="90.16" y="24">i</tspan><tspan x="92.9" y="24">d</tspan><tspan class="cls-32" x="98.06" y="24">u</tspan><tspan x="103" y="24">nt</tspan><tspan class="cls-38" x="111.19" y="24"> </tspan><tspan x="116.56" y="24">ut</tspan><tspan class="cls-36" x="124.57" y="24"> </tspan><tspan x="129.95" y="24">laoreet</tspan><tspan class="cls-36" x="155.05" y="24"> </tspan><tspan x="160.43" y="24">d</tspan><tspan class="cls-33" x="165.59" y="24">o</tspan><tspan x="169.19" y="24">lore</tspan><tspan class="cls-36" x="183.05" y="24"> </tspan><tspan x="188.42" y="24">magna</tspan><tspan class="cls-36" x="215.55" y="24"> </tspan><tspan class="cls-33" x="220.93" y="24">a</tspan><tspan x="225.64" y="24">l</tspan><tspan class="cls-37" x="228.5" y="24">i</tspan><tspan x="231.24" y="24">qu</tspan><tspan class="cls-33" x="241.06" y="24">a</tspan><tspan x="245.77" y="24">m</tspan><tspan class="cls-36" x="253.66" y="24"> </tspan><tspan x="259.04" y="24">e</tspan><tspan class="cls-39" x="262.45" y="24">r</tspan><tspan x="265.84" y="24">at </tspan></text><text></text></svg>