<svg id="Livello_1" data-name="Livello 1" xmlns="http://www.w3.org/2000/svg" xmlns:xlink="http://www.w3.org/1999/xlink" viewBox="0 0 1190.55 1190.55"><defs><style>.cls-1,.cls-3,.cls-4,.cls-5{fill:none;}.cls-2{fill:#f39200;}.cls-3{stroke:#e71d73;}.cls-3,.cls-4,.cls-5{stroke-miterlimit:10;stroke-width:2px;}.cls-4{stroke:#36a9e1;}.cls-5{stroke:#2d2e83;}.cls-6{clip-path:url(#clip-path);}.cls-7{clip-path:url(#clip-path-2);}</style><clipPath id="clip-path"><rect class="cls-1" x="613.7" y="613.7" width="239.53" height="239.53"/></clipPath><clipPath id="clip-path-2"><circle class="cls-1" cx="420.9" cy="520.91" r="212.55"/></clipPath></defs><title>893407_05.svg</title><rect class="cls-2" width="1190.55" height="1190.55"/><rect class="cls-3" x="60.94" y="60.94" width="239.53" height="239.53"/><rect class="cls-3" x="337.32" y="60.94" width="239.53" height="239.53"/><rect class="cls-3" x="613.7" y="60.94" width="239.53" height="239.53"/><rect class="cls-3" x="890.08" y="60.94" width="239.53" height="239.53"/><rect class="cls-3" x="60.94" y="337.32" width="239.53" height="239.53"/><rect class="cls-3" x="337.32" y="337.32" width="239.53" height="239.53"/><rect class="cls-3" x="613.7" y="337.32" width="239.53" height="239.53"/><rect class="cls-3" x="890.08" y="337.32" width="239.53" height="239.53"/><rect class="cls-3" x="60.94" y="613.7" width="239.53" height="239.53"/><rect class="cls-3" x="337.32" y="613.7" width="239.53" height="239.53"/><rect class="cls-3" x="613.7" y="613.7" width="239.53" height="239.53"/><rect class="cls-3" x="890.08" y="613.7" width="239.53" height="239.53"/><rect class="cls-3" x="60.94" y="890.08" width="239.53" height="239.53"/><rect class="cls-3" x="337.32" y="890.08" width="239.53" height="239.53"/><rect class="cls-3" x="613.7" y="890.08" width="239.53" height="239.53"/><rect class="cls-3" x="890.08" y="890.08" width="239.53" height="239.53"/><rect class="cls-4" x="60.94" y="60.94" width="184.25" height="184.25"/><rect class="cls-4" x="282.05" y="60.94" width="184.25" height="184.25"/><rect class="cls-4" x="503.15" y="60.94" width="184.25" height="184.25"/><rect class="cls-4" x="724.25" y="60.94" width="184.25" height="184.25"/><rect class="cls-4" x="945.35" y="60.94" width="184.25" height="184.25"/><rect class="cls-4" x="60.94" y="282.05" width="184.25" height="184.25"/><rect class="cls-4" x="282.05" y="282.05" width="184.25" height="184.25"/><rect class="cls-4" x="503.15" y="282.05" width="184.25" height="184.25"/><rect class="cls-4" x="724.25" y="282.05" width="184.25" height="184.25"/><rect class="cls-4" x="945.35" y="282.05" width="184.25" height="184.25"/><rect class="cls-4" x="60.94" y="503.15" width="184.25" height="184.25"/><rect class="cls-4" x="282.05" y="503.15" width="184.25" height="184.25"/><rect class="cls-4" x="503.15" y="503.15" width="184.25" height="184.25"/><rect class="cls-4" x="724.25" y="503.15" width="184.25" height="184.25"/><rect class="cls-4" x="945.35" y="503.15" width="184.25" height="184.25"/><rect class="cls-4" x="60.94" y="724.25" width="184.25" height="184.25"/><rect class="cls-4" x="282.05" y="724.25" width="184.25" height="184.25"/><rect class="cls-4" x="503.15" y="724.25" width="184.25" height="184.25"/><rect class="cls-4" x="724.25" y="724.25" width="184.25" height="184.25"/><rect class="cls-4" x="945.35" y="724.25" width="184.25" height="184.25"/><rect class="cls-4" x="60.94" y="945.35" width="184.25" height="184.25"/><rect class="cls-4" x="282.05" y="945.35" width="184.25" height="184.25"/><rect class="cls-4" x="503.15" y="945.35" width="184.25" height="184.25"/><rect class="cls-4" x="724.25" y="945.35" width="184.25" height="184.25"/><rect class="cls-4" x="945.35" y="945.35" width="184.25" height="184.25"/><rect class="cls-5" x="60.94" y="60.94" width="147.4" height="147.4"/><rect class="cls-5" x="245.2" y="60.94" width="147.4" height="147.4"/><rect class="cls-5" x="429.45" y="60.94" width="147.4" height="147.4"/><rect class="cls-5" x="613.7" y="60.94" width="147.4" height="147.4"/><rect class="cls-5" x="797.95" y="60.94" width="147.4" height="147.4"/><rect class="cls-5" x="982.2" y="60.94" width="147.4" height="147.4"/><rect class="cls-5" x="60.94" y="245.2" width="147.4" height="147.4"/><rect class="cls-5" x="245.2" y="245.2" width="147.4" height="147.4"/><rect class="cls-5" x="429.45" y="245.2" width="147.4" height="147.4"/><rect class="cls-5" x="613.7" y="245.2" width="147.4" height="147.4"/><rect class="cls-5" x="797.95" y="245.2" width="147.4" height="147.4"/><rect class="cls-5" x="982.2" y="245.2" width="147.4" height="147.4"/><rect class="cls-5" x="60.94" y="429.45" width="147.4" height="147.4"/><rect class="cls-5" x="245.2" y="429.45" width="147.4" height="147.4"/><rect class="cls-5" x="429.45" y="429.45" width="147.4" height="147.4"/><rect class="cls-5" x="613.7" y="429.45" width="147.4" height="147.4"/><rect class="cls-5" x="797.95" y="429.45" width="147.4" height="147.4"/><rect class="cls-5" x="982.2" y="429.45" width="147.4" height="147.4"/><rect class="cls-5" x="60.94" y="613.7" width="147.4" height="147.4"/><rect class="cls-5" x="245.2" y="613.7" width="147.4" height="147.4"/><rect class="cls-5" x="429.45" y="613.7" width="147.4" height="147.4"/><rect class="cls-5" x="613.7" y="613.7" width="147.4" height="147.4"/><rect class="cls-5" x="797.95" y="613.7" width="147.4" height="147.4"/><rect class="cls-5" x="982.2" y="613.7" width="147.4" height="147.4"/><rect class="cls-5" x="60.94" y="797.95" width="147.4" height="147.4"/><rect class="cls-5" x="245.2" y="797.95" width="147.4" height="147.4"/><rect class="cls-5" x="429.45" y="797.95" width="147.4" height="147.4"/><rect class="cls-5" x="613.7" y="797.95" width="147.4" height="147.4"/><rect class="cls-5" x="797.95" y="797.95" width="147.4" height="147.4"/><rect class="cls-5" x="982.2" y="797.95" width="147.4" height="147.4"/><rect class="cls-5" x="60.94" y="982.2" width="147.4" height="147.4"/><rect class="cls-5" x="245.2" y="982.2" width="147.4" height="147.4"/><rect class="cls-5" x="429.45" y="982.2" width="147.4" height="147.4"/><rect class="cls-5" x="613.7" y="982.2" width="147.4" height="147.4"/><rect class="cls-5" x="797.95" y="982.2" width="147.4" height="147.4"/><rect class="cls-5" x="982.2" y="982.2" width="147.4" height="147.4"/><g class="cls-6"><image width="540" height="960" transform="translate(611.4 60.94) scale(0.96)" xlink:href="../../../Desktop/4c25946b72e9b64dd81bb3327f403621.jpg"/></g><g class="cls-7"><image width="500" height="801" transform="translate(147.29 46.05)" xlink:href="893407_05.jpg"/></g></svg>