<svg xmlns="http://www.w3.org/2000/svg" viewBox="0 0 1190.55 1190.55"><defs><style>.cls-1{fill:#7bacb2;}.cls-2,.cls-3,.cls-4{fill:none;stroke-miterlimit:10;}.cls-2{stroke:#fff;}.cls-3{stroke:#fc5a00;}.cls-4{stroke:#050044;}</style></defs><title>Tavola disegno 1</title><g id="Livello_1" data-name="Livello 1"><rect class="cls-1" x="0.25" y="0.96" width="1190.55" height="1190.55"/><rect class="cls-2" x="60.94" y="61.94" width="239.53" height="239.53"/><rect class="cls-2" x="337.32" y="61.94" width="239.53" height="239.53"/><rect class="cls-2" x="613.7" y="61.94" width="239.53" height="239.53"/><rect class="cls-2" x="890.08" y="61.94" width="239.53" height="239.53"/><rect class="cls-2" x="60.94" y="338.32" width="239.53" height="239.53"/><rect class="cls-2" x="337.32" y="338.32" width="239.53" height="239.53"/><rect class="cls-2" x="613.7" y="338.32" width="239.53" height="239.53"/><rect class="cls-2" x="890.08" y="338.32" width="239.53" height="239.53"/><rect class="cls-2" x="60.94" y="614.7" width="239.53" height="239.53"/><rect class="cls-2" x="337.32" y="614.7" width="239.53" height="239.53"/><rect class="cls-2" x="613.7" y="614.7" width="239.53" height="239.53"/><rect class="cls-2" x="890.08" y="613.7" width="239.53" height="239.53"/><rect class="cls-2" x="60.94" y="890.07" width="239.53" height="239.53"/><rect class="cls-2" x="337.32" y="890.07" width="239.53" height="239.53"/><rect class="cls-2" x="613.7" y="890.07" width="239.53" height="239.53"/><rect class="cls-2" x="890.08" y="890.07" width="239.53" height="239.53"/></g><g id="griglia_2" data-name="griglia 2"><rect class="cls-3" x="60.94" y="60.94" width="184.25" height="184.25"/><rect class="cls-3" x="282.05" y="60.94" width="184.25" height="184.25"/><rect class="cls-3" x="503.15" y="60.94" width="184.25" height="184.25"/><rect class="cls-3" x="724.25" y="60.94" width="184.25" height="184.25"/><rect class="cls-3" x="945.35" y="60.94" width="184.25" height="184.25"/><rect class="cls-3" x="60.94" y="282.04" width="184.25" height="184.25"/><rect class="cls-3" x="282.05" y="282.04" width="184.25" height="184.25"/><rect class="cls-3" x="503.15" y="282.04" width="184.25" height="184.25"/><rect class="cls-3" x="724.25" y="282.04" width="184.25" height="184.25"/><rect class="cls-3" x="945.35" y="282.04" width="184.25" height="184.25"/><rect class="cls-3" x="60.94" y="503.14" width="184.25" height="184.25"/><rect class="cls-3" x="282.05" y="503.14" width="184.25" height="184.25"/><rect class="cls-3" x="503.15" y="503.14" width="184.25" height="184.25"/><rect class="cls-3" x="724.25" y="503.14" width="184.25" height="184.25"/><rect class="cls-3" x="945.35" y="503.14" width="184.25" height="184.25"/><rect class="cls-3" x="60.94" y="724.25" width="184.25" height="184.25"/><rect class="cls-3" x="282.05" y="724.25" width="184.25" height="184.25"/><rect class="cls-3" x="503.15" y="724.25" width="184.25" height="184.25"/><rect class="cls-3" x="724.25" y="724.25" width="184.25" height="184.25"/><rect class="cls-3" x="945.35" y="724.25" width="184.25" height="184.25"/><rect class="cls-3" x="60.94" y="945.35" width="184.25" height="184.25"/><rect class="cls-3" x="282.05" y="945.35" width="184.25" height="184.25"/><rect class="cls-3" x="503.15" y="945.35" width="184.25" height="184.25"/><rect class="cls-3" x="724.25" y="945.35" width="184.25" height="184.25"/><rect class="cls-3" x="945.35" y="945.35" width="184.25" height="184.25"/></g><g id="Livello_3" data-name="Livello 3"><rect class="cls-4" x="60.94" y="60.94" width="147.4" height="147.4"/><rect class="cls-4" x="245.2" y="60.94" width="147.4" height="147.4"/><rect class="cls-4" x="429.45" y="60.94" width="147.4" height="147.4"/><rect class="cls-4" x="613.7" y="60.94" width="147.4" height="147.4"/><rect class="cls-4" x="797.95" y="60.94" width="147.4" height="147.4"/><rect class="cls-4" x="982.2" y="60.94" width="147.4" height="147.4"/><rect class="cls-4" x="60.94" y="245.19" width="147.4" height="147.4"/><rect class="cls-4" x="245.2" y="245.19" width="147.4" height="147.4"/><rect class="cls-4" x="429.45" y="245.19" width="147.4" height="147.4"/><rect class="cls-4" x="613.7" y="245.19" width="147.4" height="147.4"/><rect class="cls-4" x="797.95" y="245.19" width="147.4" height="147.4"/><rect class="cls-4" x="982.2" y="245.19" width="147.4" height="147.4"/><rect class="cls-4" x="60.94" y="429.44" width="147.4" height="147.4"/><rect class="cls-4" x="245.2" y="429.44" width="147.4" height="147.4"/><rect class="cls-4" x="429.45" y="429.44" width="147.4" height="147.4"/><rect class="cls-4" x="613.7" y="429.44" width="147.4" height="147.4"/><rect class="cls-4" x="797.95" y="429.44" width="147.4" height="147.4"/><rect class="cls-4" x="982.2" y="429.44" width="147.4" height="147.4"/><rect class="cls-4" x="60.94" y="613.7" width="147.4" height="147.4"/><rect class="cls-4" x="245.2" y="613.7" width="147.4" height="147.4"/><rect class="cls-4" x="429.45" y="613.7" width="147.4" height="147.4"/><rect class="cls-4" x="613.7" y="613.7" width="147.4" height="147.4"/><rect class="cls-4" x="797.95" y="613.7" width="147.4" height="147.4"/><rect class="cls-4" x="982.2" y="613.7" width="147.4" height="147.4"/><rect class="cls-4" x="60.94" y="797.95" width="147.4" height="147.4"/><rect class="cls-4" x="245.2" y="797.95" width="147.4" height="147.4"/><rect class="cls-4" x="429.45" y="797.95" width="147.4" height="147.4"/><rect class="cls-4" x="613.7" y="797.95" width="147.4" height="147.4"/><rect class="cls-4" x="797.95" y="797.95" width="147.4" height="147.4"/><rect class="cls-4" x="982.2" y="797.95" width="147.4" height="147.4"/><rect class="cls-4" x="60.94" y="982.2" width="147.4" height="147.4"/><rect class="cls-4" x="245.2" y="982.2" width="147.4" height="147.4"/><rect class="cls-4" x="429.45" y="982.2" width="147.4" height="147.4"/><rect class="cls-4" x="613.7" y="982.2" width="147.4" height="147.4"/><rect class="cls-4" x="797.95" y="982.2" width="147.4" height="147.4"/><rect class="cls-4" x="982.2" y="982.2" width="147.4" height="147.4"/></g></svg>