<svg xmlns="http://www.w3.org/2000/svg" xmlns:xlink="http://www.w3.org/1999/xlink" viewBox="0 0 1297 1191"><defs><style>.cls-1,.cls-4,.cls-7{fill:none;}.cls-2,.cls-3{fill:#1b1556;}.cls-3{stroke:aqua;}.cls-3,.cls-4,.cls-7{stroke-miterlimit:10;stroke-width:4px;}.cls-4{stroke:#0082ff;}.cls-5{clip-path:url(#clip-path);}.cls-6{clip-path:url(#clip-path-2);}.cls-7{stroke:#ff7bac;}</style><clipPath id="clip-path" transform="translate(106)"><rect class="cls-1" x="498.37" y="501.37" width="184.25" height="184.25"/></clipPath><clipPath id="clip-path-2" transform="translate(106)"><circle class="cls-1" cx="314" cy="317" r="111"/></clipPath></defs><title>893573_05</title><g id="Capa_1" data-name="Capa 1"><rect class="cls-2" x="106" width="1191" height="1191"/><rect class="cls-3" x="162" y="59" width="239.53" height="239.53"/><rect class="cls-3" x="438.38" y="59" width="239.53" height="239.53"/><rect class="cls-3" x="714.76" y="59" width="239.53" height="239.53"/><rect class="cls-3" x="991.13" y="59" width="239.53" height="239.53"/><rect class="cls-3" x="162" y="335.38" width="239.53" height="239.53"/><rect class="cls-3" x="438.38" y="335.38" width="239.53" height="239.53"/><rect class="cls-3" x="714.76" y="335.38" width="239.53" height="239.53"/><rect class="cls-3" x="991.13" y="335.38" width="239.53" height="239.53"/><rect class="cls-3" x="162" y="611.76" width="239.53" height="239.53"/><rect class="cls-3" x="438.38" y="611.76" width="239.53" height="239.53"/><rect class="cls-3" x="714.76" y="611.76" width="239.53" height="239.53"/><rect class="cls-3" x="991.13" y="611.76" width="239.53" height="239.53"/><rect class="cls-3" x="162" y="888.13" width="239.53" height="239.53"/><rect class="cls-3" x="438.38" y="888.13" width="239.53" height="239.53"/><rect class="cls-3" x="714.76" y="888.13" width="239.53" height="239.53"/><rect class="cls-3" x="991.13" y="888.13" width="239.53" height="239.53"/></g><g id="griglia2"><rect class="cls-4" x="162" y="59" width="184.25" height="184.25"/><rect class="cls-4" x="383.19" y="59" width="184.25" height="184.25"/><rect class="cls-4" x="604.37" y="59" width="184.25" height="184.25"/><rect class="cls-4" x="825.56" y="59" width="184.25" height="184.25"/><rect class="cls-4" x="1046.75" y="59" width="184.25" height="184.25"/><rect class="cls-4" x="162" y="280.19" width="184.25" height="184.25"/><rect class="cls-4" x="383.19" y="280.19" width="184.25" height="184.25"/><rect class="cls-4" x="604.37" y="280.19" width="184.25" height="184.25"/><rect class="cls-4" x="825.56" y="280.19" width="184.25" height="184.25"/><rect class="cls-4" x="1046.75" y="280.19" width="184.25" height="184.25"/><rect class="cls-4" x="162" y="501.37" width="184.25" height="184.25"/><rect class="cls-4" x="383.19" y="501.37" width="184.25" height="184.25"/><g class="cls-5"><image width="6016" height="4000" transform="translate(162 59) scale(0.18 0.18)" xlink:href="../../../marsella/DSC_0061.JPG"/></g><rect class="cls-4" x="825.56" y="501.37" width="184.25" height="184.25"/><rect class="cls-4" x="1046.75" y="501.37" width="184.25" height="184.25"/><rect class="cls-4" x="162" y="722.56" width="184.25" height="184.25"/><rect class="cls-4" x="383.19" y="722.56" width="184.25" height="184.25"/><rect class="cls-4" x="604.37" y="722.56" width="184.25" height="184.25"/><rect class="cls-4" x="825.56" y="722.56" width="184.25" height="184.25"/><rect class="cls-4" x="1046.75" y="722.56" width="184.25" height="184.25"/><rect class="cls-4" x="162" y="943.75" width="184.25" height="184.25"/><rect class="cls-4" x="383.19" y="943.75" width="184.25" height="184.25"/><rect class="cls-4" x="604.37" y="943.75" width="184.25" height="184.25"/><rect class="cls-4" x="825.56" y="943.75" width="184.25" height="184.25"/><rect class="cls-4" x="1046.75" y="943.75" width="184.25" height="184.25"/></g><g id="circulo"><g class="cls-6"><image width="6016" height="4000" transform="translate(0 133) scale(0.1)" xlink:href="../../../marsella/DSC_0169.JPG"/></g></g><g id="griglia3"><rect class="cls-7" x="162" y="59" width="147.4" height="147.4"/><rect class="cls-7" x="346.32" y="59" width="147.4" height="147.4"/><rect class="cls-7" x="530.64" y="59" width="147.4" height="147.4"/><rect class="cls-7" x="714.96" y="59" width="147.4" height="147.4"/><rect class="cls-7" x="899.28" y="59" width="147.4" height="147.4"/><rect class="cls-7" x="1083.6" y="59" width="147.4" height="147.4"/><rect class="cls-7" x="162" y="243.32" width="147.4" height="147.4"/><rect class="cls-7" x="346.32" y="243.32" width="147.4" height="147.4"/><rect class="cls-7" x="530.64" y="243.32" width="147.4" height="147.4"/><rect class="cls-7" x="714.96" y="243.32" width="147.4" height="147.4"/><rect class="cls-7" x="899.28" y="243.32" width="147.4" height="147.4"/><rect class="cls-7" x="1083.6" y="243.32" width="147.4" height="147.4"/><rect class="cls-7" x="162" y="427.64" width="147.4" height="147.4"/><rect class="cls-7" x="346.32" y="427.64" width="147.4" height="147.4"/><rect class="cls-7" x="530.64" y="427.64" width="147.4" height="147.4"/><rect class="cls-7" x="714.96" y="427.64" width="147.4" height="147.4"/><rect class="cls-7" x="899.28" y="427.64" width="147.4" height="147.4"/><rect class="cls-7" x="1083.6" y="427.64" width="147.4" height="147.4"/><rect class="cls-7" x="162" y="611.96" width="147.4" height="147.4"/><rect class="cls-7" x="346.32" y="611.96" width="147.4" height="147.4"/><rect class="cls-7" x="530.64" y="611.96" width="147.4" height="147.4"/><rect class="cls-7" x="714.96" y="611.96" width="147.4" height="147.4"/><rect class="cls-7" x="899.28" y="611.96" width="147.4" height="147.4"/><rect class="cls-7" x="1083.6" y="611.96" width="147.4" height="147.4"/><rect class="cls-7" x="162" y="796.28" width="147.4" height="147.4"/><rect class="cls-7" x="346.32" y="796.28" width="147.4" height="147.4"/><rect class="cls-7" x="530.64" y="796.28" width="147.4" height="147.4"/><rect class="cls-7" x="714.96" y="796.28" width="147.4" height="147.4"/><rect class="cls-7" x="899.28" y="796.28" width="147.4" height="147.4"/><rect class="cls-7" x="1083.6" y="796.28" width="147.4" height="147.4"/><rect class="cls-7" x="162" y="980.6" width="147.4" height="147.4"/><rect class="cls-7" x="346.32" y="980.6" width="147.4" height="147.4"/><rect class="cls-7" x="530.64" y="980.6" width="147.4" height="147.4"/><rect class="cls-7" x="714.96" y="980.6" width="147.4" height="147.4"/><rect class="cls-7" x="899.28" y="980.6" width="147.4" height="147.4"/><rect class="cls-7" x="1083.6" y="980.6" width="147.4" height="147.4"/></g></svg>