<svg xmlns="http://www.w3.org/2000/svg" xmlns:xlink="http://www.w3.org/1999/xlink" viewBox="0 0 1190.55 1190.55"><defs><style>.cls-1,.cls-3,.cls-4,.cls-5{fill:none;}.cls-2{fill:#df5;}.cls-3{stroke:blue;}.cls-3,.cls-4,.cls-5{stroke-miterlimit:10;}.cls-4{stroke:#39b54a;}.cls-5{stroke:red;}.cls-6{clip-path:url(#clip-path);}.cls-7{clip-path:url(#clip-path-2);}</style><clipPath id="clip-path"><rect class="cls-1" x="337.32" y="336.67" width="239.53" height="239.53"/></clipPath><clipPath id="clip-path-2"><circle class="cls-1" cx="908.5" cy="908.5" r="170.8"/></clipPath></defs><title>Tavola disegno 1893537_05</title><g id="Livello_1" data-name="Livello 1"><rect class="cls-2" width="1190.55" height="1190.55"/></g><g id="Livello_3" data-name="Livello 3"><rect class="cls-3" x="60.94" y="60.94" width="184.25" height="184.25"/><rect class="cls-3" x="282.05" y="60.94" width="184.25" height="184.25"/><rect class="cls-3" x="503.15" y="60.94" width="184.25" height="184.25"/><rect class="cls-3" x="724.25" y="60.94" width="184.25" height="184.25"/><rect class="cls-3" x="945.35" y="60.94" width="184.25" height="184.25"/><rect class="cls-3" x="60.94" y="282.05" width="184.25" height="184.25"/><rect class="cls-3" x="282.05" y="282.05" width="184.25" height="184.25"/><rect class="cls-3" x="503.15" y="282.05" width="184.25" height="184.25"/><rect class="cls-3" x="724.25" y="282.05" width="184.25" height="184.25"/><rect class="cls-3" x="945.35" y="282.05" width="184.25" height="184.25"/><rect class="cls-3" x="60.94" y="503.15" width="184.25" height="184.25"/><rect class="cls-3" x="282.05" y="503.15" width="184.25" height="184.25"/><rect class="cls-3" x="503.15" y="503.15" width="184.25" height="184.25"/><rect class="cls-3" x="724.25" y="503.15" width="184.25" height="184.25"/><rect class="cls-3" x="945.35" y="503.15" width="184.25" height="184.25"/><rect class="cls-3" x="60.94" y="724.25" width="184.25" height="184.25"/><rect class="cls-3" x="282.05" y="724.25" width="184.25" height="184.25"/><rect class="cls-3" x="503.15" y="724.25" width="184.25" height="184.25"/><rect class="cls-3" x="724.25" y="724.25" width="184.25" height="184.25"/><rect class="cls-3" x="945.35" y="724.25" width="184.25" height="184.25"/><rect class="cls-3" x="60.94" y="945.35" width="184.25" height="184.25"/><rect class="cls-3" x="282.05" y="945.35" width="184.25" height="184.25"/><rect class="cls-3" x="503.15" y="945.35" width="184.25" height="184.25"/><rect class="cls-3" x="724.25" y="945.35" width="184.25" height="184.25"/><rect class="cls-3" x="945.35" y="945.35" width="184.25" height="184.25"/></g><g id="Livello_4" data-name="Livello 4"><rect class="cls-4" x="62.94" y="60.94" width="147.4" height="147.4"/><rect class="cls-4" x="247.2" y="60.94" width="147.4" height="147.4"/><rect class="cls-4" x="431.45" y="60.94" width="147.4" height="147.4"/><rect class="cls-4" x="615.7" y="60.94" width="147.4" height="147.4"/><rect class="cls-4" x="799.95" y="60.94" width="147.4" height="147.4"/><rect class="cls-4" x="984.2" y="60.94" width="147.4" height="147.4"/><rect class="cls-4" x="62.94" y="245.2" width="147.4" height="147.4"/><rect class="cls-4" x="247.2" y="245.2" width="147.4" height="147.4"/><rect class="cls-4" x="431.45" y="245.2" width="147.4" height="147.4"/><rect class="cls-4" x="615.7" y="245.2" width="147.4" height="147.4"/><rect class="cls-4" x="799.95" y="245.2" width="147.4" height="147.4"/><rect class="cls-4" x="984.2" y="245.2" width="147.4" height="147.4"/><rect class="cls-4" x="62.94" y="429.45" width="147.4" height="147.4"/><rect class="cls-4" x="247.2" y="429.45" width="147.4" height="147.4"/><rect class="cls-4" x="431.45" y="429.45" width="147.4" height="147.4"/><rect class="cls-4" x="615.7" y="429.45" width="147.4" height="147.4"/><rect class="cls-4" x="799.95" y="429.45" width="147.4" height="147.4"/><rect class="cls-4" x="984.2" y="429.45" width="147.4" height="147.4"/><rect class="cls-4" x="62.94" y="613.7" width="147.4" height="147.4"/><rect class="cls-4" x="247.2" y="613.7" width="147.4" height="147.4"/><rect class="cls-4" x="431.45" y="613.7" width="147.4" height="147.4"/><rect class="cls-4" x="615.7" y="613.7" width="147.4" height="147.4"/><rect class="cls-4" x="799.95" y="613.7" width="147.4" height="147.4"/><rect class="cls-4" x="984.2" y="613.7" width="147.4" height="147.4"/><rect class="cls-4" x="58.94" y="797.95" width="147.4" height="147.4"/><rect class="cls-4" x="243.2" y="797.95" width="147.4" height="147.4"/><rect class="cls-4" x="427.45" y="797.95" width="147.4" height="147.4"/><rect class="cls-4" x="611.7" y="797.95" width="147.4" height="147.4"/><rect class="cls-4" x="795.95" y="797.95" width="147.4" height="147.4"/><rect class="cls-4" x="980.2" y="797.95" width="147.4" height="147.4"/><rect class="cls-4" x="58.94" y="982.2" width="147.4" height="147.4"/><rect class="cls-4" x="243.2" y="982.2" width="147.4" height="147.4"/><rect class="cls-4" x="427.45" y="982.2" width="147.4" height="147.4"/><rect class="cls-4" x="611.7" y="982.2" width="147.4" height="147.4"/><rect class="cls-4" x="795.95" y="982.2" width="147.4" height="147.4"/><rect class="cls-4" x="980.2" y="982.2" width="147.4" height="147.4"/></g><g id="Livello_2" data-name="Livello 2"><rect class="cls-5" x="60.94" y="60.94" width="239.53" height="239.53"/><rect class="cls-5" x="337.32" y="60.94" width="239.53" height="239.53"/><rect class="cls-5" x="613.7" y="60.94" width="239.53" height="239.53"/><rect class="cls-5" x="890.08" y="60.94" width="239.53" height="239.53"/><rect class="cls-5" x="60.94" y="337.32" width="239.53" height="239.53"/><rect class="cls-5" x="337.32" y="337.32" width="239.53" height="239.53"/><rect class="cls-5" x="613.7" y="337.32" width="239.53" height="239.53"/><rect class="cls-5" x="890.08" y="337.32" width="239.53" height="239.53"/><rect class="cls-5" x="60.94" y="613.7" width="239.53" height="239.53"/><rect class="cls-5" x="337.32" y="613.7" width="239.53" height="239.53"/><rect class="cls-5" x="613.7" y="613.7" width="239.53" height="239.53"/><rect class="cls-5" x="890.08" y="613.7" width="239.53" height="239.53"/><rect class="cls-5" x="60.94" y="890.08" width="239.53" height="239.53"/><rect class="cls-5" x="337.32" y="890.08" width="239.53" height="239.53"/><rect class="cls-5" x="613.7" y="890.08" width="239.53" height="239.53"/><rect class="cls-5" x="890.08" y="890.08" width="239.53" height="239.53"/></g><g id="Livello_5" data-name="Livello 5"><g class="cls-6"><image width="547" height="308" transform="translate(245.2 303.09)" xlink:href="893537_03.jpg"/></g></g><g id="Livello_6" data-name="Livello 6"><g class="cls-7"><image width="480" height="360" transform="translate(681.6 715.06)" xlink:href="893537_05.jpg"/></g></g></svg>