<svg xmlns="http://www.w3.org/2000/svg" xmlns:xlink="http://www.w3.org/1999/xlink" viewBox="0 0 1297 1191"><defs><style>.cls-1,.cls-4,.cls-7{fill:none;}.cls-2,.cls-3{fill:#1b1556;}.cls-3{stroke:aqua;}.cls-3,.cls-4,.cls-7{stroke-miterlimit:10;stroke-width:4px;}.cls-4{stroke:#0082ff;}.cls-5{clip-path:url(#clip-path);}.cls-6{clip-path:url(#clip-path-2);}.cls-7{stroke:#ff7bac;}.cls-8{font-size:60px;fill:#fff;font-family:OpenSansCondensed-Bold, Open Sans Condensed;font-weight:700;}.cls-9{letter-spacing:-0.03em;}.cls-10{font-size:16px;font-family:OpenSans-Light, Open Sans;}.cls-10,.cls-12,.cls-18{fill:#fcfcfc;}.cls-11{font-size:16.18px;letter-spacing:0em;}.cls-12{font-size:10px;font-family:EBGaramond-Italic, EB Garamond;font-style:italic;}.cls-13{letter-spacing:-0.02em;}.cls-14{letter-spacing:0em;}.cls-15{letter-spacing:-0.01em;}.cls-16{letter-spacing:-0.02em;}.cls-17{letter-spacing:-0.01em;}.cls-18{font-size:12px;font-family:EBGaramond-Regular, EB Garamond;}.cls-19{letter-spacing:0.33em;}.cls-20{letter-spacing:0.33em;}.cls-21{letter-spacing:-0.02em;}.cls-22{letter-spacing:-0.01em;}.cls-23{letter-spacing:0.51em;}.cls-24{letter-spacing:0.51em;}.cls-25{letter-spacing:-0.04em;}.cls-26{letter-spacing:0.24em;}.cls-27{letter-spacing:-0.01em;}.cls-28{letter-spacing:0.24em;}.cls-29{letter-spacing:-0.01em;}.cls-30{letter-spacing:0.1em;}.cls-31{letter-spacing:0.1em;}.cls-32{letter-spacing:-0.02em;}.cls-33{letter-spacing:-0.02em;}.cls-34{letter-spacing:0.06em;}.cls-35{letter-spacing:0.06em;}.cls-36{letter-spacing:0.1em;}.cls-37{letter-spacing:0.1em;}.cls-38{letter-spacing:0.14em;}.cls-39{letter-spacing:0.24em;}.cls-40{letter-spacing:0em;}.cls-41{letter-spacing:0.21em;}</style><clipPath id="clip-path" transform="translate(106)"><rect class="cls-1" x="498.37" y="501.37" width="184.25" height="184.25"/></clipPath><clipPath id="clip-path-2" transform="translate(106)"><circle class="cls-1" cx="314" cy="317" r="111"/></clipPath></defs><title>893573_07</title><g id="Capa_1" data-name="Capa 1"><rect class="cls-2" x="106" width="1191" height="1191"/><rect class="cls-3" x="162" y="59" width="239.53" height="239.53"/><rect class="cls-3" x="438.38" y="59" width="239.53" height="239.53"/><rect class="cls-3" x="714.76" y="59" width="239.53" height="239.53"/><rect class="cls-3" x="991.13" y="59" width="239.53" height="239.53"/><rect class="cls-3" x="162" y="335.38" width="239.53" height="239.53"/><rect class="cls-3" x="438.38" y="335.38" width="239.53" height="239.53"/><rect class="cls-3" x="714.76" y="335.38" width="239.53" height="239.53"/><rect class="cls-3" x="991.13" y="335.38" width="239.53" height="239.53"/><rect class="cls-3" x="162" y="611.76" width="239.53" height="239.53"/><rect class="cls-3" x="438.38" y="611.76" width="239.53" height="239.53"/><rect class="cls-3" x="714.76" y="611.76" width="239.53" height="239.53"/><rect class="cls-3" x="991.13" y="611.76" width="239.53" height="239.53"/><rect class="cls-3" x="162" y="888.13" width="239.53" height="239.53"/><rect class="cls-3" x="438.38" y="888.13" width="239.53" height="239.53"/><rect class="cls-3" x="714.76" y="888.13" width="239.53" height="239.53"/><rect class="cls-3" x="991.13" y="888.13" width="239.53" height="239.53"/></g><g id="griglia2"><rect class="cls-4" x="162" y="59" width="184.25" height="184.25"/><rect class="cls-4" x="383.19" y="59" width="184.25" height="184.25"/><rect class="cls-4" x="604.37" y="59" width="184.25" height="184.25"/><rect class="cls-4" x="825.56" y="59" width="184.25" height="184.25"/><rect class="cls-4" x="1046.75" y="59" width="184.25" height="184.25"/><rect class="cls-4" x="162" y="280.19" width="184.25" height="184.25"/><rect class="cls-4" x="383.19" y="280.19" width="184.25" height="184.25"/><rect class="cls-4" x="604.37" y="280.19" width="184.25" height="184.25"/><rect class="cls-4" x="825.56" y="280.19" width="184.25" height="184.25"/><rect class="cls-4" x="1046.75" y="280.19" width="184.25" height="184.25"/><rect class="cls-4" x="162" y="501.37" width="184.25" height="184.25"/><rect class="cls-4" x="383.19" y="501.37" width="184.25" height="184.25"/><g class="cls-5"><image width="6016" height="4000" transform="translate(162 59) scale(0.18 0.18)" xlink:href="../../../marsella/DSC_0061.JPG"/></g><rect class="cls-4" x="825.56" y="501.37" width="184.25" height="184.25"/><rect class="cls-4" x="1046.75" y="501.37" width="184.25" height="184.25"/><rect class="cls-4" x="162" y="722.56" width="184.25" height="184.25"/><rect class="cls-4" x="383.19" y="722.56" width="184.25" height="184.25"/><rect class="cls-4" x="604.37" y="722.56" width="184.25" height="184.25"/><rect class="cls-4" x="825.56" y="722.56" width="184.25" height="184.25"/><rect class="cls-4" x="1046.75" y="722.56" width="184.25" height="184.25"/><rect class="cls-4" x="162" y="943.75" width="184.25" height="184.25"/><rect class="cls-4" x="383.19" y="943.75" width="184.25" height="184.25"/><rect class="cls-4" x="604.37" y="943.75" width="184.25" height="184.25"/><rect class="cls-4" x="825.56" y="943.75" width="184.25" height="184.25"/><rect class="cls-4" x="1046.75" y="943.75" width="184.25" height="184.25"/></g><g id="circulo"><g class="cls-6"><image width="6016" height="4000" transform="translate(0 133) scale(0.1)" xlink:href="../../../marsella/DSC_0169.JPG"/></g></g><g id="griglia3"><rect class="cls-7" x="162" y="59" width="147.4" height="147.4"/><rect class="cls-7" x="346.32" y="59" width="147.4" height="147.4"/><rect class="cls-7" x="530.64" y="59" width="147.4" height="147.4"/><rect class="cls-7" x="714.96" y="59" width="147.4" height="147.4"/><rect class="cls-7" x="899.28" y="59" width="147.4" height="147.4"/><rect class="cls-7" x="1083.6" y="59" width="147.4" height="147.4"/><rect class="cls-7" x="162" y="243.32" width="147.4" height="147.4"/><rect class="cls-7" x="346.32" y="243.32" width="147.4" height="147.4"/><rect class="cls-7" x="530.64" y="243.32" width="147.4" height="147.4"/><rect class="cls-7" x="714.96" y="243.32" width="147.4" height="147.4"/><rect class="cls-7" x="899.28" y="243.32" width="147.4" height="147.4"/><rect class="cls-7" x="1083.6" y="243.32" width="147.4" height="147.4"/><rect class="cls-7" x="162" y="427.64" width="147.4" height="147.4"/><rect class="cls-7" x="346.32" y="427.64" width="147.4" height="147.4"/><rect class="cls-7" x="530.64" y="427.64" width="147.4" height="147.4"/><rect class="cls-7" x="714.96" y="427.64" width="147.4" height="147.4"/><rect class="cls-7" x="899.28" y="427.64" width="147.4" height="147.4"/><rect class="cls-7" x="1083.6" y="427.64" width="147.4" height="147.4"/><rect class="cls-7" x="162" y="611.96" width="147.4" height="147.4"/><rect class="cls-7" x="346.32" y="611.96" width="147.4" height="147.4"/><rect class="cls-7" x="530.64" y="611.96" width="147.4" height="147.4"/><rect class="cls-7" x="714.96" y="611.96" width="147.4" height="147.4"/><rect class="cls-7" x="899.28" y="611.96" width="147.4" height="147.4"/><rect class="cls-7" x="1083.6" y="611.96" width="147.4" height="147.4"/><rect class="cls-7" x="162" y="796.28" width="147.4" height="147.4"/><rect class="cls-7" x="346.32" y="796.28" width="147.4" height="147.4"/><rect class="cls-7" x="530.64" y="796.28" width="147.4" height="147.4"/><rect class="cls-7" x="714.96" y="796.28" width="147.4" height="147.4"/><rect class="cls-7" x="899.28" y="796.28" width="147.4" height="147.4"/><rect class="cls-7" x="1083.6" y="796.28" width="147.4" height="147.4"/><rect class="cls-7" x="162" y="980.6" width="147.4" height="147.4"/><rect class="cls-7" x="346.32" y="980.6" width="147.4" height="147.4"/><rect class="cls-7" x="530.64" y="980.6" width="147.4" height="147.4"/><rect class="cls-7" x="714.96" y="980.6" width="147.4" height="147.4"/><rect class="cls-7" x="899.28" y="980.6" width="147.4" height="147.4"/><rect class="cls-7" x="1083.6" y="980.6" width="147.4" height="147.4"/></g><g id="testo"><text x="106"></text><text x="106"></text><text class="cls-8" transform="translate(468.21 151)">SC<tspan class="cls-9" x="52.56" y="0">A</tspan><tspan x="82.56" y="0">TTI DI MARSIGLIA</tspan></text><text x="106"></text><text class="cls-10" transform="translate(346 737.01) scale(0.74 1)">Lorem ipsum dolor sit amet, consectetur adipisci elit, sed eiusmod <tspan x="0" y="24">tempor incidunt ut labore et dolore magna aliqua. Ut enim ad minim </tspan><tspan x="0" y="48">veniam, quis nostrum exercitationem ullam corporis suscipit </tspan><tspan x="0" y="72">laboriosam, nisi ut aliquid ex ea commodi consequatur. </tspan><tspan x="0" y="96">Quis aute iure reprehenderit in voluptate velit esse cillum dolore eu </tspan><tspan x="0" y="120">fugiat nulla pariatur. Excepteur sint obcaecat cupiditat non proident, </tspan><tspan x="0" y="144.27">sunt in culpa qui officia deserunt mollit anim id est laborum. </tspan><tspan class="cls-11" x="433.67" y="144.27">»</tspan></text><text class="cls-12" transform="translate(366.32 438.64)">p<tspan class="cls-13" x="4.39" y="0">a</tspan><tspan class="cls-14" x="9.1" y="0">l</tspan><tspan class="cls-13" x="11.96" y="0">a</tspan><tspan x="16.67" y="0">zzo su </tspan><tspan class="cls-15" x="40.46" y="0">u</tspan><tspan x="45.4" y="0">n’is</tspan><tspan class="cls-16" x="58.52" y="0">o</tspan><tspan class="cls-14" x="62.12" y="0">la deserta</tspan></text><text class="cls-12" transform="translate(667.33 495.33)">sc<tspan class="cls-13" x="5.89" y="0">a</tspan><tspan x="10.6" y="0">rda di fre</tspan><tspan class="cls-17" x="46.97" y="0">c</tspan><tspan x="49.95" y="0">cia</tspan></text><text class="cls-18" transform="translate(899.55 230.45)">Lorem<tspan class="cls-19" x="30.97" y="0"> </tspan><tspan x="37.29" y="0">ipsum</tspan><tspan class="cls-20" x="65.99" y="0"> </tspan><tspan x="72.31" y="0">d</tspan><tspan class="cls-21" x="78.38" y="0">o</tspan><tspan x="84.14" y="0">lor</tspan><tspan class="cls-19" x="96.97" y="0"> </tspan><tspan x="103.28" y="0">sit</tspan><tspan class="cls-19" x="113.86" y="0"> </tspan><tspan x="120.18" y="0">amet, </tspan><tspan class="cls-16" x="-23.37" y="24">c</tspan><tspan x="-18.73" y="24">ons</tspan><tspan class="cls-22" x="-2.58" y="24">e</tspan><tspan x="1.98" y="24">ctetuer</tspan><tspan class="cls-23" x="34.09" y="24"> </tspan><tspan x="42.57" y="24">adipiscing</tspan><tspan class="cls-24" x="88.79" y="24"> </tspan><tspan x="97.26" y="24">elit,</tspan><tspan class="cls-23" x="114.29" y="24"> </tspan><tspan x="122.77" y="24">s</tspan><tspan class="cls-22" x="126.64" y="24">e</tspan><tspan x="131.2" y="24">d</tspan><tspan class="cls-23" x="137.28" y="24"> </tspan><tspan x="145.75" y="24">diam </tspan><tspan x="-37.01" y="48">nonum</tspan><tspan class="cls-25" x="-2.73" y="48">m</tspan><tspan x="6.12" y="48">y</tspan><tspan class="cls-26" x="11.38" y="48"> </tspan><tspan x="16.66" y="48">ni</tspan><tspan class="cls-27" x="25.94" y="48">b</tspan><tspan x="31.94" y="48">h</tspan><tspan class="cls-26" x="38.12" y="48"> </tspan><tspan x="43.41" y="48">euismod</tspan><tspan class="cls-28" x="82.58" y="48"> </tspan><tspan x="87.86" y="48">tincidunt</tspan><tspan class="cls-26" x="131.23" y="48"> </tspan><tspan x="136.52" y="48">ut</tspan><tspan class="cls-26" x="146.61" y="48"> </tspan><tspan x="151.89" y="48">laor</tspan><tspan class="cls-29" x="169.51" y="48">e</tspan><tspan x="174.07" y="48">et </tspan><tspan x="-44.29" y="72">d</tspan><tspan class="cls-21" x="-38.22" y="72">o</tspan><tspan x="-32.46" y="72">lore</tspan><tspan class="cls-30" x="-14.95" y="72"> </tspan><tspan x="-11.4" y="72">magna</tspan><tspan class="cls-30" x="19.06" y="72"> </tspan><tspan x="22.61" y="72">aliquam</tspan><tspan class="cls-30" x="59.93" y="72"> </tspan><tspan x="63.48" y="72">erat</tspan><tspan class="cls-31" x="80.73" y="72"> </tspan><tspan class="cls-32" x="84.28" y="72">v</tspan><tspan class="cls-27" x="89.23" y="72">o</tspan><tspan x="94.99" y="72">lut</tspan><tspan class="cls-33" x="107.97" y="72">p</tspan><tspan x="113.95" y="72">at.</tspan><tspan class="cls-30" x="125.27" y="72"> </tspan><tspan x="128.82" y="72">Ut</tspan><tspan class="cls-30" x="141.44" y="72"> </tspan><tspan x="144.99" y="72">wisi</tspan><tspan class="cls-30" x="162.97" y="72"> </tspan><tspan x="166.52" y="72">enim </tspan><tspan x="-46.1" y="96">ad</tspan><tspan class="cls-34" x="-35.24" y="96"> </tspan><tspan x="-32.17" y="96">minim</tspan><tspan class="cls-35" x="-1.28" y="96"> </tspan><tspan class="cls-32" x="1.8" y="96">v</tspan><tspan x="6.75" y="96">eniam,</tspan><tspan class="cls-34" x="37.59" y="96"> </tspan><tspan x="40.67" y="96">quis</tspan><tspan class="cls-34" x="60.08" y="96"> </tspan><tspan x="63.15" y="96">nostrud</tspan><tspan class="cls-34" x="99.48" y="96"> </tspan><tspan class="cls-21" x="102.56" y="96">e</tspan><tspan class="cls-32" x="107.06" y="96">x</tspan><tspan x="111.92" y="96">erci</tspan><tspan class="cls-35" x="128.43" y="96"> </tspan><tspan x="131.5" y="96">tation</tspan><tspan class="cls-34" x="159.04" y="96"> </tspan><tspan x="162.12" y="96">ullam</tspan><tspan x="188.33" y="96">-</tspan><tspan class="cls-16" x="-41.85" y="120">c</tspan><tspan x="-37.2" y="120">orper</tspan><tspan class="cls-36" x="-12.34" y="120"> </tspan><tspan x="-8.77" y="120">suscipit</tspan><tspan class="cls-37" x="26.06" y="120"> </tspan><tspan x="29.62" y="120">lobortis</tspan><tspan class="cls-36" x="65.15" y="120"> </tspan><tspan x="68.72" y="120">nisl</tspan><tspan class="cls-37" x="84.75" y="120"> </tspan><tspan x="88.31" y="120">ut</tspan><tspan class="cls-36" x="98.4" y="120"> </tspan><tspan x="101.97" y="120">aliquip</tspan><tspan class="cls-37" x="134.33" y="120"> </tspan><tspan class="cls-21" x="137.89" y="120">e</tspan><tspan x="142.39" y="120">x</tspan><tspan class="cls-36" x="147.55" y="120"> </tspan><tspan x="151.12" y="120">ea</tspan><tspan class="cls-36" x="160.59" y="120"> </tspan><tspan class="cls-16" x="164.15" y="120">c</tspan><tspan x="168.79" y="120">om</tspan><tspan x="184.07" y="120">-</tspan><tspan x="-32.06" y="144">modo</tspan><tspan class="cls-38" x="-4.77" y="144"> </tspan><tspan class="cls-16" x="-0.73" y="144">c</tspan><tspan x="3.91" y="144">ons</tspan><tspan class="cls-22" x="20.06" y="144">e</tspan><tspan x="24.63" y="144">quat.</tspan><tspan class="cls-38" x="48.53" y="144"> </tspan><tspan x="52.57" y="144">Duis</tspan><tspan class="cls-38" x="74.76" y="144"> </tspan><tspan x="78.8" y="144">autem</tspan><tspan class="cls-38" x="107.69" y="144"> </tspan><tspan class="cls-32" x="111.73" y="144">v</tspan><tspan x="116.69" y="144">el</tspan><tspan class="cls-38" x="124.25" y="144"> </tspan><tspan x="128.29" y="144">eum</tspan><tspan class="cls-38" x="148.63" y="144"> </tspan><tspan x="152.67" y="144">iriure </tspan><tspan x="-14.93" y="168">d</tspan><tspan class="cls-21" x="-8.86" y="168">o</tspan><tspan x="-3.1" y="168">lor</tspan><tspan class="cls-39" x="9.73" y="168"> </tspan><tspan x="14.98" y="168">in</tspan><tspan class="cls-39" x="24.26" y="168"> </tspan><tspan x="29.51" y="168">hendrerit</tspan><tspan class="cls-39" x="72.18" y="168"> </tspan><tspan x="77.43" y="168">in</tspan><tspan class="cls-39" x="86.7" y="168"> </tspan><tspan x="91.95" y="168">vulputate</tspan><tspan class="cls-39" x="135.97" y="168"> </tspan><tspan class="cls-32" x="141.22" y="168">v</tspan><tspan class="cls-40" x="146.17" y="168">elit </tspan><tspan x="15.7" y="192">esse</tspan><tspan class="cls-41" x="32.81" y="192"> </tspan><tspan x="37.72" y="192">m</tspan><tspan class="cls-21" x="47.06" y="192">o</tspan><tspan x="52.82" y="192">lestie</tspan><tspan class="cls-41" x="75.64" y="192"> </tspan><tspan class="cls-16" x="80.55" y="192">c</tspan><tspan x="85.2" y="192">ons</tspan><tspan class="cls-22" x="101.35" y="192">e</tspan><tspan x="105.91" y="192">quat, </tspan></text></g></svg>