<?xml version="1.0" encoding="utf-8"?>
<!-- Generator: Adobe Illustrator 22.1.0, SVG Export Plug-In . SVG Version: 6.00 Build 0)  -->
<svg version="1.1" id="Capa_1" xmlns="http://www.w3.org/2000/svg" xmlns:xlink="http://www.w3.org/1999/xlink" x="0px" y="0px"
	 viewBox="0 0 1190.6 1190.6" style="enable-background:new 0 0 1190.6 1190.6;" xml:space="preserve">
<style type="text/css">
	.st0{fill:#262452;}
	.st1{fill:#262452;stroke:#6FC7DA;stroke-width:4;stroke-miterlimit:10;}
	.st2{fill:none;stroke:#3C75BA;stroke-width:4;stroke-miterlimit:10;}
	.st3{clip-path:url(#SVGID_2_);}
	.st4{clip-path:url(#SVGID_4_);}
	.st5{fill:none;stroke:#EE7AAA;stroke-width:4;stroke-miterlimit:10;}
	.st6{fill:#FFFFFF;}
	.st7{font-family:'OpenSans-Bold';}
	.st8{font-size:60px;}
	.st9{letter-spacing:-1;}
	.st10{fill:#FDFDFD;}
	.st11{font-family:'OpenSans-Light';}
	.st12{font-size:16px;}
	.st13{font-size:16.18px;}
	.st14{font-family:'EBGaramond-Italic';}
	.st15{font-size:10px;}
</style>
<g id="Capa_1_1_">
	<rect x="-0.2" y="-0.2" class="st0" width="1191" height="1191"/>
	<rect x="55.8" y="58.8" class="st1" width="239.5" height="239.5"/>
	<rect x="332.2" y="58.8" class="st1" width="239.5" height="239.5"/>
	<rect x="608.5" y="58.8" class="st1" width="239.5" height="239.5"/>
	<rect x="884.9" y="58.8" class="st1" width="239.5" height="239.5"/>
	<rect x="55.8" y="335.2" class="st1" width="239.5" height="239.5"/>
	<rect x="332.2" y="335.2" class="st1" width="239.5" height="239.5"/>
	<rect x="608.5" y="335.2" class="st1" width="239.5" height="239.5"/>
	<rect x="884.9" y="335.2" class="st1" width="239.5" height="239.5"/>
	<rect x="55.8" y="611.5" class="st1" width="239.5" height="239.5"/>
	<rect x="332.2" y="611.5" class="st1" width="239.5" height="239.5"/>
	<rect x="608.5" y="611.5" class="st1" width="239.5" height="239.5"/>
	<rect x="884.9" y="611.5" class="st1" width="239.5" height="239.5"/>
	<rect x="55.8" y="887.9" class="st1" width="239.5" height="239.5"/>
	<rect x="332.2" y="887.9" class="st1" width="239.5" height="239.5"/>
	<rect x="608.5" y="887.9" class="st1" width="239.5" height="239.5"/>
	<rect x="884.9" y="887.9" class="st1" width="239.5" height="239.5"/>
</g>
<g id="griglia2">
	<rect x="55.8" y="58.8" class="st2" width="184.3" height="184.3"/>
	<rect x="277" y="58.8" class="st2" width="184.3" height="184.3"/>
	<rect x="498.1" y="58.8" class="st2" width="184.3" height="184.3"/>
	<rect x="719.3" y="58.8" class="st2" width="184.3" height="184.3"/>
	<rect x="940.5" y="58.8" class="st2" width="184.3" height="184.3"/>
	<rect x="55.8" y="280" class="st2" width="184.3" height="184.3"/>
	<rect x="277" y="280" class="st2" width="184.3" height="184.3"/>
	<rect x="498.1" y="280" class="st2" width="184.3" height="184.3"/>
	<rect x="719.3" y="280" class="st2" width="184.3" height="184.3"/>
	<rect x="940.5" y="280" class="st2" width="184.3" height="184.3"/>
	<rect x="55.8" y="501.1" class="st2" width="184.3" height="184.3"/>
	<rect x="277" y="501.1" class="st2" width="184.3" height="184.3"/>
	<g>
		<defs>
			<rect id="SVGID_1_" x="498.1" y="501.1" width="184.3" height="184.3"/>
		</defs>
		<clipPath id="SVGID_2_">
			<use xlink:href="#SVGID_1_"  style="overflow:visible;"/>
		</clipPath>
		<g class="st3">
			
				<image style="overflow:visible;enable-background:new    ;" width="6016" height="4000" xlink:href="DSC_0061.JPG"  transform="matrix(0.18 0 0 0.18 55.7756 58.7756)">
			</image>
		</g>
	</g>
	<rect x="719.3" y="501.1" class="st2" width="184.3" height="184.3"/>
	<rect x="940.5" y="501.1" class="st2" width="184.3" height="184.3"/>
	<rect x="55.8" y="722.3" class="st2" width="184.3" height="184.3"/>
	<rect x="277" y="722.3" class="st2" width="184.3" height="184.3"/>
	<rect x="498.1" y="722.3" class="st2" width="184.3" height="184.3"/>
	<rect x="719.3" y="722.3" class="st2" width="184.3" height="184.3"/>
	<rect x="940.5" y="722.3" class="st2" width="184.3" height="184.3"/>
	<rect x="55.8" y="943.5" class="st2" width="184.3" height="184.3"/>
	<rect x="277" y="943.5" class="st2" width="184.3" height="184.3"/>
	<rect x="498.1" y="943.5" class="st2" width="184.3" height="184.3"/>
	<rect x="719.3" y="943.5" class="st2" width="184.3" height="184.3"/>
	<rect x="940.5" y="943.5" class="st2" width="184.3" height="184.3"/>
</g>
<g id="circulo">
	<g>
		<defs>
			<circle id="SVGID_3_" cx="313.8" cy="316.8" r="111"/>
		</defs>
		<clipPath id="SVGID_4_">
			<use xlink:href="#SVGID_3_"  style="overflow:visible;"/>
		</clipPath>
		<g class="st4">
			
				<image style="overflow:visible;enable-background:new    ;" width="6016" height="4000" xlink:href="DSC_0169.JPG"  transform="matrix(0.1 0 0 0.1 -106.2244 132.7756)">
			</image>
		</g>
	</g>
</g>
<g id="griglia3">
	<rect x="55.8" y="58.8" class="st5" width="147.4" height="147.4"/>
	<rect x="240.1" y="58.8" class="st5" width="147.4" height="147.4"/>
	<rect x="424.4" y="58.8" class="st5" width="147.4" height="147.4"/>
	<rect x="608.7" y="58.8" class="st5" width="147.4" height="147.4"/>
	<rect x="793.1" y="58.8" class="st5" width="147.4" height="147.4"/>
	<rect x="977.4" y="58.8" class="st5" width="147.4" height="147.4"/>
	<rect x="55.8" y="243.1" class="st5" width="147.4" height="147.4"/>
	<rect x="240.1" y="243.1" class="st5" width="147.4" height="147.4"/>
	<rect x="424.4" y="243.1" class="st5" width="147.4" height="147.4"/>
	<rect x="608.7" y="243.1" class="st5" width="147.4" height="147.4"/>
	<rect x="793.1" y="243.1" class="st5" width="147.4" height="147.4"/>
	<rect x="977.4" y="243.1" class="st5" width="147.4" height="147.4"/>
	<rect x="55.8" y="427.4" class="st5" width="147.4" height="147.4"/>
	<rect x="240.1" y="427.4" class="st5" width="147.4" height="147.4"/>
	<rect x="424.4" y="427.4" class="st5" width="147.4" height="147.4"/>
	<rect x="608.7" y="427.4" class="st5" width="147.4" height="147.4"/>
	<rect x="793.1" y="427.4" class="st5" width="147.4" height="147.4"/>
	<rect x="977.4" y="427.4" class="st5" width="147.4" height="147.4"/>
	<rect x="55.8" y="611.7" class="st5" width="147.4" height="147.4"/>
	<rect x="240.1" y="611.7" class="st5" width="147.4" height="147.4"/>
	<rect x="424.4" y="611.7" class="st5" width="147.4" height="147.4"/>
	<rect x="608.7" y="611.7" class="st5" width="147.4" height="147.4"/>
	<rect x="793.1" y="611.7" class="st5" width="147.4" height="147.4"/>
	<rect x="977.4" y="611.7" class="st5" width="147.4" height="147.4"/>
	<rect x="55.8" y="796.1" class="st5" width="147.4" height="147.4"/>
	<rect x="240.1" y="796.1" class="st5" width="147.4" height="147.4"/>
	<rect x="424.4" y="796.1" class="st5" width="147.4" height="147.4"/>
	<rect x="608.7" y="796.1" class="st5" width="147.4" height="147.4"/>
	<rect x="793.1" y="796.1" class="st5" width="147.4" height="147.4"/>
	<rect x="977.4" y="796.1" class="st5" width="147.4" height="147.4"/>
	<rect x="55.8" y="980.4" class="st5" width="147.4" height="147.4"/>
	<rect x="240.1" y="980.4" class="st5" width="147.4" height="147.4"/>
	<rect x="424.4" y="980.4" class="st5" width="147.4" height="147.4"/>
	<rect x="608.7" y="980.4" class="st5" width="147.4" height="147.4"/>
	<rect x="793.1" y="980.4" class="st5" width="147.4" height="147.4"/>
	<rect x="977.4" y="980.4" class="st5" width="147.4" height="147.4"/>
</g>
<g id="testo">
	<text transform="matrix(1 0 0 1 361.9856 150.7756)" class="st6 st7 st8">SC</text>
	<text transform="matrix(1 0 0 1 414.5456 150.7756)" class="st6 st7 st8 st9">A</text>
	<text transform="matrix(1 0 0 1 444.5456 150.7756)" class="st6 st7 st8">TTI DI MARSIGLIA</text>
	<text transform="matrix(0.74 0 0 1 239.7756 736.7857)" class="st10 st11 st12">Lorem ipsum dolor sit amet, consectetur adipisci elit, sed eiusmod </text>
	<text transform="matrix(0.74 0 0 1 239.7756 760.7857)" class="st10 st11 st12">tempor incidunt ut labore et dolore magna aliqua. Ut enim ad minim </text>
	<text transform="matrix(0.74 0 0 1 239.7756 784.7857)" class="st10 st11 st12">veniam, quis nostrum exercitationem ullam corporis suscipit </text>
	<text transform="matrix(0.74 0 0 1 239.7756 808.7857)" class="st10 st11 st12">laboriosam, nisi ut aliquid ex ea commodi consequatur. </text>
	<text transform="matrix(0.74 0 0 1 239.7756 832.7857)" class="st10 st11 st12">Quis aute iure reprehenderit in voluptate velit esse cillum dolore eu </text>
	<text transform="matrix(0.74 0 0 1 239.7756 856.7857)" class="st10 st11 st12">fugiat nulla pariatur. Excepteur sint obcaecat cupiditat non proident, </text>
	<text transform="matrix(0.74 0 0 1 239.7756 881.0552)" class="st10 st11 st12">sunt in culpa qui officia deserunt mollit anim id est laborum. </text>
	<text transform="matrix(0.74 0 0 1 560.6916 881.0552)" class="st10 st11 st13">»</text>
	<text transform="matrix(1 0 0 1 260.0956 438.4156)" class="st10 st14 st15">p</text>
	<text transform="matrix(1 0 0 1 264.4856 438.4156)" class="st10 st14 st15">a</text>
	<text transform="matrix(1 0 0 1 269.1956 438.4156)" class="st10 st14 st15">l</text>
	<text transform="matrix(1 0 0 1 272.0556 438.4156)" class="st10 st14 st15">a</text>
	<text transform="matrix(1 0 0 1 276.7656 438.4156)" class="st10 st14 st15">zzo su </text>
	<text transform="matrix(1 0 0 1 300.5556 438.4156)" class="st10 st14 st15">u</text>
	<text transform="matrix(1 0 0 1 305.4956 438.4156)" class="st10 st14 st15">n’is</text>
	<text transform="matrix(1 0 0 1 318.6156 438.4156)" class="st10 st14 st15">o</text>
	<text transform="matrix(1 0 0 1 322.2156 438.4156)" class="st10 st14 st15">la deserta</text>
	<text transform="matrix(1 0 0 1 561.1056 495.1055)" class="st10 st14 st15">sc</text>
	<text transform="matrix(1 0 0 1 566.9956 495.1055)" class="st10 st14 st15">a</text>
	<text transform="matrix(1 0 0 1 571.7056 495.1055)" class="st10 st14 st15">rda di fre</text>
	<text transform="matrix(1 0 0 1 608.0756 495.1055)" class="st10 st14 st15">c</text>
	<text transform="matrix(1 0 0 1 611.0556 495.1055)" class="st10 st14 st15">cia</text>
</g>
</svg>
