<svg id="Livello_1" data-name="Livello 1" xmlns="http://www.w3.org/2000/svg" xmlns:xlink="http://www.w3.org/1999/xlink" viewBox="0 0 1190.6 1190.6"><defs><style>.cls-1,.cls-3,.cls-4,.cls-5{fill:none;}.cls-2{fill:#7bacb2;}.cls-3{stroke:#fff;}.cls-3,.cls-4,.cls-5{stroke-miterlimit:10;}.cls-4{stroke:#050044;}.cls-5{stroke:#fc5a00;}.cls-6{clip-path:url(#clip-path);}.cls-7{isolation:isolate;}</style><clipPath id="clip-path"><rect class="cls-1" x="282" y="503.1" width="184.3" height="184.3"/></clipPath></defs><title>Tavola disegno 1</title><g id="Livello_1-2" data-name="Livello 1-2"><rect class="cls-2" x="0.3" y="1" width="1190.6" height="1190.6"/><rect class="cls-3" x="60.9" y="61.9" width="239.5" height="239.5"/><rect class="cls-3" x="337.3" y="61.9" width="239.5" height="239.5"/><rect class="cls-3" x="613.7" y="61.9" width="239.5" height="239.5"/><rect class="cls-3" x="890.1" y="61.9" width="239.5" height="239.5"/><rect class="cls-3" x="60.9" y="338.3" width="239.5" height="239.5"/><rect class="cls-3" x="337.3" y="338.3" width="239.5" height="239.5"/><rect class="cls-3" x="613.7" y="338.3" width="239.5" height="239.5"/><rect class="cls-3" x="890.1" y="338.3" width="239.5" height="239.5"/><rect class="cls-3" x="60.9" y="614.7" width="239.5" height="239.5"/><rect class="cls-3" x="337.3" y="614.7" width="239.5" height="239.5"/><rect class="cls-3" x="613.7" y="614.7" width="239.5" height="239.5"/><rect class="cls-3" x="890.1" y="613.7" width="239.5" height="239.5"/><rect class="cls-3" x="60.9" y="890.1" width="239.5" height="239.5"/><rect class="cls-3" x="337.3" y="890.1" width="239.5" height="239.5"/><rect class="cls-3" x="613.7" y="890.1" width="239.5" height="239.5"/><rect class="cls-3" x="890.1" y="890.1" width="239.5" height="239.5"/></g><g id="Livello_3" data-name="Livello 3"><rect class="cls-4" x="60.9" y="60.9" width="147.4" height="147.4"/><rect class="cls-4" x="245.2" y="60.9" width="147.4" height="147.4"/><rect class="cls-4" x="429.5" y="60.9" width="147.4" height="147.4"/><rect class="cls-4" x="613.7" y="60.9" width="147.4" height="147.4"/><rect class="cls-4" x="798" y="60.9" width="147.4" height="147.4"/><rect class="cls-4" x="982.2" y="60.9" width="147.4" height="147.4"/><rect class="cls-4" x="60.9" y="245.2" width="147.4" height="147.4"/><rect class="cls-4" x="245.2" y="245.2" width="147.4" height="147.4"/><rect class="cls-4" x="429.5" y="245.2" width="147.4" height="147.4"/><rect class="cls-4" x="613.7" y="245.2" width="147.4" height="147.4"/><rect class="cls-4" x="798" y="245.2" width="147.4" height="147.4"/><rect class="cls-4" x="982.2" y="245.2" width="147.4" height="147.4"/><rect class="cls-4" x="60.9" y="429.4" width="147.4" height="147.4"/><rect class="cls-4" x="245.2" y="429.4" width="147.4" height="147.4"/><rect class="cls-4" x="429.5" y="429.4" width="147.4" height="147.4"/><rect class="cls-4" x="613.7" y="429.4" width="147.4" height="147.4"/><rect class="cls-4" x="798" y="429.4" width="147.4" height="147.4"/><rect class="cls-4" x="982.2" y="429.4" width="147.4" height="147.4"/><rect class="cls-4" x="60.9" y="613.7" width="147.4" height="147.4"/><rect class="cls-4" x="245.2" y="613.7" width="147.4" height="147.4"/><rect class="cls-4" x="429.5" y="613.7" width="147.4" height="147.4"/><rect class="cls-4" x="613.7" y="613.7" width="147.4" height="147.4"/><rect class="cls-4" x="798" y="613.7" width="147.4" height="147.4"/><rect class="cls-4" x="982.2" y="613.7" width="147.4" height="147.4"/><rect class="cls-4" x="60.9" y="798" width="147.4" height="147.4"/><rect class="cls-4" x="245.2" y="798" width="147.4" height="147.4"/><rect class="cls-4" x="429.5" y="798" width="147.4" height="147.4"/><rect class="cls-4" x="613.7" y="798" width="147.4" height="147.4"/><rect class="cls-4" x="798" y="798" width="147.4" height="147.4"/><rect class="cls-4" x="982.2" y="798" width="147.4" height="147.4"/><rect class="cls-4" x="60.9" y="982.2" width="147.4" height="147.4"/><rect class="cls-4" x="245.2" y="982.2" width="147.4" height="147.4"/><rect class="cls-4" x="429.5" y="982.2" width="147.4" height="147.4"/><rect class="cls-4" x="613.7" y="982.2" width="147.4" height="147.4"/><rect class="cls-4" x="798" y="982.2" width="147.4" height="147.4"/><rect class="cls-4" x="982.2" y="982.2" width="147.4" height="147.4"/></g><rect class="cls-5" x="60.9" y="60.9" width="184.3" height="184.3"/><rect class="cls-5" x="282" y="60.9" width="184.3" height="184.3"/><rect class="cls-5" x="503.1" y="60.9" width="184.3" height="184.3"/><rect class="cls-5" x="724.3" y="60.9" width="184.3" height="184.3"/><rect class="cls-5" x="945.3" y="60.9" width="184.3" height="184.3"/><rect class="cls-5" x="60.9" y="282" width="184.3" height="184.3"/><rect class="cls-5" x="282" y="282" width="184.3" height="184.3"/><rect class="cls-5" x="503.1" y="282" width="184.3" height="184.3"/><rect class="cls-5" x="724.3" y="282" width="184.3" height="184.3"/><rect class="cls-5" x="945.3" y="282" width="184.3" height="184.3"/><rect class="cls-5" x="60.9" y="503.1" width="184.3" height="184.3"/><rect class="cls-1" x="282" y="503.1" width="184.3" height="184.3"/><rect class="cls-5" x="503.1" y="503.1" width="184.3" height="184.3"/><rect class="cls-5" x="724.3" y="503.1" width="184.3" height="184.3"/><rect class="cls-5" x="945.3" y="503.1" width="184.3" height="184.3"/><rect class="cls-5" x="60.9" y="724.3" width="184.3" height="184.3"/><rect class="cls-5" x="282" y="724.3" width="184.3" height="184.3"/><rect class="cls-5" x="503.1" y="724.3" width="184.3" height="184.3"/><rect class="cls-5" x="724.3" y="724.3" width="184.3" height="184.3"/><rect class="cls-5" x="945.3" y="724.3" width="184.3" height="184.3"/><rect class="cls-5" x="60.9" y="945.4" width="184.3" height="184.3"/><rect class="cls-5" x="282" y="945.4" width="184.3" height="184.3"/><rect class="cls-5" x="503.1" y="945.4" width="184.3" height="184.3"/><rect class="cls-5" x="724.3" y="945.4" width="184.3" height="184.3"/><rect class="cls-5" x="945.3" y="945.4" width="184.3" height="184.3"/><g class="cls-6"><image class="cls-7" width="5184" height="3456" transform="translate(60.94 475.35) scale(0.14 0.12)" xlink:href="893529_03.JPG"/></g></svg>
