<svg xmlns="http://www.w3.org/2000/svg" xmlns:xlink="http://www.w3.org/1999/xlink" viewBox="0 0 1191 1191"><defs><style>.cls-1,.cls-4,.cls-6{fill:none;}.cls-2,.cls-3{fill:#1b1556;}.cls-3{stroke:aqua;}.cls-3,.cls-4,.cls-6{stroke-miterlimit:10;stroke-width:4px;}.cls-4{stroke:#0082ff;}.cls-5{clip-path:url(#clip-path);}.cls-6{stroke:#ff7bac;}</style><clipPath id="clip-path"><rect class="cls-1" x="498.37" y="501.37" width="184.25" height="184.25"/></clipPath></defs><title>893573_04</title><g id="Capa_1" data-name="Capa 1"><rect class="cls-2" width="1191" height="1191"/><rect class="cls-3" x="56" y="59" width="239.53" height="239.53"/><rect class="cls-3" x="332.38" y="59" width="239.53" height="239.53"/><rect class="cls-3" x="608.76" y="59" width="239.53" height="239.53"/><rect class="cls-3" x="885.13" y="59" width="239.53" height="239.53"/><rect class="cls-3" x="56" y="335.38" width="239.53" height="239.53"/><rect class="cls-3" x="332.38" y="335.38" width="239.53" height="239.53"/><rect class="cls-3" x="608.76" y="335.38" width="239.53" height="239.53"/><rect class="cls-3" x="885.13" y="335.38" width="239.53" height="239.53"/><rect class="cls-3" x="56" y="611.76" width="239.53" height="239.53"/><rect class="cls-3" x="332.38" y="611.76" width="239.53" height="239.53"/><rect class="cls-3" x="608.76" y="611.76" width="239.53" height="239.53"/><rect class="cls-3" x="885.13" y="611.76" width="239.53" height="239.53"/><rect class="cls-3" x="56" y="888.13" width="239.53" height="239.53"/><rect class="cls-3" x="332.38" y="888.13" width="239.53" height="239.53"/><rect class="cls-3" x="608.76" y="888.13" width="239.53" height="239.53"/><rect class="cls-3" x="885.13" y="888.13" width="239.53" height="239.53"/></g><g id="griglia2"><rect class="cls-4" x="56" y="59" width="184.25" height="184.25"/><rect class="cls-4" x="277.19" y="59" width="184.25" height="184.25"/><rect class="cls-4" x="498.37" y="59" width="184.25" height="184.25"/><rect class="cls-4" x="719.56" y="59" width="184.25" height="184.25"/><rect class="cls-4" x="940.75" y="59" width="184.25" height="184.25"/><rect class="cls-4" x="56" y="280.19" width="184.25" height="184.25"/><rect class="cls-4" x="277.19" y="280.19" width="184.25" height="184.25"/><rect class="cls-4" x="498.37" y="280.19" width="184.25" height="184.25"/><rect class="cls-4" x="719.56" y="280.19" width="184.25" height="184.25"/><rect class="cls-4" x="940.75" y="280.19" width="184.25" height="184.25"/><rect class="cls-4" x="56" y="501.37" width="184.25" height="184.25"/><rect class="cls-4" x="277.19" y="501.37" width="184.25" height="184.25"/><g class="cls-5"><image width="6016" height="4000" transform="translate(56 59) scale(0.18 0.18)" xlink:href="../../../marsella/DSC_0061.JPG"/></g><rect class="cls-4" x="719.56" y="501.37" width="184.25" height="184.25"/><rect class="cls-4" x="940.75" y="501.37" width="184.25" height="184.25"/><rect class="cls-4" x="56" y="722.56" width="184.25" height="184.25"/><rect class="cls-4" x="277.19" y="722.56" width="184.25" height="184.25"/><rect class="cls-4" x="498.37" y="722.56" width="184.25" height="184.25"/><rect class="cls-4" x="719.56" y="722.56" width="184.25" height="184.25"/><rect class="cls-4" x="940.75" y="722.56" width="184.25" height="184.25"/><rect class="cls-4" x="56" y="943.75" width="184.25" height="184.25"/><rect class="cls-4" x="277.19" y="943.75" width="184.25" height="184.25"/><rect class="cls-4" x="498.37" y="943.75" width="184.25" height="184.25"/><rect class="cls-4" x="719.56" y="943.75" width="184.25" height="184.25"/><rect class="cls-4" x="940.75" y="943.75" width="184.25" height="184.25"/></g><g id="griglia3"><rect class="cls-6" x="56" y="59" width="147.4" height="147.4"/><rect class="cls-6" x="240.32" y="59" width="147.4" height="147.4"/><rect class="cls-6" x="424.64" y="59" width="147.4" height="147.4"/><rect class="cls-6" x="608.96" y="59" width="147.4" height="147.4"/><rect class="cls-6" x="793.28" y="59" width="147.4" height="147.4"/><rect class="cls-6" x="977.6" y="59" width="147.4" height="147.4"/><rect class="cls-6" x="56" y="243.32" width="147.4" height="147.4"/><rect class="cls-6" x="240.32" y="243.32" width="147.4" height="147.4"/><rect class="cls-6" x="424.64" y="243.32" width="147.4" height="147.4"/><rect class="cls-6" x="608.96" y="243.32" width="147.4" height="147.4"/><rect class="cls-6" x="793.28" y="243.32" width="147.4" height="147.4"/><rect class="cls-6" x="977.6" y="243.32" width="147.4" height="147.4"/><rect class="cls-6" x="56" y="427.64" width="147.4" height="147.4"/><rect class="cls-6" x="240.32" y="427.64" width="147.4" height="147.4"/><rect class="cls-6" x="424.64" y="427.64" width="147.4" height="147.4"/><rect class="cls-6" x="608.96" y="427.64" width="147.4" height="147.4"/><rect class="cls-6" x="793.28" y="427.64" width="147.4" height="147.4"/><rect class="cls-6" x="977.6" y="427.64" width="147.4" height="147.4"/><rect class="cls-6" x="56" y="611.96" width="147.4" height="147.4"/><rect class="cls-6" x="240.32" y="611.96" width="147.4" height="147.4"/><rect class="cls-6" x="424.64" y="611.96" width="147.4" height="147.4"/><rect class="cls-6" x="608.96" y="611.96" width="147.4" height="147.4"/><rect class="cls-6" x="793.28" y="611.96" width="147.4" height="147.4"/><rect class="cls-6" x="977.6" y="611.96" width="147.4" height="147.4"/><rect class="cls-6" x="56" y="796.28" width="147.4" height="147.4"/><rect class="cls-6" x="240.32" y="796.28" width="147.4" height="147.4"/><rect class="cls-6" x="424.64" y="796.28" width="147.4" height="147.4"/><rect class="cls-6" x="608.96" y="796.28" width="147.4" height="147.4"/><rect class="cls-6" x="793.28" y="796.28" width="147.4" height="147.4"/><rect class="cls-6" x="977.6" y="796.28" width="147.4" height="147.4"/><rect class="cls-6" x="56" y="980.6" width="147.4" height="147.4"/><rect class="cls-6" x="240.32" y="980.6" width="147.4" height="147.4"/><rect class="cls-6" x="424.64" y="980.6" width="147.4" height="147.4"/><rect class="cls-6" x="608.96" y="980.6" width="147.4" height="147.4"/><rect class="cls-6" x="793.28" y="980.6" width="147.4" height="147.4"/><rect class="cls-6" x="977.6" y="980.6" width="147.4" height="147.4"/></g></svg>