<?xml version="1.0" encoding="utf-8"?>
<!-- Generator: Adobe Illustrator 22.1.0, SVG Export Plug-In . SVG Version: 6.00 Build 0)  -->
<svg version="1.1" id="Livello_1" xmlns="http://www.w3.org/2000/svg" xmlns:xlink="http://www.w3.org/1999/xlink" x="0px" y="0px"
	 viewBox="0 0 1190.6 1190.6" style="enable-background:new 0 0 1190.6 1190.6;" xml:space="preserve">
<style type="text/css">
	.st0{fill:#DDFF55;}
	.st1{fill:none;stroke:#0000FF;stroke-miterlimit:10;}
	.st2{fill:none;stroke:#39B54A;stroke-miterlimit:10;}
	.st3{fill:none;stroke:#FF0000;stroke-miterlimit:10;}
	.st4{clip-path:url(#SVGID_2_);}
	.st5{clip-path:url(#SVGID_4_);}
	.st6{font-family:'OpenSans-Light';}
	.st7{font-size:16px;}
	.st8{letter-spacing:9;}
	.st9{letter-spacing:3;}
	.st10{letter-spacing:7;}
	.st11{letter-spacing:11;}
	.st12{letter-spacing:2;}
	.st13{letter-spacing:1;}
	.st14{letter-spacing:8;}
	.st15{letter-spacing:6;}
	.st16{letter-spacing:18;}
	.st17{font-family:'EBGaramond-Italic';}
	.st18{font-size:10px;}
	.st19{letter-spacing:21;}
	.st20{letter-spacing:26;}
	.st21{letter-spacing:14;}
	.st22{letter-spacing:10;}
	.st23{letter-spacing:4;}
	.st24{letter-spacing:5;}
	.st25{letter-spacing:13;}
	.st26{letter-spacing:63;}
	.st27{font-family:'OpenSansCondensed-Bold';}
	.st28{font-size:60px;}
</style>
<title>Tavola disegno 1893537_07</title>
<g id="Livello_1_1_">
	<rect y="0" class="st0" width="1190.6" height="1190.6"/>
</g>
<g id="Livello_3">
	<rect x="60.9" y="60.9" class="st1" width="184.2" height="184.2"/>
	<rect x="282" y="60.9" class="st1" width="184.2" height="184.2"/>
	<rect x="503.1" y="60.9" class="st1" width="184.3" height="184.2"/>
	<rect x="724.2" y="60.9" class="st1" width="184.2" height="184.2"/>
	<rect x="945.3" y="60.9" class="st1" width="184.2" height="184.2"/>
	<rect x="60.9" y="282" class="st1" width="184.2" height="184.2"/>
	<rect x="282" y="282" class="st1" width="184.2" height="184.2"/>
	<rect x="503.1" y="282" class="st1" width="184.3" height="184.2"/>
	<rect x="724.2" y="282" class="st1" width="184.2" height="184.2"/>
	<rect x="945.3" y="282" class="st1" width="184.2" height="184.2"/>
	<rect x="60.9" y="503.1" class="st1" width="184.2" height="184.3"/>
	<rect x="282" y="503.1" class="st1" width="184.2" height="184.3"/>
	<rect x="503.1" y="503.1" class="st1" width="184.3" height="184.3"/>
	<rect x="724.2" y="503.1" class="st1" width="184.2" height="184.3"/>
	<rect x="945.3" y="503.1" class="st1" width="184.2" height="184.3"/>
	<rect x="60.9" y="724.2" class="st1" width="184.2" height="184.2"/>
	<rect x="282" y="724.2" class="st1" width="184.2" height="184.2"/>
	<rect x="503.1" y="724.2" class="st1" width="184.3" height="184.2"/>
	<rect x="724.2" y="724.2" class="st1" width="184.2" height="184.2"/>
	<rect x="945.3" y="724.2" class="st1" width="184.2" height="184.2"/>
	<rect x="60.9" y="945.3" class="st1" width="184.2" height="184.2"/>
	<rect x="282" y="945.3" class="st1" width="184.2" height="184.2"/>
	<rect x="503.1" y="945.3" class="st1" width="184.3" height="184.2"/>
	<rect x="724.2" y="945.3" class="st1" width="184.2" height="184.2"/>
	<rect x="945.3" y="945.3" class="st1" width="184.2" height="184.2"/>
</g>
<g id="Livello_4">
	<rect x="62.9" y="60.9" class="st2" width="147.4" height="147.4"/>
	<rect x="247.2" y="60.9" class="st2" width="147.4" height="147.4"/>
	<rect x="431.5" y="60.9" class="st2" width="147.4" height="147.4"/>
	<rect x="615.7" y="60.9" class="st2" width="147.4" height="147.4"/>
	<rect x="800" y="60.9" class="st2" width="147.4" height="147.4"/>
	<rect x="984.2" y="60.9" class="st2" width="147.4" height="147.4"/>
	<rect x="62.9" y="245.2" class="st2" width="147.4" height="147.4"/>
	<rect x="247.2" y="245.2" class="st2" width="147.4" height="147.4"/>
	<rect x="431.5" y="245.2" class="st2" width="147.4" height="147.4"/>
	<rect x="615.7" y="245.2" class="st2" width="147.4" height="147.4"/>
	<rect x="800" y="245.2" class="st2" width="147.4" height="147.4"/>
	<rect x="984.2" y="245.2" class="st2" width="147.4" height="147.4"/>
	<rect x="62.9" y="429.5" class="st2" width="147.4" height="147.4"/>
	<rect x="247.2" y="429.5" class="st2" width="147.4" height="147.4"/>
	<rect x="431.5" y="429.5" class="st2" width="147.4" height="147.4"/>
	<rect x="615.7" y="429.5" class="st2" width="147.4" height="147.4"/>
	<rect x="800" y="429.5" class="st2" width="147.4" height="147.4"/>
	<rect x="984.2" y="429.5" class="st2" width="147.4" height="147.4"/>
	<rect x="62.9" y="613.7" class="st2" width="147.4" height="147.4"/>
	<rect x="247.2" y="613.7" class="st2" width="147.4" height="147.4"/>
	<rect x="431.5" y="613.7" class="st2" width="147.4" height="147.4"/>
	<rect x="615.7" y="613.7" class="st2" width="147.4" height="147.4"/>
	<rect x="800" y="613.7" class="st2" width="147.4" height="147.4"/>
	<rect x="984.2" y="613.7" class="st2" width="147.4" height="147.4"/>
	<rect x="58.9" y="798" class="st2" width="147.4" height="147.4"/>
	<rect x="243.2" y="798" class="st2" width="147.4" height="147.4"/>
	<rect x="427.5" y="798" class="st2" width="147.4" height="147.4"/>
	<rect x="611.7" y="798" class="st2" width="147.4" height="147.4"/>
	<rect x="796" y="798" class="st2" width="147.4" height="147.4"/>
	<rect x="980.2" y="798" class="st2" width="147.4" height="147.4"/>
	<rect x="58.9" y="982.2" class="st2" width="147.4" height="147.4"/>
	<rect x="243.2" y="982.2" class="st2" width="147.4" height="147.4"/>
	<rect x="427.5" y="982.2" class="st2" width="147.4" height="147.4"/>
	<rect x="611.7" y="982.2" class="st2" width="147.4" height="147.4"/>
	<rect x="796" y="982.2" class="st2" width="147.4" height="147.4"/>
	<rect x="980.2" y="982.2" class="st2" width="147.4" height="147.4"/>
</g>
<g id="Livello_2_1_">
	<rect x="60.9" y="60.9" class="st3" width="239.5" height="239.5"/>
	<rect x="337.3" y="60.9" class="st3" width="239.5" height="239.5"/>
	<rect x="613.7" y="60.9" class="st3" width="239.5" height="239.5"/>
	<rect x="890.1" y="60.9" class="st3" width="239.5" height="239.5"/>
	<rect x="60.9" y="337.3" class="st3" width="239.5" height="239.5"/>
	<rect x="337.3" y="337.3" class="st3" width="239.5" height="239.5"/>
	<rect x="613.7" y="337.3" class="st3" width="239.5" height="239.5"/>
	<rect x="890.1" y="337.3" class="st3" width="239.5" height="239.5"/>
	<rect x="60.9" y="613.7" class="st3" width="239.5" height="239.5"/>
	<rect x="337.3" y="613.7" class="st3" width="239.5" height="239.5"/>
	<rect x="613.7" y="613.7" class="st3" width="239.5" height="239.5"/>
	<rect x="890.1" y="613.7" class="st3" width="239.5" height="239.5"/>
	<rect x="60.9" y="890.1" class="st3" width="239.5" height="239.5"/>
	<rect x="337.3" y="890.1" class="st3" width="239.5" height="239.5"/>
	<rect x="613.7" y="890.1" class="st3" width="239.5" height="239.5"/>
	<rect x="890.1" y="890.1" class="st3" width="239.5" height="239.5"/>
</g>
<g id="Livello_5">
	<g>
		<defs>
			<rect id="SVGID_1_" x="337.3" y="336.7" width="239.5" height="239.5"/>
		</defs>
		<clipPath id="SVGID_2_">
			<use xlink:href="#SVGID_1_"  style="overflow:visible;"/>
		</clipPath>
		<g class="st4">
			
				<image style="overflow:visible;enable-background:new    ;" width="3072" height="2048" xlink:href="893537_03.jpg"  transform="matrix(0.17 0 0 0.17 257.5392 282.9828)">
			</image>
		</g>
	</g>
</g>
<g id="Livello_6">
	<g>
		<defs>
			<circle id="SVGID_3_" cx="895.1" cy="895.1" r="170.8"/>
		</defs>
		<clipPath id="SVGID_4_">
			<use xlink:href="#SVGID_3_"  style="overflow:visible;"/>
		</clipPath>
		<g class="st5">
			
				<image style="overflow:visible;enable-background:new    ;" width="960" height="640" xlink:href="893537_05.jpg"  transform="matrix(0.52 0 0 0.52 658.5349 715.1999)">
			</image>
		</g>
	</g>
	<text transform="matrix(1 0 0 1 613.7 349.97)" class="st6 st7">Lorem</text>
	<text transform="matrix(1 0 0 1 660.42 349.97)" class="st6 st7 st8"> </text>
	<text transform="matrix(1 0 0 1 673.9 349.97)" class="st6 st7">ipsum</text>
	<text transform="matrix(1 0 0 1 718.06 349.97)" class="st6 st7 st8"> </text>
	<text transform="matrix(1 0 0 1 731.54 349.97)" class="st6 st7">dolor</text>
	<text transform="matrix(1 0 0 1 769.66 349.97)" class="st6 st7 st8"> </text>
	<text transform="matrix(1 0 0 1 783.14 349.97)" class="st6 st7">sit</text>
	<text transform="matrix(1 0 0 1 799.57 349.97)" class="st6 st7 st8"> </text>
	<text transform="matrix(1 0 0 1 813.05 349.97)" class="st6 st7">amet, </text>
	<text transform="matrix(1 0 0 1 613.7 363.97)" class="st6 st7">consectetuer</text>
	<text transform="matrix(1 0 0 1 707.9 363.97)" class="st6 st7 st9"> </text>
	<text transform="matrix(1 0 0 1 715.74 363.97)" class="st6 st7">adipiscing</text>
	<text transform="matrix(1 0 0 1 786.97 363.97)" class="st6 st7 st9"> </text>
	<text transform="matrix(1 0 0 1 794.81 363.97)" class="st6 st7">elit,</text>
	<text transform="matrix(1 0 0 1 819.63 363.97)" class="st6 st7 st9"> </text>
	<text transform="matrix(1 0 0 1 827.47 363.97)" class="st6 st7">sed </text>
	<text transform="matrix(1 0 0 1 613.7 377.97)" class="st6 st7">diam</text>
	<text transform="matrix(1 0 0 1 649.44 377.97)" class="st6 st7 st10"> </text>
	<text transform="matrix(1 0 0 1 661.5 377.97)" class="st6 st7">nonummy</text>
	<text transform="matrix(1 0 0 1 734.78 377.97)" class="st6 st7 st10"> </text>
	<text transform="matrix(1 0 0 1 746.84 377.97)" class="st6 st7">nibh</text>
	<text transform="matrix(1 0 0 1 778.86 377.97)" class="st6 st7 st10"> </text>
	<text transform="matrix(1 0 0 1 790.91 377.97)" class="st6 st7">euismod </text>
	<text transform="matrix(1 0 0 1 613.7 391.97)" class="st6 st7">tincidunt</text>
	<text transform="matrix(1 0 0 1 677.09 391.97)" class="st6 st7 st11"> </text>
	<text transform="matrix(1 0 0 1 693.05 391.97)" class="st6 st7">ut</text>
	<text transform="matrix(1 0 0 1 707.84 391.97)" class="st6 st7 st11"> </text>
	<text transform="matrix(1 0 0 1 723.8 391.97)" class="st6 st7">laoreet</text>
	<text transform="matrix(1 0 0 1 774.42 391.97)" class="st6 st7 st11"> </text>
	<text transform="matrix(1 0 0 1 790.37 391.97)" class="st6 st7">d</text>
	<text transform="matrix(1 0 0 1 799.9 391.97)" class="st6 st7 st11"> </text>
	<text transform="matrix(1 0 0 1 815.85 391.97)" class="st6 st7">olore </text>
	<text transform="matrix(1 0 0 1 613.7 405.97)" class="st6 st7">magna</text>
	<text transform="matrix(1 0 0 1 662.58 405.97)" class="st6 st7 st12"> </text>
	<text transform="matrix(1 0 0 1 668.92 405.97)" class="st6 st7">aliquam</text>
	<text transform="matrix(1 0 0 1 726.2 405.97)" class="st6 st7 st12"> </text>
	<text transform="matrix(1 0 0 1 732.54 405.97)" class="st6 st7">erat</text>
	<text transform="matrix(1 0 0 1 761.38 405.97)" class="st6 st7 st12"> </text>
	<text transform="matrix(1 0 0 1 767.72 405.97)" class="st6 st7">volutpat.</text>
	<text transform="matrix(1 0 0 1 830.02 405.97)" class="st6 st7 st12"> </text>
	<text transform="matrix(1 0 0 1 836.36 405.97)" class="st6 st7">Ut </text>
	<text transform="matrix(1 0 0 1 613.7 419.97)" class="st6 st7">wisi</text>
	<text transform="matrix(1 0 0 1 639.96 419.97)" class="st6 st7 st13"> </text>
	<text transform="matrix(1 0 0 1 645.78 419.97)" class="st6 st7">enim</text>
	<text transform="matrix(1 0 0 1 681.75 419.97)" class="st6 st7 st13"> </text>
	<text transform="matrix(1 0 0 1 687.57 419.97)" class="st6 st7">ad</text>
	<text transform="matrix(1 0 0 1 705.57 419.97)" class="st6 st7 st13"> </text>
	<text transform="matrix(1 0 0 1 711.4 419.97)" class="st6 st7">minim</text>
	<text transform="matrix(1 0 0 1 756.32 419.97)" class="st6 st7 st13"> </text>
	<text transform="matrix(1 0 0 1 762.15 419.97)" class="st6 st7">veniam,</text>
	<text transform="matrix(1 0 0 1 817.37 419.97)" class="st6 st7 st13"> </text>
	<text transform="matrix(1 0 0 1 823.2 419.97)" class="st6 st7">quis </text>
	<text transform="matrix(1 0 0 1 613.7 433.97)" class="st6 st7">nostrud</text>
	<text transform="matrix(1 0 0 1 670.51 433.97)" class="st6 st7"> </text>
	<text transform="matrix(1 0 0 1 674.21 433.97)" class="st6 st7">exerci</text>
	<text transform="matrix(1 0 0 1 717.19 433.97)" class="st6 st7"> </text>
	<text transform="matrix(1 0 0 1 720.89 433.97)" class="st6 st7">tation</text>
	<text transform="matrix(1 0 0 1 762.52 433.97)" class="st6 st7"> </text>
	<text transform="matrix(1 0 0 1 766.22 433.97)" class="st6 st7">ullamcorper </text>
	<text transform="matrix(1 0 0 1 613.7 447.97)" class="st6 st7">suscipit</text>
	<text transform="matrix(1 0 0 1 667.76 447.97)" class="st6 st7 st13"> </text>
	<text transform="matrix(1 0 0 1 673.25 447.97)" class="st6 st7">lobortis</text>
	<text transform="matrix(1 0 0 1 727.8 447.97)" class="st6 st7 st13"> </text>
	<text transform="matrix(1 0 0 1 733.28 447.97)" class="st6 st7">nisl</text>
	<text transform="matrix(1 0 0 1 757.41 447.97)" class="st6 st7 st13"> </text>
	<text transform="matrix(1 0 0 1 762.89 447.97)" class="st6 st7">ut</text>
	<text transform="matrix(1 0 0 1 777.69 447.97)" class="st6 st7 st13"> </text>
	<text transform="matrix(1 0 0 1 783.18 447.97)" class="st6 st7">aliquip</text>
	<text transform="matrix(1 0 0 1 830.99 447.97)" class="st6 st7 st13"> </text>
	<text transform="matrix(1 0 0 1 836.48 447.97)" class="st6 st7">ex </text>
	<text transform="matrix(1 0 0 1 613.7 461.97)" class="st6 st7">ea</text>
	<text transform="matrix(1 0 0 1 630.96 461.97)" class="st6 st7 st14"> </text>
	<text transform="matrix(1 0 0 1 643.53 461.97)" class="st6 st7">commodo</text>
	<text transform="matrix(1 0 0 1 717.03 461.97)" class="st6 st7 st14"> </text>
	<text transform="matrix(1 0 0 1 729.6 461.97)" class="st6 st7">consequat.</text>
	<text transform="matrix(1 0 0 1 808.85 461.97)" class="st6 st7 st14"> </text>
	<text transform="matrix(1 0 0 1 821.42 461.97)" class="st6 st7">Duis </text>
	<text transform="matrix(1 0 0 1 613.7 475.97)" class="st6 st7">autem</text>
	<text transform="matrix(1 0 0 1 659.88 475.97)" class="st6 st7 st15"> </text>
	<text transform="matrix(1 0 0 1 670.32 475.97)" class="st6 st7">vel</text>
	<text transform="matrix(1 0 0 1 690.06 475.97)" class="st6 st7 st15"> </text>
	<text transform="matrix(1 0 0 1 700.49 475.97)" class="st6 st7">eum</text>
	<text transform="matrix(1 0 0 1 732.84 475.97)" class="st6 st7 st15"> </text>
	<text transform="matrix(1 0 0 1 743.28 475.97)" class="st6 st7">iriure</text>
	<text transform="matrix(1 0 0 1 781.18 475.97)" class="st6 st7 st15"> </text>
	<text transform="matrix(1 0 0 1 791.62 475.97)" class="st6 st7">dolor</text>
	<text transform="matrix(1 0 0 1 829.74 475.97)" class="st6 st7 st15"> </text>
	<text transform="matrix(1 0 0 1 840.17 475.97)" class="st6 st7">in </text>
	<text transform="matrix(1 0 0 1 613.7 489.97)" class="st6 st7">hendrerit</text>
	<text transform="matrix(1 0 0 1 681.09 489.97)" class="st6 st7 st9"> </text>
	<text transform="matrix(1 0 0 1 688.73 489.97)" class="st6 st7">in</text>
	<text transform="matrix(1 0 0 1 701.78 489.97)" class="st6 st7 st9"> </text>
	<text transform="matrix(1 0 0 1 709.42 489.97)" class="st6 st7">vulputate</text>
	<text transform="matrix(1 0 0 1 776.76 489.97)" class="st6 st7 st9"> </text>
	<text transform="matrix(1 0 0 1 784.4 489.97)" class="st6 st7">velit</text>
	<text transform="matrix(1 0 0 1 813.12 489.97)" class="st6 st7 st9"> </text>
	<text transform="matrix(1 0 0 1 820.76 489.97)" class="st6 st7">esse </text>
	<text transform="matrix(1 0 0 1 613.7 503.97)" class="st6 st7">molestie</text>
	<text transform="matrix(1 0 0 1 674.81 503.97)" class="st6 st7 st11"> </text>
	<text transform="matrix(1 0 0 1 689.94 503.97)" class="st6 st7">consequat,</text>
	<text transform="matrix(1 0 0 1 768.82 503.97)" class="st6 st7 st11"> </text>
	<text transform="matrix(1 0 0 1 783.95 503.97)" class="st6 st7">vel</text>
	<text transform="matrix(1 0 0 1 803.69 503.97)" class="st6 st7 st11"> </text>
	<text transform="matrix(1 0 0 1 818.81 503.97)" class="st6 st7">illum </text>
	<text transform="matrix(1 0 0 1 613.7 517.97)" class="st6 st7">dolore</text>
	<text transform="matrix(1 0 0 1 660.6 517.97)" class="st6 st7 st13"> </text>
	<text transform="matrix(1 0 0 1 665.98 517.97)" class="st6 st7">eu</text>
	<text transform="matrix(1 0 0 1 684.2 517.97)" class="st6 st7 st13"> </text>
	<text transform="matrix(1 0 0 1 689.58 517.97)" class="st6 st7">feugiat</text>
	<text transform="matrix(1 0 0 1 738.41 517.97)" class="st6 st7 st13"> </text>
	<text transform="matrix(1 0 0 1 743.79 517.97)" class="st6 st7">nulla</text>
	<text transform="matrix(1 0 0 1 778.38 517.97)" class="st6 st7 st13"> </text>
	<text transform="matrix(1 0 0 1 783.76 517.97)" class="st6 st7">facilisis</text>
	<text transform="matrix(1 0 0 1 834.01 517.97)" class="st6 st7 st13"> </text>
	<text transform="matrix(1 0 0 1 839.39 517.97)" class="st6 st7">at </text>
	<text transform="matrix(1 0 0 1 613.7 531.97)" class="st6 st7">vero</text>
	<text transform="matrix(1 0 0 1 645.43 531.97)" class="st6 st7 st9"> </text>
	<text transform="matrix(1 0 0 1 653.39 531.97)" class="st6 st7">eros</text>
	<text transform="matrix(1 0 0 1 685.23 531.97)" class="st6 st7 st9"> </text>
	<text transform="matrix(1 0 0 1 693.2 531.97)" class="st6 st7">et</text>
	<text transform="matrix(1 0 0 1 707.34 531.97)" class="st6 st7 st9"> </text>
	<text transform="matrix(1 0 0 1 715.3 531.97)" class="st6 st7">accumsan</text>
	<text transform="matrix(1 0 0 1 787.91 531.97)" class="st6 st7 st9"> </text>
	<text transform="matrix(1 0 0 1 795.88 531.97)" class="st6 st7">et</text>
	<text transform="matrix(1 0 0 1 810.02 531.97)" class="st6 st7 st9"> </text>
	<text transform="matrix(1 0 0 1 817.99 531.97)" class="st6 st7">iusto </text>
	<text transform="matrix(1 0 0 1 613.7 545.97)" class="st6 st7">odio</text>
	<text transform="matrix(1 0 0 1 645.59 545.97)" class="st6 st7 st16"> </text>
	<text transform="matrix(1 0 0 1 668.36 545.97)" class="st6 st7">dignissim</text>
	<text transform="matrix(1 0 0 1 735.57 545.97)" class="st6 st7 st16"> </text>
	<text transform="matrix(1 0 0 1 758.33 545.97)" class="st6 st7">qui</text>
	<text transform="matrix(1 0 0 1 780.91 545.97)" class="st6 st7 st16"> </text>
	<text transform="matrix(1 0 0 1 803.67 545.97)" class="st6 st7">blandit </text>
	<text transform="matrix(1 0 0 1 613.7 559.97)" class="st6 st7">praesent</text>
	<text transform="matrix(1 0 0 1 677.74 559.97)" class="st6 st7 st15"> </text>
	<text transform="matrix(1 0 0 1 688.68 559.97)" class="st6 st7">luptatum</text>
	<text transform="matrix(1 0 0 1 754.02 559.97)" class="st6 st7 st15"> </text>
	<text transform="matrix(1 0 0 1 764.96 559.97)" class="st6 st7">zzril</text>
	<text transform="matrix(1 0 0 1 793.17 559.97)" class="st6 st7 st15"> </text>
	<text transform="matrix(1 0 0 1 804.11 559.97)" class="st6 st7">delenit </text>
	<text transform="matrix(1 0 0 1 613.7 573.97)" class="st6 st7">augue</text>
	<text transform="matrix(1 0 0 1 658.2 573.97)" class="st6 st7"> </text>
	<text transform="matrix(1 0 0 1 662.31 573.97)" class="st6 st7">duis</text>
	<text transform="matrix(1 0 0 1 692.34 573.97)" class="st6 st7"> </text>
	<text transform="matrix(1 0 0 1 696.45 573.97)" class="st6 st7">dolore</text>
	<text transform="matrix(1 0 0 1 743.34 573.97)" class="st6 st7"> </text>
	<text transform="matrix(1 0 0 1 747.45 573.97)" class="st6 st7">te</text>
	<text transform="matrix(1 0 0 1 761.59 573.97)" class="st6 st7"> </text>
	<text transform="matrix(1 0 0 1 765.7 573.97)" class="st6 st7">feugait</text>
	<text transform="matrix(1 0 0 1 814.53 573.97)" class="st6 st7"> </text>
	<text transform="matrix(1 0 0 1 818.64 573.97)" class="st6 st7">nulla</text>
	<text transform="matrix(1 0 0 1 724.25 731.3)" class="st17 st18">Magazine </text>
	<text transform="matrix(1 0 0 1 398.64 639.86)" class="st6 st7">Lorem</text>
	<text transform="matrix(1 0 0 1 445.36 639.86)" class="st6 st7 st19"> </text>
	<text transform="matrix(1 0 0 1 471.39 639.86)" class="st6 st7">ipsum </text>
	<text transform="matrix(1 0 0 1 378.71 653.86)" class="st6 st7">dolor</text>
	<text transform="matrix(1 0 0 1 416.83 653.86)" class="st6 st7 st20"> </text>
	<text transform="matrix(1 0 0 1 447.85 653.86)" class="st6 st7">sit</text>
	<text transform="matrix(1 0 0 1 464.27 653.86)" class="st6 st7 st20"> </text>
	<text transform="matrix(1 0 0 1 495.29 653.86)" class="st6 st7">amet, </text>
	<text transform="matrix(1 0 0 1 364.98 667.86)" class="st6 st7">consectetuer</text>
	<text transform="matrix(1 0 0 1 459.18 667.86)" class="st6 st7 st21"> </text>
	<text transform="matrix(1 0 0 1 477.96 667.86)" class="st6 st7">adipiscing </text>
	<text transform="matrix(1 0 0 1 354.94 681.86)" class="st6 st7">elit,</text>
	<text transform="matrix(1 0 0 1 379.75 681.86)" class="st6 st7 st22"> </text>
	<text transform="matrix(1 0 0 1 394.66 681.86)" class="st6 st7">sed</text>
	<text transform="matrix(1 0 0 1 420.41 681.86)" class="st6 st7 st22"> </text>
	<text transform="matrix(1 0 0 1 435.32 681.86)" class="st6 st7">diam</text>
	<text transform="matrix(1 0 0 1 471.06 681.86)" class="st6 st7 st22"> </text>
	<text transform="matrix(1 0 0 1 485.96 681.86)" class="st6 st7">nonummy </text>
	<text transform="matrix(1 0 0 1 347.58 695.86)" class="st6 st7">nibh</text>
	<text transform="matrix(1 0 0 1 379.59 695.86)" class="st6 st7 st11"> </text>
	<text transform="matrix(1 0 0 1 395.1 695.86)" class="st6 st7">euismod</text>
	<text transform="matrix(1 0 0 1 457.41 695.86)" class="st6 st7 st11"> </text>
	<text transform="matrix(1 0 0 1 472.91 695.86)" class="st6 st7">tincidunt</text>
	<text transform="matrix(1 0 0 1 536.3 695.86)" class="st6 st7 st11"> </text>
	<text transform="matrix(1 0 0 1 551.81 695.86)" class="st6 st7">ut </text>
	<text transform="matrix(1 0 0 1 342.39 709.86)" class="st6 st7">laoreet</text>
	<text transform="matrix(1 0 0 1 393.01 709.86)" class="st6 st7 st23"> </text>
	<text transform="matrix(1 0 0 1 401.58 709.86)" class="st6 st7">dolore</text>
	<text transform="matrix(1 0 0 1 448.48 709.86)" class="st6 st7 st23"> </text>
	<text transform="matrix(1 0 0 1 457.06 709.86)" class="st6 st7">magna</text>
	<text transform="matrix(1 0 0 1 505.94 709.86)" class="st6 st7 st23"> </text>
	<text transform="matrix(1 0 0 1 514.52 709.86)" class="st6 st7">aliquam </text>
	<text transform="matrix(1 0 0 1 339.08 723.86)" class="st6 st7">erat</text>
	<text transform="matrix(1 0 0 1 367.93 723.86)" class="st6 st7 st24"> </text>
	<text transform="matrix(1 0 0 1 377.49 723.86)" class="st6 st7">volutpat.</text>
	<text transform="matrix(1 0 0 1 439.78 723.86)" class="st6 st7 st24"> </text>
	<text transform="matrix(1 0 0 1 449.34 723.86)" class="st6 st7">Ut</text>
	<text transform="matrix(1 0 0 1 466.21 723.86)" class="st6 st7 st24"> </text>
	<text transform="matrix(1 0 0 1 475.76 723.86)" class="st6 st7">wisi</text>
	<text transform="matrix(1 0 0 1 502.02 723.86)" class="st6 st7 st24"> </text>
	<text transform="matrix(1 0 0 1 511.58 723.86)" class="st6 st7">enim</text>
	<text transform="matrix(1 0 0 1 547.54 723.86)" class="st6 st7 st24"> </text>
	<text transform="matrix(1 0 0 1 557.1 723.86)" class="st6 st7">ad </text>
	<text transform="matrix(1 0 0 1 337.5 737.86)" class="st6 st7">minim</text>
	<text transform="matrix(1 0 0 1 382.43 737.86)" class="st6 st7 st25"> </text>
	<text transform="matrix(1 0 0 1 399.82 737.86)" class="st6 st7">veniam,</text>
	<text transform="matrix(1 0 0 1 455.04 737.86)" class="st6 st7 st25"> </text>
	<text transform="matrix(1 0 0 1 472.44 737.86)" class="st6 st7">quis</text>
	<text transform="matrix(1 0 0 1 502.47 737.86)" class="st6 st7 st25"> </text>
	<text transform="matrix(1 0 0 1 519.87 737.86)" class="st6 st7">nostrud </text>
	<text transform="matrix(1 0 0 1 338.73 751.86)" class="st6 st7">exerci</text>
	<text transform="matrix(1 0 0 1 381.71 751.86)" class="st6 st7"> </text>
	<text transform="matrix(1 0 0 1 385.39 751.86)" class="st6 st7">tation</text>
	<text transform="matrix(1 0 0 1 427.02 751.86)" class="st6 st7"> </text>
	<text transform="matrix(1 0 0 1 430.7 751.86)" class="st6 st7">ullamcorper</text>
	<text transform="matrix(1 0 0 1 517.71 751.86)" class="st6 st7"> </text>
	<text transform="matrix(1 0 0 1 521.39 751.86)" class="st6 st7">suscipit </text>
	<text transform="matrix(1 0 0 1 341.76 765.86)" class="st6 st7">lobortis</text>
	<text transform="matrix(1 0 0 1 396.31 765.86)" class="st6 st7 st15"> </text>
	<text transform="matrix(1 0 0 1 407.38 765.86)" class="st6 st7">nisl</text>
	<text transform="matrix(1 0 0 1 431.51 765.86)" class="st6 st7 st15"> </text>
	<text transform="matrix(1 0 0 1 442.58 765.86)" class="st6 st7">ut</text>
	<text transform="matrix(1 0 0 1 457.38 765.86)" class="st6 st7 st15"> </text>
	<text transform="matrix(1 0 0 1 468.45 765.86)" class="st6 st7">aliquip</text>
	<text transform="matrix(1 0 0 1 516.27 765.86)" class="st6 st7 st15"> </text>
	<text transform="matrix(1 0 0 1 527.34 765.86)" class="st6 st7">ex</text>
	<text transform="matrix(1 0 0 1 544.09 765.86)" class="st6 st7 st15"> </text>
	<text transform="matrix(1 0 0 1 555.17 765.86)" class="st6 st7">ea </text>
	<text transform="matrix(1 0 0 1 346.64 779.86)" class="st6 st7">commodo</text>
	<text transform="matrix(1 0 0 1 420.14 779.86)" class="st6 st7 st21"> </text>
	<text transform="matrix(1 0 0 1 438.31 779.86)" class="st6 st7">consequat.</text>
	<text transform="matrix(1 0 0 1 517.56 779.86)" class="st6 st7 st21"> </text>
	<text transform="matrix(1 0 0 1 535.73 779.86)" class="st6 st7">Duis </text>
	<text transform="matrix(1 0 0 1 353.65 793.86)" class="st6 st7">autem</text>
	<text transform="matrix(1 0 0 1 399.83 793.86)" class="st6 st7"> </text>
	<text transform="matrix(1 0 0 1 403.74 793.86)" class="st6 st7">vel</text>
	<text transform="matrix(1 0 0 1 423.48 793.86)" class="st6 st7"> </text>
	<text transform="matrix(1 0 0 1 427.39 793.86)" class="st6 st7">eum</text>
	<text transform="matrix(1 0 0 1 459.73 793.86)" class="st6 st7"> </text>
	<text transform="matrix(1 0 0 1 463.64 793.86)" class="st6 st7">iriure</text>
	<text transform="matrix(1 0 0 1 501.55 793.86)" class="st6 st7"> </text>
	<text transform="matrix(1 0 0 1 505.46 793.86)" class="st6 st7">dolor</text>
	<text transform="matrix(1 0 0 1 543.57 793.86)" class="st6 st7"> </text>
	<text transform="matrix(1 0 0 1 547.48 793.86)" class="st6 st7">in </text>
	<text transform="matrix(1 0 0 1 363.23 807.86)" class="st6 st7">hendrerit</text>
	<text transform="matrix(1 0 0 1 430.62 807.86)" class="st6 st7"> </text>
	<text transform="matrix(1 0 0 1 434.36 807.86)" class="st6 st7">in</text>
	<text transform="matrix(1 0 0 1 447.41 807.86)" class="st6 st7"> </text>
	<text transform="matrix(1 0 0 1 451.16 807.86)" class="st6 st7">vulputate</text>
	<text transform="matrix(1 0 0 1 518.49 807.86)" class="st6 st7"> </text>
	<text transform="matrix(1 0 0 1 522.24 807.86)" class="st6 st7">velit </text>
	<text transform="matrix(1 0 0 1 376.28 821.86)" class="st6 st7">esse</text>
	<text transform="matrix(1 0 0 1 408.75 821.86)" class="st6 st7 st26"> </text>
	<text transform="matrix(1 0 0 1 476.79 821.86)" class="st6 st7">molestie </text>
	<text transform="matrix(1 0 0 1 394.94 835.86)" class="st6 st7">consequat,</text>
	<text transform="matrix(1 0 0 1 473.82 835.86)" class="st6 st7 st19"> </text>
	<text transform="matrix(1 0 0 1 499.5 835.86)" class="st6 st7">vel </text>
	<text transform="matrix(1 0 0 1 428.75 849.86)" class="st6 st7">illum</text>
</g>
<text transform="matrix(0.9459 0 0 1 619.8496 112.3409)" class="st27 st28">SAMANTHA SAN FELICE   </text>
</svg>
