<svg xmlns="http://www.w3.org/2000/svg" xmlns:xlink="http://www.w3.org/1999/xlink" viewBox="0 0 1297 1191"><defs><style>.cls-1,.cls-4,.cls-7{fill:none;}.cls-2,.cls-3{fill:#1b1556;}.cls-3{stroke:aqua;}.cls-3,.cls-4,.cls-7{stroke-miterlimit:10;stroke-width:4px;}.cls-4{stroke:#0082ff;}.cls-5{clip-path:url(#clip-path);}.cls-6{clip-path:url(#clip-path-2);}.cls-7{stroke:#ff7bac;}.cls-8{font-size:60px;fill:#fff;font-family:OpenSansCondensed-Bold, Open Sans Condensed;font-weight:700;}.cls-9{letter-spacing:-0.03em;}.cls-10{font-size:16px;font-family:OpenSans-Light, Open Sans;}.cls-10,.cls-12{fill:#fcfcfc;}.cls-11{font-size:16.18px;letter-spacing:0em;}.cls-12{font-size:10px;font-family:EBGaramond-Italic, EB Garamond;font-style:italic;}.cls-13{letter-spacing:-0.02em;}.cls-14{letter-spacing:0em;}.cls-15{letter-spacing:-0.01em;}.cls-16{letter-spacing:-0.02em;}.cls-17{letter-spacing:-0.01em;}</style><clipPath id="clip-path" transform="translate(106)"><rect class="cls-1" x="498.37" y="501.37" width="184.25" height="184.25"/></clipPath><clipPath id="clip-path-2" transform="translate(106)"><circle class="cls-1" cx="314" cy="317" r="111"/></clipPath></defs><title>893573_06</title><g id="Capa_1" data-name="Capa 1"><rect class="cls-2" x="106" width="1191" height="1191"/><rect class="cls-3" x="162" y="59" width="239.53" height="239.53"/><rect class="cls-3" x="438.38" y="59" width="239.53" height="239.53"/><rect class="cls-3" x="714.76" y="59" width="239.53" height="239.53"/><rect class="cls-3" x="991.13" y="59" width="239.53" height="239.53"/><rect class="cls-3" x="162" y="335.38" width="239.53" height="239.53"/><rect class="cls-3" x="438.38" y="335.38" width="239.53" height="239.53"/><rect class="cls-3" x="714.76" y="335.38" width="239.53" height="239.53"/><rect class="cls-3" x="991.13" y="335.38" width="239.53" height="239.53"/><rect class="cls-3" x="162" y="611.76" width="239.53" height="239.53"/><rect class="cls-3" x="438.38" y="611.76" width="239.53" height="239.53"/><rect class="cls-3" x="714.76" y="611.76" width="239.53" height="239.53"/><rect class="cls-3" x="991.13" y="611.76" width="239.53" height="239.53"/><rect class="cls-3" x="162" y="888.13" width="239.53" height="239.53"/><rect class="cls-3" x="438.38" y="888.13" width="239.53" height="239.53"/><rect class="cls-3" x="714.76" y="888.13" width="239.53" height="239.53"/><rect class="cls-3" x="991.13" y="888.13" width="239.53" height="239.53"/></g><g id="griglia2"><rect class="cls-4" x="162" y="59" width="184.25" height="184.25"/><rect class="cls-4" x="383.19" y="59" width="184.25" height="184.25"/><rect class="cls-4" x="604.37" y="59" width="184.25" height="184.25"/><rect class="cls-4" x="825.56" y="59" width="184.25" height="184.25"/><rect class="cls-4" x="1046.75" y="59" width="184.25" height="184.25"/><rect class="cls-4" x="162" y="280.19" width="184.25" height="184.25"/><rect class="cls-4" x="383.19" y="280.19" width="184.25" height="184.25"/><rect class="cls-4" x="604.37" y="280.19" width="184.25" height="184.25"/><rect class="cls-4" x="825.56" y="280.19" width="184.25" height="184.25"/><rect class="cls-4" x="1046.75" y="280.19" width="184.25" height="184.25"/><rect class="cls-4" x="162" y="501.37" width="184.25" height="184.25"/><rect class="cls-4" x="383.19" y="501.37" width="184.25" height="184.25"/><g class="cls-5"><image width="6016" height="4000" transform="translate(162 59) scale(0.18 0.18)" xlink:href="../../../marsella/DSC_0061.JPG"/></g><rect class="cls-4" x="825.56" y="501.37" width="184.25" height="184.25"/><rect class="cls-4" x="1046.75" y="501.37" width="184.25" height="184.25"/><rect class="cls-4" x="162" y="722.56" width="184.25" height="184.25"/><rect class="cls-4" x="383.19" y="722.56" width="184.25" height="184.25"/><rect class="cls-4" x="604.37" y="722.56" width="184.25" height="184.25"/><rect class="cls-4" x="825.56" y="722.56" width="184.25" height="184.25"/><rect class="cls-4" x="1046.75" y="722.56" width="184.25" height="184.25"/><rect class="cls-4" x="162" y="943.75" width="184.25" height="184.25"/><rect class="cls-4" x="383.19" y="943.75" width="184.25" height="184.25"/><rect class="cls-4" x="604.37" y="943.75" width="184.25" height="184.25"/><rect class="cls-4" x="825.56" y="943.75" width="184.25" height="184.25"/><rect class="cls-4" x="1046.75" y="943.75" width="184.25" height="184.25"/></g><g id="circulo"><g class="cls-6"><image width="6016" height="4000" transform="translate(0 133) scale(0.1)" xlink:href="../../../marsella/DSC_0169.JPG"/></g></g><g id="griglia3"><rect class="cls-7" x="162" y="59" width="147.4" height="147.4"/><rect class="cls-7" x="346.32" y="59" width="147.4" height="147.4"/><rect class="cls-7" x="530.64" y="59" width="147.4" height="147.4"/><rect class="cls-7" x="714.96" y="59" width="147.4" height="147.4"/><rect class="cls-7" x="899.28" y="59" width="147.4" height="147.4"/><rect class="cls-7" x="1083.6" y="59" width="147.4" height="147.4"/><rect class="cls-7" x="162" y="243.32" width="147.4" height="147.4"/><rect class="cls-7" x="346.32" y="243.32" width="147.4" height="147.4"/><rect class="cls-7" x="530.64" y="243.32" width="147.4" height="147.4"/><rect class="cls-7" x="714.96" y="243.32" width="147.4" height="147.4"/><rect class="cls-7" x="899.28" y="243.32" width="147.4" height="147.4"/><rect class="cls-7" x="1083.6" y="243.32" width="147.4" height="147.4"/><rect class="cls-7" x="162" y="427.64" width="147.4" height="147.4"/><rect class="cls-7" x="346.32" y="427.64" width="147.4" height="147.4"/><rect class="cls-7" x="530.64" y="427.64" width="147.4" height="147.4"/><rect class="cls-7" x="714.96" y="427.64" width="147.4" height="147.4"/><rect class="cls-7" x="899.28" y="427.64" width="147.4" height="147.4"/><rect class="cls-7" x="1083.6" y="427.64" width="147.4" height="147.4"/><rect class="cls-7" x="162" y="611.96" width="147.4" height="147.4"/><rect class="cls-7" x="346.32" y="611.96" width="147.4" height="147.4"/><rect class="cls-7" x="530.64" y="611.96" width="147.4" height="147.4"/><rect class="cls-7" x="714.96" y="611.96" width="147.4" height="147.4"/><rect class="cls-7" x="899.28" y="611.96" width="147.4" height="147.4"/><rect class="cls-7" x="1083.6" y="611.96" width="147.4" height="147.4"/><rect class="cls-7" x="162" y="796.28" width="147.4" height="147.4"/><rect class="cls-7" x="346.32" y="796.28" width="147.4" height="147.4"/><rect class="cls-7" x="530.64" y="796.28" width="147.4" height="147.4"/><rect class="cls-7" x="714.96" y="796.28" width="147.4" height="147.4"/><rect class="cls-7" x="899.28" y="796.28" width="147.4" height="147.4"/><rect class="cls-7" x="1083.6" y="796.28" width="147.4" height="147.4"/><rect class="cls-7" x="162" y="980.6" width="147.4" height="147.4"/><rect class="cls-7" x="346.32" y="980.6" width="147.4" height="147.4"/><rect class="cls-7" x="530.64" y="980.6" width="147.4" height="147.4"/><rect class="cls-7" x="714.96" y="980.6" width="147.4" height="147.4"/><rect class="cls-7" x="899.28" y="980.6" width="147.4" height="147.4"/><rect class="cls-7" x="1083.6" y="980.6" width="147.4" height="147.4"/></g><g id="testo"><text x="106"></text><text x="106"></text><text class="cls-8" transform="translate(468.21 151)">SC<tspan class="cls-9" x="52.56" y="0">A</tspan><tspan x="82.56" y="0">TTI DI MARSIGLIA</tspan></text><text x="106"></text><text class="cls-10" transform="translate(346 737.01) scale(0.74 1)">Lorem ipsum dolor sit amet, consectetur adipisci elit, sed eiusmod <tspan x="0" y="24">tempor incidunt ut labore et dolore magna aliqua. Ut enim ad minim </tspan><tspan x="0" y="48">veniam, quis nostrum exercitationem ullam corporis suscipit </tspan><tspan x="0" y="72">laboriosam, nisi ut aliquid ex ea commodi consequatur. </tspan><tspan x="0" y="96">Quis aute iure reprehenderit in voluptate velit esse cillum dolore eu </tspan><tspan x="0" y="120">fugiat nulla pariatur. Excepteur sint obcaecat cupiditat non proident, </tspan><tspan x="0" y="144.27">sunt in culpa qui officia deserunt mollit anim id est laborum. </tspan><tspan class="cls-11" x="433.67" y="144.27">»</tspan></text><text class="cls-12" transform="translate(366.32 438.64)">p<tspan class="cls-13" x="4.39" y="0">a</tspan><tspan class="cls-14" x="9.1" y="0">l</tspan><tspan class="cls-13" x="11.96" y="0">a</tspan><tspan x="16.67" y="0">zzo su </tspan><tspan class="cls-15" x="40.46" y="0">u</tspan><tspan x="45.4" y="0">n’is</tspan><tspan class="cls-16" x="58.52" y="0">o</tspan><tspan class="cls-14" x="62.12" y="0">la deserta</tspan></text><text class="cls-12" transform="translate(667.33 495.33)">sc<tspan class="cls-13" x="5.89" y="0">a</tspan><tspan x="10.6" y="0">rda di fre</tspan><tspan class="cls-17" x="46.97" y="0">c</tspan><tspan x="49.95" y="0">cia</tspan></text></g></svg>