<svg id="Livello_1" data-name="Livello 1" xmlns="http://www.w3.org/2000/svg" xmlns:xlink="http://www.w3.org/1999/xlink" viewBox="0 0 1190.55 1190.55"><defs><style>.cls-1,.cls-3,.cls-4,.cls-5{fill:none;}.cls-2{fill:#7bacb2;}.cls-3{stroke:#fff;}.cls-3,.cls-4,.cls-5{stroke-miterlimit:10;}.cls-4{stroke:#050044;}.cls-5{stroke:#fc5a00;}.cls-6{clip-path:url(#clip-path);}.cls-10,.cls-11,.cls-12,.cls-13,.cls-14,.cls-15,.cls-16,.cls-17,.cls-18,.cls-7,.cls-9{isolation:isolate;}.cls-8{clip-path:url(#clip-path-2);}.cls-10,.cls-11,.cls-9{font-size:60px;font-family:OpenSansCondensed-Bold, Open Sans Condensed;font-weight:700;}.cls-9{fill:#dddbbf;}.cls-10{fill:#682b01;}.cls-11{fill:#080070;}.cls-12,.cls-13,.cls-14,.cls-15,.cls-16,.cls-17{font-size:10px;font-family:EBGaramond-Italic, EB Garamond;font-style:italic;}.cls-12{letter-spacing:-0.07em;}.cls-14{letter-spacing:-0.02em;}.cls-15{letter-spacing:-0.01em;}.cls-16{letter-spacing:-0.03em;}.cls-17{letter-spacing:-0.03em;}.cls-18{font-size:16px;font-family:OpenSans-Light, Open Sans;}</style><clipPath id="clip-path"><rect class="cls-1" x="282.04" y="503.14" width="184.25" height="184.25"/></clipPath><clipPath id="clip-path-2"><circle class="cls-1" cx="816.38" cy="596.24" r="96.28"/></clipPath></defs><title>Tavola disegno 1</title><g id="Livello_1-2" data-name="Livello 1-2"><rect class="cls-2" y="-0.01" width="1190.55" height="1190.55"/><rect class="cls-3" x="60.69" y="60.97" width="239.53" height="239.53"/><rect class="cls-3" x="337.07" y="60.97" width="239.53" height="239.53"/><rect class="cls-3" x="613.45" y="60.97" width="239.53" height="239.53"/><rect class="cls-3" x="889.83" y="60.97" width="239.53" height="239.53"/><rect class="cls-3" x="60.69" y="337.35" width="239.53" height="239.53"/><rect class="cls-3" x="337.07" y="337.35" width="239.53" height="239.53"/><rect class="cls-3" x="613.45" y="337.35" width="239.53" height="239.53"/><rect class="cls-3" x="889.83" y="337.35" width="239.53" height="239.53"/><rect class="cls-3" x="60.69" y="613.73" width="239.53" height="239.53"/><rect class="cls-3" x="337.07" y="613.73" width="239.53" height="239.53"/><rect class="cls-3" x="613.45" y="613.73" width="239.53" height="239.53"/><rect class="cls-3" x="889.83" y="612.73" width="239.53" height="239.53"/><rect class="cls-3" x="60.69" y="889.1" width="239.53" height="239.53"/><rect class="cls-3" x="337.07" y="889.1" width="239.53" height="239.53"/><rect class="cls-3" x="613.45" y="889.1" width="239.53" height="239.53"/><rect class="cls-3" x="889.83" y="889.1" width="239.53" height="239.53"/></g><g id="Livello_3" data-name="Livello 3"><rect class="cls-4" x="60.94" y="60.94" width="147.4" height="147.4"/><rect class="cls-4" x="245.2" y="60.94" width="147.4" height="147.4"/><rect class="cls-4" x="429.45" y="60.94" width="147.4" height="147.4"/><rect class="cls-4" x="613.7" y="60.94" width="147.4" height="147.4"/><rect class="cls-4" x="797.95" y="60.94" width="147.4" height="147.4"/><rect class="cls-4" x="982.2" y="60.94" width="147.4" height="147.4"/><rect class="cls-4" x="60.94" y="245.19" width="147.4" height="147.4"/><rect class="cls-4" x="245.2" y="245.19" width="147.4" height="147.4"/><rect class="cls-4" x="429.45" y="245.19" width="147.4" height="147.4"/><rect class="cls-4" x="613.7" y="245.19" width="147.4" height="147.4"/><rect class="cls-4" x="797.95" y="245.19" width="147.4" height="147.4"/><rect class="cls-4" x="982.2" y="245.19" width="147.4" height="147.4"/><rect class="cls-4" x="60.94" y="429.44" width="147.4" height="147.4"/><rect class="cls-4" x="245.2" y="429.44" width="147.4" height="147.4"/><rect class="cls-4" x="429.45" y="429.44" width="147.4" height="147.4"/><rect class="cls-4" x="613.7" y="429.44" width="147.4" height="147.4"/><rect class="cls-4" x="797.95" y="429.44" width="147.4" height="147.4"/><rect class="cls-4" x="982.2" y="429.44" width="147.4" height="147.4"/><rect class="cls-4" x="60.94" y="613.7" width="147.4" height="147.4"/><rect class="cls-4" x="245.2" y="613.7" width="147.4" height="147.4"/><rect class="cls-4" x="429.45" y="613.7" width="147.4" height="147.4"/><rect class="cls-4" x="613.7" y="613.7" width="147.4" height="147.4"/><rect class="cls-4" x="797.95" y="613.7" width="147.4" height="147.4"/><rect class="cls-4" x="982.2" y="613.7" width="147.4" height="147.4"/><rect class="cls-4" x="60.94" y="797.95" width="147.4" height="147.4"/><rect class="cls-4" x="245.2" y="797.95" width="147.4" height="147.4"/><rect class="cls-4" x="429.45" y="797.95" width="147.4" height="147.4"/><rect class="cls-4" x="613.7" y="797.95" width="147.4" height="147.4"/><rect class="cls-4" x="797.95" y="797.95" width="147.4" height="147.4"/><rect class="cls-4" x="982.2" y="797.95" width="147.4" height="147.4"/><rect class="cls-4" x="60.94" y="982.2" width="147.4" height="147.4"/><rect class="cls-4" x="245.2" y="982.2" width="147.4" height="147.4"/><rect class="cls-4" x="429.45" y="982.2" width="147.4" height="147.4"/><rect class="cls-4" x="613.7" y="982.2" width="147.4" height="147.4"/><rect class="cls-4" x="797.95" y="982.2" width="147.4" height="147.4"/><rect class="cls-4" x="982.2" y="982.2" width="147.4" height="147.4"/></g><rect class="cls-5" x="60.94" y="60.94" width="184.25" height="184.25"/><rect class="cls-5" x="282.05" y="60.94" width="184.25" height="184.25"/><rect class="cls-5" x="503.15" y="60.94" width="184.25" height="184.25"/><rect class="cls-5" x="724.25" y="60.94" width="184.25" height="184.25"/><rect class="cls-5" x="945.35" y="60.94" width="184.25" height="184.25"/><rect class="cls-5" x="60.94" y="282.04" width="184.25" height="184.25"/><rect class="cls-5" x="282.05" y="282.04" width="184.25" height="184.25"/><rect class="cls-5" x="503.15" y="282.04" width="184.25" height="184.25"/><rect class="cls-5" x="724.25" y="282.04" width="184.25" height="184.25"/><rect class="cls-5" x="945.35" y="282.04" width="184.25" height="184.25"/><rect class="cls-5" x="60.94" y="503.14" width="184.25" height="184.25"/><rect class="cls-1" x="282.05" y="503.14" width="184.25" height="184.25"/><rect class="cls-5" x="503.15" y="503.14" width="184.25" height="184.25"/><rect class="cls-5" x="724.25" y="503.14" width="184.25" height="184.25"/><rect class="cls-5" x="945.35" y="503.14" width="184.25" height="184.25"/><rect class="cls-5" x="60.94" y="724.25" width="184.25" height="184.25"/><rect class="cls-5" x="282.05" y="724.25" width="184.25" height="184.25"/><rect class="cls-5" x="503.15" y="724.25" width="184.25" height="184.25"/><rect class="cls-5" x="724.25" y="724.25" width="184.25" height="184.25"/><rect class="cls-5" x="945.35" y="724.25" width="184.25" height="184.25"/><rect class="cls-5" x="60.94" y="945.35" width="184.25" height="184.25"/><rect class="cls-5" x="282.05" y="945.35" width="184.25" height="184.25"/><rect class="cls-5" x="503.15" y="945.35" width="184.25" height="184.25"/><rect class="cls-5" x="724.25" y="945.35" width="184.25" height="184.25"/><rect class="cls-5" x="945.35" y="945.35" width="184.25" height="184.25"/><g class="cls-6"><image class="cls-7" width="5184" height="3456" transform="translate(60.94 475.35) scale(0.14 0.12)" xlink:href="893529_03.JPG"/></g><g class="cls-8"><image class="cls-7" width="5184" height="3456" transform="translate(658.73 462.55) scale(0.07)" xlink:href="893529_05.JPG"/></g><text class="cls-9" transform="translate(457.09 134.64)">LUCE</text><text class="cls-10" transform="translate(583.07 134.64)">e</text><text class="cls-11" transform="translate(625.49 134.64)">BUIO</text><text class="cls-12" transform="translate(992.45 680.71)">T</text><text class="cls-13" transform="translate(998.59 680.71)">r</text><text class="cls-14" transform="translate(1002.38 680.71)">i</text><text class="cls-13" transform="translate(1005.12 680.71)">e</text><text class="cls-14" transform="translate(1008.53 680.71)">n</text><text class="cls-13" transform="translate(1013.6 680.71)">na</text><text class="cls-15" transform="translate(1024.65 680.71)">l</text><text class="cls-13" transform="translate(1027.24 680.71)">e di M</text><text class="cls-16" transform="translate(1052.66 680.71)">i</text><text class="cls-13" transform="translate(1055.35 680.71)">l</text><text class="cls-14" transform="translate(1058.21 680.71)">a</text><text class="cls-13" transform="translate(1062.92 680.71)">no</text><text class="cls-13" transform="translate(104.5 680.71)">Cast</text><text class="cls-17" transform="translate(121.4 680.71)">e</text><text class="cls-15" transform="translate(124.56 680.71)">l</text><text class="cls-13" transform="translate(127.27 680.71)">lo Sforzes</text><text class="cls-14" transform="translate(161.64 680.71)">c</text><text class="cls-13" transform="translate(164.62 680.71)">o, M</text><text class="cls-16" transform="translate(182.48 680.71)">i</text><text class="cls-13" transform="translate(185.17 680.71)">l</text><text class="cls-14" transform="translate(188.03 680.71)">a</text><text class="cls-13" transform="translate(192.74 680.71)">no</text><text class="cls-18" transform="translate(245.19 177.12)">Lorem</text><text class="cls-18" transform="translate(296.56 177.12)">ipsum</text><text class="cls-18" transform="translate(345.36 177.12)">dolor</text><text class="cls-18" transform="translate(388.13 177.12)">sit</text><text class="cls-18" transform="translate(409.2 177.12)">amet,</text><text class="cls-18" transform="translate(454.03 177.12)">consectetuer</text><text class="cls-18" transform="translate(552.88 177.12)">adipiscing</text><text class="cls-18" transform="translate(628.76 177.12)">elit,</text><text class="cls-18" transform="translate(658.22 177.12)">sed</text><text class="cls-18" transform="translate(688.62 177.12)">diam</text><text class="cls-18" transform="translate(729.01 177.12)">nonummy</text><text class="cls-18" transform="translate(806.94 177.12)">nibh</text><text class="cls-18" transform="translate(843.61 177.12)">euismod</text><text class="cls-18" transform="translate(910.57 177.12)">tinci</text><text class="cls-18" transform="translate(940.2 177.12)">-</text><text class="cls-18" transform="translate(245.19 201.12)">dunt</text><text class="cls-18" transform="translate(283.8 201.12)">ut</text><text class="cls-18" transform="translate(303.44 201.12)">laoreet</text><text class="cls-18" transform="translate(358.91 201.12)">dolore</text><text class="cls-18" transform="translate(410.65 201.12)">magna</text><text class="cls-18" transform="translate(464.38 201.12)">aliquam</text><text class="cls-18" transform="translate(526.51 201.12)">erat</text><text class="cls-18" transform="translate(560.2 201.12)">volutpat.</text><text class="cls-18" transform="translate(627.34 201.12)">Ut</text><text class="cls-18" transform="translate(649.06 201.12)">wisi</text><text class="cls-18" transform="translate(680.16 201.12)">enim</text><text class="cls-18" transform="translate(720.97 201.12)">ad</text><text class="cls-18" transform="translate(743.82 201.12)">minim</text><text class="cls-18" transform="translate(793.59 201.12)">veniam,</text><text class="cls-18" transform="translate(853.66 201.12)">quis</text><text class="cls-18" transform="translate(888.54 201.12)">nostrud</text><text class="cls-18" transform="translate(245.19 225.12)">exerci</text><text class="cls-18" transform="translate(291.65 225.12)">tation</text><text class="cls-18" transform="translate(336.75 225.12)">ullamcorper</text><text class="cls-18" transform="translate(427.24 225.12)">suscipit</text><text class="cls-18" transform="translate(484.78 225.12)">lobortis</text><text class="cls-18" transform="translate(542.81 225.12)">nisl</text><text class="cls-18" transform="translate(570.41 225.12)">ut</text><text class="cls-18" transform="translate(588.69 225.12)">aliquip</text><text class="cls-18" transform="translate(639.98 225.12)">ex</text><text class="cls-18" transform="translate(660.21 225.12)">ea</text><text class="cls-18" transform="translate(680.95 225.12)">commodo</text><text class="cls-18" transform="translate(757.93 225.12)">consequat.</text><text class="cls-18" transform="translate(840.66 225.12)">Duis</text><text class="cls-18" transform="translate(875.95 225.12)">autem</text><text class="cls-18" transform="translate(925.61 225.12)">vel</text><text class="cls-18" transform="translate(245.19 249.12)">eum</text><text class="cls-18" transform="translate(281.65 249.12)">iriure</text><text class="cls-18" transform="translate(323.66 249.12)">dolor</text><text class="cls-18" transform="translate(365.89 249.12)">in</text><text class="cls-18" transform="translate(383.06 249.12)">hendrerit</text><text class="cls-18" transform="translate(454.56 249.12)">in</text><text class="cls-18" transform="translate(471.72 249.12)">vulputate</text><text class="cls-18" transform="translate(543.17 249.12)">velit</text><text class="cls-18" transform="translate(576 249.12)">esse</text><text class="cls-18" transform="translate(612.58 249.12)">molestie</text><text class="cls-18" transform="translate(677.8 249.12)">consequat,</text><text class="cls-18" transform="translate(760.79 249.12)">vel</text><text class="cls-18" transform="translate(784.65 249.12)">illum</text><text class="cls-18" transform="translate(823.17 249.12)">dolore</text><text class="cls-18" transform="translate(874.18 249.12)">eu</text><text class="cls-18" transform="translate(896.51 249.12)">feugiat</text><text class="cls-18" transform="translate(245.19 273.12)">nulla</text><text class="cls-18" transform="translate(284.64 273.12)">facilisis</text><text class="cls-18" transform="translate(339.76 273.12)">at</text><text class="cls-18" transform="translate(358.46 273.12)">vero</text><text class="cls-18" transform="translate(395.05 273.12)">eros</text><text class="cls-18" transform="translate(431.75 273.12)">et</text><text class="cls-18" transform="translate(450.75 273.12)">accumsan</text><text class="cls-18" transform="translate(528.23 273.12)">et</text><text class="cls-18" transform="translate(547.23 273.12)">iusto</text><text class="cls-18" transform="translate(587.34 273.12)">odio</text><text class="cls-18" transform="translate(624.1 273.12)">dignissim</text><text class="cls-18" transform="translate(696.17 273.12)">qui</text><text class="cls-18" transform="translate(723.61 273.12)">blandit</text><text class="cls-18" transform="translate(778.03 273.12)">praesent</text><text class="cls-18" transform="translate(846.94 273.12)">luptatum</text><text class="cls-18" transform="translate(917.14 273.12)">zzril</text><text class="cls-18" transform="translate(513.27 722.42)">Lorem ipsum dolor sit</text><text class="cls-18" transform="translate(483.16 746.42)">amet, consectetuer adipiscing</text><text class="cls-18" transform="translate(463.35 770.42)">elit, sed diam nonummy nibh euismod</text><text class="cls-18" transform="translate(449.78 794.42)">tincidunt ut laoreet dolore magna aliquam</text><text class="cls-18" transform="translate(440.9 818.42)">erat volutpat. Ut wisi enim ad minim veniam,</text><text class="cls-18" transform="translate(435.95 842.42)">quis nostrud exerci tation ullamcorper susci</text><text class="cls-18" transform="translate(750.75 842.42)">-</text><text class="cls-18" transform="translate(435.05 866.42)">pit lobortis nisl ut aliquip ex ea commodo con</text><text class="cls-18" transform="translate(762 866.42)">-</text><text class="cls-18" transform="translate(438.69 890.42)">sequat. Duis autem vel eum iriure dolor in</text><text class="cls-18" transform="translate(446.09 914.42)">hendrerit in vulputate velit esse molestie</text><text class="cls-18" transform="translate(457.85 938.42)">consequat, vel illum dolore eu feugiat</text><text class="cls-18" transform="translate(475.15 962.42)">nulla facilisis at vero eros et accu</text><text class="cls-18" transform="translate(709.58 962.42)">-</text><text class="cls-18" transform="translate(500.73 986.42)">msan et iusto odio dignis</text><text class="cls-18" transform="translate(680.14 986.42)">-</text><text class="cls-18" transform="translate(544.91 1010.42)">sim qui blandit</text></svg>
