<svg xmlns="http://www.w3.org/2000/svg" xmlns:xlink="http://www.w3.org/1999/xlink" viewBox="0 0 1190.55 1190.55"><defs><style>.cls-1{fill:#df5;}.cls-2,.cls-3,.cls-4{fill:none;stroke-miterlimit:10;}.cls-2{stroke:red;}.cls-3{stroke:blue;}.cls-4{stroke:#39b54a;}</style></defs><title>Tavola disegno 1893537_03</title><g id="Livello_1" data-name="Livello 1"><rect class="cls-1" width="1190.55" height="1190.55"/></g><g id="Livello_2" data-name="Livello 2"><rect class="cls-2" x="60.94" y="60.94" width="239.53" height="239.53"/><rect class="cls-2" x="337.32" y="60.94" width="239.53" height="239.53"/><rect class="cls-2" x="613.7" y="60.94" width="239.53" height="239.53"/><rect class="cls-2" x="890.08" y="60.94" width="239.53" height="239.53"/><rect class="cls-2" x="60.94" y="337.32" width="239.53" height="239.53"/><rect class="cls-2" x="337.32" y="337.32" width="239.53" height="239.53"/><rect class="cls-2" x="613.7" y="337.32" width="239.53" height="239.53"/><rect class="cls-2" x="890.08" y="337.32" width="239.53" height="239.53"/><rect class="cls-2" x="60.94" y="613.7" width="239.53" height="239.53"/><rect class="cls-2" x="337.32" y="613.7" width="239.53" height="239.53"/><rect class="cls-2" x="613.7" y="613.7" width="239.53" height="239.53"/><rect class="cls-2" x="890.08" y="613.7" width="239.53" height="239.53"/><rect class="cls-2" x="60.94" y="890.08" width="239.53" height="239.53"/><rect class="cls-2" x="337.32" y="890.08" width="239.53" height="239.53"/><rect class="cls-2" x="613.7" y="890.08" width="239.53" height="239.53"/><rect class="cls-2" x="890.08" y="890.08" width="239.53" height="239.53"/></g><g id="Livello_3" data-name="Livello 3"><rect class="cls-3" x="60.94" y="60.94" width="184.25" height="184.25"/><rect class="cls-3" x="282.05" y="60.94" width="184.25" height="184.25"/><rect class="cls-3" x="503.15" y="60.94" width="184.25" height="184.25"/><rect class="cls-3" x="724.25" y="60.94" width="184.25" height="184.25"/><rect class="cls-3" x="945.35" y="60.94" width="184.25" height="184.25"/><rect class="cls-3" x="60.94" y="282.05" width="184.25" height="184.25"/><rect class="cls-3" x="282.05" y="282.05" width="184.25" height="184.25"/><rect class="cls-3" x="503.15" y="282.05" width="184.25" height="184.25"/><rect class="cls-3" x="724.25" y="282.05" width="184.25" height="184.25"/><rect class="cls-3" x="945.35" y="282.05" width="184.25" height="184.25"/><rect class="cls-3" x="60.94" y="503.15" width="184.25" height="184.25"/><rect class="cls-3" x="282.05" y="503.15" width="184.25" height="184.25"/><rect class="cls-3" x="503.15" y="503.15" width="184.25" height="184.25"/><rect class="cls-3" x="724.25" y="503.15" width="184.25" height="184.25"/><rect class="cls-3" x="945.35" y="503.15" width="184.25" height="184.25"/><rect class="cls-3" x="60.94" y="724.25" width="184.25" height="184.25"/><rect class="cls-3" x="282.05" y="724.25" width="184.25" height="184.25"/><rect class="cls-3" x="503.15" y="724.25" width="184.25" height="184.25"/><rect class="cls-3" x="724.25" y="724.25" width="184.25" height="184.25"/><rect class="cls-3" x="945.35" y="724.25" width="184.25" height="184.25"/><rect class="cls-3" x="60.94" y="945.35" width="184.25" height="184.25"/><rect class="cls-3" x="282.05" y="945.35" width="184.25" height="184.25"/><rect class="cls-3" x="503.15" y="945.35" width="184.25" height="184.25"/><rect class="cls-3" x="724.25" y="945.35" width="184.25" height="184.25"/><rect class="cls-3" x="945.35" y="945.35" width="184.25" height="184.25"/></g><g id="Livello_4" data-name="Livello 4"><rect class="cls-4" x="62.94" y="60.94" width="147.4" height="147.4"/><rect class="cls-4" x="247.2" y="60.94" width="147.4" height="147.4"/><rect class="cls-4" x="431.45" y="60.94" width="147.4" height="147.4"/><rect class="cls-4" x="615.7" y="60.94" width="147.4" height="147.4"/><rect class="cls-4" x="799.95" y="60.94" width="147.4" height="147.4"/><rect class="cls-4" x="984.2" y="60.94" width="147.4" height="147.4"/><rect class="cls-4" x="62.94" y="245.2" width="147.4" height="147.4"/><rect class="cls-4" x="247.2" y="245.2" width="147.4" height="147.4"/><rect class="cls-4" x="431.45" y="245.2" width="147.4" height="147.4"/><rect class="cls-4" x="615.7" y="245.2" width="147.4" height="147.4"/><rect class="cls-4" x="799.95" y="245.2" width="147.4" height="147.4"/><rect class="cls-4" x="984.2" y="245.2" width="147.4" height="147.4"/><rect class="cls-4" x="62.94" y="429.45" width="147.4" height="147.4"/><rect class="cls-4" x="247.2" y="429.45" width="147.4" height="147.4"/><rect class="cls-4" x="431.45" y="429.45" width="147.4" height="147.4"/><rect class="cls-4" x="615.7" y="429.45" width="147.4" height="147.4"/><rect class="cls-4" x="799.95" y="429.45" width="147.4" height="147.4"/><rect class="cls-4" x="984.2" y="429.45" width="147.4" height="147.4"/><rect class="cls-4" x="62.94" y="613.7" width="147.4" height="147.4"/><rect class="cls-4" x="247.2" y="613.7" width="147.4" height="147.4"/><rect class="cls-4" x="431.45" y="613.7" width="147.4" height="147.4"/><rect class="cls-4" x="615.7" y="613.7" width="147.4" height="147.4"/><rect class="cls-4" x="799.95" y="613.7" width="147.4" height="147.4"/><rect class="cls-4" x="984.2" y="613.7" width="147.4" height="147.4"/><rect class="cls-4" x="58.94" y="797.95" width="147.4" height="147.4"/><rect class="cls-4" x="243.2" y="797.95" width="147.4" height="147.4"/><rect class="cls-4" x="427.45" y="797.95" width="147.4" height="147.4"/><rect class="cls-4" x="611.7" y="797.95" width="147.4" height="147.4"/><rect class="cls-4" x="795.95" y="797.95" width="147.4" height="147.4"/><rect class="cls-4" x="980.2" y="797.95" width="147.4" height="147.4"/><rect class="cls-4" x="58.94" y="982.2" width="147.4" height="147.4"/><rect class="cls-4" x="243.2" y="982.2" width="147.4" height="147.4"/><rect class="cls-4" x="427.45" y="982.2" width="147.4" height="147.4"/><rect class="cls-4" x="611.7" y="982.2" width="147.4" height="147.4"/><rect class="cls-4" x="795.95" y="982.2" width="147.4" height="147.4"/><rect class="cls-4" x="980.2" y="982.2" width="147.4" height="147.4"/></g><g id="Livello_5" data-name="Livello 5"><image width="547" height="308" transform="translate(321.78 441.28)" xlink:href="893537_03.jpg"/></g></svg>