<?xml version="1.0" encoding="utf-8"?>
<!-- Generator: Adobe Illustrator 22.1.0, SVG Export Plug-In . SVG Version: 6.00 Build 0)  -->
<svg version="1.1" id="Livello_1" xmlns="http://www.w3.org/2000/svg" xmlns:xlink="http://www.w3.org/1999/xlink" x="0px" y="0px"
	 viewBox="0 0 1190.6 1190.6" style="enable-background:new 0 0 1190.6 1190.6;" xml:space="preserve">
<style type="text/css">
	.st0{fill:#7BACB2;}
	.st1{fill:none;stroke:#FFFFFF;stroke-miterlimit:10;}
	.st2{fill:none;stroke:#050044;stroke-miterlimit:10;}
	.st3{fill:none;stroke:#FC5A00;stroke-miterlimit:10;}
	.st4{fill:none;}
	.st5{clip-path:url(#SVGID_2_);}
	.st6{clip-path:url(#SVGID_4_);}
	.st7{fill:#DDDBBF;}
	.st8{font-family:'OpenSansCondensed-Bold';}
	.st9{font-size:60px;}
	.st10{fill:#682B01;}
	.st11{fill:#080070;}
	.st12{font-family:'EBGaramond-Italic';}
	.st13{font-size:10px;}
	.st14{font-family:'OpenSans-Light';}
	.st15{font-size:16px;}
</style>
<rect class="st0" width="1190.6" height="1190.6"/>
<rect x="60.9" y="60.9" class="st1" width="239.5" height="239.5"/>
<rect x="337.4" y="60.9" class="st1" width="239.5" height="239.5"/>
<rect x="613.8" y="60.9" class="st1" width="239.5" height="239.5"/>
<rect x="890.3" y="60.9" class="st1" width="239.5" height="239.5"/>
<rect x="60.9" y="337.4" class="st1" width="239.5" height="239.5"/>
<rect x="337.4" y="337.4" class="st1" width="239.5" height="239.5"/>
<rect x="613.8" y="337.4" class="st1" width="239.5" height="239.5"/>
<rect x="890.3" y="337.4" class="st1" width="239.5" height="239.5"/>
<rect x="60.9" y="613.8" class="st1" width="239.5" height="239.5"/>
<rect x="337.4" y="613.8" class="st1" width="239.5" height="239.5"/>
<rect x="613.8" y="613.8" class="st1" width="239.5" height="239.5"/>
<rect x="890.3" y="613.8" class="st1" width="239.5" height="239.5"/>
<rect x="60.9" y="890.3" class="st1" width="239.5" height="239.5"/>
<rect x="337.4" y="890.3" class="st1" width="239.5" height="239.5"/>
<rect x="613.8" y="890.3" class="st1" width="239.5" height="239.5"/>
<rect x="890.3" y="890.3" class="st1" width="239.5" height="239.5"/>
<title>Tavola disegno 1</title>
<g id="Livello_3">
	<rect x="60.9" y="60.9" class="st2" width="147.4" height="147.4"/>
	<rect x="245.2" y="60.9" class="st2" width="147.4" height="147.4"/>
	<rect x="429.5" y="60.9" class="st2" width="147.4" height="147.4"/>
	<rect x="613.7" y="60.9" class="st2" width="147.4" height="147.4"/>
	<rect x="798" y="60.9" class="st2" width="147.4" height="147.4"/>
	<rect x="982.2" y="60.9" class="st2" width="147.4" height="147.4"/>
	<rect x="60.9" y="245.2" class="st2" width="147.4" height="147.4"/>
	<rect x="245.2" y="245.2" class="st2" width="147.4" height="147.4"/>
	<rect x="429.5" y="245.2" class="st2" width="147.4" height="147.4"/>
	<rect x="613.7" y="245.2" class="st2" width="147.4" height="147.4"/>
	<rect x="798" y="245.2" class="st2" width="147.4" height="147.4"/>
	<rect x="982.2" y="245.2" class="st2" width="147.4" height="147.4"/>
	<rect x="60.9" y="429.4" class="st2" width="147.4" height="147.4"/>
	<rect x="245.2" y="429.4" class="st2" width="147.4" height="147.4"/>
	<rect x="429.5" y="429.4" class="st2" width="147.4" height="147.4"/>
	<rect x="613.7" y="429.4" class="st2" width="147.4" height="147.4"/>
	<rect x="798" y="429.4" class="st2" width="147.4" height="147.4"/>
	<rect x="982.2" y="429.4" class="st2" width="147.4" height="147.4"/>
	<rect x="60.9" y="613.7" class="st2" width="147.4" height="147.4"/>
	<rect x="245.2" y="613.7" class="st2" width="147.4" height="147.4"/>
	<rect x="429.5" y="613.7" class="st2" width="147.4" height="147.4"/>
	<rect x="613.7" y="613.7" class="st2" width="147.4" height="147.4"/>
	<rect x="798" y="613.7" class="st2" width="147.4" height="147.4"/>
	<rect x="982.2" y="613.7" class="st2" width="147.4" height="147.4"/>
	<rect x="60.9" y="798" class="st2" width="147.4" height="147.4"/>
	<rect x="245.2" y="798" class="st2" width="147.4" height="147.4"/>
	<rect x="429.5" y="798" class="st2" width="147.4" height="147.4"/>
	<rect x="613.7" y="798" class="st2" width="147.4" height="147.4"/>
	<rect x="798" y="798" class="st2" width="147.4" height="147.4"/>
	<rect x="982.2" y="798" class="st2" width="147.4" height="147.4"/>
	<rect x="60.9" y="982.2" class="st2" width="147.4" height="147.4"/>
	<rect x="245.2" y="982.2" class="st2" width="147.4" height="147.4"/>
	<rect x="429.5" y="982.2" class="st2" width="147.4" height="147.4"/>
	<rect x="613.7" y="982.2" class="st2" width="147.4" height="147.4"/>
	<rect x="798" y="982.2" class="st2" width="147.4" height="147.4"/>
	<rect x="982.2" y="982.2" class="st2" width="147.4" height="147.4"/>
</g>
<rect x="60.9" y="60.9" class="st3" width="184.3" height="184.3"/>
<rect x="282" y="60.9" class="st3" width="184.3" height="184.3"/>
<rect x="503.1" y="60.9" class="st3" width="184.3" height="184.3"/>
<rect x="724.3" y="60.9" class="st3" width="184.3" height="184.3"/>
<rect x="945.3" y="60.9" class="st3" width="184.3" height="184.3"/>
<rect x="60.9" y="282" class="st3" width="184.3" height="184.3"/>
<rect x="282" y="282" class="st3" width="184.3" height="184.3"/>
<rect x="503.1" y="282" class="st3" width="184.3" height="184.3"/>
<rect x="724.3" y="282" class="st3" width="184.3" height="184.3"/>
<rect x="945.3" y="282" class="st3" width="184.3" height="184.3"/>
<rect x="60.9" y="503.1" class="st3" width="184.3" height="184.3"/>
<rect x="282" y="503.1" class="st4" width="184.3" height="184.3"/>
<rect x="503.1" y="503.1" class="st3" width="184.3" height="184.3"/>
<rect x="724.3" y="503.1" class="st3" width="184.3" height="184.3"/>
<rect x="945.3" y="503.1" class="st3" width="184.3" height="184.3"/>
<rect x="60.9" y="724.3" class="st3" width="184.3" height="184.3"/>
<rect x="282" y="724.3" class="st3" width="184.3" height="184.3"/>
<rect x="503.1" y="724.3" class="st3" width="184.3" height="184.3"/>
<rect x="724.3" y="724.3" class="st3" width="184.3" height="184.3"/>
<rect x="945.3" y="724.3" class="st3" width="184.3" height="184.3"/>
<rect x="60.9" y="945.4" class="st3" width="184.3" height="184.3"/>
<rect x="282" y="945.4" class="st3" width="184.3" height="184.3"/>
<rect x="503.1" y="945.4" class="st3" width="184.3" height="184.3"/>
<rect x="724.3" y="945.4" class="st3" width="184.3" height="184.3"/>
<rect x="945.3" y="945.4" class="st3" width="184.3" height="184.3"/>
<g>
	<g>
		<g>
			<defs>
				<rect id="SVGID_1_" x="282" y="503.1" width="184.3" height="184.3"/>
			</defs>
			<clipPath id="SVGID_2_">
				<use xlink:href="#SVGID_1_"  style="overflow:visible;"/>
			</clipPath>
			<g class="st5">
				
					<image style="overflow:visible;enable-background:new    ;" width="5184" height="3456" xlink:href="893529_03.JPG"  transform="matrix(0.14 0 0 0.12 60.94 475.35)">
				</image>
			</g>
		</g>
	</g>
</g>
<g>
	<g>
		<g>
			<defs>
				<circle id="SVGID_3_" cx="816.4" cy="596.2" r="96.3"/>
			</defs>
			<clipPath id="SVGID_4_">
				<use xlink:href="#SVGID_3_"  style="overflow:visible;"/>
			</clipPath>
			<g class="st6">
				
					<image style="overflow:visible;enable-background:new    ;" width="5184" height="3456" xlink:href="893529_05.JPG"  transform="matrix(7.000000e-02 0 0 7.000000e-02 658.73 462.55)">
				</image>
			</g>
		</g>
	</g>
</g>
<text transform="matrix(1 0 0 1 457.09 134.64)" class="st7 st8 st9">LUCE</text>
<text transform="matrix(1 0 0 1 583.07 134.64)" class="st10 st8 st9">e</text>
<text transform="matrix(1 0 0 1 625.49 134.64)" class="st11 st8 st9">BUIO</text>
<text transform="matrix(1 0 0 1 992.45 680.7101)" class="st12 st13">T</text>
<text transform="matrix(1 0 0 1 998.59 680.7101)" class="st12 st13">r</text>
<text transform="matrix(1 0 0 1 1002.38 680.7101)" class="st12 st13">i</text>
<text transform="matrix(1 0 0 1 1005.12 680.7101)" class="st12 st13">e</text>
<text transform="matrix(1 0 0 1 1008.53 680.7101)" class="st12 st13">n</text>
<text transform="matrix(1 0 0 1 1013.6 680.7101)" class="st12 st13">na</text>
<text transform="matrix(1 0 0 1 1024.65 680.7101)" class="st12 st13">l</text>
<text transform="matrix(1 0 0 1 1027.24 680.7101)" class="st12 st13">e di M</text>
<text transform="matrix(1 0 0 1 1052.66 680.7101)" class="st12 st13">i</text>
<text transform="matrix(1 0 0 1 1055.35 680.7101)" class="st12 st13">l</text>
<text transform="matrix(1 0 0 1 1058.21 680.7101)" class="st12 st13">a</text>
<text transform="matrix(1 0 0 1 1062.92 680.7101)" class="st12 st13">no</text>
<text transform="matrix(1 0 0 1 104.5 680.7101)" class="st12 st13">Cast</text>
<text transform="matrix(1 0 0 1 121.4 680.7101)" class="st12 st13">e</text>
<text transform="matrix(1 0 0 1 124.56 680.7101)" class="st12 st13">l</text>
<text transform="matrix(1 0 0 1 127.27 680.7101)" class="st12 st13">lo Sforzes</text>
<text transform="matrix(1 0 0 1 161.64 680.7101)" class="st12 st13">c</text>
<text transform="matrix(1 0 0 1 164.62 680.7101)" class="st12 st13">o, M</text>
<text transform="matrix(1 0 0 1 182.48 680.7101)" class="st12 st13">i</text>
<text transform="matrix(1 0 0 1 185.17 680.7101)" class="st12 st13">l</text>
<text transform="matrix(1 0 0 1 188.03 680.7101)" class="st12 st13">a</text>
<text transform="matrix(1 0 0 1 192.74 680.7101)" class="st12 st13">no</text>
<text transform="matrix(1 0 0 1 245.19 177.12)" class="st14 st15">Lorem</text>
<text transform="matrix(1 0 0 1 296.56 177.12)" class="st14 st15">ipsum</text>
<text transform="matrix(1 0 0 1 345.36 177.12)" class="st14 st15">dolor</text>
<text transform="matrix(1 0 0 1 388.13 177.12)" class="st14 st15">sit</text>
<text transform="matrix(1 0 0 1 409.2 177.12)" class="st14 st15">amet,</text>
<text transform="matrix(1 0 0 1 454.03 177.12)" class="st14 st15">consectetuer</text>
<text transform="matrix(1 0 0 1 552.88 177.12)" class="st14 st15">adipiscing</text>
<text transform="matrix(1 0 0 1 628.76 177.12)" class="st14 st15">elit,</text>
<text transform="matrix(1 0 0 1 658.22 177.12)" class="st14 st15">sed</text>
<text transform="matrix(1 0 0 1 688.62 177.12)" class="st14 st15">diam</text>
<text transform="matrix(1 0 0 1 729.01 177.12)" class="st14 st15">nonummy</text>
<text transform="matrix(1 0 0 1 806.94 177.12)" class="st14 st15">nibh</text>
<text transform="matrix(1 0 0 1 843.61 177.12)" class="st14 st15">euismod</text>
<text transform="matrix(1 0 0 1 910.57 177.12)" class="st14 st15">tinci</text>
<text transform="matrix(1 0 0 1 940.2 177.12)" class="st14 st15">-</text>
<text transform="matrix(1 0 0 1 245.19 201.12)" class="st14 st15">dunt</text>
<text transform="matrix(1 0 0 1 283.8 201.12)" class="st14 st15">ut</text>
<text transform="matrix(1 0 0 1 303.44 201.12)" class="st14 st15">laoreet</text>
<text transform="matrix(1 0 0 1 358.91 201.12)" class="st14 st15">dolore</text>
<text transform="matrix(1 0 0 1 410.65 201.12)" class="st14 st15">magna</text>
<text transform="matrix(1 0 0 1 464.38 201.12)" class="st14 st15">aliquam</text>
<text transform="matrix(1 0 0 1 526.51 201.12)" class="st14 st15">erat</text>
<text transform="matrix(1 0 0 1 560.2 201.12)" class="st14 st15">volutpat.</text>
<text transform="matrix(1 0 0 1 627.34 201.12)" class="st14 st15">Ut</text>
<text transform="matrix(1 0 0 1 649.06 201.12)" class="st14 st15">wisi</text>
<text transform="matrix(1 0 0 1 680.16 201.12)" class="st14 st15">enim</text>
<text transform="matrix(1 0 0 1 720.97 201.12)" class="st14 st15">ad</text>
<text transform="matrix(1 0 0 1 743.82 201.12)" class="st14 st15">minim</text>
<text transform="matrix(1 0 0 1 793.59 201.12)" class="st14 st15">veniam,</text>
<text transform="matrix(1 0 0 1 853.66 201.12)" class="st14 st15">quis</text>
<text transform="matrix(1 0 0 1 888.54 201.12)" class="st14 st15">nostrud</text>
<text transform="matrix(1 0 0 1 245.19 225.12)" class="st14 st15">exerci</text>
<text transform="matrix(1 0 0 1 291.65 225.12)" class="st14 st15">tation</text>
<text transform="matrix(1 0 0 1 336.75 225.12)" class="st14 st15">ullamcorper</text>
<text transform="matrix(1 0 0 1 427.24 225.12)" class="st14 st15">suscipit</text>
<text transform="matrix(1 0 0 1 484.78 225.12)" class="st14 st15">lobortis</text>
<text transform="matrix(1 0 0 1 542.81 225.12)" class="st14 st15">nisl</text>
<text transform="matrix(1 0 0 1 570.41 225.12)" class="st14 st15">ut</text>
<text transform="matrix(1 0 0 1 588.69 225.12)" class="st14 st15">aliquip</text>
<text transform="matrix(1 0 0 1 639.98 225.12)" class="st14 st15">ex</text>
<text transform="matrix(1 0 0 1 660.21 225.12)" class="st14 st15">ea</text>
<text transform="matrix(1 0 0 1 680.95 225.12)" class="st14 st15">commodo</text>
<text transform="matrix(1 0 0 1 757.93 225.12)" class="st14 st15">consequat.</text>
<text transform="matrix(1 0 0 1 840.66 225.12)" class="st14 st15">Duis</text>
<text transform="matrix(1 0 0 1 875.95 225.12)" class="st14 st15">autem</text>
<text transform="matrix(1 0 0 1 925.61 225.12)" class="st14 st15">vel</text>
<text transform="matrix(1 0 0 1 245.19 249.12)" class="st14 st15">eum</text>
<text transform="matrix(1 0 0 1 281.65 249.12)" class="st14 st15">iriure</text>
<text transform="matrix(1 0 0 1 323.66 249.12)" class="st14 st15">dolor</text>
<text transform="matrix(1 0 0 1 365.89 249.12)" class="st14 st15">in</text>
<text transform="matrix(1 0 0 1 383.06 249.12)" class="st14 st15">hendrerit</text>
<text transform="matrix(1 0 0 1 454.56 249.12)" class="st14 st15">in</text>
<text transform="matrix(1 0 0 1 471.72 249.12)" class="st14 st15">vulputate</text>
<text transform="matrix(1 0 0 1 543.17 249.12)" class="st14 st15">velit</text>
<text transform="matrix(1 0 0 1 576 249.12)" class="st14 st15">esse</text>
<text transform="matrix(1 0 0 1 612.58 249.12)" class="st14 st15">molestie</text>
<text transform="matrix(1 0 0 1 677.8 249.12)" class="st14 st15">consequat,</text>
<text transform="matrix(1 0 0 1 760.79 249.12)" class="st14 st15">vel</text>
<text transform="matrix(1 0 0 1 784.65 249.12)" class="st14 st15">illum</text>
<text transform="matrix(1 0 0 1 823.17 249.12)" class="st14 st15">dolore</text>
<text transform="matrix(1 0 0 1 874.18 249.12)" class="st14 st15">eu</text>
<text transform="matrix(1 0 0 1 896.51 249.12)" class="st14 st15">feugiat</text>
<text transform="matrix(1 0 0 1 245.19 273.12)" class="st14 st15">nulla</text>
<text transform="matrix(1 0 0 1 284.64 273.12)" class="st14 st15">facilisis</text>
<text transform="matrix(1 0 0 1 339.76 273.12)" class="st14 st15">at</text>
<text transform="matrix(1 0 0 1 358.46 273.12)" class="st14 st15">vero</text>
<text transform="matrix(1 0 0 1 395.05 273.12)" class="st14 st15">eros</text>
<text transform="matrix(1 0 0 1 431.75 273.12)" class="st14 st15">et</text>
<text transform="matrix(1 0 0 1 450.75 273.12)" class="st14 st15">accumsan</text>
<text transform="matrix(1 0 0 1 528.23 273.12)" class="st14 st15">et</text>
<text transform="matrix(1 0 0 1 547.23 273.12)" class="st14 st15">iusto</text>
<text transform="matrix(1 0 0 1 587.34 273.12)" class="st14 st15">odio</text>
<text transform="matrix(1 0 0 1 624.1 273.12)" class="st14 st15">dignissim</text>
<text transform="matrix(1 0 0 1 696.17 273.12)" class="st14 st15">qui</text>
<text transform="matrix(1 0 0 1 723.61 273.12)" class="st14 st15">blandit</text>
<text transform="matrix(1 0 0 1 778.03 273.12)" class="st14 st15">praesent</text>
<text transform="matrix(1 0 0 1 846.94 273.12)" class="st14 st15">luptatum</text>
<text transform="matrix(1 0 0 1 917.14 273.12)" class="st14 st15">zzril</text>
<text transform="matrix(1 0 0 1 513.27 722.42)" class="st14 st15">Lorem ipsum dolor sit</text>
<text transform="matrix(1 0 0 1 483.16 746.42)" class="st14 st15">amet, consectetuer adipiscing</text>
<text transform="matrix(1 0 0 1 463.35 770.42)" class="st14 st15">elit, sed diam nonummy nibh euismod</text>
<text transform="matrix(1 0 0 1 449.78 794.42)" class="st14 st15">tincidunt ut laoreet dolore magna aliquam</text>
<text transform="matrix(1 0 0 1 440.9 818.42)" class="st14 st15">erat volutpat. Ut wisi enim ad minim veniam,</text>
<text transform="matrix(1 0 0 1 435.95 842.42)" class="st14 st15">quis nostrud exerci tation ullamcorper susci</text>
<text transform="matrix(1 0 0 1 750.75 842.42)" class="st14 st15">-</text>
<text transform="matrix(1 0 0 1 435.05 866.42)" class="st14 st15">pit lobortis nisl ut aliquip ex ea commodo con</text>
<text transform="matrix(1 0 0 1 762 866.42)" class="st14 st15">-</text>
<text transform="matrix(1 0 0 1 438.69 890.42)" class="st14 st15">sequat. Duis autem vel eum iriure dolor in</text>
<text transform="matrix(1 0 0 1 446.09 914.42)" class="st14 st15">hendrerit in vulputate velit esse molestie</text>
<text transform="matrix(1 0 0 1 457.85 938.42)" class="st14 st15">consequat, vel illum dolore eu feugiat</text>
<text transform="matrix(1 0 0 1 475.15 962.42)" class="st14 st15">nulla facilisis at vero eros et accu</text>
<text transform="matrix(1 0 0 1 709.58 962.42)" class="st14 st15">-</text>
<text transform="matrix(1 0 0 1 500.73 986.42)" class="st14 st15">msan et iusto odio dignis</text>
<text transform="matrix(1 0 0 1 680.14 986.42)" class="st14 st15">-</text>
<text transform="matrix(1 0 0 1 544.91 1010.42)" class="st14 st15">sim qui blandit</text>
<image style="overflow:visible;enable-background:new    ;" width="2581" height="2642" xlink:href="../../../../UNIVERSITA&apos;/2° SEMESTRE/STRUMENTI DEL PROGETTO-FERRARA/6EDC9ED3.png"  transform="matrix(0.141 0 0 0.141 60.0538 757.4019)">
</image>
</svg>
