<?xml version="1.0" encoding="utf-8"?>
<!-- Generator: Adobe Illustrator 22.1.0, SVG Export Plug-In . SVG Version: 6.00 Build 0)  -->
<svg version="1.1" id="Capa_1" xmlns="http://www.w3.org/2000/svg" xmlns:xlink="http://www.w3.org/1999/xlink" x="0px" y="0px"
	 viewBox="0 0 1190.6 1190.6" style="enable-background:new 0 0 1190.6 1190.6;" xml:space="preserve">
<style type="text/css">
	.st0{fill:#25244C;}
	.st1{fill:none;stroke:#0082FF;stroke-width:4;stroke-miterlimit:10;}
	.st2{clip-path:url(#SVGID_2_);}
	.st3{clip-path:url(#SVGID_4_);}
	.st4{fill:none;stroke:#FF7BAC;stroke-width:4;stroke-miterlimit:10;}
	.st5{fill:#FFFFFF;}
	.st6{font-family:'OpenSansCondensed-Bold';}
	.st7{font-size:60px;}
	.st8{fill:#FCFCFC;}
	.st9{font-family:'OpenSans-Light';}
	.st10{font-size:16px;}
	.st11{font-size:16.1815px;}
	.st12{font-family:'EBGaramond-Italic';}
	.st13{font-size:10px;}
	.st14{fill:none;}
	.st15{font-family:'EBGaramond-Regular';}
	.st16{font-size:12px;}
	.st17{letter-spacing:3;}
	.st18{letter-spacing:5;}
</style>
<g id="Capa_1_1_">
	<rect x="2" y="0" class="st0" width="1191" height="1191"/>
	<g>
		<rect x="58" y="59" class="st0" width="239.5" height="239.5"/>
		<rect x="334.4" y="59" class="st0" width="239.5" height="239.5"/>
		<rect x="610.8" y="59" class="st0" width="239.5" height="239.5"/>
		<rect x="887.1" y="59" class="st0" width="239.5" height="239.5"/>
		<rect x="58" y="335.4" class="st0" width="239.5" height="239.5"/>
		<rect x="334.4" y="335.4" class="st0" width="239.5" height="239.5"/>
		<rect x="610.8" y="335.4" class="st0" width="239.5" height="239.5"/>
		<rect x="887.1" y="335.4" class="st0" width="239.5" height="239.5"/>
		<rect x="58" y="611.8" class="st0" width="239.5" height="239.5"/>
		<rect x="334.4" y="611.8" class="st0" width="239.5" height="239.5"/>
		<rect x="610.8" y="611.8" class="st0" width="239.5" height="239.5"/>
		<rect x="887.1" y="611.8" class="st0" width="239.5" height="239.5"/>
		<rect x="58" y="888.1" class="st0" width="239.5" height="239.5"/>
		<rect x="334.4" y="888.1" class="st0" width="239.5" height="239.5"/>
		<rect x="610.8" y="888.1" class="st0" width="239.5" height="239.5"/>
		<rect x="887.1" y="888.1" class="st0" width="239.5" height="239.5"/>
	</g>
</g>
<g id="imagen">
</g>
<g id="griglia2">
	<rect x="56" y="59" class="st1" width="184.3" height="184.3"/>
	<rect x="277.2" y="59" class="st1" width="184.3" height="184.3"/>
	<rect x="498.4" y="59" class="st1" width="184.3" height="184.3"/>
	<rect x="719.6" y="59" class="st1" width="184.3" height="184.3"/>
	<rect x="940.7" y="59" class="st1" width="184.3" height="184.3"/>
	<rect x="56" y="280.2" class="st1" width="184.3" height="184.3"/>
	<rect x="277.2" y="280.2" class="st1" width="184.3" height="184.3"/>
	<rect x="498.4" y="280.2" class="st1" width="184.3" height="184.3"/>
	<rect x="719.6" y="280.2" class="st1" width="184.3" height="184.3"/>
	<rect x="940.7" y="280.2" class="st1" width="184.3" height="184.3"/>
	<rect x="56" y="501.4" class="st1" width="184.3" height="184.3"/>
	<rect x="277.2" y="501.4" class="st1" width="184.3" height="184.3"/>
	<g>
		<g>
			<g>
				<defs>
					<rect id="SVGID_1_" x="498.4" y="501.4" width="184.3" height="184.3"/>
				</defs>
				<clipPath id="SVGID_2_">
					<use xlink:href="#SVGID_1_"  style="overflow:visible;"/>
				</clipPath>
				<g transform="matrix(1 0 0 1 0 0)" class="st2">
					
						<image style="overflow:visible;enable-background:new    ;" width="6016" height="4000" xlink:href="893573_02.JPG"  transform="matrix(0.1777 0 0 0.175 56 59)">
					</image>
				</g>
			</g>
		</g>
	</g>
	<rect x="719.6" y="501.4" class="st1" width="184.3" height="184.3"/>
	<rect x="940.7" y="501.4" class="st1" width="184.3" height="184.3"/>
	<rect x="56" y="722.6" class="st1" width="184.3" height="184.3"/>
	<rect x="277.2" y="722.6" class="st1" width="184.3" height="184.3"/>
	<rect x="498.4" y="722.6" class="st1" width="184.3" height="184.3"/>
	<rect x="719.6" y="722.6" class="st1" width="184.3" height="184.3"/>
	<rect x="940.7" y="722.6" class="st1" width="184.3" height="184.3"/>
	<rect x="56" y="943.7" class="st1" width="184.3" height="184.3"/>
	<rect x="277.2" y="943.7" class="st1" width="184.3" height="184.3"/>
	<rect x="498.4" y="943.7" class="st1" width="184.3" height="184.3"/>
	<rect x="719.6" y="943.7" class="st1" width="184.3" height="184.3"/>
	<rect x="940.7" y="943.7" class="st1" width="184.3" height="184.3"/>
</g>
<g id="imagen2">
</g>
<g id="circulo">
	<g>
		<g>
			<g>
				<defs>
					<circle id="SVGID_3_" cx="314" cy="317" r="111"/>
				</defs>
				<clipPath id="SVGID_4_">
					<use xlink:href="#SVGID_3_"  style="overflow:visible;"/>
				</clipPath>
				<g transform="matrix(1 0 0 1 -7.629395e-06 0)" class="st3">
					
						<image style="overflow:visible;enable-background:new    ;" width="6016" height="4000" xlink:href="893573_01.JPG"  transform="matrix(0.1027 0 0 0.1027 -106 133)">
					</image>
				</g>
			</g>
		</g>
	</g>
</g>
<g id="griglia3">
	<rect x="56" y="59" class="st4" width="147.4" height="147.4"/>
	<rect x="240.3" y="59" class="st4" width="147.4" height="147.4"/>
	<rect x="424.6" y="59" class="st4" width="147.4" height="147.4"/>
	<rect x="609" y="59" class="st4" width="147.4" height="147.4"/>
	<rect x="793.3" y="59" class="st4" width="147.4" height="147.4"/>
	<rect x="977.6" y="59" class="st4" width="147.4" height="147.4"/>
	<rect x="56" y="243.3" class="st4" width="147.4" height="147.4"/>
	<rect x="240.3" y="243.3" class="st4" width="147.4" height="147.4"/>
	<rect x="424.6" y="243.3" class="st4" width="147.4" height="147.4"/>
	<rect x="609" y="243.3" class="st4" width="147.4" height="147.4"/>
	<rect x="793.3" y="243.3" class="st4" width="147.4" height="147.4"/>
	<rect x="977.6" y="243.3" class="st4" width="147.4" height="147.4"/>
	<rect x="56" y="427.6" class="st4" width="147.4" height="147.4"/>
	<rect x="240.3" y="427.6" class="st4" width="147.4" height="147.4"/>
	<rect x="424.6" y="427.6" class="st4" width="147.4" height="147.4"/>
	<rect x="609" y="427.6" class="st4" width="147.4" height="147.4"/>
	<rect x="793.3" y="427.6" class="st4" width="147.4" height="147.4"/>
	<rect x="977.6" y="427.6" class="st4" width="147.4" height="147.4"/>
	<rect x="56" y="612" class="st4" width="147.4" height="147.4"/>
	<rect x="240.3" y="612" class="st4" width="147.4" height="147.4"/>
	<rect x="424.6" y="612" class="st4" width="147.4" height="147.4"/>
	<rect x="609" y="612" class="st4" width="147.4" height="147.4"/>
	<rect x="793.3" y="612" class="st4" width="147.4" height="147.4"/>
	<rect x="977.6" y="612" class="st4" width="147.4" height="147.4"/>
	<rect x="56" y="796.3" class="st4" width="147.4" height="147.4"/>
	<rect x="240.3" y="796.3" class="st4" width="147.4" height="147.4"/>
	<rect x="424.6" y="796.3" class="st4" width="147.4" height="147.4"/>
	<rect x="609" y="796.3" class="st4" width="147.4" height="147.4"/>
	<rect x="793.3" y="796.3" class="st4" width="147.4" height="147.4"/>
	<rect x="977.6" y="796.3" class="st4" width="147.4" height="147.4"/>
	<rect x="56" y="980.6" class="st4" width="147.4" height="147.4"/>
	<rect x="240.3" y="980.6" class="st4" width="147.4" height="147.4"/>
	<rect x="424.6" y="980.6" class="st4" width="147.4" height="147.4"/>
	<rect x="609" y="980.6" class="st4" width="147.4" height="147.4"/>
	<rect x="793.3" y="980.6" class="st4" width="147.4" height="147.4"/>
	<rect x="977.6" y="980.6" class="st4" width="147.4" height="147.4"/>
</g>
<g id="testo">
	<text transform="matrix(1 0 0 1 361.1885 151)" class="st5 st6 st7">SCATTI DI MARSIGLIA</text>
	<text transform="matrix(0.7439 0 0 1 239.999 737.0142)" class="st8 st9 st10">Lorem ipsum dolor sit amet, consectetur adipisci elit, sed eiusmod </text>
	<text transform="matrix(0.7439 0 0 1 239.999 761.0142)" class="st8 st9 st10">tempor incidunt ut labore et dolore magna aliqua. Ut enim ad minim </text>
	<text transform="matrix(0.7439 0 0 1 239.999 785.0142)" class="st8 st9 st10">veniam, quis nostrum exercitationem ullam corporis suscipit </text>
	<text transform="matrix(0.7439 0 0 1 239.999 809.0142)" class="st8 st9 st10">laboriosam, nisi ut aliquid ex ea commodi consequatur. </text>
	<text transform="matrix(0.7439 0 0 1 239.999 833.0142)" class="st8 st9 st10">Quis aute iure reprehenderit in voluptate velit esse cillum dolore eu </text>
	<text transform="matrix(0.7439 0 0 1 239.999 857.0142)" class="st8 st9 st10">fugiat nulla pariatur. Excepteur sint obcaecat cupiditat non proident, </text>
	<text transform="matrix(0.7439 0 0 1 239.999 881.314)" class="st8 st9 st10">sunt in culpa qui officia deserunt mollit anim id est laborum. </text>
	<text transform="matrix(0.7439 0 0 1 562.6289 881.314)" class="st8 st9 st11">»</text>
	<text transform="matrix(1.0026 0 0 1 260.3193 438.6392)" class="st8 st12 st13">palazzo su un’isola deserta</text>
	<text transform="matrix(1.0026 0 0 1 561.333 495.3336)" class="st8 st12 st13">scarda di freccia</text>
	<circle class="st14" cx="866.5" cy="317.5" r="119.5"/>
	<text transform="matrix(1.0026 0 0 1 793.5547 230.4478)" class="st8 st15 st16">Lorem</text>
	<text transform="matrix(1.0026 0 0 1 824.6348 230.4478)" class="st8 st15 st16 st17"> </text>
	<text transform="matrix(1.0026 0 0 1 830.8516 230.4478)" class="st8 st15 st16">ipsum</text>
	<text transform="matrix(1.0026 0 0 1 859.626 230.4478)" class="st8 st15 st16 st17"> </text>
	<text transform="matrix(1.0026 0 0 1 865.9424 230.4478)" class="st8 st15 st16">dolor</text>
	<text transform="matrix(1.0026 0 0 1 890.9072 230.4478)" class="st8 st15 st16 st17"> </text>
	<text transform="matrix(1.0026 0 0 1 897.123 230.4478)" class="st8 st15 st16">sit</text>
	<text transform="matrix(1.0026 0 0 1 907.751 230.4478)" class="st8 st15 st16 st17"> </text>
	<text transform="matrix(1.0026 0 0 1 914.0674 230.4478)" class="st8 st15 st16">amet, </text>
	<text transform="matrix(1.0026 0 0 1 770.0938 254.4478)" class="st8 st15 st16">consectetuer</text>
	<text transform="matrix(1.0026 0 0 1 828.1445 254.4478)" class="st8 st15 st16 st18"> </text>
	<text transform="matrix(1.0026 0 0 1 836.4658 254.4478)" class="st8 st15 st16">adipiscing</text>
	<text transform="matrix(1.0026 0 0 1 882.7861 254.4478)" class="st8 st15 st16 st18"> </text>
	<text transform="matrix(1.0026 0 0 1 891.208 254.4478)" class="st8 st15 st16">elit,</text>
	<text transform="matrix(1.0026 0 0 1 908.252 254.4478)" class="st8 st15 st16 st18"> </text>
	<text transform="matrix(1.0026 0 0 1 916.6738 254.4478)" class="st8 st15 st16">sed</text>
	<text transform="matrix(1.0026 0 0 1 931.3115 254.4478)" class="st8 st15 st16 st18"> </text>
	<text transform="matrix(1.0026 0 0 1 939.6328 254.4478)" class="st8 st15 st16">diam </text>
	<text transform="matrix(1.0026 0 0 1 756.458 278.4478)" class="st8 st15 st16">nonummy</text>
	<text transform="matrix(1.0026 0 0 1 805.4854 278.4478)" class="st8 st15 st16"> </text>
	<text transform="matrix(1.0026 0 0 1 810.5986 278.4478)" class="st8 st15 st16">nibh</text>
	<text transform="matrix(1.0026 0 0 1 832.2549 278.4478)" class="st8 st15 st16"> </text>
	<text transform="matrix(1.0026 0 0 1 837.4688 278.4478)" class="st8 st15 st16">euismod</text>
	<text transform="matrix(1.0026 0 0 1 876.6699 278.4478)" class="st8 st15 st16"> </text>
	<text transform="matrix(1.0026 0 0 1 881.8838 278.4478)" class="st8 st15 st16">tincidunt</text>
	<text transform="matrix(1.0026 0 0 1 925.2959 278.4478)" class="st8 st15 st16"> </text>
	<text transform="matrix(1.0026 0 0 1 930.4092 278.4478)" class="st8 st15 st16">ut</text>
	<text transform="matrix(1.0026 0 0 1 940.5352 278.4478)" class="st8 st15 st16"> </text>
	<text transform="matrix(1.0026 0 0 1 945.749 278.4478)" class="st8 st15 st16">laoreet </text>
	<text transform="matrix(1.0026 0 0 1 749.1396 302.4478)" class="st8 st15 st16">dolore</text>
	<text transform="matrix(1.0026 0 0 1 778.7158 302.4478)" class="st8 st15 st16"> </text>
	<text transform="matrix(1.0026 0 0 1 782.125 302.4478)" class="st8 st15 st16">magna</text>
	<text transform="matrix(1.0026 0 0 1 812.7041 302.4478)" class="st8 st15 st16"> </text>
	<text transform="matrix(1.0026 0 0 1 816.1133 302.4478)" class="st8 st15 st16">aliquam</text>
	<text transform="matrix(1.0026 0 0 1 853.6104 302.4478)" class="st8 st15 st16"> </text>
	<text transform="matrix(1.0026 0 0 1 857.0195 302.4478)" class="st8 st15 st16">erat</text>
	<text transform="matrix(1.0026 0 0 1 874.2637 302.4478)" class="st8 st15 st16"> </text>
	<text transform="matrix(1.0026 0 0 1 877.6729 302.4478)" class="st8 st15 st16">volutpat.</text>
	<text transform="matrix(1.0026 0 0 1 919.5811 302.4478)" class="st8 st15 st16"> </text>
	<text transform="matrix(1.0026 0 0 1 922.9902 302.4478)" class="st8 st15 st16">Ut</text>
	<text transform="matrix(1.0026 0 0 1 935.623 302.4478)" class="st8 st15 st16"> </text>
	<text transform="matrix(1.0026 0 0 1 939.0313 302.4478)" class="st8 st15 st16">wisi</text>
	<text transform="matrix(1.0026 0 0 1 957.0781 302.4478)" class="st8 st15 st16"> </text>
	<text transform="matrix(1.0026 0 0 1 960.4873 302.4478)" class="st8 st15 st16">enim </text>
	<text transform="matrix(1.0026 0 0 1 747.335 326.4478)" class="st8 st15 st16">ad</text>
	<text transform="matrix(1.0026 0 0 1 758.2627 326.4478)" class="st8 st15 st16"> </text>
	<text transform="matrix(1.0026 0 0 1 761.1709 326.4478)" class="st8 st15 st16">minim</text>
	<text transform="matrix(1.0026 0 0 1 792.1504 326.4478)" class="st8 st15 st16"> </text>
	<text transform="matrix(1.0026 0 0 1 795.1582 326.4478)" class="st8 st15 st16">veniam,</text>
	<text transform="matrix(1.0026 0 0 1 831.3525 326.4478)" class="st8 st15 st16"> </text>
	<text transform="matrix(1.0026 0 0 1 834.2598 326.4478)" class="st8 st15 st16">quis</text>
	<text transform="matrix(1.0026 0 0 1 853.7109 326.4478)" class="st8 st15 st16"> </text>
	<text transform="matrix(1.0026 0 0 1 856.7188 326.4478)" class="st8 st15 st16">nostrud</text>
	<text transform="matrix(1.0026 0 0 1 893.1123 326.4478)" class="st8 st15 st16"> </text>
	<text transform="matrix(1.0026 0 0 1 896.1201 326.4478)" class="st8 st15 st16">exerci</text>
	<text transform="matrix(1.0026 0 0 1 922.4893 326.4478)" class="st8 st15 st16"> </text>
	<text transform="matrix(1.0026 0 0 1 925.4971 326.4478)" class="st8 st15 st16">tation</text>
	<text transform="matrix(1.0026 0 0 1 953.168 326.4478)" class="st8 st15 st16"> </text>
	<text transform="matrix(1.0026 0 0 1 956.0762 326.4478)" class="st8 st15 st16">ullam</text>
	<text transform="matrix(1.0026 0 0 1 982.3438 326.4478)" class="st8 st15 st16">-</text>
	<text transform="matrix(1.0026 0 0 1 751.6455 350.4478)" class="st8 st15 st16">corper</text>
	<text transform="matrix(1.0026 0 0 1 781.4229 350.4478)" class="st8 st15 st16"> </text>
	<text transform="matrix(1.0026 0 0 1 784.9316 350.4478)" class="st8 st15 st16">suscipit</text>
	<text transform="matrix(1.0026 0 0 1 819.8223 350.4478)" class="st8 st15 st16"> </text>
	<text transform="matrix(1.0026 0 0 1 823.332 350.4478)" class="st8 st15 st16">lobortis</text>
	<text transform="matrix(1.0026 0 0 1 858.9238 350.4478)" class="st8 st15 st16"> </text>
	<text transform="matrix(1.0026 0 0 1 862.4326 350.4478)" class="st8 st15 st16">nisl</text>
	<text transform="matrix(1.0026 0 0 1 878.4746 350.4478)" class="st8 st15 st16"> </text>
	<text transform="matrix(1.0026 0 0 1 881.9834 350.4478)" class="st8 st15 st16">ut</text>
	<text transform="matrix(1.0026 0 0 1 892.1104 350.4478)" class="st8 st15 st16"> </text>
	<text transform="matrix(1.0026 0 0 1 895.6191 350.4478)" class="st8 st15 st16">aliquip</text>
	<text transform="matrix(1.0026 0 0 1 928.1035 350.4478)" class="st8 st15 st16"> </text>
	<text transform="matrix(1.0026 0 0 1 931.5117 350.4478)" class="st8 st15 st16">ex</text>
	<text transform="matrix(1.0026 0 0 1 941.4375 350.4478)" class="st8 st15 st16"> </text>
	<text transform="matrix(1.0026 0 0 1 944.9473 350.4478)" class="st8 st15 st16">ea</text>
	<text transform="matrix(1.0026 0 0 1 954.3711 350.4478)" class="st8 st15 st16"> </text>
	<text transform="matrix(1.0026 0 0 1 957.8809 350.4478)" class="st8 st15 st16">com</text>
	<text transform="matrix(1.0026 0 0 1 978.1328 350.4478)" class="st8 st15 st16">-</text>
	<text transform="matrix(1.0026 0 0 1 761.3711 374.4478)" class="st8 st15 st16">modo</text>
	<text transform="matrix(1.0026 0 0 1 788.7422 374.4478)" class="st8 st15 st16"> </text>
	<text transform="matrix(1.0026 0 0 1 792.752 374.4478)" class="st8 st15 st16">consequat.</text>
	<text transform="matrix(1.0026 0 0 1 842.4814 374.4478)" class="st8 st15 st16"> </text>
	<text transform="matrix(1.0026 0 0 1 846.3916 374.4478)" class="st8 st15 st16">Duis</text>
	<text transform="matrix(1.0026 0 0 1 868.6494 374.4478)" class="st8 st15 st16"> </text>
	<text transform="matrix(1.0026 0 0 1 872.5596 374.4478)" class="st8 st15 st16">autem</text>
	<text transform="matrix(1.0026 0 0 1 901.5342 374.4478)" class="st8 st15 st16"> </text>
	<text transform="matrix(1.0026 0 0 1 905.5449 374.4478)" class="st8 st15 st16">vel</text>
	<text transform="matrix(1.0026 0 0 1 918.3779 374.4478)" class="st8 st15 st16"> </text>
	<text transform="matrix(1.0026 0 0 1 922.2881 374.4478)" class="st8 st15 st16">eum</text>
	<text transform="matrix(1.0026 0 0 1 942.6406 374.4478)" class="st8 st15 st16"> </text>
	<text transform="matrix(1.0026 0 0 1 946.6514 374.4478)" class="st8 st15 st16">iriure </text>
	<text transform="matrix(1.0026 0 0 1 778.6152 398.4478)" class="st8 st15 st16">dolor</text>
	<text transform="matrix(1.0026 0 0 1 803.4805 398.4478)" class="st8 st15 st16"> </text>
	<text transform="matrix(1.0026 0 0 1 808.6934 398.4478)" class="st8 st15 st16">in</text>
	<text transform="matrix(1.0026 0 0 1 817.918 398.4478)" class="st8 st15 st16"> </text>
	<text transform="matrix(1.0026 0 0 1 823.1309 398.4478)" class="st8 st15 st16">hendrerit</text>
	<text transform="matrix(1.0026 0 0 1 865.9424 398.4478)" class="st8 st15 st16"> </text>
	<text transform="matrix(1.0026 0 0 1 871.0557 398.4478)" class="st8 st15 st16">in</text>
	<text transform="matrix(1.0026 0 0 1 880.3799 398.4478)" class="st8 st15 st16"> </text>
	<text transform="matrix(1.0026 0 0 1 885.4932 398.4478)" class="st8 st15 st16">vulputate</text>
	<text transform="matrix(1.0026 0 0 1 929.707 398.4478)" class="st8 st15 st16"> </text>
	<text transform="matrix(1.0026 0 0 1 934.8203 398.4478)" class="st8 st15 st16">velit </text>
	<text transform="matrix(1.0026 0 0 1 809.2949 422.4478)" class="st8 st15 st16">esse</text>
	<text transform="matrix(1.0026 0 0 1 826.4395 422.4478)" class="st8 st15 st16"> </text>
	<text transform="matrix(1.0026 0 0 1 831.1523 422.4478)" class="st8 st15 st16">molestie</text>
	<text transform="matrix(1.0026 0 0 1 869.3506 422.4478)" class="st8 st15 st16"> </text>
	<text transform="matrix(1.0026 0 0 1 873.9629 422.4478)" class="st8 st15 st16">consequat, </text>
</g>
<g id="sezionecucina">
	
		<image style="overflow:visible;enable-background:new    ;" width="4459" height="2355" xlink:href="69E8E998.jpg"  transform="matrix(0.1158 0 0 0.1158 55.2277 855.6615)">
	</image>
</g>
</svg>
