<?xml version="1.0" encoding="utf-8"?>
<!-- Generator: Adobe Illustrator 22.1.0, SVG Export Plug-In . SVG Version: 6.00 Build 0)  -->
<svg version="1.1" id="Capa_1" xmlns="http://www.w3.org/2000/svg" xmlns:xlink="http://www.w3.org/1999/xlink" x="0px" y="0px"
	 viewBox="0 0 1191 1191" style="enable-background:new 0 0 1191 1191;" xml:space="preserve">
<style type="text/css">
	.st0{fill:#1B1556;}
	.st1{fill:#1B1556;stroke:#00FFFF;stroke-width:4;stroke-miterlimit:10;}
	.st2{fill:none;stroke:#0082FF;stroke-width:4;stroke-miterlimit:10;}
	.st3{fill:none;stroke:#FF7BAC;stroke-width:4;stroke-miterlimit:10;}
</style>
<title>893573_02</title>
<g id="Capa_1_1_">
	<rect y="0" class="st0" width="1191" height="1191"/>
	<rect x="56" y="59" class="st1" width="239.5" height="239.5"/>
	<rect x="332.4" y="59" class="st1" width="239.5" height="239.5"/>
	<rect x="608.8" y="59" class="st1" width="239.5" height="239.5"/>
	<rect x="885.1" y="59" class="st1" width="239.5" height="239.5"/>
	<rect x="56" y="335.4" class="st1" width="239.5" height="239.5"/>
	<rect x="332.4" y="335.4" class="st1" width="239.5" height="239.5"/>
	<rect x="608.8" y="335.4" class="st1" width="239.5" height="239.5"/>
	<rect x="885.1" y="335.4" class="st1" width="239.5" height="239.5"/>
	<rect x="56" y="611.8" class="st1" width="239.5" height="239.5"/>
	<rect x="332.4" y="611.8" class="st1" width="239.5" height="239.5"/>
	<rect x="608.8" y="611.8" class="st1" width="239.5" height="239.5"/>
	<rect x="885.1" y="611.8" class="st1" width="239.5" height="239.5"/>
	<rect x="56" y="888.1" class="st1" width="239.5" height="239.5"/>
	<rect x="332.4" y="888.1" class="st1" width="239.5" height="239.5"/>
	<rect x="608.8" y="888.1" class="st1" width="239.5" height="239.5"/>
	<rect x="885.1" y="888.1" class="st1" width="239.5" height="239.5"/>
</g>
<g id="imagen">
	
		<image style="overflow:visible;enable-background:new    ;" width="6016" height="4000" xlink:href="F254A9AE.jpeg"  transform="matrix(0.1777 0 0 0.17 56 59)">
	</image>
</g>
<g id="griglia2">
	<rect x="56" y="59" class="st2" width="184.3" height="184.3"/>
	<rect x="277.2" y="59" class="st2" width="184.3" height="184.3"/>
	<rect x="498.4" y="59" class="st2" width="184.3" height="184.3"/>
	<rect x="719.6" y="59" class="st2" width="184.3" height="184.3"/>
	<rect x="940.8" y="59" class="st2" width="184.3" height="184.3"/>
	<rect x="56" y="280.2" class="st2" width="184.3" height="184.3"/>
	<rect x="277.2" y="280.2" class="st2" width="184.3" height="184.3"/>
	<rect x="498.4" y="280.2" class="st2" width="184.3" height="184.3"/>
	<rect x="719.6" y="280.2" class="st2" width="184.3" height="184.3"/>
	<rect x="940.8" y="280.2" class="st2" width="184.3" height="184.3"/>
	<rect x="56" y="501.4" class="st2" width="184.3" height="184.3"/>
	<rect x="277.2" y="501.4" class="st2" width="184.3" height="184.3"/>
	<rect x="498.4" y="501.4" class="st2" width="184.3" height="184.3"/>
	<rect x="719.6" y="501.4" class="st2" width="184.3" height="184.3"/>
	<rect x="940.8" y="501.4" class="st2" width="184.3" height="184.3"/>
	<rect x="56" y="722.6" class="st2" width="184.3" height="184.3"/>
	<rect x="277.2" y="722.6" class="st2" width="184.3" height="184.3"/>
	<rect x="498.4" y="722.6" class="st2" width="184.3" height="184.3"/>
	<rect x="719.6" y="722.6" class="st2" width="184.3" height="184.3"/>
	<rect x="940.8" y="722.6" class="st2" width="184.3" height="184.3"/>
	<rect x="56" y="943.8" class="st2" width="184.3" height="184.3"/>
	<rect x="277.2" y="943.8" class="st2" width="184.3" height="184.3"/>
	<rect x="498.4" y="943.8" class="st2" width="184.3" height="184.3"/>
	<rect x="719.6" y="943.8" class="st2" width="184.3" height="184.3"/>
	<rect x="940.8" y="943.8" class="st2" width="184.3" height="184.3"/>
</g>
<g id="griglia3">
	<rect x="56" y="59" class="st3" width="147.4" height="147.4"/>
	<rect x="240.3" y="59" class="st3" width="147.4" height="147.4"/>
	<rect x="424.6" y="59" class="st3" width="147.4" height="147.4"/>
	<rect x="609" y="59" class="st3" width="147.4" height="147.4"/>
	<rect x="793.3" y="59" class="st3" width="147.4" height="147.4"/>
	<rect x="977.6" y="59" class="st3" width="147.4" height="147.4"/>
	<rect x="56" y="243.3" class="st3" width="147.4" height="147.4"/>
	<rect x="240.3" y="243.3" class="st3" width="147.4" height="147.4"/>
	<rect x="424.6" y="243.3" class="st3" width="147.4" height="147.4"/>
	<rect x="609" y="243.3" class="st3" width="147.4" height="147.4"/>
	<rect x="793.3" y="243.3" class="st3" width="147.4" height="147.4"/>
	<rect x="977.6" y="243.3" class="st3" width="147.4" height="147.4"/>
	<rect x="56" y="427.6" class="st3" width="147.4" height="147.4"/>
	<rect x="240.3" y="427.6" class="st3" width="147.4" height="147.4"/>
	<rect x="424.6" y="427.6" class="st3" width="147.4" height="147.4"/>
	<rect x="609" y="427.6" class="st3" width="147.4" height="147.4"/>
	<rect x="793.3" y="427.6" class="st3" width="147.4" height="147.4"/>
	<rect x="977.6" y="427.6" class="st3" width="147.4" height="147.4"/>
	<rect x="56" y="612" class="st3" width="147.4" height="147.4"/>
	<rect x="240.3" y="612" class="st3" width="147.4" height="147.4"/>
	<rect x="424.6" y="612" class="st3" width="147.4" height="147.4"/>
	<rect x="609" y="612" class="st3" width="147.4" height="147.4"/>
	<rect x="793.3" y="612" class="st3" width="147.4" height="147.4"/>
	<rect x="977.6" y="612" class="st3" width="147.4" height="147.4"/>
	<rect x="56" y="796.3" class="st3" width="147.4" height="147.4"/>
	<rect x="240.3" y="796.3" class="st3" width="147.4" height="147.4"/>
	<rect x="424.6" y="796.3" class="st3" width="147.4" height="147.4"/>
	<rect x="609" y="796.3" class="st3" width="147.4" height="147.4"/>
	<rect x="793.3" y="796.3" class="st3" width="147.4" height="147.4"/>
	<rect x="977.6" y="796.3" class="st3" width="147.4" height="147.4"/>
	<rect x="56" y="980.6" class="st3" width="147.4" height="147.4"/>
	<rect x="240.3" y="980.6" class="st3" width="147.4" height="147.4"/>
	<rect x="424.6" y="980.6" class="st3" width="147.4" height="147.4"/>
	<rect x="609" y="980.6" class="st3" width="147.4" height="147.4"/>
	<rect x="793.3" y="980.6" class="st3" width="147.4" height="147.4"/>
	<rect x="977.6" y="980.6" class="st3" width="147.4" height="147.4"/>
</g>
</svg>
