<?xml version="1.0" encoding="utf-8"?>
<!-- Generator: Adobe Illustrator 22.1.0, SVG Export Plug-In . SVG Version: 6.00 Build 0)  -->
<svg version="1.1" xmlns="http://www.w3.org/2000/svg" xmlns:xlink="http://www.w3.org/1999/xlink" x="0px" y="0px"
	 viewBox="0 0 1190.6 1190.6" style="enable-background:new 0 0 1190.6 1190.6;" xml:space="preserve">
<style type="text/css">
	.st0{fill:#F6E89B;}
	.st1{fill:none;stroke:#92C024;stroke-miterlimit:10;}
	.st2{fill:none;stroke:#B88DC0;stroke-miterlimit:10;}
	.st3{fill:none;stroke:#4353A0;stroke-miterlimit:10;}
	.st4{fill:none;}
	.st5{font-family:'OpenSansCondensed-Bold';}
	.st6{font-size:60px;}
	.st7{font-family:'OpenSansCondensed-Light';}
	.st8{font-size:16px;}
	.st9{font-family:'EBGaramond-Italic';}
	.st10{font-size:10px;}
</style>
<g id="Livello_1">
	<g id="Livello_1_1_">
		<title>888243_00</title>
		<rect y="0" class="st0" width="1190.6" height="1190.6"/>
	</g>
	<g id="Livello_3">
		<rect x="60.9" y="61" class="st1" width="184.3" height="184.3"/>
		<rect x="60.9" y="282.1" class="st1" width="184.3" height="184.3"/>
		<rect x="60.9" y="503.1" class="st1" width="184.3" height="184.3"/>
		<rect x="60.9" y="724.2" class="st1" width="184.3" height="184.3"/>
		<rect x="60.9" y="945.3" class="st1" width="184.3" height="184.3"/>
		<rect x="282" y="61" class="st1" width="184.3" height="184.3"/>
		<rect x="282" y="282.1" class="st1" width="184.3" height="184.3"/>
		<rect x="282" y="503.1" class="st1" width="184.3" height="184.3"/>
		<rect x="282" y="724.2" class="st1" width="184.3" height="184.3"/>
		<rect x="282" y="945.3" class="st1" width="184.3" height="184.3"/>
		<rect x="503.2" y="61" class="st1" width="184.3" height="184.3"/>
		<rect x="503.2" y="282.1" class="st1" width="184.3" height="184.3"/>
		<rect x="503.2" y="503.1" class="st1" width="184.3" height="184.3"/>
		<rect x="503.2" y="724.2" class="st1" width="184.3" height="184.3"/>
		<rect x="503.2" y="945.3" class="st1" width="184.3" height="184.3"/>
		<rect x="724.3" y="61" class="st1" width="184.3" height="184.3"/>
		<rect x="724.3" y="282.1" class="st1" width="184.3" height="184.3"/>
		<rect x="724.3" y="503.1" class="st1" width="184.3" height="184.3"/>
		<rect x="724.3" y="724.2" class="st1" width="184.3" height="184.3"/>
		<rect x="724.3" y="945.3" class="st1" width="184.3" height="184.3"/>
		<rect x="945.5" y="61" class="st1" width="184.3" height="184.3"/>
		<rect x="945.5" y="282.1" class="st1" width="184.3" height="184.3"/>
		<rect x="945.5" y="503.1" class="st1" width="184.3" height="184.3"/>
		<rect x="945.5" y="724.2" class="st1" width="184.3" height="184.3"/>
		<rect x="945.5" y="945.3" class="st1" width="184.3" height="184.3"/>
	</g>
	<g id="Livello_4">
		<rect x="60.9" y="61" class="st2" width="147.4" height="147.4"/>
		<rect x="60.9" y="982.1" class="st2" width="147.4" height="147.4"/>
		<rect x="60.9" y="613.7" class="st2" width="147.4" height="147.4"/>
		<rect x="60.9" y="797.9" class="st2" width="147.4" height="147.4"/>
		<rect x="60.9" y="429.5" class="st2" width="147.4" height="147.4"/>
		<rect x="60.9" y="245.2" class="st2" width="147.4" height="147.4"/>
		<rect x="245.2" y="61" class="st2" width="147.4" height="147.4"/>
		<rect x="245.2" y="982.1" class="st2" width="147.4" height="147.4"/>
		<rect x="245.2" y="613.7" class="st2" width="147.4" height="147.4"/>
		<rect x="245.2" y="797.9" class="st2" width="147.4" height="147.4"/>
		<rect x="245.2" y="429.5" class="st2" width="147.4" height="147.4"/>
		<rect x="245.2" y="245.2" class="st2" width="147.4" height="147.4"/>
		<rect x="429.5" y="61" class="st2" width="147.4" height="147.4"/>
		<rect x="429.5" y="982.1" class="st2" width="147.4" height="147.4"/>
		<rect x="429.5" y="613.7" class="st2" width="147.4" height="147.4"/>
		<rect x="429.5" y="797.9" class="st2" width="147.4" height="147.4"/>
		<rect x="429.5" y="429.5" class="st2" width="147.4" height="147.4"/>
		<rect x="429.5" y="245.2" class="st2" width="147.4" height="147.4"/>
		<rect x="613.7" y="61" class="st2" width="147.4" height="147.4"/>
		<rect x="613.8" y="982.1" class="st2" width="147.4" height="147.4"/>
		<rect x="613.8" y="613.7" class="st2" width="147.4" height="147.4"/>
		<rect x="613.8" y="797.9" class="st2" width="147.4" height="147.4"/>
		<rect x="613.8" y="429.5" class="st2" width="147.4" height="147.4"/>
		<rect x="613.8" y="245.2" class="st2" width="147.4" height="147.4"/>
		<rect x="798" y="61" class="st2" width="147.4" height="147.4"/>
		<rect x="798.1" y="982.1" class="st2" width="147.4" height="147.4"/>
		<rect x="798.1" y="613.7" class="st2" width="147.4" height="147.4"/>
		<rect x="798.1" y="797.9" class="st2" width="147.4" height="147.4"/>
		<rect x="798.1" y="429.5" class="st2" width="147.4" height="147.4"/>
		<rect x="798.1" y="245.2" class="st2" width="147.4" height="147.4"/>
		<rect x="982.3" y="61" class="st2" width="147.4" height="147.4"/>
		<rect x="982.3" y="982.1" class="st2" width="147.4" height="147.4"/>
		<rect x="982.3" y="613.7" class="st2" width="147.4" height="147.4"/>
		<rect x="982.3" y="797.9" class="st2" width="147.4" height="147.4"/>
		<rect x="982.3" y="429.5" class="st2" width="147.4" height="147.4"/>
		<rect x="982.3" y="245.2" class="st2" width="147.4" height="147.4"/>
	</g>
</g>
<g id="Livello_2">
	<g>
		<rect x="61.1" y="61.1" class="st3" width="239.5" height="239.5"/>
	</g>
	<g>
		<rect x="61.1" y="337.4" class="st3" width="239.5" height="239.5"/>
	</g>
	<g>
		<rect x="61.1" y="613.8" class="st3" width="239.5" height="239.5"/>
	</g>
	<g>
		<rect x="61.1" y="890" class="st3" width="239.5" height="239.5"/>
	</g>
	<g>
		<rect x="337.5" y="61.1" class="st3" width="239.5" height="239.5"/>
	</g>
	<g>
		<rect x="337.5" y="337.4" class="st3" width="239.5" height="239.5"/>
	</g>
	<g>
		<rect x="337.5" y="613.8" class="st3" width="239.5" height="239.5"/>
	</g>
	<g>
		<rect x="337.5" y="890" class="st3" width="239.5" height="239.5"/>
	</g>
	<g>
		<rect x="613.8" y="61.1" class="st3" width="239.5" height="239.5"/>
	</g>
	<g>
		<rect x="613.8" y="337.4" class="st3" width="239.5" height="239.5"/>
	</g>
	<g>
		<rect x="613.8" y="613.8" class="st3" width="239.5" height="239.5"/>
	</g>
	<g>
		<rect x="613.8" y="890" class="st3" width="239.5" height="239.5"/>
	</g>
	<g>
		<defs>
			<rect id="SVGID_1_" x="890.2" y="61.1" width="239.5" height="239.5"/>
		</defs>
		<clipPath id="SVGID_2_">
			<use xlink:href="#SVGID_1_"  style="overflow:visible;"/>
		</clipPath>
		<g style="clip-path:url(#SVGID_2_);">
			
				<image style="overflow:visible;" width="2500" height="4181" xlink:href="894161_03.JPG"  transform="matrix(0.1322 0 0 0.1322 817.0584 -141.65)">
			</image>
		</g>
	</g>
	<g>
		<rect x="890.2" y="337.4" class="st3" width="239.5" height="239.5"/>
	</g>
	<g>
		<rect x="890.2" y="613.8" class="st3" width="239.5" height="239.5"/>
	</g>
	<g>
		<rect x="890.2" y="890" class="st3" width="239.5" height="239.5"/>
	</g>
	<g>
		<defs>
			<circle id="SVGID_3_" cx="208.3" cy="200.6" r="139.6"/>
		</defs>
		<clipPath id="SVGID_4_">
			<use xlink:href="#SVGID_3_"  style="overflow:visible;"/>
		</clipPath>
		<g style="clip-path:url(#SVGID_4_);">
			
				<image style="overflow:visible;" width="4032" height="3024" xlink:href="894161_05.JPG"  transform="matrix(1.525509e-09 0.1279 -0.1279 1.525509e-09 401.725 -57.2703)">
			</image>
		</g>
	</g>
	<rect x="402.1" y="61" class="st4" width="423.6" height="122.7"/>
	<text transform="matrix(1 0 0 1 402.0529 106.5995)" class="st5 st6">SOFIA RONCHINI</text>
	<rect x="337.5" y="337.4" class="st4" width="239.5" height="239.5"/>
	<text transform="matrix(1 0 0 1 337.4501 349.5095)"><tspan x="0" y="0" class="st7 st8">Lorem ipsum dolor sit amet, consectetuer </tspan><tspan x="0" y="24" class="st7 st8">adipiscing elit, sed diam nonummy nibh </tspan><tspan x="0" y="48" class="st7 st8">euismod tincidunt ut laoreet dolore magna </tspan><tspan x="0" y="72" class="st7 st8">aliquam erat volutpat. Ut wisi enim ad minim </tspan><tspan x="0" y="96" class="st7 st8">veniam, quis nostrud exerci tation ullamcor</tspan><tspan x="222.6" y="96" class="st7 st8">-</tspan><tspan x="0" y="120" class="st7 st8">per suscipit lobortis nisl ut aliquip ex ea </tspan><tspan x="0" y="144" class="st7 st8">commodo consequat. Duis autem vel eum </tspan><tspan x="0" y="168" class="st7 st8">iriure dolor in hendrerit in vulputate velit esse </tspan><tspan x="0" y="192" class="st7 st8">molestie consequat, vel illum dolore eu </tspan><tspan x="0" y="216" class="st7 st8">feugiat nulla facilisis at vero eros et accumsan </tspan></text>
	<rect x="890.2" y="337.4" class="st4" width="219.3" height="35.4"/>
	<text transform="matrix(1 0 0 1 890.15 344.3997)" class="st9 st10">Chicago Illinois</text>
	<circle class="st4" cx="733.6" cy="457.4" r="119.5"/>
	<text transform="matrix(1 0 0 1 716.4729 350.0481)"><tspan x="0" y="0" class="st7 st8">Lorem </tspan><tspan x="-56.4" y="24" class="st7 st8">ipsum dolor sit amet, con</tspan><tspan x="74.6" y="24" class="st7 st8">-</tspan><tspan x="-79.6" y="48" class="st7 st8">sectetuer adipiscing elit, sed diam </tspan><tspan x="-93.1" y="72" class="st7 st8">nonummy nibh euismod tincidunt ut </tspan><tspan x="-100.4" y="96" class="st7 st8">laoreet dolore magna aliquam erat volutpat. </tspan><tspan x="-101.8" y="120" class="st7 st8">Ut wisi enim ad minim veniam, quis nostrud </tspan><tspan x="-96.7" y="144" class="st7 st8">exerci tation ullamcorper suscipit lobortis </tspan><tspan x="-86" y="168" class="st7 st8">nisl ut aliquip ex ea commodo conse</tspan><tspan x="102" y="168" class="st7 st8">-</tspan><tspan x="-67.3" y="192" class="st7 st8">quat. Duis autem vel eum iriure </tspan><tspan x="-32.9" y="216" class="st7 st8">dolor in hendrerit </tspan></text>
</g>
</svg>
