<svg id="Livello_1" data-name="Livello 1" xmlns="http://www.w3.org/2000/svg" xmlns:xlink="http://www.w3.org/1999/xlink" viewBox="0 0 1194.16 1190.6">
  <defs>
    <style>
      .cls-1, .cls-3, .cls-4, .cls-6 {
        fill: none;
      }

      .cls-2 {
        fill: #f6e89b;
      }

      .cls-3 {
        stroke: #f39ca4;
      }

      .cls-3, .cls-4, .cls-6 {
        stroke-miterlimit: 10;
        stroke-width: 2px;
      }

      .cls-4 {
        stroke: #2a3671;
      }

      .cls-5 {
        clip-path: url(#clip-path);
      }

      .cls-6 {
        stroke: #00a03b;
      }

      .cls-7 {
        clip-path: url(#clip-path-2);
      }

      .cls-8 {
        font-size: 60px;
        font-family: OpenSansCondensed-Bold, Open Sans Condensed;
        font-weight: 700;
      }

      .cls-9 {
        font-size: 16px;
        font-family: OpenSansCondensed-Light, Open Sans Condensed;
      }

      .cls-10 {
        font-size: 10px;
        font-family: EBGaramond-Italic, EB Garamond;
        font-style: italic;
      }

      .cls-11 {
        letter-spacing: -0.04em;
      }

      .cls-12 {
        letter-spacing: -0.02em;
      }

      .cls-13 {
        letter-spacing: -0.03em;
      }

      .cls-14 {
        letter-spacing: -0.02em;
      }

      .cls-15 {
        letter-spacing: -0.01em;
      }

      .cls-16 {
        letter-spacing: -0.04em;
      }

      .cls-17 {
        letter-spacing: -0.02em;
      }

      .cls-18 {
        letter-spacing: -0.01em;
      }

      .cls-19 {
        letter-spacing: -0.02em;
      }

      .cls-20 {
        letter-spacing: -0.04em;
      }

      .cls-21 {
        letter-spacing: -0.04em;
      }

      .cls-22 {
        letter-spacing: -0.04em;
      }

      .cls-23 {
        letter-spacing: -0.05em;
      }

      .cls-24 {
        letter-spacing: -0.02em;
      }

      .cls-25 {
        letter-spacing: 0em;
      }

      .cls-26 {
        letter-spacing: 0em;
      }
    </style>
    <clipPath id="clip-path" transform="translate(3.56 0)">
      <rect id="_Tracciato_40" data-name=" Tracciato 40" class="cls-1" x="723.6" y="283.3" width="184.3" height="184.3"/>
    </clipPath>
    <clipPath id="clip-path-2" transform="translate(3.56 0)">
      <circle class="cls-1" cx="263.1" cy="926.48" r="202.7"/>
    </clipPath>
  </defs>
  <title>894161_08</title>
  <rect class="cls-2" x="3.56" width="1190.6" height="1190.6"/>
  <g id="Livello_2" data-name="Livello 2">
    <rect id="_Tracciato_2" data-name=" Tracciato 2" class="cls-3" x="63.96" y="61.9" width="239.5" height="239.5"/>
    <rect id="_Tracciato_3" data-name=" Tracciato 3" class="cls-3" x="63.96" y="889.1" width="239.5" height="239.5"/>
    <rect id="_Tracciato_4" data-name=" Tracciato 4" class="cls-3" x="63.96" y="613.4" width="239.5" height="239.5"/>
    <rect id="_Tracciato_5" data-name=" Tracciato 5" class="cls-3" x="63.96" y="337.6" width="239.5" height="239.5"/>
    <rect id="_Tracciato_6" data-name=" Tracciato 6" class="cls-3" x="892.86" y="61.9" width="239.5" height="239.5"/>
    <rect id="_Tracciato_7" data-name=" Tracciato 7" class="cls-3" x="892.86" y="889.1" width="239.5" height="239.5"/>
    <rect id="_Tracciato_8" data-name=" Tracciato 8" class="cls-3" x="892.86" y="613.4" width="239.5" height="239.5"/>
    <rect id="_Tracciato_9" data-name=" Tracciato 9" class="cls-3" x="892.86" y="337.6" width="239.5" height="239.5"/>
    <rect id="_Tracciato_10" data-name=" Tracciato 10" class="cls-3" x="340.26" y="61.9" width="239.5" height="239.5"/>
    <rect id="_Tracciato_11" data-name=" Tracciato 11" class="cls-3" x="340.26" y="889.1" width="239.5" height="239.5"/>
    <rect id="_Tracciato_12" data-name=" Tracciato 12" class="cls-3" x="340.26" y="613.4" width="239.5" height="239.5"/>
    <rect id="_Tracciato_13" data-name=" Tracciato 13" class="cls-3" x="340.26" y="337.6" width="239.5" height="239.5"/>
    <rect id="_Tracciato_14" data-name=" Tracciato 14" class="cls-3" x="616.56" y="61.9" width="239.5" height="239.5"/>
    <rect id="_Tracciato_15" data-name=" Tracciato 15" class="cls-3" x="616.56" y="889.1" width="239.5" height="239.5"/>
    <rect id="_Tracciato_16" data-name=" Tracciato 16" class="cls-3" x="616.56" y="613.4" width="239.5" height="239.5"/>
    <rect id="_Tracciato_17" data-name=" Tracciato 17" class="cls-3" x="616.56" y="337.6" width="239.5" height="239.5"/>
  </g>
  <rect id="_Tracciato_18" data-name=" Tracciato 18" class="cls-4" x="63.96" y="61.9" width="184.3" height="184.3"/>
  <rect id="_Tracciato_19" data-name=" Tracciato 19" class="cls-4" x="948.16" y="61.9" width="184.3" height="184.3"/>
  <rect id="_Tracciato_20" data-name=" Tracciato 20" class="cls-4" x="727.16" y="61.9" width="184.3" height="184.3"/>
  <rect id="_Tracciato_21" data-name=" Tracciato 21" class="cls-4" x="506.06" y="61.9" width="184.3" height="184.3"/>
  <rect id="_Tracciato_22" data-name=" Tracciato 22" class="cls-4" x="285.06" y="61.9" width="184.3" height="184.3"/>
  <rect id="_Tracciato_23" data-name=" Tracciato 23" class="cls-4" x="63.96" y="503.1" width="184.3" height="184.3"/>
  <rect id="_Tracciato_24" data-name=" Tracciato 24" class="cls-4" x="948.16" y="503.1" width="184.3" height="184.3"/>
  <rect id="_Tracciato_25" data-name=" Tracciato 25" class="cls-4" x="727.16" y="503.1" width="184.3" height="184.3"/>
  <rect id="_Tracciato_26" data-name=" Tracciato 26" class="cls-4" x="506.06" y="503.1" width="184.3" height="184.3"/>
  <rect id="_Tracciato_27" data-name=" Tracciato 27" class="cls-4" x="285.06" y="503.1" width="184.3" height="184.3"/>
  <rect id="_Tracciato_28" data-name=" Tracciato 28" class="cls-4" x="63.96" y="724.6" width="184.3" height="184.3"/>
  <rect id="_Tracciato_29" data-name=" Tracciato 29" class="cls-4" x="948.16" y="724.6" width="184.3" height="184.3"/>
  <rect id="_Tracciato_30" data-name=" Tracciato 30" class="cls-4" x="727.16" y="724.6" width="184.3" height="184.3"/>
  <rect id="_Tracciato_31" data-name=" Tracciato 31" class="cls-4" x="506.06" y="724.6" width="184.3" height="184.3"/>
  <rect id="_Tracciato_32" data-name=" Tracciato 32" class="cls-4" x="285.06" y="724.6" width="184.3" height="184.3"/>
  <rect id="_Tracciato_33" data-name=" Tracciato 33" class="cls-4" x="63.96" y="944.4" width="184.3" height="184.3"/>
  <rect id="_Tracciato_34" data-name=" Tracciato 34" class="cls-4" x="948.16" y="944.4" width="184.3" height="184.3"/>
  <rect id="_Tracciato_35" data-name=" Tracciato 35" class="cls-4" x="727.16" y="944.4" width="184.3" height="184.3"/>
  <rect id="_Tracciato_36" data-name=" Tracciato 36" class="cls-4" x="506.06" y="944.4" width="184.3" height="184.3"/>
  <rect id="_Tracciato_37" data-name=" Tracciato 37" class="cls-4" x="285.06" y="944.4" width="184.3" height="184.3"/>
  <rect id="_Tracciato_38" data-name=" Tracciato 38" class="cls-4" x="63.96" y="283.3" width="184.3" height="184.3"/>
  <rect id="_Tracciato_39" data-name=" Tracciato 39" class="cls-4" x="948.16" y="283.3" width="184.3" height="184.3"/>
  <g class="cls-5">
    <image width="4032" height="3024" transform="translate(1003.39 217.56) rotate(90) scale(0.09)" xlink:href="894161_03.jpg"/>
  </g>
  <rect id="_Tracciato_41" data-name=" Tracciato 41" class="cls-4" x="506.06" y="283.3" width="184.3" height="184.3"/>
  <rect id="_Tracciato_42" data-name=" Tracciato 42" class="cls-4" x="285.06" y="283.3" width="184.3" height="184.3"/>
  <g id="Livello_4" data-name="Livello 4">
    <g id="_Gruppo_" data-name=" Gruppo ">
      <rect id="_Tracciato_43" data-name=" Tracciato 43" class="cls-6" x="63.96" y="61.9" width="147.4" height="147.4"/>
      <rect id="_Tracciato_44" data-name=" Tracciato 44" class="cls-6" x="800.86" y="61.9" width="147.4" height="147.4"/>
      <rect id="_Tracciato_45" data-name=" Tracciato 45" class="cls-6" x="616.66" y="61.9" width="147.4" height="147.4"/>
      <rect id="_Tracciato_46" data-name=" Tracciato 46" class="cls-6" x="432.46" y="61.9" width="147.4" height="147.4"/>
      <rect id="_Tracciato_47" data-name=" Tracciato 47" class="cls-6" x="248.26" y="61.9" width="147.4" height="147.4"/>
      <rect id="_Tracciato_48" data-name=" Tracciato 48" class="cls-6" x="985.06" y="61.9" width="147.4" height="147.4"/>
    </g>
    <g id="_Gruppo_2" data-name=" Gruppo 2">
      <rect id="_Tracciato_49" data-name=" Tracciato 49" class="cls-6" x="63.96" y="246" width="147.4" height="147.4"/>
      <rect id="_Tracciato_50" data-name=" Tracciato 50" class="cls-6" x="800.86" y="246" width="147.4" height="147.4"/>
      <rect id="_Tracciato_51" data-name=" Tracciato 51" class="cls-6" x="616.66" y="246" width="147.4" height="147.4"/>
      <rect id="_Tracciato_52" data-name=" Tracciato 52" class="cls-6" x="432.46" y="246" width="147.4" height="147.4"/>
      <rect id="_Tracciato_53" data-name=" Tracciato 53" class="cls-6" x="248.26" y="246" width="147.4" height="147.4"/>
      <rect id="_Tracciato_54" data-name=" Tracciato 54" class="cls-6" x="985.06" y="246" width="147.4" height="147.4"/>
    </g>
    <g id="_Gruppo_3" data-name=" Gruppo 3">
      <rect id="_Tracciato_55" data-name=" Tracciato 55" class="cls-6" x="63.96" y="430.2" width="147.4" height="147.4"/>
      <rect id="_Tracciato_56" data-name=" Tracciato 56" class="cls-6" x="800.86" y="430.2" width="147.4" height="147.4"/>
      <rect id="_Tracciato_57" data-name=" Tracciato 57" class="cls-6" x="616.66" y="430.2" width="147.4" height="147.4"/>
      <rect id="_Tracciato_58" data-name=" Tracciato 58" class="cls-6" x="432.46" y="430.2" width="147.4" height="147.4"/>
      <rect id="_Tracciato_59" data-name=" Tracciato 59" class="cls-6" x="248.26" y="430.2" width="147.4" height="147.4"/>
      <rect id="_Tracciato_60" data-name=" Tracciato 60" class="cls-6" x="985.06" y="430.2" width="147.4" height="147.4"/>
    </g>
    <g id="_Gruppo_4" data-name=" Gruppo 4">
      <rect id="_Tracciato_61" data-name=" Tracciato 61" class="cls-6" x="63.96" y="614.3" width="147.4" height="147.4"/>
      <rect id="_Tracciato_62" data-name=" Tracciato 62" class="cls-6" x="800.86" y="614.3" width="147.4" height="147.4"/>
      <rect id="_Tracciato_63" data-name=" Tracciato 63" class="cls-6" x="616.66" y="614.3" width="147.4" height="147.4"/>
      <rect id="_Tracciato_64" data-name=" Tracciato 64" class="cls-6" x="432.46" y="614.3" width="147.4" height="147.4"/>
      <rect id="_Tracciato_65" data-name=" Tracciato 65" class="cls-6" x="248.26" y="614.3" width="147.4" height="147.4"/>
      <rect id="_Tracciato_66" data-name=" Tracciato 66" class="cls-6" x="985.06" y="614.3" width="147.4" height="147.4"/>
    </g>
    <g id="_Gruppo_5" data-name=" Gruppo 5">
      <rect id="_Tracciato_67" data-name=" Tracciato 67" class="cls-6" x="63.96" y="798.4" width="147.4" height="147.4"/>
      <rect id="_Tracciato_68" data-name=" Tracciato 68" class="cls-6" x="800.86" y="798.4" width="147.4" height="147.4"/>
      <rect id="_Tracciato_69" data-name=" Tracciato 69" class="cls-6" x="616.66" y="798.4" width="147.4" height="147.4"/>
      <rect id="_Tracciato_70" data-name=" Tracciato 70" class="cls-6" x="432.46" y="798.4" width="147.4" height="147.4"/>
      <rect id="_Tracciato_71" data-name=" Tracciato 71" class="cls-6" x="248.26" y="798.4" width="147.4" height="147.4"/>
      <rect id="_Tracciato_72" data-name=" Tracciato 72" class="cls-6" x="985.06" y="798.4" width="147.4" height="147.4"/>
    </g>
    <g id="_Gruppo_6" data-name=" Gruppo 6">
      <rect id="_Tracciato_73" data-name=" Tracciato 73" class="cls-6" x="63.96" y="982.5" width="147.4" height="147.4"/>
      <rect id="_Tracciato_74" data-name=" Tracciato 74" class="cls-6" x="800.86" y="982.5" width="147.4" height="147.4"/>
      <rect id="_Tracciato_75" data-name=" Tracciato 75" class="cls-6" x="616.66" y="982.5" width="147.4" height="147.4"/>
      <rect id="_Tracciato_76" data-name=" Tracciato 76" class="cls-6" x="432.46" y="982.5" width="147.4" height="147.4"/>
      <rect id="_Tracciato_77" data-name=" Tracciato 77" class="cls-6" x="248.26" y="982.5" width="147.4" height="147.4"/>
      <rect id="_Tracciato_78" data-name=" Tracciato 78" class="cls-6" x="985.06" y="982.5" width="147.4" height="147.4"/>
    </g>
  </g>
  <g class="cls-7">
    <image width="4192" height="2501" transform="translate(0 718.01) scale(0.15 0.16)" xlink:href="894161_04.JPG"/>
  </g>
  <text class="cls-8" transform="translate(399.92 110.58)">SOFIA RONCHINI</text>
  <text class="cls-9" transform="translate(285.06 294.66)">Lorem ipsum dolor sit amet, con<tspan x="167.02" y="0">-</tspan><tspan x="0" y="24">sectetuer adipiscing elit, sed diam </tspan><tspan x="0" y="48">nonummy nibh euismod tincidunt </tspan><tspan x="0" y="72">ut laoreet dolore magna aliquam </tspan><tspan x="0" y="96">erat volutpat. Ut wisi enim ad </tspan><tspan x="0" y="120">minim veniam, quis nostrud exerci </tspan><tspan x="0" y="144">tation ullamcorper suscipit lobortis </tspan><tspan x="0" y="168">nisl ut aliquip ex ea commodo </tspan></text>
  <text class="cls-10" transform="translate(506.06 1122.24)">G<tspan class="cls-11" x="6.87" y="0">r</tspan><tspan x="10.26" y="0">attac</tspan><tspan class="cls-12" x="29.05" y="0">i</tspan><tspan class="cls-13" x="31.79" y="0">e</tspan><tspan x="34.95" y="0">li “p</tspan><tspan class="cls-14" x="51.03" y="0">an</tspan><tspan x="60.81" y="0">no</tspan><tspan class="cls-15" x="69.88" y="0">c</tspan><tspan class="cls-14" x="72.86" y="0">c</tspan><tspan x="75.79" y="0">h</tspan><tspan class="cls-12" x="80.67" y="0">i</tspan><tspan class="cls-16" x="83.41" y="0">e</tspan><tspan x="86.47" y="0">”, Ch</tspan><tspan class="cls-12" x="105.71" y="0">i</tspan><tspan x="108.45" y="0">cago </tspan></text>
  <text class="cls-10" transform="translate(911.42 731.65)">Lorem <tspan class="cls-17" x="-53.47" y="12">i</tspan><tspan x="-50.68" y="12">ps</tspan><tspan class="cls-18" x="-43.54" y="12">u</tspan><tspan x="-38.59" y="12">m d</tspan><tspan class="cls-14" x="-23.54" y="12">o</tspan><tspan x="-19.95" y="12">lor sit </tspan><tspan class="cls-14" x="3.12" y="12">a</tspan><tspan x="7.83" y="12">met, </tspan><tspan class="cls-18" x="26.2" y="12">c</tspan><tspan x="29.18" y="12">onsectet</tspan><tspan class="cls-14" x="56.8" y="12">u</tspan><tspan x="61.69" y="12">er </tspan><tspan x="-79.58" y="24">ad</tspan><tspan class="cls-17" x="-69.51" y="24">i</tspan><tspan x="-66.72" y="24">pisc</tspan><tspan class="cls-18" x="-53.5" y="24">i</tspan><tspan x="-50.71" y="24">ng </tspan><tspan class="cls-13" x="-39.29" y="24">e</tspan><tspan x="-36.13" y="24">lit, sed di</tspan><tspan class="cls-14" x="-1.83" y="24">a</tspan><tspan x="2.88" y="24">m non</tspan><tspan class="cls-18" x="27.11" y="24">u</tspan><tspan class="cls-14" x="32.05" y="24">mm</tspan><tspan x="47.43" y="24">y n</tspan><tspan class="cls-13" x="58.75" y="24">i</tspan><tspan class="cls-19" x="61.44" y="24">b</tspan><tspan x="65.73" y="24">h euismod </tspan><tspan x="-98.75" y="36">t</tspan><tspan class="cls-17" x="-95.83" y="36">i</tspan><tspan x="-93.04" y="36">nc</tspan><tspan class="cls-19" x="-84.64" y="36">i</tspan><tspan x="-81.9" y="36">d</tspan><tspan class="cls-17" x="-76.74" y="36">u</tspan><tspan x="-71.8" y="36">nt ut laoreet d</tspan><tspan class="cls-14" x="-19.34" y="36">o</tspan><tspan x="-15.74" y="36">lore magna </tspan><tspan class="cls-19" x="29.25" y="36">a</tspan><tspan x="33.96" y="36">l</tspan><tspan class="cls-14" x="36.82" y="36">i</tspan><tspan x="39.56" y="36">qu</tspan><tspan class="cls-14" x="49.38" y="36">a</tspan><tspan x="54.09" y="36">m e</tspan><tspan class="cls-20" x="67.39" y="36">r</tspan><tspan x="70.78" y="36">at v</tspan><tspan class="cls-14" x="84.71" y="36">o</tspan><tspan x="88.31" y="36">lutpat. Ut </tspan><tspan x="-114.1" y="48">wisi en</tspan><tspan class="cls-17" x="-88.55" y="48">i</tspan><tspan x="-85.76" y="48">m ad m</tspan><tspan class="cls-18" x="-55.91" y="48">i</tspan><tspan x="-53.12" y="48">n</tspan><tspan class="cls-17" x="-47.85" y="48">i</tspan><tspan x="-45.06" y="48">m veni</tspan><tspan class="cls-19" x="-19.46" y="48">a</tspan><tspan x="-14.75" y="48">m, quis nostr</tspan><tspan class="cls-14" x="33.35" y="48">u</tspan><tspan x="38.24" y="48">d exerci tat</tspan><tspan class="cls-14" x="79.21" y="48">i</tspan><tspan x="81.95" y="48">on </tspan><tspan class="cls-13" x="93.02" y="48">u</tspan><tspan class="cls-18" x="97.86" y="48">l</tspan><tspan x="100.57" y="48">l</tspan><tspan class="cls-14" x="103.43" y="48">a</tspan><tspan x="108.14" y="48">m</tspan><tspan class="cls-17" x="116.03" y="48">c</tspan><tspan x="119.01" y="48">orper </tspan><tspan x="-126.85" y="60">susc</tspan><tspan class="cls-17" x="-113.11" y="60">i</tspan><tspan x="-110.32" y="60">pit l</tspan><tspan class="cls-19" x="-95.21" y="60">o</tspan><tspan x="-91.61" y="60">bortis ni</tspan><tspan class="cls-17" x="-60.7" y="60">s</tspan><tspan x="-58.09" y="60">l ut </tspan><tspan class="cls-14" x="-43.22" y="60">a</tspan><tspan x="-38.51" y="60">l</tspan><tspan class="cls-19" x="-35.65" y="60">i</tspan><tspan x="-32.91" y="60">qu</tspan><tspan class="cls-17" x="-23.09" y="60">i</tspan><tspan x="-20.3" y="60">p ex ea </tspan><tspan class="cls-18" x="6.2" y="60">c</tspan><tspan x="9.18" y="60">o</tspan><tspan class="cls-14" x="12.98" y="60">m</tspan><tspan x="20.67" y="60">modo </tspan><tspan class="cls-17" x="43.31" y="60">c</tspan><tspan x="46.29" y="60">onsequat. Duis </tspan><tspan class="cls-18" x="103.64" y="60">a</tspan><tspan x="108.4" y="60">utem v</tspan><tspan class="cls-13" x="133.81" y="60">e</tspan><tspan x="136.97" y="60">l e</tspan><tspan class="cls-17" x="145.24" y="60">u</tspan><tspan x="150.18" y="60">m </tspan><tspan class="cls-17" x="-137.65" y="72">i</tspan><tspan x="-134.86" y="72">ri</tspan><tspan class="cls-18" x="-128.13" y="72">u</tspan><tspan x="-123.19" y="72">re d</tspan><tspan class="cls-14" x="-108.83" y="72">o</tspan><tspan x="-105.23" y="72">lor </tspan><tspan class="cls-18" x="-92.78" y="72">i</tspan><tspan x="-89.99" y="72">n hendrerit </tspan><tspan class="cls-17" x="-45.15" y="72">i</tspan><tspan x="-42.36" y="72">n v</tspan><tspan class="cls-13" x="-30.99" y="72">u</tspan><tspan x="-26.15" y="72">lputate v</tspan><tspan class="cls-13" x="6.45" y="72">e</tspan><tspan x="9.61" y="72">lit esse m</tspan><tspan class="cls-14" x="42.56" y="72">o</tspan><tspan x="46.16" y="72">lest</tspan><tspan class="cls-19" x="58.11" y="72">i</tspan><tspan x="60.85" y="72">e </tspan><tspan class="cls-17" x="66.26" y="72">c</tspan><tspan x="69.24" y="72">onsequat, v</tspan><tspan class="cls-13" x="110.37" y="72">e</tspan><tspan x="113.53" y="72">l </tspan><tspan class="cls-13" x="118.39" y="72">i</tspan><tspan class="cls-18" x="121.08" y="72">l</tspan><tspan x="123.79" y="72">l</tspan><tspan class="cls-17" x="126.66" y="72">u</tspan><tspan x="131.59" y="72">m d</tspan><tspan class="cls-14" x="146.64" y="72">o</tspan><tspan x="150.24" y="72">lore </tspan><tspan x="-146.88" y="84">eu feugiat n</tspan><tspan class="cls-13" x="-102.48" y="84">u</tspan><tspan class="cls-17" x="-97.64" y="84">l</tspan><tspan x="-94.93" y="84">la </tspan><tspan class="cls-21" x="-85.16" y="84">f</tspan><tspan x="-82.4" y="84">ac</tspan><tspan class="cls-13" x="-74.36" y="84">i</tspan><tspan x="-71.67" y="84">lisis at vero eros et a</tspan><tspan class="cls-17" x="0.52" y="84">c</tspan><tspan x="3.5" y="84">c</tspan><tspan class="cls-18" x="6.63" y="84">u</tspan><tspan x="11.57" y="84">ms</tspan><tspan class="cls-14" x="22.22" y="84">a</tspan><tspan x="26.93" y="84">n et iusto od</tspan><tspan class="cls-14" x="71" y="84">i</tspan><tspan x="73.74" y="84">o digniss</tspan><tspan class="cls-18" x="105.51" y="84">i</tspan><tspan x="108.3" y="84">m qui </tspan><tspan class="cls-14" x="132.95" y="84">b</tspan><tspan x="137.24" y="84">l</tspan><tspan class="cls-14" x="140.1" y="84">a</tspan><tspan x="144.81" y="84">ndit </tspan><tspan x="-154.79" y="96">p</tspan><tspan class="cls-22" x="-150.4" y="96">r</tspan><tspan x="-147.01" y="96">aesent l</tspan><tspan class="cls-18" x="-119.47" y="96">u</tspan><tspan x="-114.53" y="96">ptat</tspan><tspan class="cls-17" x="-99.39" y="96">u</tspan><tspan x="-94.45" y="96">m zzr</tspan><tspan class="cls-13" x="-72.63" y="96">i</tspan><tspan x="-69.94" y="96">l d</tspan><tspan class="cls-13" x="-59.92" y="96">e</tspan><tspan x="-56.76" y="96">lenit </tspan><tspan class="cls-18" x="-37.36" y="96">a</tspan><tspan x="-32.6" y="96">ug</tspan><tspan class="cls-14" x="-23.36" y="96">u</tspan><tspan x="-18.47" y="96">e duis d</tspan><tspan class="cls-14" x="10.05" y="96">o</tspan><tspan x="13.65" y="96">lore te feu</tspan><tspan class="cls-19" x="49.55" y="96">ga</tspan><tspan x="58.21" y="96">it n</tspan><tspan class="cls-13" x="71.34" y="96">u</tspan><tspan class="cls-18" x="76.18" y="96">l</tspan><tspan x="78.89" y="96">la </tspan><tspan class="cls-23" x="88.66" y="96">f</tspan><tspan x="91.42" y="96">ac</tspan><tspan class="cls-13" x="99.46" y="96">i</tspan><tspan x="102.15" y="96">lisi.</tspan><tspan x="-161.55" y="108">Lorem </tspan><tspan class="cls-17" x="-134.83" y="108">i</tspan><tspan x="-132.04" y="108">ps</tspan><tspan class="cls-18" x="-124.9" y="108">u</tspan><tspan x="-119.96" y="108">m d</tspan><tspan class="cls-14" x="-104.91" y="108">o</tspan><tspan x="-101.31" y="108">lor sit </tspan><tspan class="cls-14" x="-78.24" y="108">a</tspan><tspan x="-73.53" y="108">met, </tspan><tspan class="cls-18" x="-55.16" y="108">c</tspan><tspan x="-52.18" y="108">ons ectet</tspan><tspan class="cls-14" x="-22.56" y="108">u</tspan><tspan x="-17.67" y="108">er ad</tspan><tspan class="cls-18" x="1.6" y="108">i</tspan><tspan x="4.39" y="108">pisc</tspan><tspan class="cls-17" x="17.61" y="108">i</tspan><tspan x="20.4" y="108">ng </tspan><tspan class="cls-13" x="31.82" y="108">e</tspan><tspan x="34.98" y="108">lit, sed di</tspan><tspan class="cls-14" x="69.28" y="108">a</tspan><tspan x="73.99" y="108">m non</tspan><tspan class="cls-18" x="98.22" y="108">u</tspan><tspan class="cls-14" x="103.16" y="108">mm</tspan><tspan x="118.54" y="108">y n</tspan><tspan class="cls-13" x="129.86" y="108">i</tspan><tspan class="cls-19" x="132.55" y="108">b</tspan><tspan x="136.84" y="108">h euismod </tspan><tspan x="-167.29" y="120">t</tspan><tspan class="cls-17" x="-164.37" y="120">i</tspan><tspan x="-161.58" y="120">nc</tspan><tspan class="cls-19" x="-153.18" y="120">i</tspan><tspan x="-150.44" y="120">d</tspan><tspan class="cls-17" x="-145.28" y="120">u</tspan><tspan x="-140.34" y="120">nt ut laoreet d</tspan><tspan class="cls-14" x="-87.88" y="120">o</tspan><tspan x="-84.28" y="120">lore magna </tspan><tspan class="cls-19" x="-39.29" y="120">a</tspan><tspan x="-34.58" y="120">l</tspan><tspan class="cls-14" x="-31.72" y="120">i</tspan><tspan x="-28.98" y="120">qu</tspan><tspan class="cls-14" x="-19.16" y="120">a</tspan><tspan x="-14.45" y="120">m e</tspan><tspan class="cls-20" x="-1.15" y="120">r</tspan><tspan x="2.24" y="120">at v</tspan><tspan class="cls-14" x="16.17" y="120">o</tspan><tspan x="19.77" y="120">lutpat. Ut wisi en</tspan><tspan class="cls-18" x="84.47" y="120">i</tspan><tspan x="87.26" y="120">m ad m</tspan><tspan class="cls-17" x="117.11" y="120">i</tspan><tspan x="119.9" y="120">n</tspan><tspan class="cls-17" x="125.17" y="120">i</tspan><tspan x="127.96" y="120">m veni</tspan><tspan class="cls-19" x="153.57" y="120">a</tspan><tspan x="158.28" y="120">m, quis </tspan><tspan x="-172.1" y="132">nostr</tspan><tspan class="cls-14" x="-153.56" y="132">u</tspan><tspan x="-148.67" y="132">d exerci tat</tspan><tspan class="cls-19" x="-107.7" y="132">i</tspan><tspan x="-104.96" y="132">on </tspan><tspan class="cls-13" x="-93.89" y="132">u</tspan><tspan class="cls-17" x="-89.05" y="132">l</tspan><tspan x="-86.34" y="132">l</tspan><tspan class="cls-14" x="-83.48" y="132">a</tspan><tspan x="-78.77" y="132">m</tspan><tspan class="cls-18" x="-70.88" y="132">c</tspan><tspan x="-67.9" y="132">orper susc</tspan><tspan class="cls-17" x="-32.98" y="132">i</tspan><tspan x="-30.19" y="132">pit l</tspan><tspan class="cls-19" x="-15.08" y="132">o</tspan><tspan x="-11.48" y="132">bortis ni</tspan><tspan class="cls-17" x="19.43" y="132">s</tspan><tspan x="22.04" y="132">l ut </tspan><tspan class="cls-14" x="36.91" y="132">a</tspan><tspan x="41.62" y="132">l</tspan><tspan class="cls-19" x="44.48" y="132">i</tspan><tspan x="47.22" y="132">qu</tspan><tspan class="cls-17" x="57.04" y="132">i</tspan><tspan x="59.83" y="132">p ex ea </tspan><tspan class="cls-17" x="86.33" y="132">c</tspan><tspan x="89.3" y="132">o</tspan><tspan class="cls-19" x="93.1" y="132">m</tspan><tspan x="100.79" y="132">modo </tspan><tspan class="cls-17" x="123.44" y="132">c</tspan><tspan x="126.42" y="132">onsequat.</tspan><tspan x="-176.04" y="144">Lorem </tspan><tspan class="cls-17" x="-149.32" y="144">i</tspan><tspan x="-146.53" y="144">ps</tspan><tspan class="cls-18" x="-139.38" y="144">u</tspan><tspan x="-134.44" y="144">m d</tspan><tspan class="cls-14" x="-119.39" y="144">o</tspan><tspan x="-115.79" y="144">lor sit </tspan><tspan class="cls-14" x="-92.72" y="144">a</tspan><tspan x="-88.01" y="144">met, </tspan><tspan class="cls-18" x="-69.64" y="144">c</tspan><tspan x="-66.66" y="144">onsectet</tspan><tspan class="cls-14" x="-39.04" y="144">u</tspan><tspan x="-34.15" y="144">er ad</tspan><tspan class="cls-18" x="-14.88" y="144">i</tspan><tspan x="-12.09" y="144">pisc</tspan><tspan class="cls-17" x="1.13" y="144">i</tspan><tspan x="3.91" y="144">ng </tspan><tspan class="cls-13" x="15.33" y="144">e</tspan><tspan x="18.49" y="144">lit, sed di</tspan><tspan class="cls-14" x="52.79" y="144">a</tspan><tspan x="57.5" y="144">m non</tspan><tspan class="cls-18" x="81.73" y="144">u</tspan><tspan class="cls-14" x="86.67" y="144">mm</tspan><tspan x="102.05" y="144">y n</tspan><tspan class="cls-13" x="113.37" y="144">i</tspan><tspan class="cls-19" x="116.06" y="144">b</tspan><tspan x="120.35" y="144">h euismod t</tspan><tspan class="cls-17" x="163.2" y="144">i</tspan><tspan x="165.99" y="144">nc</tspan><tspan class="cls-19" x="174.39" y="144">i</tspan><tspan x="177.13" y="144">d</tspan><tspan class="cls-17" x="182.29" y="144">u</tspan><tspan x="187.23" y="144">nt ut </tspan><tspan x="-179.17" y="156">laoreet d</tspan><tspan class="cls-14" x="-146.91" y="156">o</tspan><tspan x="-143.31" y="156">lore magna </tspan><tspan class="cls-19" x="-98.32" y="156">a</tspan><tspan x="-93.61" y="156">l</tspan><tspan class="cls-14" x="-90.75" y="156">i</tspan><tspan x="-88.01" y="156">qu</tspan><tspan class="cls-14" x="-78.19" y="156">a</tspan><tspan x="-73.48" y="156">m e</tspan><tspan class="cls-20" x="-60.18" y="156">r</tspan><tspan x="-56.79" y="156">at v</tspan><tspan class="cls-14" x="-42.86" y="156">o</tspan><tspan x="-39.26" y="156">lutpat. Ut wisi en</tspan><tspan class="cls-17" x="25.45" y="156">i</tspan><tspan x="28.24" y="156">m ad m</tspan><tspan class="cls-18" x="58.08" y="156">i</tspan><tspan x="60.88" y="156">n</tspan><tspan class="cls-17" x="66.14" y="156">i</tspan><tspan x="68.93" y="156">m veni</tspan><tspan class="cls-19" x="94.54" y="156">a</tspan><tspan x="99.25" y="156">m, quis nostr</tspan><tspan class="cls-14" x="147.35" y="156">u</tspan><tspan x="152.24" y="156">d exerci tat</tspan><tspan class="cls-14" x="193.21" y="156">i</tspan><tspan x="195.95" y="156">on </tspan><tspan class="cls-13" x="-181.53" y="168">u</tspan><tspan class="cls-17" x="-176.69" y="168">l</tspan><tspan x="-173.98" y="168">l</tspan><tspan class="cls-19" x="-171.12" y="168">a</tspan><tspan x="-166.41" y="168">m</tspan><tspan class="cls-17" x="-158.52" y="168">c</tspan><tspan x="-155.54" y="168">orper susc</tspan><tspan class="cls-18" x="-120.62" y="168">i</tspan><tspan x="-117.83" y="168">pit l</tspan><tspan class="cls-14" x="-102.72" y="168">o</tspan><tspan x="-99.12" y="168">bortis ni</tspan><tspan class="cls-17" x="-68.21" y="168">s</tspan><tspan x="-65.6" y="168">l ut </tspan><tspan class="cls-19" x="-50.73" y="168">a</tspan><tspan x="-46.02" y="168">l</tspan><tspan class="cls-14" x="-43.16" y="168">i</tspan><tspan x="-40.42" y="168">qu</tspan><tspan class="cls-17" x="-30.6" y="168">i</tspan><tspan x="-27.82" y="168">p ex ea </tspan><tspan class="cls-17" x="-1.32" y="168">c</tspan><tspan x="1.66" y="168">o</tspan><tspan class="cls-19" x="5.46" y="168">m</tspan><tspan x="13.15" y="168">modo </tspan><tspan class="cls-17" x="35.8" y="168">c</tspan><tspan x="38.78" y="168">onsequat. Duis </tspan><tspan class="cls-18" x="96.13" y="168">a</tspan><tspan x="100.89" y="168">utem v</tspan><tspan class="cls-13" x="126.3" y="168">e</tspan><tspan x="129.46" y="168">l e</tspan><tspan class="cls-17" x="137.73" y="168">u</tspan><tspan x="142.67" y="168">m </tspan><tspan class="cls-17" x="152.56" y="168">i</tspan><tspan x="155.35" y="168">ri</tspan><tspan class="cls-18" x="162.08" y="168">u</tspan><tspan x="167.02" y="168">re d</tspan><tspan class="cls-14" x="181.38" y="168">o</tspan><tspan x="184.98" y="168">lor </tspan><tspan class="cls-18" x="197.43" y="168">i</tspan><tspan x="200.22" y="168">n </tspan><tspan x="-183.15" y="180">hendrerit </tspan><tspan class="cls-17" x="-145.58" y="180">i</tspan><tspan x="-142.79" y="180">n v</tspan><tspan class="cls-13" x="-131.42" y="180">u</tspan><tspan x="-126.58" y="180">lputate v</tspan><tspan class="cls-24" x="-93.98" y="180">e</tspan><tspan x="-90.82" y="180">lit esse m</tspan><tspan class="cls-14" x="-57.87" y="180">o</tspan><tspan x="-54.27" y="180">lest</tspan><tspan class="cls-14" x="-42.32" y="180">i</tspan><tspan x="-39.58" y="180">e </tspan><tspan class="cls-18" x="-34.17" y="180">c</tspan><tspan x="-31.19" y="180">onsequat, v</tspan><tspan class="cls-13" x="9.95" y="180">e</tspan><tspan x="13.11" y="180">l </tspan><tspan class="cls-13" x="17.97" y="180">i</tspan><tspan class="cls-18" x="20.66" y="180">l</tspan><tspan x="23.37" y="180">l</tspan><tspan class="cls-17" x="26.23" y="180">u</tspan><tspan x="31.17" y="180">m d</tspan><tspan class="cls-14" x="46.22" y="180">o</tspan><tspan x="49.82" y="180">lore eu feugiat n</tspan><tspan class="cls-13" x="110.08" y="180">u</tspan><tspan class="cls-18" x="114.92" y="180">l</tspan><tspan x="117.63" y="180">la </tspan><tspan class="cls-23" x="127.4" y="180">f</tspan><tspan x="130.16" y="180">ac</tspan><tspan class="cls-13" x="138.2" y="180">i</tspan><tspan x="140.89" y="180">lisis at vero eros et </tspan><tspan x="-184.05" y="192">a</tspan><tspan class="cls-17" x="-179.14" y="192">c</tspan><tspan x="-176.16" y="192">c</tspan><tspan class="cls-18" x="-173.03" y="192">u</tspan><tspan x="-168.09" y="192">ms</tspan><tspan class="cls-14" x="-157.44" y="192">a</tspan><tspan x="-152.73" y="192">n et iusto od</tspan><tspan class="cls-14" x="-108.66" y="192">i</tspan><tspan x="-105.92" y="192">o digniss</tspan><tspan class="cls-18" x="-74.14" y="192">i</tspan><tspan x="-71.35" y="192">m qui </tspan><tspan class="cls-14" x="-46.7" y="192">b</tspan><tspan x="-42.41" y="192">l</tspan><tspan class="cls-14" x="-39.55" y="192">a</tspan><tspan x="-34.84" y="192">ndit p</tspan><tspan class="cls-20" x="-12.16" y="192">r</tspan><tspan x="-8.77" y="192">aesent l</tspan><tspan class="cls-17" x="18.77" y="192">u</tspan><tspan x="23.71" y="192">ptat</tspan><tspan class="cls-18" x="38.85" y="192">u</tspan><tspan x="43.79" y="192">m zzr</tspan><tspan class="cls-13" x="65.61" y="192">i</tspan><tspan x="68.3" y="192">l d</tspan><tspan class="cls-13" x="78.32" y="192">e</tspan><tspan x="81.48" y="192">lenit </tspan><tspan class="cls-17" x="100.88" y="192">a</tspan><tspan x="105.64" y="192">ug</tspan><tspan class="cls-19" x="114.88" y="192">u</tspan><tspan x="119.77" y="192">e duis d</tspan><tspan class="cls-14" x="148.29" y="192">o</tspan><tspan x="151.89" y="192">lore te feu</tspan><tspan class="cls-14" x="187.79" y="192">ga</tspan><tspan x="196.45" y="192">it </tspan><tspan x="-184.06" y="204">n</tspan><tspan class="cls-13" x="-178.79" y="204">u</tspan><tspan class="cls-17" x="-173.95" y="204">l</tspan><tspan x="-171.24" y="204">la </tspan><tspan class="cls-21" x="-161.47" y="204">f</tspan><tspan x="-158.71" y="204">ac</tspan><tspan class="cls-13" x="-150.67" y="204">i</tspan><tspan x="-147.98" y="204">lisi.</tspan><tspan x="-183.19" y="216">Lorem </tspan><tspan class="cls-17" x="-156.47" y="216">i</tspan><tspan x="-153.68" y="216">ps</tspan><tspan class="cls-18" x="-146.53" y="216">u</tspan><tspan x="-141.59" y="216">m d</tspan><tspan class="cls-14" x="-126.54" y="216">o</tspan><tspan x="-122.94" y="216">lor sit </tspan><tspan class="cls-14" x="-99.87" y="216">a</tspan><tspan x="-95.16" y="216">met, </tspan><tspan class="cls-18" x="-76.79" y="216">c</tspan><tspan x="-73.81" y="216">ons ectet</tspan><tspan class="cls-14" x="-44.19" y="216">u</tspan><tspan x="-39.3" y="216">er ad</tspan><tspan class="cls-18" x="-20.03" y="216">i</tspan><tspan x="-17.24" y="216">pisc</tspan><tspan class="cls-17" x="-4.02" y="216">i</tspan><tspan x="-1.23" y="216">ng </tspan><tspan class="cls-13" x="10.19" y="216">e</tspan><tspan x="13.35" y="216">lit, sed di</tspan><tspan class="cls-14" x="47.65" y="216">a</tspan><tspan x="52.36" y="216">m non</tspan><tspan class="cls-18" x="76.59" y="216">u</tspan><tspan class="cls-14" x="81.53" y="216">mm</tspan><tspan x="96.91" y="216">y n</tspan><tspan class="cls-13" x="108.23" y="216">i</tspan><tspan class="cls-19" x="110.92" y="216">b</tspan><tspan x="115.21" y="216">h euismod t</tspan><tspan class="cls-17" x="158.06" y="216">i</tspan><tspan x="160.84" y="216">nc</tspan><tspan class="cls-19" x="169.24" y="216">i</tspan><tspan x="171.98" y="216">d</tspan><tspan class="cls-17" x="177.14" y="216">u</tspan><tspan x="182.08" y="216">nt ut </tspan><tspan x="-181.59" y="228">laoreet d</tspan><tspan class="cls-14" x="-149.33" y="228">o</tspan><tspan x="-145.73" y="228">lore magna </tspan><tspan class="cls-19" x="-100.74" y="228">a</tspan><tspan x="-96.03" y="228">l</tspan><tspan class="cls-14" x="-93.17" y="228">i</tspan><tspan x="-90.43" y="228">qu</tspan><tspan class="cls-14" x="-80.61" y="228">a</tspan><tspan x="-75.9" y="228">m e</tspan><tspan class="cls-20" x="-62.6" y="228">r</tspan><tspan x="-59.21" y="228">at v</tspan><tspan class="cls-14" x="-45.28" y="228">o</tspan><tspan x="-41.68" y="228">lutpat. Ut wisi en</tspan><tspan class="cls-17" x="23.03" y="228">i</tspan><tspan x="25.82" y="228">m ad m</tspan><tspan class="cls-18" x="55.67" y="228">i</tspan><tspan x="58.46" y="228">n</tspan><tspan class="cls-17" x="63.73" y="228">i</tspan><tspan x="66.52" y="228">m veni</tspan><tspan class="cls-19" x="92.12" y="228">a</tspan><tspan x="96.83" y="228">m, quis nostr</tspan><tspan class="cls-14" x="144.93" y="228">u</tspan><tspan x="149.82" y="228">d exerci tat</tspan><tspan class="cls-14" x="190.79" y="228">i</tspan><tspan x="193.53" y="228">on </tspan><tspan class="cls-13" x="-179.25" y="240">u</tspan><tspan class="cls-17" x="-174.41" y="240">l</tspan><tspan x="-171.7" y="240">l</tspan><tspan class="cls-19" x="-168.84" y="240">a</tspan><tspan x="-164.13" y="240">m</tspan><tspan class="cls-17" x="-156.24" y="240">c</tspan><tspan x="-153.26" y="240">orper susc</tspan><tspan class="cls-18" x="-118.34" y="240">i</tspan><tspan x="-115.55" y="240">pit l</tspan><tspan class="cls-14" x="-100.44" y="240">o</tspan><tspan x="-96.84" y="240">bortis ni</tspan><tspan class="cls-17" x="-65.94" y="240">s</tspan><tspan x="-63.33" y="240">l ut </tspan><tspan class="cls-19" x="-48.46" y="240">a</tspan><tspan x="-43.75" y="240">l</tspan><tspan class="cls-14" x="-40.89" y="240">i</tspan><tspan x="-38.15" y="240">qu</tspan><tspan class="cls-17" x="-28.33" y="240">i</tspan><tspan x="-25.54" y="240">p ex ea </tspan><tspan class="cls-18" x="0.96" y="240">c</tspan><tspan x="3.94" y="240">o</tspan><tspan class="cls-14" x="7.74" y="240">m</tspan><tspan x="15.43" y="240">modo </tspan><tspan class="cls-17" x="38.08" y="240">c</tspan><tspan x="41.06" y="240">onsequat.</tspan><tspan x="-176.15" y="252">Lorem </tspan><tspan class="cls-17" x="-149.43" y="252">i</tspan><tspan x="-146.64" y="252">ps</tspan><tspan class="cls-18" x="-139.49" y="252">u</tspan><tspan x="-134.55" y="252">m d</tspan><tspan class="cls-14" x="-119.5" y="252">o</tspan><tspan x="-115.9" y="252">lor sit </tspan><tspan class="cls-14" x="-92.83" y="252">a</tspan><tspan x="-88.12" y="252">met, </tspan><tspan class="cls-18" x="-69.75" y="252">c</tspan><tspan x="-66.77" y="252">onsectet</tspan><tspan class="cls-14" x="-39.15" y="252">u</tspan><tspan x="-34.26" y="252">er ad</tspan><tspan class="cls-18" x="-14.99" y="252">i</tspan><tspan x="-12.2" y="252">pisc</tspan><tspan class="cls-17" x="1.02" y="252">i</tspan><tspan x="3.81" y="252">ng </tspan><tspan class="cls-13" x="15.23" y="252">e</tspan><tspan x="18.39" y="252">lit, sed di</tspan><tspan class="cls-14" x="52.69" y="252">a</tspan><tspan x="57.4" y="252">m non</tspan><tspan class="cls-18" x="81.63" y="252">u</tspan><tspan class="cls-14" x="86.57" y="252">mm</tspan><tspan x="101.95" y="252">y n</tspan><tspan class="cls-13" x="113.27" y="252">i</tspan><tspan class="cls-19" x="115.96" y="252">b</tspan><tspan x="120.25" y="252">h euismod t</tspan><tspan class="cls-17" x="163.1" y="252">i</tspan><tspan x="165.88" y="252">nc</tspan><tspan class="cls-14" x="174.28" y="252">i</tspan><tspan x="177.02" y="252">d</tspan><tspan class="cls-18" x="182.18" y="252">u</tspan><tspan x="187.12" y="252">nt ut </tspan><tspan x="-172.23" y="264">laoreet d</tspan><tspan class="cls-14" x="-139.97" y="264">o</tspan><tspan x="-136.37" y="264">lore magna </tspan><tspan class="cls-19" x="-91.38" y="264">a</tspan><tspan x="-86.67" y="264">l</tspan><tspan class="cls-14" x="-83.81" y="264">i</tspan><tspan x="-81.07" y="264">qu</tspan><tspan class="cls-14" x="-71.25" y="264">a</tspan><tspan x="-66.54" y="264">m e</tspan><tspan class="cls-20" x="-53.24" y="264">r</tspan><tspan x="-49.85" y="264">at v</tspan><tspan class="cls-14" x="-35.92" y="264">o</tspan><tspan x="-32.32" y="264">lutpat. Ut wisi en</tspan><tspan class="cls-17" x="32.39" y="264">i</tspan><tspan x="35.18" y="264">m ad m</tspan><tspan class="cls-18" x="65.03" y="264">i</tspan><tspan x="67.82" y="264">n</tspan><tspan class="cls-17" x="73.09" y="264">i</tspan><tspan x="75.88" y="264">m veni</tspan><tspan class="cls-19" x="101.49" y="264">a</tspan><tspan x="106.2" y="264">m, quis nostr</tspan><tspan class="cls-14" x="154.29" y="264">u</tspan><tspan x="159.18" y="264">d exerci </tspan><tspan x="-167.45" y="276">tat</tspan><tspan class="cls-14" x="-156.7" y="276">i</tspan><tspan x="-153.96" y="276">on </tspan><tspan class="cls-13" x="-142.89" y="276">u</tspan><tspan class="cls-18" x="-138.05" y="276">l</tspan><tspan x="-135.34" y="276">l</tspan><tspan class="cls-14" x="-132.48" y="276">a</tspan><tspan x="-127.77" y="276">m</tspan><tspan class="cls-18" x="-119.88" y="276">c</tspan><tspan class="cls-25" x="-116.9" y="276">orper susc</tspan><tspan class="cls-18" x="-81.98" y="276">i</tspan><tspan x="-79.19" y="276">pit l</tspan><tspan class="cls-14" x="-64.08" y="276">o</tspan><tspan x="-60.48" y="276">bortis ni</tspan><tspan class="cls-18" x="-29.57" y="276">s</tspan><tspan x="-26.96" y="276">l ut </tspan><tspan class="cls-14" x="-12.09" y="276">a</tspan><tspan x="-7.38" y="276">l</tspan><tspan class="cls-14" x="-4.52" y="276">i</tspan><tspan x="-1.78" y="276">qu</tspan><tspan class="cls-18" x="8.04" y="276">i</tspan><tspan x="10.83" y="276">p ex ea </tspan><tspan class="cls-17" x="37.33" y="276">c</tspan><tspan x="40.31" y="276">o</tspan><tspan class="cls-14" x="44.11" y="276">m</tspan><tspan x="51.79" y="276">modo </tspan><tspan class="cls-18" x="74.44" y="276">c</tspan><tspan x="77.42" y="276">onsequat. Duis </tspan><tspan class="cls-17" x="134.77" y="276">a</tspan><tspan x="139.53" y="276">utem v</tspan><tspan class="cls-13" x="164.94" y="276">e</tspan><tspan x="168.1" y="276">l e</tspan><tspan class="cls-18" x="176.37" y="276">u</tspan><tspan x="181.31" y="276">m </tspan><tspan class="cls-17" x="-161.74" y="288">i</tspan><tspan x="-158.95" y="288">ri</tspan><tspan class="cls-18" x="-152.22" y="288">u</tspan><tspan x="-147.28" y="288">re d</tspan><tspan class="cls-14" x="-132.92" y="288">o</tspan><tspan x="-129.32" y="288">lor </tspan><tspan class="cls-18" x="-116.87" y="288">i</tspan><tspan x="-114.08" y="288">n hendrerit </tspan><tspan class="cls-17" x="-69.24" y="288">i</tspan><tspan x="-66.45" y="288">n v</tspan><tspan class="cls-13" x="-55.08" y="288">u</tspan><tspan x="-50.24" y="288">lputate v</tspan><tspan class="cls-13" x="-17.64" y="288">e</tspan><tspan x="-14.48" y="288">lit esse m</tspan><tspan class="cls-14" x="18.47" y="288">o</tspan><tspan x="22.07" y="288">lest</tspan><tspan class="cls-19" x="34.02" y="288">i</tspan><tspan x="36.76" y="288">e </tspan><tspan class="cls-17" x="42.17" y="288">c</tspan><tspan x="45.15" y="288">onsequat, v</tspan><tspan class="cls-13" x="86.29" y="288">e</tspan><tspan x="89.45" y="288">l </tspan><tspan class="cls-13" x="94.31" y="288">i</tspan><tspan class="cls-18" x="97" y="288">l</tspan><tspan x="99.71" y="288">l</tspan><tspan class="cls-17" x="102.57" y="288">u</tspan><tspan x="107.51" y="288">m d</tspan><tspan class="cls-14" x="122.56" y="288">o</tspan><tspan x="126.16" y="288">lore eu feugiat </tspan><tspan x="-155" y="300">n</tspan><tspan class="cls-13" x="-149.74" y="300">u</tspan><tspan class="cls-17" x="-144.9" y="300">l</tspan><tspan x="-142.19" y="300">la </tspan><tspan class="cls-21" x="-132.42" y="300">f</tspan><tspan x="-129.65" y="300">ac</tspan><tspan class="cls-13" x="-121.61" y="300">i</tspan><tspan x="-118.92" y="300">lisis at vero eros et a</tspan><tspan class="cls-17" x="-46.74" y="300">c</tspan><tspan x="-43.76" y="300">c</tspan><tspan class="cls-18" x="-40.63" y="300">u</tspan><tspan x="-35.69" y="300">ms</tspan><tspan class="cls-14" x="-25.04" y="300">a</tspan><tspan x="-20.33" y="300">n et iusto od</tspan><tspan class="cls-14" x="23.74" y="300">i</tspan><tspan x="26.48" y="300">o digniss</tspan><tspan class="cls-18" x="58.26" y="300">i</tspan><tspan x="61.05" y="300">m qui </tspan><tspan class="cls-14" x="85.7" y="300">b</tspan><tspan x="89.99" y="300">l</tspan><tspan class="cls-14" x="92.85" y="300">a</tspan><tspan x="97.56" y="300">ndit p</tspan><tspan class="cls-20" x="120.24" y="300">r</tspan><tspan x="123.63" y="300">aesent l</tspan><tspan class="cls-17" x="151.17" y="300">u</tspan><tspan x="156.11" y="300">ptat</tspan><tspan class="cls-17" x="171.25" y="300">u</tspan><tspan class="cls-26" x="176.19" y="300">m </tspan><tspan x="-147.13" y="312">zzr</tspan><tspan class="cls-13" x="-135.2" y="312">i</tspan><tspan x="-132.51" y="312">l d</tspan><tspan class="cls-13" x="-122.49" y="312">e</tspan><tspan x="-119.33" y="312">lenit </tspan><tspan class="cls-18" x="-99.93" y="312">a</tspan><tspan x="-95.17" y="312">ug</tspan><tspan class="cls-14" x="-85.93" y="312">u</tspan><tspan x="-81.04" y="312">e duis d</tspan><tspan class="cls-14" x="-52.52" y="312">o</tspan><tspan x="-48.92" y="312">lore te feu</tspan><tspan class="cls-14" x="-13.02" y="312">ga</tspan><tspan x="-4.36" y="312">it n</tspan><tspan class="cls-13" x="8.77" y="312">u</tspan><tspan class="cls-17" x="13.61" y="312">l</tspan><tspan x="16.32" y="312">la </tspan><tspan class="cls-23" x="26.09" y="312">f</tspan><tspan x="28.85" y="312">ac</tspan><tspan class="cls-24" x="36.89" y="312">i</tspan><tspan x="39.58" y="312">lisi.</tspan><tspan x="-137.94" y="324">Lorem </tspan><tspan class="cls-17" x="-111.22" y="324">i</tspan><tspan x="-108.44" y="324">ps</tspan><tspan class="cls-18" x="-101.29" y="324">u</tspan><tspan x="-96.35" y="324">m d</tspan><tspan class="cls-14" x="-81.3" y="324">o</tspan><tspan x="-77.7" y="324">lor sit </tspan><tspan class="cls-14" x="-54.63" y="324">a</tspan><tspan x="-49.92" y="324">met, </tspan><tspan class="cls-18" x="-31.55" y="324">c</tspan><tspan x="-28.57" y="324">ons ectet</tspan><tspan class="cls-14" x="1.05" y="324">u</tspan><tspan x="5.94" y="324">er ad</tspan><tspan class="cls-18" x="25.21" y="324">i</tspan><tspan x="28" y="324">pisc</tspan><tspan class="cls-17" x="41.22" y="324">i</tspan><tspan x="44.01" y="324">ng </tspan><tspan class="cls-13" x="55.43" y="324">e</tspan><tspan x="58.59" y="324">lit, sed di</tspan><tspan class="cls-14" x="92.89" y="324">a</tspan><tspan x="97.6" y="324">m non</tspan><tspan class="cls-18" x="121.83" y="324">u</tspan><tspan class="cls-14" x="126.77" y="324">mm</tspan><tspan x="142.15" y="324">y n</tspan><tspan class="cls-13" x="153.47" y="324">i</tspan><tspan class="cls-19" x="156.16" y="324">b</tspan><tspan x="160.45" y="324">h </tspan><tspan x="-127.2" y="336">euismod t</tspan><tspan class="cls-17" x="-91.23" y="336">i</tspan><tspan x="-88.44" y="336">nc</tspan><tspan class="cls-19" x="-80.04" y="336">i</tspan><tspan x="-77.3" y="336">d</tspan><tspan class="cls-17" x="-72.14" y="336">u</tspan><tspan x="-67.2" y="336">nt ut laoreet d</tspan><tspan class="cls-14" x="-14.74" y="336">o</tspan><tspan x="-11.14" y="336">lore magna </tspan><tspan class="cls-19" x="33.85" y="336">a</tspan><tspan x="38.56" y="336">l</tspan><tspan class="cls-14" x="41.42" y="336">i</tspan><tspan x="44.16" y="336">qu</tspan><tspan class="cls-14" x="53.98" y="336">a</tspan><tspan x="58.69" y="336">m e</tspan><tspan class="cls-20" x="71.99" y="336">r</tspan><tspan x="75.38" y="336">at v</tspan><tspan class="cls-14" x="89.31" y="336">o</tspan><tspan x="92.91" y="336">lutpat. Ut wisi </tspan><tspan x="-114.51" y="348">en</tspan><tspan class="cls-17" x="-105.83" y="348">i</tspan><tspan x="-103.04" y="348">m ad m</tspan><tspan class="cls-18" x="-73.19" y="348">i</tspan><tspan x="-70.4" y="348">n</tspan><tspan class="cls-17" x="-65.13" y="348">i</tspan><tspan x="-62.34" y="348">m veni</tspan><tspan class="cls-19" x="-36.74" y="348">a</tspan><tspan x="-32.02" y="348">m, quis nostr</tspan><tspan class="cls-14" x="16.07" y="348">u</tspan><tspan x="20.96" y="348">d exerci tat</tspan><tspan class="cls-14" x="61.93" y="348">i</tspan><tspan x="64.67" y="348">on </tspan><tspan class="cls-13" x="75.74" y="348">u</tspan><tspan class="cls-18" x="80.58" y="348">l</tspan><tspan x="83.29" y="348">l</tspan><tspan class="cls-14" x="86.15" y="348">a</tspan><tspan x="90.86" y="348">m</tspan><tspan class="cls-17" x="98.75" y="348">c</tspan><tspan x="101.73" y="348">orper </tspan><tspan x="-99.25" y="360">susc</tspan><tspan class="cls-17" x="-85.52" y="360">i</tspan><tspan x="-82.73" y="360">pit l</tspan><tspan class="cls-19" x="-67.62" y="360">o</tspan><tspan x="-64.02" y="360">bortis ni</tspan><tspan class="cls-17" x="-33.11" y="360">s</tspan><tspan x="-30.5" y="360">l ut </tspan><tspan class="cls-14" x="-15.63" y="360">a</tspan><tspan x="-10.92" y="360">l</tspan><tspan class="cls-19" x="-8.06" y="360">i</tspan><tspan x="-5.32" y="360">qu</tspan><tspan class="cls-17" x="4.5" y="360">i</tspan><tspan x="7.29" y="360">p ex ea </tspan><tspan class="cls-18" x="33.79" y="360">c</tspan><tspan x="36.77" y="360">o</tspan><tspan class="cls-14" x="40.57" y="360">m</tspan><tspan x="48.26" y="360">modo </tspan><tspan class="cls-17" x="70.91" y="360">c</tspan><tspan x="73.89" y="360">onsequat.</tspan><tspan x="-80.22" y="372">Lorem </tspan><tspan class="cls-17" x="-53.5" y="372">i</tspan><tspan x="-50.71" y="372">ps</tspan><tspan class="cls-18" x="-43.57" y="372">u</tspan><tspan x="-38.63" y="372">m d</tspan><tspan class="cls-14" x="-23.58" y="372">o</tspan><tspan x="-19.98" y="372">lor sit </tspan><tspan class="cls-14" x="3.09" y="372">a</tspan><tspan x="7.8" y="372">met, </tspan><tspan class="cls-18" x="26.17" y="372">c</tspan><tspan x="29.15" y="372">onsectet</tspan><tspan class="cls-14" x="56.77" y="372">u</tspan><tspan x="61.66" y="372">er ad</tspan><tspan class="cls-18" x="80.93" y="372">i</tspan><tspan x="83.72" y="372">pisc</tspan><tspan class="cls-17" x="96.94" y="372">i</tspan><tspan x="99.73" y="372">ng </tspan><tspan class="cls-13" x="-54.42" y="384">e</tspan><tspan x="-51.25" y="384">lit, sed di</tspan><tspan class="cls-14" x="-16.96" y="384">a</tspan><tspan x="-12.25" y="384">m non</tspan><tspan class="cls-18" x="11.98" y="384">u</tspan><tspan class="cls-14" x="16.92" y="384">mm</tspan><tspan x="32.3" y="384">y n</tspan><tspan class="cls-13" x="43.62" y="384">i</tspan><tspan class="cls-19" x="46.31" y="384">b</tspan><tspan x="50.6" y="384">h </tspan><tspan x="-3.83" y="396">euismod </tspan></text>
</svg>
