<?xml version="1.0" encoding="utf-8"?>
<!-- Generator: Adobe Illustrator 22.1.0, SVG Export Plug-In . SVG Version: 6.00 Build 0)  -->
<svg version="1.1" id="Livello_1" xmlns="http://www.w3.org/2000/svg" xmlns:xlink="http://www.w3.org/1999/xlink" x="0px" y="0px"
	 viewBox="0 0 1190.6 1190.6" style="enable-background:new 0 0 1190.6 1190.6;" xml:space="preserve">
<style type="text/css">
	.st0{fill:#F6E89B;}
	.st1{fill:none;stroke:#4353A0;stroke-miterlimit:10;}
	.st2{clip-path:url(#SVGID_2_);}
	.st3{fill:none;}
	.st4{font-family:'OpenSansCondensed-Light';}
	.st5{font-size:16px;}
	.st6{font-family:'EBGaramond-Italic';}
	.st7{font-size:10px;}
	.st8{fill:none;stroke:#92C024;stroke-miterlimit:10;}
	.st9{fill:none;stroke:#B88DC0;stroke-miterlimit:10;}
	.st10{clip-path:url(#SVGID_4_);}
	.st11{font-family:'OpenSansCondensed-Bold';}
	.st12{font-size:60px;}
</style>
<g id="Livello_1_1_">
	<title>888243_00</title>
	<rect y="0" class="st0" width="1190.6" height="1190.6"/>
</g>
<g id="Livello_2_1_">
	<g>
		<rect x="61" y="61" class="st1" width="239.5" height="239.5"/>
	</g>
	<g>
		<rect x="61" y="337.3" class="st1" width="239.5" height="239.5"/>
	</g>
	<g>
		<rect x="61" y="613.7" class="st1" width="239.5" height="239.5"/>
	</g>
	<g>
		<rect x="61" y="890" class="st1" width="239.5" height="239.5"/>
	</g>
	<g>
		<rect x="337.4" y="61" class="st1" width="239.5" height="239.5"/>
	</g>
	<g>
		<rect x="337.4" y="337.3" class="st1" width="239.5" height="239.5"/>
	</g>
	<g>
		<rect x="337.4" y="613.7" class="st1" width="239.5" height="239.5"/>
	</g>
	<g>
		<rect x="337.4" y="890" class="st1" width="239.5" height="239.5"/>
	</g>
	<g>
		<g>
			<defs>
				<rect id="SVGID_1_" x="613.8" y="61" width="239.5" height="239.5"/>
			</defs>
			<clipPath id="SVGID_2_">
				<use xlink:href="#SVGID_1_"  style="overflow:visible;"/>
			</clipPath>
			<g transform="matrix(1 0 0 1 0 3.814697e-06)" class="st2">
				
					<image style="overflow:visible;enable-background:new    ;" width="2500" height="4181" xlink:href="894161_3.JPG"  transform="matrix(9.694403e-02 0 0 9.694403e-02 612.3627 -54.8901)">
				</image>
			</g>
		</g>
	</g>
	<g>
		<rect x="613.8" y="337.3" class="st1" width="239.5" height="239.5"/>
	</g>
	<g>
		<rect x="613.8" y="613.7" class="st1" width="239.5" height="239.5"/>
	</g>
	<g>
		<rect x="613.8" y="890" class="st1" width="239.5" height="239.5"/>
	</g>
	<g>
		<rect x="890.1" y="61" class="st1" width="239.5" height="239.5"/>
	</g>
	<g>
		<rect x="890.1" y="337.3" class="st1" width="239.5" height="239.5"/>
	</g>
	<g>
		<rect x="890.1" y="613.7" class="st1" width="239.5" height="239.5"/>
	</g>
	<g>
		<rect x="890.1" y="890" class="st1" width="239.5" height="239.5"/>
	</g>
	<rect x="337.4" y="613.7" class="st3" width="239.6" height="239.5"/>
	<text transform="matrix(1 0 0 1 350.1224 625.8398)" class="st4 st5">Lorem ipsum dolor sit amet, consectetuer </text>
	<text transform="matrix(1 0 0 1 353.9224 649.8398)" class="st4 st5">adipiscing elit, sed diam nonummy nibh </text>
	<text transform="matrix(1 0 0 1 346.7224 673.8398)" class="st4 st5">euismod tincidunt ut laoreet dolore magna </text>
	<text transform="matrix(1 0 0 1 341.0224 697.8398)" class="st4 st5">aliquam erat volutpat. Ut wisi enim ad minim </text>
	<text transform="matrix(1 0 0 1 343.8224 721.8398)" class="st4 st5">veniam, quis nostrud exerci tation ullamcor</text>
	<text transform="matrix(1 0 0 1 566.4224 721.8398)" class="st4 st5">-</text>
	<text transform="matrix(1 0 0 1 355.0224 745.8398)" class="st4 st5">per suscipit lobortis nisl ut aliquip ex ea </text>
	<text transform="matrix(1 0 0 1 348.7224 769.8398)" class="st4 st5">commodo consequat. Duis autem vel eum </text>
	<text transform="matrix(1 0 0 1 339.1224 793.8398)" class="st4 st5">iriure dolor in hendrerit in vulputate velit esse </text>
	<text transform="matrix(1 0 0 1 355.7224 817.8398)" class="st4 st5">molestie consequat, vel illum dolore eu </text>
	<text transform="matrix(1 0 0 1 340.3224 841.8398)" class="st4 st5">feugiat nulla facilisis at vero eros et accumsan </text>
	<rect x="890.1" y="282.1" class="st3" width="222.3" height="20.4"/>
	<text transform="matrix(1 0 0 1 890.1224 289.1284)" class="st6 st7">Graffito di Chicago. Illinois</text>
	<circle class="st3" cx="734.8" cy="732.6" r="120.6"/>
	<text transform="matrix(1 0 0 1 718.2953 624.2518)" class="st4 st5">Lorem </text>
	<text transform="matrix(1 0 0 1 667.2953 648.2518)" class="st4 st5">ipsum dolor sit amet, con</text>
	<text transform="matrix(1 0 0 1 798.2953 648.2518)" class="st4 st5">-</text>
	<text transform="matrix(1 0 0 1 647.5953 672.2518)" class="st4 st5">sectetuer adipiscing elit, sed diam </text>
	<text transform="matrix(1 0 0 1 640.4953 696.2518)" class="st4 st5">nonummy nibh euismod tincidunt ut </text>
	<text transform="matrix(1 0 0 1 620.9953 720.2518)" class="st4 st5">laoreet dolore magna aliquam erat volutpat. </text>
	<text transform="matrix(1 0 0 1 620.9953 744.2518)" class="st4 st5">Ut wisi enim ad minim veniam, quis nostrud </text>
	<text transform="matrix(1 0 0 1 628.7953 768.2518)" class="st4 st5">exerci tation ullamcorper suscipit lobortis </text>
	<text transform="matrix(1 0 0 1 638.7953 792.2518)" class="st4 st5">nisl ut aliquip ex ea commodo conse</text>
	<text transform="matrix(1 0 0 1 826.7953 792.2518)" class="st4 st5">-</text>
	<text transform="matrix(1 0 0 1 653.4953 816.2518)" class="st4 st5">quat. Duis autem vel eum iriure </text>
	<text transform="matrix(1 0 0 1 682.4953 840.2518)" class="st4 st5">dolor in hendrerit in </text>
</g>
<g id="Livello_3">
	<rect x="60.9" y="61" class="st8" width="184.3" height="184.3"/>
	<rect x="60.9" y="282.1" class="st8" width="184.3" height="184.3"/>
	<rect x="60.9" y="503.1" class="st8" width="184.3" height="184.3"/>
	<rect x="60.9" y="724.2" class="st8" width="184.3" height="184.3"/>
	<rect x="60.9" y="945.3" class="st8" width="184.3" height="184.3"/>
	<rect x="282" y="61" class="st8" width="184.3" height="184.3"/>
	<rect x="282" y="282.1" class="st8" width="184.3" height="184.3"/>
	<rect x="282" y="503.1" class="st8" width="184.3" height="184.3"/>
	<rect x="282" y="724.2" class="st8" width="184.3" height="184.3"/>
	<rect x="282" y="945.3" class="st8" width="184.3" height="184.3"/>
	<rect x="503.2" y="61" class="st8" width="184.3" height="184.3"/>
	<rect x="503.2" y="282.1" class="st8" width="184.3" height="184.3"/>
	<rect x="503.2" y="503.1" class="st8" width="184.3" height="184.3"/>
	<rect x="503.2" y="724.2" class="st8" width="184.3" height="184.3"/>
	<rect x="503.2" y="945.3" class="st8" width="184.3" height="184.3"/>
	<rect x="724.3" y="61" class="st8" width="184.3" height="184.3"/>
	<rect x="724.3" y="282.1" class="st8" width="184.3" height="184.3"/>
	<rect x="724.3" y="503.1" class="st8" width="184.3" height="184.3"/>
	<rect x="724.3" y="724.2" class="st8" width="184.3" height="184.3"/>
	<rect x="724.3" y="945.3" class="st8" width="184.3" height="184.3"/>
	<rect x="945.5" y="61" class="st8" width="184.3" height="184.3"/>
	<rect x="945.5" y="282.1" class="st8" width="184.3" height="184.3"/>
	<rect x="945.5" y="503.1" class="st8" width="184.3" height="184.3"/>
	<rect x="945.5" y="724.2" class="st8" width="184.3" height="184.3"/>
	<rect x="945.5" y="945.3" class="st8" width="184.3" height="184.3"/>
</g>
<g id="Livello_4">
	<rect x="60.9" y="61" class="st9" width="147.4" height="147.4"/>
	<rect x="60.9" y="982.1" class="st9" width="147.4" height="147.4"/>
	<rect x="60.9" y="613.7" class="st9" width="147.4" height="147.4"/>
	<rect x="60.9" y="797.9" class="st9" width="147.4" height="147.4"/>
	<rect x="60.9" y="429.5" class="st9" width="147.4" height="147.4"/>
	<rect x="60.9" y="245.2" class="st9" width="147.4" height="147.4"/>
	<rect x="245.2" y="61" class="st9" width="147.4" height="147.4"/>
	<rect x="245.2" y="982.1" class="st9" width="147.4" height="147.4"/>
	<rect x="245.2" y="613.7" class="st9" width="147.4" height="147.4"/>
	<rect x="245.2" y="797.9" class="st9" width="147.4" height="147.4"/>
	<rect x="245.2" y="429.5" class="st9" width="147.4" height="147.4"/>
	<rect x="245.2" y="245.2" class="st9" width="147.4" height="147.4"/>
	<rect x="429.5" y="61" class="st9" width="147.4" height="147.4"/>
	<rect x="429.5" y="982.1" class="st9" width="147.4" height="147.4"/>
	<rect x="429.5" y="613.7" class="st9" width="147.4" height="147.4"/>
	<rect x="429.5" y="797.9" class="st9" width="147.4" height="147.4"/>
	<rect x="429.5" y="429.5" class="st9" width="147.4" height="147.4"/>
	<rect x="429.5" y="245.2" class="st9" width="147.4" height="147.4"/>
	<rect x="613.7" y="61" class="st9" width="147.4" height="147.4"/>
	<rect x="613.8" y="982.1" class="st9" width="147.4" height="147.4"/>
	<rect x="613.8" y="613.7" class="st9" width="147.4" height="147.4"/>
	<rect x="613.8" y="797.9" class="st9" width="147.4" height="147.4"/>
	<rect x="613.8" y="429.5" class="st9" width="147.4" height="147.4"/>
	<rect x="613.8" y="245.2" class="st9" width="147.4" height="147.4"/>
	<rect x="798" y="61" class="st9" width="147.4" height="147.4"/>
	<rect x="798.1" y="982.1" class="st9" width="147.4" height="147.4"/>
	<rect x="798.1" y="613.7" class="st9" width="147.4" height="147.4"/>
	<rect x="798.1" y="797.9" class="st9" width="147.4" height="147.4"/>
	<rect x="798.1" y="429.5" class="st9" width="147.4" height="147.4"/>
	<rect x="798.1" y="245.2" class="st9" width="147.4" height="147.4"/>
	<rect x="982.3" y="61" class="st9" width="147.4" height="147.4"/>
	<rect x="982.3" y="982.1" class="st9" width="147.4" height="147.4"/>
	<rect x="982.3" y="613.7" class="st9" width="147.4" height="147.4"/>
	<rect x="982.3" y="797.9" class="st9" width="147.4" height="147.4"/>
	<rect x="982.3" y="429.5" class="st9" width="147.4" height="147.4"/>
	<rect x="982.3" y="245.2" class="st9" width="147.4" height="147.4"/>
	<g>
		<g>
			<defs>
				<circle id="SVGID_3_" cx="458.3" cy="180.8" r="119.8"/>
			</defs>
			<clipPath id="SVGID_4_">
				<use xlink:href="#SVGID_3_"  style="overflow:visible;"/>
			</clipPath>
			<g transform="matrix(1 8.881784e-16 -8.881784e-16 1 0 0)" class="st10">
				
					<image style="overflow:visible;enable-background:new    ;" width="4032" height="3024" xlink:href="894161_05.JPG"  transform="matrix(-0.1003 0 0 -0.1003 661.8984 332.6869)">
				</image>
			</g>
		</g>
	</g>
	<rect x="352.3" y="337.3" class="st3" width="500.9" height="239.5"/>
	<text transform="matrix(1 0 0 1 497.3575 382.9433)" class="st11 st12">Griglia di</text>
	<text transform="matrix(1 0 0 1 429.3575 454.9433)" class="st11 st12"> Sofia Ronchini</text>
</g>
</svg>
