<?xml version="1.0" encoding="utf-8"?>
<!-- Generator: Adobe Illustrator 22.1.0, SVG Export Plug-In . SVG Version: 6.00 Build 0)  -->
<svg version="1.1" xmlns="http://www.w3.org/2000/svg" xmlns:xlink="http://www.w3.org/1999/xlink" x="0px" y="0px"
	 viewBox="0 0 1190.6 1190.6" style="enable-background:new 0 0 1190.6 1190.6;" xml:space="preserve">
<style type="text/css">
	.st0{fill:#F6E89B;}
	.st1{fill:none;stroke:#2A3671;stroke-width:2;stroke-miterlimit:10;}
	.st2{fill:none;stroke:#00A03B;stroke-width:2;stroke-miterlimit:10;}
	.st3{fill:none;stroke:#F39CA4;stroke-width:2;stroke-miterlimit:10;}
</style>
<g id="Livello_1">
	<title>894161_01</title>
	<rect x="0" y="0.3" class="st0" width="1190.6" height="1190.6"/>
</g>
<g id="Livello_2">
	<rect id="_Tracciato_18_1_" x="61" y="60.9" class="st1" width="184.3" height="184.3"/>
	<rect id="_Tracciato_19_2_" x="945.2" y="60.9" class="st1" width="184.3" height="184.3"/>
	<rect id="_Tracciato_20_2_" x="724.2" y="60.9" class="st1" width="184.3" height="184.3"/>
	<rect id="_Tracciato_21_1_" x="504.1" y="60.9" class="st1" width="184.3" height="184.3"/>
	<rect id="_Tracciato_22_1_" x="283.1" y="60.9" class="st1" width="184.3" height="184.3"/>
	<rect id="_Tracciato_23_1_" x="61" y="502.1" class="st1" width="184.3" height="184.3"/>
	<rect id="_Tracciato_24_2_" x="945.2" y="502.1" class="st1" width="184.3" height="184.3"/>
	<rect id="_Tracciato_25_2_" x="724.2" y="502.1" class="st1" width="184.3" height="184.3"/>
	<rect id="_Tracciato_26_1_" x="504.1" y="502.1" class="st1" width="184.3" height="184.3"/>
	<rect id="_Tracciato_27_1_" x="283.1" y="502.1" class="st1" width="184.3" height="184.3"/>
	<rect id="_Tracciato_28_1_" x="61" y="723.6" class="st1" width="184.3" height="184.3"/>
	<rect id="_Tracciato_29_2_" x="945.2" y="723.6" class="st1" width="184.3" height="184.3"/>
	<rect id="_Tracciato_30_2_" x="724.2" y="723.6" class="st1" width="184.3" height="184.3"/>
	<rect id="_Tracciato_31_1_" x="504.1" y="723.6" class="st1" width="184.3" height="184.3"/>
	<rect id="_Tracciato_32_1_" x="283.1" y="723.6" class="st1" width="184.3" height="184.3"/>
	<rect id="_Tracciato_33_1_" x="61" y="943.4" class="st1" width="184.3" height="184.3"/>
	<rect id="_Tracciato_34_2_" x="945.2" y="943.4" class="st1" width="184.3" height="184.3"/>
	<rect id="_Tracciato_35_2_" x="724.2" y="943.4" class="st1" width="184.3" height="184.3"/>
	<rect id="_Tracciato_36_1_" x="504.1" y="943.4" class="st1" width="184.3" height="184.3"/>
	<rect id="_Tracciato_37_1_" x="283.1" y="943.4" class="st1" width="184.3" height="184.3"/>
	<rect id="_Tracciato_38_1_" x="61" y="282.3" class="st1" width="184.3" height="184.3"/>
	<rect id="_Tracciato_39_2_" x="945.2" y="282.3" class="st1" width="184.3" height="184.3"/>
	<rect id="_Tracciato_40_2_" x="724.2" y="282.3" class="st1" width="184.3" height="184.3"/>
	<rect id="_Tracciato_41_1_" x="504.1" y="282.3" class="st1" width="184.3" height="184.3"/>
	<rect id="_Tracciato_42_1_" x="283.1" y="282.3" class="st1" width="184.3" height="184.3"/>
</g>
<g id="Livello_3_1_">
	<rect id="_Tracciato_43_2_" x="61.3" y="60.2" class="st2" width="147.4" height="147.4"/>
	<rect id="_Tracciato_44_1_" x="798.2" y="60.2" class="st2" width="147.4" height="147.4"/>
	<rect id="_Tracciato_45_2_" x="614" y="60.2" class="st2" width="147.4" height="147.4"/>
	<rect id="_Tracciato_46_2_" x="429.8" y="60.2" class="st2" width="147.4" height="147.4"/>
	<rect id="_Tracciato_47_2_" x="245.6" y="60.2" class="st2" width="147.4" height="147.4"/>
	<rect id="_Tracciato_48_1_" x="982.4" y="60.2" class="st2" width="147.4" height="147.4"/>
	<rect id="_Tracciato_49_2_" x="61.3" y="244.3" class="st2" width="147.4" height="147.4"/>
	<rect id="_Tracciato_50_1_" x="798.2" y="244.3" class="st2" width="147.4" height="147.4"/>
	<rect id="_Tracciato_51_2_" x="614" y="244.3" class="st2" width="147.4" height="147.4"/>
	<rect id="_Tracciato_52_2_" x="429.8" y="244.3" class="st2" width="147.4" height="147.4"/>
	<rect id="_Tracciato_53_2_" x="245.6" y="244.3" class="st2" width="147.4" height="147.4"/>
	<rect id="_Tracciato_54_1_" x="982.4" y="244.3" class="st2" width="147.4" height="147.4"/>
	<rect id="_Tracciato_55_2_" x="61.3" y="428.5" class="st2" width="147.4" height="147.4"/>
	<rect id="_Tracciato_56_1_" x="798.2" y="428.5" class="st2" width="147.4" height="147.4"/>
	<rect id="_Tracciato_57_2_" x="614" y="428.5" class="st2" width="147.4" height="147.4"/>
	<rect id="_Tracciato_58_2_" x="429.8" y="428.5" class="st2" width="147.4" height="147.4"/>
	<rect id="_Tracciato_59_2_" x="245.6" y="428.5" class="st2" width="147.4" height="147.4"/>
	<rect id="_Tracciato_60_1_" x="982.4" y="428.5" class="st2" width="147.4" height="147.4"/>
	<rect id="_Tracciato_61_2_" x="61.3" y="612.6" class="st2" width="147.4" height="147.4"/>
	<rect id="_Tracciato_62_1_" x="798.2" y="612.6" class="st2" width="147.4" height="147.4"/>
	<rect id="_Tracciato_63_2_" x="614" y="612.6" class="st2" width="147.4" height="147.4"/>
	<rect id="_Tracciato_64_2_" x="429.8" y="612.6" class="st2" width="147.4" height="147.4"/>
	<rect id="_Tracciato_65_2_" x="245.6" y="612.6" class="st2" width="147.4" height="147.4"/>
	<rect id="_Tracciato_66_1_" x="982.4" y="612.6" class="st2" width="147.4" height="147.4"/>
	<rect id="_Tracciato_67_2_" x="61.3" y="796.7" class="st2" width="147.4" height="147.4"/>
	<rect id="_Tracciato_68_1_" x="798.2" y="796.7" class="st2" width="147.4" height="147.4"/>
	<rect id="_Tracciato_69_2_" x="614" y="796.7" class="st2" width="147.4" height="147.4"/>
	<rect id="_Tracciato_70_2_" x="429.8" y="796.7" class="st2" width="147.4" height="147.4"/>
	<rect id="_Tracciato_71_2_" x="245.6" y="796.7" class="st2" width="147.4" height="147.4"/>
	<rect id="_Tracciato_72_1_" x="982.4" y="796.7" class="st2" width="147.4" height="147.4"/>
	<rect id="_Tracciato_73_2_" x="61.3" y="980.8" class="st2" width="147.4" height="147.4"/>
	<rect id="_Tracciato_74_1_" x="798.2" y="980.8" class="st2" width="147.4" height="147.4"/>
	<rect id="_Tracciato_75_2_" x="614" y="980.8" class="st2" width="147.4" height="147.4"/>
	<rect id="_Tracciato_76_2_" x="429.8" y="980.8" class="st2" width="147.4" height="147.4"/>
	<rect id="_Tracciato_77_2_" x="245.6" y="980.8" class="st2" width="147.4" height="147.4"/>
	<rect id="_Tracciato_78_1_" x="982.4" y="980.8" class="st2" width="147.4" height="147.4"/>
</g>
<g id="Livello_4_1_">
	<g>
		<rect id="_Tracciato_2_1_" x="61.1" y="60.9" class="st3" width="239.5" height="239.5"/>
		<rect id="_Tracciato_6_1_" x="890" y="60.9" class="st3" width="239.5" height="239.5"/>
		<rect id="_Tracciato_10_1_" x="337.4" y="60.9" class="st3" width="239.5" height="239.5"/>
		<rect id="_Tracciato_14_1_" x="613.7" y="60.9" class="st3" width="239.5" height="239.5"/>
	</g>
	<g>
		<rect id="_Tracciato_3_1_" x="61.1" y="889.1" class="st3" width="239.5" height="239.5"/>
		<rect id="_Tracciato_7_1_" x="890" y="889.1" class="st3" width="239.5" height="239.5"/>
		<rect id="_Tracciato_11_1_" x="337.4" y="889.1" class="st3" width="239.5" height="239.5"/>
		<rect id="_Tracciato_15_1_" x="613.7" y="889.1" class="st3" width="239.5" height="239.5"/>
	</g>
	<g>
		<rect id="_Tracciato_4_2_" x="61.1" y="612.7" class="st3" width="239.5" height="239.5"/>
		<rect id="_Tracciato_8_2_" x="890" y="612.7" class="st3" width="239.5" height="239.5"/>
		<rect id="_Tracciato_12_2_" x="337.4" y="612.7" class="st3" width="239.5" height="239.5"/>
		<rect id="_Tracciato_16_2_" x="613.7" y="612.7" class="st3" width="239.5" height="239.5"/>
	</g>
	<g>
		<rect id="_Tracciato_5_1_" x="61.1" y="337.3" class="st3" width="239.5" height="239.5"/>
		<rect id="_Tracciato_9_1_" x="890" y="337.3" class="st3" width="239.5" height="239.5"/>
		<rect id="_Tracciato_13_1_" x="337.4" y="337.3" class="st3" width="239.5" height="239.5"/>
		<rect id="_Tracciato_17_1_" x="613.7" y="337.3" class="st3" width="239.5" height="239.5"/>
	</g>
</g>
</svg>
