<svg xmlns="http://www.w3.org/2000/svg" viewBox="0 0 1190.55 1190.55"><defs><style>.cls-1{fill:#dcb9d9;}.cls-2,.cls-3,.cls-4{fill:none;stroke-miterlimit:10;}.cls-2{stroke:#ece320;}.cls-3{stroke:#3e4e9d;stroke-width:3px;}.cls-4{stroke:#e72359;}</style></defs><title>10578785_01</title><g id="Livello_1" data-name="Livello 1"><rect class="cls-1" width="1190.55" height="1190.55"/></g><g id="griglia_1" data-name="griglia 1"><rect class="cls-2" x="66.9" y="64.75" width="239.53" height="239.53"/><rect class="cls-2" x="339.31" y="64.75" width="239.53" height="239.53"/><rect class="cls-2" x="611.72" y="64.75" width="239.53" height="239.53"/><rect class="cls-2" x="884.13" y="64.75" width="239.53" height="239.53"/><rect class="cls-2" x="66.9" y="339.28" width="239.53" height="239.53"/><rect class="cls-2" x="339.31" y="339.28" width="239.53" height="239.53"/><rect class="cls-2" x="611.72" y="339.28" width="239.53" height="239.53"/><rect class="cls-2" x="884.13" y="339.27" width="239.53" height="239.53"/><rect class="cls-2" x="66.9" y="613.81" width="239.53" height="239.53"/><rect class="cls-2" x="339.31" y="613.81" width="239.53" height="239.53"/><rect class="cls-2" x="611.72" y="613.81" width="239.53" height="239.53"/><rect class="cls-2" x="884.13" y="613.81" width="239.53" height="239.53"/><rect class="cls-2" x="66.9" y="888.32" width="239.53" height="239.53"/><rect class="cls-2" x="339.31" y="888.32" width="239.53" height="239.53"/><rect class="cls-2" x="611.72" y="888.32" width="239.53" height="239.53"/><rect class="cls-2" x="884.13" y="888.32" width="239.53" height="239.53"/></g><g id="Livello_3" data-name="Livello 3"><rect class="cls-3" x="61.22" y="60.43" width="184.25" height="184.25"/><rect class="cls-3" x="282.1" y="60.43" width="184.25" height="184.25"/><rect class="cls-3" x="503.15" y="60.43" width="184.25" height="184.25"/><rect class="cls-3" x="723.91" y="60.43" width="184.25" height="184.25"/><rect class="cls-3" x="944.5" y="60.43" width="184.25" height="184.25"/><rect class="cls-3" x="61.51" y="281.34" width="184.25" height="184.25"/><rect class="cls-3" x="282.39" y="280.43" width="184.25" height="184.25"/><rect class="cls-3" x="503.44" y="280.43" width="184.25" height="184.25"/><rect class="cls-3" x="724.2" y="280.43" width="184.25" height="184.25"/><rect class="cls-3" x="944.79" y="280.43" width="184.25" height="184.25"/><rect class="cls-3" x="61.79" y="502.24" width="184.25" height="184.25"/><rect class="cls-3" x="282.67" y="502.24" width="184.25" height="184.25"/><rect class="cls-3" x="503.72" y="502.24" width="184.25" height="184.25"/><rect class="cls-3" x="724.48" y="502.24" width="184.25" height="184.25"/><rect class="cls-3" x="945.07" y="502.24" width="184.25" height="184.25"/><rect class="cls-3" x="61.8" y="724.06" width="184.25" height="184.25"/><rect class="cls-3" x="282.68" y="724.06" width="184.25" height="184.25"/><rect class="cls-3" x="503.72" y="724.06" width="184.25" height="184.25"/><rect class="cls-3" x="724.48" y="724.06" width="184.25" height="184.25"/><rect class="cls-3" x="945.08" y="724.06" width="184.25" height="184.25"/><rect class="cls-3" x="61.22" y="945.87" width="184.25" height="184.25"/><rect class="cls-3" x="282.1" y="945.87" width="184.25" height="184.25"/><rect class="cls-3" x="503.15" y="945.87" width="184.25" height="184.25"/><rect class="cls-3" x="723.91" y="945.87" width="184.25" height="184.25"/><rect class="cls-3" x="944.5" y="945.87" width="184.25" height="184.25"/></g><g id="Livello_4" data-name="Livello 4"><rect class="cls-4" x="59.62" y="96.18" width="147.4" height="147.4"/><rect class="cls-4" x="244.17" y="96.18" width="147.4" height="147.4"/><rect class="cls-4" x="429.08" y="96.18" width="147.4" height="147.4"/><rect class="cls-4" x="613.88" y="96.18" width="147.4" height="147.4"/><rect class="cls-4" x="799.08" y="96.18" width="147.4" height="147.4"/><rect class="cls-4" x="983.53" y="96.18" width="147.4" height="147.4"/><rect class="cls-4" x="59.62" y="266.34" width="147.4" height="147.4"/><rect class="cls-4" x="244.17" y="266.34" width="147.4" height="147.4"/><rect class="cls-4" x="429.08" y="266.34" width="147.4" height="147.4"/><rect class="cls-4" x="613.88" y="266.34" width="147.4" height="147.4"/><rect class="cls-4" x="799.08" y="266.34" width="147.4" height="147.4"/><rect class="cls-4" x="983.53" y="266.34" width="147.4" height="147.4"/><rect class="cls-4" x="59.62" y="436.5" width="147.4" height="147.4"/><rect class="cls-4" x="244.17" y="436.5" width="147.4" height="147.4"/><rect class="cls-4" x="429.08" y="436.5" width="147.4" height="147.4"/><rect class="cls-4" x="613.88" y="436.5" width="147.4" height="147.4"/><rect class="cls-4" x="799.08" y="436.5" width="147.4" height="147.4"/><rect class="cls-4" x="983.53" y="436.5" width="147.4" height="147.4"/><rect class="cls-4" x="59.62" y="606.65" width="147.4" height="147.4"/><rect class="cls-4" x="244.17" y="606.65" width="147.4" height="147.4"/><rect class="cls-4" x="429.08" y="606.65" width="147.4" height="147.4"/><rect class="cls-4" x="613.88" y="606.65" width="147.4" height="147.4"/><rect class="cls-4" x="799.08" y="606.65" width="147.4" height="147.4"/><rect class="cls-4" x="983.53" y="606.65" width="147.4" height="147.4"/><rect class="cls-4" x="59.62" y="776.81" width="147.4" height="147.4"/><rect class="cls-4" x="244.17" y="776.81" width="147.4" height="147.4"/><rect class="cls-4" x="429.08" y="776.81" width="147.4" height="147.4"/><rect class="cls-4" x="613.88" y="776.81" width="147.4" height="147.4"/><rect class="cls-4" x="799.08" y="776.81" width="147.4" height="147.4"/><rect class="cls-4" x="983.53" y="776.81" width="147.4" height="147.4"/><rect class="cls-4" x="59.62" y="946.97" width="147.4" height="147.4"/><rect class="cls-4" x="244.17" y="946.97" width="147.4" height="147.4"/><rect class="cls-4" x="429.08" y="946.97" width="147.4" height="147.4"/><rect class="cls-4" x="613.88" y="946.97" width="147.4" height="147.4"/><rect class="cls-4" x="799.08" y="946.97" width="147.4" height="147.4"/><rect class="cls-4" x="983.53" y="946.97" width="147.4" height="147.4"/></g></svg>