<?xml version="1.0" encoding="utf-8"?>
<!-- Generator: Adobe Illustrator 22.1.0, SVG Export Plug-In . SVG Version: 6.00 Build 0)  -->
<svg version="1.1" xmlns="http://www.w3.org/2000/svg" xmlns:xlink="http://www.w3.org/1999/xlink" x="0px" y="0px"
	 viewBox="0 0 1190.6 1190.6" style="enable-background:new 0 0 1190.6 1190.6;" xml:space="preserve">
<style type="text/css">
	.st0{fill:#F6E89B;}
	.st1{fill:none;stroke:#4353A0;stroke-miterlimit:10;}
	.st2{fill:none;stroke:#92C024;stroke-miterlimit:10;}
	.st3{fill:none;stroke:#B88DC0;stroke-miterlimit:10;}
</style>
<g id="Livello_1">
	<title>888243_00</title>
	<rect class="st0" width="1190.6" height="1190.6"/>
</g>
<g id="Livello_2">
	<g>
		<rect x="61" y="61" class="st1" width="239.5" height="239.5"/>
	</g>
	<g>
		<rect x="61" y="337.3" class="st1" width="239.5" height="239.5"/>
	</g>
	<g>
		<rect x="61" y="613.7" class="st1" width="239.5" height="239.5"/>
	</g>
	<g>
		<rect x="61" y="890" class="st1" width="239.5" height="239.5"/>
	</g>
	<g>
		<rect x="337.4" y="61" class="st1" width="239.5" height="239.5"/>
	</g>
	<g>
		<rect x="337.4" y="337.3" class="st1" width="239.5" height="239.5"/>
	</g>
	<g>
		<rect x="337.4" y="613.7" class="st1" width="239.5" height="239.5"/>
	</g>
	<g>
		<rect x="337.4" y="890" class="st1" width="239.5" height="239.5"/>
	</g>
	<g>
		<rect x="613.8" y="61" class="st1" width="239.5" height="239.5"/>
	</g>
	<g>
		<rect x="613.8" y="337.3" class="st1" width="239.5" height="239.5"/>
	</g>
	<g>
		<rect x="613.8" y="613.7" class="st1" width="239.5" height="239.5"/>
	</g>
	<g>
		<rect x="613.8" y="890" class="st1" width="239.5" height="239.5"/>
	</g>
	<g>
		<rect x="890.1" y="61" class="st1" width="239.5" height="239.5"/>
	</g>
	<g>
		<rect x="890.1" y="337.3" class="st1" width="239.5" height="239.5"/>
	</g>
	<g>
		<rect x="890.1" y="613.7" class="st1" width="239.5" height="239.5"/>
	</g>
	<g>
		<rect x="890.1" y="890" class="st1" width="239.5" height="239.5"/>
	</g>
</g>
<g id="Livello_3">
	<rect x="60.9" y="61" class="st2" width="184.3" height="184.3"/>
	<rect x="60.9" y="282.1" class="st2" width="184.3" height="184.3"/>
	<rect x="60.9" y="503.1" class="st2" width="184.3" height="184.3"/>
	<rect x="60.9" y="724.2" class="st2" width="184.3" height="184.3"/>
	<rect x="60.9" y="945.3" class="st2" width="184.3" height="184.3"/>
	<rect x="282" y="61" class="st2" width="184.3" height="184.3"/>
	<rect x="282" y="282.1" class="st2" width="184.3" height="184.3"/>
	<rect x="282" y="503.1" class="st2" width="184.3" height="184.3"/>
	<rect x="282" y="724.2" class="st2" width="184.3" height="184.3"/>
	<rect x="282" y="945.3" class="st2" width="184.3" height="184.3"/>
	<rect x="503.2" y="61" class="st2" width="184.3" height="184.3"/>
	<rect x="503.2" y="282.1" class="st2" width="184.3" height="184.3"/>
	<rect x="503.2" y="503.1" class="st2" width="184.3" height="184.3"/>
	<rect x="503.2" y="724.2" class="st2" width="184.3" height="184.3"/>
	<rect x="503.2" y="945.3" class="st2" width="184.3" height="184.3"/>
	<rect x="724.3" y="61" class="st2" width="184.3" height="184.3"/>
	<rect x="724.3" y="282.1" class="st2" width="184.3" height="184.3"/>
	<rect x="724.3" y="503.1" class="st2" width="184.3" height="184.3"/>
	<rect x="724.3" y="724.2" class="st2" width="184.3" height="184.3"/>
	<rect x="724.3" y="945.3" class="st2" width="184.3" height="184.3"/>
	<rect x="945.5" y="61" class="st2" width="184.3" height="184.3"/>
	<rect x="945.5" y="282.1" class="st2" width="184.3" height="184.3"/>
	<rect x="945.5" y="503.1" class="st2" width="184.3" height="184.3"/>
	<rect x="945.5" y="724.2" class="st2" width="184.3" height="184.3"/>
	<rect x="945.5" y="945.3" class="st2" width="184.3" height="184.3"/>
</g>
<g id="Livello_4">
	<rect x="60.9" y="61" class="st3" width="147.4" height="147.4"/>
	<rect x="60.9" y="982.1" class="st3" width="147.4" height="147.4"/>
	<rect x="60.9" y="613.7" class="st3" width="147.4" height="147.4"/>
	<rect x="60.9" y="797.9" class="st3" width="147.4" height="147.4"/>
	<rect x="60.9" y="429.5" class="st3" width="147.4" height="147.4"/>
	<rect x="60.9" y="245.2" class="st3" width="147.4" height="147.4"/>
	<rect x="245.2" y="61" class="st3" width="147.4" height="147.4"/>
	<rect x="245.2" y="982.1" class="st3" width="147.4" height="147.4"/>
	<rect x="245.2" y="613.7" class="st3" width="147.4" height="147.4"/>
	<rect x="245.2" y="797.9" class="st3" width="147.4" height="147.4"/>
	<rect x="245.2" y="429.5" class="st3" width="147.4" height="147.4"/>
	<rect x="245.2" y="245.2" class="st3" width="147.4" height="147.4"/>
	<rect x="429.5" y="61" class="st3" width="147.4" height="147.4"/>
	<rect x="429.5" y="982.1" class="st3" width="147.4" height="147.4"/>
	<rect x="429.5" y="613.7" class="st3" width="147.4" height="147.4"/>
	<rect x="429.5" y="797.9" class="st3" width="147.4" height="147.4"/>
	<rect x="429.5" y="429.5" class="st3" width="147.4" height="147.4"/>
	<rect x="429.5" y="245.2" class="st3" width="147.4" height="147.4"/>
	<rect x="613.7" y="61" class="st3" width="147.4" height="147.4"/>
	<rect x="613.8" y="982.1" class="st3" width="147.4" height="147.4"/>
	<rect x="613.8" y="613.7" class="st3" width="147.4" height="147.4"/>
	<rect x="613.8" y="797.9" class="st3" width="147.4" height="147.4"/>
	<rect x="613.8" y="429.5" class="st3" width="147.4" height="147.4"/>
	<rect x="613.8" y="245.2" class="st3" width="147.4" height="147.4"/>
	<rect x="798" y="61" class="st3" width="147.4" height="147.4"/>
	<rect x="798.1" y="982.1" class="st3" width="147.4" height="147.4"/>
	<rect x="798.1" y="613.7" class="st3" width="147.4" height="147.4"/>
	<rect x="798.1" y="797.9" class="st3" width="147.4" height="147.4"/>
	<rect x="798.1" y="429.5" class="st3" width="147.4" height="147.4"/>
	<rect x="798.1" y="245.2" class="st3" width="147.4" height="147.4"/>
	<rect x="982.3" y="61" class="st3" width="147.4" height="147.4"/>
	<rect x="982.3" y="982.1" class="st3" width="147.4" height="147.4"/>
	<rect x="982.3" y="613.7" class="st3" width="147.4" height="147.4"/>
	<rect x="982.3" y="797.9" class="st3" width="147.4" height="147.4"/>
	<rect x="982.3" y="429.5" class="st3" width="147.4" height="147.4"/>
	<rect x="982.3" y="245.2" class="st3" width="147.4" height="147.4"/>
</g>
</svg>
