<svg xmlns="http://www.w3.org/2000/svg" xmlns:xlink="http://www.w3.org/1999/xlink" viewBox="0 0 1190.55 1190.55"><defs><style>.cls-1,.cls-3,.cls-4,.cls-5{fill:none;}.cls-2{fill:#78c8ca;}.cls-3{stroke:#51ac5a;}.cls-3,.cls-4,.cls-5{stroke-miterlimit:10;}.cls-4{stroke:#0c4287;}.cls-5{stroke:#de5647;}.cls-6{clip-path:url(#clip-path);}.cls-7{clip-path:url(#clip-path-2);}.cls-8{font-size:60px;font-family:OpenSansCondensed-Bold, Open Sans Condensed;font-weight:700;}.cls-10,.cls-11,.cls-8{fill:#231815;}.cls-9{letter-spacing:-0.01em;}.cls-10{font-size:24px;font-family:OpenSansCondensed-Light, Open Sans Condensed;}.cls-11{font-size:10px;font-family:EBGaramond-Italic, EB Garamond;font-style:italic;}.cls-12{letter-spacing:-0.02em;}.cls-13{letter-spacing:-0.02em;}.cls-14{letter-spacing:-0.01em;}.cls-15{letter-spacing:-0.03em;}.cls-16{letter-spacing:-0.02em;}</style><clipPath id="clip-path"><rect class="cls-1" x="797.58" y="69.78" width="320.59" height="250"/></clipPath><clipPath id="clip-path-2"><circle class="cls-1" cx="253.48" cy="846.58" r="143.86"/></clipPath></defs><title>896446_06</title><g id="图层_1" data-name="图层 1"><rect class="cls-2" width="1190.55" height="1190.55"/></g><g id="图层_2" data-name="图层 2"><rect class="cls-3" x="73.7" y="68.47" width="239.53" height="239.53"/><rect class="cls-3" x="341.57" y="68.47" width="239.53" height="239.53"/><rect class="cls-3" x="609.45" y="68.47" width="239.53" height="239.53"/><rect class="cls-3" x="877.32" y="68.47" width="239.53" height="239.53"/><rect class="cls-3" x="73.7" y="337.76" width="239.53" height="239.53"/><rect class="cls-3" x="341.57" y="337.76" width="239.53" height="239.53"/><rect class="cls-3" x="609.45" y="337.76" width="239.53" height="239.53"/><rect class="cls-3" x="877.32" y="337.76" width="239.53" height="239.53"/><rect class="cls-3" x="73.7" y="607.06" width="239.53" height="239.53"/><rect class="cls-3" x="341.57" y="607.06" width="239.53" height="239.53"/><rect class="cls-3" x="609.45" y="607.06" width="239.53" height="239.53"/><rect class="cls-3" x="877.32" y="607.06" width="239.53" height="239.53"/><rect class="cls-3" x="73.7" y="876.35" width="239.53" height="239.53"/><rect class="cls-3" x="341.57" y="876.35" width="239.53" height="239.53"/><rect class="cls-3" x="609.45" y="876.35" width="239.53" height="239.53"/><rect class="cls-3" x="877.32" y="876.35" width="239.53" height="239.53"/></g><g id="图层_3" data-name="图层 3"><rect class="cls-4" x="73.7" y="68.47" width="184.25" height="184.25"/><rect class="cls-4" x="288.72" y="68.47" width="184.25" height="184.25"/><rect class="cls-4" x="503.73" y="68.47" width="184.25" height="184.25"/><rect class="cls-4" x="718.75" y="68.47" width="184.25" height="184.25"/><rect class="cls-4" x="933.77" y="68.47" width="184.25" height="184.25"/><rect class="cls-4" x="73.7" y="283.49" width="184.25" height="184.25"/><rect class="cls-4" x="288.72" y="283.49" width="184.25" height="184.25"/><rect class="cls-4" x="503.73" y="283.49" width="184.25" height="184.25"/><rect class="cls-4" x="718.75" y="283.49" width="184.25" height="184.25"/><rect class="cls-4" x="933.77" y="283.49" width="184.25" height="184.25"/><rect class="cls-4" x="73.7" y="498.51" width="184.25" height="184.25"/><rect class="cls-4" x="288.72" y="498.51" width="184.25" height="184.25"/><rect class="cls-4" x="503.73" y="498.51" width="184.25" height="184.25"/><rect class="cls-4" x="718.75" y="498.51" width="184.25" height="184.25"/><rect class="cls-4" x="933.77" y="498.51" width="184.25" height="184.25"/><rect class="cls-4" x="73.7" y="713.52" width="184.25" height="184.25"/><rect class="cls-4" x="288.72" y="713.52" width="184.25" height="184.25"/><rect class="cls-4" x="503.73" y="713.52" width="184.25" height="184.25"/><rect class="cls-4" x="718.75" y="713.52" width="184.25" height="184.25"/><rect class="cls-4" x="933.77" y="713.52" width="184.25" height="184.25"/><rect class="cls-4" x="73.12" y="931.62" width="184.25" height="184.25"/><rect class="cls-4" x="288.13" y="931.62" width="184.25" height="184.25"/><rect class="cls-4" x="503.15" y="931.62" width="184.25" height="184.25"/><rect class="cls-4" x="718.17" y="931.62" width="184.25" height="184.25"/><rect class="cls-4" x="933.18" y="931.62" width="184.25" height="184.25"/></g><g id="图层_4" data-name="图层 4"><rect class="cls-5" x="73.12" y="68.47" width="147.4" height="147.4"/><rect class="cls-5" x="251.83" y="68.47" width="147.4" height="147.4"/><rect class="cls-5" x="430.55" y="68.47" width="147.4" height="147.4"/><rect class="cls-5" x="612.64" y="68.47" width="147.4" height="147.4"/><rect class="cls-5" x="787.7" y="68.47" width="147.4" height="147.4"/><rect class="cls-5" x="969.45" y="68.47" width="147.4" height="147.4"/><rect class="cls-5" x="74.76" y="244.11" width="147.4" height="147.4"/><rect class="cls-5" x="253.48" y="244.11" width="147.4" height="147.4"/><rect class="cls-5" x="432.19" y="244.11" width="147.4" height="147.4"/><rect class="cls-5" x="614.28" y="244.11" width="147.4" height="147.4"/><rect class="cls-5" x="789.35" y="244.11" width="147.4" height="147.4"/><rect class="cls-5" x="971.09" y="244.11" width="147.4" height="147.4"/><rect class="cls-5" x="74.76" y="419.74" width="147.4" height="147.4"/><rect class="cls-5" x="253.48" y="419.74" width="147.4" height="147.4"/><rect class="cls-5" x="432.19" y="419.74" width="147.4" height="147.4"/><rect class="cls-5" x="614.28" y="419.74" width="147.4" height="147.4"/><rect class="cls-5" x="789.35" y="419.74" width="147.4" height="147.4"/><rect class="cls-5" x="971.09" y="419.74" width="147.4" height="147.4"/><rect class="cls-5" x="72.05" y="595.28" width="147.4" height="147.4"/><rect class="cls-5" x="250.77" y="595.28" width="147.4" height="147.4"/><rect class="cls-5" x="429.49" y="595.28" width="147.4" height="147.4"/><rect class="cls-5" x="611.58" y="595.28" width="147.4" height="147.4"/><rect class="cls-5" x="786.64" y="595.28" width="147.4" height="147.4"/><rect class="cls-5" x="968.39" y="595.28" width="147.4" height="147.4"/><rect class="cls-5" x="73.41" y="779.58" width="147.4" height="147.4"/><rect class="cls-5" x="252.12" y="779.58" width="147.4" height="147.4"/><rect class="cls-5" x="430.84" y="779.58" width="147.4" height="147.4"/><rect class="cls-5" x="612.93" y="779.58" width="147.4" height="147.4"/><rect class="cls-5" x="787.99" y="779.58" width="147.4" height="147.4"/><rect class="cls-5" x="969.74" y="779.58" width="147.4" height="147.4"/><rect class="cls-5" x="72.05" y="968.47" width="147.4" height="147.4"/><rect class="cls-5" x="250.77" y="968.47" width="147.4" height="147.4"/><rect class="cls-5" x="429.49" y="968.47" width="147.4" height="147.4"/><rect class="cls-5" x="611.58" y="968.47" width="147.4" height="147.4"/><rect class="cls-5" x="786.64" y="968.47" width="147.4" height="147.4"/><rect class="cls-5" x="968.39" y="968.47" width="147.4" height="147.4"/></g><g id="图层_7" data-name="图层 7"><g class="cls-6"><image width="800" height="250" transform="translate(318.17 69.78)" xlink:href="02562865440a076.jpg"/></g></g><g id="图层_6" data-name="图层 6"><g class="cls-7"><image width="750" height="937" transform="translate(75.18 668.98) scale(0.47)" xlink:href="bc67e91c857d1abc20662c516ce12f91.jpg"/></g><text class="cls-8" transform="translate(125.61 134.61)"><tspan xml:space="preserve">ESERCIZI  DI  VEC</tspan><tspan class="cls-9" x="389.65" y="0">T</tspan><tspan x="414.79" y="0">ORS</tspan></text><text class="cls-10" transform="translate(82.15 274.82)">Lorem ipsum dolor sit amet, consectetur adipiscing elit, sed do eiusmod tempor <tspan x="0" y="28.8">incididunt ut labore et dolore magna aliqua. Ut enim ad minim veniam, quis nos</tspan><tspan x="620.54" y="28.8">-</tspan><tspan x="0" y="57.6">trud exercitation ullamco laboris nisi ut aliquip ex ea commodo consequat. Duis </tspan><tspan x="0" y="86.4">aute irure dolor in reprehenderit in voluptate velit esse cillum dolore eu fugiat </tspan><tspan x="0" y="115.2">nulla pariatur. Excepteur sint occaecat cupidatat non proident, sunt in culpa qui </tspan><tspan x="0" y="144">officia deserunt mollit anim id est laborum.</tspan></text><text class="cls-11" transform="translate(429.49 750.93)">The d<tspan class="cls-12" x="21.67" y="0">a</tspan><tspan x="26.38" y="0">rk </tspan><tspan class="cls-13" x="36.72" y="0">b</tspan><tspan x="41.01" y="0">l</tspan><tspan class="cls-12" x="43.87" y="0">u</tspan><tspan x="48.76" y="0">e </tspan><tspan class="cls-14" x="54.17" y="0">s</tspan><tspan x="56.78" y="0">ky you keep </tspan><tspan class="cls-12" x="0" y="24">A</tspan><tspan x="6.38" y="24">nd often </tspan><tspan class="cls-13" x="39.42" y="24">t</tspan><tspan x="42.14" y="24">hro&apos; </tspan><tspan class="cls-12" x="58.61" y="24">m</tspan><tspan x="66.3" y="24">y c</tspan><tspan class="cls-14" x="75.48" y="24">u</tspan><tspan x="80.42" y="24">rt</tspan><tspan class="cls-13" x="87.13" y="24">a</tspan><tspan class="cls-14" x="91.84" y="24">i</tspan><tspan x="94.63" y="24">ns peep</tspan><tspan x="0" y="48">For you never </tspan><tspan class="cls-14" x="51.6" y="48">s</tspan><tspan x="54.21" y="48">hut yo</tspan><tspan class="cls-14" x="76.95" y="48">u</tspan><tspan x="81.89" y="48">r eye </tspan><tspan x="0" y="72">T</tspan><tspan class="cls-15" x="6.22" y="72">i</tspan><tspan class="cls-14" x="8.91" y="72">l</tspan><tspan x="11.62" y="72">l </tspan><tspan class="cls-12" x="16.48" y="72">t</tspan><tspan x="19.2" y="72">he s</tspan><tspan class="cls-16" x="32.25" y="72">u</tspan><tspan x="37.19" y="72">n is </tspan><tspan class="cls-14" x="52.16" y="72">i</tspan><tspan x="54.95" y="72">n </tspan><tspan class="cls-12" x="62.22" y="72">t</tspan><tspan x="64.94" y="72">he </tspan><tspan class="cls-14" x="75.23" y="72">s</tspan><tspan x="77.84" y="72">ky.</tspan></text></g></svg>