<svg xmlns="http://www.w3.org/2000/svg" xmlns:xlink="http://www.w3.org/1999/xlink" viewBox="0 0 1190.55 1190.55"><defs><style>.cls-1,.cls-3,.cls-4,.cls-5{fill:none;}.cls-2{fill:#78c8ca;}.cls-3{stroke:#51ac5a;}.cls-3,.cls-4,.cls-5{stroke-miterlimit:10;}.cls-4{stroke:#0c4287;}.cls-5{stroke:#de5647;}.cls-6{clip-path:url(#clip-path);}.cls-7{clip-path:url(#clip-path-2);}.cls-8{font-size:60px;font-family:OpenSansCondensed-Bold, Open Sans Condensed;font-weight:700;}.cls-10,.cls-11,.cls-17,.cls-8{fill:#231815;}.cls-9{letter-spacing:-0.01em;}.cls-10{font-size:24px;font-family:OpenSansCondensed-Light, Open Sans Condensed;}.cls-11{font-size:10px;font-family:EBGaramond-Italic, EB Garamond;font-style:italic;}.cls-12{letter-spacing:-0.02em;}.cls-13{letter-spacing:-0.02em;}.cls-14{letter-spacing:-0.01em;}.cls-15{letter-spacing:-0.03em;}.cls-16{letter-spacing:-0.02em;}.cls-17{font-size:12px;font-family:AdobeSongStd-Light-GBpc-EUC-H, Adobe Song Std;}</style><clipPath id="clip-path" transform="translate(0 0)"><rect class="cls-1" x="797.58" y="69.78" width="320.59" height="250"/></clipPath><clipPath id="clip-path-2" transform="translate(0 0)"><circle class="cls-1" cx="253.48" cy="846.58" r="143.86"/></clipPath></defs><title>896446_09</title><g id="图层_1" data-name="图层 1"><rect class="cls-2" width="1190.55" height="1190.55"/></g><g id="图层_2" data-name="图层 2"><rect class="cls-3" x="73.7" y="68.47" width="239.53" height="239.53"/><rect class="cls-3" x="341.57" y="68.47" width="239.53" height="239.53"/><rect class="cls-3" x="609.45" y="68.47" width="239.53" height="239.53"/><rect class="cls-3" x="877.32" y="68.47" width="239.53" height="239.53"/><rect class="cls-3" x="73.7" y="337.76" width="239.53" height="239.53"/><rect class="cls-3" x="341.57" y="337.76" width="239.53" height="239.53"/><rect class="cls-3" x="609.45" y="337.76" width="239.53" height="239.53"/><rect class="cls-3" x="877.32" y="337.76" width="239.53" height="239.53"/><rect class="cls-3" x="73.7" y="607.06" width="239.53" height="239.53"/><rect class="cls-3" x="341.57" y="607.06" width="239.53" height="239.53"/><rect class="cls-3" x="609.45" y="607.06" width="239.53" height="239.53"/><rect class="cls-3" x="877.32" y="607.06" width="239.53" height="239.53"/><rect class="cls-3" x="73.7" y="876.35" width="239.53" height="239.53"/><rect class="cls-3" x="341.57" y="876.35" width="239.53" height="239.53"/><rect class="cls-3" x="609.45" y="876.35" width="239.53" height="239.53"/><rect class="cls-3" x="877.32" y="876.35" width="239.53" height="239.53"/></g><g id="图层_3" data-name="图层 3"><rect class="cls-4" x="73.7" y="68.47" width="184.25" height="184.25"/><rect class="cls-4" x="288.72" y="68.47" width="184.25" height="184.25"/><rect class="cls-4" x="503.73" y="68.47" width="184.25" height="184.25"/><rect class="cls-4" x="718.75" y="68.47" width="184.25" height="184.25"/><rect class="cls-4" x="933.77" y="68.47" width="184.25" height="184.25"/><rect class="cls-4" x="73.7" y="283.49" width="184.25" height="184.25"/><rect class="cls-4" x="288.72" y="283.49" width="184.25" height="184.25"/><rect class="cls-4" x="503.73" y="283.49" width="184.25" height="184.25"/><rect class="cls-4" x="718.75" y="283.49" width="184.25" height="184.25"/><rect class="cls-4" x="933.77" y="283.49" width="184.25" height="184.25"/><rect class="cls-4" x="73.7" y="498.51" width="184.25" height="184.25"/><rect class="cls-4" x="288.72" y="498.51" width="184.25" height="184.25"/><rect class="cls-4" x="503.73" y="498.51" width="184.25" height="184.25"/><rect class="cls-4" x="718.75" y="498.51" width="184.25" height="184.25"/><rect class="cls-4" x="933.77" y="498.51" width="184.25" height="184.25"/><rect class="cls-4" x="73.7" y="713.52" width="184.25" height="184.25"/><rect class="cls-4" x="288.72" y="713.52" width="184.25" height="184.25"/><rect class="cls-4" x="503.73" y="713.52" width="184.25" height="184.25"/><rect class="cls-4" x="718.75" y="713.52" width="184.25" height="184.25"/><rect class="cls-4" x="933.77" y="713.52" width="184.25" height="184.25"/><rect class="cls-4" x="73.12" y="931.62" width="184.25" height="184.25"/><rect class="cls-4" x="288.13" y="931.62" width="184.25" height="184.25"/><rect class="cls-4" x="503.15" y="931.62" width="184.25" height="184.25"/><rect class="cls-4" x="718.17" y="931.62" width="184.25" height="184.25"/><rect class="cls-4" x="933.18" y="931.62" width="184.25" height="184.25"/></g><g id="图层_4" data-name="图层 4"><rect class="cls-5" x="73.12" y="68.47" width="147.4" height="147.4"/><rect class="cls-5" x="251.83" y="68.47" width="147.4" height="147.4"/><rect class="cls-5" x="430.55" y="68.47" width="147.4" height="147.4"/><rect class="cls-5" x="612.64" y="68.47" width="147.4" height="147.4"/><rect class="cls-5" x="787.7" y="68.47" width="147.4" height="147.4"/><rect class="cls-5" x="969.45" y="68.47" width="147.4" height="147.4"/><rect class="cls-5" x="74.76" y="244.11" width="147.4" height="147.4"/><rect class="cls-5" x="253.48" y="244.11" width="147.4" height="147.4"/><rect class="cls-5" x="432.19" y="244.11" width="147.4" height="147.4"/><rect class="cls-5" x="614.28" y="244.11" width="147.4" height="147.4"/><rect class="cls-5" x="789.35" y="244.11" width="147.4" height="147.4"/><rect class="cls-5" x="971.09" y="244.11" width="147.4" height="147.4"/><rect class="cls-5" x="74.76" y="419.74" width="147.4" height="147.4"/><rect class="cls-5" x="253.48" y="419.74" width="147.4" height="147.4"/><rect class="cls-5" x="432.19" y="419.74" width="147.4" height="147.4"/><rect class="cls-5" x="614.28" y="419.74" width="147.4" height="147.4"/><rect class="cls-5" x="789.35" y="419.74" width="147.4" height="147.4"/><rect class="cls-5" x="971.09" y="419.74" width="147.4" height="147.4"/><rect class="cls-5" x="72.05" y="595.28" width="147.4" height="147.4"/><rect class="cls-5" x="250.77" y="595.28" width="147.4" height="147.4"/><rect class="cls-5" x="429.49" y="595.28" width="147.4" height="147.4"/><rect class="cls-5" x="611.58" y="595.28" width="147.4" height="147.4"/><rect class="cls-5" x="786.64" y="595.28" width="147.4" height="147.4"/><rect class="cls-5" x="968.39" y="595.28" width="147.4" height="147.4"/><rect class="cls-5" x="73.41" y="779.58" width="147.4" height="147.4"/><rect class="cls-5" x="252.12" y="779.58" width="147.4" height="147.4"/><rect class="cls-5" x="430.84" y="779.58" width="147.4" height="147.4"/><rect class="cls-5" x="612.93" y="779.58" width="147.4" height="147.4"/><rect class="cls-5" x="787.99" y="779.58" width="147.4" height="147.4"/><rect class="cls-5" x="969.74" y="779.58" width="147.4" height="147.4"/><rect class="cls-5" x="72.05" y="968.47" width="147.4" height="147.4"/><rect class="cls-5" x="250.77" y="968.47" width="147.4" height="147.4"/><rect class="cls-5" x="429.49" y="968.47" width="147.4" height="147.4"/><rect class="cls-5" x="611.58" y="968.47" width="147.4" height="147.4"/><rect class="cls-5" x="786.64" y="968.47" width="147.4" height="147.4"/><rect class="cls-5" x="968.39" y="968.47" width="147.4" height="147.4"/></g><g id="图层_7" data-name="图层 7"><g class="cls-6"><image width="800" height="250" transform="translate(318.17 69.78)" xlink:href="02562865440a076.jpg"/></g></g><g id="图层_6" data-name="图层 6"><g class="cls-7"><image width="750" height="937" transform="translate(75.18 668.98) scale(0.47)" xlink:href="bc67e91c857d1abc20662c516ce12f91.jpg"/></g><text class="cls-8" transform="translate(125.61 134.61)"><tspan xml:space="preserve">ESERCIZI  DI  VEC</tspan><tspan class="cls-9" x="389.65" y="0">T</tspan><tspan x="414.79" y="0">ORS</tspan></text><text class="cls-10" transform="translate(82.15 274.82)">Lorem ipsum dolor sit amet, consectetur adipiscing elit, sed do eiusmod tempor <tspan x="0" y="28.8">incididunt ut labore et dolore magna aliqua. Ut enim ad minim veniam, quis nos</tspan><tspan x="620.54" y="28.8">-</tspan><tspan x="0" y="57.6">trud exercitation ullamco laboris nisi ut aliquip ex ea commodo consequat. Duis </tspan><tspan x="0" y="86.4">aute irure dolor in reprehenderit in voluptate velit esse cillum dolore eu fugiat </tspan><tspan x="0" y="115.2">nulla pariatur. Excepteur sint occaecat cupidatat non proident, sunt in culpa qui </tspan><tspan x="0" y="144">officia deserunt mollit anim id est laborum.</tspan></text><text class="cls-11" transform="translate(429.49 750.93)">The d<tspan class="cls-12" x="21.67" y="0">a</tspan><tspan x="26.38" y="0">rk </tspan><tspan class="cls-13" x="36.72" y="0">b</tspan><tspan x="41.01" y="0">l</tspan><tspan class="cls-12" x="43.87" y="0">u</tspan><tspan x="48.76" y="0">e </tspan><tspan class="cls-14" x="54.17" y="0">s</tspan><tspan x="56.78" y="0">ky you keep </tspan><tspan class="cls-12" x="0" y="24">A</tspan><tspan x="6.38" y="24">nd often </tspan><tspan class="cls-13" x="39.42" y="24">t</tspan><tspan x="42.14" y="24">hro&apos; </tspan><tspan class="cls-12" x="58.61" y="24">m</tspan><tspan x="66.3" y="24">y c</tspan><tspan class="cls-14" x="75.48" y="24">u</tspan><tspan x="80.42" y="24">rt</tspan><tspan class="cls-13" x="87.13" y="24">a</tspan><tspan class="cls-14" x="91.84" y="24">i</tspan><tspan x="94.63" y="24">ns peep</tspan><tspan x="0" y="48">For you never </tspan><tspan class="cls-14" x="51.6" y="48">s</tspan><tspan x="54.21" y="48">hut yo</tspan><tspan class="cls-14" x="76.95" y="48">u</tspan><tspan x="81.89" y="48">r eye </tspan><tspan x="0" y="72">T</tspan><tspan class="cls-15" x="6.22" y="72">i</tspan><tspan class="cls-14" x="8.91" y="72">l</tspan><tspan x="11.62" y="72">l </tspan><tspan class="cls-12" x="16.48" y="72">t</tspan><tspan x="19.2" y="72">he s</tspan><tspan class="cls-16" x="32.25" y="72">u</tspan><tspan x="37.19" y="72">n is </tspan><tspan class="cls-14" x="52.16" y="72">i</tspan><tspan x="54.95" y="72">n </tspan><tspan class="cls-12" x="62.22" y="72">t</tspan><tspan x="64.94" y="72">he </tspan><tspan class="cls-14" x="75.23" y="72">s</tspan><tspan x="77.84" y="72">ky.</tspan></text></g><g id="图层_8" data-name="图层 8"><text class="cls-17" transform="matrix(0.96, -0.29, 0.29, 0.96, 914.11, 396.1)">W</text><text class="cls-17" transform="matrix(0.98, -0.21, 0.21, 0.98, 925.13, 392.87)">h</text><text class="cls-17" transform="translate(931.08 391.64) rotate(-8.69)">e</text><text class="cls-17" transform="translate(935.89 390.88) rotate(-5.51)">n</text><text class="cls-17" transform="translate(942.1 390.32) rotate(-3.05)"> </text><text class="cls-17" transform="translate(944.51 390.18) rotate(-1.44)">t</text><text class="cls-17" transform="matrix(1, 0.02, -0.02, 1, 947.73, 390.07)">h</text><text class="cls-17" transform="translate(953.84 390.21) rotate(4.31)">e</text><text class="cls-17" transform="matrix(0.99, 0.11, -0.11, 0.99, 958.71, 390.6)"> </text><text class="cls-17" transform="matrix(0.99, 0.15, -0.15, 0.99, 961.09, 390.82)">b</text><text class="cls-17" transform="translate(966.96 391.76) rotate(11.25)">l</text><text class="cls-17" transform="translate(969.58 392.26) rotate(13.45)">a</text><text class="cls-17" transform="translate(974.34 393.4) rotate(16.24)">z</text><text class="cls-17" transform="translate(978.95 394.76) rotate(18.45)">i</text><text class="cls-17" transform="translate(981.61 395.6) rotate(21.06)">n</text><text class="cls-17" transform="translate(987.39 397.84) rotate(24.35)">g</text><text class="cls-17" transform="translate(992.15 400.03) rotate(26.56)"> </text><text class="cls-17" transform="translate(994.31 401.08) rotate(28.38)">s</text><text class="cls-17" transform="translate(997.77 402.92) rotate(31.26)">u</text><text class="cls-17" transform="translate(1002.97 406.07) rotate(34.78)">n</text><text class="cls-17" transform="translate(1008.07 409.66) rotate(37.25)"> </text><text class="cls-17" transform="translate(1010.01 411.13) rotate(38.76)">i</text><text class="cls-17" transform="translate(1012.2 412.88) rotate(40.69)">s</text><text class="cls-17" transform="matrix(0.74, 0.68, -0.68, 0.74, 1015.2, 415.48)"> </text><text class="cls-17" transform="matrix(0.71, 0.7, -0.7, 0.71, 1017, 417.08)">g</text><text class="cls-17" transform="matrix(0.67, 0.74, -0.74, 0.67, 1020.71, 420.74)">o</text><text class="cls-17" transform="matrix(0.62, 0.78, -0.78, 0.62, 1024.83, 425.29)">n</text><text class="cls-17" transform="matrix(0.58, 0.82, -0.82, 0.58, 1028.68, 430.15)">e</text><text class="cls-17" transform="translate(1031.58 433.97) rotate(59.39)">，</text><text class="cls-17" transform="translate(1037.58 444.1) rotate(66.06)">W</text><text class="cls-17" transform="translate(1042.14 454.64) rotate(71.13)">h</text><text class="cls-17" transform="translate(1044.09 460.4) rotate(74.29)">e</text><text class="cls-17" transform="translate(1045.43 465.08) rotate(77.49)">n</text><text class="cls-17" transform="translate(1046.74 471.17) rotate(79.99)"> </text><text class="cls-17" transform="translate(1047.19 473.49) rotate(82.42)">h</text><text class="cls-17" transform="translate(1047.99 479.55) rotate(85.56)">e</text><text class="cls-17" transform="translate(1048.35 484.45) rotate(87.64)"> </text><text class="cls-17" transform="matrix(-0.02, 1, -1, -0.02, 1048.53, 486.78)">n</text><text class="cls-17" transform="matrix(-0.06, 1, -1, -0.06, 1048.48, 493.01)">o</text><text class="cls-17" transform="translate(1048.07 499.2) rotate(96.25)">t</text><text class="cls-17" transform="matrix(-0.16, 0.99, -0.99, -0.16, 1047.75, 502.41)">h</text><text class="cls-17" transform="translate(1046.77 508.44) rotate(101.5)">i</text><text class="cls-17" transform="translate(1046.25 511.19) rotate(104.1)">n</text><text class="cls-17" transform="translate(1044.73 517.2) rotate(107.41)">g</text><text class="cls-17" transform="translate(1043.14 522.18) rotate(109.61)"> </text><text class="cls-17" transform="matrix(-0.37, 0.93, -0.93, -0.37, 1042.34, 524.46)">s</text><text class="cls-17" transform="translate(1040.94 528.12) rotate(114.35)">h</text><text class="cls-17" transform="translate(1038.38 533.68) rotate(116.93)">i</text><text class="cls-17" transform="matrix(-0.49, 0.87, -0.87, -0.49, 1037.15, 536.19)">n</text><text class="cls-17" transform="matrix(-0.54, 0.84, -0.84, -0.54, 1034.07, 541.6)">e</text><text class="cls-17" transform="translate(1031.44 545.69) rotate(125.23)">s</text><text class="cls-17" transform="translate(1029.14 548.92) rotate(127.05)"> </text><text class="cls-17" transform="matrix(-0.64, 0.77, -0.77, -0.64, 1027.72, 550.86)">u</text><text class="cls-17" transform="matrix(-0.68, 0.73, -0.73, -0.68, 1023.88, 555.54)">p</text><text class="cls-17" transform="matrix(-0.73, 0.69, -0.69, -0.73, 1019.69, 560.05)">o</text><text class="cls-17" transform="translate(1015.22 564.29) rotate(140.01)">n</text><text class="cls-17" transform="translate(1010.6 568.34) rotate(145.14)">，</text><text class="cls-17" transform="translate(1000.87 575) rotate(150.55)">T</text><text class="cls-17" transform="translate(994.64 578.5) rotate(154.36)">h</text><text class="cls-17" transform="translate(989.16 581.12) rotate(157.51)">e</text><text class="cls-17" transform="translate(984.66 583) rotate(160.72)">n</text><text class="cls-17" transform="translate(978.77 585.02) rotate(163.21)"> </text><text class="cls-17" transform="translate(976.49 585.74) rotate(165.45)">y</text><text class="cls-17" transform="matrix(-0.98, 0.19, -0.19, -0.98, 971.36, 587.09)">o</text><text class="cls-17" transform="translate(965.33 588.29) rotate(172.28)">u</text><text class="cls-17" transform="translate(959.26 589.07) rotate(174.72)"> </text><text class="cls-17" transform="translate(956.87 589.31) rotate(176.53)">s</text><text class="cls-17" transform="translate(952.92 589.56) rotate(179.07)">h</text><text class="cls-17" transform="matrix(-1, -0.05, 0.05, -1, 946.86, 589.65)">o</text><text class="cls-17" transform="matrix(-0.99, -0.12, 0.12, -0.99, 940.73, 589.38)">w</text><text class="cls-17" transform="translate(933.06 588.4) rotate(-170.32)"> </text><text class="cls-17" transform="translate(930.71 588.03) rotate(-168.1)">y</text><text class="cls-17" transform="translate(925.53 586.96) rotate(-164.79)">o</text><text class="cls-17" transform="translate(919.56 585.34) rotate(-161.24)">u</text><text class="cls-17" transform="translate(913.82 583.36) rotate(-158.35)">r</text><text class="cls-17" transform="matrix(-0.92, -0.4, 0.4, -0.92, 910.12, 581.88)"> </text><text class="cls-17" transform="translate(907.88 580.91) rotate(-155.02)">l</text><text class="cls-17" transform="matrix(-0.89, -0.45, 0.45, -0.89, 905.45, 579.78)">i</text><text class="cls-17" transform="matrix(-0.88, -0.47, 0.47, -0.88, 902.94, 578.53)">t</text><text class="cls-17" transform="matrix(-0.86, -0.5, 0.5, -0.86, 900.07, 576.98)">t</text><text class="cls-17" transform="translate(897.27 575.35) rotate(-148.11)">l</text><text class="cls-17" transform="translate(894.99 573.95) rotate(-145.94)">e</text><text class="cls-17" transform="matrix(-0.81, -0.59, 0.59, -0.81, 890.95, 571.2)"> </text><text class="cls-17" transform="translate(889 569.77) rotate(-142.39)">l</text><text class="cls-17" transform="matrix(-0.78, -0.63, 0.63, -0.78, 886.86, 568.13)">i</text><text class="cls-17" transform="translate(884.69 566.39) rotate(-138.52)">g</text><text class="cls-17" transform="matrix(-0.71, -0.7, 0.7, -0.71, 880.76, 562.94)">h</text><text class="cls-17" transform="translate(876.44 558.63) rotate(-132.63)">t</text><text class="cls-17" transform="translate(874.16 556.39) rotate(-128.33)">，</text><text class="cls-17" transform="translate(866.94 547.1) rotate(-122.95)">T</text><text class="cls-17" transform="matrix(-0.48, -0.88, 0.88, -0.48, 863.04, 541.11)">w</text><text class="cls-17" transform="translate(859.4 534.33) rotate(-115.67)">i</text><text class="cls-17" transform="translate(858.15 531.83) rotate(-113.07)">n</text><text class="cls-17" transform="translate(855.73 526.13) rotate(-109.6)">k</text><text class="cls-17" transform="translate(853.8 520.61) rotate(-107.14)">l</text><text class="cls-17" transform="matrix(-0.26, -0.97, 0.97, -0.26, 852.99, 518.09)">e</text><text class="cls-17" transform="translate(851.6 513.47) rotate(-100.15)">，</text><text class="cls-17" transform="translate(849.68 501.81) rotate(-96.09)"> </text><text class="cls-17" transform="matrix(-0.08, -1, 1, -0.08, 849.41, 499.39)">t</text><text class="cls-17" transform="matrix(-0.02, -1, 1, -0.02, 849.1, 496.19)">w</text><text class="cls-17" transform="matrix(0.03, -1, 1, 0.03, 848.98, 488.49)">i</text><text class="cls-17" transform="matrix(0.07, -1, 1, 0.07, 849.01, 485.7)">n</text><text class="cls-17" transform="translate(849.46 479.52) rotate(-82.42)">k</text><text class="cls-17" transform="matrix(0.17, -0.98, 0.98, 0.17, 850.27, 473.73)">l</text><text class="cls-17" transform="translate(850.71 471.09) rotate(-77.79)">e</text><text class="cls-17" transform="translate(851.76 466.32) rotate(-75.68)"> </text><text class="cls-17" transform="translate(852.33 463.99) rotate(-73.57)">a</text><text class="cls-17" transform="translate(853.74 459.28) rotate(-71.37)">l</text><text class="cls-17" transform="translate(854.6 456.74) rotate(-69.82)">l</text><text class="cls-17" transform="translate(855.52 454.23) rotate(-68.35)"> </text><text class="cls-17" transform="translate(856.41 451.97) rotate(-66.7)">t</text><text class="cls-17" transform="translate(857.65 449) rotate(-64.01)">h</text><text class="cls-17" transform="translate(860.33 443.53) rotate(-60.86)">e</text><text class="cls-17" transform="matrix(0.52, -0.86, 0.86, 0.52, 862.73, 439.26)"> </text><text class="cls-17" transform="translate(863.94 437.19) rotate(-56.28)">n</text><text class="cls-17" transform="matrix(0.59, -0.81, 0.81, 0.59, 867.42, 432.04)">i</text><text class="cls-17" transform="translate(869.07 429.76) rotate(-51.4)">g</text><text class="cls-17" transform="translate(872.3 425.68) rotate(-48.17)">h</text><text class="cls-17" transform="translate(876.4 421.15) rotate(-45.51)">t</text><text class="cls-17" transform="translate(878.69 418.82) rotate(-43.78)">.</text></g><g id="图层_10" data-name="图层 10"><image width="3351" height="3243" transform="translate(706.65 675.42) scale(0.12)" xlink:href="QM-D_1_CAMERA-PIANTA.png"/></g></svg>