<?xml version="1.0" encoding="utf-8"?>
<!-- Generator: Adobe Illustrator 22.0.0, SVG Export Plug-In . SVG Version: 6.00 Build 0)  -->
<svg version="1.1" xmlns="http://www.w3.org/2000/svg" xmlns:xlink="http://www.w3.org/1999/xlink" x="0px" y="0px"
	 viewBox="0 0 1190.6 1190.6" style="enable-background:new 0 0 1190.6 1190.6;" xml:space="preserve">
<style type="text/css">
	.st0{fill:#78C8CA;}
	.st1{fill:none;stroke:#51AC5A;stroke-miterlimit:10;}
	.st2{fill:none;stroke:#0C4287;stroke-miterlimit:10;}
	.st3{fill:none;stroke:#DE5647;stroke-miterlimit:10;}
	.st4{display:none;}
	.st5{display:inline;}
	.st6{font-family:'OpenSansCondensed-Bold';}
	.st7{font-size:60px;}
	.st8{display:inline;fill:none;}
	.st9{font-family:'OpenSansCondensed-Light';}
	.st10{font-size:24px;}
	.st11{font-family:'EBGaramond-Italic';}
	.st12{font-size:10px;}
</style>
<g id="图层_1">
	<rect x="0" y="0" class="st0" width="1190.6" height="1190.6"/>
</g>
<g id="图层_2">
	<rect x="73.7" y="68.5" class="st1" width="239.5" height="239.5"/>
	<rect x="341.6" y="68.5" class="st1" width="239.5" height="239.5"/>
	<rect x="609.4" y="68.5" class="st1" width="239.5" height="239.5"/>
	<rect x="877.3" y="68.5" class="st1" width="239.5" height="239.5"/>
	<rect x="73.7" y="337.8" class="st1" width="239.5" height="239.5"/>
	<rect x="341.6" y="337.8" class="st1" width="239.5" height="239.5"/>
	<rect x="609.4" y="337.8" class="st1" width="239.5" height="239.5"/>
	<rect x="877.3" y="337.8" class="st1" width="239.5" height="239.5"/>
	<rect x="73.7" y="607.1" class="st1" width="239.5" height="239.5"/>
	<rect x="341.6" y="607.1" class="st1" width="239.5" height="239.5"/>
	<rect x="609.4" y="607.1" class="st1" width="239.5" height="239.5"/>
	<rect x="877.3" y="607.1" class="st1" width="239.5" height="239.5"/>
	<rect x="73.7" y="876.3" class="st1" width="239.5" height="239.5"/>
	<rect x="341.6" y="876.3" class="st1" width="239.5" height="239.5"/>
	<rect x="609.4" y="876.3" class="st1" width="239.5" height="239.5"/>
	<rect x="877.3" y="876.3" class="st1" width="239.5" height="239.5"/>
</g>
<g id="图层_3">
	<rect x="73.7" y="68.5" class="st2" width="184.3" height="184.3"/>
	<rect x="288.7" y="68.5" class="st2" width="184.3" height="184.3"/>
	<rect x="503.7" y="68.5" class="st2" width="184.3" height="184.3"/>
	<rect x="718.8" y="68.5" class="st2" width="184.3" height="184.3"/>
	<rect x="933.8" y="68.5" class="st2" width="184.3" height="184.3"/>
	<rect x="73.7" y="283.5" class="st2" width="184.3" height="184.3"/>
	<rect x="288.7" y="283.5" class="st2" width="184.3" height="184.3"/>
	<rect x="503.7" y="283.5" class="st2" width="184.3" height="184.3"/>
	<rect x="718.8" y="283.5" class="st2" width="184.3" height="184.3"/>
	<rect x="933.8" y="283.5" class="st2" width="184.3" height="184.3"/>
	<rect x="73.7" y="498.5" class="st2" width="184.3" height="184.3"/>
	<rect x="288.7" y="498.5" class="st2" width="184.3" height="184.3"/>
	<rect x="503.7" y="498.5" class="st2" width="184.3" height="184.3"/>
	<rect x="718.8" y="498.5" class="st2" width="184.3" height="184.3"/>
	<rect x="933.8" y="498.5" class="st2" width="184.3" height="184.3"/>
	<rect x="73.7" y="713.5" class="st2" width="184.3" height="184.3"/>
	<rect x="288.7" y="713.5" class="st2" width="184.3" height="184.3"/>
	<rect x="503.7" y="713.5" class="st2" width="184.3" height="184.3"/>
	<rect x="718.8" y="713.5" class="st2" width="184.3" height="184.3"/>
	<rect x="933.8" y="713.5" class="st2" width="184.3" height="184.3"/>
	<rect x="73.1" y="931.6" class="st2" width="184.3" height="184.3"/>
	<rect x="288.1" y="931.6" class="st2" width="184.3" height="184.3"/>
	<rect x="503.1" y="931.6" class="st2" width="184.3" height="184.3"/>
	<rect x="718.2" y="931.6" class="st2" width="184.3" height="184.3"/>
	<rect x="933.2" y="931.6" class="st2" width="184.3" height="184.3"/>
</g>
<g id="图层_4">
	<rect x="73.1" y="68.5" class="st3" width="147.4" height="147.4"/>
	<rect x="251.8" y="68.5" class="st3" width="147.4" height="147.4"/>
	<rect x="430.5" y="68.5" class="st3" width="147.4" height="147.4"/>
	<rect x="612.6" y="68.5" class="st3" width="147.4" height="147.4"/>
	<rect x="787.7" y="68.5" class="st3" width="147.4" height="147.4"/>
	<rect x="969.4" y="68.5" class="st3" width="147.4" height="147.4"/>
	<rect x="74.8" y="244.1" class="st3" width="147.4" height="147.4"/>
	<rect x="253.5" y="244.1" class="st3" width="147.4" height="147.4"/>
	<rect x="432.2" y="244.1" class="st3" width="147.4" height="147.4"/>
	<rect x="614.3" y="244.1" class="st3" width="147.4" height="147.4"/>
	<rect x="789.3" y="244.1" class="st3" width="147.4" height="147.4"/>
	<rect x="971.1" y="244.1" class="st3" width="147.4" height="147.4"/>
	<rect x="74.8" y="419.7" class="st3" width="147.4" height="147.4"/>
	<rect x="253.5" y="419.7" class="st3" width="147.4" height="147.4"/>
	<rect x="432.2" y="419.7" class="st3" width="147.4" height="147.4"/>
	<rect x="614.3" y="419.7" class="st3" width="147.4" height="147.4"/>
	<rect x="789.3" y="419.7" class="st3" width="147.4" height="147.4"/>
	<rect x="971.1" y="419.7" class="st3" width="147.4" height="147.4"/>
	<rect x="72.1" y="595.3" class="st3" width="147.4" height="147.4"/>
	<rect x="250.8" y="595.3" class="st3" width="147.4" height="147.4"/>
	<rect x="429.5" y="595.3" class="st3" width="147.4" height="147.4"/>
	<rect x="611.6" y="595.3" class="st3" width="147.4" height="147.4"/>
	<rect x="786.6" y="595.3" class="st3" width="147.4" height="147.4"/>
	<rect x="968.4" y="595.3" class="st3" width="147.4" height="147.4"/>
	<rect x="73.4" y="779.6" class="st3" width="147.4" height="147.4"/>
	<rect x="252.1" y="779.6" class="st3" width="147.4" height="147.4"/>
	<rect x="430.8" y="779.6" class="st3" width="147.4" height="147.4"/>
	<rect x="612.9" y="779.6" class="st3" width="147.4" height="147.4"/>
	<rect x="788" y="779.6" class="st3" width="147.4" height="147.4"/>
	<rect x="969.7" y="779.6" class="st3" width="147.4" height="147.4"/>
	<rect x="72.1" y="968.5" class="st3" width="147.4" height="147.4"/>
	<rect x="250.8" y="968.5" class="st3" width="147.4" height="147.4"/>
	<rect x="429.5" y="968.5" class="st3" width="147.4" height="147.4"/>
	<rect x="611.6" y="968.5" class="st3" width="147.4" height="147.4"/>
	<rect x="786.6" y="968.5" class="st3" width="147.4" height="147.4"/>
	<rect x="968.4" y="968.5" class="st3" width="147.4" height="147.4"/>
</g>
<g id="图层_7">
	<g>
		<defs>
			<rect id="SVGID_1_" x="756.2" y="69.8" width="361" height="250"/>
		</defs>
		<clipPath id="SVGID_2_">
			<use xlink:href="#SVGID_1_"  style="overflow:visible;"/>
		</clipPath>
		<g style="clip-path:url(#SVGID_2_);">
			
				<image style="overflow:visible;" width="800" height="250" xlink:href="896446_03.jpg"  transform="matrix(1 0 0 1 317.248 69.7805)">
			</image>
		</g>
	</g>
</g>
<g id="图层_6" class="st4">
	<text transform="matrix(1 0 0 1 125.6138 134.6133)" class="st5 st6 st7">ESERCIZI  DI  VECTORS</text>
	<rect x="82.1" y="254.3" class="st8" width="604.2" height="244.3"/>
	<text transform="matrix(1 0 0 1 82.1461 274.8218)" class="st5"><tspan x="0" y="0" class="st9 st10">Lorem ipsum dolor sit amet, consectetur adipiscing elit, sed do eiusmod </tspan><tspan x="0" y="28.8" class="st9 st10">tempor incididunt ut labore et dolore magna aliqua. Ut enim ad minim </tspan><tspan x="0" y="57.6" class="st9 st10">veniam, quis nostrud exercitation ullamco laboris nisi ut aliquip ex ea commo</tspan><tspan x="597.1" y="57.6" class="st9 st10">-</tspan><tspan x="0" y="86.4" class="st9 st10">do consequat. Duis aute irure dolor in reprehenderit in voluptate velit esse </tspan><tspan x="0" y="115.2" class="st9 st10">cillum dolore eu fugiat nulla pariatur. Excepteur sint occaecat cupidatat non </tspan><tspan x="0" y="144" class="st9 st10">proident, sunt in culpa qui officia deserunt mollit anim id est laborum.</tspan></text>
	<rect x="429.5" y="742.7" class="st8" width="338.1" height="233.4"/>
	<text transform="matrix(1 0 0 1 429.4863 750.9268)" class="st5"><tspan x="0" y="0" class="st11 st12">The dark blue sky you keep </tspan><tspan x="0" y="24" class="st11 st12">And often thro&apos; my curtains peep</tspan><tspan x="0" y="48" class="st11 st12">For you never shut your eye </tspan><tspan x="0" y="72" class="st11 st12">Till the sun is in the sky.</tspan></text>
</g>
<g id="图层_8" class="st4">
	<path id="SVGID_x5F_3_x5F_" class="st8" d="M1002.8,567.1c0,55.1-44.7,99.8-99.8,99.8c-55.1,0-99.8-44.7-99.8-99.8
		c0-55.1,44.7-99.8,99.8-99.8C958.1,467.4,1002.8,512.1,1002.8,567.1z"/>
	<text class="st5">	<textPath  xlink:href="#SVGID_x5F_3_x5F_" startOffset="92.6757%">
<tspan  style="font-family:'AdobeSongStd-Light-GBpc-EUC-H'; font-size:12px;">W</tspan><tspan  style="font-family:'AdobeSongStd-Light-GBpc-EUC-H'; font-size:14px;">hen the blazing sun is gone，When he nothing shines upon，Then you show your little light，Twinkle， twinkle all the night</tspan><tspan  style="font-family:'AdobeSongStd-Light-GBpc-EUC-H'; font-size:12px;">.Then you show your little light，Twinkle， twinkle all the night.When he nothing shines upon，Then you show your little light，Twinkle， twinkle all the night.</tspan><tspan  class="st12" style="font-family:'AdobeSongStd-Light-GBpc-EUC-H';">　　When he nothing shines upon，它已不再照万物，　　Then you show your little light，你就显露些微光，　　Twinkle， twinkle all the night.</tspan>	</textPath>
</text>
</g>
<g id="图层_9" class="st4">
	<g class="st5">
		<defs>
			<circle id="SVGID_4_" cx="241.5" cy="870.7" r="143.9"/>
		</defs>
		<clipPath id="SVGID_5_">
			<use xlink:href="#SVGID_4_"  style="overflow:visible;"/>
		</clipPath>
		<g style="clip-path:url(#SVGID_5_);">
			
				<image style="overflow:visible;" width="750" height="937" xlink:href="896446_05.jpg"  transform="matrix(0.4682 0 0 0.4682 63.1952 693.0761)">
			</image>
		</g>
	</g>
</g>
<g id="图层_10" class="st4">
</g>
</svg>
