<svg xmlns="http://www.w3.org/2000/svg" xmlns:xlink="http://www.w3.org/1999/xlink" viewBox="0 0 1190.55 1190.55"><defs><style>.cls-1,.cls-3,.cls-4,.cls-5{fill:none;}.cls-2{fill:#fffddf;}.cls-3{stroke:#fbb03b;}.cls-3,.cls-4,.cls-5{stroke-miterlimit:10;}.cls-4{stroke:#ff8af3;}.cls-5{stroke:#006837;}.cls-6{font-size:60px;font-family:OpenSans-CondensedBold, Open Sans Condensed;}.cls-20,.cls-6{font-weight:700;}.cls-7{font-size:16px;font-family:OpenSans-CondensedLight, Open Sans;}.cls-8{letter-spacing:0.15em;}.cls-9{letter-spacing:0.15em;}.cls-10{letter-spacing:-0.01em;}.cls-11{letter-spacing:-0.01em;}.cls-12{letter-spacing:0.1em;}.cls-13{letter-spacing:0.1em;}.cls-14{letter-spacing:0.15em;}.cls-15{letter-spacing:0.15em;}.cls-16{letter-spacing:0.12em;}.cls-17{letter-spacing:0.12em;}.cls-18{letter-spacing:0.25em;}.cls-19{letter-spacing:0.25em;}.cls-20{font-size:10px;font-family:EBGaramond-SemiBoldItalic, EB Garamond;font-style:italic;}.cls-21{letter-spacing:-0.02em;}.cls-22{letter-spacing:-0.01em;}.cls-23{letter-spacing:-0.01em;}.cls-24{letter-spacing:-0.04em;}.cls-25{letter-spacing:-0.02em;}.cls-26{letter-spacing:-0.04em;}.cls-27{letter-spacing:-0.01em;}.cls-28{letter-spacing:-0.02em;}.cls-29{letter-spacing:-0.01em;}.cls-30{letter-spacing:-0.01em;}.cls-31{letter-spacing:-0.02em;}.cls-32{font-size:12px;font-family:AdobeSongStd-Light-GBpc-EUC-H, Adobe Song Std;letter-spacing:0em;}.cls-33{clip-path:url(#clip-path);}.cls-34{isolation:isolate;}</style><clipPath id="clip-path"><circle class="cls-1" cx="392.6" cy="696.68" r="119.83"/></clipPath></defs><title>896414_06</title><g id="图层_1" data-name="图层 1"><rect class="cls-2" width="1190.55" height="1190.55"/><rect class="cls-3" x="60.94" y="60.94" width="239.53" height="239.53"/><rect class="cls-3" x="337.32" y="60.94" width="239.53" height="239.53"/><rect class="cls-3" x="613.7" y="60.94" width="239.53" height="239.53"/><rect class="cls-3" x="890.08" y="60.94" width="239.53" height="239.53"/><rect class="cls-3" x="60.94" y="337.32" width="239.53" height="239.53"/><rect class="cls-3" x="60.94" y="613.7" width="239.53" height="239.53"/><rect class="cls-3" x="60.94" y="890.08" width="239.53" height="239.53"/><rect class="cls-3" x="337.32" y="337.32" width="239.53" height="239.53"/><rect class="cls-3" x="337.32" y="613.7" width="239.53" height="239.53"/><rect class="cls-3" x="337.32" y="890.08" width="239.53" height="239.53"/><rect class="cls-3" x="613.7" y="337.32" width="239.53" height="239.53"/><rect class="cls-3" x="613.7" y="613.7" width="239.53" height="239.53"/><rect class="cls-3" x="613.7" y="890.08" width="239.53" height="239.53"/><rect class="cls-3" x="890.08" y="337.32" width="239.53" height="239.53"/><rect class="cls-3" x="890.08" y="613.7" width="239.53" height="239.53"/><rect class="cls-3" x="890.08" y="890.08" width="239.53" height="239.53"/></g><g id="图层_2" data-name="图层 2"><rect class="cls-4" x="60.94" y="60.94" width="184.25" height="184.25"/><rect class="cls-4" x="282.05" y="60.94" width="184.25" height="184.25"/><rect class="cls-4" x="60.94" y="282.05" width="184.25" height="184.25"/><rect class="cls-4" x="503.15" y="60.94" width="184.25" height="184.25"/><rect class="cls-4" x="60.94" y="503.15" width="184.25" height="184.25"/><rect class="cls-4" x="724.25" y="60.94" width="184.25" height="184.25"/><rect class="cls-4" x="60.94" y="724.25" width="184.25" height="184.25"/><rect class="cls-4" x="945.35" y="60.94" width="184.25" height="184.25"/><rect class="cls-4" x="60.94" y="945.35" width="184.25" height="184.25"/><rect class="cls-4" x="282.05" y="282.05" width="184.25" height="184.25"/><rect class="cls-4" x="282.05" y="503.15" width="184.25" height="184.25"/><rect class="cls-4" x="282.05" y="724.25" width="184.25" height="184.25"/><rect class="cls-4" x="282.05" y="945.35" width="184.25" height="184.25"/><rect class="cls-4" x="503.15" y="282.05" width="184.25" height="184.25"/><rect class="cls-4" x="503.15" y="503.15" width="184.25" height="184.25"/><rect class="cls-4" x="503.15" y="724.25" width="184.25" height="184.25"/><rect class="cls-4" x="503.15" y="945.35" width="184.25" height="184.25"/><rect class="cls-4" x="724.25" y="282.05" width="184.25" height="184.25"/><rect class="cls-4" x="724.25" y="503.15" width="184.25" height="184.25"/><rect class="cls-4" x="724.25" y="724.25" width="184.25" height="184.25"/><rect class="cls-4" x="724.25" y="945.35" width="184.25" height="184.25"/><rect class="cls-4" x="945.35" y="282.05" width="184.25" height="184.25"/><rect class="cls-4" x="945.35" y="503.15" width="184.25" height="184.25"/><rect class="cls-4" x="945.35" y="724.25" width="184.25" height="184.25"/><rect class="cls-4" x="945.35" y="945.35" width="184.25" height="184.25"/></g><g id="图层_3" data-name="图层 3"><rect class="cls-5" x="60.94" y="60.94" width="147.4" height="147.4"/><rect class="cls-5" x="245.2" y="60.94" width="147.4" height="147.4"/><rect class="cls-5" x="60.94" y="245.2" width="147.4" height="147.4"/><rect class="cls-5" x="429.45" y="60.94" width="147.4" height="147.4"/><rect class="cls-5" x="613.7" y="60.94" width="147.4" height="147.4"/><rect class="cls-5" x="60.94" y="429.45" width="147.4" height="147.4"/><rect class="cls-5" x="60.94" y="613.7" width="147.4" height="147.4"/><rect class="cls-5" x="60.94" y="797.95" width="147.4" height="147.4"/><rect class="cls-5" x="60.94" y="982.2" width="147.4" height="147.4"/><rect class="cls-5" x="797.95" y="60.94" width="147.4" height="147.4"/><rect class="cls-5" x="982.2" y="60.94" width="147.4" height="147.4"/><rect class="cls-5" x="245.2" y="245.2" width="147.4" height="147.4"/><rect class="cls-5" x="245.2" y="429.45" width="147.4" height="147.4"/><rect class="cls-5" x="245.2" y="613.7" width="147.4" height="147.4"/><rect class="cls-5" x="245.2" y="797.95" width="147.4" height="147.4"/><rect class="cls-5" x="245.2" y="982.2" width="147.4" height="147.4"/><rect class="cls-5" x="429.45" y="982.2" width="147.4" height="147.4"/><rect class="cls-5" x="429.45" y="797.95" width="147.4" height="147.4"/><rect class="cls-5" x="429.45" y="613.7" width="147.4" height="147.4"/><rect class="cls-5" x="429.45" y="429.45" width="147.4" height="147.4"/><rect class="cls-5" x="429.45" y="245.2" width="147.4" height="147.4"/><rect class="cls-5" x="613.7" y="245.2" width="147.4" height="147.4"/><rect class="cls-5" x="613.7" y="429.45" width="147.4" height="147.4"/><rect class="cls-5" x="613.7" y="613.7" width="147.4" height="147.4"/><rect class="cls-5" x="613.7" y="797.95" width="147.4" height="147.4"/><rect class="cls-5" x="613.7" y="982.2" width="147.4" height="147.4"/><rect class="cls-5" x="797.95" y="245.2" width="147.4" height="147.4"/><rect class="cls-5" x="797.95" y="429.45" width="147.4" height="147.4"/><rect class="cls-5" x="797.95" y="613.7" width="147.4" height="147.4"/><rect class="cls-5" x="797.95" y="797.95" width="147.4" height="147.4"/><rect class="cls-5" x="797.95" y="982.2" width="147.4" height="147.4"/><rect class="cls-5" x="982.2" y="245.2" width="147.4" height="147.4"/><rect class="cls-5" x="982.2" y="418.5" width="147.4" height="147.4"/><rect class="cls-5" x="982.2" y="613.7" width="147.4" height="147.4"/><rect class="cls-5" x="982.2" y="797.95" width="147.4" height="147.4"/><rect class="cls-5" x="982.2" y="982.2" width="147.4" height="147.4"/></g><g id="图层_4" data-name="图层 4"><text class="cls-6" transform="translate(84.94 145.23)">Esercitazione 6</text><text class="cls-7" transform="translate(75.77 258.91)">Lorem<tspan class="cls-8" x="33.02" y="0"> </tspan><tspan x="38.35" y="0">ipsum</tspan><tspan class="cls-8" x="70.35" y="0"> </tspan><tspan x="75.68" y="0">dolor</tspan><tspan class="cls-9" x="103.31" y="0"> </tspan><tspan x="108.64" y="0">sit</tspan><tspan class="cls-8" x="120.19" y="0"> </tspan><tspan x="125.52" y="0">amet,</tspan><tspan class="cls-8" x="154.91" y="0"> </tspan><tspan x="160.24" y="0">consectetur</tspan><tspan class="cls-8" x="219.36" y="0"> </tspan><tspan x="224.69" y="0">adipisci</tspan><tspan class="cls-8" x="263.79" y="0"> </tspan><tspan x="269.12" y="0">elit,</tspan><tspan class="cls-9" x="288.22" y="0"> </tspan><tspan x="293.55" y="0">sed</tspan><tspan class="cls-8" x="311.83" y="0"> </tspan><tspan x="317.17" y="0">eiusmod</tspan><tspan class="cls-8" x="362.08" y="0"> </tspan><tspan x="367.41" y="0">tempor </tspan><tspan x="0" y="24">incidunt</tspan><tspan class="cls-10" x="41.85" y="24"> </tspan><tspan x="44.68" y="24">ut</tspan><tspan class="cls-10" x="54.98" y="24"> </tspan><tspan x="57.8" y="24">labore</tspan><tspan class="cls-10" x="91.2" y="24"> </tspan><tspan x="94.02" y="24">et</tspan><tspan class="cls-11" x="103.8" y="24"> </tspan><tspan x="106.62" y="24">dolore</tspan><tspan class="cls-10" x="140.53" y="24"> </tspan><tspan x="143.35" y="24">magna</tspan><tspan class="cls-10" x="178.37" y="24"> </tspan><tspan x="181.19" y="24">aliqua.</tspan><tspan class="cls-10" x="216.53" y="24"> </tspan><tspan x="219.35" y="24">Ut</tspan><tspan class="cls-10" x="230.77" y="24"> </tspan><tspan x="233.59" y="24">enim</tspan><tspan class="cls-10" x="259.85" y="24"> </tspan><tspan x="262.68" y="24">ad</tspan><tspan class="cls-11" x="275.78" y="24"> </tspan><tspan x="278.6" y="24">minim</tspan><tspan class="cls-10" x="311.77" y="24"> </tspan><tspan x="314.6" y="24">veniam,</tspan><tspan class="cls-10" x="355.38" y="24"> </tspan><tspan x="358.2" y="24">quis</tspan><tspan class="cls-10" x="380.02" y="24"> </tspan><tspan x="382.85" y="24">nos</tspan><tspan x="401.32" y="24">-</tspan><tspan x="0" y="48">trum</tspan><tspan class="cls-12" x="24.85" y="48"> </tspan><tspan x="29.4" y="48">exercitationem</tspan><tspan class="cls-13" x="105.6" y="48"> </tspan><tspan x="110.14" y="48">ullam</tspan><tspan class="cls-12" x="139.26" y="48"> </tspan><tspan x="143.8" y="48">corporis</tspan><tspan class="cls-13" x="185.8" y="48"> </tspan><tspan x="190.34" y="48">suscipit</tspan><tspan class="cls-12" x="228.68" y="48"> </tspan><tspan x="233.22" y="48">laboriosam,</tspan><tspan class="cls-12" x="294.63" y="48"> </tspan><tspan x="299.17" y="48">nisi</tspan><tspan class="cls-13" x="317.03" y="48"> </tspan><tspan x="321.57" y="48">ut</tspan><tspan class="cls-12" x="331.87" y="48"> </tspan><tspan x="336.42" y="48">aliquid</tspan><tspan class="cls-13" x="372.31" y="48"> </tspan><tspan x="376.86" y="48">ex</tspan><tspan class="cls-12" x="388.41" y="48"> </tspan><tspan x="392.96" y="48">ea </tspan><tspan x="0" y="72">commodi</tspan><tspan class="cls-14" x="48.59" y="72"> </tspan><tspan x="54.07" y="72">consequatur.</tspan><tspan class="cls-14" x="121.65" y="72"> </tspan><tspan x="127.13" y="72">Quis</tspan><tspan class="cls-14" x="150.3" y="72"> </tspan><tspan x="155.78" y="72">aute</tspan><tspan class="cls-14" x="178.48" y="72"> </tspan><tspan x="183.97" y="72">iure</tspan><tspan class="cls-15" x="204.41" y="72"> </tspan><tspan x="209.9" y="72">reprehenderit</tspan><tspan class="cls-14" x="282.15" y="72"> </tspan><tspan x="287.64" y="72">in</tspan><tspan class="cls-14" x="297.44" y="72"> </tspan><tspan x="302.93" y="72">voluptate</tspan><tspan class="cls-14" x="350.86" y="72"> </tspan><tspan x="356.35" y="72">velit</tspan><tspan class="cls-14" x="377.25" y="72"> </tspan><tspan x="382.73" y="72">esse </tspan><tspan x="0" y="96">cillum</tspan><tspan class="cls-16" x="30.96" y="96"> </tspan><tspan x="35.83" y="96">dolore</tspan><tspan class="cls-16" x="69.74" y="96"> </tspan><tspan x="74.61" y="96">eu</tspan><tspan class="cls-17" x="87.68" y="96"> </tspan><tspan x="92.56" y="96">fugiat</tspan><tspan class="cls-16" x="121.32" y="96"> </tspan><tspan x="126.19" y="96">nulla</tspan><tspan class="cls-16" x="151.93" y="96"> </tspan><tspan x="156.8" y="96">pariatur.</tspan><tspan class="cls-16" x="201.37" y="96"> </tspan><tspan x="206.25" y="96">Excepteur</tspan><tspan class="cls-16" x="256.84" y="96"> </tspan><tspan x="261.71" y="96">sint</tspan><tspan class="cls-17" x="280.06" y="96"> </tspan><tspan x="284.94" y="96">obcaecat</tspan><tspan class="cls-16" x="330.51" y="96"> </tspan><tspan x="335.38" y="96">cupiditat</tspan><tspan class="cls-16" x="380.25" y="96"> </tspan><tspan x="385.12" y="96">non </tspan><tspan x="0" y="120">proident,</tspan><tspan class="cls-18" x="47.84" y="120"> </tspan><tspan x="54.78" y="120">sunt</tspan><tspan class="cls-19" x="76.92" y="120"> </tspan><tspan x="83.86" y="120">in</tspan><tspan class="cls-18" x="93.66" y="120"> </tspan><tspan x="100.6" y="120">culpa</tspan><tspan class="cls-19" x="128.47" y="120"> </tspan><tspan x="135.41" y="120">qui</tspan><tspan class="cls-18" x="152.19" y="120"> </tspan><tspan x="159.13" y="120">officia</tspan><tspan class="cls-19" x="190.04" y="120"> </tspan><tspan x="196.98" y="120">deserunt</tspan><tspan class="cls-18" x="243.01" y="120"> </tspan><tspan x="249.95" y="120">mollit</tspan><tspan class="cls-19" x="279.3" y="120"> </tspan><tspan x="286.24" y="120">anim</tspan><tspan class="cls-18" x="312.35" y="120"> </tspan><tspan x="319.28" y="120">id</tspan><tspan class="cls-19" x="329.27" y="120"> </tspan><tspan x="336.21" y="120">est</tspan><tspan class="cls-18" x="351.03" y="120"> </tspan><tspan x="357.96" y="120">laborum.</tspan></text><text class="cls-20" transform="translate(60.94 953.6)"><tspan xml:space="preserve"> è m</tspan><tspan class="cls-21" x="16.34" y="0">o</tspan><tspan x="20.46" y="0">lto e</tspan><tspan class="cls-22" x="37.14" y="0">ffi</tspan><tspan x="46.25" y="0">ca</tspan><tspan class="cls-23" x="54.99" y="0">c</tspan><tspan x="58.41" y="0">e g</tspan><tspan class="cls-24" x="68.84" y="0">r</tspan><tspan class="cls-25" x="72.78" y="0">a</tspan><tspan x="77.8" y="0">z</tspan><tspan class="cls-22" x="82.3" y="0">i</tspan><tspan x="85.4" y="0">e sop</tspan><tspan class="cls-26" x="103.67" y="0">r</tspan><tspan class="cls-27" x="107.61" y="0">a</tspan><tspan x="112.78" y="0">ttutto </tspan><tspan class="cls-28" x="138.62" y="0">a</tspan><tspan class="cls-29" x="143.67" y="0">l</tspan><tspan x="146.56" y="0">l&apos;</tspan><tspan class="cls-21" x="151.85" y="0">a</tspan><tspan x="156.9" y="0">ltern</tspan><tspan class="cls-28" x="177.07" y="0">a</tspan><tspan x="182.12" y="0">nza di p</tspan><tspan class="cls-21" x="215.77" y="0">a</tspan><tspan class="cls-30" x="220.82" y="0">r</tspan><tspan class="cls-21" x="225.05" y="0">o</tspan><tspan x="229.17" y="0">le l</tspan><tspan class="cls-31" x="241.17" y="0">u</tspan><tspan x="246.69" y="0">n</tspan><tspan class="cls-21" x="252.44" y="0">g</tspan><tspan x="256.75" y="0">he e b</tspan><tspan class="cls-30" x="278.98" y="0">r</tspan><tspan x="283.21" y="0">evi, p</tspan><tspan class="cls-29" x="304.37" y="0">u</tspan><tspan x="309.89" y="0">nteggi</tspan><tspan class="cls-30" x="334.92" y="0">a</tspan><tspan x="340.09" y="0">t</tspan><tspan class="cls-29" x="343.49" y="0">u</tspan><tspan class="cls-24" x="349.01" y="0">r</tspan><tspan x="352.95" y="0">a e p</tspan><tspan class="cls-28" x="371.36" y="0">a</tspan><tspan class="cls-24" x="376.41" y="0">r</tspan><tspan x="380.35" y="0">ag</tspan><tspan class="cls-26" x="390.11" y="0">ra</tspan><tspan x="394.05" y="0">fi.</tspan></text><image width="564" height="1974" transform="translate(60.95 1130.19) rotate(-90) scale(0.43 0.54)" xlink:href="896414_06.jpg"/><text class="cls-32" transform="translate(724.25 255.76)"> </text></g><g id="图层_5" data-name="图层 5"><g id="图层_4-2" data-name="图层 4"><g class="cls-33"><image class="cls-34" width="1061" height="1600" transform="translate(265.28 533.62) scale(0.24)" xlink:href="896414_05.jpg"/></g></g></g></svg>