<svg xmlns="http://www.w3.org/2000/svg" xmlns:xlink="http://www.w3.org/1999/xlink" viewBox="0 0 1190.55 1190.55"><defs><style>.cls-1{fill:#78c8ca;}.cls-2,.cls-3,.cls-4{fill:none;stroke-miterlimit:10;}.cls-2{stroke:#51ac5a;}.cls-3{stroke:#0c4287;}.cls-4{stroke:#de5647;}</style></defs><title>896446_03</title><g id="图层_1" data-name="图层 1"><rect class="cls-1" width="1190.55" height="1190.55"/></g><g id="图层_2" data-name="图层 2"><rect class="cls-2" x="73.7" y="68.47" width="239.53" height="239.53"/><rect class="cls-2" x="341.57" y="68.47" width="239.53" height="239.53"/><rect class="cls-2" x="609.45" y="68.47" width="239.53" height="239.53"/><rect class="cls-2" x="877.32" y="68.47" width="239.53" height="239.53"/><rect class="cls-2" x="73.7" y="337.76" width="239.53" height="239.53"/><rect class="cls-2" x="341.57" y="337.76" width="239.53" height="239.53"/><rect class="cls-2" x="609.45" y="337.76" width="239.53" height="239.53"/><rect class="cls-2" x="877.32" y="337.76" width="239.53" height="239.53"/><rect class="cls-2" x="73.7" y="607.06" width="239.53" height="239.53"/><rect class="cls-2" x="341.57" y="607.06" width="239.53" height="239.53"/><rect class="cls-2" x="609.45" y="607.06" width="239.53" height="239.53"/><rect class="cls-2" x="877.32" y="607.06" width="239.53" height="239.53"/><rect class="cls-2" x="73.7" y="876.35" width="239.53" height="239.53"/><rect class="cls-2" x="341.57" y="876.35" width="239.53" height="239.53"/><rect class="cls-2" x="609.45" y="876.35" width="239.53" height="239.53"/><rect class="cls-2" x="877.32" y="876.35" width="239.53" height="239.53"/></g><g id="图层_3" data-name="图层 3"><rect class="cls-3" x="73.7" y="68.47" width="184.25" height="184.25"/><rect class="cls-3" x="288.72" y="68.47" width="184.25" height="184.25"/><rect class="cls-3" x="503.73" y="68.47" width="184.25" height="184.25"/><rect class="cls-3" x="718.75" y="68.47" width="184.25" height="184.25"/><rect class="cls-3" x="933.77" y="68.47" width="184.25" height="184.25"/><rect class="cls-3" x="73.7" y="283.49" width="184.25" height="184.25"/><rect class="cls-3" x="288.72" y="283.49" width="184.25" height="184.25"/><rect class="cls-3" x="503.73" y="283.49" width="184.25" height="184.25"/><rect class="cls-3" x="718.75" y="283.49" width="184.25" height="184.25"/><rect class="cls-3" x="933.77" y="283.49" width="184.25" height="184.25"/><rect class="cls-3" x="73.7" y="498.51" width="184.25" height="184.25"/><rect class="cls-3" x="288.72" y="498.51" width="184.25" height="184.25"/><rect class="cls-3" x="503.73" y="498.51" width="184.25" height="184.25"/><rect class="cls-3" x="718.75" y="498.51" width="184.25" height="184.25"/><rect class="cls-3" x="933.77" y="498.51" width="184.25" height="184.25"/><rect class="cls-3" x="73.7" y="713.52" width="184.25" height="184.25"/><rect class="cls-3" x="288.72" y="713.52" width="184.25" height="184.25"/><rect class="cls-3" x="503.73" y="713.52" width="184.25" height="184.25"/><rect class="cls-3" x="718.75" y="713.52" width="184.25" height="184.25"/><rect class="cls-3" x="933.77" y="713.52" width="184.25" height="184.25"/><rect class="cls-3" x="73.12" y="931.62" width="184.25" height="184.25"/><rect class="cls-3" x="288.13" y="931.62" width="184.25" height="184.25"/><rect class="cls-3" x="503.15" y="931.62" width="184.25" height="184.25"/><rect class="cls-3" x="718.17" y="931.62" width="184.25" height="184.25"/><rect class="cls-3" x="933.18" y="931.62" width="184.25" height="184.25"/></g><g id="图层_4" data-name="图层 4"><rect class="cls-4" x="73.12" y="68.47" width="147.4" height="147.4"/><rect class="cls-4" x="251.83" y="68.47" width="147.4" height="147.4"/><rect class="cls-4" x="430.55" y="68.47" width="147.4" height="147.4"/><rect class="cls-4" x="612.64" y="68.47" width="147.4" height="147.4"/><rect class="cls-4" x="787.7" y="68.47" width="147.4" height="147.4"/><rect class="cls-4" x="969.45" y="68.47" width="147.4" height="147.4"/><rect class="cls-4" x="74.76" y="244.11" width="147.4" height="147.4"/><rect class="cls-4" x="253.48" y="244.11" width="147.4" height="147.4"/><rect class="cls-4" x="432.19" y="244.11" width="147.4" height="147.4"/><rect class="cls-4" x="614.28" y="244.11" width="147.4" height="147.4"/><rect class="cls-4" x="789.35" y="244.11" width="147.4" height="147.4"/><rect class="cls-4" x="971.09" y="244.11" width="147.4" height="147.4"/><rect class="cls-4" x="74.76" y="419.74" width="147.4" height="147.4"/><rect class="cls-4" x="253.48" y="419.74" width="147.4" height="147.4"/><rect class="cls-4" x="432.19" y="419.74" width="147.4" height="147.4"/><rect class="cls-4" x="614.28" y="419.74" width="147.4" height="147.4"/><rect class="cls-4" x="789.35" y="419.74" width="147.4" height="147.4"/><rect class="cls-4" x="971.09" y="419.74" width="147.4" height="147.4"/><rect class="cls-4" x="72.05" y="595.28" width="147.4" height="147.4"/><rect class="cls-4" x="250.77" y="595.28" width="147.4" height="147.4"/><rect class="cls-4" x="429.49" y="595.28" width="147.4" height="147.4"/><rect class="cls-4" x="611.58" y="595.28" width="147.4" height="147.4"/><rect class="cls-4" x="786.64" y="595.28" width="147.4" height="147.4"/><rect class="cls-4" x="968.39" y="595.28" width="147.4" height="147.4"/><rect class="cls-4" x="73.41" y="779.58" width="147.4" height="147.4"/><rect class="cls-4" x="252.12" y="779.58" width="147.4" height="147.4"/><rect class="cls-4" x="430.84" y="779.58" width="147.4" height="147.4"/><rect class="cls-4" x="612.93" y="779.58" width="147.4" height="147.4"/><rect class="cls-4" x="787.99" y="779.58" width="147.4" height="147.4"/><rect class="cls-4" x="969.74" y="779.58" width="147.4" height="147.4"/><rect class="cls-4" x="72.05" y="968.47" width="147.4" height="147.4"/><rect class="cls-4" x="250.77" y="968.47" width="147.4" height="147.4"/><rect class="cls-4" x="429.49" y="968.47" width="147.4" height="147.4"/><rect class="cls-4" x="611.58" y="968.47" width="147.4" height="147.4"/><rect class="cls-4" x="786.64" y="968.47" width="147.4" height="147.4"/><rect class="cls-4" x="968.39" y="968.47" width="147.4" height="147.4"/></g><g id="图层_6" data-name="图层 6"><image width="800" height="250" transform="translate(72.05 391.51) scale(1.31 1.55)" xlink:href="02562865440a076.jpg"/></g></svg>