<?xml version="1.0" encoding="utf-8"?>
<!-- Generator: Adobe Illustrator 22.0.0, SVG Export Plug-In . SVG Version: 6.00 Build 0)  -->
<svg version="1.1" id="图层_1" xmlns="http://www.w3.org/2000/svg" xmlns:xlink="http://www.w3.org/1999/xlink" x="0px" y="0px"
	 viewBox="0 0 1190.6 1190.6" style="enable-background:new 0 0 1190.6 1190.6;" xml:space="preserve">
<style type="text/css">
	.st0{fill:#78C8CA;}
	.st1{fill:none;stroke:#8441EF;stroke-miterlimit:10;}
	.st2{fill:none;stroke:#356825;stroke-miterlimit:10;}
	.st3{fill:none;stroke:#F25B19;stroke-miterlimit:10;}
	.st4{font-family:'OpenSansCondensed-Bold';}
	.st5{font-size:60px;}
	.st6{fill:none;}
	.st7{font-family:'OpenSansCondensed-Light';}
	.st8{font-size:24px;}
	.st9{font-family:'EBGaramond-Italic';}
	.st10{font-size:10px;}
	.st11{font-family:'AdobeSongStd-Light-GBpc-EUC-H';}
	.st12{font-size:12px;}
</style>
<title>896446_00</title>
<rect y="0" class="st0" width="1190.6" height="1190.6"/>
<g id="图层_1-2">
	<rect x="60.9" y="60.9" class="st1" width="239.5" height="239.5"/>
	<rect x="337.3" y="337.3" class="st1" width="239.5" height="239.5"/>
	<rect x="890.1" y="60.9" class="st1" width="239.5" height="239.5"/>
	<rect x="613.7" y="60.9" class="st1" width="239.5" height="239.5"/>
	<rect x="60.9" y="337.3" class="st1" width="239.5" height="239.5"/>
	<rect x="337.3" y="60.9" class="st1" width="239.5" height="239.5"/>
	<rect x="613.7" y="337.3" class="st1" width="239.5" height="239.5"/>
	<rect x="890.1" y="337.3" class="st1" width="239.5" height="239.5"/>
	<rect x="60.9" y="613.7" class="st1" width="239.5" height="239.5"/>
	<rect x="337.3" y="613.7" class="st1" width="239.5" height="239.5"/>
	<rect x="613.7" y="613.7" class="st1" width="239.5" height="239.5"/>
	<rect x="890.1" y="613.7" class="st1" width="239.5" height="239.5"/>
	<rect x="60.9" y="890.1" class="st1" width="239.5" height="239.5"/>
	<rect x="890.1" y="890.1" class="st1" width="239.5" height="239.5"/>
	<rect x="613.7" y="890.1" class="st1" width="239.5" height="239.5"/>
	<rect x="337.3" y="890.1" class="st1" width="239.5" height="239.5"/>
</g>
<g id="图层_2_1_">
	<rect x="60.9" y="60.9" class="st2" width="184.3" height="184.3"/>
	<rect x="282.1" y="60.9" class="st2" width="184.3" height="184.3"/>
	<rect x="503.2" y="60.9" class="st2" width="184.3" height="184.3"/>
	<rect x="503.2" y="503.2" class="st2" width="184.3" height="184.3"/>
	<rect x="724.3" y="503.2" class="st2" width="184.3" height="184.3"/>
	<rect x="282.1" y="503.2" class="st2" width="184.3" height="184.3"/>
	<rect x="60.9" y="503.2" class="st2" width="184.3" height="184.3"/>
	<rect x="945.4" y="282.1" class="st2" width="184.3" height="184.3"/>
	<rect x="724.3" y="282.1" class="st2" width="184.3" height="184.3"/>
	<rect x="503.2" y="282.1" class="st2" width="184.3" height="184.3"/>
	<rect x="282.1" y="282.1" class="st2" width="184.3" height="184.3"/>
	<rect x="60.9" y="282.1" class="st2" width="184.3" height="184.3"/>
	<rect x="945.4" y="60.9" class="st2" width="184.3" height="184.3"/>
	<rect x="724.3" y="60.9" class="st2" width="184.3" height="184.3"/>
	<rect x="945.4" y="503.2" class="st2" width="184.3" height="184.3"/>
	<rect x="503.2" y="724.3" class="st2" width="184.3" height="184.3"/>
	<rect x="282.1" y="945.4" class="st2" width="184.3" height="184.3"/>
	<rect x="724.3" y="945.4" class="st2" width="184.3" height="184.3"/>
	<rect x="503.2" y="945.4" class="st2" width="184.3" height="184.3"/>
	<rect x="724.3" y="724.3" class="st2" width="184.3" height="184.3"/>
	<rect x="282.1" y="724.3" class="st2" width="184.3" height="184.3"/>
	<rect x="60.9" y="945.4" class="st2" width="184.3" height="184.3"/>
	<rect x="60.9" y="724.3" class="st2" width="184.3" height="184.3"/>
	<rect x="945.4" y="724.3" class="st2" width="184.3" height="184.3"/>
	<rect x="945.4" y="945.4" class="st2" width="184.3" height="184.3"/>
</g>
<g id="图层_3">
	<rect x="60.9" y="60.9" class="st3" width="147.4" height="147.4"/>
	<rect x="245.2" y="60.9" class="st3" width="147.4" height="147.4"/>
	<rect x="60.9" y="245.2" class="st3" width="147.4" height="147.4"/>
	<rect x="60.9" y="429.5" class="st3" width="147.4" height="147.4"/>
	<rect x="60.9" y="613.7" class="st3" width="147.4" height="147.4"/>
	<rect x="60.9" y="798" class="st3" width="147.4" height="147.4"/>
	<rect x="60.9" y="982.2" class="st3" width="147.4" height="147.4"/>
	<rect x="429.5" y="60.9" class="st3" width="147.4" height="147.4"/>
	<rect x="613.7" y="60.9" class="st3" width="147.4" height="147.4"/>
	<rect x="798" y="60.9" class="st3" width="147.4" height="147.4"/>
	<rect x="982.2" y="60.9" class="st3" width="147.4" height="147.4"/>
	<rect x="245.2" y="245.2" class="st3" width="147.4" height="147.4"/>
	<rect x="245.2" y="429.5" class="st3" width="147.4" height="147.4"/>
	<rect x="429.5" y="245.2" class="st3" width="147.4" height="147.4"/>
	<rect x="613.7" y="245.2" class="st3" width="147.4" height="147.4"/>
	<rect x="798" y="245.2" class="st3" width="147.4" height="147.4"/>
	<rect x="982.2" y="245.2" class="st3" width="147.4" height="147.4"/>
	<rect x="429.5" y="429.5" class="st3" width="147.4" height="147.4"/>
	<rect x="613.7" y="429.5" class="st3" width="147.4" height="147.4"/>
	<rect x="798" y="429.5" class="st3" width="147.4" height="147.4"/>
	<rect x="982.2" y="429.5" class="st3" width="147.4" height="147.4"/>
	<rect x="245.2" y="613.7" class="st3" width="147.4" height="147.4"/>
	<rect x="245.2" y="798" class="st3" width="147.4" height="147.4"/>
	<rect x="245.2" y="982.2" class="st3" width="147.4" height="147.4"/>
	<rect x="429.5" y="613.7" class="st3" width="147.4" height="147.4"/>
	<rect x="429.5" y="798" class="st3" width="147.4" height="147.4"/>
	<rect x="429.5" y="982.2" class="st3" width="147.4" height="147.4"/>
	<rect x="613.7" y="613.7" class="st3" width="147.4" height="147.4"/>
	<rect x="613.7" y="798" class="st3" width="147.4" height="147.4"/>
	<rect x="798" y="613.7" class="st3" width="147.4" height="147.4"/>
	<rect x="982.2" y="613.7" class="st3" width="147.4" height="147.4"/>
	<rect x="798" y="798" class="st3" width="147.4" height="147.4"/>
	<rect x="982.2" y="798" class="st3" width="147.4" height="147.4"/>
	<rect x="613.7" y="982.2" class="st3" width="147.4" height="147.4"/>
	<rect x="798" y="982.2" class="st3" width="147.4" height="147.4"/>
	<rect x="982.2" y="982.2" class="st3" width="147.4" height="147.4"/>
</g>
<g>
	<defs>
		<rect id="SVGID_1_" x="761.1" y="60.9" width="372.4" height="250"/>
	</defs>
	<clipPath id="SVGID_2_">
		<use xlink:href="#SVGID_1_"  style="overflow:visible;"/>
	</clipPath>
	<g style="clip-path:url(#SVGID_2_);">
		
			<image style="overflow:visible;" width="800" height="250" xlink:href="896446_03.jpg"  transform="matrix(1 0 0 1 333.465 60.94)">
		</image>
	</g>
</g>
<g>
	<defs>
		<circle id="SVGID_3_" cx="254" cy="863.1" r="146"/>
	</defs>
	<clipPath id="SVGID_4_">
		<use xlink:href="#SVGID_3_"  style="overflow:visible;"/>
	</clipPath>
	<g style="clip-path:url(#SVGID_4_);">
		
			<image style="overflow:visible;" width="750" height="937" xlink:href="896446_05.jpg"  transform="matrix(0.5795 0 0 0.5795 64.7341 581.73)">
		</image>
	</g>
</g>
<g id="图层_6">
	<text transform="matrix(1 0 0 1 130.2137 123.6133)" class="st4 st5">ESERCIZI  DI  VECTORS</text>
	<rect x="86.7" y="243.3" class="st6" width="604.2" height="244.3"/>
	<text transform="matrix(1 0 0 1 86.7461 263.8219)" class="st7 st8">Lorem ipsum dolor sit amet, consectetur adipiscing elit, sed do eiusmod </text>
	<text transform="matrix(1 0 0 1 86.7461 292.6219)" class="st7 st8">tempor incididunt ut labore et dolore magna aliqua. Ut enim ad minim </text>
	<text transform="matrix(1 0 0 1 86.7461 321.4219)" class="st7 st8">veniam, quis nostrud exercitation ullamco laboris nisi ut aliquip ex ea commo</text>
	<text transform="matrix(1 0 0 1 683.8462 321.4219)" class="st7 st8">-</text>
	<text transform="matrix(1 0 0 1 86.7461 350.2219)" class="st7 st8">do consequat. Duis aute irure dolor in reprehenderit in voluptate velit esse </text>
	<text transform="matrix(1 0 0 1 86.7461 379.0219)" class="st7 st8">cillum dolore eu fugiat nulla pariatur. Excepteur sint occaecat cupidatat non </text>
	<text transform="matrix(1 0 0 1 86.7461 407.8219)" class="st7 st8">proident, sunt in culpa qui officia deserunt mollit anim id est laborum.</text>
	<rect x="434.1" y="731.7" class="st6" width="338.1" height="233.4"/>
	<text transform="matrix(1 0 0 1 434.0864 739.9269)" class="st9 st10">The dark blue sky you keep </text>
	<text transform="matrix(1 0 0 1 434.0864 763.9269)" class="st9 st10">And often thro&apos; my curtains peep</text>
	<text transform="matrix(1 0 0 1 434.0864 787.9269)" class="st9 st10">For you never shut your eye </text>
	<text transform="matrix(1 0 0 1 434.0864 811.9269)" class="st9 st10">Till the sun is in the sky.</text>
</g>
<circle class="st6" cx="940.7" cy="553.8" r="96.7"/>
<text transform="matrix(1 0 0 1 916.3369 467.645)"><tspan x="0" y="0" class="st11 st12">The time </tspan><tspan x="-31.1" y="14.4" class="st11 st12">that my journey takes is </tspan><tspan x="-47.4" y="28.8" class="st11 st12">long and the way of it long.I </tspan><tspan x="-58.2" y="43.2" class="st11 st12">came out on the chariot of the first </tspan><tspan x="-65.4" y="57.6" class="st11 st12">gleam of light, and pursued my voyage </tspan><tspan x="-69.9" y="72" class="st11 st12">through the wildernesses of worlds </tspan><tspan x="-72.1" y="86.4" class="st11 st12">leaving my track on many a star and </tspan><tspan x="-71.2" y="100.8" class="st11 st12">planet.</tspan><tspan x="-67.9" y="115.2" class="st11 st12">The time that my journey takes is long </tspan><tspan x="-62.1" y="129.6" class="st11 st12">and the way of it long.I came out on </tspan><tspan x="-53.2" y="144" class="st11 st12">the chariot of the first gleam of </tspan><tspan x="-40" y="158.4" class="st11 st12">light, and pursued my </tspan><tspan x="-18.7" y="172.8" class="st11 st12">voyage through </tspan></text>
</svg>
