<svg xmlns="http://www.w3.org/2000/svg" xmlns:xlink="http://www.w3.org/1999/xlink" viewBox="0 0 1190.6 1190.6"><defs><style>.cls-1,.cls-3,.cls-4,.cls-5{fill:none;}.cls-2{fill:#441391;}.cls-2,.cls-3{stroke:#00c1ff;}.cls-2,.cls-3,.cls-4,.cls-5{stroke-miterlimit:10;}.cls-4{stroke:lime;}.cls-5{stroke:#b90043;}.cls-6{font-size:60px;font-family:OpenSansCondensed-Bold, Open Sans Condensed;}.cls-7{font-weight:700;}.cls-8{font-size:16px;font-family:OpenSansCondensed-Light, Open Sans Condensed;}.cls-9{font-size:10px;font-family:EBGaramond-Italic, EB Garamond;font-style:italic;}.cls-10{letter-spacing:-0.02em;}.cls-11{letter-spacing:-0.03em;}.cls-12{letter-spacing:-0.04em;}.cls-13{letter-spacing:-0.02em;}.cls-14{letter-spacing:-0.07em;}.cls-15{letter-spacing:0em;}.cls-16{letter-spacing:-0.04em;}.cls-17{clip-path:url(#clip-path);}</style><clipPath id="clip-path"><circle class="cls-1" cx="669.61" cy="963.2" r="146.8"/></clipPath></defs><title>Mesa de trabajo 1</title><g id="Capa_1" data-name="Capa 1"><g id="Capa_1-2" data-name="Capa 1"><rect class="cls-2" width="1190.6" height="1190.6"/></g></g><g id="Capa_2" data-name="Capa 2"><rect class="cls-3" x="60.97" y="60.97" width="239.53" height="239.53"/><rect class="cls-3" x="337.35" y="60.97" width="239.53" height="239.53"/><rect class="cls-3" x="613.73" y="60.97" width="239.53" height="239.53"/><rect class="cls-3" x="890.1" y="60.97" width="239.53" height="239.53"/><rect class="cls-3" x="60.97" y="337.35" width="239.53" height="239.53"/><rect class="cls-3" x="337.35" y="337.35" width="239.53" height="239.53"/><rect class="cls-3" x="613.73" y="337.35" width="239.53" height="239.53"/><rect class="cls-3" x="890.1" y="337.35" width="239.53" height="239.53"/><rect class="cls-3" x="60.97" y="613.73" width="239.53" height="239.53"/><rect class="cls-3" x="337.35" y="613.73" width="239.53" height="239.53"/><rect class="cls-3" x="613.73" y="613.73" width="239.53" height="239.53"/><rect class="cls-3" x="890.1" y="613.73" width="239.53" height="239.53"/><rect class="cls-3" x="60.97" y="890.1" width="239.53" height="239.53"/><rect class="cls-3" x="337.35" y="890.1" width="239.53" height="239.53"/><rect class="cls-3" x="613.73" y="890.1" width="239.53" height="239.53"/><rect class="cls-3" x="890.1" y="890.1" width="239.53" height="239.53"/></g><g id="Capa_3" data-name="Capa 3"><rect class="cls-4" x="60.97" y="60.97" width="184.25" height="184.25"/><rect class="cls-4" x="282.07" y="60.97" width="184.25" height="184.25"/><rect class="cls-4" x="503.17" y="60.97" width="184.25" height="184.25"/><rect class="cls-4" x="724.28" y="60.97" width="184.25" height="184.25"/><rect class="cls-4" x="945.38" y="60.97" width="184.25" height="184.25"/><rect class="cls-4" x="60.97" y="282.07" width="184.25" height="184.25"/><rect class="cls-4" x="282.07" y="282.07" width="184.25" height="184.25"/><rect class="cls-4" x="503.17" y="282.07" width="184.25" height="184.25"/><rect class="cls-4" x="724.28" y="282.07" width="184.25" height="184.25"/><rect class="cls-4" x="945.38" y="282.07" width="184.25" height="184.25"/><rect class="cls-4" x="60.97" y="503.17" width="184.25" height="184.25"/><rect class="cls-4" x="282.07" y="503.17" width="184.25" height="184.25"/><rect class="cls-4" x="503.17" y="503.17" width="184.25" height="184.25"/><rect class="cls-4" x="724.28" y="503.17" width="184.25" height="184.25"/><rect class="cls-4" x="945.38" y="503.17" width="184.25" height="184.25"/><rect class="cls-4" x="60.97" y="724.28" width="184.25" height="184.25"/><rect class="cls-4" x="282.07" y="724.28" width="184.25" height="184.25"/><rect class="cls-4" x="503.17" y="724.28" width="184.25" height="184.25"/><rect class="cls-4" x="724.28" y="724.28" width="184.25" height="184.25"/><rect class="cls-4" x="945.38" y="724.28" width="184.25" height="184.25"/><rect class="cls-4" x="60.97" y="945.38" width="184.25" height="184.25"/><rect class="cls-4" x="282.07" y="945.38" width="184.25" height="184.25"/><rect class="cls-4" x="503.17" y="945.38" width="184.25" height="184.25"/><rect class="cls-4" x="724.28" y="945.38" width="184.25" height="184.25"/><rect class="cls-4" x="945.38" y="945.38" width="184.25" height="184.25"/></g><g id="Capa_4" data-name="Capa 4"><rect class="cls-5" x="60.97" y="60.97" width="147.4" height="147.4"/><rect class="cls-5" x="245.22" y="60.97" width="147.4" height="147.4"/><rect class="cls-5" x="429.47" y="60.97" width="147.4" height="147.4"/><rect class="cls-5" x="613.73" y="60.97" width="147.4" height="147.4"/><rect class="cls-5" x="797.98" y="60.97" width="147.4" height="147.4"/><rect class="cls-5" x="982.23" y="60.97" width="147.4" height="147.4"/><rect class="cls-5" x="60.97" y="245.22" width="147.4" height="147.4"/><rect class="cls-5" x="245.22" y="245.22" width="147.4" height="147.4"/><rect class="cls-5" x="429.47" y="245.22" width="147.4" height="147.4"/><rect class="cls-5" x="613.73" y="245.22" width="147.4" height="147.4"/><rect class="cls-5" x="797.98" y="245.22" width="147.4" height="147.4"/><rect class="cls-5" x="982.23" y="245.22" width="147.4" height="147.4"/><rect class="cls-5" x="60.97" y="429.47" width="147.4" height="147.4"/><rect class="cls-5" x="245.22" y="429.47" width="147.4" height="147.4"/><rect class="cls-5" x="429.47" y="429.47" width="147.4" height="147.4"/><rect class="cls-5" x="613.73" y="429.47" width="147.4" height="147.4"/><rect class="cls-5" x="797.98" y="429.47" width="147.4" height="147.4"/><rect class="cls-5" x="982.23" y="429.47" width="147.4" height="147.4"/><rect class="cls-5" x="60.97" y="613.73" width="147.4" height="147.4"/><rect class="cls-5" x="245.22" y="613.73" width="147.4" height="147.4"/><rect class="cls-5" x="429.47" y="613.73" width="147.4" height="147.4"/><rect class="cls-5" x="613.73" y="613.73" width="147.4" height="147.4"/><rect class="cls-5" x="797.98" y="613.73" width="147.4" height="147.4"/><rect class="cls-5" x="982.23" y="613.73" width="147.4" height="147.4"/><rect class="cls-5" x="60.97" y="797.98" width="147.4" height="147.4"/><rect class="cls-5" x="245.22" y="797.98" width="147.4" height="147.4"/><rect class="cls-5" x="429.47" y="797.98" width="147.4" height="147.4"/><rect class="cls-5" x="613.73" y="797.98" width="147.4" height="147.4"/><rect class="cls-5" x="797.98" y="797.98" width="147.4" height="147.4"/><rect class="cls-5" x="982.23" y="797.98" width="147.4" height="147.4"/><rect class="cls-5" x="60.97" y="982.23" width="147.4" height="147.4"/><rect class="cls-5" x="245.22" y="982.23" width="147.4" height="147.4"/><rect class="cls-5" x="429.47" y="982.23" width="147.4" height="147.4"/><rect class="cls-5" x="613.73" y="982.23" width="147.4" height="147.4"/><rect class="cls-5" x="797.98" y="982.23" width="147.4" height="147.4"/><rect class="cls-5" x="982.23" y="982.23" width="147.4" height="147.4"/></g><g id="Capa_7" data-name="Capa 7"><text class="cls-6" transform="translate(282.07 173.55)"><tspan class="cls-7">la geometria e la sua struttura</tspan><tspan class="cls-8"><tspan x="0" y="48">Lorem ipsum dolor sit amet, </tspan><tspan x="0" y="72" xml:space="preserve">consectetur  adipisci elit, sed eiusmod </tspan><tspan x="0" y="96">tempor incidunt ut labore et dolore</tspan><tspan x="0" y="120" xml:space="preserve"> magna  aliqua. Ut enim ad minim </tspan><tspan x="0" y="144" xml:space="preserve">veniam,  quis nostrum exercitationem </tspan><tspan x="0" y="168" xml:space="preserve">ullam corporis  suscipit laboriosam, </tspan><tspan x="0" y="192">nisi ut aliquid ex ea commodi </tspan><tspan x="0" y="216">consequatur. Quis aute iure </tspan><tspan x="0" y="240">reprehenderit in voluptate velit esse</tspan><tspan x="0" y="264">cillum dolore eu fugiat nulla pariatur.</tspan><tspan x="0" y="288">Excepteur sint obcaecat cupiditat </tspan><tspan x="0" y="312">non proident, sunt in culpa qui officia</tspan><tspan x="0" y="336">deserunt mollit anim id est laborum.</tspan></tspan></text><text class="cls-9" transform="translate(832.08 918.63)">La<tspan class="cls-10" x="10.74" y="0">c</tspan><tspan x="13.72" y="0">o Como, Casa d</tspan><tspan class="cls-11" x="71.52" y="0">e</tspan><tspan x="74.68" y="0">l </tspan><tspan class="cls-12" x="79.54" y="0">F</tspan><tspan x="84.28" y="0">asc</tspan><tspan class="cls-13" x="95.08" y="0">i</tspan><tspan x="97.82" y="0" xml:space="preserve">o 1932-1936  Giuseppe </tspan><tspan class="cls-14" x="183.96" y="0">T</tspan><tspan class="cls-15" x="189.48" y="0">er</tspan><tspan class="cls-16" x="196.68" y="0">r</tspan><tspan class="cls-15" x="200.07" y="0">agni.</tspan></text></g><g id="Capa_5" data-name="Capa 5"><g class="cls-17"><image width="3872" height="2592" transform="translate(354.8 595.3) scale(0.24)" xlink:href="../../../../../Pictures/2018/COMO/DSC_0010.JPG"/></g></g></svg>