<svg xmlns="http://www.w3.org/2000/svg" xmlns:xlink="http://www.w3.org/1999/xlink" viewBox="0 0 1190.6 1190.6"><defs><style>.cls-1,.cls-3,.cls-4,.cls-5{fill:none;}.cls-2{fill:#441391;}.cls-2,.cls-3{stroke:#00c1ff;}.cls-2,.cls-3,.cls-4,.cls-5{stroke-miterlimit:10;}.cls-4{stroke:lime;}.cls-5{stroke:#b90043;}.cls-6{font-size:60px;font-family:OpenSansCondensed-Bold, Open Sans Condensed;}.cls-7{font-weight:700;}.cls-8{font-size:16px;font-family:OpenSansCondensed-Light, Open Sans Condensed;}.cls-9{font-size:10px;font-family:EBGaramond-Italic, EB Garamond;font-style:italic;}.cls-10{letter-spacing:-0.02em;}.cls-11{letter-spacing:-0.03em;}.cls-12{letter-spacing:-0.04em;}.cls-13{letter-spacing:-0.02em;}.cls-14{letter-spacing:-0.07em;}.cls-15{letter-spacing:0em;}.cls-16{letter-spacing:-0.04em;}.cls-17{letter-spacing:1.55em;}.cls-18{letter-spacing:-0.01em;}.cls-19{letter-spacing:0.02em;}.cls-20{letter-spacing:-0.02em;}.cls-21{letter-spacing:0.04em;}.cls-22{letter-spacing:0.04em;}.cls-23{letter-spacing:-0.02em;}.cls-24{letter-spacing:-0.02em;}.cls-25{letter-spacing:0.4em;}.cls-26{letter-spacing:0.4em;}.cls-27{letter-spacing:-0.01em;}.cls-28{letter-spacing:-0.02em;}.cls-29{letter-spacing:-0.02em;}.cls-30{letter-spacing:-0.04em;}.cls-31{letter-spacing:0.34em;}.cls-32{letter-spacing:0.34em;}.cls-33{clip-path:url(#clip-path);}</style><clipPath id="clip-path"><circle class="cls-1" cx="669.61" cy="963.2" r="146.8"/></clipPath></defs><title>Mesa de trabajo 1</title><g id="Capa_1" data-name="Capa 1"><g id="Capa_1-2" data-name="Capa 1"><rect class="cls-2" width="1190.6" height="1190.6"/></g></g><g id="Capa_2" data-name="Capa 2"><rect class="cls-3" x="60.97" y="60.97" width="239.53" height="239.53"/><rect class="cls-3" x="337.35" y="60.97" width="239.53" height="239.53"/><rect class="cls-3" x="613.73" y="60.97" width="239.53" height="239.53"/><rect class="cls-3" x="890.1" y="60.97" width="239.53" height="239.53"/><rect class="cls-3" x="60.97" y="337.35" width="239.53" height="239.53"/><rect class="cls-3" x="337.35" y="337.35" width="239.53" height="239.53"/><rect class="cls-3" x="613.73" y="337.35" width="239.53" height="239.53"/><rect class="cls-3" x="890.1" y="337.35" width="239.53" height="239.53"/><rect class="cls-3" x="60.97" y="613.73" width="239.53" height="239.53"/><rect class="cls-3" x="337.35" y="613.73" width="239.53" height="239.53"/><rect class="cls-3" x="613.73" y="613.73" width="239.53" height="239.53"/><rect class="cls-3" x="890.1" y="613.73" width="239.53" height="239.53"/><rect class="cls-3" x="60.97" y="890.1" width="239.53" height="239.53"/><rect class="cls-3" x="337.35" y="890.1" width="239.53" height="239.53"/><rect class="cls-3" x="613.73" y="890.1" width="239.53" height="239.53"/><rect class="cls-3" x="890.1" y="890.1" width="239.53" height="239.53"/></g><g id="Capa_3" data-name="Capa 3"><rect class="cls-4" x="60.97" y="60.97" width="184.25" height="184.25"/><rect class="cls-4" x="282.07" y="60.97" width="184.25" height="184.25"/><rect class="cls-4" x="503.17" y="60.97" width="184.25" height="184.25"/><rect class="cls-4" x="724.28" y="60.97" width="184.25" height="184.25"/><rect class="cls-4" x="945.38" y="60.97" width="184.25" height="184.25"/><rect class="cls-4" x="60.97" y="282.07" width="184.25" height="184.25"/><rect class="cls-4" x="282.07" y="282.07" width="184.25" height="184.25"/><rect class="cls-4" x="503.17" y="282.07" width="184.25" height="184.25"/><rect class="cls-4" x="724.28" y="282.07" width="184.25" height="184.25"/><rect class="cls-4" x="945.38" y="282.07" width="184.25" height="184.25"/><rect class="cls-4" x="60.97" y="503.17" width="184.25" height="184.25"/><rect class="cls-4" x="282.07" y="503.17" width="184.25" height="184.25"/><rect class="cls-4" x="503.17" y="503.17" width="184.25" height="184.25"/><rect class="cls-4" x="724.28" y="503.17" width="184.25" height="184.25"/><rect class="cls-4" x="945.38" y="503.17" width="184.25" height="184.25"/><rect class="cls-4" x="60.97" y="724.28" width="184.25" height="184.25"/><rect class="cls-4" x="282.07" y="724.28" width="184.25" height="184.25"/><rect class="cls-4" x="503.17" y="724.28" width="184.25" height="184.25"/><rect class="cls-4" x="724.28" y="724.28" width="184.25" height="184.25"/><rect class="cls-4" x="945.38" y="724.28" width="184.25" height="184.25"/><rect class="cls-4" x="60.97" y="945.38" width="184.25" height="184.25"/><rect class="cls-4" x="282.07" y="945.38" width="184.25" height="184.25"/><rect class="cls-4" x="503.17" y="945.38" width="184.25" height="184.25"/><rect class="cls-4" x="724.28" y="945.38" width="184.25" height="184.25"/><rect class="cls-4" x="945.38" y="945.38" width="184.25" height="184.25"/></g><g id="Capa_4" data-name="Capa 4"><rect class="cls-5" x="60.97" y="60.97" width="147.4" height="147.4"/><rect class="cls-5" x="245.22" y="60.97" width="147.4" height="147.4"/><rect class="cls-5" x="429.47" y="60.97" width="147.4" height="147.4"/><rect class="cls-5" x="613.73" y="60.97" width="147.4" height="147.4"/><rect class="cls-5" x="797.98" y="60.97" width="147.4" height="147.4"/><rect class="cls-5" x="982.23" y="60.97" width="147.4" height="147.4"/><rect class="cls-5" x="60.97" y="245.22" width="147.4" height="147.4"/><rect class="cls-5" x="245.22" y="245.22" width="147.4" height="147.4"/><rect class="cls-5" x="429.47" y="245.22" width="147.4" height="147.4"/><rect class="cls-5" x="613.73" y="245.22" width="147.4" height="147.4"/><rect class="cls-5" x="797.98" y="245.22" width="147.4" height="147.4"/><rect class="cls-5" x="982.23" y="245.22" width="147.4" height="147.4"/><rect class="cls-5" x="60.97" y="429.47" width="147.4" height="147.4"/><rect class="cls-5" x="245.22" y="429.47" width="147.4" height="147.4"/><rect class="cls-5" x="429.47" y="429.47" width="147.4" height="147.4"/><rect class="cls-5" x="613.73" y="429.47" width="147.4" height="147.4"/><rect class="cls-5" x="797.98" y="429.47" width="147.4" height="147.4"/><rect class="cls-5" x="982.23" y="429.47" width="147.4" height="147.4"/><rect class="cls-5" x="60.97" y="613.73" width="147.4" height="147.4"/><rect class="cls-5" x="245.22" y="613.73" width="147.4" height="147.4"/><rect class="cls-5" x="429.47" y="613.73" width="147.4" height="147.4"/><rect class="cls-5" x="613.73" y="613.73" width="147.4" height="147.4"/><rect class="cls-5" x="797.98" y="613.73" width="147.4" height="147.4"/><rect class="cls-5" x="982.23" y="613.73" width="147.4" height="147.4"/><rect class="cls-5" x="60.97" y="797.98" width="147.4" height="147.4"/><rect class="cls-5" x="245.22" y="797.98" width="147.4" height="147.4"/><rect class="cls-5" x="429.47" y="797.98" width="147.4" height="147.4"/><rect class="cls-5" x="613.73" y="797.98" width="147.4" height="147.4"/><rect class="cls-5" x="797.98" y="797.98" width="147.4" height="147.4"/><rect class="cls-5" x="982.23" y="797.98" width="147.4" height="147.4"/><rect class="cls-5" x="60.97" y="982.23" width="147.4" height="147.4"/><rect class="cls-5" x="245.22" y="982.23" width="147.4" height="147.4"/><rect class="cls-5" x="429.47" y="982.23" width="147.4" height="147.4"/><rect class="cls-5" x="613.73" y="982.23" width="147.4" height="147.4"/><rect class="cls-5" x="797.98" y="982.23" width="147.4" height="147.4"/><rect class="cls-5" x="982.23" y="982.23" width="147.4" height="147.4"/></g><g id="Capa_7" data-name="Capa 7"><text class="cls-6" transform="translate(282.07 173.55)"><tspan class="cls-7">la geometria e la sua struttura</tspan><tspan class="cls-8"><tspan x="0" y="48">Lorem ipsum dolor sit amet, </tspan><tspan x="0" y="72" xml:space="preserve">consectetur  adipisci elit, sed eiusmod </tspan><tspan x="0" y="96">tempor incidunt ut labore et dolore</tspan><tspan x="0" y="120" xml:space="preserve"> magna  aliqua. Ut enim ad minim </tspan><tspan x="0" y="144" xml:space="preserve">veniam,  quis nostrum exercitationem </tspan><tspan x="0" y="168" xml:space="preserve">ullam corporis  suscipit laboriosam, </tspan><tspan x="0" y="192">nisi ut aliquid ex ea commodi </tspan><tspan x="0" y="216">consequatur. Quis aute iure </tspan><tspan x="0" y="240">reprehenderit in voluptate velit esse</tspan><tspan x="0" y="264">cillum dolore eu fugiat nulla pariatur.</tspan><tspan x="0" y="288">Excepteur sint obcaecat cupiditat </tspan><tspan x="0" y="312">non proident, sunt in culpa qui officia</tspan><tspan x="0" y="336">deserunt mollit anim id est laborum.</tspan></tspan></text><text class="cls-9" transform="translate(832.08 918.63)">La<tspan class="cls-10" x="10.74" y="0">c</tspan><tspan x="13.72" y="0">o Como, Casa d</tspan><tspan class="cls-11" x="71.52" y="0">e</tspan><tspan x="74.68" y="0">l </tspan><tspan class="cls-12" x="79.54" y="0">F</tspan><tspan x="84.28" y="0">asc</tspan><tspan class="cls-13" x="95.08" y="0">i</tspan><tspan x="97.82" y="0" xml:space="preserve">o 1932-1936  Giuseppe </tspan><tspan class="cls-14" x="183.96" y="0">T</tspan><tspan class="cls-15" x="189.48" y="0">er</tspan><tspan class="cls-16" x="196.68" y="0">r</tspan><tspan class="cls-15" x="200.07" y="0">agni.</tspan></text><text></text><text class="cls-9" transform="translate(848.52 258.91)"><tspan class="cls-17">I</tspan><tspan x="19.16" y="0">l </tspan><tspan x="-49.24" y="24">l</tspan><tspan class="cls-10" x="-46.38" y="24">i</tspan><tspan x="-43.59" y="24">mon</tspan><tspan class="cls-18" x="-26.63" y="24">c</tspan><tspan class="cls-11" x="-23.65" y="24">e</tspan><tspan class="cls-10" x="-20.49" y="24">l</tspan><tspan x="-17.78" y="24">lo,</tspan><tspan class="cls-19" x="-8.97" y="24"> </tspan><tspan x="-6.75" y="24">orig</tspan><tspan class="cls-18" x="7.93" y="24">i</tspan><tspan x="10.72" y="24">ne</tspan><tspan class="cls-19" x="19.4" y="24"> </tspan><tspan x="21.63" y="24">e</tspan><tspan class="cls-19" x="25.04" y="24"> </tspan><tspan class="cls-10" x="27.27" y="24">i</tspan><tspan x="30.06" y="24">ngred</tspan><tspan class="cls-20" x="51.84" y="24">i</tspan><tspan x="54.58" y="24">enti. </tspan><tspan x="-66.4" y="48">La</tspan><tspan class="cls-21" x="-55.66" y="48"> </tspan><tspan x="-53.27" y="48">storia</tspan><tspan class="cls-22" x="-32.15" y="48"> </tspan><tspan x="-29.76" y="48">d</tspan><tspan class="cls-11" x="-24.6" y="48">e</tspan><tspan x="-21.44" y="48">l</tspan><tspan class="cls-21" x="-18.58" y="48"> </tspan><tspan x="-16.19" y="48">l</tspan><tspan class="cls-10" x="-13.33" y="48">i</tspan><tspan x="-10.54" y="48">mon</tspan><tspan class="cls-18" x="6.42" y="48">c</tspan><tspan class="cls-11" x="9.4" y="48">e</tspan><tspan class="cls-10" x="12.56" y="48">l</tspan><tspan x="15.27" y="48">lo</tspan><tspan class="cls-22" x="21.93" y="48"> </tspan><tspan x="24.32" y="48">è</tspan><tspan class="cls-21" x="27.73" y="48"> </tspan><tspan x="30.12" y="48">att</tspan><tspan class="cls-16" x="40.87" y="48">r</tspan><tspan x="44.26" y="48">aversata</tspan><tspan class="cls-22" x="75.97" y="48"> </tspan><tspan x="78.36" y="48">da </tspan><tspan x="-73.83" y="72">m</tspan><tspan class="cls-20" x="-65.94" y="72">o</tspan><tspan x="-62.34" y="72">lte</tspan><tspan class="cls-23" x="-53.15" y="72"> </tspan><tspan x="-51.38" y="72">leggende</tspan><tspan class="cls-24" x="-19.56" y="72"> </tspan><tspan x="-17.79" y="72">e</tspan><tspan class="cls-23" x="-14.38" y="72"> </tspan><tspan x="-12.62" y="72">diversi</tspan><tspan class="cls-23" x="12.48" y="72"> </tspan><tspan class="cls-13" x="14.25" y="72">a</tspan><tspan x="18.96" y="72">neddoti,</tspan><tspan class="cls-23" x="49.77" y="72"> </tspan><tspan x="51.54" y="72">e</tspan><tspan class="cls-24" x="54.95" y="72"> </tspan><tspan x="56.72" y="72">l’</tspan><tspan class="cls-10" x="61.73" y="72">i</tspan><tspan x="64.52" y="72">nvenz</tspan><tspan class="cls-20" x="86.64" y="72">i</tspan><tspan x="89.38" y="72">o</tspan><tspan x="93.18" y="72">-</tspan><tspan x="-73.11" y="96">ne</tspan><tspan class="cls-25" x="-64.43" y="96"> </tspan><tspan x="-58.4" y="96">è</tspan><tspan class="cls-26" x="-54.99" y="96"> </tspan><tspan class="cls-10" x="-48.97" y="96">c</tspan><tspan x="-45.99" y="96">ontesa</tspan><tspan class="cls-25" x="-22.92" y="96"> </tspan><tspan x="-16.89" y="96">da</tspan><tspan class="cls-26" x="-6.82" y="96"> </tspan><tspan x="-0.8" y="96">sorrent</tspan><tspan class="cls-18" x="24.94" y="96">i</tspan><tspan x="27.73" y="96">ni,</tspan><tspan class="cls-25" x="38.09" y="96"> </tspan><tspan class="cls-20" x="44.12" y="96">a</tspan><tspan x="48.83" y="96">m</tspan><tspan class="cls-20" x="56.72" y="96">a</tspan><tspan x="61.43" y="96">lfit</tspan><tspan class="cls-13" x="72.78" y="96">a</tspan><tspan x="77.49" y="96">ni</tspan><tspan class="cls-25" x="85.7" y="96"> </tspan><tspan x="91.72" y="96">e </tspan><tspan x="-64.32" y="120">c</tspan><tspan class="cls-27" x="-61.19" y="120">a</tspan><tspan x="-56.38" y="120">presi:</tspan><tspan class="cls-28" x="-36.93" y="120"> </tspan><tspan class="cls-10" x="-35.17" y="120">c</tspan><tspan x="-32.19" y="120">om</tspan><tspan class="cls-10" x="-20.5" y="120">u</tspan><tspan x="-15.56" y="120">nq</tspan><tspan class="cls-13" x="-5.56" y="120">u</tspan><tspan x="-0.67" y="120">e,</tspan><tspan class="cls-29" x="4.89" y="120"> </tspan><tspan x="6.64" y="120">a</tspan><tspan class="cls-28" x="11.55" y="120"> </tspan><tspan x="13.31" y="120">regist</tspan><tspan class="cls-30" x="33.28" y="120">r</tspan><tspan class="cls-13" x="36.67" y="120">a</tspan><tspan x="41.38" y="120">re</tspan><tspan class="cls-28" x="48.58" y="120"> </tspan><tspan x="50.34" y="120">per</tspan><tspan class="cls-28" x="61.93" y="120"> </tspan><tspan x="63.68" y="120">pr</tspan><tspan class="cls-10" x="71.86" y="120">i</tspan><tspan x="74.65" y="120">mo </tspan><tspan class="cls-11" x="-44.83" y="144">i</tspan><tspan x="-42.14" y="144">l</tspan><tspan class="cls-31" x="-39.28" y="144"> </tspan><tspan x="-33.93" y="144">m</tspan><tspan class="cls-20" x="-26.04" y="144">a</tspan><tspan x="-21.33" y="144">r</tspan><tspan class="cls-13" x="-17.54" y="144">c</tspan><tspan x="-14.61" y="144">h</tspan><tspan class="cls-20" x="-9.73" y="144">i</tspan><tspan x="-6.99" y="144">o</tspan><tspan class="cls-32" x="-3.19" y="144"> </tspan><tspan x="2.17" y="144">&lt;&lt;L</tspan><tspan class="cls-10" x="19.8" y="144">i</tspan><tspan x="22.58" y="144">mon</tspan><tspan class="cls-18" x="39.54" y="144">c</tspan><tspan class="cls-11" x="42.52" y="144">e</tspan><tspan class="cls-10" x="45.68" y="144">l</tspan><tspan x="48.39" y="144">lo&gt;&gt; </tspan></text></g><g id="Capa_5" data-name="Capa 5"><g class="cls-33"><image width="3872" height="2592" transform="translate(354.8 595.3) scale(0.24)" xlink:href="../../../../../Pictures/2018/COMO/DSC_0010.JPG"/></g></g></svg>