<svg xmlns="http://www.w3.org/2000/svg" xmlns:xlink="http://www.w3.org/1999/xlink" viewBox="0 0 1190.6 1190.6"><defs><style>.cls-1{fill:#441391;}.cls-1,.cls-2{stroke:#00c1ff;}.cls-1,.cls-2,.cls-3,.cls-4{stroke-miterlimit:10;}.cls-2,.cls-3,.cls-4{fill:none;}.cls-3{stroke:lime;}.cls-4{stroke:#b90043;}</style></defs><title>Mesa de trabajo 1</title><g id="Capa_1" data-name="Capa 1"><g id="Capa_1-2" data-name="Capa 1"><rect class="cls-1" width="1190.6" height="1190.6"/></g></g><g id="Capa_2" data-name="Capa 2"><rect class="cls-2" x="60.97" y="60.97" width="239.53" height="239.53"/><rect class="cls-2" x="337.35" y="60.97" width="239.53" height="239.53"/><rect class="cls-2" x="613.73" y="60.97" width="239.53" height="239.53"/><rect class="cls-2" x="890.1" y="60.97" width="239.53" height="239.53"/><rect class="cls-2" x="60.97" y="337.35" width="239.53" height="239.53"/><rect class="cls-2" x="337.35" y="337.35" width="239.53" height="239.53"/><rect class="cls-2" x="613.73" y="337.35" width="239.53" height="239.53"/><rect class="cls-2" x="890.1" y="337.35" width="239.53" height="239.53"/><rect class="cls-2" x="60.97" y="613.73" width="239.53" height="239.53"/><rect class="cls-2" x="337.35" y="613.73" width="239.53" height="239.53"/><rect class="cls-2" x="613.73" y="613.73" width="239.53" height="239.53"/><rect class="cls-2" x="890.1" y="613.73" width="239.53" height="239.53"/><rect class="cls-2" x="60.97" y="890.1" width="239.53" height="239.53"/><rect class="cls-2" x="337.35" y="890.1" width="239.53" height="239.53"/><rect class="cls-2" x="613.73" y="890.1" width="239.53" height="239.53"/><rect class="cls-2" x="890.1" y="890.1" width="239.53" height="239.53"/></g><g id="Capa_3" data-name="Capa 3"><rect class="cls-3" x="60.97" y="60.97" width="184.25" height="184.25"/><rect class="cls-3" x="282.07" y="60.97" width="184.25" height="184.25"/><rect class="cls-3" x="503.17" y="60.97" width="184.25" height="184.25"/><rect class="cls-3" x="724.28" y="60.97" width="184.25" height="184.25"/><rect class="cls-3" x="945.38" y="60.97" width="184.25" height="184.25"/><rect class="cls-3" x="60.97" y="282.07" width="184.25" height="184.25"/><rect class="cls-3" x="282.07" y="282.07" width="184.25" height="184.25"/><rect class="cls-3" x="503.17" y="282.07" width="184.25" height="184.25"/><rect class="cls-3" x="724.28" y="282.07" width="184.25" height="184.25"/><rect class="cls-3" x="945.38" y="282.07" width="184.25" height="184.25"/><rect class="cls-3" x="60.97" y="503.17" width="184.25" height="184.25"/><rect class="cls-3" x="282.07" y="503.17" width="184.25" height="184.25"/><rect class="cls-3" x="503.17" y="503.17" width="184.25" height="184.25"/><rect class="cls-3" x="724.28" y="503.17" width="184.25" height="184.25"/><rect class="cls-3" x="945.38" y="503.17" width="184.25" height="184.25"/><rect class="cls-3" x="60.97" y="724.28" width="184.25" height="184.25"/><rect class="cls-3" x="282.07" y="724.28" width="184.25" height="184.25"/><rect class="cls-3" x="503.17" y="724.28" width="184.25" height="184.25"/><rect class="cls-3" x="724.28" y="724.28" width="184.25" height="184.25"/><rect class="cls-3" x="945.38" y="724.28" width="184.25" height="184.25"/><rect class="cls-3" x="60.97" y="945.38" width="184.25" height="184.25"/><rect class="cls-3" x="282.07" y="945.38" width="184.25" height="184.25"/><rect class="cls-3" x="503.17" y="945.38" width="184.25" height="184.25"/><rect class="cls-3" x="724.28" y="945.38" width="184.25" height="184.25"/><rect class="cls-3" x="945.38" y="945.38" width="184.25" height="184.25"/></g><g id="Capa_4" data-name="Capa 4"><rect class="cls-4" x="60.97" y="60.97" width="147.4" height="147.4"/><rect class="cls-4" x="245.22" y="60.97" width="147.4" height="147.4"/><rect class="cls-4" x="429.47" y="60.97" width="147.4" height="147.4"/><rect class="cls-4" x="613.73" y="60.97" width="147.4" height="147.4"/><rect class="cls-4" x="797.98" y="60.97" width="147.4" height="147.4"/><rect class="cls-4" x="982.23" y="60.97" width="147.4" height="147.4"/><rect class="cls-4" x="60.97" y="245.22" width="147.4" height="147.4"/><rect class="cls-4" x="245.22" y="245.22" width="147.4" height="147.4"/><rect class="cls-4" x="429.47" y="245.22" width="147.4" height="147.4"/><rect class="cls-4" x="613.73" y="245.22" width="147.4" height="147.4"/><rect class="cls-4" x="797.98" y="245.22" width="147.4" height="147.4"/><rect class="cls-4" x="982.23" y="245.22" width="147.4" height="147.4"/><rect class="cls-4" x="60.97" y="429.47" width="147.4" height="147.4"/><rect class="cls-4" x="245.22" y="429.47" width="147.4" height="147.4"/><rect class="cls-4" x="429.47" y="429.47" width="147.4" height="147.4"/><rect class="cls-4" x="613.73" y="429.47" width="147.4" height="147.4"/><rect class="cls-4" x="797.98" y="429.47" width="147.4" height="147.4"/><rect class="cls-4" x="982.23" y="429.47" width="147.4" height="147.4"/><rect class="cls-4" x="60.97" y="613.73" width="147.4" height="147.4"/><rect class="cls-4" x="245.22" y="613.73" width="147.4" height="147.4"/><rect class="cls-4" x="429.47" y="613.73" width="147.4" height="147.4"/><rect class="cls-4" x="613.73" y="613.73" width="147.4" height="147.4"/><rect class="cls-4" x="797.98" y="613.73" width="147.4" height="147.4"/><rect class="cls-4" x="982.23" y="613.73" width="147.4" height="147.4"/><rect class="cls-4" x="60.97" y="797.98" width="147.4" height="147.4"/><rect class="cls-4" x="245.22" y="797.98" width="147.4" height="147.4"/><rect class="cls-4" x="429.47" y="797.98" width="147.4" height="147.4"/><rect class="cls-4" x="613.73" y="797.98" width="147.4" height="147.4"/><rect class="cls-4" x="797.98" y="797.98" width="147.4" height="147.4"/><rect class="cls-4" x="982.23" y="797.98" width="147.4" height="147.4"/><rect class="cls-4" x="60.97" y="982.23" width="147.4" height="147.4"/><rect class="cls-4" x="245.22" y="982.23" width="147.4" height="147.4"/><rect class="cls-4" x="429.47" y="982.23" width="147.4" height="147.4"/><rect class="cls-4" x="613.73" y="982.23" width="147.4" height="147.4"/><rect class="cls-4" x="797.98" y="982.23" width="147.4" height="147.4"/><rect class="cls-4" x="982.23" y="982.23" width="147.4" height="147.4"/><image width="3872" height="2592" transform="translate(0 0) scale(0.24)" xlink:href="../../../../../Pictures/2018/COMO/DSC_0044.JPG"/></g></svg>