<?xml version="1.0" encoding="utf-8"?>
<!-- Generator: Adobe Illustrator 22.0.1, SVG Export Plug-In . SVG Version: 6.00 Build 0)  -->
<svg version="1.1" id="Слой_1" xmlns="http://www.w3.org/2000/svg" xmlns:xlink="http://www.w3.org/1999/xlink" x="0px" y="0px"
	 viewBox="0 0 1190.6 1190.6" style="enable-background:new 0 0 1190.6 1190.6;" xml:space="preserve">
<style type="text/css">
	.st0{fill:#F9E9C7;}
	.st1{fill:none;stroke:#4DB1B9;stroke-miterlimit:10;}
	.st2{fill:none;stroke:#D24B4E;stroke-miterlimit:10;}
	.st3{display:none;}
	.st4{display:inline;fill:#201600;}
	.st5{font-family:'OpenSans-Light';}
	.st6{font-size:16px;}
	.st7{fill:none;stroke:#53AB6A;stroke-miterlimit:10;}
	.st8{fill:none;}
	.st9{display:inline;}
	.st10{clip-path:url(#SVGID_2_);}
	
		.st11{display:inline;fill:none;stroke:#000000;stroke-width:0.51;stroke-linecap:round;stroke-linejoin:round;stroke-miterlimit:10;}
	
		.st12{display:inline;fill:none;stroke:#5E5E5E;stroke-width:0.72;stroke-linecap:round;stroke-linejoin:round;stroke-miterlimit:10;}
	
		.st13{display:inline;fill:none;stroke:#000000;stroke-width:0.36;stroke-linecap:round;stroke-linejoin:round;stroke-miterlimit:10;}
	
		.st14{display:inline;fill:none;stroke:#000000;stroke-width:0.72;stroke-linecap:round;stroke-linejoin:round;stroke-miterlimit:10;}
	
		.st15{display:inline;fill:none;stroke:#5E5E5E;stroke-width:0.36;stroke-linecap:round;stroke-linejoin:round;stroke-miterlimit:10;}
	.st16{display:inline;fill:none;}
	.st17{font-family:'ArialMT';}
	.st18{font-size:60px;}
	.st19{font-family:'EBGaramond-Italic';}
	.st20{font-size:9px;}
	.st21{display:inline;fill:#FFFFFF;stroke:#FFFFFF;stroke-miterlimit:10;}
	.st22{fill:#BF8282;}
	.st23{fill:#000105;}
	.st24{display:inline;fill:none;stroke:#201600;stroke-miterlimit:10;}
	.st25{fill:#ED975D;}
	.st26{fill:#DBDBDA;}
	
		.st27{display:inline;fill:none;stroke:#5D5D5D;stroke-width:0.72;stroke-linecap:round;stroke-linejoin:round;stroke-miterlimit:10;}
	
		.st28{display:inline;fill:#D8BA93;stroke:#5D5D5D;stroke-width:0.72;stroke-linecap:round;stroke-linejoin:round;stroke-miterlimit:10;}
	
		.st29{display:inline;fill:none;stroke:#5D5D5D;stroke-width:0.36;stroke-linecap:round;stroke-linejoin:round;stroke-miterlimit:10;}
	
		.st30{display:inline;fill:#D69F76;stroke:#5D5D5D;stroke-width:0.72;stroke-linecap:round;stroke-linejoin:round;stroke-miterlimit:10;}
	.st31{fill:#FFFFFF;}
	.st32{fill:none;stroke:#201600;stroke-miterlimit:10;}
	.st33{display:inline;fill:#FFFFFF;stroke:#201600;stroke-miterlimit:10;}
	.st34{display:inline;fill:#BF8282;stroke:#141212;stroke-miterlimit:10;}
	.st35{display:inline;fill:#BF8282;}
	.st36{fill:none;stroke:#000000;stroke-width:0.51;stroke-linecap:round;stroke-linejoin:round;stroke-miterlimit:10;}
	.st37{fill:none;stroke:#5D5D5D;stroke-width:0.72;stroke-linecap:round;stroke-linejoin:round;stroke-miterlimit:10;}
	.st38{fill:none;stroke:#FFFFFF;stroke-miterlimit:10;}
</style>
<g id="Слой_14">
	<rect y="0.2" class="st0" width="1190.6" height="1190.6"/>
</g>
<g id="Слой_2_1_">
	<rect x="333.1" y="55.1" class="st1" width="239.5" height="239.5"/>
	<rect x="614.1" y="55.1" class="st1" width="239.5" height="239.5"/>
	<rect x="892.8" y="55.1" class="st1" width="239.5" height="239.5"/>
	<rect x="58.3" y="335" class="st1" width="239.5" height="239.5"/>
	<rect x="333.1" y="335" class="st1" width="239.5" height="239.5"/>
	<rect x="614.1" y="336.3" class="st1" width="239.5" height="239.5"/>
	<rect x="892.8" y="336.3" class="st1" width="239.5" height="239.5"/>
	<rect x="58.8" y="615.5" class="st1" width="239.5" height="239.5"/>
	<rect x="333.1" y="615.5" class="st1" width="239.5" height="239.5"/>
	<rect x="614.1" y="615.5" class="st1" width="239.5" height="239.5"/>
	<rect x="893.2" y="615.5" class="st1" width="239.5" height="239.5"/>
	<rect x="58.5" y="893.4" class="st1" width="239.5" height="239.5"/>
	<rect x="333.1" y="893.4" class="st1" width="239.5" height="239.5"/>
	<rect x="614.1" y="893.4" class="st1" width="239.5" height="239.5"/>
	<rect x="893" y="893.4" class="st1" width="239.5" height="239.5"/>
	<rect x="58.8" y="55.1" class="st1" width="239.5" height="239.5"/>
</g>
<g id="Слой_3">
	<rect x="58.3" y="55.1" class="st2" width="147.4" height="147.4"/>
	<rect x="242.6" y="55.1" class="st2" width="147.4" height="147.4"/>
	<rect x="425.2" y="55.1" class="st2" width="147.4" height="147.4"/>
	<rect x="614.4" y="55.1" class="st2" width="147.4" height="147.4"/>
	<rect x="800.6" y="55.1" class="st2" width="147.4" height="147.4"/>
	<rect x="984.9" y="55.1" class="st2" width="147.4" height="147.4"/>
	<rect x="58.3" y="239.6" class="st2" width="147.4" height="147.4"/>
	<rect x="242.6" y="239.6" class="st2" width="147.4" height="147.4"/>
	<rect x="425.2" y="239.6" class="st2" width="147.4" height="147.4"/>
	<rect x="614.4" y="239.6" class="st2" width="147.4" height="147.4"/>
	<rect x="984.9" y="239.1" class="st2" width="147.4" height="147.4"/>
	<rect x="800.6" y="239.6" class="st2" width="147.4" height="147.4"/>
	<rect x="58.3" y="427.1" class="st2" width="147.4" height="147.4"/>
	<rect x="242.6" y="427.1" class="st2" width="147.4" height="147.4"/>
	<rect x="425.2" y="427.1" class="st2" width="147.4" height="147.4"/>
	<rect x="614.4" y="428.4" class="st2" width="147.4" height="147.4"/>
	<rect x="984.9" y="428.4" class="st2" width="147.4" height="147.4"/>
	<rect x="800.6" y="428.4" class="st2" width="147.4" height="147.4"/>
	<rect x="58.3" y="615.6" class="st2" width="147.4" height="147.4"/>
	<rect x="242.6" y="615.6" class="st2" width="147.4" height="147.4"/>
	<rect x="425.2" y="615.5" class="st2" width="147.4" height="147.4"/>
	<rect x="614.1" y="615.5" class="st2" width="147.4" height="147.4"/>
	<rect x="984.9" y="615.5" class="st2" width="147.4" height="147.4"/>
	<rect x="800.6" y="615.5" class="st2" width="147.4" height="147.4"/>
	<rect x="58.3" y="800.8" class="st2" width="147.4" height="147.4"/>
	<rect x="242.6" y="800.8" class="st2" width="147.4" height="147.4"/>
	<rect x="425.2" y="801.2" class="st2" width="147.4" height="147.4"/>
	<rect x="614.1" y="801.2" class="st2" width="147.4" height="147.4"/>
	<rect x="984.9" y="801.2" class="st2" width="147.4" height="147.4"/>
	<rect x="800.6" y="801.2" class="st2" width="147.4" height="147.4"/>
	<rect x="58.9" y="985.5" class="st2" width="147.4" height="147.4"/>
	<rect x="242.6" y="985.5" class="st2" width="147.4" height="147.4"/>
	<rect x="425.2" y="985.5" class="st2" width="147.4" height="147.4"/>
	<rect x="614.4" y="985.5" class="st2" width="147.4" height="147.4"/>
	<rect x="984.9" y="985.5" class="st2" width="147.4" height="147.4"/>
	<rect x="800.6" y="985.5" class="st2" width="147.4" height="147.4"/>
</g>
<g id="Слой_16" class="st3">
	<text transform="matrix(1 0 0 1 58.4986 954.2953)" class="st4 st5 st6">Lorem ipsum dolor sit amet, consectetur adipisci elit, sed eiusmod tempor incidunt ut labore et dolore magna aliqua. </text>
	<text transform="matrix(1 0 0 1 58.4986 978.2953)" class="st4 st5 st6">Ut enim ad minim veniam, quis nostrum exercitationem ullam corporis suscipit laboriosam, nisi ut aliquid ex ea commodi consequatur. </text>
	<text transform="matrix(1 0 0 1 58.4986 1002.2953)" class="st4 st5 st6">Quis aute iure reprehenderit in voluptate velit esse cillum dolore eu fugiat nulla pariatur. E</text>
	<text transform="matrix(1 0 0 1 58.4986 1026.2953)" class="st4 st5 st6">xcepteur sint obcaecat cupiditat non proident, sunt in culpa qui officia deserunt mollit anim id est laborum. </text>
</g>
<g id="Слой_4">
	<rect x="58.3" y="55" class="st7" width="184.3" height="184.3"/>
	<rect x="948" y="54.8" class="st7" width="184.3" height="184.3"/>
	<rect x="283.2" y="55" class="st7" width="184.3" height="184.3"/>
	<rect x="508.1" y="55" class="st7" width="184.3" height="184.3"/>
	<rect x="725.5" y="55" class="st7" width="184.3" height="184.3"/>
	<rect x="58.3" y="277.7" class="st7" width="184.3" height="184.3"/>
	<rect x="948" y="278.8" class="st7" width="184.3" height="184.3"/>
	<rect x="283.2" y="278.8" class="st7" width="184.3" height="184.3"/>
	<rect x="508.1" y="278.8" class="st7" width="184.3" height="184.3"/>
	<rect x="725.5" y="277.7" class="st7" width="184.3" height="184.3"/>
	<rect x="58.3" y="500.8" class="st7" width="184.3" height="184.3"/>
	<rect x="948" y="513.4" class="st8" width="184.3" height="184.3"/>
	<rect x="283.3" y="500.8" class="st7" width="184.3" height="184.3"/>
	<rect x="506.3" y="500.8" class="st7" width="184.3" height="184.3"/>
	<rect x="725.5" y="500.8" class="st7" width="184.3" height="184.3"/>
	<rect x="58.3" y="724.7" class="st7" width="184.3" height="184.3"/>
	<rect x="948" y="724.7" class="st7" width="184.3" height="184.3"/>
	<rect x="283.2" y="724.7" class="st7" width="184.3" height="184.3"/>
	<rect x="508.2" y="724.7" class="st7" width="184.3" height="184.3"/>
	<rect x="725.5" y="724.7" class="st7" width="184.3" height="184.3"/>
	<rect x="58.5" y="948.6" class="st7" width="184.3" height="184.3"/>
	<rect x="948" y="948.6" class="st7" width="184.3" height="184.3"/>
	<rect x="283.2" y="948.6" class="st7" width="184.3" height="184.3"/>
	<rect x="508.2" y="948.6" class="st7" width="184.3" height="184.3"/>
	<rect x="725.5" y="948.6" class="st7" width="184.3" height="184.3"/>
	<rect x="948" y="500.8" class="st7" width="184.3" height="184.3"/>
</g>
<g id="Слой_6" class="st3">
</g>
<g id="Слой_7" class="st3">
	<g class="st9">
		<g>
			<defs>
				<ellipse id="SVGID_1_" cx="759.2" cy="216.5" rx="215.2" ry="206.1"/>
			</defs>
			<clipPath id="SVGID_2_">
				<use xlink:href="#SVGID_1_"  style="overflow:visible;"/>
			</clipPath>
			<g class="st10">
				
					<image style="overflow:visible;enable-background:new    ;" width="1280" height="960" xlink:href="8831D6D8.jpg"  transform="matrix(0.4193 0 0 0.4193 490.82 10.3927)">
				</image>
			</g>
		</g>
	</g>
</g>
<g id="Слой_15" class="st3">
	<line class="st11" x1="1108.9" y1="614.6" x2="1105.5" y2="614.6"/>
	<line class="st12" x1="1105.2" y1="614.3" x2="1105.2" y2="520.7"/>
	<line class="st12" x1="1112.6" y1="707.8" x2="1112.6" y2="614.3"/>
	<line class="st13" x1="1187.6" y1="701" x2="1140" y2="701"/>
	<line class="st13" x1="1187.6" y1="641.2" x2="1140" y2="641.2"/>
	<polyline class="st14" points="1118.8,707.8 1118.8,852.4 907.9,852.4 	"/>
	<polyline class="st14" points="619.4,852.4 581.9,852.4 581.9,832.6 1099,832.6 	"/>
	<line class="st14" x1="627.9" y1="852.4" x2="627.9" y2="852.4"/>
	<line class="st14" x1="636.4" y1="852.4" x2="704.4" y2="852.4"/>
	<line class="st14" x1="712.9" y1="852.4" x2="712.9" y2="852.4"/>
	<line class="st14" x1="721.4" y1="852.4" x2="789.4" y2="852.4"/>
	<line class="st14" x1="797.9" y1="852.4" x2="797.9" y2="852.4"/>
	<line class="st14" x1="806.4" y1="852.4" x2="874.5" y2="852.4"/>
	<line class="st14" x1="883" y1="852.4" x2="883" y2="852.4"/>
	<line class="st14" x1="891.5" y1="852.4" x2="959.5" y2="852.4"/>
	<line class="st14" x1="968" y1="852.4" x2="968" y2="852.4"/>
	<line class="st14" x1="976.5" y1="852.4" x2="1044.5" y2="852.4"/>
	<line class="st14" x1="1053.1" y1="852.4" x2="1053.1" y2="852.4"/>
	<line class="st14" x1="1061.6" y1="852.4" x2="1099" y2="852.4"/>
	<polyline class="st14" points="1099,832.6 1099,707.8 1118.8,707.8 	"/>
	<polyline class="st14" points="1099,520.7 1118.8,520.7 1118.8,407.3 465.6,407.3 465.6,446.8 	"/>
	<line class="st14" x1="465.6" y1="455.3" x2="465.6" y2="455.3"/>
	<line class="st14" x1="465.6" y1="463.8" x2="465.6" y2="531.9"/>
	<line class="st14" x1="465.6" y1="540.4" x2="465.6" y2="540.4"/>
	<line class="st14" x1="465.6" y1="548.9" x2="465.6" y2="616.9"/>
	<line class="st14" x1="465.6" y1="625.4" x2="465.6" y2="625.4"/>
	<line class="st14" x1="465.6" y1="633.9" x2="465.6" y2="701.9"/>
	<line class="st14" x1="465.6" y1="710.5" x2="465.6" y2="710.5"/>
	<line class="st14" x1="465.6" y1="719" x2="465.6" y2="787"/>
	<line class="st14" x1="465.6" y1="795.5" x2="465.6" y2="795.5"/>
	<polyline class="st14" points="465.6,804 465.6,843.5 475.6,843.5 475.6,427.2 	"/>
	<line class="st11" x1="477.1" y1="832.6" x2="477.1" y2="755.2"/>
	<line class="st11" x1="477.1" y1="754.8" x2="477.1" y2="428.6"/>
	<line class="st14" x1="475.6" y1="427.2" x2="1099" y2="427.2"/>
	<line class="st11" x1="477.1" y1="428.6" x2="1097.6" y2="428.6"/>
	<line class="st14" x1="1099" y1="427.2" x2="1099" y2="520.7"/>
	<line class="st11" x1="1097.6" y1="428.6" x2="1097.6" y2="513.7"/>
	<line class="st11" x1="1097.6" y1="514.4" x2="1097.6" y2="520.7"/>
	<polyline class="st12" points="536.6,612.9 536.6,697.9 479.9,697.9 479.9,612.9 536.6,612.9 	"/>
	<polyline class="st12" points="536.6,646.9 540.1,646.9 540.1,663.9 536.6,663.9 	"/>
	<polyline class="st12" points="978.5,431.4 1042.3,431.4 1042.3,488.1 978.5,488.1 978.5,431.4 	"/>
	<polyline class="st12" points="1001.9,488.1 1001.9,491.6 1018.9,491.6 1018.9,488.1 1001.9,488.1 	"/>
	<polyline class="st12" points="680.9,431.5 744.7,431.5 744.7,488.1 680.9,488.1 680.9,431.5 	"/>
	<polyline class="st12" points="704.3,488.1 704.3,491.7 721.3,491.7 721.3,488.1 704.3,488.1 	"/>
	<polyline class="st12" points="1094.7,828.3 1094.7,788.6 1052.2,788.6 1052.2,828.3 1094.7,828.3 	"/>
	<polyline class="st15" points="490.8,745.6 491.3,738.2 492.3,738.2 491.8,745.7 490.8,745.6 	"/>
	<polyline class="st15" points="497,756.4 494.2,756.2 494.9,744.9 	"/>
	<path class="st15" d="M494.8,744.9c0-0.8-0.6-1.5-1.3-1.5"/>
	<line class="st15" x1="493.5" y1="743.4" x2="491.9" y2="743.3"/>
	<line class="st15" x1="497" y1="756.4" x2="497.9" y2="742.3"/>
	<path class="st15" d="M497.8,742.3c0-0.8-0.6-1.5-1.3-1.5"/>
	<line class="st15" x1="496.5" y1="740.8" x2="492.1" y2="740.5"/>
	<polyline class="st15" points="484.4,745.2 484.9,737.8 483.9,737.7 483.5,745.1 484.4,745.2 	"/>
	<polyline class="st15" points="477,755.2 479.9,755.3 480.5,744.1 	"/>
	<path class="st15" d="M482.1,742.7c-0.8,0-1.5,0.6-1.5,1.3"/>
	<line class="st15" x1="482" y1="742.7" x2="483.6" y2="742.8"/>
	<line class="st15" x1="477" y1="755.2" x2="477.9" y2="741.1"/>
	<path class="st15" d="M479.4,739.7c-0.8,0-1.5,0.6-1.5,1.3"/>
	<line class="st15" x1="479.4" y1="739.7" x2="483.8" y2="740"/>
	<polyline class="st12" points="479.9,431.5 479.9,598.7 566.3,598.7 566.3,431.5 479.9,431.5 	"/>
	<polyline class="st12" points="477.1,655 477.1,612.5 475.6,612.5 475.6,655 	"/>
	<polyline class="st12" points="475.6,655.7 475.6,698.3 477.1,698.3 477.1,655.7 	"/>
	<polyline class="st12" points="673.6,832.6 730.5,832.6 730.5,831.2 673.6,831.2 	"/>
	<polyline class="st12" points="672.2,831.2 622.6,831.2 622.6,832.6 672.2,832.6 	"/>
	<line class="st12" x1="723.2" y1="831.2" x2="723.2" y2="832.6"/>
	<line class="st12" x1="673.6" y1="831.2" x2="673.6" y2="832.6"/>
	<line class="st12" x1="672.2" y1="831.2" x2="672.2" y2="832.6"/>
	<polyline class="st12" points="829.7,427.2 744.7,427.2 744.7,455.6 829.7,455.6 893.5,455.6 978.5,455.6 978.5,427.2 893.5,427.2 
			"/>
	<polyline class="st12" points="819.1,455.6 904.1,455.6 904.1,427.2 819.1,427.2 819.1,455.6 	"/>
	<line class="st12" x1="477.1" y1="655.7" x2="475.6" y2="655.7"/>
	<line class="st12" x1="477.1" y1="655" x2="475.6" y2="655"/>
	<line class="st12" x1="566.3" y1="431.5" x2="479.9" y2="598.7"/>
	<line class="st12" x1="479.9" y1="431.5" x2="566.3" y2="598.7"/>
	<line class="st12" x1="1094.7" y1="788.6" x2="1052.2" y2="828.3"/>
	<line class="st12" x1="1052.2" y1="788.6" x2="1094.7" y2="828.3"/>
	<line class="st11" x1="1097.6" y1="428.6" x2="1099" y2="427.2"/>
	<line class="st11" x1="1097.6" y1="520.7" x2="1099" y2="520.7"/>
	<polyline class="st11" points="581.9,831.2 1097.6,831.2 1097.6,713.5 	"/>
	<line class="st11" x1="1097.6" y1="712.8" x2="1097.6" y2="707.8"/>
	<line class="st11" x1="1097.6" y1="831.2" x2="1099" y2="832.6"/>
	<line class="st11" x1="1097.6" y1="707.8" x2="1099" y2="707.8"/>
	<line class="st11" x1="581.9" y1="832.6" x2="581.9" y2="831.2"/>
	<line class="st11" x1="477.1" y1="428.6" x2="475.6" y2="427.2"/>
	<line class="st11" x1="816.8" y1="741.8" x2="818.7" y2="739.9"/>
	<line class="st11" x1="964.3" y1="702.2" x2="965.3" y2="701.3"/>
	<polyline class="st15" points="730,427.9 744.7,427.9 744.7,427.2 730,427.2 730,427.9 	"/>
	<polyline class="st15" points="978.5,427.9 993.1,427.9 993.1,427.2 978.5,427.2 978.5,427.9 	"/>
	<polyline class="st15" points="589,832.6 603.3,832.6 603.3,831.8 589,831.8 589,832.6 	"/>
	<polyline class="st15" points="476.3,719.8 476.3,705.2 475.6,705.2 475.6,719.8 476.3,719.8 	"/>
	<line class="st11" x1="587.3" y1="485.3" x2="587.3" y2="498.8"/>
	<line class="st11" x1="681.8" y1="498.8" x2="681.8" y2="512.3"/>
	<line class="st11" x1="614.3" y1="512.3" x2="614.3" y2="525.8"/>
	<line class="st11" x1="708.8" y1="525.8" x2="708.8" y2="539.3"/>
	<line class="st11" x1="749.3" y1="485.3" x2="749.3" y2="498.8"/>
	<line class="st11" x1="641.3" y1="539.3" x2="641.3" y2="552.8"/>
	<line class="st11" x1="573.8" y1="552.8" x2="573.8" y2="566.3"/>
	<line class="st11" x1="600.8" y1="579.8" x2="600.8" y2="593.3"/>
	<line class="st11" x1="668.3" y1="566.3" x2="668.3" y2="579.8"/>
	<line class="st11" x1="749.4" y1="579.8" x2="749.4" y2="593.3"/>
	<line class="st11" x1="695.3" y1="593.3" x2="695.3" y2="606.8"/>
	<line class="st11" x1="627.8" y1="606.8" x2="627.8" y2="620.3"/>
	<line class="st11" x1="722.3" y1="620.3" x2="722.3" y2="633.8"/>
	<line class="st11" x1="560.3" y1="620.3" x2="560.3" y2="633.8"/>
	<line class="st11" x1="527.9" y1="598.7" x2="527.9" y2="606.8"/>
	<line class="st11" x1="654.8" y1="633.8" x2="654.8" y2="647.3"/>
	<line class="st11" x1="587.3" y1="647.3" x2="587.3" y2="660.8"/>
	<line class="st11" x1="681.8" y1="660.8" x2="681.8" y2="674.3"/>
	<line class="st11" x1="749.3" y1="647.3" x2="749.3" y2="660.8"/>
	<line class="st11" x1="708.8" y1="687.8" x2="708.8" y2="701.3"/>
	<line class="st11" x1="614.3" y1="674.3" x2="614.3" y2="687.8"/>
	<line class="st11" x1="546.8" y1="687.8" x2="546.8" y2="701.3"/>
	<line class="st11" x1="573.8" y1="714.8" x2="573.8" y2="728.3"/>
	<line class="st11" x1="641.3" y1="701.3" x2="641.3" y2="714.8"/>
	<line class="st11" x1="735.8" y1="714.8" x2="735.8" y2="728.3"/>
	<line class="st11" x1="668.3" y1="728.3" x2="668.3" y2="741.8"/>
	<line class="st11" x1="506.3" y1="728.3" x2="506.3" y2="741.8"/>
	<line class="st11" x1="533.3" y1="755.3" x2="533.3" y2="768.8"/>
	<line class="st11" x1="600.8" y1="741.8" x2="600.8" y2="755.3"/>
	<line class="st11" x1="695.3" y1="755.3" x2="695.3" y2="768.8"/>
	<line class="st11" x1="762.8" y1="741.8" x2="762.8" y2="755.3"/>
	<line class="st11" x1="492.8" y1="795.8" x2="492.8" y2="809.3"/>
	<line class="st11" x1="560.3" y1="782.3" x2="560.3" y2="795.8"/>
	<line class="st11" x1="627.8" y1="768.8" x2="627.8" y2="782.3"/>
	<line class="st11" x1="654.8" y1="795.8" x2="654.8" y2="809.3"/>
	<line class="st11" x1="722.3" y1="782.3" x2="722.3" y2="795.8"/>
	<line class="st11" x1="681.8" y1="822.8" x2="681.8" y2="831.2"/>
	<line class="st11" x1="519.8" y1="822.8" x2="519.8" y2="836.3"/>
	<line class="st11" x1="749.3" y1="809.3" x2="749.3" y2="822.8"/>
	<line class="st11" x1="789.8" y1="768.8" x2="789.8" y2="782.3"/>
	<line class="st11" x1="816.8" y1="795.8" x2="816.8" y2="809.3"/>
	<line class="st11" x1="843.8" y1="822.8" x2="843.8" y2="831.2"/>
	<line class="st11" x1="857.3" y1="755.3" x2="857.3" y2="768.8"/>
	<line class="st11" x1="884.3" y1="782.3" x2="884.3" y2="795.8"/>
	<line class="st11" x1="911.3" y1="809.3" x2="911.3" y2="822.8"/>
	<line class="st11" x1="924.8" y1="741.8" x2="924.8" y2="755.3"/>
	<line class="st11" x1="951.8" y1="768.8" x2="951.8" y2="782.3"/>
	<line class="st11" x1="978.8" y1="795.8" x2="978.8" y2="809.3"/>
	<line class="st11" x1="1005.8" y1="822.8" x2="1005.8" y2="831.2"/>
	<line class="st11" x1="1046.3" y1="782.3" x2="1046.3" y2="795.8"/>
	<line class="st11" x1="1019.3" y1="755.3" x2="1019.3" y2="768.8"/>
	<line class="st11" x1="992.3" y1="728.3" x2="992.3" y2="741.8"/>
	<line class="st11" x1="1086.8" y1="741.8" x2="1086.8" y2="755.3"/>
	<line class="st11" x1="1059.8" y1="714.8" x2="1059.8" y2="728.3"/>
	<line class="st11" x1="1032.8" y1="687.8" x2="1032.8" y2="701.3"/>
	<line class="st11" x1="1085.7" y1="674.3" x2="1085.7" y2="687.8"/>
	<line class="st11" x1="1005.8" y1="660.8" x2="1005.8" y2="674.3"/>
	<line class="st11" x1="978.8" y1="633.8" x2="978.8" y2="647.3"/>
	<line class="st11" x1="1073.3" y1="647.3" x2="1073.3" y2="660.8"/>
	<line class="st11" x1="1046.3" y1="620.3" x2="1046.3" y2="633.8"/>
	<line class="st11" x1="1019.3" y1="593.3" x2="1019.3" y2="606.8"/>
	<line class="st11" x1="1086.8" y1="579.8" x2="1086.8" y2="593.3"/>
	<line class="st11" x1="992.3" y1="566.3" x2="992.3" y2="579.8"/>
	<line class="st11" x1="1059.8" y1="552.8" x2="1059.8" y2="566.3"/>
	<line class="st11" x1="1032.8" y1="525.8" x2="1032.8" y2="539.3"/>
	<line class="st11" x1="1087.2" y1="512.3" x2="1087.2" y2="525.8"/>
	<line class="st11" x1="1073.3" y1="485.3" x2="1073.3" y2="498.8"/>
	<line class="st11" x1="1005.8" y1="498.8" x2="1005.8" y2="512.3"/>
	<line class="st11" x1="1046.3" y1="458.3" x2="1046.3" y2="471.8"/>
	<line class="st11" x1="1076" y1="428.6" x2="1076" y2="431.3"/>
	<line class="st11" x1="587.3" y1="809.3" x2="587.3" y2="822.8"/>
	<g class="st9">
		<polygon points="1094.5,812.9 1088.9,814 1093.9,811.1 		"/>
		<polygon class="st8" points="1094.5,812.9 1088.9,814 1093.9,811.1 		"/>
	</g>
	<polyline class="st13" points="1094.2,812 1133.4,797.4 1144.8,797.4 	"/>
	<g class="st9">
		<polygon points="483.3,619.4 486.2,624.3 481.9,620.6 		"/>
		<polygon class="st8" points="483.3,619.4 486.2,624.3 481.9,620.6 		"/>
	</g>
	<polyline class="st13" points="482.6,620 435.5,562.7 424.2,562.7 	"/>
	<g class="st9">
		<polygon points="1018.6,432.2 1019.7,437.9 1016.8,432.9 		"/>
		<polygon class="st8" points="1018.6,432.2 1019.7,437.9 1016.8,432.9 		"/>
	</g>
	<g class="st9">
		<polygon points="487.5,515.9 489.9,521.1 485.9,517 		"/>
		<polygon class="st8" points="487.5,515.9 489.9,521.1 485.9,517 		"/>
	</g>
	<g class="st9">
		<polygon points="877,472.6 878,478.2 875.2,473.3 		"/>
		<polygon class="st8" points="877,472.6 878,478.2 875.2,473.3 		"/>
	</g>
	<path class="st12" d="M1094.7,713.1c0-1.2-0.9-2.1-2.1-2.1s-2.1,0.9-2.1,2.1c0,1.2,0.9,2.1,2.1,2.1S1094.7,714.3,1094.7,713.1"/>
	<line class="st12" x1="1094" y1="711.5" x2="1094" y2="515.6"/>
	<polyline class="st12" points="1094,512.4 1094,504.8 1091.2,504.8 1091.2,512.4 	"/>
	<line class="st12" x1="1091.2" y1="515.6" x2="1091.2" y2="533.4"/>
	<line class="st12" x1="1091.2" y1="534.1" x2="1091.2" y2="551.7"/>
	<line class="st12" x1="1091.2" y1="552.4" x2="1091.2" y2="568.7"/>
	<line class="st12" x1="1091.2" y1="569.4" x2="1091.2" y2="585.8"/>
	<polyline class="st12" points="1091.2,586.5 1091.2,602.9 1091.2,600.5 	"/>
	<line class="st12" x1="1091.2" y1="602.9" x2="1091.2" y2="619.6"/>
	<line class="st12" x1="1091.2" y1="620.3" x2="1091.2" y2="636.7"/>
	<line class="st12" x1="1091.2" y1="637.4" x2="1091.2" y2="653.7"/>
	<line class="st12" x1="1091.2" y1="654.4" x2="1091.2" y2="670.7"/>
	<line class="st12" x1="1091.2" y1="671.4" x2="1091.2" y2="689"/>
	<line class="st12" x1="1091.2" y1="689.7" x2="1091.2" y2="711.5"/>
	<polyline class="st12" points="1091.2,714.7 1091.2,720.2 1094,720.2 1094,714.7 	"/>
	<path class="st12" d="M1094.7,514c0-1.2-0.9-2.1-2.1-2.1s-2.1,0.9-2.1,2.1s0.9,2.1,2.1,2.1S1094.7,515.1,1094.7,514"/>
	<line class="st12" x1="1091.2" y1="671.4" x2="1094" y2="671.4"/>
	<polyline class="st12" points="1091.2,671.4 1091.2,670.7 1094,670.7 	"/>
	<line class="st12" x1="1091.2" y1="654.4" x2="1094" y2="654.4"/>
	<polyline class="st12" points="1091.2,654.4 1091.2,653.7 1094,653.7 	"/>
	<line class="st12" x1="1091.2" y1="637.4" x2="1094" y2="637.4"/>
	<polyline class="st12" points="1091.2,637.4 1091.2,636.7 1094,636.7 	"/>
	<line class="st12" x1="1091.2" y1="620.3" x2="1094" y2="620.3"/>
	<polyline class="st12" points="1091.2,620.3 1091.2,619.6 1094,619.6 	"/>
	<line class="st12" x1="1091.2" y1="603.6" x2="1094" y2="603.6"/>
	<polyline class="st12" points="1091.2,603.6 1091.2,602.9 1094,602.9 	"/>
	<line class="st12" x1="1091.2" y1="586.5" x2="1094" y2="586.5"/>
	<polyline class="st12" points="1091.2,586.5 1091.2,585.8 1094,585.8 	"/>
	<line class="st12" x1="1091.2" y1="569.4" x2="1094" y2="569.4"/>
	<polyline class="st12" points="1091.2,569.4 1091.2,568.7 1094,568.7 	"/>
	<line class="st12" x1="1091.2" y1="552.4" x2="1094" y2="552.4"/>
	<polyline class="st12" points="1091.2,552.4 1091.2,551.7 1094,551.7 	"/>
	<line class="st12" x1="1091" y1="534.1" x2="1094" y2="534.1"/>
	<polyline class="st12" points="1091,534.1 1091,533.4 1094,533.4 	"/>
	<line class="st12" x1="1091" y1="689.7" x2="1094" y2="689.7"/>
	<polyline class="st12" points="1091,689.7 1091,689 1094,689 	"/>
	<line class="st12" x1="1099" y1="514.4" x2="1094.7" y2="514.4"/>
	<line class="st12" x1="1094.7" y1="513.7" x2="1099" y2="513.7"/>
	<line class="st12" x1="1099" y1="713.5" x2="1094.7" y2="713.5"/>
	<line class="st12" x1="1094.7" y1="712.8" x2="1099" y2="712.8"/>
	<polyline class="st12" points="566.3,563.3 569.9,563.3 569.9,545.8 566.3,545.8 	"/>
	<polyline class="st12" points="566.3,483.8 569.9,483.8 569.9,466.3 566.3,466.3 	"/>
	<path class="st12" d="M771.6,478c-7.7,15.4-10.1,32.9-6.7,49.8"/>
	<path class="st12" d="M858.7,515.7c-0.7,4.1-0.1,8.4,1.8,12.1"/>
	<path class="st12" d="M796,495.7c11.4,5.6,24.8,5,35.6-1.5"/>
	<path class="st12" d="M858.7,515.7c2.7-16.1,2.1-32.5-2-48.3"/>
	<path class="st12" d="M793.6,523.8c-9.7,0.3-19.3,1.6-28.7,4"/>
	<path class="st12" d="M786.9,521.8c15.7,5.5,32.5,7,48.9,4.3"/>
	<path class="st12" d="M860.6,527.9c-8-2.5-16.5-3.2-24.7-1.8"/>
	<path class="st12" d="M766.6,486.1c1.4-10.2,0.7-20.6-2-30.6"/>
	<path class="st12" d="M859.1,478.9c1.2-5.4,1.1-10.9-0.4-16.2"/>
	<path class="st12" d="M858.9,455.5c-0.8,2.3-0.9,4.8-0.2,7.1"/>
	<polyline class="st12" points="760.4,594.6 759.8,604.8 759.2,615.1 758.7,625.4 758.3,635.7 758.1,646 758,656.3 758,666.6 
		758.2,676.9 758.5,687.2 758.9,697.4 759.4,707.7 	"/>
	<path class="st12" d="M967.8,589.9c-0.3-4.2-2.4-8.1-5.7-10.8"/>
	<path class="st12" d="M968.8,605.8c0.2-4-1-8-3.5-11.2"/>
	<path class="st12" d="M949,575.8c-58.7-26.9-122.4-40.9-187-41"/>
	<path class="st12" d="M759.3,539.3c-1.4,32.4,0.6,64.9,5.9,96.9"/>
	<path class="st12" d="M823.9,626.7c-15.1-33.4-37.1-63.2-64.5-87.5"/>
	<line class="st12" x1="758.8" y1="455.6" x2="758.8" y2="528.1"/>
	<path class="st12" d="M761.8,665.4c-2,20.9-2.8,41.9-2.5,62.9"/>
	<path class="st12" d="M802.8,736.5c32.1,0.9,64.2-1.2,95.9-6.5"/>
	<path class="st12" d="M759.3,728c0,4.6,3.6,8.3,8.2,8.5"/>
	<polyline class="st12" points="934.1,599.6 921.8,594.5 909.6,589.6 897.3,584.8 884.9,580.1 872.5,575.5 860.1,571.1 847.6,566.7 
		835.1,562.4 822.6,558.3 810,554.3 797.4,550.4 784.7,546.5 772,542.9 759.3,539.3 	"/>
	<path class="st12" d="M823.3,580c-16.3-13.2-33.8-24.8-52.3-34.6"/>
	<path class="st12" d="M759.3,539.3c3.7,14.7,9,29,15.7,42.6"/>
	<path class="st12" d="M758.7,505.6c-0.2,9.8,0.9,19.6,3.4,29.2"/>
	<path class="st12" d="M758.1,534.4c1.1,2.6,3.7,4.1,6.4,3.9"/>
	<path class="st12" d="M760.3,527.4c-2.5,0.7-4.4,3-4.6,5.6c-0.2,2.6,1.2,5.1,3.6,6.3"/>
	<path class="st12" d="M760.7,529.1c-1,0.8-1.4,2.1-1.1,3.3c0.3,1.2,1.3,2.1,2.5,2.4"/>
	<path class="st12" d="M964.9,700.3c2.3-27.3,1.6-54.8-2.2-81.9"/>
	<path class="st12" d="M963.6,611.9c-9.1-5.7-19.1-9.8-29.6-12.3"/>
	<path class="st12" d="M965.8,728.8c0.6-18.3-0.9-36.6-4.5-54.5"/>
	<path class="st12" d="M957.2,736.5c4.3-0.3,7.8-3.5,8.6-7.7"/>
	<path class="st12" d="M960.8,657.3c-0.7,5.6-0.6,11.3,0.6,16.9"/>
	<line class="st12" x1="968.3" y1="621.7" x2="964.9" y2="630.9"/>
	<path class="st12" d="M968.3,621.7c0.3-0.9,0.5-1.8,0.5-2.7"/>
	<path class="st12" d="M966.1,627.8c0.7-1.9,0.6-4.1-0.3-6c-0.9-1.9-2.5-3.3-4.4-4"/>
	<path class="st12" d="M968.3,621.7c0.3-0.9,0.5-1.8,0.5-2.7"/>
	<path class="st12" d="M964.5,612.5c-0.3-0.2-0.6-0.4-0.9-0.6"/>
	<path class="st12" d="M962.1,579.1c-4.1-1.9-8.6-3-13.1-3.3"/>
	<polyline class="st12" points="758.8,696.5 758.8,740 964.3,740 964.3,732.4 	"/>
	<polyline class="st12" points="762.4,734.6 762.4,736.4 960.8,736.4 	"/>
	<line class="st12" x1="762.4" y1="534.8" x2="762.4" y2="455.6"/>
	<line class="st12" x1="960.8" y1="735.6" x2="960.8" y2="736.4"/>
	<line class="st12" x1="765.2" y1="458" x2="765.2" y2="496"/>
	<line class="st12" x1="765.2" y1="527.8" x2="765.2" y2="535.1"/>
	<line class="st12" x1="765.2" y1="736.2" x2="765.2" y2="736.4"/>
	<path class="st12" d="M962.7,596.2c2.7-1,4.7-3.4,5-6.3"/>
	<path class="st12" d="M967.5,616.1c0.9-3.3,1.4-6.8,1.2-10.2"/>
	<path class="st12" d="M968.8,619c-1.7-6-7.3-9.9-13.5-9.5"/>
	<path class="st12" d="M958.3,527.9c3.4-16.9,1-34.4-6.7-49.8"/>
	<path class="st12" d="M891.6,494.2c10.8,6.6,24.3,7.2,35.6,1.5"/>
	<path class="st12" d="M866.4,467.4c-4,15.8-4.7,32.3-2,48.3"/>
	<path class="st12" d="M958.3,527.8c-9.4-2.4-19-3.7-28.7-4"/>
	<path class="st12" d="M887.4,526.1c16.4,2.7,33.2,1.2,48.9-4.3"/>
	<path class="st12" d="M887.4,526.1c-8.3-1.4-16.8-0.8-24.7,1.8"/>
	<path class="st12" d="M862.6,527.8c1.9-3.7,2.6-8,1.8-12.1"/>
	<path class="st12" d="M958.6,455.5c-2.7,10-3.3,20.4-2,30.6"/>
	<path class="st12" d="M864.5,462.6c-1.4,5.3-1.6,10.9-0.4,16.2"/>
	<path class="st12" d="M864.5,462.7c0.6-2.3,0.6-4.8-0.2-7.1"/>
	<line class="st12" x1="964.3" y1="455.6" x2="964.3" y2="581.3"/>
	<line class="st12" x1="960.8" y1="578.5" x2="960.8" y2="455.6"/>
	<line class="st12" x1="958" y1="458" x2="958" y2="496"/>
	<line class="st12" x1="958" y1="527.8" x2="958" y2="577.4"/>
</g>
<g id="Слой_8" class="st3">
	<rect x="72.4" y="848" class="st16" width="156" height="109.5"/>
	<text transform="matrix(1 0 0 1 72.4351 890.5934)" class="st4 st17 st18">Prova</text>
</g>
<g id="Слой_9" class="st3">
</g>
<g id="Слой_10" class="st3">
	<text transform="matrix(1 0 0 1 66.305 288)" class="st4 st19 st20">Grand Budapest Hotel</text>
</g>
<g id="Слой_11" class="st3">
	<circle class="st16" cx="268.2" cy="585.9" r="184.9"/>
	<text transform="matrix(1 0 0 1 189.2312 437.1617)" class="st4 st5 st6">Lorem ipsum dolor sit </text>
	<text transform="matrix(1 0 0 1 145.0312 461.1617)" class="st4 st5 st6">amet, consectetur adipisci elit, sed </text>
	<text transform="matrix(1 0 0 1 133.4312 485.1617)" class="st4 st5 st6">eiusmod tempor incidunt ut labore et </text>
	<text transform="matrix(1 0 0 1 126.4312 509.1617)" class="st4 st5 st6">dolore magna aliqua. Ut enim ad minim </text>
	<text transform="matrix(1 0 0 1 113.1312 533.1617)" class="st4 st5 st6">veniam, quis nostrum exercitationem ullam </text>
	<text transform="matrix(1 0 0 1 94.6312 557.1617)" class="st4 st5 st6">corporis suscipit laboriosam, nisi ut aliquid ex ea </text>
	<text transform="matrix(1 0 0 1 132.1312 581.1617)" class="st4 st5 st6">commodi consequatur. Quis aute iure </text>
	<text transform="matrix(1 0 0 1 90.1312 605.1617)" class="st4 st5 st6">reprehenderit in voluptate velit esse cillum dolore </text>
	<text transform="matrix(1 0 0 1 96.9312 629.1617)" class="st4 st5 st6">eu fugiat nulla pariatur. Excepteur sint obcaecat </text>
	<text transform="matrix(1 0 0 1 101.4312 653.1617)" class="st4 st5 st6">cupiditat non proident, sunt in culpa qui officia </text>
	<text transform="matrix(1 0 0 1 139.8312 677.1617)" class="st4 st5 st6">deserunt mollit anim id est laborum</text>
</g>
<g id="Слой_13" class="st3">
	<polygon class="st21" points="1000.6,588 989.2,585.4 980.5,584.6 964.7,588.2 941.2,585 921.7,588 925,581.4 922.3,561.6 
		923.7,544.5 921.7,528.6 1000.6,528.6 998.4,532.1 1000.5,563.4 1002.6,575.6 	"/>
	<polygon class="st21" points="921,587.8 909.6,585.2 885.2,588 861.7,584.8 842.2,587.8 844.2,544.3 842.2,528.4 921,528.4 
		918.9,531.9 921,563.2 919,581.4 	"/>
	<g id="XMLID_2_" class="st9">
		<g>
			<path class="st22" d="M1009,644c3.5,10,2.1,17.7-1,12.8c-4.7-7.5-1.8,105.1-1.8,105.1H836.8v-169c35.6,0,106.2,20.9,135.7,24.1
				c1.3,0.4,34.5,13.4,34.8,12.9C1007.7,630.7,1009.4,644.6,1009,644z"/>
		</g>
	</g>
	<g class="st9">
		<path class="st23" d="M1429.4-141.4l0.5,7.1h-0.5V-141.4z M1429.9-141.4h-0.5l0.5,7.1V-141.4z"/>
		<path class="st8" d="M1429.4-141.4l0.5,7.1h-0.5V-141.4z M1429.9-141.4h-0.5l0.5,7.1V-141.4z"/>
	</g>
	<g class="st9">
		<path class="st23" d="M1571.1-141.4l0.5,7.1h-0.5V-141.4z M1571.6-141.4h-0.5l0.5,7.1V-141.4z"/>
		<path class="st8" d="M1571.1-141.4l0.5,7.1h-0.5V-141.4z M1571.6-141.4h-0.5l0.5,7.1V-141.4z"/>
	</g>
	<g class="st9">
		<path class="st23" d="M1712.8-141.4l0.5,7.1h-0.5V-141.4z M1713.3-141.4h-0.5l0.5,7.1V-141.4z"/>
		<path class="st8" d="M1712.8-141.4l0.5,7.1h-0.5V-141.4z M1713.3-141.4h-0.5l0.5,7.1V-141.4z"/>
	</g>
	<g class="st9">
		<path class="st23" d="M137.1,8.6L130,9.1V8.6H137.1z M137.1,9.1V8.6L130,9.1H137.1z"/>
		<path class="st8" d="M137.1,8.6L130,9.1V8.6H137.1z M137.1,9.1V8.6L130,9.1H137.1z"/>
	</g>
	<g class="st9">
		<path class="st23" d="M137.1-133.2l-7.1,0.5v-0.5H137.1z M137.1-132.7v-0.5l-7.1,0.5H137.1z"/>
		<path class="st8" d="M137.1-133.2l-7.1,0.5v-0.5H137.1z M137.1-132.7v-0.5l-7.1,0.5H137.1z"/>
	</g>
	<g class="st9">
		<path class="st23" d="M1728.7-133.2l-7.1,0.5v-0.5H1728.7z M1728.7-132.7v-0.5l-7.1,0.5H1728.7z"/>
		<path class="st8" d="M1728.7-133.2l-7.1,0.5v-0.5H1728.7z M1728.7-132.7v-0.5l-7.1,0.5H1728.7z"/>
	</g>
	<line class="st11" x1="610.2" y1="846.9" x2="605" y2="846.9"/>
	<path class="st11" d="M689.4,838c-0.6-6.4-1.8-12.8-3.7-19"/>
	<path class="st11" d="M683.4,812.4c-3.4-8.7-8.2-16.8-14.1-24"/>
	<path class="st11" d="M664.7,783.1c-6.4-6.8-13.9-12.5-22-17"/>
	<path class="st11" d="M636.4,763c-5.9-2.7-12-4.7-18.4-6.1"/>
	<line class="st11" x1="606.1" y1="508.5" x2="825.9" y2="508.5"/>
	<line class="st11" x1="1017.9" y1="508.5" x2="1115.6" y2="508.5"/>
	<line class="st11" x1="606.1" y1="519.6" x2="608.5" y2="519.6"/>
	<line class="st11" x1="1070.3" y1="519.6" x2="1115.6" y2="519.6"/>
	<line class="st11" x1="679.5" y1="519.6" x2="773.5" y2="519.6"/>
	<line class="st11" x1="606.1" y1="530.7" x2="608.5" y2="530.7"/>
	<line class="st11" x1="1070.3" y1="530.7" x2="1115.6" y2="530.7"/>
	<line class="st11" x1="679.5" y1="530.7" x2="773.5" y2="530.7"/>
	<line class="st11" x1="1006.2" y1="530.7" x2="1017.9" y2="530.7"/>
	<line class="st11" x1="825.9" y1="530.7" x2="837.5" y2="530.7"/>
	<line class="st11" x1="606.2" y1="541.7" x2="608.5" y2="541.7"/>
	<line class="st11" x1="1070.3" y1="541.7" x2="1115.6" y2="541.7"/>
	<line class="st11" x1="682.4" y1="541.7" x2="773.5" y2="541.7"/>
	<line class="st11" x1="1006.2" y1="541.7" x2="1017.9" y2="541.7"/>
	<line class="st11" x1="825.9" y1="541.7" x2="837.5" y2="541.7"/>
	<line class="st11" x1="606.3" y1="552.8" x2="608.5" y2="552.8"/>
	<line class="st11" x1="1070.3" y1="552.8" x2="1115.6" y2="552.8"/>
	<line class="st11" x1="679.5" y1="552.8" x2="773.5" y2="552.8"/>
	<line class="st11" x1="1006.2" y1="552.8" x2="1017.9" y2="552.8"/>
	<line class="st11" x1="825.9" y1="552.8" x2="837.5" y2="552.8"/>
	<line class="st11" x1="606.1" y1="563.9" x2="608.5" y2="563.9"/>
	<line class="st11" x1="1006.2" y1="563.9" x2="1115.6" y2="563.9"/>
	<line class="st11" x1="679.5" y1="563.9" x2="837.5" y2="563.9"/>
	<line class="st11" x1="606.1" y1="575" x2="608.5" y2="575"/>
	<line class="st11" x1="1006.2" y1="575" x2="1110.4" y2="575"/>
	<line class="st11" x1="1112.7" y1="575" x2="1115.6" y2="575"/>
	<line class="st11" x1="679.5" y1="575" x2="837.5" y2="575"/>
	<line class="st11" x1="606.1" y1="586.1" x2="608.5" y2="586.1"/>
	<line class="st11" x1="1006.2" y1="586.1" x2="1116.8" y2="586.1"/>
	<line class="st24" x1="679.5" y1="586.1" x2="837.5" y2="586.1"/>
	<line class="st11" x1="606.1" y1="597.2" x2="608.5" y2="597.2"/>
	<line class="st11" x1="1006.2" y1="597.2" x2="1110.4" y2="597.2"/>
	<line class="st11" x1="1112.7" y1="597.2" x2="1116.8" y2="597.2"/>
	<line class="st24" x1="679.5" y1="597.2" x2="837.5" y2="597.2"/>
	<line class="st11" x1="606.1" y1="608.2" x2="608.5" y2="608.2"/>
	<line class="st11" x1="1006.2" y1="608.2" x2="1110.4" y2="608.2"/>
	<line class="st11" x1="1112.7" y1="608.2" x2="1116.8" y2="608.2"/>
	<line class="st24" x1="682.4" y1="608.2" x2="837.5" y2="608.2"/>
	<line class="st11" x1="606.1" y1="619.3" x2="608.5" y2="619.3"/>
	<line class="st11" x1="1006.2" y1="619.3" x2="1110.4" y2="619.3"/>
	<line class="st11" x1="1112.7" y1="619.3" x2="1116.8" y2="619.3"/>
	<line class="st24" x1="679.5" y1="619.3" x2="837.5" y2="619.3"/>
	<line class="st11" x1="606.1" y1="630.4" x2="608.5" y2="630.4"/>
	<line class="st24" x1="1006.2" y1="630.4" x2="1110.4" y2="630.4"/>
	<line class="st11" x1="1112.7" y1="630.4" x2="1116.8" y2="630.4"/>
	<line class="st24" x1="679.5" y1="630.4" x2="837.5" y2="630.4"/>
	<line class="st11" x1="606.1" y1="641.5" x2="608.5" y2="641.5"/>
	<line class="st11" x1="1112.7" y1="641.5" x2="1116.8" y2="641.5"/>
	<line class="st11" x1="1112.7" y1="652.6" x2="1116.8" y2="652.6"/>
	<line class="st11" x1="606.1" y1="663.7" x2="608.5" y2="663.7"/>
	<line class="st11" x1="1112.7" y1="663.7" x2="1116.8" y2="663.7"/>
	<line class="st11" x1="606.1" y1="674.8" x2="608.5" y2="674.8"/>
	<line class="st11" x1="1112.7" y1="674.8" x2="1116.8" y2="674.8"/>
	<line class="st11" x1="606.1" y1="685.8" x2="608.5" y2="685.8"/>
	<line class="st11" x1="1112.7" y1="685.8" x2="1116.8" y2="685.8"/>
	<line class="st11" x1="606.1" y1="696.9" x2="608.5" y2="696.9"/>
	<line class="st11" x1="1112.7" y1="696.9" x2="1116.8" y2="696.9"/>
	<line class="st24" x1="657.9" y1="696.9" x2="837.5" y2="696.9"/>
	<line class="st11" x1="606.1" y1="708" x2="608.5" y2="708"/>
	<line class="st11" x1="1112.7" y1="708" x2="1116.8" y2="708"/>
	<line class="st24" x1="655" y1="708" x2="837.5" y2="708"/>
	<line class="st11" x1="606.1" y1="719.1" x2="608.5" y2="719.1"/>
	<line class="st11" x1="1112.7" y1="719.1" x2="1116.8" y2="719.1"/>
	<line class="st11" x1="655" y1="719.1" x2="837.5" y2="719.1"/>
	<line class="st11" x1="606.1" y1="730.2" x2="837.5" y2="730.2"/>
	<line class="st11" x1="1112.7" y1="730.2" x2="1116.8" y2="730.2"/>
	<line class="st11" x1="606.1" y1="741.3" x2="837.5" y2="741.3"/>
	<line class="st24" x1="1006.2" y1="741.3" x2="1110.4" y2="741.3"/>
	<line class="st11" x1="1112.7" y1="741.3" x2="1115.6" y2="741.3"/>
	<line class="st11" x1="606.1" y1="752.4" x2="837.5" y2="752.4"/>
	<line class="st24" x1="1006.2" y1="752.4" x2="1115.6" y2="752.4"/>
	<line class="st24" x1="623.2" y1="763.4" x2="1115.6" y2="763.4"/>
	<line class="st11" x1="606.1" y1="774.5" x2="607.9" y2="774.5"/>
	<line class="st24" x1="622.5" y1="774.5" x2="1115.6" y2="774.5"/>
	<line class="st11" x1="608.4" y1="774.5" x2="611.7" y2="774.5"/>
	<line class="st11" x1="617.7" y1="774.5" x2="620.2" y2="774.5"/>
	<line class="st11" x1="606.1" y1="785.6" x2="611" y2="785.6"/>
	<line class="st24" x1="616.9" y1="785.6" x2="1115.6" y2="785.6"/>
	<line class="st11" x1="606.1" y1="796.7" x2="610.4" y2="796.7"/>
	<line class="st24" x1="616.1" y1="796.7" x2="1115.6" y2="796.7"/>
	<line class="st11" x1="606.1" y1="807.8" x2="609.7" y2="807.8"/>
	<line class="st11" x1="1113.3" y1="807.8" x2="1115.6" y2="807.8"/>
	<line class="st11" x1="615.3" y1="807.8" x2="1078.4" y2="807.8"/>
	<line class="st11" x1="606.1" y1="818.9" x2="609" y2="818.9"/>
	<line class="st11" x1="1113.3" y1="818.9" x2="1115.6" y2="818.9"/>
	<line class="st11" x1="614.5" y1="818.9" x2="1078.4" y2="818.9"/>
	<line class="st11" x1="606.1" y1="829.9" x2="608.4" y2="829.9"/>
	<line class="st11" x1="1113.3" y1="829.9" x2="1115.6" y2="829.9"/>
	<line class="st11" x1="613.7" y1="829.9" x2="1078.4" y2="829.9"/>
	<line class="st11" x1="607.9" y1="841" x2="689.4" y2="841"/>
	<line class="st11" x1="652.2" y1="508.6" x2="652.3" y2="508.5"/>
	<line class="st11" x1="698.9" y1="508.5" x2="698.9" y2="506.3"/>
	<line class="st11" x1="718.8" y1="530.7" x2="718.8" y2="519.6"/>
	<line class="st11" x1="785.2" y1="508.6" x2="785.3" y2="508.5"/>
	<line class="st11" x1="752.1" y1="552.8" x2="752.1" y2="541.7"/>
	<line class="st11" x1="1051.3" y1="508.6" x2="1051.4" y2="508.5"/>
	<line class="st11" x1="1006.2" y1="597.9" x2="1007" y2="597.2"/>
	<polyline class="st11" points="692.3,843.2 687,843.2 687,846.9 692.3,846.9 	"/>
	<polyline class="st11" points="689.4,843.2 689.4,838 692.3,838 	"/>
	<polyline class="st11" points="605,838 607.9,838 607.9,843.2 605,843.2 	"/>
	<polyline class="st11" points="610.2,846.9 610.2,843.2 607.9,843.2 	"/>
	<polyline class="st11" points="612.8,756.6 607.9,838 613.1,838.3 618,757 612.8,756.6 	"/>
	<g class="st9">
		<path class="st25" d="M596.7,488.8l536.4,16.3H596.7V488.8z M1133.1,488.8H596.7l536.4,16.3L1133.1,488.8L1133.1,488.8z"/>
		<path class="st25" d="M596.7,488.8l536.4,16.3H596.7V488.8z M1133.1,488.8H596.7l536.4,16.3L1133.1,488.8L1133.1,488.8z"/>
	</g>
	<g class="st9">
		<path class="st25" d="M1116.8,505.1l16.3,76.8h-16.3V505.1z M1133.1,505.1h-16.3l16.3,76.8V505.1z"/>
		<path class="st25" d="M1116.8,505.1l16.3,76.8h-16.3V505.1z M1133.1,505.1h-16.3l16.3,76.8V505.1z"/>
	</g>
	<g class="st9">
		<path class="st26" d="M1133.1,735.5L1133.1,735.5h-8.2H1133.1z M1124.9,735.5h8.2H1124.9z"/>
		<path class="st8" d="M1133.1,735.5L1133.1,735.5h-8.2H1133.1z M1124.9,735.5h8.2H1124.9z"/>
	</g>
	<g class="st9">
		<path class="st25" d="M1116.8,735.5l16.3,102.4h-16.3V735.5z M1133.1,735.5h-16.3l16.3,102.4V735.5z"/>
		<path class="st25" d="M1116.8,735.5l16.3,102.4h-16.3V735.5z M1133.1,735.5h-16.3l16.3,102.4V735.5z"/>
	</g>
	<g class="st9">
		<path class="st25" d="M596.7,505.1l8.2,341.8h-8.2V505.1z M605,505.1h-8.2l8.2,341.8V505.1z"/>
		<path class="st25" d="M596.7,505.1l8.2,341.8h-8.2V505.1z M605,505.1h-8.2l8.2,341.8V505.1z"/>
	</g>
	<g class="st9">
		<path class="st25" d="M692.3,838l440.8,16.3H692.3V838z M1133.1,838H692.3l440.8,16.3V838z"/>
		<path class="st25" d="M692.3,838l440.8,16.3H692.3V838z M1133.1,838H692.3l440.8,16.3V838z"/>
	</g>
	<line class="st14" x1="1133.1" y1="581.9" x2="1116.8" y2="581.9"/>
	<line class="st27" x1="1133.1" y1="735.5" x2="1133.1" y2="581.9"/>
	<line class="st27" x1="1116.8" y1="735.5" x2="1116.8" y2="581.9"/>
	<line class="st11" x1="1128" y1="583.9" x2="1128" y2="656.8"/>
	<line class="st11" x1="1125.7" y1="657.5" x2="1125.7" y2="654.6"/>
	<polyline class="st11" points="1125.7,657.5 1127.3,657.5 1127.3,654.6 	"/>
	<line class="st11" x1="1126.2" y1="655.7" x2="1126.2" y2="585.4"/>
	<line class="st11" x1="1126.8" y1="655.7" x2="1126.8" y2="585.4"/>
	<line class="st11" x1="1124.9" y1="658.7" x2="1124.9" y2="656.8"/>
	<line class="st11" x1="1125.2" y1="656.8" x2="1125.2" y2="658.4"/>
	<line class="st11" x1="1128" y1="658.7" x2="1128" y2="656.8"/>
	<line class="st11" x1="1128" y1="658.4" x2="1125.2" y2="658.4"/>
	<line class="st11" x1="1124.9" y1="656.8" x2="1124.9" y2="583.9"/>
	<polyline class="st11" points="1124.9,656.8 1125.2,656.8 1125.2,658.4 1128,658.4 	"/>
	<line class="st11" x1="1126.8" y1="654.6" x2="1127.3" y2="654.6"/>
	<line class="st11" x1="1125.7" y1="654.6" x2="1126.2" y2="654.6"/>
	<line class="st11" x1="1128" y1="582.2" x2="1125.2" y2="582.2"/>
	<line class="st11" x1="1125.2" y1="583.9" x2="1124.9" y2="583.9"/>
	<line class="st11" x1="1125.7" y1="583.1" x2="1127.3" y2="583.1"/>
	<line class="st11" x1="1126.8" y1="585.4" x2="1126.2" y2="585.4"/>
	<line class="st11" x1="1127.3" y1="583.1" x2="1127.3" y2="586.5"/>
	<polyline class="st11" points="1125.7,583.1 1125.7,586.5 1126.2,586.5 	"/>
	<line class="st11" x1="1126.8" y1="586.5" x2="1127.3" y2="586.5"/>
	<line class="st11" x1="1128" y1="581.9" x2="1128" y2="583.9"/>
	<line class="st11" x1="1125.2" y1="583.9" x2="1125.2" y2="582.2"/>
	<line class="st11" x1="1124.9" y1="581.9" x2="1124.9" y2="583.9"/>
	<line class="st11" x1="1124.9" y1="660.7" x2="1124.9" y2="733.6"/>
	<line class="st11" x1="1122.7" y1="734.3" x2="1122.7" y2="731.4"/>
	<polyline class="st11" points="1122.7,734.3 1124.2,734.3 1124.2,731.4 	"/>
	<line class="st11" x1="1123.1" y1="732.5" x2="1123.1" y2="662.2"/>
	<line class="st11" x1="1123.7" y1="732.5" x2="1123.7" y2="662.2"/>
	<line class="st11" x1="1121.9" y1="735.5" x2="1121.9" y2="733.6"/>
	<line class="st11" x1="1122.2" y1="733.6" x2="1122.2" y2="735.2"/>
	<line class="st11" x1="1124.9" y1="735.5" x2="1124.9" y2="733.6"/>
	<line class="st11" x1="1124.9" y1="735.2" x2="1122.2" y2="735.2"/>
	<line class="st11" x1="1121.9" y1="733.6" x2="1121.9" y2="660.7"/>
	<polyline class="st11" points="1121.9,733.6 1122.2,733.6 1122.2,735.2 1124.9,735.2 	"/>
	<line class="st11" x1="1123.7" y1="731.4" x2="1124.2" y2="731.4"/>
	<line class="st11" x1="1122.7" y1="731.4" x2="1123.1" y2="731.4"/>
	<line class="st11" x1="1128" y1="658.7" x2="1121.9" y2="658.7"/>
	<line class="st11" x1="1122.2" y1="660.7" x2="1121.9" y2="660.7"/>
	<line class="st11" x1="1122.7" y1="660" x2="1124.2" y2="660"/>
	<line class="st11" x1="1123.7" y1="662.2" x2="1123.1" y2="662.2"/>
	<line class="st11" x1="1124.2" y1="660" x2="1124.2" y2="663.3"/>
	<polyline class="st11" points="1122.7,660 1122.7,663.3 1123.1,663.3 	"/>
	<line class="st11" x1="1123.7" y1="663.3" x2="1124.2" y2="663.3"/>
	<line class="st11" x1="1124.9" y1="658.7" x2="1124.9" y2="660.7"/>
	<line class="st11" x1="1122.2" y1="660.7" x2="1122.2" y2="659"/>
	<line class="st11" x1="1121.9" y1="658.7" x2="1121.9" y2="660.7"/>
	<line class="st11" x1="1128" y1="581.9" x2="1124.9" y2="581.9"/>
	<line class="st11" x1="1124.9" y1="735.5" x2="1121.9" y2="735.5"/>
	<line class="st11" x1="1126.8" y1="655.7" x2="1126.2" y2="655.7"/>
	<line class="st11" x1="1124.9" y1="659" x2="1122.2" y2="659"/>
	<line class="st27" x1="1121.9" y1="658.7" x2="1121.9" y2="581.9"/>
	<line class="st27" x1="1128" y1="735.5" x2="1128" y2="658.7"/>
	<polyline class="st14" points="1133.1,735.5 1133.1,854.2 959.9,854.2 	"/>
	<polyline class="st14" points="723,854.2 692.3,854.2 692.3,838 1116.8,838 	"/>
	<line class="st14" x1="877.6" y1="925.6" x2="877.6" y2="925.6"/>
	<polyline class="st14" points="1116.8,838 1116.8,735.5 1133.1,735.5 	"/>
	<polyline class="st14" points="1116.8,581.9 1133.1,581.9 1133.1,488.8 596.7,488.8 596.7,521.2 	"/>
	<line class="st14" x1="596.7" y1="528.2" x2="596.7" y2="528.2"/>
	<line class="st14" x1="596.7" y1="535.2" x2="596.7" y2="591.1"/>
	<line class="st14" x1="596.7" y1="598" x2="596.7" y2="598"/>
	<line class="st14" x1="596.7" y1="605" x2="596.7" y2="660.9"/>
	<line class="st14" x1="596.7" y1="667.9" x2="596.7" y2="667.9"/>
	<line class="st14" x1="596.7" y1="674.8" x2="596.7" y2="730.7"/>
	<line class="st14" x1="596.7" y1="737.7" x2="596.7" y2="737.7"/>
	<line class="st14" x1="596.7" y1="744.7" x2="596.7" y2="800.5"/>
	<line class="st14" x1="596.7" y1="807.5" x2="596.7" y2="807.5"/>
	<polyline class="st14" points="596.7,814.5 596.7,846.9 605,846.9 605,505.1 	"/>
	<line class="st11" x1="606.1" y1="838" x2="606.1" y2="774.4"/>
	<line class="st11" x1="606.1" y1="774.1" x2="606.1" y2="506.3"/>
	<line class="st14" x1="605" y1="505.1" x2="1116.8" y2="505.1"/>
	<line class="st11" x1="606.1" y1="506.3" x2="1115.6" y2="506.3"/>
	<line class="st14" x1="1116.8" y1="505.1" x2="1116.8" y2="581.9"/>
	<line class="st11" x1="1115.6" y1="506.3" x2="1115.6" y2="576.1"/>
	<line class="st11" x1="1115.6" y1="576.7" x2="1115.6" y2="581.9"/>
	<polyline class="st28" points="655,657.6 655,727.4 608.5,727.4 608.5,657.6 655,657.6 	"/>
	<polyline class="st27" points="655,685.5 657.9,685.5 657.9,699.5 655,699.5 	"/>
	<polyline class="st28" points="1017.9,508.6 1070.3,508.6 1070.3,555.1 1017.9,555.1 1017.9,508.6 	"/>
	<polyline class="st27" points="1037.1,555.1 1037.1,558 1051,558 1051,555.1 1037.1,555.1 	"/>
	<polyline class="st28" points="773.5,508.6 825.9,508.6 825.9,555.1 773.5,555.1 773.5,508.6 	"/>
	<polyline class="st27" points="792.7,555.1 792.7,558 806.7,558 806.7,555.1 792.7,555.1 	"/>
	<polyline class="st27" points="1113.3,834.5 1113.3,801.9 1078.4,801.9 1078.4,834.5 1113.3,834.5 	"/>
	<polyline class="st29" points="617.5,766.5 617.8,760.4 618.6,760.5 618.3,766.6 617.5,766.5 	"/>
	<polyline class="st29" points="622.5,775.4 620.2,775.3 620.8,766 	"/>
	<path class="st29" d="M620.7,766c0-0.6-0.5-1.2-1.1-1.2"/>
	<line class="st29" x1="619.6" y1="764.8" x2="618.4" y2="764.7"/>
	<line class="st29" x1="622.5" y1="775.4" x2="623.2" y2="763.8"/>
	<path class="st29" d="M623.2,763.8c0-0.6-0.5-1.2-1.1-1.2"/>
	<line class="st29" x1="622.1" y1="762.6" x2="618.5" y2="762.4"/>
	<polyline class="st29" points="612.2,766.2 612.6,760.1 611.8,760.1 611.4,766.2 612.2,766.2 	"/>
	<polyline class="st29" points="606.1,774.4 608.4,774.5 609,765.3 	"/>
	<path class="st29" d="M610.2,764.2c-0.6,0-1.2,0.5-1.2,1.1"/>
	<line class="st29" x1="610.2" y1="764.2" x2="611.5" y2="764.3"/>
	<line class="st29" x1="606.1" y1="774.4" x2="606.8" y2="762.8"/>
	<path class="st29" d="M608,761.7c-0.6,0-1.2,0.5-1.2,1.1"/>
	<line class="st29" x1="608" y1="761.7" x2="611.7" y2="762"/>
	<polyline class="st30" points="608.5,508.6 608.5,645.9 679.5,645.9 679.5,508.6 608.5,508.6 	"/>
	<polyline class="st27" points="606.1,692.2 606.1,657.3 605,657.3 605,692.2 	"/>
	<polyline class="st27" points="605,692.8 605,727.7 606.1,727.7 606.1,692.8 	"/>
	<polyline class="st27" points="767.5,838 814.2,838 814.2,836.8 767.5,836.8 	"/>
	<polyline class="st27" points="766.4,836.8 725.6,836.8 725.6,838 766.4,838 	"/>
	<line class="st27" x1="808.3" y1="836.8" x2="808.3" y2="838"/>
	<line class="st27" x1="767.5" y1="836.8" x2="767.5" y2="838"/>
	<line class="st27" x1="766.4" y1="836.8" x2="766.4" y2="838"/>
	<polyline class="st30" points="895.7,505.1 825.9,505.1 825.9,528.4 895.7,528.4 948.1,528.4 1017.9,528.4 1017.9,505.1 
		948.1,505.1 	"/>
	<polyline class="st27" points="887,528.4 956.8,528.4 956.8,505.1 887,505.1 887,528.4 	"/>
	<line class="st27" x1="606.1" y1="692.8" x2="605" y2="692.8"/>
	<line class="st27" x1="606.1" y1="692.2" x2="605" y2="692.2"/>
	<line class="st27" x1="679.5" y1="508.6" x2="608.5" y2="645.9"/>
	<line class="st27" x1="608.5" y1="508.6" x2="679.5" y2="645.9"/>
	<line class="st27" x1="1113.3" y1="801.9" x2="1078.4" y2="834.5"/>
	<line class="st27" x1="1078.4" y1="801.9" x2="1113.3" y2="834.5"/>
	<line class="st11" x1="1115.6" y1="506.3" x2="1116.8" y2="505.1"/>
	<line class="st11" x1="1115.6" y1="581.9" x2="1116.8" y2="581.9"/>
	<polyline class="st11" points="692.3,836.8 1115.6,836.8 1115.6,740.2 	"/>
	<line class="st11" x1="1115.6" y1="739.6" x2="1115.6" y2="735.5"/>
	<line class="st11" x1="1115.6" y1="836.8" x2="1116.8" y2="838"/>
	<line class="st11" x1="1115.6" y1="735.5" x2="1116.8" y2="735.5"/>
	<line class="st11" x1="692.3" y1="838" x2="692.3" y2="836.8"/>
	<line class="st11" x1="606.1" y1="506.3" x2="605" y2="505.1"/>
	<line class="st11" x1="885.1" y1="763.4" x2="886.6" y2="761.9"/>
	<polyline class="st29" points="813.9,505.7 825.9,505.7 825.9,505.1 813.9,505.1 813.9,505.7 	"/>
	<polyline class="st29" points="1017.9,505.7 1029.9,505.7 1029.9,505.1 1017.9,505.1 1017.9,505.7 	"/>
	<polyline class="st29" points="698.1,838 709.8,838 709.8,837.4 698.1,837.4 698.1,838 	"/>
	<polyline class="st29" points="605.6,745.4 605.6,733.4 605,733.4 605,745.4 605.6,745.4 	"/>
	<line class="st11" x1="696.6" y1="552.8" x2="696.6" y2="563.9"/>
	<line class="st11" x1="774.2" y1="563.9" x2="774.2" y2="575"/>
	<line class="st11" x1="718.8" y1="575" x2="718.8" y2="586.1"/>
	<line class="st11" x1="796.4" y1="586.1" x2="796.4" y2="597.2"/>
	<line class="st11" x1="829.7" y1="552.8" x2="829.7" y2="563.9"/>
	<line class="st11" x1="741" y1="597.2" x2="741" y2="608.2"/>
	<line class="st11" x1="685.6" y1="608.2" x2="685.6" y2="619.3"/>
	<line class="st11" x1="707.7" y1="630.4" x2="707.7" y2="641.5"/>
	<line class="st11" x1="763.2" y1="619.3" x2="763.2" y2="630.4"/>
	<line class="st24" x1="829.8" y1="630.4" x2="829.8" y2="641.5"/>
	<line class="st11" x1="785.3" y1="641.5" x2="785.3" y2="652.6"/>
	<line class="st11" x1="729.9" y1="652.6" x2="729.9" y2="663.7"/>
	<line class="st11" x1="807.5" y1="663.7" x2="807.5" y2="674.8"/>
	<line class="st11" x1="674.5" y1="663.7" x2="674.5" y2="674.8"/>
	<line class="st11" x1="647.9" y1="645.9" x2="647.9" y2="652.6"/>
	<line class="st11" x1="752.1" y1="674.8" x2="752.1" y2="685.8"/>
	<line class="st11" x1="696.6" y1="696.9" x2="696.6" y2="685.8"/>
	<line class="st11" x1="774.2" y1="696.9" x2="774.2" y2="708"/>
	<line class="st11" x1="796.4" y1="719.1" x2="796.4" y2="730.2"/>
	<line class="st11" x1="718.8" y1="708" x2="718.8" y2="719.1"/>
	<line class="st11" x1="663.4" y1="719.1" x2="663.4" y2="730.2"/>
	<line class="st11" x1="685.6" y1="741.3" x2="685.6" y2="752.4"/>
	<line class="st11" x1="741" y1="730.2" x2="741" y2="741.3"/>
	<line class="st11" x1="818.6" y1="741.3" x2="818.6" y2="752.4"/>
	<line class="st11" x1="763.2" y1="752.4" x2="763.2" y2="763.4"/>
	<line class="st11" x1="630.1" y1="752.4" x2="630.1" y2="763.4"/>
	<line class="st11" x1="652.3" y1="774.5" x2="652.3" y2="785.6"/>
	<line class="st11" x1="707.7" y1="763.4" x2="707.7" y2="774.5"/>
	<line class="st11" x1="785.3" y1="774.5" x2="785.3" y2="785.6"/>
	<line class="st11" x1="840.8" y1="763.4" x2="840.8" y2="774.5"/>
	<line class="st11" x1="619.1" y1="807.8" x2="619.1" y2="818.9"/>
	<line class="st11" x1="674.5" y1="796.7" x2="674.5" y2="807.8"/>
	<line class="st11" x1="729.9" y1="785.6" x2="729.9" y2="796.7"/>
	<line class="st11" x1="752.1" y1="807.8" x2="752.1" y2="818.9"/>
	<line class="st11" x1="807.5" y1="796.7" x2="807.5" y2="807.8"/>
	<line class="st11" x1="774.2" y1="829.9" x2="774.2" y2="836.8"/>
	<line class="st11" x1="641.2" y1="829.9" x2="641.2" y2="841"/>
	<line class="st11" x1="829.7" y1="818.9" x2="829.7" y2="829.9"/>
	<line class="st11" x1="862.9" y1="785.6" x2="862.9" y2="796.7"/>
	<line class="st11" x1="885.1" y1="807.8" x2="885.1" y2="818.9"/>
	<line class="st11" x1="907.3" y1="829.9" x2="907.3" y2="836.8"/>
	<line class="st24" x1="918.3" y1="774.5" x2="918.3" y2="785.6"/>
	<line class="st11" x1="940.5" y1="796.7" x2="940.5" y2="807.8"/>
	<line class="st11" x1="962.7" y1="818.9" x2="962.7" y2="829.9"/>
	<line class="st24" x1="973.8" y1="763.4" x2="973.8" y2="774.5"/>
	<line class="st24" x1="995.9" y1="785.6" x2="995.9" y2="796.7"/>
	<line class="st11" x1="1018.1" y1="807.8" x2="1018.1" y2="818.9"/>
	<line class="st11" x1="1040.3" y1="829.9" x2="1040.3" y2="836.8"/>
	<line class="st11" x1="1073.5" y1="796.7" x2="1073.5" y2="807.8"/>
	<line class="st24" x1="1051.4" y1="774.5" x2="1051.4" y2="785.6"/>
	<line class="st24" x1="1029.2" y1="752.4" x2="1029.2" y2="763.4"/>
	<line class="st11" x1="1106.8" y1="763.4" x2="1106.8" y2="774.5"/>
	<line class="st24" x1="1084.6" y1="741.3" x2="1084.6" y2="752.4"/>
	<line class="st24" x1="1062.4" y1="719.1" x2="1062.4" y2="730.2"/>
	<line class="st11" x1="1105.9" y1="708" x2="1105.9" y2="719.1"/>
	<line class="st24" x1="1040.3" y1="696.9" x2="1040.3" y2="708"/>
	<line class="st11" x1="1095.7" y1="685.8" x2="1095.7" y2="696.9"/>
	<line class="st11" x1="1073.5" y1="663.7" x2="1073.5" y2="674.8"/>
	<line class="st11" x1="1051.4" y1="641.5" x2="1051.4" y2="652.6"/>
	<line class="st11" x1="1106.8" y1="630.4" x2="1106.8" y2="641.5"/>
	<line class="st11" x1="1029.2" y1="619.3" x2="1029.2" y2="630.4"/>
	<line class="st11" x1="1084.6" y1="608.2" x2="1084.6" y2="619.3"/>
	<line class="st11" x1="1062.5" y1="586.1" x2="1062.5" y2="597.2"/>
	<line class="st11" x1="1107.1" y1="575" x2="1107.1" y2="586.1"/>
	<line class="st11" x1="1095.7" y1="552.8" x2="1095.7" y2="563.9"/>
	<line class="st11" x1="1040.3" y1="563.9" x2="1040.3" y2="575"/>
	<line class="st11" x1="1073.5" y1="530.7" x2="1073.5" y2="541.7"/>
	<line class="st11" x1="1097.9" y1="499.4" x2="1097.9" y2="501.6"/>
	<line class="st11" x1="696.6" y1="818.9" x2="696.6" y2="829.9"/>
	<path class="st27" d="M1113.3,739.9c0-1-0.8-1.7-1.7-1.7s-1.7,0.8-1.7,1.7c0,1,0.8,1.7,1.7,1.7S1113.3,740.8,1113.3,739.9"/>
	<line class="st27" x1="1112.7" y1="738.6" x2="1112.7" y2="577.7"/>
	<polyline class="st27" points="1112.7,575.1 1112.7,568.8 1110.4,568.8 1110.4,575.1 	"/>
	<line class="st27" x1="1110.4" y1="577.7" x2="1110.4" y2="592.3"/>
	<line class="st27" x1="1110.4" y1="592.9" x2="1110.4" y2="607.3"/>
	<line class="st27" x1="1110.4" y1="607.9" x2="1110.4" y2="621.3"/>
	<line class="st27" x1="1110.4" y1="621.9" x2="1110.4" y2="635.3"/>
	<polyline class="st27" points="1110.4,635.9 1110.4,649.3 1110.4,647.4 	"/>
	<line class="st27" x1="1110.4" y1="649.3" x2="1110.4" y2="663.1"/>
	<line class="st27" x1="1110.4" y1="663.6" x2="1110.4" y2="677.1"/>
	<line class="st27" x1="1110.4" y1="677.7" x2="1110.4" y2="691.1"/>
	<line class="st27" x1="1110.4" y1="691.7" x2="1110.4" y2="705.1"/>
	<line class="st27" x1="1110.4" y1="705.6" x2="1110.4" y2="720.1"/>
	<line class="st27" x1="1110.4" y1="720.7" x2="1110.4" y2="738.6"/>
	<polyline class="st27" points="1110.4,741.2 1110.4,745.7 1112.7,745.7 1112.7,741.2 	"/>
	<path class="st27" d="M1113.3,576.4c0-1-0.8-1.7-1.7-1.7s-1.7,0.8-1.7,1.7c0,1,0.8,1.7,1.7,1.7S1113.3,577.3,1113.3,576.4"/>
	<line class="st27" x1="1110.4" y1="705.6" x2="1112.7" y2="705.6"/>
	<polyline class="st27" points="1110.4,705.6 1110.4,705.1 1112.7,705.1 	"/>
	<line class="st27" x1="1110.4" y1="691.7" x2="1112.7" y2="691.7"/>
	<polyline class="st27" points="1110.4,691.7 1110.4,691.1 1112.7,691.1 	"/>
	<line class="st27" x1="1110.4" y1="677.7" x2="1112.7" y2="677.7"/>
	<polyline class="st27" points="1110.4,677.7 1110.4,677.1 1112.7,677.1 	"/>
	<line class="st27" x1="1110.4" y1="663.6" x2="1112.7" y2="663.6"/>
	<polyline class="st27" points="1110.4,663.6 1110.4,663.1 1112.7,663.1 	"/>
	<line class="st27" x1="1110.4" y1="649.9" x2="1112.7" y2="649.9"/>
	<polyline class="st27" points="1110.4,649.9 1110.4,649.3 1112.7,649.3 	"/>
	<line class="st27" x1="1110.4" y1="635.9" x2="1112.7" y2="635.9"/>
	<polyline class="st27" points="1110.4,635.9 1110.4,635.3 1112.7,635.3 	"/>
	<line class="st27" x1="1110.4" y1="621.9" x2="1112.7" y2="621.9"/>
	<polyline class="st27" points="1110.4,621.9 1110.4,621.3 1112.7,621.3 	"/>
	<line class="st27" x1="1110.4" y1="607.9" x2="1112.7" y2="607.9"/>
	<polyline class="st27" points="1110.4,607.9 1110.4,607.3 1112.7,607.3 	"/>
	<line class="st27" x1="1110.3" y1="592.9" x2="1112.7" y2="592.9"/>
	<polyline class="st27" points="1110.3,592.9 1110.3,592.3 1112.7,592.3 	"/>
	<line class="st27" x1="1110.3" y1="720.7" x2="1112.7" y2="720.7"/>
	<polyline class="st27" points="1110.3,720.7 1110.3,720.1 1112.7,720.1 	"/>
	<line class="st27" x1="1116.8" y1="576.7" x2="1113.3" y2="576.7"/>
	<line class="st27" x1="1113.3" y1="576.1" x2="1116.8" y2="576.1"/>
	<line class="st27" x1="1116.8" y1="740.2" x2="1113.3" y2="740.2"/>
	<line class="st27" x1="1113.3" y1="739.6" x2="1116.8" y2="739.6"/>
	<polyline class="st27" points="679.5,616.8 682.4,616.8 682.4,602.5 679.5,602.5 	"/>
	<polyline class="st27" points="679.5,551.6 682.4,551.6 682.4,537.2 679.5,537.2 	"/>
	<path class="st27" d="M848,546.8c-6.4,12.6-8.3,27-5.5,40.9"/>
	<path class="st27" d="M868,561.4c9.3,4.6,20.4,4.1,29.3-1.3"/>
	<path class="st27" d="M919.5,577.8c2.2-13.2,1.7-26.7-1.6-39.7"/>
	<path class="st27" d="M866.1,584.5c-8,0.2-15.9,1.4-23.6,3.3"/>
	<path class="st27" d="M860.6,582.8c12.9,4.5,26.7,5.7,40.2,3.5"/>
	<path class="st27" d="M843.9,553.5c1.1-8.4,0.6-16.9-1.6-25.1"/>
	<path class="st27" d="M919.8,547.5c1-4.4,0.9-9-0.3-13.3"/>
	<path class="st27" d="M919.7,528.4c-0.6,1.9-0.7,3.9-0.2,5.8"/>
	<g id="XMLID_5_" class="st9">
		<g>
			<path class="st31" d="M1009.4,639.3l-4.7-8.9C1007.4,632.6,1009.1,635.8,1009.4,639.3z"/>
		</g>
		<g>
			<path class="st32" d="M1009.4,639.3c-0.3-3.5-2-6.7-4.7-8.9"/>
		</g>
	</g>
	<line class="st27" x1="837.5" y1="528.4" x2="837.5" y2="587.9"/>
	<path class="st33" d="M840,700.7c-1.6,17.2-2.3,34.4-2.1,51.6"/>
	<path class="st33" d="M873.6,759.1c26.4,0.8,52.7-1,78.7-5.4"/>
	<path class="st27" d="M837.9,752.1c0,3.8,3,6.8,6.7,7"/>
	<path class="st33" d="M837.4,569.5c-0.2,8.1,0.8,16.1,2.8,23.9"/>
	<path class="st33" d="M836.9,593.2c0.9,2.1,3,3.4,5.3,3.2"/>
	<path class="st34" d="M838.7,587.3c-2.1,0.6-3.6,2.4-3.8,4.6c-0.2,2.2,1,4.2,2.9,5.2"/>
	<path class="st35" d="M839,588.7c-0.8,0.6-1.1,1.7-0.9,2.7c0.2,1,1,1.8,2,2"/>
	<path class="st33" d="M1000.4,759.1c3.5-0.3,6.4-2.9,7.1-6.4"/>
	<g id="XMLID_4_" class="st9">
		<g>
			<path class="st31" d="M1004.4,629.8l-10.8-2.7C997.4,627.3,1001,628.2,1004.4,629.8z"/>
		</g>
		<g>
			<path class="st32" d="M1004.4,629.8c-3.4-1.6-7-2.5-10.8-2.7"/>
		</g>
	</g>
	<g id="XMLID_3_" class="st9">
		<g>
			<polygon class="st22" points="1006.2,755.7 1006.2,761.9 837.5,757.9 837.5,726.2 			"/>
		</g>
	</g>
	<polyline class="st33" points="840.4,757.5 840.4,759 1003.3,759 	"/>
	<line class="st24" x1="840.4" y1="593.4" x2="840.4" y2="528.4"/>
	<line class="st24" x1="1003.3" y1="758.4" x2="1003.3" y2="759"/>
	<line class="st27" x1="842.7" y1="556.5" x2="842.7" y2="587.7"/>
	<line class="st24" x1="842.7" y1="587.7" x2="842.7" y2="593.7"/>
	<line class="st27" x1="842.7" y1="758.8" x2="842.7" y2="759"/>
	<path class="st27" d="M1001.3,587.8c2.8-13.9,0.8-28.3-5.5-40.9"/>
	<path class="st27" d="M946.5,560.1c8.9,5.4,19.9,5.9,29.3,1.3"/>
	<path class="st27" d="M925.9,538.1c-3.3,13-3.8,26.5-1.6,39.7"/>
	<path class="st27" d="M1001.3,587.8c-7.7-1.9-15.6-3-23.6-3.3"/>
	<path class="st27" d="M943.1,586.3c13.5,2.2,27.3,1,40.2-3.5"/>
	<path class="st27" d="M1001.5,528.4c-2.2,8.2-2.7,16.7-1.6,25.1"/>
	<path class="st27" d="M924.3,534.2c0.5-1.9,0.5-4-0.2-5.8"/>
	<line class="st24" x1="1006.2" y1="528.4" x2="1006.2" y2="631.7"/>
	<line class="st24" x1="1003.3" y1="629.3" x2="1003.3" y2="528.4"/>
	<line class="st27" x1="1001" y1="530.4" x2="1001" y2="561.6"/>
	<line class="st24" x1="1001" y1="587.7" x2="1001" y2="628.5"/>
	<g id="XMLID_1_" class="st9">
		<g>
			<path class="st31" d="M1007,642.6c-0.6,0.6-1.3,1-2.1,1.3l1.5-1.8l0.4-0.5h1.2C1007.7,641.9,1007.4,642.3,1007,642.6z"/>
			<path class="st22" d="M1005,662.2c0,0.3,0.1,0.6,0.1,0.8h-0.1V662.2z"/>
			<path class="st22" d="M1005.1,663c0.1,0.6,0.2,1.2,0.2,1.8l-0.3-0.7L1005.1,663C1005,663,1005,663,1005.1,663z"/>
			<path class="st22" d="M1005,663v1.1l-0.6-1.2C1004.6,663,1004.8,663,1005,663z"/>
			<path class="st22" d="M1007.5,664.9c0.7,1.5,0.8,3.1,0.3,4.7l-0.1,0.2l-2.3-5c-0.1-0.6-0.2-1.2-0.2-1.8c0.7,0.1,1.3,0.2,1.4,0.4
				c0.1,0.1,0.1,0.2,0.2,0.2C1007,664,1007.3,664.5,1007.5,664.9z"/>
			<path class="st22" d="M1007.5,664.9c-0.2-0.4-0.5-0.9-0.8-1.2h3l-0.2,1.2l0,0l-1.8,4.7C1008.3,668,1008.2,666.4,1007.5,664.9z"/>
			<path class="st22" d="M840.2,593.4c64.7,0.1,93.7,6.2,153.5,33.7L840.2,593.4z"/>
			<path class="st22" d="M837.9,597.2l4.9,79.5c-1.8-10.6-3.1-21.3-4-32v-2.2l-0.1,1.3C837.5,628.3,837.2,612.7,837.9,597.2z"/>
			<path class="st22" d="M1008.9,660.2c0.4,0.8,0.8,1.5,1,2.4l-11.1-7.8c0.9-0.1,1.7,0,2.5,0.1l0,0l4.3,1.8
				c-0.5-0.3-0.9-0.6-1.4-0.8c0.5,0.2,1,0.5,1.4,0.8l0,0C1007,657.6,1008.1,658.8,1008.9,660.2z"/>
			<path class="st22" d="M1005.9,696.9l-0.9-32.8l0.3,0.7c0.4,3.3,0.8,6.6,1.1,10c0.4,3.7,0.6,7.4,0.9,11.1
				c0.2,3.7,0.4,7.4,0.5,11.1h-1.5L1005.9,696.9z"/>
			<path class="st31" d="M1009.9,652.6c0,2.6-0.3,5.1-1,7.6L1009.9,652.6L1009.9,652.6z"/>
			<path class="st31" d="M1009.7,663.7l0.2-1c0,0.3,0,0.7-0.1,1H1009.7z"/>
			<path class="st31" d="M1009.9,651.8c0,0.3,0,0.5,0,0.8h-0.1L1009.9,651.8z"/>
			<path class="st31" d="M1007,642.6c2,2.6,3,5.9,2.8,9.2L1007,642.6z"/>
			<path class="st31" d="M1009.7,663.7L1009.7,663.7c0,0.4-0.1,0.8-0.2,1.2L1009.7,663.7z"/>
			<path class="st31" d="M1006.8,641.5l2.2-2.8c-0.1,1-0.5,2-1.1,2.8H1006.8z"/>
			<path class="st22" d="M1007.7,696.9c0.1,3.7,0.1,7.4,0,11.1h-1.5h-0.1l-0.3-11.1h0.4H1007.7z"/>
			<path class="st22" d="M1006.2,708h1.5c0,3.7-0.2,7.4-0.4,11.1h-1L1006.2,708L1006.2,708z"/>
			<path class="st31" d="M1007.7,669.8l0.1-0.2C1007.7,669.7,1007.7,669.7,1007.7,669.8L1007.7,669.8z"/>
			<path class="st22" d="M1006.9,730.3c0.6,7.5,0.8,15,0.5,22.5l-3.7-44.8c1.3,6.5,2.3,13,2.9,19.5v1.9c0-0.2,0-0.5,0.1-0.7
				C1006.8,729.2,1006.9,729.7,1006.9,730.3C1006.9,730.2,1006.9,730.2,1006.9,730.3z"/>
			<path class="st22" d="M1006.5,719.1h1c-0.2,3.2-0.4,6.4-0.6,9.6c0-0.4-0.1-0.8-0.1-1.2L1006.5,719.1z"/>
			<path class="st31" d="M1006.7,727.5c0,0.4,0.1,0.8,0.1,1.2c0,0.2,0,0.5-0.1,0.7V727.5z"/>
			<path class="st31" d="M1005.7,656.7l-4.3-1.8c1,0.2,2,0.5,2.9,0.9l0,0C1004.7,656.2,1005.2,656.5,1005.7,656.7z"/>
			<path class="st31" d="M1003.3,694.1l0.5,13.9C1002.9,703.4,1002.7,698.7,1003.3,694.1z"/>
			<path class="st22" d="M1004.3,655.9c-0.9-0.5-1.9-0.8-2.9-0.9l0,0l-19.9-8.3C989.4,648.5,997.2,651.7,1004.3,655.9z"/>
			<polygon class="st22" points="981.4,646.7 838,597.2 848.3,600.1 858.8,603.1 869.2,606.2 879.5,609.4 889.8,612.7 900.1,616.1 
				910.4,619.6 920.7,623.2 930.9,626.9 941,630.7 951.2,634.5 961.3,638.5 971.3,642.5 			"/>
			<path class="st22" d="M890.9,668.9L838,597.2l0,0l0,0C860.5,617.1,878.5,641.5,890.9,668.9z"/>
			<path class="st22" d="M890.4,630.6l-43-28.4C862.6,610.3,877,619.8,890.4,630.6z"/>
			<path class="st22" d="M837.9,597.2l12.9,35C845.3,621,841,609.2,837.9,597.2z"/>
			<path class="st31" d="M838.8,642.5v2.2c0-0.3,0-0.6-0.1-0.9L838.8,642.5z"/>
			<path class="st22" d="M837.2,674.8l0.2-6.9l0.4-8.5l0.5-8.4l0.5-7.1c0,0.3,0,0.6,0.1,0.9l-0.8,90.7l-0.4-8.4l-0.3-8.5l-0.2-8.5
				l-0.1-8.5v-8.4l0.1-7.4v-1.1l0.2-8.5L837.2,674.8z"/>
			<path class="st31" d="M837.9,597.1C838,597.1,838,597.2,837.9,597.1L837.9,597.1L837.9,597.1z"/>
			<path class="st31" d="M838,597.2L838,597.2L838,597.2z"/>
			<polygon class="st31" points="837.9,597.1 837.9,597.2 837.9,597.2 			"/>
			<path class="st31" d="M837.9,597.1v0.1V597.1z"/>
		</g>
		<g>
			<line class="st32" x1="1008" y1="641.5" x2="1110.4" y2="641.5"/>
			<line class="st32" x1="1006.2" y1="641.5" x2="1006.8" y2="641.5"/>
			<line class="st32" x1="679.5" y1="641.5" x2="837.5" y2="641.5"/>
			<line class="st32" x1="606.1" y1="652.6" x2="837.5" y2="652.6"/>
			<line class="st32" x1="1009.9" y1="652.6" x2="1110.4" y2="652.6"/>
			<line class="st32" x1="1006.2" y1="652.6" x2="1009.8" y2="652.6"/>
			<line class="st32" x1="1009.8" y1="663.7" x2="1110.4" y2="663.7"/>
			<line class="st32" x1="1006.7" y1="663.7" x2="1009.7" y2="663.7"/>
			<line class="st32" x1="655" y1="663.7" x2="837.5" y2="663.7"/>
			<polyline class="st32" points="1006.4,674.8 1018.1,674.8 1110.4,674.8 			"/>
			<line class="st32" x1="655" y1="674.8" x2="837.2" y2="674.8"/>
			<polyline class="st32" points="1007.3,685.8 1018.1,685.8 1110.4,685.8 			"/>
			<polyline class="st32" points="657.9,685.8 829.7,685.8 836.9,685.8 			"/>
			<line class="st32" x1="1007.7" y1="696.9" x2="1110.4" y2="696.9"/>
			<line class="st32" x1="1007.8" y1="708" x2="1110.4" y2="708"/>
			<line class="st32" x1="1007.4" y1="719.1" x2="1110.4" y2="719.1"/>
			<line class="st32" x1="1006.2" y1="719.1" x2="1006.5" y2="719.1"/>
			<polyline class="st32" points="1006.9,730.2 1007,730.2 1110.4,730.2 			"/>
			<line class="st32" x1="1006.9" y1="730.3" x2="1007" y2="730.2"/>
			<line class="st36" x1="829.7" y1="685.8" x2="829.7" y2="696.9"/>
			<line class="st32" x1="1018.1" y1="674.8" x2="1018.1" y2="685.8"/>
			<path class="st37" d="M919.5,577.8c-0.6,3.4,0,6.9,1.5,10"/>
			<path class="st37" d="M921,587.8c-6.6-2.1-13.5-2.6-20.3-1.5"/>
			<polyline class="st32" points="838.7,643.8 838.3,651 837.8,659.4 837.4,667.9 837.2,674.8 837.1,676.3 836.9,684.8 836.9,685.8 
				836.8,693.2 836.9,701.7 837,710.1 837.2,718.6 837.5,727 838,735.4 			"/>
			<path class="st32" d="M1009.9,651.8c0.2-3.3-0.8-6.6-2.8-9.2"/>
			<path class="st32" d="M993.7,627.1c-59.8-27.5-88.9-33.6-153.5-33.7"/>
			<path class="st32" d="M837.9,597.2c-0.7,15.6-0.4,31.2,0.8,46.7c0,0.3,0,0.6,0.1,0.9c0.9,10.7,2.2,21.4,4,32"/>
			<path class="st32" d="M838,597.2C838,597.2,838,597.1,838,597.2"/>
			<path class="st32" d="M890.9,668.9c-12.4-27.4-30.4-51.8-52.9-71.8"/>
			<line class="st32" x1="837.9" y1="597.1" x2="837.9" y2="597.1"/>
			<line class="st32" x1="838" y1="597.2" x2="838" y2="597.2"/>
			<polyline class="st32" points="981.4,646.7 971.3,642.5 961.3,638.5 951.2,634.5 941,630.7 930.9,626.9 920.7,623.2 910.4,619.6 
				900.1,616.1 889.8,612.7 879.5,609.4 869.2,606.2 858.8,603.1 848.3,600.1 838,597.2 			"/>
			<line class="st32" x1="838" y1="597.2" x2="838" y2="597.2"/>
			<line class="st32" x1="837.9" y1="597.2" x2="838" y2="597.2"/>
			<path class="st32" d="M890.4,630.6c-13.4-10.8-27.8-20.3-43-28.4"/>
			<path class="st32" d="M837.9,597.1L837.9,597.1L837.9,597.1c3.1,12.1,7.4,23.8,12.9,35"/>
			<line class="st32" x1="837.9" y1="597.1" x2="837.9" y2="597.1"/>
			<path class="st32" d="M1006.8,728.7c0.3-3.2,0.5-6.4,0.6-9.6c0.2-3.7,0.3-7.4,0.4-11.1c0.1-3.7,0-7.4,0-11.1
				c-0.1-3.7-0.2-7.4-0.5-11.1c-0.2-3.7-0.5-7.4-0.9-11.1c-0.3-3.3-0.7-6.7-1.1-10"/>
			<line class="st32" x1="1005" y1="662.1" x2="1005" y2="662.2"/>
			<path class="st32" d="M1004.3,655.9c-7.1-4.2-14.8-7.3-22.8-9.2"/>
			<path class="st32" d="M1007.5,752.7c0.3-7.5,0.1-15-0.5-22.5v-0.1c0-0.5-0.1-1-0.1-1.5c0-0.4-0.1-0.8-0.1-1.2
				c-0.6-6.6-1.6-13.1-2.9-19.5"/>
			<line class="st32" x1="1003.8" y1="708" x2="1003.8" y2="708"/>
			<path class="st32" d="M1003.3,694.1c-0.6,4.6-0.5,9.3,0.5,13.9"/>
			<line class="st32" x1="1003.8" y1="708" x2="1003.8" y2="708"/>
			<line class="st32" x1="1007.7" y1="669.8" x2="1006.7" y2="672.4"/>
			<line class="st32" x1="1009.5" y1="664.8" x2="1007.7" y2="669.6"/>
			<path class="st32" d="M1007.7,669.8c0-0.1,0-0.1,0.1-0.2c0.5-1.5,0.4-3.2-0.3-4.7c-0.2-0.4-0.5-0.9-0.8-1.2
				c0-0.1-0.1-0.2-0.2-0.2c-0.2-0.2-0.8-0.3-1.4-0.4h-0.1c-0.2,0-0.3,0-0.5-0.1c-1.9-0.2-4-0.3-0.6-1.3"/>
			<path class="st32" d="M1009.5,664.8c0.1-0.4,0.2-0.8,0.3-1.2c0.1-0.3,0.1-0.7,0.1-1"/>
			<path class="st32" d="M1006.4,657.2c-0.2-0.2-0.5-0.4-0.7-0.5"/>
			<path class="st32" d="M1004.9,643.9c0.8-0.3,1.5-0.7,2.1-1.3c0.4-0.3,0.7-0.7,0.9-1.1c0.6-0.8,1-1.8,1.1-2.8"/>
			<path class="st32" d="M1008.9,660.2c0.7-2.5,1-5,1-7.6c0-0.3,0-0.5,0-0.8"/>
			<path class="st32" d="M1009.9,662.6c-0.2-0.9-0.6-1.7-1-2.4c-0.8-1.4-1.9-2.6-3.2-3.5l0,0c-0.4-0.3-0.9-0.6-1.4-0.8l0,0
				c-0.9-0.5-1.9-0.8-2.9-0.9l0,0c-0.8-0.1-1.6-0.2-2.5-0.1"/>
			<path class="st37" d="M943.1,586.3c-6.8-1.1-13.8-0.6-20.3,1.5"/>
			<path class="st37" d="M922.7,587.8c1.6-3.1,2.1-6.6,1.5-10"/>
			<line class="st38" x1="920" y1="592" x2="711.9" y2="592"/>
		</g>
	</g>
	<g class="st9">
		<g>
			<path class="st22" d="M962.5,663.5c3.2,0,3.2-5,0-5S959.3,663.5,962.5,663.5L962.5,663.5z"/>
		</g>
	</g>
	<g class="st9">
		<g>
			<path class="st22" d="M962.5,663.5c3.2,0,3.2-5,0-5S959.3,663.5,962.5,663.5L962.5,663.5z"/>
		</g>
	</g>
	<g class="st9">
		<g>
			<path class="st22" d="M947.3,672.8c3.2,0,3.2-5,0-5S944.1,672.8,947.3,672.8L947.3,672.8z"/>
		</g>
	</g>
	<g class="st9">
		<g>
			<path class="st22" d="M1008.8,661.8c0-0.2,0-0.4,0-0.7c0-0.2-0.4-0.3-0.6-0.4c-0.3-0.1-0.7,0-1.1,0.1c-0.5,0.1-1.3,0.5-1.3,1.1
				c0,0.2,0,0.4,0,0.7c0,0.2,0.4,0.3,0.6,0.4c0.3,0.1,0.7,0,1.1-0.1C1008,662.7,1008.8,662.4,1008.8,661.8L1008.8,661.8z"/>
		</g>
	</g>
	<g class="st9">
		<g>
			<path class="st22" d="M1007.9,663.3c1,0,3.1-1.6,1.2-1.6C1008,661.7,1006,663.3,1007.9,663.3L1007.9,663.3z"/>
		</g>
	</g>
	<g class="st9">
		<g>
			<path class="st22" d="M1007.7,659.5v-5C1007.6,654.5,1007.6,659.5,1007.7,659.5L1007.7,659.5z"/>
		</g>
	</g>
	<g class="st9">
		<g>
			<path class="st22" d="M1007.7,660.2v-5C1007.6,655.2,1007.6,660.2,1007.7,660.2L1007.7,660.2z"/>
		</g>
	</g>
	<g class="st9">
		<g>
			<path class="st22" d="M1005.1,638.3c3.2,0,3.2-5,0-5C1001.9,633.3,1001.9,638.3,1005.1,638.3L1005.1,638.3z"/>
		</g>
	</g>
	<g class="st9">
		<g>
			<path class="st22" d="M1004.6,637.1c3.2,0,3.2-5,0-5C1001.4,632.1,1001.4,637.1,1004.6,637.1L1004.6,637.1z"/>
		</g>
	</g>
	<g class="st9">
		<g>
			<path class="st22" d="M1005.9,639.5c3.2,0,3.2-5,0-5S1002.7,639.5,1005.9,639.5L1005.9,639.5z"/>
		</g>
	</g>
	<g class="st9">
		<g>
			<path class="st22" d="M1006.1,640.6c3.2,0,3.2-5,0-5C1002.9,635.6,1002.9,640.6,1006.1,640.6L1006.1,640.6z"/>
		</g>
	</g>
	<g class="st9">
		<g>
			<path class="st22" d="M1005.3,642.8c3.2,0,3.2-5,0-5C1002,637.8,1002,642.8,1005.3,642.8L1005.3,642.8z"/>
		</g>
	</g>
	<g class="st9">
		<g>
			<path class="st22" d="M1004.8,643.1c3.2,0,3.2-5,0-5S1001.6,643.1,1004.8,643.1L1004.8,643.1z"/>
		</g>
	</g>
	<g class="st9">
		<g>
			<path class="st22" d="M1005.9,641.7c3.2,0,3.2-5,0-5S1002.7,641.7,1005.9,641.7L1005.9,641.7z"/>
		</g>
	</g>
	<g class="st9">
		<g>
			<path class="st22" d="M1006.3,641c3.2,0,3.2-5,0-5C1003,636,1003,641,1006.3,641L1006.3,641z"/>
		</g>
	</g>
	<g class="st9">
		<g>
			<path class="st22" d="M1005.1,637.9c3.2,0,3.2-5,0-5C1001.9,632.9,1001.9,637.9,1005.1,637.9L1005.1,637.9z"/>
		</g>
	</g>
	<g class="st9">
		<g>
			<path class="st22" d="M1005.9,639c3.2,0,3.2-5,0-5S1002.7,639,1005.9,639L1005.9,639z"/>
		</g>
	</g>
	<g class="st9">
		<g>
			<path class="st22" d="M1003.9,636.1c3.2,0,3.2-5,0-5S1000.7,636.1,1003.9,636.1L1003.9,636.1z"/>
		</g>
	</g>
	<g class="st9">
		<g>
			<path class="st22" d="M1006.2,640.6c3.2,0,3.2-5,0-5S1003,640.6,1006.2,640.6L1006.2,640.6z"/>
		</g>
	</g>
	<g class="st9">
		<g>
			<path class="st22" d="M1006.4,640.6c3.2,0,3.2-5,0-5S1003.2,640.6,1006.4,640.6L1006.4,640.6z"/>
		</g>
	</g>
	<g class="st9">
		<g>
			<path class="st22" d="M1006.4,650c3.2,0,3.2-5,0-5S1003.2,650,1006.4,650L1006.4,650z"/>
		</g>
	</g>
	<g class="st9">
		<g>
			<path class="st22" d="M1006.8,651.2c3.2,0,3.2-5,0-5C1003.5,646.2,1003.5,651.2,1006.8,651.2L1006.8,651.2z"/>
		</g>
	</g>
	<g class="st9">
		<g>
			<path class="st22" d="M1006.1,648.8c3.2,0,3.2-5,0-5C1002.9,643.8,1002.9,648.8,1006.1,648.8L1006.1,648.8z"/>
		</g>
	</g>
	<g class="st9">
		<g>
			<path class="st22" d="M1006.9,651.9c3.2,0,3.2-5,0-5S1003.7,651.9,1006.9,651.9L1006.9,651.9z"/>
		</g>
	</g>
	<g class="st9">
		<g>
			<path class="st22" d="M1007.5,657.6c0.6,0,0.6-1,0-1S1006.9,657.6,1007.5,657.6L1007.5,657.6z"/>
		</g>
	</g>
	<g class="st9">
		<g>
			<path class="st22" d="M1008.4,657.9c0.6,0,0.6-1,0-1C1007.8,656.9,1007.8,657.9,1008.4,657.9L1008.4,657.9z"/>
		</g>
	</g>
	<g class="st9">
		<g>
			<path class="st22" d="M1007.7,657c0.6,0,0.6-1,0-1C1007,656,1007,657,1007.7,657L1007.7,657z"/>
		</g>
	</g>
	<g class="st9">
		<g>
			<path class="st22" d="M1007.9,658.1L1007.9,658.1c0.5,0.5,1.2-0.2,0.8-0.6c0,0,0,0-0.1-0.1
				C1008.1,656.9,1007.4,657.6,1007.9,658.1L1007.9,658.1z"/>
		</g>
	</g>
	<g class="st9">
		<g>
			<path class="st22" d="M1007.9,658.1c0,0.1,0,0.1,0,0.2c0,0.6,1,0.6,1,0c0-0.2,0-0.3-0.1-0.4
				C1008.6,657.3,1007.7,657.5,1007.9,658.1L1007.9,658.1z"/>
		</g>
	</g>
	<g class="st9">
		<g>
			<path class="st22" d="M1008,658.4c0.6,0,0.6-1,0-1S1007.4,658.4,1008,658.4L1008,658.4z"/>
		</g>
	</g>
	<g class="st9">
		<g>
			<path class="st22" d="M1008,657.5c0.6,0,0.6-1,0-1S1007.4,657.5,1008,657.5L1008,657.5z"/>
		</g>
	</g>
	<g class="st9">
		<g>
			<path class="st22" d="M1006.3,660.9c0.5-0.2,1,0.8,1.3,1c0.4,0.3,0.9,0.5,1.1,0.9c0.3,0.6,1.2,0.1,0.9-0.5
				c-0.4-0.7-1.1-0.9-1.7-1.5c-0.5-0.6-1.1-1.3-2-1C1005.4,660.2,1005.6,661.1,1006.3,660.9L1006.3,660.9z"/>
		</g>
	</g>
	<g class="st9">
		<g>
			<path class="st22" d="M1006,666.9c-0.1,0.6,0.2,1.1,0.3,1.8s0,1.5,0,2.2c-0.1,0.6,0.9,0.6,1,0c0.1-0.7,0.1-1.3,0.1-2
				c-0.1-0.6-0.4-1.3-0.4-1.9C1007.1,666.2,1006.1,666.2,1006,666.9L1006,666.9z"/>
		</g>
	</g>
</g>
<image style="overflow:visible;" width="719" height="526" xlink:href="../../../../../Pictures/EXPOSICIO_LLUM_cartell_baixa_5952140867450.jpg"  transform="matrix(0.6 0 0 0.6 201 260.1512)">
</image>
</svg>
