<svg id="Livello_1" data-name="Livello 1" xmlns="http://www.w3.org/2000/svg" xmlns:xlink="http://www.w3.org/1999/xlink" viewBox="0 0 1190.6 1190.6"><defs><style>.cls-1,.cls-3,.cls-4,.cls-5{fill:none;}.cls-2{fill:#c89664;}.cls-3{stroke:#6496c8;}.cls-3,.cls-4,.cls-5{stroke-miterlimit:10;}.cls-4{stroke:#96c864;}.cls-5{stroke:#9664c8;}.cls-6{clip-path:url(#clip-path);}.cls-10,.cls-11,.cls-7,.cls-9{isolation:isolate;}.cls-8{clip-path:url(#clip-path-2);}.cls-9{font-size:60px;font-family:OpenSansCondensed-Bold, Open Sans Condensed;font-weight:700;}.cls-10{font-size:16px;font-family:OpenSans-Light, Open Sans;}.cls-11{font-size:10px;font-family:EBGaramond-Italic, EB Garamond;font-style:italic;}.cls-12{letter-spacing:-0.02em;}</style><clipPath id="clip-path"><rect class="cls-1" x="60.9" y="337.3" width="239.5" height="239.5"/></clipPath><clipPath id="clip-path-2"><circle class="cls-1" cx="180.7" cy="733.5" r="119.8"/></clipPath></defs><title>Tavola disegno 1</title><g id="Livello_1-2" data-name="Livello 1-2"><rect class="cls-2" width="1190.6" height="1190.6"/></g><g id="Livello_2" data-name="Livello 2"><rect class="cls-3" x="60.9" y="60.9" width="239.5" height="239.5"/><rect class="cls-3" x="337.3" y="60.9" width="239.5" height="239.5"/><rect class="cls-3" x="337.3" y="337.3" width="239.5" height="239.5"/><rect class="cls-3" x="60.9" y="337.3" width="239.5" height="239.5"/><rect class="cls-3" x="60.9" y="613.7" width="239.5" height="239.5"/><rect class="cls-3" x="337.3" y="613.7" width="239.5" height="239.5"/><rect class="cls-3" x="337.3" y="890.1" width="239.5" height="239.5"/><rect class="cls-3" x="60.9" y="890.1" width="239.5" height="239.5"/><rect class="cls-3" x="613.7" y="60.9" width="239.5" height="239.5"/><rect class="cls-3" x="890.1" y="60.9" width="239.5" height="239.5"/><rect class="cls-3" x="890.1" y="337.3" width="239.5" height="239.5"/><rect class="cls-3" x="613.7" y="337.3" width="239.5" height="239.5"/><rect class="cls-3" x="613.7" y="613.7" width="239.5" height="239.5"/><rect class="cls-3" x="890.1" y="613.7" width="239.5" height="239.5"/><rect class="cls-3" x="890.1" y="890.1" width="239.5" height="239.5"/><rect class="cls-3" x="613.7" y="890.1" width="239.5" height="239.5"/></g><g id="Livello_3" data-name="Livello 3"><rect class="cls-4" x="60.9" y="60.9" width="184.3" height="184.3"/><rect class="cls-4" x="282" y="60.9" width="184.3" height="184.3"/><rect class="cls-4" x="60.9" y="282.1" width="184.3" height="184.3"/><rect class="cls-4" x="282" y="282.1" width="184.3" height="184.3"/><rect class="cls-4" x="503.1" y="60.9" width="184.3" height="184.3"/><rect class="cls-4" x="724.3" y="60.9" width="184.3" height="184.3"/><rect class="cls-4" x="503.1" y="282.1" width="184.3" height="184.3"/><rect class="cls-4" x="724.3" y="282.1" width="184.3" height="184.3"/><rect class="cls-4" x="60.9" y="503.2" width="184.3" height="184.3"/><rect class="cls-4" x="282" y="503.2" width="184.3" height="184.3"/><rect class="cls-4" x="60.9" y="724.3" width="184.3" height="184.3"/><rect class="cls-4" x="282" y="724.3" width="184.3" height="184.3"/><rect class="cls-4" x="503.1" y="503.2" width="184.3" height="184.3"/><rect class="cls-4" x="724.3" y="503.2" width="184.3" height="184.3"/><rect class="cls-4" x="503.1" y="724.3" width="184.3" height="184.3"/><rect class="cls-4" x="724.3" y="724.3" width="184.3" height="184.3"/><rect class="cls-4" x="945.3" y="60.9" width="184.3" height="184.3"/><rect class="cls-4" x="945.3" y="282.1" width="184.3" height="184.3"/><rect class="cls-4" x="945.4" y="503.2" width="184.3" height="184.3"/><rect class="cls-4" x="945.3" y="724.3" width="184.3" height="184.3"/><rect class="cls-4" x="60.9" y="945.4" width="184.3" height="184.3"/><rect class="cls-4" x="282" y="945.4" width="184.3" height="184.3"/><rect class="cls-4" x="503.1" y="945.4" width="184.3" height="184.3"/><rect class="cls-4" x="724.3" y="945.4" width="184.3" height="184.3"/><rect class="cls-4" x="945.3" y="945.4" width="184.3" height="184.3"/></g><g id="Livello_4" data-name="Livello 4"><rect class="cls-5" x="60.9" y="60.9" width="147.4" height="147.4"/><rect class="cls-5" x="245.2" y="60.9" width="147.4" height="147.4"/><rect class="cls-5" x="60.9" y="245.2" width="147.4" height="147.4"/><rect class="cls-5" x="245.2" y="245.2" width="147.4" height="147.4"/><rect class="cls-5" x="429.5" y="60.9" width="147.4" height="147.4"/><rect class="cls-5" x="613.7" y="60.9" width="147.4" height="147.4"/><rect class="cls-5" x="429.5" y="245.2" width="147.4" height="147.4"/><rect class="cls-5" x="613.7" y="245.2" width="147.4" height="147.4"/><rect class="cls-5" x="61" y="429.5" width="147.4" height="147.4"/><rect class="cls-5" x="245.2" y="429.5" width="147.4" height="147.4"/><rect class="cls-5" x="60.9" y="613.7" width="147.4" height="147.4"/><rect class="cls-5" x="245.2" y="613.7" width="147.4" height="147.4"/><rect class="cls-5" x="429.5" y="429.5" width="147.4" height="147.4"/><rect class="cls-5" x="613.7" y="429.5" width="147.4" height="147.4"/><rect class="cls-5" x="429.5" y="613.7" width="147.4" height="147.4"/><rect class="cls-5" x="613.7" y="613.7" width="147.4" height="147.4"/><rect class="cls-5" x="60.9" y="798" width="147.4" height="147.4"/><rect class="cls-5" x="245.2" y="798" width="147.4" height="147.4"/><rect class="cls-5" x="60.9" y="982.2" width="147.4" height="147.4"/><rect class="cls-5" x="245.2" y="982.2" width="147.4" height="147.4"/><rect class="cls-5" x="429.5" y="798" width="147.4" height="147.4"/><rect class="cls-5" x="613.7" y="798" width="147.4" height="147.4"/><rect class="cls-5" x="429.5" y="982.2" width="147.4" height="147.4"/><rect class="cls-5" x="613.7" y="982.2" width="147.4" height="147.4"/><rect class="cls-5" x="798" y="60.9" width="147.4" height="147.4"/><rect class="cls-5" x="982.2" y="60.9" width="147.4" height="147.4"/><rect class="cls-5" x="798" y="245.2" width="147.4" height="147.4"/><rect class="cls-5" x="982.2" y="245.2" width="147.4" height="147.4"/><rect class="cls-5" x="798" y="429.5" width="147.4" height="147.4"/><rect class="cls-5" x="982.2" y="429.5" width="147.4" height="147.4"/><rect class="cls-5" x="798" y="613.7" width="147.4" height="147.4"/><rect class="cls-5" x="982.2" y="613.7" width="147.4" height="147.4"/><rect class="cls-5" x="798" y="798" width="147.4" height="147.4"/><rect class="cls-5" x="982.2" y="798" width="147.4" height="147.4"/><rect class="cls-5" x="798" y="982.2" width="147.4" height="147.4"/><rect class="cls-5" x="982.2" y="982.2" width="147.4" height="147.4"/></g><g class="cls-6"><image class="cls-7" width="1919" height="1079" transform="translate(-1157.9 -133.65)" xlink:href="869987_03.png"/></g><g class="cls-8"><image class="cls-7" width="1920" height="1080" transform="translate(0 208.34)" xlink:href="869987_05.png"/></g><rect class="cls-1" x="429.4" y="153.1" width="331.7" height="147.4"/><text class="cls-9" transform="translate(429.45 198.66)">No Man’s Sky</text><rect class="cls-1" x="337.3" y="337.3" width="608" height="239.5"/><text class="cls-10" transform="translate(337.32 349.48)">Lorem ipsum dolor sit amet, consectetuer adipiscing elit, sed diam nonummy nibh </text><text class="cls-10" transform="translate(337.32 373.48)">euismod tincidunt ut laoreet dolore magna aliquam erat volutpat. Ut wisi enim ad </text><text class="cls-10" transform="translate(337.32 397.48)">minim veniam, quis nostrud exerci tation ullamcorper suscipit lobortis nisl ut aliquip </text><text class="cls-10" transform="translate(337.32 421.48)">ex ea commodo consequat. Duis autem vel eum iriure dolor in hendrerit in vulputate </text><text class="cls-10" transform="translate(337.32 445.48)">velit esse molestie consequat, vel illum dolore eu feugiat nulla facilisis at vero eros et </text><text class="cls-10" transform="translate(337.32 469.48)">accumsan et iusto odio dignissim qui blandit praesent luptatum zzril delenit augue </text><text class="cls-10" transform="translate(337.32 493.48)">duis dolore te feugait nulla facilisi.</text><text class="cls-10" transform="translate(337.32 517.48)">Lorem ipsum dolor sit amet, cons ectetuer adipiscing elit, sed diam nonummy nibh </text><text class="cls-10" transform="translate(337.32 541.48)">euismod tincidunt ut laoreet dolore magna aliquam erat volutpat. Ut wisi enim ad </text><text class="cls-10" transform="translate(337.32 565.48)">minim veniam, quis nostrud exerci tation ullamcorper suscipit lobortis nisl ut aliquip </text><rect class="cls-1" x="300.5" y="687.4" width="92.1" height="36.8"/><text class="cls-11" transform="translate(300.47 694.45)">No M<tspan class="cls-12" x="23.42" y="0">a</tspan><tspan x="28.13" y="0">n’s Sky</tspan></text><circle class="cls-1" cx="180.6" cy="1009.9" r="119.8"/><g class="cls-7"><text class="cls-10" transform="translate(107.15 926.26)">Lorem ipsum dolor </text><text class="cls-10" transform="translate(83.85 950.26)">sit amet, consectetuer </text><text class="cls-10" transform="translate(70.25 974.26)">adipiscing elit, sed diam no</text><text class="cls-10" transform="translate(263.25 974.26)">-</text><text class="cls-10" transform="translate(63.05 998.26)">nummy nibh euismod tincidunt </text><text class="cls-10" transform="translate(61.55 1022.26)">ut laoreet dolore magna aliquam </text><text class="cls-10" transform="translate(66.55 1046.26)">erat volutpat. Ut wisi enim ad </text><text class="cls-10" transform="translate(77.15 1070.26)">minim veniam, quis nostrud </text><text class="cls-10" transform="translate(95.65 1094.26)">exerci tation ullamcor</text><text class="cls-10" transform="translate(251.05 1094.26)">-</text><text class="cls-10" transform="translate(129.55 1118.26)">per suscipit </text></g></svg>
