<svg xmlns="http://www.w3.org/2000/svg" xmlns:xlink="http://www.w3.org/1999/xlink" viewBox="0 0 1190.55 1190.55"><defs><style>.cls-1{fill:#7bc5b3;}.cls-2,.cls-3,.cls-4,.cls-5{fill:none;stroke-miterlimit:10;}.cls-2{stroke:#312783;}.cls-3{stroke:#be1622;}.cls-4,.cls-5{stroke:#063;}.cls-5{stroke-width:1px;}</style></defs><title>Tavola disegno 1</title><g id="Livello_1" data-name="Livello 1"><rect class="cls-1" width="1190.55" height="1190.55"/></g><g id="Livello_2" data-name="Livello 2"><rect class="cls-2" x="64.7" y="337.55" width="239.53" height="239.53"/><rect class="cls-2" x="64.7" y="613.92" width="239.53" height="239.53"/><rect class="cls-2" x="64.7" y="890.08" width="239.53" height="239.53"/><rect class="cls-2" x="64.7" y="61.17" width="239.53" height="239.53"/><rect class="cls-2" x="341.08" y="337.55" width="239.53" height="239.53"/><rect class="cls-2" x="341.08" y="613.92" width="239.53" height="239.53"/><rect class="cls-2" x="341.08" y="890.08" width="239.53" height="239.53"/><rect class="cls-2" x="341.08" y="61.17" width="239.53" height="239.53"/><rect class="cls-2" x="617.46" y="337.55" width="239.53" height="239.53"/><rect class="cls-2" x="617.46" y="613.92" width="239.53" height="239.53"/><rect class="cls-2" x="617.46" y="890.08" width="239.53" height="239.53"/><rect class="cls-2" x="617.46" y="61.17" width="239.53" height="239.53"/><rect class="cls-2" x="893.84" y="337.55" width="239.53" height="239.53"/><rect class="cls-2" x="893.84" y="613.92" width="239.53" height="239.53"/><rect class="cls-2" x="893.84" y="890.08" width="239.53" height="239.53"/><rect class="cls-2" x="893.84" y="61.17" width="239.53" height="239.53"/></g><g id="Livello_3" data-name="Livello 3"><rect class="cls-3" x="64.7" y="60.95" width="184.25" height="184.25"/><rect class="cls-3" x="285.81" y="60.95" width="184.25" height="184.25"/><rect class="cls-3" x="506.91" y="60.95" width="184.25" height="184.25"/><rect class="cls-3" x="728.01" y="60.95" width="184.25" height="184.25"/><rect class="cls-3" x="949.11" y="60.95" width="184.25" height="184.25"/><rect class="cls-3" x="64.7" y="282.05" width="184.25" height="184.25"/><rect class="cls-3" x="285.8" y="282.05" width="184.25" height="184.25"/><rect class="cls-3" x="506.91" y="282.05" width="184.25" height="184.25"/><rect class="cls-3" x="728.01" y="282.05" width="184.25" height="184.25"/><rect class="cls-3" x="949.11" y="282.05" width="184.25" height="184.25"/><rect class="cls-3" x="64.7" y="724.25" width="184.25" height="184.25"/><rect class="cls-3" x="285.8" y="724.25" width="184.25" height="184.25"/><rect class="cls-3" x="506.91" y="724.25" width="184.25" height="184.25"/><rect class="cls-3" x="728.01" y="724.25" width="184.25" height="184.25"/><rect class="cls-3" x="949.11" y="724.25" width="184.25" height="184.25"/><rect class="cls-3" x="64.7" y="503.15" width="184.25" height="184.25"/><rect class="cls-3" x="285.8" y="503.15" width="184.25" height="184.25"/><rect class="cls-3" x="506.91" y="503.15" width="184.25" height="184.25"/><rect class="cls-3" x="728.01" y="503.15" width="184.25" height="184.25"/><rect class="cls-3" x="949.11" y="503.15" width="184.25" height="184.25"/><rect class="cls-3" x="64.7" y="945.35" width="184.25" height="184.25"/><rect class="cls-3" x="285.8" y="945.35" width="184.25" height="184.25"/><rect class="cls-3" x="506.91" y="945.35" width="184.25" height="184.25"/><rect class="cls-3" x="728.01" y="945.35" width="184.25" height="184.25"/><rect class="cls-3" x="949.11" y="945.35" width="184.25" height="184.25"/></g><g id="Livello_4" data-name="Livello 4"><rect class="cls-4" x="64.7" y="60.94" width="147.4" height="147.4"/><rect class="cls-4" x="248.9" y="60.94" width="147.4" height="147.4"/><rect class="cls-4" x="433.1" y="60.94" width="147.4" height="147.4"/><rect class="cls-4" x="617.46" y="60.94" width="147.4" height="147.4"/><rect class="cls-4" x="801.71" y="60.94" width="147.4" height="147.4"/><rect class="cls-4" x="985.96" y="60.94" width="147.4" height="147.4"/><rect class="cls-4" x="64.7" y="245.2" width="147.4" height="147.4"/><rect class="cls-4" x="248.9" y="245.2" width="147.4" height="147.4"/><rect class="cls-4" x="433.1" y="245.2" width="147.4" height="147.4"/><rect class="cls-4" x="617.46" y="245.2" width="147.4" height="147.4"/><rect class="cls-4" x="801.71" y="245.2" width="147.4" height="147.4"/><rect class="cls-4" x="985.96" y="245.2" width="147.4" height="147.4"/><rect class="cls-4" x="64.7" y="429.45" width="147.4" height="147.4"/><rect class="cls-4" x="248.9" y="429.45" width="147.4" height="147.4"/><rect class="cls-4" x="433.1" y="429.45" width="147.4" height="147.4"/><rect class="cls-4" x="617.46" y="429.45" width="147.4" height="147.4"/><rect class="cls-4" x="801.71" y="429.45" width="147.4" height="147.4"/><rect class="cls-4" x="985.96" y="429.45" width="147.4" height="147.4"/><rect class="cls-4" x="64.7" y="613.7" width="147.4" height="147.4"/><rect class="cls-4" x="248.9" y="613.7" width="147.4" height="147.4"/><rect class="cls-4" x="433.1" y="613.7" width="147.4" height="147.4"/><rect class="cls-4" x="617.46" y="613.7" width="147.4" height="147.4"/><rect class="cls-4" x="801.71" y="613.7" width="147.4" height="147.4"/><rect class="cls-4" x="985.96" y="613.7" width="147.4" height="147.4"/><rect class="cls-5" x="64.7" y="797.95" width="147.4" height="147.4"/><rect class="cls-4" x="248.96" y="797.95" width="147.4" height="147.4"/><rect class="cls-4" x="433.1" y="797.95" width="147.4" height="147.4"/><rect class="cls-4" x="617.46" y="797.95" width="147.4" height="147.4"/><rect class="cls-4" x="801.71" y="797.95" width="147.4" height="147.4"/><rect class="cls-4" x="985.96" y="797.95" width="147.4" height="147.4"/><rect class="cls-4" x="64.7" y="982.2" width="147.4" height="147.4"/><rect class="cls-4" x="248.96" y="982.2" width="147.4" height="147.4"/><rect class="cls-4" x="433.1" y="982.2" width="147.4" height="147.4"/><rect class="cls-4" x="617.46" y="982.2" width="147.4" height="147.4"/><rect class="cls-4" x="801.71" y="982.2" width="147.4" height="147.4"/><rect class="cls-4" x="985.96" y="982.21" width="147.4" height="147.4"/></g><g id="Livello_10" data-name="Livello 10"><image width="1600" height="1200" transform="translate(0 -4.73) scale(0.74 1)" xlink:href="872488_03.jpg"/></g></svg>