<?xml version="1.0" encoding="utf-8"?>
<!-- Generator: Adobe Illustrator 22.0.1, SVG Export Plug-In . SVG Version: 6.00 Build 0)  -->
<svg version="1.1" id="图层_1" xmlns="http://www.w3.org/2000/svg" xmlns:xlink="http://www.w3.org/1999/xlink" x="0px" y="0px"
	 viewBox="0 0 1192 1192" style="enable-background:new 0 0 1192 1192;" xml:space="preserve">
<style type="text/css">
	.st0{fill:#ADF2C2;}
	.st1{fill:none;stroke:#8441EF;stroke-miterlimit:10;}
	.st2{fill:none;stroke:#356825;stroke-miterlimit:10;}
	.st3{fill:none;}
	.st4{fill:none;stroke:#F25B19;stroke-miterlimit:10;}
	.st5{clip-path:url(#SVGID_2_);}
	.st6{clip-path:url(#SVGID_4_);}
	.st7{font-family:'OpenSansCondensed-Bold';}
	.st8{font-size:60px;}
	.st9{font-family:'OpenSans-Light';}
	.st10{font-size:16px;}
	.st11{letter-spacing:1;}
	.st12{letter-spacing:5;}
	.st13{font-family:'OpenSans-LightItalic';}
	.st14{font-size:10px;}
</style>
<title>872442_05</title>
<g id="图层_1_1_">
	<rect y="0" class="st0" width="1192" height="1192"/>
	<rect x="61" y="60.9" class="st1" width="239.5" height="239.5"/>
	<rect x="337.3" y="337.3" class="st1" width="239.5" height="239.5"/>
	<rect x="890.1" y="60.9" class="st1" width="239.5" height="239.5"/>
	<rect x="613.7" y="60.9" class="st1" width="239.5" height="239.5"/>
	<rect x="61" y="337.3" class="st1" width="239.5" height="239.5"/>
	<rect x="337.3" y="60.9" class="st1" width="239.5" height="239.5"/>
	<rect x="613.7" y="337.3" class="st1" width="239.5" height="239.5"/>
	<rect x="890.1" y="337.3" class="st1" width="239.5" height="239.5"/>
	<rect x="61" y="613.7" class="st1" width="239.5" height="239.5"/>
	<rect x="337.3" y="613.7" class="st1" width="239.5" height="239.5"/>
	<rect x="613.7" y="613.7" class="st1" width="239.5" height="239.5"/>
	<rect x="890.1" y="613.7" class="st1" width="239.5" height="239.5"/>
	<rect x="61" y="890.1" class="st1" width="239.5" height="239.5"/>
	<rect x="890.1" y="890.1" class="st1" width="239.5" height="239.5"/>
	<rect x="613.7" y="890.1" class="st1" width="239.5" height="239.5"/>
	<rect x="337.3" y="890.1" class="st1" width="239.5" height="239.5"/>
	<g id="图层_2_1_">
		<rect x="61" y="60.9" class="st2" width="184.3" height="184.3"/>
		<rect x="282" y="60.9" class="st2" width="184.3" height="184.3"/>
		<rect x="503.1" y="60.9" class="st2" width="184.3" height="184.3"/>
		<rect x="503.1" y="503.2" class="st2" width="184.3" height="184.3"/>
		<rect x="724.3" y="503.2" class="st2" width="184.3" height="184.3"/>
		<rect x="282" y="503.2" class="st2" width="184.3" height="184.3"/>
		<rect x="61" y="503.2" class="st2" width="184.3" height="184.3"/>
		<rect x="945.4" y="282.1" class="st2" width="184.3" height="184.3"/>
		<rect x="724.3" y="282.1" class="st2" width="184.3" height="184.3"/>
		<rect x="503.1" y="282.1" class="st2" width="184.3" height="184.3"/>
		<rect x="282" y="282.1" class="st2" width="184.3" height="184.3"/>
		<rect x="61" y="282.1" class="st2" width="184.3" height="184.3"/>
		<rect x="945.4" y="60.9" class="st2" width="184.3" height="184.3"/>
		<rect x="724.3" y="60.9" class="st2" width="184.3" height="184.3"/>
		<rect x="945.4" y="503.2" class="st2" width="184.3" height="184.3"/>
		<rect x="503.1" y="724.3" class="st2" width="184.3" height="184.3"/>
		<rect x="282" y="945.4" class="st2" width="184.3" height="184.3"/>
		<rect x="724.3" y="945.4" class="st2" width="184.3" height="184.3"/>
		<rect x="503.1" y="945.4" class="st2" width="184.3" height="184.3"/>
		<rect x="724.3" y="724.3" class="st2" width="184.3" height="184.3"/>
		<rect x="282" y="724.3" class="st2" width="184.3" height="184.3"/>
		<rect x="61" y="945.4" class="st2" width="184.3" height="184.3"/>
		<rect x="61" y="724.3" class="st2" width="184.3" height="184.3"/>
		<rect x="945.4" y="724.3" class="st2" width="184.3" height="184.3"/>
		<rect x="945.4" y="945.4" class="st2" width="184.3" height="184.3"/>
	</g>
	<g id="图层_3">
		<rect x="61" y="60.9" class="st3" width="147.4" height="147.4"/>
		<rect x="245.2" y="60.9" class="st4" width="147.4" height="147.4"/>
		<rect x="61" y="245.2" class="st4" width="147.4" height="147.4"/>
		<rect x="61" y="429.5" class="st4" width="147.4" height="147.4"/>
		<rect x="61" y="613.7" class="st4" width="147.4" height="147.4"/>
		<rect x="61" y="798" class="st4" width="147.4" height="147.4"/>
		<rect x="61" y="982.2" class="st4" width="147.4" height="147.4"/>
		<rect x="429.5" y="60.9" class="st4" width="147.4" height="147.4"/>
		<rect x="613.7" y="60.9" class="st4" width="147.4" height="147.4"/>
		<rect x="798" y="60.9" class="st4" width="147.4" height="147.4"/>
		<rect x="982.2" y="60.9" class="st4" width="147.4" height="147.4"/>
		<rect x="245.2" y="245.2" class="st4" width="147.4" height="147.4"/>
		<rect x="245.2" y="429.5" class="st4" width="147.4" height="147.4"/>
		<rect x="429.5" y="245.2" class="st4" width="147.4" height="147.4"/>
		<rect x="613.7" y="245.2" class="st4" width="147.4" height="147.4"/>
		<rect x="798" y="245.2" class="st4" width="147.4" height="147.4"/>
		<rect x="982.2" y="245.2" class="st4" width="147.4" height="147.4"/>
		<rect x="429.5" y="429.5" class="st4" width="147.4" height="147.4"/>
		<rect x="613.7" y="429.5" class="st4" width="147.4" height="147.4"/>
		<rect x="798" y="429.5" class="st4" width="147.4" height="147.4"/>
		<rect x="982.2" y="429.5" class="st4" width="147.4" height="147.4"/>
		<rect x="245.2" y="613.7" class="st4" width="147.4" height="147.4"/>
		<rect x="245.2" y="798" class="st4" width="147.4" height="147.4"/>
		<rect x="245.2" y="982.2" class="st4" width="147.4" height="147.4"/>
		<rect x="429.5" y="613.7" class="st4" width="147.4" height="147.4"/>
		<rect x="429.5" y="798" class="st4" width="147.4" height="147.4"/>
		<rect x="429.5" y="982.2" class="st4" width="147.4" height="147.4"/>
		<rect x="613.7" y="613.7" class="st4" width="147.4" height="147.4"/>
		<rect x="613.7" y="798" class="st4" width="147.4" height="147.4"/>
		<rect x="798" y="613.7" class="st4" width="147.4" height="147.4"/>
		<rect x="982.2" y="613.7" class="st4" width="147.4" height="147.4"/>
		<rect x="798" y="798" class="st4" width="147.4" height="147.4"/>
		<rect x="982.2" y="798" class="st4" width="147.4" height="147.4"/>
		<rect x="613.7" y="982.2" class="st4" width="147.4" height="147.4"/>
		<rect x="798" y="982.2" class="st4" width="147.4" height="147.4"/>
		<rect x="982.2" y="982.2" class="st4" width="147.4" height="147.4"/>
	</g>
</g>
<g>
	<defs>
		<rect id="SVGID_1_" x="337.3" y="613.7" width="239.5" height="239.5"/>
	</defs>
	<clipPath id="SVGID_2_">
		<use xlink:href="#SVGID_1_"  style="overflow:visible;"/>
	</clipPath>
	<g class="st5">
		
			<image style="overflow:visible;" width="567" height="622" xlink:href="872442_03.png"  transform="matrix(1.05 0 0 0.98 174.36 457.61)">
		</image>
	</g>
</g>
<g>
	<defs>
		
			<ellipse id="SVGID_3_" transform="matrix(0.7071 -0.7071 0.7071 0.7071 98.953 715.2898)" cx="912.9" cy="238.2" rx="133" ry="133"/>
	</defs>
	<clipPath id="SVGID_4_">
		<use xlink:href="#SVGID_3_"  style="overflow:visible;"/>
	</clipPath>
	<g class="st6">
		
			<image style="overflow:visible;" width="449" height="360" xlink:href="872442_05.jpg"  transform="matrix(0.89 0 0 0.89 665.91 87.71)">
		</image>
	</g>
</g>
<rect x="226" y="94.6" class="st3" width="535.1" height="94.8"/>
<text transform="matrix(1 0 0 1 353.6133 145.9672)" class="st7 st8">BASKETBALL</text>
<polygon class="st3" points="761.1,576.9 503.1,576.9 245.2,576.9 245.2,392.6 245.2,208.3 503.1,208.3 761.1,208.3 761.1,392.6 "/>
<text transform="matrix(1 0 0 1 245.2002 222.0512)"><tspan x="0" y="0" class="st9 st10">Lorem</tspan><tspan x="46.7" y="0" class="st9 st10"> </tspan><tspan x="50.9" y="0" class="st9 st10">ipsum</tspan><tspan x="95.1" y="0" class="st9 st10"> </tspan><tspan x="99.2" y="0" class="st9 st10">dolor</tspan><tspan x="137.4" y="0" class="st9 st10"> </tspan><tspan x="141.6" y="0" class="st9 st10">sit</tspan><tspan x="158" y="0" class="st9 st10"> </tspan><tspan x="162.2" y="0" class="st9 st10">amet,</tspan><tspan x="202.3" y="0" class="st9 st10"> </tspan><tspan x="206.5" y="0" class="st9 st10">consectetur</tspan><tspan x="291.9" y="0" class="st9 st10"> </tspan><tspan x="296.1" y="0" class="st9 st10">adipiscing</tspan><tspan x="367.4" y="0" class="st9 st10"> </tspan><tspan x="371.6" y="0" class="st9 st10">elit,</tspan><tspan x="396.4" y="0" class="st9 st10"> </tspan><tspan x="400.6" y="0" class="st9 st10">sed</tspan><tspan x="426.3" y="0" class="st9 st10"> </tspan><tspan x="430.5" y="0" class="st9 st10">do</tspan><tspan x="449.4" y="0" class="st9 st10"> </tspan><tspan x="453.6" y="0" class="st9 st10">eiusmod </tspan><tspan x="0" y="24" class="st9 st10">tempor</tspan><tspan x="53.4" y="24" class="st9 st10"> </tspan><tspan x="57.5" y="24" class="st9 st10">incididunt</tspan><tspan x="128.7" y="24" class="st9 st10"> </tspan><tspan x="132.8" y="24" class="st9 st10">ut</tspan><tspan x="147.6" y="24" class="st9 st10"> </tspan><tspan x="151.8" y="24" class="st9 st10">labore</tspan><tspan x="197.8" y="24" class="st9 st10"> </tspan><tspan x="201.9" y="24" class="st9 st10">et</tspan><tspan x="216" y="24" class="st9 st10"> </tspan><tspan x="220.2" y="24" class="st9 st10">dolore</tspan><tspan x="267.1" y="24" class="st9 st10"> </tspan><tspan x="271.2" y="24" class="st9 st10">magna</tspan><tspan x="320.1" y="24" class="st9 st10"> </tspan><tspan x="324.2" y="24" class="st9 st10">aliqua.</tspan><tspan x="371.2" y="24" class="st9 st10"> </tspan><tspan x="375.3" y="24" class="st9 st10">Nunc</tspan><tspan x="413.3" y="24" class="st9 st10"> </tspan><tspan x="417.5" y="24" class="st9 st10">vel</tspan><tspan x="437.2" y="24" class="st9 st10"> </tspan><tspan x="441.3" y="24" class="st9 st10">risus</tspan><tspan x="475.5" y="24" class="st9 st10"> </tspan><tspan x="479.6" y="24" class="st9 st10">com</tspan><tspan x="510.8" y="24" class="st9 st10">-</tspan><tspan x="0" y="48" class="st9 st10">modo</tspan><tspan x="42.4" y="48" class="st9 st10 st11"> </tspan><tspan x="47.7" y="48" class="st9 st10">viverra.</tspan><tspan x="99.5" y="48" class="st9 st10 st11"> </tspan><tspan x="104.7" y="48" class="st9 st10">A</tspan><tspan x="114.3" y="48" class="st9 st10 st11"> </tspan><tspan x="119.6" y="48" class="st9 st10">diam</tspan><tspan x="155.3" y="48" class="st9 st10 st11"> </tspan><tspan x="160.6" y="48" class="st9 st10">maecenas</tspan><tspan x="233.7" y="48" class="st9 st10 st11"> </tspan><tspan x="239" y="48" class="st9 st10">sed</tspan><tspan x="264.7" y="48" class="st9 st10 st11"> </tspan><tspan x="270" y="48" class="st9 st10">enim</tspan><tspan x="306" y="48" class="st9 st10 st11"> </tspan><tspan x="311.2" y="48" class="st9 st10">ut</tspan><tspan x="326" y="48" class="st9 st10 st11"> </tspan><tspan x="331.3" y="48" class="st9 st10">sem</tspan><tspan x="361.6" y="48" class="st9 st10 st11"> </tspan><tspan x="366.9" y="48" class="st9 st10">viverra</tspan><tspan x="414.9" y="48" class="st9 st10 st11"> </tspan><tspan x="420.2" y="48" class="st9 st10">aliquet.</tspan><tspan x="472.8" y="48" class="st9 st10 st11"> </tspan><tspan x="478" y="48" class="st9 st10">Amet </tspan><tspan x="0" y="72" class="st9 st10">venenatis</tspan><tspan x="68.7" y="72" class="st9 st10"> </tspan><tspan x="73.6" y="72" class="st9 st10">urna</tspan><tspan x="107.2" y="72" class="st9 st10"> </tspan><tspan x="112.1" y="72" class="st9 st10">cursus</tspan><tspan x="159.7" y="72" class="st9 st10"> </tspan><tspan x="164.6" y="72" class="st9 st10">eget</tspan><tspan x="195.9" y="72" class="st9 st10"> </tspan><tspan x="200.8" y="72" class="st9 st10">nunc</tspan><tspan x="236.7" y="72" class="st9 st10"> </tspan><tspan x="241.6" y="72" class="st9 st10">scelerisque</tspan><tspan x="322.9" y="72" class="st9 st10"> </tspan><tspan x="327.8" y="72" class="st9 st10">viverra</tspan><tspan x="375.8" y="72" class="st9 st10"> </tspan><tspan x="380.7" y="72" class="st9 st10">mauris</tspan><tspan x="430" y="72" class="st9 st10"> </tspan><tspan x="434.9" y="72" class="st9 st10">in.</tspan><tspan x="451.8" y="72" class="st9 st10"> </tspan><tspan x="456.7" y="72" class="st9 st10">In</tspan><tspan x="470.1" y="72" class="st9 st10"> </tspan><tspan x="475" y="72" class="st9 st10">eu</tspan><tspan x="493.3" y="72" class="st9 st10"> </tspan><tspan x="498.2" y="72" class="st9 st10">mi </tspan><tspan x="0" y="96" class="st9 st10">bibendum</tspan><tspan x="74" y="96" class="st9 st10"> </tspan><tspan x="78.8" y="96" class="st9 st10">neque.</tspan><tspan x="128.6" y="96" class="st9 st10"> </tspan><tspan x="133.4" y="96" class="st9 st10">Nisl</tspan><tspan x="159.7" y="96" class="st9 st10"> </tspan><tspan x="164.5" y="96" class="st9 st10">suscipit</tspan><tspan x="218.6" y="96" class="st9 st10"> </tspan><tspan x="223.4" y="96" class="st9 st10">adipiscing</tspan><tspan x="294.7" y="96" class="st9 st10"> </tspan><tspan x="299.5" y="96" class="st9 st10">bibendum</tspan><tspan x="373.5" y="96" class="st9 st10"> </tspan><tspan x="378.3" y="96" class="st9 st10">est</tspan><tspan x="399.9" y="96" class="st9 st10"> </tspan><tspan x="404.8" y="96" class="st9 st10">ultricies</tspan><tspan x="460.5" y="96" class="st9 st10"> </tspan><tspan x="465.3" y="96" class="st9 st10">integer </tspan><tspan x="0" y="120" class="st9 st10">quis</tspan><tspan x="30" y="120" class="st9 st10 st11"> </tspan><tspan x="35.4" y="120" class="st9 st10">auctor.</tspan><tspan x="85.7" y="120" class="st9 st10 st11"> </tspan><tspan x="91.1" y="120" class="st9 st10">Metus</tspan><tspan x="136" y="120" class="st9 st10 st11"> </tspan><tspan x="141.4" y="120" class="st9 st10">aliquam</tspan><tspan x="198.6" y="120" class="st9 st10 st11"> </tspan><tspan x="204" y="120" class="st9 st10">eleifend</tspan><tspan x="261.4" y="120" class="st9 st10 st11"> </tspan><tspan x="266.8" y="120" class="st9 st10">mi</tspan><tspan x="284.5" y="120" class="st9 st10 st11"> </tspan><tspan x="289.9" y="120" class="st9 st10">in</tspan><tspan x="303" y="120" class="st9 st10 st11"> </tspan><tspan x="308.4" y="120" class="st9 st10">nulla</tspan><tspan x="343" y="120" class="st9 st10 st11"> </tspan><tspan x="348.4" y="120" class="st9 st10">posuere</tspan><tspan x="408" y="120" class="st9 st10 st11"> </tspan><tspan x="413.4" y="120" class="st9 st10">sollicitudin</tspan><tspan x="489.6" y="120" class="st9 st10 st11"> </tspan><tspan x="495" y="120" class="st9 st10">ali</tspan><tspan x="510.8" y="120" class="st9 st10">-</tspan><tspan x="0" y="144" class="st9 st10">quam</tspan><tspan x="41.6" y="144" class="st9 st10 st11"> </tspan><tspan x="47.2" y="144" class="st9 st10">ultrices.</tspan><tspan x="103.1" y="144" class="st9 st10 st11"> </tspan><tspan x="108.7" y="144" class="st9 st10">Cursus</tspan><tspan x="158.6" y="144" class="st9 st10 st11"> </tspan><tspan x="164.2" y="144" class="st9 st10">eget</tspan><tspan x="195.5" y="144" class="st9 st10 st11"> </tspan><tspan x="201.1" y="144" class="st9 st10">nunc</tspan><tspan x="237" y="144" class="st9 st10 st11"> </tspan><tspan x="242.6" y="144" class="st9 st10">scelerisque</tspan><tspan x="323.9" y="144" class="st9 st10 st11"> </tspan><tspan x="329.5" y="144" class="st9 st10">viverra</tspan><tspan x="377.5" y="144" class="st9 st10 st11"> </tspan><tspan x="383.2" y="144" class="st9 st10">mauris</tspan><tspan x="432.5" y="144" class="st9 st10 st11"> </tspan><tspan x="438.1" y="144" class="st9 st10">in.</tspan><tspan x="455" y="144" class="st9 st10 st11"> </tspan><tspan x="460.6" y="144" class="st9 st10">Congue </tspan><tspan x="0" y="168" class="st9 st10">mauris rhoncus aenean vel elit. Nam aliquam sem et tortor consequat.</tspan><tspan x="0" y="192" class="st9 st10">Est</tspan><tspan x="21.6" y="192" class="st9 st10"> </tspan><tspan x="26.5" y="192" class="st9 st10">ultricies</tspan><tspan x="82.2" y="192" class="st9 st10"> </tspan><tspan x="87.1" y="192" class="st9 st10">integer</tspan><tspan x="137.7" y="192" class="st9 st10"> </tspan><tspan x="142.5" y="192" class="st9 st10">quis</tspan><tspan x="172.6" y="192" class="st9 st10"> </tspan><tspan x="177.4" y="192" class="st9 st10">auctor.</tspan><tspan x="227.7" y="192" class="st9 st10"> </tspan><tspan x="232.6" y="192" class="st9 st10">Tortor</tspan><tspan x="277.5" y="192" class="st9 st10"> </tspan><tspan x="282.4" y="192" class="st9 st10">vitae</tspan><tspan x="316" y="192" class="st9 st10"> </tspan><tspan x="320.9" y="192" class="st9 st10">purus</tspan><tspan x="362.9" y="192" class="st9 st10"> </tspan><tspan x="367.8" y="192" class="st9 st10">faucibus</tspan><tspan x="428.1" y="192" class="st9 st10"> </tspan><tspan x="433" y="192" class="st9 st10">ornare</tspan><tspan x="481.5" y="192" class="st9 st10"> </tspan><tspan x="486.4" y="192" class="st9 st10">sus</tspan><tspan x="510.8" y="192" class="st9 st10">-</tspan><tspan x="0" y="216" class="st9 st10">pendisse</tspan><tspan x="64.6" y="216" class="st9 st10"> </tspan><tspan x="68.3" y="216" class="st9 st10">sed</tspan><tspan x="94.1" y="216" class="st9 st10"> </tspan><tspan x="97.8" y="216" class="st9 st10">nisi.</tspan><tspan x="125.8" y="216" class="st9 st10"> </tspan><tspan x="129.5" y="216" class="st9 st10">Lectus</tspan><tspan x="176.4" y="216" class="st9 st10"> </tspan><tspan x="180.1" y="216" class="st9 st10">arcu</tspan><tspan x="211.9" y="216" class="st9 st10"> </tspan><tspan x="215.6" y="216" class="st9 st10">bibendum</tspan><tspan x="289.6" y="216" class="st9 st10"> </tspan><tspan x="293.3" y="216" class="st9 st10">at</tspan><tspan x="307.2" y="216" class="st9 st10"> </tspan><tspan x="310.9" y="216" class="st9 st10">varius</tspan><tspan x="353.5" y="216" class="st9 st10"> </tspan><tspan x="357.2" y="216" class="st9 st10">vel</tspan><tspan x="377" y="216" class="st9 st10"> </tspan><tspan x="380.7" y="216" class="st9 st10">pharetra</tspan><tspan x="443.2" y="216" class="st9 st10"> </tspan><tspan x="447" y="216" class="st9 st10">vel</tspan><tspan x="466.7" y="216" class="st9 st10"> </tspan><tspan x="470.5" y="216" class="st9 st10">turpis. </tspan><tspan x="0" y="240" class="st9 st10">Sagittis</tspan><tspan x="51" y="240" class="st9 st10"> </tspan><tspan x="55.8" y="240" class="st9 st10">nisl</tspan><tspan x="79.9" y="240" class="st9 st10"> </tspan><tspan x="84.8" y="240" class="st9 st10">rhoncus</tspan><tspan x="143.8" y="240" class="st9 st10"> </tspan><tspan x="148.6" y="240" class="st9 st10">mattis</tspan><tspan x="193" y="240" class="st9 st10"> </tspan><tspan x="197.9" y="240" class="st9 st10">rhoncus</tspan><tspan x="256.8" y="240" class="st9 st10"> </tspan><tspan x="261.7" y="240" class="st9 st10">urna</tspan><tspan x="295.3" y="240" class="st9 st10"> </tspan><tspan x="300.1" y="240" class="st9 st10">neque</tspan><tspan x="346.1" y="240" class="st9 st10"> </tspan><tspan x="350.9" y="240" class="st9 st10">viverra</tspan><tspan x="399" y="240" class="st9 st10"> </tspan><tspan x="403.8" y="240" class="st9 st10">justo</tspan><tspan x="439.1" y="240" class="st9 st10"> </tspan><tspan x="443.9" y="240" class="st9 st10">nec.</tspan><tspan x="473.5" y="240" class="st9 st10"> </tspan><tspan x="478.4" y="240" class="st9 st10">Diam </tspan><tspan x="0" y="264" class="st9 st10">vel</tspan><tspan x="19.7" y="264" class="st9 st10 st12"> </tspan><tspan x="28.9" y="264" class="st9 st10">quam</tspan><tspan x="70.5" y="264" class="st9 st10 st12"> </tspan><tspan x="79.7" y="264" class="st9 st10">elementum</tspan><tspan x="162.1" y="264" class="st9 st10 st12"> </tspan><tspan x="171.3" y="264" class="st9 st10">pulvinar</tspan><tspan x="229" y="264" class="st9 st10 st12"> </tspan><tspan x="238.2" y="264" class="st9 st10">etiam.</tspan><tspan x="282.4" y="264" class="st9 st10 st12"> </tspan><tspan x="291.6" y="264" class="st9 st10">Vitae</tspan><tspan x="327" y="264" class="st9 st10 st12"> </tspan><tspan x="336.2" y="264" class="st9 st10">congue</tspan><tspan x="389.2" y="264" class="st9 st10 st12"> </tspan><tspan x="398.4" y="264" class="st9 st10">mauris</tspan><tspan x="447.7" y="264" class="st9 st10 st12"> </tspan><tspan x="456.9" y="264" class="st9 st10">rhoncus </tspan><tspan x="0" y="288" class="st9 st10">aenean</tspan><tspan x="53.4" y="288" class="st9 st10"> </tspan><tspan x="58.4" y="288" class="st9 st10">vel</tspan><tspan x="78.1" y="288" class="st9 st10"> </tspan><tspan x="83.1" y="288" class="st9 st10">elit.</tspan><tspan x="108.3" y="288" class="st9 st10"> </tspan><tspan x="113.3" y="288" class="st9 st10">At</tspan><tspan x="128.3" y="288" class="st9 st10"> </tspan><tspan x="133.2" y="288" class="st9 st10">imperdiet</tspan><tspan x="202.8" y="288" class="st9 st10"> </tspan><tspan x="207.8" y="288" class="st9 st10">dui</tspan><tspan x="230.4" y="288" class="st9 st10"> </tspan><tspan x="235.4" y="288" class="st9 st10">accumsan</tspan><tspan x="308" y="288" class="st9 st10"> </tspan><tspan x="313" y="288" class="st9 st10">sit</tspan><tspan x="329.4" y="288" class="st9 st10"> </tspan><tspan x="334.4" y="288" class="st9 st10">amet</tspan><tspan x="371.1" y="288" class="st9 st10"> </tspan><tspan x="376.1" y="288" class="st9 st10">nulla.</tspan><tspan x="414.5" y="288" class="st9 st10"> </tspan><tspan x="419.5" y="288" class="st9 st10">Nec</tspan><tspan x="447.4" y="288" class="st9 st10"> </tspan><tspan x="452.4" y="288" class="st9 st10">dui</tspan><tspan x="475" y="288" class="st9 st10"> </tspan><tspan x="480" y="288" class="st9 st10">nunc </tspan><tspan x="0" y="312" class="st9 st10">mattis enim ut tellus. Eu tincidunt tortor aliquam nulla. </tspan></text>
<rect x="339" y="861.6" class="st3" width="237.8" height="46.9"/>
<text transform="matrix(1 0 0 1 444.1309 870.1205)"><tspan x="0" y="0" class="st13 st14">Basket      </tspan><tspan x="-31.7" y="12" class="st13 st14">picture from pinterest</tspan></text>
</svg>
