<svg id="图层_1" data-name="图层 1" xmlns="http://www.w3.org/2000/svg" xmlns:xlink="http://www.w3.org/1999/xlink" viewBox="0 0 1192 1192"><defs><style>.cls-1,.cls-3,.cls-4,.cls-5{fill:none;}.cls-2{fill:#adf2c2;}.cls-3{stroke:#8441ef;}.cls-3,.cls-4,.cls-5{stroke-miterlimit:10;}.cls-4{stroke:#356825;}.cls-5{stroke:#f25b19;}.cls-6{clip-path:url(#clip-path);}.cls-10,.cls-11,.cls-12,.cls-13,.cls-14,.cls-7,.cls-9{isolation:isolate;}.cls-8{clip-path:url(#clip-path-2);}.cls-9{font-size:60px;font-family:OpenSansCondensed-Bold, Open Sans Condensed;font-weight:700;}.cls-10,.cls-11,.cls-12{font-size:16px;}.cls-10,.cls-11,.cls-12,.cls-14{font-family:OpenSans-Light, Open Sans;}.cls-11{letter-spacing:0.06em;}.cls-12{letter-spacing:0.31em;}.cls-13{font-size:10px;font-family:OpenSans-LightItalic, Open Sans;font-style:italic;}.cls-14{font-size:14px;}</style><clipPath id="clip-path" transform="translate(0 0)"><rect class="cls-1" x="337.3" y="613.7" width="239.5" height="239.5"/></clipPath><clipPath id="clip-path-2" transform="translate(0 0)"><circle class="cls-1" cx="912.9" cy="238.21" r="133"/></clipPath></defs><title>872442_07</title><g id="图层_1-2" data-name="图层 1"><rect class="cls-2" width="1192" height="1192"/><rect class="cls-3" x="61" y="60.9" width="239.5" height="239.5"/><rect class="cls-3" x="337.3" y="337.3" width="239.5" height="239.5"/><rect class="cls-3" x="890.1" y="60.9" width="239.5" height="239.5"/><rect class="cls-3" x="613.7" y="60.9" width="239.5" height="239.5"/><rect class="cls-3" x="61" y="337.3" width="239.5" height="239.5"/><rect class="cls-3" x="337.3" y="60.9" width="239.5" height="239.5"/><rect class="cls-3" x="613.7" y="337.3" width="239.5" height="239.5"/><rect class="cls-3" x="890.1" y="337.3" width="239.5" height="239.5"/><rect class="cls-3" x="61" y="613.7" width="239.5" height="239.5"/><rect class="cls-3" x="337.3" y="613.7" width="239.5" height="239.5"/><rect class="cls-3" x="613.7" y="613.7" width="239.5" height="239.5"/><rect class="cls-3" x="890.1" y="613.7" width="239.5" height="239.5"/><rect class="cls-3" x="61" y="890.1" width="239.5" height="239.5"/><rect class="cls-3" x="890.1" y="890.1" width="239.5" height="239.5"/><rect class="cls-3" x="613.7" y="890.1" width="239.5" height="239.5"/><rect class="cls-3" x="337.3" y="890.1" width="239.5" height="239.5"/><g id="图层_2" data-name="图层 2"><rect class="cls-4" x="61" y="60.9" width="184.3" height="184.3"/><rect class="cls-4" x="282" y="60.9" width="184.3" height="184.3"/><rect class="cls-4" x="503.1" y="60.9" width="184.3" height="184.3"/><rect class="cls-4" x="503.1" y="503.2" width="184.3" height="184.3"/><rect class="cls-4" x="724.3" y="503.2" width="184.3" height="184.3"/><rect class="cls-4" x="282" y="503.2" width="184.3" height="184.3"/><rect class="cls-4" x="61" y="503.2" width="184.3" height="184.3"/><rect class="cls-4" x="945.4" y="282.1" width="184.3" height="184.3"/><rect class="cls-4" x="724.3" y="282.1" width="184.3" height="184.3"/><rect class="cls-4" x="503.1" y="282.1" width="184.3" height="184.3"/><rect class="cls-4" x="282" y="282.1" width="184.3" height="184.3"/><rect class="cls-4" x="61" y="282.1" width="184.3" height="184.3"/><rect class="cls-4" x="945.4" y="60.9" width="184.3" height="184.3"/><rect class="cls-4" x="724.3" y="60.9" width="184.3" height="184.3"/><rect class="cls-4" x="945.4" y="503.2" width="184.3" height="184.3"/><rect class="cls-4" x="503.1" y="724.3" width="184.3" height="184.3"/><rect class="cls-4" x="282" y="945.4" width="184.3" height="184.3"/><rect class="cls-4" x="724.3" y="945.4" width="184.3" height="184.3"/><rect class="cls-4" x="503.1" y="945.4" width="184.3" height="184.3"/><rect class="cls-4" x="724.3" y="724.3" width="184.3" height="184.3"/><rect class="cls-4" x="282" y="724.3" width="184.3" height="184.3"/><rect class="cls-4" x="61" y="945.4" width="184.3" height="184.3"/><rect class="cls-4" x="61" y="724.3" width="184.3" height="184.3"/><rect class="cls-4" x="945.4" y="724.3" width="184.3" height="184.3"/><rect class="cls-4" x="945.4" y="945.4" width="184.3" height="184.3"/></g><g id="图层_3" data-name="图层 3"><rect class="cls-1" x="61" y="60.9" width="147.4" height="147.4"/><rect class="cls-5" x="245.2" y="60.9" width="147.4" height="147.4"/><rect class="cls-5" x="61" y="245.2" width="147.4" height="147.4"/><rect class="cls-5" x="61" y="429.5" width="147.4" height="147.4"/><rect class="cls-5" x="61" y="613.7" width="147.4" height="147.4"/><rect class="cls-5" x="61" y="798" width="147.4" height="147.4"/><rect class="cls-5" x="61" y="982.2" width="147.4" height="147.4"/><rect class="cls-5" x="429.5" y="60.9" width="147.4" height="147.4"/><rect class="cls-5" x="613.7" y="60.9" width="147.4" height="147.4"/><rect class="cls-5" x="798" y="60.9" width="147.4" height="147.4"/><rect class="cls-5" x="982.2" y="60.9" width="147.4" height="147.4"/><rect class="cls-5" x="245.2" y="245.2" width="147.4" height="147.4"/><rect class="cls-5" x="245.2" y="429.5" width="147.4" height="147.4"/><rect class="cls-5" x="429.5" y="245.2" width="147.4" height="147.4"/><rect class="cls-5" x="613.7" y="245.2" width="147.4" height="147.4"/><rect class="cls-5" x="798" y="245.2" width="147.4" height="147.4"/><rect class="cls-5" x="982.2" y="245.2" width="147.4" height="147.4"/><rect class="cls-5" x="429.5" y="429.5" width="147.4" height="147.4"/><rect class="cls-5" x="613.7" y="429.5" width="147.4" height="147.4"/><rect class="cls-5" x="798" y="429.5" width="147.4" height="147.4"/><rect class="cls-5" x="982.2" y="429.5" width="147.4" height="147.4"/><rect class="cls-5" x="245.2" y="613.7" width="147.4" height="147.4"/><rect class="cls-5" x="245.2" y="798" width="147.4" height="147.4"/><rect class="cls-5" x="245.2" y="982.2" width="147.4" height="147.4"/><rect class="cls-5" x="429.5" y="613.7" width="147.4" height="147.4"/><rect class="cls-5" x="429.5" y="798" width="147.4" height="147.4"/><rect class="cls-5" x="429.5" y="982.2" width="147.4" height="147.4"/><rect class="cls-5" x="613.7" y="613.7" width="147.4" height="147.4"/><rect class="cls-5" x="613.7" y="798" width="147.4" height="147.4"/><rect class="cls-5" x="798" y="613.7" width="147.4" height="147.4"/><rect class="cls-5" x="982.2" y="613.7" width="147.4" height="147.4"/><rect class="cls-5" x="798" y="798" width="147.4" height="147.4"/><rect class="cls-5" x="982.2" y="798" width="147.4" height="147.4"/><rect class="cls-5" x="613.7" y="982.2" width="147.4" height="147.4"/><rect class="cls-5" x="798" y="982.2" width="147.4" height="147.4"/><rect class="cls-5" x="982.2" y="982.2" width="147.4" height="147.4"/></g></g><g class="cls-6"><image class="cls-7" width="567" height="622" transform="translate(174.36 457.61) scale(1.05 0.98)" xlink:href="872442_03.png"/></g><g class="cls-8"><image class="cls-7" width="449" height="360" transform="translate(665.91 87.71) scale(0.89)" xlink:href="872442_05.jpg"/></g><rect class="cls-1" x="226" y="94.6" width="535.1" height="94.8"/><text class="cls-9" transform="translate(353.61 145.97)">BASKETBALL</text><g id="图层_3-2" data-name="图层 3"><polygon class="cls-1" points="761.1 576.9 503.1 576.9 245.2 576.9 245.2 392.6 245.2 208.3 503.1 208.3 761.1 208.3 761.1 392.6 761.1 576.9"/><g class="cls-7"><text class="cls-10" transform="translate(245.2 222.05)">Lorem</text><text class="cls-10" transform="translate(291.9 222.05)"> </text><text class="cls-10" transform="translate(296.1 222.05)">ipsum</text><text class="cls-10" transform="translate(340.3 222.05)"> </text><text class="cls-10" transform="translate(344.4 222.05)">dolor</text><text class="cls-10" transform="translate(382.6 222.05)"> </text><text class="cls-10" transform="translate(386.8 222.05)">sit</text><text class="cls-10" transform="translate(403.2 222.05)"> </text><text class="cls-10" transform="translate(407.4 222.05)">amet,</text><text class="cls-10" transform="translate(447.5 222.05)"> </text><text class="cls-10" transform="translate(451.7 222.05)">consectetur</text><text class="cls-10" transform="translate(537.1 222.05)"> </text><text class="cls-10" transform="translate(541.3 222.05)">adipiscing</text><text class="cls-10" transform="translate(612.6 222.05)"> </text><text class="cls-10" transform="translate(616.8 222.05)">elit,</text><text class="cls-10" transform="translate(641.6 222.05)"> </text><text class="cls-10" transform="translate(645.8 222.05)">sed</text><text class="cls-10" transform="translate(671.5 222.05)"> </text><text class="cls-10" transform="translate(675.7 222.05)">do</text><text class="cls-10" transform="translate(694.6 222.05)"> </text><text class="cls-10" transform="translate(698.8 222.05)">eiusmod </text><text class="cls-10" transform="translate(245.2 246.05)">tempor</text><text class="cls-10" transform="translate(298.6 246.05)"> </text><text class="cls-10" transform="translate(302.7 246.05)">incididunt</text><text class="cls-10" transform="translate(373.9 246.05)"> </text><text class="cls-10" transform="translate(378 246.05)">ut</text><text class="cls-10" transform="translate(392.8 246.05)"> </text><text class="cls-10" transform="translate(397 246.05)">labore</text><text class="cls-10" transform="translate(443 246.05)"> </text><text class="cls-10" transform="translate(447.1 246.05)">et</text><text class="cls-10" transform="translate(461.2 246.05)"> </text><text class="cls-10" transform="translate(465.4 246.05)">dolore</text><text class="cls-10" transform="translate(512.3 246.05)"> </text><text class="cls-10" transform="translate(516.4 246.05)">magna</text><text class="cls-10" transform="translate(565.3 246.05)"> </text><text class="cls-10" transform="translate(569.4 246.05)">aliqua.</text><text class="cls-10" transform="translate(616.4 246.05)"> </text><text class="cls-10" transform="translate(620.5 246.05)">Nunc</text><text class="cls-10" transform="translate(658.5 246.05)"> </text><text class="cls-10" transform="translate(662.7 246.05)">vel</text><text class="cls-10" transform="translate(682.4 246.05)"> </text><text class="cls-10" transform="translate(686.5 246.05)">risus</text><text class="cls-10" transform="translate(720.7 246.05)"> </text><text class="cls-10" transform="translate(724.8 246.05)">com</text><text class="cls-10" transform="translate(756 246.05)">-</text><text class="cls-10" transform="translate(245.2 270.05)">modo</text><text class="cls-11" transform="translate(287.6 270.05)"> </text><text class="cls-10" transform="translate(292.9 270.05)">viverra.</text><text class="cls-11" transform="translate(344.7 270.05)"> </text><text class="cls-10" transform="translate(349.9 270.05)">A</text><text class="cls-11" transform="translate(359.5 270.05)"> </text><text class="cls-10" transform="translate(364.8 270.05)">diam</text><text class="cls-11" transform="translate(400.5 270.05)"> </text><text class="cls-10" transform="translate(405.8 270.05)">maecenas</text><text class="cls-11" transform="translate(478.9 270.05)"> </text><text class="cls-10" transform="translate(484.2 270.05)">sed</text><text class="cls-11" transform="translate(509.9 270.05)"> </text><text class="cls-10" transform="translate(515.2 270.05)">enim</text><text class="cls-11" transform="translate(551.2 270.05)"> </text><text class="cls-10" transform="translate(556.4 270.05)">ut</text><text class="cls-11" transform="translate(571.2 270.05)"> </text><text class="cls-10" transform="translate(576.5 270.05)">sem</text><text class="cls-11" transform="translate(606.8 270.05)"> </text><text class="cls-10" transform="translate(612.1 270.05)">viverra</text><text class="cls-11" transform="translate(660.1 270.05)"> </text><text class="cls-10" transform="translate(665.4 270.05)">aliquet.</text><text class="cls-11" transform="translate(718 270.05)"> </text><text class="cls-10" transform="translate(723.2 270.05)">Amet </text><text class="cls-10" transform="translate(245.2 294.05)">venenatis</text><text class="cls-10" transform="translate(313.9 294.05)"> </text><text class="cls-10" transform="translate(318.8 294.05)">urna</text><text class="cls-10" transform="translate(352.4 294.05)"> </text><text class="cls-10" transform="translate(357.3 294.05)">cursus</text><text class="cls-10" transform="translate(404.9 294.05)"> </text><text class="cls-10" transform="translate(409.8 294.05)">eget</text><text class="cls-10" transform="translate(441.1 294.05)"> </text><text class="cls-10" transform="translate(446 294.05)">nunc</text><text class="cls-10" transform="translate(481.9 294.05)"> </text><text class="cls-10" transform="translate(486.8 294.05)">scelerisque</text><text class="cls-10" transform="translate(568.1 294.05)"> </text><text class="cls-10" transform="translate(573 294.05)">viverra</text><text class="cls-10" transform="translate(621 294.05)"> </text><text class="cls-10" transform="translate(625.9 294.05)">mauris</text><text class="cls-10" transform="translate(675.2 294.05)"> </text><text class="cls-10" transform="translate(680.1 294.05)">in.</text><text class="cls-10" transform="translate(697 294.05)"> </text><text class="cls-10" transform="translate(701.9 294.05)">In</text><text class="cls-10" transform="translate(715.3 294.05)"> </text><text class="cls-10" transform="translate(720.2 294.05)">eu</text><text class="cls-10" transform="translate(738.5 294.05)"> </text><text class="cls-10" transform="translate(743.4 294.05)">mi </text><text class="cls-10" transform="translate(245.2 318.05)">bibendum</text><text class="cls-10" transform="translate(319.2 318.05)"> </text><text class="cls-10" transform="translate(324 318.05)">neque.</text><text class="cls-10" transform="translate(373.8 318.05)"> </text><text class="cls-10" transform="translate(378.6 318.05)">Nisl</text><text class="cls-10" transform="translate(404.9 318.05)"> </text><text class="cls-10" transform="translate(409.7 318.05)">suscipit</text><text class="cls-10" transform="translate(463.8 318.05)"> </text><text class="cls-10" transform="translate(468.6 318.05)">adipiscing</text><text class="cls-10" transform="translate(539.9 318.05)"> </text><text class="cls-10" transform="translate(544.7 318.05)">bibendum</text><text class="cls-10" transform="translate(618.7 318.05)"> </text><text class="cls-10" transform="translate(623.5 318.05)">est</text><text class="cls-10" transform="translate(645.1 318.05)"> </text><text class="cls-10" transform="translate(650 318.05)">ultricies</text><text class="cls-10" transform="translate(705.7 318.05)"> </text><text class="cls-10" transform="translate(710.5 318.05)">integer </text><text class="cls-10" transform="translate(245.2 342.05)">quis</text><text class="cls-11" transform="translate(275.2 342.05)"> </text><text class="cls-10" transform="translate(280.6 342.05)">auctor.</text><text class="cls-11" transform="translate(330.9 342.05)"> </text><text class="cls-10" transform="translate(336.3 342.05)">Metus</text><text class="cls-11" transform="translate(381.2 342.05)"> </text><text class="cls-10" transform="translate(386.6 342.05)">aliquam</text><text class="cls-11" transform="translate(443.8 342.05)"> </text><text class="cls-10" transform="translate(449.2 342.05)">eleifend</text><text class="cls-11" transform="translate(506.6 342.05)"> </text><text class="cls-10" transform="translate(512 342.05)">mi</text><text class="cls-11" transform="translate(529.7 342.05)"> </text><text class="cls-10" transform="translate(535.1 342.05)">in</text><text class="cls-11" transform="translate(548.2 342.05)"> </text><text class="cls-10" transform="translate(553.6 342.05)">nulla</text><text class="cls-11" transform="translate(588.2 342.05)"> </text><text class="cls-10" transform="translate(593.6 342.05)">posuere</text><text class="cls-11" transform="translate(653.2 342.05)"> </text><text class="cls-10" transform="translate(658.6 342.05)">sollicitudin</text><text class="cls-11" transform="translate(734.8 342.05)"> </text><text class="cls-10" transform="translate(740.2 342.05)">ali</text><text class="cls-10" transform="translate(756 342.05)">-</text><text class="cls-10" transform="translate(245.2 366.05)">quam</text><text class="cls-11" transform="translate(286.8 366.05)"> </text><text class="cls-10" transform="translate(292.4 366.05)">ultrices.</text><text class="cls-11" transform="translate(348.3 366.05)"> </text><text class="cls-10" transform="translate(353.9 366.05)">Cursus</text><text class="cls-11" transform="translate(403.8 366.05)"> </text><text class="cls-10" transform="translate(409.4 366.05)">eget</text><text class="cls-11" transform="translate(440.7 366.05)"> </text><text class="cls-10" transform="translate(446.3 366.05)">nunc</text><text class="cls-11" transform="translate(482.2 366.05)"> </text><text class="cls-10" transform="translate(487.8 366.05)">scelerisque</text><text class="cls-11" transform="translate(569.1 366.05)"> </text><text class="cls-10" transform="translate(574.7 366.05)">viverra</text><text class="cls-11" transform="translate(622.7 366.05)"> </text><text class="cls-10" transform="translate(628.4 366.05)">mauris</text><text class="cls-11" transform="translate(677.7 366.05)"> </text><text class="cls-10" transform="translate(683.3 366.05)">in.</text><text class="cls-11" transform="translate(700.2 366.05)"> </text><text class="cls-10" transform="translate(705.8 366.05)">Congue </text><text class="cls-10" transform="translate(245.2 390.05)">mauris rhoncus aenean vel elit. Nam aliquam sem et tortor consequat.</text><text class="cls-10" transform="translate(245.2 414.05)">Est</text><text class="cls-10" transform="translate(266.8 414.05)"> </text><text class="cls-10" transform="translate(271.7 414.05)">ultricies</text><text class="cls-10" transform="translate(327.4 414.05)"> </text><text class="cls-10" transform="translate(332.3 414.05)">integer</text><text class="cls-10" transform="translate(382.9 414.05)"> </text><text class="cls-10" transform="translate(387.7 414.05)">quis</text><text class="cls-10" transform="translate(417.8 414.05)"> </text><text class="cls-10" transform="translate(422.6 414.05)">auctor.</text><text class="cls-10" transform="translate(472.9 414.05)"> </text><text class="cls-10" transform="translate(477.8 414.05)">Tortor</text><text class="cls-10" transform="translate(522.7 414.05)"> </text><text class="cls-10" transform="translate(527.6 414.05)">vitae</text><text class="cls-10" transform="translate(561.2 414.05)"> </text><text class="cls-10" transform="translate(566.1 414.05)">purus</text><text class="cls-10" transform="translate(608.1 414.05)"> </text><text class="cls-10" transform="translate(613 414.05)">faucibus</text><text class="cls-10" transform="translate(673.3 414.05)"> </text><text class="cls-10" transform="translate(678.2 414.05)">ornare</text><text class="cls-10" transform="translate(726.7 414.05)"> </text><text class="cls-10" transform="translate(731.6 414.05)">sus</text><text class="cls-10" transform="translate(756 414.05)">-</text><text class="cls-10" transform="translate(245.2 438.05)">pendisse</text><text class="cls-10" transform="translate(309.8 438.05)"> </text><text class="cls-10" transform="translate(313.5 438.05)">sed</text><text class="cls-10" transform="translate(339.3 438.05)"> </text><text class="cls-10" transform="translate(343 438.05)">nisi.</text><text class="cls-10" transform="translate(371 438.05)"> </text><text class="cls-10" transform="translate(374.7 438.05)">Lectus</text><text class="cls-10" transform="translate(421.6 438.05)"> </text><text class="cls-10" transform="translate(425.3 438.05)">arcu</text><text class="cls-10" transform="translate(457.1 438.05)"> </text><text class="cls-10" transform="translate(460.8 438.05)">bibendum</text><text class="cls-10" transform="translate(534.8 438.05)"> </text><text class="cls-10" transform="translate(538.5 438.05)">at</text><text class="cls-10" transform="translate(552.4 438.05)"> </text><text class="cls-10" transform="translate(556.1 438.05)">varius</text><text class="cls-10" transform="translate(598.7 438.05)"> </text><text class="cls-10" transform="translate(602.4 438.05)">vel</text><text class="cls-10" transform="translate(622.2 438.05)"> </text><text class="cls-10" transform="translate(625.9 438.05)">pharetra</text><text class="cls-10" transform="translate(688.4 438.05)"> </text><text class="cls-10" transform="translate(692.2 438.05)">vel</text><text class="cls-10" transform="translate(711.9 438.05)"> </text><text class="cls-10" transform="translate(715.7 438.05)">turpis. </text><text class="cls-10" transform="translate(245.2 462.05)">Sagittis</text><text class="cls-10" transform="translate(296.2 462.05)"> </text><text class="cls-10" transform="translate(301 462.05)">nisl</text><text class="cls-10" transform="translate(325.1 462.05)"> </text><text class="cls-10" transform="translate(330 462.05)">rhoncus</text><text class="cls-10" transform="translate(389 462.05)"> </text><text class="cls-10" transform="translate(393.8 462.05)">mattis</text><text class="cls-10" transform="translate(438.2 462.05)"> </text><text class="cls-10" transform="translate(443.1 462.05)">rhoncus</text><text class="cls-10" transform="translate(502 462.05)"> </text><text class="cls-10" transform="translate(506.9 462.05)">urna</text><text class="cls-10" transform="translate(540.5 462.05)"> </text><text class="cls-10" transform="translate(545.3 462.05)">neque</text><text class="cls-10" transform="translate(591.3 462.05)"> </text><text class="cls-10" transform="translate(596.1 462.05)">viverra</text><text class="cls-10" transform="translate(644.2 462.05)"> </text><text class="cls-10" transform="translate(649 462.05)">justo</text><text class="cls-10" transform="translate(684.3 462.05)"> </text><text class="cls-10" transform="translate(689.1 462.05)">nec.</text><text class="cls-10" transform="translate(718.7 462.05)"> </text><text class="cls-10" transform="translate(723.6 462.05)">Diam </text><text class="cls-10" transform="translate(245.2 486.05)">vel</text><text class="cls-12" transform="translate(264.9 486.05)"> </text><text class="cls-10" transform="translate(274.1 486.05)">quam</text><text class="cls-12" transform="translate(315.7 486.05)"> </text><text class="cls-10" transform="translate(324.9 486.05)">elementum</text><text class="cls-12" transform="translate(407.3 486.05)"> </text><text class="cls-10" transform="translate(416.5 486.05)">pulvinar</text><text class="cls-12" transform="translate(474.2 486.05)"> </text><text class="cls-10" transform="translate(483.4 486.05)">etiam.</text><text class="cls-12" transform="translate(527.6 486.05)"> </text><text class="cls-10" transform="translate(536.8 486.05)">Vitae</text><text class="cls-12" transform="translate(572.2 486.05)"> </text><text class="cls-10" transform="translate(581.4 486.05)">congue</text><text class="cls-12" transform="translate(634.4 486.05)"> </text><text class="cls-10" transform="translate(643.6 486.05)">mauris</text><text class="cls-12" transform="translate(692.9 486.05)"> </text><text class="cls-10" transform="translate(702.1 486.05)">rhoncus </text><text class="cls-10" transform="translate(245.2 510.05)">aenean</text><text class="cls-10" transform="translate(298.6 510.05)"> </text><text class="cls-10" transform="translate(303.6 510.05)">vel</text><text class="cls-10" transform="translate(323.3 510.05)"> </text><text class="cls-10" transform="translate(328.3 510.05)">elit.</text><text class="cls-10" transform="translate(353.5 510.05)"> </text><text class="cls-10" transform="translate(358.5 510.05)">At</text><text class="cls-10" transform="translate(373.5 510.05)"> </text><text class="cls-10" transform="translate(378.4 510.05)">imperdiet</text><text class="cls-10" transform="translate(448 510.05)"> </text><text class="cls-10" transform="translate(453 510.05)">dui</text><text class="cls-10" transform="translate(475.6 510.05)"> </text><text class="cls-10" transform="translate(480.6 510.05)">accumsan</text><text class="cls-10" transform="translate(553.2 510.05)"> </text><text class="cls-10" transform="translate(558.2 510.05)">sit</text><text class="cls-10" transform="translate(574.6 510.05)"> </text><text class="cls-10" transform="translate(579.6 510.05)">amet</text><text class="cls-10" transform="translate(616.3 510.05)"> </text><text class="cls-10" transform="translate(621.3 510.05)">nulla.</text><text class="cls-10" transform="translate(659.7 510.05)"> </text><text class="cls-10" transform="translate(664.7 510.05)">Nec</text><text class="cls-10" transform="translate(692.6 510.05)"> </text><text class="cls-10" transform="translate(697.6 510.05)">dui</text><text class="cls-10" transform="translate(720.2 510.05)"> </text><text class="cls-10" transform="translate(725.2 510.05)">nunc </text><text class="cls-10" transform="translate(245.2 534.05)">mattis enim ut tellus. Eu tincidunt tortor aliquam nulla. </text></g><rect class="cls-1" x="339" y="861.6" width="237.8" height="46.9"/><g class="cls-7"><text class="cls-13" transform="translate(444.13 870.12)"><tspan xml:space="preserve">Basket      </tspan></text><text class="cls-13" transform="translate(412.43 882.12)">picture from pinterest</text></g><circle class="cls-1" cx="214" cy="748.6" r="84"/><g class="cls-7"><text class="cls-14" transform="translate(160.53 693.35)">Lorem ipsum </text><text class="cls-14" transform="translate(145.03 710.15)">dolor sit amet, con</text><text class="cls-14" transform="translate(261.93 710.15)">-</text><text class="cls-14" transform="translate(136.03 726.95)">sectetur adipiscing elit, </text><text class="cls-14" transform="translate(131.23 743.75)">sed do eiusmod tempor </text><text class="cls-14" transform="translate(130.83 760.55)">incididunt ut labore et </text><text class="cls-14" transform="translate(135.03 777.35)">dolore magna aliqua. </text><text class="cls-14" transform="translate(143.43 794.15)">Enim blandit volutpat </text><text class="cls-14" transform="translate(157.73 810.95)">maecenas volut</text><text class="cls-14" transform="translate(256.13 810.95)">-</text><text class="cls-14" transform="translate(185.93 827.75)">pat </text></g></g></svg>