<svg id="图层_1" data-name="图层 1" xmlns="http://www.w3.org/2000/svg" xmlns:xlink="http://www.w3.org/1999/xlink" viewBox="0 0 1192 1192"><defs><style>.cls-1,.cls-3,.cls-4,.cls-5{fill:none;}.cls-2{fill:#adf2c2;}.cls-3{stroke:#8441ef;}.cls-3,.cls-4,.cls-5{stroke-miterlimit:10;}.cls-4{stroke:#356825;}.cls-5{stroke:#f25b19;}.cls-6{clip-path:url(#clip-path);}.cls-7{isolation:isolate;}.cls-8{clip-path:url(#clip-path-2);}</style><clipPath id="clip-path" transform="translate(0 0)"><rect class="cls-1" x="337.33" y="613.7" width="239.53" height="239.53"/></clipPath><clipPath id="clip-path-2" transform="translate(0 0)"><circle class="cls-1" cx="912.91" cy="238.2" r="133" transform="translate(98.95 715.29) rotate(-45)"/></clipPath></defs><title>872442_05</title><rect class="cls-2" width="1192" height="1192"/><g id="图层_1-2" data-name="图层 1-2"><rect class="cls-3" x="60.95" y="60.94" width="239.53" height="239.53"/><rect class="cls-3" x="337.33" y="337.32" width="239.53" height="239.53"/><rect class="cls-3" x="890.08" y="60.94" width="239.53" height="239.53"/><rect class="cls-3" x="613.7" y="60.94" width="239.53" height="239.53"/><rect class="cls-3" x="60.95" y="337.32" width="239.53" height="239.53"/><rect class="cls-3" x="337.33" y="60.94" width="239.53" height="239.53"/><rect class="cls-3" x="613.7" y="337.32" width="239.53" height="239.53"/><rect class="cls-3" x="890.08" y="337.32" width="239.53" height="239.53"/><rect class="cls-3" x="60.95" y="613.7" width="239.53" height="239.53"/><rect class="cls-3" x="337.33" y="613.7" width="239.53" height="239.53"/><rect class="cls-3" x="613.7" y="613.7" width="239.53" height="239.53"/><rect class="cls-3" x="890.08" y="613.7" width="239.53" height="239.53"/><rect class="cls-3" x="60.95" y="890.08" width="239.53" height="239.53"/><rect class="cls-3" x="890.08" y="890.08" width="239.53" height="239.53"/><rect class="cls-3" x="613.7" y="890.08" width="239.53" height="239.53"/><rect class="cls-3" x="337.33" y="890.08" width="239.53" height="239.53"/></g><g id="图层_2" data-name="图层 2"><rect class="cls-4" x="60.95" y="60.94" width="184.25" height="184.25"/><rect class="cls-4" x="282.05" y="60.94" width="184.25" height="184.25"/><rect class="cls-4" x="503.15" y="60.94" width="184.25" height="184.25"/><rect class="cls-4" x="503.15" y="503.15" width="184.25" height="184.25"/><rect class="cls-4" x="724.26" y="503.15" width="184.25" height="184.25"/><rect class="cls-4" x="282.05" y="503.15" width="184.25" height="184.25"/><rect class="cls-4" x="60.95" y="503.15" width="184.25" height="184.25"/><rect class="cls-4" x="945.36" y="282.05" width="184.25" height="184.25"/><rect class="cls-4" x="724.26" y="282.05" width="184.25" height="184.25"/><rect class="cls-4" x="503.15" y="282.05" width="184.25" height="184.25"/><rect class="cls-4" x="282.05" y="282.05" width="184.25" height="184.25"/><rect class="cls-4" x="60.95" y="282.05" width="184.25" height="184.25"/><rect class="cls-4" x="945.36" y="60.94" width="184.25" height="184.25"/><rect class="cls-4" x="724.26" y="60.94" width="184.25" height="184.25"/><rect class="cls-4" x="945.36" y="503.15" width="184.25" height="184.25"/><rect class="cls-4" x="503.15" y="724.25" width="184.25" height="184.25"/><rect class="cls-4" x="282.05" y="945.35" width="184.25" height="184.25"/><rect class="cls-4" x="724.26" y="945.35" width="184.25" height="184.25"/><rect class="cls-4" x="503.15" y="945.35" width="184.25" height="184.25"/><rect class="cls-4" x="724.26" y="724.25" width="184.25" height="184.25"/><rect class="cls-4" x="282.05" y="724.25" width="184.25" height="184.25"/><rect class="cls-4" x="60.95" y="945.35" width="184.25" height="184.25"/><rect class="cls-4" x="60.95" y="724.25" width="184.25" height="184.25"/><rect class="cls-4" x="945.36" y="724.25" width="184.25" height="184.25"/><rect class="cls-4" x="945.36" y="945.35" width="184.25" height="184.25"/></g><g id="图层_3" data-name="图层 3"><rect class="cls-5" x="60.95" y="60.94" width="147.4" height="147.4"/><rect class="cls-5" x="245.2" y="60.94" width="147.4" height="147.4"/><rect class="cls-5" x="60.95" y="245.2" width="147.4" height="147.4"/><rect class="cls-5" x="60.95" y="429.45" width="147.4" height="147.4"/><rect class="cls-5" x="60.95" y="613.7" width="147.4" height="147.4"/><rect class="cls-5" x="60.95" y="797.95" width="147.4" height="147.4"/><rect class="cls-5" x="60.95" y="982.2" width="147.4" height="147.4"/><rect class="cls-5" x="429.45" y="60.94" width="147.4" height="147.4"/><rect class="cls-5" x="613.7" y="60.94" width="147.4" height="147.4"/><rect class="cls-5" x="797.96" y="60.94" width="147.4" height="147.4"/><rect class="cls-5" x="982.21" y="60.94" width="147.4" height="147.4"/><rect class="cls-5" x="245.2" y="245.2" width="147.4" height="147.4"/><rect class="cls-5" x="245.2" y="429.45" width="147.4" height="147.4"/><rect class="cls-5" x="429.45" y="245.2" width="147.4" height="147.4"/><rect class="cls-5" x="613.7" y="245.2" width="147.4" height="147.4"/><rect class="cls-5" x="797.96" y="245.2" width="147.4" height="147.4"/><rect class="cls-5" x="982.21" y="245.2" width="147.4" height="147.4"/><rect class="cls-5" x="429.45" y="429.45" width="147.4" height="147.4"/><rect class="cls-5" x="613.7" y="429.45" width="147.4" height="147.4"/><rect class="cls-5" x="797.96" y="429.45" width="147.4" height="147.4"/><rect class="cls-5" x="982.21" y="429.45" width="147.4" height="147.4"/><rect class="cls-5" x="245.2" y="613.7" width="147.4" height="147.4"/><rect class="cls-5" x="245.2" y="797.95" width="147.4" height="147.4"/><rect class="cls-5" x="245.2" y="982.2" width="147.4" height="147.4"/><rect class="cls-5" x="429.45" y="613.7" width="147.4" height="147.4"/><rect class="cls-5" x="429.45" y="797.95" width="147.4" height="147.4"/><rect class="cls-5" x="429.45" y="982.2" width="147.4" height="147.4"/><rect class="cls-5" x="613.7" y="613.7" width="147.4" height="147.4"/><rect class="cls-5" x="613.7" y="797.95" width="147.4" height="147.4"/><rect class="cls-5" x="797.96" y="613.7" width="147.4" height="147.4"/><rect class="cls-5" x="982.21" y="613.7" width="147.4" height="147.4"/><rect class="cls-5" x="797.96" y="797.95" width="147.4" height="147.4"/><rect class="cls-5" x="982.21" y="797.95" width="147.4" height="147.4"/><rect class="cls-5" x="613.7" y="982.2" width="147.4" height="147.4"/><rect class="cls-5" x="797.96" y="982.2" width="147.4" height="147.4"/><rect class="cls-5" x="982.21" y="982.2" width="147.4" height="147.4"/></g><g class="cls-6"><image class="cls-7" width="567" height="622" transform="translate(174.36 457.61) scale(1.05 0.98)" xlink:href="872442_03.png"/></g><g class="cls-8"><image class="cls-7" width="449" height="360" transform="translate(665.91 87.71) scale(0.89)" xlink:href="872442_05.jpg"/></g></svg>