<svg xmlns="http://www.w3.org/2000/svg" xmlns:xlink="http://www.w3.org/1999/xlink" viewBox="0 0 1190.55 1190.55"><defs><style>.cls-1,.cls-3,.cls-5,.cls-6{fill:none;}.cls-2{fill:#ffca00;}.cls-3{stroke:#4aad33;}.cls-3,.cls-5,.cls-6{stroke-miterlimit:10;}.cls-4{clip-path:url(#clip-path);}.cls-5{stroke:#004d9d;}.cls-6{stroke:#e53112;}.cls-7{clip-path:url(#clip-path-2);}</style><clipPath id="clip-path"><rect class="cls-1" x="613.7" y="337.32" width="239.53" height="239.53"/></clipPath><clipPath id="clip-path-2"><circle class="cls-1" cx="337.32" cy="853.23" r="212.6"/></clipPath></defs><title>886388_05</title><g id="sfondo"><rect class="cls-2" width="1190.55" height="1190.55"/></g><g id="_4x4" data-name="4x4"><rect class="cls-3" x="60.94" y="60.94" width="239.53" height="239.53"/><rect class="cls-3" x="337.32" y="60.94" width="239.53" height="239.53"/><rect class="cls-3" x="613.7" y="60.94" width="239.53" height="239.53"/><rect class="cls-3" x="890.08" y="60.94" width="239.53" height="239.53"/><rect class="cls-3" x="60.94" y="337.32" width="239.53" height="239.53"/><rect class="cls-3" x="60.94" y="890.08" width="239.53" height="239.53"/><rect class="cls-3" x="337.32" y="337.32" width="239.53" height="239.53"/><g class="cls-4"><image width="500" height="304" transform="translate(520.87 327.83) scale(0.85)" xlink:href="886388_03.png"/></g><rect class="cls-3" x="890.08" y="337.32" width="239.53" height="239.53"/><rect class="cls-3" x="60.94" y="613.7" width="239.53" height="239.53"/><rect class="cls-3" x="337.32" y="890.08" width="239.53" height="239.53"/><rect class="cls-3" x="337.32" y="613.7" width="239.53" height="239.53"/><rect class="cls-3" x="613.7" y="613.7" width="239.53" height="239.53"/><rect class="cls-3" x="890.08" y="613.7" width="239.53" height="239.53"/><rect class="cls-3" x="613.7" y="890.08" width="239.53" height="239.53"/><rect class="cls-3" x="890.08" y="890.08" width="239.53" height="239.53"/></g><g id="_5x5" data-name="5x5"><rect class="cls-5" x="61.06" y="60.94" width="184.25" height="184.25"/><rect class="cls-5" x="281.93" y="60.94" width="184.25" height="184.25"/><rect class="cls-5" x="503.03" y="60.94" width="184.25" height="184.25"/><rect class="cls-5" x="724.14" y="60.94" width="184.25" height="184.25"/><rect class="cls-5" x="945.24" y="60.94" width="184.25" height="184.25"/><rect class="cls-5" x="61.06" y="282.05" width="184.25" height="184.25"/><rect class="cls-5" x="61.06" y="503.15" width="184.25" height="184.25"/><rect class="cls-5" x="61.06" y="724.25" width="184.25" height="184.25"/><rect class="cls-5" x="61.06" y="945.35" width="184.25" height="184.25"/><rect class="cls-5" x="281.93" y="282.05" width="184.25" height="184.25"/><rect class="cls-5" x="281.93" y="503.15" width="184.25" height="184.25"/><rect class="cls-5" x="724.14" y="282.05" width="184.25" height="184.25"/><rect class="cls-5" x="281.93" y="724.25" width="184.25" height="184.25"/><rect class="cls-5" x="281.93" y="945.35" width="184.25" height="184.25"/><rect class="cls-5" x="945.24" y="282.05" width="184.25" height="184.25"/><rect class="cls-5" x="724.14" y="503.15" width="184.25" height="184.25"/><rect class="cls-5" x="503.03" y="282.05" width="184.25" height="184.25"/><rect class="cls-5" x="503.03" y="503.15" width="184.25" height="184.25"/><rect class="cls-5" x="503.03" y="724.25" width="184.25" height="184.25"/><rect class="cls-5" x="503.03" y="945.35" width="184.25" height="184.25"/><rect class="cls-5" x="945.24" y="503.15" width="184.25" height="184.25"/><rect class="cls-5" x="724.14" y="724.25" width="184.25" height="184.25"/><rect class="cls-5" x="945.24" y="724.25" width="184.25" height="184.25"/><rect class="cls-5" x="724.14" y="945.35" width="184.25" height="184.25"/><rect class="cls-5" x="945.24" y="945.35" width="184.25" height="184.25"/></g><g id="_6x6" data-name="6x6"><rect class="cls-6" x="60.94" y="60.94" width="147.4" height="147.4"/><rect class="cls-6" x="245.2" y="60.94" width="147.4" height="147.4"/><rect class="cls-6" x="429.45" y="60.94" width="147.4" height="147.4"/><rect class="cls-6" x="613.7" y="60.94" width="147.4" height="147.4"/><rect class="cls-6" x="797.95" y="60.94" width="147.4" height="147.4"/><rect class="cls-6" x="982.2" y="60.94" width="147.4" height="147.4"/><rect class="cls-6" x="60.94" y="245.2" width="147.4" height="147.4"/><rect class="cls-6" x="60.94" y="429.45" width="147.4" height="147.4"/><rect class="cls-6" x="60.94" y="613.7" width="147.4" height="147.4"/><rect class="cls-6" x="60.94" y="797.95" width="147.4" height="147.4"/><rect class="cls-6" x="60.94" y="982.2" width="147.4" height="147.4"/><rect class="cls-6" x="245.2" y="245.2" width="147.4" height="147.4"/><rect class="cls-6" x="245.2" y="429.45" width="147.4" height="147.4"/><rect class="cls-6" x="245.2" y="613.7" width="147.4" height="147.4"/><rect class="cls-6" x="245.2" y="797.95" width="147.4" height="147.4"/><rect class="cls-6" x="245.2" y="982.2" width="147.4" height="147.4"/><rect class="cls-6" x="429.45" y="245.2" width="147.4" height="147.4"/><rect class="cls-6" x="429.45" y="429.45" width="147.4" height="147.4"/><rect class="cls-6" x="429.45" y="613.7" width="147.4" height="147.4"/><rect class="cls-6" x="429.45" y="797.95" width="147.4" height="147.4"/><rect class="cls-6" x="429.45" y="982.2" width="147.4" height="147.4"/><rect class="cls-6" x="613.7" y="245.2" width="147.4" height="147.4"/><rect class="cls-6" x="613.7" y="429.45" width="147.4" height="147.4"/><rect class="cls-6" x="797.95" y="245.2" width="147.4" height="147.4"/><rect class="cls-6" x="613.7" y="613.7" width="147.4" height="147.4"/><rect class="cls-6" x="613.7" y="797.95" width="147.4" height="147.4"/><rect class="cls-6" x="613.7" y="982.2" width="147.4" height="147.4"/><rect class="cls-6" x="797.95" y="429.45" width="147.4" height="147.4"/><rect class="cls-6" x="797.95" y="613.7" width="147.4" height="147.4"/><rect class="cls-6" x="797.95" y="797.95" width="147.4" height="147.4"/><rect class="cls-6" x="797.95" y="982.2" width="147.4" height="147.4"/><rect class="cls-6" x="982.2" y="245.2" width="147.4" height="147.4"/><rect class="cls-6" x="982.2" y="429.45" width="147.4" height="147.4"/><rect class="cls-6" x="982.2" y="613.7" width="147.4" height="147.4"/><rect class="cls-6" x="982.2" y="797.95" width="147.4" height="147.4"/><rect class="cls-6" x="982.2" y="982.2" width="147.4" height="147.4"/></g><g id="Livello_7" data-name="Livello 7"><text></text></g><g id="Livello_6" data-name="Livello 6"><g class="cls-7"><image width="1136" height="474" transform="translate(-161.47 638.1) scale(0.9)" xlink:href="886388_05.jpg"/></g></g></svg>