<?xml version="1.0" encoding="utf-8"?>
<!-- Generator: Adobe Illustrator 22.1.0, SVG Export Plug-In . SVG Version: 6.00 Build 0)  -->
<svg version="1.1" id="Livello_1" xmlns="http://www.w3.org/2000/svg" xmlns:xlink="http://www.w3.org/1999/xlink" x="0px" y="0px"
	 viewBox="0 0 1190.6 1190.6" style="enable-background:new 0 0 1190.6 1190.6;" xml:space="preserve">
<style type="text/css">
	.st0{fill:#878787;}
	.st1{fill:none;stroke:#E30613;}
	.st2{fill:none;stroke:#42C0F0;}
	.st3{fill:none;stroke:#00A343;}
</style>
<title>Tavola disegno 1</title>
<g id="Background">
	<g id="Livello_1-2">
		<rect y="0" class="st0" width="1190.6" height="1190.6"/>
	</g>
</g>
<rect x="60.9" y="60.9" class="st1" width="239.5" height="239.5"/>
<rect x="337.3" y="60.9" class="st1" width="239.5" height="239.5"/>
<rect x="613.7" y="60.9" class="st1" width="239.5" height="239.5"/>
<rect x="890.1" y="60.9" class="st1" width="239.5" height="239.5"/>
<rect x="60.9" y="337.3" class="st1" width="239.5" height="239.5"/>
<rect x="337.3" y="337.3" class="st1" width="239.5" height="239.5"/>
<rect x="613.7" y="337.3" class="st1" width="239.5" height="239.5"/>
<rect x="890.1" y="337.3" class="st1" width="239.5" height="239.5"/>
<rect x="60.9" y="613.7" class="st1" width="239.5" height="239.5"/>
<rect x="337.3" y="613.7" class="st1" width="239.5" height="239.5"/>
<rect x="613.7" y="613.7" class="st1" width="239.5" height="239.5"/>
<rect x="890.1" y="613.7" class="st1" width="239.5" height="239.5"/>
<rect x="60.9" y="890.1" class="st1" width="239.5" height="239.5"/>
<rect x="337.3" y="890.1" class="st1" width="239.5" height="239.5"/>
<rect x="613.7" y="890.1" class="st1" width="239.5" height="239.5"/>
<rect x="890.1" y="890.1" class="st1" width="239.5" height="239.5"/>
<g id="_6x6">
	<rect x="61" y="61" class="st2" width="147.4" height="147.4"/>
	<rect x="245.2" y="61" class="st2" width="147.4" height="147.4"/>
	<rect x="429.5" y="61" class="st2" width="147.4" height="147.4"/>
	<rect x="613.7" y="61" class="st2" width="147.4" height="147.4"/>
	<rect x="798" y="61" class="st2" width="147.4" height="147.4"/>
	<rect x="982.2" y="61" class="st2" width="147.4" height="147.4"/>
	<rect x="61" y="245.2" class="st2" width="147.4" height="147.4"/>
	<rect x="245.2" y="245.2" class="st2" width="147.4" height="147.4"/>
	<rect x="429.5" y="245.2" class="st2" width="147.4" height="147.4"/>
	<rect x="613.7" y="245.2" class="st2" width="147.4" height="147.4"/>
	<rect x="798" y="245.2" class="st2" width="147.4" height="147.4"/>
	<rect x="982.2" y="245.2" class="st2" width="147.4" height="147.4"/>
	<rect x="61" y="429.5" class="st2" width="147.4" height="147.4"/>
	<rect x="245.2" y="429.5" class="st2" width="147.4" height="147.4"/>
	<rect x="429.5" y="429.5" class="st2" width="147.4" height="147.4"/>
	<rect x="613.7" y="429.5" class="st2" width="147.4" height="147.4"/>
	<rect x="798" y="429.5" class="st2" width="147.4" height="147.4"/>
	<rect x="982.2" y="429.5" class="st2" width="147.4" height="147.4"/>
	<rect x="61" y="613.7" class="st2" width="147.4" height="147.4"/>
	<rect x="245.2" y="613.7" class="st2" width="147.4" height="147.4"/>
	<rect x="429.5" y="613.7" class="st2" width="147.4" height="147.4"/>
	<rect x="613.7" y="613.7" class="st2" width="147.4" height="147.4"/>
	<rect x="798" y="613.7" class="st2" width="147.4" height="147.4"/>
	<rect x="982.2" y="613.7" class="st2" width="147.4" height="147.4"/>
	<rect x="61" y="798" class="st2" width="147.4" height="147.4"/>
	<rect x="245.2" y="798" class="st2" width="147.4" height="147.4"/>
	<rect x="429.5" y="798" class="st2" width="147.4" height="147.4"/>
	<rect x="613.7" y="798" class="st2" width="147.4" height="147.4"/>
	<rect x="798" y="798" class="st2" width="147.4" height="147.4"/>
	<rect x="982.2" y="798" class="st2" width="147.4" height="147.4"/>
	<rect x="61" y="982.2" class="st2" width="147.4" height="147.4"/>
	<rect x="245.2" y="982.2" class="st2" width="147.4" height="147.4"/>
	<rect x="429.5" y="982.2" class="st2" width="147.4" height="147.4"/>
	<rect x="613.7" y="982.2" class="st2" width="147.4" height="147.4"/>
	<rect x="798" y="982.2" class="st2" width="147.4" height="147.4"/>
	<rect x="982.2" y="982.2" class="st2" width="147.4" height="147.4"/>
</g>
<g id="_5x5">
	<rect x="61" y="61" class="st3" width="184.2" height="184.2"/>
	<rect x="282.1" y="61" class="st3" width="184.2" height="184.2"/>
	<rect x="503.2" y="61" class="st3" width="184.2" height="184.2"/>
	<rect x="724.3" y="61" class="st3" width="184.2" height="184.2"/>
	<rect x="945.4" y="61" class="st3" width="184.2" height="184.2"/>
	<rect x="61" y="282.1" class="st3" width="184.2" height="184.2"/>
	<rect x="282.1" y="282.1" class="st3" width="184.2" height="184.2"/>
	<rect x="503.2" y="282.1" class="st3" width="184.2" height="184.2"/>
	<rect x="724.3" y="282.1" class="st3" width="184.2" height="184.2"/>
	<rect x="945.4" y="282.1" class="st3" width="184.2" height="184.2"/>
	<rect x="61" y="503.2" class="st3" width="184.2" height="184.2"/>
	<rect x="282.1" y="503.2" class="st3" width="184.2" height="184.2"/>
	<rect x="503.2" y="503.2" class="st3" width="184.2" height="184.2"/>
	<rect x="724.3" y="503.2" class="st3" width="184.2" height="184.2"/>
	<rect x="945.4" y="503.2" class="st3" width="184.2" height="184.2"/>
	<rect x="61" y="724.3" class="st3" width="184.2" height="184.2"/>
	<rect x="282.1" y="724.3" class="st3" width="184.2" height="184.2"/>
	<rect x="503.2" y="724.3" class="st3" width="184.2" height="184.2"/>
	<rect x="724.3" y="724.3" class="st3" width="184.2" height="184.2"/>
	<rect x="945.4" y="724.3" class="st3" width="184.2" height="184.2"/>
	<rect x="61" y="945.4" class="st3" width="184.2" height="184.2"/>
	<rect x="282.1" y="945.4" class="st3" width="184.2" height="184.2"/>
	<rect x="503.2" y="945.4" class="st3" width="184.2" height="184.2"/>
	<rect x="724.3" y="945.4" class="st3" width="184.2" height="184.2"/>
	<rect x="945.4" y="945.4" class="st3" width="184.2" height="184.2"/>
</g>
<image style="overflow:visible;" width="1032" height="774" xlink:href="886378_03.jpg"  transform="matrix(1 0 0 1 88.2166 300.43)">
</image>
</svg>
