<svg xmlns="http://www.w3.org/2000/svg" viewBox="0 0 1190.55 1190.55"><defs><style>.cls-1{fill:#ffca00;}.cls-2,.cls-3,.cls-4{fill:none;stroke-miterlimit:10;}.cls-2{stroke:#4aad33;}.cls-3{stroke:#004d9d;}.cls-4{stroke:#e53112;}</style></defs><title>886388_01</title><g id="sfondo"><rect class="cls-1" width="1190.55" height="1190.55"/></g><g id="_4x4" data-name="4x4"><rect class="cls-2" x="60.94" y="60.94" width="239.53" height="239.53"/><rect class="cls-2" x="337.32" y="60.94" width="239.53" height="239.53"/><rect class="cls-2" x="613.7" y="60.94" width="239.53" height="239.53"/><rect class="cls-2" x="890.08" y="60.94" width="239.53" height="239.53"/><rect class="cls-2" x="60.94" y="337.32" width="239.53" height="239.53"/><rect class="cls-2" x="60.94" y="890.08" width="239.53" height="239.53"/><rect class="cls-2" x="337.32" y="337.32" width="239.53" height="239.53"/><rect class="cls-2" x="613.7" y="337.32" width="239.53" height="239.53"/><rect class="cls-2" x="890.08" y="337.32" width="239.53" height="239.53"/><rect class="cls-2" x="60.94" y="613.7" width="239.53" height="239.53"/><rect class="cls-2" x="337.32" y="890.08" width="239.53" height="239.53"/><rect class="cls-2" x="337.32" y="613.7" width="239.53" height="239.53"/><rect class="cls-2" x="613.7" y="613.7" width="239.53" height="239.53"/><rect class="cls-2" x="890.08" y="613.7" width="239.53" height="239.53"/><rect class="cls-2" x="613.7" y="890.08" width="239.53" height="239.53"/><rect class="cls-2" x="890.08" y="890.08" width="239.53" height="239.53"/></g><g id="_5x5" data-name="5x5"><rect class="cls-3" x="61.06" y="60.94" width="184.25" height="184.25"/><rect class="cls-3" x="281.93" y="60.94" width="184.25" height="184.25"/><rect class="cls-3" x="503.03" y="60.94" width="184.25" height="184.25"/><rect class="cls-3" x="724.14" y="60.94" width="184.25" height="184.25"/><rect class="cls-3" x="945.24" y="60.94" width="184.25" height="184.25"/><rect class="cls-3" x="61.06" y="282.05" width="184.25" height="184.25"/><rect class="cls-3" x="61.06" y="503.15" width="184.25" height="184.25"/><rect class="cls-3" x="61.06" y="724.25" width="184.25" height="184.25"/><rect class="cls-3" x="61.06" y="945.35" width="184.25" height="184.25"/><rect class="cls-3" x="281.93" y="282.05" width="184.25" height="184.25"/><rect class="cls-3" x="281.93" y="503.15" width="184.25" height="184.25"/><rect class="cls-3" x="724.14" y="282.05" width="184.25" height="184.25"/><rect class="cls-3" x="281.93" y="724.25" width="184.25" height="184.25"/><rect class="cls-3" x="281.93" y="945.35" width="184.25" height="184.25"/><rect class="cls-3" x="945.24" y="282.05" width="184.25" height="184.25"/><rect class="cls-3" x="724.14" y="503.15" width="184.25" height="184.25"/><rect class="cls-3" x="503.03" y="282.05" width="184.25" height="184.25"/><rect class="cls-3" x="503.03" y="503.15" width="184.25" height="184.25"/><rect class="cls-3" x="503.03" y="724.25" width="184.25" height="184.25"/><rect class="cls-3" x="503.03" y="945.35" width="184.25" height="184.25"/><rect class="cls-3" x="945.24" y="503.15" width="184.25" height="184.25"/><rect class="cls-3" x="724.14" y="724.25" width="184.25" height="184.25"/><rect class="cls-3" x="945.24" y="724.25" width="184.25" height="184.25"/><rect class="cls-3" x="724.14" y="945.35" width="184.25" height="184.25"/><rect class="cls-3" x="945.24" y="945.35" width="184.25" height="184.25"/></g><g id="_6x6" data-name="6x6"><rect class="cls-4" x="60.94" y="60.94" width="147.4" height="147.4"/><rect class="cls-4" x="245.2" y="60.94" width="147.4" height="147.4"/><rect class="cls-4" x="429.45" y="60.94" width="147.4" height="147.4"/><rect class="cls-4" x="613.7" y="60.94" width="147.4" height="147.4"/><rect class="cls-4" x="797.95" y="60.94" width="147.4" height="147.4"/><rect class="cls-4" x="982.2" y="60.94" width="147.4" height="147.4"/><rect class="cls-4" x="60.94" y="245.2" width="147.4" height="147.4"/><rect class="cls-4" x="60.94" y="429.45" width="147.4" height="147.4"/><rect class="cls-4" x="60.94" y="613.7" width="147.4" height="147.4"/><rect class="cls-4" x="60.94" y="797.95" width="147.4" height="147.4"/><rect class="cls-4" x="60.94" y="982.2" width="147.4" height="147.4"/><rect class="cls-4" x="245.2" y="245.2" width="147.4" height="147.4"/><rect class="cls-4" x="245.2" y="429.45" width="147.4" height="147.4"/><rect class="cls-4" x="245.2" y="613.7" width="147.4" height="147.4"/><rect class="cls-4" x="245.2" y="797.95" width="147.4" height="147.4"/><rect class="cls-4" x="245.2" y="982.2" width="147.4" height="147.4"/><rect class="cls-4" x="429.45" y="245.2" width="147.4" height="147.4"/><rect class="cls-4" x="429.45" y="429.45" width="147.4" height="147.4"/><rect class="cls-4" x="429.45" y="613.7" width="147.4" height="147.4"/><rect class="cls-4" x="429.45" y="797.95" width="147.4" height="147.4"/><rect class="cls-4" x="429.45" y="982.2" width="147.4" height="147.4"/><rect class="cls-4" x="613.7" y="245.2" width="147.4" height="147.4"/><rect class="cls-4" x="613.7" y="429.45" width="147.4" height="147.4"/><rect class="cls-4" x="797.95" y="245.2" width="147.4" height="147.4"/><rect class="cls-4" x="613.7" y="613.7" width="147.4" height="147.4"/><rect class="cls-4" x="613.7" y="797.95" width="147.4" height="147.4"/><rect class="cls-4" x="613.7" y="982.2" width="147.4" height="147.4"/><rect class="cls-4" x="797.95" y="429.45" width="147.4" height="147.4"/><rect class="cls-4" x="797.95" y="613.7" width="147.4" height="147.4"/><rect class="cls-4" x="797.95" y="797.95" width="147.4" height="147.4"/><rect class="cls-4" x="797.95" y="982.2" width="147.4" height="147.4"/><rect class="cls-4" x="982.2" y="245.2" width="147.4" height="147.4"/><rect class="cls-4" x="982.2" y="429.45" width="147.4" height="147.4"/><rect class="cls-4" x="982.2" y="613.7" width="147.4" height="147.4"/><rect class="cls-4" x="982.2" y="797.95" width="147.4" height="147.4"/><rect class="cls-4" x="982.2" y="982.2" width="147.4" height="147.4"/></g></svg>