<svg xmlns="http://www.w3.org/2000/svg" xmlns:xlink="http://www.w3.org/1999/xlink" viewBox="0 0 1426.84 1710.29"><defs><style>.cls-1,.cls-3,.cls-34,.cls-4,.cls-5{fill:none;}.cls-2{fill:#fecc26;stroke:#f09131;}.cls-2,.cls-3,.cls-34,.cls-4,.cls-5{stroke-miterlimit:10;}.cls-3{stroke:#00ab50;}.cls-4{stroke:#b3273f;}.cls-5{stroke:#313996;}.cls-6{clip-path:url(#clip-path);}.cls-7{clip-path:url(#clip-path-2);}.cls-8{font-size:60px;font-family:OpenSansCondensed-Bold, Open Sans Condensed;font-weight:700;}.cls-35,.cls-8,.cls-9{fill:#231f20;}.cls-9{font-size:16px;font-family:OpenSans-Light, Open Sans;}.cls-10{letter-spacing:0.39em;}.cls-11{letter-spacing:0.39em;}.cls-12{letter-spacing:0.1em;}.cls-13{letter-spacing:0.1em;}.cls-14{letter-spacing:0.29em;}.cls-15{letter-spacing:0.29em;}.cls-16{letter-spacing:0.25em;}.cls-17{letter-spacing:0.25em;}.cls-18{letter-spacing:-0.04em;}.cls-19{letter-spacing:-0.04em;}.cls-20{letter-spacing:0em;}.cls-21{letter-spacing:0em;}.cls-22{letter-spacing:0.04em;}.cls-23{letter-spacing:0.04em;}.cls-24{letter-spacing:0.05em;}.cls-25{letter-spacing:0.05em;}.cls-26{letter-spacing:-0.03em;}.cls-27{letter-spacing:-0.03em;}.cls-28{letter-spacing:0.04em;}.cls-29{letter-spacing:0.04em;}.cls-30{letter-spacing:0.03em;}.cls-31{letter-spacing:0.03em;}.cls-32{letter-spacing:0.28em;}.cls-33{letter-spacing:0.28em;}.cls-34{stroke:#231f20;}.cls-35{font-size:10px;font-family:EBGaramond-Italic, EB Garamond;font-style:italic;}.cls-36{letter-spacing:-0.02em;}.cls-37{letter-spacing:-0.01em;}.cls-38{letter-spacing:-0.05em;}.cls-39{letter-spacing:-0.03em;}.cls-40{letter-spacing:-0.02em;}.cls-41{letter-spacing:-0.02em;}.cls-42{letter-spacing:-0.01em;}</style><clipPath id="clip-path" transform="translate(0.5 0.5)"><ellipse class="cls-1" cx="963.98" cy="226.67" rx="166.55" ry="165.4"/></clipPath><clipPath id="clip-path-2" transform="translate(0.5 0.5)"><rect class="cls-1" x="797.86" y="429.06" width="332.15" height="332.15"/></clipPath></defs><title>886430_06</title><g id="Sfondo"><rect class="cls-2" x="0.5" y="0.5" width="1190.55" height="1190.55"/></g><g id="_4x4" data-name="4x4"><rect class="cls-3" x="61.44" y="61.44" width="239.53" height="239.53"/><rect class="cls-3" x="337.82" y="61.2" width="239.53" height="239.53"/><rect class="cls-3" x="614.2" y="61.44" width="239.53" height="239.53"/><rect class="cls-3" x="890.58" y="61.44" width="239.53" height="239.53"/><rect class="cls-3" x="61.44" y="337.44" width="239.53" height="239.53"/><rect class="cls-3" x="337.82" y="337.2" width="239.53" height="239.53"/><rect class="cls-3" x="614.2" y="337.44" width="239.53" height="239.53"/><rect class="cls-3" x="890.58" y="337.2" width="239.53" height="239.53"/><rect class="cls-3" x="61.44" y="614.2" width="239.53" height="239.53"/><rect class="cls-3" x="337.82" y="613.96" width="239.53" height="239.53"/><rect class="cls-3" x="614.2" y="614.2" width="239.53" height="239.53"/><rect class="cls-3" x="890.58" y="613.96" width="239.53" height="239.53"/><rect class="cls-3" x="61.44" y="890.2" width="239.53" height="239.53"/><rect class="cls-3" x="337.82" y="889.96" width="239.53" height="239.53"/><rect class="cls-3" x="614.2" y="889.96" width="239.53" height="239.53"/><rect class="cls-3" x="890.58" y="889.96" width="239.53" height="239.53"/></g><g id="_5x5" data-name="5x5"><rect class="cls-4" x="61.44" y="61.44" width="184.25" height="184.25"/><rect class="cls-4" x="61.44" y="282.55" width="184.25" height="184.25"/><rect class="cls-4" x="61.44" y="503.66" width="184.25" height="184.25"/><rect class="cls-4" x="61.44" y="724.75" width="184.25" height="184.25"/><rect class="cls-4" x="61.44" y="945.48" width="184.25" height="184.25"/><rect class="cls-4" x="282.55" y="61.45" width="184.25" height="184.25"/><rect class="cls-4" x="282.55" y="282.56" width="184.25" height="184.25"/><rect class="cls-4" x="282.55" y="503.67" width="184.25" height="184.25"/><rect class="cls-4" x="282.55" y="724.76" width="184.25" height="184.25"/><rect class="cls-4" x="282.55" y="945.23" width="184.25" height="184.25"/><rect class="cls-4" x="504.37" y="61.45" width="184.25" height="184.25"/><rect class="cls-4" x="504.37" y="282.56" width="184.25" height="184.25"/><rect class="cls-4" x="504.37" y="503.67" width="184.25" height="184.25"/><rect class="cls-4" x="504.37" y="724.76" width="184.25" height="184.25"/><rect class="cls-4" x="504.37" y="945.23" width="184.25" height="184.25"/><rect class="cls-4" x="724.75" y="61.45" width="184.25" height="184.25"/><rect class="cls-4" x="724.75" y="282.56" width="184.25" height="184.25"/><rect class="cls-4" x="724.75" y="503.67" width="184.25" height="184.25"/><rect class="cls-4" x="724.75" y="724.76" width="184.25" height="184.25"/><rect class="cls-4" x="724.75" y="945.23" width="184.25" height="184.25"/><rect class="cls-4" x="945.85" y="61.45" width="184.25" height="184.25"/><rect class="cls-4" x="945.85" y="282.56" width="184.25" height="184.25"/><rect class="cls-4" x="945.85" y="503.67" width="184.25" height="184.25"/><rect class="cls-4" x="945.85" y="724.76" width="184.25" height="184.25"/><rect class="cls-4" x="945.85" y="945.23" width="184.25" height="184.25"/></g><g id="_6x6" data-name="6x6"><rect class="cls-5" x="61.44" y="61.44" width="147.4" height="147.4"/><rect class="cls-5" x="245.7" y="61.44" width="147.4" height="147.4"/><rect class="cls-5" x="429.95" y="61.44" width="147.4" height="147.4"/><rect class="cls-5" x="614.2" y="61.44" width="147.4" height="147.4"/><rect class="cls-5" x="798.45" y="61.44" width="147.4" height="147.4"/><rect class="cls-5" x="982.7" y="61.44" width="147.4" height="147.4"/><rect class="cls-5" x="61.44" y="245.7" width="147.4" height="147.4"/><rect class="cls-5" x="245.7" y="245.7" width="147.4" height="147.4"/><rect class="cls-5" x="429.95" y="245.7" width="147.4" height="147.4"/><rect class="cls-5" x="614.2" y="245.7" width="147.4" height="147.4"/><rect class="cls-5" x="798.45" y="245.69" width="147.4" height="147.4"/><rect class="cls-5" x="982.7" y="245.7" width="147.4" height="147.4"/><rect class="cls-5" x="61.44" y="429.95" width="147.4" height="147.4"/><rect class="cls-5" x="245.7" y="429.95" width="147.4" height="147.4"/><rect class="cls-5" x="429.95" y="429.95" width="147.4" height="147.4"/><rect class="cls-5" x="614.2" y="429.32" width="147.4" height="147.4"/><rect class="cls-5" x="798.45" y="429.32" width="147.4" height="147.4"/><rect class="cls-5" x="982.7" y="429.32" width="147.4" height="147.4"/><rect class="cls-5" x="61.44" y="614.2" width="147.4" height="147.4"/><rect class="cls-5" x="245.7" y="614.2" width="147.4" height="147.4"/><rect class="cls-5" x="429.95" y="614.2" width="147.4" height="147.4"/><rect class="cls-5" x="614.2" y="614.2" width="147.4" height="147.4"/><rect class="cls-5" x="798.45" y="614.2" width="147.4" height="147.4"/><rect class="cls-5" x="982.7" y="614.2" width="147.4" height="147.4"/><rect class="cls-5" x="61.44" y="797.83" width="147.4" height="147.4"/><rect class="cls-5" x="245.7" y="797.83" width="147.4" height="147.4"/><rect class="cls-5" x="429.95" y="797.83" width="147.4" height="147.4"/><rect class="cls-5" x="614.2" y="797.83" width="147.4" height="147.4"/><rect class="cls-5" x="798.45" y="797.83" width="147.4" height="147.4"/><rect class="cls-5" x="982.7" y="797.83" width="147.4" height="147.4"/><rect class="cls-5" x="61.44" y="982.7" width="147.4" height="147.4"/><rect class="cls-5" x="245.7" y="982.08" width="147.4" height="147.4"/><rect class="cls-5" x="429.95" y="982.08" width="147.4" height="147.4"/><rect class="cls-5" x="614.2" y="982.08" width="147.4" height="147.4"/><rect class="cls-5" x="798.45" y="982.08" width="147.4" height="147.4"/><rect class="cls-5" x="982.7" y="982.08" width="147.4" height="147.4"/></g><g id="Imm_05" data-name="Imm 05"><g class="cls-6"><image width="5184" height="3456" transform="translate(709.49 44.7) scale(0.1 0.1)" xlink:href="886430_05.JPG"/></g></g><g id="Imm_03" data-name="Imm 03"><g class="cls-7"><image width="5184" height="3456" transform="translate(482.13 247.04) scale(0.18)" xlink:href="886430_03.JPG"/></g></g><g id="Testi"><text class="cls-8" transform="translate(61.21 112.02)">Architetture circolari</text><text class="cls-9" transform="translate(61.41 809.69)">Lorem<tspan class="cls-10" x="46.72" y="0"> </tspan><tspan x="57.07" y="0">ipsum</tspan><tspan class="cls-11" x="101.23" y="0"> </tspan><tspan x="111.58" y="0">dolor</tspan><tspan class="cls-10" x="149.69" y="0"> </tspan><tspan x="160.05" y="0">sit</tspan><tspan class="cls-11" x="176.48" y="0"> </tspan><tspan x="186.83" y="0">amet,</tspan><tspan class="cls-10" x="227.01" y="0"> </tspan><tspan x="237.36" y="0">consectetuer </tspan><tspan x="0" y="24">adipiscing</tspan><tspan class="cls-12" x="71.23" y="24"> </tspan><tspan x="76.95" y="24">elit,</tspan><tspan class="cls-12" x="101.76" y="24"> </tspan><tspan x="107.47" y="24">sed</tspan><tspan class="cls-12" x="133.23" y="24"> </tspan><tspan x="138.94" y="24">diam</tspan><tspan class="cls-13" x="174.68" y="24"> </tspan><tspan x="180.4" y="24">nonummy</tspan><tspan class="cls-12" x="253.68" y="24"> </tspan><tspan x="259.39" y="24">nibh</tspan><tspan class="cls-12" x="291.4" y="24"> </tspan><tspan x="297.12" y="24">euis</tspan><tspan x="326.4" y="24">-</tspan><tspan x="0" y="48">mod</tspan><tspan class="cls-14" x="33.02" y="48"> </tspan><tspan x="41.87" y="48">tincidunt</tspan><tspan class="cls-15" x="105.26" y="48"> </tspan><tspan x="114.11" y="48">ut</tspan><tspan class="cls-15" x="128.91" y="48"> </tspan><tspan x="137.75" y="48">laoreet</tspan><tspan class="cls-14" x="188.37" y="48"> </tspan><tspan x="197.22" y="48">dolore</tspan><tspan class="cls-14" x="244.12" y="48"> </tspan><tspan x="252.96" y="48">magna</tspan><tspan class="cls-15" x="301.85" y="48"> </tspan><tspan x="310.69" y="48">ali</tspan><tspan x="326.4" y="48">-</tspan><tspan x="0" y="72">quam</tspan><tspan class="cls-16" x="41.56" y="72"> </tspan><tspan x="49.68" y="72">erat</tspan><tspan class="cls-17" x="78.53" y="72"> </tspan><tspan x="86.65" y="72">volutpat.</tspan><tspan class="cls-16" x="148.94" y="72"> </tspan><tspan x="157.06" y="72">Ut</tspan><tspan class="cls-17" x="173.93" y="72"> </tspan><tspan x="182.05" y="72">wisi</tspan><tspan class="cls-16" x="208.31" y="72"> </tspan><tspan x="216.43" y="72">enim</tspan><tspan class="cls-17" x="252.39" y="72"> </tspan><tspan x="260.51" y="72">ad</tspan><tspan class="cls-16" x="278.51" y="72"> </tspan><tspan x="286.63" y="72">minim </tspan><tspan x="0" y="96">veniam,</tspan><tspan class="cls-18" x="55.22" y="96"> </tspan><tspan x="58.79" y="96">quis</tspan><tspan class="cls-18" x="88.83" y="96"> </tspan><tspan x="92.4" y="96">nostrud</tspan><tspan class="cls-19" x="149.21" y="96"> </tspan><tspan x="152.79" y="96">exerci</tspan><tspan class="cls-18" x="195.77" y="96"> </tspan><tspan x="199.34" y="96">tation</tspan><tspan class="cls-18" x="240.97" y="96"> </tspan><tspan x="244.55" y="96">ullamcorper </tspan><tspan x="0" y="120">suscipit</tspan><tspan class="cls-20" x="54.06" y="120"> </tspan><tspan x="58.16" y="120">lobortis</tspan><tspan class="cls-21" x="112.71" y="120"> </tspan><tspan x="116.81" y="120">nisl</tspan><tspan class="cls-20" x="140.94" y="120"> </tspan><tspan x="145.04" y="120">ut</tspan><tspan class="cls-20" x="159.83" y="120"> </tspan><tspan x="163.93" y="120">aliquip</tspan><tspan class="cls-20" x="211.74" y="120"> </tspan><tspan x="215.84" y="120">ex</tspan><tspan class="cls-21" x="232.59" y="120"> </tspan><tspan x="236.7" y="120">ea</tspan><tspan class="cls-20" x="253.95" y="120"> </tspan><tspan x="258.05" y="120">commodo </tspan><tspan x="0" y="144">consequat.</tspan><tspan class="cls-22" x="79.25" y="144"> </tspan><tspan x="83.99" y="144">Duis</tspan><tspan class="cls-22" x="115.79" y="144"> </tspan><tspan x="120.53" y="144">autem</tspan><tspan class="cls-22" x="166.71" y="144"> </tspan><tspan x="171.44" y="144">vel</tspan><tspan class="cls-23" x="191.19" y="144"> </tspan><tspan x="195.92" y="144">eum</tspan><tspan class="cls-22" x="228.27" y="144"> </tspan><tspan x="233" y="144">iriure</tspan><tspan class="cls-22" x="270.91" y="144"> </tspan><tspan x="275.65" y="144">dolor</tspan><tspan class="cls-22" x="313.76" y="144"> </tspan><tspan x="318.5" y="144">in </tspan><tspan x="0" y="168">hendrerit</tspan><tspan class="cls-24" x="67.39" y="168"> </tspan><tspan x="72.38" y="168">in</tspan><tspan class="cls-24" x="85.43" y="168"> </tspan><tspan x="90.42" y="168">vulputate</tspan><tspan class="cls-25" x="157.75" y="168"> </tspan><tspan x="162.74" y="168">velit</tspan><tspan class="cls-24" x="191.46" y="168"> </tspan><tspan x="196.44" y="168">esse</tspan><tspan class="cls-24" x="228.91" y="168"> </tspan><tspan x="233.9" y="168">molestie</tspan><tspan class="cls-24" x="295.01" y="168"> </tspan><tspan x="299.99" y="168">con</tspan><tspan x="326.4" y="168">-</tspan><tspan x="0" y="192">sequat,</tspan><tspan class="cls-26" x="52.47" y="192"> </tspan><tspan x="56.2" y="192">vel</tspan><tspan class="cls-27" x="75.95" y="192"> </tspan><tspan x="79.68" y="192">illum</tspan><tspan class="cls-26" x="114.09" y="192"> </tspan><tspan x="117.83" y="192">dolore</tspan><tspan class="cls-27" x="164.73" y="192"> </tspan><tspan x="168.46" y="192">eu</tspan><tspan class="cls-26" x="186.68" y="192"> </tspan><tspan x="190.41" y="192">feugiat</tspan><tspan class="cls-27" x="239.25" y="192"> </tspan><tspan x="242.98" y="192">nulla</tspan><tspan class="cls-26" x="277.57" y="192"> </tspan><tspan x="281.3" y="192">facilisis </tspan><tspan x="0" y="216">at</tspan><tspan class="cls-28" x="13.84" y="216"> </tspan><tspan x="18.71" y="216">vero</tspan><tspan class="cls-29" x="50.43" y="216"> </tspan><tspan x="55.3" y="216">eros</tspan><tspan class="cls-28" x="87.14" y="216"> </tspan><tspan x="92.01" y="216">et</tspan><tspan class="cls-28" x="106.15" y="216"> </tspan><tspan x="111.02" y="216">accumsan</tspan><tspan class="cls-29" x="183.63" y="216"> </tspan><tspan x="188.5" y="216">et</tspan><tspan class="cls-28" x="202.64" y="216"> </tspan><tspan x="207.51" y="216">iusto</tspan><tspan class="cls-29" x="242.76" y="216"> </tspan><tspan x="247.63" y="216">odio</tspan><tspan class="cls-28" x="279.52" y="216"> </tspan><tspan x="284.39" y="216">dignis</tspan><tspan x="326.4" y="216">-</tspan><tspan x="0" y="240">sim</tspan><tspan class="cls-30" x="25.2" y="240"> </tspan><tspan x="29.78" y="240">qui</tspan><tspan class="cls-30" x="52.36" y="240"> </tspan><tspan x="56.95" y="240">blandit</tspan><tspan class="cls-31" x="106.5" y="240"> </tspan><tspan x="111.09" y="240">praesent</tspan><tspan class="cls-30" x="175.13" y="240"> </tspan><tspan x="179.72" y="240">luptatum</tspan><tspan class="cls-30" x="245.05" y="240"> </tspan><tspan x="249.64" y="240">zzril</tspan><tspan class="cls-30" x="277.85" y="240"> </tspan><tspan x="282.44" y="240">delenit </tspan><tspan x="0" y="264">augue duis dolore te feugait nulla facilisi.</tspan><tspan x="0" y="288">Lorem</tspan><tspan class="cls-32" x="46.72" y="288"> </tspan><tspan x="55.34" y="288">ipsum</tspan><tspan class="cls-32" x="99.5" y="288"> </tspan><tspan x="108.13" y="288">dolor</tspan><tspan class="cls-33" x="146.24" y="288"> </tspan><tspan x="154.87" y="288">sit</tspan><tspan class="cls-32" x="171.3" y="288"> </tspan><tspan x="179.93" y="288">amet,</tspan><tspan class="cls-32" x="220.11" y="288"> </tspan><tspan x="228.73" y="288">cons</tspan><tspan class="cls-32" x="262.6" y="288"> </tspan><tspan x="271.23" y="288">ectetuer </tspan><tspan x="0" y="312">adipiscing</tspan><tspan class="cls-12" x="71.23" y="312"> </tspan><tspan x="76.95" y="312">elit,</tspan><tspan class="cls-12" x="101.76" y="312"> </tspan><tspan x="107.47" y="312">sed</tspan><tspan class="cls-12" x="133.23" y="312"> </tspan><tspan x="138.94" y="312">diam</tspan><tspan class="cls-13" x="174.68" y="312"> </tspan><tspan x="180.4" y="312">nonummy</tspan><tspan class="cls-12" x="253.68" y="312"> </tspan><tspan x="259.39" y="312">nibh</tspan><tspan class="cls-12" x="291.4" y="312"> </tspan><tspan x="297.12" y="312">euis</tspan><tspan x="326.4" y="312">-</tspan></text><path class="cls-34" d="M1311.3,1701.4v0Z" transform="translate(0.5 0.5)"/><text class="cls-35" transform="translate(798.45 804.73)">D<tspan class="cls-36" x="7.52" y="0">a</tspan><tspan class="cls-37" x="12.23" y="0">l</tspan><tspan x="14.94" y="0">l</tspan><tspan class="cls-38" x="17.8" y="0">’</tspan><tspan class="cls-36" x="19.5" y="0">a</tspan><tspan x="24.21" y="0">lto: C</tspan><tspan class="cls-37" x="44.26" y="0">u</tspan><tspan x="49.2" y="0">p</tspan><tspan class="cls-36" x="53.59" y="0">o</tspan><tspan x="57.19" y="0">la d</tspan><tspan class="cls-39" x="72.12" y="0">e</tspan><tspan class="cls-40" x="75.28" y="0">l</tspan><tspan x="77.99" y="0">la Ch</tspan><tspan class="cls-41" x="98.95" y="0">i</tspan><tspan x="101.69" y="0">esa d</tspan><tspan class="cls-39" x="119.93" y="0">e</tspan><tspan x="123.09" y="0">l Gesù N</tspan><tspan class="cls-36" x="155.79" y="0">u</tspan><tspan x="160.68" y="0">ovo, N</tspan><tspan class="cls-42" x="184.24" y="0">a</tspan><tspan x="189.05" y="0">p</tspan><tspan class="cls-36" x="193.44" y="0">o</tspan><tspan x="197.04" y="0">li; Rosone di Ste</tspan><tspan class="cls-36" x="256" y="0">p</tspan><tspan x="260.19" y="0">h</tspan><tspan class="cls-41" x="265.07" y="0">a</tspan><tspan x="269.78" y="0">nsdom di </tspan><tspan class="cls-39" x="306.76" y="0">V</tspan><tspan class="cls-36" x="313.34" y="0">i</tspan><tspan x="316.08" y="0">e</tspan><tspan class="cls-36" x="319.49" y="0">n</tspan><tspan x="324.56" y="0">na</tspan></text></g></svg>