<?xml version="1.0" encoding="utf-8"?>
<!-- Generator: Adobe Illustrator 22.1.0, SVG Export Plug-In . SVG Version: 6.00 Build 0)  -->
<svg version="1.1" id="Livello_1" xmlns="http://www.w3.org/2000/svg" xmlns:xlink="http://www.w3.org/1999/xlink" x="0px" y="0px"
	 viewBox="0 0 1190.6 1190.6" style="enable-background:new 0 0 1190.6 1190.6;" xml:space="preserve">
<style type="text/css">
	.st0{fill:#29ABE2;}
	.st1{fill:none;stroke:#00E736;}
	.st2{fill:none;stroke:#B90077;}
	.st3{fill:none;stroke:#0100D0;}
</style>
<g id="Livello_1_3_">
	<g id="Livello_1_2_">
		<g id="Livello_1_1_">
			<rect y="0" class="st0" width="1190.6" height="1190.6"/>
		</g>
		<g id="tabella_1">
			<rect x="60.9" y="60.9" class="st1" width="239.5" height="239.5"/>
			<rect x="337.3" y="60.9" class="st1" width="239.5" height="239.5"/>
			<rect x="613.7" y="60.9" class="st1" width="239.5" height="239.5"/>
			<rect x="890.1" y="60.9" class="st1" width="239.5" height="239.5"/>
			<rect x="60.9" y="337.3" class="st1" width="239.5" height="239.5"/>
			<rect x="337.3" y="337.3" class="st1" width="239.5" height="239.5"/>
			<rect x="613.7" y="337.3" class="st1" width="239.5" height="239.5"/>
			<rect x="890.1" y="337.3" class="st1" width="239.5" height="239.5"/>
			<rect x="60.9" y="613.7" class="st1" width="239.5" height="239.5"/>
			<rect x="337.3" y="613.7" class="st1" width="239.5" height="239.5"/>
			<rect x="613.7" y="613.7" class="st1" width="239.5" height="239.5"/>
			<rect x="890.1" y="613.7" class="st1" width="239.5" height="239.5"/>
			<rect x="60.9" y="890.1" class="st1" width="239.5" height="239.5"/>
			<rect x="337.3" y="890.1" class="st1" width="239.5" height="239.5"/>
			<rect x="613.7" y="890.1" class="st1" width="239.5" height="239.5"/>
			<rect x="890.1" y="890.1" class="st1" width="239.5" height="239.5"/>
		</g>
		<g id="tabella_2">
			<rect x="60.9" y="60.9" class="st2" width="184.3" height="184.3"/>
			<rect x="282" y="60.9" class="st2" width="184.3" height="184.3"/>
			<rect x="503.1" y="60.9" class="st2" width="184.3" height="184.3"/>
			<rect x="724.3" y="60.9" class="st2" width="184.3" height="184.3"/>
			<rect x="945.4" y="60.9" class="st2" width="184.3" height="184.3"/>
			<rect x="60.9" y="282" class="st2" width="184.3" height="184.3"/>
			<rect x="282" y="282" class="st2" width="184.3" height="184.3"/>
			<rect x="503.1" y="282" class="st2" width="184.3" height="184.3"/>
			<rect x="724.3" y="282" class="st2" width="184.3" height="184.3"/>
			<rect x="945.4" y="282" class="st2" width="184.3" height="184.3"/>
			<rect x="60.9" y="503.1" class="st2" width="184.3" height="184.3"/>
			<rect x="282" y="503.1" class="st2" width="184.3" height="184.3"/>
			<rect x="503.1" y="503.1" class="st2" width="184.3" height="184.3"/>
			<rect x="724.3" y="503.1" class="st2" width="184.3" height="184.3"/>
			<rect x="945.4" y="503.1" class="st2" width="184.3" height="184.3"/>
			<rect x="60.9" y="724.3" class="st2" width="184.3" height="184.3"/>
			<rect x="282" y="724.3" class="st2" width="184.3" height="184.3"/>
			<rect x="503.1" y="724.3" class="st2" width="184.3" height="184.3"/>
			<rect x="724.3" y="724.3" class="st2" width="184.3" height="184.3"/>
			<rect x="945.4" y="724.3" class="st2" width="184.3" height="184.3"/>
			<rect x="60.9" y="945.4" class="st2" width="184.3" height="184.3"/>
			<rect x="282" y="945.4" class="st2" width="184.3" height="184.3"/>
			<rect x="503.1" y="945.4" class="st2" width="184.3" height="184.3"/>
			<rect x="724.3" y="945.4" class="st2" width="184.3" height="184.3"/>
			<rect x="945.4" y="945.4" class="st2" width="184.3" height="184.3"/>
		</g>
		<g id="tabella_3">
			<rect x="60.9" y="60.9" class="st3" width="147.4" height="147.4"/>
			<rect x="245.2" y="60.9" class="st3" width="147.4" height="147.4"/>
			<rect x="429.4" y="60.9" class="st3" width="147.4" height="147.4"/>
			<rect x="613.7" y="60.9" class="st3" width="147.4" height="147.4"/>
			<rect x="798" y="60.9" class="st3" width="147.4" height="147.4"/>
			<rect x="982.2" y="60.9" class="st3" width="147.4" height="147.4"/>
			<rect x="60.9" y="245.2" class="st3" width="147.4" height="147.4"/>
			<rect x="245.2" y="245.2" class="st3" width="147.4" height="147.4"/>
			<rect x="429.4" y="245.2" class="st3" width="147.4" height="147.4"/>
			<rect x="613.7" y="245.2" class="st3" width="147.4" height="147.4"/>
			<rect x="798" y="245.2" class="st3" width="147.4" height="147.4"/>
			<rect x="982.2" y="245.2" class="st3" width="147.4" height="147.4"/>
			<rect x="60.9" y="429.4" class="st3" width="147.4" height="147.4"/>
			<rect x="245.2" y="429.4" class="st3" width="147.4" height="147.4"/>
			<rect x="429.4" y="429.4" class="st3" width="147.4" height="147.4"/>
			<rect x="613.7" y="429.4" class="st3" width="147.4" height="147.4"/>
			<rect x="798" y="429.4" class="st3" width="147.4" height="147.4"/>
			<rect x="982.2" y="429.4" class="st3" width="147.4" height="147.4"/>
			<rect x="60.9" y="613.7" class="st3" width="147.4" height="147.4"/>
			<rect x="245.2" y="613.7" class="st3" width="147.4" height="147.4"/>
			<rect x="429.4" y="613.7" class="st3" width="147.4" height="147.4"/>
			<rect x="613.7" y="613.7" class="st3" width="147.4" height="147.4"/>
			<rect x="798" y="613.7" class="st3" width="147.4" height="147.4"/>
			<rect x="982.2" y="613.7" class="st3" width="147.4" height="147.4"/>
			<rect x="60.9" y="798" class="st3" width="147.4" height="147.4"/>
			<rect x="245.2" y="798" class="st3" width="147.4" height="147.4"/>
			<rect x="429.4" y="798" class="st3" width="147.4" height="147.4"/>
			<rect x="613.7" y="798" class="st3" width="147.4" height="147.4"/>
			<rect x="798" y="798" class="st3" width="147.4" height="147.4"/>
			<rect x="982.2" y="798" class="st3" width="147.4" height="147.4"/>
			<rect x="60.9" y="982.2" class="st3" width="147.4" height="147.4"/>
			<rect x="245.2" y="982.2" class="st3" width="147.4" height="147.4"/>
			<rect x="429.4" y="982.2" class="st3" width="147.4" height="147.4"/>
			<rect x="613.7" y="982.2" class="st3" width="147.4" height="147.4"/>
			<rect x="798" y="982.2" class="st3" width="147.4" height="147.4"/>
			<rect x="982.2" y="982.2" class="st3" width="147.4" height="147.4"/>
		</g>
	</g>
</g>
<g id="Livello_2_1_">
	
		<image style="overflow:visible;enable-background:new    ;" width="1920" height="1080" xlink:href="886412_03.jpg"  transform="matrix(0.4319 0 0 0.4319 162.2 294.675)">
	</image>
</g>
</svg>
