<svg xmlns="http://www.w3.org/2000/svg" xmlns:xlink="http://www.w3.org/1999/xlink" viewBox="0 0 1426.84 1191.55"><defs><style>.cls-1,.cls-3,.cls-4,.cls-5{fill:none;}.cls-2{fill:#fecc26;stroke:#f09131;}.cls-2,.cls-3,.cls-4,.cls-5{stroke-miterlimit:10;}.cls-3{stroke:#00ab50;}.cls-4{stroke:#b3273f;}.cls-5{stroke:#313996;}.cls-6{clip-path:url(#clip-path);}.cls-7{clip-path:url(#clip-path-2);}</style><clipPath id="clip-path" transform="translate(0.5 0.5)"><ellipse class="cls-1" cx="963.98" cy="226.67" rx="166.55" ry="165.4"/></clipPath><clipPath id="clip-path-2" transform="translate(0.5 0.5)"><rect class="cls-1" x="797.86" y="429.06" width="332.15" height="332.15"/></clipPath></defs><title>886430_05</title><g id="Sfondo"><rect class="cls-2" x="0.5" y="0.5" width="1190.55" height="1190.55"/></g><g id="_4x4" data-name="4x4"><rect class="cls-3" x="61.44" y="61.44" width="239.53" height="239.53"/><rect class="cls-3" x="337.82" y="61.2" width="239.53" height="239.53"/><rect class="cls-3" x="614.2" y="61.44" width="239.53" height="239.53"/><rect class="cls-3" x="890.58" y="61.44" width="239.53" height="239.53"/><rect class="cls-3" x="61.44" y="337.44" width="239.53" height="239.53"/><rect class="cls-3" x="337.82" y="337.2" width="239.53" height="239.53"/><rect class="cls-3" x="614.2" y="337.44" width="239.53" height="239.53"/><rect class="cls-3" x="890.58" y="337.2" width="239.53" height="239.53"/><rect class="cls-3" x="61.44" y="614.2" width="239.53" height="239.53"/><rect class="cls-3" x="337.82" y="613.96" width="239.53" height="239.53"/><rect class="cls-3" x="614.2" y="614.2" width="239.53" height="239.53"/><rect class="cls-3" x="890.58" y="613.96" width="239.53" height="239.53"/><rect class="cls-3" x="61.44" y="890.2" width="239.53" height="239.53"/><rect class="cls-3" x="337.82" y="889.96" width="239.53" height="239.53"/><rect class="cls-3" x="614.2" y="889.96" width="239.53" height="239.53"/><rect class="cls-3" x="890.58" y="889.96" width="239.53" height="239.53"/></g><g id="_5x5" data-name="5x5"><rect class="cls-4" x="61.44" y="61.44" width="184.25" height="184.25"/><rect class="cls-4" x="61.44" y="282.55" width="184.25" height="184.25"/><rect class="cls-4" x="61.44" y="503.66" width="184.25" height="184.25"/><rect class="cls-4" x="61.44" y="724.75" width="184.25" height="184.25"/><rect class="cls-4" x="61.44" y="945.48" width="184.25" height="184.25"/><rect class="cls-4" x="282.55" y="61.45" width="184.25" height="184.25"/><rect class="cls-4" x="282.55" y="282.56" width="184.25" height="184.25"/><rect class="cls-4" x="282.55" y="503.67" width="184.25" height="184.25"/><rect class="cls-4" x="282.55" y="724.76" width="184.25" height="184.25"/><rect class="cls-4" x="282.55" y="945.23" width="184.25" height="184.25"/><rect class="cls-4" x="504.37" y="61.45" width="184.25" height="184.25"/><rect class="cls-4" x="504.37" y="282.56" width="184.25" height="184.25"/><rect class="cls-4" x="504.37" y="503.67" width="184.25" height="184.25"/><rect class="cls-4" x="504.37" y="724.76" width="184.25" height="184.25"/><rect class="cls-4" x="504.37" y="945.23" width="184.25" height="184.25"/><rect class="cls-4" x="724.75" y="61.45" width="184.25" height="184.25"/><rect class="cls-4" x="724.75" y="282.56" width="184.25" height="184.25"/><rect class="cls-4" x="724.75" y="503.67" width="184.25" height="184.25"/><rect class="cls-4" x="724.75" y="724.76" width="184.25" height="184.25"/><rect class="cls-4" x="724.75" y="945.23" width="184.25" height="184.25"/><rect class="cls-4" x="945.85" y="61.45" width="184.25" height="184.25"/><rect class="cls-4" x="945.85" y="282.56" width="184.25" height="184.25"/><rect class="cls-4" x="945.85" y="503.67" width="184.25" height="184.25"/><rect class="cls-4" x="945.85" y="724.76" width="184.25" height="184.25"/><rect class="cls-4" x="945.85" y="945.23" width="184.25" height="184.25"/></g><g id="_6x6" data-name="6x6"><rect class="cls-5" x="61.44" y="61.44" width="147.4" height="147.4"/><rect class="cls-5" x="245.7" y="61.44" width="147.4" height="147.4"/><rect class="cls-5" x="429.95" y="61.44" width="147.4" height="147.4"/><rect class="cls-5" x="614.2" y="61.44" width="147.4" height="147.4"/><rect class="cls-5" x="798.45" y="61.44" width="147.4" height="147.4"/><rect class="cls-5" x="982.7" y="61.44" width="147.4" height="147.4"/><rect class="cls-5" x="61.44" y="245.7" width="147.4" height="147.4"/><rect class="cls-5" x="245.7" y="245.7" width="147.4" height="147.4"/><rect class="cls-5" x="429.95" y="245.7" width="147.4" height="147.4"/><rect class="cls-5" x="614.2" y="245.7" width="147.4" height="147.4"/><rect class="cls-5" x="798.45" y="245.69" width="147.4" height="147.4"/><rect class="cls-5" x="982.7" y="245.7" width="147.4" height="147.4"/><rect class="cls-5" x="61.44" y="429.95" width="147.4" height="147.4"/><rect class="cls-5" x="245.7" y="429.95" width="147.4" height="147.4"/><rect class="cls-5" x="429.95" y="429.95" width="147.4" height="147.4"/><rect class="cls-5" x="614.2" y="429.32" width="147.4" height="147.4"/><rect class="cls-5" x="798.45" y="429.32" width="147.4" height="147.4"/><rect class="cls-5" x="982.7" y="429.32" width="147.4" height="147.4"/><rect class="cls-5" x="61.44" y="614.2" width="147.4" height="147.4"/><rect class="cls-5" x="245.7" y="614.2" width="147.4" height="147.4"/><rect class="cls-5" x="429.95" y="614.2" width="147.4" height="147.4"/><rect class="cls-5" x="614.2" y="614.2" width="147.4" height="147.4"/><rect class="cls-5" x="798.45" y="614.2" width="147.4" height="147.4"/><rect class="cls-5" x="982.7" y="614.2" width="147.4" height="147.4"/><rect class="cls-5" x="61.44" y="797.83" width="147.4" height="147.4"/><rect class="cls-5" x="245.7" y="797.83" width="147.4" height="147.4"/><rect class="cls-5" x="429.95" y="797.83" width="147.4" height="147.4"/><rect class="cls-5" x="614.2" y="797.83" width="147.4" height="147.4"/><rect class="cls-5" x="798.45" y="797.83" width="147.4" height="147.4"/><rect class="cls-5" x="982.7" y="797.83" width="147.4" height="147.4"/><rect class="cls-5" x="61.44" y="982.7" width="147.4" height="147.4"/><rect class="cls-5" x="245.7" y="982.08" width="147.4" height="147.4"/><rect class="cls-5" x="429.95" y="982.08" width="147.4" height="147.4"/><rect class="cls-5" x="614.2" y="982.08" width="147.4" height="147.4"/><rect class="cls-5" x="798.45" y="982.08" width="147.4" height="147.4"/><rect class="cls-5" x="982.7" y="982.08" width="147.4" height="147.4"/></g><g id="Imm_05" data-name="Imm 05"><g class="cls-6"><image width="5184" height="3456" transform="translate(709.49 44.7) scale(0.1 0.1)" xlink:href="886430_05.JPG"/></g></g><g id="Imm_03" data-name="Imm 03"><g class="cls-7"><image width="5184" height="3456" transform="translate(482.13 247.04) scale(0.18)" xlink:href="886430_03.JPG"/></g></g></svg>