<svg xmlns="http://www.w3.org/2000/svg" xmlns:xlink="http://www.w3.org/1999/xlink" viewBox="0 0 1190.55 1190.55"><defs><style>.cls-1{fill:#72d6f2;}.cls-2,.cls-3,.cls-4,.cls-5,.cls-6{fill:none;stroke-miterlimit:10;}.cls-2{stroke:blue;}.cls-3{stroke:#2ff233;}.cls-4,.cls-5,.cls-6{stroke:#f93d8a;}.cls-4{stroke-width:0.99px;}.cls-5{stroke-width:0.99px;}</style></defs><title>pdf886859_03</title><g id="Livello_1" data-name="Livello 1"><rect class="cls-1" width="1190.55" height="1190.55"/><rect class="cls-2" x="60.95" y="60.67" width="238.49" height="238.49"/><rect class="cls-2" x="338.46" y="60.67" width="238.49" height="238.49"/><rect class="cls-2" x="614.95" y="60.67" width="238.49" height="238.49"/><rect class="cls-2" x="890.43" y="60.67" width="238.49" height="238.49"/><rect class="cls-2" x="61.29" y="338.6" width="238.49" height="238.49"/><rect class="cls-2" x="338.8" y="338.6" width="238.49" height="238.49"/><rect class="cls-2" x="615.29" y="338.6" width="238.49" height="238.49"/><rect class="cls-2" x="890.77" y="338.6" width="238.49" height="238.49"/><rect class="cls-2" x="61.29" y="616.54" width="238.49" height="238.49"/><rect class="cls-2" x="338.8" y="616.54" width="238.49" height="238.49"/><rect class="cls-2" x="615.29" y="616.54" width="238.49" height="238.49"/><rect class="cls-2" x="890.77" y="616.54" width="238.49" height="238.49"/><rect class="cls-2" x="61.29" y="888.41" width="238.49" height="238.49"/><rect class="cls-2" x="338.8" y="888.41" width="238.49" height="238.49"/><rect class="cls-2" x="615.29" y="888.41" width="238.49" height="238.49"/><rect class="cls-2" x="890.77" y="888.41" width="238.49" height="238.49"/><rect class="cls-3" x="60.95" y="60.67" width="183.86" height="183.86"/><rect class="cls-3" x="282.94" y="60.67" width="183.86" height="183.86"/><rect class="cls-3" x="503.35" y="60.67" width="183.86" height="183.86"/><rect class="cls-3" x="723.22" y="60.67" width="183.86" height="183.86"/><rect class="cls-3" x="945.4" y="60.67" width="183.86" height="183.86"/><rect class="cls-3" x="61.12" y="281.33" width="183.86" height="183.86"/><rect class="cls-3" x="283.11" y="281.33" width="183.86" height="183.86"/><rect class="cls-3" x="503.52" y="281.33" width="183.86" height="183.86"/><rect class="cls-3" x="723.39" y="281.33" width="183.86" height="183.86"/><rect class="cls-3" x="945.57" y="281.33" width="183.86" height="183.86"/><rect class="cls-3" x="61.46" y="503.35" width="183.86" height="183.86"/><rect class="cls-3" x="283.45" y="503.35" width="183.86" height="183.86"/><rect class="cls-3" x="503.86" y="503.35" width="183.86" height="183.86"/><rect class="cls-3" x="723.73" y="503.35" width="183.86" height="183.86"/><rect class="cls-3" x="945.91" y="503.35" width="183.86" height="183.86"/><rect class="cls-3" x="61.97" y="725.48" width="183.86" height="183.86"/><rect class="cls-3" x="283.96" y="725.48" width="183.86" height="183.86"/><rect class="cls-3" x="504.37" y="725.48" width="183.86" height="183.86"/><rect class="cls-3" x="724.24" y="725.48" width="183.86" height="183.86"/><rect class="cls-3" x="946.43" y="725.48" width="183.86" height="183.86"/><rect class="cls-3" x="61.12" y="945" width="183.86" height="183.86"/><rect class="cls-3" x="283.11" y="945" width="183.86" height="183.86"/><rect class="cls-3" x="503.52" y="945" width="183.86" height="183.86"/><rect class="cls-3" x="723.39" y="945" width="183.86" height="183.86"/><rect class="cls-3" x="945.57" y="943.04" width="183.86" height="183.86"/><rect class="cls-4" x="798" y="616.54" width="148.68" height="144.7"/><rect class="cls-5" x="797.88" y="981.52" width="148.68" height="144.7"/><rect class="cls-6" x="62.06" y="60.36" width="148.68" height="148.68"/><rect class="cls-6" x="245.92" y="60.36" width="148.68" height="148.68"/><rect class="cls-6" x="429.1" y="60.36" width="148.68" height="148.68"/><rect class="cls-6" x="613.12" y="60.36" width="148.68" height="148.68"/><rect class="cls-6" x="797.84" y="60.36" width="148.68" height="148.68"/><rect class="cls-6" x="981.68" y="60.36" width="148.68" height="148.68"/><rect class="cls-6" x="62.24" y="244.21" width="148.68" height="148.68"/><rect class="cls-6" x="246.09" y="244.21" width="148.68" height="148.68"/><rect class="cls-6" x="429.26" y="244.21" width="148.68" height="148.68"/><rect class="cls-6" x="613.3" y="244.21" width="148.68" height="148.68"/><rect class="cls-6" x="798" y="244.21" width="148.68" height="148.68"/><rect class="cls-6" x="981.87" y="244.21" width="148.68" height="148.68"/><rect class="cls-6" x="62.24" y="428.07" width="148.68" height="148.68"/><rect class="cls-6" x="246.09" y="428.07" width="148.68" height="148.68"/><rect class="cls-6" x="429.26" y="428.07" width="148.68" height="148.68"/><rect class="cls-6" x="613.3" y="428.07" width="148.68" height="148.68"/><rect class="cls-6" x="798" y="428.07" width="148.68" height="148.68"/><rect class="cls-6" x="981.87" y="428.07" width="148.68" height="148.68"/><rect class="cls-6" x="62.24" y="616.54" width="148.68" height="148.68"/><rect class="cls-6" x="245.71" y="616.54" width="148.68" height="148.68"/><rect class="cls-6" x="429.18" y="616.54" width="148.68" height="148.68"/><rect class="cls-6" x="613.89" y="616.54" width="148.68" height="148.68"/><rect class="cls-6" x="981.87" y="616.54" width="148.68" height="148.68"/><rect class="cls-6" x="62.24" y="797.04" width="148.68" height="148.68"/><rect class="cls-6" x="246.09" y="797.04" width="148.68" height="148.68"/><rect class="cls-6" x="429.26" y="797.04" width="148.68" height="148.68"/><rect class="cls-6" x="613.3" y="797.04" width="148.68" height="148.68"/><rect class="cls-6" x="798" y="797.04" width="148.68" height="148.68"/><rect class="cls-6" x="981.87" y="794.36" width="148.68" height="148.68"/><rect class="cls-6" x="62.24" y="979.53" width="148.68" height="148.68"/><rect class="cls-6" x="246.09" y="979.53" width="148.68" height="148.68"/><rect class="cls-6" x="429.26" y="977.54" width="148.68" height="148.68"/><rect class="cls-6" x="613.89" y="977.54" width="148.68" height="148.68"/><rect class="cls-6" x="981.87" y="977.54" width="148.68" height="148.68"/></g><g id="Livello_2" data-name="Livello 2"><image width="1000" height="667" transform="translate(128.92 59.39)" xlink:href="886859_03.jpg"/></g></svg>