<?xml version="1.0" encoding="utf-8"?>
<!-- Generator: Adobe Illustrator 22.1.0, SVG Export Plug-In . SVG Version: 6.00 Build 0)  -->
<svg version="1.1" id="Livello_1" xmlns="http://www.w3.org/2000/svg" xmlns:xlink="http://www.w3.org/1999/xlink" x="0px" y="0px"
	 viewBox="0 0 1190.6 1190.6" style="enable-background:new 0 0 1190.6 1190.6;" xml:space="preserve">
<style type="text/css">
	.st0{fill:#A8D2F2;}
	.st1{fill:none;stroke:#FF8CFF;stroke-miterlimit:10;}
	.st2{fill:none;stroke:#3F7B7B;stroke-miterlimit:10;}
	.st3{fill:none;stroke:#FFA12A;stroke-miterlimit:10;}
</style>
<g id="sfondo">
	<rect x="0" y="0" class="st0" width="1190.6" height="1190.6"/>
</g>
<g id="_x34_x4">
	<g>
		<g>
			<rect x="337.3" y="61" class="st1" width="239.5" height="239.5"/>
			<rect x="613.7" y="61" class="st1" width="239.5" height="239.5"/>
			<rect x="890.1" y="61" class="st1" width="239.5" height="239.5"/>
			<rect x="61" y="61" class="st1" width="239.5" height="239.5"/>
		</g>
		<g>
			<rect x="337.3" y="337.3" class="st1" width="239.5" height="239.5"/>
			<rect x="613.7" y="337.3" class="st1" width="239.5" height="239.5"/>
			<rect x="890.1" y="337.3" class="st1" width="239.5" height="239.5"/>
			<rect x="61" y="337.3" class="st1" width="239.5" height="239.5"/>
		</g>
		<g>
			<rect x="337.3" y="890.1" class="st1" width="239.5" height="239.5"/>
			<rect x="613.7" y="890.1" class="st1" width="239.5" height="239.5"/>
			<rect x="890.1" y="890.1" class="st1" width="239.5" height="239.5"/>
			<rect x="61" y="890.1" class="st1" width="239.5" height="239.5"/>
		</g>
		<g>
			<rect x="337.3" y="613.7" class="st1" width="239.5" height="239.5"/>
			<rect x="613.7" y="613.7" class="st1" width="239.5" height="239.5"/>
			<rect x="890.1" y="613.7" class="st1" width="239.5" height="239.5"/>
			<rect x="61" y="613.7" class="st1" width="239.5" height="239.5"/>
		</g>
	</g>
</g>
<g id="_x35_x5">
	<g>
		<g>
			<rect x="945.4" y="61" class="st2" width="184.3" height="184.3"/>
			<rect x="724.3" y="61" class="st2" width="184.3" height="184.3"/>
			<rect x="503.2" y="61" class="st2" width="184.3" height="184.3"/>
			<rect x="282.1" y="61" class="st2" width="184.3" height="184.3"/>
			<rect x="61" y="61" class="st2" width="184.3" height="184.3"/>
		</g>
		<g>
			<g>
				<rect x="945.4" y="282.1" class="st2" width="184.3" height="184.3"/>
				<rect x="724.3" y="282.1" class="st2" width="184.3" height="184.3"/>
				<rect x="503.2" y="282.1" class="st2" width="184.3" height="184.3"/>
				<rect x="282.1" y="282.1" class="st2" width="184.3" height="184.3"/>
				<rect x="61" y="282.1" class="st2" width="184.3" height="184.3"/>
			</g>
		</g>
		<g>
			<g>
				<rect x="945.4" y="503.2" class="st2" width="184.3" height="184.3"/>
				<rect x="724.3" y="503.2" class="st2" width="184.3" height="184.3"/>
				<rect x="503.2" y="503.2" class="st2" width="184.3" height="184.3"/>
				<rect x="282.1" y="503.2" class="st2" width="184.3" height="184.3"/>
				<rect x="61" y="503.2" class="st2" width="184.3" height="184.3"/>
			</g>
		</g>
		<g>
			<g>
				<rect x="945.4" y="724.3" class="st2" width="184.3" height="184.3"/>
				<rect x="724.3" y="724.3" class="st2" width="184.3" height="184.3"/>
				<rect x="503.2" y="724.3" class="st2" width="184.3" height="184.3"/>
				<rect x="282.1" y="724.3" class="st2" width="184.3" height="184.3"/>
				<rect x="61" y="724.3" class="st2" width="184.3" height="184.3"/>
			</g>
		</g>
		<g>
			<g>
				<rect x="945.4" y="945.4" class="st2" width="184.3" height="184.3"/>
				<rect x="724.3" y="945.4" class="st2" width="184.3" height="184.3"/>
				<rect x="503.2" y="945.4" class="st2" width="184.3" height="184.3"/>
				<rect x="282.1" y="945.4" class="st2" width="184.3" height="184.3"/>
				<rect x="61" y="945.4" class="st2" width="184.3" height="184.3"/>
			</g>
		</g>
	</g>
</g>
<g id="_x36_x6">
	<g>
		<g>
			<rect x="61" y="61" class="st3" width="147.4" height="147.4"/>
			<rect x="798" y="61" class="st3" width="147.4" height="147.4"/>
			<rect x="613.7" y="61" class="st3" width="147.4" height="147.4"/>
			<rect x="429.5" y="61" class="st3" width="147.4" height="147.4"/>
			<rect x="245.2" y="61" class="st3" width="147.4" height="147.4"/>
			<rect x="982.2" y="61" class="st3" width="147.4" height="147.4"/>
		</g>
		<g>
			<rect x="61" y="245.2" class="st3" width="147.4" height="147.4"/>
			<rect x="798" y="245.2" class="st3" width="147.4" height="147.4"/>
			<rect x="613.7" y="245.2" class="st3" width="147.4" height="147.4"/>
			<rect x="429.5" y="245.2" class="st3" width="147.4" height="147.4"/>
			<rect x="245.2" y="245.2" class="st3" width="147.4" height="147.4"/>
			<rect x="982.2" y="245.2" class="st3" width="147.4" height="147.4"/>
		</g>
		<g>
			<rect x="61" y="429.5" class="st3" width="147.4" height="147.4"/>
			<rect x="798" y="429.5" class="st3" width="147.4" height="147.4"/>
			<rect x="613.7" y="429.5" class="st3" width="147.4" height="147.4"/>
			<rect x="429.5" y="429.5" class="st3" width="147.4" height="147.4"/>
			<rect x="245.2" y="429.5" class="st3" width="147.4" height="147.4"/>
			<rect x="982.2" y="429.5" class="st3" width="147.4" height="147.4"/>
		</g>
		<g>
			<rect x="61" y="613.7" class="st3" width="147.4" height="147.4"/>
			<rect x="798" y="613.7" class="st3" width="147.4" height="147.4"/>
			<rect x="613.7" y="613.7" class="st3" width="147.4" height="147.4"/>
			<rect x="429.5" y="613.7" class="st3" width="147.4" height="147.4"/>
			<rect x="245.2" y="613.7" class="st3" width="147.4" height="147.4"/>
			<rect x="982.2" y="613.7" class="st3" width="147.4" height="147.4"/>
		</g>
		<g>
			<rect x="61" y="798" class="st3" width="147.4" height="147.4"/>
			<rect x="798" y="798" class="st3" width="147.4" height="147.4"/>
			<rect x="613.7" y="798" class="st3" width="147.4" height="147.4"/>
			<rect x="429.5" y="798" class="st3" width="147.4" height="147.4"/>
			<rect x="245.2" y="798" class="st3" width="147.4" height="147.4"/>
			<rect x="982.2" y="798" class="st3" width="147.4" height="147.4"/>
		</g>
		<g>
			<rect x="61" y="982.2" class="st3" width="147.4" height="147.4"/>
			<rect x="798" y="982.2" class="st3" width="147.4" height="147.4"/>
			<rect x="613.7" y="982.2" class="st3" width="147.4" height="147.4"/>
			<rect x="429.5" y="982.2" class="st3" width="147.4" height="147.4"/>
			<rect x="245.2" y="982.2" class="st3" width="147.4" height="147.4"/>
			<rect x="982.2" y="982.2" class="st3" width="147.4" height="147.4"/>
		</g>
	</g>
</g>
</svg>
