<svg xmlns="http://www.w3.org/2000/svg" viewBox="0 0 1190.55 1190.55"><defs><style>.cls-1{fill:#b892c3;stroke:#b892c3;}.cls-1,.cls-3,.cls-4,.cls-5{stroke-miterlimit:10;}.cls-2,.cls-3,.cls-4,.cls-5{fill:none;}.cls-3{stroke:#be1e2d;}.cls-4{stroke:#ec008c;}.cls-5{stroke:#662d91;}</style></defs><title>Tavola disegno 1</title><g id="Livello_1" data-name="Livello 1"><rect class="cls-1" width="1190.55" height="1190.55"/><rect class="cls-2" x="120.77" y="87.77" width="88.51" height="88.51"/></g><g id="Griglia_4x4" data-name="Griglia 4x4"><rect class="cls-3" x="61.12" y="61.62" width="239.53" height="239.53"/><rect class="cls-3" x="61.12" y="61.62" width="239.53" height="239.53"/><rect class="cls-3" x="890.12" y="61.62" width="239.53" height="239.53"/><rect class="cls-3" x="612.59" y="61.62" width="239.53" height="239.53"/><rect class="cls-3" x="336.85" y="61.62" width="239.53" height="239.53"/><rect class="cls-3" x="61.01" y="338.1" width="239.53" height="239.53"/><rect class="cls-3" x="61.01" y="338.1" width="239.53" height="239.53"/><rect class="cls-3" x="890.01" y="338.1" width="239.53" height="239.53"/><rect class="cls-3" x="612.48" y="338.1" width="239.53" height="239.53"/><rect class="cls-3" x="336.75" y="338.1" width="239.53" height="239.53"/><rect class="cls-3" x="61.01" y="614.59" width="239.53" height="239.53"/><rect class="cls-3" x="61.01" y="614.59" width="239.53" height="239.53"/><rect class="cls-3" x="890.01" y="614.59" width="239.53" height="239.53"/><rect class="cls-3" x="612.48" y="614.59" width="239.53" height="239.53"/><rect class="cls-3" x="336.75" y="614.59" width="239.53" height="239.53"/><rect class="cls-3" x="61.01" y="891.08" width="239.53" height="239.53"/><rect class="cls-3" x="61.01" y="891.08" width="239.53" height="239.53"/><rect class="cls-3" x="890.01" y="891.08" width="239.53" height="239.53"/><rect class="cls-3" x="612.48" y="891.08" width="239.53" height="239.53"/><rect class="cls-3" x="336.75" y="891.08" width="239.53" height="239.53"/></g><g id="Griglia_5x5" data-name="Griglia 5x5"><rect class="cls-4" x="61.12" y="61.62" width="184.24" height="184.24"/><rect class="cls-4" x="283.62" y="61.62" width="184.24" height="184.24"/><rect class="cls-4" x="503.16" y="61.62" width="184.24" height="184.24"/><rect class="cls-4" x="723.85" y="61.62" width="184.24" height="184.24"/><rect class="cls-4" x="945.3" y="61.62" width="184.24" height="184.24"/><rect class="cls-4" x="61.06" y="283.11" width="184.24" height="184.24"/><rect class="cls-4" x="283.57" y="283.11" width="184.24" height="184.24"/><rect class="cls-4" x="503.1" y="283.11" width="184.24" height="184.24"/><rect class="cls-4" x="723.8" y="283.11" width="184.24" height="184.24"/><rect class="cls-4" x="945.25" y="283.11" width="184.24" height="184.24"/><rect class="cls-4" x="61.01" y="503.16" width="184.24" height="184.24"/><rect class="cls-4" x="283.52" y="503.16" width="184.24" height="184.24"/><rect class="cls-4" x="503.05" y="503.16" width="184.24" height="184.24"/><rect class="cls-4" x="723.75" y="503.16" width="184.24" height="184.24"/><rect class="cls-4" x="945.19" y="503.16" width="184.24" height="184.24"/><rect class="cls-4" x="61.06" y="723.2" width="184.24" height="184.24"/><rect class="cls-4" x="283.57" y="723.2" width="184.24" height="184.24"/><rect class="cls-4" x="503.1" y="723.2" width="184.24" height="184.24"/><rect class="cls-4" x="723.8" y="723.2" width="184.24" height="184.24"/><rect class="cls-4" x="945.25" y="723.2" width="184.24" height="184.24"/><rect class="cls-4" x="61.06" y="723.2" width="184.24" height="184.24"/><rect class="cls-4" x="283.57" y="723.2" width="184.24" height="184.24"/><rect class="cls-4" x="503.1" y="723.2" width="184.24" height="184.24"/><rect class="cls-4" x="723.8" y="723.2" width="184.24" height="184.24"/><rect class="cls-4" x="945.25" y="723.2" width="184.24" height="184.24"/><rect class="cls-4" x="61.06" y="943.25" width="184.24" height="184.24"/><rect class="cls-4" x="283.57" y="943.25" width="184.24" height="184.24"/><rect class="cls-4" x="503.1" y="943.25" width="184.24" height="184.24"/><rect class="cls-4" x="723.8" y="943.25" width="184.24" height="184.24"/><rect class="cls-4" x="945.25" y="943.25" width="184.24" height="184.24"/></g><g id="Griglia_6x6" data-name="Griglia 6x6"><rect class="cls-4" x="61.78" y="62.51" width="144.74" height="144.74"/><rect class="cls-5" x="60.45" y="61.18" width="147.4" height="147.4"/><rect class="cls-5" x="246.02" y="61.18" width="147.4" height="147.4"/><rect class="cls-5" x="430.12" y="61.18" width="147.4" height="147.4"/><rect class="cls-5" x="982.7" y="61.18" width="147.4" height="147.4"/><rect class="cls-5" x="798.46" y="61.18" width="147.4" height="147.4"/><rect class="cls-5" x="614.25" y="61.18" width="147.4" height="147.4"/><rect class="cls-4" x="61.68" y="246.46" width="144.74" height="144.74"/><rect class="cls-5" x="60.35" y="245.13" width="147.4" height="147.4"/><rect class="cls-5" x="245.92" y="245.13" width="147.4" height="147.4"/><rect class="cls-5" x="430.01" y="245.13" width="147.4" height="147.4"/><rect class="cls-5" x="982.59" y="245.13" width="147.4" height="147.4"/><rect class="cls-5" x="798.35" y="245.13" width="147.4" height="147.4"/><rect class="cls-5" x="614.15" y="245.13" width="147.4" height="147.4"/><rect class="cls-4" x="61.78" y="430.4" width="144.74" height="144.74"/><rect class="cls-5" x="60.45" y="429.07" width="147.4" height="147.4"/><rect class="cls-5" x="246.02" y="429.07" width="147.4" height="147.4"/><rect class="cls-5" x="430.12" y="429.07" width="147.4" height="147.4"/><rect class="cls-5" x="982.7" y="429.07" width="147.4" height="147.4"/><rect class="cls-5" x="798.46" y="429.07" width="147.4" height="147.4"/><rect class="cls-5" x="614.25" y="429.07" width="147.4" height="147.4"/><rect class="cls-4" x="61.68" y="614.35" width="144.74" height="144.74"/><rect class="cls-5" x="60.35" y="613.02" width="147.4" height="147.4"/><rect class="cls-5" x="245.92" y="613.02" width="147.4" height="147.4"/><rect class="cls-5" x="430.01" y="613.02" width="147.4" height="147.4"/><rect class="cls-5" x="982.59" y="613.02" width="147.4" height="147.4"/><rect class="cls-5" x="798.35" y="613.02" width="147.4" height="147.4"/><rect class="cls-5" x="614.15" y="613.02" width="147.4" height="147.4"/><rect class="cls-4" x="61.68" y="798.29" width="144.74" height="144.74"/><rect class="cls-5" x="60.35" y="796.96" width="147.4" height="147.4"/><rect class="cls-5" x="245.92" y="796.96" width="147.4" height="147.4"/><rect class="cls-5" x="430.01" y="796.96" width="147.4" height="147.4"/><rect class="cls-5" x="982.59" y="796.96" width="147.4" height="147.4"/><rect class="cls-5" x="798.35" y="796.96" width="147.4" height="147.4"/><rect class="cls-5" x="614.15" y="796.96" width="147.4" height="147.4"/><rect class="cls-4" x="61.78" y="982.24" width="144.74" height="144.74"/><rect class="cls-5" x="60.45" y="980.91" width="147.4" height="147.4"/><rect class="cls-5" x="246.02" y="980.91" width="147.4" height="147.4"/><rect class="cls-5" x="430.12" y="980.91" width="147.4" height="147.4"/><rect class="cls-5" x="982.7" y="980.91" width="147.4" height="147.4"/><rect class="cls-5" x="798.46" y="980.91" width="147.4" height="147.4"/><rect class="cls-5" x="614.25" y="980.91" width="147.4" height="147.4"/></g></svg>