<svg id="Livello_1" data-name="Livello 1" xmlns="http://www.w3.org/2000/svg" viewBox="0 0 1190.6 1190.6"><defs><style>.cls-1{fill:#809dff;}.cls-2,.cls-3,.cls-4{fill:none;stroke-miterlimit:10;stroke-width:2px;}.cls-2{stroke:#ef6c8b;}.cls-3{stroke:#1205c1;}.cls-4{stroke:#2cff36;}</style></defs><title>888243_01</title><g id="Livello_1-2" data-name="Livello 1"><rect id="_Tracciato_" data-name="&lt;Tracciato&gt;" class="cls-1" width="1190.6" height="1190.6"/></g><g id="Livello_2" data-name="Livello 2"><rect id="_Tracciato_2" data-name="&lt;Tracciato&gt;" class="cls-2" x="60.4" y="61.9" width="239.5" height="239.5"/><rect id="_Tracciato_3" data-name="&lt;Tracciato&gt;" class="cls-2" x="60.4" y="889.1" width="239.5" height="239.5"/><rect id="_Tracciato_4" data-name="&lt;Tracciato&gt;" class="cls-2" x="60.4" y="613.4" width="239.5" height="239.5"/><rect id="_Tracciato_5" data-name="&lt;Tracciato&gt;" class="cls-2" x="60.4" y="337.6" width="239.5" height="239.5"/><rect id="_Tracciato_6" data-name="&lt;Tracciato&gt;" class="cls-2" x="889.3" y="61.9" width="239.5" height="239.5"/><rect id="_Tracciato_7" data-name="&lt;Tracciato&gt;" class="cls-2" x="889.3" y="889.1" width="239.5" height="239.5"/><rect id="_Tracciato_8" data-name="&lt;Tracciato&gt;" class="cls-2" x="889.3" y="613.4" width="239.5" height="239.5"/><rect id="_Tracciato_9" data-name="&lt;Tracciato&gt;" class="cls-2" x="889.3" y="337.6" width="239.5" height="239.5"/><rect id="_Tracciato_10" data-name="&lt;Tracciato&gt;" class="cls-2" x="336.7" y="61.9" width="239.5" height="239.5"/><rect id="_Tracciato_11" data-name="&lt;Tracciato&gt;" class="cls-2" x="336.7" y="889.1" width="239.5" height="239.5"/><rect id="_Tracciato_12" data-name="&lt;Tracciato&gt;" class="cls-2" x="336.7" y="613.4" width="239.5" height="239.5"/><rect id="_Tracciato_13" data-name="&lt;Tracciato&gt;" class="cls-2" x="336.7" y="337.6" width="239.5" height="239.5"/><rect id="_Tracciato_14" data-name="&lt;Tracciato&gt;" class="cls-2" x="613" y="61.9" width="239.5" height="239.5"/><rect id="_Tracciato_15" data-name="&lt;Tracciato&gt;" class="cls-2" x="613" y="889.1" width="239.5" height="239.5"/><rect id="_Tracciato_16" data-name="&lt;Tracciato&gt;" class="cls-2" x="613" y="613.4" width="239.5" height="239.5"/><rect id="_Tracciato_17" data-name="&lt;Tracciato&gt;" class="cls-2" x="613" y="337.6" width="239.5" height="239.5"/></g><g id="Livello_3" data-name="Livello 3"><rect id="_Tracciato_18" data-name="&lt;Tracciato&gt;" class="cls-3" x="60.4" y="61.9" width="184.3" height="184.3"/><rect id="_Tracciato_19" data-name="&lt;Tracciato&gt;" class="cls-3" x="944.6" y="61.9" width="184.3" height="184.3"/><rect id="_Tracciato_20" data-name="&lt;Tracciato&gt;" class="cls-3" x="723.6" y="61.9" width="184.3" height="184.3"/><rect id="_Tracciato_21" data-name="&lt;Tracciato&gt;" class="cls-3" x="502.5" y="61.9" width="184.3" height="184.3"/><rect id="_Tracciato_22" data-name="&lt;Tracciato&gt;" class="cls-3" x="281.5" y="61.9" width="184.3" height="184.3"/><rect id="_Tracciato_23" data-name="&lt;Tracciato&gt;" class="cls-3" x="60.4" y="503.1" width="184.3" height="184.3"/><rect id="_Tracciato_24" data-name="&lt;Tracciato&gt;" class="cls-3" x="944.6" y="503.1" width="184.3" height="184.3"/><rect id="_Tracciato_25" data-name="&lt;Tracciato&gt;" class="cls-3" x="723.6" y="503.1" width="184.3" height="184.3"/><rect id="_Tracciato_26" data-name="&lt;Tracciato&gt;" class="cls-3" x="502.5" y="503.1" width="184.3" height="184.3"/><rect id="_Tracciato_27" data-name="&lt;Tracciato&gt;" class="cls-3" x="281.5" y="503.1" width="184.3" height="184.3"/><rect id="_Tracciato_28" data-name="&lt;Tracciato&gt;" class="cls-3" x="60.4" y="724.6" width="184.3" height="184.3"/><rect id="_Tracciato_29" data-name="&lt;Tracciato&gt;" class="cls-3" x="944.6" y="724.6" width="184.3" height="184.3"/><rect id="_Tracciato_30" data-name="&lt;Tracciato&gt;" class="cls-3" x="723.6" y="724.6" width="184.3" height="184.3"/><rect id="_Tracciato_31" data-name="&lt;Tracciato&gt;" class="cls-3" x="502.5" y="724.6" width="184.3" height="184.3"/><rect id="_Tracciato_32" data-name="&lt;Tracciato&gt;" class="cls-3" x="281.5" y="724.6" width="184.3" height="184.3"/><rect id="_Tracciato_33" data-name="&lt;Tracciato&gt;" class="cls-3" x="60.4" y="944.4" width="184.3" height="184.3"/><rect id="_Tracciato_34" data-name="&lt;Tracciato&gt;" class="cls-3" x="944.6" y="944.4" width="184.3" height="184.3"/><rect id="_Tracciato_35" data-name="&lt;Tracciato&gt;" class="cls-3" x="723.6" y="944.4" width="184.3" height="184.3"/><rect id="_Tracciato_36" data-name="&lt;Tracciato&gt;" class="cls-3" x="502.5" y="944.4" width="184.3" height="184.3"/><rect id="_Tracciato_37" data-name="&lt;Tracciato&gt;" class="cls-3" x="281.5" y="944.4" width="184.3" height="184.3"/><rect id="_Tracciato_38" data-name="&lt;Tracciato&gt;" class="cls-3" x="60.4" y="283.3" width="184.3" height="184.3"/><rect id="_Tracciato_39" data-name="&lt;Tracciato&gt;" class="cls-3" x="944.6" y="283.3" width="184.3" height="184.3"/><rect id="_Tracciato_40" data-name="&lt;Tracciato&gt;" class="cls-3" x="723.6" y="283.3" width="184.3" height="184.3"/><rect id="_Tracciato_41" data-name="&lt;Tracciato&gt;" class="cls-3" x="502.5" y="283.3" width="184.3" height="184.3"/><rect id="_Tracciato_42" data-name="&lt;Tracciato&gt;" class="cls-3" x="281.5" y="283.3" width="184.3" height="184.3"/></g><g id="Livello_4" data-name="Livello 4"><g id="_Gruppo_" data-name="&lt;Gruppo&gt;"><rect id="_Tracciato_43" data-name="&lt;Tracciato&gt;" class="cls-4" x="60.4" y="61.9" width="147.4" height="147.4"/><rect id="_Tracciato_44" data-name="&lt;Tracciato&gt;" class="cls-4" x="797.3" y="61.9" width="147.4" height="147.4"/><rect id="_Tracciato_45" data-name="&lt;Tracciato&gt;" class="cls-4" x="613.1" y="61.9" width="147.4" height="147.4"/><rect id="_Tracciato_46" data-name="&lt;Tracciato&gt;" class="cls-4" x="428.9" y="61.9" width="147.4" height="147.4"/><rect id="_Tracciato_47" data-name="&lt;Tracciato&gt;" class="cls-4" x="244.7" y="61.9" width="147.4" height="147.4"/><rect id="_Tracciato_48" data-name="&lt;Tracciato&gt;" class="cls-4" x="981.5" y="61.9" width="147.4" height="147.4"/></g><g id="_Gruppo_2" data-name="&lt;Gruppo&gt;"><rect id="_Tracciato_49" data-name="&lt;Tracciato&gt;" class="cls-4" x="60.4" y="246" width="147.4" height="147.4"/><rect id="_Tracciato_50" data-name="&lt;Tracciato&gt;" class="cls-4" x="797.3" y="246" width="147.4" height="147.4"/><rect id="_Tracciato_51" data-name="&lt;Tracciato&gt;" class="cls-4" x="613.1" y="246" width="147.4" height="147.4"/><rect id="_Tracciato_52" data-name="&lt;Tracciato&gt;" class="cls-4" x="428.9" y="246" width="147.4" height="147.4"/><rect id="_Tracciato_53" data-name="&lt;Tracciato&gt;" class="cls-4" x="244.7" y="246" width="147.4" height="147.4"/><rect id="_Tracciato_54" data-name="&lt;Tracciato&gt;" class="cls-4" x="981.5" y="246" width="147.4" height="147.4"/></g><g id="_Gruppo_3" data-name="&lt;Gruppo&gt;"><rect id="_Tracciato_55" data-name="&lt;Tracciato&gt;" class="cls-4" x="60.4" y="430.2" width="147.4" height="147.4"/><rect id="_Tracciato_56" data-name="&lt;Tracciato&gt;" class="cls-4" x="797.3" y="430.2" width="147.4" height="147.4"/><rect id="_Tracciato_57" data-name="&lt;Tracciato&gt;" class="cls-4" x="613.1" y="430.2" width="147.4" height="147.4"/><rect id="_Tracciato_58" data-name="&lt;Tracciato&gt;" class="cls-4" x="428.9" y="430.2" width="147.4" height="147.4"/><rect id="_Tracciato_59" data-name="&lt;Tracciato&gt;" class="cls-4" x="244.7" y="430.2" width="147.4" height="147.4"/><rect id="_Tracciato_60" data-name="&lt;Tracciato&gt;" class="cls-4" x="981.5" y="430.2" width="147.4" height="147.4"/></g><g id="_Gruppo_4" data-name="&lt;Gruppo&gt;"><rect id="_Tracciato_61" data-name="&lt;Tracciato&gt;" class="cls-4" x="60.4" y="614.3" width="147.4" height="147.4"/><rect id="_Tracciato_62" data-name="&lt;Tracciato&gt;" class="cls-4" x="797.3" y="614.3" width="147.4" height="147.4"/><rect id="_Tracciato_63" data-name="&lt;Tracciato&gt;" class="cls-4" x="613.1" y="614.3" width="147.4" height="147.4"/><rect id="_Tracciato_64" data-name="&lt;Tracciato&gt;" class="cls-4" x="428.9" y="614.3" width="147.4" height="147.4"/><rect id="_Tracciato_65" data-name="&lt;Tracciato&gt;" class="cls-4" x="244.7" y="614.3" width="147.4" height="147.4"/><rect id="_Tracciato_66" data-name="&lt;Tracciato&gt;" class="cls-4" x="981.5" y="614.3" width="147.4" height="147.4"/></g><g id="_Gruppo_5" data-name="&lt;Gruppo&gt;"><rect id="_Tracciato_67" data-name="&lt;Tracciato&gt;" class="cls-4" x="60.4" y="798.4" width="147.4" height="147.4"/><rect id="_Tracciato_68" data-name="&lt;Tracciato&gt;" class="cls-4" x="797.3" y="798.4" width="147.4" height="147.4"/><rect id="_Tracciato_69" data-name="&lt;Tracciato&gt;" class="cls-4" x="613.1" y="798.4" width="147.4" height="147.4"/><rect id="_Tracciato_70" data-name="&lt;Tracciato&gt;" class="cls-4" x="428.9" y="798.4" width="147.4" height="147.4"/><rect id="_Tracciato_71" data-name="&lt;Tracciato&gt;" class="cls-4" x="244.7" y="798.4" width="147.4" height="147.4"/><rect id="_Tracciato_72" data-name="&lt;Tracciato&gt;" class="cls-4" x="981.5" y="798.4" width="147.4" height="147.4"/></g><g id="_Gruppo_6" data-name="&lt;Gruppo&gt;"><rect id="_Tracciato_73" data-name="&lt;Tracciato&gt;" class="cls-4" x="60.4" y="982.5" width="147.4" height="147.4"/><rect id="_Tracciato_74" data-name="&lt;Tracciato&gt;" class="cls-4" x="797.3" y="982.5" width="147.4" height="147.4"/><rect id="_Tracciato_75" data-name="&lt;Tracciato&gt;" class="cls-4" x="613.1" y="982.5" width="147.4" height="147.4"/><rect id="_Tracciato_76" data-name="&lt;Tracciato&gt;" class="cls-4" x="428.9" y="982.5" width="147.4" height="147.4"/><rect id="_Tracciato_77" data-name="&lt;Tracciato&gt;" class="cls-4" x="244.7" y="982.5" width="147.4" height="147.4"/><rect id="_Tracciato_78" data-name="&lt;Tracciato&gt;" class="cls-4" x="981.5" y="982.5" width="147.4" height="147.4"/></g></g></svg>