<svg xmlns="http://www.w3.org/2000/svg" viewBox="0 0 1190.55 1190.55"><defs><style>.cls-1{fill:#be1622;}.cls-1,.cls-2{stroke:#1d1d1b;}.cls-1,.cls-2,.cls-3,.cls-4{stroke-miterlimit:10;}.cls-2,.cls-3,.cls-4{fill:none;stroke-width:4px;}.cls-3{stroke:#2d2e83;}.cls-4{stroke:#008d36;}</style></defs><title>Tavola disegno 1</title><g id="Livello_1" data-name="Livello 1"><rect class="cls-1" x="1.79" y="1.79" width="1190.55" height="1190.55"/><rect class="cls-2" width="1190.55" height="1190.55"/><rect class="cls-2" x="63.02" y="63.02" width="239.39" height="239.39"/><rect class="cls-2" x="339.26" y="63.02" width="239.39" height="239.39"/><rect class="cls-2" x="615.49" y="63.02" width="239.39" height="239.39"/><rect class="cls-2" x="891.73" y="63.02" width="239.39" height="239.39"/><rect class="cls-2" x="63.02" y="339.26" width="239.39" height="239.39"/><rect class="cls-2" x="339.26" y="339.26" width="239.39" height="239.39"/><rect class="cls-2" x="615.49" y="339.26" width="239.39" height="239.39"/><rect class="cls-2" x="891.73" y="339.26" width="239.39" height="239.39"/><rect class="cls-2" x="63.02" y="615.49" width="239.39" height="239.39"/><rect class="cls-2" x="339.26" y="615.49" width="239.39" height="239.39"/><rect class="cls-2" x="615.49" y="615.49" width="239.39" height="239.39"/><rect class="cls-2" x="891.73" y="615.49" width="239.39" height="239.39"/><rect class="cls-2" x="63.02" y="891.73" width="239.39" height="239.39"/><rect class="cls-2" x="339.26" y="891.73" width="239.39" height="239.39"/><rect class="cls-2" x="615.49" y="891.73" width="239.39" height="239.39"/><rect class="cls-2" x="891.73" y="891.73" width="239.39" height="239.39"/></g><g id="Livello_2" data-name="Livello 2"><rect class="cls-3" x="63.02" y="63.02" width="184.14" height="184.14"/><rect class="cls-3" x="284.01" y="63.02" width="184.14" height="184.14"/><rect class="cls-3" x="505" y="63.02" width="184.14" height="184.14"/><rect class="cls-3" x="725.99" y="63.02" width="184.14" height="184.14"/><rect class="cls-3" x="946.98" y="63.02" width="184.14" height="184.14"/><rect class="cls-3" x="63.02" y="284.01" width="184.14" height="184.14"/><rect class="cls-3" x="284.01" y="284.01" width="184.14" height="184.14"/><rect class="cls-3" x="505" y="284.01" width="184.14" height="184.14"/><rect class="cls-3" x="725.99" y="284.01" width="184.14" height="184.14"/><rect class="cls-3" x="946.98" y="284.01" width="184.14" height="184.14"/><rect class="cls-3" x="63.02" y="505" width="184.14" height="184.14"/><rect class="cls-3" x="284.01" y="505" width="184.14" height="184.14"/><rect class="cls-3" x="505" y="505" width="184.14" height="184.14"/><rect class="cls-3" x="725.99" y="505" width="184.14" height="184.14"/><rect class="cls-3" x="946.98" y="505" width="184.14" height="184.14"/><rect class="cls-3" x="63.02" y="725.99" width="184.14" height="184.14"/><rect class="cls-3" x="284.01" y="725.99" width="184.14" height="184.14"/><rect class="cls-3" x="505" y="725.99" width="184.14" height="184.14"/><rect class="cls-3" x="725.99" y="725.99" width="184.14" height="184.14"/><rect class="cls-3" x="946.98" y="725.99" width="184.14" height="184.14"/><rect class="cls-3" x="63.02" y="946.98" width="184.14" height="184.14"/><rect class="cls-3" x="284.01" y="946.98" width="184.14" height="184.14"/><rect class="cls-3" x="505" y="946.98" width="184.14" height="184.14"/><rect class="cls-3" x="725.99" y="946.98" width="184.14" height="184.14"/><rect class="cls-3" x="946.98" y="946.98" width="184.14" height="184.14"/></g><g id="Livello_3" data-name="Livello 3"><rect class="cls-4" x="63.02" y="63.02" width="147.31" height="147.31"/><rect class="cls-4" x="247.18" y="63.02" width="147.31" height="147.31"/><rect class="cls-4" x="431.33" y="63.02" width="147.31" height="147.31"/><rect class="cls-4" x="615.49" y="63.02" width="147.31" height="147.31"/><rect class="cls-4" x="799.65" y="63.02" width="147.31" height="147.31"/><rect class="cls-4" x="983.81" y="63.02" width="147.31" height="147.31"/><rect class="cls-4" x="63.02" y="247.18" width="147.31" height="147.31"/><rect class="cls-4" x="247.18" y="247.18" width="147.31" height="147.31"/><rect class="cls-4" x="431.33" y="247.18" width="147.31" height="147.31"/><rect class="cls-4" x="615.49" y="247.18" width="147.31" height="147.31"/><rect class="cls-4" x="799.65" y="247.18" width="147.31" height="147.31"/><rect class="cls-4" x="983.81" y="247.18" width="147.31" height="147.31"/><rect class="cls-4" x="63.02" y="431.33" width="147.31" height="147.31"/><rect class="cls-4" x="247.18" y="431.33" width="147.31" height="147.31"/><rect class="cls-4" x="431.33" y="431.33" width="147.31" height="147.31"/><rect class="cls-4" x="615.49" y="431.33" width="147.31" height="147.31"/><rect class="cls-4" x="799.65" y="431.33" width="147.31" height="147.31"/><rect class="cls-4" x="983.81" y="431.33" width="147.31" height="147.31"/><rect class="cls-4" x="63.02" y="615.49" width="147.31" height="147.31"/><rect class="cls-4" x="247.18" y="615.49" width="147.31" height="147.31"/><rect class="cls-4" x="431.33" y="615.49" width="147.31" height="147.31"/><rect class="cls-4" x="615.49" y="615.49" width="147.31" height="147.31"/><rect class="cls-4" x="799.65" y="615.49" width="147.31" height="147.31"/><rect class="cls-4" x="983.81" y="615.49" width="147.31" height="147.31"/><rect class="cls-4" x="63.02" y="799.65" width="147.31" height="147.31"/><rect class="cls-4" x="247.18" y="799.65" width="147.31" height="147.31"/><rect class="cls-4" x="431.33" y="799.65" width="147.31" height="147.31"/><rect class="cls-4" x="615.49" y="799.65" width="147.31" height="147.31"/><rect class="cls-4" x="799.65" y="799.65" width="147.31" height="147.31"/><rect class="cls-4" x="983.81" y="799.65" width="147.31" height="147.31"/><rect class="cls-4" x="63.02" y="983.81" width="147.31" height="147.31"/><rect class="cls-4" x="247.18" y="983.81" width="147.31" height="147.31"/><rect class="cls-4" x="431.33" y="983.81" width="147.31" height="147.31"/><rect class="cls-4" x="615.49" y="983.81" width="147.31" height="147.31"/><rect class="cls-4" x="799.65" y="983.81" width="147.31" height="147.31"/><rect class="cls-4" x="983.81" y="983.81" width="147.31" height="147.31"/></g></svg>