<svg id="Layer_1" data-name="Layer 1" xmlns="http://www.w3.org/2000/svg" xmlns:xlink="http://www.w3.org/1999/xlink" viewBox="0 0 1190.55 1190.55"><defs><style>.cls-1,.cls-3,.cls-4,.cls-6{fill:none;}.cls-2{fill:#f9b233;stroke:#1d1d1b;stroke-miterlimit:10;}.cls-3{stroke:#008d36;}.cls-4{stroke:#2d2e83;}.cls-5{clip-path:url(#clip-path);}.cls-6{stroke:#e30613;}</style><clipPath id="clip-path"><rect class="cls-1" x="60.93" y="60.93" width="147.4" height="147.4"/></clipPath></defs><title>889969_04</title><rect class="cls-2" width="1190.55" height="1190.55"/><g id="griglia3"><rect class="cls-3" x="60.93" y="60.93" width="239.5" height="239.5"/><rect class="cls-3" x="337.32" y="60.93" width="239.5" height="239.5"/><rect class="cls-3" x="613.73" y="60.93" width="239.5" height="239.5"/><rect class="cls-3" x="890.12" y="60.93" width="239.5" height="239.5"/><rect class="cls-3" x="60.93" y="337.32" width="239.5" height="239.5"/><rect class="cls-3" x="337.32" y="337.32" width="239.5" height="239.5"/><rect class="cls-3" x="613.73" y="337.32" width="239.5" height="239.5"/><rect class="cls-3" x="890.12" y="337.32" width="239.5" height="239.5"/><rect class="cls-3" x="60.93" y="613.73" width="239.5" height="239.5"/><rect class="cls-3" x="337.32" y="613.73" width="239.5" height="239.5"/><rect class="cls-3" x="613.73" y="613.73" width="239.5" height="239.5"/><rect class="cls-3" x="890.12" y="613.73" width="239.5" height="239.5"/><rect class="cls-3" x="60.93" y="890.12" width="239.5" height="239.5"/><rect class="cls-3" x="337.32" y="890.12" width="239.5" height="239.5"/><rect class="cls-3" x="613.73" y="890.12" width="239.5" height="239.5"/><rect class="cls-3" x="890.12" y="890.12" width="239.5" height="239.5"/></g><g id="griglia2"><rect class="cls-4" x="60.87" y="60.87" width="184.3" height="184.3"/><rect class="cls-4" x="281.97" y="60.87" width="184.3" height="184.3"/><rect class="cls-4" x="503.07" y="60.87" width="184.3" height="184.3"/><rect class="cls-4" x="724.27" y="60.87" width="184.3" height="184.3"/><rect class="cls-4" x="945.37" y="60.87" width="184.3" height="184.3"/><rect class="cls-4" x="60.87" y="281.97" width="184.3" height="184.3"/><rect class="cls-4" x="281.97" y="281.97" width="184.3" height="184.3"/><rect class="cls-4" x="503.07" y="281.97" width="184.3" height="184.3"/><rect class="cls-4" x="724.27" y="281.97" width="184.3" height="184.3"/><rect class="cls-4" x="945.37" y="281.97" width="184.3" height="184.3"/><rect class="cls-4" x="60.87" y="503.07" width="184.3" height="184.3"/><rect class="cls-4" x="281.97" y="503.07" width="184.3" height="184.3"/><rect class="cls-4" x="503.07" y="503.07" width="184.3" height="184.3"/><rect class="cls-4" x="724.27" y="503.07" width="184.3" height="184.3"/><rect class="cls-4" x="945.37" y="503.07" width="184.3" height="184.3"/><rect class="cls-4" x="60.87" y="724.27" width="184.3" height="184.3"/><rect class="cls-4" x="281.97" y="724.27" width="184.3" height="184.3"/><rect class="cls-4" x="503.07" y="724.27" width="184.3" height="184.3"/><rect class="cls-4" x="724.27" y="724.27" width="184.3" height="184.3"/><rect class="cls-4" x="945.37" y="724.27" width="184.3" height="184.3"/><rect class="cls-4" x="60.87" y="945.37" width="184.3" height="184.3"/><rect class="cls-4" x="281.97" y="945.37" width="184.3" height="184.3"/><rect class="cls-4" x="503.07" y="945.37" width="184.3" height="184.3"/><rect class="cls-4" x="724.27" y="945.37" width="184.3" height="184.3"/><rect class="cls-4" x="945.37" y="945.37" width="184.3" height="184.3"/></g><g id="griglia1"><g class="cls-5"><image width="971" height="486" transform="translate(59.52 60.93) scale(0.46)" xlink:href="889969_03.png"/></g><rect class="cls-6" x="245.23" y="60.93" width="147.4" height="147.4"/><rect class="cls-6" x="429.43" y="60.93" width="147.4" height="147.4"/><rect class="cls-6" x="613.73" y="60.93" width="147.4" height="147.4"/><rect class="cls-6" x="798.03" y="60.93" width="147.4" height="147.4"/><rect class="cls-6" x="982.23" y="60.93" width="147.4" height="147.4"/><rect class="cls-6" x="60.93" y="245.23" width="147.4" height="147.4"/><rect class="cls-6" x="245.23" y="245.23" width="147.4" height="147.4"/><rect class="cls-6" x="429.43" y="245.23" width="147.4" height="147.4"/><rect class="cls-6" x="613.73" y="245.23" width="147.4" height="147.4"/><rect class="cls-6" x="798.03" y="245.23" width="147.4" height="147.4"/><rect class="cls-6" x="982.23" y="245.23" width="147.4" height="147.4"/><rect class="cls-6" x="60.93" y="429.43" width="147.4" height="147.4"/><rect class="cls-6" x="245.23" y="429.43" width="147.4" height="147.4"/><rect class="cls-6" x="429.43" y="429.43" width="147.4" height="147.4"/><rect class="cls-6" x="613.73" y="429.43" width="147.4" height="147.4"/><rect class="cls-6" x="798.03" y="429.43" width="147.4" height="147.4"/><rect class="cls-6" x="982.23" y="429.43" width="147.4" height="147.4"/><rect class="cls-6" x="60.93" y="613.73" width="147.4" height="147.4"/><rect class="cls-6" x="245.23" y="613.73" width="147.4" height="147.4"/><rect class="cls-6" x="429.43" y="613.73" width="147.4" height="147.4"/><rect class="cls-6" x="613.73" y="613.73" width="147.4" height="147.4"/><rect class="cls-6" x="798.03" y="613.73" width="147.4" height="147.4"/><rect class="cls-6" x="982.23" y="613.73" width="147.4" height="147.4"/><rect class="cls-6" x="60.93" y="798.03" width="147.4" height="147.4"/><rect class="cls-6" x="245.23" y="798.03" width="147.4" height="147.4"/><rect class="cls-6" x="429.43" y="798.03" width="147.4" height="147.4"/><rect class="cls-6" x="613.73" y="798.03" width="147.4" height="147.4"/><rect class="cls-6" x="798.03" y="798.03" width="147.4" height="147.4"/><rect class="cls-6" x="982.23" y="798.03" width="147.4" height="147.4"/><rect class="cls-6" x="60.93" y="982.23" width="147.4" height="147.4"/><rect class="cls-6" x="245.23" y="982.23" width="147.4" height="147.4"/><rect class="cls-6" x="429.43" y="982.23" width="147.4" height="147.4"/><rect class="cls-6" x="613.73" y="982.23" width="147.4" height="147.4"/><rect class="cls-6" x="798.03" y="982.23" width="147.4" height="147.4"/><rect class="cls-6" x="982.23" y="982.23" width="147.4" height="147.4"/></g></svg>