<?xml version="1.0" encoding="utf-8"?>
<!-- Generator: Adobe Illustrator 22.1.0, SVG Export Plug-In . SVG Version: 6.00 Build 0)  -->
<svg version="1.1" id="Livello_1" xmlns="http://www.w3.org/2000/svg" xmlns:xlink="http://www.w3.org/1999/xlink" x="0px" y="0px"
	 viewBox="0 0 1190.6 1190.6" style="enable-background:new 0 0 1190.6 1190.6;" xml:space="preserve">
<style type="text/css">
	.st0{fill:#9DBDFC;}
	.st1{opacity:0.5;}
	.st2{fill:none;stroke:#870A16;stroke-miterlimit:10;}
	.st3{fill:none;stroke:#006600;stroke-miterlimit:10;}
	.st4{fill:none;stroke:#022081;stroke-miterlimit:10;}
	.st5{clip-path:url(#SVGID_2_);enable-background:new    ;}
	.st6{clip-path:url(#SVGID_4_);}
	.st7{fill:none;}
	.st8{font-family:'OpenSansCondensed-Bold';}
	.st9{font-size:60px;}
	.st10{font-family:'OpenSansCondensed-Light';}
	.st11{font-size:16px;}
	.st12{font-family:'EBGaramond-Italic';}
	.st13{font-size:10px;}
	.st14{clip-path:url(#SVGID_6_);}
	.st15{font-size:12px;}
	.st16{letter-spacing:3;}
	.st17{letter-spacing:6;}
</style>
<g id="Livello_1_1_">
	<title>Tavola disegno 1</title>
	<rect y="0" class="st0" width="1190.6" height="1190.6"/>
</g>
<g id="Livello_4" class="st1">
	<g>
		<rect x="60.9" y="60.9" class="st2" width="147.4" height="147.4"/>
		<rect x="245.2" y="60.9" class="st2" width="147.4" height="147.4"/>
		<rect x="429.4" y="60.9" class="st2" width="147.4" height="147.4"/>
		<rect x="613.7" y="60.9" class="st2" width="147.4" height="147.4"/>
		<rect x="798" y="60.9" class="st2" width="147.4" height="147.4"/>
		<rect x="982.2" y="60.9" class="st2" width="147.4" height="147.4"/>
		<rect x="60.9" y="245.2" class="st2" width="147.4" height="147.4"/>
		<rect x="245.2" y="245.2" class="st2" width="147.4" height="147.4"/>
		<rect x="429.4" y="245.2" class="st2" width="147.4" height="147.4"/>
		<rect x="613.7" y="245.2" class="st2" width="147.4" height="147.4"/>
		<rect x="798" y="245.2" class="st2" width="147.4" height="147.4"/>
		<rect x="982.2" y="245.2" class="st2" width="147.4" height="147.4"/>
		<rect x="60.9" y="429.4" class="st2" width="147.4" height="147.4"/>
		<rect x="245.2" y="429.4" class="st2" width="147.4" height="147.4"/>
		<rect x="429.4" y="429.4" class="st2" width="147.4" height="147.4"/>
		<rect x="613.7" y="429.4" class="st2" width="147.4" height="147.4"/>
		<rect x="798" y="429.4" class="st2" width="147.4" height="147.4"/>
		<rect x="982.2" y="429.4" class="st2" width="147.4" height="147.4"/>
		<rect x="60.9" y="613.7" class="st2" width="147.4" height="147.4"/>
		<rect x="245.2" y="613.7" class="st2" width="147.4" height="147.4"/>
		<rect x="429.4" y="613.7" class="st2" width="147.4" height="147.4"/>
		<rect x="613.7" y="613.7" class="st2" width="147.4" height="147.4"/>
		<rect x="798" y="613.7" class="st2" width="147.4" height="147.4"/>
		<rect x="982.2" y="613.7" class="st2" width="147.4" height="147.4"/>
		<rect x="60.9" y="798" class="st2" width="147.4" height="147.4"/>
		<rect x="245.2" y="798" class="st2" width="147.4" height="147.4"/>
		<rect x="429.4" y="798" class="st2" width="147.4" height="147.4"/>
		<rect x="613.7" y="798" class="st2" width="147.4" height="147.4"/>
		<rect x="798" y="798" class="st2" width="147.4" height="147.4"/>
		<rect x="982.2" y="798" class="st2" width="147.4" height="147.4"/>
		<rect x="60.9" y="982.2" class="st2" width="147.4" height="147.4"/>
		<rect x="245.2" y="982.2" class="st2" width="147.4" height="147.4"/>
		<rect x="429.4" y="982.2" class="st2" width="147.4" height="147.4"/>
		<rect x="613.7" y="982.2" class="st2" width="147.4" height="147.4"/>
		<rect x="798" y="982.2" class="st2" width="147.4" height="147.4"/>
		<rect x="982.2" y="982.2" class="st2" width="147.4" height="147.4"/>
	</g>
</g>
<g id="Livello_3" class="st1">
	<g>
		<rect x="60.9" y="60.9" class="st3" width="184.3" height="184.3"/>
		<rect x="282" y="60.9" class="st3" width="184.3" height="184.3"/>
		<rect x="503.1" y="60.9" class="st3" width="184.3" height="184.3"/>
		<rect x="724.3" y="60.9" class="st3" width="184.3" height="184.3"/>
		<rect x="945.4" y="60.9" class="st3" width="184.3" height="184.3"/>
		<rect x="60.9" y="282" class="st3" width="184.3" height="184.3"/>
		<rect x="282" y="282" class="st3" width="184.3" height="184.3"/>
		<rect x="503.1" y="282" class="st3" width="184.3" height="184.3"/>
		<rect x="724.3" y="282" class="st3" width="184.3" height="184.3"/>
		<rect x="945.4" y="282" class="st3" width="184.3" height="184.3"/>
		<rect x="60.9" y="503.1" class="st3" width="184.3" height="184.3"/>
		<rect x="282" y="503.1" class="st3" width="184.3" height="184.3"/>
		<rect x="503.1" y="503.1" class="st3" width="184.3" height="184.3"/>
		<rect x="724.3" y="503.1" class="st3" width="184.3" height="184.3"/>
		<rect x="945.4" y="503.1" class="st3" width="184.3" height="184.3"/>
		<rect x="60.9" y="724.3" class="st3" width="184.3" height="184.3"/>
		<rect x="282" y="724.3" class="st3" width="184.3" height="184.3"/>
		<rect x="503.1" y="724.3" class="st3" width="184.3" height="184.3"/>
		<rect x="724.3" y="724.3" class="st3" width="184.3" height="184.3"/>
		<rect x="945.4" y="724.3" class="st3" width="184.3" height="184.3"/>
		<rect x="60.9" y="945.4" class="st3" width="184.3" height="184.3"/>
		<rect x="282" y="945.4" class="st3" width="184.3" height="184.3"/>
		<rect x="503.1" y="945.4" class="st3" width="184.3" height="184.3"/>
		<rect x="724.3" y="945.4" class="st3" width="184.3" height="184.3"/>
		<rect x="945.4" y="945.4" class="st3" width="184.3" height="184.3"/>
	</g>
</g>
<g id="Livello_2_1_" class="st1">
	<g>
		<rect x="60.9" y="60.9" class="st4" width="239.5" height="239.5"/>
		<rect x="337.3" y="60.9" class="st4" width="239.5" height="239.5"/>
		<rect x="613.7" y="60.9" class="st4" width="239.5" height="239.5"/>
		<rect x="890.1" y="60.9" class="st4" width="239.5" height="239.5"/>
		<rect x="60.9" y="337.3" class="st4" width="239.5" height="239.5"/>
		<rect x="337.3" y="337.3" class="st4" width="239.5" height="239.5"/>
		<rect x="613.7" y="337.3" class="st4" width="239.5" height="239.5"/>
		<rect x="890.1" y="337.3" class="st4" width="239.5" height="239.5"/>
		<rect x="60.9" y="613.7" class="st4" width="239.5" height="239.5"/>
		<rect x="337.3" y="613.7" class="st4" width="239.5" height="239.5"/>
		<rect x="613.7" y="613.7" class="st4" width="239.5" height="239.5"/>
		<rect x="890.1" y="613.7" class="st4" width="239.5" height="239.5"/>
		<rect x="60.9" y="890.1" class="st4" width="239.5" height="239.5"/>
		<rect x="337.3" y="890.1" class="st4" width="239.5" height="239.5"/>
		<rect x="613.7" y="890.1" class="st4" width="239.5" height="239.5"/>
		<rect x="890.1" y="890.1" class="st4" width="239.5" height="239.5"/>
	</g>
</g>
<g>
	<g>
		<g>
			<g>
				<g>
					<g>
						<defs>
							<rect id="SVGID_1_" x="945.5" y="61" width="184.2" height="184.2"/>
						</defs>
						<clipPath id="SVGID_2_">
							<use xlink:href="#SVGID_1_"  style="overflow:visible;"/>
						</clipPath>
						<g transform="matrix(1 0 0 1 3.814697e-06 0)" class="st5">
							
								<image style="overflow:visible;enable-background:new    ;" width="1207" height="960" xlink:href="890224_03.png"  transform="matrix(0.681 0 0 0.6643 520.2904 -364.2096)">
							</image>
						</g>
					</g>
				</g>
			</g>
		</g>
	</g>
</g>
<g>
	<g>
		<g>
			<g>
				<g>
					<defs>
						<circle id="SVGID_3_" cx="816.4" cy="153.1" r="92.1"/>
					</defs>
					<clipPath id="SVGID_4_">
						<use xlink:href="#SVGID_3_"  style="overflow:visible;"/>
					</clipPath>
					<g transform="matrix(1 0 0 1 -1.525879e-05 0)" class="st6">
						
							<image style="overflow:visible;enable-background:new    ;" width="1280" height="960" xlink:href="890224_05.png"  transform="matrix(0.4279 0 0 0.4279 606.3992 53.8773)">
						</image>
					</g>
				</g>
			</g>
		</g>
	</g>
</g>
<rect x="71.4" y="74.1" class="st7" width="677.9" height="162.8"/>
<text transform="matrix(1 0 0 1 153.05 155.5)" class="st8 st9"> Lorem Ipsum</text>
<polygon class="st7" points="463.4,-141.9 465.6,-141.9 465.6,-141.9 "/>
<polygon class="st7" points="252.9,-135.2 250.7,-135.2 250.7,-135.2 "/>
<rect x="724.3" y="282" class="st7" width="405.3" height="626.6"/>
<text transform="matrix(1.2708 0 0 1 613.7002 294.1601)" class="st10 st11">Lorem</text>
<text transform="matrix(1.2708 0 0 1 655.6387 294.1601)" class="st10 st11"> </text>
<text transform="matrix(1.2708 0 0 1 660.5947 294.1601)" class="st10 st11">ipsum</text>
<text transform="matrix(1.2708 0 0 1 701.2617 294.1601)" class="st10 st11"> </text>
<text transform="matrix(1.2708 0 0 1 706.0918 294.1601)" class="st10 st11">dolor</text>
<text transform="matrix(1.2708 0 0 1 741.167 294.1601)" class="st10 st11"> </text>
<text transform="matrix(1.2708 0 0 1 746.123 294.1601)" class="st10 st11">sit</text>
<text transform="matrix(1.2708 0 0 1 760.7373 294.1601)" class="st10 st11"> </text>
<text transform="matrix(1.2708 0 0 1 765.6943 294.1601)" class="st10 st11">amet,</text>
<text transform="matrix(1.2708 0 0 1 803.0566 294.1601)" class="st10 st11"> </text>
<text transform="matrix(1.2708 0 0 1 807.8857 294.1601)" class="st10 st11">consectetuer</text>
<text transform="matrix(1.2708 0 0 1 891 294.1601)" class="st10 st11"> </text>
<text transform="matrix(1.2708 0 0 1 895.9561 294.1601)" class="st10 st11">adipiscing</text>
<text transform="matrix(1.2708 0 0 1 961.6582 294.1601)" class="st10 st11"> </text>
<text transform="matrix(1.2708 0 0 1 966.4883 294.1601)" class="st10 st11">elit,</text>
<text transform="matrix(1.2708 0 0 1 990.7607 294.1601)" class="st10 st11"> </text>
<text transform="matrix(1.2708 0 0 1 995.5898 294.1601)" class="st10 st11">sed</text>
<text transform="matrix(1.2708 0 0 1 1018.8467 294.1601)" class="st10 st11"> </text>
<text transform="matrix(1.2708 0 0 1 1023.8027 294.1601)" class="st10 st11">diam</text>
<text transform="matrix(1.2708 0 0 1 1057.2266 294.1601)" class="st10 st11"> </text>
<text transform="matrix(1.2708 0 0 1 1062.0557 294.1601)" class="st10 st11">nonummy </text>
<text transform="matrix(1.2708 0 0 1 613.7002 318.1601)" class="st10 st11">nibh</text>
<text transform="matrix(1.2708 0 0 1 643.6924 318.1601)" class="st10 st11"> </text>
<text transform="matrix(1.2708 0 0 1 648.0137 318.1601)" class="st10 st11">euismod</text>
<text transform="matrix(1.2708 0 0 1 705.0742 318.1601)" class="st10 st11"> </text>
<text transform="matrix(1.2708 0 0 1 709.3955 318.1601)" class="st10 st11">tincidunt</text>
<text transform="matrix(1.2708 0 0 1 766.9648 318.1601)" class="st10 st11"> </text>
<text transform="matrix(1.2708 0 0 1 771.2861 318.1601)" class="st10 st11">ut</text>
<text transform="matrix(1.2708 0 0 1 784.375 318.1601)" class="st10 st11"> </text>
<text transform="matrix(1.2708 0 0 1 788.6963 318.1601)" class="st10 st11">laoreet</text>
<text transform="matrix(1.2708 0 0 1 834.7012 318.1601)" class="st10 st11"> </text>
<text transform="matrix(1.2708 0 0 1 839.0215 318.1601)" class="st10 st11">dolore</text>
<text transform="matrix(1.2708 0 0 1 882.1035 318.1601)" class="st10 st11"> </text>
<text transform="matrix(1.2708 0 0 1 886.4248 318.1601)" class="st10 st11">magna</text>
<text transform="matrix(1.2708 0 0 1 930.9043 318.1601)" class="st10 st11"> </text>
<text transform="matrix(1.2708 0 0 1 935.2246 318.1601)" class="st10 st11">aliquam</text>
<text transform="matrix(1.2708 0 0 1 988.8545 318.1601)" class="st10 st11"> </text>
<text transform="matrix(1.2708 0 0 1 993.1758 318.1601)" class="st10 st11">erat</text>
<text transform="matrix(1.2708 0 0 1 1018.9736 318.1601)" class="st10 st11"> </text>
<text transform="matrix(1.2708 0 0 1 1023.2949 318.1601)" class="st10 st11">volutpat.</text>
<text transform="matrix(1.2708 0 0 1 1080.4834 318.1601)" class="st10 st11"> </text>
<text transform="matrix(1.2708 0 0 1 1084.8037 318.1601)" class="st10 st11">Ut</text>
<text transform="matrix(1.2708 0 0 1 1099.291 318.1601)" class="st10 st11"> </text>
<text transform="matrix(1.2708 0 0 1 1103.6123 318.1601)" class="st10 st11">wisi </text>
<text transform="matrix(1.2708 0 0 1 613.7002 342.1601)" class="st10 st11">enim ad minim veniam, quis nostrud exerci tation ullamcorper suscipit lobortis </text>
<text transform="matrix(1.2708 0 0 1 613.7002 366.1601)" class="st10 st11">nisl</text>
<text transform="matrix(1.2708 0 0 1 636.4492 366.1601)" class="st10 st11"> </text>
<text transform="matrix(1.2708 0 0 1 641.2783 366.1601)" class="st10 st11">ut</text>
<text transform="matrix(1.2708 0 0 1 654.3682 366.1601)" class="st10 st11"> </text>
<text transform="matrix(1.2708 0 0 1 659.3242 366.1601)" class="st10 st11">aliquip</text>
<text transform="matrix(1.2708 0 0 1 704.9473 366.1601)" class="st10 st11"> </text>
<text transform="matrix(1.2708 0 0 1 709.9043 366.1601)" class="st10 st11">ex</text>
<text transform="matrix(1.2708 0 0 1 724.5186 366.1601)" class="st10 st11"> </text>
<text transform="matrix(1.2708 0 0 1 729.4746 366.1601)" class="st10 st11">ea</text>
<text transform="matrix(1.2708 0 0 1 745.2334 366.1601)" class="st10 st11"> </text>
<text transform="matrix(1.2708 0 0 1 750.0625 366.1601)" class="st10 st11">commodo</text>
<text transform="matrix(1.2708 0 0 1 816.5273 366.1601)" class="st10 st11"> </text>
<text transform="matrix(1.2708 0 0 1 821.3574 366.1601)" class="st10 st11">consequat.</text>
<text transform="matrix(1.2708 0 0 1 893.0332 366.1601)" class="st10 st11"> </text>
<text transform="matrix(1.2708 0 0 1 897.9893 366.1601)" class="st10 st11">Duis</text>
<text transform="matrix(1.2708 0 0 1 926.7109 366.1601)" class="st10 st11"> </text>
<text transform="matrix(1.2708 0 0 1 931.667 366.1601)" class="st10 st11">autem</text>
<text transform="matrix(1.2708 0 0 1 973.4775 366.1601)" class="st10 st11"> </text>
<text transform="matrix(1.2708 0 0 1 978.3066 366.1601)" class="st10 st11">vel</text>
<text transform="matrix(1.2708 0 0 1 996.6074 366.1601)" class="st10 st11"> </text>
<text transform="matrix(1.2708 0 0 1 1001.5635 366.1601)" class="st10 st11">eum</text>
<text transform="matrix(1.2708 0 0 1 1031.0469 366.1601)" class="st10 st11"> </text>
<text transform="matrix(1.2708 0 0 1 1036.0039 366.1601)" class="st10 st11">iriure</text>
<text transform="matrix(1.2708 0 0 1 1071.333 366.1601)" class="st10 st11"> </text>
<text transform="matrix(1.2708 0 0 1 1076.2891 366.1601)" class="st10 st11">dolor</text>
<text transform="matrix(1.2708 0 0 1 1111.3643 366.1601)" class="st10 st11"> </text>
<text transform="matrix(1.2708 0 0 1 1116.3213 366.1601)" class="st10 st11">in </text>
<text transform="matrix(1.2708 0 0 1 613.7002 390.1601)" class="st10 st11">hendrerit</text>
<text transform="matrix(1.2708 0 0 1 675.21 390.1601)" class="st10 st11"> </text>
<text transform="matrix(1.2708 0 0 1 678.8955 390.1601)" class="st10 st11">in</text>
<text transform="matrix(1.2708 0 0 1 691.4766 390.1601)" class="st10 st11"> </text>
<text transform="matrix(1.2708 0 0 1 695.1621 390.1601)" class="st10 st11">vulputate</text>
<text transform="matrix(1.2708 0 0 1 756.29 390.1601)" class="st10 st11"> </text>
<text transform="matrix(1.2708 0 0 1 760.1025 390.1601)" class="st10 st11">velit</text>
<text transform="matrix(1.2708 0 0 1 786.6631 390.1601)" class="st10 st11"> </text>
<text transform="matrix(1.2708 0 0 1 790.4756 390.1601)" class="st10 st11">esse</text>
<text transform="matrix(1.2708 0 0 1 819.1963 390.1601)" class="st10 st11"> </text>
<text transform="matrix(1.2708 0 0 1 823.0098 390.1601)" class="st10 st11">molestie</text>
<text transform="matrix(1.2708 0 0 1 878.7998 390.1601)" class="st10 st11"> </text>
<text transform="matrix(1.2708 0 0 1 882.6123 390.1601)" class="st10 st11">consequat,</text>
<text transform="matrix(1.2708 0 0 1 954.2881 390.1601)" class="st10 st11"> </text>
<text transform="matrix(1.2708 0 0 1 958.1006 390.1601)" class="st10 st11">vel</text>
<text transform="matrix(1.2708 0 0 1 976.4004 390.1601)" class="st10 st11"> </text>
<text transform="matrix(1.2708 0 0 1 980.0859 390.1601)" class="st10 st11">illum</text>
<text transform="matrix(1.2708 0 0 1 1013.1279 390.1601)" class="st10 st11"> </text>
<text transform="matrix(1.2708 0 0 1 1016.9404 390.1601)" class="st10 st11">dolore</text>
<text transform="matrix(1.2708 0 0 1 1060.0225 390.1601)" class="st10 st11"> </text>
<text transform="matrix(1.2708 0 0 1 1063.835 390.1601)" class="st10 st11">eu</text>
<text transform="matrix(1.2708 0 0 1 1080.4834 390.1601)" class="st10 st11"> </text>
<text transform="matrix(1.2708 0 0 1 1084.2959 390.1601)" class="st10 st11">feugiat </text>
<text transform="matrix(1.2708 0 0 1 613.7002 414.1601)" class="st10 st11">nulla</text>
<text transform="matrix(1.2708 0 0 1 646.3613 414.1601)" class="st10 st11"> </text>
<text transform="matrix(1.2708 0 0 1 650.3008 414.1601)" class="st10 st11">facilisis</text>
<text transform="matrix(1.2708 0 0 1 696.9414 414.1601)" class="st10 st11"> </text>
<text transform="matrix(1.2708 0 0 1 700.8809 414.1601)" class="st10 st11">at</text>
<text transform="matrix(1.2708 0 0 1 713.0811 414.1601)" class="st10 st11"> </text>
<text transform="matrix(1.2708 0 0 1 717.0205 414.1601)" class="st10 st11">vero</text>
<text transform="matrix(1.2708 0 0 1 745.4873 414.1601)" class="st10 st11"> </text>
<text transform="matrix(1.2708 0 0 1 749.4268 414.1601)" class="st10 st11">eros</text>
<text transform="matrix(1.2708 0 0 1 777.7676 414.1601)" class="st10 st11"> </text>
<text transform="matrix(1.2708 0 0 1 781.5801 414.1601)" class="st10 st11">et</text>
<text transform="matrix(1.2708 0 0 1 794.0342 414.1601)" class="st10 st11"> </text>
<text transform="matrix(1.2708 0 0 1 797.9736 414.1601)" class="st10 st11">accumsan</text>
<text transform="matrix(1.2708 0 0 1 862.7871 414.1601)" class="st10 st11"> </text>
<text transform="matrix(1.2708 0 0 1 866.7266 414.1601)" class="st10 st11">et</text>
<text transform="matrix(1.2708 0 0 1 879.0537 414.1601)" class="st10 st11"> </text>
<text transform="matrix(1.2708 0 0 1 882.9932 414.1601)" class="st10 st11">iusto</text>
<text transform="matrix(1.2708 0 0 1 914.7646 414.1601)" class="st10 st11"> </text>
<text transform="matrix(1.2708 0 0 1 918.7041 414.1601)" class="st10 st11">odio</text>
<text transform="matrix(1.2708 0 0 1 948.1875 414.1601)" class="st10 st11"> </text>
<text transform="matrix(1.2708 0 0 1 952.127 414.1601)" class="st10 st11">dignissim</text>
<text transform="matrix(1.2708 0 0 1 1014.1445 414.1601)" class="st10 st11"> </text>
<text transform="matrix(1.2708 0 0 1 1018.084 414.1601)" class="st10 st11">qui</text>
<text transform="matrix(1.2708 0 0 1 1039.4346 414.1601)" class="st10 st11"> </text>
<text transform="matrix(1.2708 0 0 1 1043.374 414.1601)" class="st10 st11">blandit</text>
<text transform="matrix(1.2708 0 0 1 1089.6328 414.1601)" class="st10 st11"> </text>
<text transform="matrix(1.2708 0 0 1 1093.4453 414.1601)" class="st10 st11">prae</text>
<text transform="matrix(1.2708 0 0 1 1123.6914 414.1601)" class="st10 st11">-</text>
<text transform="matrix(1.2708 0 0 1 688.6807 438.1601)" class="st10 st11">sent luptatum zzril delenit augue duis dolore te feugait nulla facilisi.</text>
<text transform="matrix(1.2708 0 0 1 613.7002 462.1601)" class="st10 st11">Lorem</text>
<text transform="matrix(1.2708 0 0 1 655.6387 462.1601)" class="st10 st11"> </text>
<text transform="matrix(1.2708 0 0 1 660.0869 462.1601)" class="st10 st11">ipsum</text>
<text transform="matrix(1.2708 0 0 1 700.7539 462.1601)" class="st10 st11"> </text>
<text transform="matrix(1.2708 0 0 1 705.2012 462.1601)" class="st10 st11">dolor</text>
<text transform="matrix(1.2708 0 0 1 740.2773 462.1601)" class="st10 st11"> </text>
<text transform="matrix(1.2708 0 0 1 744.7246 462.1601)" class="st10 st11">sit</text>
<text transform="matrix(1.2708 0 0 1 759.4668 462.1601)" class="st10 st11"> </text>
<text transform="matrix(1.2708 0 0 1 763.915 462.1601)" class="st10 st11">amet,</text>
<text transform="matrix(1.2708 0 0 1 801.2773 462.1601)" class="st10 st11"> </text>
<text transform="matrix(1.2708 0 0 1 805.7256 462.1601)" class="st10 st11">cons</text>
<text transform="matrix(1.2708 0 0 1 835.4639 462.1601)" class="st10 st11"> </text>
<text transform="matrix(1.2708 0 0 1 839.9111 462.1601)" class="st10 st11">ectetuer</text>
<text transform="matrix(1.2708 0 0 1 893.2871 462.1601)" class="st10 st11"> </text>
<text transform="matrix(1.2708 0 0 1 897.7354 462.1601)" class="st10 st11">adipiscing</text>
<text transform="matrix(1.2708 0 0 1 963.3105 462.1601)" class="st10 st11"> </text>
<text transform="matrix(1.2708 0 0 1 967.7588 462.1601)" class="st10 st11">elit,</text>
<text transform="matrix(1.2708 0 0 1 992.0322 462.1601)" class="st10 st11"> </text>
<text transform="matrix(1.2708 0 0 1 996.4795 462.1601)" class="st10 st11">sed</text>
<text transform="matrix(1.2708 0 0 1 1019.7363 462.1601)" class="st10 st11"> </text>
<text transform="matrix(1.2708 0 0 1 1024.1846 462.1601)" class="st10 st11">diam</text>
<text transform="matrix(1.2708 0 0 1 1057.6074 462.1601)" class="st10 st11"> </text>
<text transform="matrix(1.2708 0 0 1 1062.0557 462.1601)" class="st10 st11">nonummy </text>
<text transform="matrix(1.2708 0 0 1 613.7002 486.1601)" class="st10 st11">nibh</text>
<text transform="matrix(1.2708 0 0 1 643.6924 486.1601)" class="st10 st11"> </text>
<text transform="matrix(1.2708 0 0 1 648.0137 486.1601)" class="st10 st11">euismod</text>
<text transform="matrix(1.2708 0 0 1 705.0742 486.1601)" class="st10 st11"> </text>
<text transform="matrix(1.2708 0 0 1 709.3955 486.1601)" class="st10 st11">tincidunt</text>
<text transform="matrix(1.2708 0 0 1 766.9648 486.1601)" class="st10 st11"> </text>
<text transform="matrix(1.2708 0 0 1 771.2861 486.1601)" class="st10 st11">ut</text>
<text transform="matrix(1.2708 0 0 1 784.375 486.1601)" class="st10 st11"> </text>
<text transform="matrix(1.2708 0 0 1 788.6963 486.1601)" class="st10 st11">laoreet</text>
<text transform="matrix(1.2708 0 0 1 834.7012 486.1601)" class="st10 st11"> </text>
<text transform="matrix(1.2708 0 0 1 839.0215 486.1601)" class="st10 st11">dolore</text>
<text transform="matrix(1.2708 0 0 1 882.1035 486.1601)" class="st10 st11"> </text>
<text transform="matrix(1.2708 0 0 1 886.4248 486.1601)" class="st10 st11">magna</text>
<text transform="matrix(1.2708 0 0 1 930.9043 486.1601)" class="st10 st11"> </text>
<text transform="matrix(1.2708 0 0 1 935.2246 486.1601)" class="st10 st11">aliquam</text>
<text transform="matrix(1.2708 0 0 1 988.8545 486.1601)" class="st10 st11"> </text>
<text transform="matrix(1.2708 0 0 1 993.1758 486.1601)" class="st10 st11">erat</text>
<text transform="matrix(1.2708 0 0 1 1018.9736 486.1601)" class="st10 st11"> </text>
<text transform="matrix(1.2708 0 0 1 1023.2949 486.1601)" class="st10 st11">volutpat.</text>
<text transform="matrix(1.2708 0 0 1 1080.4834 486.1601)" class="st10 st11"> </text>
<text transform="matrix(1.2708 0 0 1 1084.8037 486.1601)" class="st10 st11">Ut</text>
<text transform="matrix(1.2708 0 0 1 1099.291 486.1601)" class="st10 st11"> </text>
<text transform="matrix(1.2708 0 0 1 1103.6123 486.1601)" class="st10 st11">wisi </text>
<text transform="matrix(1.2708 0 0 1 613.7002 510.1601)" class="st10 st11">enim ad minim veniam, quis nostrud exerci tation ullamcorper suscipit lobortis </text>
<text transform="matrix(1.2708 0 0 1 855.9238 534.1601)" class="st10 st11">nisl ut aliquip ex ea commodo consequat.</text>
<text transform="matrix(1.2708 0 0 1 613.7002 558.1601)" class="st10 st11">Lorem</text>
<text transform="matrix(1.2708 0 0 1 655.6387 558.1601)" class="st10 st11"> </text>
<text transform="matrix(1.2708 0 0 1 660.5947 558.1601)" class="st10 st11">ipsum</text>
<text transform="matrix(1.2708 0 0 1 701.2617 558.1601)" class="st10 st11"> </text>
<text transform="matrix(1.2708 0 0 1 706.0918 558.1601)" class="st10 st11">dolor</text>
<text transform="matrix(1.2708 0 0 1 741.167 558.1601)" class="st10 st11"> </text>
<text transform="matrix(1.2708 0 0 1 746.123 558.1601)" class="st10 st11">sit</text>
<text transform="matrix(1.2708 0 0 1 760.7373 558.1601)" class="st10 st11"> </text>
<text transform="matrix(1.2708 0 0 1 765.6943 558.1601)" class="st10 st11">amet,</text>
<text transform="matrix(1.2708 0 0 1 803.0566 558.1601)" class="st10 st11"> </text>
<text transform="matrix(1.2708 0 0 1 807.8857 558.1601)" class="st10 st11">consectetuer</text>
<text transform="matrix(1.2708 0 0 1 891 558.1601)" class="st10 st11"> </text>
<text transform="matrix(1.2708 0 0 1 895.9561 558.1601)" class="st10 st11">adipiscing</text>
<text transform="matrix(1.2708 0 0 1 961.6582 558.1601)" class="st10 st11"> </text>
<text transform="matrix(1.2708 0 0 1 966.4883 558.1601)" class="st10 st11">elit,</text>
<text transform="matrix(1.2708 0 0 1 990.7607 558.1601)" class="st10 st11"> </text>
<text transform="matrix(1.2708 0 0 1 995.5898 558.1601)" class="st10 st11">sed</text>
<text transform="matrix(1.2708 0 0 1 1018.8467 558.1601)" class="st10 st11"> </text>
<text transform="matrix(1.2708 0 0 1 1023.8027 558.1601)" class="st10 st11">diam</text>
<text transform="matrix(1.2708 0 0 1 1057.2266 558.1601)" class="st10 st11"> </text>
<text transform="matrix(1.2708 0 0 1 1062.0557 558.1601)" class="st10 st11">nonummy </text>
<text transform="matrix(1.2708 0 0 1 613.7002 582.1601)" class="st10 st11">nibh</text>
<text transform="matrix(1.2708 0 0 1 643.6924 582.1601)" class="st10 st11"> </text>
<text transform="matrix(1.2708 0 0 1 648.0137 582.1601)" class="st10 st11">euismod</text>
<text transform="matrix(1.2708 0 0 1 705.0742 582.1601)" class="st10 st11"> </text>
<text transform="matrix(1.2708 0 0 1 709.3955 582.1601)" class="st10 st11">tincidunt</text>
<text transform="matrix(1.2708 0 0 1 766.9648 582.1601)" class="st10 st11"> </text>
<text transform="matrix(1.2708 0 0 1 771.2861 582.1601)" class="st10 st11">ut</text>
<text transform="matrix(1.2708 0 0 1 784.375 582.1601)" class="st10 st11"> </text>
<text transform="matrix(1.2708 0 0 1 788.6963 582.1601)" class="st10 st11">laoreet</text>
<text transform="matrix(1.2708 0 0 1 834.7012 582.1601)" class="st10 st11"> </text>
<text transform="matrix(1.2708 0 0 1 839.0215 582.1601)" class="st10 st11">dolore</text>
<text transform="matrix(1.2708 0 0 1 882.1035 582.1601)" class="st10 st11"> </text>
<text transform="matrix(1.2708 0 0 1 886.4248 582.1601)" class="st10 st11">magna</text>
<text transform="matrix(1.2708 0 0 1 930.9043 582.1601)" class="st10 st11"> </text>
<text transform="matrix(1.2708 0 0 1 935.2246 582.1601)" class="st10 st11">aliquam</text>
<text transform="matrix(1.2708 0 0 1 988.8545 582.1601)" class="st10 st11"> </text>
<text transform="matrix(1.2708 0 0 1 993.1758 582.1601)" class="st10 st11">erat</text>
<text transform="matrix(1.2708 0 0 1 1018.9736 582.1601)" class="st10 st11"> </text>
<text transform="matrix(1.2708 0 0 1 1023.2949 582.1601)" class="st10 st11">volutpat.</text>
<text transform="matrix(1.2708 0 0 1 1080.4834 582.1601)" class="st10 st11"> </text>
<text transform="matrix(1.2708 0 0 1 1084.8037 582.1601)" class="st10 st11">Ut</text>
<text transform="matrix(1.2708 0 0 1 1099.291 582.1601)" class="st10 st11"> </text>
<text transform="matrix(1.2708 0 0 1 1103.6123 582.1601)" class="st10 st11">wisi </text>
<text transform="matrix(1.2708 0 0 1 613.7002 606.1606)" class="st10 st11">enim ad minim veniam, quis nostrud exerci tation ullamcorper suscipit lobortis </text>
<text transform="matrix(1.2708 0 0 1 613.7002 630.1606)" class="st10 st11">nisl</text>
<text transform="matrix(1.2708 0 0 1 636.4492 630.1606)" class="st10 st11"> </text>
<text transform="matrix(1.2708 0 0 1 641.2783 630.1606)" class="st10 st11">ut</text>
<text transform="matrix(1.2708 0 0 1 654.3682 630.1606)" class="st10 st11"> </text>
<text transform="matrix(1.2708 0 0 1 659.3242 630.1606)" class="st10 st11">aliquip</text>
<text transform="matrix(1.2708 0 0 1 704.9473 630.1606)" class="st10 st11"> </text>
<text transform="matrix(1.2708 0 0 1 709.9043 630.1606)" class="st10 st11">ex</text>
<text transform="matrix(1.2708 0 0 1 724.5186 630.1606)" class="st10 st11"> </text>
<text transform="matrix(1.2708 0 0 1 729.4746 630.1606)" class="st10 st11">ea</text>
<text transform="matrix(1.2708 0 0 1 745.2334 630.1606)" class="st10 st11"> </text>
<text transform="matrix(1.2708 0 0 1 750.0625 630.1606)" class="st10 st11">commodo</text>
<text transform="matrix(1.2708 0 0 1 816.5273 630.1606)" class="st10 st11"> </text>
<text transform="matrix(1.2708 0 0 1 821.3574 630.1606)" class="st10 st11">consequat.</text>
<text transform="matrix(1.2708 0 0 1 893.0332 630.1606)" class="st10 st11"> </text>
<text transform="matrix(1.2708 0 0 1 897.9893 630.1606)" class="st10 st11">Duis</text>
<text transform="matrix(1.2708 0 0 1 926.7109 630.1606)" class="st10 st11"> </text>
<text transform="matrix(1.2708 0 0 1 931.667 630.1606)" class="st10 st11">autem</text>
<text transform="matrix(1.2708 0 0 1 973.4775 630.1606)" class="st10 st11"> </text>
<text transform="matrix(1.2708 0 0 1 978.3066 630.1606)" class="st10 st11">vel</text>
<text transform="matrix(1.2708 0 0 1 996.6074 630.1606)" class="st10 st11"> </text>
<text transform="matrix(1.2708 0 0 1 1001.5635 630.1606)" class="st10 st11">eum</text>
<text transform="matrix(1.2708 0 0 1 1031.0469 630.1606)" class="st10 st11"> </text>
<text transform="matrix(1.2708 0 0 1 1036.0039 630.1606)" class="st10 st11">iriure</text>
<text transform="matrix(1.2708 0 0 1 1071.333 630.1606)" class="st10 st11"> </text>
<text transform="matrix(1.2708 0 0 1 1076.2891 630.1606)" class="st10 st11">dolor</text>
<text transform="matrix(1.2708 0 0 1 1111.3643 630.1606)" class="st10 st11"> </text>
<text transform="matrix(1.2708 0 0 1 1116.3213 630.1606)" class="st10 st11">in </text>
<text transform="matrix(1.2708 0 0 1 613.7002 654.1606)" class="st10 st11">hendrerit</text>
<text transform="matrix(1.2708 0 0 1 675.21 654.1606)" class="st10 st11"> </text>
<text transform="matrix(1.2708 0 0 1 678.8955 654.1606)" class="st10 st11">in</text>
<text transform="matrix(1.2708 0 0 1 691.4766 654.1606)" class="st10 st11"> </text>
<text transform="matrix(1.2708 0 0 1 695.1621 654.1606)" class="st10 st11">vulputate</text>
<text transform="matrix(1.2708 0 0 1 756.29 654.1606)" class="st10 st11"> </text>
<text transform="matrix(1.2708 0 0 1 760.1025 654.1606)" class="st10 st11">velit</text>
<text transform="matrix(1.2708 0 0 1 786.6631 654.1606)" class="st10 st11"> </text>
<text transform="matrix(1.2708 0 0 1 790.4756 654.1606)" class="st10 st11">esse</text>
<text transform="matrix(1.2708 0 0 1 819.1963 654.1606)" class="st10 st11"> </text>
<text transform="matrix(1.2708 0 0 1 823.0098 654.1606)" class="st10 st11">molestie</text>
<text transform="matrix(1.2708 0 0 1 878.7998 654.1606)" class="st10 st11"> </text>
<text transform="matrix(1.2708 0 0 1 882.6123 654.1606)" class="st10 st11">consequat,</text>
<text transform="matrix(1.2708 0 0 1 954.2881 654.1606)" class="st10 st11"> </text>
<text transform="matrix(1.2708 0 0 1 958.1006 654.1606)" class="st10 st11">vel</text>
<text transform="matrix(1.2708 0 0 1 976.4004 654.1606)" class="st10 st11"> </text>
<text transform="matrix(1.2708 0 0 1 980.0859 654.1606)" class="st10 st11">illum</text>
<text transform="matrix(1.2708 0 0 1 1013.1279 654.1606)" class="st10 st11"> </text>
<text transform="matrix(1.2708 0 0 1 1016.9404 654.1606)" class="st10 st11">dolore</text>
<text transform="matrix(1.2708 0 0 1 1060.0225 654.1606)" class="st10 st11"> </text>
<text transform="matrix(1.2708 0 0 1 1063.835 654.1606)" class="st10 st11">eu</text>
<text transform="matrix(1.2708 0 0 1 1080.4834 654.1606)" class="st10 st11"> </text>
<text transform="matrix(1.2708 0 0 1 1084.2959 654.1606)" class="st10 st11">feugiat </text>
<text transform="matrix(1.2708 0 0 1 613.7002 678.1606)" class="st10 st11">nulla</text>
<text transform="matrix(1.2708 0 0 1 646.3613 678.1606)" class="st10 st11"> </text>
<text transform="matrix(1.2708 0 0 1 650.3008 678.1606)" class="st10 st11">facilisis</text>
<text transform="matrix(1.2708 0 0 1 696.9414 678.1606)" class="st10 st11"> </text>
<text transform="matrix(1.2708 0 0 1 700.8809 678.1606)" class="st10 st11">at</text>
<text transform="matrix(1.2708 0 0 1 713.0811 678.1606)" class="st10 st11"> </text>
<text transform="matrix(1.2708 0 0 1 717.0205 678.1606)" class="st10 st11">vero</text>
<text transform="matrix(1.2708 0 0 1 745.4873 678.1606)" class="st10 st11"> </text>
<text transform="matrix(1.2708 0 0 1 749.4268 678.1606)" class="st10 st11">eros</text>
<text transform="matrix(1.2708 0 0 1 777.7676 678.1606)" class="st10 st11"> </text>
<text transform="matrix(1.2708 0 0 1 781.5801 678.1606)" class="st10 st11">et</text>
<text transform="matrix(1.2708 0 0 1 794.0342 678.1606)" class="st10 st11"> </text>
<text transform="matrix(1.2708 0 0 1 797.9736 678.1606)" class="st10 st11">accumsan</text>
<text transform="matrix(1.2708 0 0 1 862.7871 678.1606)" class="st10 st11"> </text>
<text transform="matrix(1.2708 0 0 1 866.7266 678.1606)" class="st10 st11">et</text>
<text transform="matrix(1.2708 0 0 1 879.0537 678.1606)" class="st10 st11"> </text>
<text transform="matrix(1.2708 0 0 1 882.9932 678.1606)" class="st10 st11">iusto</text>
<text transform="matrix(1.2708 0 0 1 914.7646 678.1606)" class="st10 st11"> </text>
<text transform="matrix(1.2708 0 0 1 918.7041 678.1606)" class="st10 st11">odio</text>
<text transform="matrix(1.2708 0 0 1 948.1875 678.1606)" class="st10 st11"> </text>
<text transform="matrix(1.2708 0 0 1 952.127 678.1606)" class="st10 st11">dignissim</text>
<text transform="matrix(1.2708 0 0 1 1014.1445 678.1606)" class="st10 st11"> </text>
<text transform="matrix(1.2708 0 0 1 1018.084 678.1606)" class="st10 st11">qui</text>
<text transform="matrix(1.2708 0 0 1 1039.4346 678.1606)" class="st10 st11"> </text>
<text transform="matrix(1.2708 0 0 1 1043.374 678.1606)" class="st10 st11">blandit</text>
<text transform="matrix(1.2708 0 0 1 1089.6328 678.1606)" class="st10 st11"> </text>
<text transform="matrix(1.2708 0 0 1 1093.4453 678.1606)" class="st10 st11">prae</text>
<text transform="matrix(1.2708 0 0 1 1123.6914 678.1606)" class="st10 st11">-</text>
<text transform="matrix(1.2708 0 0 1 688.6807 702.1596)" class="st10 st11">sent luptatum zzril delenit augue duis dolore te feugait nulla facilisi.</text>
<text transform="matrix(1.2708 0 0 1 613.7002 726.1596)" class="st10 st11">Lorem</text>
<text transform="matrix(1.2708 0 0 1 655.6387 726.1596)" class="st10 st11"> </text>
<text transform="matrix(1.2708 0 0 1 660.0869 726.1596)" class="st10 st11">ipsum</text>
<text transform="matrix(1.2708 0 0 1 700.7539 726.1596)" class="st10 st11"> </text>
<text transform="matrix(1.2708 0 0 1 705.2012 726.1596)" class="st10 st11">dolor</text>
<text transform="matrix(1.2708 0 0 1 740.2773 726.1596)" class="st10 st11"> </text>
<text transform="matrix(1.2708 0 0 1 744.7246 726.1596)" class="st10 st11">sit</text>
<text transform="matrix(1.2708 0 0 1 759.4668 726.1596)" class="st10 st11"> </text>
<text transform="matrix(1.2708 0 0 1 763.915 726.1596)" class="st10 st11">amet,</text>
<text transform="matrix(1.2708 0 0 1 801.2773 726.1596)" class="st10 st11"> </text>
<text transform="matrix(1.2708 0 0 1 805.7256 726.1596)" class="st10 st11">cons</text>
<text transform="matrix(1.2708 0 0 1 835.4639 726.1596)" class="st10 st11"> </text>
<text transform="matrix(1.2708 0 0 1 839.9111 726.1596)" class="st10 st11">ectetuer</text>
<text transform="matrix(1.2708 0 0 1 893.2871 726.1596)" class="st10 st11"> </text>
<text transform="matrix(1.2708 0 0 1 897.7354 726.1596)" class="st10 st11">adipiscing</text>
<text transform="matrix(1.2708 0 0 1 963.3105 726.1596)" class="st10 st11"> </text>
<text transform="matrix(1.2708 0 0 1 967.7588 726.1596)" class="st10 st11">elit,</text>
<text transform="matrix(1.2708 0 0 1 992.0322 726.1596)" class="st10 st11"> </text>
<text transform="matrix(1.2708 0 0 1 996.4795 726.1596)" class="st10 st11">sed</text>
<text transform="matrix(1.2708 0 0 1 1019.7363 726.1596)" class="st10 st11"> </text>
<text transform="matrix(1.2708 0 0 1 1024.1846 726.1596)" class="st10 st11">diam</text>
<text transform="matrix(1.2708 0 0 1 1057.6074 726.1596)" class="st10 st11"> </text>
<text transform="matrix(1.2708 0 0 1 1062.0557 726.1596)" class="st10 st11">nonummy </text>
<text transform="matrix(1.2708 0 0 1 613.7002 750.1596)" class="st10 st11">nibh</text>
<text transform="matrix(1.2708 0 0 1 643.6924 750.1596)" class="st10 st11"> </text>
<text transform="matrix(1.2708 0 0 1 648.0137 750.1596)" class="st10 st11">euismod</text>
<text transform="matrix(1.2708 0 0 1 705.0742 750.1596)" class="st10 st11"> </text>
<text transform="matrix(1.2708 0 0 1 709.3955 750.1596)" class="st10 st11">tincidunt</text>
<text transform="matrix(1.2708 0 0 1 766.9648 750.1596)" class="st10 st11"> </text>
<text transform="matrix(1.2708 0 0 1 771.2861 750.1596)" class="st10 st11">ut</text>
<text transform="matrix(1.2708 0 0 1 784.375 750.1596)" class="st10 st11"> </text>
<text transform="matrix(1.2708 0 0 1 788.6963 750.1596)" class="st10 st11">laoreet</text>
<text transform="matrix(1.2708 0 0 1 834.7012 750.1596)" class="st10 st11"> </text>
<text transform="matrix(1.2708 0 0 1 839.0215 750.1596)" class="st10 st11">dolore</text>
<text transform="matrix(1.2708 0 0 1 882.1035 750.1596)" class="st10 st11"> </text>
<text transform="matrix(1.2708 0 0 1 886.4248 750.1596)" class="st10 st11">magna</text>
<text transform="matrix(1.2708 0 0 1 930.9043 750.1596)" class="st10 st11"> </text>
<text transform="matrix(1.2708 0 0 1 935.2246 750.1596)" class="st10 st11">aliquam</text>
<text transform="matrix(1.2708 0 0 1 988.8545 750.1596)" class="st10 st11"> </text>
<text transform="matrix(1.2708 0 0 1 993.1758 750.1596)" class="st10 st11">erat</text>
<text transform="matrix(1.2708 0 0 1 1018.9736 750.1596)" class="st10 st11"> </text>
<text transform="matrix(1.2708 0 0 1 1023.2949 750.1596)" class="st10 st11">volutpat.</text>
<text transform="matrix(1.2708 0 0 1 1080.4834 750.1596)" class="st10 st11"> </text>
<text transform="matrix(1.2708 0 0 1 1084.8037 750.1596)" class="st10 st11">Ut</text>
<text transform="matrix(1.2708 0 0 1 1099.291 750.1596)" class="st10 st11"> </text>
<text transform="matrix(1.2708 0 0 1 1103.6123 750.1596)" class="st10 st11">wisi </text>
<text transform="matrix(1.2708 0 0 1 613.7002 774.1596)" class="st10 st11">enim ad minim veniam, quis nostrud exerci tation ullamcorper suscipit lobortis </text>
<text transform="matrix(1.2708 0 0 1 855.9238 798.1596)" class="st10 st11">nisl ut aliquip ex ea commodo consequat.</text>
<text transform="matrix(1.2708 0 0 1 613.7002 822.1596)" class="st10 st11">Lorem</text>
<text transform="matrix(1.2708 0 0 1 655.6387 822.1596)" class="st10 st11"> </text>
<text transform="matrix(1.2708 0 0 1 660.5947 822.1596)" class="st10 st11">ipsum</text>
<text transform="matrix(1.2708 0 0 1 701.2617 822.1596)" class="st10 st11"> </text>
<text transform="matrix(1.2708 0 0 1 706.0918 822.1596)" class="st10 st11">dolor</text>
<text transform="matrix(1.2708 0 0 1 741.167 822.1596)" class="st10 st11"> </text>
<text transform="matrix(1.2708 0 0 1 746.123 822.1596)" class="st10 st11">sit</text>
<text transform="matrix(1.2708 0 0 1 760.7373 822.1596)" class="st10 st11"> </text>
<text transform="matrix(1.2708 0 0 1 765.6943 822.1596)" class="st10 st11">amet,</text>
<text transform="matrix(1.2708 0 0 1 803.0566 822.1596)" class="st10 st11"> </text>
<text transform="matrix(1.2708 0 0 1 807.8857 822.1596)" class="st10 st11">consectetuer</text>
<text transform="matrix(1.2708 0 0 1 891 822.1596)" class="st10 st11"> </text>
<text transform="matrix(1.2708 0 0 1 895.9561 822.1596)" class="st10 st11">adipiscing</text>
<text transform="matrix(1.2708 0 0 1 961.6582 822.1596)" class="st10 st11"> </text>
<text transform="matrix(1.2708 0 0 1 966.4883 822.1596)" class="st10 st11">elit,</text>
<text transform="matrix(1.2708 0 0 1 990.7607 822.1596)" class="st10 st11"> </text>
<text transform="matrix(1.2708 0 0 1 995.5898 822.1596)" class="st10 st11">sed</text>
<text transform="matrix(1.2708 0 0 1 1018.8467 822.1596)" class="st10 st11"> </text>
<text transform="matrix(1.2708 0 0 1 1023.8027 822.1596)" class="st10 st11">diam</text>
<text transform="matrix(1.2708 0 0 1 1057.2266 822.1596)" class="st10 st11"> </text>
<text transform="matrix(1.2708 0 0 1 1062.0557 822.1596)" class="st10 st11">nonummy </text>
<text transform="matrix(1.2708 0 0 1 613.7002 846.1596)" class="st10 st11">nibh</text>
<text transform="matrix(1.2708 0 0 1 643.6924 846.1596)" class="st10 st11"> </text>
<text transform="matrix(1.2708 0 0 1 648.0137 846.1596)" class="st10 st11">euismod</text>
<text transform="matrix(1.2708 0 0 1 705.0742 846.1596)" class="st10 st11"> </text>
<text transform="matrix(1.2708 0 0 1 709.3955 846.1596)" class="st10 st11">tincidunt</text>
<text transform="matrix(1.2708 0 0 1 766.9648 846.1596)" class="st10 st11"> </text>
<text transform="matrix(1.2708 0 0 1 771.2861 846.1596)" class="st10 st11">ut</text>
<text transform="matrix(1.2708 0 0 1 784.375 846.1596)" class="st10 st11"> </text>
<text transform="matrix(1.2708 0 0 1 788.6963 846.1596)" class="st10 st11">laoreet</text>
<text transform="matrix(1.2708 0 0 1 834.7012 846.1596)" class="st10 st11"> </text>
<text transform="matrix(1.2708 0 0 1 839.0215 846.1596)" class="st10 st11">dolore</text>
<text transform="matrix(1.2708 0 0 1 882.1035 846.1596)" class="st10 st11"> </text>
<text transform="matrix(1.2708 0 0 1 886.4248 846.1596)" class="st10 st11">magna</text>
<text transform="matrix(1.2708 0 0 1 930.9043 846.1596)" class="st10 st11"> </text>
<text transform="matrix(1.2708 0 0 1 935.2246 846.1596)" class="st10 st11">aliquam</text>
<text transform="matrix(1.2708 0 0 1 988.8545 846.1596)" class="st10 st11"> </text>
<text transform="matrix(1.2708 0 0 1 993.1758 846.1596)" class="st10 st11">erat</text>
<text transform="matrix(1.2708 0 0 1 1018.9736 846.1596)" class="st10 st11"> </text>
<text transform="matrix(1.2708 0 0 1 1023.2949 846.1596)" class="st10 st11">volutpat.</text>
<text transform="matrix(1.2708 0 0 1 1080.4834 846.1596)" class="st10 st11"> </text>
<text transform="matrix(1.2708 0 0 1 1084.8037 846.1596)" class="st10 st11">Ut</text>
<text transform="matrix(1.2708 0 0 1 1099.291 846.1596)" class="st10 st11"> </text>
<text transform="matrix(1.2708 0 0 1 1103.6123 846.1596)" class="st10 st11">wisi </text>
<text transform="matrix(1.2708 0 0 1 613.7002 870.1596)" class="st10 st11">enim ad minim veniam, quis nostrud exerci tation ullamcorper suscipit lobortis </text>
<text transform="matrix(1.2708 0 0 1 855.9238 894.1596)" class="st10 st11">nisl ut aliquip ex ea commodo consequat.</text>
<rect x="613.7" y="95.2" class="st7" width="73.7" height="115.7"/>
<text transform="matrix(1 0 0 1 624.1357 102.2556)" class="st12 st13">Dettagli della </text>
<text transform="matrix(1 0 0 1 627.2357 126.2556)" class="st12 st13">pianta della </text>
<text transform="matrix(1 0 0 1 631.4357 150.2556)" class="st12 st13">camera di </text>
<text transform="matrix(1 0 0 1 615.3357 174.2556)" class="st12 st13">2001:Odissea nello </text>
<text transform="matrix(1 0 0 1 638.1357 198.2556)" class="st12 st13">Spazio</text>
<g>
	<g>
		<g>
			<defs>
				<circle id="SVGID_5_" cx="817.6" cy="1037.6" r="91.8"/>
			</defs>
			<clipPath id="SVGID_6_">
				<use xlink:href="#SVGID_5_"  style="overflow:visible;"/>
			</clipPath>
			<g class="st14">
				<rect x="725.3" y="945.4" class="st7" width="184.2" height="184.3"/>
				<text transform="matrix(1 0 0 1 724.3066 954.4703)" class="st10 st15">Lorem</text>
				<text transform="matrix(1 0 0 1 749.1067 954.4703)" class="st10 st15 st16"> </text>
				<text transform="matrix(1 0 0 1 756.3066 954.4703)" class="st10 st15">ipsum</text>
				<text transform="matrix(1 0 0 1 780.3066 954.4703)" class="st10 st15 st16"> </text>
				<text transform="matrix(1 0 0 1 787.5067 954.4703)" class="st10 st15">dolor</text>
				<text transform="matrix(1 0 0 1 808.2067 954.4703)" class="st10 st15 st16"> </text>
				<text transform="matrix(1 0 0 1 815.4066 954.4703)" class="st10 st15">sit</text>
				<text transform="matrix(1 0 0 1 824.0067 954.4703)" class="st10 st15 st16"> </text>
				<text transform="matrix(1 0 0 1 831.2067 954.4703)" class="st10 st15">amet,</text>
				<text transform="matrix(1 0 0 1 853.3066 954.4703)" class="st10 st15 st16"> </text>
				<text transform="matrix(1 0 0 1 860.5067 954.4703)" class="st10 st15">consectetuer </text>
				<text transform="matrix(1 0 0 1 725.3066 968.8702)" class="st10 st15">adipiscing</text>
				<text transform="matrix(1 0 0 1 764.1067 968.8702)" class="st10 st15 st16"> </text>
				<text transform="matrix(1 0 0 1 772.2067 968.8702)" class="st10 st15">elit,</text>
				<text transform="matrix(1 0 0 1 786.5067 968.8702)" class="st10 st15 st16"> </text>
				<text transform="matrix(1 0 0 1 794.6067 968.8702)" class="st10 st15">sed</text>
				<text transform="matrix(1 0 0 1 808.4066 968.8702)" class="st10 st15 st16"> </text>
				<text transform="matrix(1 0 0 1 816.5067 968.8702)" class="st10 st15">diam</text>
				<text transform="matrix(1 0 0 1 836.2067 968.8702)" class="st10 st15 st16"> </text>
				<text transform="matrix(1 0 0 1 844.3066 968.8702)" class="st10 st15">nonummy</text>
				<text transform="matrix(1 0 0 1 883.7067 968.8702)" class="st10 st15 st16"> </text>
				<text transform="matrix(1 0 0 1 891.8066 968.8702)" class="st10 st15">nibh </text>
				<text transform="matrix(1 0 0 1 725.3066 983.2701)" class="st10 st15">euismod</text>
				<text transform="matrix(1 0 0 1 759.0067 983.2701)" class="st10 st15 st16"> </text>
				<text transform="matrix(1 0 0 1 765.0067 983.2701)" class="st10 st15">tincidunt</text>
				<text transform="matrix(1 0 0 1 799.0067 983.2701)" class="st10 st15 st16"> </text>
				<text transform="matrix(1 0 0 1 805.0067 983.2701)" class="st10 st15">ut</text>
				<text transform="matrix(1 0 0 1 812.7067 983.2701)" class="st10 st15 st16"> </text>
				<text transform="matrix(1 0 0 1 818.7067 983.2701)" class="st10 st15">laoreet</text>
				<text transform="matrix(1 0 0 1 845.9066 983.2701)" class="st10 st15 st16"> </text>
				<text transform="matrix(1 0 0 1 851.8066 983.2701)" class="st10 st15">dolore</text>
				<text transform="matrix(1 0 0 1 877.3066 983.2701)" class="st10 st15 st16"> </text>
				<text transform="matrix(1 0 0 1 883.3066 983.2701)" class="st10 st15">magna </text>
				<text transform="matrix(1 0 0 1 725.3066 997.6703)" class="st10 st15">aliquam</text>
				<text transform="matrix(1 0 0 1 757.0067 997.6703)" class="st10 st15"> </text>
				<text transform="matrix(1 0 0 1 760.6067 997.6703)" class="st10 st15">erat</text>
				<text transform="matrix(1 0 0 1 775.9066 997.6703)" class="st10 st15"> </text>
				<text transform="matrix(1 0 0 1 779.5067 997.6703)" class="st10 st15">volutpat.</text>
				<text transform="matrix(1 0 0 1 813.3066 997.6703)" class="st10 st15"> </text>
				<text transform="matrix(1 0 0 1 816.9066 997.6703)" class="st10 st15">Ut</text>
				<text transform="matrix(1 0 0 1 825.5067 997.6703)" class="st10 st15"> </text>
				<text transform="matrix(1 0 0 1 829.2067 997.6703)" class="st10 st15">wisi</text>
				<text transform="matrix(1 0 0 1 844.1067 997.6703)" class="st10 st15"> </text>
				<text transform="matrix(1 0 0 1 847.8066 997.6703)" class="st10 st15">enim</text>
				<text transform="matrix(1 0 0 1 867.4066 997.6703)" class="st10 st15"> </text>
				<text transform="matrix(1 0 0 1 871.1067 997.6703)" class="st10 st15">ad</text>
				<text transform="matrix(1 0 0 1 881.0067 997.6703)" class="st10 st15"> </text>
				<text transform="matrix(1 0 0 1 884.6067 997.6703)" class="st10 st15">minim </text>
				<text transform="matrix(1 0 0 1 725.3066 1012.0703)" class="st10 st15">veniam,</text>
				<text transform="matrix(1 0 0 1 755.9066 1012.0703)" class="st10 st15"> </text>
				<text transform="matrix(1 0 0 1 759.0067 1012.0703)" class="st10 st15">quis</text>
				<text transform="matrix(1 0 0 1 775.3066 1012.0703)" class="st10 st15"> </text>
				<text transform="matrix(1 0 0 1 778.4066 1012.0703)" class="st10 st15">nostrud</text>
				<text transform="matrix(1 0 0 1 808.5067 1012.0703)" class="st10 st15"> </text>
				<text transform="matrix(1 0 0 1 811.5067 1012.0703)" class="st10 st15">exerci</text>
				<text transform="matrix(1 0 0 1 834.2067 1012.0703)" class="st10 st15"> </text>
				<text transform="matrix(1 0 0 1 837.2067 1012.0703)" class="st10 st15">tation</text>
				<text transform="matrix(1 0 0 1 859.4066 1012.0703)" class="st10 st15"> </text>
				<text transform="matrix(1 0 0 1 862.5067 1012.0703)" class="st10 st15">ullamcorper </text>
				<text transform="matrix(1 0 0 1 725.3066 1026.4702)" class="st10 st15">suscipit</text>
				<text transform="matrix(1 0 0 1 754.1067 1026.4702)" class="st10 st15"> </text>
				<text transform="matrix(1 0 0 1 757.0067 1026.4702)" class="st10 st15">lobortis</text>
				<text transform="matrix(1 0 0 1 786.4066 1026.4702)" class="st10 st15"> </text>
				<text transform="matrix(1 0 0 1 789.4066 1026.4702)" class="st10 st15">nisl</text>
				<text transform="matrix(1 0 0 1 802.8066 1026.4702)" class="st10 st15"> </text>
				<text transform="matrix(1 0 0 1 805.8066 1026.4702)" class="st10 st15">ut</text>
				<text transform="matrix(1 0 0 1 813.5067 1026.4702)" class="st10 st15"> </text>
				<text transform="matrix(1 0 0 1 816.5067 1026.4702)" class="st10 st15">aliquip</text>
				<text transform="matrix(1 0 0 1 843.4066 1026.4702)" class="st10 st15"> </text>
				<text transform="matrix(1 0 0 1 846.4066 1026.4702)" class="st10 st15">ex</text>
				<text transform="matrix(1 0 0 1 855.1067 1026.4702)" class="st10 st15"> </text>
				<text transform="matrix(1 0 0 1 858.1067 1026.4702)" class="st10 st15">ea</text>
				<text transform="matrix(1 0 0 1 867.4066 1026.4702)" class="st10 st15"> </text>
				<text transform="matrix(1 0 0 1 870.4066 1026.4702)" class="st10 st15">commodo </text>
				<text transform="matrix(1 0 0 1 725.3066 1040.8701)" class="st10 st15">consequat.</text>
				<text transform="matrix(1 0 0 1 767.6067 1040.8701)" class="st10 st15"> </text>
				<text transform="matrix(1 0 0 1 770.9066 1040.8701)" class="st10 st15">Duis</text>
				<text transform="matrix(1 0 0 1 787.9066 1040.8701)" class="st10 st15"> </text>
				<text transform="matrix(1 0 0 1 791.2067 1040.8701)" class="st10 st15">autem</text>
				<text transform="matrix(1 0 0 1 815.8066 1040.8701)" class="st10 st15"> </text>
				<text transform="matrix(1 0 0 1 819.1067 1040.8701)" class="st10 st15">vel</text>
				<text transform="matrix(1 0 0 1 829.9066 1040.8701)" class="st10 st15"> </text>
				<text transform="matrix(1 0 0 1 833.2067 1040.8701)" class="st10 st15">eum</text>
				<text transform="matrix(1 0 0 1 850.7067 1040.8701)" class="st10 st15"> </text>
				<text transform="matrix(1 0 0 1 854.0067 1040.8701)" class="st10 st15">iriure</text>
				<text transform="matrix(1 0 0 1 874.8066 1040.8701)" class="st10 st15"> </text>
				<text transform="matrix(1 0 0 1 878.1067 1040.8701)" class="st10 st15">dolor</text>
				<text transform="matrix(1 0 0 1 898.9066 1040.8701)" class="st10 st15"> </text>
				<text transform="matrix(1 0 0 1 902.2067 1040.8701)" class="st10 st15">in </text>
				<text transform="matrix(1 0 0 1 725.3066 1055.2701)" class="st10 st15">hendrerit</text>
				<text transform="matrix(1 0 0 1 761.6067 1055.2701)" class="st10 st15"> </text>
				<text transform="matrix(1 0 0 1 763.8066 1055.2701)" class="st10 st15">in</text>
				<text transform="matrix(1 0 0 1 771.2067 1055.2701)" class="st10 st15"> </text>
				<text transform="matrix(1 0 0 1 773.5067 1055.2701)" class="st10 st15">vulputate</text>
				<text transform="matrix(1 0 0 1 809.5067 1055.2701)" class="st10 st15"> </text>
				<text transform="matrix(1 0 0 1 811.8066 1055.2701)" class="st10 st15">velit</text>
				<text transform="matrix(1 0 0 1 827.5067 1055.2701)" class="st10 st15"> </text>
				<text transform="matrix(1 0 0 1 829.8066 1055.2701)" class="st10 st15">esse</text>
				<text transform="matrix(1 0 0 1 846.7067 1055.2701)" class="st10 st15"> </text>
				<text transform="matrix(1 0 0 1 849.0067 1055.2701)" class="st10 st15">molestie</text>
				<text transform="matrix(1 0 0 1 881.9066 1055.2701)" class="st10 st15"> </text>
				<text transform="matrix(1 0 0 1 884.2067 1055.2701)" class="st10 st15">conse</text>
				<text transform="matrix(1 0 0 1 906.5067 1055.2701)" class="st10 st15">-</text>
				<text transform="matrix(1 0 0 1 725.3066 1069.6702)" class="st10 st15">quat,</text>
				<text transform="matrix(1 0 0 1 745.3066 1069.6702)" class="st10 st15"> </text>
				<text transform="matrix(1 0 0 1 747.6067 1069.6702)" class="st10 st15">vel</text>
				<text transform="matrix(1 0 0 1 758.4066 1069.6702)" class="st10 st15"> </text>
				<text transform="matrix(1 0 0 1 760.7067 1069.6702)" class="st10 st15">illum</text>
				<text transform="matrix(1 0 0 1 780.2067 1069.6702)" class="st10 st15"> </text>
				<text transform="matrix(1 0 0 1 782.5067 1069.6702)" class="st10 st15">dolore</text>
				<text transform="matrix(1 0 0 1 807.9066 1069.6702)" class="st10 st15"> </text>
				<text transform="matrix(1 0 0 1 810.2067 1069.6702)" class="st10 st15">eu</text>
				<text transform="matrix(1 0 0 1 820.0067 1069.6702)" class="st10 st15"> </text>
				<text transform="matrix(1 0 0 1 822.3066 1069.6702)" class="st10 st15">feugiat</text>
				<text transform="matrix(1 0 0 1 848.6067 1069.6702)" class="st10 st15"> </text>
				<text transform="matrix(1 0 0 1 850.9066 1069.6702)" class="st10 st15">nulla</text>
				<text transform="matrix(1 0 0 1 870.2067 1069.6702)" class="st10 st15"> </text>
				<text transform="matrix(1 0 0 1 872.5067 1069.6702)" class="st10 st15">facilisis</text>
				<text transform="matrix(1 0 0 1 900.0067 1069.6702)" class="st10 st15"> </text>
				<text transform="matrix(1 0 0 1 902.3066 1069.6702)" class="st10 st15">at </text>
				<text transform="matrix(1 0 0 1 725.3066 1084.0702)" class="st10 st15">vero</text>
				<text transform="matrix(1 0 0 1 742.1067 1084.0702)" class="st10 st15"> </text>
				<text transform="matrix(1 0 0 1 745.7067 1084.0702)" class="st10 st15">eros</text>
				<text transform="matrix(1 0 0 1 762.4066 1084.0702)" class="st10 st15"> </text>
				<text transform="matrix(1 0 0 1 766.0067 1084.0702)" class="st10 st15">et</text>
				<text transform="matrix(1 0 0 1 773.3066 1084.0702)" class="st10 st15"> </text>
				<text transform="matrix(1 0 0 1 776.9066 1084.0702)" class="st10 st15">accumsan</text>
				<text transform="matrix(1 0 0 1 815.1067 1084.0702)" class="st10 st15"> </text>
				<text transform="matrix(1 0 0 1 818.7067 1084.0702)" class="st10 st15">et</text>
				<text transform="matrix(1 0 0 1 826.0067 1084.0702)" class="st10 st15"> </text>
				<text transform="matrix(1 0 0 1 829.6067 1084.0702)" class="st10 st15">iusto</text>
				<text transform="matrix(1 0 0 1 848.3066 1084.0702)" class="st10 st15"> </text>
				<text transform="matrix(1 0 0 1 851.9066 1084.0702)" class="st10 st15">odio</text>
				<text transform="matrix(1 0 0 1 869.3066 1084.0702)" class="st10 st15"> </text>
				<text transform="matrix(1 0 0 1 872.9066 1084.0702)" class="st10 st15">dignissim </text>
				<text transform="matrix(1 0 0 1 725.3066 1098.4702)" class="st10 st15">qui</text>
				<text transform="matrix(1 0 0 1 737.9066 1098.4702)" class="st10 st15 st16"> </text>
				<text transform="matrix(1 0 0 1 744.7067 1098.4702)" class="st10 st15">blandit</text>
				<text transform="matrix(1 0 0 1 772.0067 1098.4702)" class="st10 st15 st16"> </text>
				<text transform="matrix(1 0 0 1 778.8066 1098.4702)" class="st10 st15">praesent</text>
				<text transform="matrix(1 0 0 1 812.9066 1098.4702)" class="st10 st15 st16"> </text>
				<text transform="matrix(1 0 0 1 819.7067 1098.4702)" class="st10 st15">luptatum</text>
				<text transform="matrix(1 0 0 1 854.9066 1098.4702)" class="st10 st15 st16"> </text>
				<text transform="matrix(1 0 0 1 861.7067 1098.4702)" class="st10 st15">zzril</text>
				<text transform="matrix(1 0 0 1 875.8066 1098.4702)" class="st10 st15 st16"> </text>
				<text transform="matrix(1 0 0 1 882.6067 1098.4702)" class="st10 st15">delenit </text>
				<text transform="matrix(1 0 0 1 738.2067 1112.8701)" class="st10 st15">augue duis dolore te feugait nulla facilisi.</text>
				<text transform="matrix(1 0 0 1 737.7067 1127.2701)" class="st10 st15">augue duis dolore te feugait nulla facilisi.</text>
			</g>
		</g>
	</g>
</g>
<text transform="matrix(1 0 0 1 1023.0516 955.486)" class="st10 st15">Lore</text>
<text transform="matrix(1 0 0 1 1042.4517 955.486)" class="st10 st15">m </text>
<text transform="matrix(1 0 0 1 986.0516 969.886)" class="st10 st15">ipsum</text>
<text transform="matrix(1 0 0 1 1010.0516 969.886)" class="st10 st15 st17"> </text>
<text transform="matrix(1 0 0 1 1018.9517 969.886)" class="st10 st15">dolor</text>
<text transform="matrix(1 0 0 1 1039.6516 969.886)" class="st10 st15 st17"> </text>
<text transform="matrix(1 0 0 1 1048.5516 969.886)" class="st10 st15">sit</text>
<text transform="matrix(1 0 0 1 1057.1516 969.886)" class="st10 st15 st17"> </text>
<text transform="matrix(1 0 0 1 1066.0516 969.886)" class="st10 st15">amet, </text>
<text transform="matrix(1 0 0 1 969.1516 984.2859)" class="st10 st15">consectetuer</text>
<text transform="matrix(1 0 0 1 1018.2517 984.2859)" class="st10 st15 st16"> </text>
<text transform="matrix(1 0 0 1 1024.8517 984.2859)" class="st10 st15">adipiscing</text>
<text transform="matrix(1 0 0 1 1063.6516 984.2859)" class="st10 st15 st16"> </text>
<text transform="matrix(1 0 0 1 1070.2516 984.2859)" class="st10 st15">elit,</text>
<text transform="matrix(1 0 0 1 1084.6516 984.2859)" class="st10 st15 st16"> </text>
<text transform="matrix(1 0 0 1 1091.2516 984.2859)" class="st10 st15">sed </text>
<text transform="matrix(1 0 0 1 958.2517 998.686)" class="st10 st15">diam</text>
<text transform="matrix(1 0 0 1 978.0516 998.686)" class="st10 st15"> </text>
<text transform="matrix(1 0 0 1 981.2517 998.686)" class="st10 st15">nonummy</text>
<text transform="matrix(1 0 0 1 1020.6516 998.686)" class="st10 st15"> </text>
<text transform="matrix(1 0 0 1 1023.9517 998.686)" class="st10 st15">nibh</text>
<text transform="matrix(1 0 0 1 1041.5516 998.686)" class="st10 st15"> </text>
<text transform="matrix(1 0 0 1 1044.8517 998.686)" class="st10 st15">euismod</text>
<text transform="matrix(1 0 0 1 1078.5516 998.686)" class="st10 st15"> </text>
<text transform="matrix(1 0 0 1 1081.8517 998.686)" class="st10 st15">tincidunt </text>
<text transform="matrix(1 0 0 1 951.1516 1013.0859)" class="st10 st15">ut</text>
<text transform="matrix(1 0 0 1 958.8517 1013.0859)" class="st10 st15 st16"> </text>
<text transform="matrix(1 0 0 1 966.5516 1013.0859)" class="st10 st15">laoreet</text>
<text transform="matrix(1 0 0 1 993.7517 1013.0859)" class="st10 st15 st16"> </text>
<text transform="matrix(1 0 0 1 1001.3517 1013.0859)" class="st10 st15">dolore</text>
<text transform="matrix(1 0 0 1 1026.8517 1013.0859)" class="st10 st15 st16"> </text>
<text transform="matrix(1 0 0 1 1034.4517 1013.0859)" class="st10 st15">magna</text>
<text transform="matrix(1 0 0 1 1060.7516 1013.0859)" class="st10 st15 st16"> </text>
<text transform="matrix(1 0 0 1 1068.4517 1013.0859)" class="st10 st15">aliquam</text>
<text transform="matrix(1 0 0 1 1100.0516 1013.0859)" class="st10 st15 st16"> </text>
<text transform="matrix(1 0 0 1 1107.7516 1013.0859)" class="st10 st15">erat </text>
<text transform="matrix(1 0 0 1 946.8517 1027.4858)" class="st10 st15">volutpat.</text>
<text transform="matrix(1 0 0 1 980.6516 1027.4858)" class="st10 st15"> </text>
<text transform="matrix(1 0 0 1 983.7517 1027.4858)" class="st10 st15">Ut</text>
<text transform="matrix(1 0 0 1 992.2517 1027.4858)" class="st10 st15"> </text>
<text transform="matrix(1 0 0 1 995.4517 1027.4858)" class="st10 st15">wisi</text>
<text transform="matrix(1 0 0 1 1010.2517 1027.4858)" class="st10 st15"> </text>
<text transform="matrix(1 0 0 1 1013.4517 1027.4858)" class="st10 st15">enim</text>
<text transform="matrix(1 0 0 1 1033.1516 1027.4858)" class="st10 st15"> </text>
<text transform="matrix(1 0 0 1 1036.2516 1027.4858)" class="st10 st15">ad</text>
<text transform="matrix(1 0 0 1 1046.0516 1027.4858)" class="st10 st15"> </text>
<text transform="matrix(1 0 0 1 1049.1516 1027.4858)" class="st10 st15">minim</text>
<text transform="matrix(1 0 0 1 1074.0516 1027.4858)" class="st10 st15"> </text>
<text transform="matrix(1 0 0 1 1077.1516 1027.4858)" class="st10 st15">veniam,</text>
<text transform="matrix(1 0 0 1 1107.7516 1027.4858)" class="st10 st15"> </text>
<text transform="matrix(1 0 0 1 1110.8517 1027.4858)" class="st10 st15">quis </text>
<text transform="matrix(1 0 0 1 945.0516 1041.8859)" class="st10 st15">nostrud</text>
<text transform="matrix(1 0 0 1 975.1516 1041.8859)" class="st10 st15"> </text>
<text transform="matrix(1 0 0 1 977.0516 1041.8859)" class="st10 st15">exerci</text>
<text transform="matrix(1 0 0 1 999.6516 1041.8859)" class="st10 st15"> </text>
<text transform="matrix(1 0 0 1 1001.6516 1041.8859)" class="st10 st15">tation</text>
<text transform="matrix(1 0 0 1 1023.8517 1041.8859)" class="st10 st15"> </text>
<text transform="matrix(1 0 0 1 1025.7516 1041.8859)" class="st10 st15">ullamcorper</text>
<text transform="matrix(1 0 0 1 1072.7516 1041.8859)" class="st10 st15"> </text>
<text transform="matrix(1 0 0 1 1074.6516 1041.8859)" class="st10 st15">suscipit</text>
<text transform="matrix(1 0 0 1 1103.4517 1041.8859)" class="st10 st15"> </text>
<text transform="matrix(1 0 0 1 1105.3517 1041.8859)" class="st10 st15">lobor</text>
<text transform="matrix(1 0 0 1 1126.0516 1041.8859)" class="st10 st15">-</text>
<text transform="matrix(1 0 0 1 946.8517 1056.2859)" class="st10 st15">tis</text>
<text transform="matrix(1 0 0 1 955.4517 1056.2859)" class="st10 st15"> </text>
<text transform="matrix(1 0 0 1 958.9517 1056.2859)" class="st10 st15">nisl</text>
<text transform="matrix(1 0 0 1 972.3517 1056.2859)" class="st10 st15"> </text>
<text transform="matrix(1 0 0 1 975.8517 1056.2859)" class="st10 st15">ut</text>
<text transform="matrix(1 0 0 1 983.5516 1056.2859)" class="st10 st15"> </text>
<text transform="matrix(1 0 0 1 987.0516 1056.2859)" class="st10 st15">aliquip</text>
<text transform="matrix(1 0 0 1 1013.9517 1056.2859)" class="st10 st15"> </text>
<text transform="matrix(1 0 0 1 1017.4517 1056.2859)" class="st10 st15">ex</text>
<text transform="matrix(1 0 0 1 1026.1516 1056.2859)" class="st10 st15"> </text>
<text transform="matrix(1 0 0 1 1029.5516 1056.2859)" class="st10 st15">ea</text>
<text transform="matrix(1 0 0 1 1038.8517 1056.2859)" class="st10 st15"> </text>
<text transform="matrix(1 0 0 1 1042.3517 1056.2859)" class="st10 st15">commodo</text>
<text transform="matrix(1 0 0 1 1081.5516 1056.2859)" class="st10 st15"> </text>
<text transform="matrix(1 0 0 1 1085.0516 1056.2859)" class="st10 st15">consequat. </text>
<text transform="matrix(1 0 0 1 951.0516 1070.6859)" class="st10 st15">Duis</text>
<text transform="matrix(1 0 0 1 967.9517 1070.6859)" class="st10 st15"> </text>
<text transform="matrix(1 0 0 1 970.4517 1070.6859)" class="st10 st15">autem</text>
<text transform="matrix(1 0 0 1 995.0516 1070.6859)" class="st10 st15"> </text>
<text transform="matrix(1 0 0 1 997.5516 1070.6859)" class="st10 st15">vel</text>
<text transform="matrix(1 0 0 1 1008.2517 1070.6859)" class="st10 st15"> </text>
<text transform="matrix(1 0 0 1 1010.7517 1070.6859)" class="st10 st15">eum</text>
<text transform="matrix(1 0 0 1 1028.1516 1070.6859)" class="st10 st15"> </text>
<text transform="matrix(1 0 0 1 1030.5516 1070.6859)" class="st10 st15">iriure</text>
<text transform="matrix(1 0 0 1 1051.4517 1070.6859)" class="st10 st15"> </text>
<text transform="matrix(1 0 0 1 1053.8517 1070.6859)" class="st10 st15">dolor</text>
<text transform="matrix(1 0 0 1 1074.6516 1070.6859)" class="st10 st15"> </text>
<text transform="matrix(1 0 0 1 1077.0516 1070.6859)" class="st10 st15">in</text>
<text transform="matrix(1 0 0 1 1084.4517 1070.6859)" class="st10 st15"> </text>
<text transform="matrix(1 0 0 1 1086.8517 1070.6859)" class="st10 st15">hendrerit </text>
<text transform="matrix(1 0 0 1 958.0516 1085.0859)" class="st10 st15">in</text>
<text transform="matrix(1 0 0 1 965.4517 1085.0859)" class="st10 st15"> </text>
<text transform="matrix(1 0 0 1 970.1516 1085.0859)" class="st10 st15">vulputate</text>
<text transform="matrix(1 0 0 1 1006.2517 1085.0859)" class="st10 st15"> </text>
<text transform="matrix(1 0 0 1 1010.9517 1085.0859)" class="st10 st15">velit</text>
<text transform="matrix(1 0 0 1 1026.6516 1085.0859)" class="st10 st15"> </text>
<text transform="matrix(1 0 0 1 1031.3517 1085.0859)" class="st10 st15">esse</text>
<text transform="matrix(1 0 0 1 1048.3517 1085.0859)" class="st10 st15"> </text>
<text transform="matrix(1 0 0 1 1053.0516 1085.0859)" class="st10 st15">molestie</text>
<text transform="matrix(1 0 0 1 1086.0516 1085.0859)" class="st10 st15"> </text>
<text transform="matrix(1 0 0 1 1090.7516 1085.0859)" class="st10 st15">conse</text>
<text transform="matrix(1 0 0 1 1113.0516 1085.0859)" class="st10 st15">-</text>
<text transform="matrix(1 0 0 1 968.8517 1099.4858)" class="st10 st15">quat,</text>
<text transform="matrix(1 0 0 1 988.8517 1099.4858)" class="st10 st15"> </text>
<text transform="matrix(1 0 0 1 993.7517 1099.4858)" class="st10 st15">vel</text>
<text transform="matrix(1 0 0 1 1004.5516 1099.4858)" class="st10 st15"> </text>
<text transform="matrix(1 0 0 1 1009.5516 1099.4858)" class="st10 st15">illum</text>
<text transform="matrix(1 0 0 1 1029.0516 1099.4858)" class="st10 st15"> </text>
<text transform="matrix(1 0 0 1 1033.9517 1099.4858)" class="st10 st15">dolore</text>
<text transform="matrix(1 0 0 1 1059.3517 1099.4858)" class="st10 st15"> </text>
<text transform="matrix(1 0 0 1 1064.2516 1099.4858)" class="st10 st15">eu</text>
<text transform="matrix(1 0 0 1 1074.0516 1099.4858)" class="st10 st15"> </text>
<text transform="matrix(1 0 0 1 1079.0516 1099.4858)" class="st10 st15">feugiat </text>
<text transform="matrix(1 0 0 1 985.5516 1113.8859)" class="st10 st15">nulla</text>
<text transform="matrix(1 0 0 1 1004.8517 1113.8859)" class="st10 st15 st17"> </text>
<text transform="matrix(1 0 0 1 1015.5516 1113.8859)" class="st10 st15">facilisis</text>
<text transform="matrix(1 0 0 1 1043.1516 1113.8859)" class="st10 st15 st17"> </text>
<text transform="matrix(1 0 0 1 1053.8517 1113.8859)" class="st10 st15">at</text>
<text transform="matrix(1 0 0 1 1061.0516 1113.8859)" class="st10 st15 st17"> </text>
<text transform="matrix(1 0 0 1 1071.8517 1113.8859)" class="st10 st15">vero </text>
<text transform="matrix(1 0 0 1 1022.6516 1128.2859)" class="st10 st15">praeset  </text>
</svg>
