<svg id="Livello_1" data-name="Livello 1" xmlns="http://www.w3.org/2000/svg" xmlns:xlink="http://www.w3.org/1999/xlink" viewBox="0 0 1190.55 1190.55"><defs><style>.cls-1,.cls-3,.cls-4,.cls-5{fill:none;}.cls-2{fill:#8dc63f;}.cls-3{stroke:#048040;}.cls-3,.cls-4,.cls-5{stroke-miterlimit:10;stroke-width:0.75px;}.cls-4{stroke:#3c51a3;}.cls-5{stroke:#ab1e34;}.cls-6{clip-path:url(#clip-path);}.cls-7{clip-path:url(#clip-path-2);}.cls-8{clip-path:url(#clip-path-3);}</style><clipPath id="clip-path"><rect class="cls-1" x="60.94" y="245.76" width="147.41" height="146.84"/></clipPath><clipPath id="clip-path-2"><rect class="cls-1" x="-83.72" y="153.23" width="683.24" height="382.85"/></clipPath><clipPath id="clip-path-3"><circle class="cls-1" cx="595.28" cy="595.28" r="283.46"/></clipPath></defs><title>32</title><rect class="cls-2" width="1190.55" height="1190.55"/><rect class="cls-1" x="318.9" y="224.28" width="169.32" height="169.32"/><rect class="cls-3" x="890.08" y="60.94" width="239.53" height="239.53"/><rect class="cls-3" x="613.7" y="60.94" width="239.53" height="239.53"/><rect class="cls-3" x="337.32" y="60.94" width="239.53" height="239.53"/><rect class="cls-3" x="60.94" y="60.94" width="239.53" height="239.53"/><rect class="cls-3" x="890.08" y="337.32" width="239.53" height="239.53"/><rect class="cls-3" x="613.7" y="337.32" width="239.53" height="239.53"/><rect class="cls-3" x="337.32" y="337.32" width="239.53" height="239.53"/><rect class="cls-3" x="60.94" y="337.32" width="239.53" height="239.53"/><rect class="cls-3" x="890.08" y="613.7" width="239.53" height="239.53"/><rect class="cls-3" x="613.7" y="613.7" width="239.53" height="239.53"/><rect class="cls-3" x="337.32" y="613.7" width="239.53" height="239.53"/><rect class="cls-3" x="60.94" y="613.7" width="239.53" height="239.53"/><rect class="cls-3" x="890.08" y="890.08" width="239.53" height="239.53"/><rect class="cls-3" x="613.7" y="890.08" width="239.53" height="239.53"/><rect class="cls-3" x="337.32" y="890.08" width="239.53" height="239.53"/><rect class="cls-3" x="60.94" y="890.08" width="239.53" height="239.53"/><rect class="cls-4" x="945.35" y="60.94" width="184.25" height="184.25"/><rect class="cls-4" x="724.25" y="60.94" width="184.25" height="184.25"/><rect class="cls-4" x="503.15" y="60.94" width="184.25" height="184.25"/><rect class="cls-4" x="282.05" y="60.94" width="184.25" height="184.25"/><rect class="cls-4" x="60.94" y="60.94" width="184.25" height="184.25"/><rect class="cls-4" x="945.35" y="282.05" width="184.25" height="184.25"/><rect class="cls-4" x="724.25" y="282.05" width="184.25" height="184.25"/><rect class="cls-4" x="503.15" y="282.05" width="184.25" height="184.25"/><rect class="cls-4" x="282.05" y="282.05" width="184.25" height="184.25"/><rect class="cls-4" x="60.94" y="282.05" width="184.25" height="184.25"/><rect class="cls-4" x="945.35" y="503.15" width="184.25" height="184.25"/><rect class="cls-4" x="724.25" y="503.15" width="184.25" height="184.25"/><rect class="cls-4" x="503.15" y="503.15" width="184.25" height="184.25"/><rect class="cls-4" x="282.05" y="503.15" width="184.25" height="184.25"/><rect class="cls-4" x="60.94" y="503.15" width="184.25" height="184.25"/><rect class="cls-4" x="945.35" y="724.25" width="184.25" height="184.25"/><rect class="cls-4" x="724.25" y="724.25" width="184.25" height="184.25"/><rect class="cls-4" x="503.15" y="724.25" width="184.25" height="184.25"/><rect class="cls-4" x="282.05" y="724.25" width="184.25" height="184.25"/><rect class="cls-4" x="60.94" y="724.25" width="184.25" height="184.25"/><rect class="cls-4" x="945.35" y="945.35" width="184.25" height="184.25"/><rect class="cls-4" x="724.25" y="945.35" width="184.25" height="184.25"/><rect class="cls-4" x="503.15" y="945.35" width="184.25" height="184.25"/><rect class="cls-4" x="282.05" y="945.35" width="184.25" height="184.25"/><rect class="cls-4" x="60.94" y="945.35" width="184.25" height="184.25"/><rect class="cls-5" x="60.94" y="60.94" width="147.4" height="147.4"/><rect class="cls-5" x="245.2" y="60.94" width="147.4" height="147.4"/><rect class="cls-5" x="429.45" y="60.94" width="147.4" height="147.4"/><rect class="cls-5" x="613.7" y="60.94" width="147.4" height="147.4"/><rect class="cls-5" x="797.95" y="60.94" width="147.4" height="147.4"/><rect class="cls-5" x="982.2" y="60.94" width="147.4" height="147.4"/><rect class="cls-5" x="60.94" y="245.2" width="147.4" height="147.4"/><rect class="cls-5" x="245.2" y="245.2" width="147.4" height="147.4"/><rect class="cls-5" x="429.45" y="245.2" width="147.4" height="147.4"/><rect class="cls-5" x="613.7" y="245.2" width="147.4" height="147.4"/><rect class="cls-5" x="797.95" y="245.2" width="147.4" height="147.4"/><rect class="cls-5" x="982.2" y="245.2" width="147.4" height="147.4"/><rect class="cls-5" x="60.94" y="429.45" width="147.4" height="147.4"/><rect class="cls-5" x="245.2" y="429.45" width="147.4" height="147.4"/><rect class="cls-5" x="429.45" y="429.45" width="147.4" height="147.4"/><rect class="cls-5" x="613.7" y="429.45" width="147.4" height="147.4"/><rect class="cls-5" x="797.95" y="429.45" width="147.4" height="147.4"/><rect class="cls-5" x="982.2" y="429.45" width="147.4" height="147.4"/><rect class="cls-5" x="60.94" y="613.7" width="147.4" height="147.4"/><rect class="cls-5" x="245.2" y="613.7" width="147.4" height="147.4"/><rect class="cls-5" x="429.45" y="613.7" width="147.4" height="147.4"/><rect class="cls-5" x="613.7" y="613.7" width="147.4" height="147.4"/><rect class="cls-5" x="797.95" y="613.7" width="147.4" height="147.4"/><rect class="cls-5" x="982.2" y="613.7" width="147.4" height="147.4"/><rect class="cls-5" x="60.94" y="797.95" width="147.4" height="147.4"/><rect class="cls-5" x="245.2" y="797.95" width="147.4" height="147.4"/><rect class="cls-5" x="429.45" y="797.95" width="147.4" height="147.4"/><rect class="cls-5" x="613.7" y="797.95" width="147.4" height="147.4"/><rect class="cls-5" x="797.95" y="797.95" width="147.4" height="147.4"/><rect class="cls-5" x="982.2" y="797.95" width="147.4" height="147.4"/><rect class="cls-5" x="60.94" y="982.2" width="147.4" height="147.4"/><rect class="cls-5" x="245.2" y="982.2" width="147.4" height="147.4"/><rect class="cls-5" x="429.45" y="982.2" width="147.4" height="147.4"/><rect class="cls-5" x="613.7" y="982.2" width="147.4" height="147.4"/><rect class="cls-5" x="797.95" y="982.2" width="147.4" height="147.4"/><rect class="cls-5" x="982.2" y="982.2" width="147.4" height="147.4"/><rect class="cls-1" x="318.9" y="223.28" width="169.32" height="169.32"/><g class="cls-6"><g class="cls-7"><image width="960" height="540" transform="translate(-83.72 153.23) scale(0.71 0.71)" xlink:href="890231_03.jpg"/></g></g><g class="cls-8"><image width="1024" height="690" transform="translate(240.9 282.98) scale(0.92)" xlink:href="890231_05.jpg"/></g><text></text></svg>