<svg id="Livello_1" data-name="Livello 1" xmlns="http://www.w3.org/2000/svg" viewBox="0 0 1190.55 1190.55"><defs><style>.cls-1{fill:#8dc63f;}.cls-2,.cls-3,.cls-4,.cls-5{fill:none;}.cls-2{stroke:#048040;}.cls-2,.cls-3,.cls-4{stroke-miterlimit:10;stroke-width:0.75px;}.cls-3{stroke:#2e3192;}.cls-4{stroke:#ed1c24;}</style></defs><title>Tavola disegno 1</title><rect class="cls-1" width="1190.55" height="1190.55"/><rect class="cls-2" x="890.08" y="61.94" width="239.53" height="239.53"/><rect class="cls-2" x="613.7" y="61.94" width="239.53" height="239.53"/><rect class="cls-2" x="337.32" y="61.94" width="239.53" height="239.53"/><rect class="cls-2" x="60.94" y="61.94" width="239.53" height="239.53"/><rect class="cls-2" x="890.08" y="338.32" width="239.53" height="239.53"/><rect class="cls-2" x="613.7" y="338.32" width="239.53" height="239.53"/><rect class="cls-2" x="337.32" y="338.32" width="239.53" height="239.53"/><rect class="cls-2" x="60.94" y="338.32" width="239.53" height="239.53"/><rect class="cls-2" x="890.08" y="614.7" width="239.53" height="239.53"/><rect class="cls-2" x="613.7" y="614.7" width="239.53" height="239.53"/><rect class="cls-2" x="337.32" y="614.7" width="239.53" height="239.53"/><rect class="cls-2" x="60.94" y="614.7" width="239.53" height="239.53"/><rect class="cls-2" x="890.08" y="891.08" width="239.53" height="239.53"/><rect class="cls-2" x="613.7" y="891.08" width="239.53" height="239.53"/><rect class="cls-2" x="337.32" y="891.08" width="239.53" height="239.53"/><rect class="cls-2" x="60.94" y="891.08" width="239.53" height="239.53"/><rect class="cls-3" x="945.35" y="61.94" width="184.25" height="184.25"/><rect class="cls-3" x="724.25" y="61.94" width="184.25" height="184.25"/><rect class="cls-3" x="503.15" y="61.94" width="184.25" height="184.25"/><rect class="cls-3" x="282.05" y="61.94" width="184.25" height="184.25"/><rect class="cls-3" x="60.94" y="61.94" width="184.25" height="184.25"/><rect class="cls-3" x="945.35" y="283.05" width="184.25" height="184.25"/><rect class="cls-3" x="724.25" y="283.05" width="184.25" height="184.25"/><rect class="cls-3" x="503.15" y="283.05" width="184.25" height="184.25"/><rect class="cls-3" x="282.05" y="283.05" width="184.25" height="184.25"/><rect class="cls-3" x="60.94" y="283.05" width="184.25" height="184.25"/><rect class="cls-3" x="945.35" y="504.15" width="184.25" height="184.25"/><rect class="cls-3" x="724.25" y="504.15" width="184.25" height="184.25"/><rect class="cls-3" x="503.15" y="504.15" width="184.25" height="184.25"/><rect class="cls-3" x="282.05" y="504.15" width="184.25" height="184.25"/><rect class="cls-3" x="60.94" y="504.15" width="184.25" height="184.25"/><rect class="cls-3" x="945.35" y="725.25" width="184.25" height="184.25"/><rect class="cls-3" x="724.25" y="725.25" width="184.25" height="184.25"/><rect class="cls-3" x="503.15" y="725.25" width="184.25" height="184.25"/><rect class="cls-3" x="282.05" y="725.25" width="184.25" height="184.25"/><rect class="cls-3" x="60.94" y="725.25" width="184.25" height="184.25"/><rect class="cls-3" x="945.35" y="946.35" width="184.25" height="184.25"/><rect class="cls-3" x="724.25" y="946.35" width="184.25" height="184.25"/><rect class="cls-3" x="503.15" y="946.35" width="184.25" height="184.25"/><rect class="cls-3" x="282.05" y="946.35" width="184.25" height="184.25"/><rect class="cls-3" x="60.94" y="946.35" width="184.25" height="184.25"/><rect class="cls-4" x="60.94" y="61.94" width="147.4" height="147.4"/><rect class="cls-4" x="245.2" y="61.94" width="147.4" height="147.4"/><rect class="cls-4" x="429.45" y="61.94" width="147.4" height="147.4"/><rect class="cls-4" x="613.7" y="61.94" width="147.4" height="147.4"/><rect class="cls-4" x="797.95" y="61.94" width="147.4" height="147.4"/><rect class="cls-4" x="982.2" y="61.94" width="147.4" height="147.4"/><rect class="cls-4" x="60.94" y="246.2" width="147.4" height="147.4"/><rect class="cls-4" x="245.2" y="246.2" width="147.4" height="147.4"/><rect class="cls-4" x="429.45" y="246.2" width="147.4" height="147.4"/><rect class="cls-4" x="613.7" y="246.2" width="147.4" height="147.4"/><rect class="cls-4" x="797.95" y="246.2" width="147.4" height="147.4"/><rect class="cls-4" x="982.2" y="246.2" width="147.4" height="147.4"/><rect class="cls-4" x="60.94" y="430.45" width="147.4" height="147.4"/><rect class="cls-4" x="245.2" y="430.45" width="147.4" height="147.4"/><rect class="cls-4" x="429.45" y="430.45" width="147.4" height="147.4"/><rect class="cls-4" x="613.7" y="430.45" width="147.4" height="147.4"/><rect class="cls-4" x="797.95" y="430.45" width="147.4" height="147.4"/><rect class="cls-4" x="982.2" y="430.45" width="147.4" height="147.4"/><rect class="cls-4" x="60.94" y="614.7" width="147.4" height="147.4"/><rect class="cls-4" x="245.2" y="614.7" width="147.4" height="147.4"/><rect class="cls-4" x="429.45" y="614.7" width="147.4" height="147.4"/><rect class="cls-4" x="613.7" y="614.7" width="147.4" height="147.4"/><rect class="cls-4" x="797.95" y="614.7" width="147.4" height="147.4"/><rect class="cls-4" x="982.2" y="614.7" width="147.4" height="147.4"/><rect class="cls-4" x="60.94" y="798.95" width="147.4" height="147.4"/><rect class="cls-4" x="245.2" y="798.95" width="147.4" height="147.4"/><rect class="cls-4" x="429.45" y="798.95" width="147.4" height="147.4"/><rect class="cls-4" x="613.7" y="798.95" width="147.4" height="147.4"/><rect class="cls-4" x="797.95" y="798.95" width="147.4" height="147.4"/><rect class="cls-4" x="982.2" y="798.95" width="147.4" height="147.4"/><rect class="cls-4" x="60.94" y="983.2" width="147.4" height="147.4"/><rect class="cls-4" x="245.2" y="983.2" width="147.4" height="147.4"/><rect class="cls-4" x="429.45" y="983.2" width="147.4" height="147.4"/><rect class="cls-4" x="613.7" y="983.2" width="147.4" height="147.4"/><rect class="cls-4" x="797.95" y="983.2" width="147.4" height="147.4"/><rect class="cls-4" x="982.2" y="983.2" width="147.4" height="147.4"/><rect class="cls-5" x="318.9" y="224.28" width="169.32" height="169.32"/></svg>