<?xml version="1.0" encoding="utf-8"?>
<!-- Generator: Adobe Illustrator 19.0.0, SVG Export Plug-In . SVG Version: 6.00 Build 0)  -->
<svg version="1.1" id="Livello_1" xmlns="http://www.w3.org/2000/svg" xmlns:xlink="http://www.w3.org/1999/xlink" x="0px" y="0px"
	 viewBox="0 -175.7 1190.6 1190.6" style="enable-background:new 0 -175.7 1190.6 1190.6;" xml:space="preserve">
<style type="text/css">
	.st0{fill:#D57CB1;}
	.st1{fill:none;stroke:#9ACF9C;stroke-width:2;stroke-miterlimit:10;}
	.st2{fill:none;stroke:#42C0ED;stroke-width:2;stroke-miterlimit:10;}
	.st3{fill:none;stroke:#FFF02A;stroke-width:2;stroke-miterlimit:10;}
	.st4{clip-path:url(#SVGID_2_);enable-background:new    ;}
</style>
<g id="Livello_1_1_">
	<rect id="XMLID_1_" y="-175.7" class="st0" width="1190.6" height="1190.6"/>
</g>
<g id="Livello_2">
	<rect id="XMLID_2_" x="60.4" y="-113.8" class="st1" width="239.5" height="239.5"/>
	<rect id="XMLID_3_" x="60.4" y="713.4" class="st1" width="239.5" height="239.5"/>
	<rect id="XMLID_4_" x="60.4" y="437.7" class="st1" width="239.5" height="239.5"/>
	<rect id="XMLID_5_" x="60.4" y="161.9" class="st1" width="239.5" height="239.5"/>
	<rect id="XMLID_30_" x="889.3" y="-113.8" class="st1" width="239.5" height="239.5"/>
	<rect id="XMLID_29_" x="889.3" y="713.4" class="st1" width="239.5" height="239.5"/>
	<rect id="XMLID_28_" x="889.3" y="437.7" class="st1" width="239.5" height="239.5"/>
	<rect id="XMLID_27_" x="889.3" y="161.9" class="st1" width="239.5" height="239.5"/>
	<rect id="XMLID_18_" x="336.7" y="-113.8" class="st1" width="239.5" height="239.5"/>
	<rect id="XMLID_17_" x="336.7" y="713.4" class="st1" width="239.5" height="239.5"/>
	<rect id="XMLID_16_" x="336.7" y="437.7" class="st1" width="239.5" height="239.5"/>
	<rect id="XMLID_7_" x="336.7" y="161.9" class="st1" width="239.5" height="239.5"/>
	<rect id="XMLID_23_" x="613" y="-113.8" class="st1" width="239.5" height="239.5"/>
	<rect id="XMLID_22_" x="613" y="713.4" class="st1" width="239.5" height="239.5"/>
	<rect id="XMLID_21_" x="613" y="437.7" class="st1" width="239.5" height="239.5"/>
	<rect id="XMLID_20_" x="613" y="161.9" class="st1" width="239.5" height="239.5"/>
</g>
<rect id="XMLID_6_" x="60.4" y="-113.8" class="st2" width="184.3" height="184.3"/>
<rect id="XMLID_8_" x="944.6" y="-113.8" class="st2" width="184.3" height="184.3"/>
<rect id="XMLID_9_" x="723.6" y="-113.8" class="st2" width="184.3" height="184.3"/>
<rect id="XMLID_10_" x="502.5" y="-113.8" class="st2" width="184.3" height="184.3"/>
<rect id="XMLID_11_" x="281.5" y="-113.8" class="st2" width="184.3" height="184.3"/>
<rect id="XMLID_39_" x="60.4" y="327.4" class="st2" width="184.3" height="184.3"/>
<rect id="XMLID_38_" x="944.6" y="327.4" class="st2" width="184.3" height="184.3"/>
<rect id="XMLID_37_" x="723.6" y="327.4" class="st2" width="184.3" height="184.3"/>
<rect id="XMLID_36_" x="502.5" y="327.4" class="st2" width="184.3" height="184.3"/>
<rect id="XMLID_35_" x="281.5" y="327.4" class="st2" width="184.3" height="184.3"/>
<rect id="XMLID_46_" x="60.4" y="548.9" class="st2" width="184.3" height="184.3"/>
<rect id="XMLID_45_" x="944.6" y="548.9" class="st2" width="184.3" height="184.3"/>
<rect id="XMLID_44_" x="723.6" y="548.9" class="st2" width="184.3" height="184.3"/>
<rect id="XMLID_43_" x="502.5" y="548.9" class="st2" width="184.3" height="184.3"/>
<rect id="XMLID_42_" x="281.5" y="548.9" class="st2" width="184.3" height="184.3"/>
<rect id="XMLID_53_" x="60.4" y="768.7" class="st2" width="184.3" height="184.3"/>
<rect id="XMLID_52_" x="944.6" y="768.7" class="st2" width="184.3" height="184.3"/>
<rect id="XMLID_51_" x="723.6" y="768.7" class="st2" width="184.3" height="184.3"/>
<rect id="XMLID_50_" x="502.5" y="768.7" class="st2" width="184.3" height="184.3"/>
<rect id="XMLID_49_" x="281.5" y="768.7" class="st2" width="184.3" height="184.3"/>
<rect id="XMLID_32_" x="60.4" y="107.6" class="st2" width="184.3" height="184.3"/>
<rect id="XMLID_31_" x="944.6" y="107.6" class="st2" width="184.3" height="184.3"/>
<rect id="XMLID_26_" x="723.6" y="107.6" class="st2" width="184.3" height="184.3"/>
<rect id="XMLID_25_" x="502.5" y="107.6" class="st2" width="184.3" height="184.3"/>
<g id="XMLID_80_">
	<rect id="XMLID_12_" x="60.4" y="-113.8" class="st3" width="147.4" height="147.4"/>
	<rect id="XMLID_13_" x="797.3" y="-113.8" class="st3" width="147.4" height="147.4"/>
	<rect id="XMLID_14_" x="613.1" y="-113.8" class="st3" width="147.4" height="147.4"/>
	<rect id="XMLID_15_" x="428.9" y="-113.8" class="st3" width="147.4" height="147.4"/>
	<rect id="XMLID_19_" x="244.7" y="-113.8" class="st3" width="147.4" height="147.4"/>
	<rect id="XMLID_33_" x="981.5" y="-113.8" class="st3" width="147.4" height="147.4"/>
</g>
<g id="XMLID_81_">
	<rect id="XMLID_55_" x="60.4" y="70.3" class="st3" width="147.4" height="147.4"/>
	<rect id="XMLID_54_" x="797.3" y="70.3" class="st3" width="147.4" height="147.4"/>
	<rect id="XMLID_48_" x="613.1" y="70.3" class="st3" width="147.4" height="147.4"/>
	<rect id="XMLID_47_" x="428.9" y="70.3" class="st3" width="147.4" height="147.4"/>
	<rect id="XMLID_41_" x="244.7" y="70.3" class="st3" width="147.4" height="147.4"/>
	<rect id="XMLID_40_" x="981.5" y="70.3" class="st3" width="147.4" height="147.4"/>
</g>
<g id="XMLID_82_">
	<rect id="XMLID_61_" x="60.4" y="254.5" class="st3" width="147.4" height="147.4"/>
	<rect id="XMLID_60_" x="797.3" y="254.5" class="st3" width="147.4" height="147.4"/>
	<rect id="XMLID_59_" x="613.1" y="254.5" class="st3" width="147.4" height="147.4"/>
	<rect id="XMLID_58_" x="428.9" y="254.5" class="st3" width="147.4" height="147.4"/>
	<rect id="XMLID_57_" x="244.7" y="254.5" class="st3" width="147.4" height="147.4"/>
	<rect id="XMLID_56_" x="981.5" y="254.5" class="st3" width="147.4" height="147.4"/>
</g>
<g id="XMLID_83_">
	<rect id="XMLID_67_" x="60.4" y="438.6" class="st3" width="147.4" height="147.4"/>
	<rect id="XMLID_66_" x="797.3" y="438.6" class="st3" width="147.4" height="147.4"/>
	<rect id="XMLID_65_" x="613.1" y="438.6" class="st3" width="147.4" height="147.4"/>
	<rect id="XMLID_64_" x="428.9" y="438.6" class="st3" width="147.4" height="147.4"/>
	<rect id="XMLID_63_" x="244.7" y="438.6" class="st3" width="147.4" height="147.4"/>
	<rect id="XMLID_62_" x="981.5" y="438.6" class="st3" width="147.4" height="147.4"/>
</g>
<g id="XMLID_84_">
	<rect id="XMLID_73_" x="60.4" y="622.7" class="st3" width="147.4" height="147.4"/>
	<rect id="XMLID_72_" x="797.3" y="622.7" class="st3" width="147.4" height="147.4"/>
	<rect id="XMLID_71_" x="613.1" y="622.7" class="st3" width="147.4" height="147.4"/>
	<rect id="XMLID_70_" x="428.9" y="622.7" class="st3" width="147.4" height="147.4"/>
	<rect id="XMLID_69_" x="244.7" y="622.7" class="st3" width="147.4" height="147.4"/>
	<rect id="XMLID_68_" x="981.5" y="622.7" class="st3" width="147.4" height="147.4"/>
</g>
<g id="XMLID_34_">
	<rect id="XMLID_79_" x="60.4" y="806.8" class="st3" width="147.4" height="147.4"/>
	<rect id="XMLID_78_" x="797.3" y="806.8" class="st3" width="147.4" height="147.4"/>
	<rect id="XMLID_77_" x="613.1" y="806.8" class="st3" width="147.4" height="147.4"/>
	<rect id="XMLID_76_" x="428.9" y="806.8" class="st3" width="147.4" height="147.4"/>
	<rect id="XMLID_75_" x="244.7" y="806.8" class="st3" width="147.4" height="147.4"/>
	<rect id="XMLID_74_" x="981.5" y="806.8" class="st3" width="147.4" height="147.4"/>
</g>
<g>
	<g>
		<defs>
			<rect id="SVGID_1_" x="281.5" y="107.6" width="184.3" height="184.3"/>
		</defs>
		<clipPath id="SVGID_2_">
			<use xlink:href="#SVGID_1_"  style="overflow:visible;"/>
		</clipPath>
		<g class="st4">
			
				<image style="overflow:visible;enable-background:new    ;" width="3264" height="2448" xlink:href="891060_03.jpeg"  transform="matrix(0.1242 0 0 0.1242 281.5 107.58)">
			</image>
		</g>
	</g>
</g>
<g>
	<defs>
		<circle id="SVGID_3_" cx="797.3" cy="199.7" r="113.2"/>
	</defs>
	<clipPath id="SVGID_4_">
		<use xlink:href="#SVGID_3_"  style="overflow:visible;"/>
	</clipPath>
	<g transform="matrix(1 0 0 1 -6.103516e-05 0)" style="clip-path:url(#SVGID_4_);">
		
			<image style="overflow:visible;" width="2453" height="3272" xlink:href="891060_05.jpeg"  transform="matrix(0.1366 0 0 0.1366 642.2954 -23.7838)">
		</image>
	</g>
</g>
</svg>
