<svg xmlns="http://www.w3.org/2000/svg" xmlns:xlink="http://www.w3.org/1999/xlink" viewBox="0 0 1190.55 1190.55"><defs><style>.cls-1,.cls-19,.cls-22,.cls-26,.cls-28,.cls-29,.cls-3,.cls-31,.cls-33,.cls-34,.cls-35,.cls-36,.cls-37,.cls-39,.cls-4,.cls-5{fill:none;}.cls-2{fill:#a8dee9;}.cls-3{stroke:#6abd45;}.cls-3,.cls-37,.cls-4,.cls-5{stroke-miterlimit:10;}.cls-4{stroke:#ee2724;}.cls-5{stroke:#f8ec00;}.cls-6{clip-path:url(#clip-path);}.cls-11,.cls-12,.cls-7,.cls-8,.cls-9{isolation:isolate;}.cls-8,.cls-9{font-size:60px;font-family:OpenSans-CondensedBold, Open Sans Condensed;font-weight:700;}.cls-8{letter-spacing:-0.02em;}.cls-10{clip-path:url(#clip-path-2);}.cls-11{font-size:16px;font-family:OpenSans-Light, Open Sans;}.cls-12{font-size:10px;font-family:EBGaramond-Italic, EB Garamond;font-style:italic;}.cls-13{fill:#1d7499;}.cls-13,.cls-14,.cls-15,.cls-16,.cls-18,.cls-19,.cls-20,.cls-21,.cls-22,.cls-26,.cls-28,.cls-29,.cls-30,.cls-31,.cls-32,.cls-33,.cls-34,.cls-35,.cls-36,.cls-39,.cls-41,.cls-42,.cls-43,.cls-44,.cls-45{stroke:#000;stroke-linejoin:round;}.cls-13,.cls-14,.cls-15,.cls-16,.cls-18,.cls-19,.cls-20,.cls-21,.cls-22,.cls-26,.cls-28,.cls-29,.cls-30,.cls-31,.cls-32,.cls-33,.cls-34,.cls-35,.cls-36,.cls-37,.cls-39,.cls-41,.cls-42,.cls-43,.cls-44,.cls-45{stroke-linecap:round;}.cls-13,.cls-14,.cls-15,.cls-16,.cls-18,.cls-19,.cls-20,.cls-21,.cls-30,.cls-32,.cls-41,.cls-42,.cls-43,.cls-44,.cls-45{stroke-width:0.27px;}.cls-14{fill:#962b59;}.cls-15{fill:#afffdb;}.cls-16{fill:#784200;}.cls-17,.cls-32{fill:#999;}.cls-18{fill:#ccc;}.cls-21{fill:#864343;}.cls-22{stroke-width:0.72px;}.cls-23{fill:#dcdcdc;}.cls-24{fill:#637d9e;}.cls-25{fill:#fff;}.cls-26{stroke-width:0.99px;}.cls-27{font-size:31.67px;}.cls-27,.cls-38,.cls-40{font-family:ArialMT, Arial;}.cls-28{stroke-width:0.15px;}.cls-29{stroke-width:0.51px;}.cls-30{fill:url(#Sfumatura_senza_nome_7);}.cls-31{stroke-width:0.27px;}.cls-33{stroke-width:0.27px;}.cls-34{stroke-width:0.27px;}.cls-35{stroke-width:0.27px;}.cls-36{stroke-width:0.27px;}.cls-37{stroke:#fff;stroke-width:0;}.cls-38{font-size:7.13px;}.cls-39{stroke-width:0.42px;}.cls-40{font-size:6.56px;}.cls-41{fill:url(#Sfumatura_senza_nome);}.cls-42{fill:url(#Sfumatura_senza_nome-2);}.cls-43{fill:url(#Sfumatura_senza_nome_7-2);}.cls-44{fill:url(#Sfumatura_senza_nome-3);}.cls-45{fill:url(#Sfumatura_senza_nome-4);}</style><clipPath id="clip-path"><circle class="cls-1" cx="1009.85" cy="180.71" r="119.76"/></clipPath><clipPath id="clip-path-2"><rect class="cls-1" x="60.94" y="282.05" width="184.25" height="184.25"/></clipPath><linearGradient id="Sfumatura_senza_nome_7" x1="893.73" y1="738.5" x2="943.02" y2="738.5" gradientUnits="userSpaceOnUse"><stop offset="0" stop-color="#fff"/><stop offset="0.27" stop-color="#f9f9f9"/><stop offset="1"/></linearGradient><linearGradient id="Sfumatura_senza_nome" x1="908.89" y1="679.25" x2="927.85" y2="679.25" gradientUnits="userSpaceOnUse"><stop offset="0" stop-color="#fff"/><stop offset="1"/></linearGradient><linearGradient id="Sfumatura_senza_nome-2" x1="661.29" y1="679.41" x2="680.25" y2="679.41" xlink:href="#Sfumatura_senza_nome"/><linearGradient id="Sfumatura_senza_nome_7-2" x1="646.12" y1="738.5" x2="695.41" y2="738.5" xlink:href="#Sfumatura_senza_nome_7"/><linearGradient id="Sfumatura_senza_nome-3" x1="708.12" y1="961.96" x2="712.38" y2="961.96" xlink:href="#Sfumatura_senza_nome"/><linearGradient id="Sfumatura_senza_nome-4" x1="706.71" y1="990.48" x2="713.79" y2="990.48" xlink:href="#Sfumatura_senza_nome"/></defs><title>892922_09</title><g id="Livello_1" data-name="Livello 1"><g id="Livello_1-2" data-name="Livello 1"><g id="Sfondo"><rect class="cls-2" width="1190.55" height="1190.55"/></g><g id="Griglia_base" data-name="Griglia base"><g id="_3" data-name=" 3"><rect class="cls-3" x="60.94" y="60.94" width="147.4" height="147.4"/><rect class="cls-3" x="245.2" y="60.94" width="147.4" height="147.4"/><rect class="cls-3" x="429.45" y="60.94" width="147.4" height="147.4"/><rect class="cls-3" x="613.7" y="60.94" width="147.4" height="147.4"/><rect class="cls-3" x="797.95" y="60.94" width="147.4" height="147.4"/><rect class="cls-3" x="982.2" y="60.94" width="147.4" height="147.4"/><rect class="cls-3" x="60.94" y="245.2" width="147.4" height="147.4"/><rect class="cls-3" x="245.2" y="245.2" width="147.4" height="147.4"/><rect class="cls-3" x="429.45" y="245.2" width="147.4" height="147.4"/><rect class="cls-3" x="613.7" y="245.2" width="147.4" height="147.4"/><rect class="cls-3" x="797.95" y="245.2" width="147.4" height="147.4"/><rect class="cls-3" x="982.2" y="245.2" width="147.4" height="147.4"/><rect class="cls-3" x="60.94" y="429.45" width="147.4" height="147.4"/><rect class="cls-3" x="245.2" y="429.45" width="147.4" height="147.4"/><rect class="cls-3" x="429.45" y="429.45" width="147.4" height="147.4"/><rect class="cls-3" x="613.7" y="429.45" width="147.4" height="147.4"/><rect class="cls-3" x="797.95" y="429.45" width="147.4" height="147.4"/><rect class="cls-3" x="982.2" y="429.45" width="147.4" height="147.4"/><rect class="cls-3" x="60.94" y="613.7" width="147.4" height="147.4"/><rect class="cls-3" x="245.2" y="613.7" width="147.4" height="147.4"/><rect class="cls-3" x="429.45" y="613.7" width="147.4" height="147.4"/><rect class="cls-3" x="613.7" y="613.7" width="147.4" height="147.4"/><rect class="cls-3" x="797.95" y="613.7" width="147.4" height="147.4"/><rect class="cls-3" x="982.2" y="613.7" width="147.4" height="147.4"/><rect class="cls-3" x="60.94" y="797.95" width="147.4" height="147.4"/><rect class="cls-3" x="245.2" y="797.95" width="147.4" height="147.4"/><rect class="cls-3" x="429.45" y="797.95" width="147.4" height="147.4"/><rect class="cls-3" x="613.7" y="797.95" width="147.4" height="147.4"/><rect class="cls-3" x="797.95" y="797.95" width="147.4" height="147.4"/><rect class="cls-3" x="982.2" y="797.95" width="147.4" height="147.4"/><rect class="cls-3" x="60.94" y="982.2" width="147.4" height="147.4"/><rect class="cls-3" x="245.2" y="982.2" width="147.4" height="147.4"/><rect class="cls-3" x="429.45" y="982.2" width="147.4" height="147.4"/><rect class="cls-3" x="613.7" y="982.2" width="147.4" height="147.4"/><rect class="cls-3" x="797.95" y="982.2" width="147.4" height="147.4"/><rect class="cls-3" x="982.2" y="982.2" width="147.4" height="147.4"/></g><g id="_2" data-name=" 2"><rect class="cls-4" x="60.94" y="60.94" width="184.25" height="184.25"/><rect class="cls-4" x="282.05" y="60.94" width="184.25" height="184.25"/><rect class="cls-4" x="503.15" y="60.94" width="184.25" height="184.25"/><rect class="cls-4" x="724.25" y="60.94" width="184.25" height="184.25"/><rect class="cls-4" x="945.35" y="60.94" width="184.25" height="184.25"/><rect class="cls-4" x="60.94" y="282.05" width="184.25" height="184.25"/><rect class="cls-4" x="282.05" y="282.05" width="184.25" height="184.25"/><rect class="cls-4" x="503.15" y="282.05" width="184.25" height="184.25"/><rect class="cls-4" x="724.25" y="282.05" width="184.25" height="184.25"/><rect class="cls-4" x="945.35" y="282.05" width="184.25" height="184.25"/><rect class="cls-4" x="60.94" y="503.15" width="184.25" height="184.25"/><rect class="cls-4" x="282.05" y="503.15" width="184.25" height="184.25"/><rect class="cls-4" x="503.15" y="503.15" width="184.25" height="184.25"/><rect class="cls-4" x="724.25" y="503.15" width="184.25" height="184.25"/><rect class="cls-4" x="945.35" y="503.15" width="184.25" height="184.25"/><rect class="cls-4" x="60.94" y="724.25" width="184.25" height="184.25"/><rect class="cls-4" x="282.05" y="724.25" width="184.25" height="184.25"/><rect class="cls-4" x="503.15" y="724.25" width="184.25" height="184.25"/><rect class="cls-4" x="724.25" y="724.25" width="184.25" height="184.25"/><rect class="cls-4" x="945.35" y="724.25" width="184.25" height="184.25"/><rect class="cls-4" x="60.94" y="945.35" width="184.25" height="184.25"/><rect class="cls-4" x="282.05" y="945.35" width="184.25" height="184.25"/><rect class="cls-4" x="503.15" y="945.35" width="184.25" height="184.25"/><rect class="cls-4" x="724.25" y="945.35" width="184.25" height="184.25"/><rect class="cls-4" x="945.35" y="945.35" width="184.25" height="184.25"/></g><g id="_1" data-name=" 1"><rect class="cls-5" x="337.32" y="60.94" width="239.53" height="239.53"/><rect class="cls-5" x="613.7" y="60.94" width="239.53" height="239.53"/><rect class="cls-5" x="890.08" y="60.94" width="239.53" height="239.53"/><rect class="cls-5" x="60.94" y="337.32" width="239.53" height="239.53"/><rect class="cls-5" x="337.32" y="337.32" width="239.53" height="239.53"/><rect class="cls-5" x="613.7" y="337.32" width="239.53" height="239.53"/><rect class="cls-5" x="890.08" y="337.32" width="239.53" height="239.53"/><rect class="cls-5" x="60.94" y="613.7" width="239.53" height="239.53"/><rect class="cls-5" x="337.32" y="613.7" width="239.53" height="239.53"/><rect class="cls-5" x="613.7" y="613.7" width="239.53" height="239.53"/><rect class="cls-5" x="890.08" y="613.7" width="239.53" height="239.53"/><rect class="cls-5" x="60.94" y="890.08" width="239.53" height="239.53"/><rect class="cls-5" x="337.32" y="890.08" width="239.53" height="239.53"/><rect class="cls-5" x="613.7" y="890.08" width="239.53" height="239.53"/><rect class="cls-5" x="890.08" y="890.08" width="239.53" height="239.53"/></g></g><g class="cls-6"><image class="cls-7" width="850" height="484" transform="translate(709.04 21.84) scale(0.68)" xlink:href="892922_05.jpg"/></g><g class="cls-7"><text class="cls-8" transform="translate(60.94 106.54)">T</text><text class="cls-9" transform="translate(85.67 106.54)">ropico</text></g></g><g id="Livello_2" data-name="Livello 2"><g class="cls-10"><image class="cls-7" width="550" height="413" transform="translate(60.94 208.34) scale(0.74 0.71)" xlink:href="892922_03.jpg"/></g><g class="cls-7"><text class="cls-11" transform="translate(282.05 73.1)">Lorem ipsum dolor sit amet, Lorem ipsum dolor sit </text><text class="cls-11" transform="translate(282.05 97.1)">amet, consectetuer adipiscing elit, sed diam nonummy </text><text class="cls-11" transform="translate(282.05 121.1)">nibh euismod tincidunt ut laoreet dolore magna aliquam </text><text class="cls-11" transform="translate(282.05 145.1)">erat volutpat. Ut wisi enim ad minim veniam, quis no</text><text class="cls-11" transform="translate(656.67 145.1)">-</text><text class="cls-11" transform="translate(282.05 169.1)">strud exerci tation ullamcorper suscipit lobortis nisl ut </text><text class="cls-11" transform="translate(282.05 193.1)">aliquip ex ea commodo consequat. Duis autem vel eum </text><text class="cls-11" transform="translate(282.05 217.1)">iriure dolor in hendrerit in vulputate velit esse molestie </text><text class="cls-11" transform="translate(282.05 241.1)">consequat, vel illum dolore eu feugiat nulla facilisis at</text></g><text class="cls-12" transform="translate(282.05 450.03)">Cascata</text><g class="cls-7"><text class="cls-11" transform="translate(936.33 373.48)">Lorem ipsum dolor </text><text class="cls-11" transform="translate(913.06 397.48)">sit amet, consectetuer </text><text class="cls-11" transform="translate(899.47 421.48)">adipiscing elit, sed diam no</text><text class="cls-11" transform="translate(1092.45 421.48)">-</text><text class="cls-11" transform="translate(892.2 445.48)">nummy nibh euismod tincidunt </text><text class="cls-11" transform="translate(890.71 469.48)">ut laoreet dolore magna aliquam </text><text class="cls-11" transform="translate(895.71 493.48)">erat volutpat. Ut wisi enim ad </text><text class="cls-11" transform="translate(906.4 517.48)">minim veniam, quis nostrud </text><text class="cls-11" transform="translate(924.86 541.48)">exerci tation ullamcor</text><text class="cls-11" transform="translate(1080.25 541.48)">-</text><text class="cls-11" transform="translate(958.84 565.48)">per suscipit</text></g></g></g><g id="Livello_2-2" data-name="Livello 2"><polygon class="cls-13" points="786.12 920.21 616.69 920.21 616.38 943.53 786.12 944.25 786.12 920.21"/><rect class="cls-14" x="616.38" y="1013.7" width="432.3" height="11.36"/><rect class="cls-13" x="780.45" y="944.25" width="5.67" height="81.78"/><rect class="cls-15" x="655.68" y="971.19" width="35.43" height="53.85"/><polyline class="cls-16" points="1044.42 1004.85 1044.42 1013.7 835.59 1013.7 835.59 1004.85"/><polyline class="cls-16" points="1044.41 908.43 1044.41 911.25 835.59 911.25 835.59 908.43"/><polyline class="cls-16" points="1045.42 822.45 1045.42 825.27 836.59 825.27 836.59 822.45"/><polyline class="cls-16" points="1044.41 743.84 1044.41 746.68 835.59 746.68 835.59 743.84"/><polyline class="cls-16" points="1044.77 740.79 1052.84 740.79 1052.84 1026.27 1044.77 1026.27"/><polyline class="cls-16" points="910.13 739.57 918.21 739.57 918.21 1025.05 910.13 1025.05"/><polyline class="cls-16" points="918.22 739.56 926.29 739.56 926.29 1025.04 918.22 1025.04"/><polyline class="cls-16" points="1008.86 739.56 1013.18 739.56 1013.18 1025.04 1008.86 1025.04"/><polyline class="cls-16" points="1000.86 739.56 1008.92 739.56 1008.92 1025.04 1000.86 1025.04"/><rect class="cls-17" x="652.14" y="894.99" width="4.38" height="2.67"/><polyline class="cls-18" points="669.87 1012.62 750.65 1012.62 750.65 1018.29 669.87 1018.29 669.87 1012.62"/><line class="cls-19" x1="672.84" y1="1018.29" x2="672.84" y2="1019.7"/><path class="cls-20" d="M678,1022a3.08,3.08,0,1,0-3.08,3.08A3.07,3.07,0,0,0,678,1022"/><line class="cls-19" x1="677.01" y1="1018.29" x2="677.01" y2="1019.7"/><line class="cls-19" x1="747.66" y1="1018.29" x2="747.66" y2="1019.7"/><path class="cls-20" d="M748.68,1022a3.08,3.08,0,1,0-3.08,3.08,3.07,3.07,0,0,0,3.08-3.08"/><line class="cls-19" x1="743.49" y1="1018.29" x2="743.49" y2="1019.7"/><polyline class="cls-20" points="695.39 1019.7 695.39 1018.29 695.39 1019.7"/><line class="cls-20" x1="699.57" y1="1018.29" x2="699.57" y2="1019.7"/><path class="cls-20" d="M695.43,1019.7a6.41,6.41,0,0,0-.27,3.72c.29,1.24.89,1.87,1.47,1.52s1-1.57,1-3"/><path class="cls-19" d="M697.38,1022c0,1.7.58,3.08,1.3,3.08s1.31-1.38,1.31-3.08"/><line class="cls-19" x1="694.98" y1="1021.98" x2="699.99" y2="1021.98"/><path class="cls-20" d="M697.38,1022c0,1.41.4,2.64,1,3s1.18-.28,1.47-1.52a6.41,6.41,0,0,0-.27-3.72"/><path class="cls-20" d="M695,1022c0,1.7.58,3.08,1.3,3.08s1.31-1.38,1.31-3.08"/><line class="cls-19" x1="699.99" y1="1021.98" x2="694.98" y2="1021.98"/><line class="cls-19" x1="706.71" y1="1012.62" x2="706.71" y2="968.34"/><polyline class="cls-19" points="713.78 1012.62 713.78 968.34 706.71 968.34"/><line class="cls-21" x1="708.12" y1="955.59" x2="708.12" y2="968.34"/><line class="cls-21" x1="712.38" y1="955.59" x2="712.38" y2="968.34"/><line class="cls-19" x1="742.14" y1="951.33" x2="742.14" y2="947.07"/><path class="cls-21" d="M678.36,947.07v0a54.53,54.53,0,0,1,.13-22.47h0a31.77,31.77,0,0,0,1.65-19.93h0a161.8,161.8,0,0,1,30.1-5.21h0a161.52,161.52,0,0,1,30.1,5.21h0A31.77,31.77,0,0,0,742,924.59h0a54.53,54.53,0,0,1,.13,22.47l0,4.25a121.29,121.29,0,0,1-63.78,0"/><line class="cls-19" x1="896.73" y1="743.82" x2="835.59" y2="743.82"/><line class="cls-19" x1="835.59" y1="746.67" x2="895.71" y2="746.67"/><line class="cls-19" x1="910.14" y1="822.45" x2="835.59" y2="822.45"/><line class="cls-19" x1="835.59" y1="825.27" x2="910.14" y2="825.27"/><line class="cls-19" x1="910.14" y1="908.43" x2="835.59" y2="908.43"/><line class="cls-19" x1="835.59" y1="911.25" x2="910.14" y2="911.25"/><line class="cls-19" x1="910.14" y1="1004.82" x2="835.59" y2="1004.82"/><line class="cls-19" x1="835.59" y1="1007.67" x2="910.14" y2="1007.67"/><line class="cls-16" x1="827.52" y1="1025.04" x2="827.52" y2="739.56"/><polyline class="cls-16" points="827.51 739.56 835.59 739.56 835.59 1025.04 827.51 1025.04"/><line class="cls-19" x1="910.14" y1="1025.04" x2="910.14" y2="761.37"/><polyline class="cls-19" points="918.21 761.37 918.21 1025.04 910.13 1025.04"/><line class="cls-22" x1="578.88" y1="671.7" x2="595.14" y2="671.7"/><path class="cls-23" d="M1048.68,615,1070,643.35h-21.27Zm21.27,0h-21.27L1070,643.35Z"/><path class="cls-24" d="M1048.82,614.69,1070.09,644h-21.27ZM1070.09,644V614.69h-21.27"/><path class="cls-25" d="M578.88,643.35,1070,671.7H578.88Zm491.07,0H578.88L1070,671.7Z"/><path class="cls-24" d="M578.88,643.35,1070,671.7H578.88Zm0,0L1070,671.7V643.35"/><path class="cls-24" d="M595.14,671.7l21.24,164.82H595.14Zm21.24,0H595.14l21.24,164.82Z"/><path class="cls-24" d="M595.28,834.91l21.24,192.68H595.28Zm21.24,0H595.28l21.24,192.68Z"/><path class="cls-24" d="M1048.8,672.75l21.27,354.33H1048.8Zm21.27,354.33-.15-357.17h-21.27"/><path class="cls-24" d="M578.88,1026,1070,1054.38H578.88Zm0,0L1070,1054.38V1026"/><path class="cls-24" d="M578.88,1026,1070,1054.38H578.88Z"/><path class="cls-24" d="M1048.68,1054.38l21.27,67.95h-21.27Zm21.27,0h-21.27l21.27,67.95Z"/><line class="cls-26" x1="616.38" y1="671.7" x2="1048.68" y2="671.7"/><line class="cls-26" x1="616.38" y1="1026.03" x2="1048.68" y2="1026.03"/><line class="cls-26" x1="1069.95" y1="615" x2="1069.95" y2="1122.27"/><line class="cls-26" x1="616.38" y1="671.7" x2="616.38" y2="1026.03"/><line class="cls-22" x1="578.88" y1="671.7" x2="595.14" y2="671.7"/><line class="cls-26" x1="595.14" y1="1026.03" x2="595.14" y2="671.7"/><line class="cls-26" x1="1048.68" y1="671.7" x2="1048.68" y2="1026.03"/><line class="cls-19" x1="1044.42" y1="743.82" x2="1044.42" y2="1025.04"/><line class="cls-26" x1="1048.68" y1="1026.03" x2="1048.68" y2="768.93"/><polyline class="cls-19" points="1008.92 739.59 1008.92 1025.04 1013.18 1025.04 1013.18 743.82 1013.18 739.59"/><line class="cls-19" x1="1044.42" y1="744.81" x2="1044.42" y2="740.58"/><line class="cls-19" x1="1013.19" y1="743.82" x2="1044.42" y2="743.82"/><line class="cls-19" x1="1044.42" y1="850.8" x2="1044.42" y2="853.65"/><line class="cls-19" x1="1044.42" y1="746.67" x2="1013.19" y2="746.67"/><line class="cls-19" x1="1013.19" y1="908.43" x2="1044.42" y2="908.43"/><line class="cls-19" x1="1044.42" y1="936.78" x2="1044.42" y2="939.6"/><line class="cls-19" x1="1044.42" y1="911.25" x2="1013.19" y2="911.25"/><line class="cls-19" x1="1013.19" y1="1004.85" x2="1044.42" y2="1004.85"/><line class="cls-19" x1="1044.42" y1="1007.67" x2="1013.19" y2="1007.67"/><line class="cls-19" x1="1000.86" y1="743.82" x2="940.02" y2="743.82"/><line class="cls-19" x1="941.01" y1="746.67" x2="1000.86" y2="746.67"/><line class="cls-19" x1="1000.86" y1="822.45" x2="926.31" y2="822.45"/><line class="cls-19" x1="926.31" y1="825.27" x2="1000.86" y2="825.27"/><line class="cls-19" x1="1000.86" y1="908.43" x2="926.31" y2="908.43"/><line class="cls-19" x1="926.31" y1="911.25" x2="1000.86" y2="911.25"/><line class="cls-19" x1="1000.86" y1="1004.82" x2="926.31" y2="1004.82"/><line class="cls-19" x1="926.31" y1="1007.67" x2="1000.86" y2="1007.67"/><line class="cls-19" x1="918.21" y1="1025.04" x2="918.21" y2="761.37"/><polyline class="cls-19" points="926.3 761.37 926.3 1025.04 918.21 1025.04"/><line class="cls-19" x1="1000.86" y1="1025.04" x2="1000.86" y2="739.56"/><polyline class="cls-19" points="1000.86 739.56 1008.92 739.56 1008.92 1025.04 1000.86 1025.04"/><line class="cls-19" x1="1008.93" y1="739.59" x2="1013.19" y2="739.59"/><line class="cls-19" x1="786.12" y1="1025.04" x2="786.12" y2="920.16"/><line class="cls-19" x1="616.38" y1="920.16" x2="680.01" y2="920.16"/><polyline class="cls-19" points="740.49 920.16 786.12 920.16 786.12 925.83"/><line class="cls-19" x1="678.24" y1="925.83" x2="616.38" y2="925.83"/><polyline class="cls-19" points="742.38 926.52 786.12 926.52 786.12 925.83"/><line class="cls-19" x1="616.38" y1="926.52" x2="678.12" y2="926.52"/><polyline class="cls-19" points="742.5 927.24 786.12 927.24 786.12 926.52"/><polyline class="cls-19" points="786.12 928.95 786.12 927.24 786.12 920.16 786.12 927.24 786.12 944.25 742.64 944.25"/><line class="cls-19" x1="616.38" y1="943.53" x2="677.76" y2="943.53"/><line class="cls-19" x1="622.05" y1="943.53" x2="622.05" y2="1025.04"/><polyline class="cls-19" points="786.12 944.25 780.45 944.25 780.45 1025.04"/><line class="cls-22" x1="637.65" y1="728.37" x2="637.65" y2="744.39"/><line class="cls-22" x1="637.65" y1="776.28" x2="637.65" y2="799.29"/><line class="cls-19" x1="637.65" y1="800.07" x2="637.65" y2="800.88"/><line class="cls-22" x1="637.65" y1="804" x2="637.65" y2="813.03"/><line class="cls-19" x1="637.65" y1="828.39" x2="637.65" y2="832.98"/><line class="cls-22" x1="637.65" y1="836.52" x2="637.65" y2="853.41"/><line class="cls-22" x1="751.05" y1="898.47" x2="722.91" y2="898.47"/><line class="cls-22" x1="720.42" y1="898.47" x2="717.42" y2="898.47"/><line class="cls-22" x1="715.74" y1="898.47" x2="714.54" y2="898.47"/><line class="cls-22" x1="712.68" y1="898.47" x2="710.49" y2="898.47"/><line class="cls-22" x1="699.3" y1="898.47" x2="656.37" y2="898.47"/><line class="cls-22" x1="746.79" y1="732.63" x2="685.95" y2="732.63"/><line class="cls-22" x1="655.59" y1="732.63" x2="641.91" y2="732.63"/><line class="cls-22" x1="746.79" y1="894.21" x2="722.91" y2="894.21"/><line class="cls-22" x1="721.23" y1="894.21" x2="709.65" y2="894.21"/><line class="cls-22" x1="707.94" y1="894.21" x2="707.79" y2="894.21"/><line class="cls-22" x1="705.84" y1="894.21" x2="704.16" y2="894.21"/><line class="cls-22" x1="702.45" y1="894.21" x2="702.21" y2="894.21"/><line class="cls-22" x1="700.35" y1="894.21" x2="684.81" y2="894.21"/><line class="cls-22" x1="641.91" y1="732.63" x2="641.91" y2="772.74"/><line class="cls-22" x1="641.91" y1="776.28" x2="641.91" y2="809.16"/><polyline class="cls-22" points="746.78 732.63 746.78 809.16 641.9 809.16"/><line class="cls-22" x1="751.05" y1="813.42" x2="640.65" y2="813.42"/><line class="cls-22" x1="641.91" y1="813.42" x2="641.91" y2="832.98"/><line class="cls-22" x1="641.91" y1="836.52" x2="641.91" y2="853.41"/><line class="cls-22" x1="746.79" y1="813.42" x2="746.79" y2="873.06"/><line class="cls-22" x1="746.79" y1="883.68" x2="746.79" y2="894.21"/><line class="cls-22" x1="637.65" y1="728.37" x2="659.49" y2="728.37"/><polyline class="cls-22" points="682.04 728.37 751.04 728.37 751.04 874.8"/><line class="cls-26" x1="751.05" y1="877.77" x2="751.05" y2="878.31"/><line class="cls-22" x1="751.05" y1="884.31" x2="751.05" y2="898.47"/><text class="cls-27" transform="translate(628.65 1110.21) scale(1 1.25)">SEZIONE A</text><line class="cls-19" x1="1044.42" y1="740.58" x2="1048.68" y2="740.58"/><polyline class="cls-28" points="616.38 1026.03 616.38 1025.04 1048.67 1025.04 1048.67 1026.03"/><polyline class="cls-29" points="782.61 875.46 786.57 873.99 786.68 875.16"/><polyline class="cls-29" points="763.95 919.95 783.41 919.95 783.41 918.99 763.95 918.99 763.95 919.95"/><polyline class="cls-29" points="783.41 918.99 783 918.78 781.59 918.78 775.2 918.45 772.08 918.45 765.75 918.78 764.37 918.78 763.95 918.99"/><polyline class="cls-29" points="783 919.95 764.37 919.95 764.37 920.16 783 920.16 783 919.95"/><polyline class="cls-29" points="773.46 917.49 772.83 917.49 772.83 918.45 774.57 918.45 774.57 917.49 773.97 917.49"/><path class="cls-29" d="M773,916.75a.77.77,0,0,0,.76.77.78.78,0,0,0,.77-.77.77.77,0,0,0-.77-.76.76.76,0,0,0-.76.76"/><line class="cls-29" x1="773.46" y1="916.05" x2="786.21" y2="876.36"/><line class="cls-29" x1="786.93" y1="876.63" x2="774.18" y2="916.17"/><path class="cls-29" d="M786.06,875.89a.74.74,0,1,0,.73-.73.74.74,0,0,0-.73.73"/><line class="cls-29" x1="753.15" y1="876.15" x2="786.09" y2="876.15"/><line class="cls-29" x1="753.21" y1="875.46" x2="786.21" y2="875.46"/><polyline class="cls-29" points="750.29 876.06 749.9 875.34 751.01 874.77 751.4 875.52"/><polyline class="cls-29" points="745.43 873.24 745.11 875.37 749.63 876.06"/><path class="cls-29" d="M745.85,872.88a.37.37,0,0,0-.41.33"/><line class="cls-29" x1="749.76" y1="873.54" x2="745.83" y2="872.91"/><path class="cls-29" d="M750,873.92a.29.29,0,0,0,0-.24.33.33,0,0,0-.19-.16"/><line class="cls-29" x1="749.64" y1="876.06" x2="749.94" y2="873.93"/><polyline class="cls-29" points="745.11 875.37 744.63 875.7 744.21 876.03 743.85 876.3 743.58 876.6 743.34 876.87 743.13 877.14 742.95 877.44 742.76 877.71 742.62 878.01 742.43 878.37 742.25 878.79 742.04 879.27 741.84 879.9 741.53 880.68 741.24 881.64 740.85 882.78"/><polyline class="cls-29" points="751.47 884.4 751.47 883.17 751.47 882.15 751.43 881.34 751.4 880.65 751.38 880.11 751.32 879.69 751.25 879.33 751.2 879.03 751.13 878.73 751.08 878.49 751.01 878.25 750.96 878.04 750.87 877.83 750.77 877.65 750.68 877.44 750.6 877.26 750.48 877.08 750.36 876.9 750.24 876.72 750.12 876.54 750 876.39 749.88 876.27 749.75 876.15 749.63 876.06"/><line class="cls-29" x1="740.85" y1="882.78" x2="751.47" y2="884.37"/><line class="cls-29" x1="752.49" y1="876.54" x2="750.9" y2="877.89"/><line class="cls-29" x1="751.98" y1="875.25" x2="749.88" y2="876.27"/><path class="cls-29" d="M751.77,875.74a.77.77,0,0,0,.76.77.78.78,0,0,0,.77-.77.77.77,0,0,0-.77-.76.76.76,0,0,0-.76.76"/><polyline class="cls-19" points="783 920.16 786.12 920.16 786.38 920.43 787.4 923.07 787.4 928.8 788.7 932.16 789.8 938.37 789.5 946.86 786.12 972.6"/><polyline class="cls-19" points="783 919.44 786.45 919.44 786.99 920.07 788.13 922.95 788.13 928.65 789.38 931.98 790.5 938.31 790.2 946.92 786.84 972.69 786.12 978.15"/><line class="cls-19" x1="780.45" y1="991.53" x2="779.25" y2="994.41"/><line class="cls-19" x1="780.45" y1="989.73" x2="778.71" y2="993.84"/><line class="cls-19" x1="779.25" y1="994.41" x2="771.57" y2="996.69"/><line class="cls-19" x1="778.71" y1="993.84" x2="771.51" y2="995.97"/><line class="cls-19" x1="771.57" y1="996.69" x2="763.89" y2="995.88"/><line class="cls-19" x1="771.51" y1="995.97" x2="764.1" y2="995.19"/><line class="cls-19" x1="763.89" y1="995.88" x2="760.08" y2="995.04"/><line class="cls-19" x1="764.1" y1="995.19" x2="760.11" y2="994.41"/><line class="cls-19" x1="1013.19" y1="822.45" x2="1044.42" y2="822.45"/><line class="cls-19" x1="1044.42" y1="825.27" x2="1013.19" y2="825.27"/><path class="cls-30" d="M927.85,715.63a22.2,22.2,0,0,0,0,11.1v0A43.29,43.29,0,0,1,943,761.37H893.76a43.29,43.29,0,0,1,15.14-34.62l0,0a22.2,22.2,0,0,0,0-11.1v0h18.93"/><line class="cls-19" x1="918.36" y1="715.65" x2="918.36" y2="685.95"/><line class="cls-19" x1="908.91" y1="671.7" x2="927.84" y2="671.7"/><path class="cls-19" d="M908.91,676.45a9.47,9.47,0,1,0,18.93,0"/><line class="cls-19" x1="927.84" y1="671.7" x2="927.84" y2="676.47"/><line class="cls-19" x1="908.91" y1="671.7" x2="908.91" y2="676.47"/><line class="cls-19" x1="661.29" y1="715.65" x2="670.77" y2="715.65"/><path class="cls-19" d="M661.31,726.75a43.29,43.29,0,0,0-15.14,34.62"/><path class="cls-19" d="M661.33,726.73a22.2,22.2,0,0,0,0-11.1"/><line class="cls-19" x1="680.25" y1="715.65" x2="670.77" y2="715.65"/><path class="cls-19" d="M695.39,761.37a43.29,43.29,0,0,0-15.14-34.62"/><path class="cls-19" d="M680.23,715.63a22.2,22.2,0,0,0,0,11.1"/><line class="cls-19" x1="646.14" y1="761.37" x2="695.4" y2="761.37"/><line class="cls-19" x1="670.77" y1="715.65" x2="670.77" y2="685.95"/><line class="cls-19" x1="661.29" y1="671.7" x2="680.25" y2="671.7"/><path class="cls-31" d="M761.39,994.64c.08-1.56-.37-2.95-1-3.17s-1.31.8-1.48,2.33.21,3.05.86,3.45,1.34-.45,1.57-1.94"/><path class="cls-19" d="M760.13,994.38a.32.32,0,0,0-.3.13.33.33,0,0,0,0,.33.34.34,0,0,0,.29.17"/><polyline class="cls-19" points="616.38 1025.04 616.38 836.52 643.32 836.52 643.32 832.98 616.38 832.98"/><polyline class="cls-19" points="643.32 772.74 643.32 776.28 616.38 776.28 616.38 772.74 643.32 772.74 643.32 776.28"/><polyline class="cls-19" points="843.17 819.69 848.7 822.45 861.63 796.59 856.13 793.86 843.17 819.69"/><polyline class="cls-19" points="861.63 793.32 871.4 793.32 871.4 822.45 861.63 822.45 861.63 793.32"/><polyline class="cls-19" points="871.4 788.31 877.83 788.31 877.83 822.45 871.4 822.45 871.4 788.31"/><polyline class="cls-19" points="877.83 791.1 881.46 791.1 881.46 822.45 877.83 822.45 877.83 791.1"/><polyline class="cls-19" points="881.46 797.79 887.34 797.79 887.34 822.45 881.46 822.45 881.46 797.79"/><polyline class="cls-19" points="887.34 822.45 893.46 822.45 893.46 787.47 887.34 787.47 887.34 822.45"/><polyline class="cls-19" points="893.46 822.45 899.61 822.45 899.61 787.47 893.46 787.47 893.46 822.45"/><polyline class="cls-19" points="899.61 822.45 905.75 822.45 905.75 787.47 899.61 787.47 899.61 822.45"/><line class="cls-19" x1="638.7" y1="917.13" x2="669.75" y2="917.13"/><path class="cls-19" d="M669.77,916.88a15.52,15.52,0,0,0-31,0"/><line class="cls-19" x1="641.91" y1="920.16" x2="666.54" y2="920.16"/><path class="cls-19" d="M638.73,916.88a3.15,3.15,0,0,0,.91,2.29,3.24,3.24,0,0,0,2.28,1"/><path class="cls-19" d="M666.55,920.13a3.21,3.21,0,0,0,3.2-3.25"/><line class="cls-19" x1="647.67" y1="912.63" x2="661.11" y2="912.63"/><path class="cls-19" d="M662.4,913.9a1.27,1.27,0,0,0-1.28-1.27"/><polyline class="cls-19" points="662.39 913.92 662.39 915.06 646.38 915.06 646.38 913.92"/><path class="cls-19" d="M647.68,912.63a1.27,1.27,0,0,0-1.27,1.27"/><polyline class="cls-32" points="654.33 894.99 684.8 894.99 684.8 853.41 623.9 853.41 623.9 894.99 654.33 894.99"/><polyline class="cls-18" points="626.1 892.8 682.62 892.8 682.62 855.6 626.1 855.6 626.1 892.8"/><polyline class="cls-20" points="627.57 891.33 681.14 891.33 681.14 857.07 627.57 857.07 627.57 891.33"/><line class="cls-19" x1="652.86" y1="901.68" x2="652.86" y2="899.31"/><line class="cls-19" x1="655.8" y1="901.68" x2="655.8" y2="899.31"/><path class="cls-32" d="M652.14,897.64a2.21,2.21,0,1,0,4.41,0"/><line class="cls-19" x1="639.87" y1="919.41" x2="668.58" y2="919.41"/><line class="cls-19" x1="652.14" y1="897.66" x2="652.14" y2="892.8"/><line class="cls-19" x1="656.52" y1="897.66" x2="656.52" y2="892.8"/><line class="cls-19" x1="641.1" y1="920.04" x2="641.1" y2="919.41"/><line class="cls-19" x1="642.51" y1="920.16" x2="642.51" y2="919.41"/><line class="cls-19" x1="643.95" y1="920.16" x2="643.95" y2="919.41"/><line class="cls-19" x1="645.39" y1="920.16" x2="645.39" y2="919.41"/><line class="cls-19" x1="646.83" y1="920.16" x2="646.83" y2="919.41"/><line class="cls-19" x1="648.24" y1="920.16" x2="648.24" y2="919.41"/><line class="cls-19" x1="649.68" y1="920.16" x2="649.68" y2="919.41"/><line class="cls-19" x1="651.12" y1="920.16" x2="651.12" y2="919.41"/><line class="cls-19" x1="652.56" y1="920.16" x2="652.56" y2="919.41"/><line class="cls-19" x1="653.97" y1="920.16" x2="653.97" y2="919.41"/><line class="cls-19" x1="655.41" y1="920.16" x2="655.41" y2="919.41"/><line class="cls-19" x1="656.85" y1="920.16" x2="656.85" y2="919.41"/><line class="cls-19" x1="658.29" y1="920.16" x2="658.29" y2="919.41"/><line class="cls-19" x1="659.73" y1="920.16" x2="659.73" y2="919.41"/><line class="cls-19" x1="661.14" y1="920.16" x2="661.14" y2="919.41"/><line class="cls-19" x1="662.58" y1="920.16" x2="662.58" y2="919.41"/><line class="cls-19" x1="664.02" y1="920.16" x2="664.02" y2="919.41"/><line class="cls-19" x1="665.46" y1="920.16" x2="665.46" y2="919.41"/><line class="cls-19" x1="666.87" y1="920.13" x2="666.87" y2="919.41"/><line class="cls-19" x1="668.31" y1="919.62" x2="668.31" y2="919.41"/><path class="cls-19" d="M654,906.76a1.14,1.14,0,0,0-1,.28,1.12,1.12,0,0,0-.36.91"/><path class="cls-19" d="M656,907a1.14,1.14,0,0,0,0,1.68"/><path class="cls-19" d="M655.59,909.51a2.45,2.45,0,0,0,.36-.81"/><path class="cls-19" d="M655,909.65a.38.38,0,0,0,.34.08.36.36,0,0,0,.26-.23"/><path class="cls-19" d="M653.52,909.62a.38.38,0,0,0,.52,0"/><path class="cls-19" d="M655,909.69a1.12,1.12,0,0,0-.93,0"/><path class="cls-19" d="M652.68,907.88a2.15,2.15,0,0,0,.83,1.76"/><path class="cls-19" d="M654,906.72a1.14,1.14,0,0,0,1,0"/><path class="cls-19" d="M656,907a1.13,1.13,0,0,0-1-.26"/><path class="cls-19" d="M655.14,905.53a1.11,1.11,0,0,0-.72.94"/><path class="cls-19" d="M654.41,906.46a1.11,1.11,0,0,0,.72-.94"/><line class="cls-19" x1="666.54" y1="920.16" x2="680.01" y2="920.16"/><line class="cls-19" x1="642.09" y1="920.16" x2="619.53" y2="920.16"/><path class="cls-19" d="M680.88,908.89a6.37,6.37,0,0,0-6,11.23"/><path class="cls-19" d="M681,910.58a4.09,4.09,0,1,0-.31,6.25"/><path class="cls-19" d="M681.05,911.46a3.53,3.53,0,1,0-.23,4.49"/><path class="cls-19" d="M632.58,920.21a6.38,6.38,0,1,0-6.64,0"/><path class="cls-19" d="M633.36,913.66a4.1,4.1,0,1,0-4.1,4.1,4.1,4.1,0,0,0,4.1-4.1"/><path class="cls-19" d="M632.79,913.66a3.53,3.53,0,1,0-3.53,3.53,3.52,3.52,0,0,0,3.53-3.53"/><line class="cls-19" x1="1044.42" y1="908.43" x2="1019.73" y2="908.43"/><line class="cls-19" x1="1019.49" y1="908.43" x2="1019.49" y2="858.24"/><line class="cls-19" x1="1044.42" y1="822.45" x2="1019.73" y2="822.45"/><line class="cls-19" x1="891.81" y1="866.58" x2="897.51" y2="866.58"/><line class="cls-19" x1="882.6" y1="866.4" x2="887.49" y2="866.4"/><line class="cls-19" x1="876.06" y1="858.63" x2="880.95" y2="858.63"/><line class="cls-19" x1="881.97" y1="866.4" x2="887.67" y2="866.4"/><line class="cls-19" x1="889.59" y1="858.24" x2="899.73" y2="858.24"/><polyline class="cls-19" points="867.63 876.69 867.63 878.85 865.47 878.85 865.47 876.69 867.63 876.69"/><polyline class="cls-19" points="867.63 868.2 867.63 870.36 865.47 870.36 865.47 868.2 867.63 868.2"/><polyline class="cls-19" points="867.63 862.08 867.63 864.27 865.47 864.27 865.47 862.08 867.63 862.08"/><line class="cls-19" x1="861.12" y1="858.21" x2="872.7" y2="858.21"/><line class="cls-19" x1="848.52" y1="866.58" x2="854.22" y2="866.58"/><line class="cls-19" x1="846.3" y1="858.24" x2="856.44" y2="858.24"/><line class="cls-19" x1="873.93" y1="858.63" x2="878.82" y2="858.63"/><line class="cls-19" x1="897.51" y1="902.43" x2="891.81" y2="902.43"/><line class="cls-19" x1="880.95" y1="908.43" x2="876.06" y2="908.43"/><line class="cls-19" x1="887.67" y1="908.43" x2="881.97" y2="908.43"/><line class="cls-19" x1="899.73" y1="908.43" x2="889.59" y2="908.43"/><line class="cls-19" x1="865.47" y1="887.67" x2="865.47" y2="885.51"/><polyline class="cls-19" points="867.63 885.51 867.63 887.67 865.47 887.67"/><line class="cls-19" x1="872.7" y1="908.43" x2="861.12" y2="908.43"/><line class="cls-19" x1="854.22" y1="902.43" x2="848.52" y2="902.43"/><line class="cls-19" x1="856.44" y1="908.43" x2="846.3" y2="908.43"/><line class="cls-19" x1="865.47" y1="885.51" x2="867.63" y2="885.51"/><line class="cls-19" x1="878.82" y1="908.43" x2="873.93" y2="908.43"/><line class="cls-19" x1="861.12" y1="908.43" x2="861.12" y2="858.21"/><line class="cls-19" x1="872.7" y1="858.21" x2="872.7" y2="908.43"/><line class="cls-19" x1="891.81" y1="902.43" x2="891.81" y2="866.58"/><line class="cls-19" x1="897.51" y1="866.58" x2="897.51" y2="902.43"/><line class="cls-19" x1="876.06" y1="908.43" x2="876.06" y2="858.63"/><line class="cls-19" x1="880.95" y1="858.63" x2="880.95" y2="908.43"/><line class="cls-19" x1="881.97" y1="908.43" x2="881.97" y2="866.4"/><line class="cls-19" x1="887.67" y1="866.4" x2="887.67" y2="908.43"/><line class="cls-19" x1="889.59" y1="908.43" x2="889.59" y2="858.24"/><line class="cls-19" x1="899.73" y1="858.24" x2="899.73" y2="908.43"/><line class="cls-19" x1="873.93" y1="908.43" x2="873.93" y2="858.63"/><line class="cls-19" x1="878.82" y1="858.63" x2="878.82" y2="908.43"/><line class="cls-19" x1="848.52" y1="902.43" x2="848.52" y2="866.58"/><line class="cls-19" x1="854.22" y1="866.58" x2="854.22" y2="902.43"/><line class="cls-19" x1="846.3" y1="908.43" x2="846.3" y2="858.24"/><line class="cls-19" x1="856.44" y1="858.24" x2="856.44" y2="908.43"/><line class="cls-19" x1="751.86" y1="1000.5" x2="764.34" y2="1000.5"/><line class="cls-19" x1="754.71" y1="997.65" x2="761.49" y2="997.65"/><line class="cls-19" x1="764.34" y1="1000.5" x2="764.34" y2="988.32"/><line class="cls-19" x1="761.49" y1="997.65" x2="761.49" y2="991.14"/><line class="cls-19" x1="764.34" y1="988.32" x2="751.86" y2="988.32"/><line class="cls-19" x1="761.49" y1="991.14" x2="754.71" y2="991.14"/><line class="cls-19" x1="751.86" y1="988.32" x2="751.86" y2="1000.5"/><line class="cls-19" x1="754.71" y1="991.14" x2="754.71" y2="997.65"/><polyline class="cls-19" points="754.71 991.14 758.1 991.14 758.1 997.65"/><path class="cls-19" d="M756.78,994.39a.35.35,0,0,0-.35-.34.34.34,0,0,0-.34.34.35.35,0,0,0,.34.35.35.35,0,0,0,.35-.35"/><path class="cls-19" d="M756.66,993.3a.34.34,0,0,0,.09-.38.34.34,0,0,0-.64,0,.34.34,0,0,0,.09.38"/><line class="cls-19" x1="756.21" y1="993.63" x2="756.21" y2="993.33"/><line class="cls-19" x1="756.66" y1="993.33" x2="756.66" y2="993.63"/><polyline class="cls-19" points="756.21 993.63 756.21 993.66 756.21 993.69 756.24 993.69 756.24 993.72 756.26 993.72 756.29 993.72 756.29 993.75 756.33 993.75 756.36 993.75 756.38 993.75 756.41 993.75 756.45 993.75 756.48 993.75 756.5 993.75 756.53 993.75 756.57 993.75 756.57 993.72 756.6 993.72 756.63 993.72 756.63 993.69 756.65 993.69 756.65 993.66 756.65 993.63"/><path class="cls-19" d="M756.2,995.45a.34.34,0,1,0,.46,0"/><line class="cls-19" x1="756.66" y1="995.49" x2="756.66" y2="995.16"/><polyline class="cls-19" points="756.65 995.16 756.65 995.13 756.63 995.13 756.63 995.1 756.6 995.1 756.6 995.07 756.57 995.07 756.53 995.07 756.5 995.07 756.48 995.07 756.45 995.07 756.45 995.04 756.41 995.04 756.38 995.04 756.38 995.07 756.36 995.07 756.33 995.07 756.29 995.07 756.26 995.07 756.26 995.1 756.24 995.1 756.21 995.1 756.21 995.13 756.21 995.16 756.21 995.49"/><line class="cls-19" x1="1019.49" y1="858.24" x2="1044.42" y2="858.24"/><polyline class="cls-19" points="1019.73 822.45 1019.73 772.26 1044.68 772.26"/><polyline class="cls-19" points="622.04 1025.04 622.04 1013.7 655.67 1013.7"/><line class="cls-19" x1="685.83" y1="1018.29" x2="685.83" y2="1025.04"/><line class="cls-19" x1="749.61" y1="1018.29" x2="749.61" y2="1025.04"/><line class="cls-19" x1="750.66" y1="1013.7" x2="780.45" y2="1013.7"/><polyline class="cls-19" points="786.12 1013.7 813.38 1013.7 813.38 1025.04"/><line class="cls-19" x1="813.39" y1="1013.7" x2="827.52" y2="1013.7"/><polyline class="cls-19" points="835.59 1013.7 877.16 1013.7 877.16 1025.04"/><line class="cls-19" x1="877.17" y1="1013.7" x2="910.14" y2="1013.7"/><polyline class="cls-19" points="926.3 1013.7 940.95 1013.7 940.95 1025.04"/><line class="cls-19" x1="940.95" y1="1013.7" x2="1000.86" y2="1013.7"/><line class="cls-19" x1="1013.19" y1="1013.7" x2="1048.68" y2="1013.7"/><line class="cls-19" x1="691.11" y1="1025.04" x2="691.11" y2="1018.29"/><polyline class="cls-19" points="691.11 1025.04 655.67 1025.04 655.67 971.19 691.11 971.19 691.11 1012.65"/><polyline class="cls-19" points="700.23 890.91 700.55 891 700.67 890.64"/><line class="cls-19" x1="699.33" y1="890.16" x2="699.69" y2="889.98"/><polyline class="cls-19" points="702.45 889.32 703.32 888.03 704.15 889.32"/><line class="cls-19" x1="703.95" y1="889.32" x2="703.95" y2="889.32"/><polyline class="cls-19" points="702.45 889.32 702.68 889.56 702.87 889.35 703.11 889.68 703.32 889.32 703.52 889.71 703.64 889.38 703.91 889.59 704.15 889.32"/><line class="cls-19" x1="703.11" y1="888.33" x2="703.5" y2="888.33"/><polyline class="cls-19" points="721.23 893.67 722.07 892.41 722.9 893.67"/><line class="cls-19" x1="722.7" y1="893.67" x2="722.7" y2="893.67"/><polyline class="cls-19" points="721.23 893.67 721.43 893.94 721.62 893.73 721.86 894.06 722.07 893.7 722.27 894.09 722.39 893.76 722.66 893.97 722.9 893.67"/><line class="cls-19" x1="721.86" y1="892.71" x2="722.25" y2="892.71"/><polyline class="cls-19" points="722.39 898.41 722.3 896.88 720.92 897.54"/><line class="cls-19" x1="721.14" y1="897.66" x2="721.14" y2="897.66"/><polyline class="cls-19" points="722.39 898.41 722.07 898.5 722.03 898.23 721.64 898.41 721.64 897.99 721.28 898.23 721.35 897.87 720.99 897.9 720.92 897.54"/><line class="cls-19" x1="722.34" y1="897.24" x2="722.01" y2="897.03"/><polyline class="cls-19" points="712.38 897.78 712.67 896.28 713.93 897.12"/><line class="cls-19" x1="713.76" y1="897.21" x2="713.76" y2="897.21"/><polyline class="cls-19" points="712.38 897.78 712.71 897.93 712.76 897.66 713.13 897.87 713.18 897.48 713.51 897.75 713.51 897.39 713.85 897.48 713.93 897.12"/><line class="cls-19" x1="712.59" y1="896.64" x2="712.95" y2="896.46"/><polyline class="cls-19" points="715.74 895.77 716.58 894.51 717.41 895.77"/><line class="cls-19" x1="717.21" y1="895.77" x2="717.21" y2="895.77"/><polyline class="cls-19" points="715.74 895.77 715.98 896.04 716.13 895.83 716.37 896.16 716.58 895.8 716.78 896.19 716.9 895.86 717.21 896.07 717.41 895.77"/><line class="cls-19" x1="716.37" y1="894.81" x2="716.79" y2="894.81"/><polyline class="cls-19" points="707.93 887.19 708.77 885.93 709.64 887.19"/><line class="cls-19" x1="709.41" y1="887.19" x2="709.41" y2="887.19"/><polyline class="cls-19" points="707.93 887.19 708.17 887.46 708.36 887.25 708.6 887.58 708.77 887.22 708.99 887.61 709.13 887.28 709.4 887.49 709.64 887.19"/><line class="cls-19" x1="708.6" y1="886.23" x2="708.99" y2="886.23"/><polyline class="cls-19" points="709.13 891.93 709.04 890.4 707.66 891.06"/><line class="cls-19" x1="707.85" y1="891.18" x2="707.85" y2="891.18"/><polyline class="cls-19" points="709.13 891.93 708.8 892.05 708.75 891.75 708.38 891.93 708.38 891.51 708 891.75 708.05 891.39 707.73 891.42 707.66 891.06"/><line class="cls-19" x1="709.05" y1="890.76" x2="708.72" y2="890.55"/><polyline class="cls-19" points="699.12 891.3 699.38 889.8 700.67 890.64"/><line class="cls-19" x1="700.47" y1="890.73" x2="700.47" y2="890.73"/><polyline class="cls-19" points="699.12 891.3 699.41 891.45 699.5 891.18 699.87 891.39 699.89 891 700.25 891.27 700.23 890.91"/><line class="cls-19" x1="707.67" y1="891.06" x2="704.16" y2="897.09"/><line class="cls-19" x1="709.65" y1="887.19" x2="709.65" y2="897"/><polyline class="cls-19" points="699.29 900.66 699.29 897 710.49 897 710.49 899.46"/><line class="cls-19" x1="721.23" y1="900.66" x2="721.23" y2="900.45"/><line class="cls-19" x1="721.23" y1="897.42" x2="721.23" y2="893.67"/><line class="cls-19" x1="721.08" y1="900.66" x2="722.4" y2="898.41"/><line class="cls-19" x1="715.74" y1="899.97" x2="715.74" y2="895.77"/><line class="cls-19" x1="713.22" y1="899.7" x2="712.38" y2="897.78"/><line class="cls-19" x1="717.42" y1="895.77" x2="717.42" y2="900.15"/><line class="cls-19" x1="713.94" y1="897.12" x2="715.14" y2="899.91"/><line class="cls-19" x1="720.93" y1="897.54" x2="719.28" y2="900.39"/><line class="cls-19" x1="722.91" y1="893.67" x2="722.91" y2="900.93"/><line class="cls-19" x1="707.94" y1="897" x2="707.94" y2="893.97"/><line class="cls-19" x1="707.94" y1="890.94" x2="707.94" y2="887.19"/><line class="cls-19" x1="706.17" y1="897" x2="709.14" y2="891.93"/><line class="cls-19" x1="702.45" y1="897" x2="702.45" y2="889.32"/><line class="cls-19" x1="701.55" y1="897" x2="699.12" y2="891.3"/><line class="cls-19" x1="704.16" y1="889.32" x2="704.16" y2="897.09"/><line class="cls-19" x1="700.68" y1="890.64" x2="702.45" y2="894.81"/><polyline class="cls-19" points="616.38 772.74 616.38 744.39 639.77 744.39 639.77 772.74"/><polyline class="cls-19" points="630.45 813.03 630.45 803.79 638.73 802.44 630.45 803.34 634.91 799.11 629.78 803.13 631.52 786.87 629.63 800.31 624.65 789.93 628.67 799.56 629.58 803.79 621.96 803.34 630 804.69 629.9 813.03"/><line class="cls-19" x1="626.25" y1="795.3" x2="625.14" y2="797.4"/><path class="cls-19" d="M625.13,797.38a1,1,0,0,0,.76-1.42"/><path class="cls-19" d="M625.92,796a1.06,1.06,0,0,0-.72.53,1,1,0,0,0,0,.89"/><line class="cls-19" x1="626.25" y1="795.3" x2="627.21" y2="797.49"/><path class="cls-19" d="M627.21,797.48a1.09,1.09,0,0,0,0-.9,1.06,1.06,0,0,0-.67-.59"/><path class="cls-19" d="M626.58,796a1.05,1.05,0,0,0,0,.9,1.06,1.06,0,0,0,.67.59"/><line class="cls-19" x1="626.25" y1="795.3" x2="626.07" y2="799.29"/><path class="cls-19" d="M626.08,799.25a1.72,1.72,0,0,0,.12-2.68"/><path class="cls-19" d="M626.23,796.56a1.71,1.71,0,0,0-.7,1.31,1.69,1.69,0,0,0,.58,1.37"/><line class="cls-19" x1="626.25" y1="795.3" x2="623.04" y2="797.64"/><path class="cls-19" d="M623.05,797.61a1.76,1.76,0,0,0,1.46-.27,1.69,1.69,0,0,0,.71-1.31"/><path class="cls-19" d="M625.24,796.05a1.73,1.73,0,0,0-2.17,1.57"/><line class="cls-19" x1="626.25" y1="795.3" x2="622.41" y2="794.22"/><path class="cls-19" d="M622.43,794.2a1.7,1.7,0,0,0,1.12,1,1.72,1.72,0,0,0,1.47-.26"/><path class="cls-19" d="M625,794.92a1.75,1.75,0,0,0-1.12-1,1.69,1.69,0,0,0-1.46.26"/><line class="cls-19" x1="626.25" y1="795.3" x2="624.69" y2="791.64"/><path class="cls-19" d="M624.71,791.62a1.71,1.71,0,0,0,1,2.47"/><path class="cls-19" d="M625.77,794.08a1.71,1.71,0,0,0-1-2.47"/><line class="cls-19" x1="626.25" y1="795.3" x2="626.37" y2="792.9"/><path class="cls-19" d="M626.4,792.89a1,1,0,0,0-.08,1.6"/><path class="cls-19" d="M626.3,794.49a1.05,1.05,0,0,0,.43-.78,1,1,0,0,0-.35-.82"/><line class="cls-19" x1="626.25" y1="795.3" x2="623.91" y2="795.72"/><path class="cls-19" d="M623.94,795.7a1,1,0,0,0,.86.24,1.07,1.07,0,0,0,.72-.52"/><path class="cls-19" d="M625.5,795.43a1,1,0,0,0-1.59.29"/><line class="cls-19" x1="626.25" y1="795.3" x2="624.45" y2="793.71"/><path class="cls-19" d="M624.48,793.71a1,1,0,0,0,1.21,1.06"/><path class="cls-19" d="M625.68,794.75a1,1,0,0,0-.36-.82,1.06,1.06,0,0,0-.86-.24"/><line class="cls-19" x1="626.25" y1="795.3" x2="629.25" y2="797.91"/><path class="cls-19" d="M629.28,797.9a1.75,1.75,0,0,0-.6-1.37,1.72,1.72,0,0,0-1.43-.4"/><path class="cls-19" d="M627.27,796.11a1.73,1.73,0,0,0,2,1.77"/><line class="cls-19" x1="626.25" y1="795.3" x2="628.14" y2="791.79"/><path class="cls-19" d="M628.16,791.79a1.7,1.7,0,0,0-1.2.87,1.73,1.73,0,0,0-.07,1.49"/><path class="cls-19" d="M626.88,794.13a1.73,1.73,0,0,0,1.27-2.37"/><line class="cls-19" x1="626.25" y1="795.3" x2="630.18" y2="794.58"/><path class="cls-19" d="M630.18,794.58a1.73,1.73,0,0,0-1.44-.4,1.76,1.76,0,0,0-1.2.87"/><path class="cls-19" d="M627.53,795a1.74,1.74,0,0,0,2.65-.48"/><line class="cls-19" x1="626.25" y1="795.3" x2="628.2" y2="793.89"/><path class="cls-19" d="M628.21,793.86a1.06,1.06,0,0,0-.88.16,1,1,0,0,0-.42.79"/><path class="cls-19" d="M626.89,794.81a1,1,0,0,0,1.31-.95"/><line class="cls-19" x1="626.25" y1="795.3" x2="628.56" y2="795.93"/><path class="cls-19" d="M628.56,795.92a1,1,0,0,0-.67-.59,1.05,1.05,0,0,0-.88.16"/><path class="cls-19" d="M627,795.48a1,1,0,0,0,.67.59,1.05,1.05,0,0,0,.88-.16"/><line class="cls-19" x1="632.07" y1="807" x2="630.48" y2="810"/><path class="cls-19" d="M630.46,810a1.49,1.49,0,0,0,1-.75,1.53,1.53,0,0,0,.06-1.29"/><path class="cls-19" d="M631.57,808a1.49,1.49,0,0,0-1.1,2"/><line class="cls-19" x1="632.07" y1="807" x2="633.42" y2="810.15"/><path class="cls-19" d="M633.42,810.14a1.48,1.48,0,0,0-.9-2.13"/><path class="cls-19" d="M632.54,808a1.48,1.48,0,0,0,0,1.28,1.43,1.43,0,0,0,1,.85"/><line class="cls-19" x1="632.07" y1="807" x2="631.83" y2="812.7"/><path class="cls-19" d="M631.84,812.67a2.49,2.49,0,0,0,1-1.89,2.45,2.45,0,0,0-.83-2"/><path class="cls-19" d="M632,808.83a2.45,2.45,0,0,0-1,1.88,2.5,2.5,0,0,0,.83,2"/><line class="cls-19" x1="632.07" y1="807" x2="627.48" y2="810.36"/><path class="cls-19" d="M627.48,810.33a2.46,2.46,0,0,0,3.11-2.26"/><path class="cls-19" d="M630.6,808.07a2.48,2.48,0,0,0-3.12,2.26"/><line class="cls-19" x1="632.07" y1="807" x2="626.61" y2="805.5"/><path class="cls-19" d="M626.6,805.48a2.5,2.5,0,0,0,1.61,1.4,2.46,2.46,0,0,0,2.1-.38"/><path class="cls-19" d="M630.33,806.5a2.48,2.48,0,0,0-3.71-1"/><line class="cls-19" x1="632.07" y1="807" x2="629.85" y2="801.78"/><path class="cls-19" d="M629.86,801.74a2.47,2.47,0,0,0,1.52,3.54"/><path class="cls-19" d="M631.36,805.29a2.47,2.47,0,0,0-1.52-3.54"/><line class="cls-19" x1="632.07" y1="807" x2="632.25" y2="803.58"/><path class="cls-19" d="M632.25,803.56a1.49,1.49,0,0,0-.6,1.14,1.46,1.46,0,0,0,.5,1.17"/><path class="cls-19" d="M632.15,805.87a1.49,1.49,0,0,0,.1-2.31"/><line class="cls-19" x1="632.07" y1="807" x2="628.71" y2="807.6"/><path class="cls-19" d="M628.74,807.6a1.48,1.48,0,0,0,1.23.33,1.45,1.45,0,0,0,1-.75"/><path class="cls-19" d="M631,807.18a1.49,1.49,0,0,0-1.23-.34,1.45,1.45,0,0,0-1,.75"/><line class="cls-19" x1="632.07" y1="807" x2="629.52" y2="804.75"/><path class="cls-19" d="M629.52,804.73a1.51,1.51,0,0,0,.5,1.18,1.54,1.54,0,0,0,1.24.35"/><path class="cls-19" d="M631.26,806.26a1.55,1.55,0,0,0-.51-1.18,1.49,1.49,0,0,0-1.23-.34"/><line class="cls-19" x1="632.07" y1="807" x2="636.36" y2="810.75"/><path class="cls-19" d="M636.38,810.74a2.48,2.48,0,0,0-2.9-2.54"/><path class="cls-19" d="M633.48,808.21a2.48,2.48,0,0,0,2.9,2.53"/><line class="cls-19" x1="632.07" y1="807" x2="634.77" y2="801.99"/><path class="cls-19" d="M634.8,802a2.47,2.47,0,0,0-1.82,3.39"/><path class="cls-19" d="M633,805.36a2.47,2.47,0,0,0,1.82-3.39"/><line class="cls-19" x1="632.07" y1="807" x2="637.68" y2="805.98"/><path class="cls-19" d="M637.69,806a2.48,2.48,0,0,0-3.79.69"/><path class="cls-19" d="M633.91,806.66a2.47,2.47,0,0,0,3.79-.68"/><line class="cls-19" x1="632.07" y1="807" x2="634.86" y2="804.99"/><path class="cls-19" d="M634.87,805a1.48,1.48,0,0,0-1.26.23,1.45,1.45,0,0,0-.61,1.13"/><path class="cls-19" d="M633,806.35a1.49,1.49,0,0,0,1.26-.24,1.44,1.44,0,0,0,.61-1.12"/><line class="cls-19" x1="632.07" y1="807" x2="635.37" y2="807.9"/><path class="cls-19" d="M635.39,807.89a1.49,1.49,0,0,0-1-.84,1.51,1.51,0,0,0-1.27.22"/><path class="cls-19" d="M633.15,807.27a1.49,1.49,0,0,0,1,.84,1.51,1.51,0,0,0,1.27-.22"/><line class="cls-19" x1="624.66" y1="789.93" x2="626.58" y2="790.41"/><path class="cls-33" d="M625.29,790.07a.5.5,0,0,0,.41.49,1.31,1.31,0,0,0,.89-.17"/><path class="cls-33" d="M626.57,790.41a.5.5,0,0,0-.41-.49,1.32,1.32,0,0,0-.89.18"/><line class="cls-19" x1="624.66" y1="789.93" x2="624.69" y2="791.85"/><path class="cls-33" d="M624.66,790.54a1.19,1.19,0,0,0-.39.79.52.52,0,0,0,.41.49"/><path class="cls-33" d="M624.68,791.83a1.19,1.19,0,0,0,.39-.78.51.51,0,0,0-.41-.5"/><line class="cls-19" x1="624.66" y1="789.93" x2="626.46" y2="792.15"/><path class="cls-33" d="M625.24,790.63a1.11,1.11,0,0,0,0,1.2,1.23,1.23,0,0,0,1.21.3"/><path class="cls-33" d="M626.47,792.13a1.11,1.11,0,0,0,0-1.2,1.23,1.23,0,0,0-1.21-.3"/><line class="cls-19" x1="624.66" y1="789.93" x2="628.62" y2="789.18"/><path class="cls-33" d="M625.93,789.67a1.25,1.25,0,0,0,1.22.3,3,3,0,0,0,1.49-.82"/><path class="cls-33" d="M628.63,789.16a1.25,1.25,0,0,0-1.22-.3,3,3,0,0,0-1.49.82"/><line class="cls-19" x1="624.66" y1="789.93" x2="627.78" y2="786.78"/><path class="cls-33" d="M625.66,788.92a3.09,3.09,0,0,0,1.49-.83,2,2,0,0,0,.65-1.32"/><path class="cls-33" d="M627.79,786.76a3.09,3.09,0,0,0-1.49.83,2,2,0,0,0-.65,1.32"/><line class="cls-19" x1="624.66" y1="789.93" x2="624.6" y2="786.78"/><path class="cls-33" d="M624.64,788.89a1.93,1.93,0,0,0,.64-1.32.84.84,0,0,0-.68-.83"/><path class="cls-33" d="M624.58,786.76a2,2,0,0,0-.64,1.32.85.85,0,0,0,.68.84"/><line class="cls-19" x1="624.66" y1="789.93" x2="623.55" y2="788.61"/><path class="cls-33" d="M624.31,789.49a.66.66,0,0,0,0-.71.74.74,0,0,0-.72-.18"/><path class="cls-33" d="M623.56,788.6a.65.65,0,0,0,0,.7.74.74,0,0,0,.72.18"/><line class="cls-19" x1="624.66" y1="789.93" x2="627.03" y2="788.64"/><path class="cls-33" d="M625.44,789.48a1.32,1.32,0,0,0,.89-.18,1.68,1.68,0,0,0,.7-.7"/><path class="cls-33" d="M627,788.63a1.34,1.34,0,0,0-.9.18,1.65,1.65,0,0,0-.7.71"/><line class="cls-19" x1="624.66" y1="789.93" x2="625.68" y2="787.83"/><path class="cls-33" d="M625,789.24a1.73,1.73,0,0,0,.71-.71.67.67,0,0,0,0-.71"/><path class="cls-33" d="M625.68,787.82a1.79,1.79,0,0,0-.71.71.66.66,0,0,0,0,.71"/><line class="cls-19" x1="624.66" y1="789.93" x2="622.92" y2="793.44"/><path class="cls-33" d="M624.09,791.05a2.84,2.84,0,0,0-1.18,1.2,1.1,1.1,0,0,0,0,1.19"/><path class="cls-33" d="M622.94,793.45a2.87,2.87,0,0,0,1.18-1.19,1.1,1.1,0,0,0,0-1.2"/><line class="cls-19" x1="624.66" y1="789.93" x2="621.42" y2="789.15"/><path class="cls-33" d="M623.63,789.66a.84.84,0,0,0-.69-.83,2.2,2.2,0,0,0-1.5.29"/><path class="cls-33" d="M621.42,789.14a.84.84,0,0,0,.69.83,2.2,2.2,0,0,0,1.5-.29"/><line class="cls-19" x1="624.66" y1="789.93" x2="620.7" y2="792.12"/><path class="cls-33" d="M623.38,790.6a2.21,2.21,0,0,0-1.5.3,2.84,2.84,0,0,0-1.19,1.19"/><path class="cls-33" d="M620.71,792.1a2.25,2.25,0,0,0,1.5-.29,3,3,0,0,0,1.19-1.19"/><line class="cls-19" x1="624.66" y1="789.93" x2="622.26" y2="790.41"/><path class="cls-33" d="M623.87,790.07a.73.73,0,0,0-.72-.18,1.77,1.77,0,0,0-.88.49"/><path class="cls-33" d="M622.29,790.39a.73.73,0,0,0,.72.17,1.77,1.77,0,0,0,.88-.49"/><line class="cls-19" x1="624.66" y1="789.93" x2="622.77" y2="791.85"/><path class="cls-33" d="M624.05,790.55a1.9,1.9,0,0,0-.89.5,1.19,1.19,0,0,0-.39.78"/><path class="cls-33" d="M622.77,791.82a2,2,0,0,0,.89-.49,1.23,1.23,0,0,0,.39-.79"/><line class="cls-19" x1="631.38" y1="787.29" x2="629.4" y2="787.11"/><path class="cls-34" d="M629.43,787.09a1.3,1.3,0,0,0,.78.45.49.49,0,0,0,.55-.33"/><path class="cls-34" d="M630.74,787.21a1.3,1.3,0,0,0-.78-.45.51.51,0,0,0-.55.33"/><line class="cls-19" x1="631.38" y1="787.29" x2="630.72" y2="789.06"/><path class="cls-34" d="M630.73,789a.48.48,0,0,0,.54-.33,1.21,1.21,0,0,0-.11-.87"/><path class="cls-34" d="M631.18,787.84a.5.5,0,0,0-.54.33,1.2,1.2,0,0,0,.11.87"/><line class="cls-19" x1="631.38" y1="787.29" x2="628.95" y2="788.76"/><path class="cls-34" d="M629,788.76a1.23,1.23,0,0,0,1.24.1,1.07,1.07,0,0,0,.42-1.12"/><path class="cls-34" d="M630.59,787.74a1.21,1.21,0,0,0-1.24-.11,1.08,1.08,0,0,0-.42,1.12"/><line class="cls-19" x1="631.38" y1="787.29" x2="627.87" y2="785.25"/><path class="cls-34" d="M627.86,785.24A3,3,0,0,0,629,786.5a1.25,1.25,0,0,0,1.25.12"/><path class="cls-34" d="M630.27,786.6a3,3,0,0,0-1.14-1.26,1.25,1.25,0,0,0-1.25-.12"/><line class="cls-19" x1="631.38" y1="787.29" x2="629.43" y2="783.27"/><path class="cls-34" d="M629.44,783.25a2,2,0,0,0,.19,1.47,3,3,0,0,0,1.13,1.27"/><path class="cls-34" d="M630.76,786a2,2,0,0,0-.18-1.47,3,3,0,0,0-1.14-1.26"/><line class="cls-19" x1="631.38" y1="787.29" x2="632.46" y2="784.29"/><path class="cls-34" d="M632.46,784.27a.84.84,0,0,0-.92.56,2,2,0,0,0,.18,1.47"/><path class="cls-34" d="M631.73,786.31a.84.84,0,0,0,.92-.56,2,2,0,0,0-.18-1.47"/><line class="cls-19" x1="631.38" y1="787.29" x2="632.85" y2="786.39"/><path class="cls-34" d="M632.84,786.39a.71.71,0,0,0-.73-.07.64.64,0,0,0-.24.66"/><path class="cls-34" d="M631.86,787a.72.72,0,0,0,.73.06.63.63,0,0,0,.24-.66"/><line class="cls-19" x1="631.38" y1="787.29" x2="629.55" y2="785.28"/><path class="cls-34" d="M629.59,785.25a1.7,1.7,0,0,0,.44.9,1.22,1.22,0,0,0,.78.46"/><path class="cls-34" d="M630.79,786.62a1.75,1.75,0,0,0-.43-.9,1.31,1.31,0,0,0-.79-.46"/><line class="cls-19" x1="631.38" y1="787.29" x2="631.08" y2="784.95"/><path class="cls-34" d="M631.11,784.94a.66.66,0,0,0-.23.67,1.67,1.67,0,0,0,.43.9"/><path class="cls-34" d="M631.31,786.51a.66.66,0,0,0,.23-.67,1.67,1.67,0,0,0-.43-.9"/><line class="cls-19" x1="631.38" y1="787.29" x2="631.86" y2="791.16"/><path class="cls-34" d="M631.88,791.14a1.11,1.11,0,0,0,.41-1.13,2.92,2.92,0,0,0-.73-1.51"/><path class="cls-34" d="M631.53,788.5a1.12,1.12,0,0,0-.41,1.13,2.92,2.92,0,0,0,.73,1.51"/><line class="cls-19" x1="631.38" y1="787.29" x2="634.68" y2="787.56"/><path class="cls-34" d="M634.69,787.55a2.19,2.19,0,0,0-1.32-.76.83.83,0,0,0-.92.56"/><path class="cls-34" d="M632.44,787.35a2.19,2.19,0,0,0,1.32.76.83.83,0,0,0,.92-.55"/><line class="cls-19" x1="631.38" y1="787.29" x2="634.41" y2="790.62"/><path class="cls-34" d="M634.42,790.6a2.94,2.94,0,0,0-.74-1.51,2.21,2.21,0,0,0-1.32-.77"/><path class="cls-34" d="M632.36,788.35a2.85,2.85,0,0,0,.73,1.51,2.16,2.16,0,0,0,1.32.77"/><line class="cls-19" x1="631.38" y1="787.29" x2="633.48" y2="788.49"/><path class="cls-34" d="M633.5,788.49a1.84,1.84,0,0,0-.68-.75.72.72,0,0,0-.74-.07"/><path class="cls-34" d="M632.07,787.64a1.84,1.84,0,0,0,.68.75.75.75,0,0,0,.74.08"/><line class="cls-19" x1="631.38" y1="787.29" x2="632.55" y2="789.69"/><path class="cls-34" d="M632.53,789.66a1.18,1.18,0,0,0-.11-.86,1.74,1.74,0,0,0-.68-.76"/><path class="cls-34" d="M631.78,788a1.21,1.21,0,0,0,.11.87,1.77,1.77,0,0,0,.68.75"/><line class="cls-19" x1="634.71" y1="799.32" x2="632.73" y2="799.14"/><path class="cls-34" d="M632.76,799.12a1.3,1.3,0,0,0,.78.45.49.49,0,0,0,.55-.33"/><path class="cls-34" d="M634.07,799.24a1.3,1.3,0,0,0-.78-.45.51.51,0,0,0-.55.33"/><line class="cls-19" x1="634.71" y1="799.32" x2="634.05" y2="801.12"/><path class="cls-34" d="M634.06,801.1a.48.48,0,0,0,.54-.33,1.21,1.21,0,0,0-.11-.87"/><path class="cls-34" d="M634.51,799.9a.5.5,0,0,0-.54.33,1.2,1.2,0,0,0,.11.87"/><line class="cls-19" x1="634.71" y1="799.32" x2="632.28" y2="800.82"/><path class="cls-34" d="M632.28,800.82a1.23,1.23,0,0,0,1.24.1,1.07,1.07,0,0,0,.42-1.12"/><path class="cls-34" d="M634,799.77a1.21,1.21,0,0,0-1.24-.11,1.08,1.08,0,0,0-.42,1.12"/><line class="cls-19" x1="634.71" y1="799.32" x2="631.2" y2="797.31"/><path class="cls-34" d="M631.22,797.27a3,3,0,0,0,1.14,1.26,1.25,1.25,0,0,0,1.25.12"/><path class="cls-34" d="M633.6,798.66a3,3,0,0,0-1.14-1.26,1.25,1.25,0,0,0-1.25-.12"/><line class="cls-19" x1="634.71" y1="799.32" x2="632.76" y2="795.3"/><path class="cls-34" d="M632.77,795.28a2,2,0,0,0,.19,1.47,3,3,0,0,0,1.13,1.27"/><path class="cls-34" d="M634.09,798a2,2,0,0,0-.18-1.47,3,3,0,0,0-1.14-1.26"/><line class="cls-19" x1="634.71" y1="799.32" x2="635.79" y2="796.35"/><path class="cls-34" d="M635.79,796.33a.82.82,0,0,0-.91.56,2,2,0,0,0,.17,1.47"/><path class="cls-34" d="M635.06,798.34a.84.84,0,0,0,.92-.56,2,2,0,0,0-.18-1.47"/><line class="cls-19" x1="634.71" y1="799.32" x2="636.18" y2="798.42"/><path class="cls-34" d="M636.17,798.42a.71.71,0,0,0-.73-.07.64.64,0,0,0-.24.66"/><path class="cls-34" d="M635.19,799a.72.72,0,0,0,.73.06.63.63,0,0,0,.24-.66"/><line class="cls-19" x1="634.71" y1="799.32" x2="632.91" y2="797.31"/><path class="cls-34" d="M632.92,797.28a1.7,1.7,0,0,0,.44.9,1.22,1.22,0,0,0,.78.46"/><path class="cls-34" d="M634.12,798.65a1.75,1.75,0,0,0-.43-.9,1.31,1.31,0,0,0-.79-.46"/><line class="cls-19" x1="634.71" y1="799.32" x2="634.44" y2="797.01"/><path class="cls-34" d="M634.44,797a.66.66,0,0,0-.23.67,1.67,1.67,0,0,0,.43.9"/><path class="cls-34" d="M634.64,798.54a.66.66,0,0,0,.23-.67,1.67,1.67,0,0,0-.43-.9"/><line class="cls-19" x1="634.71" y1="799.32" x2="635.19" y2="803.22"/><path class="cls-34" d="M635.21,803.2a1.11,1.11,0,0,0,.41-1.13,2.92,2.92,0,0,0-.73-1.51"/><path class="cls-34" d="M634.86,800.56a1.12,1.12,0,0,0-.41,1.13,2.92,2.92,0,0,0,.73,1.51"/><line class="cls-19" x1="634.71" y1="799.32" x2="638.01" y2="799.62"/><path class="cls-34" d="M638,799.61a2.19,2.19,0,0,0-1.32-.76.83.83,0,0,0-.92.56"/><path class="cls-34" d="M635.77,799.41a2.19,2.19,0,0,0,1.32.76.83.83,0,0,0,.92-.55"/><polyline class="cls-19" points="634.71 799.32 637.64 802.59 637.74 802.68"/><path class="cls-34" d="M637.75,802.66a2.94,2.94,0,0,0-.74-1.51,2.21,2.21,0,0,0-1.32-.77"/><path class="cls-34" d="M635.69,800.38a2.94,2.94,0,0,0,.65,1.43,2.41,2.41,0,0,0,1.23.82"/><path class="cls-34" d="M637.56,802.63l.18,0"/><line class="cls-19" x1="634.71" y1="799.32" x2="636.81" y2="800.55"/><path class="cls-34" d="M636.83,800.52a1.84,1.84,0,0,0-.68-.75.72.72,0,0,0-.74-.07"/><path class="cls-34" d="M635.4,799.7a1.84,1.84,0,0,0,.68.75.75.75,0,0,0,.74.08"/><line class="cls-19" x1="634.71" y1="799.32" x2="635.88" y2="801.72"/><path class="cls-34" d="M635.89,801.72a1.18,1.18,0,0,0-.11-.86,1.74,1.74,0,0,0-.68-.76"/><path class="cls-34" d="M635.11,800.09a1.21,1.21,0,0,0,.11.87,1.77,1.77,0,0,0,.68.75"/><line class="cls-19" x1="638.07" y1="802.44" x2="639.24" y2="802.8"/><path class="cls-35" d="M639.22,802.78a.81.81,0,0,0-.42-.37.27.27,0,0,0-.35.13"/><path class="cls-35" d="M638.47,802.55a.83.83,0,0,0,.42.36.27.27,0,0,0,.35-.13"/><line class="cls-19" x1="638.07" y1="802.44" x2="638.64" y2="801.45"/><path class="cls-35" d="M638.65,801.45a.27.27,0,0,0-.35.13.75.75,0,0,0,0,.54"/><path class="cls-35" d="M638.26,802.11a.29.29,0,0,0,.35-.14.7.7,0,0,0,0-.54"/><line class="cls-19" x1="638.07" y1="802.44" x2="639.66" y2="801.84"/><path class="cls-35" d="M639.65,801.83a.73.73,0,0,0-.72-.22.64.64,0,0,0-.35.63"/><path class="cls-35" d="M638.61,802.23a.73.73,0,0,0,.72.22.64.64,0,0,0,.35-.63"/><line class="cls-19" x1="638.07" y1="802.44" x2="639.96" y2="804.12"/><path class="cls-35" d="M640,804.09a2,2,0,0,0-.55-.9.75.75,0,0,0-.73-.23"/><path class="cls-35" d="M638.68,803a2,2,0,0,0,.55.91.75.75,0,0,0,.73.22"/><line class="cls-19" x1="638.07" y1="802.44" x2="638.82" y2="805.14"/><path class="cls-35" d="M638.83,805.13a1.26,1.26,0,0,0,0-.91,2,2,0,0,0-.55-.91"/><path class="cls-35" d="M638.32,803.28a1.27,1.27,0,0,0,0,.91,1.91,1.91,0,0,0,.55.91"/><line class="cls-19" x1="638.07" y1="802.44" x2="637.11" y2="804.12"/><path class="cls-35" d="M637.13,804.13a.47.47,0,0,0,.59-.23,1.24,1.24,0,0,0,0-.9"/><path class="cls-35" d="M637.77,803a.47.47,0,0,0-.59.23,1.26,1.26,0,0,0,0,.91"/><line class="cls-19" x1="638.07" y1="802.44" x2="637.11" y2="802.83"/><path class="cls-35" d="M637.11,802.78a.43.43,0,0,0,.43.13c.12,0,.19-.18.2-.37"/><path class="cls-35" d="M637.76,802.57a.42.42,0,0,0-.42-.13.38.38,0,0,0-.21.37"/><line class="cls-19" x1="638.07" y1="802.44" x2="638.94" y2="803.91"/><path class="cls-35" d="M638.94,803.89a1.06,1.06,0,0,0-.17-.6.81.81,0,0,0-.42-.37"/><path class="cls-35" d="M638.36,802.91a1,1,0,0,0,.17.59.77.77,0,0,0,.42.37"/><line class="cls-19" x1="638.07" y1="802.44" x2="638.01" y2="803.91"/><path class="cls-35" d="M638,803.87a.37.37,0,0,0,.2-.37,1.06,1.06,0,0,0-.17-.6"/><path class="cls-35" d="M638.05,802.92a.37.37,0,0,0-.2.37,1.06,1.06,0,0,0,.17.6"/><line class="cls-19" x1="638.07" y1="802.44" x2="638.16" y2="800.04"/><path class="cls-35" d="M638.18,800a.66.66,0,0,0-.35.64,1.85,1.85,0,0,0,.29,1"/><path class="cls-35" d="M638.1,801.67a.65.65,0,0,0,.35-.63,1.86,1.86,0,0,0-.29-1"/><line class="cls-19" x1="638.07" y1="802.44" x2="636.12" y2="801.87"/><path class="cls-35" d="M636.14,801.86a1.46,1.46,0,0,0,.71.62.48.48,0,0,0,.6-.22"/><path class="cls-35" d="M637.44,802.24a1.44,1.44,0,0,0-.71-.63.48.48,0,0,0-.6.22"/><line class="cls-19" x1="638.07" y1="802.44" x2="636.6" y2="800.04"/><path class="cls-35" d="M636.6,800a2,2,0,0,0,.29,1,1.36,1.36,0,0,0,.71.63"/><path class="cls-35" d="M637.61,801.66a2,2,0,0,0-.29-1,1.36,1.36,0,0,0-.71-.63"/><line class="cls-19" x1="638.07" y1="802.44" x2="636.93" y2="801.45"/><path class="cls-35" d="M637,801.44a1.12,1.12,0,0,0,.33.53.41.41,0,0,0,.42.13"/><path class="cls-35" d="M637.7,802.12a1.15,1.15,0,0,0-.33-.54.41.41,0,0,0-.42-.13"/><line class="cls-19" x1="638.07" y1="802.44" x2="637.62" y2="800.85"/><path class="cls-35" d="M637.64,800.83a.7.7,0,0,0,0,.54,1.22,1.22,0,0,0,.32.54"/><path class="cls-35" d="M637.92,801.91a.7.7,0,0,0,0-.54,1.22,1.22,0,0,0-.32-.54"/><line class="cls-19" x1="621.96" y1="803.34" x2="622.95" y2="806.28"/><path class="cls-36" d="M623,806.25a1.88,1.88,0,0,0,.16-1.37.84.84,0,0,0-.82-.61"/><path class="cls-36" d="M622.28,804.29a1.89,1.89,0,0,0-.16,1.37.83.83,0,0,0,.82.61"/><line class="cls-19" x1="621.96" y1="803.34" x2="624.96" y2="803.34"/><path class="cls-36" d="M625,803.31a.84.84,0,0,0-.83-.6,1.71,1.71,0,0,0-1.19.61"/><path class="cls-36" d="M622.93,803.33a.84.84,0,0,0,.83.6,1.71,1.71,0,0,0,1.19-.61"/><line class="cls-19" x1="621.96" y1="803.34" x2="625.62" y2="806.07"/><path class="cls-36" d="M625.66,806a2,2,0,0,0-.62-1.84,1.78,1.78,0,0,0-1.88,0"/><path class="cls-36" d="M623.14,804.21a1.93,1.93,0,0,0,.63,1.84,1.74,1.74,0,0,0,1.87,0"/><line class="cls-19" x1="621.96" y1="803.34" x2="621.24" y2="809.46"/><path class="cls-36" d="M621.25,809.43a4.31,4.31,0,0,0,1.11-2.3,2,2,0,0,0-.62-1.85"/><path class="cls-36" d="M621.73,805.29a4.28,4.28,0,0,0-1.11,2.3,2,2,0,0,0,.62,1.85"/><line class="cls-19" x1="621.96" y1="803.34" x2="617.4" y2="808.23"/><path class="cls-36" d="M617.38,808.24a2.91,2.91,0,0,0,2-1,4.28,4.28,0,0,0,1.11-2.3"/><path class="cls-36" d="M620.5,804.91a2.91,2.91,0,0,0-2,1,4.28,4.28,0,0,0-1.11,2.3"/><line class="cls-19" x1="621.96" y1="803.34" x2="616.98" y2="803.34"/><path class="cls-36" d="M617,803.33a1.43,1.43,0,0,0,1.39,1,2.93,2.93,0,0,0,2-1"/><path class="cls-36" d="M620.37,803.32a1.41,1.41,0,0,0-1.39-1,2.91,2.91,0,0,0-2,1"/><line class="cls-19" x1="621.96" y1="803.34" x2="619.77" y2="801.72"/><path class="cls-36" d="M619.79,801.72a1.15,1.15,0,0,0,.36,1.09,1,1,0,0,0,1.12,0"/><path class="cls-36" d="M621.27,802.8a1.14,1.14,0,0,0-.36-1.1,1,1,0,0,0-1.12,0"/><line class="cls-19" x1="621.96" y1="803.34" x2="620.19" y2="807"/><path class="cls-36" d="M620.21,807a2.51,2.51,0,0,0,1-1.11,1.84,1.84,0,0,0,.17-1.37"/><path class="cls-36" d="M621.39,804.52a2.51,2.51,0,0,0-1,1.11,1.85,1.85,0,0,0-.17,1.37"/><line class="cls-19" x1="621.96" y1="803.34" x2="618.78" y2="804.99"/><path class="cls-36" d="M618.78,805a1,1,0,0,0,1.12,0,2.45,2.45,0,0,0,1-1.1"/><path class="cls-36" d="M620.93,803.85a1.07,1.07,0,0,0-1.12,0,2.56,2.56,0,0,0-1,1.1"/><line class="cls-19" x1="621.96" y1="803.34" x2="627.27" y2="800.64"/><path class="cls-36" d="M627.28,800.61a1.78,1.78,0,0,0-1.88,0,4,4,0,0,0-1.73,1.83"/><path class="cls-36" d="M623.69,802.46a1.8,1.8,0,0,0,1.88,0,4.11,4.11,0,0,0,1.72-1.84"/><line class="cls-19" x1="621.96" y1="803.34" x2="620.34" y2="798.45"/><path class="cls-36" d="M620.32,798.44a3.16,3.16,0,0,0-.26,2.29,1.4,1.4,0,0,0,1.38,1"/><path class="cls-36" d="M621.46,801.76a3.18,3.18,0,0,0,.26-2.3,1.4,1.4,0,0,0-1.38-1"/><line class="cls-19" x1="621.96" y1="803.34" x2="624.9" y2="797.25"/><path class="cls-36" d="M624.9,797.2a4.13,4.13,0,0,0-1.72,1.85,3.2,3.2,0,0,0-.28,2.3"/><path class="cls-36" d="M622.94,801.37a4.08,4.08,0,0,0,1.72-1.85,3.19,3.19,0,0,0,.28-2.3"/><line class="cls-19" x1="621.96" y1="803.34" x2="622.41" y2="799.68"/><path class="cls-36" d="M622.43,799.67a2.58,2.58,0,0,0-.66,1.38,1.15,1.15,0,0,0,.36,1.1"/><path class="cls-36" d="M622.11,802.14a2.48,2.48,0,0,0,.66-1.37,1.16,1.16,0,0,0-.36-1.11"/><line class="cls-19" x1="621.96" y1="803.34" x2="624.72" y2="800.4"/><path class="cls-36" d="M624.71,800.4a1.73,1.73,0,0,0-1.19.61,2.52,2.52,0,0,0-.67,1.38"/><path class="cls-36" d="M622.86,802.37a1.77,1.77,0,0,0,1.2-.61,2.54,2.54,0,0,0,.66-1.38"/><line class="cls-19" x1="619.23" y1="813.03" x2="640.71" y2="813.03"/><polyline class="cls-19" points="622.28 832.98 622.28 828.39 619.23 813.03"/><line class="cls-19" x1="637.65" y1="828.39" x2="640.71" y2="813.03"/><line class="cls-28" x1="614.7" y1="671.7" x2="482.97" y2="671.7"/><line class="cls-28" x1="614.7" y1="1025.04" x2="482.97" y2="1025.04"/><line class="cls-28" x1="485.52" y1="669.12" x2="485.52" y2="1027.59"/><line class="cls-28" x1="488.07" y1="674.25" x2="482.97" y2="669.12"/><line class="cls-28" x1="482.97" y1="1022.49" x2="488.07" y2="1027.59"/><path class="cls-25" d="M483.48,854.55l-6.24-12.39h6.24Zm-6.24,0h6.24l-6.24-12.39Z"/><path class="cls-37" d="M483.48,854.55l-6.24-12.39h6.24Zm-6.24,0h6.24l-6.24-12.39Z"/><text class="cls-38" transform="translate(482.88 854.25) rotate(-90)">249</text><line class="cls-28" x1="635.94" y1="728.37" x2="508.68" y2="728.37"/><line class="cls-28" x1="635.94" y1="671.7" x2="508.68" y2="671.7"/><line class="cls-28" x1="511.23" y1="730.92" x2="511.23" y2="669.12"/><line class="cls-28" x1="508.68" y1="725.82" x2="513.78" y2="730.92"/><line class="cls-28" x1="513.78" y1="674.25" x2="508.68" y2="669.12"/><path class="cls-25" d="M509.19,704.28,503,695.76h6.24Zm-6.24,0h6.24L503,695.76Z"/><path class="cls-37" d="M509.19,704.28,503,695.76h6.24Zm-6.24,0h6.24L503,695.76Z"/><text class="cls-38" transform="translate(508.59 703.86) rotate(-90)">40</text><line class="cls-28" x1="635.94" y1="728.37" x2="508.68" y2="728.37"/><line class="cls-28" x1="635.94" y1="898.38" x2="508.68" y2="898.38"/><line class="cls-28" x1="511.23" y1="725.82" x2="511.23" y2="900.93"/><line class="cls-28" x1="513.78" y1="730.92" x2="508.68" y2="725.82"/><line class="cls-28" x1="508.68" y1="895.83" x2="513.78" y2="900.93"/><path class="cls-25" d="M509.19,819.27,503,807.48h6.24Zm-6.24,0h6.24L503,807.48Z"/><path class="cls-37" d="M509.19,819.27,503,807.48h6.24Zm-6.24,0h6.24L503,807.48Z"/><text class="cls-38" transform="translate(508.59 819.54) rotate(-90)">120</text><line class="cls-28" x1="635.94" y1="898.38" x2="508.68" y2="898.38"/><line class="cls-28" x1="635.94" y1="1025.04" x2="508.68" y2="1025.04"/><line class="cls-28" x1="511.23" y1="895.83" x2="511.23" y2="1027.59"/><line class="cls-28" x1="513.78" y1="900.93" x2="508.68" y2="895.83"/><line class="cls-28" x1="508.68" y1="1022.49" x2="513.78" y2="1027.59"/><path class="cls-25" d="M509.19,965.88,503,957.54h6.24Zm-6.24,0h6.24L503,957.54Z"/><path class="cls-37" d="M509.19,965.88,503,957.54h6.24Zm-6.24,0h6.24L503,957.54Z"/><text class="cls-38" transform="translate(508.59 965.67) rotate(-90)">89</text><line class="cls-28" x1="614.7" y1="920.16" x2="549.36" y2="920.16"/><line class="cls-28" x1="614.7" y1="1025.04" x2="549.36" y2="1025.04"/><line class="cls-28" x1="551.91" y1="917.61" x2="551.91" y2="1027.59"/><line class="cls-28" x1="554.46" y1="922.71" x2="549.36" y2="917.61"/><line class="cls-28" x1="549.36" y1="1022.49" x2="554.46" y2="1027.59"/><path class="cls-25" d="M549.87,976.74l-6.12-8.28h6.12Zm-6.12,0h6.12l-6.12-8.28Z"/><path class="cls-37" d="M549.87,976.74l-6.12-8.28h6.12Zm-6.12,0h6.12l-6.12-8.28Z"/><text class="cls-38" transform="translate(549.36 976.56) rotate(-90)">74</text><polyline class="cls-26" points="578.88 643.35 1048.67 643.35 1048.67 615"/><polyline class="cls-26" points="578.88 1054.38 1048.67 1054.38 1048.67 1122.27"/><line class="cls-26" x1="595.14" y1="1026.03" x2="578.88" y2="1026.03"/><line class="cls-26" x1="595.14" y1="671.7" x2="578.88" y2="671.7"/><line class="cls-28" x1="578.88" y1="627.36" x2="578.88" y2="663.6"/><line class="cls-28" x1="578.88" y1="684.87" x2="578.88" y2="684.87"/><line class="cls-28" x1="578.88" y1="706.11" x2="578.88" y2="748.65"/><line class="cls-28" x1="578.88" y1="769.89" x2="578.88" y2="769.89"/><line class="cls-28" x1="578.88" y1="791.16" x2="578.88" y2="833.7"/><line class="cls-28" x1="578.88" y1="854.94" x2="578.88" y2="854.94"/><line class="cls-28" x1="578.88" y1="876.21" x2="578.88" y2="918.72"/><line class="cls-28" x1="578.88" y1="939.99" x2="578.88" y2="939.99"/><line class="cls-28" x1="578.88" y1="961.26" x2="578.88" y2="1003.77"/><line class="cls-28" x1="578.88" y1="1025.04" x2="578.88" y2="1025.04"/><line class="cls-28" x1="1051.65" y1="1122.33" x2="1051.65" y2="1122.33"/><line class="cls-28" x1="1051.65" y1="615" x2="1051.65" y2="615"/><polyline class="cls-39" points="376.74 1007.97 470.94 1007.97 470.94 977.1 376.74 977.1 376.74 1007.97"/><text class="cls-40" transform="translate(385.77 990.57)">GETTACARTE - KARTELL</text><text class="cls-40" transform="translate(392.31 998.46)">ABS colorato in massa</text><line class="cls-28" x1="470.94" y1="998.1" x2="655.68" y2="998.1"/><polyline class="cls-39" points="376.74 784.38 470.94 784.38 470.94 753.51 376.74 753.51 376.74 784.38"/><text class="cls-40" transform="translate(403.08 763.77)">Mensola EKBY</text><text class="cls-40" transform="translate(386.25 771.6)">JARPEN-002.510.36-IKEA</text><text class="cls-40" transform="translate(400.62 779.43)">truciolare laccato</text><line class="cls-28" x1="470.94" y1="774.51" x2="625.71" y2="774.51"/><polyline class="cls-39" points="830.73 1109.73 924.92 1109.73 924.92 1078.86 830.73 1078.86 830.73 1109.73"/><text class="cls-40" transform="translate(851.43 1088.88)">Lampada da tavolo</text><text class="cls-40" transform="translate(838.07 1096.77)">ANTIFONI-203.047.36-IKEA</text><text class="cls-40" transform="translate(868.98 1104.6)">Acciaio</text><line class="cls-28" x1="842.61" y1="1078.86" x2="776.67" y2="919.59"/><line class="cls-19" x1="661.29" y1="672.01" x2="675.87" y2="672.01"/><path class="cls-41" d="M927.85,672.12h0v4.77a9.47,9.47,0,1,1-18.93,0l0-4.77Z"/><path class="cls-42" d="M680.25,672.28h0v4.77a9.47,9.47,0,1,1-18.93,0l0-4.77Z"/><path class="cls-43" d="M680.25,715.63a22,22,0,0,0,0,11.1l0,0a43.26,43.26,0,0,1,15.15,34.62H646.15a43.26,43.26,0,0,1,15.15-34.62v0a22,22,0,0,0,0-11.1v0h18.93"/><line class="cls-21" x1="708.12" y1="955.59" x2="712.38" y2="955.59"/><line class="cls-21" x1="708.12" y1="968.34" x2="712.38" y2="968.34"/><rect class="cls-44" x="708.12" y="955.59" width="4.26" height="12.75"/><rect class="cls-45" x="706.71" y="968.34" width="7.08" height="44.28"/><rect class="cls-13" x="616.69" y="943.39" width="5.67" height="81.78"/></g></svg>