<?xml version="1.0" encoding="utf-8"?>
<!-- Generator: Adobe Illustrator 22.1.0, SVG Export Plug-In . SVG Version: 6.00 Build 0)  -->
<svg version="1.1" id="Livello_1" xmlns="http://www.w3.org/2000/svg" xmlns:xlink="http://www.w3.org/1999/xlink" x="0px" y="0px"
	 viewBox="0 0 1190.6 1190.6" style="enable-background:new 0 0 1190.6 1190.6;" xml:space="preserve">
<style type="text/css">
	.st0{fill:#A8DEE9;}
	.st1{fill:none;stroke:#6ABD45;stroke-miterlimit:10;}
	.st2{fill:none;stroke:#EE2724;stroke-miterlimit:10;}
	.st3{fill:none;stroke:#F8EC00;stroke-miterlimit:10;}
	.st4{clip-path:url(#SVGID_2_);}
	.st5{clip-path:url(#SVGID_4_);}
</style>
<title>892922_05</title>
<g id="Livello_1_1_">
	<g id="Sfondo">
		<rect y="0" class="st0" width="1190.6" height="1190.6"/>
	</g>
	<g id="Griglia_base">
		<g id="_3">
			<rect x="60.9" y="60.9" class="st1" width="147.4" height="147.4"/>
			<rect x="245.2" y="60.9" class="st1" width="147.4" height="147.4"/>
			<rect x="429.5" y="60.9" class="st1" width="147.4" height="147.4"/>
			<rect x="613.7" y="60.9" class="st1" width="147.4" height="147.4"/>
			<rect x="798" y="60.9" class="st1" width="147.4" height="147.4"/>
			<rect x="982.2" y="60.9" class="st1" width="147.4" height="147.4"/>
			<rect x="60.9" y="245.2" class="st1" width="147.4" height="147.4"/>
			<rect x="245.2" y="245.2" class="st1" width="147.4" height="147.4"/>
			<rect x="429.5" y="245.2" class="st1" width="147.4" height="147.4"/>
			<rect x="613.7" y="245.2" class="st1" width="147.4" height="147.4"/>
			<rect x="798" y="245.2" class="st1" width="147.4" height="147.4"/>
			<rect x="982.2" y="245.2" class="st1" width="147.4" height="147.4"/>
			<rect x="60.9" y="429.5" class="st1" width="147.4" height="147.4"/>
			<rect x="245.2" y="429.5" class="st1" width="147.4" height="147.4"/>
			<rect x="429.5" y="429.5" class="st1" width="147.4" height="147.4"/>
			<rect x="613.7" y="429.5" class="st1" width="147.4" height="147.4"/>
			<rect x="798" y="429.5" class="st1" width="147.4" height="147.4"/>
			<rect x="982.2" y="429.5" class="st1" width="147.4" height="147.4"/>
			<rect x="60.9" y="613.7" class="st1" width="147.4" height="147.4"/>
			<rect x="245.2" y="613.7" class="st1" width="147.4" height="147.4"/>
			<rect x="429.5" y="613.7" class="st1" width="147.4" height="147.4"/>
			<rect x="613.7" y="613.7" class="st1" width="147.4" height="147.4"/>
			<rect x="798" y="613.7" class="st1" width="147.4" height="147.4"/>
			<rect x="982.2" y="613.7" class="st1" width="147.4" height="147.4"/>
			<rect x="60.9" y="798" class="st1" width="147.4" height="147.4"/>
			<rect x="245.2" y="798" class="st1" width="147.4" height="147.4"/>
			<rect x="429.5" y="798" class="st1" width="147.4" height="147.4"/>
			<rect x="613.7" y="798" class="st1" width="147.4" height="147.4"/>
			<rect x="798" y="798" class="st1" width="147.4" height="147.4"/>
			<rect x="982.2" y="798" class="st1" width="147.4" height="147.4"/>
			<rect x="60.9" y="982.2" class="st1" width="147.4" height="147.4"/>
			<rect x="245.2" y="982.2" class="st1" width="147.4" height="147.4"/>
			<rect x="429.5" y="982.2" class="st1" width="147.4" height="147.4"/>
			<rect x="613.7" y="982.2" class="st1" width="147.4" height="147.4"/>
			<rect x="798" y="982.2" class="st1" width="147.4" height="147.4"/>
			<rect x="982.2" y="982.2" class="st1" width="147.4" height="147.4"/>
		</g>
		<g id="_2">
			<rect x="60.9" y="60.9" class="st2" width="184.2" height="184.2"/>
			<rect x="282" y="60.9" class="st2" width="184.2" height="184.2"/>
			<rect x="503.1" y="60.9" class="st2" width="184.3" height="184.2"/>
			<rect x="724.2" y="60.9" class="st2" width="184.2" height="184.2"/>
			<rect x="945.3" y="60.9" class="st2" width="184.2" height="184.2"/>
			<rect x="60.9" y="282.1" class="st2" width="184.2" height="184.2"/>
			<rect x="282" y="282.1" class="st2" width="184.2" height="184.2"/>
			<rect x="503.1" y="282.1" class="st2" width="184.3" height="184.2"/>
			<rect x="724.2" y="282.1" class="st2" width="184.2" height="184.2"/>
			<rect x="945.3" y="282.1" class="st2" width="184.2" height="184.2"/>
			<rect x="60.9" y="503.2" class="st2" width="184.2" height="184.3"/>
			<rect x="282" y="503.2" class="st2" width="184.2" height="184.3"/>
			<rect x="503.1" y="503.2" class="st2" width="184.3" height="184.3"/>
			<rect x="724.2" y="503.2" class="st2" width="184.2" height="184.3"/>
			<rect x="945.3" y="503.2" class="st2" width="184.2" height="184.3"/>
			<rect x="60.9" y="724.3" class="st2" width="184.2" height="184.2"/>
			<rect x="282" y="724.3" class="st2" width="184.2" height="184.2"/>
			<rect x="503.1" y="724.3" class="st2" width="184.3" height="184.2"/>
			<rect x="724.2" y="724.3" class="st2" width="184.2" height="184.2"/>
			<rect x="945.3" y="724.3" class="st2" width="184.2" height="184.2"/>
			<rect x="60.9" y="945.4" class="st2" width="184.2" height="184.2"/>
			<rect x="282" y="945.4" class="st2" width="184.2" height="184.2"/>
			<rect x="503.1" y="945.4" class="st2" width="184.3" height="184.2"/>
			<rect x="724.2" y="945.4" class="st2" width="184.2" height="184.2"/>
			<rect x="945.3" y="945.4" class="st2" width="184.2" height="184.2"/>
		</g>
		<g id="_1">
			<rect x="60.9" y="60.9" class="st3" width="239.5" height="239.5"/>
			<rect x="337.3" y="60.9" class="st3" width="239.5" height="239.5"/>
			<rect x="613.7" y="60.9" class="st3" width="239.5" height="239.5"/>
			<rect x="890.1" y="60.9" class="st3" width="239.5" height="239.5"/>
			<rect x="60.9" y="337.3" class="st3" width="239.5" height="239.5"/>
			<rect x="337.3" y="337.3" class="st3" width="239.5" height="239.5"/>
			<rect x="613.7" y="337.3" class="st3" width="239.5" height="239.5"/>
			<rect x="890.1" y="337.3" class="st3" width="239.5" height="239.5"/>
			<rect x="60.9" y="613.7" class="st3" width="239.5" height="239.5"/>
			<rect x="337.3" y="613.7" class="st3" width="239.5" height="239.5"/>
			<rect x="613.7" y="613.7" class="st3" width="239.5" height="239.5"/>
			<rect x="890.1" y="613.7" class="st3" width="239.5" height="239.5"/>
			<rect x="60.9" y="890.1" class="st3" width="239.5" height="239.5"/>
			<rect x="337.3" y="890.1" class="st3" width="239.5" height="239.5"/>
			<rect x="613.7" y="890.1" class="st3" width="239.5" height="239.5"/>
			<rect x="890.1" y="890.1" class="st3" width="239.5" height="239.5"/>
		</g>
	</g>
	<g>
		<defs>
			<circle id="SVGID_1_" cx="1009.8" cy="180.7" r="119.8"/>
		</defs>
		<clipPath id="SVGID_2_">
			<use xlink:href="#SVGID_1_"  style="overflow:visible;"/>
		</clipPath>
		<g class="st4">
			
				<image style="overflow:visible;enable-background:new    ;" width="850" height="484" xlink:href="892922_05.jpg"  transform="matrix(0.68 0 0 0.68 709.04 21.84)">
			</image>
		</g>
	</g>
</g>
<g id="Livello_2_1_">
	<g>
		<defs>
			<rect id="SVGID_3_" x="60.9" y="282.1" width="184.2" height="184.2"/>
		</defs>
		<clipPath id="SVGID_4_">
			<use xlink:href="#SVGID_3_"  style="overflow:visible;"/>
		</clipPath>
		<g class="st5">
			
				<image style="overflow:visible;enable-background:new    ;" width="550" height="413" xlink:href="892922_03.jpg"  transform="matrix(0.74 0 0 0.71 60.94 208.34)">
			</image>
		</g>
	</g>
</g>
</svg>
