<svg id="Livello_1" data-name="Livello 1" xmlns="http://www.w3.org/2000/svg" viewBox="0 0 1191.6 1191.6"><defs><style>.cls-1{fill:#ace5da;stroke:#77c5bb;}.cls-1,.cls-3,.cls-4,.cls-5{stroke-miterlimit:10;}.cls-2,.cls-3,.cls-4,.cls-5{fill:none;}.cls-3{stroke:#b20485;}.cls-3,.cls-4,.cls-5{stroke-width:3px;}.cls-4{stroke:#d83f9e;}.cls-5{stroke:#f4b3ea;}</style></defs><title>893246_01</title><rect class="cls-1" x="0.5" y="0.5" width="1190.6" height="1190.6"/><rect class="cls-2" x="52.62" y="122.67" width="224.99" height="205.49"/><path class="cls-3" d="M61,61H300.5V300.5H61ZM337.35,300.5H576.87V61H337.35Zm276.38,0H853.25V61H613.73Zm276.37,0h239.53V61H890.1ZM61,576.87H300.5V337.35H61Zm276.38,0H576.87V337.35H337.35Zm276.38,0H853.25V337.35H613.73Zm276.37,0h239.53V337.35H890.1ZM61,853.25H300.5V613.73H61Zm276.38,0H576.87V613.73H337.35Zm276.38,0H853.25V613.73H613.73Zm276.37,0h239.53V613.73H890.1ZM61,1129.63H300.5V890.1H61Zm276.38,0H576.87V890.1H337.35Zm276.38,0H853.25V890.1H613.73Zm276.37,0h239.53V890.1H890.1Z" transform="translate(0.5 0.5)"/><path class="cls-4" d="M61,61H245.22V245.22H61Zm221.1,184.25H466.32V61H282.07Zm221.1,0H687.43V61H503.17Zm221.11,0H908.53V61H724.28Zm221.1,0h184.25V61H945.38ZM61,466.32H245.22V282.07H61Zm221.1,0H466.32V282.07H282.07Zm221.1,0H687.43V282.07H503.17Zm221.11,0H908.53V282.07H724.28Zm221.1,0h184.25V282.07H945.38ZM61,687.43H245.22V503.17H61Zm221.1,0H466.32V503.17H282.07Zm221.1,0H687.43V503.17H503.17Zm221.11,0H908.53V503.17H724.28Zm221.1,0h184.25V503.17H945.38ZM61,908.53H245.22V724.28H61Zm221.1,0H466.32V724.28H282.07Zm221.1,0H687.43V724.28H503.17Zm221.11,0H908.53V724.28H724.28Zm221.1,0h184.25V724.28H945.38ZM61,1129.63H245.22V945.38H61Zm221.1,0H466.32V945.38H282.07Zm221.1,0H687.43V945.38H503.17Zm221.11,0H908.53V945.38H724.28Zm221.1,0h184.25V945.38H945.38Z" transform="translate(0.5 0.5)"/><path class="cls-5" d="M61,61h147.4v147.4H61Zm184.25,147.4h147.4V61H245.22Zm184.25,0h147.4V61H429.47Zm184.26,0h147.4V61H613.73Zm184.25,0h147.4V61H798Zm184.25,0h147.4V61H982.23ZM61,392.62h147.4V245.22H61Zm184.25,0h147.4V245.22H245.22Zm184.25,0h147.4V245.22H429.47Zm184.26,0h147.4V245.22H613.73Zm184.25,0h147.4V245.22H798Zm184.25,0h147.4V245.22H982.23ZM61,576.87h147.4V429.47H61Zm184.25,0h147.4V429.47H245.22Zm184.25,0h147.4V429.47H429.47Zm184.26,0h147.4V429.47H613.73Zm184.25,0h147.4V429.47H798Zm184.25,0h147.4V429.47H982.23ZM61,761.13h147.4V613.73H61Zm184.25,0h147.4V613.73H245.22Zm184.25,0h147.4V613.73H429.47Zm184.26,0h147.4V613.73H613.73Zm184.25,0h147.4V613.73H798Zm184.25,0h147.4V613.73H982.23ZM61,945.38h147.4V798H61Zm184.25,0h147.4V798H245.22Zm184.25,0h147.4V798H429.47Zm184.26,0h147.4V798H613.73Zm184.25,0h147.4V798H798Zm184.25,0h147.4V798H982.23ZM61,1129.63h147.4V982.23H61Zm184.25,0h147.4V982.23H245.22Zm184.25,0h147.4V982.23H429.47Zm184.26,0h147.4V982.23H613.73Zm184.25,0h147.4V982.23H798Zm184.25,0h147.4V982.23H982.23Z" transform="translate(0.5 0.5)"/></svg>