<svg id="Livello_1" data-name="Livello 1" xmlns="http://www.w3.org/2000/svg" viewBox="0 0 1190.55 1190.55"><defs><style>.cls-1{fill:#cbbba0;}.cls-1,.cls-4{stroke:#29235c;}.cls-1,.cls-2,.cls-3,.cls-4{stroke-miterlimit:10;}.cls-2,.cls-3,.cls-4{fill:none;}.cls-2{stroke:#063;}.cls-3{stroke:#00a19a;}</style></defs><title>893200_01</title><rect class="cls-1" width="1190.55" height="1190.55"/><rect class="cls-2" x="890.86" y="890.28" width="239.53" height="239.53"/><rect class="cls-2" x="614.49" y="890.28" width="239.53" height="239.53"/><rect class="cls-2" x="338.11" y="890.28" width="239.53" height="239.53"/><rect class="cls-2" x="61.73" y="890.28" width="239.53" height="239.53"/><rect class="cls-2" x="890.86" y="613.9" width="239.53" height="239.53"/><rect class="cls-2" x="614.49" y="613.9" width="239.53" height="239.53"/><rect class="cls-2" x="338.11" y="613.9" width="239.53" height="239.53"/><rect class="cls-2" x="61.73" y="613.9" width="239.53" height="239.53"/><rect class="cls-2" x="890.86" y="337.52" width="239.53" height="239.53"/><rect class="cls-2" x="614.49" y="337.52" width="239.53" height="239.53"/><rect class="cls-2" x="338.11" y="337.52" width="239.53" height="239.53"/><rect class="cls-2" x="61.73" y="337.52" width="239.53" height="239.53"/><rect class="cls-2" x="890.86" y="61.14" width="239.53" height="239.53"/><rect class="cls-2" x="614.49" y="61.14" width="239.53" height="239.53"/><rect class="cls-2" x="338.11" y="61.14" width="239.53" height="239.53"/><rect class="cls-2" x="61.73" y="61.14" width="239.53" height="239.53"/><rect class="cls-3" x="946.14" y="945.55" width="184.25" height="184.25"/><rect class="cls-3" x="725.04" y="945.55" width="184.25" height="184.25"/><rect class="cls-3" x="503.93" y="945.55" width="184.25" height="184.25"/><rect class="cls-3" x="282.83" y="945.55" width="184.25" height="184.25"/><rect class="cls-3" x="61.73" y="945.55" width="184.25" height="184.25"/><rect class="cls-3" x="946.14" y="724.45" width="184.25" height="184.25"/><rect class="cls-3" x="725.04" y="724.45" width="184.25" height="184.25"/><rect class="cls-3" x="503.93" y="724.45" width="184.25" height="184.25"/><rect class="cls-3" x="282.83" y="724.45" width="184.25" height="184.25"/><rect class="cls-3" x="61.73" y="724.45" width="184.25" height="184.25"/><rect class="cls-3" x="946.14" y="503.35" width="184.25" height="184.25"/><rect class="cls-3" x="725.04" y="503.35" width="184.25" height="184.25"/><rect class="cls-3" x="503.93" y="503.35" width="184.25" height="184.25"/><rect class="cls-3" x="282.83" y="503.35" width="184.25" height="184.25"/><rect class="cls-3" x="61.73" y="503.35" width="184.25" height="184.25"/><rect class="cls-3" x="946.14" y="282.25" width="184.25" height="184.25"/><rect class="cls-3" x="725.04" y="282.25" width="184.25" height="184.25"/><rect class="cls-3" x="503.93" y="282.25" width="184.25" height="184.25"/><rect class="cls-3" x="282.83" y="282.25" width="184.25" height="184.25"/><rect class="cls-3" x="61.73" y="282.25" width="184.25" height="184.25"/><rect class="cls-3" x="946.14" y="61.14" width="184.25" height="184.25"/><rect class="cls-3" x="725.04" y="61.14" width="184.25" height="184.25"/><rect class="cls-3" x="503.93" y="61.14" width="184.25" height="184.25"/><rect class="cls-3" x="282.83" y="61.14" width="184.25" height="184.25"/><rect class="cls-3" x="61.73" y="61.14" width="184.25" height="184.25"/><rect class="cls-4" x="982.99" y="982.4" width="147.4" height="147.4"/><rect class="cls-4" x="798.74" y="982.4" width="147.4" height="147.4"/><rect class="cls-4" x="614.49" y="982.4" width="147.4" height="147.4"/><rect class="cls-4" x="430.23" y="982.4" width="147.4" height="147.4"/><rect class="cls-4" x="245.98" y="982.4" width="147.4" height="147.4"/><rect class="cls-4" x="61.73" y="982.4" width="147.4" height="147.4"/><rect class="cls-4" x="982.99" y="798.15" width="147.4" height="147.4"/><rect class="cls-4" x="798.74" y="798.15" width="147.4" height="147.4"/><rect class="cls-4" x="614.49" y="798.15" width="147.4" height="147.4"/><rect class="cls-4" x="430.23" y="798.15" width="147.4" height="147.4"/><rect class="cls-4" x="245.98" y="798.15" width="147.4" height="147.4"/><rect class="cls-4" x="61.73" y="798.15" width="147.4" height="147.4"/><rect class="cls-4" x="982.99" y="613.9" width="147.4" height="147.4"/><rect class="cls-4" x="798.74" y="613.9" width="147.4" height="147.4"/><rect class="cls-4" x="614.49" y="613.9" width="147.4" height="147.4"/><rect class="cls-4" x="430.23" y="613.9" width="147.4" height="147.4"/><rect class="cls-4" x="245.98" y="613.9" width="147.4" height="147.4"/><rect class="cls-4" x="61.73" y="613.9" width="147.4" height="147.4"/><rect class="cls-4" x="982.99" y="429.65" width="147.4" height="147.4"/><rect class="cls-4" x="798.74" y="429.65" width="147.4" height="147.4"/><rect class="cls-4" x="614.49" y="429.65" width="147.4" height="147.4"/><rect class="cls-4" x="430.23" y="429.65" width="147.4" height="147.4"/><rect class="cls-4" x="245.98" y="429.65" width="147.4" height="147.4"/><rect class="cls-4" x="61.73" y="429.65" width="147.4" height="147.4"/><rect class="cls-4" x="982.99" y="245.39" width="147.4" height="147.4"/><rect class="cls-4" x="798.74" y="245.39" width="147.4" height="147.4"/><rect class="cls-4" x="614.49" y="245.39" width="147.4" height="147.4"/><rect class="cls-4" x="430.23" y="245.39" width="147.4" height="147.4"/><rect class="cls-4" x="245.98" y="245.39" width="147.4" height="147.4"/><rect class="cls-4" x="61.73" y="245.39" width="147.4" height="147.4"/><rect class="cls-4" x="982.99" y="61.14" width="147.4" height="147.4"/><rect class="cls-4" x="798.74" y="61.14" width="147.4" height="147.4"/><rect class="cls-4" x="614.49" y="61.14" width="147.4" height="147.4"/><rect class="cls-4" x="430.23" y="61.14" width="147.4" height="147.4"/><rect class="cls-4" x="245.98" y="61.14" width="147.4" height="147.4"/><rect class="cls-4" x="61.73" y="61.14" width="147.4" height="147.4"/></svg>