<?xml version="1.0" encoding="utf-8"?>
<!-- Generator: Adobe Illustrator 22.1.0, SVG Export Plug-In . SVG Version: 6.00 Build 0)  -->
<svg version="1.1" id="Livello_1" xmlns="http://www.w3.org/2000/svg" xmlns:xlink="http://www.w3.org/1999/xlink" x="0px" y="0px"
	 viewBox="0 0 1190.6 1190.6" style="enable-background:new 0 0 1190.6 1190.6;" xml:space="preserve">
<style type="text/css">
	.st0{fill:#CBBBA0;stroke:#29235C;stroke-miterlimit:10;}
	.st1{fill:none;stroke:#006633;stroke-miterlimit:10;}
	.st2{fill:none;stroke:#00A19A;stroke-miterlimit:10;}
	.st3{fill:none;stroke:#29235C;stroke-miterlimit:10;}
</style>
<title>893200_03</title>
<rect y="0" class="st0" width="1190.6" height="1190.6"/>
<rect x="890.9" y="890.3" class="st1" width="239.5" height="239.5"/>
<rect x="614.5" y="890.3" class="st1" width="239.5" height="239.5"/>
<rect x="338.1" y="890.3" class="st1" width="239.5" height="239.5"/>
<rect x="61.7" y="890.3" class="st1" width="239.5" height="239.5"/>
<rect x="890.9" y="613.9" class="st1" width="239.5" height="239.5"/>
<rect x="614.5" y="613.9" class="st1" width="239.5" height="239.5"/>
<rect x="338.1" y="613.9" class="st1" width="239.5" height="239.5"/>
<rect x="61.7" y="613.9" class="st1" width="239.5" height="239.5"/>
<rect x="890.9" y="337.5" class="st1" width="239.5" height="239.5"/>
<rect x="614.5" y="337.5" class="st1" width="239.5" height="239.5"/>
<rect x="338.1" y="337.5" class="st1" width="239.5" height="239.5"/>
<rect x="61.7" y="337.5" class="st1" width="239.5" height="239.5"/>
<rect x="890.9" y="61.1" class="st1" width="239.5" height="239.5"/>
<rect x="614.5" y="61.1" class="st1" width="239.5" height="239.5"/>
<rect x="338.1" y="61.1" class="st1" width="239.5" height="239.5"/>
<rect x="61.7" y="61.1" class="st1" width="239.5" height="239.5"/>
<rect x="946.1" y="945.6" class="st2" width="184.2" height="184.3"/>
<rect x="725" y="945.6" class="st2" width="184.2" height="184.3"/>
<rect x="503.9" y="945.6" class="st2" width="184.2" height="184.3"/>
<rect x="282.8" y="945.6" class="st2" width="184.2" height="184.3"/>
<rect x="61.7" y="945.6" class="st2" width="184.2" height="184.3"/>
<rect x="946.1" y="724.5" class="st2" width="184.2" height="184.2"/>
<rect x="725" y="724.5" class="st2" width="184.2" height="184.2"/>
<rect x="503.9" y="724.5" class="st2" width="184.2" height="184.2"/>
<rect x="282.8" y="724.5" class="st2" width="184.2" height="184.2"/>
<rect x="61.7" y="724.5" class="st2" width="184.2" height="184.2"/>
<rect x="946.1" y="503.4" class="st2" width="184.2" height="184.2"/>
<rect x="725" y="503.4" class="st2" width="184.2" height="184.2"/>
<rect x="503.9" y="503.4" class="st2" width="184.2" height="184.2"/>
<rect x="282.8" y="503.4" class="st2" width="184.2" height="184.2"/>
<rect x="61.7" y="503.4" class="st2" width="184.2" height="184.2"/>
<rect x="946.1" y="282.3" class="st2" width="184.2" height="184.2"/>
<rect x="725" y="282.3" class="st2" width="184.2" height="184.2"/>
<rect x="503.9" y="282.3" class="st2" width="184.2" height="184.2"/>
<rect x="282.8" y="282.3" class="st2" width="184.2" height="184.2"/>
<rect x="61.7" y="282.3" class="st2" width="184.2" height="184.2"/>
<rect x="946.1" y="61.1" class="st2" width="184.2" height="184.2"/>
<rect x="725" y="61.1" class="st2" width="184.2" height="184.2"/>
<rect x="503.9" y="61.1" class="st2" width="184.2" height="184.2"/>
<rect x="282.8" y="61.1" class="st2" width="184.2" height="184.2"/>
<rect x="61.7" y="61.1" class="st2" width="184.2" height="184.2"/>
<rect x="983" y="982.4" class="st3" width="147.4" height="147.4"/>
<rect x="798.7" y="982.4" class="st3" width="147.4" height="147.4"/>
<rect x="614.5" y="982.4" class="st3" width="147.4" height="147.4"/>
<rect x="430.2" y="982.4" class="st3" width="147.4" height="147.4"/>
<rect x="246" y="982.4" class="st3" width="147.4" height="147.4"/>
<rect x="61.7" y="982.4" class="st3" width="147.4" height="147.4"/>
<rect x="983" y="798.2" class="st3" width="147.4" height="147.4"/>
<rect x="798.7" y="798.2" class="st3" width="147.4" height="147.4"/>
<rect x="614.5" y="798.2" class="st3" width="147.4" height="147.4"/>
<rect x="430.2" y="798.2" class="st3" width="147.4" height="147.4"/>
<rect x="246" y="798.2" class="st3" width="147.4" height="147.4"/>
<rect x="61.7" y="798.2" class="st3" width="147.4" height="147.4"/>
<rect x="983" y="613.9" class="st3" width="147.4" height="147.4"/>
<rect x="798.7" y="613.9" class="st3" width="147.4" height="147.4"/>
<rect x="614.5" y="613.9" class="st3" width="147.4" height="147.4"/>
<rect x="430.2" y="613.9" class="st3" width="147.4" height="147.4"/>
<rect x="246" y="613.9" class="st3" width="147.4" height="147.4"/>
<rect x="61.7" y="613.9" class="st3" width="147.4" height="147.4"/>
<rect x="983" y="429.7" class="st3" width="147.4" height="147.4"/>
<rect x="798.7" y="429.7" class="st3" width="147.4" height="147.4"/>
<rect x="614.5" y="429.7" class="st3" width="147.4" height="147.4"/>
<rect x="430.2" y="429.7" class="st3" width="147.4" height="147.4"/>
<rect x="246" y="429.7" class="st3" width="147.4" height="147.4"/>
<rect x="61.7" y="429.7" class="st3" width="147.4" height="147.4"/>
<rect x="983" y="245.4" class="st3" width="147.4" height="147.4"/>
<rect x="798.7" y="245.4" class="st3" width="147.4" height="147.4"/>
<rect x="614.5" y="245.4" class="st3" width="147.4" height="147.4"/>
<rect x="430.2" y="245.4" class="st3" width="147.4" height="147.4"/>
<rect x="246" y="245.4" class="st3" width="147.4" height="147.4"/>
<rect x="61.7" y="245.4" class="st3" width="147.4" height="147.4"/>
<rect x="983" y="61.1" class="st3" width="147.4" height="147.4"/>
<rect x="798.7" y="61.1" class="st3" width="147.4" height="147.4"/>
<rect x="614.5" y="61.1" class="st3" width="147.4" height="147.4"/>
<rect x="430.2" y="61.1" class="st3" width="147.4" height="147.4"/>
<rect x="246" y="61.1" class="st3" width="147.4" height="147.4"/>
<rect x="61.7" y="61.1" class="st3" width="147.4" height="147.4"/>
<image style="overflow:visible;" width="1024" height="768" xlink:href="893200_03.jpg"  transform="matrix(0.2365 0 0 0.2365 854 100.6978)">
</image>
</svg>
