<?xml version="1.0" encoding="utf-8"?>
<!-- Generator: Adobe Illustrator 22.0.1, SVG Export Plug-In . SVG Version: 6.00 Build 0)  -->
<svg version="1.1" id="Livello_1" xmlns="http://www.w3.org/2000/svg" xmlns:xlink="http://www.w3.org/1999/xlink" x="0px" y="0px"
	 viewBox="0 0 1191.6 1191.6" style="enable-background:new 0 0 1191.6 1191.6;" xml:space="preserve">
<style type="text/css">
	.st0{fill:#ACE5DA;stroke:#77C5BB;stroke-miterlimit:10;}
	.st1{fill:none;}
	.st2{fill:none;stroke:#B20485;stroke-width:3;stroke-miterlimit:10;}
	.st3{fill:none;stroke:#D83F9E;stroke-width:3;stroke-miterlimit:10;}
	.st4{fill:none;stroke:#F4B3EA;stroke-width:3;stroke-miterlimit:10;}
	.st5{font-family:'MyriadPro-Regular';}
	.st6{font-size:12px;}
</style>
<title>893246_01</title>
<rect x="-0.2" y="1.2" class="st0" width="1190.6" height="1190.6"/>
<rect x="52.6" y="122.7" class="st1" width="225" height="205.5"/>
<path class="st2" d="M61.5,61.5H301V301H61.5V61.5z M337.9,301h239.5V61.5H337.9V301z M614.2,301h239.5V61.5H614.2V301z M890.6,301
	h239.5V61.5H890.6V301z M61.5,577.4H301V337.9H61.5V577.4z M337.9,577.4h239.5V337.9H337.9L337.9,577.4z M614.3,577.4h239.5V337.9
	H614.2L614.3,577.4z M890.6,577.4h239.5V337.9H890.6L890.6,577.4z M61.5,853.8H301V614.2H61.5V853.8z M337.9,853.8h239.5V614.2
	H337.9L337.9,853.8z M614.3,853.8h239.5V614.2H614.2L614.3,853.8z M890.6,853.8h239.5V614.2H890.6L890.6,853.8z M61.5,1130.1H301
	V890.6H61.5V1130.1z M337.9,1130.1h239.5V890.6H337.9L337.9,1130.1z M614.3,1130.1h239.5V890.6H614.2L614.3,1130.1z M890.6,1130.1
	h239.5V890.6H890.6L890.6,1130.1z"/>
<path class="st3" d="M61.5,61.5h184.2v184.2H61.5V61.5z M282.6,245.8h184.2V61.5H282.6L282.6,245.8z M503.7,245.8h184.2V61.5H503.7
	L503.7,245.8z M724.8,245.8H909V61.5H724.8L724.8,245.8z M945.9,245.8h184.3V61.5H945.9L945.9,245.8z M61.5,466.8h184.2V282.6H61.5
	V466.8z M282.6,466.8h184.2V282.6H282.6L282.6,466.8z M503.7,466.8h184.2V282.6H503.7L503.7,466.8z M724.8,466.8H909V282.6H724.8
	L724.8,466.8z M945.9,466.8h184.3V282.6H945.9L945.9,466.8z M61.5,687.9h184.2V503.7H61.5V687.9z M282.6,687.9h184.2V503.7H282.6
	L282.6,687.9z M503.7,687.9h184.2V503.7H503.7L503.7,687.9z M724.8,687.9H909V503.7H724.8L724.8,687.9z M945.9,687.9h184.3V503.7
	H945.9L945.9,687.9z M61.5,909h184.2V724.8H61.5V909z M282.6,909h184.2V724.8H282.6L282.6,909z M503.7,909h184.2V724.8H503.7
	L503.7,909z M724.8,909H909V724.8H724.8L724.8,909z M945.9,909h184.3V724.8H945.9L945.9,909z M61.5,1130.1h184.2V945.9H61.5V1130.1z
	 M282.6,1130.1h184.2V945.9H282.6L282.6,1130.1z M503.7,1130.1h184.2V945.9H503.7L503.7,1130.1z M724.8,1130.1H909V945.9H724.8
	L724.8,1130.1z M945.9,1130.1h184.3V945.9H945.9L945.9,1130.1z"/>
<path class="st4" d="M61.5,61.5h147.4v147.4H61.5V61.5z M245.8,208.9h147.4V61.5H245.7L245.8,208.9z M430,208.9h147.4V61.5H430
	L430,208.9z M614.3,208.9h147.4V61.5H614.2L614.3,208.9z M798.5,208.9h147.4V61.5H798.5L798.5,208.9z M982.8,208.9h147.4V61.5H982.7
	L982.8,208.9z M61.5,393.1h147.4V245.7H61.5V393.1z M245.8,393.1h147.4V245.7H245.7L245.8,393.1z M430,393.1h147.4V245.7H430
	L430,393.1z M614.3,393.1h147.4V245.7H614.2L614.3,393.1z M798.5,393.1h147.4V245.7H798.5L798.5,393.1z M982.8,393.1h147.4V245.7
	H982.7L982.8,393.1z M61.5,577.4h147.4V430H61.5V577.4z M245.8,577.4h147.4V430H245.7L245.8,577.4z M430,577.4h147.4V430H430
	L430,577.4z M614.3,577.4h147.4V430H614.2L614.3,577.4z M798.5,577.4h147.4V430H798.5L798.5,577.4z M982.8,577.4h147.4V430H982.7
	L982.8,577.4z M61.5,761.6h147.4V614.2H61.5V761.6z M245.8,761.6h147.4V614.2H245.7L245.8,761.6z M430,761.6h147.4V614.2H430
	L430,761.6z M614.3,761.6h147.4V614.2H614.2L614.3,761.6z M798.5,761.6h147.4V614.2H798.5L798.5,761.6z M982.8,761.6h147.4V614.2
	H982.7L982.8,761.6z M61.5,945.9h147.4V798.5H61.5V945.9z M245.8,945.9h147.4V798.5H245.7L245.8,945.9z M430,945.9h147.4V798.5H430
	L430,945.9z M614.3,945.9h147.4V798.5H614.2L614.3,945.9z M798.5,945.9h147.4V798.5H798.5L798.5,945.9z M982.8,945.9h147.4V798.5
	H982.7L982.8,945.9z M61.5,1130.1h147.4V982.7H61.5V1130.1z M245.8,1130.1h147.4V982.7H245.7L245.8,1130.1z M430,1130.1h147.4V982.7
	H430L430,1130.1z M614.3,1130.1h147.4V982.7H614.2L614.3,1130.1z M798.5,1130.1h147.4V982.7H798.5L798.5,1130.1z M982.8,1130.1
	h147.4V982.7H982.7L982.8,1130.1z"/>
<rect x="56" y="33" class="st1" width="651" height="129"/>
<text transform="matrix(1 0 0 1 55.96 41.5634)" class="st5 st6"> </text>
<g>
	<defs>
		<rect id="SVGID_1_" x="724.9" y="946" width="184.1" height="184.1"/>
	</defs>
	<clipPath id="SVGID_2_">
		<use xlink:href="#SVGID_1_"  style="overflow:visible;"/>
	</clipPath>
	<g style="clip-path:url(#SVGID_2_);">
		
			<image style="overflow:visible;" width="650" height="823" xlink:href="893246_03.jpg"  transform="matrix(0.6242 0 0 0.6269 724.4296 614.23)">
		</image>
	</g>
</g>
<circle class="st1" cx="962.7" cy="189" r="138.8"/>
<g>
	<defs>
		<circle id="SVGID_3_" cx="961.3" cy="225.4" r="168.9"/>
	</defs>
	<clipPath id="SVGID_4_">
		<use xlink:href="#SVGID_3_"  style="overflow:visible;"/>
	</clipPath>
	<g transform="matrix(1 0 0 1 6.103516e-05 0)" style="clip-path:url(#SVGID_4_);">
		
			<image style="overflow:visible;" width="1024" height="1352" xlink:href="893246_05.jpg"  transform="matrix(0.3207 0 0 0.3207 798.5 54.9999)">
		</image>
	</g>
</g>
</svg>
