<?xml version="1.0" encoding="utf-8"?>
<!-- Generator: Adobe Illustrator 22.1.0, SVG Export Plug-In . SVG Version: 6.00 Build 0)  -->
<svg version="1.1" id="Capa_1" xmlns="http://www.w3.org/2000/svg" xmlns:xlink="http://www.w3.org/1999/xlink" x="0px" y="0px"
	 viewBox="0 0 1190.6 1190.6" style="enable-background:new 0 0 1190.6 1190.6;" xml:space="preserve">
<style type="text/css">
	.st0{fill:#262452;}
	.st1{fill:#262452;stroke:#6FC7DA;stroke-width:4;stroke-miterlimit:10;}
	.st2{fill:none;stroke:#3C75BA;stroke-width:4;stroke-miterlimit:10;}
	.st3{clip-path:url(#SVGID_2_);}
	.st4{clip-path:url(#SVGID_4_);}
	.st5{fill:none;stroke:#EE7AAA;stroke-width:4;stroke-miterlimit:10;}
	.st6{fill:#FDFDFD;}
	.st7{font-family:'OpenSans-Light';}
	.st8{font-size:16px;}
	.st9{font-size:16.18px;}
	.st10{font-family:'EBGaramond-Italic';}
	.st11{font-size:10px;}
	.st12{font-family:'EBGaramond-Regular';}
	.st13{font-size:12px;}
	.st14{letter-spacing:3;}
	.st15{letter-spacing:6;}
	.st16{letter-spacing:1;}
	.st17{fill:#FFFFFF;}
	.st18{font-family:'OpenSansCondensed-Bold';}
	.st19{font-size:60px;}
</style>
<g id="Capa_1_1_">
	<rect x="-0.2" y="-0.2" class="st0" width="1191" height="1191"/>
	<rect x="55.8" y="58.8" class="st1" width="239.5" height="239.5"/>
	<rect x="332.2" y="58.8" class="st1" width="239.5" height="239.5"/>
	<rect x="608.5" y="58.8" class="st1" width="239.5" height="239.5"/>
	<rect x="884.9" y="58.8" class="st1" width="239.5" height="239.5"/>
	<rect x="55.8" y="335.2" class="st1" width="239.5" height="239.5"/>
	<rect x="332.2" y="335.2" class="st1" width="239.5" height="239.5"/>
	<rect x="608.5" y="335.2" class="st1" width="239.5" height="239.5"/>
	<rect x="884.9" y="335.2" class="st1" width="239.5" height="239.5"/>
	<rect x="55.8" y="611.5" class="st1" width="239.5" height="239.5"/>
	<rect x="332.2" y="611.5" class="st1" width="239.5" height="239.5"/>
	<rect x="608.5" y="611.5" class="st1" width="239.5" height="239.5"/>
	<rect x="884.9" y="611.5" class="st1" width="239.5" height="239.5"/>
	<rect x="55.8" y="887.9" class="st1" width="239.5" height="239.5"/>
	<rect x="332.2" y="887.9" class="st1" width="239.5" height="239.5"/>
	<rect x="608.5" y="887.9" class="st1" width="239.5" height="239.5"/>
	<rect x="884.9" y="887.9" class="st1" width="239.5" height="239.5"/>
</g>
<g id="griglia2">
	<rect x="55.8" y="58.8" class="st2" width="184.3" height="184.3"/>
	<rect x="277" y="58.8" class="st2" width="184.3" height="184.3"/>
	<rect x="498.1" y="58.8" class="st2" width="184.3" height="184.3"/>
	<rect x="719.3" y="58.8" class="st2" width="184.3" height="184.3"/>
	<rect x="940.5" y="58.8" class="st2" width="184.3" height="184.3"/>
	<rect x="55.8" y="280" class="st2" width="184.3" height="184.3"/>
	<rect x="277" y="280" class="st2" width="184.3" height="184.3"/>
	<rect x="498.1" y="280" class="st2" width="184.3" height="184.3"/>
	<rect x="719.3" y="280" class="st2" width="184.3" height="184.3"/>
	<rect x="940.5" y="280" class="st2" width="184.3" height="184.3"/>
	<rect x="55.8" y="501.1" class="st2" width="184.3" height="184.3"/>
	<rect x="277" y="501.1" class="st2" width="184.3" height="184.3"/>
	<g>
		<g>
			<defs>
				<rect id="SVGID_1_" x="498.1" y="501.1" width="184.3" height="184.3"/>
			</defs>
			<clipPath id="SVGID_2_">
				<use xlink:href="#SVGID_1_"  style="overflow:visible;"/>
			</clipPath>
			<g class="st3">
				
					<image style="overflow:visible;enable-background:new    ;" width="6016" height="4000" xlink:href="893573_02.JPG"  transform="matrix(0.18 0 0 0.18 55.7756 58.7756)">
				</image>
			</g>
		</g>
	</g>
	<rect x="719.3" y="501.1" class="st2" width="184.3" height="184.3"/>
	<rect x="940.5" y="501.1" class="st2" width="184.3" height="184.3"/>
	<rect x="55.8" y="722.3" class="st2" width="184.3" height="184.3"/>
	<rect x="277" y="722.3" class="st2" width="184.3" height="184.3"/>
	<rect x="498.1" y="722.3" class="st2" width="184.3" height="184.3"/>
	<rect x="719.3" y="722.3" class="st2" width="184.3" height="184.3"/>
	<rect x="940.5" y="722.3" class="st2" width="184.3" height="184.3"/>
	<rect x="55.8" y="943.5" class="st2" width="184.3" height="184.3"/>
	<rect x="277" y="943.5" class="st2" width="184.3" height="184.3"/>
	<rect x="498.1" y="943.5" class="st2" width="184.3" height="184.3"/>
	<rect x="719.3" y="943.5" class="st2" width="184.3" height="184.3"/>
	<rect x="940.5" y="943.5" class="st2" width="184.3" height="184.3"/>
</g>
<g id="circulo">
	<g>
		<g>
			<defs>
				<circle id="SVGID_3_" cx="313.8" cy="316.8" r="111"/>
			</defs>
			<clipPath id="SVGID_4_">
				<use xlink:href="#SVGID_3_"  style="overflow:visible;"/>
			</clipPath>
			<g class="st4">
				
					<image style="overflow:visible;enable-background:new    ;" width="6016" height="4000" xlink:href="893573_01.JPG"  transform="matrix(0.1 0 0 0.1 -106.2244 132.7756)">
				</image>
			</g>
		</g>
	</g>
</g>
<g id="griglia3">
	<rect x="55.8" y="58.8" class="st5" width="147.4" height="147.4"/>
	<rect x="240.1" y="58.8" class="st5" width="147.4" height="147.4"/>
	<rect x="424.4" y="58.8" class="st5" width="147.4" height="147.4"/>
	<rect x="608.7" y="58.8" class="st5" width="147.4" height="147.4"/>
	<rect x="793.1" y="58.8" class="st5" width="147.4" height="147.4"/>
	<rect x="977.4" y="58.8" class="st5" width="147.4" height="147.4"/>
	<rect x="55.8" y="243.1" class="st5" width="147.4" height="147.4"/>
	<rect x="240.1" y="243.1" class="st5" width="147.4" height="147.4"/>
	<rect x="424.4" y="243.1" class="st5" width="147.4" height="147.4"/>
	<rect x="608.7" y="243.1" class="st5" width="147.4" height="147.4"/>
	<rect x="793.1" y="243.1" class="st5" width="147.4" height="147.4"/>
	<rect x="977.4" y="243.1" class="st5" width="147.4" height="147.4"/>
	<rect x="55.8" y="427.4" class="st5" width="147.4" height="147.4"/>
	<rect x="240.1" y="427.4" class="st5" width="147.4" height="147.4"/>
	<rect x="424.4" y="427.4" class="st5" width="147.4" height="147.4"/>
	<rect x="608.7" y="427.4" class="st5" width="147.4" height="147.4"/>
	<rect x="793.1" y="427.4" class="st5" width="147.4" height="147.4"/>
	<rect x="977.4" y="427.4" class="st5" width="147.4" height="147.4"/>
	<rect x="55.8" y="611.7" class="st5" width="147.4" height="147.4"/>
	<rect x="240.1" y="611.7" class="st5" width="147.4" height="147.4"/>
	<rect x="424.4" y="611.7" class="st5" width="147.4" height="147.4"/>
	<rect x="608.7" y="611.7" class="st5" width="147.4" height="147.4"/>
	<rect x="793.1" y="611.7" class="st5" width="147.4" height="147.4"/>
	<rect x="977.4" y="611.7" class="st5" width="147.4" height="147.4"/>
	<rect x="55.8" y="796.1" class="st5" width="147.4" height="147.4"/>
	<rect x="240.1" y="796.1" class="st5" width="147.4" height="147.4"/>
	<rect x="424.4" y="796.1" class="st5" width="147.4" height="147.4"/>
	<rect x="608.7" y="796.1" class="st5" width="147.4" height="147.4"/>
	<rect x="793.1" y="796.1" class="st5" width="147.4" height="147.4"/>
	<rect x="977.4" y="796.1" class="st5" width="147.4" height="147.4"/>
	<rect x="55.8" y="980.4" class="st5" width="147.4" height="147.4"/>
	<rect x="240.1" y="980.4" class="st5" width="147.4" height="147.4"/>
	<rect x="424.4" y="980.4" class="st5" width="147.4" height="147.4"/>
	<rect x="608.7" y="980.4" class="st5" width="147.4" height="147.4"/>
	<rect x="793.1" y="980.4" class="st5" width="147.4" height="147.4"/>
	<rect x="977.4" y="980.4" class="st5" width="147.4" height="147.4"/>
</g>
<g id="testo">
	<text transform="matrix(0.74 0 0 1 239.7754 736.7857)" class="st6 st7 st8">Lorem ipsum dolor sit amet, consectetur adipisci elit, sed eiusmod </text>
	<text transform="matrix(0.74 0 0 1 239.7754 760.7857)" class="st6 st7 st8">tempor incidunt ut labore et dolore magna aliqua. Ut enim ad minim </text>
	<text transform="matrix(0.74 0 0 1 239.7754 784.7857)" class="st6 st7 st8">veniam, quis nostrum exercitationem ullam corporis suscipit </text>
	<text transform="matrix(0.74 0 0 1 239.7754 808.7857)" class="st6 st7 st8">laboriosam, nisi ut aliquid ex ea commodi consequatur. </text>
	<text transform="matrix(0.74 0 0 1 239.7754 832.7857)" class="st6 st7 st8">Quis aute iure reprehenderit in voluptate velit esse cillum dolore eu </text>
	<text transform="matrix(0.74 0 0 1 239.7754 856.7857)" class="st6 st7 st8">fugiat nulla pariatur. Excepteur sint obcaecat cupiditat non proident, </text>
	<text transform="matrix(0.74 0 0 1 239.7754 881.0552)" class="st6 st7 st8">sunt in culpa qui officia deserunt mollit anim id est laborum. </text>
	<text transform="matrix(0.74 0 0 1 560.6914 881.0552)" class="st6 st7 st9">»</text>
	<text transform="matrix(1 0 0 1 260.0956 438.4156)" class="st6 st10 st11">p</text>
	<text transform="matrix(1 0 0 1 264.4856 438.4156)" class="st6 st10 st11">a</text>
	<text transform="matrix(1 0 0 1 269.1956 438.4156)" class="st6 st10 st11">l</text>
	<text transform="matrix(1 0 0 1 272.0556 438.4156)" class="st6 st10 st11">a</text>
	<text transform="matrix(1 0 0 1 276.7656 438.4156)" class="st6 st10 st11">zzo su </text>
	<text transform="matrix(1 0 0 1 300.5556 438.4156)" class="st6 st10 st11">u</text>
	<text transform="matrix(1 0 0 1 305.4956 438.4156)" class="st6 st10 st11">n’is</text>
	<text transform="matrix(1 0 0 1 318.6156 438.4156)" class="st6 st10 st11">o</text>
	<text transform="matrix(1 0 0 1 322.2156 438.4156)" class="st6 st10 st11">la deserta</text>
	<text transform="matrix(1 0 0 1 561.1056 495.1056)" class="st6 st10 st11">sc</text>
	<text transform="matrix(1 0 0 1 566.9956 495.1056)" class="st6 st10 st11">a</text>
	<text transform="matrix(1 0 0 1 571.7056 495.1056)" class="st6 st10 st11">rda di fre</text>
	<text transform="matrix(1 0 0 1 608.0756 495.1056)" class="st6 st10 st11">c</text>
	<text transform="matrix(1 0 0 1 611.0556 495.1056)" class="st6 st10 st11">cia</text>
	<text transform="matrix(1 0 0 1 793.3256 230.2256)" class="st6 st12 st13">Lorem</text>
	<text transform="matrix(1 0 0 1 824.2955 230.2256)" class="st6 st12 st13 st14"> </text>
	<text transform="matrix(1 0 0 1 830.6155 230.2256)" class="st6 st12 st13">ipsum</text>
	<text transform="matrix(1 0 0 1 859.3156 230.2256)" class="st6 st12 st13 st14"> </text>
	<text transform="matrix(1 0 0 1 865.6356 230.2256)" class="st6 st12 st13">d</text>
	<text transform="matrix(1 0 0 1 871.7055 230.2256)" class="st6 st12 st13">o</text>
	<text transform="matrix(1 0 0 1 877.4655 230.2256)" class="st6 st12 st13">lor</text>
	<text transform="matrix(1 0 0 1 890.2956 230.2256)" class="st6 st12 st13 st14"> </text>
	<text transform="matrix(1 0 0 1 896.6055 230.2256)" class="st6 st12 st13">sit</text>
	<text transform="matrix(1 0 0 1 907.1855 230.2256)" class="st6 st12 st13 st14"> </text>
	<text transform="matrix(1 0 0 1 913.5056 230.2256)" class="st6 st12 st13">amet, </text>
	<text transform="matrix(1 0 0 1 769.9556 254.2256)" class="st6 st12 st13">c</text>
	<text transform="matrix(1 0 0 1 774.5956 254.2256)" class="st6 st12 st13">ons</text>
	<text transform="matrix(1 0 0 1 790.7455 254.2256)" class="st6 st12 st13">e</text>
	<text transform="matrix(1 0 0 1 795.3055 254.2256)" class="st6 st12 st13">ctetuer</text>
	<text transform="matrix(1 0 0 1 827.4156 254.2256)" class="st6 st12 st13 st15"> </text>
	<text transform="matrix(1 0 0 1 835.8956 254.2256)" class="st6 st12 st13">adipiscing</text>
	<text transform="matrix(1 0 0 1 882.1155 254.2256)" class="st6 st12 st13 st15"> </text>
	<text transform="matrix(1 0 0 1 890.5856 254.2256)" class="st6 st12 st13">elit,</text>
	<text transform="matrix(1 0 0 1 907.6155 254.2256)" class="st6 st12 st13 st15"> </text>
	<text transform="matrix(1 0 0 1 916.0956 254.2256)" class="st6 st12 st13">s</text>
	<text transform="matrix(1 0 0 1 919.9655 254.2256)" class="st6 st12 st13">e</text>
	<text transform="matrix(1 0 0 1 924.5256 254.2256)" class="st6 st12 st13">d</text>
	<text transform="matrix(1 0 0 1 930.6055 254.2256)" class="st6 st12 st13 st15"> </text>
	<text transform="matrix(1 0 0 1 939.0756 254.2256)" class="st6 st12 st13">diam </text>
	<text transform="matrix(1 0 0 1 756.3156 278.2256)" class="st6 st12 st13">nonum</text>
	<text transform="matrix(1 0 0 1 790.5956 278.2256)" class="st6 st12 st13">m</text>
	<text transform="matrix(1 0 0 1 799.4456 278.2256)" class="st6 st12 st13">y</text>
	<text transform="matrix(1 0 0 1 804.7056 278.2256)" class="st6 st12 st13 st16"> </text>
	<text transform="matrix(1 0 0 1 809.9855 278.2256)" class="st6 st12 st13">ni</text>
	<text transform="matrix(1 0 0 1 819.2656 278.2256)" class="st6 st12 st13">b</text>
	<text transform="matrix(1 0 0 1 825.2656 278.2256)" class="st6 st12 st13">h</text>
	<text transform="matrix(1 0 0 1 831.4456 278.2256)" class="st6 st12 st13 st16"> </text>
	<text transform="matrix(1 0 0 1 836.7355 278.2256)" class="st6 st12 st13">euismod</text>
	<text transform="matrix(1 0 0 1 875.9056 278.2256)" class="st6 st12 st13 st16"> </text>
	<text transform="matrix(1 0 0 1 881.1855 278.2256)" class="st6 st12 st13">tincidunt</text>
	<text transform="matrix(1 0 0 1 924.5556 278.2256)" class="st6 st12 st13 st16"> </text>
	<text transform="matrix(1 0 0 1 929.8455 278.2256)" class="st6 st12 st13">ut</text>
	<text transform="matrix(1 0 0 1 939.9356 278.2256)" class="st6 st12 st13 st16"> </text>
	<text transform="matrix(1 0 0 1 945.2155 278.2256)" class="st6 st12 st13">laor</text>
	<text transform="matrix(1 0 0 1 962.8355 278.2256)" class="st6 st12 st13">e</text>
	<text transform="matrix(1 0 0 1 967.3956 278.2256)" class="st6 st12 st13">et </text>
	<text transform="matrix(1 0 0 1 749.0356 302.2256)" class="st6 st12 st13">d</text>
	<text transform="matrix(1 0 0 1 755.1055 302.2256)" class="st6 st12 st13">o</text>
	<text transform="matrix(1 0 0 1 760.8655 302.2256)" class="st6 st12 st13">lore</text>
	<text transform="matrix(1 0 0 1 778.3755 302.2256)" class="st6 st12 st13"> </text>
	<text transform="matrix(1 0 0 1 781.9255 302.2256)" class="st6 st12 st13">magna</text>
	<text transform="matrix(1 0 0 1 812.3856 302.2256)" class="st6 st12 st13"> </text>
	<text transform="matrix(1 0 0 1 815.9355 302.2256)" class="st6 st12 st13">aliquam</text>
	<text transform="matrix(1 0 0 1 853.2556 302.2256)" class="st6 st12 st13"> </text>
	<text transform="matrix(1 0 0 1 856.8056 302.2256)" class="st6 st12 st13">erat</text>
	<text transform="matrix(1 0 0 1 874.0556 302.2256)" class="st6 st12 st13"> </text>
	<text transform="matrix(1 0 0 1 877.6055 302.2256)" class="st6 st12 st13">v</text>
	<text transform="matrix(1 0 0 1 882.5556 302.2256)" class="st6 st12 st13">o</text>
	<text transform="matrix(1 0 0 1 888.3156 302.2256)" class="st6 st12 st13">lut</text>
	<text transform="matrix(1 0 0 1 901.2956 302.2256)" class="st6 st12 st13">p</text>
	<text transform="matrix(1 0 0 1 907.2756 302.2256)" class="st6 st12 st13">at.</text>
	<text transform="matrix(1 0 0 1 918.5955 302.2256)" class="st6 st12 st13"> </text>
	<text transform="matrix(1 0 0 1 922.1456 302.2256)" class="st6 st12 st13">Ut</text>
	<text transform="matrix(1 0 0 1 934.7656 302.2256)" class="st6 st12 st13"> </text>
	<text transform="matrix(1 0 0 1 938.3156 302.2256)" class="st6 st12 st13">wisi</text>
	<text transform="matrix(1 0 0 1 956.2956 302.2256)" class="st6 st12 st13"> </text>
	<text transform="matrix(1 0 0 1 959.8455 302.2256)" class="st6 st12 st13">enim </text>
	<text transform="matrix(1 0 0 1 747.2256 326.2256)" class="st6 st12 st13">ad</text>
	<text transform="matrix(1 0 0 1 758.0856 326.2256)" class="st6 st12 st13"> </text>
	<text transform="matrix(1 0 0 1 761.1556 326.2256)" class="st6 st12 st13">minim</text>
	<text transform="matrix(1 0 0 1 792.0455 326.2256)" class="st6 st12 st13"> </text>
	<text transform="matrix(1 0 0 1 795.1255 326.2256)" class="st6 st12 st13">v</text>
	<text transform="matrix(1 0 0 1 800.0756 326.2256)" class="st6 st12 st13">eniam,</text>
	<text transform="matrix(1 0 0 1 830.9156 326.2256)" class="st6 st12 st13"> </text>
	<text transform="matrix(1 0 0 1 833.9955 326.2256)" class="st6 st12 st13">quis</text>
	<text transform="matrix(1 0 0 1 853.4056 326.2256)" class="st6 st12 st13"> </text>
	<text transform="matrix(1 0 0 1 856.4755 326.2256)" class="st6 st12 st13">nostrud</text>
	<text transform="matrix(1 0 0 1 892.8056 326.2256)" class="st6 st12 st13"> </text>
	<text transform="matrix(1 0 0 1 895.8856 326.2256)" class="st6 st12 st13">e</text>
	<text transform="matrix(1 0 0 1 900.3856 326.2256)" class="st6 st12 st13">x</text>
	<text transform="matrix(1 0 0 1 905.2455 326.2256)" class="st6 st12 st13">erci</text>
	<text transform="matrix(1 0 0 1 921.7556 326.2256)" class="st6 st12 st13"> </text>
	<text transform="matrix(1 0 0 1 924.8256 326.2256)" class="st6 st12 st13">tation</text>
	<text transform="matrix(1 0 0 1 952.3655 326.2256)" class="st6 st12 st13"> </text>
	<text transform="matrix(1 0 0 1 955.4455 326.2256)" class="st6 st12 st13">ullam</text>
	<text transform="matrix(1 0 0 1 981.6556 326.2256)" class="st6 st12 st13">-</text>
	<text transform="matrix(1 0 0 1 751.4756 350.2256)" class="st6 st12 st13">c</text>
	<text transform="matrix(1 0 0 1 756.1255 350.2256)" class="st6 st12 st13">orper</text>
	<text transform="matrix(1 0 0 1 780.9855 350.2256)" class="st6 st12 st13"> </text>
	<text transform="matrix(1 0 0 1 784.5555 350.2256)" class="st6 st12 st13">suscipit</text>
	<text transform="matrix(1 0 0 1 819.3856 350.2256)" class="st6 st12 st13"> </text>
	<text transform="matrix(1 0 0 1 822.9456 350.2256)" class="st6 st12 st13">lobortis</text>
	<text transform="matrix(1 0 0 1 858.4755 350.2256)" class="st6 st12 st13"> </text>
	<text transform="matrix(1 0 0 1 862.0456 350.2256)" class="st6 st12 st13">nisl</text>
	<text transform="matrix(1 0 0 1 878.0756 350.2256)" class="st6 st12 st13"> </text>
	<text transform="matrix(1 0 0 1 881.6356 350.2256)" class="st6 st12 st13">ut</text>
	<text transform="matrix(1 0 0 1 891.7255 350.2256)" class="st6 st12 st13"> </text>
	<text transform="matrix(1 0 0 1 895.2956 350.2256)" class="st6 st12 st13">aliquip</text>
	<text transform="matrix(1 0 0 1 927.6556 350.2256)" class="st6 st12 st13"> </text>
	<text transform="matrix(1 0 0 1 931.2155 350.2256)" class="st6 st12 st13">e</text>
	<text transform="matrix(1 0 0 1 935.7155 350.2256)" class="st6 st12 st13">x</text>
	<text transform="matrix(1 0 0 1 940.8755 350.2256)" class="st6 st12 st13"> </text>
	<text transform="matrix(1 0 0 1 944.4455 350.2256)" class="st6 st12 st13">ea</text>
	<text transform="matrix(1 0 0 1 953.9156 350.2256)" class="st6 st12 st13"> </text>
	<text transform="matrix(1 0 0 1 957.4755 350.2256)" class="st6 st12 st13">c</text>
	<text transform="matrix(1 0 0 1 962.1155 350.2256)" class="st6 st12 st13">om</text>
	<text transform="matrix(1 0 0 1 977.3956 350.2256)" class="st6 st12 st13">-</text>
	<text transform="matrix(1 0 0 1 761.2656 374.2256)" class="st6 st12 st13">modo</text>
	<text transform="matrix(1 0 0 1 788.5555 374.2256)" class="st6 st12 st13"> </text>
	<text transform="matrix(1 0 0 1 792.5956 374.2256)" class="st6 st12 st13">c</text>
	<text transform="matrix(1 0 0 1 797.2355 374.2256)" class="st6 st12 st13">ons</text>
	<text transform="matrix(1 0 0 1 813.3856 374.2256)" class="st6 st12 st13">e</text>
	<text transform="matrix(1 0 0 1 817.9556 374.2256)" class="st6 st12 st13">quat.</text>
	<text transform="matrix(1 0 0 1 841.8555 374.2256)" class="st6 st12 st13"> </text>
	<text transform="matrix(1 0 0 1 845.8956 374.2256)" class="st6 st12 st13">Duis</text>
	<text transform="matrix(1 0 0 1 868.0856 374.2256)" class="st6 st12 st13"> </text>
	<text transform="matrix(1 0 0 1 872.1255 374.2256)" class="st6 st12 st13">autem</text>
	<text transform="matrix(1 0 0 1 901.0156 374.2256)" class="st6 st12 st13"> </text>
	<text transform="matrix(1 0 0 1 905.0556 374.2256)" class="st6 st12 st13">v</text>
	<text transform="matrix(1 0 0 1 910.0156 374.2256)" class="st6 st12 st13">el</text>
	<text transform="matrix(1 0 0 1 917.5756 374.2256)" class="st6 st12 st13"> </text>
	<text transform="matrix(1 0 0 1 921.6155 374.2256)" class="st6 st12 st13">eum</text>
	<text transform="matrix(1 0 0 1 941.9555 374.2256)" class="st6 st12 st13"> </text>
	<text transform="matrix(1 0 0 1 945.9955 374.2256)" class="st6 st12 st13">iriure </text>
	<text transform="matrix(1 0 0 1 778.3956 398.2256)" class="st6 st12 st13">d</text>
	<text transform="matrix(1 0 0 1 784.4656 398.2256)" class="st6 st12 st13">o</text>
	<text transform="matrix(1 0 0 1 790.2256 398.2256)" class="st6 st12 st13">lor</text>
	<text transform="matrix(1 0 0 1 803.0555 398.2256)" class="st6 st12 st13 st16"> </text>
	<text transform="matrix(1 0 0 1 808.3055 398.2256)" class="st6 st12 st13">in</text>
	<text transform="matrix(1 0 0 1 817.5856 398.2256)" class="st6 st12 st13 st16"> </text>
	<text transform="matrix(1 0 0 1 822.8356 398.2256)" class="st6 st12 st13">hendrerit</text>
	<text transform="matrix(1 0 0 1 865.5056 398.2256)" class="st6 st12 st13 st16"> </text>
	<text transform="matrix(1 0 0 1 870.7556 398.2256)" class="st6 st12 st13">in</text>
	<text transform="matrix(1 0 0 1 880.0256 398.2256)" class="st6 st12 st13 st16"> </text>
	<text transform="matrix(1 0 0 1 885.2756 398.2256)" class="st6 st12 st13">vulputate</text>
	<text transform="matrix(1 0 0 1 929.2956 398.2256)" class="st6 st12 st13 st16"> </text>
	<text transform="matrix(1 0 0 1 934.5456 398.2256)" class="st6 st12 st13">v</text>
	<text transform="matrix(1 0 0 1 939.4955 398.2256)" class="st6 st12 st13">elit </text>
	<text transform="matrix(1 0 0 1 809.0256 422.2256)" class="st6 st12 st13">esse</text>
	<text transform="matrix(1 0 0 1 826.1356 422.2256)" class="st6 st12 st13 st16"> </text>
	<text transform="matrix(1 0 0 1 831.0456 422.2256)" class="st6 st12 st13">m</text>
	<text transform="matrix(1 0 0 1 840.3856 422.2256)" class="st6 st12 st13">o</text>
	<text transform="matrix(1 0 0 1 846.1456 422.2256)" class="st6 st12 st13">lestie</text>
	<text transform="matrix(1 0 0 1 868.9655 422.2256)" class="st6 st12 st13 st16"> </text>
	<text transform="matrix(1 0 0 1 873.8755 422.2256)" class="st6 st12 st13">c</text>
	<text transform="matrix(1 0 0 1 878.5256 422.2256)" class="st6 st12 st13">ons</text>
	<text transform="matrix(1 0 0 1 894.6755 422.2256)" class="st6 st12 st13">e</text>
	<text transform="matrix(1 0 0 1 899.2355 422.2256)" class="st6 st12 st13">quat,</text>
</g>
<text transform="matrix(1 0 0 1 343.5458 163.7756)" class="st17 st18 st19">SCATTI DI MARSIGLIA</text>
</svg>
