<?xml version="1.0" encoding="utf-8"?>
<!-- Generator: Adobe Illustrator 22.1.0, SVG Export Plug-In . SVG Version: 6.00 Build 0)  -->
<svg version="1.1" id="Livello_1" xmlns="http://www.w3.org/2000/svg" xmlns:xlink="http://www.w3.org/1999/xlink" x="0px" y="0px"
	 viewBox="0 0 1190.6 1190.6" style="enable-background:new 0 0 1190.6 1190.6;" xml:space="preserve">
<style type="text/css">
	.st0{fill:#7BACB2;}
	.st1{fill:none;stroke:#FFFFFF;stroke-miterlimit:10;}
	.st2{fill:none;stroke:#050044;stroke-miterlimit:10;}
	.st3{fill:none;stroke:#FC5A00;stroke-miterlimit:10;}
	.st4{fill:none;}
	.st5{clip-path:url(#SVGID_2_);}
</style>
<rect class="st0" width="1190.6" height="1190.6"/>
<rect x="60.9" y="60.9" class="st1" width="239.5" height="239.5"/>
<rect x="337.3" y="60.9" class="st1" width="239.5" height="239.5"/>
<rect x="613.7" y="60.9" class="st1" width="239.5" height="239.5"/>
<rect x="890.1" y="60.9" class="st1" width="239.5" height="239.5"/>
<rect x="60.9" y="337.3" class="st1" width="239.5" height="239.5"/>
<rect x="337.3" y="337.3" class="st1" width="239.5" height="239.5"/>
<rect x="613.7" y="337.3" class="st1" width="239.5" height="239.5"/>
<rect x="890.1" y="337.3" class="st1" width="239.5" height="239.5"/>
<rect x="60.9" y="613.7" class="st1" width="239.5" height="239.5"/>
<rect x="337.3" y="613.7" class="st1" width="239.5" height="239.5"/>
<rect x="613.7" y="613.7" class="st1" width="239.5" height="239.5"/>
<rect x="890.1" y="613.7" class="st1" width="239.5" height="239.5"/>
<rect x="60.9" y="890.2" class="st1" width="239.5" height="239.5"/>
<rect x="337.3" y="890.2" class="st1" width="239.5" height="239.5"/>
<rect x="613.7" y="890.2" class="st1" width="239.5" height="239.5"/>
<rect x="890.1" y="890.2" class="st1" width="239.5" height="239.5"/>
<title>Tavola disegno 1</title>
<g id="Livello_3">
	<rect x="60.9" y="60.9" class="st2" width="147.4" height="147.4"/>
	<rect x="245.2" y="60.9" class="st2" width="147.4" height="147.4"/>
	<rect x="429.5" y="60.9" class="st2" width="147.4" height="147.4"/>
	<rect x="613.7" y="60.9" class="st2" width="147.4" height="147.4"/>
	<rect x="798" y="60.9" class="st2" width="147.4" height="147.4"/>
	<rect x="982.2" y="60.9" class="st2" width="147.4" height="147.4"/>
	<rect x="60.9" y="245.2" class="st2" width="147.4" height="147.4"/>
	<rect x="245.2" y="245.2" class="st2" width="147.4" height="147.4"/>
	<rect x="429.5" y="245.2" class="st2" width="147.4" height="147.4"/>
	<rect x="613.7" y="245.2" class="st2" width="147.4" height="147.4"/>
	<rect x="798" y="245.2" class="st2" width="147.4" height="147.4"/>
	<rect x="982.2" y="245.2" class="st2" width="147.4" height="147.4"/>
	<rect x="60.9" y="429.4" class="st2" width="147.4" height="147.4"/>
	<rect x="245.2" y="429.4" class="st2" width="147.4" height="147.4"/>
	<rect x="429.5" y="429.4" class="st2" width="147.4" height="147.4"/>
	<rect x="613.7" y="429.4" class="st2" width="147.4" height="147.4"/>
	<rect x="798" y="429.4" class="st2" width="147.4" height="147.4"/>
	<rect x="982.2" y="429.4" class="st2" width="147.4" height="147.4"/>
	<rect x="60.9" y="613.7" class="st2" width="147.4" height="147.4"/>
	<rect x="245.2" y="613.7" class="st2" width="147.4" height="147.4"/>
	<rect x="429.5" y="613.7" class="st2" width="147.4" height="147.4"/>
	<rect x="613.7" y="613.7" class="st2" width="147.4" height="147.4"/>
	<rect x="798" y="613.7" class="st2" width="147.4" height="147.4"/>
	<rect x="982.2" y="613.7" class="st2" width="147.4" height="147.4"/>
	<rect x="60.9" y="798" class="st2" width="147.4" height="147.4"/>
	<rect x="245.2" y="798" class="st2" width="147.4" height="147.4"/>
	<rect x="429.5" y="798" class="st2" width="147.4" height="147.4"/>
	<rect x="613.7" y="798" class="st2" width="147.4" height="147.4"/>
	<rect x="798" y="798" class="st2" width="147.4" height="147.4"/>
	<rect x="982.2" y="798" class="st2" width="147.4" height="147.4"/>
	<rect x="60.9" y="982.2" class="st2" width="147.4" height="147.4"/>
	<rect x="245.2" y="982.2" class="st2" width="147.4" height="147.4"/>
	<rect x="429.5" y="982.2" class="st2" width="147.4" height="147.4"/>
	<rect x="613.7" y="982.2" class="st2" width="147.4" height="147.4"/>
	<rect x="798" y="982.2" class="st2" width="147.4" height="147.4"/>
	<rect x="982.2" y="982.2" class="st2" width="147.4" height="147.4"/>
</g>
<rect x="60.9" y="60.9" class="st3" width="184.3" height="184.3"/>
<rect x="282" y="60.9" class="st3" width="184.3" height="184.3"/>
<rect x="503.1" y="60.9" class="st3" width="184.3" height="184.3"/>
<rect x="724.3" y="60.9" class="st3" width="184.3" height="184.3"/>
<rect x="945.3" y="60.9" class="st3" width="184.3" height="184.3"/>
<rect x="60.9" y="282" class="st3" width="184.3" height="184.3"/>
<rect x="282" y="282" class="st3" width="184.3" height="184.3"/>
<rect x="503.1" y="282" class="st3" width="184.3" height="184.3"/>
<rect x="724.3" y="282" class="st3" width="184.3" height="184.3"/>
<rect x="945.3" y="282" class="st3" width="184.3" height="184.3"/>
<rect x="60.9" y="503.1" class="st3" width="184.3" height="184.3"/>
<rect x="282" y="503.1" class="st4" width="184.3" height="184.3"/>
<rect x="503.1" y="503.1" class="st3" width="184.3" height="184.3"/>
<rect x="724.3" y="503.1" class="st3" width="184.3" height="184.3"/>
<rect x="945.3" y="503.1" class="st3" width="184.3" height="184.3"/>
<rect x="60.9" y="724.3" class="st3" width="184.3" height="184.3"/>
<rect x="282" y="724.3" class="st3" width="184.3" height="184.3"/>
<rect x="503.1" y="724.3" class="st3" width="184.3" height="184.3"/>
<rect x="724.3" y="724.3" class="st3" width="184.3" height="184.3"/>
<rect x="945.3" y="724.3" class="st3" width="184.3" height="184.3"/>
<rect x="60.9" y="945.4" class="st3" width="184.3" height="184.3"/>
<rect x="282" y="945.4" class="st3" width="184.3" height="184.3"/>
<rect x="503.1" y="945.4" class="st3" width="184.3" height="184.3"/>
<rect x="724.3" y="945.4" class="st3" width="184.3" height="184.3"/>
<rect x="945.3" y="945.4" class="st3" width="184.3" height="184.3"/>
<g>
	<defs>
		<rect id="SVGID_1_" x="282" y="503.1" width="184.3" height="184.3"/>
	</defs>
	<clipPath id="SVGID_2_">
		<use xlink:href="#SVGID_1_"  style="overflow:visible;"/>
	</clipPath>
	<g class="st5">
		
			<image style="overflow:visible;enable-background:new    ;" width="5184" height="3456" xlink:href="893529_03.JPG"  transform="matrix(0.14 0 0 0.12 60.94 475.35)">
		</image>
	</g>
</g>
</svg>
