<svg id="Livello_1" data-name="Livello 1" xmlns="http://www.w3.org/2000/svg" viewBox="0 0 1190.6 1190.6"><defs><style>.cls-1{fill:#7bacb2;}.cls-2,.cls-3,.cls-4{fill:none;stroke-miterlimit:10;}.cls-2{stroke:#fff;}.cls-3{stroke:#fc5a00;}.cls-4{stroke:#050044;}</style></defs><title>Tavola disegno 1</title><rect class="cls-1" width="1190.6" height="1190.6"/><path class="cls-2" d="M60.9,60.9H300.4V300.4H60.9Zm276.4,0H576.8V300.4H337.3Zm276.4,0H853.2V300.4H613.7Zm276.4,0h239.5V300.4H890.1ZM60.9,337.3H300.4V576.8H60.9Zm276.4,0H576.8V576.8H337.3Zm276.4,0H853.2V576.8H613.7Zm276.4,0h239.5V576.8H890.1ZM60.9,613.7H300.4V853.2H60.9Zm276.4,0H576.8V853.2H337.3Zm276.4,0H853.2V853.2H613.7Zm276.4,0h239.5V853.2H890.1ZM60.9,890.1H300.4v239.5H60.9Zm276.4,0H576.8v239.5H337.3Zm276.4,0H853.2v239.5H613.7Zm276.4,0h239.5v239.5H890.1Z"/><g id="griglia_2" data-name="griglia 2"><rect class="cls-3" x="60.9" y="60.9" width="184.3" height="184.3"/><rect class="cls-3" x="282" y="60.9" width="184.3" height="184.3"/><rect class="cls-3" x="503.1" y="60.9" width="184.3" height="184.3"/><rect class="cls-3" x="724.3" y="60.9" width="184.3" height="184.3"/><rect class="cls-3" x="945.3" y="60.9" width="184.3" height="184.3"/><rect class="cls-3" x="60.9" y="282" width="184.3" height="184.3"/><rect class="cls-3" x="282" y="282" width="184.3" height="184.3"/><rect class="cls-3" x="503.1" y="282" width="184.3" height="184.3"/><rect class="cls-3" x="724.3" y="282" width="184.3" height="184.3"/><rect class="cls-3" x="945.3" y="282" width="184.3" height="184.3"/><rect class="cls-3" x="60.9" y="503.1" width="184.3" height="184.3"/><rect class="cls-3" x="282" y="503.1" width="184.3" height="184.3"/><rect class="cls-3" x="503.1" y="503.1" width="184.3" height="184.3"/><rect class="cls-3" x="724.3" y="503.1" width="184.3" height="184.3"/><rect class="cls-3" x="945.3" y="503.1" width="184.3" height="184.3"/><rect class="cls-3" x="60.9" y="724.3" width="184.3" height="184.3"/><rect class="cls-3" x="282" y="724.3" width="184.3" height="184.3"/><rect class="cls-3" x="503.1" y="724.3" width="184.3" height="184.3"/><rect class="cls-3" x="724.3" y="724.3" width="184.3" height="184.3"/><rect class="cls-3" x="945.3" y="724.3" width="184.3" height="184.3"/><rect class="cls-3" x="60.9" y="945.3" width="184.3" height="184.3"/><rect class="cls-3" x="282" y="945.3" width="184.3" height="184.3"/><rect class="cls-3" x="503.1" y="945.3" width="184.3" height="184.3"/><rect class="cls-3" x="724.3" y="945.3" width="184.3" height="184.3"/><rect class="cls-3" x="945.3" y="945.3" width="184.3" height="184.3"/></g><g id="Livello_3" data-name="Livello 3"><rect class="cls-4" x="60.9" y="60.9" width="147.4" height="147.4"/><rect class="cls-4" x="245.2" y="60.9" width="147.4" height="147.4"/><rect class="cls-4" x="429.5" y="60.9" width="147.4" height="147.4"/><rect class="cls-4" x="613.7" y="60.9" width="147.4" height="147.4"/><rect class="cls-4" x="798" y="60.9" width="147.4" height="147.4"/><rect class="cls-4" x="982.2" y="60.9" width="147.4" height="147.4"/><rect class="cls-4" x="60.9" y="245.2" width="147.4" height="147.4"/><rect class="cls-4" x="245.2" y="245.2" width="147.4" height="147.4"/><rect class="cls-4" x="429.5" y="245.2" width="147.4" height="147.4"/><rect class="cls-4" x="613.7" y="245.2" width="147.4" height="147.4"/><rect class="cls-4" x="798" y="245.2" width="147.4" height="147.4"/><rect class="cls-4" x="982.2" y="245.2" width="147.4" height="147.4"/><rect class="cls-4" x="60.9" y="429.4" width="147.4" height="147.4"/><rect class="cls-4" x="245.2" y="429.4" width="147.4" height="147.4"/><rect class="cls-4" x="429.5" y="429.4" width="147.4" height="147.4"/><rect class="cls-4" x="613.7" y="429.4" width="147.4" height="147.4"/><rect class="cls-4" x="798" y="429.4" width="147.4" height="147.4"/><rect class="cls-4" x="982.2" y="429.4" width="147.4" height="147.4"/><rect class="cls-4" x="60.9" y="613.7" width="147.4" height="147.4"/><rect class="cls-4" x="245.2" y="613.7" width="147.4" height="147.4"/><rect class="cls-4" x="429.5" y="613.7" width="147.4" height="147.4"/><rect class="cls-4" x="613.7" y="613.7" width="147.4" height="147.4"/><rect class="cls-4" x="798" y="613.7" width="147.4" height="147.4"/><rect class="cls-4" x="982.2" y="613.7" width="147.4" height="147.4"/><rect class="cls-4" x="60.9" y="798" width="147.4" height="147.4"/><rect class="cls-4" x="245.2" y="798" width="147.4" height="147.4"/><rect class="cls-4" x="429.5" y="798" width="147.4" height="147.4"/><rect class="cls-4" x="613.7" y="798" width="147.4" height="147.4"/><rect class="cls-4" x="798" y="798" width="147.4" height="147.4"/><rect class="cls-4" x="982.2" y="798" width="147.4" height="147.4"/><rect class="cls-4" x="60.9" y="982.2" width="147.4" height="147.4"/><rect class="cls-4" x="245.2" y="982.2" width="147.4" height="147.4"/><rect class="cls-4" x="429.5" y="982.2" width="147.4" height="147.4"/><rect class="cls-4" x="613.7" y="982.2" width="147.4" height="147.4"/><rect class="cls-4" x="798" y="982.2" width="147.4" height="147.4"/><rect class="cls-4" x="982.2" y="982.2" width="147.4" height="147.4"/></g></svg>