<?xml version="1.0" encoding="utf-8"?>
<!-- Generator: Adobe Illustrator 22.1.0, SVG Export Plug-In . SVG Version: 6.00 Build 0)  -->
<svg version="1.1" id="Capa_1" xmlns="http://www.w3.org/2000/svg" xmlns:xlink="http://www.w3.org/1999/xlink" x="0px" y="0px"
	 viewBox="0 0 1190.6 1190.6" style="enable-background:new 0 0 1190.6 1190.6;" xml:space="preserve">
<style type="text/css">
	.st0{fill:#262451;}
	.st1{fill:none;stroke:#3C75BA;stroke-width:4;stroke-miterlimit:10;}
	.st2{clip-path:url(#SVGID_2_);}
	.st3{clip-path:url(#SVGID_4_);}
	.st4{fill:none;stroke:#EE7AAA;stroke-width:4;stroke-miterlimit:10;}
</style>
<g id="Capa_1_1_">
	<rect x="-0.2" y="-0.2" class="st0" width="1191" height="1191"/>
	<rect x="55.8" y="58.8" class="st0" width="239.5" height="239.5"/>
	<rect x="332.2" y="58.8" class="st0" width="239.5" height="239.5"/>
	<rect x="608.5" y="58.8" class="st0" width="239.5" height="239.5"/>
	<rect x="884.9" y="58.8" class="st0" width="239.5" height="239.5"/>
	<rect x="55.8" y="335.2" class="st0" width="239.5" height="239.5"/>
	<rect x="332.2" y="335.2" class="st0" width="239.5" height="239.5"/>
	<rect x="608.5" y="335.2" class="st0" width="239.5" height="239.5"/>
	<rect x="884.9" y="335.2" class="st0" width="239.5" height="239.5"/>
	<rect x="55.8" y="611.5" class="st0" width="239.5" height="239.5"/>
	<rect x="332.2" y="611.5" class="st0" width="239.5" height="239.5"/>
	<rect x="608.5" y="611.5" class="st0" width="239.5" height="239.5"/>
	<rect x="884.9" y="611.5" class="st0" width="239.5" height="239.5"/>
	<rect x="55.8" y="887.9" class="st0" width="239.5" height="239.5"/>
	<rect x="332.2" y="887.9" class="st0" width="239.5" height="239.5"/>
	<rect x="608.5" y="887.9" class="st0" width="239.5" height="239.5"/>
	<rect x="884.9" y="887.9" class="st0" width="239.5" height="239.5"/>
</g>
<g id="griglia2">
	<rect x="55.8" y="58.8" class="st1" width="184.3" height="184.3"/>
	<rect x="277" y="58.8" class="st1" width="184.3" height="184.3"/>
	<rect x="498.1" y="58.8" class="st1" width="184.3" height="184.3"/>
	<rect x="719.3" y="58.8" class="st1" width="184.3" height="184.3"/>
	<rect x="940.5" y="58.8" class="st1" width="184.3" height="184.3"/>
	<rect x="55.8" y="280" class="st1" width="184.3" height="184.3"/>
	<rect x="277" y="280" class="st1" width="184.3" height="184.3"/>
	<rect x="498.1" y="280" class="st1" width="184.3" height="184.3"/>
	<rect x="719.3" y="280" class="st1" width="184.3" height="184.3"/>
	<rect x="940.5" y="280" class="st1" width="184.3" height="184.3"/>
	<rect x="55.8" y="501.1" class="st1" width="184.3" height="184.3"/>
	<rect x="277" y="501.1" class="st1" width="184.3" height="184.3"/>
	<g>
		<g>
			<defs>
				<rect id="SVGID_1_" x="498.1" y="501.1" width="184.3" height="184.3"/>
			</defs>
			<clipPath id="SVGID_2_">
				<use xlink:href="#SVGID_1_"  style="overflow:visible;"/>
			</clipPath>
			<g class="st2">
				
					<image style="overflow:visible;enable-background:new    ;" width="6016" height="4000" xlink:href="893573_02.JPG"  transform="matrix(0.18 0 0 0.18 55.7756 58.7756)">
				</image>
			</g>
		</g>
	</g>
	<rect x="719.3" y="501.1" class="st1" width="184.3" height="184.3"/>
	<rect x="940.5" y="501.1" class="st1" width="184.3" height="184.3"/>
	<rect x="55.8" y="722.3" class="st1" width="184.3" height="184.3"/>
	<rect x="277" y="722.3" class="st1" width="184.3" height="184.3"/>
	<rect x="498.1" y="722.3" class="st1" width="184.3" height="184.3"/>
	<rect x="719.3" y="722.3" class="st1" width="184.3" height="184.3"/>
	<rect x="940.5" y="722.3" class="st1" width="184.3" height="184.3"/>
	<rect x="55.8" y="943.5" class="st1" width="184.3" height="184.3"/>
	<rect x="277" y="943.5" class="st1" width="184.3" height="184.3"/>
	<rect x="498.1" y="943.5" class="st1" width="184.3" height="184.3"/>
	<rect x="719.3" y="943.5" class="st1" width="184.3" height="184.3"/>
	<rect x="940.5" y="943.5" class="st1" width="184.3" height="184.3"/>
</g>
<g id="circulo">
	<g>
		<g>
			<defs>
				<circle id="SVGID_3_" cx="313.8" cy="316.8" r="111"/>
			</defs>
			<clipPath id="SVGID_4_">
				<use xlink:href="#SVGID_3_"  style="overflow:visible;"/>
			</clipPath>
			<g class="st3">
				
					<image style="overflow:visible;enable-background:new    ;" width="6016" height="4000" xlink:href="893573_01.JPG"  transform="matrix(0.1 0 0 0.1 -106.2244 132.7756)">
				</image>
			</g>
		</g>
	</g>
</g>
<g id="griglia3">
	<rect x="55.8" y="58.8" class="st4" width="147.4" height="147.4"/>
	<rect x="240.1" y="58.8" class="st4" width="147.4" height="147.4"/>
	<rect x="424.4" y="58.8" class="st4" width="147.4" height="147.4"/>
	<rect x="608.7" y="58.8" class="st4" width="147.4" height="147.4"/>
	<rect x="793.1" y="58.8" class="st4" width="147.4" height="147.4"/>
	<rect x="977.4" y="58.8" class="st4" width="147.4" height="147.4"/>
	<rect x="55.8" y="243.1" class="st4" width="147.4" height="147.4"/>
	<rect x="240.1" y="243.1" class="st4" width="147.4" height="147.4"/>
	<rect x="424.4" y="243.1" class="st4" width="147.4" height="147.4"/>
	<rect x="608.7" y="243.1" class="st4" width="147.4" height="147.4"/>
	<rect x="793.1" y="243.1" class="st4" width="147.4" height="147.4"/>
	<rect x="977.4" y="243.1" class="st4" width="147.4" height="147.4"/>
	<rect x="55.8" y="427.4" class="st4" width="147.4" height="147.4"/>
	<rect x="240.1" y="427.4" class="st4" width="147.4" height="147.4"/>
	<rect x="424.4" y="427.4" class="st4" width="147.4" height="147.4"/>
	<rect x="608.7" y="427.4" class="st4" width="147.4" height="147.4"/>
	<rect x="793.1" y="427.4" class="st4" width="147.4" height="147.4"/>
	<rect x="977.4" y="427.4" class="st4" width="147.4" height="147.4"/>
	<rect x="55.8" y="611.7" class="st4" width="147.4" height="147.4"/>
	<rect x="240.1" y="611.7" class="st4" width="147.4" height="147.4"/>
	<rect x="424.4" y="611.7" class="st4" width="147.4" height="147.4"/>
	<rect x="608.7" y="611.7" class="st4" width="147.4" height="147.4"/>
	<rect x="793.1" y="611.7" class="st4" width="147.4" height="147.4"/>
	<rect x="977.4" y="611.7" class="st4" width="147.4" height="147.4"/>
	<rect x="55.8" y="796.1" class="st4" width="147.4" height="147.4"/>
	<rect x="240.1" y="796.1" class="st4" width="147.4" height="147.4"/>
	<rect x="424.4" y="796.1" class="st4" width="147.4" height="147.4"/>
	<rect x="608.7" y="796.1" class="st4" width="147.4" height="147.4"/>
	<rect x="793.1" y="796.1" class="st4" width="147.4" height="147.4"/>
	<rect x="977.4" y="796.1" class="st4" width="147.4" height="147.4"/>
	<rect x="55.8" y="980.4" class="st4" width="147.4" height="147.4"/>
	<rect x="240.1" y="980.4" class="st4" width="147.4" height="147.4"/>
	<rect x="424.4" y="980.4" class="st4" width="147.4" height="147.4"/>
	<rect x="608.7" y="980.4" class="st4" width="147.4" height="147.4"/>
	<rect x="793.1" y="980.4" class="st4" width="147.4" height="147.4"/>
	<rect x="977.4" y="980.4" class="st4" width="147.4" height="147.4"/>
</g>
</svg>
