<svg xmlns="http://www.w3.org/2000/svg" xmlns:xlink="http://www.w3.org/1999/xlink" viewBox="0 0 1190.55 1190.55"><defs><style>.cls-1{fill:#fffddf;}.cls-2,.cls-3,.cls-4{fill:none;stroke-miterlimit:10;}.cls-2{stroke:#fbb03b;}.cls-3{stroke:#ff8af3;}.cls-4{stroke:#006837;}</style></defs><title>896414_03</title><g id="图层_1" data-name="图层 1"><rect class="cls-1" width="1190.55" height="1190.55"/><rect class="cls-2" x="60.94" y="60.94" width="239.53" height="239.53"/><rect class="cls-2" x="337.32" y="60.94" width="239.53" height="239.53"/><rect class="cls-2" x="613.7" y="60.94" width="239.53" height="239.53"/><rect class="cls-2" x="890.08" y="60.94" width="239.53" height="239.53"/><rect class="cls-2" x="60.94" y="337.32" width="239.53" height="239.53"/><rect class="cls-2" x="60.94" y="613.7" width="239.53" height="239.53"/><rect class="cls-2" x="60.94" y="890.08" width="239.53" height="239.53"/><rect class="cls-2" x="337.32" y="337.32" width="239.53" height="239.53"/><rect class="cls-2" x="337.32" y="613.7" width="239.53" height="239.53"/><rect class="cls-2" x="337.32" y="890.08" width="239.53" height="239.53"/><rect class="cls-2" x="613.7" y="337.32" width="239.53" height="239.53"/><rect class="cls-2" x="613.7" y="613.7" width="239.53" height="239.53"/><rect class="cls-2" x="613.7" y="890.08" width="239.53" height="239.53"/><rect class="cls-2" x="890.08" y="337.32" width="239.53" height="239.53"/><rect class="cls-2" x="890.08" y="613.7" width="239.53" height="239.53"/><rect class="cls-2" x="890.08" y="890.08" width="239.53" height="239.53"/></g><g id="图层_2" data-name="图层 2"><rect class="cls-3" x="60.94" y="60.94" width="184.25" height="184.25"/><rect class="cls-3" x="282.05" y="60.94" width="184.25" height="184.25"/><rect class="cls-3" x="60.94" y="282.05" width="184.25" height="184.25"/><rect class="cls-3" x="503.15" y="60.94" width="184.25" height="184.25"/><rect class="cls-3" x="60.94" y="503.15" width="184.25" height="184.25"/><rect class="cls-3" x="724.25" y="60.94" width="184.25" height="184.25"/><rect class="cls-3" x="60.94" y="724.25" width="184.25" height="184.25"/><rect class="cls-3" x="945.35" y="60.94" width="184.25" height="184.25"/><rect class="cls-3" x="60.94" y="945.35" width="184.25" height="184.25"/><rect class="cls-3" x="282.05" y="282.05" width="184.25" height="184.25"/><rect class="cls-3" x="282.05" y="503.15" width="184.25" height="184.25"/><rect class="cls-3" x="282.05" y="724.25" width="184.25" height="184.25"/><rect class="cls-3" x="282.05" y="945.35" width="184.25" height="184.25"/><rect class="cls-3" x="503.15" y="282.05" width="184.25" height="184.25"/><rect class="cls-3" x="503.15" y="503.15" width="184.25" height="184.25"/><rect class="cls-3" x="503.15" y="724.25" width="184.25" height="184.25"/><rect class="cls-3" x="503.15" y="945.35" width="184.25" height="184.25"/><rect class="cls-3" x="724.25" y="282.05" width="184.25" height="184.25"/><rect class="cls-3" x="724.25" y="503.15" width="184.25" height="184.25"/><rect class="cls-3" x="724.25" y="724.25" width="184.25" height="184.25"/><rect class="cls-3" x="724.25" y="945.35" width="184.25" height="184.25"/><rect class="cls-3" x="945.35" y="282.05" width="184.25" height="184.25"/><rect class="cls-3" x="945.35" y="503.15" width="184.25" height="184.25"/><rect class="cls-3" x="945.35" y="724.25" width="184.25" height="184.25"/><rect class="cls-3" x="945.35" y="945.35" width="184.25" height="184.25"/></g><g id="图层_3" data-name="图层 3"><rect class="cls-4" x="60.94" y="60.94" width="147.4" height="147.4"/><rect class="cls-4" x="245.2" y="60.94" width="147.4" height="147.4"/><rect class="cls-4" x="60.94" y="245.2" width="147.4" height="147.4"/><rect class="cls-4" x="429.45" y="60.94" width="147.4" height="147.4"/><rect class="cls-4" x="613.7" y="60.94" width="147.4" height="147.4"/><rect class="cls-4" x="60.94" y="429.45" width="147.4" height="147.4"/><rect class="cls-4" x="60.94" y="613.7" width="147.4" height="147.4"/><rect class="cls-4" x="60.94" y="797.95" width="147.4" height="147.4"/><rect class="cls-4" x="60.94" y="982.2" width="147.4" height="147.4"/><rect class="cls-4" x="797.95" y="60.94" width="147.4" height="147.4"/><rect class="cls-4" x="982.2" y="60.94" width="147.4" height="147.4"/><rect class="cls-4" x="245.2" y="245.2" width="147.4" height="147.4"/><rect class="cls-4" x="245.2" y="429.45" width="147.4" height="147.4"/><rect class="cls-4" x="245.2" y="613.7" width="147.4" height="147.4"/><rect class="cls-4" x="245.2" y="797.95" width="147.4" height="147.4"/><rect class="cls-4" x="245.2" y="982.2" width="147.4" height="147.4"/><rect class="cls-4" x="429.45" y="982.2" width="147.4" height="147.4"/><rect class="cls-4" x="429.45" y="797.95" width="147.4" height="147.4"/><rect class="cls-4" x="429.45" y="613.7" width="147.4" height="147.4"/><rect class="cls-4" x="429.45" y="429.45" width="147.4" height="147.4"/><rect class="cls-4" x="429.45" y="245.2" width="147.4" height="147.4"/><rect class="cls-4" x="613.7" y="245.2" width="147.4" height="147.4"/><rect class="cls-4" x="613.7" y="429.45" width="147.4" height="147.4"/><rect class="cls-4" x="613.7" y="613.7" width="147.4" height="147.4"/><rect class="cls-4" x="613.7" y="797.95" width="147.4" height="147.4"/><rect class="cls-4" x="613.7" y="982.2" width="147.4" height="147.4"/><rect class="cls-4" x="797.95" y="245.2" width="147.4" height="147.4"/><rect class="cls-4" x="797.95" y="429.45" width="147.4" height="147.4"/><rect class="cls-4" x="797.95" y="613.7" width="147.4" height="147.4"/><rect class="cls-4" x="797.95" y="797.95" width="147.4" height="147.4"/><rect class="cls-4" x="797.95" y="982.2" width="147.4" height="147.4"/><rect class="cls-4" x="982.2" y="245.2" width="147.4" height="147.4"/><rect class="cls-4" x="982.2" y="418.5" width="147.4" height="147.4"/><rect class="cls-4" x="982.2" y="613.7" width="147.4" height="147.4"/><rect class="cls-4" x="982.2" y="797.95" width="147.4" height="147.4"/><rect class="cls-4" x="982.2" y="982.2" width="147.4" height="147.4"/></g><g id="图层_4" data-name="图层 4"><image width="564" height="564" transform="translate(331.7 344.5)" xlink:href="896414_03.jpg"/></g></svg>