<svg id="Livello_1" data-name="Livello 1" xmlns="http://www.w3.org/2000/svg" xmlns:xlink="http://www.w3.org/1999/xlink" viewBox="0 0 1190.6 1190.6"><defs><style>.cls-1,.cls-3,.cls-4,.cls-5{fill:none;}.cls-2{fill:#ff0;}.cls-3{stroke:#10eeff;}.cls-3,.cls-4,.cls-5{stroke-miterlimit:10;}.cls-4{stroke:blue;}.cls-5{stroke:red;}.cls-6{clip-path:url(#clip-path);}.cls-7{isolation:isolate;}</style><clipPath id="clip-path"><rect class="cls-1" x="61.02" y="61.46" width="239.58" height="239.54"/></clipPath></defs><title>Tavola disegno 1</title><g id="Livello_1-2" data-name="Livello 1"><g id="Livello_1-2-2" data-name="Livello 1-2"><g id="Colore"><rect class="cls-2" width="1190.6" height="1190.6"/></g></g><g id="_4x4" data-name=" 4x4"><g id="_4x4-2" data-name=" 4x4-2"><rect class="cls-1" width="1190.6" height="1190.6"/><rect class="cls-3" x="60.6" y="61" width="240" height="240"/><rect class="cls-3" x="337.5" y="61" width="240" height="240"/><rect class="cls-3" x="613.6" y="61" width="240" height="240"/><rect class="cls-3" x="889.4" y="61" width="240" height="240"/><rect class="cls-3" x="60.6" y="338.3" width="240" height="240"/><rect class="cls-3" x="337.5" y="337.3" width="240" height="240"/><rect class="cls-3" x="613.6" y="337.3" width="240" height="240"/><rect class="cls-3" x="890.4" y="336.3" width="240" height="240"/><rect class="cls-3" x="337.5" y="613.5" width="240" height="240"/><rect class="cls-3" x="60.6" y="613.5" width="240" height="240"/><rect class="cls-3" x="613.6" y="613.5" width="240" height="240"/><rect class="cls-3" x="890.4" y="613.5" width="240" height="240"/><rect class="cls-3" x="60.6" y="889.8" width="240" height="240"/><rect class="cls-3" x="337.5" y="889.8" width="240" height="240"/><rect class="cls-3" x="612.6" y="889.8" width="240" height="240"/><rect class="cls-3" x="890.4" y="889.8" width="240" height="240"/></g></g><g id="_5x5" data-name=" 5x5"><g id="_5x5-2" data-name=" 5x5-2"><line class="cls-1" x1="60.9" y1="60.8" x2="245.3" y2="61.6"/><rect class="cls-4" x="60.9" y="60.8" width="185.1" height="185.1"/><rect class="cls-4" x="281.4" y="60.8" width="185.1" height="185.1"/><rect class="cls-4" x="502.7" y="60.8" width="185.1" height="185.1"/><rect class="cls-4" x="724.3" y="60.8" width="185.1" height="185.1"/><rect class="cls-4" x="945.3" y="60.8" width="185.1" height="185.1"/><rect class="cls-4" x="60.9" y="281.9" width="185.1" height="185.1"/><rect class="cls-4" x="281.4" y="281.9" width="185.1" height="185.1"/><rect class="cls-4" x="502.7" y="281.9" width="185.1" height="185.1"/><rect class="cls-4" x="724.3" y="281.9" width="185.1" height="185.1"/><rect class="cls-4" x="945.3" y="281.9" width="185.1" height="185.1"/><rect class="cls-4" x="60.9" y="502.7" width="185.1" height="185.1"/><rect class="cls-4" x="281.4" y="502.7" width="185.1" height="185.1"/><rect class="cls-4" x="502.7" y="502.7" width="185.1" height="185.1"/><rect class="cls-4" x="724.3" y="502.7" width="185.1" height="185.1"/><rect class="cls-4" x="945.3" y="502.7" width="185.1" height="185.1"/><rect class="cls-4" x="60.9" y="723.6" width="185.1" height="185.1"/><rect class="cls-4" x="281.4" y="723.6" width="185.1" height="185.1"/><rect class="cls-4" x="502.7" y="723.6" width="185.1" height="185.1"/><rect class="cls-4" x="724.3" y="723.6" width="185.1" height="185.1"/><rect class="cls-4" x="945.3" y="723.6" width="185.1" height="185.1"/><rect class="cls-4" x="59.9" y="944.6" width="185.1" height="185.1"/><rect class="cls-4" x="281.4" y="944.6" width="185.1" height="185.1"/><rect class="cls-4" x="502.7" y="944.6" width="185.1" height="185.1"/><rect class="cls-4" x="723.3" y="944.6" width="185.1" height="185.1"/><rect class="cls-4" x="944.3" y="944.6" width="185.1" height="185.1"/></g></g><g id="_6x6" data-name=" 6x6"><rect class="cls-5" x="61.02" y="61.46" width="147.4" height="147.4"/><rect class="cls-5" x="245.57" y="61.46" width="147.4" height="147.4"/><rect class="cls-5" x="429.97" y="61.46" width="147.4" height="147.4"/><rect class="cls-5" x="614.47" y="61.46" width="147.4" height="147.4"/><rect class="cls-5" x="798.02" y="61.46" width="147.4" height="147.4"/><rect class="cls-5" x="982.42" y="61.46" width="147.4" height="147.4"/><rect class="cls-5" x="60.9" y="245.86" width="147.4" height="147.4"/><rect class="cls-5" x="245.45" y="245.86" width="147.4" height="147.4"/><rect class="cls-5" x="429.85" y="245.86" width="147.4" height="147.4"/><rect class="cls-5" x="614.34" y="245.86" width="147.4" height="147.4"/><rect class="cls-5" x="797.9" y="245.86" width="147.4" height="147.4"/><rect class="cls-5" x="982.3" y="245.86" width="147.4" height="147.4"/><rect class="cls-5" x="60.96" y="429.4" width="147.4" height="147.4"/><rect class="cls-5" x="245.51" y="429.4" width="147.4" height="147.4"/><rect class="cls-5" x="429.91" y="429.4" width="147.4" height="147.4"/><rect class="cls-5" x="614.4" y="429.4" width="147.4" height="147.4"/><rect class="cls-5" x="797.96" y="429.4" width="147.4" height="147.4"/><rect class="cls-5" x="982.36" y="429.4" width="147.4" height="147.4"/><rect class="cls-5" x="60.84" y="613.8" width="147.4" height="147.4"/><rect class="cls-5" x="245.39" y="613.8" width="147.4" height="147.4"/><rect class="cls-5" x="429.79" y="613.8" width="147.4" height="147.4"/><rect class="cls-5" x="614.28" y="613.8" width="147.4" height="147.4"/><rect class="cls-5" x="797.84" y="613.8" width="147.4" height="147.4"/><rect class="cls-5" x="982.24" y="613.8" width="147.4" height="147.4"/><rect class="cls-5" x="60.96" y="798.2" width="147.4" height="147.4"/><rect class="cls-5" x="245.51" y="798.2" width="147.4" height="147.4"/><rect class="cls-5" x="429.91" y="798.2" width="147.4" height="147.4"/><rect class="cls-5" x="614.4" y="798.2" width="147.4" height="147.4"/><rect class="cls-5" x="797.96" y="798.2" width="147.4" height="147.4"/><rect class="cls-5" x="982.36" y="798.2" width="147.4" height="147.4"/><rect class="cls-5" x="60.84" y="982.6" width="147.4" height="147.4"/><rect class="cls-5" x="245.39" y="982.6" width="147.4" height="147.4"/><rect class="cls-5" x="429.79" y="982.6" width="147.4" height="147.4"/><rect class="cls-5" x="614.28" y="982.6" width="147.4" height="147.4"/><rect class="cls-5" x="797.84" y="982.6" width="147.4" height="147.4"/><rect class="cls-5" x="982.24" y="982.6" width="147.4" height="147.4"/></g></g><g class="cls-6"><g id="Livello_2" data-name="Livello 2"><image class="cls-7" width="3264" height="2448" transform="translate(61.49 60.8) scale(0.22 0.17)" xlink:href="../foto/IMG_6851.jpg"/></g></g></svg>