<?xml version="1.0" encoding="utf-8"?>
<!-- Generator: Adobe Illustrator 22.1.0, SVG Export Plug-In . SVG Version: 6.00 Build 0)  -->
<svg version="1.1" id="Livello_1" xmlns="http://www.w3.org/2000/svg" xmlns:xlink="http://www.w3.org/1999/xlink" x="0px" y="0px"
	 viewBox="0 0 1190.6 1190.6" style="enable-background:new 0 0 1190.6 1190.6;" xml:space="preserve">
<style type="text/css">
	.st0{fill:#FFFF00;}
	.st1{fill:none;}
	.st2{fill:none;stroke:#10EEFF;stroke-miterlimit:10;}
	.st3{fill:none;stroke:#0000FF;stroke-miterlimit:10;}
	.st4{fill:none;stroke:#FF0000;stroke-miterlimit:10;}
	.st5{clip-path:url(#SVGID_2_);}
	.st6{clip-path:url(#SVGID_4_);}
	.st7{fill:#148E39;}
	.st8{font-family:'OpenSansCondensed-Bold';}
	.st9{font-size:60px;}
	.st10{font-family:'OpenSansCondensed-Light';}
	.st11{font-size:16px;}
	.st12{font-family:'EBGaramond-Italic';}
	.st13{font-size:10px;}
</style>
<title>Tavola disegno 1</title>
<g id="Livello_1_1_">
	<g id="Livello_1-2">
		<g id="Livello_1-2-2">
			<g id="Colore">
				<rect y="0" class="st0" width="1190.6" height="1190.6"/>
			</g>
		</g>
		<g id="_4x4">
			<g id="_4x4-2">
				<rect y="0" class="st1" width="1190.6" height="1190.6"/>
				<rect x="60.6" y="61" class="st2" width="240" height="240"/>
				<rect x="337.5" y="61" class="st2" width="240" height="240"/>
				<rect x="613.6" y="61" class="st2" width="240" height="240"/>
				<rect x="889.4" y="61" class="st2" width="240" height="240"/>
				<rect x="60.6" y="338.3" class="st2" width="240" height="240"/>
				<rect x="337.5" y="337.3" class="st2" width="240" height="240"/>
				<rect x="613.6" y="337.3" class="st2" width="240" height="240"/>
				<rect x="890.4" y="336.3" class="st2" width="240" height="240"/>
				<rect x="337.5" y="613.5" class="st2" width="240" height="240"/>
				<rect x="60.6" y="613.5" class="st2" width="240" height="240"/>
				<rect x="613.6" y="613.5" class="st2" width="240" height="240"/>
				<rect x="890.4" y="613.5" class="st2" width="240" height="240"/>
				<rect x="60.6" y="889.8" class="st2" width="240" height="240"/>
				<rect x="337.5" y="889.8" class="st2" width="240" height="240"/>
				<rect x="612.6" y="889.8" class="st2" width="240" height="240"/>
				<rect x="890.4" y="889.8" class="st2" width="240" height="240"/>
			</g>
		</g>
		<g id="_5x5">
			<g id="_5x5-2">
				<line class="st1" x1="60.9" y1="60.8" x2="245.3" y2="61.6"/>
				<rect x="60.9" y="60.8" class="st3" width="185.1" height="185.1"/>
				<rect x="281.4" y="60.8" class="st3" width="185.1" height="185.1"/>
				<rect x="502.7" y="60.8" class="st3" width="185.1" height="185.1"/>
				<rect x="724.3" y="60.8" class="st3" width="185.1" height="185.1"/>
				<rect x="945.3" y="60.8" class="st3" width="185.1" height="185.1"/>
				<rect x="60.9" y="281.9" class="st3" width="185.1" height="185.1"/>
				<rect x="281.4" y="281.9" class="st3" width="185.1" height="185.1"/>
				<rect x="502.7" y="281.9" class="st3" width="185.1" height="185.1"/>
				<rect x="724.3" y="281.9" class="st3" width="185.1" height="185.1"/>
				<rect x="945.3" y="281.9" class="st3" width="185.1" height="185.1"/>
				<rect x="60.9" y="502.7" class="st3" width="185.1" height="185.1"/>
				<rect x="281.4" y="502.7" class="st3" width="185.1" height="185.1"/>
				<rect x="502.7" y="502.7" class="st3" width="185.1" height="185.1"/>
				<rect x="724.3" y="502.7" class="st3" width="185.1" height="185.1"/>
				<rect x="945.3" y="502.7" class="st3" width="185.1" height="185.1"/>
				<rect x="60.9" y="723.6" class="st3" width="185.1" height="185.1"/>
				<rect x="281.4" y="723.6" class="st3" width="185.1" height="185.1"/>
				<rect x="502.7" y="723.6" class="st3" width="185.1" height="185.1"/>
				<rect x="724.3" y="723.6" class="st3" width="185.1" height="185.1"/>
				<rect x="945.3" y="723.6" class="st3" width="185.1" height="185.1"/>
				<rect x="59.9" y="944.6" class="st3" width="185.1" height="185.1"/>
				<rect x="281.4" y="944.6" class="st3" width="185.1" height="185.1"/>
				<rect x="502.7" y="944.6" class="st3" width="185.1" height="185.1"/>
				<rect x="723.3" y="944.6" class="st3" width="185.1" height="185.1"/>
				<rect x="944.3" y="944.6" class="st3" width="185.1" height="185.1"/>
			</g>
		</g>
		<g id="_6x6">
			<rect x="61" y="61.5" class="st4" width="147.4" height="147.4"/>
			<rect x="245.6" y="61.5" class="st4" width="147.4" height="147.4"/>
			<rect x="430" y="61.5" class="st4" width="147.4" height="147.4"/>
			<rect x="614.5" y="61.5" class="st4" width="147.4" height="147.4"/>
			<rect x="798" y="61.5" class="st4" width="147.4" height="147.4"/>
			<rect x="982.4" y="61.5" class="st4" width="147.4" height="147.4"/>
			<rect x="60.9" y="245.9" class="st4" width="147.4" height="147.4"/>
			<rect x="245.4" y="245.9" class="st4" width="147.4" height="147.4"/>
			<rect x="429.9" y="245.9" class="st4" width="147.4" height="147.4"/>
			<rect x="614.3" y="245.9" class="st4" width="147.4" height="147.4"/>
			<rect x="797.9" y="245.9" class="st4" width="147.4" height="147.4"/>
			<rect x="982.3" y="245.9" class="st4" width="147.4" height="147.4"/>
			<rect x="61" y="429.4" class="st4" width="147.4" height="147.4"/>
			<rect x="245.5" y="429.4" class="st4" width="147.4" height="147.4"/>
			<rect x="429.9" y="429.4" class="st4" width="147.4" height="147.4"/>
			<rect x="614.4" y="429.4" class="st4" width="147.4" height="147.4"/>
			<rect x="798" y="429.4" class="st4" width="147.4" height="147.4"/>
			<rect x="982.4" y="429.4" class="st4" width="147.4" height="147.4"/>
			<rect x="60.8" y="613.8" class="st4" width="147.4" height="147.4"/>
			<rect x="245.4" y="613.8" class="st4" width="147.4" height="147.4"/>
			<rect x="429.8" y="613.8" class="st4" width="147.4" height="147.4"/>
			<rect x="614.3" y="613.8" class="st4" width="147.4" height="147.4"/>
			<rect x="797.8" y="613.8" class="st4" width="147.4" height="147.4"/>
			<rect x="982.2" y="613.8" class="st4" width="147.4" height="147.4"/>
			<rect x="61" y="798.2" class="st4" width="147.4" height="147.4"/>
			<rect x="245.5" y="798.2" class="st4" width="147.4" height="147.4"/>
			<rect x="429.9" y="798.2" class="st4" width="147.4" height="147.4"/>
			<rect x="614.4" y="798.2" class="st4" width="147.4" height="147.4"/>
			<rect x="798" y="798.2" class="st4" width="147.4" height="147.4"/>
			<rect x="982.4" y="798.2" class="st4" width="147.4" height="147.4"/>
			<rect x="60.8" y="982.6" class="st4" width="147.4" height="147.4"/>
			<rect x="245.4" y="982.6" class="st4" width="147.4" height="147.4"/>
			<rect x="429.8" y="982.6" class="st4" width="147.4" height="147.4"/>
			<rect x="614.3" y="982.6" class="st4" width="147.4" height="147.4"/>
			<rect x="797.8" y="982.6" class="st4" width="147.4" height="147.4"/>
			<rect x="982.2" y="982.6" class="st4" width="147.4" height="147.4"/>
		</g>
	</g>
	<g>
		<defs>
			<rect id="SVGID_1_" x="61" y="61.5" width="239.6" height="239.5"/>
		</defs>
		<clipPath id="SVGID_2_">
			<use xlink:href="#SVGID_1_"  style="overflow:visible;"/>
		</clipPath>
		<g class="st5">
			<g id="Livello_2_1_">
				
					<image style="overflow:visible;enable-background:new    ;" width="3264" height="2448" xlink:href="../foto/IMG_6851.jpg"  transform="matrix(0.22 0 0 0.17 61.49 60.8)">
				</image>
			</g>
		</g>
	</g>
	<g>
		<defs>
			<circle id="SVGID_3_" cx="689.7" cy="664.6" r="133.6"/>
		</defs>
		<clipPath id="SVGID_4_">
			<use xlink:href="#SVGID_3_"  style="overflow:visible;"/>
		</clipPath>
		<g class="st6">
			
				<image style="overflow:visible;enable-background:new    ;" width="960" height="717" xlink:href="../foto/IMG_2780.JPG"  transform="matrix(0.67 0 0 0.52 408.43 463.65)">
			</image>
		</g>
	</g>
</g>
<g id="Livello_2-2">
	<text transform="matrix(1 0 0 1 353.05 141.32)" class="st7 st8 st9">Alessandro Leone</text>
	<text transform="matrix(1 0 0 1 343.1 258.06)" class="st10 st11">Lorem ipsum dolor sit amet, consectetuer adipiscing elit, sed diam nonummy nibh euismod tincidunt ut </text>
	<text transform="matrix(1 0 0 1 343.1 282.06)" class="st10 st11">laoreet dolore magna aliquam erat volutpat. Ut wisi enim ad minim veniam, quis nostrud exerci tation </text>
	<text transform="matrix(1 0 0 1 343.1 306.06)" class="st10 st11">ullamcorper suscipit lobortis nisl ut aliquip ex ea commodo consequat. Duis autem vel eum iriure dolor </text>
	<text transform="matrix(1 0 0 1 343.1 330.06)" class="st10 st11">in hendrerit in vulputate velit esse molestie consequat, vel illum dolore eu feugiat nulla facilisis at vero </text>
	<text transform="matrix(1 0 0 1 343.1 354.06)" class="st10 st11">eros et accumsan et iusto odio dignissim qui blandit praesent luptatum zzril delenit augue duis dolore te </text>
	<text transform="matrix(1 0 0 1 343.1 378.06)" class="st10 st11">feugait nulla facilisi.</text>
	<text transform="matrix(1 0 0 1 343.1 402.06)" class="st10 st11">Lorem ipsum dolor sit amet, cons ectetuer adipiscing elit, sed diam nonummy nibh euismod tincidunt ut </text>
	<text transform="matrix(1 0 0 1 343.1 426.06)" class="st10 st11">laoreet dolore magna aliquam erat volutpat. Ut wisi enim ad minim veniam, quis nostrud exerci tation</text>
	<text transform="matrix(1 0 0 1 61.02 322.27)" class="st12 st13">L</text>
	<text transform="matrix(1 0 0 1 66.85 322.27)" class="st12 st13">’</text>
	<text transform="matrix(1 0 0 1 68.55 322.27)" class="st12 st13">a</text>
	<text transform="matrix(1 0 0 1 73.26 322.27)" class="st12 st13">l</text>
	<text transform="matrix(1 0 0 1 75.97 322.27)" class="st12 st13">ba </text>
	<text transform="matrix(1 0 0 1 87.37 322.27)" class="st12 st13">i</text>
	<text transform="matrix(1 0 0 1 90.16 322.27)" class="st12 st13">n C</text>
	<text transform="matrix(1 0 0 1 103.74 322.27)" class="st12 st13">a</text>
	<text transform="matrix(1 0 0 1 108.45 322.27)" class="st12 st13">l</text>
	<text transform="matrix(1 0 0 1 111.31 322.27)" class="st12 st13">a</text>
	<text transform="matrix(1 0 0 1 116.02 322.27)" class="st12 st13">bria</text>
</g>
</svg>
