<svg id="Livello_1" data-name="Livello 1" xmlns="http://www.w3.org/2000/svg" viewBox="0 0 1190.6 1190.6"><defs><style>.cls-1{fill:#ff0;}.cls-2,.cls-3,.cls-4,.cls-5{fill:none;}.cls-3{stroke:#10eeff;}.cls-3,.cls-4,.cls-5{stroke-miterlimit:10;}.cls-4{stroke:blue;}.cls-5{stroke:#f0f;}</style></defs><title>Tavola disegno 1</title><g id="Colore"><rect class="cls-1" width="1190.6" height="1190.6"/></g><g id="_4x4" data-name="4x4"><rect class="cls-2" width="1190.6" height="1190.6"/><rect class="cls-3" x="60.6" y="61" width="240" height="240"/><rect class="cls-3" x="337.5" y="61" width="240" height="240"/><rect class="cls-3" x="613.6" y="61" width="240" height="240"/><rect class="cls-3" x="889.4" y="61" width="240" height="240"/><rect class="cls-3" x="60.6" y="338.3" width="240" height="240"/><rect class="cls-3" x="337.5" y="337.3" width="240" height="240"/><rect class="cls-3" x="613.6" y="337.3" width="240" height="240"/><rect class="cls-3" x="890.4" y="336.3" width="240" height="240"/><rect class="cls-3" x="337.5" y="613.5" width="240" height="240"/><rect class="cls-3" x="60.6" y="613.5" width="240" height="240"/><rect class="cls-3" x="613.6" y="613.5" width="240" height="240"/><rect class="cls-3" x="890.4" y="613.5" width="240" height="240"/><rect class="cls-3" x="60.6" y="889.8" width="240" height="240"/><rect class="cls-3" x="337.5" y="889.8" width="240" height="240"/><rect class="cls-3" x="612.6" y="889.8" width="240" height="240"/><rect class="cls-3" x="890.4" y="889.8" width="240" height="240"/></g><g id="_5x5" data-name="5x5"><line class="cls-2" x1="60.9" y1="60.8" x2="245.3" y2="61.6"/><rect class="cls-4" x="60.9" y="60.8" width="185.1" height="185.1"/><rect class="cls-4" x="281.4" y="60.8" width="185.1" height="185.1"/><rect class="cls-4" x="502.7" y="60.8" width="185.1" height="185.1"/><rect class="cls-4" x="724.3" y="60.8" width="185.1" height="185.1"/><rect class="cls-4" x="945.3" y="60.8" width="185.1" height="185.1"/><rect class="cls-4" x="60.9" y="281.9" width="185.1" height="185.1"/><rect class="cls-4" x="281.4" y="281.9" width="185.1" height="185.1"/><rect class="cls-4" x="502.7" y="281.9" width="185.1" height="185.1"/><rect class="cls-4" x="724.3" y="281.9" width="185.1" height="185.1"/><rect class="cls-4" x="945.3" y="281.9" width="185.1" height="185.1"/><rect class="cls-4" x="60.9" y="502.7" width="185.1" height="185.1"/><rect class="cls-4" x="281.4" y="502.7" width="185.1" height="185.1"/><rect class="cls-4" x="502.7" y="502.7" width="185.1" height="185.1"/><rect class="cls-4" x="724.3" y="502.7" width="185.1" height="185.1"/><rect class="cls-4" x="945.3" y="502.7" width="185.1" height="185.1"/><rect class="cls-4" x="60.9" y="723.6" width="185.1" height="185.1"/><rect class="cls-4" x="281.4" y="723.6" width="185.1" height="185.1"/><rect class="cls-4" x="502.7" y="723.6" width="185.1" height="185.1"/><rect class="cls-4" x="724.3" y="723.6" width="185.1" height="185.1"/><rect class="cls-4" x="945.3" y="723.6" width="185.1" height="185.1"/><rect class="cls-4" x="59.9" y="944.6" width="185.1" height="185.1"/><rect class="cls-4" x="281.4" y="944.6" width="185.1" height="185.1"/><rect class="cls-4" x="502.7" y="944.6" width="185.1" height="185.1"/><rect class="cls-4" x="723.3" y="944.6" width="185.1" height="185.1"/><rect class="cls-4" x="944.3" y="944.6" width="185.1" height="185.1"/></g><g id="_6x6" data-name="6x6"><rect class="cls-5" x="62" y="61.1" width="147.2" height="147.2"/><rect class="cls-5" x="62" y="246.1" width="147.2" height="147.2"/><rect class="cls-5" x="62" y="430.1" width="147.2" height="147.2"/><rect class="cls-5" x="62" y="614.1" width="147.2" height="147.2"/><rect class="cls-5" x="62" y="798.1" width="147.2" height="147.2"/><rect class="cls-5" x="62" y="983.1" width="147.2" height="147.2"/><rect class="cls-5" x="246" y="62.1" width="147.2" height="147.2"/><rect class="cls-5" x="246" y="246.1" width="147.2" height="147.2"/><rect class="cls-5" x="246" y="430.1" width="147.2" height="147.2"/><rect class="cls-5" x="246" y="614.1" width="147.2" height="147.2"/><rect class="cls-5" x="246" y="798.1" width="147.2" height="147.2"/><rect class="cls-5" x="246" y="983.1" width="147.2" height="147.2"/><rect class="cls-5" x="430" y="62.1" width="147.2" height="147.2"/><rect class="cls-5" x="430" y="246.1" width="147.2" height="147.2"/><rect class="cls-5" x="430" y="430.1" width="147.2" height="147.2"/><rect class="cls-5" x="430" y="614.1" width="147.2" height="147.2"/><rect class="cls-5" x="430" y="798.1" width="147.2" height="147.2"/><rect class="cls-5" x="430" y="983.1" width="147.2" height="147.2"/><rect class="cls-5" x="615" y="62.1" width="147.2" height="147.2"/><rect class="cls-5" x="615" y="246.1" width="147.2" height="147.2"/><rect class="cls-5" x="615" y="430.1" width="147.2" height="147.2"/><rect class="cls-5" x="615" y="614.1" width="147.2" height="147.2"/><rect class="cls-5" x="615" y="798.1" width="147.2" height="147.2"/><rect class="cls-5" x="615" y="983.1" width="147.2" height="147.2"/><rect class="cls-5" x="798.8" y="62.1" width="147.2" height="147.2"/><rect class="cls-5" x="798.8" y="246.1" width="147.2" height="147.2"/><rect class="cls-5" x="798.8" y="430.1" width="147.2" height="147.2"/><rect class="cls-5" x="798.8" y="614.1" width="147.2" height="147.2"/><rect class="cls-5" x="798.8" y="798.1" width="147.2" height="147.2"/><rect class="cls-5" x="798.8" y="983.1" width="147.2" height="147.2"/><rect class="cls-5" x="982.8" y="62.1" width="147.2" height="147.2"/><rect class="cls-5" x="982.8" y="246.1" width="147.2" height="147.2"/><rect class="cls-5" x="982.8" y="430.1" width="147.2" height="147.2"/><rect class="cls-5" x="982.8" y="614.1" width="147.2" height="147.2"/><rect class="cls-5" x="982.8" y="798.1" width="147.2" height="147.2"/><rect class="cls-5" x="982.8" y="983.3" width="147.2" height="147.2"/></g></svg>