<?xml version="1.0" encoding="utf-8"?>
<!-- Generator: Adobe Illustrator 17.0.0, SVG Export Plug-In . SVG Version: 6.00 Build 0)  -->
<!DOCTYPE svg PUBLIC "-//W3C//DTD SVG 1.1//EN" "http://www.w3.org/Graphics/SVG/1.1/DTD/svg11.dtd">
<svg version="1.1" id="Layer_1" xmlns="http://www.w3.org/2000/svg" xmlns:xlink="http://www.w3.org/1999/xlink" x="0px" y="0px"
	 width="604.16px" height="604.702px" viewBox="97.92 19.84 604.16 604.702" enable-background="new 97.92 19.84 604.16 604.702"
	 xml:space="preserve">
<path d="M156.16,500.48c17.92,24.96,39.68,46.72,64.64,64.64c0.64,0.64,1.28,1.28,1.92,1.28c1.92,1.28,3.84,3.2,6.4,4.48
	c0.64,0.64,0.64,0.64,1.28,1.28c3.2,1.92,6.4,3.84,9.6,6.4c0.64,0.64,1.28,0.64,1.92,1.28c5.12,3.2,10.24,6.4,16,8.96l0.64,0.64
	c14.72,7.68,30.08,14.72,46.72,19.84l0.64,0.64c0.64,0,0.64,0,1.28,0l0,0c29.44,9.6,60.8,14.72,92.8,14.72
	c73.6,0,141.44-26.88,193.92-70.4c0.64,0,1.28-0.64,1.28-1.28c65.28-55.68,106.88-138.24,106.88-230.4
	C702.08,155.52,566.4,19.84,400,19.84S97.92,155.52,97.92,321.92c0,65.92,21.12,127.36,57.6,177.28
	C155.52,499.84,155.52,500.48,156.16,500.48z M220.8,557.44c-22.4-17.28-42.88-37.12-59.52-60.16l1.92-5.76L184.32,464l33.92-24.96
	l12.16,0.64l2.56,16L220.8,557.44z M229.12,563.2c-0.64-0.64-1.28-1.28-1.92-1.28L240,455.68c0,0,0,0,0-0.64c0,0,0,0,0-0.64
	l-2.56-14.72h0.64h1.28l1.28,6.4l1.28,8.96L229.12,563.2z M243.2,532.48L243.2,532.48l-3.2,38.4c-1.28-1.28-3.2-1.92-4.48-3.2l0,0
	l0,0l0,0l12.8-111.36c0,0,0,0,0-0.64c0,0,0,0,0-0.64l-1.28-9.6l0,0l0,0l-1.28-4.48h3.2l0,0c0.64,0,1.28,0,1.28-0.64l0,0l19.2-11.52
	l-3.84,33.92L243.2,532.48L243.2,532.48z M289.28,592.64C289.28,592.64,289.28,593.28,289.28,592.64l1.28,3.84
	c-9.6-3.84-18.56-8.32-27.52-12.8l-0.64-7.04l19.84-33.28l8.96,14.08L289.28,592.64L289.28,592.64z M304.64,602.24
	c-2.56-0.64-4.48-1.28-7.04-2.56l-1.92-7.68l1.92-34.56c0,0,0,0,0-0.64v-0.64v-0.64c0,0,0,0,0-0.64l-12.16-19.2l0,0
	c0,0,0,0-0.64-0.64c0,0,0-0.64-0.64-0.64l0,0c0,0,0,0-0.64,0h-0.64h-0.64h-0.64h-0.64c0,0,0,0-0.64,0l0,0c0,0-0.64,0-0.64,0.64
	c0,0,0,0-0.64,0.64l0,0L256,574.08l0,0v0.64v0.64l0,0v3.84c-3.2-1.92-6.4-3.84-10.24-5.76l3.84-40.96l23.04-69.12l0,0l0,0
	l5.12-40.96l0,0l3.84-29.44l15.36-85.76l21.76-78.72l15.36-32l21.76-10.24l31.36-7.68l17.92-3.2l29.44,8.32h0.64l13.44,16l1.28,1.92
	l17.28,34.56l11.52,42.88l-1.28,55.04l0,0l0,0l8.32,59.52l0,0l0,0l12.16,35.84c0,0,0,0.64,0.64,0.64l5.76,9.6l0,0l12.8,20.48
	l1.92,28.8l-1.92-2.56l0,0c0,0,0-0.64-0.64-0.64c0,0,0,0-0.64-0.64h-0.64h-0.64l0,0c0,0,0,0-0.64,0h-0.64h-0.64l0,0l0,0
	c0,0-0.64,0-0.64,0.64c0,0,0,0-0.64,0.64v0.64v0.64l0,0l-3.2,24.32l-15.36,32.64l0,0l0,0l-7.04,26.24l-12.16,8.96l5.12-16
	c0,0,0,0,0-0.64v-0.64v-0.64c0,0,0,0,0-0.64l0,0c0,0,0-0.64-0.64-0.64c0,0,0-0.64-0.64-0.64c0,0-0.64,0-0.64-0.64h-0.64l0,0
	c0,0,0,0-0.64,0h-0.64h-0.64c0,0,0,0-0.64,0L438.4,576l7.04-10.88l0,0c0-0.64,0.64-0.64,0.64-1.28l4.48-21.76v-0.64v-0.64v-0.64
	c0,0,0,0,0-0.64L433.92,512l-9.6-46.08l-0.64-5.12l7.04-37.76l5.76-14.08l7.68-6.4l0.64-0.64l0,0l7.68-12.8l0,0l0,0l6.4-16.64l0,0
	l9.6-23.68l0,0l0,0l6.4-22.4v-0.64v-0.64l-1.28-20.48c0,0,0,0,0-0.64v-0.64l-3.84-9.6l1.28-19.84v-0.64v-0.64l-9.6-34.56l0,0v-0.64
	v-0.64l0,0l-15.36-16l0,0c0,0-0.64,0-0.64-0.64h-0.64c0,0,0,0-0.64,0l-27.52-4.48l0,0l0,0c0,0,0,0-0.64,0h-0.64l-24.32,3.2
	c0,0,0,0-0.64,0c0,0,0,0-0.64,0l-22.4,9.6c0,0,0,0-0.64,0c0,0-0.64,0-0.64,0.64c0,0,0,0.64-0.64,0.64l0,0l-11.52,21.76l-8.96,10.88
	l0,0v0.64v0.64l0,0l-5.76,23.04l-3.84,8.32l-5.76-5.12l0,0c0,0,0,0-0.64-0.64c0,0-0.64,0-0.64-0.64c0,0,0,0-0.64,0h-0.64
	c0,0,0,0-0.64,0h-0.64l0,0l-12.16,5.12l0,0c0,0-0.64,0-0.64,0.64c0,0,0,0-0.64,0.64c0,0,0,0,0,0.64v0.64l0,0l-5.12,19.2l0,0v0.64
	v0.64l0,0l5.76,17.92l0,0c0,0.64,0.64,0.64,0.64,1.28l0,0l0,0l7.04,4.48l-1.92,5.12c0,0,0,0,0,0.64v0.64v0.64c0,0,0,0,0,0.64
	l3.2,9.6c0,0.64,0.64,0.64,0.64,1.28c0,0,0,0,0,0.64c0.64,0.64,1.28,0.64,1.92,0.64h0.64l11.52-3.2l0.64,7.04l-8.32,48.64l0,0v0.64
	v0.64l0,0l7.04,17.28l10.88,37.76l0,4.48l0,0l0,0l-3.2,7.04l-3.84-15.36l0,0v-0.64c0,0,0,0,0-0.64l-0.64-0.64l0,0h-0.64
	c0,0,0,0-0.64,0l0,0h-0.64c0,0,0,0-0.64,0l0,0c-0.64,0-0.64,0-0.64,0.64l0,0l-0.64,0.64l0,0v0.64v0.64l0,0l-8.96,81.92
	L304.64,602.24z M417.28,460.16C417.28,460.8,417.28,460.8,417.28,460.16l0.64,4.48l-26.88,28.16l-12.8,8.32l-24.32-27.52l1.92-3.84
	c0,0,0,0,0-0.64v-0.64v-0.64c0,0,0,0,0-0.64l-10.88-39.04l0,0l0,0l-7.04-16.64l7.04-42.24l19.84,19.2c0,0,0,0,0.64,0l0,0l22.4,12.16
	l0,0l0,0l24.96,8.32c0.64,0,0.64,0,1.28,0h15.36l-3.84,10.24l0,0l0,0L417.28,460.16L417.28,460.16z M329.6,336.64h-3.2l-7.68-4.48
	l-5.12-16l4.48-17.28l8.32-3.84l6.4,7.68l0,0c0,0.64,0.64,0.64,1.28,0.64l0,0c0,0,0.64,0,1.28,0c0,0,0,0,0.64,0l0,0l0,0
	c0.64,0,1.28,0,1.28-0.64l0,0l0,0c0.64,0,0.64-0.64,0.64-1.28l0,0l6.4-13.44c0,0,0,0,0-0.64l0,0l5.76-23.04l8.96-10.88
	c0,0,0,0,0-0.64l0,0l11.52-21.12l20.48-8.96l23.68-3.2l26.24,4.48l14.08,14.72L464,272l-1.28,19.84l0,0v0.64v0.64l0,0l3.84,10.24
	l1.28,19.2l-6.4,21.76L452.48,368l0,0l-6.4,16.64l-7.04,12.16l-6.4,5.76h-17.92l-24.32-7.68l-21.76-11.52l-23.04-22.4l-2.56-15.36
	l0,0v-0.64v-0.64l0,0l-4.48-7.68l0,0c0,0,0,0,0-0.64c-0.64-0.64-1.92-1.28-3.2-1.28l0,0L329.6,336.64z M333.44,352l-5.76,1.92
	l-1.92-5.76l1.92-4.48h1.28l1.92,1.28L333.44,352z M400,617.6c-30.72,0-60.8-5.12-88.96-13.44l19.84-55.04c0,0,0,0,0-0.64
	c0,0,0,0,0-0.64l7.04-64l1.92,7.04l0,0c0,0,0,0,0,0.64c0,0,0,0.64,0.64,0.64c0,0,0,0,0,0.64l0.64,0.64l0,0l0,0c0.64,0,0.64,0,1.28,0
	l0,0l0,0h0.64c0,0,0.64,0,0.64-0.64l0,0c0.64-0.64,0.64-0.64,1.28-1.28l0,0l4.48-10.88l24.32,27.52c0,0,0.64,0,0.64,0.64
	c0,0,0,0,0.64,0s0.64,0.64,1.28,0.64l0,0l0,0c0.64,0,1.28,0,1.28-0.64l0,0l16-9.6l0,0l0,0l24.32-25.6l8.32,40.96v0.64l0,0l0,0l0,0
	l15.36,26.88l-3.84,19.84l-11.52,18.56l0,0v0.64v0.64v0.64v0.64l0,0l0,0c0,0.64,0.64,0.64,0.64,1.28l0,0l0,0
	c0.64,0.64,1.28,0.64,1.92,0.64l0,0c0.64,0,0.64,0,1.28,0l38.4-14.08l-6.4,18.56l0,0v0.64v0.64v0.64V592l0,0l0,0l0.64,0.64
	c0,0,0,0,0.64,0l0,0c0.64,0,0.64,0,1.28,0l0,0c0.64,0,1.28,0,1.92-0.64l21.12-14.72l0,0l0,0c0.64-0.64,0.64-0.64,1.28-1.28l0,0
	l7.04-26.88l15.36-33.28c0,0,0,0,0-0.64v-0.64l1.92-15.36l3.84,6.4l0,0c0,0.64,0.64,0.64,0.64,0.64s0,0,0.64,0
	c0.64,0,0.64,0.64,1.28,0.64l0,0l0,0c0.64,0,0.64,0,1.28-0.64l0,0c0,0,0,0,0.64,0c0,0,0.64,0,0.64-0.64v-0.64v-0.64v-0.64v-0.64
	l-3.2-42.88l0,0v-0.64v-0.64l0,0l-4.48-7.04l23.04,16.64c0,0,0.64,0,0.64,0.64l23.68,9.6l23.04,69.76
	C537.6,592,471.68,617.6,400,617.6z M400,26.24c163.2,0,295.68,132.48,295.68,295.68c0,88.96-39.68,168.32-101.76,222.72
	l-22.4-68.48l0,0c0,0,0-0.64-0.64-0.64v-0.64l0,0c0,0,0,0-0.64,0l-0.64-0.64l0,0L544.64,464l-35.84-25.6v0l-5.12-7.68l0,0
	l-11.52-35.2l-7.68-58.88l1.28-55.68v-0.64l-12.16-44.16l0,0l0,0l-17.28-35.2c0,0,0-0.64-0.64-0.64l-16-19.2l0,0c0,0,0,0-0.64-0.64
	h-0.64l0,0l-32-9.6l0,0h-0.64h-0.64l0,0l-19.84,1.92l0,0l0,0l-31.36,7.68l0,0l0,0l-23.04,10.88c0,0,0,0-0.64,0c0,0-0.64,0-0.64,0.64
	c0,0,0,0.64-0.64,0.64c0,0,0,0,0,0.64l-16,33.28l0,0l0,0l-21.76,79.36l0,0l0,0l-15.36,85.76l0,0l0,0l-3.2,28.16l-23.04,14.08l0,0
	l-7.04-0.64l0,0l0,0H240L218.88,432h-0.64c0,0,0,0-0.64,0l0,0l0,0c0,0-0.64,0-0.64,0.64l-35.2,26.24l-0.64,0.64l-21.76,28.16
	c0,0-0.64,0.64-0.64,1.28l0,0l0,0l-1.92,1.92c-33.28-48-53.12-106.24-53.12-168.96C103.68,158.72,236.8,26.24,400,26.24z"/>
</svg>
