<?xml version="1.0" encoding="utf-8"?>
<!-- Generator: Adobe Illustrator 17.0.0, SVG Export Plug-In . SVG Version: 6.00 Build 0)  -->
<!DOCTYPE svg PUBLIC "-//W3C//DTD SVG 1.1//EN" "http://www.w3.org/Graphics/SVG/1.1/DTD/svg11.dtd">
<svg version="1.1" id="Layer_1" xmlns="http://www.w3.org/2000/svg" xmlns:xlink="http://www.w3.org/1999/xlink" x="0px" y="0px"
	 width="603.898px" height="603.922px" viewBox="93.528 18.798 603.898 603.922"
	 enable-background="new 93.528 18.798 603.898 603.922" xml:space="preserve">
<path d="M389.12,211.84C389.76,211.84,389.76,211.84,389.12,211.84c2.56-0.64,3.2-1.92,3.2-3.84l-3.84-19.2
	c0-1.92-1.92-3.2-3.84-2.56c-1.92,0-3.2,1.92-2.56,3.84l3.84,19.2C386.56,211.2,387.84,211.84,389.12,211.84z"/>
<path d="M186.24,536.96c19.84,19.2,42.24,35.84,66.56,49.28c0.64,0.64,0.64,0.64,1.28,0.64c42.24,22.4,90.88,35.84,142.08,35.84
	c49.92,0,97.28-12.16,138.24-33.92c0.64,0,0.64-0.64,1.28-0.64c16-8.32,31.36-18.56,45.44-29.44c0.64,0,1.28-0.64,1.92-1.28
	c69.76-55.68,114.56-140.8,114.56-236.8c0-166.4-135.68-302.08-302.08-302.08S93.44,154.24,93.44,320.64
	c0,83.84,34.56,160,89.6,214.4C184.96,536.32,185.6,536.96,186.24,536.96z M252.8,576.64C252.8,577.28,252.8,577.28,252.8,576.64
	C252.8,577.28,252.8,577.28,252.8,576.64v1.92c-22.4-12.8-43.52-28.16-62.08-46.08l5.76-34.56l10.88-28.16l17.92-16.64l16.64-7.68
	l8.32,12.8l9.6,32l3.2,28.8l-3.2,24.96L252.8,576.64z M260.48,375.68L260.48,375.68c0-0.64,0-0.64,0-0.64l0,0c0,0,0,0,0-0.64l0,0
	l0,0l0,0l0,0l0,0l0,0c0,0,0,0-0.64,0l0,0h-0.64c0,0,0,0-0.64,0s0,0,0,0h-0.64l0,0l0,0l0,0h-0.64l0,0L231.04,400l-5.76,5.76
	l6.4-12.16l24.96-38.4l0,0l0,0l76.8-174.08l20.48-19.2l11.52-3.84l12.16-3.84l25.6-1.28l24.96,5.12l19.2,12.16l10.88,14.72l6.4,8.32
	v0.64l16,35.2l16,53.12l7.68,30.08v0.64l35.2,63.36l1.92,10.88l0.64,3.2l-12.8-22.4l0,0l0,0c0,0,0-0.64-0.64-0.64l0,0
	c0,0,0,0-0.64,0c0,0,0,0-0.64,0l0,0c0,0,0,0-0.64,0h-0.64l0,0l0,0l0,0l0,0l0,0l0,0l0,0l0,0c0,0-0.64,0-0.64,0.64l0,0l0,0v0.64
	c0,0,0,0,0,0.64l0,0v0.64c0,0,0,0,0,0.64l0,0l5.12,32v0.64l11.52,26.88l0,0c0,0.64,0.64,0.64,0.64,1.28l21.76,19.84l0.64,3.84
	l-5.76-7.68c0,0,0,0-0.64,0c0,0,0,0-0.64-0.64l-17.28-12.8c0,0,0,0-0.64,0l0,0l-21.76-8.96l0,0l0,0c0,0,0,0-0.64,0h-0.64h-0.64
	c0,0,0,0-0.64,0c0,0-0.64,0-0.64,0.64c0,0,0,0-0.64,0.64c0,0,0,0.64-0.64,0.64l0,0l0,0l0,0l-4.48,19.2l0,0l-3.84,15.36l0,0v0.64
	v0.64l0,0l5.12,17.92l0,0c0,0.64,0.64,1.28,0.64,1.28l4.48,3.84l-7.04-2.56l-14.72-14.08c0,0,0,0-0.64,0h-0.64h-0.64h-0.64h-0.64
	c0,0,0,0-0.64,0l0,0h-0.64c0,0-0.64,0-0.64,0.64l0,0l0,0c0,0,0,0.64-0.64,0.64v0.64v0.64v0.64c0,0,0,0,0,0.64l2.56,8.96l-14.08-9.6
	l-1.92-1.28l-3.84-14.72l0,0l0,0l-9.6-21.76l0,0c0,0,0-0.64-0.64-0.64c-0.64,0,0-0.64-0.64-0.64l0,0l-8.32-7.68l0,0l-7.04-7.04
	l-3.2-6.4l-1.92-24.96v-4.48l10.24-10.88l0.64-0.64l0,0l12.16-29.44l0,0l0,0l8.32-23.68c0,0,0,0,0-0.64c0,0,0,0,0-0.64l1.28-17.92
	l0,0l0,0l-1.28-14.72l0,0l0,0l-1.28-5.76l1.28-12.8l0,0l0,0V256l0,0v-0.64v-0.64l0,0l-10.24-16l0,0l0,0l-12.16-12.8l0,0
	c0,0-0.64,0-0.64-0.64h-0.64l0,0L416,216.96l0,0h-0.64l5.12-3.84l14.72,1.92l10.88,4.48c0.64,0,0.64,0,1.28,0
	c1.28,0,2.56-0.64,3.2-1.92c0-0.64,0-1.92,0-2.56l14.72,23.68l7.68,14.08c0.64,1.28,1.92,1.92,2.56,1.92c0.64,0,1.28,0,1.28-0.64
	c1.28-0.64,1.92-2.56,1.28-4.48l-7.68-14.08l0,0l0,0l-19.84-30.72l0,0c0,0,0-0.64-0.64-0.64c0,0,0,0-0.64-0.64l0,0l-23.68-12.16l0,0
	h-0.64h-0.64l0,0l-24.96-0.64l0,0c-1.92,0-3.2,1.28-3.2,3.2s1.28,3.2,3.2,3.2l24.32,0.64l22.4,11.52l3.2,5.12
	c-0.64-0.64-0.64-1.28-1.28-1.28l-11.52-4.48c0,0,0,0-0.64,0c0,0,0,0-0.64,0l-16-2.56c0,0,0,0-0.64,0h-0.64l0,0
	c0,0-0.64,0-0.64,0.64l-12.16,8.32c-0.64,0.64-1.28,1.92-1.28,2.56l-5.76,0.64l0,0l0,0l-16,5.76l0,0l0,0l-21.12,8.32
	c0,0-0.64,0-0.64,0.64c0,0,0,0-0.64,0l0,0l0,0l-13.44,12.8c0,0,0,0,0,0.64c0,0,0,0-0.64,0.64l-7.68,14.72l0,0l0,0l-3.2,10.24
	l-1.92-3.2c0,0,0,0-0.64-0.64c0,0,0,0-0.64-0.64l-6.4-5.12l0,0h-0.64h-0.64l0,0l-6.4-0.64l0,0h-0.64h-0.64h-0.64
	c0,0-0.64,0-0.64,0.64c0,0,0,0,0,0.64c0,0,0,0.64-0.64,0.64l0,0l-2.56,7.04l0,0v0.64V272l0,0l2.56,10.88l1.92,15.36l0,0
	c0,0,0,0,0,0.64v0.64l0,0l7.04,11.52l0,0l0.64,0.64c0,0,0,0,0.64,0c0,0,0,0,0.64,0l9.6,3.2l5.76,60.8l-0.64,14.72l-8.32,19.2
	l-10.88,19.2l0,0l0,0v0.64c0,0,0,0,0,0.64l0,0l-2.56,29.44c0,0,0,0,0,0.64v0.64v0.64l0,0l9.6,16l0,0l0,0l7.68,10.88l-24.32,0.64
	l-17.28-12.8l-12.16-16.64l-8.32-34.56l0,0l0,0l0,0c0,0,0-0.64-0.64-0.64c0,0,0,0-0.64-0.64c0,0-0.64,0-0.64-0.64h-0.64h-0.64h-0.64
	l0,0l0,0c0,0,0,0-0.64,0l-26.88,12.8l0,0l0,0l-19.84,9.6c0,0,0,0-0.64,0.64c0,0,0,0-0.64,0l-17.28,16l5.12-24.96l22.4-21.76l0,0l0,0
	l26.88-38.4c0,0,0,0,0-0.64v-0.64l0,0c0,0,0,0,0-0.64C260.48,376.32,260.48,376.32,260.48,375.68
	C260.48,376.32,260.48,376.32,260.48,375.68z M516.48,474.88l0.64,3.84l-2.56-2.56l-4.48-16l0.64-1.92L516.48,474.88z M346.88,377.6
	L346.88,377.6l-5.76-63.36c0-0.64,0-0.64-0.64-1.28l0,0c-0.64-0.64-1.28-1.28-1.92-1.28l-10.24-3.2l-6.4-9.6L320,284.16l0,0l0,0
	l-1.92-10.24l1.28-4.48h3.2l5.12,3.84l5.76,7.68l0,0l0.64,0.64c0,0,0,0,0.64,0l0,0h0.64l0,0c0.64,0,1.28,0,1.92-0.64l0,0l0,0
	c0.64-0.64,0.64-0.64,1.28-1.28l0,0l5.12-16l7.04-13.44l12.8-12.16l20.48-8.32l14.72-4.48l14.72-2.56l30.08,8.32l11.52,11.52
	l9.6,14.72v7.04l-1.28,12.8c0,0,0,0,0,0.64s0,0,0,0.64l1.28,6.4l1.28,14.72l-1.28,17.28l-8.32,23.68l-11.52,28.16l-10.24,10.88l0,0
	l0,0l0,0l0,0l-9.6,13.44l-7.68,8.32l-10.24,1.92l-12.8-1.92l-11.52-9.6l-13.44-16c-1.28-1.28-3.2-1.28-4.48-0.64
	c-1.28,1.28-1.28,3.2-0.64,4.48l13.44,16l0,0l0,0l12.8,10.24l0,0c0.64,0,0.64,0.64,1.28,0.64l14.08,2.56h0.64l0,0l0,0l0,0h0.64
	l12.16-2.56l0,0h0.64c0,0,0.64,0,0.64-0.64l0,0l8.32-9.6l0,0l0,0l4.48-5.76l1.92,21.76v0.64c0,0,0,0,0,0.64l3.2,7.68l0,0
	c0,0.64,0.64,0.64,0.64,1.28l5.76,5.76l-6.4,12.16l-12.8,12.8l-9.6,7.68l-17.28,5.76l-18.56-1.28l-21.12-7.04l-14.08-8.32
	l-17.28-18.56l9.6-17.28l0,0l0,0l8.96-19.84c0,0,0,0,0-0.64v-0.64L346.88,377.6L346.88,377.6z M339.84,455.04
	C340.48,455.04,340.48,455.68,339.84,455.04c0.64,0.64,0.64,0.64,0.64,0.64l14.72,8.96l0,0c0,0,0,0,0.64,0l21.76,7.04h0.64l0,0
	l19.84,1.28l0,0c0.64,0,0.64,0,1.28,0l18.56-6.4h0.64l0,0l11.52-7.68l0,0l0,0l13.44-13.44c0,0,0,0,0-0.64l0,0l6.4-10.88l4.48,4.48
	l8.96,21.12l4.48,16l0,0c0,0.64,0.64,1.28,0.64,1.28l-7.04,7.68l-10.24,8.32l-15.36,8.96l-30.08,4.48l-28.8-2.56l-22.4-4.48
	l-9.6-5.12l0,0v-0.64v-0.64c0,0,0,0,0-0.64l-11.52-16l-8.96-15.36l1.92-21.12L339.84,455.04z M396.8,616.32
	c-49.92,0-96.64-12.16-138.24-34.56l0.64-3.84l7.04-33.28l0,0l0,0l3.2-25.6c0,0,0,0,0-0.64c0,0,0,0,0-0.64l-3.2-29.44l0,0l0,0
	l-9.6-32.64c0,0,0,0,0-0.64c0,0,0,0,0-0.64l-8.32-12.16l20.48-9.6l7.68,31.36l0,0l0,0c0,0.64,0,0.64,0.64,0.64l0,0l12.8,17.28l0,0
	c0,0,0,0,0.64,0.64l18.56,14.08l0,0c0.64,0.64,1.28,0.64,1.92,0.64l0,0l0,0l0,0l27.52-0.64l14.08,7.68l0,0c0,0,0,0,0.64,0
	l23.68,5.76c0,0,0,0,0.64,0l0,0l29.44,2.56l0,0l0,0l0,0l0,0l0,0c0,0,0,0,0.64,0l30.72-4.48c0.64,0,0.64,0,1.28-0.64l0,0l16-9.6l0,0
	l0,0l12.8-9.6l0,0l0,0l7.68-8.96l18.56,11.52c0.64,0.64,1.28,0.64,1.92,0.64h0.64c0,0,0,0,0.64,0c0,0,0,0,0.64,0
	s0.64-0.64,1.28-0.64l0,0l0,0c0-0.64,0.64-0.64,0.64-1.28s0-0.64,0-1.28l0,0l-1.28-5.76l7.68,7.04l0,0c0,0,0,0,0.64,0
	c0,0,0.64,0,0.64,0.64l0,0l14.08,4.48l3.84,24.32l6.4,55.68l0.64,10.24C490.88,604.8,445.44,616.32,396.8,616.32z M537.6,580.48
	l-0.64-7.68l0,0l0,0l-6.4-56.32l0,0l0,0l-3.2-21.76c0.64,0,0.64,0,1.28-0.64c0,0,0,0,0.64,0c0,0,0,0,0.64,0
	c0.64-0.64,0.64-0.64,0.64-1.28l0,0v-0.64v-0.64v-0.64v-0.64c0,0,0-0.64-0.64-0.64c0,0,0,0,0-0.64l-4.48-2.56l-2.56-12.8l0,0l0,0
	l-6.4-17.28l-2.56-10.88l3.84-14.72l17.92,7.68l16.64,12.16l14.08,18.56l3.2,14.72l1.28,4.48l7.04,65.92
	C565.12,563.84,551.68,572.8,537.6,580.48z M396.8,24.96c163.2,0,295.68,132.48,295.68,295.68c0,92.16-42.24,174.72-108.8,229.12
	l-6.4-62.08l0,0l0,0l-4.48-21.12l0,0l0,0l0,0l-4.48-19.84l0,0v-0.64c0,0,0-0.64-0.64-0.64l0,0l-21.76-19.84L535.04,400l-1.92-10.88
	l-0.64-2.56l4.48,7.68l10.24,25.6l0,0c0,0,0,0.64,0.64,0.64c0,0,0,0,0.64,0.64c0,0,0,0,0.64,0l0,0c0,0,0,0,0.64,0h0.64h0.64l0,0l0,0
	l0,0h0.64l0,0l0,0l0,0l0,0l0,0c0,0,0,0,0.64,0l0,0c0,0,0,0,0.64-0.64l0,0l0,0c0,0,0,0,0-0.64l0,0c0,0,0,0,0-0.64v-0.64
	c0,0,0,0,0-0.64l-7.04-43.52c0-0.64,0-0.64-0.64-1.28l-35.84-63.36l-7.68-29.44l-16-53.76l0,0l0,0l-16.64-36.48
	c0,0,0-0.64-0.64-0.64l-17.92-24.32l0,0l0,0l-0.64-0.64l0,0l0,0l-20.48-12.8c0,0-0.64-0.64-1.28-0.64l-25.6-5.76h-0.64l-26.88,1.28
	h-0.64l-24.32,8.32l0,0c0,0,0,0-0.64,0c0,0-0.64,0-0.64,0.64l0,0l-21.76,19.84l0,0l0,0L326.4,176l0,0l-77.44,175.36L224,389.76l0,0
	l0,0l-16,28.8l0,0c0,0,0,0,0,0.64v0.64l0,0c0,0,0,0,0,0.64v0.64l0,0l0,0v0.64l0,0l0,0l0,0l0,0l0,0l0,0l0,0l0,0h0.64l0,0l0,0l0,0l0,0
	h0.64c0,0,0,0,0.64,0l0,0l0,0c0,0,0,0,0.64,0l19.84-17.92l1.92-1.92l-5.12,10.24l-23.04,23.04l0,0c0,0,0,0.64-0.64,0.64v0.64l0,0
	L190.72,496l0,0l0,0l-5.12,30.72c-52.48-53.12-84.48-126.08-84.48-206.08C101.12,157.44,233.6,24.96,396.8,24.96z"/>
</svg>
